<?xml version="1.0" encoding="UTF-8" standalone="no"?>
<!-- Created with Inkscape (http://www.inkscape.org/) -->

<svg
   width="53.710415mm"
   height="65.646309mm"
   viewBox="0 0 53.710415 65.646309"
   version="1.1"
   id="svg1"
   inkscape:export-filename="image.png"
   inkscape:export-xdpi="96"
   inkscape:export-ydpi="96"
   xml:space="preserve"
   xmlns:inkscape="http://www.inkscape.org/namespaces/inkscape"
   xmlns:sodipodi="http://sodipodi.sourceforge.net/DTD/sodipodi-0.dtd"
   xmlns="http://www.w3.org/2000/svg"
   xmlns:svg="http://www.w3.org/2000/svg"><sodipodi:namedview
     id="namedview1"
     pagecolor="#ffffff"
     bordercolor="#000000"
     borderopacity="0.25"
     inkscape:showpageshadow="2"
     inkscape:pageopacity="0.0"
     inkscape:pagecheckerboard="0"
     inkscape:deskcolor="#d1d1d1"
     inkscape:document-units="mm"><inkscape:page
       x="0"
       y="0"
       width="53.710415"
       height="65.646309"
       id="page2"
       margin="0"
       bleed="0" /></sodipodi:namedview><defs
     id="defs1" /><g
     inkscape:label="Calque 1"
     inkscape:groupmode="layer"
     id="layer1"
     transform="translate(-119.57117,-94.206343)"><g
       id="g18"
       transform="translate(37.444649,20.274908)"><path
         style="fill:#d4e7f5"
         d="M 82.126526,106.74668 V 73.938347 h 26.855204 26.85521 v 32.808333 32.80834 H 108.98173 82.126526 Z"
         id="path26" /><path
         style="fill:#c4daea"
         d="m 91.938157,139.45671 c 0.06063,-0.0541 1.3604,-0.54659 2.888368,-1.09451 3.520295,-1.26234 11.098725,-4.89905 14.921265,-7.16036 1.61596,-0.95596 3.17576,-1.87859 3.46623,-2.05028 0.65841,-0.38918 2.52843,-1.77873 2.99651,-2.22659 0.19229,-0.184 0.49325,-0.33454 0.6688,-0.33454 0.2974,0 1.23053,-0.90516 1.23053,-1.19365 0,-0.0711 -0.53174,-0.12926 -1.18165,-0.12926 -1.51189,0 -3.8117,-0.94946 -5.69752,-2.35218 -0.50932,-0.37884 -1.0451,-0.69207 -1.19062,-0.69605 -0.14552,-0.004 -0.22514,-0.2425 -0.17693,-0.53003 0.0482,-0.28753 0.14775,-0.88583 0.22118,-1.32955 l 0.13353,-0.80676 -1.67639,-0.0321 c -2.22408,-0.0426 -3.10747,-0.1637 -2.95812,-0.40535 0.12826,-0.20754 -1.20188,-0.84922 -1.58221,-0.76328 -0.11996,0.0271 -0.15115,-0.0591 -0.0693,-0.19147 0.18676,-0.30219 -0.35064,-1.88903 -0.63974,-1.88903 -0.11766,0 -0.15221,-0.236 -0.0768,-0.52445 0.19797,-0.75704 -1.02336,-1.19609 -1.96085,-0.70489 -0.38405,0.20122 -0.56252,0.43191 -0.40803,0.52739 0.294,0.1817 -0.017,2.01729 -0.49066,2.89553 -0.14052,0.26058 -0.17353,0.6064 -0.0734,0.76848 0.10495,0.16982 0.0628,0.22096 -0.0994,0.12069 -0.15486,-0.0957 -0.798329,0.0359 -1.429939,0.29249 -0.820129,0.33317 -1.715591,0.44665 -3.132756,0.39701 -3.661597,-0.12825 -3.975479,-0.16345 -3.63335,-0.40748 0.197863,-0.14113 0.01419,-0.16369 -0.467149,-0.0574 -0.436264,0.0964 -0.716061,0.0981 -0.621771,0.004 0.09429,-0.0943 -0.234367,-0.57724 -0.730351,-1.07322 -0.495983,-0.49599 -0.876536,-0.99407 -0.845671,-1.10684 0.03086,-0.11278 -0.101238,-1.18395 -0.293559,-2.38038 -0.344462,-2.14289 -0.284097,-2.98405 0.214147,-2.98405 0.139418,0 0.307937,0.20836 0.374487,0.46302 0.115238,0.44097 0.122462,0.44097 0.151692,0 0.01688,-0.25466 0.162493,-0.46302 0.323583,-0.46302 0.16109,0 0.220621,0.18833 0.132292,0.41851 -0.08833,0.23019 -0.160599,0.46831 -0.160599,0.52917 0,0.26805 -0.762854,0.0779 -0.883105,-0.22008 -0.0734,-0.1819 -0.142852,0.0492 -0.154341,0.51355 -0.01149,0.46436 0.09817,0.91787 0.243696,1.00781 0.14552,0.0899 0.264583,-0.0179 0.264583,-0.23966 0,-0.22175 0.238125,-0.53062 0.529167,-0.68639 0.291041,-0.15576 0.529166,-0.45386 0.529166,-0.66246 0,-0.22968 0.157708,-0.31874 0.399876,-0.22581 0.286132,0.1098 0.35334,0.0322 0.236276,-0.27289 -0.08998,-0.23449 -0.269924,-0.42634 -0.399876,-0.42634 -0.129952,0 -0.236276,-0.17859 -0.236276,-0.39687 0,-0.23939 0.244985,-0.39688 0.617361,-0.39688 0.826227,0 1.000631,0.22294 0.633854,0.81025 -0.167828,0.26873 -0.213878,0.57987 -0.102334,0.69141 0.111545,0.11155 0.29515,0.0534 0.408013,-0.12922 0.112862,-0.18261 0.382052,-0.26416 0.598199,-0.18122 0.216147,0.083 0.674099,0.0468 1.01767,-0.0803 0.624293,-0.23095 0.624322,-0.23118 0.04851,-0.38176 -0.316892,-0.0829 -0.509445,-0.0427 -0.427896,0.0892 0.08155,0.13195 -0.03735,0.23991 -0.264218,0.23991 -0.4643,0 -0.553162,-0.411 -0.143591,-0.66413 0.147895,-0.0914 0.200399,-0.27702 0.116677,-0.41249 -0.08372,-0.13546 -0.05891,-0.39513 0.05513,-0.57703 0.114044,-0.1819 0.246816,-0.6181 0.295047,-0.96933 0.109889,-0.80022 0.856686,-1.74265 1.380913,-1.74265 0.221884,0 0.379336,-0.21217 0.357096,-0.48121 -0.02414,-0.29205 0.09343,-0.43009 0.299097,-0.35117 0.186382,0.0715 1.394908,-0.15118 2.685613,-0.4949 2.242397,-0.59716 2.293797,-0.62701 1.156111,-0.67149 -1.69032,-0.0661 -2.17032,0.007 -2.834962,0.43286 -0.886187,0.56753 -1.050532,0.47869 -1.554198,-0.84014 -0.405684,-1.06227 -0.425322,-1.45402 -0.155839,-3.10885 0.169585,-1.04139 0.328929,-2.04226 0.354098,-2.22416 0.02713,-0.196103 0.485542,-0.345396 1.126144,-0.366761 0.721514,-0.02406 0.860667,-0.07545 0.418924,-0.154695 -0.997051,-0.178869 -1.131218,-0.446981 -0.714639,-1.428101 0.40029,-0.942754 1.586071,-2.349922 1.980213,-2.349922 0.127879,0 0.391808,0.297656 0.586509,0.661458 0.194701,0.363802 0.462656,0.661459 0.595455,0.661459 0.1328,0 -0.0073,-0.402444 -0.311266,-0.894319 L 98.262144,95.16864 98.85943,94.786408 c 0.328507,-0.210228 0.775879,-0.451816 0.994161,-0.536863 0.218279,-0.08505 0.858229,-0.351847 1.422099,-0.592888 l 1.02523,-0.438257 -0.17038,0.678814 c -0.0937,0.373347 -0.0619,0.678814 0.0706,0.678814 0.13252,0 0.31208,-0.28343 0.39903,-0.629843 0.30259,-1.20564 2.42976,-1.12496 3.97756,0.150863 0.52184,0.430148 0.94881,0.879817 0.94881,0.999264 0,0.119446 -0.83344,0.786638 -1.85209,1.482647 -1.01864,0.69601 -1.85208,1.308177 -1.85208,1.360371 0,0.166545 1.11486,-0.494381 2.44087,-1.447018 0.70715,-0.50804 1.35065,-0.858788 1.43,-0.779441 0.0794,0.07935 0.20942,0.862794 0.28905,1.740992 0.19279,2.126117 -0.36101,3.407587 -1.43922,3.330297 -0.40498,-0.029 -0.52797,-7.1e-4 -0.27331,0.0629 0.25467,0.0637 0.46303,0.17289 0.46303,0.24276 0,0.42537 -0.90525,1.70536 -1.84891,2.61429 l -1.09877,1.05834 -0.44439,-0.586 c -1.34048,-1.76763 -1.38737,-1.81172 -0.84534,-0.79502 0.70571,1.32374 0.67252,1.98905 -0.13074,2.62089 -0.36519,0.28726 -0.59906,0.62733 -0.51971,0.75572 0.18678,0.30222 1.17866,-0.5077 3.23421,-2.6409 l 1.65365,-1.71611 0.0264,0.91612 c 0.0243,0.84495 0.0428,0.86474 0.23821,0.25467 0.19464,-0.60777 0.21409,-0.58629 0.23968,0.26458 0.17155,5.70425 6.67408,9.50047 12.13533,7.0847 3.87037,-1.71205 5.76039,-6.3414 4.15635,-10.1804 -0.28266,-0.67651 -0.31551,-1.043013 -0.11513,-1.284454 0.20894,-0.251757 0.142,-0.381761 -0.26272,-0.510212 -0.66091,-0.209766 -0.72772,-0.729516 -0.0801,-0.622969 0.25466,0.0419 0.61783,-0.02088 0.80705,-0.139496 0.18922,-0.118619 0.90359,-0.310003 1.5875,-0.425298 l 1.24347,-0.209627 -1.7198,-0.01023 c -0.94588,-0.0056 -1.57022,0.05007 -1.38741,0.12377 0.18281,0.0737 0.26151,0.248677 0.17488,0.388835 -0.0969,0.156828 -0.30107,0.135678 -0.53081,-0.055 -0.20533,-0.170406 -0.37332,-0.212962 -0.37332,-0.09457 0,0.118392 -0.16886,-0.01567 -0.37524,-0.297916 -0.20639,-0.282246 -0.46559,-0.422835 -0.576,-0.312419 -0.11042,0.110415 0.0287,0.374332 0.30909,0.586481 0.28042,0.21215 0.37948,0.389514 0.22013,0.394142 -0.39201,0.01138 -1.20971,-0.917494 -0.9959,-1.131308 0.0939,-0.09391 -0.0284,-0.247172 -0.27189,-0.340591 -0.28939,-0.11105 -0.38793,-0.342204 -0.28462,-0.667687 0.11845,-0.373203 0.0266,-0.497833 -0.36694,-0.497833 -0.28873,0 -0.585,0.148828 -0.6584,0.330729 -0.10127,0.250968 -0.13849,0.252971 -0.15434,0.0083 -0.0115,-0.177334 -0.20084,-0.253374 -0.42077,-0.168979 -0.27687,0.106248 -0.35317,0.03173 -0.24803,-0.242252 0.12452,-0.324485 -0.0773,-0.379274 -1.12148,-0.304437 -1.10299,0.07905 -1.16714,0.05854 -0.47957,-0.153322 0.67264,-0.207264 0.61208,-0.223912 -0.39688,-0.109105 -0.65484,0.07451 -1.98877,0.178812 -2.96428,0.231773 -1.94829,0.105775 -2.32738,0.241848 -2.32738,0.835394 0,0.232618 0.12642,0.31874 0.30546,0.208088 0.18497,-0.114318 0.23381,-0.07285 0.12382,0.105121 -0.21713,0.351326 -0.97333,0.10961 -1.38794,-0.44365 -0.25431,-0.339358 -0.3237,-0.313089 -0.48085,0.182041 -0.31418,0.989899 -0.67423,0.677467 -1.07656,-0.934203 -0.092,-0.36841 -1.47653,-1.641211 -1.79903,-1.653808 -0.11772,-0.0046 -0.15081,-0.110687 -0.0735,-0.235751 0.0773,-0.125065 -0.15381,-0.19508 -0.51355,-0.15559 -0.35975,0.03949 -0.65409,-0.01913 -0.65409,-0.130269 0,-0.258035 -4.09476,-0.581654 -4.65235,-0.367687 -0.34046,0.13065 -0.35288,0.207675 -0.0662,0.410502 0.23653,0.167337 0.0332,0.205526 -0.61651,0.115801 -0.58957,-0.08142 -1.158287,0.0042 -1.451442,0.218592 -0.340485,0.248969 -0.625747,0.275551 -0.97147,0.09053 -0.269193,-0.144068 -0.55862,-0.192764 -0.64317,-0.108213 -0.08455,0.08455 -0.01482,0.153728 0.154952,0.153728 0.555457,0 0.324097,0.742848 -0.418923,1.345074 -0.42254,0.342472 -0.527711,0.518193 -0.250842,0.419109 0.284084,-0.101667 0.411434,-0.06492 0.315114,0.09093 -0.08891,0.143854 -0.312461,0.261553 -0.496788,0.261553 -0.573372,0 -1.51649,1.199435 -1.328442,1.68948 0.109722,0.285932 0.05373,0.420893 -0.154276,0.371861 -0.179579,-0.04233 -0.546491,0.42905 -0.81536,1.047513 -0.343866,0.790975 -0.393982,1.128019 -0.168974,1.136413 0.175934,0.0066 -0.03731,0.186956 -0.47387,0.400866 -0.436562,0.21392 -0.589203,0.33281 -0.339202,0.26421 0.250001,-0.0686 0.524918,-0.0109 0.610927,0.1283 0.08601,0.13917 0.04354,0.25303 -0.09437,0.25303 -0.390595,0 -0.648524,1.84063 -0.314352,2.24328 0.192458,0.2319 0.199623,0.38228 0.0211,0.44297 -0.160295,0.0545 -0.2036,0.50137 -0.106421,1.0982 0.122214,0.7506 0.26484,0.96758 0.561239,0.85384 0.302463,-0.11606 0.328861,-0.0699 0.110513,0.19317 -0.182514,0.21992 -0.197602,0.48681 -0.04148,0.73366 0.134969,0.2134 0.247221,0.46928 0.249449,0.56861 0.0044,0.19694 -1.070171,0.61604 -1.375489,0.53645 -0.103904,-0.0271 -0.119063,0.13278 -0.03369,0.35527 0.09383,0.24452 0.02465,0.37408 -0.174886,0.32756 -0.181564,-0.0423 -0.39021,0.0884 -0.463659,0.29059 -0.08957,0.24653 -0.02166,0.29841 0.206245,0.15755 0.189223,-0.11694 0.27441,-0.10395 0.192245,0.0293 -0.08277,0.13426 -2.539875,0.20571 -5.59713,0.16276 l -5.449587,-0.0766 V 91.390432 73.938347 h 18.917699 c 10.40474,0 18.91771,0.06337 18.91771,0.140818 0,0.07745 -0.26789,0.248496 -0.59531,0.380104 -0.40286,0.161929 -0.4561,0.244708 -0.16469,0.256057 0.23684,0.0092 0.57884,-0.161823 0.76,-0.380104 0.2791,-0.336297 1.5158,-0.396875 8.10219,-0.396875 h 7.77281 v 32.808333 32.80834 h -6.24998 -6.24998 l 0.43289,-0.59532 c 0.23808,-0.32742 0.50415,-0.74591 0.59125,-0.92998 0.0871,-0.18407 0.50215,-0.70268 0.92231,-1.15246 0.42016,-0.44978 0.76393,-1.00166 0.76393,-1.22638 0,-0.22473 -0.34005,0.0558 -0.75567,0.62329 -0.41562,0.56754 -1.21929,1.54301 -1.78594,2.16772 l -1.03027,1.13584 -6.21771,-0.0775 -6.2177,-0.0775 2.38125,-1.71295 c 2.94717,-2.12006 2.56052,-1.82653 4.7625,-3.61557 1.01864,-0.82762 2.2688,-1.89651 2.77812,-2.37531 0.50932,-0.4788 1.28323,-1.16361 1.71979,-1.52179 0.43657,-0.35818 0.71549,-0.7297 0.61984,-0.82561 -0.17083,-0.17128 -0.61512,0.16529 -2.51281,1.9035 -0.52341,0.47943 -1.04774,0.87169 -1.16516,0.87169 -0.11743,0 -0.28908,0.23813 -0.38145,0.52917 -0.0924,0.29104 -0.32593,0.52917 -0.51902,0.52917 -0.19308,0 -0.73343,0.35718 -1.20077,0.79375 -0.46734,0.43656 -1.01572,0.79375 -1.21861,0.79375 -0.20289,0 -0.36889,0.17859 -0.36889,0.39687 0,0.21828 -0.13657,0.39688 -0.30348,0.39688 -0.16691,0 -0.79199,0.38948 -1.38906,0.86551 -0.59707,0.47603 -1.60516,1.21599 -2.24019,1.64436 -0.63503,0.42836 -1.21331,0.93185 -1.28507,1.11886 -0.10269,0.26762 -2.02107,0.34002 -9.0098,0.34002 -4.883642,0 -8.829731,-0.0442 -8.769098,-0.0983 z m 32.521703,-12.08313 c 0,-0.15135 0.44648,-0.71689 0.99219,-1.25677 0.5457,-0.53987 1.23031,-1.2668 1.52135,-1.6154 l 0.52917,-0.63381 -0.64892,0.34108 c -0.72588,0.38153 -2.39379,2.06684 -2.39379,2.41876 0,0.12517 -0.1786,0.22758 -0.39688,0.22758 -0.41316,0 -0.52492,0.31292 -0.22048,0.61736 0.2672,0.2672 0.61736,0.21116 0.61736,-0.0988 z m -0.81037,-3.72863 c 0.65948,-0.22116 0.657,-0.22459 -0.0904,-0.12504 -0.79578,0.106 -1.21507,-0.20393 -2.4849,-1.83676 -0.77251,-0.99335 -0.44833,-0.26886 0.38308,0.85612 0.37691,0.50999 0.51721,0.9093 0.35477,1.0097 -0.34005,0.21016 -3.89513,0.0742 -4.28003,-0.16364 -0.16761,-0.10359 -0.21705,-0.49292 -0.11855,-0.93369 l 0.16895,-0.756 -0.40617,0.7276 c -0.72288,1.29495 -2.68723,0.94492 -4.68391,-0.83462 -0.57738,-0.51459 -0.66007,-0.71971 -0.4111,-1.0197 0.253,-0.30485 0.21474,-0.35865 -0.20328,-0.28586 -1.18371,0.20612 -0.46686,-2.42033 0.82071,-3.00699 0.3568,-0.16257 0.64873,-0.37745 0.64873,-0.47751 0,-0.10006 0.44648,-0.37171 0.99219,-0.60366 1.85239,-0.78736 2.1576,-0.80319 2.73431,-0.14183 l 0.53671,0.61549 -0.29176,-0.60078 c -0.44378,-0.91382 -0.12605,-1.11902 1.7327,-1.11902 1.7335,0 2.11528,0.27682 1.38668,1.00542 -0.19247,0.19247 -0.20919,0.3175 -0.0425,0.3175 0.15127,0 0.40571,-0.28681 0.56543,-0.63735 0.25441,-0.55838 0.399,-0.61218 1.16695,-0.43418 0.4821,0.11174 1.3528,0.40648 1.93488,0.65497 l 1.05834,0.4518 -0.66146,0.36988 c -0.77383,0.43271 -0.48653,0.52603 0.30889,0.10033 0.44808,-0.2398 0.66665,-0.1657 1.29941,0.44052 1.30375,1.24907 1.7108,3.78383 0.55317,3.44465 -1.69773,-0.49742 -3.84468,-0.96323 -4.07925,-0.88504 -0.15417,0.0514 0.69052,0.31516 1.87707,0.58617 1.18656,0.271 2.15737,0.57798 2.15737,0.68217 0,0.1042 -0.47625,0.60691 -1.05833,1.11714 -1.26938,1.1127 -1.36749,1.46037 -0.22705,0.80463 1.24613,-0.71652 2.34372,-2.35943 2.34372,-3.50817 0,-0.77918 -0.2133,-1.18185 -1.10092,-2.07834 -1.76666,-1.78432 -3.57705,-2.52466 -6.48469,-2.65183 -2.05811,-0.09 -2.74615,-0.009 -4.24815,0.5032 -3.6253,1.23509 -5.50406,3.26337 -4.73275,5.10939 0.40086,0.95939 2.25381,2.60496 3.47812,3.08884 1.75056,0.69187 7.29027,0.8224 9.10302,0.21449 z m -3.5729,-4.75719 c 0.3085,-0.28235 0.0327,-0.57699 -0.58245,-0.62231 -0.25715,-0.0189 -0.63267,-0.1365 -0.8345,-0.26124 -0.23884,-0.14761 -0.30592,-0.12803 -0.19214,0.0561 0.0961,0.15557 0.0336,0.32994 -0.13901,0.38747 -0.17782,0.0593 -0.23839,0.30122 -0.13975,0.55827 0.13155,0.34281 0.35327,0.41139 0.9075,0.2807 0.40337,-0.0951 0.84453,-0.27466 0.98035,-0.39897 z m 8.34391,-1.69004 c 0,-0.14552 -0.098,-0.11012 -0.21774,0.0787 -0.17281,0.27243 -0.29129,0.25463 -0.57424,-0.0863 -0.30017,-0.36167 -0.29648,-0.46755 0.0234,-0.66993 0.20892,-0.1322 0.52869,-0.24219 0.71059,-0.24442 0.1819,-0.002 0.33073,-0.28189 0.33073,-0.62148 0,-0.35289 0.45346,-1.10862 1.05833,-1.76382 0.58209,-0.63051 1.05834,-1.30516 1.05834,-1.49923 0,-0.19407 0.23812,-0.35285 0.52916,-0.35285 0.29105,0 0.52917,-0.16254 0.52917,-0.3612 0,-0.19865 0.23813,-0.66392 0.52917,-1.03392 0.5159,-0.65586 0.72762,-1.78926 0.33073,-1.77051 -0.10914,0.005 -0.4961,0.17953 -0.8599,0.3875 -0.84637,0.48383 -1.05833,0.48696 -1.05833,0.0156 0,-0.2097 -0.12384,-0.4578 -0.27519,-0.55134 -0.17994,-0.11121 -0.21486,0.0894 -0.10088,0.5797 0.1555,0.66887 0.13523,0.70033 -0.18783,0.29162 -0.33621,-0.42534 -0.43792,-0.39411 -1.42048,0.43615 -0.58208,0.49187 -1.07321,1.02546 -1.0914,1.18576 -0.0182,0.1603 -0.048,0.41051 -0.0662,0.55603 -0.0182,0.14553 -0.30096,0.25078 -0.62838,0.2339 -0.44799,-0.0231 -0.48073,-0.0606 -0.1323,-0.1517 0.25467,-0.0665 0.46302,-0.23836 0.46302,-0.38179 0,-0.25902 -0.34676,-0.12663 -1.00471,0.38358 -0.28128,0.21812 -0.28128,0.30935 0,0.5053 0.23199,0.16161 0.16236,0.18868 -0.21478,0.0835 -0.69126,-0.19278 -1.48044,0.084 -1.25939,0.44161 0.0977,0.15811 -0.0365,0.20424 -0.33225,0.11425 -1.23051,-0.37439 -3.02606,-0.26723 -3.47962,0.20766 -0.43504,0.45551 -0.42941,0.46392 0.1218,0.18209 0.75999,-0.38858 0.7576,-0.38946 0.80927,0.29649 0.0289,0.38343 -0.0285,0.47372 -0.16286,0.25631 -0.15002,-0.24275 -0.38483,-0.26478 -0.84818,-0.0796 l -0.64073,0.25608 0.66145,0.062 c 0.36381,0.0341 0.8402,0.0759 1.05865,0.0928 0.21846,0.0169 0.53514,0.11599 0.70373,0.22019 0.1686,0.1042 0.49588,0.11679 0.72729,0.028 0.23141,-0.0888 0.42075,-0.0569 0.42075,0.0708 0,0.12775 0.53578,0.52496 1.19063,0.88268 0.65484,0.35772 1.19062,0.73845 1.19062,0.84607 0,0.10761 0.18346,0.12526 0.4077,0.0392 0.22423,-0.0861 0.37378,-0.0525 0.33234,0.0744 -0.0414,0.12699 0.16205,0.54542 0.4522,0.92984 0.49577,0.65684 0.91632,0.57892 0.91632,-0.16978 z m -15.45576,-4.87903 c -0.25554,-0.28238 -1.00958,-0.69909 -1.67564,-0.92604 -1.31069,-0.4466 -4.43262,-0.56226 -4.67312,-0.17313 -0.0855,0.13838 0.50598,0.1802 1.40102,0.099 0.96026,-0.0871 1.94083,-0.007 2.5798,0.21161 0.56692,0.19364 1.12338,0.32656 1.23657,0.29538 0.11319,-0.0312 0.27449,0.12232 0.35845,0.34112 0.084,0.21879 0.25101,0.33702 0.37123,0.26272 0.12022,-0.0743 0.29336,-0.0141 0.38477,0.13381 0.0914,0.14789 0.23714,0.2689 0.32387,0.2689 0.0867,0 -0.0514,-0.23104 -0.30695,-0.51341 z m -7.53283,-1.07409 c 0.38427,0 0.49968,-0.17626 0.47642,-0.72761 -0.0189,-0.44764 -0.0773,-0.54945 -0.15169,-0.26458 -0.0666,0.25466 -0.22759,0.46302 -0.35788,0.46302 -0.13028,0 -0.16085,-0.19812 -0.0679,-0.44028 0.12268,-0.31968 0.073,-0.38095 -0.18147,-0.2237 -0.23491,0.14518 -0.28731,0.11445 -0.15897,-0.0932 0.1053,-0.17038 0.32068,-0.22991 0.47863,-0.1323 0.17141,0.10594 0.21107,0.0543 0.0984,-0.12797 -0.10384,-0.16801 -0.0818,-0.30547 0.0489,-0.30547 0.13075,0 0.38955,0.32743 0.5751,0.72761 l 0.33738,0.7276 0.23111,-0.60985 c 0.33735,-0.89019 -0.20103,-1.37862 -1.1536,-1.04655 -0.79042,0.27553 -1.4189,1.1269 -1.0158,1.37603 0.13226,0.0817 0.19079,0.41638 0.13008,0.74366 -0.0607,0.32727 -0.0396,0.44622 0.0469,0.26432 0.0865,-0.1819 0.38548,-0.33073 0.6644,-0.33073 z m 23.12899,-4.7625 c 0.0899,-0.14552 0.48392,-0.27677 0.87551,-0.29167 0.63379,-0.0241 0.6112,-0.0508 -0.20567,-0.24298 -0.5182,-0.12192 -1.11528,-0.11013 -1.37167,0.0271 -0.54617,0.29231 -1.36207,0.32276 -1.19364,0.0446 0.0661,-0.10914 -0.0397,-0.34608 -0.23498,-0.52654 -0.28257,-0.26107 -0.39816,-0.26107 -0.56583,0 -0.13579,0.21143 -0.2695,-0.001 -0.37603,-0.59794 l -0.16532,-0.92604 -0.0348,1.02304 c -0.0303,0.88918 0.0322,1.00553 0.47725,0.88914 0.28703,-0.0751 0.57086,0.0193 0.64583,0.21464 0.0736,0.1917 0.46821,0.39883 0.87698,0.46028 0.40878,0.0615 0.8255,0.12957 0.92606,0.15138 0.10055,0.0218 0.2564,-0.0794 0.34634,-0.22494 z m -27.38437,-5.83728 c 0,-0.282 0.0937,-0.51272 0.20827,-0.51272 0.29348,0 0.33695,-1.017179 0.051,-1.193891 -0.12991,-0.08029 -0.16919,-0.350521 -0.0873,-0.600522 0.0819,-0.250001 -0.10015,-0.06759 -0.40454,0.405348 -0.34063,0.529263 -0.77085,0.859896 -1.118879,0.859896 -0.472626,0 -0.511381,0.06515 -0.236076,0.396875 0.181158,0.218284 0.250573,0.396874 0.154257,0.396874 -0.399405,0 0.507258,0.69111 0.950468,0.7245 0.31374,0.0236 0.48278,-0.14316 0.48278,-0.47636 z m 13.45979,10.06437 c -0.67351,-0.11289 -1.47719,-0.34046 -1.78593,-0.5057 -0.56919,-0.30461 -0.73797,-1.02719 -0.34703,-1.48566 0.11788,-0.13825 0.35794,-0.60854 0.53346,-1.04511 0.34507,-0.85826 0.37092,-0.88056 -1.02814,0.88722 l -0.67722,0.8557 -0.74032,-0.58233 c -0.73276,-0.57639 -2.27086,-2.52553 -2.27086,-2.87773 0,-0.10039 0.50601,-0.3421 1.12447,-0.53713 1.17383,-0.37015 1.88076,-0.78181 1.6827,-0.97987 -0.0638,-0.0638 -0.33458,-0.003 -0.6017,0.13517 -0.26713,0.13816 -0.91651,0.32886 -1.44308,0.42378 l -0.95739,0.17257 -0.17818,-1.5749 c -0.18187,-1.60753 0.0928,-2.69144 0.97468,-3.845773 0.38451,-0.503326 0.42231,-0.496153 1.67309,0.317473 0.70384,0.45783 1.34319,0.76585 1.42078,0.68447 0.0776,-0.0814 -0.15011,-0.34329 -0.50601,-0.58205 -1.70997,-1.147114 -1.74375,-1.203206 -1.18254,-1.963534 0.52055,-0.70525 2.61145,-1.871251 3.84942,-2.146649 0.64388,-0.143238 0.71961,-0.0647 0.99599,1.032926 0.36981,1.468651 0.67524,1.556758 0.48521,0.139968 -0.22166,-1.652604 -0.002,-1.711858 3.44433,-0.929211 0.67359,0.152971 0.77286,0.803129 0.2424,1.587594 -0.1941,0.28704 -0.43252,0.760017 -0.52982,1.051059 -0.1742,0.521067 -0.17082,0.521306 0.22062,0.01558 0.21864,-0.282475 0.39752,-0.590786 0.39752,-0.685135 0,-0.09435 0.31437,-0.314777 0.69859,-0.48984 0.61163,-0.278676 0.77943,-0.242794 1.34805,0.28826 1.23974,1.157813 1.86306,3.120092 0.9911,3.120092 -0.4606,0 -4.10306,1.24092 -4.33751,1.47772 -0.27045,0.27314 1.92968,-0.20956 2.6757,-0.58704 0.39295,-0.19883 1.06268,-0.36151 1.48828,-0.36151 0.65501,0 0.7992,0.12694 0.93918,0.82682 0.41089,2.05444 0.0619,3.80175 -0.96287,4.8206 -0.52095,0.51796 -0.56746,0.49894 -3.1051,-1.26976 -0.34179,-0.23823 -0.34766,-0.21378 -0.0422,0.17615 0.19504,0.24903 0.57134,0.52156 0.83622,0.60563 0.26489,0.0841 0.68251,0.45947 0.92805,0.83421 0.43668,0.66647 0.42809,0.6981 -0.3937,1.44869 -0.46208,0.42204 -1.18219,0.94423 -1.60026,1.16042 -0.80099,0.41421 -1.87864,0.531 -1.79594,0.19463 0.0679,-0.27619 -0.59148,-3.24114 -0.72081,-3.24114 -0.0579,0 -0.0793,0.79115 -0.0474,1.7581 0.0331,1.00374 -0.0556,1.78437 -0.20664,1.81931 -0.14552,0.0337 -0.81564,-0.0312 -1.48916,-0.14407 z m 1.35379,-7.00893 c -0.19309,-0.23266 -0.24162,-0.4022 -0.10785,-0.37676 0.57886,0.1101 0.94026,-0.0406 0.83243,-0.34713 -0.064,-0.1819 -0.008,-0.62269 0.12403,-0.97953 0.23327,-0.62961 0.22513,-0.635 -0.27514,-0.18226 -0.39844,0.36059 -0.54704,0.38776 -0.65435,0.11963 -0.0907,-0.22658 -0.14609,-0.1863 -0.15973,0.11612 -0.0115,0.25466 -0.19949,0.46302 -0.41777,0.46302 -0.33878,0 -0.52064,0.4564 -0.43725,1.09734 0.0123,0.0942 -0.20206,0.11263 -0.47626,0.0409 -0.27421,-0.0717 -0.71662,-0.004 -0.98315,0.15138 -0.38786,0.22552 -0.20733,0.28336 0.90448,0.2898 0.89952,0.005 1.38906,0.11994 1.38906,0.32555 0,0.24048 0.0743,0.2432 0.30628,0.0112 0.232,-0.23199 0.22113,-0.40889 -0.0448,-0.7293 z m -7.37058,-6.081704 c -0.16297,-0.582083 -0.29697,-1.326224 -0.29778,-1.653646 -8.1e-4,-0.327422 -0.12756,-0.595312 -0.28167,-0.595312 -0.15411,0 -0.20983,-0.113863 -0.12382,-0.253028 0.086,-0.139166 0.33048,-0.186221 0.54326,-0.104568 0.21279,0.08165 0.30985,0.27311 0.21569,0.425458 -0.0942,0.152349 0.0553,0.442654 0.33225,0.645124 0.27689,0.202469 0.46599,0.392766 0.42022,0.422882 -0.23271,0.153107 0.31154,0.952677 0.5487,0.806107 0.16357,-0.10109 0.19904,-0.04431 0.0863,0.138127 -0.1053,0.170379 -0.30329,0.240657 -0.43999,0.156174 -0.1367,-0.08448 -0.35165,0.121934 -0.47768,0.458705 -0.21291,0.56892 -0.25015,0.537313 -0.52546,-0.446023 z"
         id="path25" /><path
         style="fill:#b6d1e4"
         d="m 110.72643,139.12813 c 0.17845,-0.21502 0.49016,-0.32736 0.69269,-0.24964 0.20252,0.0777 0.29548,0.0236 0.20657,-0.12026 -0.0889,-0.14385 -0.0356,-0.26155 0.11855,-0.26155 0.15411,0 0.49676,-0.20836 0.76144,-0.46302 0.98491,-0.94764 2.2123,-1.69195 2.56615,-1.55617 0.22319,0.0857 0.31428,0.007 0.2342,-0.20135 -0.14054,-0.36622 2.19902,-2.44122 2.45916,-2.18107 0.0855,0.0855 0.003,0.33969 -0.18422,0.56482 -0.28775,0.34672 -0.27003,0.38258 0.11591,0.23449 0.27101,-0.104 0.40651,-0.3626 0.33443,-0.63823 -0.0667,-0.25486 -0.0465,-0.57215 0.0448,-0.70508 0.32049,-0.46661 2.08645,-1.40439 2.64464,-1.40439 0.42924,0 0.56408,-0.16237 0.56408,-0.67929 0,-0.5748 0.0876,-0.6515 0.56919,-0.49863 0.45256,0.14364 0.53558,0.0931 0.40518,-0.24675 -0.2146,-0.55922 0.6836,-0.58323 1.14229,-0.0305 0.18116,0.21828 0.4934,0.39688 0.69386,0.39688 0.21239,0 0.36448,0.27601 0.36448,0.66146 0,0.59531 0.10583,0.66146 1.05833,0.66146 0.6652,0 1.06187,0.12285 1.06785,0.33072 0.005,0.18191 0.31408,-0.0264 0.68632,-0.46302 0.78584,-0.92163 0.7414,-0.67448 -0.13086,0.72761 -0.43528,0.69969 -0.80454,0.99219 -1.25257,0.99219 -0.49545,0 -0.63532,0.14077 -0.63532,0.63941 0,0.35167 -0.14883,0.69946 -0.33073,0.77286 -0.26458,0.10676 -0.26458,0.13763 0,0.15434 0.1819,0.0115 0.33073,0.19948 0.33073,0.41776 0,0.48057 -0.43263,0.52683 -0.61852,0.0662 -0.0734,-0.1819 -0.14286,0.0562 -0.15434,0.52916 -0.0201,0.82749 -0.19988,0.97412 -1.07923,0.88021 -0.34946,-0.0373 -0.35002,-0.011 -0.005,0.22072 0.32975,0.22118 0.26802,0.39273 -0.38749,1.07694 l -0.77972,0.81385 -5.91385,-0.0255 c -5.18504,-0.0224 -5.87386,-0.0737 -5.58939,-0.41649 z m 13.1114,0.0227 c 0.0853,-0.22232 0.37441,-0.52159 0.64244,-0.66503 0.26802,-0.14344 0.68163,-0.67029 0.91912,-1.17076 0.23749,-0.50048 0.71856,-1.21938 1.06905,-1.59756 0.35049,-0.37818 0.63725,-0.79963 0.63725,-0.93654 0,-0.23843 0.70088,-1.15344 1.62592,-2.12268 0.45919,-0.48112 0.96985,-1.3419 1.73564,-2.92564 0.43467,-0.89894 0.52605,-0.95052 1.46147,-0.82506 0.88382,0.11855 0.9978,0.0694 0.9978,-0.43017 0,-0.3102 -0.11906,-0.564 -0.26458,-0.564 -0.14552,0 -0.26458,-0.23813 -0.26458,-0.52917 0,-0.29104 0.11906,-0.52916 0.26458,-0.52916 0.14552,0 0.26458,-0.29766 0.26458,-0.66146 0,-0.36381 0.0893,-0.65797 0.19844,-0.65371 0.46209,0.0181 1.91823,1.61612 1.91823,2.10519 0,0.29729 0.17546,0.53289 0.39688,0.53289 0.34047,0 0.39687,0.80845 0.39687,5.68854 v 5.68855 h -6.07711 c -5.34229,0 -6.05836,-0.0489 -5.922,-0.40423 z m -6.9186,-13.90643 c -2.18911,-0.30002 -5.49416,-1.82893 -6.4542,-2.9857 -0.2372,-0.28582 -0.31608,-0.83362 -0.23,-1.59735 l 0.13102,-1.16235 -1.63531,0.04 c -3.10796,0.076 -4.92416,-1.29209 -5.30812,-3.99853 -0.16894,-1.19081 0.31163,-1.85351 1.95036,-2.68953 0.61444,-0.31346 1.36025,-0.81302 1.65735,-1.11012 0.77169,-0.77169 2.83389,-0.52777 4.95993,0.58667 1.86089,0.97545 2.44573,0.88238 0.89672,-0.1427 -1.14942,-0.76066 -2.46443,-1.20475 -3.56739,-1.20475 -0.57618,0 -0.83233,-0.21238 -1.25474,-1.04038 -0.29192,-0.57221 -0.64358,-1.1101 -0.78147,-1.19532 -0.13788,-0.0852 -0.91443,0.11506 -1.72567,0.44507 -1.11198,0.45235 -1.4295,0.69768 -1.29021,0.99688 0.10161,0.21829 0.19185,0.77246 0.20053,1.23151 0.009,0.46498 0.13297,0.77532 0.28037,0.70072 0.14552,-0.0737 -0.12351,0.18537 -0.59785,0.57559 -0.48978,0.40294 -0.78584,0.84327 -0.68518,1.01908 0.0975,0.17026 0.0889,0.23043 -0.019,0.1337 -0.10792,-0.0967 -0.61988,0.11164 -1.13767,0.46302 -0.5178,0.35139 -1.16714,0.63888 -1.443,0.63888 -0.4256,0 -0.45706,0.0831 -0.20775,0.54898 0.44289,0.82755 0.0409,2.61539 -0.770327,3.42568 -1.055692,1.05451 -4.069461,1.48607 -6.390997,0.91517 -3.240564,-0.7969 -3.759885,-1.20211 -4.097926,-3.1975 -0.09605,-0.56698 -0.236531,-1.25414 -0.312175,-1.52702 -0.08861,-0.31965 -0.03332,-0.43175 0.155395,-0.31512 0.174794,0.10803 0.292929,-0.021 0.292929,-0.32 0,-0.27558 0.367561,-0.82855 0.816802,-1.22882 0.729705,-0.65017 1.076555,-0.74327 3.252772,-0.87311 1.868115,-0.11145 2.527273,-0.0599 2.82764,0.22102 0.742232,0.69425 2.892369,2.0748 2.892369,1.85711 0,-0.22185 -1.082073,-1.29519 -1.152257,-1.14295 -0.0211,0.0458 -0.246044,0.004 -0.499869,-0.0939 -0.253826,-0.0974 -0.398761,-0.27861 -0.322078,-0.40269 0.180628,-0.29226 -1.070918,-0.93458 -2.549891,-1.30865 -1.131192,-0.2861 -1.166305,-0.32665 -1.229512,-1.41999 -0.03579,-0.619 0.08328,-1.31281 0.264583,-1.54178 0.95708,-1.20868 5.424111,-2.63589 6.841782,-2.18594 0.58776,0.18655 0.59167,0.17736 0.12358,-0.29073 -0.62788,-0.62787 -3.115446,-0.64767 -4.293995,-0.0342 -0.949982,0.49452 -1.144922,0.36198 -1.643338,-1.11734 -0.257055,-0.76295 -0.234453,-0.98092 0.145214,-1.40045 0.421464,-0.46571 0.421556,-0.48608 0.0015,-0.32487 -0.564476,0.21661 -0.566921,-0.0882 -0.01645,-2.05009 0.422273,-1.504968 0.452732,-1.539167 1.389062,-1.559597 l 0.957322,-0.02089 -0.79375,-0.279918 c -1.026494,-0.361996 -0.982609,-0.288823 -0.668582,-1.114777 0.382448,-1.005915 2.135786,-2.764349 2.309367,-2.316079 0.07422,0.19167 0.425895,0.66792 0.7815,1.058333 l 0.646554,0.709842 -0.564946,-1.158462 c -0.675958,-1.386099 -0.573902,-1.543144 1.636052,-2.51759 l 1.49412,-0.658807 -0.10678,1.109096 -0.10678,1.109096 0.42065,-1.124479 c 0.41241,-1.102444 0.44485,-1.12446 1.65537,-1.12349 1.33282,0.0011 2.73129,0.675031 3.19376,1.539157 0.23926,0.447069 0.042,0.663749 -1.59583,1.752828 -1.02787,0.683485 -1.80039,1.311159 -1.71672,1.394831 0.0837,0.08367 0.64558,-0.192713 1.24868,-0.61419 2.48602,-1.737367 2.61656,-1.799509 2.63357,-1.2537 0.008,0.268057 0.0666,0.981879 0.12948,1.58627 0.0672,0.646401 -0.0543,1.502503 -0.29525,2.079073 l -0.40955,0.980183 -1.50587,-0.18046 c -0.82823,-0.0992 -1.80353,-0.2339 -2.16733,-0.29922 -0.6414,-0.11516 -0.64348,-0.11084 -0.0686,0.14246 0.32606,0.14368 1.18926,0.34035 1.91822,0.43705 0.72897,0.0967 1.3254,0.25641 1.3254,0.35491 0,0.27582 -1.09589,1.68966 -2.03454,2.62485 l -0.84392,0.8408 -0.85393,-1.0626 c -1.00913,-1.25573 -1.32682,-1.20848 -0.53113,0.079 0.72586,1.17447 0.70526,1.61545 -0.10528,2.25302 -0.57266,0.45045 -0.62765,0.62008 -0.39737,1.22575 0.14699,0.38662 0.38654,0.62922 0.53234,0.53912 0.14579,-0.0901 0.26772,-0.0675 0.27096,0.0502 0.003,0.11773 0.24853,0.51171 0.54509,0.87551 l 0.53921,0.66146 -0.39535,-0.81302 c -0.21745,-0.44716 -0.5742,-0.96144 -0.79278,-1.14285 -0.33989,-0.28208 -0.0839,-0.63354 1.76849,-2.42775 1.19125,-1.15386 2.2042,-2.0981 2.25099,-2.0983 0.0468,-2e-4 0.0634,0.26752 0.0369,0.59494 -0.078,0.96316 0.0472,1.17407 0.27494,0.46302 0.19286,-0.60221 0.2142,-0.57681 0.23821,0.2836 0.0642,2.29974 1.62032,4.86657 3.77496,6.22674 1.45591,0.91907 4.00903,1.51697 5.78866,1.3556 3.96895,-0.35989 7.33721,-4.01826 7.36396,-7.99823 0.005,-0.7276 -0.16268,-1.79916 -0.37238,-2.38125 -0.45881,-1.27353 -0.492,-1.814525 -0.0963,-1.569981 0.19494,0.120476 0.23919,-0.0071 0.1323,-0.38126 -0.0884,-0.309265 -0.2282,-0.800425 -0.31076,-1.091467 -0.0865,-0.304827 -0.0238,-0.529166 0.1479,-0.529166 0.16392,0 0.21371,0.136427 0.11066,0.303171 -0.13065,0.211394 0.0134,0.252789 0.47574,0.136742 1.29122,-0.324077 5.23665,-0.522833 5.23665,-0.263804 0,0.517327 -2.21618,3.960395 -3.22594,5.011835 -0.90626,0.94367 -1.0327,1.22262 -0.95946,2.11667 l 0.0844,1.02976 1.71979,0.4371 c 0.94589,0.24041 2.34487,0.44877 3.10886,0.46303 0.76398,0.0143 1.38906,0.12356 1.38906,0.2429 0,0.3711 -3.54951,3.46283 -5.06096,4.40825 -1.20385,0.75301 -1.71547,0.90803 -3.14914,0.95418 -1.1633,0.0374 -1.93603,0.21155 -2.41164,0.5434 -0.38493,0.26856 -0.98024,0.60059 -1.32292,0.73785 -0.56225,0.22519 -0.52748,0.25118 0.35623,0.26631 1.90657,0.0327 4.94086,1.05993 6.08165,2.05897 0.25134,0.22012 0.59813,0.30324 0.79375,0.19026 0.19107,-0.11034 0.26325,-0.10731 0.16041,0.007 -0.10285,0.11405 0.10955,0.59616 0.472,1.07136 0.6895,0.90397 1.10384,3.00739 0.81731,4.14903 -0.0889,0.35422 -0.67645,0.95313 -1.35715,1.3834 -0.66021,0.41731 -1.20038,0.86055 -1.20038,0.98497 0,0.12441 -0.0893,0.20181 -0.19843,0.17198 -0.10914,-0.0298 -0.61516,0.0756 -1.12448,0.23419 -2.55596,0.79608 -5.51958,1.1322 -7.54063,0.85522 z m 6.12743,-1.38776 c 2.7348,-0.57322 4.58527,-2.42315 4.58721,-4.58587 8.7e-4,-0.97584 -0.13606,-1.22263 -1.19615,-2.15576 -1.51808,-1.33627 -2.57577,-1.83409 -4.94739,-2.32858 -2.08848,-0.43547 -3.12712,-0.34771 -5.79691,0.4898 -3.10128,0.97287 -5.26605,3.11835 -4.84382,4.80066 0.21216,0.84531 2.21841,2.71811 3.48789,3.25588 1.95788,0.82938 6.07117,1.07681 8.70917,0.52387 z m -4.87066,-0.36798 c -0.98518,-0.12226 -0.99444,-0.15447 -0.47098,-1.63812 0.45102,-1.27832 0.11415,-1.24685 -0.40559,0.0379 -0.41459,1.02486 -0.69408,1.25297 -1.54184,1.2584 -1.42165,0.009 -4.05843,-1.90141 -3.61483,-2.61918 0.0772,-0.12486 -0.0965,-0.28895 -0.38588,-0.36463 -0.2894,-0.0757 -0.52574,-0.35711 -0.5252,-0.62539 0.001,-0.73109 0.94578,-2.13652 1.56826,-2.33408 0.30108,-0.0956 0.54742,-0.27623 0.54742,-0.40149 0,-0.12526 0.68245,-0.48308 1.51656,-0.79516 l 1.51657,-0.56742 0.44407,0.54841 c 0.57759,0.71329 0.85842,0.70475 0.47354,-0.0144 -0.41548,-0.77633 0.0384,-1.01558 1.93624,-1.02063 1.63099,-0.004 1.66844,0.0205 1.23961,0.82176 -0.15496,0.28954 -0.23757,0.65895 -0.18359,0.82091 0.054,0.16197 0.30207,-0.13521 0.55128,-0.66039 l 0.45312,-0.95487 1.38411,0.40929 c 0.76126,0.22511 1.61783,0.53345 1.90348,0.68519 0.50573,0.26866 0.50399,0.28158 -0.0662,0.49249 -0.86704,0.32074 -0.70992,0.5676 0.22989,0.36118 0.64081,-0.14074 0.95249,-0.0503 1.45562,0.42236 0.78591,0.73833 1.24863,2.24571 0.89322,2.9098 -0.24091,0.45015 -0.36895,0.44183 -2.56879,-0.16676 -1.27338,-0.35229 -2.49383,-0.63364 -2.71212,-0.62522 -0.67237,0.0259 0.51377,0.42802 2.71198,0.9193 1.12779,0.25206 2.05052,0.54904 2.05052,0.65996 0,0.11092 -0.58207,0.68901 -1.29349,1.28464 -1.87056,1.56613 -2.59022,1.49704 -3.87764,-0.37224 -0.55123,-0.80036 -1.03824,-1.45521 -1.08225,-1.45521 -0.19409,0 0.31728,1.00051 0.92363,1.80709 0.54948,0.73094 0.59788,0.92184 0.28406,1.12043 -0.37594,0.23791 -1.70996,0.26021 -3.35483,0.0561 z m 2.4474,-4.11864 c 0.41903,0.0336 0.43279,0.0144 0.0661,-0.0922 -0.25467,-0.074 -0.46303,-0.23895 -0.46303,-0.36657 0,-0.12762 0.20836,-0.35063 0.46303,-0.49558 0.35503,-0.20209 0.2162,-0.24583 -0.59532,-0.18757 -0.58208,0.0418 -1.23001,-0.0539 -1.43985,-0.21262 -0.29832,-0.22566 -0.33299,-0.20806 -0.15897,0.0807 0.178,0.2954 0.069,0.33439 -0.54453,0.1948 -0.61771,-0.14054 -0.67583,-0.11913 -0.29848,0.10996 0.25772,0.15647 0.40724,0.38375 0.33225,0.50508 -0.18445,0.29845 0.55804,0.56099 1.05125,0.37173 0.21828,-0.0838 0.39687,-0.0135 0.39687,0.15621 0,0.18105 0.13664,0.2228 0.33073,0.10106 0.1819,-0.1141 0.56886,-0.18838 0.8599,-0.16507 z M 100.04252,100.8597 c 0.16385,0.45246 1.13401,0.42009 1.13401,-0.0378 0,-0.20271 0.17969,-0.43752 0.39932,-0.5218 0.21964,-0.0843 0.36846,-0.26809 0.33073,-0.408454 -0.0377,-0.140369 0.34812,-0.629566 0.85745,-1.087104 l 0.92604,-0.831888 -0.98737,0.569172 c -1.11028,0.640034 -1.68119,0.522248 -1.26231,-0.260435 0.14592,-0.272643 0.2559,-0.771433 0.24441,-1.108422 -0.0124,-0.365038 -0.0732,-0.452281 -0.15024,-0.215831 -0.48696,1.493976 -0.99478,2.371476 -1.19228,2.0602 -0.15922,-0.250947 -0.21705,-0.218724 -0.22004,0.122612 -0.003,0.300159 -0.213442,0.465851 -0.599361,0.471067 -0.537939,0.0073 -0.549943,0.03445 -0.124559,0.282057 0.440145,0.256196 0.431543,0.308126 -0.132292,0.798706 l -0.603044,0.5247 0.629881,-0.34373 c 0.50021,-0.27297 0.654538,-0.27565 0.749655,-0.013 z m 13.1064,9.39393 c -0.47294,-0.23537 -0.8599,-0.53948 -0.8599,-0.67579 0,-0.1363 0.47812,-1.14471 1.06249,-2.2409 0.58437,-1.09619 1.01895,-2.0366 0.96573,-2.08982 -0.0532,-0.0532 -0.58706,0.6614 -1.18633,1.58804 -1.47599,2.28231 -1.72501,2.46843 -2.5656,1.91765 -0.63574,-0.41655 -2.24503,-2.41739 -2.24503,-2.79126 0,-0.0971 0.65078,-0.38171 1.44619,-0.63244 0.7954,-0.25073 1.51681,-0.57013 1.60311,-0.70977 0.21987,-0.35575 -0.32403,-0.31241 -1.83616,0.1463 -0.71521,0.21697 -1.33972,0.35516 -1.38778,0.3071 -0.2626,-0.2626 -0.13189,-3.57857 0.16346,-4.14689 0.83082,-1.598665 0.98192,-1.636961 2.53609,-0.64277 0.78013,0.49905 1.52714,0.90735 1.66003,0.90735 0.13288,0 0.58509,0.24976 1.00489,0.55503 l 0.76329,0.55503 -0.69574,-0.62118 c -0.38265,-0.34164 -1.36492,-1.09382 -2.18281,-1.6715 -0.81789,-0.577688 -1.48708,-1.132651 -1.48708,-1.233256 0,-0.29867 1.58131,-1.538959 2.67063,-2.094686 1.71426,-0.874552 2.16628,-0.726269 2.6598,0.872542 l 0.42878,1.389063 0.0308,-1.521355 c 0.035,-1.726059 0.0566,-1.737211 2.39666,-1.235356 1.55272,0.332997 1.78278,0.57989 1.28525,1.379283 -0.1998,0.321023 -0.50256,0.905384 -0.6728,1.298581 -0.25736,0.594386 -0.24627,0.690622 0.0658,0.57087 0.20644,-0.07922 0.44405,-0.360508 0.52803,-0.625088 0.084,-0.26458 0.42849,-0.661774 0.7656,-0.882654 0.57355,-0.375804 0.66644,-0.352711 1.44623,0.359519 1.26441,1.154861 1.80381,2.903387 0.89678,2.907007 -0.52519,0.002 -4.11017,1.18332 -4.78316,1.57602 -0.67691,0.39499 -0.0851,0.32427 1.9442,-0.2323 2.90849,-0.79773 3.37546,-0.80067 3.59324,-0.0226 0.50737,1.81255 -0.10064,4.58236 -1.07368,4.89119 -0.28541,0.0906 -1.00958,-0.21556 -1.85393,-0.78377 -0.76207,-0.51283 -1.51089,-0.93242 -1.66406,-0.93242 -0.2753,0 0.12942,0.39816 1.905,1.87414 l 0.91189,0.75802 -1.04418,0.92193 c -0.96323,0.85047 -2.65207,1.67308 -2.90846,1.41669 -0.06,-0.06 -0.37614,-1.15326 -0.70258,-2.42952 -0.64853,-2.5355 -0.89495,-2.68607 -0.52393,-0.32013 0.12957,0.8263 0.17952,1.79568 0.11099,2.15416 -0.10916,0.57106 -0.26006,0.6497 -1.21823,0.63487 -0.6015,-0.009 -1.48059,-0.2095 -1.95353,-0.44488 z m 3.10885,-6.03611 c 0,-0.55132 0.13046,-0.91089 0.33073,-0.91161 0.19025,-6.8e-4 0.34997,-0.3816 0.37603,-0.89675 0.0401,-0.7925 -0.0284,-0.89133 -0.59513,-0.85871 -0.35223,0.0203 -0.6405,0.11356 -0.64061,0.20731 -5.6e-4,0.51815 -1.62622,1.77059 -2.71216,2.08952 -1.48696,0.4367 -1.69597,0.829 -0.26458,0.4966 0.5457,-0.12672 1.43867,-0.23325 1.98437,-0.23672 0.88969,-0.006 0.99219,0.0636 0.99219,0.67076 0,0.38401 0.11452,0.6063 0.26458,0.51355 0.14552,-0.0899 0.26458,-0.57321 0.26458,-1.07395 z m -23.481712,2.7276 c -0.750012,-0.52845 -1.762219,-1.71784 -2.976616,-3.49765 -0.218281,-0.31992 -0.606328,-0.78963 -0.862327,-1.04381 -0.584942,-0.58078 -0.373975,-0.94772 0.547213,-0.95179 0.391594,-0.002 1.307302,-0.15602 2.034906,-0.34287 2.341486,-0.60131 2.296217,-0.64149 2.341445,2.07782 0.02904,1.74614 0.160335,2.57711 0.485563,3.0732 0.332463,0.50712 0.369449,0.75625 0.145521,0.98017 -0.432652,0.43266 -0.763661,0.37573 -1.715705,-0.29507 z m 1.088398,-7.737544 c -0.08344,-0.217446 -0.276695,-0.318112 -0.429452,-0.223703 -0.152757,0.09441 -0.204013,0.05236 -0.113903,-0.09344 0.09011,-0.145801 -0.185413,-0.967869 -0.612274,-1.826818 -0.426861,-0.858948 -0.780512,-1.740319 -0.78589,-1.9586 -0.0054,-0.218281 -0.136418,-0.852935 -0.291199,-1.410343 -0.208814,-0.751994 -0.387702,-0.972684 -0.693365,-0.85539 -0.363778,0.139595 -0.361637,0.0813 0.01831,-0.498577 0.478092,-0.72966 0.552604,-1.046701 0.193898,-0.825008 -0.258831,0.159966 -0.673,-1.145768 -0.437976,-1.380791 0.07984,-0.07984 0.145169,0.04624 0.145169,0.280189 0,0.233946 0.137458,0.510311 0.305463,0.614144 0.182317,0.112678 0.23391,0.07301 0.127976,-0.0984 -0.389772,-0.630664 0.420859,-0.58442 1.196524,0.06826 0.453959,0.381982 0.993487,0.630004 1.19895,0.55116 0.205464,-0.07884 0.30907,-0.03899 0.230236,0.08857 -0.125097,0.202412 0.749278,0.606267 3.62158,1.672731 0.400182,0.148585 0.727604,0.375081 0.727604,0.503326 0,0.128245 -0.486305,0.67252 -1.080677,1.2095 -0.594373,0.53698 -1.488838,1.786826 -1.987702,2.777436 -0.498863,0.990611 -0.968795,1.80111 -1.044293,1.80111 -0.0755,0 -0.20554,-0.17791 -0.288981,-0.395355 z M 82.12784,83.529493 l -0.0013,-9.591146 9.458854,0.0076 9.458846,0.0076 -1.168274,0.984545 c -0.642556,0.5415 -2.281841,1.966811 -3.642857,3.167357 -1.361017,1.200547 -2.591462,2.182813 -2.734322,2.182813 -0.142861,0 -0.259747,0.11746 -0.259747,0.261023 0,0.143562 -0.43362,0.658405 -0.9636,1.144096 -0.52998,0.48569 -0.914009,1.031849 -0.853396,1.213685 0.120103,0.360309 1.816996,-1.099164 1.816996,-1.562772 0,-0.144255 0.122762,-0.262282 0.272805,-0.262282 0.150043,0 0.71559,-0.485711 1.256771,-1.079358 0.541181,-0.593647 1.69834,-1.652708 2.571465,-2.353469 0.873125,-0.700761 2.175345,-1.82393 2.893819,-2.495932 l 1.30632,-1.221821 9.00646,0.06956 9.00646,0.06956 -4.22736,2.147719 c -2.32505,1.181246 -4.64409,2.396466 -5.15341,2.700489 -0.50932,0.304022 -1.58188,0.916381 -2.38347,1.360798 -0.80158,0.444416 -1.80236,1.104431 -2.22396,1.466699 -0.4216,0.362268 -0.93036,0.65867 -1.13057,0.65867 -0.20021,0 -0.43256,0.178594 -0.51632,0.396875 -0.0838,0.218281 -0.37768,0.396875 -0.65316,0.396875 -0.27547,0 -0.50167,0.0893 -0.50266,0.198437 -0.001,0.109141 -0.44408,0.496094 -0.98463,0.859896 -0.54055,0.363802 -1.19458,0.840052 -1.4534,1.058334 -0.25882,0.218281 -0.68057,0.575468 -0.937227,0.79375 -0.256657,0.218281 -0.79578,0.544673 -1.19805,0.725315 -0.402271,0.180642 -0.800067,0.50738 -0.883992,0.726084 -0.08393,0.218705 -0.267098,0.326875 -0.407052,0.240378 -0.139954,-0.0865 -0.683103,0.271375 -1.206998,0.79527 -1.034326,1.034326 -2.451841,1.339212 -2.451841,0.527354 0,-0.279009 -0.143882,-0.36997 -0.418515,-0.264584 -0.230183,0.08833 -0.527839,0.160599 -0.661458,0.160599 -0.133619,0 -0.242944,0.124282 -0.242944,0.276182 0,0.1519 0.148828,0.256856 0.330729,0.233235 0.740974,-0.09622 0.937481,0.05623 1.048625,0.8135 0.123392,0.840719 0.0355,0.927631 -0.558013,0.551818 -0.210798,-0.133476 -0.296676,-0.42304 -0.200102,-0.674708 0.133265,-0.347284 0.0572,-0.405337 -0.358321,-0.273457 -0.609561,0.193468 -1.585835,-0.05705 -1.585835,-0.406929 0,-0.131147 0.178594,-0.169917 0.396875,-0.08615 0.218281,0.08376 0.396875,0.03438 0.396875,-0.109737 0,-0.322228 -0.903621,-0.579902 -2.050521,-0.58472 -0.472942,-0.002 -0.859895,-0.122676 -0.859895,-0.268196 0,-0.145521 -0.178594,-0.264584 -0.396875,-0.264584 -0.218282,0 -0.396875,-0.07093 -0.396875,-0.157614 0,-0.265619 0.913423,-1.821153 1.124479,-1.914955 0.10914,-0.04851 0.198437,-0.266788 0.198437,-0.48507 0,-0.559052 -0.610141,-0.299859 -0.922636,0.391943 -0.143647,0.318008 -0.381772,0.58243 -0.529166,0.587605 -0.268593,0.0094 -3.085063,3.414729 -3.261126,3.942918 -0.05152,0.154554 -0.262341,0.281007 -0.468495,0.281007 -0.206155,0 -0.379108,0.148828 -0.384342,0.330729 -0.0052,0.181901 -0.302298,0.687917 -0.660144,1.124479 l -0.650629,0.79375 z m 21.69297,0.79375 c -0.002,-0.314772 2.47582,-2.447396 2.84406,-2.447396 0.18287,0 0.33249,-0.119062 0.33249,-0.264583 0,-0.145521 0.35719,-0.264584 0.79375,-0.264584 0.61736,0 0.79375,-0.117592 0.79375,-0.529166 0,-0.443243 0.18259,-0.532187 1.12448,-0.547763 0.79345,-0.01312 0.97439,-0.07739 0.61464,-0.21832 -0.52013,-0.203762 -0.47946,-0.232052 2.50743,-1.744053 0.28377,-0.143648 0.51595,-0.352008 0.51595,-0.463021 0,-0.111014 0.2311,-0.201843 0.51355,-0.201843 0.28245,0 0.58714,-0.119063 0.67707,-0.264584 0.0899,-0.145521 0.3866,-0.264583 0.65925,-0.264583 0.27264,0 0.5713,-0.238125 0.66367,-0.529167 0.11662,-0.367437 0.40032,-0.529166 0.92826,-0.529166 0.41816,0 0.84082,-0.130275 0.93922,-0.289499 0.0984,-0.159225 0.45175,-0.237345 0.78521,-0.1736 0.40741,0.07788 0.56487,0.008 0.48002,-0.213163 -0.0767,-0.199867 0.27039,-0.455897 0.88405,-0.652113 0.55568,-0.177677 1.12343,-0.42773 1.26168,-0.555671 0.13824,-0.127942 3.50176,-0.232621 7.47448,-0.232621 h 7.22312 v 4.894792 4.894791 h -2.51354 c -2.05787,0 -2.51354,0.07195 -2.51354,0.396876 0,0.286631 -0.29398,0.396875 -1.05834,0.396875 -0.76435,0 -1.05833,-0.110244 -1.05833,-0.396875 0,-0.33073 -0.52917,-0.396876 -3.175,-0.396876 -2.64583,0 -3.175,0.06615 -3.175,0.396876 0,0.319704 -0.41157,0.396875 -2.11667,0.396875 -1.70509,0 -2.11666,-0.07717 -2.11666,-0.396875 0,-0.319705 -0.41158,-0.396876 -2.11667,-0.396876 -1.70509,0 -2.11667,0.07717 -2.11667,0.396876 0,0.319704 -0.41157,0.396875 -2.11666,0.396875 -1.70509,0 -2.11667,-0.07717 -2.11667,-0.396875 0,-0.319191 -0.40797,-0.396876 -2.08427,-0.396876 -1.5299,0 -2.17187,0.105559 -2.41364,0.396876 -0.33781,0.407025 -1.32169,0.554436 -1.32447,0.198437 z"
         id="path24" /><path
         style="fill:#e49c21"
         d="m 115.47044,124.86163 c -1.57186,-0.44222 -3.19044,-1.30728 -4.48651,-2.39785 -0.76553,-0.64415 -0.81096,-0.77785 -0.65747,-1.93495 l 0.16489,-1.24298 -1.70077,0.10829 c -2.27824,0.14507 -4.12724,-0.72448 -4.76726,-2.24195 -1.01547,-2.40764 -0.71022,-3.22612 1.63993,-4.39725 0.72039,-0.35899 1.24554,-0.71696 1.167,-0.7955 -0.0785,-0.0785 0.11167,-0.27899 0.42269,-0.44544 0.90934,-0.48667 2.84918,-0.12244 4.80521,0.90223 1.0001,0.5239 1.81837,0.82918 1.81837,0.67838 0,-0.52169 -2.47025,-1.84359 -3.76647,-2.01554 -1.09728,-0.14556 -1.38737,-0.31368 -1.93704,-1.12259 -0.35557,-0.52326 -0.64648,-1.11508 -0.64648,-1.31515 0,-0.20007 -0.14883,-0.30408 -0.33073,-0.23113 -2.52173,1.01127 -3.07749,1.19007 -3.22877,1.03879 -0.0977,-0.0977 -0.0512,0.15503 0.10343,0.56163 0.15458,0.40659 0.28107,1.03615 0.28107,1.39901 0,0.96389 -1.48523,2.66256 -2.7505,3.14577 l -1.08596,0.41473 v 1.57081 c 0,2.19741 -0.608109,2.77474 -3.442965,3.26871 -1.799432,0.31355 -2.245794,0.31395 -3.005496,0.003 -0.490714,-0.20109 -1.205089,-0.36605 -1.5875,-0.3666 -1.973827,-0.003 -3.565797,-2.52731 -2.949325,-4.67696 0.468665,-1.63425 1.492371,-2.23816 4.051926,-2.39033 l 2.170857,-0.12906 1.984375,1.40233 c 1.475221,1.04251 1.875815,1.23608 1.561273,0.7544 -0.614542,-0.9411 -2.874993,-2.59081 -3.80451,-2.7766 -1.389175,-0.27766 -1.636459,-0.38414 -1.670778,-0.71943 -0.0184,-0.1798 -0.112456,-0.65849 -0.209006,-1.06378 -0.126345,-0.53034 -0.03663,-0.8906 0.320092,-1.28536 0.613178,-0.67857 2.566004,-1.6809 3.802929,-1.95193 1.71343,-0.37545 4.233338,-0.0756 4.233338,0.50371 0,0.17817 0.41671,0.72785 0.92604,1.2215 1.10646,1.07243 1.22092,0.75539 0.19315,-0.53503 l -0.73289,-0.92018 2.06219,-2.00004 c 1.1342,-1.10002 2.10535,-1.95688 2.15811,-1.90412 0.0528,0.0528 0.0443,0.68544 -0.0189,1.40595 -0.0631,0.72051 0.0178,1.51783 0.17989,1.77182 0.2464,0.38616 0.27696,0.33178 0.18656,-0.33194 -0.0595,-0.43656 -0.0219,-1.15094 0.0834,-1.5875 0.18172,-0.7533 0.19307,-0.73909 0.22278,0.27878 0.0682,2.33726 2.38887,5.36549 5.01191,6.54004 0.94457,0.42296 1.80018,0.55815 3.61835,0.57173 2.0895,0.0156 2.5452,-0.0687 3.71942,-0.68849 3.59954,-1.8998 5.40833,-5.91787 4.25346,-9.44869 -0.23774,-0.72685 -0.43226,-1.45503 -0.43226,-1.618179 0,-0.581704 0.4916,0.01953 0.66628,0.814889 0.0978,0.4453 0.24322,0.74424 0.32314,0.66432 0.0799,-0.0799 -0.0592,-0.68093 -0.30925,-1.33557 -0.25001,-0.654637 -0.38438,-1.303802 -0.29861,-1.442586 0.0858,-0.138784 0.83868,-0.322889 1.67314,-0.409122 0.83445,-0.08623 2.0232,-0.211351 2.64166,-0.278039 0.6898,-0.07438 1.12448,-0.01321 1.12448,0.158253 0,0.542754 -2.08668,3.823524 -3.01317,4.737454 -0.80246,0.79157 -0.94,1.10386 -0.94718,2.15065 l -0.008,1.2246 1.65364,0.40504 c 0.90951,0.22276 2.29091,0.48821 3.06978,0.58988 l 1.41613,0.18485 -1.15155,1.18631 c -1.50288,1.54824 -4.06869,3.36688 -5.31802,3.76939 -0.54531,0.17569 -1.44549,0.28665 -2.00039,0.24659 -0.66781,-0.0482 -1.31658,0.11685 -1.91894,0.48825 -0.50051,0.30861 -1.26721,0.65241 -1.70378,0.76401 -0.67685,0.17301 -0.46461,0.25464 1.44111,0.55422 4.23213,0.6653 6.89926,2.45256 7.42271,4.97399 0.18451,0.88879 0.19583,1.59955 0.0323,2.02961 -0.27914,0.7342 -1.52536,1.87071 -2.74009,2.49887 -2.30086,1.18982 -7.493,1.71883 -9.98609,1.01744 z m 8.99521,-1.37378 c 2.0675,-0.9334 3.60611,-3.1225 3.24606,-4.61844 -0.19588,-0.81385 -1.54134,-2.22735 -2.86389,-3.00872 -1.36133,-0.80429 -4.22391,-1.40563 -7.70528,-1.61864 l -2.73685,-0.16745 v 0.79149 c 0,0.57656 -0.17077,0.86929 -0.62889,1.07803 -1.8217,0.83002 -3.28907,2.8793 -2.97052,4.14852 0.16296,0.64928 1.61726,2.24282 2.70891,2.96827 1.81951,1.20915 8.62971,1.47467 10.95046,0.42694 z m -5.89277,-0.002 c -0.69123,-0.0545 -1.25677,-0.1971 -1.25677,-0.31688 0,-0.11977 0.18482,-0.66011 0.41071,-1.20075 0.63295,-1.51486 0.30889,-1.69448 -0.43657,-0.24198 -0.78148,1.52268 -1.4951,1.74102 -3.06289,0.93713 -0.99723,-0.51133 -2.39904,-1.79296 -2.18191,-1.99486 0.0612,-0.0569 0.7066,-0.29299 1.4342,-0.52461 1.27721,-0.40657 1.13727,-0.40996 -0.99219,-0.0241 -0.98836,0.17911 -0.99219,0.17631 -0.99219,-0.72618 0,-0.6554 0.21333,-1.11036 0.77125,-1.64489 0.72258,-0.69227 0.83224,-0.71878 1.73752,-0.42001 0.53145,0.17539 1.02634,0.25883 1.09976,0.18541 0.0734,-0.0734 -0.23853,-0.21519 -0.6932,-0.31505 -1.12773,-0.24769 -0.88881,-0.67405 0.6728,-1.20064 l 1.30667,-0.44062 0.86994,0.95238 0.86995,0.95239 -0.53164,-1.09908 c -0.63239,-1.30737 -0.50292,-1.41447 1.71004,-1.41447 h 1.4198 l -0.28141,0.80726 c -0.38814,1.11344 -0.0904,1.27923 0.44338,0.24692 0.37778,-0.73054 0.54233,-0.82622 1.19607,-0.69547 0.41691,0.0834 1.21084,0.34577 1.76428,0.58307 0.92765,0.39776 0.96186,0.44872 0.43801,0.65235 -0.31253,0.12148 -0.65948,0.36851 -0.771,0.54896 -0.14377,0.23262 -0.0675,0.27618 0.26209,0.14971 1.27462,-0.48912 1.68132,-0.46461 2.38886,0.14399 0.53797,0.46274 0.76098,0.94499 0.8654,1.87142 0.12363,1.09686 0.0804,1.24705 -0.35676,1.2398 -0.91632,-0.0152 -6.11631,-1.44384 -6.17105,-1.69544 -0.0297,-0.13666 0.46077,-0.45743 1.08999,-0.71282 1.41736,-0.57528 1.03121,-0.63119 -0.55192,-0.0799 -0.64174,0.22347 -1.23706,0.30532 -1.32292,0.1819 -0.20188,-0.2902 -1.34674,-0.36414 -1.34674,-0.087 0,0.1163 -0.32742,0.16588 -0.7276,0.11019 l -0.72761,-0.10126 0.66146,0.29759 c 0.63084,0.28382 0.63697,0.30753 0.13229,0.51236 -0.29104,0.11812 -1.06494,0.32964 -1.71979,0.47004 l -1.19062,0.25528 1.00958,0.0318 c 0.55527,0.0175 1.26395,-0.10436 1.57485,-0.27075 0.38122,-0.20402 0.59512,-0.21297 0.65696,-0.0275 0.0533,0.1599 0.59916,0.22764 1.3038,0.16182 1.11719,-0.10437 5.93086,0.91809 6.91486,1.46876 0.52936,0.29624 -2.18817,2.40455 -3.0941,2.40046 -0.54039,-0.002 -0.91763,-0.32663 -1.71271,-1.47183 -1.23225,-1.77489 -1.6419,-1.70789 -0.47781,0.0781 l 0.82418,1.26452 -0.58939,0.17206 c -0.62682,0.18299 -0.69408,0.18377 -2.63991,0.0303 z m -5.04677,-13.15419 c -0.55653,-0.19847 -1.09103,-0.44001 -1.18778,-0.53676 -0.0968,-0.0968 0.32874,-1.13969 0.94553,-2.31766 1.16676,-2.22832 1.36653,-3.0897 0.31064,-1.33948 -0.84941,1.40796 -2.10132,2.99048 -2.36574,2.99048 -0.4189,0 -1.80161,-1.32924 -2.35058,-2.25967 l -0.54912,-0.93068 0.72321,-0.28485 c 1.83819,-0.724 2.55047,-1.10383 2.26329,-1.20691 -0.17161,-0.0616 -0.9054,0.0642 -1.63064,0.27958 -0.72525,0.21538 -1.38852,0.32171 -1.47393,0.2363 -0.27702,-0.27702 -0.16406,-3.52452 0.14328,-4.11939 0.77775,-1.50537 0.95104,-1.544275 2.49092,-0.55923 0.78013,0.49905 1.52714,0.90735 1.66003,0.90735 0.13288,0 0.58509,0.24976 1.00489,0.55503 l 0.76329,0.55503 -0.69574,-0.62118 c -0.38265,-0.34164 -1.36492,-1.09382 -2.18281,-1.6715 -0.81789,-0.577688 -1.48708,-1.132651 -1.48708,-1.233256 0,-0.29867 1.58131,-1.538959 2.67063,-2.094686 1.71426,-0.874552 2.16628,-0.726269 2.6598,0.872542 l 0.42878,1.389063 0.0308,-1.521355 c 0.035,-1.726059 0.0566,-1.737211 2.39666,-1.235356 1.55272,0.332997 1.78278,0.57989 1.28525,1.379283 -0.1998,0.321023 -0.50256,0.905384 -0.6728,1.298581 -0.25736,0.594386 -0.24627,0.690622 0.0658,0.57087 0.20644,-0.07922 0.44405,-0.360508 0.52803,-0.625088 0.084,-0.26458 0.42849,-0.661774 0.7656,-0.882654 0.57355,-0.375804 0.66644,-0.352711 1.44623,0.359519 1.26441,1.154861 1.80381,2.903387 0.89678,2.907007 -0.54703,0.002 -4.14555,1.19802 -4.78316,1.58951 -0.5865,0.3601 1.28175,0.0561 2.69976,-0.43934 0.56399,-0.19705 1.41231,-0.35827 1.88515,-0.35827 0.7512,0 0.88058,0.10435 1.02507,0.82682 0.26531,1.32656 0.19441,2.26488 -0.25625,3.39118 -0.57972,1.44886 -1.09591,1.52761 -2.7439,0.41859 -1.4493,-0.97531 -2.32405,-1.26593 -1.41287,-0.4694 0.29132,0.25466 0.96552,0.84733 1.49822,1.31704 l 0.96854,0.85403 -0.99471,0.92509 c -0.90805,0.84449 -2.59379,1.67681 -2.85899,1.4116 -0.06,-0.06 -0.37614,-1.15326 -0.70258,-2.42952 -0.6581,-2.57292 -0.85471,-2.67474 -0.54241,-0.28091 0.30965,2.37356 0.19315,2.76899 -0.81173,2.75512 -0.46282,-0.006 -1.29684,-0.174 -1.85337,-0.37247 z m 2.73166,-6.11383 c 0,-0.55132 0.13046,-0.91089 0.33073,-0.91161 0.19025,-6.8e-4 0.34997,-0.3816 0.37603,-0.89675 0.0401,-0.7925 -0.0284,-0.89133 -0.59513,-0.85871 -0.35223,0.0203 -0.6405,0.11356 -0.64061,0.20731 -5.6e-4,0.51815 -1.62622,1.77059 -2.71216,2.08952 -1.48696,0.4367 -1.69597,0.829 -0.26458,0.4966 0.5457,-0.12672 1.43867,-0.23325 1.98437,-0.23672 0.88969,-0.006 0.99219,0.0636 0.99219,0.67076 0,0.38401 0.11452,0.6063 0.26458,0.51355 0.14552,-0.0899 0.26458,-0.57321 0.26458,-1.07395 z m -23.202631,2.7167 c -0.637721,-0.35454 -1.82559,-1.70612 -3.324298,-3.78246 l -0.971521,-1.34596 2.04746,-0.43998 c 3.132209,-0.67307 2.961412,-0.76655 2.961412,1.62075 0,1.49152 0.136834,2.32912 0.495386,3.03239 0.272462,0.53442 0.431212,1.03585 0.352777,1.11428 -0.234916,0.23492 -0.943064,0.14464 -1.561216,-0.19902 z m 7.709661,-0.90164 c -0.26142,-0.26142 -0.878252,-0.45518 -1.474067,-0.46303 -0.563499,-0.007 -1.024562,-0.0631 -1.024584,-0.12381 -2.2e-5,-0.0607 0.416678,-0.86845 0.926001,-1.79505 0.509323,-0.9266 0.92604,-1.87311 0.92604,-2.10335 0,-0.28836 0.16466,-0.37557 0.52917,-0.28025 0.3875,0.10134 0.52917,0.008 0.52917,-0.34818 0,-0.26761 0.25385,-0.56714 0.56412,-0.66562 0.38874,-0.12338 0.46407,-0.24088 0.24231,-0.377935 -0.20977,-0.129644 0.2617,-0.578162 1.3541,-1.288197 0.92176,-0.599118 2.16383,-1.449099 2.76015,-1.888849 0.59632,-0.43975 1.20941,-0.799545 1.36242,-0.799545 0.41175,0 0.54531,2.353388 0.20271,3.571875 -0.33248,1.182471 -0.37352,1.192731 -3.44311,0.860881 l -1.5875,-0.17162 1.05834,0.36264 c 0.58208,0.19945 1.43826,0.37179 1.90261,0.38297 0.46436,0.0112 0.91149,0.12909 0.99364,0.26201 0.15293,0.24744 -2.389,3.19791 -2.75512,3.19791 -0.11145,0 -0.63528,-0.55532 -1.16407,-1.23404 -1.11309,-1.4287 -1.24271,-1.25349 -0.29679,0.40115 0.83928,1.46812 0.82704,1.73502 -0.11018,2.40237 -0.92778,0.66065 -0.9321,0.66093 -1.49536,0.0977 z m -5.631222,-0.48897 c -0.561448,-1.23225 -0.382619,-1.8516 0.751281,-2.60198 0.582083,-0.38521 1.058333,-0.76524 1.058333,-0.84453 0,-0.16353 -0.34819,0.0217 -1.370487,0.729 -0.389966,0.26982 -0.77035,0.39136 -0.845297,0.27009 -0.07495,-0.12127 0.05638,-0.93949 0.291835,-1.81827 l 0.428105,-1.597777 1.872401,0.124921 c 1.029821,0.06871 1.985511,0.229926 2.123755,0.358266 0.15697,0.14573 0.142761,0.23335 -0.03784,0.23335 -0.159056,0 -0.358782,0.18135 -0.443837,0.403 -0.124887,0.32545 -0.05705,0.35077 0.35251,0.13157 0.278936,-0.14928 0.557931,-0.1818 0.61999,-0.0723 0.213733,0.37723 -1.904852,4.57105 -2.38458,4.72037 -0.260846,0.0812 -0.681009,0.25799 -0.933696,0.39289 -0.752256,0.40159 -1.157594,0.28439 -1.482475,-0.42864 z m -1.558965,-6.932867 c -1.037923,-1.853505 -1.684858,-3.897446 -1.842374,-5.820833 -0.0864,-1.055026 -0.07857,-1.918229 0.0174,-1.918229 0.09597,0 0.797763,0.34331 1.559543,0.762912 0.76178,0.419602 1.980367,0.974443 2.707971,1.23298 2.210484,0.785443 2.266277,0.955146 0.821751,2.499462 -0.690164,0.73784 -1.542849,1.992761 -1.894856,2.788712 -0.352007,0.795951 -0.679122,1.447184 -0.726921,1.447184 -0.0478,0 -0.336929,-0.446484 -0.642511,-0.992188 z m 3.170142,0.683699 c -0.618464,-0.1385 -1.12448,-0.343462 -1.12448,-0.45547 0,-0.295017 1.534393,-2.566756 1.987833,-2.943077 0.315618,-0.26194 0.46901,-0.172114 0.852179,0.499031 0.515702,0.903285 1.210086,1.359118 0.936606,0.614843 -0.09085,-0.247251 -0.333175,-0.712201 -0.538498,-1.033224 -0.477254,-0.746185 -0.26371,-1.069067 1.090507,-1.648869 2.273258,-0.973283 2.234488,-0.981808 2.005768,0.441041 -0.32641,2.030543 -1.13056,4.171408 -1.57189,4.184782 -0.21829,0.0066 -0.36711,0.155443 -0.33073,0.330729 0.0791,0.381005 -1.628015,0.386277 -3.307295,0.01021 z m 4.705775,-0.551407 c 0.0135,-0.473326 0.66649,-3.054494 1.08772,-4.299479 0.33655,-0.994724 0.4272,-1.063299 1.50828,-1.14095 0.85401,-0.06134 1.37345,0.07035 2.01706,0.511357 1.69866,1.163939 1.66068,1.251863 -1.44576,3.346694 -1.56033,1.052209 -2.91341,1.913107 -3.00685,1.913107 -0.0934,0 -0.16563,-0.148828 -0.16045,-0.330729 z"
         id="path23" /><path
         style="fill:#8fab22"
         d="m 115.47044,124.86163 c -1.57186,-0.44222 -3.19044,-1.30728 -4.48651,-2.39785 -0.76553,-0.64415 -0.81096,-0.77785 -0.65747,-1.93495 l 0.16489,-1.24298 -1.70077,0.10829 c -2.27824,0.14507 -4.12724,-0.72448 -4.76726,-2.24195 -1.01119,-2.3975 -0.7313,-3.17315 1.56228,-4.3294 0.7037,-0.35475 1.339,-0.71809 1.41176,-0.80741 0.42194,-0.51796 2.03918,-1.02298 1.74341,-0.54442 -0.0769,0.1245 0.1607,0.1689 0.5281,0.0987 0.7947,-0.15192 2.81288,0.69111 2.57519,1.0757 -0.0963,0.15585 -0.0341,0.18705 0.14821,0.0744 0.17279,-0.10679 0.73378,0.0534 1.24663,0.35599 1.10393,0.65134 1.16679,0.66112 1.16679,0.1816 0,-0.20271 -0.19563,-0.44364 -0.43474,-0.53539 -0.23911,-0.0918 -0.36105,-0.24053 -0.27098,-0.3306 0.0901,-0.0901 0.33951,-0.0179 0.5543,0.16035 0.37919,0.3147 1.05799,0.24195 4.12017,-0.44161 l 0.66146,-0.14765 -0.66146,-0.188 c -0.46066,-0.13093 -0.25009,-0.17964 0.69364,-0.16046 0.96707,0.0197 1.31884,0.12226 1.22846,0.35828 -0.0696,0.1819 -0.38178,0.34454 -0.69364,0.36142 -0.53587,0.029 -0.53795,0.038 -0.0378,0.1629 0.29104,0.0727 0.5992,0.24313 0.68481,0.37871 0.0856,0.13557 0.32373,0.04 0.52917,-0.21244 0.33187,-0.40776 0.32035,-0.439 -0.10325,-0.28014 -0.26841,0.10067 -0.41067,0.0719 -0.32552,-0.0659 0.0832,-0.1346 0.35726,-0.25073 0.60906,-0.25808 1.02228,-0.0298 1.35378,-0.1195 1.22315,-0.33086 -0.0756,-0.1223 0.0487,-0.29378 0.27622,-0.38109 0.22751,-0.0873 0.41365,-0.27573 0.41365,-0.41874 0,-0.143 0.2254,-0.45769 0.5009,-0.69929 0.58256,-0.51091 1.35649,-2.48173 1.44861,-3.68889 0.0654,-0.85694 0.43174,-1.53187 0.43174,-0.79541 0,0.43824 2.09372,1.06046 4.72342,1.40372 l 1.41613,0.18485 -1.15155,1.18631 c -1.51671,1.56249 -4.07204,3.3679 -5.35011,3.77998 -0.56295,0.18151 -1.54522,0.27122 -2.18281,0.19936 -0.63759,-0.0719 -1.15925,-0.0453 -1.15925,0.059 0,0.3557 -1.22521,0.74891 -2.00256,0.64268 -0.42656,-0.0583 -0.62674,-0.036 -0.44483,0.0496 0.48435,0.22781 0.40338,0.6364 -0.1323,0.66755 -0.25466,0.0148 0.54267,0.1954 1.77184,0.40131 4.27098,0.71546 6.90149,2.48635 7.42271,4.99704 0.18451,0.88879 0.19583,1.59955 0.0323,2.02961 -0.27914,0.7342 -1.52536,1.87071 -2.74009,2.49887 -2.30086,1.18982 -7.493,1.71883 -9.98609,1.01744 z m 8.99521,-1.37378 c 2.0675,-0.9334 3.60611,-3.1225 3.24606,-4.61844 -0.19623,-0.81528 -1.54206,-2.22778 -2.87026,-3.01246 -1.33088,-0.78626 -4.82238,-1.53299 -6.44426,-1.37824 -0.66736,0.0637 -1.00501,0.0681 -0.75035,0.01 1.05568,-0.24133 0.3435,-0.48103 -1.32292,-0.44526 -1.78065,0.0382 -1.78617,0.0407 -1.86616,0.83268 -0.0532,0.52697 -0.28716,0.88863 -0.69503,1.07447 -1.80816,0.82385 -3.27387,2.87738 -2.95645,4.14211 0.16296,0.64928 1.61726,2.24282 2.70891,2.96827 1.81951,1.20915 8.62971,1.47467 10.95046,0.42694 z m -5.89277,-0.002 c -0.69123,-0.0545 -1.25677,-0.1971 -1.25677,-0.31688 0,-0.11977 0.18482,-0.66011 0.41071,-1.20075 0.63295,-1.51486 0.30889,-1.69448 -0.43657,-0.24198 -0.78148,1.52268 -1.4951,1.74102 -3.06289,0.93713 -0.99723,-0.51133 -2.39904,-1.79296 -2.18191,-1.99486 0.0612,-0.0569 0.7066,-0.29299 1.4342,-0.52461 1.27721,-0.40657 1.13727,-0.40996 -0.99219,-0.0241 -0.98836,0.17911 -0.99219,0.17631 -0.99219,-0.72618 0,-0.6554 0.21333,-1.11036 0.77125,-1.64489 0.72258,-0.69227 0.83224,-0.71878 1.73752,-0.42001 0.53145,0.17539 1.02634,0.25883 1.09976,0.18541 0.0734,-0.0734 -0.23853,-0.21519 -0.6932,-0.31505 -1.1282,-0.24779 -0.88848,-0.67467 0.6728,-1.19806 l 1.30667,-0.43803 0.98133,1.08209 c 1.24755,1.37564 1.29297,1.78976 0.16067,1.46502 -1.13515,-0.32556 -1.25459,-0.12681 -0.16332,0.27177 0.78672,0.28735 0.82089,0.34067 0.34423,0.53729 -0.29104,0.12006 -1.06494,0.33316 -1.71979,0.47356 l -1.19062,0.25528 1.00958,0.0318 c 0.55527,0.0175 1.25502,-0.0996 1.555,-0.26013 0.33386,-0.17867 0.60934,-0.19518 0.71021,-0.0425 0.0906,0.13714 0.70057,0.21452 1.35541,0.17195 1.08411,-0.0705 5.95349,0.97264 6.82985,1.46307 0.52784,0.29539 -2.18736,2.40387 -3.0941,2.4027 -0.55192,-7e-4 -0.922,-0.3351 -1.81752,-1.64224 -0.61846,-0.90275 -1.12397,-1.46789 -1.12334,-1.25588 6.2e-4,0.21201 0.35715,0.92125 0.79228,1.5761 l 0.79115,1.19062 -0.59384,0.17206 c -0.63156,0.18299 -0.6986,0.18376 -2.64437,0.0303 z m 4.56406,-3.75796 c -1.52797,-0.39801 -2.75716,-0.82515 -2.73154,-0.94919 0.0256,-0.12404 0.5614,-0.4455 1.19062,-0.71435 1.08779,-0.46478 0.95838,-0.45858 -1.03877,0.0497 -0.54349,0.13833 -0.85989,0.12134 -0.85989,-0.0462 0,-0.14576 -0.16592,-0.20135 -0.36871,-0.12354 -0.42732,0.16398 -1.23805,-0.64773 -1.84276,-1.84501 -0.51553,-1.02071 -0.31026,-1.15028 1.82247,-1.15028 h 1.4198 l -0.28141,0.80726 c -0.38814,1.11344 -0.0904,1.27923 0.44338,0.24692 0.37778,-0.73054 0.54233,-0.82622 1.19607,-0.69547 0.41691,0.0834 1.21084,0.34577 1.76428,0.58307 0.92765,0.39776 0.96186,0.44872 0.43801,0.65235 -0.31253,0.12148 -0.65948,0.36851 -0.771,0.54896 -0.14377,0.23262 -0.0675,0.27618 0.26209,0.14971 1.27462,-0.48912 1.68132,-0.46461 2.38886,0.14399 0.53797,0.46274 0.76098,0.94499 0.8654,1.87142 0.13331,1.1827 0.1077,1.24664 -0.48905,1.22116 -0.34635,-0.0148 -1.87988,-0.35253 -3.40785,-0.75055 z m -29.068395,0.10345 c -0.48965,-0.21139 -1.204025,-0.38479 -1.5875,-0.38534 -1.986143,-0.003 -3.553599,-2.50575 -2.95692,-4.72165 0.23759,-0.88234 0.483195,-1.15162 1.498781,-1.64326 1.617857,-0.78319 4.582892,-1.01911 5.189114,-0.41289 0.235835,0.23584 0.546107,0.42879 0.689493,0.42879 0.143386,0 0.888162,0.59531 1.655058,1.32292 0.766896,0.7276 1.425985,1.32291 1.464639,1.32291 0.0387,0 -0.171606,-0.44648 -0.467258,-0.99218 -0.85312,-1.57466 -2.788869,-2.86071 -5.048817,-3.35426 -0.469745,-0.10259 -0.669482,-0.28399 -0.577275,-0.52428 0.07755,-0.20208 0.01381,-0.44602 -0.14163,-0.54209 -0.155442,-0.0961 -0.282621,-0.45924 -0.282621,-0.80704 0,-1.70957 4.957673,-3.5838 7.603791,-2.87458 0.32579,0.0873 0.53768,0.2472 0.47088,0.35529 -0.0668,0.1081 0.33363,0.56226 0.88985,1.00925 1.1129,0.89435 1.8834,2.26631 1.8834,3.35362 0,1.00348 -1.45999,2.69631 -2.7505,3.18916 l -1.08596,0.41473 v 1.57081 c 0,2.12047 -0.660837,2.80979 -3.054705,3.18634 -0.939289,0.14774 -1.886392,0.31801 -2.104673,0.37836 -0.218281,0.0603 -0.797498,-0.0632 -1.287147,-0.27461 z m 27.084025,-9.1156 c -0.47251,-0.20304 -0.45293,-0.22938 0.18282,-0.24599 0.65607,-0.0171 1.39117,-0.54776 0.75883,-0.54776 -0.42516,0 -0.33733,-0.38233 0.24105,-1.0492 0.5331,-0.61467 1.33436,-0.58525 1.32679,0.0487 -0.003,0.23752 -0.0788,0.22086 -0.25357,-0.0556 -0.19872,-0.31431 -0.3164,-0.32778 -0.57803,-0.0662 -0.24939,0.2494 -0.25205,0.32852 -0.011,0.32852 0.45561,0 0.39239,0.7084 -0.0794,0.88943 -0.21829,0.0838 -0.39688,0.33463 -0.39688,0.55748 0,0.44491 -0.37844,0.4896 -1.19062,0.14059 z m -13.04588,-0.83729 c -0.55938,-0.88347 -0.52515,-1.40692 0.10787,-1.64984 0.30342,-0.11643 0.32655,-0.0422 0.11184,0.35903 -0.38105,0.71198 -0.35546,0.74801 0.42528,0.59876 0.51747,-0.0989 0.66168,-0.0386 0.56224,0.23513 -0.0736,0.20249 -0.27654,0.33545 -0.45107,0.29547 -0.5111,-0.1171 -0.0128,0.48504 0.60898,0.73593 0.53446,0.21564 0.52653,0.23027 -0.13339,0.24604 -0.50959,0.0122 -0.84671,-0.21239 -1.23175,-0.82052 z m -4.53304,-1.43628 c -0.34022,-0.6413 -0.72109,-1.16601 -0.84639,-1.16601 -0.51511,0 -0.13023,-0.53308 1.73311,-2.40046 l 1.96092,-1.96517 0.0967,1.85209 c 0.0532,1.01864 0.28888,2.23128 0.52374,2.69475 0.30144,0.59486 0.33825,0.87841 0.12516,0.96422 -0.16602,0.0669 -0.90324,0.36118 -1.63828,0.65407 l -1.33642,0.53253 z m -10.518511,-1.50764 c -0.637721,-0.35454 -1.82559,-1.70612 -3.324298,-3.78246 l -0.971521,-1.34596 2.04746,-0.43998 c 3.132209,-0.67307 2.961412,-0.76655 2.961412,1.62075 0,1.49152 0.136834,2.32912 0.495386,3.03239 0.272462,0.53442 0.431212,1.03585 0.352777,1.11428 -0.234916,0.23492 -0.943064,0.14464 -1.561216,-0.19902 z m 7.724511,-1.01773 c -0.43656,-0.26947 -1.18386,-0.49057 -1.660661,-0.49133 l -0.866911,-0.001 1.110339,-2.12771 c 0.727483,-1.39405 1.231673,-2.08114 1.462223,-1.99267 0.21473,0.0824 0.35189,-0.056 0.35189,-0.35498 0,-0.28342 0.25097,-0.55878 0.59531,-0.65315 0.44958,-0.1232 0.5089,-0.21891 0.24231,-0.390964 -0.25617,-0.165326 0.10674,-0.526648 1.32291,-1.317128 0.92176,-0.599118 2.16383,-1.449099 2.76015,-1.888849 0.59632,-0.43975 1.2214,-0.799545 1.38906,-0.799545 0.51267,0 0.50989,2.789025 -0.004,4.058649 -0.28896,0.713847 -0.36479,0.742727 -1.51898,0.578507 -0.66816,-0.0951 -1.69108,-0.22241 -2.27316,-0.28299 l -1.05834,-0.11013 1.05834,0.37119 c 0.58208,0.20415 1.43826,0.38034 1.90261,0.39152 0.46436,0.0112 0.913,0.13153 0.99699,0.26743 0.084,0.13589 -0.50638,0.93957 -1.31194,1.78593 l -1.46466,1.53885 -0.72296,-0.90714 c -1.50442,-1.88769 -1.67497,-1.97234 -0.87627,-0.43493 0.44812,0.86258 0.81477,1.71768 0.81477,1.90021 0,0.18253 -0.32742,0.56108 -0.72761,0.84122 -0.71021,0.49719 -0.74657,0.49765 -1.52135,0.0194 z m -5.646072,-0.37288 c -0.561448,-1.23225 -0.382619,-1.8516 0.751281,-2.60198 0.582083,-0.38521 1.058333,-0.76524 1.058333,-0.84453 0,-0.16353 -0.34819,0.0217 -1.370487,0.729 -0.389966,0.26982 -0.77035,0.39136 -0.845297,0.27009 -0.07495,-0.12127 0.05638,-0.93949 0.291835,-1.81827 l 0.428105,-1.597777 1.872401,0.124921 c 1.029821,0.06871 1.960005,0.204426 2.067077,0.301586 0.107071,0.0972 -0.303715,0.49983 -0.912857,0.89481 -1.293172,0.83851 -1.149792,0.92991 0.334087,0.21298 0.946134,-0.45712 1.044228,-0.46341 1.031627,-0.0661 -0.0077,0.24145 -0.454143,1.31904 -0.992187,2.39465 -0.868674,1.73656 -1.09682,1.99546 -2.036596,2.31112 -1.374726,0.46175 -1.320942,0.4717 -1.677322,-0.31046 z m 29.623132,-3.34468 c -0.1798,-0.87051 -0.52136,-1.99051 -0.75902,-2.488893 -0.28972,-0.607549 -0.34443,-0.993843 -0.16602,-1.172256 0.27076,-0.270759 5.157,-0.829125 5.38099,-0.614902 0.18217,0.174235 -1.40873,2.952691 -2.41819,4.223281 -1.48276,1.86632 -1.66221,1.87097 -2.03776,0.0528 z M 93.574613,98.610743 c -1.037923,-1.853505 -1.684858,-3.897446 -1.842374,-5.820833 -0.0864,-1.055026 -0.07857,-1.918229 0.0174,-1.918229 0.09597,0 0.797763,0.34331 1.559543,0.762912 0.76178,0.419602 1.980367,0.974443 2.707971,1.23298 2.210484,0.785443 2.266277,0.955146 0.821751,2.499462 -0.690164,0.73784 -1.542849,1.992761 -1.894856,2.788712 -0.352007,0.795951 -0.679122,1.447184 -0.726921,1.447184 -0.0478,0 -0.336929,-0.446484 -0.642511,-0.992188 z m 3.170142,0.660242 c -0.618464,-0.125599 -1.12448,-0.320005 -1.12448,-0.432013 0,-0.295017 1.534393,-2.566756 1.987833,-2.943077 0.315618,-0.26194 0.46901,-0.172114 0.852179,0.499031 0.515702,0.903285 1.210086,1.359118 0.936606,0.614843 -0.09085,-0.247251 -0.333175,-0.712201 -0.538498,-1.033224 -0.477254,-0.746185 -0.26371,-1.069067 1.090507,-1.648869 2.274398,-0.973772 2.235748,-0.98231 1.996538,0.441041 -0.22118,1.31611 -0.49964,2.30795 -1.02041,3.634624 -0.24526,0.624816 -0.35806,0.705714 -0.55339,0.396875 -0.21428,-0.338795 -0.24983,-0.33766 -0.28073,0.009 -0.0195,0.218281 -0.0194,0.491754 8e-5,0.607718 0.0424,0.252016 -1.777556,0.172657 -3.346235,-0.145914 z m 4.705775,-0.52795 c 0.0135,-0.473326 0.66649,-3.054494 1.08772,-4.299479 0.33655,-0.994724 0.4272,-1.063299 1.50828,-1.14095 0.85401,-0.06134 1.37345,0.07035 2.01706,0.511357 1.69866,1.163939 1.66068,1.251863 -1.44576,3.346694 -1.56033,1.052209 -2.91341,1.913107 -3.00685,1.913107 -0.0934,0 -0.16563,-0.148828 -0.16045,-0.330729 z"
         id="path22" /><path
         style="fill:#a16d3c"
         d="m 115.65922,124.81992 c -0.25644,-0.0669 -0.39908,-0.23031 -0.31698,-0.36315 0.0821,-0.13284 -0.0371,-0.16999 -0.26499,-0.0826 -0.22784,0.0874 -1.07474,-0.17521 -1.88201,-0.58365 -1.58282,-0.80084 -2.16108,-1.33511 -1.13779,-1.05123 0.60342,0.16739 0.60824,0.15816 0.12099,-0.23176 -0.40737,-0.32599 -0.58699,-0.34174 -0.91068,-0.0798 -0.26091,0.2111 -0.33915,0.2193 -0.22167,0.0232 0.0999,-0.16665 0.004,-0.37128 -0.21379,-0.45472 -0.27312,-0.1048 -0.39536,-0.53602 -0.39536,-1.39474 0,-1.28893 0.14504,-1.48003 0.30486,-0.40167 0.11751,0.79287 2.60975,3.38468 3.13472,3.25996 0.35278,-0.0838 0.35278,-0.0626 0,0.1912 -0.31109,0.22379 -0.16813,0.29075 0.66146,0.30979 0.58209,0.0134 1.29646,0.0791 1.5875,0.14607 0.29104,0.067 1.30308,0.13424 2.24896,0.14948 1.67497,0.027 1.68876,0.0328 0.52917,0.22324 l -1.19063,0.19555 1.52136,-0.0137 c 0.83674,-0.008 1.52135,-0.11235 1.52135,-0.23297 0,-0.12062 0.39511,-0.21931 0.87802,-0.21931 1.72786,0 3.69201,-0.79623 4.86998,-1.9742 0.61704,-0.61704 1.20247,-1.05035 1.30097,-0.96291 0.0985,0.0874 0.1117,-0.0302 0.0293,-0.26134 -0.0824,-0.23119 -0.0507,-0.8265 0.0704,-1.32292 0.21562,-0.88373 0.21975,-0.87771 0.19771,0.28804 -0.0256,1.35564 -0.6778,2.7232 -1.20263,2.5218 -0.20021,-0.0768 -0.27645,-0.0147 -0.17782,0.14487 0.095,0.15365 -0.0774,0.34477 -0.38314,0.4247 -0.30568,0.0799 -0.55579,0.25755 -0.55579,0.39469 0,0.13713 -0.11906,0.17575 -0.26458,0.0858 -0.14552,-0.0899 -0.26458,-0.0565 -0.26458,0.0743 0,0.34955 -2.0677,0.97198 -3.22889,0.97198 -0.55244,0 -1.00445,0.092 -1.00445,0.20445 0,0.21406 -4.55282,0.23227 -5.36105,0.0214 z m 6.59578,-1.84546 c -0.097,-0.097 -0.17639,-0.34364 -0.17639,-0.54807 0,-0.30047 0.0797,-0.29202 0.41577,0.0441 0.22868,0.22868 0.61563,0.41181 0.8599,0.40697 0.35044,-0.007 0.30598,-0.12374 -0.21081,-0.5537 l -0.65492,-0.5449 1.18356,0.0855 c 1.01505,0.0733 1.18363,0.0141 1.18409,-0.4157 2.9e-4,-0.27564 0.17913,-0.55025 0.39741,-0.61023 0.35278,-0.097 0.35278,-0.0751 0,0.19637 -0.32176,0.24763 -0.25647,0.28291 0.34493,0.18641 l 0.74181,-0.11903 -0.57549,0.61258 c -0.99675,1.06099 -2.99236,1.77725 -3.50986,1.25975 z m -28.186455,-3.14343 c -0.48965,-0.21139 -1.204025,-0.38479 -1.5875,-0.38534 -1.986143,-0.003 -3.553599,-2.50575 -2.95692,-4.72165 0.23759,-0.88234 0.483195,-1.15162 1.498781,-1.64326 1.617857,-0.78319 4.582892,-1.01911 5.189114,-0.41289 0.235835,0.23584 0.546107,0.42879 0.689493,0.42879 0.143386,0 0.888162,0.59531 1.655058,1.32292 0.766896,0.7276 1.425985,1.32291 1.464639,1.32291 0.0387,0 -0.171606,-0.44648 -0.467258,-0.99218 -0.85312,-1.57466 -2.788869,-2.86071 -5.048817,-3.35426 -0.469745,-0.10259 -0.669482,-0.28399 -0.577275,-0.52428 0.07755,-0.20208 0.01381,-0.44602 -0.14163,-0.54209 -0.155442,-0.0961 -0.282621,-0.45924 -0.282621,-0.80704 0,-1.70957 4.957673,-3.5838 7.603791,-2.87458 0.32579,0.0873 0.53768,0.2472 0.47088,0.35529 -0.0668,0.1081 0.33363,0.56226 0.88985,1.00925 1.1129,0.89435 1.8834,2.26631 1.8834,3.35362 0,1.00348 -1.45999,2.69631 -2.7505,3.18916 l -1.08596,0.41473 v 1.57081 c 0,2.12047 -0.660837,2.80979 -3.054705,3.18634 -0.939289,0.14774 -1.886392,0.31801 -2.104673,0.37836 -0.218281,0.0603 -0.797498,-0.0632 -1.287147,-0.27461 z m 11.588915,-1.03821 c -1.20666,-0.62873 -1.83113,-1.57515 -2.20982,-3.34913 -0.198,-0.92752 0.51657,-1.80351 2.13796,-2.6209 0.7037,-0.35475 1.339,-0.71809 1.41176,-0.80741 0.42194,-0.51796 2.03918,-1.02298 1.74341,-0.54442 -0.0769,0.1245 0.1607,0.1689 0.5281,0.0987 0.7947,-0.15192 2.81288,0.69111 2.57519,1.0757 -0.0963,0.15585 -0.0341,0.18705 0.14821,0.0744 0.17279,-0.10679 0.73378,0.0534 1.24663,0.35599 1.10393,0.65134 1.16679,0.66112 1.16679,0.1816 0,-0.20271 -0.19563,-0.44364 -0.43474,-0.53539 -0.23911,-0.0918 -0.36105,-0.24053 -0.27098,-0.3306 0.0901,-0.0901 0.33951,-0.0179 0.5543,0.16035 0.37919,0.3147 1.05799,0.24195 4.12017,-0.44161 l 0.66146,-0.14765 -0.66146,-0.188 c -0.46066,-0.13093 -0.25009,-0.17964 0.69364,-0.16046 0.96707,0.0197 1.31884,0.12226 1.22846,0.35828 -0.0696,0.1819 -0.38178,0.34454 -0.69364,0.36142 -0.53587,0.029 -0.53795,0.038 -0.0378,0.1629 0.29104,0.0727 0.5992,0.24313 0.68481,0.37871 0.0856,0.13557 0.32373,0.04 0.52917,-0.21244 0.33187,-0.40776 0.32035,-0.439 -0.10325,-0.28014 -0.26841,0.10067 -0.41067,0.0719 -0.32552,-0.0659 0.0832,-0.1346 0.35726,-0.25073 0.60906,-0.25808 1.02228,-0.0298 1.35378,-0.1195 1.22315,-0.33086 -0.0756,-0.1223 0.0487,-0.29378 0.27622,-0.38109 0.22751,-0.0873 0.41365,-0.27573 0.41365,-0.41874 0,-0.143 0.2254,-0.45769 0.5009,-0.69929 0.58256,-0.51091 1.35649,-2.48173 1.44861,-3.68889 0.0656,-0.8594 0.43174,-1.53088 0.43174,-0.79175 0,0.41808 1.95748,1.00524 4.87101,1.46112 l 1.29914,0.20327 -1.92499,1.78225 c -2.5419,2.35341 -4.80875,3.4877 -6.62189,3.31348 -0.73009,-0.0701 -1.32744,-0.0451 -1.32744,0.0557 0,0.35859 -1.23934,0.74034 -2.00256,0.61686 -0.58299,-0.0943 -0.67892,-0.0582 -0.38635,0.14542 0.68146,0.47434 0.0538,0.66765 -2.31563,0.71315 -2.28865,0.0439 -2.30759,0.0499 -2.39144,0.74974 -0.0576,0.48099 -0.40789,0.90958 -1.10086,1.34703 -1.27198,0.80297 -2.29643,1.81629 -2.50702,2.47978 -0.33033,1.04077 -3.33369,1.14321 -5.18812,0.17696 z m 15.28181,-2.16225 c 0.17372,-0.0707 0.26427,-0.26963 0.20121,-0.44213 -0.18174,-0.49717 0.30355,-1.07147 0.69892,-0.82712 0.19201,0.11867 0.59228,0.24307 0.88947,0.27643 0.2972,0.0334 0.89755,0.20839 1.33411,0.38894 0.65282,0.26999 0.70543,0.34899 0.29629,0.44496 -0.2736,0.0642 -0.58884,-0.0312 -0.70052,-0.21188 -0.11168,-0.1807 -0.43646,-0.26752 -0.72173,-0.19292 -0.28527,0.0746 -0.70624,0.0307 -0.93548,-0.0976 -0.26578,-0.14874 -0.48596,-0.12139 -0.60763,0.0755 -0.11461,0.18544 -0.0761,0.23786 0.0964,0.13125 0.15795,-0.0976 0.37333,-0.0381 0.47863,0.1323 0.11523,0.18643 0.0771,0.2391 -0.0957,0.13229 -0.15795,-0.0976 -0.36197,-0.0565 -0.45337,0.0914 -0.0914,0.14789 -0.30799,0.2595 -0.48131,0.24801 -0.24293,-0.0161 -0.24276,-0.0503 7.6e-4,-0.14939 z m 0.2133,-5.91514 c -0.47251,-0.20304 -0.45293,-0.22938 0.18282,-0.24599 0.65607,-0.0171 1.39117,-0.54776 0.75883,-0.54776 -0.42516,0 -0.33733,-0.38233 0.24105,-1.0492 0.5331,-0.61467 1.33436,-0.58525 1.32679,0.0487 -0.003,0.23752 -0.0788,0.22086 -0.25357,-0.0556 -0.19872,-0.31431 -0.3164,-0.32778 -0.57803,-0.0662 -0.24939,0.2494 -0.25205,0.32852 -0.011,0.32852 0.45561,0 0.39239,0.7084 -0.0794,0.88943 -0.21829,0.0838 -0.39688,0.33463 -0.39688,0.55748 0,0.44491 -0.37844,0.4896 -1.19062,0.14059 z m -13.04588,-0.83729 c -0.55938,-0.88347 -0.52515,-1.40692 0.10787,-1.64984 0.30342,-0.11643 0.32655,-0.0422 0.11184,0.35903 -0.38105,0.71198 -0.35546,0.74801 0.42528,0.59876 0.51747,-0.0989 0.66168,-0.0386 0.56224,0.23513 -0.0736,0.20249 -0.27654,0.33545 -0.45107,0.29547 -0.5111,-0.1171 -0.0128,0.48504 0.60898,0.73593 0.53446,0.21564 0.52653,0.23027 -0.13339,0.24604 -0.50959,0.0122 -0.84671,-0.21239 -1.23175,-0.82052 z m -4.19614,-0.96403 c -0.0961,-0.38303 -0.44659,-0.98955 -0.77879,-1.34781 -0.65376,-0.70504 -0.61246,-1.1615 0.081,-0.89539 0.25527,0.098 0.36483,0.0573 0.26799,-0.0994 -0.0901,-0.14578 0.42615,-0.84615 1.14722,-1.55638 0.72107,-0.71022 1.31104,-1.18735 1.31104,-1.06028 0,0.12707 -0.36521,0.5571 -0.81158,0.95561 -0.44637,0.39852 -0.69697,0.79541 -0.55689,0.88198 0.14008,0.0866 0.32585,-0.0281 0.41283,-0.25472 0.087,-0.22667 0.27805,-0.33802 0.4246,-0.24745 0.14655,0.0906 0.26645,-0.0209 0.26645,-0.24782 0,-0.22687 0.13197,-0.41249 0.29327,-0.41249 0.17873,0 0.23002,-0.25199 0.13132,-0.64524 -0.0891,-0.35488 -0.0425,-0.7191 0.10361,-0.80936 0.1673,-0.1034 0.26555,0.47337 0.26555,1.55883 0,1.59595 0.35797,2.99155 0.86048,3.35466 0.11538,0.0834 -0.56717,0.45985 -1.51677,0.83661 l -1.72656,0.68503 z m -11.005357,-2.10268 c -0.698679,-0.44139 -3.899501,-4.40656 -3.899501,-4.83069 0,-0.21761 3.412637,-1.05489 4.299605,-1.05489 0.473089,0 0.51171,0.11767 0.356725,1.0869 -0.181893,1.13749 0.276497,4.11528 0.671028,4.35911 0.409853,0.25331 0.241059,0.90402 -0.234129,0.90259 -0.254661,-7.6e-4 -0.791839,-0.20912 -1.193728,-0.46302 z m 10.487887,-2.76302 c -0.11655,-0.18857 -0.0599,-0.21864 0.15814,-0.0839 0.22791,0.14086 0.29582,0.089 0.20624,-0.15755 -0.0734,-0.20216 -0.27633,-0.33484 -0.45086,-0.29486 -0.17453,0.04 -0.2369,-0.0574 -0.1386,-0.21647 0.0983,-0.15905 0.36036,-0.21948 0.58237,-0.13429 0.48452,0.18593 1.1917,-0.33462 0.96122,-0.70754 -0.0898,-0.1453 8.1e-4,-0.36812 0.20135,-0.49514 0.53066,-0.33611 0.82496,-0.28981 0.58273,0.0917 -0.1155,0.1819 -0.21492,0.39026 -0.22093,0.46302 -0.006,0.0728 -0.22333,0.44971 -0.48294,0.83768 -0.54957,0.82128 -1.14016,1.11574 -1.39872,0.69738 z m 21.45782,-1.57747 c -0.10488,-0.76256 -0.41474,-1.90918 -0.68858,-2.548023 -0.27385,-0.638847 -0.43611,-1.261513 -0.36059,-1.383704 0.2379,-0.384936 5.42063,-0.828577 5.42063,-0.464006 0,0.376251 -2.02944,3.693373 -2.71529,4.438143 -1.36064,1.47752 -1.44743,1.4753 -1.65617,-0.0424 z m -18.38271,-2.33884 c -0.34449,-0.222631 -0.3395,-0.257017 0.0378,-0.260534 0.55968,-0.0052 0.80521,-0.641327 0.40451,-1.047956 -0.23762,-0.241127 -0.1887,-0.404193 0.20936,-0.697961 0.44482,-0.32827 0.47771,-0.493838 0.22898,-1.15279 -0.23747,-0.629123 -0.22363,-0.743825 0.0759,-0.628889 0.44778,0.171829 0.49151,2.02719 0.0759,3.219479 -0.31349,0.899291 -0.42542,0.960941 -1.03245,0.568651 z M 93.791297,99.012439 c -0.976857,-1.564196 -1.922472,-4.413643 -2.065003,-6.222529 -0.08313,-1.055026 -0.07263,-1.918229 0.02334,-1.918229 0.09597,0 0.797763,0.34331 1.559543,0.762912 0.76178,0.419602 1.980367,0.974443 2.707971,1.23298 2.175741,0.773098 2.245232,0.955762 0.899774,2.365165 -0.640396,0.670832 -1.522995,1.928036 -1.961331,2.793786 -0.773919,1.528555 -0.8076,1.557076 -1.164296,0.985915 z m 5.482105,-2.782946 c -0.715387,-0.833016 -0.873105,-1.291359 -0.259024,-0.752743 0.50807,0.445633 0.574647,0.453297 0.574647,0.06615 0,-0.240835 -0.148828,-0.439888 -0.330729,-0.442339 -0.181901,-0.0025 0.05778,-0.253252 0.532619,-0.557335 0.821045,-0.52579 0.896715,-0.531017 1.544305,-0.106693 0.37453,0.245401 0.61678,0.510376 0.53832,0.588832 -0.0785,0.07846 -0.33542,-0.05012 -0.57102,-0.285724 -0.23561,-0.235605 -0.51909,-0.428373 -0.62996,-0.428373 -0.39771,0 -0.54477,0.354221 -0.27967,0.673647 0.18527,0.223233 0.17121,0.542527 -0.0448,1.016532 -0.370838,0.813892 -0.540666,0.849928 -1.074728,0.22805 z"
         id="path21" /><path
         style="fill:#76951c"
         d="m 115.65922,124.81992 c -0.25644,-0.0669 -0.39908,-0.23031 -0.31698,-0.36315 0.0821,-0.13284 -0.0371,-0.16999 -0.26499,-0.0826 -0.22784,0.0874 -1.07474,-0.17521 -1.88201,-0.58365 -1.58282,-0.80084 -2.16108,-1.33511 -1.13779,-1.05123 0.60342,0.16739 0.60824,0.15816 0.12099,-0.23176 -0.40737,-0.32599 -0.58699,-0.34174 -0.91068,-0.0798 -0.26091,0.2111 -0.33915,0.2193 -0.22167,0.0232 0.0999,-0.16665 0.004,-0.37128 -0.21379,-0.45472 -0.27312,-0.1048 -0.39536,-0.53602 -0.39536,-1.39474 0,-1.28893 0.14504,-1.48003 0.30486,-0.40167 0.11751,0.79287 2.60975,3.38468 3.13472,3.25996 0.35278,-0.0838 0.35278,-0.0626 0,0.1912 -0.31109,0.22379 -0.16813,0.29075 0.66146,0.30979 0.58209,0.0134 1.29646,0.0791 1.5875,0.14607 0.29104,0.067 1.30308,0.13424 2.24896,0.14948 1.67497,0.027 1.68876,0.0328 0.52917,0.22324 l -1.19063,0.19555 1.52136,-0.0137 c 0.83674,-0.008 1.52135,-0.11235 1.52135,-0.23297 0,-0.12062 0.39511,-0.21931 0.87802,-0.21931 1.72786,0 3.69201,-0.79623 4.86998,-1.9742 0.61704,-0.61704 1.20247,-1.05035 1.30097,-0.96291 0.0985,0.0874 0.1117,-0.0302 0.0293,-0.26134 -0.0824,-0.23119 -0.0507,-0.8265 0.0704,-1.32292 0.21562,-0.88373 0.21975,-0.87771 0.19771,0.28804 -0.0256,1.35564 -0.6778,2.7232 -1.20263,2.5218 -0.20021,-0.0768 -0.27645,-0.0147 -0.17782,0.14487 0.095,0.15365 -0.0774,0.34477 -0.38314,0.4247 -0.30568,0.0799 -0.55579,0.25755 -0.55579,0.39469 0,0.13713 -0.11906,0.17575 -0.26458,0.0858 -0.14552,-0.0899 -0.26458,-0.0565 -0.26458,0.0743 0,0.34955 -2.0677,0.97198 -3.22889,0.97198 -0.55244,0 -1.00445,0.092 -1.00445,0.20445 0,0.21406 -4.55282,0.23227 -5.36105,0.0214 z m 6.59578,-1.84546 c -0.097,-0.097 -0.17639,-0.34364 -0.17639,-0.54807 0,-0.30047 0.0797,-0.29202 0.41577,0.0441 0.22868,0.22868 0.61563,0.41181 0.8599,0.40697 0.35044,-0.007 0.30598,-0.12374 -0.21081,-0.5537 l -0.65492,-0.5449 1.18356,0.0855 c 1.01505,0.0733 1.18363,0.0141 1.18409,-0.4157 2.9e-4,-0.27564 0.17913,-0.55025 0.39741,-0.61023 0.35278,-0.097 0.35278,-0.0751 0,0.19637 -0.32176,0.24763 -0.25647,0.28291 0.34493,0.18641 l 0.74181,-0.11903 -0.57549,0.61258 c -0.99675,1.06099 -2.99236,1.77725 -3.50986,1.25975 z m -1.31573,-6.34389 c 0.17372,-0.0707 0.26427,-0.26963 0.20121,-0.44213 -0.18174,-0.49717 0.30355,-1.07147 0.69892,-0.82712 0.19201,0.11867 0.59228,0.24307 0.88947,0.27643 0.2972,0.0334 0.89755,0.20839 1.33411,0.38894 0.65282,0.26999 0.70543,0.34899 0.29629,0.44496 -0.2736,0.0642 -0.58884,-0.0312 -0.70052,-0.21188 -0.11168,-0.1807 -0.43646,-0.26752 -0.72173,-0.19292 -0.28527,0.0746 -0.70624,0.0307 -0.93548,-0.0976 -0.26578,-0.14874 -0.48596,-0.12139 -0.60763,0.0755 -0.11461,0.18544 -0.0761,0.23786 0.0964,0.13125 0.15795,-0.0976 0.37333,-0.0381 0.47863,0.1323 0.11523,0.18643 0.0771,0.2391 -0.0957,0.13229 -0.15795,-0.0976 -0.36197,-0.0565 -0.45337,0.0914 -0.0914,0.14789 -0.30799,0.2595 -0.48131,0.24801 -0.24293,-0.0161 -0.24276,-0.0503 7.6e-4,-0.14939 z m 1.29665,-4.28715 c -0.0762,-0.12325 0.20582,-0.55397 0.62665,-0.95715 0.84031,-0.80507 1.71267,-2.62825 2.00225,-4.18458 0.14064,-0.75585 0.29165,-0.96935 0.61817,-0.87394 0.92126,0.26917 4.53831,0.9481 5.05113,0.9481 0.29718,0 0.54032,0.10803 0.54032,0.24006 0,0.34322 -2.50454,2.54829 -4.08864,3.59975 -1.68098,1.11577 -4.38683,1.81518 -4.74988,1.22776 z m -18.23717,-3.12729 c -0.097,-0.097 -0.17639,-0.34034 -0.17639,-0.54072 0,-0.20038 -0.29129,-0.67846 -0.6473,-1.06241 -0.69102,-0.74523 -0.67223,-1.21453 0.0377,-0.94209 0.25527,0.098 0.36483,0.0573 0.26799,-0.0994 -0.0901,-0.14578 0.42615,-0.84615 1.14722,-1.55638 0.72107,-0.71022 1.31104,-1.18735 1.31104,-1.06028 0,0.12707 -0.36521,0.5571 -0.81158,0.95561 -0.44637,0.39852 -0.69697,0.79541 -0.55689,0.88198 0.14008,0.0866 0.32585,-0.0281 0.41283,-0.25472 0.087,-0.22667 0.27805,-0.33802 0.4246,-0.24745 0.14655,0.0906 0.26645,-0.0209 0.26645,-0.24782 0,-0.22687 0.13197,-0.41249 0.29327,-0.41249 0.17873,0 0.23002,-0.25199 0.13132,-0.64524 -0.0891,-0.35488 -0.055,-0.71133 0.0757,-0.7921 0.13068,-0.0808 0.29574,0.77514 0.36679,1.90202 0.071,1.12688 0.21617,2.31521 0.32248,2.64074 0.16934,0.51848 0.0392,0.65792 -1.04921,1.12448 -1.3566,0.5815 -1.55233,0.6199 -1.81601,0.35622 z m -10.495141,-2.12714 c -0.218281,-0.0798 -0.677893,-0.39781 -1.021358,-0.70671 -0.754494,-0.67857 -3.581475,-4.38433 -3.442719,-4.51291 0.101107,-0.0937 4.105239,-0.94352 4.445577,-0.94352 0.104215,0 0.184084,0.92273 0.177488,2.05052 -0.0084,1.42765 0.125132,2.32149 0.439429,2.94255 0.58896,1.16382 0.399241,1.53477 -0.598417,1.17007 z m 9.889471,-3.04058 c -0.11655,-0.18857 -0.0599,-0.21864 0.15814,-0.0839 0.22791,0.14086 0.29582,0.089 0.20624,-0.15755 -0.0734,-0.20216 -0.27633,-0.33484 -0.45086,-0.29486 -0.17453,0.04 -0.2369,-0.0574 -0.1386,-0.21647 0.0983,-0.15905 0.36036,-0.21948 0.58237,-0.13429 0.48452,0.18593 1.1917,-0.33462 0.96122,-0.70754 -0.0898,-0.1453 8.1e-4,-0.36812 0.20135,-0.49514 0.53066,-0.33611 0.82496,-0.28981 0.58273,0.0917 -0.1155,0.1819 -0.21492,0.39026 -0.22093,0.46302 -0.006,0.0728 -0.22333,0.44971 -0.48294,0.83768 -0.54957,0.82128 -1.14016,1.11574 -1.39872,0.69738 z m 21.60608,-1.53522 c -0.17337,-0.65476 -0.54293,-1.77716 -0.82123,-2.49424 -0.27831,-0.717075 -0.45722,-1.352564 -0.39759,-1.412198 0.40901,-0.40901 5.44202,-0.851078 5.44202,-0.477992 0,0.342526 -2.06065,3.49322 -2.91243,4.45306 l -0.99554,1.12183 z m -18.53097,-2.38109 c -0.34449,-0.222631 -0.3395,-0.257017 0.0378,-0.260534 0.55968,-0.0052 0.80521,-0.641327 0.40451,-1.047956 -0.23762,-0.241127 -0.1887,-0.404193 0.20936,-0.697961 0.44482,-0.32827 0.47771,-0.493838 0.22898,-1.15279 -0.23747,-0.629123 -0.22363,-0.743825 0.0759,-0.628889 0.44778,0.171829 0.49151,2.02719 0.0759,3.219479 -0.31349,0.899291 -0.42542,0.960941 -1.03245,0.568651 z M 93.202456,97.623408 c -0.441384,-0.943217 -0.969497,-2.342201 -1.173583,-3.108854 -0.375155,-1.409271 -0.509895,-3.642873 -0.219754,-3.642873 0.08668,0 0.47363,0.215839 0.859896,0.479644 0.774394,0.528879 3.799455,1.901606 4.190547,1.901606 0.13589,0 0.464917,0.15929 0.731169,0.353979 0.453254,0.331427 0.408481,0.432893 -0.702779,1.592669 -0.652781,0.68128 -1.506381,1.891208 -1.896889,2.68873 -0.390508,0.797521 -0.772132,1.450039 -0.848052,1.450039 -0.07592,0 -0.49917,-0.771723 -0.940555,-1.71494 z m 6.070946,-1.393915 c -0.715387,-0.833016 -0.873105,-1.291359 -0.259024,-0.752743 0.50807,0.445633 0.574647,0.453297 0.574647,0.06615 0,-0.240835 -0.148828,-0.439888 -0.330729,-0.442339 -0.181901,-0.0025 0.05778,-0.253252 0.532619,-0.557335 0.821045,-0.52579 0.896715,-0.531017 1.544305,-0.106693 0.37453,0.245401 0.61678,0.510376 0.53832,0.588832 -0.0785,0.07846 -0.33542,-0.05012 -0.57102,-0.285724 -0.23561,-0.235605 -0.51909,-0.428373 -0.62996,-0.428373 -0.39771,0 -0.54477,0.354221 -0.27967,0.673647 0.18527,0.223233 0.17121,0.542527 -0.0448,1.016532 -0.370838,0.813892 -0.540666,0.849928 -1.074728,0.22805 z"
         id="path20" /><path
         style="fill:#495d1a"
         d="m 122.2455,112.35891 c -0.0814,-0.13177 0.19624,-0.56946 0.61707,-0.97264 0.83202,-0.79713 1.71218,-2.62537 1.9944,-4.14275 l 0.17826,-0.95837 2.15971,0.48856 c 1.18784,0.2687 2.54666,0.49161 3.01961,0.49535 0.47294,0.004 0.85989,0.10249 0.85989,0.21947 0,0.74525 -5.02984,4.48471 -6.313,4.69342 -0.52967,0.0862 -1.27913,0.21512 -1.66546,0.28659 -0.38632,0.0715 -0.76904,0.0221 -0.85048,-0.10963 z m -29.17726,-5.59257 c -0.741334,-0.45199 -4.252377,-4.71726 -4.022213,-4.88625 0.111059,-0.0815 4.25587,-0.95424 4.532084,-0.95424 0.107087,0 0.120027,0.63538 0.02875,1.41196 -0.111544,0.94906 -0.02944,1.88154 0.250434,2.84427 0.660787,2.27303 0.586217,2.42275 -0.78906,1.58426 z m 31.6346,-5.22057 c -0.37334,-1.14132 -0.76607,-2.267843 -0.87273,-2.50338 -0.24898,-0.549821 0.34213,-0.721178 3.25055,-0.942288 l 2.22392,-0.169072 -0.8764,1.594173 c -0.48202,0.876797 -1.36469,2.157017 -1.96147,2.844937 l -1.08507,1.25076 z M 93.218898,97.616571 c -0.855844,-1.887524 -1.55735,-4.533857 -1.563462,-5.897943 l -0.0039,-0.872845 1.653645,0.915909 c 0.909506,0.50375 2.130661,1.055516 2.71368,1.226146 0.583019,0.17063 1.264089,0.459446 1.51349,0.641812 0.411874,0.301169 0.343366,0.449792 -0.747087,1.620756 -0.660298,0.70905 -1.488582,1.918903 -1.840632,2.688562 -0.35205,0.769659 -0.708702,1.39938 -0.792562,1.39938 -0.08386,0 -0.503782,-0.7748 -0.933162,-1.721777 z"
         id="path19" /></g></g></svg>
