<?xml version="1.0" encoding="UTF-8" standalone="no"?>
<!-- Created with Inkscape (http://www.inkscape.org/) -->

<svg
   width="53.710442mm"
   height="65.643562mm"
   viewBox="0 0 53.710442 65.643562"
   version="1.1"
   id="svg1"
   xml:space="preserve"
   inkscape:export-filename="the-titan.svg"
   inkscape:export-xdpi="96"
   inkscape:export-ydpi="96"
   xmlns:inkscape="http://www.inkscape.org/namespaces/inkscape"
   xmlns:sodipodi="http://sodipodi.sourceforge.net/DTD/sodipodi-0.dtd"
   xmlns="http://www.w3.org/2000/svg"
   xmlns:svg="http://www.w3.org/2000/svg"><sodipodi:namedview
     id="namedview1"
     pagecolor="#ffffff"
     bordercolor="#000000"
     borderopacity="0.25"
     inkscape:showpageshadow="2"
     inkscape:pageopacity="0.0"
     inkscape:pagecheckerboard="0"
     inkscape:deskcolor="#d1d1d1"
     inkscape:document-units="mm"><inkscape:page
       x="0"
       y="0"
       width="53.710442"
       height="65.643562"
       id="page2"
       margin="0"
       bleed="0" /></sodipodi:namedview><defs
     id="defs1" /><g
     inkscape:label="Calque 1"
     inkscape:groupmode="layer"
     id="layer1"
     transform="translate(-129.68429,-111.74931)"><g
       id="g31"
       transform="translate(72.149447,31.234317)"><path
         style="fill:#d2e5f2"
         d="M 57.534843,113.34113 V 80.532799 h 26.855208 26.855209 v 32.808331 32.80834 H 84.390051 57.534843 Z"
         id="path38" /><path
         style="fill:#b7d2e5"
         d="m 67.985885,145.88252 c 2.906832,-1.26968 5.50579,-2.09079 6.271571,-1.98143 0.740325,0.10572 0.772181,0.0907 0.21072,-0.0993 l -0.661458,-0.22387 0.79375,-0.3194 c 1.869568,-0.7523 6.217708,-3.00593 6.217708,-3.22263 0,-0.13001 0.164015,-0.23639 0.364478,-0.23639 0.200463,0 0.512698,-0.1786 0.693855,-0.39688 0.28311,-0.34112 0.185456,-0.39709 -0.695207,-0.39843 -1.345683,-0.002 -6.028793,-0.71238 -7.226537,-1.09612 -1.238474,-0.39679 -2.216518,-0.80211 -3.984505,-1.65126 -0.800365,-0.3844 -1.552819,-0.69706 -1.672121,-0.69478 -0.81771,0.0156 -5.37597,-4.1016 -7.274205,-6.57034 -0.374661,-0.48727 -0.950563,-0.98835 -1.279783,-1.11352 -0.329219,-0.12517 -0.959876,-0.85759 -1.401461,-1.6276 -0.716705,-1.24976 -0.803147,-1.6363 -0.805364,-3.60132 -0.0023,-2.02123 0.06326,-2.29684 0.801249,-3.36947 1.107843,-1.61019 1.590477,-1.82604 2.828247,-1.26485 0.549026,0.24892 1.523618,0.46001 2.165758,0.4691 l 1.167529,0.0165 0.345596,1.45521 c 0.190077,0.80036 0.281342,1.81239 0.20281,2.24896 l -0.142786,0.79375 0.518527,-0.75545 c 0.285189,-0.4155 0.595063,-1.23408 0.688607,-1.81908 0.205863,-1.28739 0.589443,-2.05709 1.022435,-2.05163 0.22228,0.003 0.209914,0.0747 -0.04009,0.23307 -0.261564,0.16571 -0.288562,0.35938 -0.09765,0.70051 0.244364,0.43665 0.27727,0.42921 0.445484,-0.10078 0.0999,-0.31475 0.103635,-0.81801 0.0083,-1.11836 -0.136636,-0.43051 -0.0704,-0.52851 0.312899,-0.46302 0.335007,0.0572 0.512518,-0.10207 0.570771,-0.51224 0.09915,-0.69814 0.831785,-0.81053 0.862382,-0.1323 0.01313,0.29106 0.07155,0.33689 0.157305,0.1234 0.07503,-0.18679 -0.0091,-0.51492 -0.186874,-0.72917 -0.26471,-0.31895 -0.192115,-0.49272 0.400636,-0.95898 0.669931,-0.52697 0.715637,-0.68404 0.612785,-2.10595 -0.08481,-1.17243 -0.02039,-1.57134 0.271824,-1.68348 0.325811,-0.12502 0.31836,-0.21834 -0.04992,-0.62529 -0.556789,-0.61525 -0.546992,-0.83355 0.03741,-0.83355 0.258662,0 0.740435,-0.18921 1.070605,-0.42047 0.33017,-0.23126 0.773381,-0.35406 0.984913,-0.27289 0.224319,0.0861 0.384603,-0.008 0.384603,-0.22537 0,-0.66537 -0.421093,-0.65873 -1.423534,0.0224 -1.113243,0.75647 -2.412924,0.96975 -2.412924,0.39596 0,-0.20242 0.233097,-0.50008 0.517993,-0.66146 0.873862,-0.495 1.229698,-0.9064 0.939245,-1.08591 -0.146637,-0.0906 -0.266613,-0.0574 -0.266613,0.0738 0,0.13119 -0.446484,0.46564 -0.992187,0.74322 -1.326152,0.67456 -1.287902,0.63703 -0.896195,0.87912 0.2721,0.16817 0.256461,0.24745 -0.07381,0.37419 -0.33896,0.13007 -0.425051,-0.0525 -0.450407,-0.95537 -0.01724,-0.6139 -0.01462,-1.25367 0.0058,-1.42173 0.02044,-0.16805 -0.382171,-0.56472 -0.894693,-0.88148 -0.694189,-0.42903 -0.931859,-0.75831 -0.931859,-1.29104 0,-0.51325 -0.223019,-0.84687 -0.790009,-1.18179 -0.434505,-0.25667 -1.10348,-0.87766 -1.486611,-1.37997 -0.791727,-1.03801 -1.282553,-1.14943 -1.69213,-0.38412 -0.155761,0.29104 -0.431146,0.52916 -0.611966,0.52916 -0.180821,0 -0.532654,-0.23812 -0.781851,-0.52916 -0.57866,-0.67583 -0.987433,-0.67583 -0.987433,0 0,0.29104 0.176325,0.52916 0.391834,0.52916 0.537452,0 0.780664,1.14439 0.395975,1.86319 -0.250797,0.46862 -0.36313,0.51438 -0.547613,0.22308 -0.127651,-0.20156 -0.232093,-0.54507 -0.232093,-0.76335 0,-0.34729 0.03075,-0.34824 0.246146,-0.008 0.13538,0.21406 0.324073,0.31128 0.419317,0.21604 0.09524,-0.0952 0.09469,-0.30016 -0.0012,-0.45536 -0.242027,-0.39161 -1.662273,-0.35509 -1.79603,0.0462 -0.0796,0.2388 -0.229958,0.20786 -0.551215,-0.11339 -0.399103,-0.39911 -0.44176,-1.55475 -0.44176,-11.96825 V 80.536372 l 18.827651,7.6e-5 c 10.355208,4.2e-5 18.767616,0.06011 18.694241,0.133486 -0.07337,0.07337 -0.598396,0.365449 -1.166713,0.649053 -0.568318,0.283604 -0.864953,0.520388 -0.659189,0.526186 0.529154,0.01491 2.404009,-0.841957 2.404009,-1.098709 0,-0.117516 3.512344,-0.213665 7.805203,-0.213665 h 7.80521 v 11.377083 11.377088 h -1.5792 c -1.32727,0 -1.55373,-0.0664 -1.41957,-0.41599 0.14053,-0.3662 -0.24837,-0.41125 -3.24945,-0.37646 -5.033634,0.0584 -5.12886,0.051 -5.12886,-0.39818 0,-0.21828 -0.124281,-0.39687 -0.276181,-0.39687 -0.1519,0 -0.256856,-0.14883 -0.233235,-0.33073 0.02362,-0.1819 0.02884,-0.65815 0.0116,-1.05834 -0.02676,-0.621087 -0.144851,-0.727601 -0.806696,-0.727601 -0.596819,0 -0.799328,-0.137075 -0.879491,-0.595312 -0.09205,-0.526205 -0.128388,-0.541045 -0.313002,-0.127836 -0.152718,0.341816 -0.021,0.615244 0.489997,1.017197 0.71915,0.565682 1.649282,2.162792 2.027394,3.481192 0.187614,0.65415 0.125324,0.7867 -0.498301,1.06048 -0.391989,0.17209 -0.772239,0.38678 -0.844999,0.4771 -0.07276,0.0903 -0.393775,0.30186 -0.713366,0.47009 -0.485689,0.25567 -0.733561,0.2024 -1.51001,-0.32451 -0.510916,-0.34672 -0.848374,-0.71096 -0.749908,-0.80942 0.09847,-0.0985 -0.04523,-0.093 -0.31933,0.0122 -0.373507,0.14332 -0.444102,0.10344 -0.281784,-0.15919 0.145576,-0.23555 0.114488,-0.28733 -0.09483,-0.15797 -0.171275,0.10586 -0.874281,0.0136 -1.562235,-0.20507 -2.067875,-0.65721 -2.813804,-0.74009 -3.321262,-0.36902 -0.259951,0.19008 -0.503248,0.52093 -0.540658,0.73522 -0.320603,1.83648 -1.110003,3.64288 -1.929824,4.41607 -0.506395,0.4776 -1.084083,0.86835 -1.283751,0.86835 -0.199668,0 -0.518612,0.22123 -0.708765,0.49163 -0.531021,0.7551 -3.835474,3.20648 -4.042821,2.99913 -0.100907,-0.10091 -0.143779,-0.0203 -0.09527,0.17908 0.04851,0.19939 -0.221483,0.55658 -0.599978,0.79375 -1.370066,0.85848 -2.232901,1.50455 -3.049354,2.28329 -0.457708,0.43656 -1.017507,0.94083 -1.243998,1.1206 -0.226491,0.17977 -0.507991,0.486 -0.625555,0.68051 -0.423678,0.70098 -4.728964,3.67614 -6.552302,4.52796 -2.821942,1.31835 -3.583326,2.48001 -3.583326,5.46714 0,1.97816 0.26378,2.62294 1.440097,3.52016 2.984781,2.2766 12.332253,2.79405 20.285696,1.12295 3.524313,-0.74049 4.330254,-1.09462 5.485386,-2.41024 0.557786,-0.63529 1.477729,-1.20572 2.795331,-1.73331 1.657174,-0.66356 2.328989,-0.78672 4.301101,-0.78846 2.89406,-0.003 6.07149,-0.73016 7.4942,-1.7161 0.58177,-0.40316 1.53467,-1.25041 2.11755,-1.88277 0.98641,-1.07013 1.0598,-1.25758 1.0598,-2.70704 0,-2.8983 -0.68209,-5.08187 -2.6579,-8.50869 -0.51577,-0.89455 -0.53192,-1.18671 -0.12078,-2.18582 0.14712,-0.35753 0.0925,-0.42793 -0.23457,-0.30242 -0.33376,0.12808 -0.4206,-5.4e-4 -0.39996,-0.59231 l 0.0264,-0.75591 0.21183,0.66146 c 0.1847,0.57672 0.21574,0.52588 0.24226,-0.39688 0.0167,-0.58208 0.1417,-1.23429 0.27769,-1.44936 0.16479,-0.26059 0.20928,0.0662 0.13337,0.97974 -0.0627,0.75392 -0.0269,1.4193 0.0794,1.47862 0.44321,0.24728 2.17769,-0.15795 2.17769,-0.50878 0,-0.20236 0.17859,-0.36793 0.39687,-0.36793 0.34897,0 0.39688,2.21956 0.39688,18.38855 v 18.38854 h -6.20879 -6.20878 l 0.574575,-0.99219 c 0.316016,-0.5457 0.639425,-1.05172 0.718675,-1.12448 0.0793,-0.0728 0.30894,-0.37042 0.51041,-0.66146 0.20146,-0.29104 -0.33432,0.21703 -1.190626,1.12903 l -1.556922,1.6582 -6.202965,-0.005 -6.202965,-0.005 0.902801,-0.66607 c 1.853346,-1.36735 2.499272,-1.86522 3.286577,-2.53322 0.444521,-0.37715 1.046344,-0.82002 1.337386,-0.98414 0.291042,-0.16412 0.40093,-0.30202 0.244196,-0.30644 -0.156733,-0.004 -1.505817,0.77607 -2.997963,1.73444 -1.492147,0.95837 -2.77539,1.68009 -2.851652,1.60383 -0.07626,-0.0763 -0.407706,0.15165 -0.736542,0.50647 l -0.597885,0.64513 -8.304035,-0.0179 c -4.978754,-0.0107 -8.092135,-0.11046 -7.774868,-0.24904 z m 4.467498,-33.98046 c -0.104854,-0.27324 0.140267,-0.43777 0.868199,-0.58273 0.557867,-0.1111 1.103599,-0.1779 1.21274,-0.14843 0.240388,0.0649 0.247201,-0.0407 0.03784,-0.58625 -0.206164,-0.53726 -0.794454,-0.54012 -0.999849,-0.005 -0.0873,0.2275 -0.279328,0.33911 -0.426725,0.24801 -0.318613,-0.19691 -2.116993,0.40998 -2.116993,0.71441 0,0.11629 0.231098,0.21143 0.513552,0.21143 0.282453,0 0.587136,0.11907 0.677073,0.26459 0.24486,0.39619 0.401042,0.31872 0.234165,-0.11616 z m 0.109793,-6.02218 c 0.545844,-0.54584 0.349314,-0.81334 -0.47625,-0.64823 -0.577753,0.11555 -0.79375,0.0586 -0.79375,-0.20946 0,-0.20251 0.148828,-0.4286 0.330729,-0.50241 0.24977,-0.10134 0.233579,-0.20935 -0.06614,-0.4412 -0.316453,-0.24479 -0.219515,-0.2764 0.478376,-0.15597 0.774496,0.13363 0.829972,0.10574 0.481919,-0.24231 -0.52607,-0.52607 -2.396763,-0.54171 -2.195934,-0.0184 0.07914,0.20624 -0.03553,0.44384 -0.254833,0.52799 -0.233393,0.0896 -0.363603,0.40034 -0.314023,0.7495 0.06884,0.48481 0.227343,0.58123 0.846515,0.51497 0.598855,-0.0641 0.727973,0.007 0.603617,0.33073 -0.194431,0.50668 0.873442,0.58109 1.359779,0.0948 z m 6.983752,-1.45179 c 0.741169,-0.71009 0.977461,-1.40571 0.477498,-1.40571 -0.145521,0 -0.264583,0.18428 -0.264583,0.40951 0,0.22523 -0.315042,0.70148 -0.700094,1.05833 -0.385051,0.35686 -0.599926,0.64883 -0.477498,0.64883 0.122427,0 0.556532,-0.31993 0.964677,-0.71096 z m -1.602759,-0.34737 c 0.621781,0 1.421779,-0.67892 1.062006,-0.90127 -0.167566,-0.10356 -0.304666,-0.0668 -0.304666,0.0817 0,0.1485 -0.47625,0.39824 -1.058333,0.55498 -0.680702,0.1833 -1.058333,0.43759 -1.058333,0.71267 0,0.39014 0.04248,0.38924 0.483854,-0.0102 0.26612,-0.24084 0.660082,-0.43788 0.875472,-0.43788 z m 9.446121,-1.46766 c 0.796727,-1.74863 -0.362915,-7.263594 -1.527329,-7.263594 -0.232126,0 -1.073529,-0.238125 -1.869785,-0.529167 -0.796256,-0.291041 -1.657778,-0.529166 -1.914494,-0.529166 -0.290367,0 -0.466756,0.199974 -0.466756,0.529166 0,0.291042 0.09007,0.529167 0.200163,0.529167 0.11009,0 0.349425,0.478252 0.531856,1.062783 0.256903,0.823149 0.262873,1.33609 0.02648,2.274909 -0.296496,1.177491 -0.283342,1.229822 0.460331,1.831382 0.421052,0.34059 1.061151,0.7754 1.422443,0.96624 0.361293,0.19084 1.004029,0.6744 1.428304,1.07458 0.957238,0.90288 1.316729,0.91418 1.708791,0.0537 z m -17.155447,0.14474 c 0,-0.14552 0.47625,-0.26458 1.058333,-0.26458 1.005894,0 1.058334,-0.0404 1.058334,-0.8158 0,-0.93876 0.489656,-0.93924 0.961544,-9.3e-4 0.549607,1.09284 0.775113,1.1824 2.066686,0.82078 0.662807,-0.18557 1.205103,-0.441 1.205103,-0.56761 0,-0.1266 0.186907,-0.23019 0.415349,-0.23019 0.512474,0 2.759651,-1.5185 2.759651,-1.864798 0,-0.13853 0.227659,-0.251873 0.50591,-0.251873 0.387915,0 0.542189,-0.246838 0.661458,-1.058333 0.08555,-0.582083 0.225545,-1.534583 0.311096,-2.116667 0.100162,-0.681493 0.05306,-1.058333 -0.132291,-1.058333 -0.158312,0 -0.28784,-0.238125 -0.28784,-0.529167 0,-0.291041 -0.17057,-0.529166 -0.379045,-0.529166 -0.208475,0 -0.454624,-0.238125 -0.546997,-0.529167 -0.09237,-0.291042 -0.389771,-0.529167 -0.660886,-0.529167 -0.304827,0 -0.525199,-0.22082 -0.577482,-0.57866 -0.08179,-0.559762 -0.100225,-0.56291 -0.564578,-0.09638 -0.33935,0.340938 -0.397505,0.564801 -0.198437,0.763869 0.502327,0.502327 0.305942,0.64091 -1.169446,0.825248 -0.798071,0.09971 -1.527624,0.305215 -1.62123,0.456673 -0.156103,0.252579 1.106829,1.50812 1.539164,1.530156 0.102678,0.0052 0.587296,0.281375 1.076929,0.613649 l 0.890241,0.604134 -0.783999,0.772666 c -0.815523,0.803732 -2.896397,1.887006 -3.908578,2.034756 -0.505137,0.0737 -0.696194,-0.19188 -1.404235,-1.95225 -0.45075,-1.120681 -0.954576,-2.172493 -1.119614,-2.33736 -0.223554,-0.223323 -0.678952,-0.120518 -1.785938,0.40317 -0.817228,0.386611 -1.485869,0.813345 -1.485869,0.948298 0,0.134953 -0.148828,0.245514 -0.330729,0.245692 -0.649112,6.34e-4 -1.857419,1.285256 -1.71634,1.824742 0.09522,0.364114 0.02679,0.475033 -0.231836,0.37579 -0.451486,-0.173252 -0.486746,0.483908 -0.04943,0.921228 0.174625,0.17462 0.520666,0.3175 0.76898,0.3175 0.310212,0 0.411131,0.15429 0.322529,0.4931 -0.192445,0.73591 1.081896,1.62356 2.330839,1.62356 0.562459,0 1.022652,-0.11906 1.022652,-0.26458 z m 34.952977,-1.02213 c 0.1872,0.29549 0.22997,0.28894 0.23661,-0.0362 0.007,-0.35278 0.0366,-0.35278 0.26458,0 0.22798,0.35277 0.25738,0.35277 0.26458,0 0.007,-0.35278 0.0366,-0.35278 0.26459,0 0.22798,0.35277 0.25738,0.35277 0.26458,0 0.007,-0.35278 0.0366,-0.35278 0.26458,0 0.22798,0.35277 0.25738,0.35277 0.26459,0 0.007,-0.35278 0.0366,-0.35278 0.26458,0 0.22798,0.35277 0.25738,0.35277 0.26458,0 0.007,-0.35278 0.0366,-0.35278 0.26459,0 0.1855,0.28704 0.2576,0.0491 0.26053,-0.8599 l 0.004,-1.256771 h -0.92604 c -0.50933,0 -0.92604,-0.119062 -0.92604,-0.264583 0,-0.15434 -0.88195,-0.264583 -2.11667,-0.264583 -1.23472,0 -2.11667,0.110243 -2.11667,0.264583 0,0.145521 0.47625,0.264583 1.05834,0.264583 1.0028,0 1.05833,0.04224 1.05833,0.804921 0,0.81335 0.57425,1.76265 0.75963,1.25574 0.0559,-0.15292 0.19651,-0.11324 0.32668,0.0922 z M 80.884322,89.101069 c 0.254661,-0.08983 0.463021,-0.268497 0.463021,-0.397045 0,-0.128549 0.148828,-0.237512 0.330729,-0.24214 0.458897,-0.01167 1.385957,-0.744343 1.189904,-0.940396 -0.08829,-0.08829 -0.696364,0.208135 -1.351274,0.658724 -0.654909,0.45059 -1.31812,0.819254 -1.473802,0.819254 -0.155681,0 -0.283057,0.128984 -0.283057,0.286632 0,0.157647 0.148828,0.217255 0.330729,0.132462 0.181901,-0.08479 0.539088,-0.227665 0.79375,-0.317491 z m -8.426421,43.568761 c -2.885553,-0.4516 -5.200863,-1.51114 -5.789481,-2.6494 -0.48107,-0.93029 -0.518164,-2.58611 -0.09142,-4.08089 0.432503,-1.51495 0.584562,-1.6627 2.919447,-2.83666 3.310708,-1.66459 8.019686,-5.25429 9.162132,-6.98439 0.221326,-0.33517 2.251844,-1.71902 2.522314,-1.71902 0.111091,0 0.597973,-0.38696 1.081961,-0.8599 1.329228,-1.29889 2.306781,-2.05052 2.666871,-2.05052 0.177958,0 0.641407,-0.41672 1.029887,-0.92604 0.388479,-0.50932 0.872826,-0.92604 1.076325,-0.92604 0.570515,0 1.950774,-1.61256 2.264687,-2.64584 0.775124,-2.5514 1.091348,-3.175 1.610032,-3.175 0.996738,0 5.243027,1.4737 5.261766,1.82612 0.0046,0.087 0.177539,0.3816 0.384246,0.65458 0.361821,0.47781 0.42238,0.46548 1.624447,-0.33073 1.55603,-1.03067 2.863415,-1.07487 4.822185,-0.16301 0.77844,0.36238 1.7551,0.65888 2.17038,0.65888 0.64712,0 0.79442,0.14182 1.03058,0.99218 0.15155,0.54571 0.27621,1.38595 0.27702,1.86722 0.003,1.55147 0.58754,3.31055 1.79759,5.40603 1.28585,2.22674 1.89747,4.31191 1.90392,6.491 0.004,1.27294 -0.0929,1.50025 -1.10513,2.59838 -2.16953,2.35367 -3.86361,2.97778 -8.81261,3.24663 -3.127935,0.16993 -3.61053,0.26616 -5.326263,1.06213 -1.082301,0.5021 -2.128559,1.20242 -2.454012,1.64262 -0.899453,1.21658 -1.565921,1.51404 -5.067185,2.26163 -2.80529,0.59898 -4.055083,0.71389 -8.451498,0.77704 -2.837656,0.0408 -5.766343,-0.0209 -6.508191,-0.137 z m -4.795352,-6.54925 c 0.337939,-0.52116 3.134251,-2.5661 4.599396,-3.36353 0.750915,-0.4087 1.762869,-1.16454 2.248786,-1.67965 1.009701,-1.07037 0.736289,-0.96149 -1.497763,0.59643 -0.873125,0.60888 -2.298645,1.42945 -3.167823,1.82349 -0.869178,0.39405 -1.78289,0.89977 -2.030472,1.12383 -0.551309,0.49893 -1.151283,3.79269 -0.84677,4.64863 0.165474,0.46512 0.248232,0.20408 0.352526,-1.11198 0.07496,-0.94589 0.228913,-1.86263 0.34212,-2.03722 z m 15.490575,-6.03919 c -0.04729,-0.14188 -0.294349,-0.2296 -0.549011,-0.19494 -0.254661,0.0347 -0.46302,-0.0546 -0.46302,-0.19844 0,-0.1438 0.148828,-0.26645 0.330729,-0.27255 0.480594,-0.0161 -1.311081,-0.95267 -2.787706,-1.4572 -1.025865,-0.35052 -1.342609,-0.3694 -1.667915,-0.0994 -0.342792,0.2845 -0.241765,0.38729 0.690266,0.70235 0.884,0.29882 1.176306,0.30542 1.535624,0.0347 0.373136,-0.28116 0.391784,-0.276 0.117129,0.0324 -0.269214,0.3023 -0.08309,0.49482 1.058334,1.09464 1.393102,0.73208 1.894634,0.83567 1.73557,0.35848 z m 2.660968,-1.41601 c -0.717927,-0.90787 -0.910044,-0.98401 -1.117676,-0.44293 -0.103308,0.26922 -0.02002,0.33462 0.27968,0.21962 0.284275,-0.10909 0.362917,-0.0604 0.235493,0.14577 -0.10522,0.17025 -0.07324,0.30954 0.07106,0.30954 0.144303,0 0.34175,0.25011 0.438773,0.5558 0.121345,0.38233 0.2617,0.47051 0.449684,0.28252 0.187983,-0.18798 0.07655,-0.52205 -0.357013,-1.07032 z m -1.129837,-0.87426 c 0.241541,-0.39082 -2.389175,-2.86249 -3.046687,-2.86249 -0.915024,0 -0.752719,0.32653 0.856771,1.72366 1.771385,1.53766 1.901581,1.60537 2.189916,1.13883 z m 4.143497,-2.02708 c -0.848721,-1.36495 -0.896942,-1.40161 -1.363952,-1.03711 -0.372287,0.29058 -0.384558,0.27844 -0.09439,-0.0934 0.282631,-0.36214 0.176307,-0.59428 -0.696806,-1.52135 -1.053879,-1.11901 -1.974406,-1.40473 -2.24594,-0.69713 -0.185283,0.48284 0.121622,0.51531 0.625316,0.0661 0.316063,-0.28184 0.318487,-0.26156 0.0164,0.13725 -0.517417,0.68309 0.34524,1.6101 1.294471,1.39105 0.493299,-0.11384 0.5689,-0.0862 0.283093,0.10337 -0.330048,0.21895 -0.291359,0.36362 0.251884,0.94188 0.353004,0.37575 0.809624,0.6188 1.014712,0.5401 0.258997,-0.0994 0.322568,-0.012 0.208137,0.28624 -0.121836,0.3175 -0.05292,0.38642 0.264583,0.26459 0.303336,-0.1164 0.385819,-0.0514 0.281059,0.22165 -0.09817,0.25583 -0.02209,0.33797 0.225177,0.24309 0.313592,-0.12034 0.303375,-0.25601 -0.06374,-0.84642 z m 2.687521,0.25291 c 0.197451,-0.31949 -0.477341,-0.84415 -1.150956,-0.89489 -0.302669,-0.0228 -0.550308,-0.12244 -0.550308,-0.22142 0,-0.099 -0.166849,-0.244 -0.370775,-0.32225 -0.224189,-0.086 -0.348387,0.0102 -0.314147,0.24355 0.03114,0.2122 0.125963,0.35279 0.210705,0.31241 0.08474,-0.0404 0.382516,0.13331 0.661718,0.38598 0.403402,0.36508 0.575313,0.39224 0.837204,0.13229 0.262331,-0.26038 0.293602,-0.23265 0.153288,0.13591 -0.179238,0.4708 0.256037,0.66081 0.523271,0.22842 z m 0.7856,-2.86033 c -0.259235,-0.18956 -0.647018,-0.34465 -0.861739,-0.34465 -0.214722,0 -0.318197,-0.0722 -0.229946,-0.16046 0.203029,-0.20303 -0.413575,-0.8651 -1.901036,-2.0412 -1.001158,-0.79159 -1.255371,-0.88284 -1.785937,-0.6411 -0.340243,0.15502 -0.618623,0.37762 -0.618623,0.49467 0,0.27772 1.055842,0.84353 1.066379,0.57146 0.0044,-0.11426 0.129404,6.1e-4 0.277731,0.25527 0.148327,0.25466 0.442362,0.46302 0.653413,0.46302 0.21105,0 0.383727,0.092 0.383727,0.20442 0,0.31046 1.895384,1.26247 2.323315,1.16695 0.21117,-0.0471 0.299242,0.0397 0.201164,0.19844 -0.302986,0.49024 0.124429,0.87368 0.565677,0.50748 0.350204,-0.29064 0.341432,-0.37044 -0.07413,-0.6743 z m 11.655117,-7.73646 c -0.13825,-0.13642 -0.60854,-0.43335 -1.04511,-0.65982 -0.43656,-0.22648 -0.61515,-0.40873 -0.39687,-0.405 0.21828,0.004 0.62799,0.1816 0.91046,0.39525 0.28248,0.21365 1.02662,0.38846 1.65365,0.38846 0.62703,0 1.14006,0.11906 1.14006,0.26458 0,0.33492 -1.92532,0.34898 -2.26219,0.0165 z m 0.0597,-0.92977 c -1.26669,-0.45173 -1.45804,-0.63162 -0.6182,-0.58119 0.35929,0.0216 0.59812,0.12852 0.53073,0.23766 -0.0674,0.10914 0.42029,0.19844 1.08373,0.19844 0.66343,0 1.20624,0.11906 1.20624,0.26458 0,0.36555 -0.99353,0.31165 -2.2025,-0.11949 z"
         id="path37" /><path
         style="fill:#adc8d9"
         d="m 96.759321,144.10365 c -0.75642,-0.0681 -1.124479,-0.2262 -1.124479,-0.48294 0,-0.29857 -0.432029,-0.38166 -1.984375,-0.38166 -1.5875,0 -1.984375,0.0794 -1.984375,0.39688 0,0.30047 -0.325114,0.39687 -1.338531,0.39687 -0.881932,0 -1.278949,-0.0964 -1.163862,-0.28262 0.09607,-0.15544 0.335156,-0.22104 0.531307,-0.14577 0.229469,0.0881 0.304176,1.5e-4 0.209513,-0.24654 -0.192834,-0.50252 0.282565,-0.49341 0.70324,0.0135 0.38592,0.46501 0.79375,0.52025 0.79375,0.10752 0,-0.15914 -0.238125,-0.35162 -0.529167,-0.42773 -0.706202,-0.18468 -0.662527,-0.37329 0.232187,-1.0027 0.881997,-0.62047 4.521834,-3.96729 4.133438,-3.80069 -1.128434,0.48405 -1.719791,0.89576 -1.719791,1.19732 0,0.19492 -0.154857,0.35441 -0.344127,0.35441 -0.63163,0 -1.768385,0.65685 -1.770476,1.02303 -0.0015,0.26328 -0.199853,0.31065 -0.729668,0.17426 -0.400182,-0.10302 -1.572729,-0.26573 -2.605659,-0.36157 -1.03293,-0.0958 -2.080236,-0.34224 -2.327345,-0.54755 -0.28439,-0.23628 -1.051728,-0.36917 -2.090695,-0.36208 -1.337172,0.009 -1.548525,-0.0443 -1.140297,-0.28818 0.27561,-0.16465 0.811391,-0.57337 1.190625,-0.90826 l 0.689517,-0.60888 -0.926042,0.18762 c -2.212033,0.44818 -5.903004,0.0619 -7.805208,-0.81685 -0.436562,-0.20167 -1.370136,-0.51219 -2.074607,-0.69003 -0.704472,-0.17785 -1.342288,-0.48344 -1.41737,-0.6791 -0.07508,-0.19566 -0.338087,-0.35575 -0.584455,-0.35575 -0.246369,0 -0.569792,-0.12185 -0.71872,-0.27077 -0.148927,-0.14893 -0.531993,-0.32109 -0.851258,-0.38257 -0.319264,-0.0615 -0.757713,-0.28902 -0.97433,-0.50564 -0.655999,-0.656 -1.504135,-0.8084 -1.851927,-0.33276 -0.170998,0.23385 -0.387396,0.34869 -0.480886,0.2552 -0.09349,-0.0935 -0.07043,-0.29999 0.05124,-0.4589 0.463907,-0.60591 0.553578,-1.19285 0.159114,-1.04148 -0.210035,0.0806 -0.316007,0.25313 -0.235494,0.3834 0.146763,0.23747 -0.233738,0.3426 -0.905278,0.25012 -0.626451,-0.0863 -1.603407,-1.4284 -1.462326,-2.00893 0.0876,-0.36049 -0.133456,-0.81755 -0.663824,-1.37253 -0.932033,-0.97529 -1.880498,-1.54978 -1.880498,-1.13903 0,0.15064 0.126089,0.27389 0.280198,0.27389 0.154109,0 0.197164,0.13436 0.09568,0.29856 -0.322792,0.52229 -0.66759,-0.45986 -0.399333,-1.1375 0.297244,-0.75085 1.739368,-2.33606 2.125208,-2.33606 0.153724,0 0.291367,-0.26789 0.305872,-0.59531 0.0253,-0.57112 0.03498,-0.56843 0.23821,0.0662 0.128101,0.39999 0.222261,0.48698 0.23821,0.22007 0.03977,-0.6655 -0.255243,-1.27841 -0.61533,-1.27841 -0.663404,0 -2.268713,1.71889 -2.268713,2.42923 0,0.64723 -0.0462,0.67456 -0.659394,0.39015 -0.664747,-0.30832 -0.888649,-0.70271 -0.39894,-0.70271 0.145521,0 0.264584,-0.35719 0.264584,-0.79375 0,-0.47383 -0.138271,-0.79375 -0.343061,-0.79375 -0.370426,0 -1.141136,-0.53173 -2.320086,-1.60067 -0.536896,-0.4868 -0.737354,-0.91038 -0.719982,-1.52136 0.02442,-0.85881 0.737295,-1.26244 0.737295,-0.41745 0,0.35158 0.07183,0.36966 0.396875,0.0999 0.519089,-0.43081 0.50996,-0.82054 -0.0145,-0.61928 -0.326516,0.12529 -0.296551,-0.0466 0.145257,-0.83319 0.725304,-1.29134 0.463108,-1.55748 -0.285092,-0.28937 -0.314995,0.53387 -0.635176,0.90822 -0.711514,0.83188 -0.204321,-0.20432 1.275283,-2.25314 1.848833,-2.5601 0.537683,-0.28776 1.794954,-0.0319 1.311492,0.26693 -0.18492,0.11429 -0.10223,0.29523 0.229625,0.50248 0.411914,0.25725 0.519446,0.25538 0.522664,-0.009 0.0029,-0.23818 0.07139,-0.2266 0.240572,0.0407 0.19993,0.31583 0.304559,0.3056 0.676306,-0.0661 0.481069,-0.48107 1.195737,-0.59075 1.195737,-0.1835 0,0.14095 -0.1962,0.18099 -0.436001,0.089 -0.436903,-0.16766 -0.433595,0.0803 0.02363,1.77141 0.05902,0.21828 0.116412,0.46852 0.127546,0.55607 0.01113,0.0876 0.391647,0.54784 0.845584,1.02284 0.643575,0.67344 0.875759,0.78405 1.054281,0.50226 0.125919,-0.19876 0.230766,-0.5102 0.232994,-0.6921 0.0065,-0.5301 1.016864,-0.381 1.325444,0.19559 0.303168,0.56647 0.877664,0.57993 1.721316,0.0403 0.512432,-0.32775 0.510306,-0.33447 -0.06725,-0.21244 -0.748988,0.15825 -0.954162,-0.52892 -0.658082,-2.20405 l 0.21005,-1.1884 0.287081,1.25454 c 0.157894,0.69 0.184536,1.25455 0.0592,1.25455 -0.125332,0 -0.227877,0.11906 -0.227877,0.26458 0,0.14552 0.277812,0.26459 0.617361,0.26459 0.339548,0 0.697087,0.0797 0.794529,0.17716 0.201095,0.2011 -1.745087,1.4284 -2.422796,1.52786 -0.244366,0.0359 -0.429309,0.17293 -0.410984,0.30457 0.01833,0.13165 -0.19149,0.52516 -0.466257,0.87447 -0.274768,0.34931 -0.572869,1.09345 -0.662448,1.65365 -0.08958,0.5602 -0.31236,1.01854 -0.495071,1.01854 -0.467306,0 -0.622372,0.80118 -0.389164,2.01071 0.109437,0.5676 0.212668,0.82364 0.229403,0.56897 0.04755,-0.72363 0.499959,-0.5431 0.678731,0.27084 0.708016,3.22358 10.572371,4.67684 19.989195,2.9449 5.054247,-0.92957 6.312555,-1.41867 7.234655,-2.81209 0.30045,-0.45402 1.164152,-1.03231 2.248958,-1.50579 1.489086,-0.64992 2.272137,-0.8001 5.068467,-0.97204 5.02751,-0.30912 6.56505,-0.84868 8.9195,-3.13004 1.41298,-1.36911 1.74213,-2.50553 1.38799,-4.79208 -0.29648,-1.91427 -1.29413,-5.05287 -1.69585,-5.33514 -0.14407,-0.10123 -0.18176,-0.26423 -0.0838,-0.36223 0.24442,-0.24442 1.01807,0.56437 0.78609,0.82178 -0.10222,0.11342 -0.037,0.12057 0.14489,0.0159 0.1819,-0.10468 0.34012,-0.39166 0.35161,-0.63774 0.0129,-0.27547 0.0722,-0.32031 0.15434,-0.11667 0.0734,0.1819 0.30213,0.33073 0.50828,0.33073 0.31818,0 0.37483,1.91952 0.37483,12.7 v 12.7 h -0.62906 c -0.34599,0 -0.79072,0.19478 -0.98831,0.43286 -0.55973,0.67444 -2.28334,1.6838 -2.87529,1.6838 -0.29866,0 -0.53442,0.17509 -0.53442,0.39688 0,0.29817 -0.31883,0.39687 -1.28191,0.39687 -0.96481,0 -1.40586,0.13697 -1.78298,0.55368 -0.27559,0.30452 -0.7146,0.66795 -0.97557,0.80762 -0.41535,0.22229 -0.45675,0.16151 -0.33211,-0.48753 0.0783,-0.40781 0.0643,-0.56288 -0.0311,-0.3446 -0.18828,0.43057 -0.62476,0.78326 -0.97732,0.7897 -0.12192,0.002 0.30557,-0.74009 0.94997,-1.6496 1.10864,-1.56475 1.68906,-2.84427 1.29021,-2.84427 -0.25361,0 -1.35359,1.28697 -2.22071,2.59822 -0.68251,1.03208 -0.8127,1.10595 -1.949088,1.10595 -1.087467,0 -1.202927,0.0566 -1.079349,0.52917 0.07611,0.29104 0.119761,0.50836 0.097,0.48294 -0.02276,-0.0254 -0.547391,-0.0918 -1.165855,-0.14751 z M 62.165052,124.45363 c 0.263389,-0.29104 0.758092,-0.52916 1.09934,-0.52916 0.716032,0 0.798995,-0.42251 0.210627,-1.07264 -0.336061,-0.37135 -0.526174,-0.39891 -1.056269,-0.15313 -0.355544,0.16485 -0.647374,0.44855 -0.648509,0.63045 -0.0011,0.18191 -0.09136,0.30548 -0.200502,0.27463 -0.256431,-0.0725 -1.389062,0.65653 -1.389062,0.8941 0,0.17147 0.575176,0.38637 1.215763,0.45423 0.159347,0.0169 0.505223,-0.20743 0.768612,-0.49848 z m 0.03901,-2.99112 c 0.298474,0.11453 0.385247,0.0201 0.315851,-0.34371 -0.170498,-0.89384 -1.162359,-0.75403 -1.946796,0.27442 -0.393744,0.51623 -0.791947,0.89272 -0.884898,0.83665 -0.09295,-0.0561 -0.330012,0.0722 -0.526804,0.28497 -0.304939,0.32976 -0.285394,0.37452 0.132292,0.30296 0.387143,-0.0663 0.47057,0.055 0.397151,0.5775 -0.07679,0.54652 0.09774,0.42233 1.004363,-0.71463 0.749415,-0.93981 1.22778,-1.32602 1.508841,-1.21816 z m 9.750573,11.08814 c -3.854167,-0.73225 -5.688542,-2.09498 -5.688542,-4.22591 0,-1.18608 0.49578,-3.33451 0.883327,-3.82785 0.152783,-0.19448 1.236927,-0.832 2.409209,-1.41671 2.818259,-1.40567 6.125797,-3.82008 8.538815,-6.2331 1.077286,-1.07729 2.36399,-2.12804 2.859341,-2.33501 0.495352,-0.20697 1.020919,-0.60106 1.167929,-0.87575 0.243829,-0.4556 1.247598,-1.19549 2.841558,-2.09454 0.335581,-0.18928 0.733697,-0.575 0.884702,-0.85716 0.151005,-0.28215 0.643237,-0.70366 1.093847,-0.93668 1.088123,-0.56269 1.992162,-1.62094 2.355088,-2.75681 0.818147,-2.5606 1.127716,-3.175 1.599752,-3.175 1.266491,0 4.35652,1.23016 5.197193,2.06904 l 0.880291,0.87841 1.226293,-0.81227 c 1.532359,-1.01499 2.850502,-1.05569 4.799862,-0.14822 0.77844,0.36238 1.7551,0.65888 2.17038,0.65888 0.64712,0 0.79442,0.14182 1.03058,0.99218 0.15155,0.54571 0.27762,1.40891 0.28016,1.91823 0.008,1.52756 0.66624,3.45183 1.93034,5.63979 1.22074,2.11293 1.77217,4.14547 1.77217,6.53221 0,1.0396 -0.13421,1.27947 -1.41603,2.53096 -2.34837,2.2928 -3.52304,2.69445 -8.77043,2.99886 -3.165294,0.18362 -3.576732,0.26919 -5.159378,1.07302 -0.945885,0.48042 -2.113696,1.33147 -2.595136,1.89121 -0.934686,1.0867 -1.138574,1.16522 -5.474655,2.10833 -3.350684,0.72878 -11.882515,0.96136 -14.816666,0.40389 z M 67.6751,126.11589 c 0.313338,-0.50699 3.110622,-2.55538 4.586845,-3.35884 0.750915,-0.4087 1.762869,-1.16454 2.248786,-1.67965 1.010951,-1.07169 0.733437,-0.96065 -1.497763,0.59928 -0.873125,0.61044 -2.325345,1.43888 -3.227157,1.84098 -0.901811,0.40211 -1.812161,0.92602 -2.023,1.16427 -0.564449,0.6378 -1.053442,3.35773 -0.808139,4.4951 0.19199,0.89018 0.220547,0.82092 0.367653,-0.89163 0.08772,-1.02123 0.246471,-1.99751 0.352775,-2.16951 z m 15.478024,-6.0345 c -0.04729,-0.14188 -0.291847,-0.24878 -0.543451,-0.23755 -0.32402,0.0144 -0.381392,-0.0713 -0.196682,-0.29381 0.189459,-0.22829 -0.155778,-0.50018 -1.26233,-0.99415 -2.220116,-0.99107 -2.886218,-1.11131 -3.386271,-0.61126 -0.388404,0.38841 -0.379098,0.4236 0.112021,0.4236 0.294589,0 0.835349,0.13656 1.201689,0.30348 0.520654,0.23723 0.76887,0.22557 1.136928,-0.0534 0.404269,-0.3064 0.423262,-0.30359 0.134305,0.0198 -0.282101,0.31576 -0.110878,0.49349 1.058334,1.0985 1.400425,0.72466 1.905338,0.82439 1.745457,0.34474 z m 2.835731,-1.17152 c -0.263395,-0.29104 -0.580687,-0.46627 -0.705093,-0.38938 -0.124405,0.0769 -0.155286,-0.045 -0.06862,-0.27082 0.08666,-0.22584 0.03851,-0.41062 -0.107015,-0.41062 -0.541385,0 -0.598411,0.83999 -0.06647,0.97909 0.286822,0.075 0.596797,0.37363 0.688833,0.66361 0.119537,0.37663 0.248737,0.44583 0.452302,0.24227 0.203565,-0.20357 0.148168,-0.43613 -0.193935,-0.81415 z m 2.086834,-0.51167 c 0.07975,-0.12904 -0.03229,-0.38174 -0.248968,-0.56157 -0.313149,-0.25989 -0.476615,-0.25836 -0.796894,0.007 -0.331935,0.27548 -0.376753,0.26618 -0.25436,-0.0528 0.09414,-0.24532 -0.10208,-0.50138 -0.535559,-0.69888 -0.90551,-0.41258 -1.056168,-0.39312 -0.659232,0.0852 0.181157,0.21828 0.493392,0.39688 0.693855,0.39688 0.200463,0 0.334713,0.14882 0.298332,0.33073 -0.03638,0.1819 0.08268,0.30096 0.264584,0.26458 0.181901,-0.0364 0.330729,0.0529 0.330729,0.19844 0,0.32735 0.709245,0.35078 0.907513,0.03 z m -3.391434,-0.60708 c 0.283714,-0.45906 -2.422475,-2.86249 -3.223076,-2.86249 -0.353651,0 -0.633108,0.0893 -0.621015,0.19844 0.02538,0.22905 3.1937,2.93204 3.468126,2.95876 0.100553,0.01 0.269737,-0.12283 0.375965,-0.29471 z m 4.161179,-1.16298 c 0.343002,-0.13163 0.328967,-0.26792 -0.102179,-0.99219 -0.27489,-0.46179 -1.083273,-1.46469 -1.796407,-2.22867 -1.269204,-1.35971 -2.178146,-1.73715 -2.587658,-1.07455 -0.250644,0.40555 3.070355,3.43353 3.566049,3.25141 0.244732,-0.0899 0.307378,0.005 0.195437,0.29699 -0.118233,0.30811 -0.05184,0.38601 0.235124,0.27589 0.219932,-0.0844 0.399876,-0.048 0.399876,0.0808 0,0.12882 -0.148828,0.29428 -0.330729,0.36768 -0.181901,0.0734 -0.251171,0.14285 -0.153932,0.15434 0.09724,0.0115 0.355727,-0.0478 0.574419,-0.13169 z m 2.612379,-0.78008 c 0.02717,-0.42189 -1.201301,-0.9386 -1.506325,-0.63357 -0.392283,0.39228 0.410712,0.82148 0.851892,0.45533 0.269037,-0.22328 0.305646,-0.18259 0.16515,0.18353 -0.120044,0.31283 -0.07111,0.43394 0.146078,0.36154 0.179624,-0.0599 0.334066,-0.22495 0.343205,-0.36683 z m 0.827484,-2.68242 c -0.267802,-0.18459 -0.629344,-0.45747 -0.803426,-0.60638 -0.174082,-0.14892 -0.501504,-0.19978 -0.727604,-0.11301 -0.226885,0.0871 -0.411091,0.0195 -0.411091,-0.15076 0,-0.16968 0.119062,-0.23492 0.264583,-0.14498 0.145521,0.0899 0.264583,0.0535 0.264583,-0.0809 0,-0.13442 -0.619648,-0.72723 -1.376997,-1.31736 -1.346825,-1.04944 -1.394246,-1.06403 -2.164221,-0.66586 l -0.787225,0.40709 0.639548,0.34227 c 0.351751,0.18826 0.717862,0.29388 0.81358,0.23472 0.09572,-0.0592 0.242304,0.0703 0.325746,0.2878 0.08344,0.21744 0.32412,0.39535 0.534842,0.39535 0.210722,0 0.422818,0.0893 0.471325,0.19844 0.226175,0.50889 1.815997,1.36938 2.233817,1.20905 0.308651,-0.11844 0.39327,-0.0751 0.263416,0.13505 -0.316028,0.51134 0.09476,0.9116 0.548825,0.53475 0.349589,-0.29013 0.338834,-0.36989 -0.0897,-0.66528 z m 1.561959,-0.79403 c -0.182807,-0.0737 -0.26494,-0.24312 -0.182516,-0.37649 0.19014,-0.30765 -1.153441,-0.83369 -1.531922,-0.59977 -0.269344,0.16646 1.217035,1.08595 1.782233,1.10251 0.14552,0.004 0.115013,-0.0525 -0.0678,-0.12625 z m -18.984852,4.51892 c -0.164652,-0.26103 -0.688026,-0.43585 -1.386213,-0.46303 -0.616928,-0.024 -1.122361,-0.14863 -1.123185,-0.27693 -8.23e-4,-0.1283 0.487859,-0.16764 1.08596,-0.0874 l 1.087455,0.14586 -0.748116,-0.78087 c -0.588317,-0.61407 -0.899992,-0.7475 -1.459142,-0.62469 -0.391065,0.0859 -0.788919,0.0301 -0.884122,-0.12391 -0.0967,-0.15647 0.03814,-0.2858 0.305541,-0.29305 0.26325,-0.007 0.954886,-0.48254 1.536969,-1.05645 0.582084,-0.57391 1.177396,-1.04806 1.322917,-1.05367 0.145521,-0.006 0.485549,-0.31346 0.755619,-0.68411 0.473639,-0.65003 0.474385,-0.7177 0.02107,-1.90991 -0.258481,-0.67981 -0.634756,-1.35821 -0.836166,-1.50757 -0.436853,-0.32396 -0.180928,-1.18365 0.352366,-1.18365 0.202712,0 0.368567,-0.23812 0.368567,-0.52916 0,-0.97171 1.091247,-0.58229 1.767233,0.63066 0.257137,0.4614 0.313728,0.43747 0.762611,-0.32243 0.554479,-0.93866 0.894975,-1.12549 1.67797,-0.92074 0.443067,0.11587 0.554686,0.35182 0.554686,1.17253 0,0.56511 -0.119062,1.02748 -0.264583,1.02748 -0.145521,0 -0.264584,0.47625 -0.264584,1.05833 0,0.58208 0.119063,1.05833 0.264584,1.05833 0.479031,0 0.276993,0.521 -0.529167,1.36457 -0.62968,0.6589 -0.79375,1.06535 -0.79375,1.96635 0,0.62467 0.139296,1.22186 0.309546,1.32708 0.204844,0.1266 0.255277,0.0499 0.149103,-0.2268 -0.113066,-0.29464 0.104778,-0.54396 0.737733,-0.84432 0.549814,-0.2609 0.845256,-0.56412 0.761733,-0.78178 -0.07504,-0.19556 0.04293,-0.42439 0.262163,-0.50852 0.284778,-0.10928 0.357643,-0.0246 0.25516,0.29659 -0.09226,0.28912 0.04039,0.22463 0.371693,-0.18071 0.283389,-0.34671 0.681317,-0.56441 0.884525,-0.4839 0.260848,0.10333 0.228747,0.15247 -0.10925,0.16722 -0.26325,0.0115 -0.405051,0.13995 -0.315114,0.28547 0.08994,0.14552 0.03041,0.26459 -0.132292,0.26459 -0.162697,0 -0.220686,0.12155 -0.128865,0.27012 0.09182,0.14857 -0.246476,0.44287 -0.751772,0.654 -0.505295,0.21112 -1.130438,0.59558 -1.389205,0.85435 -0.508965,0.50896 -0.886486,0.60363 -1.302033,0.32649 -0.145521,-0.097 -0.523566,-0.2397 -0.8401,-0.31701 -0.405693,-0.0991 -0.53586,-0.0372 -0.441124,0.20966 0.07392,0.19262 0.303133,0.28547 0.509371,0.20633 0.206238,-0.0791 0.374978,-0.0345 0.374978,0.0991 0,0.45606 -1.077722,1.40111 -1.597807,1.40111 -0.285373,0 -0.518859,0.1786 -0.518859,0.39688 0,0.51794 -0.330267,0.50676 -0.664106,-0.0225 z m 2.198836,-7.4955 c -0.04374,-0.37626 -0.188075,-0.64624 -0.32075,-0.59997 -0.132676,0.0463 -0.394819,-0.28114 -0.58254,-0.7276 -0.356716,-0.84838 -0.896024,-1.09808 -0.896024,-0.41487 0,0.21828 0.119063,0.39688 0.264584,0.39688 0.14552,0 0.264583,0.22035 0.264583,0.48968 0,0.26933 0.132038,0.86845 0.293417,1.33138 0.24118,0.69185 0.361323,0.78535 0.674836,0.52515 0.209779,-0.1741 0.345632,-0.62439 0.301894,-1.00065 z m 5.873603,2.37163 c 0,-0.13551 0.124844,-0.32354 0.277431,-0.41784 0.187534,-0.1159 0.168927,-0.31387 -0.05742,-0.61093 -0.18417,-0.24171 -0.234741,-0.35527 -0.112379,-0.25236 0.37615,0.31634 2.221837,-0.78142 2.179554,-1.29634 -0.03732,-0.45441 0.07155,-0.50937 1.14395,-0.57748 0.286394,-0.0182 0.698346,-0.3605 0.915448,-0.76068 0.335222,-0.61791 0.397742,-0.64783 0.414701,-0.19844 0.01787,0.47346 0.05977,0.45954 0.398092,-0.13229 0.207968,-0.3638 0.382343,-0.52869 0.3875,-0.36641 0.01418,0.44618 -1.059181,1.71424 -1.316445,1.55524 -0.123813,-0.0765 -0.3011,-0.0162 -0.393971,0.13409 -0.09287,0.15026 -0.261752,0.2158 -0.37529,0.14563 -0.113539,-0.0702 -0.461712,0.16601 -0.773718,0.52485 -0.312006,0.35884 -0.694161,0.65243 -0.849232,0.65243 -0.155072,0 -0.20654,0.12202 -0.114375,0.27114 0.09216,0.14913 0.06943,0.25409 -0.05053,0.23325 -0.119957,-0.0208 -0.456229,-0.022 -0.747271,-0.002 -0.360955,0.0241 -0.425817,0.10104 -0.204047,0.24192 0.240754,0.15294 0.189262,0.32286 -0.198438,0.65481 -0.287956,0.24656 -0.523556,0.33742 -0.523556,0.20191 z m -12.369271,-0.71124 c -0.473745,-0.20002 -0.408995,-0.88929 0.08354,-0.88929 0.227848,0 0.674332,-0.14332 0.992188,-0.31849 0.317855,-0.17518 0.756512,-0.32401 0.974793,-0.33073 0.218281,-0.007 0.363389,-0.17223 0.322461,-0.36777 -0.04093,-0.19554 0.0186,-0.31078 0.132292,-0.25609 1.258345,0.60535 1.661914,0.86753 1.661914,1.07965 0,0.13794 -0.297657,0.17609 -0.661459,0.0848 -0.468624,-0.11761 -0.661458,-0.0585 -0.661458,0.20283 0,0.20286 -0.327422,0.44039 -0.727604,0.52784 -0.400183,0.0875 -0.965729,0.21478 -1.256771,0.28295 -0.291042,0.0682 -0.677995,0.0611 -0.859896,-0.0157 z m -1.283853,-1.19769 c -0.106892,-0.17296 0.07223,-0.51832 0.411171,-0.79278 0.728015,-0.58951 0.967686,-0.60832 1.165999,-0.0915 0.19741,0.51444 -1.290246,1.34856 -1.57717,0.88431 z m 11.00729,-0.74993 c 0,-0.58208 0.119063,-1.05833 0.264584,-1.05833 0.145521,0 0.264583,-0.26364 0.264583,-0.58587 0,-0.54505 0.03049,-0.55537 0.437702,-0.14816 0.407215,0.40722 0.407215,0.48424 0,1.10572 -0.240736,0.36741 -0.437702,0.91034 -0.437702,1.2065 0,0.29616 -0.119062,0.53847 -0.264583,0.53847 -0.145521,0 -0.264584,-0.47625 -0.264584,-1.05833 z m -11.377083,-1.61581 c 0,-0.90136 0.07448,-1.05806 0.436813,-0.91902 0.271156,0.10405 0.641855,-0.0525 0.977474,-0.41271 0.335784,-0.36042 0.579656,-0.46334 0.643569,-0.2716 0.145308,0.43592 1.254425,0.38404 1.636692,-0.0766 0.431569,-0.52001 0.08991,-0.99878 -0.564523,-0.79107 -0.473723,0.15036 -0.497152,0.10745 -0.222025,-0.40663 0.188328,-0.3519 0.461981,-0.51548 0.705806,-0.42191 0.219023,0.084 0.626611,0.15281 0.905751,0.15281 0.379855,0 0.507527,0.18695 0.507527,0.74318 0,1.19429 -0.509565,1.62757 -2.116667,1.79979 -1.774204,0.19014 -2.38125,0.48853 -2.38125,1.17051 0,0.28592 -0.119062,0.51985 -0.264583,0.51985 -0.145521,0 -0.264584,-0.48899 -0.264584,-1.08664 z m -2.30035,-1.15395 c -0.408297,-0.35921 -0.589341,-0.65686 -0.40232,-0.66146 0.443099,-0.0109 1.644337,0.77837 1.644337,1.0804 0,0.41344 -0.479843,0.25159 -1.242017,-0.41894 z m 15.529517,-0.008 c -0.181158,-0.21828 -0.498371,-0.39687 -0.704919,-0.39687 -0.206547,0 -0.633215,-0.24006 -0.94815,-0.53347 -0.552607,-0.51483 -0.556805,-0.56022 -0.120177,-1.29937 0.475364,-0.80473 0.501247,-1.86902 0.05345,-2.198 -0.292973,-0.21525 0.152945,-0.29311 1.178462,-0.20577 0.551113,0.0469 0.599181,-0.005 0.317881,-0.34403 -0.52167,-0.62858 0.09477,-0.79692 1.126094,-0.30752 0.499679,0.23711 0.973511,0.60051 1.05296,0.80755 0.07945,0.20704 0.35655,0.37975 0.615778,0.38379 0.259229,0.004 0.828512,0.37287 1.265075,0.81962 0.687317,0.70336 0.722795,0.80472 0.264583,0.75594 -0.915063,-0.0974 -1.190625,-0.007 -1.190625,0.38944 0,0.21167 -0.303068,0.68792 -0.673485,1.05833 -0.370416,0.37042 -0.846666,0.67349 -1.058333,0.67349 -0.211667,0 -0.384848,0.17859 -0.384848,0.39687 0,0.21829 -0.104484,0.39688 -0.232187,0.39688 -0.127702,0 -0.380406,-0.17859 -0.561563,-0.39688 z m -4.875446,-1.10332 c -0.170894,-0.44534 0.232887,-0.8695 0.834878,-0.877 0.250749,-0.003 0.256162,0.14716 0.02368,0.65741 -0.350941,0.77023 -0.62077,0.83924 -0.858554,0.21959 z m -12.372789,-1.61054 c -1.918659,-1.94606 -2.066348,-2.16812 -2.066348,-3.10697 0,-0.509322 0.119062,-0.926041 0.264583,-0.926041 0.145521,0 0.264584,0.29063 0.264584,0.645841 0,0.35522 0.127179,0.72445 0.282621,0.82052 0.155441,0.0961 0.218709,0.34122 0.140595,0.54478 -0.07811,0.20356 -0.03067,0.37011 0.105435,0.37011 0.250022,0 2.048421,1.69606 2.178918,2.05493 0.0388,0.10672 0.159852,0.16426 0.268993,0.12788 0.109141,-0.0364 0.198437,0.0529 0.198437,0.19844 0,0.53942 -0.689596,0.23227 -1.637818,-0.72949 z m 24.777411,-0.68463 c 0.461914,-0.33776 0.455008,-0.36404 -0.136313,-0.51867 -0.873703,-0.22848 -0.552197,-0.41178 0.453348,-0.25847 0.792068,0.12076 0.812738,0.15298 0.40422,0.6301 -0.236794,0.27655 -0.605424,0.50283 -0.819178,0.50283 -0.293255,0 -0.269221,-0.0873 0.09792,-0.35579 z m 1.202073,-4.406714 c 0,-0.582083 0.119063,-1.058333 0.264584,-1.058333 0.14552,0 0.264583,0.47625 0.264583,1.058333 0,0.582083 -0.119063,1.058333 -0.264583,1.058333 -0.145521,0 -0.264584,-0.47625 -0.264584,-1.058333 z m 2.910417,-1.455208 c -0.207344,-0.249835 -0.790422,-0.396875 -1.573776,-0.396875 -0.985262,0 -1.373803,-0.137745 -1.865807,-0.661459 -0.719124,-0.765471 -1.058334,-0.83989 -1.058334,-0.232186 0,0.36934 -0.06116,0.378575 -0.438077,0.06615 -0.407714,-0.337958 -0.407714,-0.369056 0,-0.448673 0.31629,-0.06176 0.438077,-0.3664 0.438077,-1.095796 0,-0.846543 -0.103203,-1.036152 -0.636878,-1.170096 -0.350283,-0.08792 -0.826533,-0.232624 -1.058333,-0.321574 -0.349698,-0.134192 -0.421455,0.05583 -0.421455,1.116077 0,1.23369 -0.01427,1.257438 -0.413189,0.687893 -0.227254,-0.32445 -0.376082,-0.814357 -0.330729,-1.088681 0.08961,-0.54204 -0.733321,-1.614152 -1.238995,-1.614152 -0.172369,0 -0.449019,-0.297656 -0.614779,-0.661458 -0.165759,-0.363802 -0.422995,-0.661458 -0.571636,-0.661458 -0.14864,0 -0.270255,-0.238125 -0.270255,-0.529167 0,-0.667656 0.427266,-0.684781 0.777081,-0.03115 0.171845,0.321094 0.692128,0.561843 1.464517,0.67767 0.658892,0.09881 1.197985,0.281705 1.197985,0.406441 0,0.124736 0.446484,0.499937 0.992187,0.833782 0.545703,0.333844 1.14952,0.760273 1.341816,0.94762 0.329143,0.320675 0.716923,0.443775 1.171726,0.371964 0.10914,-0.01723 0.198437,0.444918 0.198437,1.027002 0,1.168222 0.445035,1.457688 0.577739,0.375782 l 0.08372,-0.682551 0.926041,0.73723 c 0.509323,0.405477 1.326805,1.188875 1.816626,1.740884 0.78187,0.881137 0.826197,1.003655 0.363126,1.003655 -0.290102,0 -0.675678,-0.178594 -0.856835,-0.396874 z M 71.546753,95.647105 c -0.316886,-0.736621 -0.741701,-1.476701 -0.944033,-1.644622 -0.202332,-0.167921 -0.367877,-0.485966 -0.367877,-0.706766 0,-0.220801 -0.208359,-0.556133 -0.463021,-0.745183 -0.440972,-0.327359 -0.440972,-0.366095 0,-0.813469 0.281645,-0.285733 0.463021,-0.343889 0.463021,-0.148462 0,0.176704 0.127007,0.321279 0.282237,0.321279 0.350843,0 2.072517,1.272582 2.684658,1.984376 0.586614,0.68211 0.589852,1.115695 0.0097,1.294603 -0.254661,0.07853 0.0473,0.09801 0.671016,0.0433 0.968753,-0.08498 1.195711,-0.0054 1.557194,0.546337 0.593077,0.90515 0.265778,1.072476 -0.412108,0.210683 -0.307632,-0.39109 -0.559331,-0.575954 -0.559331,-0.410808 0,0.165145 -0.238125,0.300265 -0.529166,0.300265 -0.291042,0 -0.529167,0.138906 -0.529167,0.30868 0,0.169774 -0.07963,0.229046 -0.176966,0.131715 -0.09733,-0.09733 -0.386892,0.01301 -0.643467,0.245211 -0.436221,0.394775 -0.503898,0.335245 -1.042657,-0.917134 z M 60.108399,94.291133 60.250352,93.232799 H 59.157181 58.06401 v -1.300868 c 0,-0.715477 0.0893,-1.340556 0.198438,-1.389062 0.10914,-0.04851 0.482335,-0.623976 0.829321,-1.27882 0.346987,-0.654844 0.769255,-1.309688 0.938374,-1.455208 0.169118,-0.145521 0.476356,-0.681302 0.682751,-1.190625 0.206394,-0.509323 0.70686,-1.419559 1.112147,-2.022747 0.803557,-1.195932 0.876175,-1.416837 0.465754,-1.416837 -0.149123,0 -0.393263,0.267891 -0.542534,0.595313 -0.149271,0.327422 -0.918398,1.607344 -1.709171,2.844271 -0.790774,1.236927 -1.647962,2.665677 -1.904862,3.175 -0.464576,0.921051 -0.467482,0.899103 -0.539217,-4.073015 -0.03967,-2.749481 -0.02583,-5.045351 0.03075,-5.101932 0.05658,-0.05658 1.489742,-0.06919 3.1848,-0.02803 l 3.081924,0.07485 -0.66528,0.978151 c -0.365904,0.537983 -0.665279,1.062451 -0.665279,1.165486 0,0.393504 1.024878,-0.762651 1.330839,-1.501306 l 0.320859,-0.774622 5.987172,0.0078 5.987171,0.0078 -0.826623,0.719849 c -0.454643,0.395916 -1.169018,0.980903 -1.5875,1.29997 -0.418482,0.319068 -1.123961,0.91438 -1.567731,1.322917 -0.443769,0.408537 -1.623163,1.45717 -2.620876,2.330295 -0.997713,0.873125 -2.445162,2.212578 -3.216554,2.976562 -0.771391,0.763985 -1.518739,1.389063 -1.660772,1.389063 -0.142034,0 -0.333821,0.238125 -0.426194,0.529166 -0.09237,0.291042 -0.308756,0.533686 -0.48085,0.539208 -0.172095,0.0055 -0.64301,0.487138 -1.046478,1.070257 -0.403468,0.583118 -0.83404,0.998126 -0.956827,0.922239 -0.255673,-0.158014 -0.928462,0.553321 -1.171491,1.238609 -0.308375,0.869551 -0.659927,0.465274 -0.517673,-0.595312 z m 19.38686,-6.482292 c 0,-0.218282 0.148829,-0.410185 0.33073,-0.426451 0.181901,-0.01627 0.747447,-0.07373 1.25677,-0.127697 l 0.926042,-0.09812 -0.661458,0.518688 c -0.79351,0.622237 -1.852084,0.698586 -1.852084,0.13358 z m 2.050521,-0.848407 c -0.602769,-0.09343 -0.727604,-0.245952 -0.727604,-0.888959 0,-0.734324 -0.05944,-0.776176 -1.102431,-0.776176 -1.254128,0 -1.157311,-0.347847 0.12512,-0.449534 0.464761,-0.03685 1.202207,-0.109144 1.638769,-0.160647 0.838189,-0.09889 1.984375,0.27809 1.984375,0.652651 0,0.122162 0.178594,0.222113 0.396875,0.222113 0.218281,0 0.396875,0.112036 0.396875,0.248969 0,0.382884 -0.47201,0.586732 -0.658791,0.284514 -0.301129,-0.487237 -0.698972,-0.280168 -0.614611,0.319891 0.08876,0.631357 -0.196218,0.739752 -1.438577,0.547178 z m 2.880882,-1.797427 c -0.08376,-0.218281 -0.453688,-0.396875 -0.822057,-0.396875 -0.605001,0 -0.669762,-0.102334 -0.669762,-1.058333 v -1.058334 h -1.058334 c -0.764352,0 -1.058333,0.110244 -1.058333,0.396876 0,0.286631 -0.293981,0.396875 -1.058333,0.396875 -0.764352,0 -1.058334,-0.110244 -1.058334,-0.396875 0,-0.286632 -0.293981,-0.396876 -1.058333,-0.396876 -0.582083,0 -1.058333,-0.119062 -1.058333,-0.264583 0,-0.145521 -0.126089,-0.264583 -0.280198,-0.264583 -0.154109,0 -0.215812,0.10418 -0.137117,0.23151 0.07869,0.127331 -0.177659,0.231511 -0.569674,0.231511 h -0.712755 l 0.7747,-0.617725 c 0.556452,-0.443699 0.829619,-0.528864 0.969641,-0.302303 0.136649,0.221103 0.423365,0.09658 0.958841,-0.416442 l 0.763899,-0.731862 8.310602,0.0335 c 7.875843,0.03175 8.255236,0.05547 7.252269,0.453324 -0.582084,0.230901 -1.117865,0.487722 -1.190625,0.570714 -0.224254,0.255787 -1.157209,0.800127 -1.852084,1.080613 -1.600673,0.64611 -3.703003,1.732908 -3.703559,1.914552 -3.34e-4,0.10914 -0.506623,0.207837 -1.125086,0.219325 -0.618464,0.01149 -0.97491,0.08119 -0.792102,0.15489 0.182808,0.0737 0.265078,0.242895 0.182823,0.375987 -0.233315,0.377511 -0.839189,0.284389 -1.007756,-0.15489 z m 4.836132,-2.409683 c 0.06063,-0.05712 -0.129508,-0.103859 -0.422537,-0.103859 -0.505521,0 -1.672081,0.803014 -1.672081,1.150994 0,0.139566 1.778982,-0.749777 2.094618,-1.047135 z"
         id="path36" /><path
         style="fill:#a1b9ca"
         d="m 94.841092,139.2703 c 0,-0.14552 0.178594,-0.26458 0.396875,-0.26458 0.246945,0 0.396875,-0.24989 0.396875,-0.66146 0,-0.44616 0.146403,-0.66146 0.449792,-0.66146 0.358218,0 0.382908,-0.0669 0.121274,-0.32852 -0.21518,-0.21518 -0.393177,-0.23589 -0.515937,-0.06 -0.735298,1.05333 -2.175716,1.27372 -8.521795,1.3039 -1.970429,0.009 -2.244546,-0.0458 -2.213327,-0.44563 0.03138,-0.40183 -0.237224,-0.45248 -2.248958,-0.42409 -2.361252,0.0333 -4.004382,-0.19703 -4.004382,-0.5614 0,-0.11502 -0.74414,-0.35401 -1.653645,-0.53109 -1.551414,-0.30206 -2.988017,-0.8005 -3.902604,-1.35405 -0.218282,-0.13211 -0.962422,-0.54093 -1.653646,-0.90848 -0.691224,-0.36755 -1.256771,-0.79335 -1.256771,-0.94623 0,-0.16148 -0.249468,-0.20778 -0.595312,-0.1105 -0.416961,0.11728 -0.487259,0.0926 -0.234645,-0.0824 0.304501,-0.21097 0.304501,-0.27593 0,-0.41714 -0.198368,-0.092 -0.06301,-0.0994 0.30079,-0.0164 5.268263,1.20173 11.226792,1.15057 17.594791,-0.15105 2.182813,-0.44617 4.008438,-0.92499 4.056945,-1.06405 0.04851,-0.13906 0.250807,-0.25283 0.449556,-0.25283 0.198748,0 0.694842,-0.43754 1.10243,-0.97231 0.480469,-0.63039 1.345841,-1.24984 2.460861,-1.76154 1.519386,-0.69726 2.136019,-0.81321 5.291671,-0.99508 1.96453,-0.11322 4.08768,-0.36957 4.71812,-0.56966 1.82065,-0.57787 4.39423,-2.63681 5.08847,-4.07094 0.56739,-1.17205 0.57928,-1.32486 0.2524,-3.24326 -0.18867,-1.10729 -0.35623,-2.28114 -0.37237,-2.60856 -0.0161,-0.32743 -0.13847,-0.59532 -0.27187,-0.59532 -0.13339,0 -0.17336,-0.0692 -0.0888,-0.15373 0.0845,-0.0845 0.40356,-0.02 0.70892,0.14341 0.54982,0.29425 0.55453,0.38748 0.48568,9.61258 -0.0543,7.28184 -0.14171,9.30101 -0.40024,9.24931 -0.1819,-0.0364 -0.33073,0.0424 -0.33073,0.17502 0,0.13265 -0.20836,0.20844 -0.46302,0.16843 -0.25466,-0.04 -0.77806,0.14841 -1.1631,0.41871 -0.38504,0.27029 -1.15895,0.58993 -1.71979,0.71031 -0.83582,0.1794 -1.00835,0.32284 -0.95669,0.79534 0.0347,0.31705 -0.0466,0.57646 -0.18061,0.57646 -0.4081,0 -0.55531,-0.88967 -0.29652,-1.79201 0.1945,-0.67819 0.16703,-0.85383 -0.13353,-0.85383 -0.20813,0 -0.37841,0.18233 -0.37841,0.40518 0,0.22285 -0.17406,0.47198 -0.3868,0.55361 -0.21274,0.0816 -0.45889,0.37556 -0.547,0.65316 -0.0881,0.27759 -0.32084,0.50472 -0.51719,0.50472 -0.19635,0 -0.41738,0.14883 -0.49119,0.33073 -0.10344,0.25492 -0.1932,0.24632 -0.39158,-0.0375 -0.21685,-0.31025 -0.44579,-0.29032 -1.45365,0.12653 -0.65794,0.27213 -1.12903,0.61644 -1.04686,0.76513 0.0822,0.14868 0.005,0.13794 -0.17041,-0.0239 -0.436055,-0.40117 -4.000428,-0.14459 -4.541151,0.32689 -0.493402,0.43021 -0.772917,0.46625 -0.772917,0.0996 z M 72.411374,132.617 c -2.30291,-0.33018 -4.318184,-1.13725 -5.236614,-2.09716 -0.707344,-0.73928 -0.774249,-0.96858 -0.752459,-2.57892 0.03847,-2.8431 0.477463,-3.53395 3.066285,-4.82552 2.863611,-1.42866 6.09287,-3.7749 8.626112,-6.26737 1.115843,-1.09788 2.401318,-2.1518 2.856611,-2.34203 0.455293,-0.19023 1.026558,-0.64922 1.269477,-1.01996 0.24292,-0.37074 0.596767,-0.67407 0.786327,-0.67407 0.18956,0 0.624289,-0.29766 0.966063,-0.66146 0.341774,-0.3638 0.775683,-0.66146 0.964241,-0.66146 0.188559,0 0.601404,-0.34974 0.917434,-0.77719 0.316031,-0.42745 0.918943,-0.91982 1.339806,-1.09415 1.103112,-0.45692 1.6791,-1.31888 2.471715,-3.69889 0.463891,-1.39293 0.835471,-2.10269 1.100831,-2.10269 0.585221,0 3.264537,0.79773 4.186181,1.24638 0.436562,0.21252 1.050944,0.69217 1.365291,1.0659 l 0.571542,0.6795 1.259757,-0.83443 c 1.560942,-1.03393 2.724076,-1.07614 4.766286,-0.17297 0.82262,0.3638 1.83245,0.66146 2.24407,0.66146 0.63943,0 0.78851,0.14445 1.02393,0.99218 0.15155,0.54571 0.27621,1.41273 0.27702,1.92672 0.002,1.56863 0.63531,3.47339 1.78485,5.37225 1.16987,1.93243 1.9208,4.54885 1.9208,6.69253 0,1.15452 -0.10238,1.35186 -1.30042,2.50661 -0.71523,0.68939 -1.60074,1.45022 -1.96781,1.69073 -1.16239,0.76163 -3.3723,1.21846 -6.91823,1.43014 -3.156461,0.18844 -3.580711,0.27704 -5.154056,1.07639 -0.942959,0.47908 -2.134834,1.34475 -2.648612,1.9237 -0.833841,0.93962 -1.175319,1.10658 -3.180322,1.55492 -5.604644,1.25326 -12.074739,1.63854 -16.606106,0.98886 z m -4.586183,-6.44357 c 0.563788,-0.83161 3.004191,-2.68479 4.562348,-3.46454 0.780548,-0.39061 1.776366,-1.13397 2.212929,-1.65192 0.886393,-1.05164 0.697705,-0.97798 -1.5875,0.61971 -0.873125,0.61044 -2.325345,1.43888 -3.227157,1.84098 -0.901811,0.40211 -1.808554,0.92602 -2.014984,1.16427 -0.692428,0.79913 -1.10176,3.1195 -0.79987,4.5342 0.180291,0.84487 0.210667,0.7753 0.346548,-0.79375 0.08192,-0.94588 0.310374,-1.95791 0.507686,-2.24895 z m 16.697152,-5.45227 c 0,-0.16826 -0.193588,-0.21861 -0.454957,-0.11831 -0.250225,0.096 -0.37921,0.0988 -0.286632,0.006 0.09258,-0.0926 -0.03011,-0.37773 -0.272648,-0.63367 -0.337812,-0.35649 -0.564764,-0.40309 -0.970138,-0.19922 -0.456114,0.22939 -0.483266,0.21046 -0.196682,-0.13714 0.284678,-0.34529 0.113485,-0.49976 -1.190625,-1.07429 -2.057318,-0.90637 -2.620832,-1.05547 -3.242902,-0.85803 -0.853042,0.27074 -0.626196,0.49827 1.021779,1.02483 0.853019,0.27256 2.252004,0.88376 3.108854,1.35823 1.636624,0.90625 2.483951,1.12161 2.483951,0.63134 z m 1.852083,-1.04074 c 0,-0.33666 -1.042961,-1.84532 -1.5875,-2.29634 -0.325779,-0.26984 -0.333654,-0.37043 -0.04396,-0.56152 0.283541,-0.18703 0.267837,-0.26543 -0.07989,-0.39887 -0.252953,-0.0971 -0.365629,-0.0574 -0.271153,0.0955 0.08891,0.14386 0.04147,0.26156 -0.105403,0.26156 -0.146878,0 -0.362264,-0.15311 -0.478635,-0.34025 -0.408862,-0.65749 -1.744738,-1.51184 -2.363933,-1.51184 -0.85593,0 -0.773279,0.27038 0.340999,1.11551 1.395618,1.05851 3.795724,3.37405 3.795724,3.66197 0,0.13728 0.178594,0.24961 0.396875,0.24961 0.218281,0 0.396875,-0.12389 0.396875,-0.2753 z m 1.659337,-1.4445 c 0.05632,-0.33954 -2.404357,-1.51655 -2.738627,-1.30996 -0.138742,0.0857 -0.182558,0.26868 -0.09737,0.40652 0.08519,0.13784 0.241645,0.197 0.347678,0.13147 0.106033,-0.0655 0.365697,0.003 0.57703,0.15293 0.313265,0.22183 0.298713,0.24457 -0.07878,0.12314 -0.254662,-0.0819 -0.463021,-0.0336 -0.463021,0.10733 0,0.22182 0.781255,0.38359 1.389062,0.28762 0.109141,-0.0172 0.198438,0.0965 0.198438,0.25265 0,0.35297 0.805287,0.21184 0.865587,-0.1517 z m 1.696205,-1.07042 c 0.05066,-0.15217 -0.713384,-1.28076 -1.697867,-2.50798 -1.842649,-2.29697 -2.949144,-3.0428 -3.577266,-2.41124 -0.263164,0.2646 0.0068,0.65146 1.343288,1.92465 0.965823,0.9201 1.82664,1.53439 2.037046,1.45365 0.232631,-0.0893 0.313137,-0.006 0.222646,0.22955 -0.07796,0.20316 0.07693,0.67168 0.344204,1.04116 0.481877,0.66615 1.150833,0.80227 1.327949,0.27021 z m -9.218752,-0.91911 c 0.06303,-0.18911 0.237375,-0.17408 0.531127,0.0458 0.400607,0.29983 0.402293,0.28874 0.02009,-0.13212 -0.329321,-0.36264 -0.560764,-0.40482 -1.098778,-0.20027 -1.005473,0.38228 -1.208472,0.86954 -0.29311,0.70355 0.410757,-0.0745 0.789057,-0.2621 0.840667,-0.41693 z m 10.962857,-0.39172 c 0.04219,-0.25022 -1.083456,-0.91415 -2.850689,-1.68138 l -0.79375,-0.3446 0.568316,0.53513 c 0.312573,0.29432 0.61023,0.64238 0.661458,0.77346 0.128348,0.32843 1.60324,1.07347 2.025347,1.02311 0.189588,-0.0226 0.364781,-0.16019 0.389318,-0.30572 z m 1.779519,-1.46627 c 0,-0.46936 -1.001526,-1.37819 -1.309207,-1.18803 -0.160272,0.099 -0.258688,0.036 -0.218702,-0.14017 0.03999,-0.17615 -0.744533,-1.01448 -1.743375,-1.86296 -1.803174,-1.53173 -1.821615,-1.53983 -2.595891,-1.13943 l -0.779816,0.40325 2.331308,1.46158 c 1.28222,0.80387 2.519564,1.63074 2.749655,1.83749 0.23009,0.20675 0.507903,0.28635 0.617361,0.17689 0.109458,-0.10946 0.174993,-0.08 0.145634,0.0656 -0.09871,0.48925 0.007,0.66146 0.406158,0.66146 0.218282,0 0.396875,-0.12404 0.396875,-0.27565 z m -8.861008,-0.94584 c -0.64162,-0.46916 -0.752019,-0.46151 -1.445821,0.1003 -0.566465,0.4587 -0.555276,0.46467 0.68525,0.36601 1.148231,-0.0913 1.216313,-0.13306 0.760571,-0.46631 z m 10.713092,-0.86121 c 0,-0.22142 -2.220395,-1.24002 -3.286076,-1.50749 -0.390297,-0.098 -0.682674,-0.0589 -0.682674,0.0912 0,0.35619 2.809825,1.47573 3.160238,1.25916 0.15364,-0.0949 0.279345,0.02 0.279345,0.25546 0,0.23546 0.119062,0.35452 0.264583,0.26459 0.145521,-0.0899 0.264584,-0.25325 0.264584,-0.36291 z M 62.60974,128.66727 c -0.439831,-0.70688 -0.166573,-1.03761 0.314133,-0.3802 0.345341,0.47228 0.366144,0.47168 0.665855,-0.0193 0.285452,-0.46763 0.30371,-0.45588 0.2361,0.15193 -0.09341,0.83978 -0.762816,0.97606 -1.216088,0.24759 z m 1.539687,-1.12036 c 0,-0.24609 -0.12609,-0.44744 -0.280199,-0.44744 -0.154109,0 -0.20304,-0.12485 -0.108736,-0.27743 0.119257,-0.19297 0.274797,-0.19167 0.51086,0.004 0.260396,0.21611 0.377751,0.0899 0.504165,-0.54216 0.09062,-0.45311 0.09298,-1.10987 0.0052,-1.45946 -0.09657,-0.38474 -0.04378,-0.63561 0.133738,-0.63561 0.161296,0 0.293266,0.28773 0.293266,0.63941 0,0.35168 0.134861,0.68436 0.299692,0.73931 0.187661,0.0626 0.226301,0.33113 0.103367,0.71846 -0.152141,0.47935 -0.248452,0.53627 -0.427933,0.25288 -0.192252,-0.30355 -0.233725,-0.29825 -0.244073,0.0312 -0.0069,0.21828 -0.187273,0.62799 -0.400926,0.91047 -0.338735,0.44784 -0.38846,0.45631 -0.38846,0.0661 z m -3.96875,-3.75941 c 0,-0.28156 1.925448,-1.99453 2.074449,-1.84553 0.08538,0.0854 -0.293534,0.56638 -0.842037,1.06887 -0.973748,0.89207 -1.232412,1.05508 -1.232412,0.77666 z m 3.96875,-0.96546 c 0,-0.3153 -0.07519,-0.49808 -0.16708,-0.40619 -0.295275,0.29528 -1.155837,-0.34525 -1.155837,-0.8603 0,-1.69182 -0.997745,-1.74725 -2.779884,-0.15446 -0.726637,0.64943 -1.357964,1.07479 -1.40295,0.94524 -0.04499,-0.12954 0.323507,-0.80973 0.818875,-1.51151 0.86705,-1.22835 0.948547,-1.27572 2.183426,-1.26908 1.242574,0.007 1.289824,0.0357 1.508266,0.92604 0.124029,0.50553 0.517747,1.18132 0.874929,1.50177 0.653217,0.58602 0.877167,1.40175 0.384838,1.40175 -0.145521,0 -0.264583,-0.25797 -0.264583,-0.57326 z m 9.494631,-7.74038 c -0.47025,-0.48983 -0.79967,-0.61633 -1.292548,-0.49633 -0.495684,0.12068 -0.32991,-0.0929 0.661458,-0.85232 0.727604,-0.55735 1.799167,-1.46755 2.38125,-2.02268 0.582083,-0.55513 1.156134,-1.01061 1.275669,-1.01218 0.343397,-0.004 0.973289,-0.72348 0.973289,-1.11093 0,-0.19367 0.238125,-0.50084 0.529167,-0.6826 0.48461,-0.30265 0.529166,-0.26424 0.529166,0.45613 0,0.43263 -0.281487,1.29685 -0.625526,1.92047 -0.34404,0.62363 -0.708905,1.59252 -0.810811,2.1531 -0.207888,1.14355 -0.397223,1.11691 -0.644854,-0.0908 l -0.167767,-0.81818 -0.926041,0.69036 c -0.509323,0.3797 -1.088403,0.78392 -1.286845,0.89825 -0.288595,0.16629 -0.297543,0.32609 -0.04471,0.79852 0.454731,0.84967 0.182626,0.93322 -0.550898,0.16916 z m -3.112383,-4.09625 c -0.46222,-0.29276 -0.153658,-0.81928 0.480136,-0.81928 0.264635,0 0.619174,-0.1663 0.787863,-0.36956 0.16869,-0.20326 0.540456,-0.30843 0.826147,-0.23372 0.287172,0.0751 0.519439,0.004 0.519439,-0.15961 0,-0.43107 0.310655,-0.35461 1.058333,0.2605 l 0.661458,0.54417 -0.727604,-0.15822 c -0.560307,-0.12184 -0.727604,-0.0593 -0.727604,0.272 0,0.26969 -0.145034,0.37457 -0.388691,0.28107 -0.21378,-0.082 -0.719795,0.0236 -1.124479,0.23465 -0.85884,0.44798 -0.886631,0.451 -1.364998,0.148 z m -1.346851,-1.2823 c 0.0046,-0.10914 0.289417,-0.40269 0.632986,-0.65233 0.595,-0.43234 0.630847,-0.43028 0.754698,0.0433 0.09067,0.34671 -0.04087,0.54308 -0.434549,0.64872 -0.760183,0.20399 -0.962992,0.19554 -0.953135,-0.0397 z m 1.049658,-3.30729 c 3.76e-4,-0.48173 0.652537,-0.64156 0.911051,-0.22328 0.276715,0.44774 1.999727,-0.23834 1.999727,-0.79626 0,-0.12493 -0.306374,-0.30404 -0.68083,-0.39803 -1.001038,-0.25124 -0.356842,-0.72857 0.676863,-0.50153 0.752367,0.16525 0.82336,0.25956 0.666338,0.88518 -0.277156,1.10428 -0.590302,1.31108 -2.130625,1.40704 -1.232137,0.0768 -1.442832,0.0223 -1.442524,-0.37312 z M 57.701607,88.404153 c -0.08775,-0.327422 -0.161164,-2.232422 -0.163151,-4.233333 l -0.0036,-3.638021 h 3.049503 3.049503 l -0.409382,0.727604 c -0.225161,0.400182 -1.03189,1.650453 -1.792732,2.77838 -0.760843,1.127926 -1.794441,2.705504 -2.296886,3.505729 -0.502444,0.800224 -0.994573,1.454954 -1.09362,1.454954 -0.09905,0 -0.251877,-0.267891 -0.339622,-0.595313 z m 13.12664,-4.342568 c 0.04141,-0.500307 0.310542,-0.782308 1.054017,-1.104406 1.652792,-0.716042 1.198525,-1.366047 -0.954686,-1.366047 -1.037218,0 -1.751068,-0.345157 -1.751068,-0.846667 0,-0.116416 0.686115,-0.211666 1.524701,-0.211666 1.314413,0 1.592696,0.09054 2.017697,0.656479 0.271147,0.361064 0.6151,0.581015 0.764339,0.48878 0.163474,-0.101033 0.07902,-0.30833 -0.212445,-0.521454 -0.661968,-0.484043 -0.241512,-0.823519 0.469787,-0.379305 0.408335,0.255009 0.599845,0.271018 0.671474,0.05613 0.130747,-0.39224 0.765479,-0.386636 1.009943,0.0089 0.131042,0.21203 0.04333,0.252761 -0.278427,0.129291 -0.348083,-0.133572 -0.430265,-0.07739 -0.317325,0.216924 0.102805,0.267907 -0.05984,0.450449 -0.499708,0.56085 -0.358666,0.09002 -0.65212,0.329358 -0.65212,0.531863 0,0.202506 -0.09485,0.368192 -0.210769,0.368192 -0.249358,0 -1.205086,0.694204 -2.071989,1.505012 l -0.619026,0.57897 z"
         id="path35" /><path
         style="fill:#95a4b0"
         d="m 88.094217,136.31532 c -0.436562,-0.16465 -0.879414,-0.43034 -0.984114,-0.59042 -0.136341,-0.20846 -0.341807,-0.1972 -0.724014,0.0397 -0.641376,0.39749 -1.33458,0.43185 -1.33458,0.0662 0,-0.15306 -0.843052,-0.26459 -1.99999,-0.26459 -1.523188,0 -1.955475,-0.0788 -1.813267,-0.33073 0.1358,-0.24053 0.102294,-0.25327 -0.122862,-0.0467 -0.170271,0.1562 -0.693754,0.22441 -1.163295,0.15158 -0.829986,-0.12874 -0.835329,-0.13782 -0.192252,-0.32678 0.405703,-0.11921 -0.07645,-0.17782 -1.246982,-0.15158 -2.135212,0.0479 -2.734353,-0.39654 -0.869685,-0.64508 l 1.190625,-0.1587 -1.190625,-0.0805 c -0.654844,-0.0443 0.47625,-0.16743 2.513542,-0.27368 2.617923,-0.13653 4.829204,-0.44322 7.540624,-1.04582 l 3.836459,-0.85264 1.190625,-1.26401 c 1.231231,-1.30711 3.151707,-2.33523 4.762499,-2.54959 0.509323,-0.0678 2.295261,-0.2259 3.968755,-0.35138 2.87164,-0.21532 4.93392,-0.7085 5.73184,-1.37071 0.19446,-0.16139 0.35357,-0.22629 0.35357,-0.14421 0,0.33864 2.46816,-2.12833 2.86298,-2.8616 0.23534,-0.43709 0.50273,-1.50909 0.5942,-2.38221 0.094,-0.89717 0.18384,1.03 0.20664,4.43177 0.0348,5.192 -0.0142,6.01927 -0.35653,6.01927 -0.21828,0 -0.39762,0.0893 -0.39854,0.19844 -0.002,0.28954 -1.55123,1.12448 -2.08587,1.12448 -0.25144,0 -0.68827,0.1748 -0.97075,0.38846 -0.28247,0.21365 -0.82643,0.39224 -1.20879,0.39687 -0.38237,0.005 -0.83663,0.17881 -1.00947,0.38707 -0.17284,0.20826 -0.92711,0.51009 -1.67616,0.67073 -0.74904,0.16065 -1.42588,0.38984 -1.50407,0.50932 -0.22631,0.34578 -3.449471,0.6322 -3.449471,0.30652 0,-0.15275 0.119062,-0.27772 0.264583,-0.27772 0.145521,0 0.264583,-0.12007 0.264583,-0.26683 0,-0.28646 -1.058953,0.21587 -1.371235,0.65047 -0.09934,0.13825 -0.605352,0.25136 -1.12448,0.25136 -0.598067,0 -0.943868,0.12601 -0.943868,0.34396 0,0.24876 -0.501848,0.34395 -1.813271,0.34395 -0.997299,0 -2.515346,0.0573 -3.373437,0.1274 -0.858092,0.0701 -1.917354,-0.007 -2.353917,-0.17196 z m -15.352036,-3.65641 c -4.892678,-0.7192 -6.71941,-2.23545 -6.343861,-5.26561 0.325843,-2.6291 0.596262,-2.9889 3.265756,-4.34524 2.975669,-1.5119 5.76115,-3.55385 8.430105,-6.17984 1.127127,-1.10899 2.421835,-2.17199 2.877128,-2.36222 0.455293,-0.19023 1.026558,-0.64922 1.269477,-1.01996 0.24292,-0.37074 0.596767,-0.67407 0.786327,-0.67407 0.18956,0 0.624289,-0.29766 0.966063,-0.66146 0.341774,-0.3638 0.770606,-0.66146 0.952959,-0.66146 0.182353,0 0.550896,-0.27885 0.818985,-0.61967 0.268088,-0.34082 0.987712,-0.93549 1.599164,-1.32148 1.24421,-0.78543 1.702804,-1.53144 2.471654,-4.02068 0.592401,-1.91797 0.608164,-1.92506 2.847766,-1.28067 1.994011,0.57374 3.399994,1.30639 3.745351,1.9517 0.375824,0.70223 0.601419,0.67061 1.893609,-0.26545 1.359653,-0.98493 2.433826,-1.01472 4.588216,-0.12724 0.87313,0.35968 1.9069,0.65451 2.29728,0.65518 0.84793,0.001 0.93837,0.22823 1.27772,3.2036 0.16245,1.42435 0.47678,2.62998 0.88751,3.40414 2.11284,3.98231 2.30133,4.45485 2.59976,6.51763 0.25149,1.73825 0.24288,2.30641 -0.0455,3.0026 -0.48588,1.17302 -3.17771,3.3637 -4.57157,3.72046 -0.61726,0.15799 -1.30088,0.35361 -1.51916,0.43472 -0.21829,0.0811 -1.94469,0.23923 -3.83646,0.3514 -4.137912,0.24536 -5.965857,0.91564 -7.672919,2.81355 -1.019178,1.13312 -1.167939,1.20101 -4.020811,1.83496 -1.629362,0.36207 -3.832018,0.77122 -4.894791,0.90923 -2.22905,0.28947 -8.71625,0.29304 -10.669768,0.006 z m -4.91298,-6.48548 c 0.437687,-0.69109 3.284304,-2.82845 4.736429,-3.55631 1.046821,-0.52471 2.784879,-2.13185 2.554573,-2.36215 -0.05389,-0.0539 -0.719051,0.36274 -1.478126,0.92586 -0.759074,0.56311 -2.401779,1.55963 -3.650455,2.21447 -1.586525,0.83202 -2.376453,1.4143 -2.622697,1.93327 -0.462066,0.97383 -0.687934,3.16039 -0.421708,4.08245 0.176649,0.61181 0.238509,0.45043 0.378977,-0.98864 0.09233,-0.94588 0.318681,-1.95791 0.503007,-2.24895 z m 16.814981,-5.40705 c 0.08419,-0.13622 -0.130623,-0.40411 -0.477359,-0.59531 -4.270694,-2.35502 -5.596451,-2.82824 -6.527491,-2.32996 -0.574474,0.30745 -0.501591,0.36201 1.217754,0.91163 1.005839,0.32153 2.338897,0.84731 2.962352,1.16838 0.623454,0.32108 1.251482,0.51089 1.395618,0.42181 0.144135,-0.0891 0.245015,-0.0638 0.224176,0.0561 -0.02084,0.11996 -0.02379,0.3074 -0.0066,0.41654 0.04502,0.28514 1.029584,0.24512 1.211505,-0.0492 z m 1.730244,-1.0635 c 0,-0.6628 -1.856932,-2.84883 -3.553683,-4.1835 -0.727138,-0.57197 -2.002567,-0.81202 -2.002567,-0.37692 0,0.11761 0.468014,0.56409 1.04003,0.99219 0.572017,0.4281 1.673345,1.44708 2.447396,2.2644 1.330973,1.40537 2.068824,1.87039 2.068824,1.30383 z m 1.647601,-1.46696 c 0.03253,-0.2677 -2.282748,-1.49449 -3.499684,-1.85438 -0.631959,-0.18688 -0.626287,-0.16759 0.127164,0.43251 0.433743,0.34547 0.875942,0.59979 0.982666,0.56515 0.106723,-0.0346 0.135827,0.0887 0.06467,0.27416 -0.07816,0.20368 0.213627,0.4506 0.737126,0.62377 1.021779,0.33802 1.543619,0.32448 1.588054,-0.0412 z m 1.663947,-0.93292 c 0.09228,-0.14931 -0.266064,-0.87535 -0.796315,-1.61342 -0.939146,-1.30722 -1.126459,-1.98021 -0.329271,-1.18302 0.218281,0.21828 0.476873,0.31688 0.574649,0.2191 0.09777,-0.0978 0.09128,0.0476 -0.01444,0.32312 -0.153697,0.40053 -0.100732,0.46578 0.264341,0.32569 0.251103,-0.0964 0.392349,-0.0713 0.31388,0.0556 -0.187199,0.3029 1.322055,0.92438 1.691033,0.69634 0.156678,-0.0968 0.212209,-0.29362 0.123402,-0.43732 -0.199537,-0.32285 -3.018644,-1.63592 -3.520384,-1.6397 -0.20126,-0.002 -0.835009,-0.51164 -1.40833,-1.13363 -0.844961,-0.91667 -1.148932,-1.09146 -1.604822,-0.92282 -0.30933,0.11443 -0.599852,0.32036 -0.645604,0.45761 -0.04575,0.13726 0.930381,1.23705 2.169186,2.44398 1.238805,1.20693 2.252373,2.30365 2.252373,2.43715 0,0.33056 0.722024,0.30826 0.930298,-0.0287 z m -9.283572,-0.93806 c 0.228676,-0.22867 0.415774,-0.30094 0.415774,-0.1606 0,0.14035 0.208359,0.33354 0.463021,0.42931 0.37044,0.13931 0.3495,0.0594 -0.104731,-0.3998 -0.466698,-0.47178 -0.69922,-0.53012 -1.30638,-0.32773 -0.406246,0.13542 -0.785758,0.3876 -0.84336,0.5604 -0.153543,0.46063 0.890562,0.38354 1.375676,-0.10158 z m 12.85119,-2.05255 c 0,-0.19342 -0.719284,-0.98226 -1.598409,-1.75298 -0.879125,-0.77073 -1.547362,-1.45237 -1.484971,-1.51476 0.06239,-0.0624 1.104922,0.36749 2.316736,0.95528 1.507072,0.73101 2.289136,0.98288 2.474946,0.79707 0.185811,-0.18581 0.146939,-0.35139 -0.123014,-0.524 -0.823299,-0.52642 -3.343124,-1.36521 -4.251563,-1.41526 -0.520567,-0.0287 -1.27674,-0.31191 -1.680386,-0.62942 -0.689424,-0.5423 -0.781945,-0.55244 -1.526644,-0.16734 l -0.792742,0.40994 1.547086,0.95483 c 0.850898,0.52515 2.20193,1.46299 3.002295,2.08408 1.511869,1.17323 2.116666,1.40254 2.116666,0.80256 z m -8.861008,-0.86983 c -0.66275,-0.48462 -1.024661,-0.46157 -1.530569,0.0974 -0.394721,0.43616 -0.347259,0.45772 0.805846,0.36601 1.117254,-0.0889 1.181144,-0.12972 0.724723,-0.46346 z M 70.367135,110.6953 c -0.08994,-0.14552 0.05514,-0.26458 0.322388,-0.26458 0.267251,0 0.772835,-0.20097 1.12352,-0.4466 0.473263,-0.33149 0.665818,-0.36197 0.747053,-0.11827 0.07567,0.22702 0.216987,0.18126 0.457962,-0.1483 0.38359,-0.52459 0.752266,-0.37377 0.526229,0.21527 -0.138126,0.35996 -1.845227,1.02706 -2.628204,1.02706 -0.211985,0 -0.459011,-0.11906 -0.548948,-0.26458 z"
         id="path34" /><path
         style="fill:#b52721"
         d="m 73.806718,132.76514 c -1.796019,-0.2596 -4.55966,-0.99689 -5.47262,-1.46 -1.446842,-0.73392 -1.803486,-1.40737 -1.80301,-3.40465 6.29e-4,-2.64222 0.469684,-3.34076 3.20283,-4.76977 2.561591,-1.33932 6.709596,-4.26863 7.113678,-5.02367 0.146219,-0.27321 0.505409,-0.57278 0.798201,-0.66571 0.292792,-0.0929 0.712695,-0.51771 0.933117,-0.94396 0.220422,-0.42625 0.557851,-0.775 0.749841,-0.775 0.19199,0 0.564574,-0.23812 0.827963,-0.52916 0.263389,-0.29105 0.636142,-0.52917 0.82834,-0.52917 0.192199,0 0.728657,-0.41672 1.192131,-0.92604 0.463473,-0.50932 0.997953,-0.92604 1.187732,-0.92604 0.18978,0 0.468179,-0.23007 0.618665,-0.51125 0.150486,-0.28119 0.536889,-0.59481 0.858673,-0.69694 0.321785,-0.10213 0.946989,-0.528 1.389344,-0.94637 2.056819,-1.94531 3.053239,-2.79287 3.053239,-2.59712 0,0.4562 -1.355077,1.79197 -1.975957,1.9478 -0.63878,0.16032 -1.477298,1.21638 -0.965817,1.21638 0.138514,0 0.293976,-0.1264 0.345471,-0.28088 0.05149,-0.15449 1.201093,0.47059 2.554662,1.38906 3.761818,2.55259 3.675461,2.50758 4.064462,2.11858 0.273424,-0.27342 0.06209,-0.58859 -1.115126,-1.66299 -0.798868,-0.7291 -1.15483,-1.15458 -0.791028,-0.94551 0.91271,0.5245 3.441256,1.32034 3.621702,1.1399 0.08131,-0.0813 0.08295,-0.31692 0.0037,-0.52358 -0.162328,-0.42302 -4.378015,-2.02833 -5.326579,-2.02833 -0.711878,0 -1.461196,-0.7341 -1.03335,-1.01236 0.450177,-0.29278 0.890797,-1.30397 0.739734,-1.69764 -0.07747,-0.20189 0.135774,-1.13325 0.473883,-2.06968 0.707279,-1.95891 0.700649,-1.9571 3.706171,-1.00852 1.276974,0.40304 2.010342,0.81728 2.564731,1.44869 l 0.776394,0.88427 1.36446,-0.91822 c 1.614076,-1.08619 2.240345,-1.12239 4.353995,-0.2517 0.87313,0.35968 1.82563,0.65633 2.11667,0.65923 1.02263,0.0102 1.2357,0.42747 1.6355,3.20297 0.26583,1.84544 0.6052,3.11648 1.03377,3.87181 0.35091,0.61846 0.94509,1.65889 1.32039,2.31205 0.75808,1.31934 1.50958,4.98443 1.26883,6.18817 -0.16975,0.84876 -1.58725,2.43181 -3.00953,3.36101 -1.35266,0.88372 -3.85156,1.43388 -6.52049,1.43556 -1.288682,8.1e-4 -2.817278,0.13313 -3.396881,0.29404 -1.807871,0.5019 -4.263158,1.78893 -4.604879,2.41382 -0.614432,1.12358 -1.6221,1.56558 -5.329289,2.33764 -2.946968,0.61373 -4.569733,0.79006 -8.121389,0.88249 -2.441195,0.0635 -4.795724,0.0639 -5.232286,7.9e-4 z m -5.688855,-6.85729 c 0.604118,-0.72583 2.851676,-2.31968 4.693528,-3.32841 0.907779,-0.49716 1.651919,-1.04348 1.653646,-1.21404 0.0017,-0.17057 0.509155,-0.7507 1.127618,-1.28919 1.451067,-1.26343 0.371524,-0.70693 -2.039185,1.05119 -1.02488,0.74744 -2.797234,1.8136 -3.938564,2.36923 -1.686064,0.82083 -2.144941,1.17729 -2.447396,1.90117 -0.461318,1.10409 -0.485228,3.6557 -0.04152,4.43104 0.291805,0.5099 0.346299,0.34121 0.463021,-1.43331 0.08056,-1.22477 0.287362,-2.19754 0.528852,-2.48768 z m 34.893877,-2.62564 c 1.07412,-0.71314 2.53249,-1.83047 3.24082,-2.48296 1.43848,-1.32507 2.7337,-3.65666 2.44673,-4.4045 -0.13942,-0.36333 -0.30725,-0.14225 -0.70843,0.93321 -0.62786,1.68311 -2.71923,3.86944 -5.87373,6.14041 -1.16416,0.8381 -2.348733,1.84913 -2.632374,2.24673 -0.445044,0.62385 -0.372533,0.59553 0.529164,-0.20669 0.57469,-0.51128 1.9237,-1.51307 2.99782,-2.2262 z m -18.489397,-2.27416 c 0.336489,-0.22254 0.296233,-0.34355 -0.264584,-0.79531 -1.040218,-0.83793 -4.437243,-2.41591 -5.510928,-2.55992 -0.741712,-0.0995 -1.085533,-0.008 -1.440301,0.38426 -0.450957,0.4983 -0.442227,0.51561 0.270264,0.53587 0.969643,0.0276 3.310146,0.9229 4.961174,1.89784 1.52204,0.89877 1.462249,0.88258 1.984375,0.53726 z m 1.852083,-1.5491 c 0,-0.27323 -0.181471,-0.64738 -0.403269,-0.83146 -0.62206,-0.51626 -0.280575,-0.59559 0.735798,-0.17092 0.968914,0.40484 1.69421,0.20908 1.453782,-0.39238 -0.07858,-0.19659 -1.256793,-0.81729 -2.618241,-1.37934 -1.361449,-0.56205 -2.742075,-1.26631 -3.068057,-1.56502 -0.511146,-0.46838 -0.688771,-0.49933 -1.290962,-0.22495 -0.384047,0.17498 -0.620395,0.39602 -0.525218,0.4912 0.09518,0.0952 -0.207916,0.29908 -0.67354,0.45311 -1.467707,0.48554 -1.247088,0.94153 0.455541,0.94153 h 1.518264 l -0.504028,-0.58653 c -0.277216,-0.32259 0.117417,-0.0764 0.876962,0.54704 0.759544,0.62347 1.751815,1.60178 2.205045,2.17403 0.878497,1.10919 1.837923,1.39301 1.837923,0.54369 z m 3.302673,-2.14159 c 0.0874,-0.14141 -0.04077,-0.56185 -0.284809,-0.9343 -0.586533,-0.89517 -0.437463,-0.97556 0.742955,-0.4007 0.849192,0.41356 1.025594,0.42689 1.298474,0.0981 0.418899,-0.50475 0.20906,-0.66879 -2.148877,-1.67996 -1.091406,-0.46803 -2.406113,-1.25504 -2.921572,-1.74891 -1.070098,-1.02528 -1.40539,-1.09762 -1.89207,-0.40818 -0.190153,0.26937 -0.732686,0.68915 -1.205628,0.93284 -0.472943,0.24368 -0.859896,0.5293 -0.859896,0.63471 0,0.1054 0.586828,0.19164 1.304063,0.19164 1.273238,0 1.293563,-0.0124 0.859895,-0.52461 -0.975521,-1.15219 0.597284,0.25572 2.433367,2.17826 1.769274,1.85258 2.337586,2.2056 2.674098,1.66112 z m 8.688197,-10.54627 c 0.608302,-0.41206 1.344129,-0.84264 1.635174,-0.95684 0.35927,-0.14098 0.41802,-0.24896 0.18298,-0.33633 -0.315035,-0.11711 -3.225691,1.60887 -3.225691,1.91279 0,0.25767 0.321164,0.11629 1.407537,-0.61962 z m -6.348614,-2.05839 c 0.600425,0.1151 0.726831,0.0868 0.44316,-0.0991 -0.218281,-0.14308 -0.713104,-0.26198 -1.099607,-0.26421 -0.601579,-0.003 -0.763441,0.17412 -1.12448,1.23371 -0.579277,1.70008 -0.51265,1.76245 0.271892,0.25449 0.630354,-1.21159 0.717526,-1.27657 1.509035,-1.12485 z"
         id="path33" /><path
         style="fill:#620e0e"
         d="m 73.806718,132.76514 c -1.796019,-0.2596 -4.55966,-0.99689 -5.47262,-1.46 -1.446842,-0.73392 -1.803486,-1.40737 -1.80301,-3.40465 6.29e-4,-2.64222 0.469684,-3.34076 3.20283,-4.76977 2.561591,-1.33932 6.709596,-4.26863 7.113678,-5.02367 0.146219,-0.27321 0.505409,-0.57278 0.798201,-0.66571 0.292792,-0.0929 0.712695,-0.51771 0.933117,-0.94396 0.220422,-0.42625 0.557851,-0.775 0.749841,-0.775 0.19199,0 0.564574,-0.23812 0.827963,-0.52916 0.263389,-0.29105 0.636142,-0.52917 0.82834,-0.52917 0.192199,0 0.728657,-0.41672 1.192131,-0.92604 0.463473,-0.50932 0.997953,-0.92604 1.187732,-0.92604 0.18978,0 0.468179,-0.23007 0.618665,-0.51125 0.27012,-0.50473 0.702209,-0.72067 1.905809,-0.95246 0.338566,-0.0652 0.652595,-0.22961 0.697841,-0.36535 0.103321,-0.30996 2.309783,1.01255 4.50393,2.69957 1.603006,1.23251 2.42701,1.44319 2.42701,0.62053 0,-0.2077 -0.565547,-0.87205 -1.256771,-1.47632 -0.691224,-0.60427 -1.018646,-0.97384 -0.727604,-0.82125 1.763904,0.92479 3.12359,1.33336 3.472795,1.04355 0.565863,-0.46963 0.439333,-0.72747 -0.562379,-1.14601 -0.918344,-0.38371 -1.159996,-0.76728 -0.673013,-1.06825 0.139165,-0.086 0.184449,-0.33509 0.100632,-0.55351 -0.08399,-0.21888 0.25586,-1.01671 0.757145,-1.77747 1.200498,-1.82189 1.32082,-2.19977 0.830108,-2.60702 -0.346115,-0.28725 -0.525381,-0.19883 -1.167781,0.57597 -0.857025,1.03366 -1.068964,0.7013 -0.231615,-0.36322 l 0.541518,-0.68842 -1.004538,-0.43039 c -0.552497,-0.23672 -1.436878,-0.49254 -1.965292,-0.5685 -0.955697,-0.13739 -0.963149,-0.1309 -1.416019,1.23257 -0.250397,0.75387 -0.514798,1.31114 -0.587558,1.23838 -0.172839,-0.17284 0.688975,-2.76486 0.978846,-2.94401 0.122657,-0.0758 1.214447,0.17536 2.4262,0.55816 1.631252,0.51531 2.421159,0.9271 3.042855,1.58629 l 0.83967,0.89031 1.370696,-0.92241 c 1.620466,-1.09049 2.245209,-1.12716 4.360229,-0.2559 0.87313,0.35968 1.82563,0.65633 2.11667,0.65923 1.02263,0.0102 1.2357,0.42747 1.6355,3.20297 0.26583,1.84544 0.6052,3.11648 1.03377,3.87181 0.35091,0.61846 0.94509,1.65889 1.32039,2.31205 0.75808,1.31934 1.50958,4.98443 1.26883,6.18817 -0.16975,0.84876 -1.58725,2.43181 -3.00953,3.36101 -1.35266,0.88372 -3.85156,1.43388 -6.52049,1.43556 -1.28868,8.1e-4 -2.817276,0.13313 -3.396879,0.29404 -1.807871,0.5019 -4.263158,1.78893 -4.604879,2.41382 -0.614432,1.12358 -1.6221,1.56558 -5.329289,2.33764 -2.946968,0.61373 -4.569733,0.79006 -8.121389,0.88249 -2.441195,0.0635 -4.795724,0.0639 -5.232286,7.9e-4 z m -6.085902,-5.83236 c 0.126326,-0.56092 0.131603,-0.56126 1.122038,-0.0722 0.547313,0.27024 1.888083,0.80189 2.979489,1.18144 1.091406,0.37956 2.185232,0.87021 2.430723,1.09034 0.245492,0.22013 0.59131,0.31064 0.768485,0.20114 0.21843,-0.13499 0.253682,-0.0883 0.109501,0.14496 -0.162269,0.26256 -0.04937,0.30308 0.476617,0.17106 1.210812,-0.30389 2.035507,-0.67781 2.035507,-0.92289 0,-0.13093 0.378549,-0.31377 0.841219,-0.4063 0.462671,-0.0925 1.410896,-0.53381 2.107167,-0.9806 0.710511,-0.45594 1.404139,-0.72695 1.580912,-0.6177 0.204687,0.1265 0.245035,0.0815 0.115239,-0.12851 -0.123025,-0.19905 -0.06252,-0.30033 0.157557,-0.26373 0.580707,0.0966 1.370504,-0.30947 2.077073,-1.06788 0.620432,-0.66596 1.426252,-1.13286 1.724912,-0.99944 0.07252,0.0324 0.367179,-0.32804 0.654792,-0.80098 0.852755,-1.40225 0.779363,-0.98741 -0.180971,1.02292 -1.087971,2.27751 -1.053761,3.00824 0.03942,0.84211 1.549365,-3.07005 4.104849,-6.61248 4.491367,-6.22596 0.106557,0.10656 0.154052,0.0478 0.105545,-0.13067 -0.04851,-0.17842 0.268993,-0.63446 0.705555,-1.01341 0.457437,-0.39706 0.597568,-0.62747 0.330729,-0.54379 -0.637742,0.2 -0.581416,-0.0208 0.09807,-0.38444 0.394355,-0.21105 0.507654,-0.21382 0.381261,-0.009 -0.104301,0.16876 0.01245,0.29098 0.277966,0.29098 0.251791,0 0.653422,0.17704 0.892513,0.39341 0.385908,0.34924 0.540357,0.33955 1.375758,-0.0864 0.867348,-0.4422 1.300061,-0.79347 3.331608,-2.70454 0.396233,-0.37273 0.928783,-0.75595 1.183444,-0.85159 0.666768,-0.25041 0.569808,-0.85342 -0.220503,-1.37125 -0.657791,-0.431 -0.720046,-0.42274 -1.653646,0.2194 -0.533567,0.36699 -1.624965,1.26653 -2.42533,1.99896 -0.800364,0.73244 -1.561227,1.33439 -1.690805,1.33767 -0.345631,0.009 1.329602,-1.66651 3.084026,-3.08408 l 1.525512,-1.23262 -0.579445,-0.61679 c -0.70731,-0.7529 -0.909736,-0.76048 -2.032234,-0.0761 -0.712372,0.43432 -0.823483,0.61109 -0.573453,0.91236 0.508493,0.6127 0.06983,1.4574 -0.756847,1.4574 -0.397652,0 -0.865879,-0.14288 -1.040504,-0.3175 -0.404085,-0.40409 -0.410476,-0.0888 -0.01116,0.55062 0.168487,0.26979 0.231755,0.6849 0.140596,0.92245 -0.192482,0.5016 -1.255965,0.5754 -1.712526,0.11884 -0.1722,-0.1722 -0.39568,-0.2305 -0.496623,-0.12956 -0.100942,0.10094 0.0459,0.35392 0.32632,0.56218 0.6628,0.49223 0.229671,1.29943 -0.760967,1.41818 -0.400206,0.048 -0.756319,0.29687 -0.850844,0.59469 -0.08941,0.28171 -0.441036,0.58209 -0.78139,0.66752 -0.340354,0.0854 -0.678459,0.38335 -0.751345,0.66207 -0.08645,0.33058 -0.364888,0.50676 -0.800919,0.50676 -0.440511,0 -0.726837,0.18412 -0.8398,0.54003 -0.101182,0.3188 -0.484657,0.60269 -0.936042,0.69297 -0.424134,0.0848 -0.834978,0.37454 -0.922591,0.65059 -0.198891,0.62665 -1.602385,0.67574 -2.445042,0.0855 -0.323626,-0.22668 -0.796602,-0.45417 -1.051059,-0.50554 -0.462517,-0.0934 -4.349037,-1.48631 -4.524039,-1.62143 -0.05095,-0.0393 -0.019,-0.19067 0.071,-0.33629 0.224212,-0.36279 3.565496,0.79788 5.210183,1.80987 1.417116,0.87196 1.822419,0.96019 2.285156,0.49745 0.228263,-0.22826 0.0452,-0.49059 -0.738543,-1.05833 -0.573117,-0.41516 -1.139369,-0.75484 -1.258336,-0.75484 -0.118968,0 -0.435371,-0.16019 -0.703119,-0.35597 -0.459004,-0.33563 -0.452087,-0.35453 0.12109,-0.33073 1.004377,0.0417 0.922459,-0.60944 -0.132105,-1.05007 -0.802838,-0.33545 -1.046517,-0.34633 -1.397009,-0.0624 -0.355162,0.28773 -0.387531,0.28254 -0.198061,-0.0318 0.176113,-0.29214 0.113854,-0.33206 -0.279941,-0.17951 -0.278533,0.10791 -0.923143,0.2472 -1.432466,0.30954 -0.540026,0.0661 -1.160107,0.37885 -1.48756,0.75028 -1.011409,1.14725 -5.479761,4.25569 -7.599043,5.28633 -1.686625,0.82023 -2.144841,1.17597 -2.447396,1.90009 -0.461318,1.10409 -0.485228,3.6557 -0.04152,4.43104 0.298007,0.52074 0.337515,0.43394 0.399317,-0.87729 0.03772,-0.80036 0.125703,-1.70881 0.19551,-2.01877 z m 17.85986,-5.25419 c 0,-0.0562 0.773906,-0.48321 1.719791,-0.94887 0.945886,-0.46565 1.719792,-0.92072 1.719792,-1.01126 0,-0.0905 0.238125,-0.31333 0.529167,-0.49509 0.291041,-0.18176 0.529166,-0.22281 0.529166,-0.0912 0,0.30113 -2.190936,1.70198 -3.505729,2.24151 -0.545703,0.22393 -0.992187,0.36115 -0.992187,0.30494 z m 17.431064,1.60362 c 1.07412,-0.71314 2.53249,-1.83047 3.24082,-2.48296 1.43848,-1.32507 2.7337,-3.65666 2.44673,-4.4045 -0.14034,-0.36571 -0.29891,-0.16461 -0.68381,0.86721 -0.60075,1.61044 -2.24316,3.49919 -4.29809,4.94272 -2.20143,1.54644 -3.57884,2.69711 -4.205398,3.51312 -0.452749,0.58964 -0.362667,0.55168 0.496908,-0.20939 0.57744,-0.51128 1.92872,-1.51307 3.00284,-2.2262 z m 4.19781,0.39576 c 1.11437,-0.80724 2.62037,-2.57995 2.38865,-2.81167 -0.0733,-0.0733 -0.34541,0.1903 -0.6046,0.58588 -0.48953,0.74711 -1.56898,1.74265 -2.7505,2.53669 -0.37751,0.2537 -0.55542,0.46206 -0.39535,0.46302 0.16007,9.6e-4 0.77288,-0.3473 1.3618,-0.77392 z m -7.396213,-6.66053 c 0.458923,-0.67017 1.016193,-1.36936 1.238373,-1.55375 0.22218,-0.1844 0.40397,-0.44003 0.40397,-0.56807 0,-0.38119 -1.810851,1.64643 -2.81032,3.14674 -0.510735,0.76667 -1.031623,1.33027 -1.157531,1.25246 -0.125907,-0.0778 -0.315077,-0.002 -0.420377,0.16829 -0.119571,0.19348 -0.07677,0.2389 0.11401,0.121 0.383461,-0.23699 0.383891,-0.09 0.0022,0.74774 -0.346235,0.7599 -0.674674,0.6635 -1.043367,-0.30624 -0.140616,-0.36985 -0.325447,-0.60267 -0.410735,-0.51738 -0.08529,0.0853 0.111401,0.58623 0.437087,1.1132 l 0.592156,0.95813 1.110069,-1.67182 c 0.610538,-0.9195 1.485551,-2.22014 1.944474,-2.8903 z m -13.264842,2.79252 c 0.09125,-0.23779 -0.106935,-0.69445 -0.471325,-1.08601 l -0.628786,-0.67568 1.044346,0.43285 c 2.22799,0.92343 2.423506,-0.35223 0.212425,-1.38599 -0.836745,-0.39121 -1.55407,-0.86897 -1.594055,-1.06168 -0.03999,-0.19272 0.03582,-0.28333 0.168458,-0.20135 0.132638,0.082 0.373292,-0.0102 0.534788,-0.20476 0.691015,-0.83262 -1.712359,-1.74741 -2.930507,-1.11543 -0.343379,0.17815 -0.763433,0.27754 -0.933451,0.22086 -0.388808,-0.1296 -1.498782,0.44665 -1.280598,0.66484 0.08883,0.0888 -0.219447,0.28755 -0.685071,0.44158 -1.52296,0.50382 -1.23845,0.9414 0.612971,0.94275 l 1.675694,10e-4 1.703174,1.71857 c 1.73785,1.75356 2.29274,2.03581 2.571937,1.30823 z m 3.271951,-2.37554 c 0.277874,-0.33482 0.237814,-0.50895 -0.232186,-1.00924 -0.833523,-0.88725 -0.696373,-1.04254 0.424187,-0.48032 0.545703,0.2738 1.141015,0.44489 1.322916,0.38021 0.57742,-0.20534 0.35719,-0.881 -0.396875,-1.2176 -0.400182,-0.17864 -1.239878,-0.59522 -1.865991,-0.92575 l -1.138388,-0.60095 0.59143,-0.47891 0.59143,-0.47891 -0.661835,-0.43365 c -0.364009,-0.23851 -0.951315,-0.43631 -1.305125,-0.43956 -1.89958,-0.0174 -2.382621,0.0743 -2.691255,0.51143 -0.183308,0.2596 -0.72024,0.67138 -1.193182,0.91507 -0.472943,0.24368 -0.859896,0.54419 -0.859896,0.66778 0,0.1236 0.673624,0.22472 1.496942,0.22472 h 1.496941 l 1.84456,1.88515 c 1.014508,1.03684 1.933649,1.88516 2.042536,1.88516 0.108888,0 0.349093,-0.18208 0.533791,-0.40463 z m 8.54485,-10.66333 c 0.608302,-0.41206 1.344129,-0.84264 1.635174,-0.95684 0.35927,-0.14098 0.41802,-0.24896 0.18298,-0.33633 -0.315035,-0.11711 -3.225691,1.60887 -3.225691,1.91279 0,0.25767 0.321164,0.11629 1.407537,-0.61962 z m -12.471934,4.19765 c 0.06731,-0.21341 0.649568,-0.75827 1.293909,-1.21081 0.644342,-0.45253 1.43942,-1.21827 1.766842,-1.70163 0.625363,-0.9232 0.804257,-0.89163 0.298844,0.0527 -0.353736,0.66097 -1.535125,1.79251 -1.871467,1.79251 -0.13122,0 -0.547265,0.32742 -0.924544,0.7276 -0.37728,0.40019 -0.630893,0.553 -0.563584,0.33959 z m 5.905022,-0.13159 c -0.436563,-0.1999 -0.659584,-0.37313 -0.495603,-0.38494 0.163981,-0.0118 0.551325,-0.61002 0.860765,-1.32933 0.309439,-0.71931 0.68921,-1.38608 0.843934,-1.4817 0.361804,-0.22361 0.711342,0.11253 0.370741,0.35653 -0.261684,0.18746 -1.505974,2.48743 -1.382804,2.556 0.03715,0.0207 0.365207,0.172 0.729009,0.33627 0.363802,0.16427 0.482864,0.30136 0.264583,0.30465 -0.218281,0.003 -0.754063,-0.15758 -1.190625,-0.35748 z m -1.984375,-3.20094 c 0,-0.31005 1.382378,-3.05506 1.486221,-2.95122 0.122257,0.12226 -1.196905,3.09989 -1.373325,3.09989 -0.06209,0 -0.112896,-0.0669 -0.112896,-0.14867 z"
         id="path32" /><path
         style="fill:#230f0f"
         d="m 73.589397,132.65308 c -2.79805,-0.34398 -5.315061,-1.20482 -6.246677,-2.13644 -0.744203,-0.7442 -0.812009,-0.95955 -0.811632,-2.57763 5.76e-4,-2.47362 0.521875,-3.40086 2.51313,-4.47013 0.873125,-0.46885 1.706563,-0.85235 1.852083,-0.85222 0.145521,1.3e-4 -0.555139,0.43738 -1.557023,0.97166 -1.373745,0.73259 -1.910414,1.18397 -2.182813,1.83591 -0.501582,1.20046 -0.47857,4.15887 0.03567,4.58565 0.344689,0.28607 0.396875,0.13583 0.396875,-1.14261 0,-0.80959 0.09418,-1.5302 0.209288,-1.60134 0.115108,-0.0711 0.169724,0.24926 0.121368,0.71199 -0.07718,0.73858 0.02784,0.89789 0.85992,1.30436 0.521312,0.25466 1.222835,0.46302 1.558941,0.46302 0.855136,0 2.303968,-0.53698 2.144595,-0.79485 -0.07279,-0.11777 0.107802,-0.15133 0.401312,-0.0746 0.743058,0.19431 0.946656,0.62843 0.430264,0.91742 -0.238712,0.13359 -0.434022,0.35603 -0.434022,0.49432 0,0.35009 0.964477,0.31454 1.560206,-0.0575 0.400914,-0.25037 0.678961,-0.20022 1.466741,0.26458 0.787156,0.46444 1.39066,0.57353 3.172812,0.57353 3.663453,0 3.948679,-0.12936 6.271597,-2.84439 1.059627,-1.23849 1.194255,-1.26679 4.528123,-0.95193 1.243464,0.11744 1.785937,0.2776 1.785937,0.52729 0,0.62524 0.649864,0.39742 3.128102,-1.0966 1.327626,-0.80036 2.536142,-1.45521 2.68559,-1.45521 0.149449,0 0.271725,-0.10288 0.271725,-0.22863 0,-0.12575 0.526403,-0.42968 1.169784,-0.67539 0.643381,-0.24571 1.323097,-0.63147 1.510477,-0.85726 0.18739,-0.22578 0.58372,-0.51688 0.88074,-0.6469 1.84718,-0.80855 5.17025,-3.9611 5.17025,-4.90495 0,-0.33456 -0.40937,-0.91118 -0.99219,-1.39756 -0.5457,-0.45541 -1.18077,-1.00353 -1.41126,-1.21804 -0.23049,-0.21451 -0.55791,-0.39002 -0.7276,-0.39002 -0.45904,0 -0.37565,-0.25771 0.24638,-0.7614 0.35508,-0.28752 0.52183,-0.67793 0.46302,-1.08409 -0.0824,-0.5691 -0.1335,-0.5929 -0.49423,-0.23016 -1.14791,1.15432 -2.39834,1.13837 -2.77087,-0.0354 -0.0915,-0.28824 -0.24837,-0.50696 -0.34865,-0.48604 -0.10027,0.0209 -0.516833,-0.0557 -0.925695,-0.17031 -0.508028,-0.14238 -0.695555,-0.33298 -0.592312,-0.60203 0.108477,-0.28269 0.02777,-0.34638 -0.286226,-0.22588 -0.370969,0.14235 -0.38506,0.10486 -0.0929,-0.24717 0.203641,-0.24537 0.51631,-0.34059 0.765028,-0.23297 1.053115,0.45569 3.111845,0.54942 4.309645,0.19623 1.62353,-0.47873 2.37181,-1.4709 2.14827,-2.84845 -0.17165,-1.05776 -0.60172,-0.82003 -0.60928,0.33679 -0.002,0.34134 -0.26155,0.98225 -0.57628,1.42424 l -0.57224,0.80364 -2.00745,-0.19914 c -1.1041,-0.10953 -2.632529,-0.17806 -3.396513,-0.1523 l -1.389063,0.0468 v -1.41973 -1.41973 l 1.6033,-1.03758 c 0.881815,-0.57066 1.483726,-1.07743 1.337586,-1.12614 -0.346776,-0.1156 -1.249553,0.36644 -2.454152,1.3104 l -0.968475,0.75891 -0.563423,-0.91163 c -0.376564,-0.6093 -0.956751,-1.06185 -1.749403,-1.36457 -0.652289,-0.24911 -1.136663,-0.50225 -1.076387,-0.56252 0.261287,-0.26129 2.209222,0.79887 2.822245,1.536 l 0.671083,0.80694 1.406026,-0.94619 c 1.503752,-1.01195 2.334666,-1.18885 2.580086,-0.54931 0.0838,0.21829 0.32518,0.39688 0.53648,0.39688 0.2113,0 0.31059,-0.11906 0.22066,-0.26458 -0.23971,-0.38785 0.0975,-0.32637 1.30552,0.23798 0.59165,0.27641 1.51358,0.57784 2.04873,0.66985 1.08819,0.18708 1.06379,0.12858 1.53161,3.67301 0.28835,2.1847 0.3624,2.38221 1.75451,4.67957 1.03628,1.71014 1.68465,4.00961 1.74669,6.19467 l 0.0444,1.56447 -1.6304,1.53246 c -2.06393,1.93995 -3.31059,2.35294 -7.85941,2.60362 -1.891765,0.10426 -3.677703,0.28578 -3.968744,0.40339 -2.368873,0.95721 -3.550129,1.64213 -4.213544,2.4431 -1.003776,1.21192 -1.80281,1.52406 -5.892348,2.30184 -3.77973,0.71886 -9.915337,1.04358 -12.865595,0.6809 z m 27.993863,-7.94248 c 0.0925,0.14971 0.31003,0.2628 0.48334,0.25131 0.22721,-0.0151 0.22286,-0.0581 -0.0156,-0.15434 -0.1819,-0.0734 -0.33073,-0.24962 -0.33073,-0.3916 0,-0.14198 0.11812,-0.18515 0.26249,-0.0959 0.14436,0.0892 0.47179,0.0403 0.7276,-0.10863 0.36559,-0.2129 0.38019,-0.27354 0.0682,-0.28336 -0.32724,-0.0103 1.14781,-1.14311 1.58479,-1.21707 0.55973,-0.0947 1.02887,-0.48153 0.88842,-0.73248 -0.11153,-0.19927 -0.0512,-0.19339 0.17616,0.0172 0.28152,0.26067 0.23634,0.40876 -0.24312,0.79701 -0.50179,0.40633 -0.54843,0.58324 -0.31536,1.19626 0.24216,0.63693 0.37306,0.70082 1.14183,0.55727 1.00549,-0.18775 3.64645,-2.79219 3.64645,-3.59603 0,-0.27641 -0.122,-0.42114 -0.27519,-0.32646 -0.18019,0.11137 -0.21254,-0.0795 -0.0937,-0.55302 0.10223,-0.40731 0.078,-0.65914 -0.0555,-0.57665 -0.13037,0.0805 -0.24312,-0.52678 -0.25056,-1.3496 -0.007,-0.82282 -0.14215,-1.7239 -0.29935,-2.0024 -0.24893,-0.44098 -0.34042,-0.32142 -0.7086,0.92605 -0.54688,1.85291 -1.90124,3.40402 -4.69842,5.38096 -2.30976,1.63245 -4.466558,3.53323 -4.466558,3.93637 0,0.12878 0.586166,-0.25663 1.302588,-0.85646 0.75922,-0.63565 1.37277,-0.97704 1.47083,-0.81838 z m 3.75134,-0.90317 c -0.0735,-0.19151 0.30248,-0.74954 0.83549,-1.24006 0.54306,-0.49977 0.7258,-0.60106 0.41566,-0.2304 -0.30439,0.3638 -0.65353,0.84005 -0.77588,1.05833 -0.19172,0.34206 -0.16061,0.34672 0.22522,0.0337 0.24622,-0.19972 0.44767,-0.2708 0.44767,-0.15795 0,0.11284 0.22045,-0.049 0.48988,-0.35967 0.26944,-0.31066 0.56049,-0.49423 0.64679,-0.40793 0.17953,0.17953 -1.04856,1.25065 -1.71009,1.49152 -0.24933,0.0908 -0.49922,0.009 -0.57474,-0.18759 z m 0.0383,1.78956 c -0.26222,-0.0691 -0.38732,-0.27723 -0.30133,-0.5013 0.1091,-0.28431 -0.0141,-0.35335 -0.47769,-0.26767 -0.34359,0.0635 -0.67723,0.12431 -0.74142,0.13512 -0.36172,0.0609 0.9991,0.79285 1.43963,0.7743 0.42079,-0.0177 0.43734,-0.0465 0.0808,-0.14045 z m -28.905918,-7.03033 c 0.428604,-0.5457 0.85241,-0.99218 0.941793,-0.99219 0.08938,0 0.855014,-0.65485 1.701404,-1.45521 0.846389,-0.80037 1.636461,-1.45521 1.755715,-1.45521 0.293585,0 -0.551436,0.81803 -1.441187,1.39516 -0.397781,0.25802 -0.723238,0.64497 -0.723238,0.8599 0,0.21492 -0.121722,0.39077 -0.270495,0.39077 -0.148772,0 -0.826869,0.50602 -1.506882,1.12448 l -1.236388,1.12448 z"
         id="path31" /></g></g></svg>
