<?xml version="1.0" encoding="UTF-8" standalone="no"?>
<!-- Created with Inkscape (http://www.inkscape.org/) -->

<svg
   width="53.710457mm"
   height="65.630905mm"
   viewBox="0 0 53.710457 65.630905"
   version="1.1"
   id="svg1"
   inkscape:export-filename="vegan-diet.svg"
   inkscape:export-xdpi="96"
   inkscape:export-ydpi="96"
   xml:space="preserve"
   xmlns:inkscape="http://www.inkscape.org/namespaces/inkscape"
   xmlns:sodipodi="http://sodipodi.sourceforge.net/DTD/sodipodi-0.dtd"
   xmlns="http://www.w3.org/2000/svg"
   xmlns:svg="http://www.w3.org/2000/svg"><sodipodi:namedview
     id="namedview1"
     pagecolor="#ffffff"
     bordercolor="#000000"
     borderopacity="0.25"
     inkscape:showpageshadow="2"
     inkscape:pageopacity="0.0"
     inkscape:pagecheckerboard="0"
     inkscape:deskcolor="#d1d1d1"
     inkscape:document-units="mm"><inkscape:page
       x="4.4822158e-22"
       y="0"
       width="53.710457"
       height="65.630905"
       id="page2"
       margin="0"
       bleed="0" /></sodipodi:namedview><defs
     id="defs1" /><g
     inkscape:label="Calque 1"
     inkscape:groupmode="layer"
     id="layer1"
     transform="translate(-74.400497,-94.486474)"><g
       id="g93"
       transform="translate(68.711993,15.111472)"><path
         style="fill:#d3e7f4"
         d="M 5.6885424,112.18333 V 79.375 H 32.54375 59.398957 v 32.80833 32.80834 H 32.54375 5.6885424 Z"
         id="path100" /><path
         style="fill:#c4daea"
         d="m 16.271875,144.59428 c 0.509323,-0.20357 2.038394,-0.79805 3.397934,-1.32108 3.556007,-1.36803 5.068733,-2.05441 5.068733,-2.29986 0,-0.11825 0.176338,-0.215 0.391864,-0.215 0.215525,0 1.67404,-0.63146 3.241145,-1.40324 2.539026,-1.25044 3.777084,-1.93119 5.505139,-3.02701 0.285529,-0.18107 1.025159,-0.58113 1.643622,-0.88904 0.618464,-0.3079 1.124479,-0.66577 1.124479,-0.79527 0,-0.12949 0.131695,-0.23544 0.292655,-0.23544 0.246367,0 2.194611,-1.38012 2.617762,-1.8544 0.07276,-0.0816 0.787135,-0.59637 1.5875,-1.14404 3.292298,-2.25283 4.7625,-3.44556 4.7625,-3.86365 0,-0.15492 0.09434,-0.28167 0.209648,-0.28167 0.115307,0 1.11721,-0.89296 2.226451,-1.98437 1.109241,-1.09141 2.141804,-1.98438 2.294584,-1.98438 0.15278,0 0.400254,-0.22884 0.549942,-0.50853 0.149688,-0.2797 0.481298,-0.71952 0.736913,-0.97738 0.443383,-0.44729 0.442468,-0.46041 -0.01991,-0.28522 -0.266563,0.101 -0.593985,0.18363 -0.727604,0.18363 -0.133619,0 -0.242944,0.1525 -0.242944,0.33887 0,0.18638 -0.386953,0.48649 -0.859896,0.66692 -0.641739,0.24481 -0.767557,0.38617 -0.495929,0.55718 0.214865,0.13527 -0.792008,0.20101 -2.457847,0.16048 -1.551997,-0.0378 -2.894634,-0.14147 -2.983638,-0.23048 -0.089,-0.089 -0.313625,0.0447 -0.499157,0.29708 -0.316456,0.43051 -0.334449,0.42843 -0.290745,-0.0336 0.02629,-0.27791 -0.183994,-0.58072 -0.48258,-0.69491 -0.482516,-0.18454 -0.525659,-0.1003 -0.489388,0.95555 0.02188,0.63686 -0.07544,1.15793 -0.216267,1.15793 -0.140825,0 -0.184943,0.22403 -0.09804,0.49784 0.102812,0.32393 0.0053,0.55641 -0.279012,0.66553 -0.324539,0.12454 -0.396897,0.36831 -0.281134,0.94712 0.09108,0.45541 0.0325,0.85567 -0.140915,0.96284 -0.180794,0.11174 -0.223009,0.064 -0.10801,-0.12203 0.422397,-0.68345 -0.18057,-0.83254 -0.774632,-0.19154 -0.341122,0.36808 -1.1608,1.01205 -1.821509,1.43106 -0.660708,0.41901 -1.144853,0.83812 -1.075878,0.93134 0.06898,0.0932 0.05022,0.11417 -0.04167,0.0465 -0.09189,-0.0676 -0.416515,0.0105 -0.72138,0.17367 -1.436232,0.76865 -3.259161,1.02778 -6.916748,0.98324 -4.069614,-0.0496 -4.594862,-0.0833 -4.46881,-0.28728 0.06098,-0.0987 -0.158751,-0.26477 -0.488286,-0.36914 -1.415837,-0.44841 -4.91683,-2.21777 -5.025093,-2.53961 -0.09808,-0.29159 -0.191319,-0.2911 -0.547462,0.003 -0.373301,0.30811 -0.415955,0.28527 -0.327272,-0.17522 0.05716,-0.2968 -0.127369,-0.73706 -0.41988,-1.00178 -0.287019,-0.25975 -0.707958,-0.86446 -0.935419,-1.3438 -0.227462,-0.47934 -0.507751,-0.81331 -0.622865,-0.74217 -0.286761,0.17723 -0.805735,-2.15721 -0.750341,-3.37516 0.02482,-0.54571 0.159477,-0.99219 0.299237,-0.99219 0.13976,0 0.0907,-0.20145 -0.109016,-0.44767 -0.269956,-0.3328 -0.275283,-0.39483 -0.02076,-0.24177 0.194231,0.1168 0.619501,0.0243 0.982879,-0.2138 0.352282,-0.23082 0.830323,-0.41968 1.062313,-0.41968 0.241035,0 0.344213,-0.12553 0.240758,-0.29293 -0.123843,-0.20038 0.01751,-0.23353 0.447406,-0.10492 0.613881,0.18364 0.616182,0.17836 0.09928,-0.22783 -0.613669,-0.48223 -0.446818,-0.53914 0.511942,-0.17462 0.459557,0.17473 0.678683,0.16897 0.678683,-0.0178 0,-0.15931 0.251526,-0.20511 0.595312,-0.10841 0.406879,0.11445 0.483547,0.0898 0.242217,-0.0777 -0.270557,-0.18789 -0.208709,-0.28471 0.264583,-0.4142 0.51117,-0.13986 0.549244,-0.21316 0.220804,-0.42511 -0.255821,-0.16508 -0.42822,-0.16509 -0.485069,0 -0.170426,0.49489 -0.633407,0.25008 -0.499008,-0.26386 0.09215,-0.3524 -0.02358,-0.5706 -0.359115,-0.6771 -0.272298,-0.0864 -0.707762,-0.42751 -0.967698,-0.75796 -0.259935,-0.33045 -0.649994,-0.54218 -0.866797,-0.4705 -0.328804,0.10871 -0.33744,0.0616 -0.05207,-0.28427 0.211747,-0.2566 0.273721,-0.68713 0.162627,-1.12976 -0.120108,-0.47855 -0.06076,-0.78855 0.179382,-0.93696 0.197383,-0.12199 0.28095,-0.29973 0.185706,-0.39497 -0.311964,-0.31197 -0.737545,0.16204 -0.737545,0.82147 v 0.64584 h -6.35 -6.3499996 V 96.572917 79.375 H 32.54375 59.398957 v 32.80833 32.80834 H 53.15967 46.920382 l 0.609639,-0.99219 c 0.335301,-0.5457 0.809223,-1.17078 1.05316,-1.38906 0.610321,-0.54613 1.402932,-1.85245 1.122769,-1.85046 -0.125877,9e-4 -0.930528,0.9534 -1.788113,2.11667 l -1.559245,2.11504 h -6.312109 c -3.471659,0 -6.312108,-0.0467 -6.312108,-0.10381 0,-0.0571 1.398984,-1.11558 3.108854,-2.35218 3.131658,-2.26486 4.745413,-3.56843 6.376458,-5.15078 0.487495,-0.47295 0.942484,-0.8599 1.011086,-0.8599 0.176513,0 0.880685,-0.72533 0.880685,-0.90714 0,-0.37594 -0.605561,-0.0822 -1.391471,0.67487 -0.471618,0.45433 -1.125378,1.00381 -1.4528,1.22105 -0.327422,0.21725 -0.595312,0.5599 -0.595312,0.76144 0,0.20155 -0.153326,0.36645 -0.340724,0.36645 -0.187398,0 -0.752945,0.35235 -1.256771,0.783 -0.503826,0.43064 -1.064875,0.78783 -1.246776,0.79375 -0.181901,0.006 -0.330729,0.1044 -0.330729,0.21886 0,0.23143 -2.163797,1.90871 -3.910624,3.03134 -0.622874,0.4003 -1.201159,0.90674 -1.285078,1.12543 -0.131715,0.34325 -1.369813,0.39575 -9.05396,0.38399 -7.900018,-0.0121 -8.797204,-0.0553 -7.975338,-0.38376 z m 32.146874,-22.97626 c 1.018646,-0.19485 2.233124,-0.5519 2.69884,-0.79344 1.061754,-0.55067 1.162961,-0.54848 0.944659,0.0204 -0.09699,0.25276 0.200387,0.0742 0.660845,-0.39687 0.460458,-0.47104 1.019803,-0.85644 1.242989,-0.85644 0.295177,0 0.405792,-0.28078 0.405792,-1.03003 0,-0.64286 0.140393,-1.0839 0.373503,-1.17335 0.205427,-0.0788 0.527002,-0.56782 0.71461,-1.08664 0.280407,-0.77545 0.472896,-0.94332 1.081705,-0.94332 0.687643,0 0.740599,-0.0757 0.740599,-1.05833 0,-0.73668 -0.113918,-1.05833 -0.374827,-1.05833 -0.206154,0 -0.414514,0.11389 -0.463021,0.25308 -0.04899,0.1406 -1.610265,0.27102 -3.512579,0.29343 -3.033788,0.0357 -3.531746,0.10716 -4.365625,0.62614 -1.458019,0.90743 -1.662912,0.92963 -3.606307,0.39074 C 43.89974,114.51108 42.293875,114.3 41.117448,114.3 H 39.09636 l -0.707242,1.06872 -0.707242,1.06871 0.578022,0.84952 c 1.40962,2.0717 4.19092,3.92491 6.598963,4.39695 1.648734,0.32319 1.512745,0.32571 3.559888,-0.0659 z m -4.472916,-1.78937 c -0.612284,-0.48163 -0.697437,-0.72164 -0.630881,-1.77818 0.06278,-0.9966 0.198669,-1.28294 0.738285,-1.55569 0.85115,-0.43022 3.278557,-0.045 4.983397,0.79086 0.587505,0.28805 1.36649,1.44043 1.36649,2.02151 0,0.60968 -1.588522,1.07827 -3.655346,1.07827 -1.728103,0 -2.217841,-0.0973 -2.801945,-0.55677 z m 5.810081,-3.12435 c -0.09777,-0.1582 -0.05168,-0.28763 0.102429,-0.28763 0.154109,0 0.280198,-0.12709 0.280198,-0.28242 0,-0.16977 -0.237434,-0.21067 -0.595313,-0.10255 -0.471507,0.14246 -0.52977,0.11089 -0.280157,-0.1518 0.39811,-0.41897 2.992136,-0.69446 2.992136,-0.31778 0,0.14911 -0.384346,0.25356 -0.854104,0.2321 -0.506897,-0.0232 -0.856458,0.0901 -0.859895,0.27849 -0.0094,0.5137 -0.576336,0.9697 -0.785294,0.63159 z m -0.936651,-1.956 c 0.779458,-0.49352 1.319278,-0.42451 1.319278,0.16864 0,0.19765 -0.402357,0.32113 -1.046408,0.32113 h -1.046409 z m -10.534055,3.9967 c -0.174625,-0.17462 -0.3175,-0.22946 -0.3175,-0.12186 0,0.1076 -0.166653,0.0421 -0.370341,-0.14552 -0.242205,-0.22312 -0.283532,-0.44744 -0.119444,-0.64833 0.160262,-0.19621 0.150326,-0.36933 -0.0275,-0.47924 -0.153121,-0.0946 -0.205527,-0.46242 -0.116457,-0.81731 0.16184,-0.64482 -0.281182,-0.94316 -0.486388,-0.32754 -0.07647,0.22941 -0.156797,0.23534 -0.289064,0.0213 -0.100741,-0.163 -0.0045,-0.47499 0.21378,-0.69331 0.29859,-0.29859 0.315582,-0.42602 0.06858,-0.51428 -0.180601,-0.0645 -0.241947,-0.21012 -0.136323,-0.32354 0.105624,-0.11342 0.35961,-0.0672 0.564414,0.10282 0.291451,0.24188 0.407833,0.21662 0.53556,-0.11623 0.362802,-0.94545 0.185716,-1.43626 -0.497794,-1.37969 -0.527186,0.0436 -0.630793,0.16354 -0.511834,0.59235 0.120265,0.43352 0.09534,0.46078 -0.128714,0.14077 -0.230474,-0.32919 -0.278555,-0.29801 -0.281915,0.18282 -0.0022,0.31883 -0.125057,0.65448 -0.272951,0.74589 -0.147895,0.0914 -0.204922,0.2697 -0.126727,0.39623 0.07819,0.12652 -0.04316,0.33375 -0.269681,0.46052 -0.22652,0.12677 -0.516446,0.58057 -0.644282,1.00845 -0.127835,0.42788 -0.242661,0.58075 -0.255169,0.33971 -0.01594,-0.30724 -0.184157,-0.39604 -0.562728,-0.29704 -0.792001,0.20711 -0.477843,0.72222 0.499239,0.81858 0.464499,0.0458 0.77486,0.19603 0.689693,0.33383 -0.08517,0.13781 0.210228,0.32357 0.656435,0.41281 0.446207,0.0892 0.811286,0.27347 0.811286,0.40939 0,0.13591 0.105572,0.18187 0.234604,0.10213 0.129032,-0.0798 0.385924,0.0373 0.57087,0.26018 0.233292,0.2811 0.420722,0.32072 0.612062,0.12938 0.19134,-0.19134 0.17857,-0.37303 -0.0417,-0.5933 z m -5.099223,-3.25942 c 1.313943,-0.50314 2.290888,-1.08816 2.94813,-1.7654 0.722657,-0.74465 1.11313,-0.96405 1.474432,-0.82846 0.425241,0.15959 0.444703,0.12692 0.144456,-0.24254 -0.27995,-0.34448 -0.498929,-0.37401 -1.133304,-0.15287 -0.634235,0.2211 -1.093288,0.15931 -2.373598,-0.3195 -0.87301,-0.32648 -1.662789,-0.51811 -1.755064,-0.42583 -0.09228,0.0923 0.02403,0.16777 0.258445,0.16777 0.23442,0 0.759164,0.28639 1.166098,0.63642 0.714778,0.61483 0.723902,0.65407 0.268925,1.15682 -0.559449,0.61818 -3.544505,1.64847 -4.755165,1.64124 -0.469887,-0.003 -1.44715,-0.15878 -2.171696,-0.3466 -1.037111,-0.26885 -1.427169,-0.52952 -1.833564,-1.22537 l -0.516209,-0.88387 0.775231,-0.6203 c 0.702523,-0.56212 1.048196,-0.62243 3.685648,-0.6431 2.686284,-0.021 2.849289,-0.0508 2.116667,-0.38625 -2.102223,-0.96259 -10.16089,0.14093 -11.472554,1.57101 -0.820005,0.89403 -0.3523,1.52388 1.73779,2.34024 2.77814,1.0851 3.66829,1.23881 6.692055,1.15557 2.296845,-0.0632 3.118566,-0.20684 4.743277,-0.82898 z m 8.675398,-3.76527 c -0.06062,-0.40018 -0.110222,-0.0728 -0.110222,0.72761 0,0.80036 0.0496,1.12778 0.110222,0.7276 0.06062,-0.40018 0.06062,-1.05502 0,-1.45521 z m -2.678352,0.31763 c -0.261901,-0.2619 -0.616824,-0.36373 -0.891393,-0.25575 -0.376341,0.14801 -0.317242,0.23859 0.337528,0.51734 0.957838,0.40776 1.138084,0.32263 0.553865,-0.26159 z m -19.206989,-0.0788 c 0,-0.12328 0.267891,-0.35335 0.595312,-0.51126 0.498927,-0.24062 0.517286,-0.29 0.113393,-0.30501 -0.265056,-0.01 -0.652009,0.15218 -0.859896,0.36007 -0.443264,0.44326 -0.482779,0.68035 -0.113392,0.68035 0.14552,0 0.264583,-0.10086 0.264583,-0.22415 z m 21.077961,-1.23105 c 0.180777,0.4477 0.23498,0.3866 0.352091,-0.39688 0.09938,-0.66483 0.266341,-0.91601 0.591922,-0.89047 0.46564,0.0365 0.382084,-0.26285 -0.34224,-1.2262 -0.254319,-0.33824 -0.276398,-0.32847 -0.149456,0.0662 0.08192,0.25466 0.04685,0.46302 -0.07794,0.46302 -0.124784,0 -0.210344,0.20836 -0.190133,0.46302 0.02413,0.30403 -0.122249,0.43633 -0.426273,0.38528 -0.265294,-0.0446 -0.463021,0.0875 -0.463021,0.30909 0,0.21276 -0.07555,0.60493 -0.167887,0.87149 -0.146847,0.42393 -0.116058,0.41835 0.245687,-0.0445 l 0.413573,-0.52917 z m 10.936621,-4.8948 c 0,-0.14552 -0.119062,-0.26458 -0.264583,-0.26458 -0.145521,0 -0.264583,-0.17859 -0.264583,-0.39687 0,-0.21829 -0.119063,-0.39688 -0.264584,-0.39688 -0.335167,0 -0.333202,0.17116 0.0093,0.81114 0.288829,0.53969 0.784441,0.69586 0.784441,0.24719 z M 38.166,99.199771 c -0.181821,-0.09468 -0.925896,-0.08336 -1.6535,0.02515 l -1.322917,0.197295 1.6535,-0.02515 c 0.909425,-0.01383 1.504738,-0.102616 1.322917,-0.197295 z"
         id="path99" /><path
         style="fill:#ede5a7"
         d="m 34.660416,144.33204 c 0.582084,-0.34267 1.35599,-0.8605 1.719792,-1.15073 0.363802,-0.29022 1.494896,-1.15433 2.513542,-1.92025 1.018645,-0.76592 1.94138,-1.51978 2.05052,-1.67526 0.133156,-0.18968 0.28911,-0.15211 0.474054,0.1142 0.244992,0.35278 0.270907,0.35278 0.233235,0 -0.08195,-0.76743 0.02381,-1.05833 0.384794,-1.05833 0.200463,0 0.512697,-0.1786 0.693855,-0.39688 0.181157,-0.21828 0.5917,-0.39687 0.912318,-0.39687 0.747197,0 1.932089,-1.19115 1.422134,-1.42965 -0.192542,-0.09 -0.0911,-0.11634 0.22544,-0.0584 0.407329,0.0745 0.534368,-0.002 0.434713,-0.26165 -0.193969,-0.50548 0.814603,-0.48109 1.238728,0.0299 0.181157,0.21828 0.493392,0.39687 0.693855,0.39687 0.212388,0 0.364478,0.27602 0.364478,0.66146 0,0.59531 0.105834,0.66146 1.058334,0.66146 0.582083,0 1.058333,0.12609 1.058333,0.2802 0,0.15411 0.119062,0.20661 0.264583,0.11667 0.339643,-0.20991 0.336311,0.0331 -0.0093,0.67886 -0.324558,0.60644 -1.265892,0.67939 -1.48251,0.11489 -0.08376,-0.21828 -0.318151,-0.39687 -0.520863,-0.39687 -0.202712,0 -0.368568,0.17859 -0.368568,0.39687 0,0.21828 0.198438,0.39688 0.440973,0.39688 0.242534,0 0.369198,0.0718 0.281475,0.1595 -0.08772,0.0877 -0.05414,0.43661 0.07463,0.7753 0.176021,0.46297 0.10616,0.7785 -0.281475,1.2713 -0.283584,0.36052 -0.515607,0.78554 -0.515607,0.94449 0,0.15894 -0.148828,0.30165 -0.330729,0.31712 -0.181901,0.0155 -0.558411,0.0452 -0.836689,0.0661 -0.278277,0.0209 -0.537238,0.18983 -0.575468,0.37537 -0.03823,0.18554 -0.009,0.2153 0.06499,0.0661 0.15421,-0.31094 0.888394,-0.37194 0.875788,-0.0728 -0.0046,0.10914 -0.299325,0.5291 -0.654948,0.93323 l -0.646587,0.73479 -6.158073,-0.0255 -6.158072,-0.0255 z m 12.832292,0.35993 c 0,-0.34614 1.017631,-1.2878 1.391708,-1.2878 0.138823,0 0.189119,-0.16493 0.111767,-0.3665 -0.07735,-0.20158 0.05002,-0.63871 0.283049,-0.9714 0.406285,-0.58005 0.432801,-0.58402 0.645565,-0.0965 0.170784,0.39131 0.191066,0.3478 0.08808,-0.18895 -0.08325,-0.43388 0.01517,-0.82097 0.260517,-1.02459 0.216875,-0.17999 0.394318,-0.43083 0.394318,-0.55743 0,-0.22216 0.723551,-1.15842 1.625919,-2.1039 0.412224,-0.43192 0.627006,-0.7855 1.717044,-2.82665 0.252566,-0.47294 0.667177,-0.85989 0.921357,-0.85989 0.71047,0 1.606819,-1.42724 1.403961,-2.23549 -0.163237,-0.65039 -0.125058,-0.67493 1.04991,-0.67493 h 1.219308 v 1.05833 c 0,0.76435 0.110243,1.05834 0.396875,1.05834 0.340472,0 0.396875,0.80844 0.396875,5.68854 v 5.68854 h -5.953125 c -4.257329,0 -5.953124,-0.0854 -5.953124,-0.2997 z m -28.574999,-0.84061 c 0.907165,-0.47083 1.5875,-0.71853 1.5875,-0.57797 0,0.18584 -1.525179,0.9247 -1.90509,0.9229 -0.189128,-9e-4 -0.04621,-0.15612 0.31759,-0.34493 z m 6.614583,-13.11813 c -3.47195,-1.12531 -5.977436,-2.74999 -7.540625,-4.88973 -1.706523,-2.33593 -2.05232,-3.75132 -1.302532,-5.33138 0.45841,-0.96602 1.243098,-1.36594 4.392795,-2.23876 1.033943,-0.28652 1.926603,-0.56766 1.983691,-0.62474 0.05709,-0.0571 -0.227761,-0.17235 -0.632996,-0.25613 -1.056212,-0.21838 -3.21985,-2.25728 -3.509998,-3.30764 -0.213222,-0.77189 -0.153435,-0.96945 0.500422,-1.65365 0.408416,-0.42737 0.931016,-0.77703 1.161335,-0.77703 0.6993,0 0.753535,-0.46202 0.07425,-0.63251 -0.911562,-0.22879 -2.634729,-1.94514 -3.349491,-3.33624 -0.520983,-1.01396 -0.61388,-1.60285 -0.626073,-3.96875 -0.01658,-3.21687 0.280966,-4.194229 1.697726,-5.576613 1.04714,-1.021733 2.990874,-2.409185 3.844206,-2.744025 0.339264,-0.133124 0.409886,-0.252171 0.196789,-0.331725 -0.182808,-0.06825 -0.257222,-0.245691 -0.165364,-0.394319 0.109153,-0.176614 0.23383,-0.162121 0.359882,0.04184 0.129741,0.209925 0.52883,0.249043 1.219289,0.119512 0.750564,-0.140807 0.897211,-0.237881 0.545653,-0.361201 -0.264421,-0.09275 1.245673,-0.200395 3.355766,-0.239202 3.584769,-0.06593 6.84199,0.260615 7.452568,0.747137 0.145521,0.115955 0.672736,0.298222 1.171589,0.40504 1.120948,0.240024 4.205787,1.831625 5.191195,2.678361 0.402039,0.345462 0.823643,0.628113 0.936898,0.628113 0.113255,0 0.184033,1.518042 0.157284,3.373432 -0.05386,3.73581 -0.344164,4.71502 -1.572397,5.3037 -0.573566,0.2749 -0.725194,0.52992 -0.725194,1.21969 0,2.07587 -0.391608,2.48285 -3.472764,3.60905 -1.31155,0.47939 -1.367039,0.47885 -2.647394,-0.0258 -1.450472,-0.57172 -2.409495,-0.69518 -1.155781,-0.14878 0.436619,0.19028 0.959066,0.54505 1.160995,0.78835 0.551537,0.66457 -0.174422,1.30958 -2.235399,1.98615 -1.972177,0.64742 -2.899131,0.68873 -4.740971,0.21127 -1.037111,-0.26885 -1.427169,-0.52952 -1.833564,-1.22537 l -0.516209,-0.88387 0.775231,-0.6203 c 0.702523,-0.56212 1.048196,-0.62243 3.685648,-0.6431 2.686284,-0.021 2.849289,-0.0508 2.116667,-0.38625 -2.102223,-0.96259 -10.16089,0.14093 -11.472554,1.57101 -0.869944,0.94848 -0.355219,1.57793 2.037498,2.49162 2.394634,0.91442 5.30525,1.37841 7.450681,1.18772 1.52162,-0.13524 5.424428,-1.4993 6.034088,-2.10896 0.35931,-0.35931 0.845078,-0.47659 0.845078,-0.20403 0,0.69759 -1.041544,1.88197 -2.315104,2.6326 -0.472943,0.27874 -0.859896,0.58695 -0.859896,0.6849 0,0.0979 0.446484,0.26119 0.992188,0.36276 0.545703,0.10157 1.704789,0.53154 2.575748,0.95549 0.870958,0.42395 1.679649,0.77082 1.79709,0.77082 0.117442,0 -0.08915,-0.51648 -0.459081,-1.14773 -0.767077,-1.30892 -0.884359,-2.93013 -0.274916,-3.80024 0.518778,-0.74066 2.051513,-1.2335 3.310861,-1.06458 l 1.001026,0.13426 v -1.92512 c 0,-1.64402 0.126489,-2.17928 0.866231,-3.66566 0.476427,-0.95729 1.300713,-2.31047 1.831747,-3.00708 l 0.965518,-1.26656 1.832731,0.0586 c 2.648174,0.0846 2.905573,0.19252 3.528434,1.47918 0.61579,1.27205 0.708273,3.05311 0.290891,5.60204 -0.288289,1.76057 -0.473835,1.96982 -3.044927,3.43391 l -1.5875,0.90399 -1.846357,-0.51332 C 43.898283,114.51122 42.306889,114.3 41.117448,114.3 H 39.09636 l -0.704763,1.06497 -0.704763,1.06497 0.772115,1.11784 c 1.435076,2.07766 3.806605,3.63168 6.386538,4.18497 1.548529,0.3321 4.793671,-0.0511 6.139811,-0.72506 0.959046,-0.48014 1.068955,-0.45239 0.67934,0.17148 -0.181758,0.29104 -0.470502,0.52916 -0.641652,0.52916 -0.171149,0 -0.350869,0.0944 -0.399376,0.20971 -0.140497,0.33407 -1.870831,1.29346 -2.674242,1.48274 -0.915593,0.2157 -4.114324,-0.31713 -4.815011,-0.80208 -0.739708,-0.51195 -0.996676,-0.44848 -0.792228,0.19568 0.250678,0.78982 -0.361883,2.85047 -1.171536,3.94104 -0.378127,0.50932 -0.655202,1.02419 -0.615722,1.14414 0.03948,0.11996 -0.04006,0.14898 -0.17676,0.0645 -0.136697,-0.0845 -0.288475,-0.0487 -0.337284,0.0795 -0.242021,0.63583 -3.825914,2.45803 -5.546158,2.8199 -2.585962,0.54397 -7.115763,0.48824 -8.962377,-0.11027 z M 38.166,99.199771 c -0.181821,-0.09468 -0.925896,-0.08336 -1.6535,0.02515 l -1.322917,0.197295 1.6535,-0.02515 c 0.909425,-0.01383 1.504738,-0.102616 1.322917,-0.197295 z m 5.779833,20.628879 c -0.612284,-0.48163 -0.697437,-0.72164 -0.630881,-1.77818 0.06278,-0.9966 0.198669,-1.28294 0.738285,-1.55569 0.85115,-0.43022 3.278557,-0.045 4.983397,0.79086 0.587505,0.28805 1.36649,1.44043 1.36649,2.02151 0,0.60968 -1.588522,1.07827 -3.655346,1.07827 -1.728103,0 -2.217841,-0.0973 -2.801945,-0.55677 z M 5.6885424,88.9 v -9.525 h 9.4561506 9.45615 l -0.658755,0.599814 c -0.362315,0.329898 -0.963799,0.835914 -1.336632,1.124479 -0.689492,0.533655 -3.089283,2.578716 -4.574258,3.898103 C 17.580792,85.397578 17.11975,85.725 17.00666,85.725 c -0.11309,0 -0.205618,0.119323 -0.205618,0.265162 0,0.14584 -0.438971,0.679213 -0.975491,1.185274 -0.536519,0.506061 -0.884954,1.010647 -0.774299,1.121302 0.110656,0.110656 0.597459,-0.244124 1.081785,-0.788398 0.484327,-0.544274 0.94931,-0.98959 1.033297,-0.98959 0.08399,0 0.780294,-0.625853 1.547351,-1.390784 0.767057,-0.764931 1.93043,-1.820122 2.585274,-2.344867 0.654843,-0.524746 1.775111,-1.506237 2.489484,-2.181091 l 1.298859,-1.227008 9.152182,0.0063 9.152182,0.0063 -3.704166,1.868767 c -3.717235,1.875361 -4.993009,2.559558 -7.9375,4.256884 -2.926055,1.686697 -4.365625,2.636441 -4.365625,2.880182 0,0.133039 -0.192641,0.241889 -0.428092,0.241889 -0.23545,0 -0.817796,0.327422 -1.294102,0.727604 -0.476305,0.400182 -1.184196,0.965729 -1.57309,1.256771 -0.388894,0.291042 -0.937642,0.737526 -1.21944,0.992188 -0.281797,0.254661 -0.670199,0.46302 -0.863114,0.46302 -0.192915,0 -0.639399,0.313794 -0.992187,0.697319 -1.648524,1.792152 -3.948725,2.850133 -3.948725,1.816223 0,-0.218281 -0.178593,-0.396875 -0.396875,-0.396875 -0.479353,0 -0.506554,0.360723 -0.07884,1.045596 0.25142,0.402587 0.242056,0.65121 -0.04471,1.187035 -0.411093,0.768135 -0.850387,0.860804 -1.331655,0.280911 -0.181157,-0.218281 -0.493392,-0.396875 -0.693855,-0.396875 -0.212388,0 -0.364478,-0.276015 -0.364478,-0.661458 0,-0.595313 -0.105834,-0.661459 -1.058334,-0.661459 -0.9525,0 -1.058333,-0.06615 -1.058333,-0.661458 0,-0.411574 -0.14993,-0.661459 -0.396875,-0.661459 -0.218281,0 -0.396875,-0.07093 -0.396875,-0.157614 0,-0.265619 0.913424,-1.821153 1.124479,-1.914955 0.259758,-0.115448 0.257809,-0.837847 -0.0023,-0.837847 -0.232946,0 -2.4215843,2.444165 -3.7680511,4.207977 -0.5093229,0.66719 -1.2529125,1.570915 -1.6524214,2.008277 -0.3995089,0.437362 -0.7269307,0.944032 -0.7276041,1.125933 -6.734e-4,0.181901 -0.1202869,0.33073 -0.2658077,0.33073 -0.1714892,0 -0.2645833,-3.351389 -0.2645833,-9.525001 z m 8.3223486,0.914015 c 0.660556,-0.660556 0.868981,-1.178598 0.474188,-1.178598 -0.228978,0 -1.652787,1.461061 -1.652787,1.69603 0,0.354207 0.547188,0.113979 1.178599,-0.517432 z m 13.373484,-0.07158 c 0,-0.278657 1.828121,-1.900766 2.142169,-1.900766 0.131494,0 0.24001,-0.0893 0.241145,-0.198438 0.0028,-0.268463 1.311507,-0.859895 1.902768,-0.859895 0.300029,0 0.476418,-0.195919 0.476418,-0.529167 0,-0.330698 0.176389,-0.529167 0.470295,-0.529167 0.258662,0 0.751433,-0.196916 1.095046,-0.437592 0.514713,-0.36052 0.717595,-0.37961 1.151886,-0.108391 0.487655,0.304546 0.513836,0.27621 0.349558,-0.378326 -0.103512,-0.412424 -0.0753,-0.64432 0.06763,-0.555982 0.134865,0.08335 0.392341,-0.02573 0.572168,-0.242414 0.179828,-0.216679 0.490975,-0.393962 0.691438,-0.393962 0.200462,0 0.364478,-0.119062 0.364478,-0.264583 0,-0.145521 0.160301,-0.264583 0.356225,-0.264583 0.571434,0 2.051117,-0.818466 2.20509,-1.219715 0.08755,-0.228142 0.538148,-0.367785 1.186774,-0.367785 0.575102,0 0.984182,-0.09944 0.909065,-0.220983 -0.18411,-0.297896 1.546341,-1.101934 2.371584,-1.101934 0.363432,0 0.729319,-0.178594 0.813081,-0.396875 0.130246,-0.339415 1.201676,-0.396877 7.40003,-0.396877 h 7.247734 v 4.894792 4.894792 h -2.513541 c -2.057871,0 -2.513542,0.07195 -2.513542,0.396875 0,0.286632 -0.293981,0.396875 -1.058333,0.396875 -0.764352,0 -1.058334,-0.110243 -1.058334,-0.396875 0,-0.33073 -0.529166,-0.396875 -3.174999,-0.396875 -2.645834,0 -3.175,0.06614 -3.175,0.396875 0,0.319705 -0.411574,0.396875 -2.116667,0.396875 -1.705092,0 -2.116666,-0.07717 -2.116666,-0.396875 0,-0.319705 -0.411575,-0.396875 -2.116667,-0.396875 -1.705093,0 -2.116667,0.07717 -2.116667,0.396875 0,0.319705 -0.411574,0.396875 -2.116666,0.396875 -1.705093,0 -2.116667,-0.07717 -2.116667,-0.396875 0,-0.319191 -0.407974,-0.396875 -2.08427,-0.396875 -1.529905,0 -2.171876,0.105559 -2.413646,0.396875 -0.34632,0.41729 -1.322917,0.550888 -1.322917,0.180974 z"
         id="path98" /><path
         style="fill:#b6d1e4"
         d="m 34.660416,144.33204 c 0.582084,-0.34267 1.35599,-0.8605 1.719792,-1.15073 0.363802,-0.29022 1.494896,-1.15433 2.513542,-1.92025 1.018645,-0.76592 1.94138,-1.51978 2.05052,-1.67526 0.133156,-0.18968 0.28911,-0.15211 0.474054,0.1142 0.244992,0.35278 0.270907,0.35278 0.233235,0 -0.08195,-0.76743 0.02381,-1.05833 0.384794,-1.05833 0.200463,0 0.512697,-0.1786 0.693855,-0.39688 0.181157,-0.21828 0.5917,-0.39687 0.912318,-0.39687 0.747197,0 1.932089,-1.19115 1.422134,-1.42965 -0.192542,-0.09 -0.0911,-0.11634 0.22544,-0.0584 0.407329,0.0745 0.534368,-0.002 0.434713,-0.26165 -0.193969,-0.50548 0.814603,-0.48109 1.238728,0.0299 0.181157,0.21828 0.493392,0.39687 0.693855,0.39687 0.212388,0 0.364478,0.27602 0.364478,0.66146 0,0.59531 0.105834,0.66146 1.058334,0.66146 0.582083,0 1.058333,0.12609 1.058333,0.2802 0,0.15411 0.119062,0.20661 0.264583,0.11667 0.339643,-0.20991 0.336311,0.0331 -0.0093,0.67886 -0.324558,0.60644 -1.265892,0.67939 -1.48251,0.11489 -0.08376,-0.21828 -0.318151,-0.39687 -0.520863,-0.39687 -0.202712,0 -0.368568,0.17859 -0.368568,0.39687 0,0.21828 0.198438,0.39688 0.440973,0.39688 0.242534,0 0.369198,0.0718 0.281475,0.1595 -0.08772,0.0877 -0.05414,0.43661 0.07463,0.7753 0.176021,0.46297 0.10616,0.7785 -0.281475,1.2713 -0.283584,0.36052 -0.515607,0.78554 -0.515607,0.94449 0,0.15894 -0.148828,0.30165 -0.330729,0.31712 -0.181901,0.0155 -0.558411,0.0452 -0.836689,0.0661 -0.278277,0.0209 -0.537238,0.18983 -0.575468,0.37537 -0.03823,0.18554 -0.009,0.2153 0.06499,0.0661 0.15421,-0.31094 0.888394,-0.37194 0.875788,-0.0728 -0.0046,0.10914 -0.299325,0.5291 -0.654948,0.93323 l -0.646587,0.73479 -6.158073,-0.0255 -6.158072,-0.0255 z m 12.832292,0.35993 c 0,-0.34614 1.017631,-1.2878 1.391708,-1.2878 0.138823,0 0.189119,-0.16493 0.111767,-0.3665 -0.07735,-0.20158 0.05002,-0.63871 0.283049,-0.9714 0.406285,-0.58005 0.432801,-0.58402 0.645565,-0.0965 0.170784,0.39131 0.191066,0.3478 0.08808,-0.18895 -0.08325,-0.43388 0.01517,-0.82097 0.260517,-1.02459 0.216875,-0.17999 0.394318,-0.43083 0.394318,-0.55743 0,-0.22216 0.723551,-1.15842 1.625919,-2.1039 0.412224,-0.43192 0.627006,-0.7855 1.717044,-2.82665 0.252566,-0.47294 0.667177,-0.85989 0.921357,-0.85989 0.71047,0 1.606819,-1.42724 1.403961,-2.23549 -0.163237,-0.65039 -0.125058,-0.67493 1.04991,-0.67493 h 1.219308 v 1.05833 c 0,0.76435 0.110243,1.05834 0.396875,1.05834 0.340472,0 0.396875,0.80844 0.396875,5.68854 v 5.68854 h -5.953125 c -4.257329,0 -5.953124,-0.0854 -5.953124,-0.2997 z m -28.574999,-0.84061 c 0.907165,-0.47083 1.5875,-0.71853 1.5875,-0.57797 0,0.18584 -1.525179,0.9247 -1.90509,0.9229 -0.189128,-9e-4 -0.04621,-0.15612 0.31759,-0.34493 z m 6.614583,-13.11813 c -1.812054,-0.58731 -5.080919,-2.23057 -5.963185,-2.99769 -1.330279,-1.15666 -2.768065,-4.5315 -2.768065,-6.49732 0,-0.7146 0.177767,-0.87223 1.968151,-1.74526 2.911497,-1.41971 4.979546,-1.84156 9.144349,-1.8653 1.964531,-0.0112 3.79851,0.0722 4.075508,0.18535 0.493483,0.20157 0.493558,0.21309 0.0038,0.57124 -0.371665,0.27176 -0.634232,0.2936 -1.023728,0.0851 -0.833686,-0.44617 -5.254284,-0.58208 -6.688548,-0.20563 -3.266506,0.85735 -4.945271,1.40355 -5.671733,1.84534 l -0.79093,0.48099 0.748356,0.70849 c 1.343974,1.27238 5.565454,3.19647 8.156689,3.7177 2.621122,0.52724 7.046325,0.58916 9.260416,0.12959 1.585063,-0.32901 4.465378,-1.86845 4.578802,-2.44723 0.08851,-0.45164 -0.0053,-0.54824 -1.905588,-1.96199 -1.258341,-0.93618 -1.279229,-0.94176 -0.727548,-0.19452 0.312394,0.42312 0.679744,1.15986 0.816334,1.63719 l 0.248346,0.86788 -1.663088,0.78577 c -1.394516,0.65888 -1.991459,0.78577 -3.696483,0.78577 -2.184177,0 -3.393199,-0.36843 -4.846429,-1.47686 -1.296976,-0.98925 -1.136359,-1.48318 0.92875,-2.85606 2.69504,-1.79166 5.011571,-2.10265 6.728119,-0.90325 0.399189,0.27892 0.828064,0.44393 0.953055,0.36668 0.381675,-0.23589 3.787447,1.71514 4.506572,2.58163 0.381975,0.46026 0.953864,0.3275 0.657177,-0.15255 -0.108491,-0.17554 -0.05375,-0.21071 0.140823,-0.0905 0.190264,0.11759 0.226728,0.3203 0.09065,0.50391 -0.125216,0.16894 -0.383704,0.96201 -0.574419,1.76238 -0.190715,0.80036 -0.65918,1.87193 -1.041033,2.38125 -0.381854,0.50932 -0.661978,1.02419 -0.622498,1.14414 0.03948,0.11996 -0.04006,0.14898 -0.17676,0.0645 -0.136697,-0.0845 -0.288475,-0.0487 -0.337284,0.0795 -0.242021,0.63583 -3.825914,2.45803 -5.546158,2.8199 -2.585962,0.54397 -7.115763,0.48824 -8.962377,-0.11027 z m 21.298957,-7.41444 c 0.291042,-0.13769 0.782479,-0.25871 1.092083,-0.26894 0.309603,-0.0102 0.711135,-0.19719 0.892292,-0.41547 0.181158,-0.21828 0.582689,-0.39487 0.892293,-0.39242 1.004106,0.008 -0.882789,1.00889 -2.219846,1.17756 -0.853482,0.10767 -1.03763,0.0794 -0.656822,-0.10073 z m -2.645833,-0.28754 c -0.712977,-0.18142 -0.726439,-0.20248 -0.132292,-0.2069 0.363802,-0.003 0.959115,0.0904 1.322917,0.2069 0.518317,0.166 0.546945,0.21077 0.132292,0.20691 -0.291042,-0.003 -0.886354,-0.0958 -1.322917,-0.20691 z m -1.852083,-1.72669 c -0.582083,-0.35852 -0.922507,-0.65246 -0.756498,-0.6532 0.537896,-0.002 2.479325,0.96574 2.298729,1.14634 -0.259638,0.25964 -0.385214,0.21948 -1.542231,-0.49314 z m 6.482291,0.38084 c 1.20288,-0.3485 2.129312,-0.65603 2.738178,-0.90892 0.433375,-0.18001 0.451717,-0.14315 0.16068,0.32288 -0.220119,0.35246 -0.643511,0.53776 -1.28297,0.5615 -0.524936,0.0195 -1.311617,0.0934 -1.748179,0.16413 -0.65241,0.10578 -0.628853,0.0809 0.132291,-0.13959 z m -8.464248,-1.42936 c -0.179828,-0.21668 -0.432532,-0.32872 -0.561564,-0.24897 -0.129032,0.0798 -0.234604,0.0882 -0.234604,0.0187 0,-0.0695 -0.07227,-0.3146 -0.160599,-0.54478 -0.08833,-0.23019 -0.05856,-0.41837 0.06615,-0.4182 0.277048,4e-4 1.681953,1.1861 1.681953,1.41953 0,0.30525 -0.459158,0.17393 -0.791332,-0.22631 z m 4.495498,-0.0583 c -1.278658,-0.47015 -1.78997,-2.21786 -0.907142,-3.10069 0.867118,-0.86711 4.188448,-0.27823 5.603496,0.99353 0.773124,0.69483 0.750916,1.07573 -0.101827,1.7465 -0.554075,0.43583 -1.05632,0.54408 -2.447396,0.52748 -0.96264,-0.0115 -1.928849,-0.0866 -2.147131,-0.16682 z m -12.170833,-2.96565 c 0,-0.13362 0.0761,-0.44126 0.169112,-0.68365 0.136347,-0.35531 0.217144,-0.37232 0.417018,-0.0878 0.200484,0.2854 0.228237,0.28016 0.145081,-0.0274 -0.150817,-0.55785 -0.612494,-0.62662 -1.078476,-0.16064 -0.27597,0.27597 -0.865909,0.39859 -1.816648,0.37757 l -1.407961,-0.0311 1.190625,-0.20489 c 1.433629,-0.24671 4.712779,-1.51016 5.359434,-2.06499 0.613717,-0.52657 0.849863,-0.24997 0.446955,0.52352 -0.40862,0.78446 -0.931932,1.27883 -2.133453,2.01546 -1.051787,0.64484 -1.291687,0.70872 -1.291687,0.34395 z m -7.011458,-0.57251 c -0.682656,-0.15504 -0.617851,-0.18466 0.463021,-0.21158 0.691224,-0.0172 1.256771,0.0143 1.256771,0.0701 0,0.2294 -0.978269,0.30986 -1.719792,0.14145 z m -5.028551,-1.30284 c -0.621734,-0.68701 -0.456863,-0.80186 0.530635,-0.36965 0.436562,0.19107 0.637895,0.35278 0.447406,0.35934 -0.190489,0.007 -0.27276,0.131 -0.182823,0.27652 0.294914,0.47718 -0.303863,0.27673 -0.795218,-0.26621 z m 6.219176,-0.55055 c -0.590598,-0.16821 -1.045843,-0.51844 -1.25677,-0.96687 -0.464681,-0.9879 -0.440869,-1.0497 0.593587,-1.54058 1.322142,-0.6274 6.286298,-0.45174 7.353684,0.26021 0.933407,0.62258 0.827354,0.92344 -0.606843,1.7215 -1.301472,0.7242 -4.435787,0.99507 -6.083658,0.52574 z m 19.48627,0.1065 c -0.0996,-0.0996 -0.854272,-0.31551 -1.67705,-0.4798 -1.170468,-0.23372 -1.50575,-0.4102 -1.540954,-0.8111 -0.02475,-0.28181 -0.133672,-1.01752 -0.242056,-1.63491 l -0.197062,-1.12252 2.867197,-1.40295 c 1.576958,-0.77163 3.500756,-1.80761 4.275106,-2.30218 1.044195,-0.66693 1.460769,-0.8137 1.612521,-0.56816 0.451898,0.73119 -0.219523,6.7616 -0.699402,6.28173 -0.08675,-0.0868 -0.525412,0.12217 -0.974798,0.46428 -0.723324,0.55065 -2.881586,1.7567 -3.143676,1.7567 -0.0543,0 -0.180226,-0.0815 -0.279826,-0.18109 z M 33.3375,111.5616 c -1.549663,-0.65799 -2.305714,-0.8057 -4.630208,-0.90458 -1.696896,-0.0722 -3.395971,0.0123 -4.365625,0.21699 -2.569759,0.54256 -3.497184,0.40091 -4.842862,-0.73967 -1.64757,-1.39645 -2.135422,-2.74521 -2.153813,-5.95465 -0.0081,-1.41883 0.05868,-2.57969 0.14847,-2.57969 0.08979,0 0.59873,0.44649 1.130979,0.99219 1.111421,1.13951 2.506849,1.87497 5.320351,2.80405 2.561626,0.84592 7.37163,1.18084 9.980997,0.69499 1.779768,-0.33139 5.629419,-1.98716 5.629419,-2.42126 0,-0.27398 -0.846909,-0.66016 -4.564062,-2.08113 -1.564349,-0.59802 -2.844271,-1.18588 -2.844271,-1.30636 0,-0.12048 1.279922,-0.299478 2.844271,-0.397769 2.758469,-0.17332 5.825888,-0.546595 6.722974,-0.818121 0.708579,-0.214469 1.116236,1.47631 0.924908,3.8361 -0.240588,2.96737 -0.590913,3.97758 -1.48778,4.29023 -0.738187,0.25733 -1.05616,0.85586 -1.063261,2.0014 -0.0078,1.26287 -0.534648,1.83426 -2.210468,2.39748 -2.438076,0.8194 -2.540676,0.81872 -4.540019,-0.0302 z M 5.6885424,88.9 v -9.525 h 9.4561506 9.45615 l -0.658755,0.599814 c -0.362315,0.329898 -0.963799,0.835914 -1.336632,1.124479 -0.689492,0.533655 -3.089283,2.578716 -4.574258,3.898103 C 17.580792,85.397578 17.11975,85.725 17.00666,85.725 c -0.11309,0 -0.205618,0.119323 -0.205618,0.265162 0,0.14584 -0.438971,0.679213 -0.975491,1.185274 -0.536519,0.506061 -0.884954,1.010647 -0.774299,1.121302 0.110656,0.110656 0.597459,-0.244124 1.081785,-0.788398 0.484327,-0.544274 0.94931,-0.98959 1.033297,-0.98959 0.08399,0 0.780294,-0.625853 1.547351,-1.390784 0.767057,-0.764931 1.93043,-1.820122 2.585274,-2.344867 0.654843,-0.524746 1.775111,-1.506237 2.489484,-2.181091 l 1.298859,-1.227008 9.152182,0.0063 9.152182,0.0063 -3.704166,1.868767 c -3.717235,1.875361 -4.993009,2.559558 -7.9375,4.256884 -2.926055,1.686697 -4.365625,2.636441 -4.365625,2.880182 0,0.133039 -0.192641,0.241889 -0.428092,0.241889 -0.23545,0 -0.817796,0.327422 -1.294102,0.727604 -0.476305,0.400182 -1.184196,0.965729 -1.57309,1.256771 -0.388894,0.291042 -0.937642,0.737526 -1.21944,0.992188 -0.281797,0.254661 -0.670199,0.46302 -0.863114,0.46302 -0.192915,0 -0.639399,0.313794 -0.992187,0.697319 -1.648524,1.792152 -3.948725,2.850133 -3.948725,1.816223 0,-0.218281 -0.178593,-0.396875 -0.396875,-0.396875 -0.479353,0 -0.506554,0.360723 -0.07884,1.045596 0.25142,0.402587 0.242056,0.65121 -0.04471,1.187035 -0.411093,0.768135 -0.850387,0.860804 -1.331655,0.280911 -0.181157,-0.218281 -0.493392,-0.396875 -0.693855,-0.396875 -0.212388,0 -0.364478,-0.276015 -0.364478,-0.661458 0,-0.595313 -0.105834,-0.661459 -1.058334,-0.661459 -0.9525,0 -1.058333,-0.06615 -1.058333,-0.661458 0,-0.411574 -0.14993,-0.661459 -0.396875,-0.661459 -0.218281,0 -0.396875,-0.07093 -0.396875,-0.157614 0,-0.265619 0.913424,-1.821153 1.124479,-1.914955 0.259758,-0.115448 0.257809,-0.837847 -0.0023,-0.837847 -0.232946,0 -2.4215843,2.444165 -3.7680511,4.207977 -0.5093229,0.66719 -1.2529125,1.570915 -1.6524214,2.008277 -0.3995089,0.437362 -0.7269307,0.944032 -0.7276041,1.125933 -6.734e-4,0.181901 -0.1202869,0.33073 -0.2658077,0.33073 -0.1714892,0 -0.2645833,-3.351389 -0.2645833,-9.525001 z m 8.3223486,0.914015 c 0.660556,-0.660556 0.868981,-1.178598 0.474188,-1.178598 -0.228978,0 -1.652787,1.461061 -1.652787,1.69603 0,0.354207 0.547188,0.113979 1.178599,-0.517432 z m 13.373484,-0.07158 c 0,-0.278657 1.828121,-1.900766 2.142169,-1.900766 0.131494,0 0.24001,-0.0893 0.241145,-0.198438 0.0028,-0.268463 1.311507,-0.859895 1.902768,-0.859895 0.300029,0 0.476418,-0.195919 0.476418,-0.529167 0,-0.330698 0.176389,-0.529167 0.470295,-0.529167 0.258662,0 0.751433,-0.196916 1.095046,-0.437592 0.514713,-0.36052 0.717595,-0.37961 1.151886,-0.108391 0.487655,0.304546 0.513836,0.27621 0.349558,-0.378326 -0.103512,-0.412424 -0.0753,-0.64432 0.06763,-0.555982 0.134865,0.08335 0.392341,-0.02573 0.572168,-0.242414 0.179828,-0.216679 0.490975,-0.393962 0.691438,-0.393962 0.200462,0 0.364478,-0.119062 0.364478,-0.264583 0,-0.145521 0.160301,-0.264583 0.356225,-0.264583 0.571434,0 2.051117,-0.818466 2.20509,-1.219715 0.08755,-0.228142 0.538148,-0.367785 1.186774,-0.367785 0.575102,0 0.984182,-0.09944 0.909065,-0.220983 -0.18411,-0.297896 1.546341,-1.101934 2.371584,-1.101934 0.363432,0 0.729319,-0.178594 0.813081,-0.396875 0.130246,-0.339415 1.201676,-0.396877 7.40003,-0.396877 h 7.247734 v 4.894792 4.894792 h -2.513541 c -2.057871,0 -2.513542,0.07195 -2.513542,0.396875 0,0.286632 -0.293981,0.396875 -1.058333,0.396875 -0.764352,0 -1.058334,-0.110243 -1.058334,-0.396875 0,-0.33073 -0.529166,-0.396875 -3.174999,-0.396875 -2.645834,0 -3.175,0.06614 -3.175,0.396875 0,0.319705 -0.411574,0.396875 -2.116667,0.396875 -1.705092,0 -2.116666,-0.07717 -2.116666,-0.396875 0,-0.319705 -0.411575,-0.396875 -2.116667,-0.396875 -1.705093,0 -2.116667,0.07717 -2.116667,0.396875 0,0.319705 -0.411574,0.396875 -2.116666,0.396875 -1.705093,0 -2.116667,-0.07717 -2.116667,-0.396875 0,-0.319191 -0.407974,-0.396875 -2.08427,-0.396875 -1.529905,0 -2.171876,0.105559 -2.413646,0.396875 -0.34632,0.41729 -1.322917,0.550888 -1.322917,0.180974 z"
         id="path97" /><path
         style="fill:#f1da68"
         d="m 26.326042,130.86559 c -2.912564,-0.81221 -5.344994,-2.07888 -6.883967,-3.58476 -1.311503,-1.28331 -1.606765,-1.75979 -2.084482,-3.36388 -0.935089,-3.13985 -0.882246,-3.30546 1.4116,-4.42399 2.911497,-1.41971 4.979546,-1.84156 9.144349,-1.8653 1.964531,-0.0112 3.79851,0.0722 4.075508,0.18535 0.493483,0.20157 0.493558,0.21309 0.0038,0.57124 -0.371665,0.27176 -0.634232,0.2936 -1.023728,0.0851 -0.833686,-0.44617 -5.254284,-0.58208 -6.688548,-0.20563 -3.266506,0.85735 -4.945271,1.40355 -5.671733,1.84534 l -0.79093,0.48099 0.748356,0.70849 c 1.343974,1.27238 5.565454,3.19647 8.156689,3.7177 2.621122,0.52724 7.046325,0.58916 9.260416,0.12959 1.585063,-0.32901 4.465378,-1.86845 4.578802,-2.44723 0.08851,-0.45164 -0.0053,-0.54824 -1.905588,-1.96199 -1.258341,-0.93618 -1.279229,-0.94176 -0.727548,-0.19452 0.312394,0.42312 0.679744,1.15986 0.816334,1.63719 l 0.248346,0.86788 -1.663088,0.78577 c -1.394516,0.65888 -1.991459,0.78577 -3.696483,0.78577 -2.184177,0 -3.393199,-0.36843 -4.846429,-1.47686 -1.296976,-0.98925 -1.136359,-1.48318 0.92875,-2.85606 2.69504,-1.79166 5.011571,-2.10265 6.728119,-0.90325 0.399189,0.27892 0.828064,0.44393 0.953055,0.36668 0.460848,-0.28482 4.045894,1.89373 4.660871,2.8323 0.452853,0.69114 0.322662,1.37628 -0.655011,3.44707 -0.995285,2.10809 -4.048913,4.12029 -7.297028,4.80841 -2.211613,0.46853 -6.150813,0.48299 -7.780393,0.0285 z m 18.520832,-10.66788 c -1.278658,-0.47015 -1.78997,-2.21786 -0.907142,-3.10069 0.867118,-0.86711 4.188448,-0.27823 5.603496,0.99353 0.773124,0.69483 0.750916,1.07573 -0.101827,1.7465 -0.554075,0.43583 -1.05632,0.54408 -2.447396,0.52748 -0.96264,-0.0115 -1.928849,-0.0866 -2.147131,-0.16682 z m -11.924867,-3.74625 c 0.145521,-0.27191 0.239006,-0.5398 0.207746,-0.59532 -0.03126,-0.0555 -0.0083,-0.0722 0.05111,-0.0371 0.05937,0.0351 0.266214,-0.0675 0.459651,-0.22804 0.193437,-0.16054 0.531814,-0.22277 0.751949,-0.1383 0.236504,0.0908 0.400244,0.006 0.400244,-0.20667 0,-0.19815 0.178594,-0.4288 0.396875,-0.51256 0.751541,-0.2884 0.377085,0.49294 -0.586763,1.22433 -0.726357,0.55117 -1.016817,0.64912 -1.176931,0.39687 -0.153889,-0.24244 -0.213696,-0.20707 -0.216629,0.12812 -0.0022,0.25467 -0.127303,0.46302 -0.277944,0.46302 -0.18548,0 -0.188485,-0.15958 -0.0093,-0.49437 z m -6.066799,-1.6453 c -0.590598,-0.16821 -1.045843,-0.51844 -1.25677,-0.96687 -0.464681,-0.9879 -0.440869,-1.0497 0.593587,-1.54058 1.322142,-0.6274 6.286298,-0.45174 7.353684,0.26021 0.933407,0.62258 0.827354,0.92344 -0.606843,1.7215 -1.301472,0.7242 -4.435787,0.99507 -6.083658,0.52574 z m 19.48627,0.1065 c -0.0996,-0.0996 -0.854272,-0.31551 -1.67705,-0.4798 -1.170468,-0.23372 -1.50575,-0.4102 -1.540954,-0.8111 -0.02475,-0.28181 -0.133672,-1.01752 -0.242056,-1.63491 l -0.197062,-1.12252 2.867197,-1.40295 c 1.576958,-0.77163 3.500756,-1.80761 4.275106,-2.30218 1.695265,-1.08276 1.847834,-0.9481 1.736473,1.53271 -0.148605,3.3105 -0.257687,3.59484 -1.77323,4.62219 -1.243628,0.84303 -2.909879,1.77965 -3.166,1.77965 -0.05573,0 -0.182824,-0.0815 -0.282424,-0.18109 z M 33.3375,111.5616 c -1.549663,-0.65799 -2.305714,-0.8057 -4.630208,-0.90458 -1.696896,-0.0722 -3.395971,0.0123 -4.365625,0.21699 -2.569759,0.54256 -3.497184,0.40091 -4.842862,-0.73967 -1.64757,-1.39645 -2.135422,-2.74521 -2.153813,-5.95465 -0.0081,-1.41883 0.05868,-2.57969 0.14847,-2.57969 0.08979,0 0.59873,0.44649 1.130979,0.99219 1.111421,1.13951 2.506849,1.87497 5.320351,2.80405 2.561626,0.84592 7.37163,1.18084 9.980997,0.69499 1.779768,-0.33139 5.629419,-1.98716 5.629419,-2.42126 0,-0.27398 -0.846909,-0.66016 -4.564062,-2.08113 -1.564349,-0.59802 -2.844271,-1.18588 -2.844271,-1.30636 0,-0.12048 1.279922,-0.299478 2.844271,-0.397769 2.758469,-0.17332 5.825888,-0.546595 6.722974,-0.818121 0.708579,-0.214469 1.116236,1.47631 0.924908,3.8361 -0.240588,2.96737 -0.590913,3.97758 -1.48778,4.29023 -0.738187,0.25733 -1.05616,0.85586 -1.063261,2.0014 -0.0078,1.26287 -0.534648,1.83426 -2.210468,2.39748 -2.438076,0.8194 -2.540676,0.81872 -4.540019,-0.0302 z"
         id="path96" /><path
         style="fill:#deaf5b"
         d="m 26.326042,130.86559 c -2.912564,-0.81221 -5.344994,-2.07888 -6.883967,-3.58476 -1.322766,-1.29433 -1.604813,-1.75324 -2.100497,-3.41765 -0.867352,-2.91241 -0.775183,-3.16442 1.582882,-4.32792 2.982756,-1.47172 4.836264,-1.85679 9.121373,-1.89497 3.653379,-0.0325 4.901201,0.17541 4.018072,0.66963 -0.246301,0.13784 -0.933546,0.11593 -1.687622,-0.0538 -2.171333,-0.48874 -4.775631,-0.35605 -7.758842,0.39531 -2.82442,0.71137 -4.516516,1.40622 -4.689715,1.92582 -0.209103,0.62731 5.025228,3.66258 7.339982,4.2563 3.740493,0.9594 9.029892,1.02042 11.654228,0.13445 1.690293,-0.57064 3.932637,-1.92854 3.946528,-2.3899 0.0053,-0.17648 -0.71389,-0.81223 -1.598231,-1.41277 -0.88434,-0.60054 -1.547221,-1.15257 -1.47307,-1.22672 0.219057,-0.21906 2.840508,1.30337 3.80258,2.20838 1.013555,0.95343 0.99968,1.31888 -0.142437,3.7516 -1.055004,2.24717 -4.006303,4.22991 -7.350871,4.93846 -2.211613,0.46853 -6.150813,0.48299 -7.780393,0.0285 z m 4.245046,-6.66418 c -1.36849,-0.59365 -2.657546,-1.66405 -2.657546,-2.20675 0,-0.49569 3.009265,-2.69004 4.190463,-3.05569 1.325993,-0.41047 3.222274,-0.18875 4.427733,0.51769 1.276183,0.7479 1.851178,1.46094 2.222698,2.75636 0.237453,0.82795 0.226801,0.84007 -1.423845,1.61996 -1.417149,0.66957 -1.972312,0.78424 -3.754131,0.77542 -1.253004,-0.006 -2.457484,-0.16932 -3.005372,-0.40699 z m 14.275786,-4.0037 c -0.526925,-0.19374 -1.322916,-0.89753 -1.322916,-1.16967 0,-0.11936 0.327422,-0.0864 0.727604,0.0733 1.105449,0.44107 4.101162,0.97747 4.533187,0.81168 0.245394,-0.0942 0.313766,-0.0358 0.190956,0.16286 -0.194337,0.31444 -3.351626,0.40762 -4.128831,0.12184 z m -11.924867,-3.74625 c 0.145521,-0.27191 0.239006,-0.5398 0.207746,-0.59532 -0.03126,-0.0555 -0.0083,-0.0722 0.05111,-0.0371 0.05937,0.0351 0.266214,-0.0675 0.459651,-0.22804 0.193437,-0.16054 0.531814,-0.22277 0.751949,-0.1383 0.236504,0.0908 0.400244,0.006 0.400244,-0.20667 0,-0.19815 0.178594,-0.4288 0.396875,-0.51256 0.751541,-0.2884 0.377085,0.49294 -0.586763,1.22433 -0.726357,0.55117 -1.016817,0.64912 -1.176931,0.39687 -0.153889,-0.24244 -0.213696,-0.20707 -0.216629,0.12812 -0.0022,0.25467 -0.127303,0.46302 -0.277944,0.46302 -0.18548,0 -0.188485,-0.15958 -0.0093,-0.49437 z m -5.749496,-1.60321 c -0.480327,-0.12228 -0.916734,-0.26589 -0.969793,-0.31914 -0.05306,-0.0533 0.994781,-0.11488 2.328531,-0.13695 1.684958,-0.0279 2.889276,-0.2052 3.946355,-0.58106 1.777774,-0.6321 2.022644,-0.30796 0.396875,0.52535 -1.238004,0.63456 -4.181839,0.8988 -5.701968,0.5118 z m 17.939821,-0.40809 c -1.654211,-0.55961 -1.725847,-0.62051 -1.902982,-1.6176 -0.342089,-1.92563 -0.380627,-1.87398 2.462821,-3.30089 1.472559,-0.73896 3.326763,-1.77474 4.120455,-2.30172 1.729336,-1.14821 1.88241,-1.02095 1.770506,1.47196 -0.148605,3.3105 -0.257687,3.59484 -1.77323,4.62219 -2.581343,1.74984 -2.728768,1.78533 -4.67757,1.12606 z M 33.93118,111.63532 c -2.043576,-1.0788 -6.210924,-1.3778 -10.47568,-0.75164 -1.069474,0.15703 -2.226979,0.2146 -2.572232,0.12795 -1.114048,-0.27961 -2.685219,-2.08742 -3.137336,-3.60987 -0.417263,-1.40507 -0.546393,-4.09663 -0.249657,-5.20378 l 0.158841,-0.59265 0.493972,0.62798 c 0.802635,1.02039 2.916798,2.23012 5.429395,3.10672 1.931413,0.67384 2.893747,0.84357 5.395426,0.95162 3.965014,0.17125 6.356511,-0.21164 8.71507,-1.39532 1.026426,-0.51513 1.866229,-1.05274 1.866229,-1.1947 0,-0.30607 -0.768794,-0.66196 -4.564062,-2.11279 -1.564349,-0.59802 -2.844271,-1.18588 -2.844271,-1.30636 0,-0.12048 1.279922,-0.298137 2.844271,-0.39479 1.564348,-0.09665 3.770623,-0.324309 4.902833,-0.505902 2.641297,-0.423634 2.710489,-0.35002 2.684257,2.855802 -0.02609,3.18822 -0.43467,4.60941 -1.424366,4.95442 -0.732482,0.25534 -1.058515,0.85548 -1.065883,1.96201 -0.0081,1.21506 -0.604176,1.86903 -2.237426,2.45471 -1.953144,0.7004 -2.634206,0.70502 -3.919381,0.0266 z"
         id="path95" /><path
         style="fill:#ac6c35"
         d="m 26.458333,130.86289 c -2.852029,-0.70162 -6.329428,-2.57908 -7.621905,-4.1151 -0.79628,-0.94633 -1.783327,-3.42257 -1.956025,-4.90716 -0.100858,-0.86702 -0.0235,-1.11853 0.42793,-1.39131 0.49196,-0.29727 0.555363,-0.2689 0.591342,0.26459 0.07471,1.10782 0.09821,1.22113 0.293804,1.41672 0.107285,0.10729 0.195063,0.0599 0.195063,-0.10531 0,-0.16521 0.171076,-0.23473 0.380169,-0.15449 0.209092,0.0802 0.31892,0.30549 0.244062,0.50057 -0.07486,0.19508 0.103426,0.48288 0.396187,0.63956 0.780536,0.41773 1.010271,0.34724 0.419214,-0.12862 -0.336244,-0.27072 -0.376547,-0.3777 -0.116715,-0.30984 0.218281,0.057 0.532229,0.37281 0.697662,0.70176 0.17504,0.34806 0.345568,0.46376 0.407902,0.27675 0.07484,-0.2245 0.502472,-0.11574 1.419005,0.36088 0.721539,0.37522 1.133295,0.69155 0.915014,0.70296 -0.305795,0.016 -0.279009,0.10988 0.116715,0.40919 0.282475,0.21365 0.639663,0.38664 0.79375,0.38441 0.154088,-0.002 0.101566,-0.12769 -0.116715,-0.27881 -0.32621,-0.22583 -0.302655,-0.25764 0.132291,-0.17867 0.291042,0.0529 0.504818,0.22159 0.475057,0.37499 -0.03131,0.1614 0.280873,0.23991 0.740989,0.18633 0.437304,-0.0509 0.740895,-0.005 0.674647,0.10226 -0.06625,0.10715 0.60307,0.17967 1.487374,0.16114 1.478556,-0.031 1.5563,-0.005 0.966962,0.32135 -0.822359,0.45559 -0.150831,0.45907 1.118011,0.006 0.544834,-0.19464 1.132087,-0.25134 1.348526,-0.13022 0.373984,0.20929 3.244649,0.35374 4.300934,0.21642 0.291042,-0.0378 0.675732,-0.2578 0.854868,-0.48881 0.255332,-0.32926 0.373759,-0.34738 0.548134,-0.0839 0.177353,0.26803 0.499486,0.24668 1.589478,-0.10535 1.228735,-0.39684 1.320508,-0.47776 0.907075,-0.79982 -0.428546,-0.33384 -0.425373,-0.34617 0.04645,-0.18042 0.350057,0.12298 0.447354,0.0823 0.315114,-0.13164 -0.109139,-0.17659 -0.04139,-0.30955 0.157737,-0.30955 0.191977,0 0.662457,-0.2906 1.045512,-0.64579 0.383055,-0.35519 0.797288,-0.56355 0.920518,-0.46302 0.12323,0.10052 -0.005,-0.089 -0.284884,-0.42108 -0.279917,-0.33212 -0.909988,-0.85172 -1.40016,-1.15466 -0.490171,-0.30294 -0.833794,-0.60823 -0.763606,-0.67842 0.187281,-0.18728 2.458509,1.42874 2.906071,2.06773 0.448014,0.63963 0.302186,1.32192 -0.709067,3.31753 -0.713451,1.40793 -2.177485,2.67501 -4.370424,3.7825 -2.390709,1.20736 -7.577356,1.68604 -10.494069,0.96852 z m 4.315639,-6.69073 c -1.592712,-0.53141 -3.011049,-1.68969 -2.78629,-2.2754 0.09128,-0.23789 1.012847,-0.99565 2.047915,-1.68393 1.577593,-1.04903 2.128187,-1.26922 3.404599,-1.36154 1.25939,-0.0911 1.761202,0.0107 2.902332,0.58899 1.435799,0.72758 2.416183,1.94066 2.417941,2.99185 7.65e-4,0.4576 -0.356691,0.77206 -1.578966,1.38906 -1.311489,0.66204 -1.884703,0.79479 -3.373437,0.78124 -0.986416,-0.009 -2.351758,-0.2026 -3.034094,-0.43027 z m 14.866652,-3.9982 c 0,-0.1163 0.446485,-0.16897 0.992188,-0.11704 1.701566,0.16192 1.840158,0.26592 0.396875,0.29781 -0.763985,0.0169 -1.389063,-0.0645 -1.389063,-0.18077 z m -1.521354,-0.49615 c -0.327422,-0.2284 -0.595312,-0.54056 -0.595312,-0.6937 0,-0.15314 0.26789,-0.0347 0.595312,0.26318 0.327422,0.29788 0.773906,0.60689 0.992188,0.68669 0.352777,0.12896 0.352777,0.14586 0,0.15209 -0.218282,0.004 -0.664766,-0.17986 -0.992188,-0.40826 z m -14.338241,-1.72354 c -1.82477,-0.3174 -1.903935,-0.48245 -0.147696,-0.30792 0.873125,0.0868 1.766094,0.25575 1.984375,0.37552 0.478818,0.26272 -0.04944,0.24328 -1.836679,-0.0676 z m 12.328637,-14.3691 c 0.157039,-1.14573 0.127072,-1.26173 -0.285084,-1.10357 -0.253314,0.0972 -0.512632,0.17673 -0.576263,0.17673 -0.06363,0 -0.04638,0.32743 0.03834,0.72761 0.128383,0.60644 0.105003,0.6505 -0.140398,0.26458 -0.407919,-0.64149 -0.793818,-0.57887 -0.81521,0.13229 l -0.01791,0.59532 -0.287878,-0.59704 c -0.1765,-0.36605 -0.706986,-0.71666 -1.371155,-0.90622 -0.595803,-0.17005 -1.202341,-0.39098 -1.347861,-0.49096 -0.145521,-0.1 -0.567002,-0.25372 -0.936625,-0.34165 -1.312918,-0.31232 -4.098664,-1.7186 -3.693584,-1.86456 0.583882,-0.210384 7.737397,-0.685745 7.988076,-0.530817 0.117704,0.07274 0.214008,0.0062 0.214008,-0.147934 0,-0.445582 1.249309,-0.32448 1.4269,0.138316 0.254061,0.662075 0.190753,0.904405 -0.236276,0.904405 -0.218281,0 -0.396874,0.12609 -0.396874,0.2802 0,0.1541 0.105571,0.21495 0.234604,0.1352 0.525852,-0.32499 0.757892,0.54562 0.548137,2.05661 -0.118037,0.85028 -0.283422,1.61478 -0.367524,1.69888 -0.0841,0.0841 -0.07394,-0.42323 0.02257,-1.12739 z"
         id="path94" /><path
         style="fill:#4a290e"
         d="m 27.46808,130.97017 c -1.823017,-0.25638 -5.342007,-1.70563 -7.132208,-2.93732 -1.44568,-0.99466 -2.302232,-2.26304 -2.959043,-4.38177 -0.668096,-2.15512 -0.424636,-2.48132 0.977574,-1.30981 2.542594,2.12428 5.091491,3.25703 9.241433,4.10699 4.408567,0.90292 12.135617,-0.49448 13.912768,-2.51606 0.818901,-0.93154 0.863548,-0.58438 0.164973,1.28273 -1.544685,4.12854 -7.787578,6.65779 -14.205497,5.75524 z m 4.546503,-6.53164 c -1.479958,-0.33237 -2.378383,-0.74333 -3.197693,-1.4627 -0.496842,-0.43623 -0.903348,-0.89415 -0.903348,-1.01761 0,-0.12346 0.506015,-0.57212 1.124479,-0.99704 1.106175,-0.76 1.15032,-0.76726 2.711979,-0.44624 0.873125,0.17948 1.698659,0.26275 1.834521,0.18505 0.35184,-0.20122 -0.623459,-0.5386 -1.620469,-0.56056 -2.003098,-0.0441 -0.696419,-1.03744 1.638031,-1.24521 1.092002,-0.0972 1.552363,0.0111 2.63742,0.62058 1.359888,0.76382 2.521955,2.1635 2.521955,3.03765 0,0.81336 -2.948287,2.0734 -4.7625,2.0354 -0.800364,-0.0168 -1.693333,-0.084 -1.984375,-0.14932 z m 0.926042,-3.25936 c -0.363802,-0.11651 -1.018646,-0.22188 -1.455208,-0.23416 -0.60461,-0.017 -0.69918,0.0388 -0.396875,0.23416 0.218281,0.14106 0.873124,0.24643 1.455208,0.23416 0.918137,-0.0194 0.970711,-0.0504 0.396875,-0.23416 z"
         id="path93" /></g></g></svg>
