<?xml version="1.0" encoding="UTF-8" standalone="no"?>
<!-- Created with Inkscape (http://www.inkscape.org/) -->

<svg
   width="50.829853mm"
   height="62.17783mm"
   viewBox="0 0 50.829853 62.17783"
   version="1.1"
   id="svg1"
   inkscape:export-filename="mountain-climber.svg"
   inkscape:export-xdpi="96"
   inkscape:export-ydpi="96"
   xml:space="preserve"
   xmlns:inkscape="http://www.inkscape.org/namespaces/inkscape"
   xmlns:sodipodi="http://sodipodi.sourceforge.net/DTD/sodipodi-0.dtd"
   xmlns="http://www.w3.org/2000/svg"
   xmlns:svg="http://www.w3.org/2000/svg"><sodipodi:namedview
     id="namedview1"
     pagecolor="#ffffff"
     bordercolor="#000000"
     borderopacity="0.25"
     inkscape:showpageshadow="2"
     inkscape:pageopacity="0.0"
     inkscape:pagecheckerboard="0"
     inkscape:deskcolor="#d1d1d1"
     inkscape:document-units="mm"><inkscape:page
       x="-1.6601466e-13"
       y="0"
       width="50.829849"
       height="62.17783"
       id="page2"
       margin="0"
       bleed="0" /></sodipodi:namedview><defs
     id="defs1" /><g
     inkscape:label="Calque 1"
     inkscape:groupmode="layer"
     id="layer1"
     transform="translate(-102.66021,-129.32614)"><g
       id="g235"
       transform="translate(25.960734,18.598735)"><path
         style="fill:#d2e6f4"
         d="m 76.729164,141.81667 v -31.08854 h 25.399996 25.4 v 31.08854 31.08854 h -25.4 -25.399996 z"
         id="path241" /><path
         style="fill:#c5dbeb"
         d="m 86.254164,172.72831 c 0.218281,-0.0743 0.772056,-0.30304 1.230611,-0.50828 0.458555,-0.20523 0.966186,-0.37315 1.128069,-0.37315 0.161884,0 0.501077,-0.11092 0.753764,-0.24649 0.252687,-0.13557 1.411931,-0.62677 2.576098,-1.09156 3.39712,-1.35628 11.810014,-5.68509 12.303124,-6.3305 0.0728,-0.0952 0.66807,-0.43277 1.32292,-0.75008 0.65484,-0.31731 1.59371,-0.93418 2.08637,-1.37082 0.49266,-0.43664 0.98741,-0.79389 1.09945,-0.79389 0.20193,0 1.8258,-1.26616 3.2349,-2.5223 0.40269,-0.35898 0.90871,-0.6527 1.12447,-0.6527 0.21577,0 0.39231,-0.17859 0.39231,-0.39687 0,-0.22968 0.2508,-0.40471 0.59531,-0.41547 0.56803,-0.0177 0.57106,-0.029 0.0661,-0.24599 -0.49992,-0.21482 -0.4954,-0.22842 0.0818,-0.24599 0.3365,-0.0102 0.53747,-0.13744 0.4474,-0.28318 -0.0899,-0.14552 0.002,-0.26458 0.20426,-0.26458 0.20228,0 0.52931,-0.30182 0.72673,-0.67071 0.1981,-0.37014 0.51456,-0.611 0.70617,-0.53747 0.19097,0.0733 0.34722,-0.0406 0.34722,-0.25309 0,-0.21248 0.23812,-0.53504 0.52916,-0.7168 0.29105,-0.18176 0.52917,-0.48042 0.52917,-0.6637 0,-0.18328 0.11803,-0.33323 0.26228,-0.33323 0.31447,0 1.85439,-1.5706 1.85439,-1.89133 0,-0.12393 0.17859,-0.22534 0.39687,-0.22534 0.21828,0 0.39688,-0.1744 0.39688,-0.38756 0,-0.21316 0.23812,-0.51501 0.52916,-0.67077 0.29105,-0.15576 0.52917,-0.45761 0.52917,-0.67077 0,-0.21316 0.23813,-0.38756 0.52917,-0.38756 0.43404,0 0.53022,-0.17835 0.53504,-0.99219 0.005,-0.85572 0.18703,-1.15107 1.32292,-2.14734 1.0082,-0.88428 1.31704,-1.33409 1.31704,-1.91823 v -0.76308 h -8.04775 c -5.72694,0 -8.07636,-0.0859 -8.14698,-0.29771 -0.0639,-0.19183 -0.40112,-0.2314 -0.94809,-0.11127 -0.62202,0.13662 -0.85705,0.33991 -0.87954,0.76073 -0.0239,0.44747 -0.0574,0.47205 -0.15169,0.11127 -0.0666,-0.25466 -0.23134,-0.46302 -0.36619,-0.46302 -0.31481,0 -0.30873,0.10022 0.0545,0.8974 0.25345,0.55628 0.35546,0.60192 0.66145,0.29593 0.19898,-0.19898 0.36179,-0.54888 0.36179,-0.77755 0,-0.27068 0.23852,-0.41578 0.6835,-0.41578 0.43265,0 0.64069,0.12139 0.56684,0.33073 -0.0642,0.1819 -0.31625,0.31352 -0.56019,0.29249 -0.33003,-0.0285 -0.40012,0.0985 -0.27391,0.49615 0.0996,0.31387 0.0647,0.46956 -0.0846,0.37727 -0.13984,-0.0864 -0.38458,0.12892 -0.54387,0.47853 -0.1593,0.34962 -0.19302,0.67331 -0.0749,0.71931 0.11807,0.046 0.28248,0.67896 0.36534,1.40656 0.0829,0.72761 0.0905,1.11456 0.0169,0.8599 -0.14503,-0.50184 -0.62418,-0.64082 -0.62418,-0.18104 0,0.15508 0.12325,0.51227 0.27389,0.79375 0.1888,0.35277 0.1888,0.51177 0,0.51177 -0.15064,0 -0.27768,-0.14883 -0.2823,-0.33073 -0.005,-0.1863 -0.17805,-0.10646 -0.39686,0.18283 -0.30617,0.40479 -0.31839,0.56258 -0.0577,0.74494 0.20826,0.14571 0.11029,0.16937 -0.2646,0.0639 -0.6861,-0.19299 -0.80962,0.25115 -0.16948,0.60939 0.39139,0.21903 0.39139,0.25152 0,0.40172 -0.30282,0.1162 -0.42584,0.5024 -0.42584,1.33691 v 1.17351 l 1.32576,-0.50374 c 0.72916,-0.27706 1.81668,-0.50375 2.4167,-0.50375 1.17973,0 3.18101,-0.50803 3.02101,-0.76689 -0.0541,-0.0875 0.42837,-0.11721 1.07217,-0.066 1.85632,0.1478 2.14255,1.34287 0.72712,3.03595 -0.34389,0.41135 -0.62526,0.96232 -0.62526,1.22438 0,0.65428 -0.48692,0.9883 -1.62525,1.11492 -0.71597,0.0796 -1.03912,-0.0134 -1.25677,-0.36193 -0.39301,-0.62931 -0.36979,-0.89087 0.1228,-1.38346 0.37797,-0.37797 0.37797,-0.41577 0,-0.41577 -0.22868,0 -0.41578,0.17859 -0.41578,0.39687 0,0.21829 -0.12609,0.39688 -0.28019,0.39688 -0.15411,0 -0.19525,-0.13746 -0.0914,-0.30546 0.10384,-0.16801 0.0811,-0.24726 -0.0505,-0.17613 -0.13162,0.0711 -0.81001,0.39023 -1.50754,0.70908 -0.69752,0.31885 -1.19735,0.6944 -1.11073,0.83455 0.0866,0.14015 -0.0152,0.18853 -0.22637,0.10752 -0.21112,-0.081 -0.46046,-0.0234 -0.55408,0.12813 -0.24868,0.40237 -2.20372,0.87394 -2.81665,0.67941 -0.58132,-0.18451 -1.82915,-1.99157 -1.82915,-2.64892 0,-0.22976 -0.10796,-0.35102 -0.23991,-0.26947 -0.13195,0.0815 -0.1776,-0.09 -0.10143,-0.38126 0.0798,-0.305 0.008,-0.52953 -0.16857,-0.52953 -0.16887,0 -0.28771,-0.14883 -0.26409,-0.33073 0.0874,-0.67276 -0.0271,-1.01889 -0.28434,-0.8599 -0.14891,0.092 -0.26458,-0.12011 -0.26458,-0.48524 0,-0.36978 -0.19593,-0.72395 -0.45561,-0.8236 -0.35096,-0.13468 -0.37686,-0.2235 -0.11274,-0.38674 0.50411,-0.31155 -0.41448,-1.17501 -0.987119,-0.92787 -0.712782,0.30761 -1.874844,0.33896 -2.050153,0.0553 -0.105208,-0.17023 0.124967,-0.20293 0.636917,-0.0905 0.518676,0.11393 0.872574,0.0613 1.002546,-0.14896 0.136295,-0.22053 0.06969,-0.27469 -0.207155,-0.16845 -0.22442,0.0861 -0.511842,0.0622 -0.638716,-0.0532 -0.126873,-0.11536 -0.556385,-0.28649 -0.954471,-0.38029 -0.704396,-0.16596 -0.715418,-0.15092 -0.411305,0.56116 0.171869,0.40242 0.409014,0.86383 0.526991,1.02535 0.271897,0.37224 0.169563,3.0191 -0.110044,2.8463 -0.11434,-0.0707 -0.207891,0.83807 -0.207891,2.01941 0,1.19442 0.104979,2.08302 0.236485,2.00174 0.130067,-0.0804 0.244012,0.12095 0.253212,0.44741 0.0092,0.32645 0.02934,0.99682 0.04476,1.4897 0.01542,0.49289 -0.06876,0.99125 -0.187066,1.10748 -0.380551,0.37387 -4.269022,1.30367 -5.452015,1.30367 -1.094457,0 -2.303713,-0.68847 -2.303713,-1.31159 0,-0.56432 0.344786,-1.10341 0.522156,-0.81642 0.225085,0.36419 3.213628,-1.76839 3.859469,-2.75407 0.401583,-0.61289 0.404038,-0.80534 0.02965,-2.32483 -0.224496,-0.91115 -0.71356,-2.65239 -1.086808,-3.86942 -0.373249,-1.21704 -0.678633,-2.54191 -0.678633,-2.94417 0,-0.40225 -0.178594,-0.87959 -0.396875,-1.06075 -0.536313,-0.4451 -0.499913,-1.14766 0.08698,-1.67879 0.758312,-0.68626 0.929253,-0.51393 0.327912,0.33057 -0.611439,0.85869 -0.670103,1.08364 -0.2826,1.08364 0.145521,0 0.264584,-0.15632 0.264584,-0.34738 0,-0.79421 1.57844,-1.85334 3.458251,-2.32048 1.038758,-0.25814 2.054816,-0.40558 2.257908,-0.32764 0.203091,0.0779 0.369257,0.0217 0.369257,-0.12484 0,-0.2648 -0.485149,-0.25373 -2.513541,0.0573 -0.769002,0.11792 -0.913668,0.0937 -0.529167,-0.0885 0.291042,-0.13796 0.79003,-0.2592 1.108864,-0.26943 0.318834,-0.0102 0.644649,-0.12369 0.724033,-0.25214 0.200795,-0.32489 -1.181489,-0.18588 -1.882564,0.18932 -0.853563,0.45682 -1.382116,0.35684 -0.611791,-0.11572 0.363802,-0.22318 0.423333,-0.30825 0.132291,-0.18906 -0.291041,0.11919 -4.487995,0.24958 -9.326562,0.28976 l -8.797396,0.073 V 126.87418 110.7274 l 25.399999,0.003 25.4,0.003 v 31.08555 31.08554 h -5.82083 c -3.20146,0 -5.82083,-0.0953 -5.82083,-0.21167 0,-0.11641 0.14287,-0.35454 0.3175,-0.52916 0.22944,-0.22945 0.23361,-0.3175 0.015,-0.3175 -0.16637,0 -0.47088,0.2404 -0.67669,0.53423 -0.35943,0.51315 -0.6129,0.53142 -6.42559,0.46302 l -6.0514,-0.0712 1.40774,-0.90303 c 0.77426,-0.49667 1.54566,-1.03489 1.71423,-1.19605 0.16858,-0.16116 0.96134,-0.75689 1.76171,-1.32385 1.45401,-1.02998 2.19628,-1.66973 4.56854,-3.93751 0.69369,-0.66314 1.49736,-1.28064 1.78594,-1.37223 0.28857,-0.0916 0.52468,-0.30884 0.52468,-0.48278 0,-0.17394 0.29542,-0.5381 0.65648,-0.80924 0.36107,-0.27115 0.59367,-0.59463 0.5169,-0.71884 -0.17184,-0.27806 -1.17338,0.31481 -1.17338,0.6946 0,0.15115 -0.2632,0.44993 -0.58489,0.66396 -0.3217,0.21402 -0.92066,0.71105 -1.33103,1.1045 -1.10304,1.05755 -2.22172,1.80567 -2.41342,1.61397 -0.0927,-0.0927 -0.17072,1e-4 -0.17334,0.20625 -0.004,0.34712 -1.8724,2.09462 -2.23903,2.09462 -0.0895,0 -0.42493,0.27016 -0.7454,0.60035 -0.81199,0.8366 -2.47505,2.04549 -2.81398,2.04549 -0.15523,0 -0.28224,0.0934 -0.28224,0.20753 0,0.25388 -1.64193,1.26054 -1.91823,1.17606 -0.10914,-0.0334 -0.19844,0.0584 -0.19844,0.20391 0,0.1711 -2.874442,0.2572 -8.135937,0.24369 -4.474765,-0.0115 -7.957343,-0.0817 -7.739062,-0.15601 z"
         id="path240" /><path
         style="fill:#b6d2e4"
         d="m 103.77033,172.57448 c 0.63346,-0.58841 2.86462,-2.05052 3.12907,-2.05052 0.14127,0 0.25685,-0.0989 0.25685,-0.21973 0,-0.12085 0.56554,-0.62074 1.25677,-1.11086 0.69122,-0.49012 1.3163,-0.96292 1.38906,-1.05066 0.0728,-0.0877 0.69784,-0.56054 1.38906,-1.05066 0.69123,-0.49012 1.25677,-0.98055 1.25677,-1.08984 0,-0.10929 0.36188,-0.27819 0.80418,-0.37533 0.62589,-0.13747 0.77009,-0.28405 0.65041,-0.66115 -0.1069,-0.3368 0.0109,-0.53678 0.38644,-0.65597 0.29712,-0.0943 0.54022,-0.2825 0.54022,-0.41821 0,-0.45967 0.75703,-0.2501 0.91698,0.25384 0.0874,0.27533 0.39306,0.56184 0.67929,0.63669 0.28622,0.0748 0.52177,0.35559 0.52344,0.62388 0.002,0.30643 0.3954,0.67577 1.05833,0.99338 0.58041,0.27807 1.0553,0.60549 1.0553,0.7276 0,0.32509 -0.72278,0.27082 -1.31448,-0.0987 -0.68988,-0.43084 -1.07078,-8.8e-4 -0.42047,0.47463 0.30882,0.22582 0.37478,0.37525 0.16562,0.37525 -0.26179,0 -0.2744,0.0881 -0.0511,0.35723 0.35549,0.42834 -0.13627,1.5583 -1.15796,2.66072 -0.36367,0.39241 -0.66123,0.76551 -0.66123,0.82911 0,0.0636 -0.20505,0.35512 -0.45567,0.64783 -0.43013,0.50235 -0.7724,0.53219 -6.10432,0.53219 -4.53241,0 -5.57828,-0.0654 -5.29259,-0.33073 z m 12.38175,0.0414 c 0,-0.15915 0.22989,-0.34948 0.51086,-0.42295 0.30375,-0.0794 0.45317,-0.28392 0.36857,-0.5044 -0.0783,-0.20394 -0.0105,-0.3708 0.1506,-0.3708 0.16109,0 0.29289,-0.15231 0.29289,-0.33847 0,-0.18615 0.23812,-0.51009 0.52916,-0.71986 0.29105,-0.20978 0.52917,-0.50525 0.52917,-0.65662 0,-0.15136 0.41443,-0.75016 0.92097,-1.33065 0.50653,-0.58049 0.92325,-1.2638 0.92604,-1.51846 0.003,-0.25467 0.11764,-0.46302 0.25522,-0.46302 0.13758,0 0.40547,-0.28099 0.59531,-0.62442 0.18984,-0.34342 0.74842,-1.1471 1.24127,-1.78593 0.86444,-1.12048 0.89866,-1.07223 0.39596,0.55826 -0.0958,0.31064 -0.0412,0.52917 0.13229,0.52917 0.16249,0 0.29544,-0.29766 0.29544,-0.66146 0,-0.41157 0.14993,-0.66146 0.39688,-0.66146 0.28481,0 0.39687,-0.29083 0.39687,-1.03002 0,-0.67151 0.13814,-1.08304 0.39688,-1.18232 0.21828,-0.0838 0.39687,-0.38442 0.39687,-0.66813 0,-0.79639 0.28372,-1.35286 0.68977,-1.35286 0.2536,0 0.36856,0.33011 0.36856,1.05833 0,0.99954 0.0441,1.05834 0.79375,1.05834 h 0.79375 v 5.68854 5.68854 h -5.68854 c -3.94062,0 -5.68854,-0.0889 -5.68854,-0.28935 z M 90.75955,161.49817 c -0.629389,-0.25117 -1.053246,-0.6854 -1.061751,-1.08773 -0.0022,-0.1054 0.376524,-0.38845 0.841672,-0.62898 1.561514,-0.80749 3.359723,-2.30975 3.674537,-3.06978 0.335162,-0.80915 0.262952,-1.18689 -1.178278,-6.16376 -0.379266,-1.30969 -0.691055,-2.87121 -0.692863,-3.47005 -0.0064,-2.10777 1.707547,-3.21977 5.354526,-3.47405 1.127786,-0.0786 2.050521,-0.17052 2.050521,-0.20419 0,-0.0337 -0.171731,-0.54796 -0.381625,-1.14286 -0.209893,-0.5949 -0.50065,-1.72551 -0.646126,-2.51247 -0.145477,-0.78695 -0.569058,-1.87961 -0.941293,-2.42813 -0.789722,-1.16372 -0.793181,-1.19106 -0.29999,-2.37143 0.29979,-0.7175 0.309318,-0.95781 0.04662,-1.17583 -0.230062,-0.19094 -0.424541,-0.17966 -0.641383,0.0372 -0.23855,0.23855 -0.311204,0.23708 -0.311204,-0.006 0,-0.17462 -0.160141,-0.3175 -0.355868,-0.3175 -0.567258,0 -1.24261,-0.9161 -1.389923,-1.88541 -0.106458,-0.70049 0.0099,-1.05825 0.540476,-1.66147 0.371882,-0.42282 0.676148,-0.85815 0.676148,-0.96742 0,-0.10926 0.267891,-0.12962 0.595313,-0.0452 0.530296,0.13665 0.555654,0.10505 0.232186,-0.28936 -0.270275,-0.32954 -0.287775,-0.53355 -0.06844,-0.79783 0.162076,-0.19529 0.221843,-0.42791 0.132814,-0.51694 -0.08903,-0.089 -0.07968,-0.70996 0.02078,-1.37985 0.256355,-1.70949 1.244979,-2.32719 3.452981,-2.15744 1.14216,0.0878 1.40972,0.0538 0.95378,-0.12126 -0.34855,-0.13381 -0.56711,-0.30992 -0.48569,-0.39135 0.28989,-0.28988 1.29404,0.46121 1.14296,0.85491 -0.0824,0.21468 -0.0465,0.32647 0.0798,0.24842 0.12628,-0.0781 0.54163,0.17013 0.92301,0.5515 0.38137,0.38138 0.6934,0.55733 0.6934,0.391 0,-0.16633 -0.29765,-0.56122 -0.66145,-0.87754 -0.36381,-0.31633 -0.65797,-0.70249 -0.65371,-0.85815 0.004,-0.15566 0.35633,0.10008 0.78237,0.56831 0.73244,0.80499 0.76681,0.94541 0.63148,2.57991 -0.1316,1.58927 -0.10402,1.71617 0.34211,1.57447 0.46075,-0.14633 0.46173,-0.13475 0.0193,0.22953 -0.41959,0.34546 -0.42492,0.4177 -0.0536,0.72585 0.32906,0.27309 0.34301,0.38626 0.0691,0.56034 -0.20644,0.13119 0.11059,0.20208 0.79543,0.17786 0.77165,-0.0273 1.21638,-0.18546 1.37975,-0.49072 0.13259,-0.24775 0.17395,-0.51757 0.0919,-0.5996 -0.082,-0.082 0.13051,-0.0874 0.47233,-0.0118 0.49462,0.10929 0.54047,0.0795 0.22461,-0.14616 -0.29844,-0.21318 -0.3098,-0.28449 -0.0458,-0.28754 0.1931,-0.002 0.70827,-0.36124 1.14484,-0.7978 1.1652,-1.16521 2.598,-1.11837 3.84196,0.12559 0.50564,0.50564 0.8439,1.04142 0.75168,1.19062 -0.10491,0.16976 0.27166,0.27129 1.00618,0.27129 1.39919,0 2.11844,0.58748 1.27311,1.03988 -0.29087,0.15567 -0.82956,0.28304 -1.19708,0.28304 -0.54992,0 -0.72415,0.18663 -0.98404,1.05407 -0.1737,0.57974 -0.51785,1.23691 -0.76478,1.46038 -0.54399,0.49231 -2.64482,0.75759 -2.64482,0.33398 0,-0.15994 -0.0678,-0.22301 -0.15064,-0.14016 -0.13326,0.13326 0.44035,1.63568 1.25416,3.28491 0.41242,0.83578 -0.0559,2.00601 -0.89224,2.22969 -0.83064,0.22215 -1.89288,-0.25908 -3.37817,-1.53044 -0.60046,-0.51397 -1.16124,-0.865 -1.24617,-0.78008 -0.51368,0.51369 0.34474,5.33521 1.02693,5.76795 0.18888,0.11981 0.25212,0.21967 0.14052,0.22189 -0.11159,0.002 0.0968,0.59541 0.46302,1.31818 0.36626,0.72276 0.66592,1.56323 0.66592,1.86769 0,0.30447 0.11906,0.48 0.26458,0.39006 0.35882,-0.22176 0.3291,0.0561 -0.15559,1.45521 -0.22686,0.65484 -0.62413,1.42875 -0.88283,1.71979 -0.6088,0.68493 -0.97424,1.3211 -0.64034,1.11474 0.15737,-0.0973 0.21153,0.44441 0.14138,1.41411 l -0.11369,1.57175 0.89167,-0.36223 c 0.49044,-0.19923 1.68752,-0.43977 2.66018,-0.53453 0.97267,-0.0948 2.26756,-0.34838 2.87753,-0.56359 1.69421,-0.59775 2.48933,-0.51364 2.86127,0.30267 0.2645,0.58052 0.239,0.80283 -0.15597,1.36003 -0.77216,1.08927 -0.83931,1.2103 -1.24599,2.24549 -0.34641,0.88175 -0.49226,0.99219 -1.31044,0.99219 -0.50635,0 -1.11264,-0.19201 -1.34732,-0.42668 -0.38604,-0.38604 -0.38784,-0.48595 -0.0189,-1.04903 0.22427,-0.34229 0.40777,-0.68766 0.40777,-0.76749 0,-0.23903 -2.94376,1.08576 -4.49791,2.0242 -1.3743,0.82985 -2.65987,1.06437 -3.35128,0.61136 -0.31523,-0.20654 -0.83017,-1.06248 -1.14431,-1.90208 -0.31414,-0.83961 -0.69588,-1.67684 -0.84831,-1.86051 -0.15243,-0.18367 -0.21191,-0.33394 -0.13218,-0.33394 0.16146,0 -0.62386,-2.3155 -0.97077,-2.86231 -0.12169,-0.19182 -0.394,-0.28248 -0.60512,-0.20147 -0.211111,0.081 -0.319609,0.0434 -0.241098,-0.0837 0.07851,-0.12703 -0.42132,-0.373 -1.110737,-0.5466 -0.689416,-0.1736 -1.264951,-0.27666 -1.278965,-0.22902 -0.01401,0.0476 -0.241736,-0.092 -0.506048,-0.31026 -0.427171,-0.35278 -0.462997,-0.35278 -0.32244,0 0.747767,1.87678 0.80757,2.45181 0.497326,4.78201 -0.269563,2.02464 -0.254667,2.61117 0.101191,3.98448 0.692676,2.67312 0.598582,2.85358 -1.861215,3.56947 -2.26253,0.65848 -3.572624,0.75316 -4.622739,0.33408 z m -14.016508,-41.70806 -0.01388,-9.06198 h 8.891849 c 8.353467,0 8.882086,0.028 8.730601,0.46302 -0.15206,0.43663 -0.140551,0.43643 0.201974,-0.004 0.335871,-0.43154 1.014084,-0.46143 9.006644,-0.39688 l 8.64341,0.0698 -2.91819,1.45521 c -1.60501,0.80036 -2.91926,1.5445 -2.92057,1.65364 -0.001,0.10914 -0.19287,0.19844 -0.42568,0.19844 -0.54215,0 -5.58524,2.83769 -6.453168,3.63112 -0.362315,0.33122 -0.868331,0.60221 -1.124479,0.60221 -0.256149,0 -0.465725,0.10885 -0.465725,0.24189 0,0.13304 -0.565546,0.60682 -1.25677,1.05285 -1.642116,1.05961 -2.4992,1.66721 -2.929316,2.07663 -0.192295,0.18304 -0.489951,0.33508 -0.661458,0.33788 -0.171507,0.003 -0.786779,0.41951 -1.367272,0.92604 -0.580493,0.50653 -1.152737,0.92096 -1.271654,0.92096 -0.118916,0 -0.813724,0.58816 -1.544017,1.30703 -0.741292,0.72969 -1.485815,1.24639 -1.685524,1.16975 -0.208791,-0.0801 -0.52661,0.17435 -0.763386,0.61121 -0.373505,0.68913 -0.564081,0.52868 -0.446602,-0.37601 0.02362,-0.1819 -0.140866,-0.33073 -0.365527,-0.33073 -0.22466,0 -0.408473,-0.17859 -0.408473,-0.39687 0,-0.28073 -0.290372,-0.39934 -0.992188,-0.40529 -0.545703,-0.005 -1.192653,-0.16081 -1.437667,-0.34707 -0.56432,-0.429 -0.88549,-1.64322 -0.497992,-1.8827 0.159517,-0.0986 0.460745,-0.58783 0.669396,-1.0872 0.208651,-0.49937 0.534269,-0.91169 0.723596,-0.91626 0.449541,-0.0109 1.341184,-1.23955 1.036275,-1.42799 -0.129128,-0.0798 -0.694851,0.40483 -1.257162,1.07698 -0.562311,0.67214 -1.32004,1.53624 -1.683842,1.92021 -0.363802,0.38397 -1.197239,1.41024 -1.852083,2.2806 -0.654844,0.87036 -1.279922,1.62216 -1.389062,1.67066 -0.109141,0.0485 -0.198438,0.25687 -0.198438,0.46302 0,0.20616 -0.164071,0.37483 -0.364603,0.37483 -0.200532,0 -0.551474,0.26789 -0.779872,0.59531 -0.380917,0.54607 -0.416417,-0.15432 -0.429147,-8.46666 z m 20.768306,0.78409 c -0.04542,-0.0454 0.0472,-0.35759 0.205817,-0.6937 0.265585,-0.56277 1.446677,-1.26785 2.224238,-1.32781 0.179177,-0.0138 0.714957,-0.37939 1.190627,-0.81238 1.08068,-0.98374 3.30333,-2.24968 3.94982,-2.24968 0.26779,0 0.49107,-0.14883 0.49617,-0.33073 0.009,-0.30759 3.85467,-2.31511 4.43532,-2.31511 0.14371,0 0.31842,-0.14882 0.38823,-0.33073 0.0698,-0.1819 0.79694,-0.55842 1.61581,-0.83672 0.81888,-0.2783 1.48887,-0.60572 1.48887,-0.7276 0,-0.12189 3.15515,-0.22161 7.01146,-0.22161 h 7.01145 v 4.6302 4.63021 h -13.75833 c -7.96884,0 -13.75833,0.10013 -13.75833,0.23794 0,0.21751 -2.310192,0.53868 -2.501152,0.34772 z"
         id="path239" /><path
         style="fill:#9db2d5"
         d="m 90.15385,161.06883 c -0.621996,-0.6873 -0.592944,-0.78137 0.399793,-1.29448 1.867062,-0.96503 3.590235,-2.45342 3.765787,-3.2527 0.170494,-0.77626 0.06905,-1.25898 -1.310933,-6.23832 -0.36297,-1.30968 -0.661964,-2.77958 -0.664431,-3.26644 -0.01012,-1.99761 1.824037,-3.16699 5.353327,-3.41307 1.127786,-0.0786 2.050521,-0.15611 2.050521,-0.17216 0,-0.0161 -0.238125,-0.86186 -0.529167,-1.87958 -0.291042,-1.01772 -0.529167,-2.0825 -0.529167,-2.36618 0,-0.28369 -0.311138,-0.96476 -0.691419,-1.51351 -0.700425,-1.01071 -0.728145,-1.44178 -0.222655,-3.46249 0.164779,-0.65871 0.114536,-0.72761 -0.530642,-0.72761 -0.795988,0 -2.25945,-1.28062 -2.25945,-1.97716 0,-0.91447 0.811592,-2.00838 1.608272,-2.16772 0.714584,-0.14292 0.753452,-0.20065 0.398867,-0.59246 -0.230193,-0.25436 -0.305401,-0.57564 -0.181631,-0.77591 0.116181,-0.18798 0.157514,-0.62283 0.09185,-0.96633 -0.204357,-1.06902 0.43207,-2.48621 1.323525,-2.94719 0.985055,-0.5094 2.878393,-0.36674 3.509563,0.26442 0.2371,0.23711 0.64798,0.4311 0.91306,0.4311 0.60523,0 0.80209,0.50541 0.80714,2.07216 0.002,0.67933 0.16968,1.71138 0.3722,2.29347 0.32011,0.9201 0.47512,1.06055 1.18671,1.0753 0.52929,0.011 1.02176,-0.19938 1.39372,-0.59531 0.31637,-0.33676 0.65687,-0.61228 0.75667,-0.61228 0.0998,0 0.6233,-0.41672 1.16334,-0.92605 0.57481,-0.54211 1.25217,-0.92604 1.63382,-0.92604 0.87134,0 1.89501,0.70165 2.37342,1.62679 0.32969,0.63756 0.55308,0.75446 1.44168,0.75446 0.75832,0 1.05154,0.11067 1.05154,0.39688 0,0.2839 -0.28932,0.39687 -1.01645,0.39687 -0.94944,0 -1.03651,0.0669 -1.32063,1.01526 -0.43723,1.45932 -1.10961,1.97529 -2.4122,1.85107 -0.58935,-0.0562 -1.07155,-0.0595 -1.07155,-0.007 0,0.0522 0.36426,0.92487 0.80947,1.93924 0.49535,1.12861 0.7777,2.17254 0.7276,2.69018 -0.0713,0.73659 -0.19079,0.85643 -0.92491,0.92753 -1.00926,0.0977 -2.13209,-0.44441 -3.52319,-1.70118 l -1.02734,-0.92814 -0.17809,0.9493 c -0.23265,1.24012 0.45397,3.95695 1.62238,6.41949 1.27655,2.69044 1.17873,4.94509 -0.2666,6.14461 -0.30202,0.25065 -0.41432,0.83357 -0.41432,2.1506 v 1.80675 l 1.12448,-0.51042 c 0.61846,-0.28073 1.64077,-0.51303 2.2718,-0.51623 0.63102,-0.003 2.04173,-0.26569 3.13491,-0.58333 1.44937,-0.42113 2.10592,-0.50337 2.42456,-0.30371 0.64108,0.40173 0.68818,1.38413 0.10422,2.17403 -0.28119,0.38037 -0.66996,1.13047 -0.86392,1.66689 -0.38076,1.05307 -1.09077,1.40688 -2.24292,1.11771 -0.75121,-0.18854 -0.93834,-1.2687 -0.26459,-1.52724 0.21828,-0.0838 0.39688,-0.28312 0.39688,-0.44302 0,-0.42196 -0.82671,-0.1236 -3.80038,1.37155 -1.95572,0.98333 -2.84564,1.29204 -3.55102,1.23185 -1.14267,-0.0975 -1.40502,-0.51576 -2.81195,-4.48303 l -0.99838,-2.8152 -1.893614,-0.59484 c -1.041489,-0.32716 -2.056296,-0.65595 -2.255126,-0.73065 -0.297187,-0.11164 -0.303788,-0.028 -0.0371,0.47036 0.710779,1.3281 0.809066,2.25042 0.486822,4.56829 -0.284446,2.046 -0.266883,2.52859 0.150603,4.13822 0.259929,1.00217 0.431593,2.03052 0.381475,2.28522 -0.122118,0.6206 -2.169496,1.19539 -4.856542,1.36346 -1.855646,0.11606 -2.176878,0.0693 -2.579688,-0.37583 z m -13.404501,-46.10737 -0.04987,-4.23333 h 2.916957 c 3.337495,0 3.34738,0.011 1.737394,1.92741 -0.354093,0.42149 -1.644355,2.52189 -2.919939,4.75332 -0.561507,0.98226 -1.159015,1.78593 -1.327794,1.78593 -0.217909,0 -0.32133,-1.22725 -0.356745,-4.23333 z m 6.226442,0.15332 c -0.08841,-0.35224 -0.111258,-0.79873 -0.05078,-0.99219 0.06048,-0.19347 0.18531,-0.69356 0.27741,-1.11132 0.151218,-0.68593 0.12771,-0.71982 -0.242485,-0.34963 -0.225466,0.22547 -0.409938,0.57428 -0.409938,0.77514 0,0.20087 -0.174807,0.59632 -0.38846,0.8788 -0.372827,0.49292 -0.388799,0.48501 -0.396875,-0.19644 -0.0046,-0.39051 0.36657,-1.31324 0.824884,-2.05052 l 0.833299,-1.34049 h 5.252118 c 3.434331,0 5.252118,0.0945 5.252118,0.27311 0,0.15021 -0.220962,0.35857 -0.491025,0.46302 -0.270064,0.10445 -1.294887,0.90428 -2.277385,1.77741 -2.117517,1.88179 -3.492706,2.82435 -3.269333,2.24081 0.107176,-0.27999 -0.06372,-0.40425 -0.610895,-0.44422 -0.417833,-0.0305 -0.759696,0.0588 -0.759696,0.19843 0,0.13967 -0.178593,0.25394 -0.396875,0.25394 -0.218281,0 -0.396875,-0.11907 -0.396875,-0.26459 0,-0.14552 -0.119062,-0.26458 -0.264583,-0.26458 -0.145521,0 -0.264583,0.17859 -0.264583,0.39687 0,0.28479 -0.290795,0.39688 -1.029651,0.39688 -0.86862,0 -1.054788,-0.10016 -1.190389,-0.64043 z"
         id="path238" /><path
         style="fill:#b7f644"
         d="m 90.772974,161.1935 c -1.042399,-0.53186 -0.91588,-0.85059 0.744415,-1.87538 0.86616,-0.53463 1.895739,-1.35342 2.287953,-1.81954 0.627334,-0.74554 0.696093,-1.00769 0.571597,-2.17928 -0.07783,-0.73249 -0.508551,-2.59523 -0.957147,-4.13943 -1.638895,-5.64156 -0.864663,-7.038 4.079163,-7.35732 1.932673,-0.12483 2.363552,-0.22856 2.287299,-0.55067 -0.05167,-0.21829 -0.330266,-1.40891 -0.619093,-2.64584 -0.288828,-1.23692 -0.634237,-2.42755 -0.767576,-2.64583 -1.037524,-1.69847 -1.098545,-1.9766 -0.662581,-3.02001 0.489402,-1.17131 0.377665,-1.47791 -0.538599,-1.47791 -0.750156,0 -2.212991,-1.30694 -2.212991,-1.97716 0,-0.65396 0.720156,-1.90673 1.202479,-2.09182 0.235565,-0.0904 0.67514,-0.16435 0.976834,-0.16435 0.522225,0 0.526706,-0.0241 0.09342,-0.5029 -0.274993,-0.30386 -0.350476,-0.56757 -0.19072,-0.66631 0.145418,-0.0899 0.201038,-0.55384 0.123599,-1.03104 -0.08057,-0.49648 0.0315,-1.28002 0.261991,-1.83165 0.323813,-0.77499 0.609169,-1.01958 1.455351,-1.24743 1.074597,-0.28936 2.197322,-0.0689 2.549252,0.50051 0.0955,0.1545 0.4515,0.2809 0.79114,0.2809 0.73531,0 0.93874,0.43655 0.93874,2.01452 0,0.64761 0.15939,1.56061 0.35421,2.02888 0.19482,0.46827 0.30054,1.01049 0.23493,1.20495 -0.089,0.26374 0.14029,0.33119 0.90255,0.26552 0.77007,-0.0663 1.02185,0.01 1.02185,0.3079 0,0.26762 -0.23581,0.3798 -0.72761,0.34613 -0.40018,-0.0274 -0.7276,0.0619 -0.7276,0.19844 0,0.13653 0.16954,0.24825 0.37675,0.24825 0.36308,0 0.57792,0.23369 2.28327,2.48377 0.42876,0.56572 0.77672,0.86337 0.77325,0.66146 -0.0177,-1.02877 -0.54139,-2.44694 -1.02997,-2.78916 -0.30317,-0.21234 -0.54743,-0.64722 -0.5428,-0.96639 0.008,-0.57399 0.5534,-1.50635 0.88065,-1.50635 0.0931,0 0.64552,-0.47625 1.2276,-1.05833 1.16695,-1.16695 1.98173,-1.33231 3.06554,-0.62217 0.36612,0.23989 0.84124,0.77567 1.05582,1.19062 0.32969,0.63756 0.55308,0.75446 1.44168,0.75446 0.75832,0 1.05154,0.11067 1.05154,0.39688 0,0.2839 -0.28932,0.39687 -1.01645,0.39687 -0.94944,0 -1.03651,0.0669 -1.32063,1.01526 -0.45415,1.51581 -1.11277,1.99264 -2.53147,1.83274 -1.32508,-0.14936 -1.31358,-0.266 -0.21568,2.18744 0.80019,1.78815 0.85709,2.05758 0.58544,2.77207 -0.43229,1.13701 -1.87176,0.71332 -4.02959,-1.18608 -0.65471,-0.57629 -1.26584,-0.97234 -1.35808,-0.8801 -0.29843,0.29843 -0.17161,3.08516 0.20229,4.44513 0.20005,0.72761 0.74831,2.1323 1.21837,3.12156 0.73195,1.54041 0.83877,2.01821 0.74402,3.3281 -0.0798,1.1036 -0.2726,1.70332 -0.69234,2.15386 -0.31994,0.34341 -0.58832,0.721 -0.59641,0.83908 -0.0866,1.26454 -0.008,3.65545 0.12037,3.65964 0.0905,0.003 0.53379,-0.18563 0.98521,-0.41907 0.45141,-0.23343 1.49196,-0.48075 2.31233,-0.54959 0.82037,-0.0688 2.27937,-0.31581 3.24223,-0.54882 0.96286,-0.23302 1.94512,-0.34904 2.18281,-0.25783 0.55737,0.21388 0.56345,1.45092 0.0101,2.06233 -0.23212,0.25648 -0.57754,0.9207 -0.76761,1.47604 -0.31416,0.91791 -0.44111,1.01695 -1.39653,1.08942 -0.80228,0.0609 -1.09274,-0.0291 -1.22751,-0.38035 -0.10973,-0.28595 -0.0223,-0.54639 0.23107,-0.68818 0.57436,-0.32143 0.50758,-0.99556 -0.0986,-0.99556 -0.27843,0 -1.82232,0.66873 -3.43087,1.48607 -3.24475,1.64873 -3.96691,1.70987 -4.64762,0.39353 -0.32033,-0.61945 -2.04812,-5.14982 -2.39429,-6.27797 -0.0502,-0.16352 -0.54723,-0.38217 -1.104543,-0.48588 -0.557322,-0.10371 -1.582482,-0.43262 -2.278134,-0.73091 -0.695653,-0.29829 -1.31991,-0.48726 -1.387239,-0.41994 -0.06733,0.0673 0.114888,0.61358 0.404927,1.21389 0.605901,1.25407 0.639901,1.92613 0.235128,4.64764 -0.244187,1.6418 -0.222444,2.20472 0.132291,3.42497 0.762061,2.62139 0.735127,2.67235 -1.758306,3.32668 -2.47134,0.64853 -3.488222,0.70179 -4.410877,0.23104 z"
         id="path237" /><path
         style="fill:#4e128b"
         d="m 90.772974,161.1935 c -1.042399,-0.53186 -0.91588,-0.85059 0.744415,-1.87538 0.86616,-0.53463 1.895739,-1.35342 2.287953,-1.81954 0.627334,-0.74554 0.696093,-1.00769 0.571597,-2.17928 -0.07783,-0.73249 -0.508551,-2.59523 -0.957147,-4.13943 -1.638895,-5.64156 -0.864663,-7.038 4.079163,-7.35732 1.932673,-0.12483 2.363552,-0.22856 2.287299,-0.55067 -0.05167,-0.21829 -0.330266,-1.40891 -0.619093,-2.64584 -0.288828,-1.23692 -0.634237,-2.42755 -0.767576,-2.64583 -1.010028,-1.65346 -1.091697,-1.99287 -0.703995,-2.92576 0.264577,-0.63662 0.326895,-1.37457 0.20707,-2.45207 -0.143671,-1.29192 -0.0966,-1.59377 0.29084,-1.86515 0.436056,-0.30542 0.433222,-0.3419 -0.05,-0.64368 -0.281739,-0.17595 -0.512253,-0.48291 -0.512253,-0.68214 0,-0.19923 -0.18364,-0.51465 -0.408088,-0.70092 -0.260831,-0.21647 -0.316399,-0.43038 -0.153992,-0.59278 0.139753,-0.13976 0.192663,-0.63267 0.117577,-1.09537 -0.07599,-0.46829 0.04206,-1.26866 0.26627,-1.80528 0.323813,-0.77499 0.609169,-1.01958 1.455351,-1.24743 1.074597,-0.28936 2.197325,-0.0689 2.549255,0.50051 0.0955,0.1545 0.4515,0.2809 0.79114,0.2809 0.73531,0 0.93874,0.43655 0.93874,2.01452 0,0.64761 0.16579,1.57429 0.36843,2.05927 0.20265,0.48499 0.29194,1.00196 0.19844,1.14882 -0.22757,0.35745 -1.32693,-0.0644 -1.52709,-0.58604 -0.19461,-0.50716 -0.62728,-0.52776 -0.62728,-0.0299 0,0.57862 1.4466,1.65799 2.48256,1.85234 0.55942,0.10494 1.15523,0.46239 1.48831,0.89288 0.30548,0.39484 0.90622,1.18074 1.33498,1.74645 0.42876,0.56572 0.77672,0.86337 0.77325,0.66146 -0.0177,-1.02877 -0.54139,-2.44694 -1.02997,-2.78916 -0.62403,-0.43708 -0.70461,-1.32246 -0.1829,-2.00972 0.51814,-0.68257 0.99488,-0.58335 0.80635,0.16782 -0.17001,0.67736 0.59912,2.45939 1.31954,3.05728 0.22891,0.18998 0.41621,0.44665 0.41621,0.57038 0,0.12372 0.28511,0.85328 0.63358,1.62125 0.91027,2.00609 0.96719,2.25297 0.68846,2.98609 -0.43229,1.13701 -1.87176,0.71332 -4.02959,-1.18608 -0.65471,-0.57629 -1.26584,-0.97234 -1.35808,-0.8801 -0.29843,0.29843 -0.17161,3.08516 0.20229,4.44513 0.20005,0.72761 0.74831,2.1323 1.21837,3.12156 0.73195,1.54041 0.83877,2.01821 0.74402,3.3281 -0.0798,1.1036 -0.2726,1.70332 -0.69234,2.15386 -0.31994,0.34341 -0.58832,0.721 -0.59641,0.83908 -0.0866,1.26454 -0.008,3.65545 0.12037,3.65964 0.0905,0.003 0.53379,-0.18563 0.98521,-0.41907 0.45141,-0.23343 1.49196,-0.48075 2.31233,-0.54959 0.82037,-0.0688 2.27937,-0.31581 3.24223,-0.54882 0.96286,-0.23302 1.94512,-0.34904 2.18281,-0.25783 0.55737,0.21388 0.56345,1.45092 0.0101,2.06233 -0.23212,0.25648 -0.57754,0.9207 -0.76761,1.47604 -0.31416,0.91791 -0.44111,1.01695 -1.39653,1.08942 -0.80228,0.0609 -1.09274,-0.0291 -1.22751,-0.38035 -0.10973,-0.28595 -0.0223,-0.54639 0.23107,-0.68818 0.57436,-0.32143 0.50758,-0.99556 -0.0986,-0.99556 -0.27843,0 -1.82232,0.66873 -3.43087,1.48607 -3.24475,1.64873 -3.96691,1.70987 -4.64762,0.39353 -0.32033,-0.61945 -2.04812,-5.14982 -2.39429,-6.27797 -0.0502,-0.16352 -0.54723,-0.38217 -1.104546,-0.48588 -0.557322,-0.10371 -1.582482,-0.43262 -2.278134,-0.73091 -0.695653,-0.29829 -1.31991,-0.48726 -1.387239,-0.41994 -0.06733,0.0673 0.114888,0.61358 0.404927,1.21389 0.605901,1.25407 0.639901,1.92613 0.235128,4.64764 -0.244187,1.6418 -0.222444,2.20472 0.132291,3.42497 0.762061,2.62139 0.735127,2.67235 -1.758306,3.32668 -2.47134,0.64853 -3.488222,0.70179 -4.410877,0.23104 z"
         id="path236" /><path
         style="fill:#460b78"
         d="m 97.667279,135.98856 c -0.01982,-0.44056 0.138358,-1.05 0.351502,-1.35431 0.213144,-0.3043 0.326846,-0.61397 0.252671,-0.68814 -0.07417,-0.0742 -0.184903,-0.78696 -0.246065,-1.58397 -0.103965,-1.3548 -0.06613,-1.46964 0.581329,-1.76464 0.729698,-0.33247 0.595901,-0.69999 -0.314011,-0.86254 -0.308232,-0.0551 -0.564466,-0.34195 -0.613714,-0.68714 -0.0465,-0.32594 -0.219142,-0.59261 -0.383646,-0.59261 -0.221864,0 -0.222102,-0.077 -9.19e-4,-0.29818 0.191623,-0.19162 0.216475,-0.51307 0.06955,-0.89953 -0.36115,-0.9499 0.234888,-2.47612 1.152268,-2.95052 0.9022,-0.46654 2.349936,-0.32756 2.961836,0.28433 0.221,0.22101 0.5579,0.34194 0.74865,0.26874 0.57907,-0.22221 0.89324,0.46651 1.03652,2.27224 0.0751,0.94589 0.22167,1.98769 0.3258,2.31511 0.28107,0.88374 -0.44083,0.76544 -1.14554,-0.18773 -0.64452,-0.87176 -0.70253,-1.06904 -0.31434,-1.06904 0.14552,0 0.26459,0.17859 0.26459,0.39687 0,0.21828 0.17859,0.39688 0.39687,0.39688 0.21828,0 0.39688,-0.11907 0.39688,-0.26459 0,-0.14552 -0.0893,-0.26451 -0.19844,-0.26442 -0.10914,9e-5 -0.15695,-0.59866 -0.10624,-1.33056 0.0916,-1.32275 -0.29384,-2.26107 -0.80031,-1.94806 -0.1382,0.0854 -0.47928,-0.0511 -0.75795,-0.30324 -0.27868,-0.2522 -0.81632,-0.49253 -1.19476,-0.53407 -0.980874,-0.10768 -2.295244,0.39947 -2.132754,0.82292 0.0735,0.19153 0.0014,0.39232 -0.160181,0.44618 -0.284856,0.095 -0.326814,0.95764 -0.112715,2.3175 0.05728,0.3638 0.119337,0.86982 0.137909,1.12448 0.02053,0.28151 0.249187,0.46302 0.583286,0.46302 0.302235,0 0.887167,0.33765 1.299849,0.75033 l 0.750336,0.75033 -0.770689,0.45526 c -0.455579,0.26911 -0.770682,0.67874 -0.770682,1.00185 0,0.40715 0.08438,0.47665 0.330729,0.27239 0.258012,-0.21393 0.337411,0.0844 0.36112,1.35666 0.0195,1.04635 -0.04496,1.44123 -0.179842,1.10172 -0.115627,-0.29104 -0.2186,-0.84956 -0.228828,-1.24115 -0.01023,-0.3916 -0.14887,-0.7925 -0.308095,-0.89091 -0.159224,-0.0984 -0.235266,-0.46262 -0.168982,-0.80937 0.06628,-0.34674 0.0307,-0.63044 -0.07907,-0.63044 -0.386244,0 -0.476531,0.74036 -0.226172,1.85463 0.197838,0.88051 0.169717,1.21933 -0.128973,1.55393 -0.210087,0.23534 -0.436148,0.72555 -0.502359,1.08936 -0.108252,0.59479 -0.124015,0.58073 -0.156415,-0.13957 z"
         id="path235" /></g></g></svg>
