<?xml version="1.0" encoding="UTF-8" standalone="no"?>
<!-- Created with Inkscape (http://www.inkscape.org/) -->

<svg
   width="53.710419mm"
   height="65.616669mm"
   viewBox="0 0 53.710419 65.616669"
   version="1.1"
   id="svg1"
   inkscape:export-filename="antioxidants.svg"
   inkscape:export-xdpi="96"
   inkscape:export-ydpi="96"
   xml:space="preserve"
   xmlns:inkscape="http://www.inkscape.org/namespaces/inkscape"
   xmlns:sodipodi="http://sodipodi.sourceforge.net/DTD/sodipodi-0.dtd"
   xmlns="http://www.w3.org/2000/svg"
   xmlns:svg="http://www.w3.org/2000/svg"><sodipodi:namedview
     id="namedview1"
     pagecolor="#ffffff"
     bordercolor="#000000"
     borderopacity="0.25"
     inkscape:showpageshadow="2"
     inkscape:pageopacity="0.0"
     inkscape:pagecheckerboard="0"
     inkscape:deskcolor="#d1d1d1"
     inkscape:document-units="mm"><inkscape:page
       x="-4.483717e-13"
       y="0"
       width="53.710423"
       height="65.616669"
       id="page2"
       margin="0"
       bleed="0" /></sodipodi:namedview><defs
     id="defs1" /><g
     inkscape:label="Calque 1"
     inkscape:groupmode="layer"
     id="layer1"
     transform="translate(-91.554714,-89.934214)"><g
       id="g26"
       transform="translate(52.787823,12.420664)"><path
         style="fill:#d3e6f4"
         d="M 38.766903,110.32188 V 77.513542 H 65.62211 92.477318 v 32.808338 32.80833 H 65.62211 38.766903 Z"
         id="path33" /><path
         style="fill:#c4daea"
         d="m 52.128361,141.66286 c 2.037291,-0.79983 3.942291,-1.5603 4.233333,-1.68994 1.611614,-0.7179 8.320442,-4.13805 9.174167,-4.67698 0.550977,-0.34782 1.084063,-0.6324 1.184637,-0.6324 0.100574,0 0.370831,-0.16675 0.600571,-0.37056 0.229739,-0.20381 1.01302,-0.69744 1.740625,-1.09695 1.139396,-0.62561 3.15691,-2.03944 3.571874,-2.50308 0.07276,-0.0813 0.75737,-0.54327 1.521355,-1.02661 0.763984,-0.48334 1.389062,-0.97057 1.389062,-1.08275 0,-0.11217 0.376792,-0.38644 0.837316,-0.60948 0.862802,-0.41786 3.925184,-3.28493 3.925184,-3.67484 0,-0.12048 0.128462,-0.21906 0.285471,-0.21906 0.279007,0 2.624945,-2.20952 2.624945,-2.4723 0,-0.23678 1.620677,-1.76103 1.872436,-1.76103 0.134327,0 0.244231,-0.22424 0.244231,-0.49831 0,-0.27579 0.236295,-0.5601 0.529167,-0.63669 0.291041,-0.0761 0.529166,-0.32812 0.529166,-0.56002 0,-0.24526 0.221369,-0.42165 0.529167,-0.42165 0.440972,0 0.529167,-0.17639 0.529167,-1.05833 0,-0.774 0.108859,-1.05834 0.405179,-1.05834 0.222848,0 0.471972,-0.17406 0.553609,-0.3868 0.08164,-0.21274 0.375556,-0.45889 0.653154,-0.547 0.277598,-0.0881 0.504724,-0.39029 0.504724,-0.67153 0,-0.28123 0.178594,-0.51133 0.396875,-0.51133 0.286632,0 0.396875,-0.29398 0.396875,-1.05834 0,-0.76435 -0.110243,-1.05833 -0.396875,-1.05833 -0.218281,0 -0.396875,0.11425 -0.396875,0.25388 0,0.13964 -0.982265,0.28847 -2.182812,0.33073 -1.710108,0.0602 -2.190528,0.16279 -2.218439,0.47372 -0.109687,1.22192 -0.102498,1.20824 -0.382441,0.72761 -0.349722,-0.60044 -0.483727,-0.57829 -1.434016,0.23699 -0.436562,0.37454 -0.644922,0.60135 -0.463021,0.50403 0.181901,-0.0973 0.330729,-0.0647 0.330729,0.0724 0,0.23904 -0.976359,0.66377 -1.389062,0.60425 -0.109141,-0.0157 -0.436562,0.20951 -0.727604,0.50056 -0.291042,0.29104 -0.410104,0.52916 -0.264583,0.52916 0.682188,0 0.157572,0.49035 -0.695921,0.65047 -1.182931,0.22192 -1.828909,-0.24246 -0.870285,-0.62563 0.638011,-0.25502 0.637613,-0.25593 -0.118299,-0.27265 -0.639513,-0.0141 -0.732876,0.0662 -0.595312,0.5124 0.197023,0.63903 0.398715,1.59169 0.238067,1.12448 -0.105101,-0.30567 -0.448824,-0.4388 -0.934813,-0.36207 -0.10914,0.0172 -0.198437,-0.0948 -0.198437,-0.24886 0,-0.15411 -0.119063,-0.20662 -0.264584,-0.11668 -0.145521,0.0899 -0.264583,0.28259 -0.264583,0.42811 0,0.14552 0.119062,0.191 0.264583,0.10106 0.145521,-0.0899 0.264584,-0.0374 0.264584,0.11668 0,0.1541 -0.164016,0.28019 -0.364479,0.28019 -0.200463,0 -0.527884,0.20836 -0.727604,0.46302 -0.336775,0.42943 -0.324726,0.43423 0.166041,0.0661 0.493918,-0.37044 0.504313,-0.36523 0.156048,0.0782 -0.209383,0.26659 -0.551196,0.40672 -0.778916,0.31934 -0.300542,-0.11533 -0.275931,-0.0122 0.09488,0.39753 0.523871,0.57887 0.792615,1.43463 0.36815,1.17229 -0.13512,-0.0835 -0.183233,-0.25286 -0.106919,-0.37634 0.07632,-0.12348 -0.275542,-0.19164 -0.781904,-0.15146 -0.506362,0.0402 -0.854495,-0.034 -0.77363,-0.16485 0.08087,-0.13084 0.403965,-0.15634 0.718,-0.0567 0.499851,0.15864 0.527257,0.12855 0.220027,-0.24164 -0.318699,-0.38401 -0.431954,-0.36976 -1.232629,0.15509 -0.484927,0.31788 -0.809229,0.69935 -0.720672,0.84772 0.08856,0.14837 -0.04044,0.10635 -0.28665,-0.0934 -0.246215,-0.19972 -0.447664,-0.24273 -0.447664,-0.0956 0,0.74158 -4.493304,0.82581 -8.863541,0.16614 -3.52822,-0.53257 -5.057354,-1.30655 -7.524248,-3.80846 -0.502195,-0.50933 -0.835623,-0.79706 -0.740951,-0.63941 0.09467,0.15764 0.01013,0.28663 -0.187881,0.28663 -0.198006,0 -0.298574,-0.1601 -0.223486,-0.35578 0.09607,-0.25035 -0.0027,-0.30236 -0.333212,-0.17552 -0.332365,0.12754 -0.410903,0.0851 -0.268558,-0.14526 0.232085,-0.37552 -0.321173,-1.88108 -0.691253,-1.88108 -0.136455,0 -0.175357,-0.1177 -0.08645,-0.26155 0.09711,-0.15713 -0.0287,-0.19017 -0.315114,-0.0828 -0.385739,0.14467 -0.41997,0.1062 -0.179293,-0.20146 0.163608,-0.20915 0.250212,-0.6707 0.192454,-1.02566 -0.153826,-0.94539 -0.444742,-1.08263 -0.314465,-0.14836 l 0.110682,0.79375 -7.485258,-0.0741 -7.485257,-0.0741 V 94.703528 77.513542 h 18.933323 c 12.55484,0 18.878233,0.08914 18.769801,0.264584 -0.08994,0.14552 -0.03743,0.264583 0.116676,0.264583 0.154109,0 0.280199,-0.119063 0.280199,-0.264583 0,-0.17041 2.778125,-0.264584 7.805208,-0.264584 h 7.805208 v 32.808338 32.80833 h -6.24998 -6.24998 l 0.432885,-0.59531 c 0.238087,-0.32742 0.512659,-0.77391 0.610161,-0.99219 0.0975,-0.21828 0.394155,-0.55293 0.659231,-0.74366 0.453187,-0.3261 1.422359,-1.90217 1.169693,-1.90217 -0.06412,0 -0.601055,0.62508 -1.193193,1.38906 -0.592138,0.76398 -1.405938,1.71635 -1.808445,2.11637 l -0.73183,0.72731 -6.217708,-0.009 c -5.921238,-0.008 -6.190555,-0.0302 -5.648243,-0.46272 0.313206,-0.24982 1.782594,-1.3388 3.265307,-2.41995 1.482713,-1.08115 3.131453,-2.36037 3.663868,-2.84271 0.532414,-0.48234 1.354166,-1.14558 1.826114,-1.47386 0.471948,-0.32828 0.858901,-0.71759 0.859896,-0.86514 9.94e-4,-0.14755 0.478058,-0.56261 1.060141,-0.92235 0.582083,-0.35975 1.058333,-0.80458 1.058333,-0.9885 0,-0.56731 -0.368927,-0.38067 -1.730887,0.87564 -0.721502,0.66554 -1.579712,1.39361 -1.907133,1.61793 -0.327422,0.22433 -0.595313,0.57277 -0.595313,0.77432 0,0.20154 -0.153326,0.36644 -0.340724,0.36644 -0.187397,0 -0.752944,0.35235 -1.25677,0.783 -0.503826,0.43065 -0.99921,0.78783 -1.100853,0.79375 -0.101643,0.006 -0.518362,0.32055 -0.926042,0.6992 -0.940729,0.87374 -4.804755,3.54488 -5.127956,3.54488 -0.133918,0 -0.243488,0.11907 -0.243488,0.26459 0,0.17113 -3.060379,0.26226 -8.665104,0.25801 l -8.665104,-0.007 z m 28.971874,-10.83577 c 0,-0.21829 0.178594,-0.39688 0.396875,-0.39688 0.218281,0 0.396875,-0.0943 0.396875,-0.20946 0,-0.1152 0.428143,-0.66337 0.951429,-1.21815 0.689819,-0.73134 0.871697,-1.08843 0.661458,-1.29867 -0.210239,-0.21024 -0.289971,-0.16629 -0.289971,0.15982 0,0.24739 -0.175849,0.44979 -0.390775,0.44979 -0.214927,0 -0.600336,0.32743 -0.856466,0.72761 -0.617226,0.96437 -1.036517,1.38906 -1.371389,1.38906 -0.151348,0 -0.206645,0.17859 -0.122883,0.39688 0.08376,0.21828 0.258619,0.39687 0.388571,0.39687 0.129952,0 0.236276,-0.17859 0.236276,-0.39687 z m 3.72552,-18.23053 c -0.236017,-0.28438 -0.230371,-0.39702 0.02415,-0.48187 0.312649,-0.10421 0.534687,-1.78218 0.229206,-1.73214 -0.07833,0.0128 -0.35078,-0.0678 -0.605442,-0.17927 -0.734824,-0.32153 -0.537176,-0.70303 0.264584,-0.51068 0.405712,0.0973 0.63308,0.0733 0.513943,-0.0543 -0.117514,-0.12586 -0.634786,-0.25258 -1.149493,-0.28159 l -0.935832,-0.0528 0.874161,0.78045 c 0.798106,0.71255 0.849035,0.84702 0.585366,1.54556 -0.207143,0.54878 -0.207845,0.84605 -0.0025,1.05142 0.41461,0.41461 0.564167,0.35175 0.201835,-0.0848 z m -31.370802,-5.47974 c 0.03754,-1.69001 0.196773,-3.47595 0.353845,-3.96875 0.157071,-0.49279 0.362071,-1.25317 0.455554,-1.68974 l 0.16997,-0.79375 0.244811,0.64196 c 0.134646,0.35308 0.227172,0.82933 0.205614,1.05834 -0.08537,0.9069 0.07932,1.16981 0.290994,0.46452 0.147096,-0.49011 0.09495,-1.17006 -0.15217,-1.98437 -0.206767,-0.68133 -0.37723,-1.499643 -0.378805,-1.818476 -0.0054,-1.089152 -0.412423,-0.83582 -0.4343,0.270296 -0.02287,1.15643 -0.661158,4.0883 -1.014519,4.66005 -0.113383,0.18346 -0.235408,1.30368 -0.271166,2.48937 -0.03576,1.1857 -0.157578,2.55483 -0.270713,3.04251 -0.177615,0.76564 -0.141646,0.87401 0.263463,0.79375 0.412034,-0.0816 0.477473,-0.4671 0.537422,-3.16571 z m 21.559865,-6.95847 c -0.799554,-0.216233 -1.060268,-0.382274 -0.79375,-0.505516 0.218282,-0.100937 -0.233537,-0.127922 -1.00404,-0.05997 -1.669113,0.147206 -4.816793,-0.111946 -4.816793,-0.396573 0,-0.110631 0.506016,-0.155295 1.124479,-0.09925 l 1.12448,0.101893 -0.926042,-0.247605 c -0.509323,-0.136183 -1.140115,-0.183527 -1.401759,-0.10521 -0.261645,0.07832 -0.628121,0.01591 -0.814392,-0.13868 -0.186271,-0.154591 -1.103292,-0.40127 -2.037824,-0.548174 -0.934533,-0.146905 -2.056337,-0.339289 -2.4929,-0.42752 l -0.79375,-0.160421 0.765671,0.639266 c 0.550708,0.459791 1.107822,0.646055 1.984375,0.663449 l 1.218704,0.02418 -1.282634,-0.223064 c -1.775153,-0.308717 -1.875964,-0.544244 -0.145212,-0.339262 0.782122,0.09263 1.577533,0.323912 1.767579,0.513959 0.661658,0.661657 5.924355,1.647078 6.099011,1.142017 0.04881,-0.141144 0.21701,-0.177352 0.373779,-0.08046 0.417758,0.258191 1.81895,0.566551 2.580185,0.567821 0.413382,7e-4 0.214921,-0.11965 -0.529167,-0.32088 z m -20.100312,29.28103 c -0.795953,-0.0546 -1.579861,-0.2093 -1.742019,-0.34388 -0.367801,-0.30524 -0.320425,-1.14539 0.09266,-1.64312 0.586766,-0.70701 4.690385,-1.20507 5.257364,-0.63809 0.08675,0.0867 0.372966,0.0425 0.636043,-0.0983 0.268883,-0.1439 0.541107,-0.1544 0.621713,-0.024 0.229288,0.371 -1.7505,2.25535 -2.426382,2.30942 -1.269037,0.10152 -1.273202,0.10332 -0.859895,0.37042 0.218281,0.14106 0.277812,0.23628 0.132291,0.21159 -0.14552,-0.0247 -0.915817,-0.0895 -1.711771,-0.14409 z m 7.852404,-1.42256 c 0.190643,-0.94372 3.225807,-3.00826 4.438199,-3.01889 0.761537,-0.007 0.978436,0.10702 1.095737,0.57438 0.234438,0.93408 0.02112,1.42424 -0.826652,1.89944 -0.436563,0.24471 -0.853282,0.50445 -0.926042,0.57721 -0.196015,0.19602 -0.75816,0.30245 -2.417207,0.45767 -1.458608,0.13647 -1.48839,0.12578 -1.364035,-0.48981 z m -16.419531,-0.0917 c -0.11034,-0.28754 -0.06321,-0.36922 0.140434,-0.24336 0.216551,0.13383 0.241968,0.0408 0.0866,-0.31699 -0.250393,-0.5766 -0.266851,-1.65298 -0.02891,-1.89092 0.08774,-0.0877 0.814224,-0.21381 1.61442,-0.28017 0.800196,-0.0664 1.454902,-0.22497 1.454902,-0.35247 0,-0.1275 0.209621,-0.0235 0.465824,0.2312 0.256202,0.25466 0.801678,0.7259 1.212167,1.04721 0.44055,0.34483 0.709177,0.77846 0.655632,1.05833 -0.07829,0.40925 -0.433106,0.48466 -2.592218,0.55098 -1.375829,0.0422 -2.57829,0.20106 -2.672135,0.35291 -0.10344,0.16737 -0.236028,0.10566 -0.33671,-0.15672 z m 4.722649,-2.52198 c -0.08994,-0.14552 -0.0672,-0.26537 0.05053,-0.26633 0.117729,-9.6e-4 -0.124676,-0.22507 -0.538679,-0.49802 -0.461046,-0.30397 -0.640468,-0.56566 -0.463021,-0.67533 0.159341,-0.0985 0.289711,-0.29812 0.289711,-0.44364 0,-0.14552 -0.119062,-0.19099 -0.264583,-0.10106 -0.145521,0.0899 -0.264583,0.0247 -0.264583,-0.14498 0,-0.16968 0.169888,-0.24332 0.37753,-0.16364 0.207642,0.0797 0.514822,-0.0206 0.682623,-0.22274 0.167801,-0.20219 0.742053,-0.50715 1.276115,-0.67769 1.21028,-0.38648 1.769538,-0.85357 0.631065,-0.52706 -0.458387,0.13146 -0.986138,0.33083 -1.172778,0.44304 -0.226922,0.13643 -0.210753,0.0338 0.04881,-0.30978 0.213484,-0.2826 0.292859,-0.43444 0.176389,-0.33743 -0.11647,0.097 -0.450974,-0.0628 -0.743343,-0.35519 -0.293592,-0.29359 -0.744944,-0.47578 -1.008159,-0.40695 -0.320829,0.0839 -0.456992,-0.009 -0.416648,-0.2837 0.06168,-0.42023 2.4193,-1.3298 3.530336,-1.362 0.332096,-0.01 1.041367,0.16532 1.576159,0.38877 0.77164,0.32241 1.122927,0.3439 1.701835,0.10411 0.988958,-0.40964 2.793148,0.45943 3.756562,1.80952 l 0.704592,0.98739 -0.731896,0.16713 c -0.402543,0.0919 -0.562677,0.18122 -0.355855,0.19844 0.206823,0.0172 0.568151,0.20516 0.80295,0.41765 0.385204,0.3486 0.423991,0.29839 0.397035,-0.51401 -0.01703,-0.51328 0.09276,-0.87843 0.255383,-0.84937 0.156892,0.0281 0.250273,-0.15737 0.207513,-0.41203 -0.04276,-0.25466 0.05356,-0.46302 0.214053,-0.46302 0.160488,0 0.218212,0.11906 0.128275,0.26458 -0.101577,0.16436 0.397641,0.26459 1.317842,0.26459 0.968388,0 1.847342,0.1867 2.538231,0.53917 0.581277,0.29655 1.154041,0.47912 1.272809,0.40571 0.118768,-0.0734 0.203981,0.18999 0.189363,0.58531 -0.02424,0.65549 -0.148854,0.73951 -1.415641,0.95441 -0.763984,0.12961 -1.390886,0.36774 -1.393114,0.52917 -0.0025,0.17875 -0.08824,0.16084 -0.219362,-0.0458 -0.118421,-0.18663 -0.63455,-0.37694 -1.146953,-0.42292 -0.512403,-0.046 -1.051927,-0.15794 -1.198942,-0.2488 -0.453307,-0.28016 -0.602887,0.1256 -0.196217,0.53227 0.580863,0.58086 0.470025,0.8368 -0.47562,1.09828 -1.258364,0.34795 -3.382816,0.2188 -4.338539,-0.26374 -0.511035,-0.25802 -0.971061,-0.33287 -1.190625,-0.19374 -0.196799,0.12471 -1.287576,0.22856 -2.423951,0.23079 -1.3091,0.003 -2.006221,0.101 -1.902614,0.26864 0.08994,0.14552 0.10399,0.26458 0.03123,0.26458 -0.07276,0 -0.205877,-0.11906 -0.295813,-0.26458 z"
         id="path32" /><path
         style="fill:#b6d1e4"
         d="m 67.225186,142.74175 c 0.282475,-0.21365 0.667831,-0.39225 0.856347,-0.39687 0.188515,-0.005 0.648116,-0.31378 1.021336,-0.687 0.373219,-0.37322 0.832325,-0.61958 1.020235,-0.54747 0.187911,0.0721 0.397886,-0.0839 0.466612,-0.34673 0.06873,-0.26281 0.824599,-0.99039 1.679717,-1.61684 0.855118,-0.62646 1.644057,-1.2664 1.753198,-1.42209 0.133526,-0.19048 0.293151,-0.15326 0.487979,0.11379 0.25258,0.34621 0.272593,0.34315 0.156771,-0.024 -0.258108,-0.81817 0.25526,-1.15343 1.671837,-1.09179 0.854183,0.0372 1.292841,-0.0393 1.188988,-0.20738 -0.09051,-0.14645 -0.454927,-0.1934 -0.809811,-0.10433 -0.7837,0.19669 -0.81516,0.01 -0.116077,-0.68917 0.633144,-0.63315 0.886242,-0.65846 1.322917,-0.13229 0.181157,0.21828 0.493392,0.39687 0.693855,0.39687 0.200463,0 0.364478,-0.17859 0.364478,-0.39687 0,-0.21829 -0.164015,-0.39688 -0.364478,-0.39688 -0.200463,0 -0.494064,-0.15614 -0.652447,-0.34698 -0.223545,-0.26936 -0.07859,-0.42269 0.647916,-0.6854 0.803619,-0.2906 1.001602,-0.27895 1.400885,0.0824 0.25575,0.23145 0.604453,0.42081 0.774895,0.42081 0.170443,0 0.309896,0.12074 0.309896,0.26832 0,0.37292 1.641993,1.83113 2.072569,1.84059 0.647862,0.0143 0.145863,0.668 -0.578678,0.75362 -0.62503,0.0739 -0.707093,0.1908 -0.656902,0.93607 0.06812,1.01155 -0.264835,1.72615 -0.572406,1.22849 -0.118248,-0.19133 -0.198437,-0.0302 -0.198437,0.39872 0,0.72128 -0.427516,1.19612 -0.968194,1.07537 -0.158718,-0.0354 -0.19928,-0.0145 -0.09014,0.0465 0.321318,0.1797 0.234683,0.42086 -0.427982,1.19136 l -0.625773,0.7276 h -6.171348 c -5.483047,0 -6.114066,-0.0433 -5.657758,-0.38846 z m 13.345882,-0.14071 c 0.155761,-0.29104 0.457606,-0.52916 0.670768,-0.52916 0.213161,0 0.387566,-0.17956 0.387566,-0.39901 0,-0.40817 3.029926,-4.74759 3.97434,-5.692 0.287967,-0.28797 0.523576,-0.65696 0.523576,-0.81998 0,-0.58695 1.465063,-2.59491 1.900213,-2.60435 0.674138,-0.0146 1.53937,-1.41863 1.53937,-2.4979 0,-0.52324 0.0893,-0.94786 0.198438,-0.94359 0.462087,0.0181 1.918229,1.61612 1.918229,2.10518 0,0.2973 0.175463,0.5329 0.396875,0.5329 0.340471,0 0.396875,0.80845 0.396875,5.68854 v 5.68854 h -6.094726 c -6.012737,0 -6.090915,-0.007 -5.811524,-0.52917 z M 53.230791,129.19549 c -0.340456,-0.34046 -0.17189,-1.61464 0.261151,-1.97403 0.594609,-0.49348 5.212254,-0.50815 5.700794,-0.0181 0.282363,0.28323 0.230544,0.43071 -0.289364,0.82356 -1.273198,0.96204 -5.092354,1.7488 -5.672581,1.16858 z m 9.613194,-1.0629 c 0,-0.54752 0.367795,-0.91168 2.122643,-2.10164 1.579419,-1.07101 1.996496,-1.19768 2.775284,-0.84284 0.480687,0.21902 0.658323,0.50662 0.658323,1.06587 0,0.66841 -0.176839,0.84529 -1.389062,1.38935 -0.763985,0.34289 -2.014141,0.70466 -2.778125,0.80394 -1.245206,0.16182 -1.389063,0.12923 -1.389063,-0.31468 z m -16.086666,-0.66571 c -0.503097,-0.5031 -0.385752,-1.74402 0.194273,-2.05444 1.044234,-0.55886 2.777395,-0.32534 3.963761,0.53406 1.203652,0.87192 1.278775,1.32313 0.26735,1.60577 -1.111998,0.31074 -4.086645,0.25335 -4.425384,-0.0854 z m 10.976522,-2.06814 c -0.409486,-0.12291 -0.901019,-0.35336 -1.092296,-0.51211 -0.242867,-0.20156 -0.562216,-0.2071 -1.058642,-0.0184 -0.959291,0.36472 -3.667806,0.34259 -4.500426,-0.0368 -1.285117,-0.58554 -0.685524,-1.7477 1.371036,-2.65741 1.275157,-0.56407 1.420096,-0.72177 0.502066,-0.54627 -0.617964,0.11813 -2.811593,-1.02606 -2.811593,-1.46652 0,-0.24896 1.351295,-0.74575 2.669208,-0.98131 0.62145,-0.11108 1.303014,-0.022 1.973034,0.258 0.811407,0.33903 1.17222,0.36614 1.740413,0.13079 0.901026,-0.37322 2.134399,0.15582 3.394672,1.45609 0.869934,0.89754 0.893832,1.45981 0.06279,1.47723 -0.360453,0.008 -0.338071,0.0718 0.115166,0.33073 0.718944,0.41067 2.06552,2.01478 1.862089,2.21822 -0.193352,0.19335 -2.242984,0.59748 -2.953828,0.58241 -0.291041,-0.006 -0.8642,-0.11179 -1.273686,-0.23471 z m 4.845561,-1.62657 c -1.177066,-0.33038 -1.655569,-0.79421 -1.428845,-1.38505 0.499212,-1.30092 3.403532,-1.17969 5.558052,0.23201 0.586452,0.38425 0.638251,0.51094 0.333132,0.81474 -0.464895,0.46288 -3.262759,0.67499 -4.462339,0.3383 z m 1.719792,-4.0998 c -2.817233,-0.49039 -5.1365,-1.6821 -7.357099,-3.7803 -1.907155,-1.80203 -2.52587,-2.85684 -3.189688,-5.4379 -0.443858,-1.72581 -0.400826,-5.85035 0.07681,-7.36257 0.145839,-0.46174 0.341648,-1.1967 0.435131,-1.63327 l 0.16997,-0.79375 0.244811,0.64196 c 0.134646,0.35308 0.227172,0.82933 0.205614,1.05834 -0.08525,0.90559 0.07918,1.17029 0.290267,0.46724 0.147597,-0.49159 0.08991,-1.19118 -0.170534,-2.0682 -0.216468,-0.72892 -0.358933,-2.024376 -0.316589,-2.87878 0.06355,-1.28237 -0.02113,-1.660205 -0.485291,-2.165134 -0.624201,-0.679032 -0.461365,-1.676346 0.322838,-1.977273 0.34482,-0.13232 0.358555,-0.210453 0.0725,-0.412411 -0.236823,-0.167202 -0.09181,-0.195963 0.440836,-0.08743 0.436563,0.08895 0.655071,0.06806 0.485575,-0.04642 -0.469125,-0.31686 0.198442,-1.080326 1.043592,-1.193506 0.384881,-0.05154 0.78366,-0.177591 0.886176,-0.280107 0.586185,-0.586186 1.813614,0.137321 1.435793,0.846327 -0.123826,0.232368 -0.267081,0.720144 -0.318345,1.083946 -0.05126,0.363802 -0.197758,0.737444 -0.325542,0.830315 -0.127784,0.09287 -0.142667,0.313941 -0.03307,0.491268 0.153368,0.248155 0.254434,0.239734 0.438809,-0.03656 0.161585,-0.242145 0.192014,-0.1437 0.09349,0.302481 -0.118674,0.537461 0.01622,0.763471 0.719567,1.205637 0.476092,0.299298 1.28234,0.70528 1.791663,0.902182 0.509322,0.196902 1.283229,0.613392 1.719791,0.925532 0.501103,0.358288 1.23272,0.579711 1.984375,0.600569 l 1.190625,0.03304 -1.282634,-0.227746 c -1.77688,-0.315505 -1.871801,-0.547525 -0.142309,-0.347853 0.783718,0.09048 1.484474,0.247554 1.557235,0.349049 0.510522,0.712145 6.349999,1.947534 6.349999,1.343404 0,-0.137244 -0.9525,-0.332618 -2.116666,-0.43417 -1.164167,-0.101552 -2.116667,-0.279598 -2.116667,-0.395658 0,-0.11606 -0.148828,-0.262192 -0.330729,-0.324737 -0.181901,-0.06254 -0.0926,-0.06045 0.198438,0.0046 0.291041,0.0651 1.303072,0.228232 2.248958,0.362517 0.945885,0.134286 2.017448,0.405606 2.38125,0.602934 0.559289,0.303364 1.932463,0.615164 4.630208,1.051364 1.871471,0.30259 2.861324,0.60696 4.534936,1.39441 1.505516,0.70837 1.926535,1.03695 2.073455,1.61822 0.159455,0.63087 0.03186,0.86503 -0.944736,1.7338 -1.21996,1.08527 -4.016342,2.56745 -4.843917,2.56745 -0.923314,0 -0.256391,0.28037 1.881587,0.79102 2.329204,0.55631 3.436651,0.98857 4.069335,1.58833 0.4706,0.44612 0.900023,1.43643 0.5214,1.20242 -0.133377,-0.0824 -0.319637,0.0932 -0.413911,0.39019 -0.09427,0.29703 -0.459012,0.7285 -0.810528,0.95882 -0.351516,0.23032 -0.562214,0.5432 -0.468219,0.69529 0.09791,0.15842 0.04376,0.19794 -0.126793,0.0925 -0.418043,-0.25837 -1.961086,0.58427 -1.736213,0.94812 0.111247,0.18 0.06125,0.21968 -0.128814,0.10221 -0.17085,-0.10559 -0.695261,-0.0745 -1.165359,0.0691 -0.470098,0.14362 -1.304516,0.33669 -1.854263,0.42906 -0.549747,0.0924 -0.931835,0.27749 -0.849083,0.41138 0.308006,0.49837 -0.706021,1.85648 -1.79485,2.40389 -0.615465,0.30942 -1.327386,0.74576 -1.582048,0.96964 -0.254661,0.22388 -0.463021,0.32748 -0.463021,0.23021 0,-0.0973 -0.431259,0.003 -0.958353,0.22357 -1.198475,0.50076 -5.179131,0.48192 -8.169771,-0.0387 z m -0.04588,-17.44998 c -0.70237,-0.52565 -1.417943,-1.13289 -1.590162,-1.34941 -0.172219,-0.21652 -0.453015,-0.30722 -0.623991,-0.20155 -0.342515,0.21168 0.946507,1.42199 1.532429,1.43885 0.181901,0.005 0.330729,0.17938 0.330729,0.38699 0,0.35184 0.442647,0.5772 1.277037,0.65016 0.193047,0.0169 -0.223672,-0.39938 -0.926042,-0.92504 z m -25.485097,-15.117702 -0.0013,-9.591146 9.458854,0.0052 9.458854,0.0052 -1.186626,0.987009 c -3.237108,2.692556 -8.470666,7.499902 -8.470666,7.78083 0,0.522749 0.596258,0.06878 2.934541,-2.234243 1.36918,-1.348535 3.08473,-2.923692 3.812334,-3.50035 0.727604,-0.576657 1.783408,-1.497374 2.346232,-2.046036 l 1.023315,-0.997567 9.163143,0.0035 9.163143,0.0035 -3.836459,1.936496 c -3.857067,1.946898 -8.323977,4.413775 -8.91852,4.925305 -0.175759,0.151219 -0.392432,0.274943 -0.481495,0.274943 -0.204982,0 -2.522036,1.580247 -2.988154,2.037941 -0.192295,0.18882 -0.472764,0.343309 -0.623264,0.343309 -0.1505,0 -0.648011,0.296606 -1.10558,0.659125 -0.45757,0.362518 -1.113976,0.868534 -1.458681,1.124479 -0.344705,0.255945 -0.850721,0.673714 -1.124479,0.928376 -0.273758,0.254661 -0.598352,0.463021 -0.721319,0.463021 -0.122967,0 -0.439076,0.238125 -0.702465,0.529166 -0.263389,0.291042 -0.68443,0.529167 -0.935646,0.529167 -0.251216,0 -0.774603,0.416719 -1.163083,0.926042 -0.566575,0.742818 -0.886885,0.926041 -1.618903,0.926041 -0.63479,0 -0.912576,-0.120808 -0.912576,-0.396875 0,-0.218281 -0.119063,-0.396875 -0.264584,-0.396875 -0.145521,0 -0.264583,0.178594 -0.264583,0.396875 0,0.218282 0.119062,0.396875 0.264583,0.396875 0.145521,0 0.264584,0.297657 0.264584,0.661459 0,0.363802 -0.119063,0.661458 -0.264584,0.661458 -0.145521,0 -0.264583,0.178594 -0.264583,0.396875 0,0.218281 -0.164015,0.396875 -0.364478,0.396875 -0.200463,0 -0.512698,-0.178594 -0.693855,-0.396875 -0.181158,-0.218281 -0.493393,-0.396875 -0.693856,-0.396875 -0.564413,0 -0.494588,-2.052458 0.0736,-2.163412 0.407714,-0.07962 0.407714,-0.110715 0,-0.448672 -0.376917,-0.31243 -0.438078,-0.303195 -0.438078,0.06615 0,0.678684 -1.796511,0.574315 -2.416361,-0.140378 -0.607024,-0.699905 -0.639008,-1.130088 -0.06772,-0.910865 0.302411,0.116046 0.382585,0.04959 0.275825,-0.228619 -0.08278,-0.21572 -7.7e-5,-0.544493 0.183783,-0.730605 0.18386,-0.186112 0.41319,-0.546745 0.509621,-0.801407 0.09643,-0.254661 0.292716,-0.46302 0.43619,-0.46302 0.334406,0 1.60783,-1.266847 1.60783,-1.599527 0,-0.493723 -0.48568,-0.239652 -1.287424,0.673485 -0.447192,0.509323 -0.906711,0.926042 -1.021155,0.926042 -0.114443,0 -0.366185,0.357187 -0.559427,0.79375 -0.193241,0.436562 -0.490196,0.80053 -0.6599,0.808817 -0.287362,0.01403 -1.730468,1.700979 -2.954385,3.453583 -0.291042,0.416761 -0.677995,0.759308 -0.859896,0.761215 -0.181901,0.0019 -0.335011,0.152296 -0.340245,0.334197 -0.0052,0.181901 -0.302298,0.687917 -0.660144,1.124479 l -0.650629,0.79375 z m 22.91797,0.516135 c -0.107992,-0.174733 -0.07026,-0.317697 0.08385,-0.317697 0.154109,0 0.280198,-0.297656 0.280198,-0.661459 0,-0.411574 0.149931,-0.661458 0.396875,-0.661458 0.218282,0 0.396875,-0.119062 0.396875,-0.264583 0,-0.145521 0.178594,-0.264584 0.396875,-0.264584 0.218282,0 0.396875,-0.119062 0.396875,-0.264583 0,-0.145521 0.357188,-0.264583 0.79375,-0.264583 0.617361,0 0.79375,-0.117593 0.79375,-0.529167 0,-0.518455 0.349414,-0.651053 1.417985,-0.538104 0.295541,0.03124 0.420885,-0.06297 0.313959,-0.235984 -0.264938,-0.428679 0.594464,-0.659137 1.049551,-0.281449 0.273374,0.22688 0.393505,0.235917 0.393505,0.0296 0,-0.16334 -0.119062,-0.296981 -0.264583,-0.296981 -0.145521,0 -0.264583,-0.124281 -0.264583,-0.276181 0,-0.1519 0.148828,-0.256856 0.330729,-0.233235 0.69627,0.09041 0.992187,-0.03384 0.992187,-0.416625 0,-0.218282 0.178594,-0.396875 0.396875,-0.396875 0.218281,0 0.396875,-0.102887 0.396875,-0.228638 0,-0.125751 0.544588,-0.436617 1.210194,-0.690815 0.665607,-0.254197 1.273658,-0.627561 1.351224,-0.829696 0.07757,-0.202135 0.328198,-0.367518 0.556959,-0.367518 0.511646,0 2.256701,-0.594912 2.437873,-0.831103 0.07276,-0.09486 0.63328,-0.307086 1.2456,-0.471622 0.612319,-0.164535 1.184892,-0.414982 1.272385,-0.556549 0.09672,-0.156496 2.953271,-0.257393 7.287213,-0.257393 h 7.128135 v 4.894792 4.894792 H 77.285825 c -11.585662,0 -15.216628,0.07541 -15.297391,0.317697 -0.0824,0.247208 -0.149465,0.247208 -0.302247,10e-7 z"
         id="path31" /><path
         style="fill:#eddb54"
         d="m 53.385132,129.07784 c -0.452543,-0.46655 -0.415885,-1.42258 0.07001,-1.82584 0.940155,-0.78026 6.296823,-0.50863 5.800682,0.29415 -0.0844,0.13656 -0.732514,0.54172 -1.440255,0.90036 -1.559001,0.79001 -3.946521,1.13023 -4.430436,0.63133 z m 9.458853,-0.9884 c 0,-0.68809 3.04249,-2.9509 3.96767,-2.9509 0.852209,0 1.58858,0.48655 1.58858,1.04963 0,0.57259 -1.034987,1.37274 -2.354586,1.82032 -1.045001,0.35445 -3.201664,0.40898 -3.201664,0.081 z m -15.96463,-0.69708 c -1.67099,-1.67098 1.520796,-3.1416 3.620662,-1.66822 1.01099,0.70937 1.523714,1.33859 1.279803,1.57058 -0.09934,0.0945 -1.143694,0.25401 -2.320778,0.35449 -1.804742,0.15406 -2.209037,0.11381 -2.579687,-0.25685 z m 10.083633,-2.40202 c -0.589072,-0.31966 -0.940968,-0.33636 -1.915776,-0.0909 -1.601746,0.40332 -4.023174,0.10099 -4.369178,-0.54553 -0.357511,-0.66801 0.480656,-1.68042 1.842249,-2.22522 1.117058,-0.44696 1.429894,-0.74064 0.54146,-0.50831 -0.473481,0.12382 -2.916074,-1.15046 -2.917284,-1.52191 -6.33e-4,-0.19451 1.491641,-0.7081 2.668735,-0.91849 0.62145,-0.11108 1.303014,-0.022 1.973034,0.258 0.794929,0.33214 1.177839,0.36381 1.713913,0.14176 0.929206,-0.38489 1.71577,-0.0457 3.096581,1.3355 1.166512,1.1668 1.232769,1.57679 0.255086,1.57846 -0.511352,8.7e-4 -0.48264,0.0602 0.243537,0.50298 0.452779,0.2761 1.075181,0.85582 1.383116,1.28828 l 0.559881,0.78628 -0.986241,0.16303 c -1.638752,0.2709 -3.325868,0.17026 -4.089113,-0.24393 z m 5.021102,-1.48223 c -0.889397,-0.32484 -0.953787,-1.09155 -0.139566,-1.66186 0.742043,-0.51974 1.678726,-0.52214 3.135873,-0.008 1.51723,0.53531 2.193885,1.1449 1.799007,1.62069 -0.352839,0.42515 -3.672713,0.45921 -4.795314,0.0492 z m 4.26632,-3.518 c -0.06674,-0.0667 -1.009323,-0.25731 -2.094618,-0.42347 -2.717395,-0.41604 -4.98598,-1.58784 -7.140849,-3.68851 -1.885947,-1.83851 -2.356654,-2.54781 -3.07273,-4.63021 -0.552098,-1.60554 -0.654861,-6.05602 -0.180225,-7.80521 0.177689,-0.65484 0.401655,-1.54781 0.497702,-1.98438 l 0.174632,-0.79375 0.244811,0.64196 c 0.134646,0.35308 0.227172,0.82933 0.205614,1.05834 -0.08525,0.90559 0.07918,1.17029 0.290267,0.46724 0.147597,-0.49159 0.08991,-1.19118 -0.170534,-2.0682 -0.216468,-0.72892 -0.358933,-2.024376 -0.316589,-2.87878 0.06355,-1.28237 -0.02113,-1.660205 -0.485291,-2.165134 -0.429495,-0.467223 -0.507999,-0.753642 -0.332428,-1.212849 0.126418,-0.330647 0.410621,-0.670545 0.631563,-0.755328 0.220941,-0.08478 0.327954,-0.273494 0.237806,-0.419356 -0.10252,-0.165882 0.07146,-0.198553 0.46454,-0.08724 0.35046,0.09925 0.492128,0.08178 0.320271,-0.03948 -0.465823,-0.32868 0.193864,-1.089007 1.043592,-1.202801 0.384881,-0.05154 0.78366,-0.177591 0.886176,-0.280107 0.340502,-0.340503 0.869827,-0.192941 1.143723,0.318838 0.196138,0.366488 0.158907,0.772055 -0.135578,1.476855 -0.674895,1.615252 0.212761,2.831918 2.794221,3.829899 0.509322,0.196902 1.283229,0.613392 1.719791,0.925532 0.501103,0.358288 1.23272,0.579711 1.984375,0.600569 l 1.190625,0.03304 -1.282634,-0.227746 c -1.77688,-0.315505 -1.871801,-0.547525 -0.142309,-0.347853 0.783718,0.09048 1.484474,0.247554 1.557235,0.349049 0.510522,0.712145 6.349999,1.947532 6.349999,1.343402 0,-0.137242 -0.9525,-0.332616 -2.116666,-0.434168 -1.164167,-0.101552 -2.116667,-0.279598 -2.116667,-0.395658 0,-0.11606 -0.148828,-0.262192 -0.330729,-0.324737 -0.181901,-0.06254 -0.0926,-0.06045 0.198438,0.0046 0.291041,0.0651 1.303072,0.228232 2.248958,0.362517 0.945885,0.134286 2.017448,0.406163 2.38125,0.604172 0.363802,0.198014 2.149739,0.626714 3.96875,0.952684 3.927444,0.70379 7.143749,2.06666 7.143749,3.02706 0,0.59228 -0.622224,1.64033 -1.310774,2.20782 -0.682971,0.56289 -2.97109,1.69451 -4.103849,2.02961 l -1.067668,0.31584 2.116667,0.47 c 5.708698,1.2676 6.42636,2.6678 2.564068,5.00266 -1.12588,0.68062 -2.187288,1.2375 -2.358684,1.2375 -0.839609,0 -2.969774,0.60192 -2.844946,0.80389 0.394391,0.63814 -0.268826,1.59311 -1.697419,2.44412 -2.321487,1.3829 -3.772045,1.77907 -6.513971,1.77907 -1.332272,0 -2.476921,-0.0546 -2.543665,-0.12135 z m -1.997096,-17.76772 c -0.70237,-0.52565 -1.417943,-1.13289 -1.590162,-1.34941 -0.172219,-0.21652 -0.453015,-0.30722 -0.623991,-0.20155 -0.342515,0.21168 0.946507,1.42199 1.532429,1.43885 0.181901,0.005 0.330729,0.17938 0.330729,0.38699 0,0.35184 0.442647,0.5772 1.277037,0.65016 0.193047,0.0169 -0.223672,-0.39938 -0.926042,-0.92504 z"
         id="path30" /><path
         style="fill:#e7c631"
         d="m 53.355739,129.01929 c -0.188077,-0.22662 -0.303052,-0.68648 -0.255501,-1.02191 0.07482,-0.5278 0.338246,-0.66019 1.957475,-0.98375 1.588489,-0.31742 2.055371,-0.31944 3.091869,-0.0134 0.671468,0.19826 1.160536,0.45807 1.086819,0.57734 -0.31481,0.50938 -2.818667,1.53406 -4.12317,1.68738 -1.106053,0.13 -1.490298,0.0763 -1.757492,-0.24566 z m 9.550438,-1.03648 c 0.16836,-0.52387 3.401375,-2.84427 3.962925,-2.84427 1.527413,0 2.007331,1.22478 0.803529,2.05064 -1.420433,0.97449 -5.017032,1.57334 -4.766454,0.79363 z m -16.026822,-0.59045 c -0.241745,-0.24174 -0.439536,-0.66065 -0.439536,-0.9309 0,-1.41904 2.20025,-1.77786 3.986647,-0.65016 0.958425,0.60503 1.536486,1.31332 1.27156,1.55802 -0.05436,0.0502 -1.0619,0.17483 -2.238984,0.27694 -1.807166,0.15676 -2.208539,0.11725 -2.579687,-0.2539 z m 10.108208,-2.38914 c -0.566799,-0.30796 -0.962315,-0.32309 -2.116667,-0.081 -0.942015,0.19757 -1.864688,0.21643 -2.742535,0.056 -1.222632,-0.22339 -1.322917,-0.29905 -1.322917,-0.9981 0,-0.63408 0.204165,-0.86332 1.26253,-1.41763 0.780307,-0.40868 1.678632,-0.6555 2.351945,-0.6462 0.693401,0.01 0.997402,-0.077 0.83629,-0.23809 -0.328859,-0.32886 -1.989097,-0.80646 -1.813012,-0.52155 0.07393,0.11962 -0.127059,0.28587 -0.446644,0.36945 -0.714879,0.18694 -3.004104,-1.15434 -2.508276,-1.46963 0.174442,-0.11093 0.945308,-0.38629 1.713037,-0.61192 1.322197,-0.38858 1.46031,-0.38173 2.616845,0.12986 0.941125,0.41631 1.305347,0.47008 1.589088,0.23459 0.577022,-0.47888 2.218888,0.14148 3.33904,1.26164 1.019174,1.01917 1.053243,1.422 0.120264,1.422 -0.498419,0 -0.465915,0.0731 0.275994,0.62043 0.462523,0.34124 1.077763,0.9215 1.367201,1.28946 l 0.526252,0.66902 -0.985069,0.16284 c -1.621862,0.26811 -3.322411,0.17134 -4.063366,-0.23124 z m 4.996527,-1.49511 c -0.765562,-0.27961 -0.95028,-0.95147 -0.410104,-1.49165 0.461226,-0.46123 3.006376,-0.38959 3.995118,0.11244 1.355744,0.68839 1.558881,0.91 1.214497,1.32496 -0.356956,0.4301 -3.667954,0.46753 -4.799511,0.0542 z m 4.828645,-3.68333 c -3.905424,-0.37262 -5.937263,-1.06127 -8.202083,-2.77996 -4.484316,-3.40297 -5.537532,-6.40762 -4.582432,-13.07294 l 0.170609,-1.19063 0.341895,0.79375 c 0.427983,0.99362 0.49674,1.80271 0.101178,1.19063 -0.19681,-0.30455 -0.256582,-0.21221 -0.256919,0.39687 -8.35e-4,1.51168 0.228977,1.91626 1.004775,1.76887 0.631862,-0.12004 0.668903,-0.0878 0.347078,0.30171 -0.574212,0.69505 -0.178086,1.67144 0.753717,1.8578 0.729493,0.1459 1.151374,0.70183 0.532599,0.70183 -0.145521,0 -0.264583,-0.13891 -0.264583,-0.30868 0,-0.16978 -0.06233,-0.24635 -0.13852,-0.17016 -0.07619,0.0762 -0.05977,0.34375 0.03649,0.59458 0.117411,0.30597 0.358919,0.40984 0.733832,0.31561 0.513792,-0.12913 0.521512,-0.11251 0.0958,0.20629 -0.573442,0.42943 -0.606399,0.79691 -0.0524,0.58432 0.23546,-0.0904 0.341662,-0.046 0.248969,0.10399 -0.08891,0.14385 0.031,0.26155 0.266456,0.26155 0.235458,0 0.356677,0.11557 0.269377,0.25683 -0.0873,0.14125 0.142976,0.33255 0.511723,0.4251 0.368748,0.0926 0.604716,0.27463 0.524373,0.40463 -0.08034,0.12999 0.04657,0.23636 0.282027,0.23636 0.235458,0 0.354382,0.11928 0.264277,0.26508 -0.0901,0.14579 0.140993,0.38097 0.513552,0.52261 0.372558,0.14165 0.677379,0.37582 0.677379,0.52037 0,0.14456 0.148828,0.2068 0.330729,0.13832 0.181901,-0.0685 0.728336,0.11858 1.214301,0.41569 0.776948,0.47501 0.840804,0.5948 0.529166,0.99271 -0.312727,0.39929 -0.304278,0.41339 0.07185,0.1199 0.352293,-0.2749 0.863758,-0.17425 2.947674,0.5801 1.38678,0.50199 2.583753,0.85038 2.659938,0.7742 0.07619,-0.0762 0.37494,-0.012 0.663899,0.14265 0.40109,0.21466 0.55885,0.19395 0.666862,-0.0875 0.106769,-0.27824 -0.07964,-0.35115 -0.759772,-0.29719 -0.50308,0.0399 -0.834311,-0.0368 -0.74973,-0.17366 0.08334,-0.13484 0.3267,-0.17795 0.540803,-0.0958 0.214104,0.0822 0.610889,0.0308 0.881745,-0.11418 0.421476,-0.22557 0.477055,-0.17776 0.385565,0.33168 -0.104116,0.57974 -0.0405,0.59704 2.443123,0.66442 l 2.550022,0.0692 0.723603,-0.86294 c 0.802691,-0.95725 1.156749,-0.89184 0.891567,0.16473 -0.123527,0.49217 -0.567734,0.891 -1.531577,1.37511 -0.746673,0.37503 -1.418312,0.76498 -1.492532,0.86655 -0.251409,0.34406 -3.086434,1.09652 -3.994659,1.06025 -0.496532,-0.0198 -1.914818,-0.13261 -3.151745,-0.25063 z m 9.186729,-4.10854 c -0.07879,-0.0788 -1.534708,-0.49232 -3.235361,-0.91895 -2.771729,-0.69532 -5.715888,-1.61674 -7.11925,-2.22807 -0.386167,-0.16822 -0.454996,-0.13739 -0.289849,0.12982 0.148312,0.23998 0.114747,0.2875 -0.106491,0.15076 -0.177687,-0.10981 -0.254336,-0.26839 -0.170331,-0.3524 0.08401,-0.084 -0.771277,-0.59623 -1.900626,-1.13828 -3.266999,-1.56804 -5.378057,-3.77114 -6.571577,-6.85808 -0.253186,-0.65484 -0.556091,-1.31651 -0.673123,-1.47037 -0.435442,-0.57246 -1.02637,-3.456163 -1.02637,-5.008636 0,-0.925344 -0.153013,-1.826395 -0.361236,-2.127224 -0.198679,-0.287041 -0.439844,-0.774079 -0.53592,-1.082308 -0.182135,-0.584315 0.323783,-0.905536 1.999781,-1.269717 0.422391,-0.09178 0.93565,-0.525339 1.27835,-1.07984 0.659287,-1.066748 0.629502,-1.053211 1.15691,-0.525803 0.316307,0.316307 0.342717,0.566963 0.125417,1.190311 -0.151588,0.434845 -0.398694,0.713346 -0.549974,0.61985 -0.182471,-0.112773 -0.232335,0.309312 -0.14851,1.257084 0.131825,1.490492 1.005942,3.681713 1.844081,4.622709 0.485352,0.544914 0.482504,0.548924 -0.30742,0.432994 -0.490814,-0.07204 -0.797313,-5e-4 -0.797313,0.18609 0,0.60279 0.7391,2.05221 1.435173,2.81445 1.944916,2.1298 2.33947,2.49875 2.672173,2.49875 0.218065,0 0.319877,0.20931 0.258026,0.53048 -0.08891,0.46167 -0.03132,0.49256 0.443996,0.23818 0.395209,-0.21151 0.496454,-0.21187 0.366321,-0.001 -0.101393,0.16406 8.9e-5,0.29098 0.232655,0.29098 0.226869,0 0.412489,0.11906 0.412489,0.26458 0,0.14552 0.124259,0.26459 0.276131,0.26459 0.151872,0 0.567304,0.26789 0.923182,0.59531 0.5487,0.50482 4.049821,2.40191 5.812146,3.14931 1.597083,0.67733 5.189501,1.30765 7.879524,1.38255 l 2.968392,0.0826 1.003004,-0.94937 c 0.797188,-0.75457 1.050296,-0.87286 1.233471,-0.57648 0.284885,0.46096 -0.109398,1.57159 -0.725523,2.04368 -1.04844,0.80334 -4.253983,2.18068 -5.479702,2.35449 -0.727604,0.10317 -1.515621,0.28724 -1.751149,0.40904 -0.235528,0.1218 -0.492702,0.15699 -0.571497,0.0782 z m -0.461536,-7.51709 c -0.294374,-0.29437 -1.127811,-0.67201 -1.852084,-0.83919 -0.724272,-0.16718 -1.316859,-0.39233 -1.316859,-0.50034 0,-0.18947 -1.583909,-1.12517 -4.986699,-2.9459 -1.91154,-1.0228 -6.211991,-4.891854 -6.013175,-5.409962 0.08347,-0.217516 -0.05706,-0.352715 -0.366614,-0.352715 -0.476731,0 -1.467103,-0.748353 -1.261917,-0.95354 0.138368,-0.138367 1.730996,0.708503 2.971114,1.579871 0.832481,0.584943 0.917175,0.70769 0.396875,0.575186 -0.612692,-0.156032 -0.622674,-0.144442 -0.135391,0.157195 0.289336,0.179106 0.744423,0.529075 1.011303,0.777715 1.310644,1.22105 6.902219,3.43102 8.847525,3.49683 0.181901,0.006 0.330729,0.0906 0.330729,0.18758 0,0.20725 -0.288516,0.16946 4.289785,0.56186 l 3.628326,0.31098 1.062111,-0.95956 c 1.174656,-1.06123 1.867694,-1.05243 1.867694,0.0237 0,0.89236 -1.600679,2.40259 -3.499268,3.30153 -1.357237,0.64262 -3.241573,1.17502 -3.710627,1.04839 -0.109141,-0.0295 -0.198438,0.0655 -0.198438,0.21101 0,0.42877 -0.489435,0.30432 -1.06439,-0.27064 z"
         id="path29" /><path
         style="fill:#d5b02b"
         d="m 53.355739,129.01929 c -0.188077,-0.22662 -0.303052,-0.68648 -0.255501,-1.02191 0.07482,-0.5278 0.338246,-0.66019 1.957475,-0.98375 1.588489,-0.31742 2.055371,-0.31944 3.091869,-0.0134 0.671468,0.19826 1.160536,0.45807 1.086819,0.57734 -0.31481,0.50938 -2.818667,1.53406 -4.12317,1.68738 -1.106053,0.13 -1.490298,0.0763 -1.757492,-0.24566 z m 9.550438,-1.03648 c 0.16836,-0.52387 3.401375,-2.84427 3.962925,-2.84427 1.527413,0 2.007331,1.22478 0.803529,2.05064 -1.420433,0.97449 -5.017032,1.57334 -4.766454,0.79363 z m -16.026822,-0.59045 c -0.241745,-0.24174 -0.439536,-0.66065 -0.439536,-0.9309 0,-1.41904 2.20025,-1.77786 3.986647,-0.65016 0.958425,0.60503 1.536486,1.31332 1.27156,1.55802 -0.05436,0.0502 -1.0619,0.17483 -2.238984,0.27694 -1.807166,0.15676 -2.208539,0.11725 -2.579687,-0.2539 z m 10.108208,-2.38914 c -0.566799,-0.30796 -0.962315,-0.32309 -2.116667,-0.081 -0.942015,0.19757 -1.864688,0.21643 -2.742535,0.056 -1.222632,-0.22339 -1.322917,-0.29905 -1.322917,-0.9981 0,-0.63408 0.204165,-0.86332 1.26253,-1.41763 0.780307,-0.40868 1.678632,-0.6555 2.351945,-0.6462 0.693401,0.01 0.997402,-0.077 0.83629,-0.23809 -0.328859,-0.32886 -1.989097,-0.80646 -1.813012,-0.52155 0.07393,0.11962 -0.127059,0.28587 -0.446644,0.36945 -0.714879,0.18694 -3.004104,-1.15434 -2.508276,-1.46963 0.174442,-0.11093 0.945308,-0.38629 1.713037,-0.61192 1.322197,-0.38858 1.46031,-0.38173 2.616845,0.12986 0.941125,0.41631 1.305347,0.47008 1.589088,0.23459 0.577022,-0.47888 2.218888,0.14148 3.33904,1.26164 1.019174,1.01917 1.053243,1.422 0.120264,1.422 -0.498419,0 -0.465915,0.0731 0.275994,0.62043 0.462523,0.34124 1.077763,0.9215 1.367201,1.28946 l 0.526252,0.66902 -0.985069,0.16284 c -1.621862,0.26811 -3.322411,0.17134 -4.063366,-0.23124 z m 4.996527,-1.49511 c -0.765562,-0.27961 -0.95028,-0.95147 -0.410104,-1.49165 0.461226,-0.46123 3.006376,-0.38959 3.995118,0.11244 1.355744,0.68839 1.558881,0.91 1.214497,1.32496 -0.356956,0.4301 -3.667954,0.46753 -4.799511,0.0542 z m 4.812424,-3.68735 c -2.503989,-0.24229 -5.227007,-0.87494 -5.65815,-1.31458 -0.197813,-0.20171 -0.08669,-0.24102 0.382705,-0.13537 2.817942,0.63423 2.848673,0.63565 2.715333,0.12576 -0.105016,-0.40158 0.01515,-0.47504 0.698867,-0.42723 0.681285,0.0477 0.754773,0.1098 0.420197,0.3554 -0.341979,0.25103 -0.307956,0.29766 0.217207,0.29766 0.351964,0 0.622701,-0.15818 0.622701,-0.3638 0,-0.2001 -0.06945,-0.37201 -0.15434,-0.38204 -1.843756,-0.21777 -2.675148,-0.61 -1.44658,-0.68245 0.94021,-0.0555 1.112244,-0.33495 0.498074,-0.80922 -0.618211,-0.47739 -0.848669,-0.51562 2.635922,0.43726 1.158487,0.3168 2.31951,0.52025 2.580052,0.45212 0.260543,-0.0681 0.407214,-0.0163 0.325936,0.11523 -0.08526,0.13795 0.126946,0.13466 0.501596,-0.008 0.357156,-0.13579 0.720853,-0.17541 0.808216,-0.088 0.08736,0.0874 0.900633,0.13207 1.807268,0.0994 1.495326,-0.054 1.714152,-0.13786 2.356096,-0.90333 0.788248,-0.93994 1.139188,-0.86627 0.875634,0.18381 -0.123527,0.49217 -0.567734,0.891 -1.531577,1.37511 -0.746673,0.37503 -1.418312,0.76498 -1.492532,0.86655 -0.25128,0.34388 -3.086209,1.09652 -3.994659,1.06054 -0.496532,-0.0197 -1.922117,-0.13439 -3.167966,-0.25494 z m -9.111903,-3.41347 c -0.08994,-0.14552 -0.09502,-0.37542 -0.0113,-0.51088 0.08372,-0.13547 0.03122,-0.32109 -0.116677,-0.41249 -0.147895,-0.0914 -0.27058,-0.0103 -0.272634,0.18015 -0.0052,0.4825 -2.060761,-1.83365 -2.627808,-2.96094 -0.798794,-1.58801 -1.423732,-6.36144 -0.830812,-6.34595 0.451336,0.0118 0.813554,0.48957 0.664884,0.877 -0.0972,0.25329 -0.04102,0.44186 0.131634,0.44186 0.165657,0 0.380743,0.20836 0.477969,0.46302 0.09723,0.25467 0.391146,0.69383 0.653155,0.97594 0.262009,0.2821 0.476379,0.69994 0.476379,0.92854 0,0.2286 0.238125,0.56434 0.529167,0.7461 0.6527,0.40762 0.68759,0.85654 0.06615,0.8511 -0.395697,-0.003 -0.405315,-0.0413 -0.06615,-0.26053 0.339169,-0.21919 0.329551,-0.25707 -0.06615,-0.26053 -0.287982,-0.003 -0.463021,0.19599 -0.463021,0.52511 0,0.62792 -0.667663,0.71021 -0.897734,0.11066 -0.08833,-0.23019 -0.17441,-0.7362 -0.191291,-1.12448 -0.02451,-0.56373 -0.05865,-0.59935 -0.169447,-0.1768 -0.115501,0.44048 -0.195664,0.37397 -0.478345,-0.39688 -0.233998,-0.63809 -0.34585,-0.75704 -0.35972,-0.38253 -0.01107,0.29894 0.327753,1.09207 0.752942,1.76252 0.425189,0.67046 0.69308,1.30817 0.595312,1.41714 -0.09777,0.10897 -0.02416,0.10953 0.163576,10e-4 0.259428,-0.14964 0.297785,-0.0234 0.15985,0.52621 -0.140446,0.55958 -0.102762,0.67444 0.166649,0.50793 0.253492,-0.15666 0.301095,-0.0926 0.175105,0.23575 -0.216477,0.56413 0.572356,0.49243 1.094912,-0.0995 0.192692,-0.21828 0.278654,-0.25402 0.191027,-0.0794 -0.08763,0.1746 0.08214,0.44668 0.377254,0.60462 0.564137,0.30192 0.749217,1.32689 0.239597,1.32689 -0.205186,0 -0.195173,0.12267 0.0324,0.39687 0.207702,0.25027 0.225438,0.39688 0.04801,0.39688 -0.154751,0 -0.35495,-0.11907 -0.444886,-0.26459 z m 4.365624,-0.74386 c 0,-0.11808 -0.236914,-0.46899 -0.526475,-0.77979 -0.679241,-0.72908 -0.245696,-0.99685 0.766511,-0.47342 1.049469,0.54271 1.201962,0.85639 0.578519,1.19005 -0.623751,0.33382 -0.818555,0.34885 -0.818555,0.0632 z m 11.377083,-0.72365 c -5.54614,-1.2825 -11.155481,-3.60386 -13.446044,-5.56449 -1.033842,-0.88493 -3.222705,-3.87762 -3.222705,-4.40619 0,-0.12126 -0.197852,-0.66313 -0.439671,-1.20416 -0.996494,-2.22949 -1.18222,-2.93831 -1.332312,-5.084731 -0.09914,-1.41774 -0.338583,-2.589776 -0.647848,-3.171081 -0.269822,-0.507168 -0.490586,-0.998739 -0.490586,-1.09238 0,-0.19475 1.120301,-0.647837 2.160959,-0.873963 0.422391,-0.09178 0.93565,-0.525339 1.27835,-1.07984 0.659287,-1.066748 0.629502,-1.053211 1.15691,-0.525803 0.316307,0.316307 0.342717,0.566963 0.125417,1.190311 -0.151588,0.434845 -0.398694,0.713346 -0.549974,0.61985 -0.514297,-0.317854 -0.03928,2.638671 0.665024,4.139156 0.408579,0.870455 0.571775,1.494747 0.406126,1.553603 -0.152311,0.05412 -0.384484,-0.06494 -0.51594,-0.264583 -0.19435,-0.295153 -0.31223,-0.26701 -0.630858,0.150613 -0.215516,0.282475 -0.383479,0.699198 -0.373251,0.926038 0.01331,0.2953 0.08318,0.26215 0.245987,-0.11671 0.216972,-0.504921 0.228243,-0.501891 0.245987,0.0661 0.01023,0.32743 0.114746,0.59532 0.232261,0.59532 0.117516,0 0.436262,0.50601 0.708326,1.12448 0.453228,1.03029 2.197328,3.10885 2.608611,3.10885 0.09546,0 0.404249,0.23068 0.686195,0.51263 0.347395,0.34739 0.411357,0.55263 0.198438,0.63672 -0.172806,0.0683 0.07276,0.20964 0.545703,0.31419 0.9062,0.20034 1.120917,0.56957 0.475292,0.81732 -0.490831,0.18835 -1.357985,-0.4383 -1.325598,-0.95794 0.04084,-0.65528 -0.166586,-0.83804 -0.570582,-0.50276 -0.304102,0.25239 -0.453829,0.2179 -0.737343,-0.16983 -0.333596,-0.45622 -0.382944,-0.43394 -0.792275,0.35762 -0.240086,0.46427 -0.500021,0.84413 -0.577633,0.84413 -0.07761,0 -0.06753,-0.11906 0.02241,-0.26458 0.175269,-0.28359 0.109883,-0.30922 -0.961028,-0.3767 l -0.696445,-0.0439 0.793725,0.98768 c 0.851053,1.05903 1.40429,1.39095 1.854546,1.11268 0.158453,-0.0979 0.204759,-0.0497 0.105895,0.11025 -0.224401,0.36308 1.135343,1.44809 1.594136,1.27203 0.190042,-0.0729 0.317194,0.0119 0.282559,0.18862 -0.03463,0.17666 0.144106,0.30488 0.397202,0.28493 0.253095,-0.02 0.39521,0.0688 0.31581,0.19731 -0.0794,0.12848 0.189772,0.37618 0.59816,0.55046 0.408387,0.17428 0.921117,0.45614 1.139398,0.62637 0.218281,0.17023 0.992188,0.5249 1.719792,0.78815 0.727604,0.26326 1.441979,0.56079 1.5875,0.66119 0.243626,0.16808 0.72515,0.30723 2.513541,0.72639 0.914282,0.21428 2.324724,0.14017 3.14743,-0.16538 0.378966,-0.14075 0.927153,-0.3351 1.218195,-0.43189 0.499983,-0.16629 0.503403,-0.19497 0.062,-0.52002 -0.390147,-0.28732 0.155086,-0.33566 3.307292,-0.29327 l 3.774454,0.0508 1.003004,-0.94272 c 0.797778,-0.74984 1.05016,-0.86643 1.233471,-0.56983 0.284885,0.46096 -0.109398,1.57159 -0.725523,2.04368 -0.908619,0.6962 -4.184718,2.15436 -5.215119,2.32119 -0.582083,0.0942 -1.355989,0.21975 -1.719791,0.27891 -0.363802,0.0592 -1.911615,-0.18152 -3.439584,-0.53484 z m 1.996939,-6.83205 c -0.426406,-0.39518 -0.590809,-0.71647 -0.420479,-0.82174 0.153825,-0.0951 0.465868,0.0133 0.693427,0.24089 0.494221,0.49422 0.806455,0.55048 0.460716,0.083 -0.134534,-0.1819 -0.275227,-0.69937 -0.312652,-1.14993 -0.109469,-1.31791 0.820076,-1.7516 3.530306,-1.64708 1.212782,0.0468 2.156886,0.008 2.098009,-0.0867 -0.05888,-0.0945 0.309205,-0.53726 0.81796,-0.98396 1.044974,-0.9175 1.719107,-0.85214 1.719107,0.16668 0,1.39151 -3.525292,3.79644 -6.152511,4.1972 -0.617942,0.0943 -1.260823,0.2792 -1.428626,0.41098 -0.198643,0.15599 -0.549392,0.0132 -1.005257,-0.40931 z m -9.007379,-4.72266 c -0.986023,-0.57153 -2.501789,-2.13022 -2.33461,-2.40072 0.09583,-0.15505 0.03525,-0.18818 -0.142836,-0.0781 -0.178295,0.11019 -0.699742,-0.17723 -1.231505,-0.6788 -1.225424,-1.155849 -1.179306,-1.525664 0.06991,-0.560618 0.545703,0.421568 1.556388,1.115938 2.245967,1.543038 0.923123,0.57176 1.215117,0.89838 1.107178,1.23846 -0.113518,0.35767 -0.03821,0.42291 0.33372,0.28912 0.264177,-0.095 0.387291,-0.0707 0.273586,0.0541 -0.113705,0.12476 0.06489,0.37764 0.396875,0.56195 0.372582,0.20684 0.451709,0.33561 0.206736,0.33643 -0.218281,7.3e-4 -0.634542,-0.13643 -0.925024,-0.3048 z"
         id="path28" /><path
         style="fill:#b06c3d"
         d="m 53.385132,129.07784 c -0.396795,-0.40907 -0.43696,-1.46116 -0.06457,-1.69131 0.462319,-0.28573 4.760923,-0.39588 4.760923,-0.122 0,0.1404 -0.327422,0.25709 -0.727605,0.25932 -0.985287,0.005 -1.597813,0.38839 -0.992732,0.62058 0.740304,0.28408 1.506699,0.20102 1.295673,-0.14043 -0.127882,-0.20692 -0.04815,-0.25461 0.240495,-0.14385 0.237493,0.0911 0.513546,0.0334 0.613451,-0.12821 0.119498,-0.19335 0.0545,-0.22015 -0.189965,-0.0783 -0.204385,0.11858 -0.279244,0.11406 -0.166353,-0.01 0.303044,-0.33312 1.314028,-0.44153 1.115044,-0.11956 -0.663304,1.07325 -5.190855,2.26878 -5.884362,1.55381 z m 9.458853,-1.01326 c 0,-0.32985 0.471125,-0.60639 1.160458,-0.68116 0.9114,-0.0989 0.956209,-0.11688 0.956209,-0.38449 0,-0.14095 -0.208359,-0.19149 -0.463021,-0.11231 -0.349367,0.10862 -0.333131,0.0626 0.06615,-0.18754 0.291042,-0.18232 0.659933,-0.50716 0.819758,-0.72186 0.159825,-0.21469 0.430665,-0.30378 0.601868,-0.19797 0.184921,0.11428 0.281765,0.0527 0.238575,-0.15174 -0.09564,-0.45267 0.944785,-0.60025 1.633442,-0.23169 1.236075,0.66153 0.236359,1.9628 -2.001423,2.60513 -1.305024,0.37459 -3.012012,0.41065 -3.012012,0.0636 z M 46.88793,127.40094 c -0.537227,-0.53723 -0.578743,-1.30022 -0.09696,-1.782 0.634172,-0.63417 3.850391,-0.27736 3.442909,0.38196 -0.09766,0.15801 -0.04529,0.19964 0.121463,0.0966 0.346384,-0.21407 1.376145,0.59725 1.376145,1.08424 0,0.18594 -0.280191,0.33807 -0.622646,0.33807 -0.342456,0 -1.331431,0.0741 -2.197723,0.16463 -1.278054,0.13358 -1.659581,0.0801 -2.023187,-0.28348 z m 10.099633,-2.39772 c -0.566799,-0.30796 -0.962315,-0.32309 -2.116667,-0.081 -1.553502,0.32583 -3.947114,0.0444 -4.122999,-0.48467 -0.06212,-0.18688 0.393292,-0.37209 1.181511,-0.48049 1.418547,-0.1951 2.540283,-0.69736 1.389578,-0.62219 -0.363802,0.0238 -0.915249,-0.0405 -1.225438,-0.14279 -0.389104,-0.12833 -0.61214,-0.0605 -0.7193,0.21876 -0.171536,0.44701 -0.701095,0.55626 -0.701095,0.14463 0,-0.48995 2.597314,-1.59196 3.752067,-1.59196 1.059837,0 1.098091,-0.0257 0.671861,-0.45196 -0.38966,-0.38966 -0.607199,-0.41009 -1.578051,-0.14822 -1.047383,0.28251 -1.206737,0.25157 -2.280056,-0.4427 l -1.15397,-0.74643 1.707587,-0.56825 c 1.650003,-0.54908 2.764314,-0.52832 2.410036,0.0449 -0.09543,0.15441 -0.04588,0.2 0.111609,0.10267 0.155793,-0.0963 0.605391,-0.0526 0.999105,0.0971 0.514472,0.1956 0.820848,0.18502 1.089116,-0.0376 0.285666,-0.23708 0.604122,-0.23333 1.356879,0.016 1.106436,0.36645 2.33681,1.26639 2.081045,1.52216 -0.09248,0.0925 -0.377241,-0.0143 -0.632794,-0.2372 -0.255554,-0.22295 -0.762299,-0.54629 -1.126101,-0.71853 -0.58686,-0.27786 -0.609239,-0.27095 -0.198438,0.0613 0.254662,0.20597 0.463021,0.4634 0.463021,0.57207 0,0.10867 -0.208359,0.11825 -0.463021,0.0213 -0.320088,-0.12186 -0.378706,-0.0912 -0.189891,0.0993 0.150222,0.15156 0.78344,0.32154 1.407152,0.37772 1.237837,0.1115 1.884153,0.51081 1.355552,0.83751 -0.353716,0.21861 -3.029144,0.20781 -3.731343,-0.0151 -0.24782,-0.0786 -0.527161,-0.0191 -0.620756,0.13234 -0.110004,0.17799 0.344351,0.27534 1.285035,0.27534 0.800365,0 1.528793,0.11907 1.61873,0.26459 0.08994,0.14552 0.364854,0.26276 0.610928,0.26053 0.388514,-0.004 0.395165,-0.041 0.05053,-0.28473 -0.352778,-0.24949 -0.352778,-0.26741 0,-0.16131 0.218281,0.0656 0.367109,0.25331 0.330729,0.41702 -0.03638,0.16371 0.05292,0.31254 0.198437,0.33073 0.145521,0.0182 0.413412,0.05 0.595313,0.0707 0.181901,0.0207 0.321911,0.29753 0.311134,0.61523 -0.01078,0.31771 0.07852,0.51701 0.198438,0.4429 0.119917,-0.0741 0.36686,-0.041 0.548761,0.0737 0.915082,0.57673 -3.813836,0.78733 -4.864235,0.21663 z m 4.996527,-1.49511 c -0.765562,-0.27961 -0.95028,-0.95147 -0.410104,-1.49165 0.461226,-0.46123 3.006376,-0.38959 3.995118,0.11244 1.355744,0.68839 1.558881,0.91 1.214497,1.32496 -0.356956,0.4301 -3.667954,0.46753 -4.799511,0.0542 z m 13.559895,-5.87451 c 0,-0.46176 1.010227,-1.75547 1.370803,-1.75547 0.165124,0 0.20432,0.28922 0.09861,0.7276 -0.251753,1.044 -1.46941,1.89577 -1.46941,1.02787 z m -5.141319,-3.50067 c -3.734677,-1.02421 -8.97899,-3.42099 -10.558187,-4.82535 -0.412197,-0.36656 -1.387858,-1.6945 -2.111419,-2.87377 -0.106703,-0.17391 0.493589,0.36285 1.333981,1.19279 2.592761,2.56052 7.159219,4.95762 11.912882,6.25349 1.491588,0.40662 2.711979,0.78439 2.711979,0.8395 0,0.21678 -1.028453,0.0333 -3.289236,-0.58666 z m 11.615348,-0.62268 c 0.08539,-0.13817 -0.294533,-0.32888 -0.844281,-0.42381 -0.549747,-0.0949 -1.535321,-0.33933 -2.190165,-0.54313 -1.178366,-0.36672 -1.167468,-0.36902 1.058334,-0.22308 l 2.248958,0.14746 1.01211,-0.99014 c 0.766445,-0.74981 1.064936,-0.90467 1.229748,-0.638 0.358299,0.57974 -0.208483,1.69208 -1.185499,2.3266 -0.946825,0.61491 -1.601287,0.78433 -1.329205,0.3441 z m 0.03034,-8.56867 -0.771677,-0.32935 1.004374,-0.8279 c 1.063423,-0.87656 1.729604,-0.88863 1.729604,-0.0313 0,0.70526 -0.476786,1.54444 -0.869204,1.52987 -0.176781,-0.007 -0.668675,-0.16014 -1.093097,-0.34128 z M 55.099332,99.738543 c -0.102417,-0.654844 -0.129204,-1.825454 -0.05953,-2.601357 0.134967,-1.502926 -0.170926,-2.425727 -0.804088,-2.425727 -0.213161,0 -0.387566,-0.09995 -0.387566,-0.222113 0,-0.304711 1.219187,-0.835326 1.930679,-0.840271 0.787989,-0.0055 1.093026,-0.241631 1.606365,-1.243615 0.295278,-0.576354 0.566832,-0.80054 0.84185,-0.695006 0.223284,0.08568 0.341484,0.289945 0.262667,0.453916 -0.07882,0.163972 -0.216798,0.50649 -0.306624,0.761152 -0.08983,0.254661 -0.25541,0.463021 -0.367964,0.463021 -0.193066,0 -0.144411,0.98222 0.137617,2.778125 l 0.12465,0.79375 -0.521237,-0.661459 c -0.28668,-0.363802 -0.523884,-0.765333 -0.527119,-0.892292 -0.0083,-0.32757 -0.773824,0.349689 -1.114309,0.985891 -0.157182,0.293697 -0.36305,1.434583 -0.457484,2.535302 -0.167604,1.95359 -0.176138,1.97292 -0.357911,0.810683 z"
         id="path27" /><path
         style="fill:#4f3611"
         d="m 82.242667,113.57485 c 0.208997,-0.33816 -0.02323,-0.42752 -2.266911,-0.87226 -0.836745,-0.16586 -1.521354,-0.34139 -1.521354,-0.39008 0,-0.0487 0.926776,-0.025 2.059502,0.0526 l 2.059503,0.14116 0.854234,-0.97292 c 0.717737,-0.81745 0.881909,-0.90079 1.027435,-0.52156 0.240561,0.62689 -0.405478,1.62481 -1.488647,2.29947 -0.501562,0.31241 -0.827255,0.431 -0.723762,0.26354 z m -17.282015,-1.49626 c -2.774675,-1.24382 -4.368363,-2.18909 -5.134236,-3.04531 -0.617826,-0.69071 -0.332474,-0.74718 0.387265,-0.0766 0.287414,0.26777 0.847982,0.65453 1.245708,0.85947 0.397726,0.20495 0.782669,0.44048 0.85543,0.5234 0.137848,0.15711 4.862523,2.46061 5.55625,2.70894 0.352777,0.12628 0.352777,0.14289 0,0.14948 -0.218282,0.004 -1.527969,-0.49963 -2.910417,-1.11934 z m 17.246059,-7.1565 -0.877899,-0.30355 1.050694,-0.84436 c 0.885664,-0.71174 1.099713,-0.7853 1.362779,-0.46832 0.341377,0.41133 0.168542,1.26522 -0.337192,1.66588 -0.206964,0.16396 -0.631447,0.14638 -1.198382,-0.0496 z M 55.567944,96.031159 c 0,-0.41054 0.0893,-0.835733 0.198438,-0.944873 0.341611,-0.341611 0.217528,-0.639577 -0.264584,-0.635358 -0.395697,0.0035 -0.405314,0.04134 -0.06615,0.260531 0.622823,0.402499 -0.0562,0.289328 -0.79375,-0.132291 -0.594454,-0.339821 -0.408845,-0.556667 0.35858,-0.418924 0.124458,0.02234 0.387133,-0.09288 0.583722,-0.256029 0.196589,-0.163155 0.468222,-0.228175 0.603629,-0.144488 0.135407,0.08369 0.393326,-0.02513 0.573154,-0.241806 0.179827,-0.216679 0.52074,-0.384562 0.757583,-0.373074 0.276742,0.01342 0.31185,0.06877 0.09825,0.15489 -0.182807,0.0737 -0.26592,0.241531 -0.184695,0.372956 0.08122,0.131426 -0.04603,0.164622 -0.282783,0.07377 -0.317202,-0.121721 -0.407838,-0.0339 -0.344471,0.33376 0.04891,0.283793 -0.05252,0.47179 -0.235214,0.435973 -0.176664,-0.03463 -0.257844,0.10215 -0.1804,0.303966 0.07745,0.201816 0.01363,0.44554 -0.141813,0.541608 -0.155442,0.09607 -0.282621,0.398741 -0.282621,0.672606 0,0.273865 -0.0893,0.553125 -0.198437,0.620578 -0.109141,0.06745 -0.198438,-0.213255 -0.198438,-0.623795 z"
         id="path26" /></g></g></svg>
