<?xml version="1.0" encoding="UTF-8" standalone="no"?>
<!-- Created with Inkscape (http://www.inkscape.org/) -->

<svg
   width="53.724529mm"
   height="65.635597mm"
   viewBox="0 0 53.724529 65.635597"
   version="1.1"
   id="svg1"
   inkscape:export-filename="weight-lifting.svg"
   inkscape:export-xdpi="96"
   inkscape:export-ydpi="96"
   xml:space="preserve"
   xmlns:inkscape="http://www.inkscape.org/namespaces/inkscape"
   xmlns:sodipodi="http://sodipodi.sourceforge.net/DTD/sodipodi-0.dtd"
   xmlns="http://www.w3.org/2000/svg"
   xmlns:svg="http://www.w3.org/2000/svg"><sodipodi:namedview
     id="namedview1"
     pagecolor="#ffffff"
     bordercolor="#000000"
     borderopacity="0.25"
     inkscape:showpageshadow="2"
     inkscape:pageopacity="0.0"
     inkscape:pagecheckerboard="0"
     inkscape:deskcolor="#d1d1d1"
     inkscape:document-units="mm"><inkscape:page
       x="0"
       y="0"
       width="53.724529"
       height="65.635597"
       id="page2"
       margin="0"
       bleed="0" /></sodipodi:namedview><defs
     id="defs1" /><g
     inkscape:label="Calque 1"
     inkscape:groupmode="layer"
     id="layer1"
     transform="translate(-95.795947,-120.3742)"><g
       id="g223"
       transform="translate(20.536103,11.365894)"><path
         style="fill:#d2e6f3"
         d="m 75.273956,141.81667 v -32.80834 h 26.855204 26.85521 V 141.81667 174.625 H 102.12916 75.273956 Z"
         id="path229" /><path
         style="fill:#c4daea"
         d="m 88.34344,173.28759 c 1.876706,-0.71938 3.554536,-1.42609 3.728511,-1.57048 0.173975,-0.14438 0.408048,-0.17426 0.520163,-0.0664 0.221929,0.21354 0.0036,-2.26485 -0.431924,-4.9034 -0.305356,-1.84989 -0.135421,-3.28314 0.446533,-3.76612 0.211987,-0.17593 0.533203,-1.03532 0.713813,-1.90975 0.180611,-0.87443 0.480266,-1.64816 0.665901,-1.71939 0.391899,-0.15039 0.45834,-1.5545 0.08449,-1.78555 -0.139166,-0.086 -0.185377,-0.33268 -0.102691,-0.54815 0.08268,-0.21548 0.01797,-0.55127 -0.143821,-0.74621 -0.161786,-0.19494 -0.370322,-1.08315 -0.463413,-1.9738 -0.09309,-0.89064 -0.260593,-1.5629 -0.372227,-1.49391 -0.111634,0.069 -0.14371,-0.10117 -0.07128,-0.37814 0.07243,-0.27697 -0.20352,-1.23387 -0.613221,-2.12645 -0.594077,-1.29426 -0.787487,-1.5272 -0.955173,-1.15043 -0.131134,0.29465 -0.160332,0.12395 -0.07758,-0.4536 0.116324,-0.81191 0.08927,-0.86948 -0.219542,-0.46713 -0.19372,0.2524 -0.429742,0.38138 -0.524494,0.28663 -0.1449,-0.1449 -0.196136,0.11537 -0.166758,0.8471 0.003,0.0756 -0.226342,0.38631 -0.509726,0.69048 -0.283384,0.30418 -0.449854,0.72345 -0.369933,0.93172 0.07992,0.20827 0.04141,0.34733 -0.08559,0.30902 -0.316277,-0.0954 -1.708057,0.85678 -1.572621,1.07592 0.05992,0.0969 -0.38759,0.14663 -0.99446,0.1104 -1.580521,-0.0944 -1.759083,-0.13985 -1.594433,-0.40626 0.08093,-0.13094 -0.07313,-0.41759 -0.342367,-0.63698 -0.269234,-0.21939 -0.327932,-0.31562 -0.130441,-0.21384 0.26628,0.13722 0.315155,0.0467 0.189123,-0.35043 -0.624664,-1.96814 -1.098672,-3.99135 -0.907421,-3.87315 0.124812,0.0771 0.226931,-0.0899 0.226931,-0.37126 0,-0.28134 0.177075,-1.0134 0.393501,-1.62682 0.282897,-0.80182 0.317464,-1.25737 0.122982,-1.62076 -0.295842,-0.55279 -1.10783,-0.71014 -0.901725,-0.17474 0.09943,0.25827 -0.82979,0.31353 -4.241637,0.25224 l -4.368954,-0.0785 v -17.18376 -17.18376 h 18.932203 c 12.467051,0 18.876741,0.0897 18.769801,0.26277 -0.0893,0.14452 -0.0363,0.26277 0.1178,0.26277 0.15411,0 0.2802,-0.11906 0.2802,-0.26459 0,-0.1704 2.77812,-0.26458 7.8052,-0.26458 h 7.80521 v 32.80834 32.80833 h -6.24998 -6.24998 l 0.43289,-0.59531 c 0.23808,-0.32742 0.51223,-0.77391 0.60922,-0.99219 0.097,-0.21828 0.37426,-0.57547 0.61618,-0.79375 0.44293,-0.39965 1.05209,-1.40117 1.05209,-1.72974 0,-0.0974 -0.67332,0.69848 -1.49626,1.76854 -0.82294,1.07007 -1.62662,2.03305 -1.78594,2.13996 -0.15932,0.10691 -3.14718,0.18681 -6.63968,0.17755 -3.4925,-0.009 -6.1714,-0.0848 -5.95312,-0.16791 0.21828,-0.0831 0.4564,-0.22554 0.52917,-0.31655 0.11047,-0.13817 0.95053,-0.76364 4.36562,-3.25043 0.70695,-0.51479 3.49581,-2.75077 3.91642,-3.14001 0.39094,-0.36179 0.40887,-0.46736 0.0995,-0.58605 -0.22526,-0.0864 -0.51537,0.11324 -0.71998,0.49555 -0.18849,0.35219 -0.47591,0.64034 -0.63871,0.64034 -0.16281,0 -0.70824,0.35235 -1.21207,0.783 -0.50382,0.43065 -0.99921,0.78783 -1.10085,0.79375 -0.10164,0.006 -0.51603,0.31772 -0.92086,0.6929 -0.40483,0.37519 -1.66112,1.33037 -2.79176,2.12262 -1.13063,0.79226 -2.0557,1.5547 -2.0557,1.69432 0,0.15725 -3.397851,0.25006 -8.929685,0.2439 l -8.929687,-0.01 z m 24.30291,-13.61215 c 0.69122,-0.43411 1.25677,-0.91035 1.25677,-1.05831 0,-0.14795 0.22338,-0.40851 0.49641,-0.57902 0.34382,-0.21472 0.55402,-0.77117 0.68385,-1.81034 0.1031,-0.82519 0.23996,-1.78986 0.30413,-2.14372 l 0.11666,-0.64339 -1.09276,0.55749 c -0.60103,0.30662 -1.02005,0.43983 -0.93117,0.29602 0.0889,-0.14381 0.012,-0.31414 -0.17078,-0.3785 -0.20607,-0.0726 0.12008,-0.57165 0.85825,-1.31336 0.65484,-0.65798 1.5318,-1.62984 1.94879,-2.15969 0.74105,-0.94161 0.75576,-1.02333 0.65147,-3.61985 -0.0739,-1.84 -0.2157,-2.72387 -0.46134,-2.87568 -0.19505,-0.12055 -0.28431,-0.33296 -0.19837,-0.47203 0.17038,-0.27567 -0.2827,-2.19334 -0.59674,-2.52572 -0.10698,-0.11323 -0.71277,0.0262 -1.3462,0.30976 l -1.15169,0.51563 0.9716,0.18227 c 0.53438,0.10025 0.91379,0.2758 0.84314,0.39012 -0.1358,0.21973 0.63854,0.64702 1.01779,0.56162 0.12278,-0.0276 0.17623,0.0908 0.11878,0.26311 -0.0716,0.21477 -0.80434,0.29488 -2.32858,0.25459 -1.22326,-0.0323 -2.31028,-0.11205 -2.4156,-0.17714 -0.10532,-0.0651 -0.26628,0.003 -0.35768,0.15055 -0.25262,0.40876 -0.66753,0.32105 -0.50349,-0.10643 0.0792,-0.20643 0.5815,-0.49178 1.11618,-0.63411 0.53468,-0.14234 0.73402,-0.26848 0.44298,-0.28032 -0.29104,-0.0118 -1.00542,0.19446 -1.5875,0.45847 -0.58209,0.264 -1.19625,0.43369 -1.36482,0.37709 -0.16856,-0.0566 -0.38395,0.0224 -0.47863,0.17565 -0.10704,0.17319 0.15312,0.27855 0.68778,0.27855 0.81292,0 0.83186,0.0212 0.34634,0.38846 -0.50204,0.37972 -0.50055,0.38865 0.0661,0.39687 0.31883,0.005 0.65328,-0.11064 0.74322,-0.25616 0.0899,-0.14553 0.30107,-0.26459 0.46918,-0.26459 0.68771,0 -0.61156,0.86399 -1.43648,0.95523 -0.48663,0.0538 -0.76572,0.01 -0.6202,-0.098 0.42926,-0.3177 0.42926,-0.85728 0,-0.85728 -0.40516,0 -0.51702,0.41255 -0.43043,1.5875 0.0389,0.52761 -0.006,0.58115 -0.22343,0.26459 -0.24194,-0.35278 -0.30113,-0.35278 -0.53272,0 -0.14329,0.21828 -0.26235,0.57874 -0.26458,0.80102 -0.002,0.22228 -0.19642,0.6788 -0.43155,1.01448 -0.31455,0.4491 -0.3495,0.68833 -0.13229,0.90554 0.37917,0.37917 0.38452,0.80497 0.007,0.57176 -0.2019,-0.12478 -0.26123,0.53524 -0.19843,2.20741 0.0493,1.31197 0.17852,2.33075 0.28722,2.26394 0.1087,-0.0668 0.0787,0.19124 -0.0666,0.57346 -0.31423,0.8265 -0.0613,2.23714 0.30044,1.67555 0.14388,-0.22338 0.17582,-0.0603 0.0858,0.43788 -0.1516,0.83899 0.51282,1.74104 2.14373,2.91041 0.40591,0.29105 0.98526,0.73331 1.28746,0.9828 0.30219,0.2495 0.60897,0.42696 0.68173,0.39436 0.0728,-0.0326 0.69784,-0.41447 1.38906,-0.84859 z m 7.04627,-6.15096 c -0.0855,-0.54152 0.0805,-0.81105 0.58014,-0.94169 0.30184,-0.0789 0.61338,-0.39048 0.69231,-0.69232 0.0789,-0.30184 0.30823,-0.5488 0.50954,-0.5488 0.2013,0 0.36601,-0.22424 0.36601,-0.49831 0,-0.27579 0.2363,-0.5601 0.52917,-0.63669 0.29104,-0.0761 0.52916,-0.32812 0.52916,-0.56003 0,-0.24525 0.22137,-0.42164 0.52917,-0.42164 0.44097,0 0.52917,-0.17639 0.52917,-1.05833 0,-0.774 0.10886,-1.05834 0.40518,-1.05834 0.22285,0 0.47197,-0.17406 0.55361,-0.3868 0.0816,-0.21274 0.37555,-0.45889 0.65315,-0.547 0.2776,-0.0881 0.50472,-0.39029 0.50472,-0.67153 0,-0.28123 0.1786,-0.51133 0.39688,-0.51133 0.28663,0 0.39687,-0.29399 0.39687,-1.05834 0,-0.76435 -0.11024,-1.05833 -0.39687,-1.05833 -0.21828,0 -0.39688,0.11906 -0.39688,0.26458 0,0.33483 -4.40993,0.35642 -4.61624,0.0226 -0.0823,-0.13309 -0.014,-0.28719 0.15179,-0.34243 0.19437,-0.0648 0.22802,-0.33109 0.0948,-0.7502 -0.19557,-0.61521 -0.21755,-0.62163 -0.41339,-0.12059 -0.16768,0.42898 -0.21036,0.36637 -0.22543,-0.33073 -0.0102,-0.47294 0.10046,-0.8599 0.24598,-0.8599 0.14553,0 0.25078,-0.50601 0.2339,-1.12448 -0.0169,-0.61846 -0.0851,-0.91612 -0.1517,-0.66146 -0.0665,0.25467 -0.23133,0.46303 -0.36618,0.46303 -0.13504,0 -0.24518,1.255 -0.24518,2.79374 0,1.79511 -0.0946,2.73528 -0.26459,2.63021 -0.23187,-0.1433 -0.39501,0.9658 -0.32791,2.22933 0.011,0.20748 -0.15293,1.27904 -0.36435,2.38125 -0.5189,2.70534 -0.64282,3.75464 -0.47539,4.02554 0.17314,0.28015 0.38506,0.29809 0.34257,0.029 z"
         id="path228" /><path
         style="fill:#b5d2e4"
         d="m 92.811413,174.14052 c -0.0861,-0.24286 -0.20475,-0.53086 -0.26366,-0.64 -0.05891,-0.10914 0.01898,-0.19844 0.173088,-0.19844 0.154109,0 0.294009,0.26789 0.31089,0.59532 0.02412,0.46791 0.05712,0.49344 0.154197,0.11928 0.06793,-0.26182 -0.0773,-0.78249 -0.322719,-1.15706 -0.245424,-0.37456 -0.316606,-0.60091 -0.158182,-0.503 0.191524,0.11837 0.244568,-0.0702 0.1583,-0.56274 -0.07136,-0.40741 -0.257359,-1.75279 -0.413333,-2.98971 -0.155974,-1.23693 -0.348809,-2.74968 -0.428521,-3.36167 -0.10841,-0.83231 -0.01039,-1.34073 0.388974,-2.0176 0.293649,-0.4977 0.728581,-1.57456 0.966515,-2.39303 0.237935,-0.81847 0.553563,-1.48812 0.701394,-1.48812 0.356382,0 0.174245,-3.02006 -0.210114,-3.48396 -0.160635,-0.19387 -0.416405,-1.24743 -0.568378,-2.34124 -0.179993,-1.29548 -0.633677,-2.76267 -1.301464,-4.20886 l -1.025149,-2.22012 -0.810102,1.69532 c -2.526044,5.28631 -5.662799,4.51689 -5.66585,-1.3898 -9.57e-4,-1.85375 0.303407,-3.10517 1.180168,-4.85238 0.219069,-0.43657 0.600667,-1.80578 0.847993,-3.04271 0.492915,-2.46516 1.187561,-4.07507 1.929693,-4.47225 0.543395,-0.29081 1.106303,-2.82118 1.106303,-4.97301 0,-0.72296 0.0893,-1.40376 0.198437,-1.5129 0.199519,-0.19952 0.236778,-0.33671 0.297657,-1.096 0.01819,-0.22687 0.138644,-0.34724 0.267677,-0.26749 0.129032,0.0797 0.383998,-0.035 0.56659,-0.25503 0.280108,-0.33751 0.253784,-0.3745 -0.168458,-0.23671 -0.40323,0.13158 -0.424523,0.10966 -0.109613,-0.11285 0.282705,-0.19976 0.506963,-0.17106 0.810592,0.10372 0.294067,0.26613 0.50323,0.29641 0.698515,0.10112 0.195285,-0.19528 0.326037,-0.15554 0.436657,0.13273 0.08685,0.22632 0.07289,0.39882 -0.03101,0.38333 -0.511684,-0.0763 -0.619521,0.0719 -0.317306,0.43608 0.219813,0.26486 0.281584,0.83805 0.181437,1.68362 -0.0978,0.82578 -0.0401,1.39467 0.162141,1.59848 0.243035,0.24493 0.194412,0.28114 -0.215187,0.16028 -0.441067,-0.13016 -0.432372,-0.10505 0.05223,0.15083 0.319767,0.16885 0.622599,0.55948 0.67296,0.86808 0.05644,0.34586 0.144574,0.1661 0.229753,-0.46861 0.114849,-0.85581 0.05328,-1.05191 -0.364598,-1.16119 -0.296995,-0.0777 -0.387086,-0.20299 -0.22011,-0.30618 0.171757,-0.10615 0.299166,-1.44951 0.324702,-3.42355 0.02312,-1.78687 0.13394,-3.10014 0.246278,-2.91837 0.262043,0.42399 1.572328,-0.37325 1.572328,-0.95669 0,-0.23006 0.244836,-0.38911 0.595313,-0.38672 0.493551,0.003 0.527471,0.0522 0.198437,0.28598 -0.300732,0.21363 -0.20459,0.23971 0.396875,0.10763 0.436563,-0.0959 1.003266,-0.36313 1.259342,-0.5939 0.398732,-0.35935 0.560207,-0.36896 1.124479,-0.067 0.362388,0.19394 0.658888,0.45253 0.658888,0.57463 0,0.30353 2.472758,0.19775 2.677938,-0.11456 0.0904,-0.13762 0.24654,0.29756 0.34694,0.96708 0.1004,0.66952 0.29432,1.21731 0.43092,1.21731 0.1366,0 0.24837,0.27384 0.24837,0.60854 0,0.33469 0.14783,0.75637 0.32852,0.93706 0.26163,0.26163 0.25437,0.37434 -0.0357,0.5536 -0.2474,0.1529 -0.38511,0.87399 -0.42943,2.24858 -0.0478,1.48307 -0.18819,2.15936 -0.52558,2.53217 -0.29441,0.32533 -0.38999,0.67911 -0.26515,0.98155 0.13121,0.31789 0.23567,0.36448 0.31872,0.14214 0.15001,-0.40161 0.63558,-0.44558 0.54246,-0.0491 -0.0714,0.30416 2.2736,1.30532 3.05832,1.30568 0.26325,1.2e-4 0.41694,0.10004 0.34153,0.22206 -0.0754,0.12201 1.03681,0.22672 2.47159,0.23269 1.43478,0.006 2.72179,0.0807 2.86001,0.16617 0.13822,0.0854 0.77515,0.15132 1.4154,0.14644 3.754,-0.0286 6.15943,0.96447 6.8342,2.82152 0.48326,1.32997 0.48895,9.32464 0.008,11.62487 -0.30391,1.45434 -0.3428,2.64783 -0.18101,5.55625 0.0472,0.84836 -0.0264,1.04442 -0.37107,0.98819 -0.30139,-0.0492 -0.42995,0.12859 -0.42995,0.5945 0,0.92909 -0.55453,1.55866 -1.02729,1.16631 -0.27907,-0.23161 -0.36178,-0.20803 -0.36178,0.10314 0,0.47283 -1.49606,1.08173 -1.72955,0.70394 -0.0846,-0.13683 -0.0277,-0.24878 0.12644,-0.24878 0.15411,0 0.2802,-0.20135 0.2802,-0.44745 0,-0.40022 -0.0376,-0.39595 -0.35674,0.0404 -0.55887,0.76431 -0.94314,0.29454 -0.6938,-0.84819 0.11925,-0.54656 0.29452,-1.62792 0.38949,-2.40303 0.16574,-1.35266 0.15129,-1.39784 -0.3595,-1.12448 -0.6238,0.33385 -1.88987,0.38073 -1.88987,0.07 0,-0.11815 0.3605,-0.48135 0.80111,-0.80711 0.44438,-0.32854 0.72072,-0.72235 0.62058,-0.88439 -0.10598,-0.17147 -0.0599,-0.21752 0.11166,-0.11152 0.16244,0.1004 0.42663,-0.0871 0.59497,-0.42214 0.16653,-0.33149 0.59078,-0.84656 0.94278,-1.14459 0.56967,-0.48232 0.64495,-0.77464 0.68505,-2.6601 0.0317,-1.49077 -0.14076,-2.83895 -0.58224,-4.55136 -0.34501,-1.33822 -0.69426,-2.43258 -0.77612,-2.4319 -0.41258,0.003 -3.16593,1.2591 -3.03904,1.386 0.0811,0.081 -0.009,0.1295 -0.20101,0.10767 -0.51021,-0.0581 -4.33761,1.2323 -3.99436,1.34671 0.17742,0.0591 -0.11694,0.96787 -0.75361,2.3265 l -1.04476,2.22946 0.0287,3.51111 c 0.035,4.28396 0.298,5.27882 1.78204,6.74184 1.28746,1.26924 3.45229,2.62766 3.99089,2.50428 0.1965,-0.045 0.28292,0.0385 0.19203,0.18552 -0.0909,0.14705 0.39207,0.59398 1.07322,0.99316 0.68116,0.39919 1.59108,1.07048 2.02205,1.49177 0.5243,0.51251 0.87145,0.6781 1.04913,0.50041 0.14606,-0.14606 0.44339,-0.19732 0.66073,-0.11392 0.30711,0.11785 0.35332,0.0198 0.20738,-0.44 -0.18427,-0.58061 -0.17502,-0.58328 0.49637,-0.14337 0.66241,0.43403 0.70664,0.97339 0.0734,0.89522 -0.83399,-0.10296 -1.0138,0.0206 -0.61316,0.4212 0.21828,0.21829 0.52444,0.39688 0.68036,0.39688 0.15591,0 0.28348,0.13294 0.28348,0.29543 0,0.16782 0.26985,0.24384 0.62477,0.17599 0.45134,-0.0863 0.6166,-0.003 0.59532,0.29989 -0.0204,0.29089 0.16356,0.39812 0.60079,0.3501 0.56155,-0.0617 0.5904,-0.0206 0.26459,0.37661 -0.32671,0.39832 -0.3022,0.42947 0.23,0.29233 0.36985,-0.0953 0.53253,-0.0513 0.42912,0.11599 -0.24277,0.39281 0.50292,0.78041 0.75953,0.3948 0.15081,-0.22663 0.35985,-0.13902 0.73459,0.30786 0.41811,0.4986 0.52379,0.53513 0.52379,0.18104 0,-0.24397 -0.12148,-0.67056 -0.26995,-0.94798 -0.3969,-0.74162 0.71098,-2.83827 1.5588,-2.95 0.47932,-0.0632 0.76032,-0.41045 1.19062,-1.4715 0.53867,-1.32823 0.60652,-1.38882 1.55542,-1.38906 0.98121,-2.5e-4 0.99219,0.0115 0.99219,1.05808 0,0.76435 0.11024,1.05834 0.39688,1.05834 0.34045,0 0.39687,0.8073 0.39687,5.6782 v 5.67821 l -6.09455,0.01 c -5.98927,0.01 -6.08973,9.8e-4 -5.81477,-0.51277 0.15388,-0.28753 0.51518,-0.64877 0.80289,-0.80274 0.2877,-0.15398 0.52575,-0.4246 0.52898,-0.60138 0.003,-0.17678 0.23871,-0.61907 0.52328,-0.98288 0.45762,-0.58503 0.51808,-0.60286 0.52329,-0.15434 0.003,0.27892 0.0712,0.4418 0.15105,0.36195 0.36607,-0.36606 -0.23448,-1.44822 -0.95452,-1.72001 -0.79946,-0.30176 -1.00382,-0.14202 -0.4837,0.3781 0.30519,0.30519 0.0801,0.9689 -0.25781,0.76007 -0.10525,-0.0651 -0.21013,0.13066 -0.23304,0.4349 -0.0441,0.58554 -0.48964,0.99159 -0.97023,0.88426 -0.15872,-0.0355 -0.19928,-0.0145 -0.0901,0.0465 0.28583,0.15985 0.2346,0.39362 -0.2173,0.99163 -0.34431,0.45562 -0.43606,0.47373 -0.67037,0.13229 -0.20913,-0.30473 -0.2328,-0.25818 -0.10307,0.20271 l 0.1684,0.5983 -6.11153,-0.0164 c -4.14653,-0.0111 -6.05704,-0.10455 -5.94204,-0.29062 0.0932,-0.15083 0.40358,-0.21302 0.68969,-0.1382 0.37329,0.0976 0.47929,0.0294 0.37532,-0.24153 -0.0847,-0.2208 0.0155,-0.37757 0.24144,-0.37757 0.21248,0 0.53504,-0.23813 0.7168,-0.52917 0.18176,-0.29104 0.48253,-0.52917 0.66838,-0.52917 0.18584,0 0.76255,-0.43727 1.28157,-0.97172 0.76927,-0.79214 0.99305,-0.90215 1.21091,-0.59531 0.21428,0.30182 0.23803,0.28545 0.11984,-0.0826 -0.0921,-0.28685 0.0396,-0.55907 0.35129,-0.72587 0.27427,-0.14679 0.69736,-0.46557 0.9402,-0.7084 0.37483,-0.37484 0.48162,-0.38509 0.70704,-0.0679 0.212,0.29831 0.2361,0.28183 0.11953,-0.0817 -0.25083,-0.78227 0.48562,-1.22492 1.82912,-1.09942 0.83216,0.0777 1.1612,0.0229 1.03989,-0.17342 -0.10367,-0.16775 -0.49693,-0.21698 -0.94577,-0.1184 -0.61687,0.13549 -0.73806,0.0899 -0.61486,-0.23111 0.11106,-0.28942 -0.30921,-0.63093 -1.52161,-1.2365 -2.57639,-1.28683 -3.02404,-1.28575 -2.886,0.007 0.0324,0.30387 -0.0113,0.31791 -0.18657,0.0599 -0.17693,-0.26042 -0.33561,-0.21912 -0.69841,0.18176 -0.2582,0.28532 -0.39632,0.63709 -0.30693,0.78173 0.0894,0.14463 0.0231,0.34912 -0.14725,0.45442 -0.19347,0.11957 -0.2389,0.0768 -0.121,-0.11401 0.26298,-0.4255 -0.25187,-0.38097 -1.18714,0.10268 -0.4341,0.22448 -0.71966,0.52077 -0.63458,0.65843 0.0851,0.13766 -0.0181,0.184 -0.22917,0.10299 -0.21112,-0.081 -0.46246,-0.0201 -0.55853,0.13532 -0.0961,0.15544 -0.0258,0.28262 0.1561,0.28262 0.18193,0 0.0997,0.169 -0.18282,0.37555 -0.28247,0.20655 -0.52249,0.47444 -0.53337,0.59531 -0.0236,0.26254 -0.34607,2.51438 -0.53479,3.73495 l -0.13441,0.86935 -4.897574,-0.0309 c -4.317463,-0.0273 -4.916109,-0.0832 -5.054117,-0.47248 z M 75.273956,118.27485 v -9.26652 l 9.458854,0.004 9.458854,0.004 -0.926042,0.80248 c -0.509323,0.44137 -1.602676,1.39196 -2.429673,2.11244 -0.826998,0.72048 -1.5705,1.30996 -1.652227,1.30996 -0.35835,0 -4.743102,4.49236 -4.561755,4.67371 0.111,0.111 0.588988,-0.21056 1.062194,-0.71459 0.967461,-1.03047 3.849085,-3.6367 6.721566,-6.0792 1.055026,-0.8971 1.918229,-1.73958 1.918229,-1.87217 0,-0.14051 3.890646,-0.24062 9.326564,-0.23997 l 9.32656,0.001 -3.70417,1.87524 c -4.37996,2.21738 -8.95983,4.76818 -9.08402,5.05945 -0.0485,0.11376 -0.195027,0.20684 -0.325596,0.20684 -0.130568,0 -0.907746,0.44649 -1.727061,0.99219 -0.819315,0.5457 -1.863424,1.22605 -2.320242,1.51188 -0.456817,0.28583 -0.969846,0.64301 -1.140063,0.79375 -0.170217,0.15073 -0.624265,0.51218 -1.008994,0.80322 -0.38473,0.29104 -0.953883,0.76134 -1.264785,1.04511 -0.331535,0.3026 -0.942724,0.51594 -1.478089,0.51594 -0.502047,0 -0.775891,0.0456 -0.608542,0.10142 0.485163,0.16172 0.351734,0.85108 -0.164731,0.85108 -0.257951,0 -0.880338,0.47625 -1.383081,1.05833 -0.502743,0.58208 -1.136277,1.05833 -1.407851,1.05833 -0.271575,0 -0.556044,0.23813 -0.632153,0.52917 -0.07611,0.29104 -0.303087,0.52917 -0.504396,0.52917 -0.201309,0 -0.366017,0.17859 -0.366017,0.39687 0,0.21828 -0.164015,0.39688 -0.364478,0.39688 -0.200463,0 -0.512698,-0.1786 -0.693855,-0.39688 -0.181157,-0.21828 -0.493392,-0.39687 -0.693855,-0.39687 -0.564413,0 -0.494589,-2.05246 0.0736,-2.16342 0.407714,-0.0796 0.407714,-0.11071 0,-0.44867 -0.376917,-0.31243 -0.438077,-0.30319 -0.438077,0.0661 0,0.67868 -1.796511,0.57431 -2.416362,-0.14038 -0.607024,-0.69991 -0.639007,-1.13009 -0.06772,-0.91087 0.30977,0.11887 0.382875,0.0503 0.267384,-0.25061 -0.105037,-0.27373 0.33368,-0.91879 1.293458,-1.90183 1.408564,-1.4427 1.711322,-1.92329 1.211625,-1.92329 -0.422155,0 -6.638384,6.98434 -6.638384,7.45866 0,0.11784 -0.178594,0.21426 -0.396875,0.21426 -0.218281,0 -0.396875,0.1649 -0.396875,0.36644 0,0.20155 -0.297656,0.56148 -0.661458,0.79985 l -0.661459,0.4334 z m 22.820312,0.34784 c -0.181901,-0.0734 -0.330729,-0.25533 -0.330729,-0.4043 0,-0.14896 0.178594,-0.20231 0.396875,-0.11854 0.241753,0.0928 0.396875,4.1e-4 0.396875,-0.23628 0,-0.2159 0.242094,-0.38857 0.544781,-0.38857 0.29963,0 0.479563,-0.10553 0.399851,-0.2345 -0.153962,-0.24912 0.823899,-0.65246 1.899639,-0.78354 0.1819,-0.0222 0.33073,-0.26568 0.33073,-0.54115 0,-0.59835 0.52145,-0.84373 1.33877,-0.63 0.41199,0.10774 0.53761,0.0613 0.40678,-0.15038 -0.11305,-0.18293 -0.0198,-0.30627 0.23151,-0.30627 0.23144,0 0.49014,-0.1807 0.57489,-0.40156 0.0847,-0.22085 0.28937,-0.38534 0.45472,-0.36552 0.64659,0.0775 0.96208,-0.0408 0.96208,-0.3608 0,-0.34379 0.13637,-0.43348 2.21742,-1.45842 0.67219,-0.33105 1.22216,-0.70449 1.22216,-0.82986 0,-0.24981 1.31332,-0.58116 2.42407,-0.61159 0.46063,-0.0126 0.65906,-0.13713 0.57358,-0.35989 -0.0847,-0.22071 0.27273,-0.45544 1.01551,-0.66691 0.63042,-0.17947 1.25933,-0.42531 1.39757,-0.5463 0.13825,-0.12099 3.44223,-0.21998 7.34219,-0.21998 h 7.09083 v 4.89479 4.89479 l -15.27969,-0.0209 c -8.40382,-0.0115 -15.428511,-0.0809 -15.610412,-0.15434 z"
         id="path227" /><path
         style="fill:#9db5d5"
         d="m 93.272064,173.63281 c -0.155658,-0.5457 -0.402566,-1.94469 -0.548684,-3.10885 -0.146118,-1.16417 -0.387282,-3.03408 -0.535919,-4.15536 -0.257345,-1.94135 -0.238054,-2.09918 0.403995,-3.30526 0.370834,-0.69661 0.748791,-1.66394 0.839905,-2.14962 0.09111,-0.48568 0.337002,-0.9488 0.546418,-1.02916 0.477882,-0.18338 0.434104,-3.18301 -0.05517,-3.78039 -0.178779,-0.21829 -0.454547,-1.29273 -0.612818,-2.38766 -0.158271,-1.09494 -0.627754,-2.76181 -1.043297,-3.70417 -0.415543,-0.94236 -0.875166,-2.00291 -1.021386,-2.35678 -0.251267,-0.60809 -0.309868,-0.54934 -1.068053,1.07087 -0.44121,0.94284 -1.19465,2.16123 -1.674311,2.70754 -0.748185,0.85213 -1.007504,0.98194 -1.824927,0.91351 -0.814663,-0.0682 -1.029543,-0.23323 -1.481983,-1.13811 -0.423333,-0.84666 -0.529167,-1.5875 -0.529167,-3.70416 0,-2.33553 0.08406,-2.81965 0.71673,-4.12782 0.394202,-0.81509 0.958671,-2.59052 1.254377,-3.94539 0.538537,-2.46749 0.892179,-3.2651 1.840856,-4.1519 0.572685,-0.53533 1.160778,-3.2192 1.13176,-5.16499 -0.01026,-0.68778 0.0936,-1.31989 0.230793,-1.40468 0.137193,-0.0848 0.250371,-0.35549 0.251507,-0.60157 0.0011,-0.24607 0.328198,-0.59891 0.726806,-0.78408 0.625687,-0.29066 0.770053,-0.27471 1.056269,0.11672 0.388232,0.53094 0.439355,2.68003 0.08587,3.60976 -0.201453,0.52986 -0.165745,0.64009 0.198437,0.61254 0.342774,-0.0259 0.444096,0.19282 0.444096,0.95877 0,0.73653 0.109981,0.99231 0.426623,0.99219 0.344346,-1.4e-4 0.413044,-0.25223 0.356215,-1.30712 -0.03872,-0.71882 -0.141975,-1.42275 -0.229449,-1.56428 -0.200632,-0.32463 -0.123893,-5.76357 0.08532,-6.04692 0.317579,-0.43011 1.921777,-1.44186 2.062714,-1.30092 0.08046,0.0804 0.382508,0.0198 0.671229,-0.13467 0.627105,-0.33561 5.30026,-0.0341 5.07674,0.32752 -0.0804,0.13015 -0.0264,0.23663 0.12003,0.23663 0.14645,0 0.56819,0.6011 0.9372,1.33577 0.60366,1.20187 0.65491,1.54004 0.51126,3.37344 -0.0878,1.12071 -0.38346,2.55881 -0.65699,3.19578 -0.27354,0.63696 -0.49734,1.18806 -0.49734,1.22467 0,0.0366 0.38695,0.21865 0.85989,0.40453 0.47294,0.18589 1.45521,0.59935 2.18281,0.9188 1.05971,0.46526 2.0599,0.61608 5.02709,0.75802 7.31694,0.35003 9.34289,0.99003 10.19041,3.21919 0.4029,1.05971 0.31711,8.988 -0.12477,11.53045 -0.50665,2.91515 -0.53238,3.89969 -0.12782,4.89044 0.18436,0.45148 0.24768,1.04679 0.14073,1.32291 -0.18539,0.47859 -0.21067,0.48005 -0.54123,0.0311 -0.309,-0.41962 -0.36632,-0.34039 -0.52648,0.7276 -0.20346,1.35675 -0.92673,1.71101 -0.96139,0.4709 -0.0177,-0.63175 -0.0623,-0.58845 -0.33861,0.32862 -0.41755,1.38564 -1.21952,1.61173 -1.24944,0.35223 l -0.0209,-0.87929 -0.26574,0.7276 c -0.46037,1.2605 -0.84284,0.86379 -0.6377,-0.66146 0.10275,-0.76398 0.25335,-1.89038 0.33467,-2.5031 l 0.14785,-1.11404 -0.78797,0.29742 c -0.43338,0.16359 -1.01388,0.20663 -1.29,0.0957 -0.49068,-0.19721 -0.49043,-0.20866 0.0112,-0.5063 0.74113,-0.43975 2.00029,-1.82308 2.00029,-2.19756 0,-0.17595 0.33591,-0.55909 0.74647,-0.85143 0.72447,-0.51587 0.74505,-0.59635 0.69827,-2.73 -0.028,-1.2762 -0.30173,-3.17951 -0.65256,-4.53707 -0.70373,-2.72312 -0.37522,-2.64458 -4.2647,-1.01969 -1.40056,0.58511 -2.80883,1.10384 -3.12949,1.15273 -0.46485,0.0709 -0.76897,0.5715 -1.50062,2.47015 -0.90559,2.35008 -0.91729,2.43284 -0.89327,6.32141 0.0164,2.64909 0.14008,4.20961 0.37754,4.7625 0.59837,1.3932 2.35612,2.90355 6.19172,5.32026 0.23095,0.14552 0.56666,0.38365 0.74602,0.52917 0.17935,0.14552 0.75882,0.56224 1.2877,0.92604 0.52889,0.3638 1.48953,1.04841 2.13476,1.52135 0.64524,0.47295 1.24105,0.8599 1.32404,0.8599 0.083,0 1.27647,0.77391 2.65218,1.71979 1.37572,0.94589 2.54928,1.71979 2.60793,1.71979 0.0586,0 1.09655,0.71227 2.30646,1.58281 1.20991,0.87054 2.34867,1.58492 2.53057,1.5875 0.20868,0.003 0.33073,0.39525 0.33073,1.06303 0,0.58208 -0.10452,1.05833 -0.23227,1.05833 -0.58655,0 -6.7206,-2.83749 -16.01401,-7.40775 l -4.20773,-2.06926 -1.21623,1.23764 c -0.66892,0.6807 -1.83448,1.52821 -2.59014,1.88336 l -1.37392,0.64573 -0.15648,1.73066 c -0.0861,0.95186 -0.21924,2.23668 -0.29594,2.85514 l -0.13945,1.12448 h -4.601564 -4.60156 z m 25.636096,-5.45575 c -0.0606,-0.0539 -1.65806,-1.14444 -3.54983,-2.4235 -1.89177,-1.27907 -4.11515,-2.84234 -4.94084,-3.47394 -0.82569,-0.6316 -1.56983,-1.14837 -1.65365,-1.14837 -0.0838,0 -0.15238,0.39827 -0.15238,0.88503 0,1.03054 0.32917,1.36611 2.51354,2.56234 0.87312,0.47815 2.00422,1.12135 2.51354,1.42933 0.50932,0.30797 1.40229,0.7227 1.98437,0.92162 0.58209,0.19892 1.11787,0.43748 1.19063,0.53014 0.19813,0.25231 1.40218,0.77694 1.83003,0.79738 0.20616,0.01 0.32522,-0.0262 0.26459,-0.08 z m -43.621821,-54.24588 -0.0265,-4.92285 h 3.174653 3.174652 l -1.976967,2.93874 c -1.087332,1.61631 -1.976967,2.98471 -1.976967,3.04089 0,0.0562 -0.527031,0.94902 -1.171181,1.98411 l -1.171181,1.88196 z m 10.676574,1.05619 c -0.09639,-0.2512 -0.819804,-0.43093 -2.240654,-0.55671 -1.561278,-0.1382 -2.098303,-0.28301 -2.098303,-0.56579 0,-0.20903 -0.260516,-0.73242 -0.578924,-1.16309 l -0.578923,-0.78303 0.578923,-0.78304 c 0.318408,-0.43067 0.578924,-0.84739 0.578924,-0.92604 0,-0.0786 0.240486,-0.38349 0.534413,-0.67742 0.507346,-0.50734 0.817898,-0.5308 6.131365,-0.46302 l 5.59695,0.0714 -1.459001,1.10123 c -0.80245,0.60567 -1.64806,1.29028 -1.879132,1.52135 -0.231072,0.23107 -0.493579,0.42013 -0.583348,0.42013 -0.08977,0 -0.443205,0.26789 -0.785412,0.59531 -1.52414,1.45829 -2.79805,2.57969 -2.930524,2.57969 -0.0792,0 -0.20806,-0.16693 -0.286354,-0.37096 z"
         id="path226" /><path
         style="fill:#6ac4d8"
         d="m 93.520754,173.93868 c -0.356747,-0.93831 -0.980465,-4.89611 -1.202145,-7.6282 -0.147932,-1.82317 -0.103763,-2.37323 0.231676,-2.88517 0.22795,-0.3479 0.609664,-1.30404 0.848253,-2.12476 0.23859,-0.82072 0.544414,-1.49222 0.679609,-1.49222 0.404279,0 0.299537,-3.59478 -0.114761,-3.93862 -0.198313,-0.16458 -0.440948,-1.08378 -0.539188,-2.04266 -0.112439,-1.09747 -0.556135,-2.6406 -1.197543,-4.16492 -0.560408,-1.33183 -1.08228,-2.6001 -1.159715,-2.81838 -0.125148,-0.35278 -0.143223,-0.35278 -0.162675,0 -0.0442,0.80167 -1.622084,3.60027 -2.573271,4.56406 -1.017133,1.03062 -2.149332,1.31017 -2.678895,0.66146 -0.484841,-0.59393 -1.117791,-3.17483 -1.114862,-4.54594 0.0032,-1.48026 0.466855,-3.23994 1.268008,-4.81198 0.287854,-0.56484 0.70982,-2.01661 0.937702,-3.22616 0.421332,-2.23634 1.167782,-3.82447 2.009239,-4.2748 0.353752,-0.18932 0.541172,-0.84332 0.776236,-2.70863 0.170438,-1.35248 0.37247,-2.95518 0.448961,-3.56157 0.101808,-0.80707 0.32468,-1.22412 0.83172,-1.55635 0.658044,-0.43117 0.710268,-0.42974 1.045416,0.0286 0.411937,0.56335 0.466879,2.69255 0.09474,3.67137 -0.226378,0.59542 -0.189645,0.67868 0.299421,0.67868 0.497635,0 0.542223,0.11357 0.415503,1.05833 -0.124437,0.92776 -0.07698,1.05834 0.384614,1.05834 0.489983,0 0.515107,-0.12408 0.36163,-1.78594 -0.09072,-0.98227 -0.191083,-2.97267 -0.22304,-4.42312 -0.05107,-2.31818 0.003,-2.68623 0.446706,-3.04271 0.277646,-0.22304 0.695276,-0.58412 0.928068,-0.8024 0.454988,-0.42663 1.18975,-0.55643 3.069091,-0.5422 2.419868,0.0183 3.307288,0.14607 3.307288,0.47605 0,0.1819 0.17632,0.33073 0.39183,0.33073 0.21551,0 0.47372,0.32624 0.5738,0.72499 0.10007,0.39874 0.34239,0.88541 0.53846,1.08149 0.49372,0.49371 0.18247,4.29943 -0.47712,5.83393 -0.27379,0.63696 -0.4978,1.18442 -0.4978,1.21658 0,0.0322 0.50602,0.26842 1.12448,0.52503 0.61847,0.2566 1.58222,0.6914 2.14167,0.96622 0.55946,0.27482 1.51196,0.49768 2.11667,0.49525 0.60471,-0.002 2.76635,0.12594 4.80364,0.28529 5.38893,0.42149 7.35786,1.15389 8.05889,2.99774 0.41486,1.09117 0.33991,8.98144 -0.10991,11.56955 -0.52027,2.99351 -0.56021,3.96414 -0.19124,4.64748 0.4357,0.80691 0.39184,1.67104 -0.0848,1.67104 -0.21828,0 -0.39688,-0.17157 -0.39688,-0.38126 0,-0.2097 -0.0975,-0.44153 -0.2167,-0.5152 -0.11919,-0.0737 -0.16995,0.1872 -0.11279,0.5797 0.12787,0.87801 -0.36649,2.26049 -0.72834,2.03685 -0.1458,-0.0901 -0.27582,-0.42469 -0.28894,-0.74352 -0.0183,-0.44395 -0.08,-0.38613 -0.26353,0.24692 -0.13182,0.45464 -0.41873,0.97524 -0.6376,1.15688 -0.34173,0.28361 -0.39793,0.19489 -0.39793,-0.62819 0,-1.0347 -0.43823,-1.32628 -0.57691,-0.38385 -0.0465,0.31603 -0.25143,0.62962 -0.4554,0.69689 -0.27738,0.0915 -0.32714,-0.0367 -0.19745,-0.50845 0.0954,-0.3469 0.25167,-1.51412 0.34732,-2.59381 l 0.17391,-1.96308 -0.63065,0.44172 c -0.59929,0.41976 -1.57124,0.60462 -1.57124,0.29884 0,-0.0786 0.44648,-0.60417 0.99218,-1.16796 0.54571,-0.56379 1.39641,-1.51535 1.89045,-2.11457 l 0.89826,-1.0895 -0.15842,-2.43889 c -0.12602,-1.94005 -1.00301,-6.07847 -1.37528,-6.48981 -0.0409,-0.0452 -1.36691,0.44754 -2.94671,1.09495 -1.5798,0.6474 -3.25931,1.25938 -3.73226,1.35995 -0.49164,0.10454 -0.85989,0.34746 -0.85989,0.56724 0,0.21141 -0.37316,1.35201 -0.82924,2.53467 -0.80598,2.08997 -0.82729,2.25487 -0.76009,5.87844 0.038,2.05049 0.10386,4.08535 0.14628,4.52191 0.0424,0.43656 0.0868,0.89007 0.0986,1.0078 0.0118,0.11773 0.12382,0.15081 0.2489,0.0735 0.12507,-0.0773 0.52251,0.18356 0.88319,0.5797 0.98022,1.07656 2.28916,2.17545 2.59128,2.17545 0.14678,0 0.26687,0.11906 0.26687,0.26458 0,0.14552 0.17968,0.26459 0.39928,0.26459 0.21961,0 0.7838,0.36745 1.25376,0.81657 0.46995,0.44912 1.21301,0.97312 1.65123,1.16444 0.43823,0.19133 1.1114,0.65026 1.49594,1.01985 0.38454,0.36959 0.76869,0.60246 0.85367,0.51748 0.085,-0.085 0.2293,0.0404 0.32074,0.27873 0.0914,0.23827 0.26894,0.36975 0.39445,0.29218 0.12552,-0.0776 0.3798,0.10171 0.56509,0.3984 0.18528,0.29668 0.53184,0.53943 0.77013,0.53943 0.23829,0 0.63187,0.26789 0.87465,0.59531 0.24276,0.32742 0.35486,0.42307 0.24908,0.21255 -0.16915,-0.33665 1.00195,0.36665 1.94457,1.16781 0.17685,0.15031 0.50427,0.42681 0.7276,0.61445 0.22333,0.18764 0.40985,0.24717 0.41448,0.13229 0.005,-0.11488 0.1732,0.009 0.37461,0.2743 0.20142,0.26574 0.56434,0.51224 0.8065,0.54779 0.24215,0.0355 0.52005,0.1753 0.61756,0.31058 0.26735,0.37094 3.96783,2.7595 4.27515,2.7595 0.14726,0 0.26775,0.47625 0.26775,1.05834 0,0.58208 -0.10318,1.05833 -0.2293,1.05833 -0.40596,0 -2.99616,-1.12928 -6.19616,-2.70141 -1.715,-0.84256 -3.17159,-1.53192 -3.23684,-1.53192 -0.0653,0 -2.53117,-1.18663 -5.47981,-2.63695 l -5.36116,-2.63695 -1.0593,1.01903 c -1.1848,1.13978 -3.10809,2.40278 -3.65893,2.40278 -0.25997,0 -0.45193,0.74873 -0.68502,2.6719 -0.1781,1.46954 -0.38786,2.83876 -0.46612,3.0427 -0.11405,0.2972 -1.0047,0.37082 -4.486167,0.37082 h -4.343866 z m 25.387406,-5.76162 c -0.0606,-0.0539 -1.65806,-1.14444 -3.54983,-2.4235 -1.89177,-1.27907 -4.11515,-2.84234 -4.94084,-3.47394 -0.82569,-0.6316 -1.56983,-1.14837 -1.65365,-1.14837 -0.34014,0 -0.12347,1.85551 0.25367,2.17238 0.22333,0.18764 0.56635,0.48432 0.76225,0.65929 0.19591,0.17497 0.4299,0.24443 0.51999,0.15434 0.0901,-0.0901 0.16379,-0.0249 0.16379,0.14489 0,0.16978 0.18278,0.30868 0.40618,0.30868 0.42307,0 1.64935,0.68206 2.10736,1.17212 0.39923,0.42716 2.0068,1.15357 2.97887,1.34605 0.47421,0.0939 0.79461,0.2801 0.71199,0.41378 -0.0826,0.13368 0.0949,0.24305 0.39457,0.24305 0.29963,0 0.54478,0.11907 0.54478,0.26459 0,0.14552 0.3175,0.26458 0.70555,0.26458 0.38806,0 0.65595,-0.0441 0.59532,-0.0979 z"
         id="path225" /><path
         style="fill:#b7f710"
         d="m 93.520754,173.93868 c -0.356747,-0.93831 -0.980465,-4.89611 -1.202145,-7.6282 -0.147932,-1.82317 -0.103763,-2.37323 0.231676,-2.88517 0.22795,-0.3479 0.609664,-1.30404 0.848253,-2.12476 0.23859,-0.82072 0.544414,-1.49222 0.679609,-1.49222 0.404279,0 0.299537,-3.59478 -0.114761,-3.93862 -0.198313,-0.16458 -0.440948,-1.08378 -0.539188,-2.04266 -0.112439,-1.09747 -0.556135,-2.6406 -1.197543,-4.16492 -0.560408,-1.33183 -1.067845,-2.58813 -1.127637,-2.79177 -0.05979,-0.20365 -0.507353,0.54402 -0.99458,1.66149 -1.011848,2.32071 -2.403781,3.86815 -3.479433,3.86815 -0.888983,0 -1.141607,-0.31807 -1.666761,-2.09854 -0.741926,-2.51542 -0.462332,-5.0209 0.847001,-7.59011 0.287854,-0.56484 0.70982,-2.01661 0.937702,-3.22616 0.421332,-2.23634 1.167782,-3.82447 2.009239,-4.2748 0.353752,-0.18932 0.541172,-0.84332 0.776236,-2.70863 0.170438,-1.35248 0.37499,-2.97199 0.454561,-3.59891 0.107707,-0.8486 0.292058,-1.19732 0.72147,-1.36477 1.211507,-0.47241 1.440431,0.74561 0.843696,4.489 -0.132623,0.83196 -0.115972,0.86556 0.1639,0.33073 0.468934,-0.89613 0.759823,-0.71886 0.759823,0.46302 0,0.89638 0.08443,1.05834 0.551743,1.05834 0.521065,0 0.542572,-0.0993 0.386807,-1.78594 -0.09072,-0.98227 -0.191122,-2.96901 -0.223125,-4.41498 -0.04926,-2.2254 0.01391,-2.6962 0.411409,-3.06653 1.220579,-1.13714 4.653016,-2.02436 5.090875,-1.31589 0.08994,0.14552 0.573213,0.26459 1.073948,0.26459 0.500731,0 0.910431,0.10517 0.910431,0.23372 0,0.12855 0.20835,0.28838 0.46302,0.35519 0.26767,0.0702 0.66539,0.68554 0.94269,1.45846 0.39449,1.09959 0.43544,1.61206 0.2306,2.88596 -0.13698,0.85193 -0.26253,1.88035 -0.279,2.28538 -0.0165,0.40503 -0.21136,1.08728 -0.43312,1.5161 -0.40276,0.77885 -0.40213,0.78013 0.59308,1.20321 2.51802,1.07047 3.81035,1.40134 6.02335,1.54212 6.48933,0.41282 8.04517,0.62254 9.29935,1.25355 2.01233,1.01243 2.21031,1.63758 2.20849,6.97364 -8.4e-4,2.47612 -0.12639,5.21642 -0.279,6.08954 -0.6346,3.63084 -0.67673,4.25295 -0.34126,5.03938 0.40729,0.9548 0.44812,1.7075 0.0926,1.7075 -0.14552,0 -0.26459,-0.15584 -0.26459,-0.34631 0,-0.19047 -0.1842,-0.57742 -0.40934,-0.8599 -0.38695,-0.48549 -0.40054,-0.46777 -0.24843,0.32413 0.19189,0.99903 -0.11202,2.86583 -0.41603,2.55549 -0.11756,-0.12002 -0.25363,-0.69446 -0.30237,-1.27654 l -0.0886,-1.05833 -0.34373,1.51674 c -0.47535,2.09752 -0.83249,2.16078 -0.86096,0.15252 l -0.0237,-1.66926 -0.35151,1.27917 c -0.19334,0.70354 -0.42081,1.34846 -0.50551,1.43316 -0.34994,0.34993 -0.40572,-0.19436 -0.15526,-1.515 0.14622,-0.77102 0.26585,-1.8686 0.26585,-2.43907 0,-1.019 -0.0103,-1.02999 -0.58804,-0.62535 -0.56515,0.39585 -1.52862,0.56539 -1.52862,0.26899 0,-0.0786 0.44648,-0.60417 0.99218,-1.16796 0.54571,-0.56379 1.39641,-1.51535 1.89045,-2.11457 l 0.89826,-1.0895 -0.15842,-2.43889 c -0.12602,-1.94005 -1.00301,-6.07847 -1.37528,-6.48981 -0.0409,-0.0452 -1.36691,0.44754 -2.94671,1.09495 -1.5798,0.6474 -3.24138,1.25544 -3.69241,1.35119 -0.75819,0.16097 -0.89727,0.37776 -1.84373,2.87381 -1.02124,2.69325 -1.02355,2.70825 -0.96897,6.27159 0.0602,3.92837 0.30082,5.17155 1.1109,5.73895 0.29561,0.20706 0.53748,0.54831 0.53748,0.75834 0,0.21003 0.10651,0.38187 0.2367,0.38187 0.13018,0 2.11288,1.30987 4.40599,2.91082 6.48667,4.5287 14.23141,9.59849 15.92659,10.42573 0.45697,0.22299 0.59373,0.51742 0.59532,1.28168 0.001,0.54571 -0.10112,0.99219 -0.22724,0.99219 -0.40596,0 -2.99616,-1.12928 -6.19617,-2.70141 -1.715,-0.84256 -3.17089,-1.53192 -3.23532,-1.53192 -0.40052,0 -10.96618,-5.3793 -11.07075,-5.63646 -0.0898,-0.22096 -0.13508,-0.20907 -0.14965,0.0394 -0.0603,1.02851 -3.22425,3.74501 -4.36182,3.74501 -0.42869,0 -0.56043,0.56826 -0.81197,3.50241 -0.23906,2.78857 0.14324,2.58301 -4.803832,2.58301 h -4.343866 z m 27.768656,-4.18375 c -0.0606,-0.0592 -2.1886,-1.49982 -4.7288,-3.20147 -2.54021,-1.70164 -5.27865,-3.59675 -6.08542,-4.21134 -2.21834,-1.68993 -2.12832,-1.68282 -2.12832,-0.16815 0,0.77082 0.11957,1.33853 0.28192,1.33853 0.15505,0 1.25638,0.56962 2.44739,1.26583 1.19102,0.6962 3.11798,1.71259 4.28215,2.25864 1.16417,0.54605 2.9501,1.39629 3.96875,1.88941 1.85161,0.89637 2.1693,1.0305 1.96233,0.82855 z"
         id="path224" /><path
         style="fill:#4b0e89"
         d="m 93.520754,173.93868 c -0.356747,-0.93831 -0.980465,-4.89611 -1.202145,-7.6282 -0.147932,-1.82317 -0.103763,-2.37323 0.231676,-2.88517 0.22795,-0.3479 0.609664,-1.30404 0.848253,-2.12476 0.343383,-1.18119 0.545833,-1.49222 0.971311,-1.49222 0.295631,0 1.626635,-0.36624 2.957788,-0.81387 2.349358,-0.79002 2.513844,-0.80855 5.613463,-0.6324 2.8122,0.15982 3.24715,0.12752 3.6454,-0.27074 0.64652,-0.64652 1.13124,-0.14759 1.51274,1.5571 0.48928,2.18635 0.2424,5.13796 -0.51922,6.20755 -0.66658,0.93613 -3.16619,2.68361 -3.83866,2.68361 -0.42869,0 -0.56043,0.56826 -0.81197,3.50241 -0.23906,2.78857 0.14324,2.58301 -4.803832,2.58301 h -4.343866 z m 22.739956,-16.82671 -0.0237,-1.66926 -0.35151,1.27917 c -0.19334,0.70354 -0.42081,1.34846 -0.50551,1.43316 -0.34994,0.34993 -0.40572,-0.19436 -0.15526,-1.515 0.14622,-0.77102 0.26585,-1.8686 0.26585,-2.43907 0,-1.019 -0.0103,-1.02999 -0.58804,-0.62535 -0.56515,0.39585 -1.52862,0.56539 -1.52862,0.26899 0,-0.0786 0.44648,-0.60417 0.99218,-1.16796 0.54571,-0.56379 1.39641,-1.51535 1.89045,-2.11457 l 0.89826,-1.0895 -0.15842,-2.43889 c -0.12602,-1.94005 -1.00301,-6.07847 -1.37528,-6.48981 -0.0409,-0.0452 -1.36691,0.44754 -2.94671,1.09495 -1.5798,0.6474 -3.24138,1.25544 -3.69241,1.35119 -0.75749,0.16082 -0.89868,0.38007 -1.85076,2.87381 -1.01679,2.66328 -1.02956,2.74173 -0.94615,5.81382 l 0.0845,3.11411 -0.88552,0.37 c -2.51638,1.05141 -9.588789,1.60907 -11.047114,0.87106 -0.559399,-0.28309 -0.689904,-0.61845 -0.950881,-2.44349 -0.166371,-1.16346 -0.511491,-2.51926 -0.766933,-3.01291 -0.255443,-0.49364 -0.730136,-1.6043 -1.054875,-2.46812 l -0.590434,-1.5706 -0.877665,2.01296 c -1.00361,2.30182 -2.399127,3.84934 -3.471233,3.84934 -0.888983,0 -1.141607,-0.31807 -1.666761,-2.09854 -0.741926,-2.51542 -0.462332,-5.0209 0.847001,-7.59011 0.287854,-0.56484 0.70982,-2.01661 0.937702,-3.22616 0.421332,-2.23634 1.167782,-3.82447 2.009239,-4.2748 0.353752,-0.18932 0.541172,-0.84332 0.776236,-2.70863 0.170438,-1.35248 0.37499,-2.97199 0.454561,-3.59891 0.107707,-0.8486 0.292058,-1.19732 0.72147,-1.36477 1.211507,-0.47241 1.440431,0.74561 0.843696,4.489 -0.132623,0.83196 -0.115972,0.86556 0.1639,0.33073 0.468934,-0.89613 0.759823,-0.71886 0.759823,0.46302 0,0.89638 0.08443,1.05834 0.551743,1.05834 0.521065,0 0.542572,-0.0993 0.386807,-1.78594 -0.09072,-0.98227 -0.191122,-2.96901 -0.223125,-4.41498 -0.04926,-2.2254 0.01391,-2.6962 0.411409,-3.06653 1.220579,-1.13714 4.653016,-2.02436 5.090875,-1.31589 0.08994,0.14552 0.573213,0.26459 1.073948,0.26459 0.500731,0 0.910431,0.10517 0.910431,0.23372 0,0.12855 0.20835,0.28838 0.46302,0.35519 0.26767,0.0702 0.66539,0.68554 0.94269,1.45846 0.39449,1.09959 0.43544,1.61206 0.2306,2.88596 -0.13698,0.85193 -0.26253,1.88035 -0.279,2.28538 -0.0165,0.40503 -0.21136,1.08728 -0.43312,1.5161 -0.40276,0.77885 -0.40213,0.78013 0.59308,1.20321 2.51802,1.07047 3.81035,1.40134 6.02335,1.54212 6.48933,0.41282 8.04517,0.62254 9.29935,1.25355 2.01233,1.01243 2.21031,1.63758 2.20849,6.97364 -8.4e-4,2.47612 -0.12639,5.21642 -0.279,6.08954 -0.6346,3.63084 -0.67673,4.25295 -0.34126,5.03938 0.40729,0.9548 0.44812,1.7075 0.0926,1.7075 -0.14552,0 -0.26459,-0.15584 -0.26459,-0.34631 0,-0.19047 -0.1842,-0.57742 -0.40934,-0.8599 -0.38695,-0.48549 -0.40054,-0.46777 -0.24843,0.32413 0.19189,0.99903 -0.11202,2.86583 -0.41603,2.55549 -0.11756,-0.12002 -0.25363,-0.69446 -0.30237,-1.27654 l -0.0886,-1.05833 -0.34373,1.51674 c -0.47535,2.09752 -0.83249,2.16078 -0.86096,0.15252 z"
         id="path223" /></g></g></svg>
