<?xml version="1.0" encoding="UTF-8" standalone="no"?>
<!-- Created with Inkscape (http://www.inkscape.org/) -->

<svg
   width="135.51122mm"
   height="88.675102mm"
   viewBox="0 0 135.51122 88.675102"
   version="1.1"
   id="svg1"
   xml:space="preserve"
   inkscape:export-filename="germany.svg"
   inkscape:export-xdpi="96"
   inkscape:export-ydpi="96"
   xmlns:inkscape="http://www.inkscape.org/namespaces/inkscape"
   xmlns:sodipodi="http://sodipodi.sourceforge.net/DTD/sodipodi-0.dtd"
   xmlns="http://www.w3.org/2000/svg"
   xmlns:svg="http://www.w3.org/2000/svg"><sodipodi:namedview
     id="namedview1"
     pagecolor="#ffffff"
     bordercolor="#000000"
     borderopacity="0.25"
     inkscape:showpageshadow="2"
     inkscape:pageopacity="0.0"
     inkscape:pagecheckerboard="0"
     inkscape:deskcolor="#d1d1d1"
     inkscape:document-units="mm"><inkscape:page
       x="0"
       y="0"
       width="135.51122"
       height="88.675102"
       id="page2"
       margin="0"
       bleed="0" /></sodipodi:namedview><defs
     id="defs1" /><g
     inkscape:label="Calque 1"
     inkscape:groupmode="layer"
     id="layer1"
     transform="translate(-37.157281,-22.383011)"><g
       id="g5814"
       transform="translate(26.089892,-15.757262)"><path
         style="fill:#fef1f2"
         d="m 18.479304,126.42254 c -2.72621,-0.73835 -5.271345,-2.94379 -6.553449,-5.67875 l -0.703899,-1.50155 -0.07273,-35.454166 c -0.04504,-21.955073 0.02494,-36.090828 0.183787,-37.126304 0.512934,-3.343642 2.66066,-6.240337 5.650938,-7.621571 l 1.646336,-0.760456 59.79583,-0.06973 59.795833,-0.06974 1.71898,0.598901 c 2.32453,0.809881 4.9209,3.307612 5.84816,5.625984 l 0.63494,1.5875 v 36.64479 36.644792 l -0.76045,1.64633 c -0.93176,2.01719 -2.99644,4.05081 -5.12583,5.04872 l -1.52205,0.71328 -59.663541,0.0498 c -46.719792,0.0389 -59.925895,-0.0213 -60.872857,-0.27778 z"
         id="path5908" /><path
         style="fill:#f5f5f5"
         d="m 18.479304,126.42254 c -2.72621,-0.73835 -5.271345,-2.94379 -6.553449,-5.67875 l -0.703899,-1.50155 -0.07273,-35.454166 c -0.04504,-21.955073 0.02494,-36.090828 0.183787,-37.126304 0.512934,-3.343642 2.66066,-6.240337 5.650938,-7.621571 l 1.646336,-0.760456 59.79583,-0.06973 59.795833,-0.06974 1.71898,0.598901 c 2.32453,0.809881 4.9209,3.307612 5.84816,5.625984 l 0.63494,1.5875 v 36.650279 36.650283 l -0.85759,1.74208 c -1.03281,2.09804 -2.92518,3.95597 -5.03784,4.94617 l -1.5129,0.7091 -59.663541,0.0498 c -46.719792,0.0389 -59.925895,-0.0213 -60.872857,-0.27778 z"
         id="path5907" /><path
         style="fill:#f4f4f4"
         d="m 18.479304,126.42254 c -2.72621,-0.73835 -5.271345,-2.94379 -6.553449,-5.67875 l -0.703899,-1.50155 -0.07605,-35.057291 c -0.04977,-22.942885 0.018,-35.774415 0.196104,-37.132543 0.482372,-3.678272 2.539368,-6.54646 5.786726,-8.068764 l 1.501549,-0.703899 H 78.822994 139.0157 l 1.50155,0.703899 c 3.11566,1.460567 5.24225,4.327922 5.77118,7.781499 0.19028,1.242349 0.25739,13.221593 0.2082,37.160864 l -0.0726,35.327515 -0.85759,1.74193 c -1.03283,2.09789 -2.92532,3.95589 -5.03784,4.94602 l -1.5129,0.7091 -59.663539,0.0498 c -46.719792,0.0389 -59.925895,-0.0213 -60.872857,-0.27778 z"
         id="path5906" /><path
         style="fill:#feecec"
         d="m 18.479304,126.42254 c -2.72621,-0.73835 -5.271345,-2.94379 -6.553449,-5.67875 L 11.221956,119.24224 11.151977,93.379219 11.081999,67.5162 h 67.740995 67.740996 l -0.07,25.868717 -0.07,25.868713 -0.85759,1.74188 c -1.03283,2.09783 -2.92537,3.95585 -5.03784,4.94596 l -1.5129,0.7091 -59.663539,0.0498 c -46.719792,0.0389 -59.925895,-0.0213 -60.872857,-0.27778 z"
         id="path5905" /><path
         style="fill:#feeaeb"
         d="m 18.837042,126.52776 c -2.819423,-0.67483 -5.609914,-3.00736 -6.905988,-5.77262 l -0.709098,-1.5129 -0.06998,-25.863021 -0.06998,-25.863019 h 67.740995 67.740999 l -0.07,25.868717 -0.07,25.868713 -0.85759,1.74188 c -1.03283,2.09783 -2.92537,3.95585 -5.03784,4.94596 l -1.5129,0.7091 -59.663542,0.0405 c -32.814946,0.0223 -60.04675,-0.0512 -60.515119,-0.16332 z"
         id="path5904" /><path
         style="fill:#fee8ea"
         d="m 18.837042,126.52776 c -2.819423,-0.67483 -5.609914,-3.00736 -6.905988,-5.77262 l -0.709098,-1.5129 -0.06998,-25.863021 -0.06998,-25.863019 h 67.742235 67.742239 l -0.0712,25.868753 -0.0712,25.868757 -0.85759,1.74184 c -1.03284,2.09779 -2.92541,3.95583 -5.03784,4.94592 l -1.5129,0.7091 -59.663542,0.0405 c -32.814946,0.0223 -60.04675,-0.0512 -60.515119,-0.16332 z"
         id="path5903" /><path
         style="fill:#fee7e8"
         d="m 18.837042,126.52776 c -2.819423,-0.67483 -5.609914,-3.00736 -6.905988,-5.77262 L 11.221956,119.24224 11.150738,93.379219 11.07952,67.5162 h 67.743474 67.743476 l -0.0712,25.868753 -0.0712,25.868757 -0.85759,1.74184 c -1.03284,2.09779 -2.92541,3.95583 -5.03784,4.94592 l -1.5129,0.7091 -59.663539,0.0405 c -32.814946,0.0223 -60.04675,-0.0512 -60.515119,-0.16332 z"
         id="path5902" /><path
         style="fill:#fee6e8"
         d="m 18.837042,126.52776 c -2.819423,-0.67483 -5.609914,-3.00736 -6.905988,-5.77262 L 11.221956,119.24224 11.150738,93.379219 11.07952,67.5162 h 67.743474 67.743476 l -0.0712,25.863019 -0.0712,25.863021 -0.7091,1.5129 c -0.99349,2.11968 -2.8562,4.01489 -4.95586,5.04234 l -1.74337,0.85309 -59.663539,0.0405 c -32.814946,0.0223 -60.04675,-0.0512 -60.515119,-0.16332 z"
         id="path5901" /><path
         style="fill:#fee5e7"
         d="m 18.837042,126.52748 c -2.818286,-0.67363 -5.609846,-3.00694 -6.905988,-5.77234 L 11.221956,119.24224 11.150738,93.379219 11.07952,67.5162 h 67.743474 67.743476 l -0.0712,25.868753 -0.0712,25.868757 -0.86627,1.75948 c -1.07308,2.17952 -3.16385,4.16636 -5.28617,5.02339 l -1.52047,0.61399 -59.531251,0.0402 c -32.742186,0.0221 -59.914458,-0.0514 -60.382827,-0.16332 z"
         id="path5900" /><path
         style="fill:#fee4e5"
         d="m 18.190121,126.27636 c -0.824176,-0.26423 -1.911066,-0.7354 -2.415312,-1.04704 -1.389362,-0.85868 -3.063176,-2.80932 -3.848954,-4.48553 L 11.221956,119.24224 11.150738,93.379219 11.07952,67.5162 h 67.743474 67.743476 l -0.0712,25.868753 -0.0712,25.868757 -0.86627,1.75948 c -1.07308,2.17952 -3.16385,4.16636 -5.28617,5.02339 l -1.52047,0.61399 -59.531251,0.0531 c -56.873527,0.0507 -59.598146,0.0317 -61.029748,-0.42732 z"
         id="path5899" /><path
         style="fill:#fee3e3"
         d="m 18.233414,126.28799 c -2.858818,-0.92097 -5.039973,-2.84117 -6.314237,-5.55879 L 11.221956,119.24224 11.150738,93.379219 11.07952,67.5162 h 67.743474 67.743476 l -0.0712,25.868753 -0.0712,25.868757 -0.86627,1.75948 c -1.07308,2.17952 -3.16385,4.16636 -5.28617,5.02339 l -1.52047,0.61399 -59.531251,0.0531 c -56.33571,0.0502 -59.60936,0.0279 -60.986455,-0.41569 z"
         id="path5898" /><path
         style="fill:#fee0e1"
         d="m 18.20932,126.2823 c -2.782328,-0.89243 -5.041221,-2.89084 -6.299153,-5.57278 L 11.221956,119.24224 11.150738,93.379219 11.07952,67.5162 h 67.743474 67.743476 l -0.0712,25.868753 -0.0712,25.868757 -0.86627,1.75948 c -1.07308,2.17952 -3.16385,4.16636 -5.28617,5.02339 l -1.52047,0.61399 -59.531251,0.0531 c -56.601105,0.0505 -59.604058,0.0297 -61.010549,-0.42138 z"
         id="path5897" /><path
         style="fill:#fedfe1"
         d="m 18.20932,126.28111 c -2.780539,-0.88962 -5.040849,-2.88886 -6.299153,-5.57159 L 11.221956,119.24224 11.150738,93.379219 11.07952,67.5162 h 67.743474 67.743476 l -0.0712,25.863019 -0.0712,25.863021 -0.7039,1.50155 c -1.30019,2.77356 -3.5909,4.73548 -6.55402,5.61333 -1.30257,0.38589 -6.9614,0.42441 -60.457284,0.41151 -55.947637,-0.0135 -59.097216,-0.0389 -60.499506,-0.48752 z"
         id="path5896" /><path
         style="fill:#fed9dc"
         d="m 18.20932,126.28111 c -2.780539,-0.88962 -5.040849,-2.88886 -6.299153,-5.57159 L 11.221956,119.24224 11.150738,93.379219 11.07952,67.5162 h 67.743474 67.743476 l -0.0712,25.863019 -0.0712,25.863021 -0.69722,1.48696 c -1.27831,2.72625 -3.68456,4.79241 -6.5607,5.63344 -1.29457,0.37855 -7.28984,0.41881 -60.457284,0.40599 -55.947637,-0.0135 -59.097216,-0.0389 -60.499506,-0.48752 z"
         id="path5895" /><path
         style="fill:#fed6d8"
         d="m 18.20932,126.28111 c -2.771313,-0.88667 -5.125234,-3.00104 -6.386993,-5.73703 L 11.221956,119.24224 11.150738,93.379219 11.07952,67.5162 h 67.743474 67.743476 l -0.0712,25.863019 -0.0712,25.863021 -0.69722,1.48696 c -1.27831,2.72625 -3.68456,4.79241 -6.5607,5.63344 -1.29457,0.37855 -7.28984,0.41881 -60.457284,0.40599 -55.947637,-0.0135 -59.097216,-0.0389 -60.499506,-0.48752 z"
         id="path5894" /><path
         style="fill:#fed5d8"
         d="m 18.20932,126.28111 c -2.771313,-0.88667 -5.125234,-3.00104 -6.386993,-5.73703 L 11.221956,119.24224 11.150738,93.379219 11.07952,67.5162 h 67.743474 67.743476 l -0.0712,25.863019 -0.0712,25.863021 -0.60037,1.30184 c -0.82553,1.79007 -2.25368,3.46309 -3.86539,4.52815 -2.77604,1.83447 1.79438,1.71216 -63.389302,1.6964 -55.813281,-0.0135 -58.957402,-0.0389 -60.359648,-0.48752 z"
         id="path5893" /><path
         style="fill:#fed2d5"
         d="m 18.497997,126.35922 c -2.785517,-0.74428 -5.378993,-3.00344 -6.67567,-5.81514 L 11.221956,119.24224 11.150738,93.379219 11.07952,67.5162 h 67.743474 67.743476 l -0.0712,25.863019 -0.0712,25.863021 -0.60037,1.30184 c -0.82553,1.79007 -2.25368,3.46309 -3.86539,4.52815 -2.77609,1.8345 1.78177,1.7125 -63.25701,1.69322 -50.804763,-0.0151 -58.944812,-0.07 -60.203263,-0.40623 z"
         id="path5892" /><path
         style="fill:#fed1d3"
         d="m 18.506704,126.3593 c -2.811243,-0.75551 -5.149078,-2.76852 -6.566109,-5.65381 L 11.221956,119.24224 11.150738,93.379219 11.07952,67.5162 h 67.743474 67.743476 l -0.0712,25.863019 -0.0712,25.863021 -0.60037,1.30184 c -0.82553,1.79007 -2.25368,3.46309 -3.86539,4.52815 -2.77609,1.8345 1.78177,1.7125 -63.25701,1.69322 -50.803074,-0.0151 -58.943677,-0.07 -60.194556,-0.40615 z"
         id="path5891" /><path
         style="fill:#fecfd2"
         d="m 18.506704,126.3593 c -2.811243,-0.75551 -5.149078,-2.76852 -6.566109,-5.65381 L 11.221956,119.24224 11.150738,93.379219 11.07952,67.5162 h 67.743474 67.743476 l -0.0712,25.863019 -0.0712,25.863021 -0.71864,1.46325 c -1.44411,2.94044 -3.76268,4.90699 -6.68175,5.66731 -1.40002,0.36466 -8.07877,0.40814 -60.32238,0.39265 -50.803074,-0.0151 -58.943677,-0.07 -60.194556,-0.40615 z"
         id="path5890" /><path
         style="fill:#feced1"
         d="m 18.506704,126.3593 c -2.811243,-0.75551 -5.149078,-2.76852 -6.566109,-5.65381 L 11.221956,119.24224 11.150738,93.379219 11.07952,67.5162 h 67.743474 67.743476 l -0.0712,25.863019 -0.0712,25.863021 -0.7783,1.5875 c -1.39079,2.83677 -4.0675,4.9829 -7.0821,5.67828 -0.73181,0.1688 -22.01532,0.25802 -59.872927,0.25096 -50.80801,-0.009 -58.932773,-0.0634 -60.183999,-0.39968 z"
         id="path5889" /><path
         style="fill:#fececf"
         d="m 18.762581,126.41937 c -2.992015,-0.82371 -5.40263,-2.81628 -6.76232,-5.58963 L 11.221956,119.24224 11.150738,93.379219 11.07952,67.5162 h 67.743474 67.743476 l -0.0712,25.863019 -0.0712,25.863021 -0.7783,1.5875 c -1.39079,2.83677 -4.0675,4.9829 -7.0821,5.67828 -1.81068,0.41767 -118.274941,0.33149 -119.801049,-0.0887 z"
         id="path5888" /><path
         style="fill:#fecacd"
         d="m 18.762581,126.41937 c -2.992015,-0.82371 -5.40263,-2.81628 -6.76232,-5.58963 L 11.221956,119.24224 11.150738,93.379219 11.07952,67.5162 h 67.743474 67.743476 l -0.0712,25.863019 -0.0712,25.863021 -0.77749,1.5875 c -1.38832,2.83467 -4.06781,4.98279 -7.08291,5.67828 -1.81068,0.41767 -118.274941,0.33149 -119.801049,-0.0887 z"
         id="path5887" /><path
         style="fill:#fec9cc"
         d="m 18.762581,126.41937 c -2.992628,-0.82388 -5.405883,-2.8184 -6.763128,-5.58963 L 11.221956,119.24224 11.150738,93.379219 11.07952,67.5162 h 67.743474 67.743476 l -0.0712,25.863019 -0.0712,25.863021 -0.77749,1.5875 c -1.38832,2.83467 -4.06781,4.98279 -7.08291,5.67828 -1.81068,0.41767 -118.274941,0.33149 -119.801049,-0.0887 z"
         id="path5886" /><path
         style="fill:#fec8cb"
         d="m 18.762581,126.42083 c -2.996607,-0.82865 -5.406336,-2.82078 -6.763128,-5.59109 L 11.221956,119.24224 11.150738,93.379219 11.07952,67.5162 h 67.743474 67.743476 l -0.0712,25.863019 -0.0712,25.863021 -0.73104,1.48801 c -1.141,2.32246 -2.59688,3.78647 -4.89487,4.92222 l -2.01947,0.9981 -59.412723,0.0498 c -46.698248,0.0391 -59.667518,-0.0207 -60.603346,-0.27949 z"
         id="path5885" /><path
         style="fill:#fec7ca"
         d="m 18.926024,126.49002 c -2.883694,-0.68105 -5.566681,-2.89722 -6.973022,-5.75977 L 11.221956,119.24224 11.150738,93.379219 11.07952,67.5162 h 67.743474 67.743476 l -0.0712,25.863019 -0.0712,25.863021 -0.73104,1.48801 c -1.141,2.32246 -2.59688,3.78647 -4.89487,4.92222 l -2.01947,0.9981 -59.412723,0.041 c -35.253034,0.0243 -59.830416,-0.0576 -60.439903,-0.20157 z"
         id="path5884" /><path
         style="fill:#fec6c8"
         d="m 18.926024,126.49002 c -2.883694,-0.68105 -5.566681,-2.89722 -6.973022,-5.75977 L 11.221956,119.24224 11.150738,93.379219 11.07952,67.5162 h 67.744695 67.744695 l -0.0724,25.863019 -0.0724,25.863021 -0.73104,1.48801 c -1.141,2.32246 -2.59688,3.78647 -4.89487,4.92222 l -2.01947,0.9981 -59.412723,0.041 c -35.253034,0.0243 -59.830416,-0.0576 -60.439903,-0.20157 z"
         id="path5883" /><path
         style="fill:#fec1c5"
         d="m 18.926024,126.49002 c -2.883694,-0.68105 -5.566681,-2.89722 -6.973022,-5.75977 L 11.221956,119.24224 11.149517,93.379219 11.077079,67.5162 h 67.745915 67.745916 l -0.0724,25.863019 -0.0724,25.863021 -0.73104,1.48801 c -1.141,2.32246 -2.59688,3.78647 -4.89487,4.92222 l -2.01947,0.9981 -59.412723,0.041 c -35.253034,0.0243 -59.830416,-0.0576 -60.439903,-0.20157 z"
         id="path5882" /><path
         style="fill:#febfc2"
         d="m 18.926024,126.49002 c -2.883694,-0.68105 -5.566681,-2.89722 -6.973022,-5.75977 L 11.221956,119.24224 11.149517,93.379219 11.077079,67.5162 h 67.739622 67.739619 v 25.219685 c 0,27.763785 0.0607,26.674595 -1.63374,29.343315 -1.06084,1.67087 -2.35119,2.76104 -4.43914,3.75047 l -1.73232,0.8209 -59.398959,0.041 c -35.244689,0.0243 -59.816653,-0.0576 -60.426137,-0.20157 z"
         id="path5881" /><path
         style="fill:#febcbf"
         d="m 18.959939,126.49706 c -2.466589,-0.58493 -4.895326,-2.30541 -6.236533,-4.41786 -1.694384,-2.66872 -1.633742,-1.57953 -1.633742,-29.343315 V 67.5162 h 67.73333 67.733326 v 25.219685 c 0,27.763785 0.0607,26.674595 -1.63374,29.343315 -1.06084,1.67087 -2.35119,2.76104 -4.43914,3.75047 l -1.73232,0.8209 -59.398959,0.041 c -33.959819,0.0234 -59.824347,-0.0599 -60.392222,-0.19453 z"
         id="path5880" /><path
         style="fill:#febabd"
         d="m 18.956909,126.49643 c -3.43516,-0.81431 -6.319841,-3.52014 -7.378241,-6.92079 -0.461221,-1.48191 -0.489004,-3.00541 -0.489004,-26.815306 V 67.5162 h 67.73333 67.733326 v 25.219685 c 0,27.763785 0.0607,26.674595 -1.63374,29.343315 -1.06084,1.67087 -2.35119,2.76104 -4.43914,3.75047 l -1.73232,0.8209 -59.398959,0.041 c -34.077766,0.0235 -59.823667,-0.0597 -60.395252,-0.19516 z"
         id="path5879" /><path
         style="fill:#feb9bd"
         d="m 18.956909,126.49672 c -3.436187,-0.81554 -6.319879,-3.52056 -7.378241,-6.92108 -0.461221,-1.48191 -0.489004,-3.00541 -0.489004,-26.815306 V 67.5162 h 67.73333 67.733326 v 25.219685 c 0,27.763785 0.0607,26.674595 -1.63374,29.343315 -1.06084,1.67087 -2.35119,2.76104 -4.43914,3.75047 l -1.73232,0.8209 -59.398959,0.0413 c -34.132769,0.0237 -59.822744,-0.0593 -60.395252,-0.19515 z"
         id="path5878" /><path
         style="fill:#feb7bb"
         d="m 19.118113,126.50905 c -3.438703,-0.68572 -6.459571,-3.46377 -7.539445,-6.93341 -0.461221,-1.48191 -0.489004,-3.00541 -0.489004,-26.815306 V 67.5162 h 67.73333 67.733326 v 25.219685 c 0,27.763785 0.0607,26.674595 -1.63374,29.343315 -1.06084,1.67087 -2.35119,2.76104 -4.43914,3.75047 l -1.73232,0.8209 -59.266667,0.0389 c -32.596665,0.0214 -59.761518,-0.0598 -60.36634,-0.18041 z"
         id="path5877" /><path
         style="fill:#feb5b9"
         d="m 18.894872,126.41093 c -3.578133,-0.88426 -6.237242,-3.36858 -7.316204,-6.83529 -0.461221,-1.48191 -0.489004,-3.00541 -0.489004,-26.815306 V 67.5162 h 67.73333 67.733326 v 25.244134 c 0,23.809896 -0.0278,25.333396 -0.489,26.815306 -1.11183,3.57233 -3.93704,6.12094 -7.65996,6.91004 -2.11644,0.4486 -117.687287,0.37631 -119.512488,-0.0748 z"
         id="path5876" /><path
         style="fill:#feb4b7"
         d="m 18.894872,126.41093 c -3.578133,-0.88426 -6.237242,-3.36858 -7.316204,-6.83529 -0.461221,-1.48191 -0.489004,-3.00541 -0.489004,-26.815306 V 67.5162 h 67.73333 67.733326 v 25.276053 c 0,24.848807 -0.009,25.303497 -0.54687,26.899417 -1.21806,3.61576 -3.89517,6.00831 -7.60209,6.79401 -2.11644,0.4486 -117.687287,0.37631 -119.512488,-0.0748 z"
         id="path5875" /><path
         style="fill:#feb1b5"
         d="m 18.894872,126.41093 c -3.56285,-0.88048 -6.074744,-3.20582 -7.258337,-6.71926 -0.537627,-1.59592 -0.546871,-2.05061 -0.546871,-26.899417 V 67.5162 h 67.73333 67.733326 v 25.276053 c 0,24.848807 -0.009,25.303497 -0.54687,26.899417 -1.21806,3.61576 -3.89517,6.00831 -7.60209,6.79401 -2.11644,0.4486 -117.687287,0.37631 -119.512488,-0.0748 z"
         id="path5874" /><path
         style="fill:#feb0b4"
         d="m 18.894872,126.41093 c -3.56285,-0.88048 -6.074744,-3.20582 -7.258337,-6.71926 -0.537627,-1.59592 -0.546871,-2.05061 -0.546871,-26.899417 V 67.5162 h 67.738427 67.738429 l -0.0712,25.730728 -0.0713,25.730732 -0.83989,1.77289 c -1.43193,3.0226 -3.97628,5.05575 -7.17678,5.73482 -2.11558,0.44888 -117.686171,0.3769 -119.512488,-0.0744 z"
         id="path5873" /><path
         style="fill:#feaeb3"
         d="m 18.823474,126.37265 c -3.657124,-0.98458 -6.002411,-3.16477 -7.186939,-6.68098 -0.537627,-1.59592 -0.546871,-2.05061 -0.546871,-26.899417 V 67.5162 h 67.738427 67.738429 l -0.0712,25.730728 -0.0713,25.730732 -0.83989,1.77289 c -1.43193,3.0226 -3.97628,5.05575 -7.17678,5.73482 -1.01537,0.21544 -17.50773,0.29269 -59.795826,0.28008 -49.548629,-0.0148 -58.604947,-0.0743 -59.78806,-0.3928 z"
         id="path5872" /><path
         style="fill:#feabb0"
         d="m 18.828905,126.37404 c -3.168528,-0.85321 -5.376374,-2.68795 -6.767057,-5.62349 L 11.221956,118.97766 11.150713,93.246928 11.079471,67.5162 h 67.743523 67.743526 l -0.0712,25.730728 -0.0713,25.730732 -0.83989,1.77289 c -1.43193,3.0226 -3.97628,5.05575 -7.17678,5.73482 -1.01537,0.21544 -17.50773,0.29269 -59.795826,0.28008 -49.446659,-0.0147 -58.60655,-0.0747 -59.782629,-0.39141 z"
         id="path5871" /><path
         style="fill:#fea9ae"
         d="m 18.828905,126.37404 c -3.168528,-0.85321 -5.376374,-2.68795 -6.767057,-5.62349 L 11.221956,118.97766 11.150713,93.246928 11.079471,67.5162 h 67.744749 67.74475 l -0.0725,25.730728 -0.0725,25.730732 -0.83989,1.77289 c -1.43193,3.0226 -3.97628,5.05575 -7.17678,5.73482 -1.01537,0.21544 -17.50773,0.29269 -59.795826,0.28008 -49.446659,-0.0147 -58.60655,-0.0747 -59.782629,-0.39141 z"
         id="path5870" /><path
         style="fill:#fea5aa"
         d="m 18.828905,126.37404 c -3.168528,-0.85321 -5.376374,-2.68795 -6.767057,-5.62349 L 11.221956,118.97766 11.149487,93.246928 11.077018,67.5162 h 67.745976 67.745976 l -0.0725,25.730728 -0.0725,25.730732 -0.83989,1.77289 c -1.43193,3.0226 -3.97628,5.05575 -7.17678,5.73482 -1.01537,0.21544 -17.50773,0.29269 -59.795826,0.28008 -49.446659,-0.0147 -58.60655,-0.0747 -59.782629,-0.39141 z"
         id="path5869" /><path
         style="fill:#fea2a8"
         d="m 18.828905,126.37404 c -3.168528,-0.85321 -5.376374,-2.68795 -6.767057,-5.62349 L 11.221956,118.97766 11.149487,93.246928 11.077018,67.5162 h 67.745976 67.745976 l -0.0725,25.730728 -0.0725,25.730732 -0.83989,1.77289 c -1.41483,2.98652 -3.60996,4.78482 -6.88054,5.6367 -2.22415,0.57932 -117.72152,0.56659 -119.874695,-0.0132 z"
         id="path5868" /><path
         style="fill:#fe9fa6"
         d="m 19.338392,126.49976 c -3.18048,-0.62589 -5.847816,-2.73336 -7.276544,-5.74921 L 11.221956,118.97766 11.149487,93.246928 11.077018,67.5162 h 67.745976 67.745976 l -0.0725,25.730728 -0.0725,25.730732 -0.83989,1.77289 c -1.47419,3.11182 -4.08136,5.12044 -7.48381,5.76571 -1.74424,0.33078 -117.078618,0.31476 -118.761938,-0.0165 z"
         id="path5867" /><path
         style="fill:#fe9ea3"
         d="m 19.338392,126.49976 c -3.18048,-0.62589 -5.847816,-2.73336 -7.276544,-5.74921 L 11.221956,118.97766 11.149487,93.246928 11.077018,67.5162 h 67.745976 67.745976 l -0.0725,25.730728 -0.0725,25.730732 -0.83989,1.77289 c -1.45243,3.06588 -4.13486,5.13725 -7.46445,5.76403 -1.76537,0.33232 -117.090398,0.31793 -118.781298,-0.0148 z"
         id="path5866" /><path
         style="fill:#fe9ca1"
         d="m 19.303734,126.49384 c -3.105603,-0.60877 -5.834863,-2.77326 -7.241886,-5.74329 L 11.221956,118.97766 11.149487,93.246928 11.077018,67.5162 h 67.745976 67.745976 l -0.0725,25.730728 -0.0725,25.730732 -0.83989,1.77289 c -1.45243,3.06588 -4.13486,5.13725 -7.46445,5.76403 -1.7854,0.33609 -117.09829,0.31597 -118.815956,-0.0207 z"
         id="path5865" /><path
         style="fill:#fe9aa0"
         d="m 19.303734,126.49384 c -3.105603,-0.60877 -5.834863,-2.77326 -7.241886,-5.74329 L 11.221956,118.97766 11.149487,93.246928 11.077018,67.5162 h 67.745976 67.745976 l -0.0725,25.730728 -0.0725,25.730732 -0.84287,1.77926 c -1.43584,3.031 -4.16527,5.13716 -7.46147,5.75766 -1.7854,0.33609 -117.09829,0.31597 -118.815956,-0.0207 z"
         id="path5864" /><path
         style="fill:#fe99a0"
         d="m 19.303734,126.49384 c -3.071659,-0.60212 -5.849232,-2.80338 -7.238907,-5.73692 L 11.221956,118.97766 11.149487,93.246928 11.077018,67.5162 h 67.745976 67.745976 l -0.0725,25.730728 -0.0725,25.730732 -0.84287,1.77926 c -1.43584,3.031 -4.16527,5.13716 -7.46147,5.75766 -1.7854,0.33609 -117.09829,0.31597 -118.815956,-0.0207 z"
         id="path5863" /><path
         style="fill:#fe979c"
         d="m 19.303734,126.49384 c -3.050886,-0.59805 -5.868021,-2.84498 -7.266382,-5.79563 L 11.221956,118.97766 11.149487,93.246928 11.077018,67.5162 h 67.745976 67.745976 l -0.0725,25.730728 -0.0725,25.730732 -0.84287,1.77926 c -1.43584,3.031 -4.16527,5.13716 -7.46147,5.75766 -1.7854,0.33609 -117.09829,0.31597 -118.815956,-0.0207 z"
         id="path5862" /><path
         style="fill:#fe959c"
         d="m 19.463855,126.50533 c -3.091417,-0.51872 -5.996977,-2.79071 -7.426503,-5.80712 L 11.221956,118.97766 11.149487,93.246928 11.077018,67.5162 h 67.745976 67.745976 l -0.0725,25.730728 -0.0725,25.730732 -0.84287,1.77926 c -1.47158,3.10644 -4.2613,5.2123 -7.63733,5.76514 -1.92985,0.31602 -116.593378,0.29983 -118.479975,-0.0167 z"
         id="path5861" /><path
         style="fill:#fe939a"
         d="m 19.463855,126.50533 c -3.091417,-0.51872 -5.996977,-2.79071 -7.426503,-5.80712 L 11.221956,118.97766 11.149487,93.246928 11.077018,67.5162 h 67.745976 67.745976 l -0.0725,25.730728 -0.0725,25.730732 -0.81539,1.72055 c -1.48188,3.12686 -4.30793,5.27414 -7.66481,5.82385 -1.92985,0.31602 -116.593378,0.29983 -118.479975,-0.0167 z"
         id="path5860" /><path
         style="fill:#fe9096"
         d="m 19.463855,126.50533 c -3.091417,-0.51872 -5.996977,-2.79071 -7.426503,-5.80712 L 11.221956,118.97766 11.149487,93.246928 11.077018,67.5162 h 67.739653 67.739649 l -0.003,25.069269 c -0.003,20.067941 -0.0736,25.333191 -0.35652,26.392191 -1.07815,4.03614 -4.18763,6.8787 -8.25283,7.5444 -1.92985,0.31602 -116.593378,0.29983 -118.479975,-0.0167 z"
         id="path5859" /><path
         style="fill:#fe8f95"
         d="m 19.463855,126.50533 c -2.788009,-0.46781 -5.857475,-2.67706 -7.102404,-5.11194 -1.280328,-2.50413 -1.265309,-2.16307 -1.268646,-28.807921 L 11.089664,67.5162 h 67.73333 67.733326 v 24.857809 c 0,17.397331 -0.0893,25.278611 -0.29749,26.259891 -0.87228,4.11109 -4.13162,7.20311 -8.315,7.88816 -1.92985,0.31602 -116.593378,0.29983 -118.479975,-0.0167 z"
         id="path5858" /><path
         style="fill:#fe8e94"
         d="m 19.463855,126.50533 c -2.754362,-0.46217 -5.874754,-2.71092 -7.107657,-5.12224 -1.27428,-2.49224 -1.260057,-2.16805 -1.263393,-28.797621 L 11.089664,67.5162 h 67.73333 67.733326 v 24.857809 c 0,17.397331 -0.0893,25.278611 -0.29749,26.259891 -0.87228,4.11109 -4.13162,7.20311 -8.315,7.88816 -1.92985,0.31602 -116.593378,0.29983 -118.479975,-0.0167 z"
         id="path5857" /><path
         style="fill:#fe8c94"
         d="m 19.463855,126.50533 c -3.899086,-0.65424 -7.235239,-3.90561 -8.076699,-7.87143 -0.208207,-0.98128 -0.297492,-8.86256 -0.297492,-26.259891 V 67.5162 h 67.73333 67.733326 v 24.857809 c 0,17.397331 -0.0893,25.278611 -0.29749,26.259891 -0.88621,4.17673 -4.21473,7.27975 -8.46842,7.89471 -2.09387,0.3027 -116.517926,0.28019 -118.326555,-0.0233 z"
         id="path5856" /><path
         style="fill:#fe8d93"
         d="m 19.463855,126.50762 c -3.905041,-0.66222 -7.23546,-3.90894 -8.076699,-7.87372 -0.208207,-0.98128 -0.297492,-8.86256 -0.297492,-26.259891 V 67.5162 h 67.739684 67.739682 l -0.0783,25.598436 c -0.0601,19.665734 -0.1552,25.823834 -0.41024,26.570974 -0.93003,2.72456 -3.52697,5.35853 -6.40337,6.49468 -1.12732,0.44527 -4.32101,0.47227 -60.060416,0.5076 -32.378384,0.0205 -59.447183,-0.0606 -60.152889,-0.18027 z"
         id="path5855" /><path
         style="fill:#fe8b92"
         d="m 19.616627,126.51575 c -3.965591,-0.58472 -7.373777,-3.84894 -8.229471,-7.88185 -0.208207,-0.98128 -0.297492,-8.86256 -0.297492,-26.259891 V 67.5162 h 67.739684 67.739682 l -0.0783,25.598436 c -0.0601,19.665734 -0.1552,25.823834 -0.41024,26.570974 -0.93003,2.72456 -3.52697,5.35853 -6.40337,6.49468 -1.12734,0.44528 -4.31293,0.47216 -59.928124,0.50571 -32.305623,0.0195 -59.365207,-0.0571 -60.132409,-0.17025 z"
         id="path5854" /><path
         style="fill:#fe8b91"
         d="m 19.616627,126.51575 c -3.862506,-0.56952 -7.249821,-3.73469 -8.166997,-7.63137 -0.279324,-1.18673 -0.35255,-6.62595 -0.355832,-26.431202 L 11.089664,67.5162 h 67.739684 67.739682 l -0.0783,25.598436 c -0.0601,19.665734 -0.1552,25.823834 -0.41024,26.570974 -0.93003,2.72456 -3.52697,5.35853 -6.40337,6.49468 -1.12734,0.44528 -4.31293,0.47216 -59.928124,0.50571 -32.305623,0.0195 -59.365207,-0.0571 -60.132409,-0.17025 z"
         id="path5853" /><path
         style="fill:#fe898f"
         d="m 19.616627,126.51575 c -3.862506,-0.56952 -7.249821,-3.73469 -8.166997,-7.63137 -0.279324,-1.18673 -0.35255,-6.62595 -0.355832,-26.431202 L 11.089664,67.5162 h 67.739684 67.739682 l -0.0725,25.598436 c -0.0722,25.482044 -0.0751,25.604724 -0.63969,26.980384 -1.13092,2.75548 -3.2178,4.85849 -5.9151,5.96083 l -1.45521,0.59472 -58.737494,0.0354 c -32.305623,0.0195 -59.365207,-0.0571 -60.132409,-0.17025 z"
         id="path5852" /><path
         style="fill:#fe8890"
         d="m 19.616627,126.51547 c -3.861879,-0.56866 -7.249789,-3.73427 -8.166997,-7.63109 -0.279324,-1.18673 -0.35255,-6.62595 -0.355832,-26.431202 L 11.089664,67.5162 h 67.739684 67.739682 l -0.0725,25.598436 c -0.0722,25.482044 -0.0751,25.604724 -0.63969,26.980384 -1.1617,2.83047 -3.56629,5.16655 -6.2672,6.08863 -1.2895,0.44023 -4.71833,0.46893 -59.972896,0.50208 -32.232863,0.0193 -59.232915,-0.0573 -60.000117,-0.17026 z"
         id="path5851" /><path
         style="fill:#fe878d"
         d="m 19.556331,126.48475 c -2.843219,-0.46949 -5.533781,-2.31565 -6.985347,-4.79307 -1.50577,-2.56993 -1.48132,-2.08749 -1.48132,-29.227945 V 67.5162 h 67.739684 67.739682 l -0.0725,25.598436 c -0.0725,25.594364 -0.0726,25.598664 -0.64776,27.001634 -1.14428,2.79114 -3.58312,5.15229 -6.27054,6.07077 -1.27492,0.43573 -4.87175,0.46577 -59.961486,0.50077 -34.073194,0.0217 -59.214352,-0.0633 -60.060413,-0.20306 z"
         id="path5850" /><path
         style="fill:#fe868c"
         d="m 19.556331,126.48475 c -3.902116,-0.64434 -7.029553,-3.55458 -8.056033,-7.49654 -0.35707,-1.37124 -0.410634,-4.83115 -0.410634,-26.524475 V 67.5162 h 67.739684 67.739682 l -0.0725,25.598436 c -0.0725,25.594364 -0.0726,25.598664 -0.64776,27.001634 -1.14428,2.79114 -3.58312,5.15229 -6.27054,6.07077 -1.27492,0.43573 -4.87175,0.46577 -59.961486,0.50077 -34.073194,0.0217 -59.214352,-0.0633 -60.060413,-0.20306 z"
         id="path5849" /><path
         style="fill:#fe7f86"
         d="m 19.695664,126.49045 c -3.972526,-0.58437 -7.15183,-3.49478 -8.195366,-7.50224 -0.35707,-1.37124 -0.410634,-4.83115 -0.410634,-26.524475 V 67.5162 h 67.739684 67.739682 l -0.0725,25.598436 c -0.0725,25.594364 -0.0726,25.598664 -0.64776,27.001634 -1.14428,2.79114 -3.58312,5.15229 -6.27054,6.07077 -1.27492,0.43573 -4.8639,0.4657 -59.829194,0.49972 -32.444102,0.0201 -59.176444,-0.0673 -60.053372,-0.19631 z"
         id="path5848" /><path
         style="fill:#fe7f85"
         d="m 19.695664,126.48815 c -3.968029,-0.57793 -7.151517,-3.49128 -8.195366,-7.49994 -0.35707,-1.37124 -0.410634,-4.83115 -0.410634,-26.524475 V 67.5162 h 67.739684 67.739682 l -0.0725,25.598436 -0.0725,25.598434 -0.61774,1.53051 c -0.79282,1.96424 -3.0703,4.44748 -4.89152,5.33343 -0.75345,0.36652 -2.20334,0.78542 -3.22199,0.93089 -2.32103,0.33145 -115.716098,0.31247 -117.997116,-0.0198 z"
         id="path5847" /><path
         style="fill:#fe7b83"
         d="m 19.695664,126.48815 c -0.869251,-0.1266 -2.200081,-0.53334 -2.957399,-0.90386 -1.829466,-0.89508 -4.106002,-3.3771 -4.898563,-5.34071 l -0.617746,-1.53051 -0.0725,-25.598434 -0.0725,-25.598436 h 67.746036 67.746038 l -0.0725,25.598436 -0.0725,25.598434 -0.61774,1.53051 c -0.79282,1.96424 -3.0703,4.44748 -4.89152,5.33343 -0.75345,0.36652 -2.20334,0.78542 -3.22199,0.93089 -2.32103,0.33145 -115.7161,0.31247 -117.997118,-0.0198 z"
         id="path5846" /><path
         style="fill:#fe7b82"
         d="m 19.696952,126.48831 c -0.868544,-0.12652 -2.21778,-0.55313 -2.998302,-0.94804 -1.870086,-0.94618 -4.071627,-3.34606 -4.858948,-5.29669 l -0.617746,-1.53051 -0.0725,-25.598434 -0.0725,-25.598436 h 67.746036 67.746038 l -0.0725,25.598436 -0.0725,25.598434 -0.61774,1.53051 c -0.81126,2.00993 -3.07317,4.45475 -4.93743,5.33668 -0.7788,0.36844 -2.22874,0.78739 -3.22209,0.931 -2.27041,0.32825 -115.690271,0.30618 -117.94982,-0.0229 z"
         id="path5845" /><path
         style="fill:#fe7a82"
         d="m 19.758496,126.496 c -3.342097,-0.48963 -6.64558,-3.09796 -7.918794,-6.25242 l -0.617746,-1.53051 -0.0725,-25.598434 -0.0725,-25.598436 h 67.746036 67.746038 l -0.0725,25.598436 -0.0725,25.598434 -0.61774,1.53051 c -0.81126,2.00993 -3.07317,4.45475 -4.93743,5.33668 -0.7788,0.36844 -2.22874,0.78739 -3.22209,0.931 -2.2368,0.3234 -115.676955,0.30871 -117.888276,-0.0153 z"
         id="path5844" /><path
         style="fill:#fe767e"
         d="m 17.989759,126.08474 c -2.643807,-0.92819 -5.114904,-3.28085 -6.158269,-5.86311 l -0.609534,-1.50856 -0.0725,-25.598434 -0.0725,-25.598436 h 67.746036 67.746038 l -0.0725,25.598436 -0.0725,25.598434 -0.61774,1.53051 c -0.81743,2.02523 -3.06405,4.44218 -5.02371,5.40461 l -1.5023,0.7378 -60.060413,0.0547 c -53.696159,0.0489 -60.184359,0.0112 -61.23011,-0.35595 z"
         id="path5843" /><path
         style="fill:#fe757d"
         d="m 17.989759,126.08474 c -2.643807,-0.92819 -5.114904,-3.28085 -6.158269,-5.86311 l -0.609534,-1.50856 -0.0725,-25.598434 -0.0725,-25.598436 h 67.746036 67.746038 l -0.0725,25.598436 -0.0725,25.598434 -0.61774,1.53051 c -0.81151,2.01056 -2.98672,4.35062 -4.98408,5.3618 l -1.54193,0.78061 -60.060413,0.0547 c -53.696159,0.0489 -60.184359,0.0112 -61.23011,-0.35595 z"
         id="path5842" /><path
         style="fill:#fe747c"
         d="m 17.989759,126.08474 c -2.643807,-0.92819 -5.114904,-3.28085 -6.158269,-5.86311 l -0.609534,-1.50856 -0.0725,-25.598434 -0.0725,-25.598436 h 67.747249 67.747255 l -0.0737,25.598436 -0.0737,25.598434 -0.61774,1.53051 c -0.81151,2.01056 -2.98672,4.35062 -4.98408,5.3618 l -1.54193,0.78061 -60.060413,0.0547 c -53.696159,0.0489 -60.184359,0.0112 -61.23011,-0.35595 z"
         id="path5841" /><path
         style="fill:#fe737a"
         d="m 17.989759,126.08474 c -2.643807,-0.92819 -5.114904,-3.28085 -6.158269,-5.86311 L 11.221956,118.71307 11.148245,93.114636 11.074533,67.5162 h 67.748461 67.748466 l -0.0737,25.598436 -0.0737,25.598434 -0.61774,1.53051 c -0.81151,2.01056 -2.98672,4.35062 -4.98408,5.3618 l -1.54193,0.78061 -60.060411,0.0547 c -53.696159,0.0489 -60.184359,0.0112 -61.23011,-0.35595 z"
         id="path5840" /><path
         style="fill:#fe6e75"
         d="m 18.497997,126.2715 c -2.791581,-0.85939 -5.597957,-3.40287 -6.662049,-6.03796 L 11.221956,118.71307 11.148245,93.114636 11.074533,67.5162 h 67.748461 67.748466 l -0.0737,25.598436 -0.0737,25.598434 -0.61399,1.52047 c -0.81201,2.01084 -2.88194,4.24548 -4.91894,5.31036 l -1.61082,0.84209 -60.060411,0.0446 c -33.033227,0.0245 -60.35807,-0.0471 -60.721872,-0.15906 z"
         id="path5839" /><path
         style="fill:#fe6a73"
         d="m 18.218948,126.1357 c -2.979716,-1.10153 -5.317252,-3.26297 -6.383,-5.90216 L 11.221956,118.71307 11.148245,93.114636 11.074533,67.5162 h 67.748461 67.748466 l -0.0737,25.598436 -0.0737,25.598434 -0.61399,1.52047 c -0.81201,2.01084 -2.88194,4.24548 -4.91894,5.31036 l -1.61082,0.84209 -60.060411,0.0487 c -49.049394,0.0398 -60.232839,-0.015 -61.000921,-0.29898 z"
         id="path5838" /><path
         style="fill:#fe6971"
         d="m 17.919424,126.00987 c -2.828523,-1.10873 -5.050936,-3.22174 -6.087934,-5.78824 L 11.221956,118.71307 11.148245,93.114636 11.074533,67.5162 h 67.748461 67.748466 l -0.0737,25.598436 -0.0737,25.598434 -0.61399,1.52047 c -0.81201,2.01084 -2.88194,4.24548 -4.91894,5.31036 l -1.61082,0.84209 -60.060411,0.055 c -57.731121,0.0528 -60.108505,0.0361 -61.300445,-0.43109 z"
         id="path5837" /><path
         style="fill:#fe6870"
         d="m 17.919424,126.00987 c -2.828523,-1.10873 -5.050936,-3.22174 -6.087934,-5.78824 L 11.221956,118.71307 11.148245,93.114636 11.074533,67.5162 h 67.740896 67.740891 v 24.702427 c 0,15.603563 -0.0989,25.223973 -0.26852,26.118353 -0.57845,3.05017 -2.60005,5.74398 -5.41572,7.21652 l -1.5918,0.83249 -60.060411,0.055 c -57.731121,0.0528 -60.108505,0.0361 -61.300445,-0.43109 z"
         id="path5836" /><path
         style="fill:#fe6770"
         d="m 17.919424,126.00987 c -2.828523,-1.10873 -5.050936,-3.22174 -6.087934,-5.78824 L 11.221956,118.71307 11.148245,93.114636 11.074533,67.5162 h 67.740896 67.740891 l -0.002,24.540103 c -9e-4,14.424197 -0.10628,25.179717 -0.25564,26.091737 -0.51367,3.13659 -2.53284,5.89183 -5.42707,7.40546 l -1.5918,0.83249 -60.060411,0.055 c -57.731121,0.0528 -60.108505,0.0361 -61.300445,-0.43109 z"
         id="path5835" /><path
         style="fill:#fe676e"
         d="m 17.675793,125.89631 c -3.469317,-1.42928 -5.64988,-4.03844 -6.317603,-7.55933 -0.169617,-0.89438 -0.268526,-10.51479 -0.268526,-26.118353 V 67.5162 h 67.73333 67.733326 l -0.002,24.540103 c -9.1e-4,14.652557 -0.10531,25.173827 -0.25909,26.112957 -0.53069,3.24077 -2.70636,6.07306 -5.7671,7.50763 l -1.5129,0.7091 -59.928122,0.0608 -59.928122,0.0608 z"
         id="path5834" /><path
         style="fill:#fe646d"
         d="m 17.675793,125.89631 c -3.54686,-1.46123 -5.738814,-4.14475 -6.328955,-7.74827 -0.14936,-0.91202 -0.25474,-11.66754 -0.255641,-26.091737 L 11.089664,67.5162 h 67.73333 67.733326 l -0.002,24.540103 c -9.1e-4,14.652557 -0.10531,25.173827 -0.25909,26.112957 -0.53069,3.24077 -2.70636,6.07306 -5.7671,7.50763 l -1.5129,0.7091 -59.928122,0.0608 -59.928122,0.0608 z"
         id="path5833" /><path
         style="fill:#fe626a"
         d="m 17.675793,125.89631 c -3.54686,-1.46123 -5.738814,-4.14475 -6.328955,-7.74827 -0.14936,-0.91202 -0.25474,-11.66754 -0.255641,-26.091737 L 11.089664,67.5162 h 67.73333 67.733326 l -0.005,24.672394 c -0.005,26.758956 -0.0149,26.961226 -1.44704,29.404936 -0.93683,1.59857 -2.77991,3.24122 -4.58744,4.08856 l -1.50155,0.7039 -59.928122,0.0608 -59.928122,0.0608 z"
         id="path5832" /><path
         style="fill:#fe6069"
         d="m 17.596576,125.86412 c -1.895283,-0.78029 -3.140169,-1.7489 -4.460538,-3.47061 -2.013458,-2.62548 -1.899565,-0.93803 -1.985087,-29.411166 L 11.074461,67.5162 h 67.740931 67.740928 v 24.557655 c 0,16.652425 -0.0932,25.063025 -0.28958,26.127605 -0.61727,3.34647 -2.69002,6.04678 -5.73814,7.47543 l -1.5129,0.7091 -59.928122,0.0608 -59.928122,0.0608 z"
         id="path5831" /><path
         style="fill:#fe5f68"
         d="m 17.596576,125.86412 c -2.718161,-1.11907 -4.906451,-3.37279 -5.881277,-6.05713 -0.466539,-1.28469 -0.49735,-2.7421 -0.567091,-26.824646 L 11.074461,67.5162 h 67.740931 67.740928 v 24.557655 c 0,16.652425 -0.0932,25.063025 -0.28958,26.127605 -0.61727,3.34647 -2.69002,6.04678 -5.73814,7.47543 l -1.5129,0.7091 -59.928122,0.0608 -59.928122,0.0608 z"
         id="path5830" /><path
         style="fill:#fe5e67"
         d="m 17.596576,125.8632 c -2.717133,-1.11705 -4.90623,-3.37126 -5.881277,-6.05621 -0.466539,-1.28469 -0.49735,-2.7421 -0.567091,-26.824646 L 11.074461,67.5162 h 67.748533 67.748536 l -0.0737,25.466144 c -0.0697,24.082546 -0.10055,25.539956 -0.56709,26.824646 -0.99603,2.74275 -3.36819,5.12935 -6.12262,6.15991 l -1.47368,0.55138 -59.587467,-0.006 -59.587467,-0.006 z"
         id="path5829" /><path
         style="fill:#fe5d66"
         d="m 17.596576,125.8632 c -2.717133,-1.11705 -4.90623,-3.37126 -5.881277,-6.05621 -0.466539,-1.28469 -0.49735,-2.7421 -0.567091,-26.824646 L 11.074461,67.5162 h 67.749731 67.749728 l -0.0757,25.466144 c -0.0715,24.065276 -0.10278,25.540876 -0.56829,26.824646 -0.99414,2.74158 -3.36699,5.12918 -6.12189,6.15991 l -1.47368,0.55138 -59.587467,-0.006 -59.587467,-0.006 z"
         id="path5828" /><path
         style="fill:#fe5c65"
         d="m 17.675793,125.8954 c -3.53313,-1.4534 -5.706672,-4.16828 -6.309001,-7.88032 -0.173536,-1.06948 -0.273859,-10.58332 -0.275129,-26.091069 l -0.002,-24.407811 h 67.74213 67.742127 l -0.0757,25.466144 c -0.0715,24.065276 -0.10278,25.540876 -0.56829,26.824646 -0.99414,2.74158 -3.36699,5.12918 -6.12189,6.15991 l -1.47368,0.55138 -59.587468,-0.006 -59.587467,-0.006 z"
         id="path5827" /><path
         style="fill:#fe5b64"
         d="m 17.675793,125.89661 c -3.535054,-1.45708 -5.706771,-4.17011 -6.309001,-7.88153 -0.173536,-1.06948 -0.273859,-10.58332 -0.275129,-26.091069 l -0.002,-24.407811 h 67.73333 67.733327 l -0.002,24.407811 c -10e-4,15.760539 -0.10035,25.013949 -0.27959,26.118709 -0.54159,3.33812 -2.70471,6.20828 -5.75749,7.63937 l -1.50155,0.7039 -59.928123,0.0611 -59.928122,0.0611 z"
         id="path5826" /><path
         style="fill:#fe555e"
         d="m 18.309095,126.13561 c -3.665147,-1.14932 -6.313862,-4.24757 -6.942303,-8.12053 -0.173536,-1.06948 -0.273859,-10.58332 -0.275129,-26.091069 l -0.002,-24.407811 h 67.73333 67.733327 l -0.002,24.407811 c -10e-4,15.760539 -0.10035,25.013949 -0.27959,26.118709 -0.54159,3.33812 -2.70471,6.20828 -5.75749,7.63937 l -1.50155,0.7039 -59.795832,0.0496 c -48.928039,0.0406 -59.998469,-0.0139 -60.910774,-0.3 z"
         id="path5825" /><path
         style="fill:#fe535d"
         d="m 18.309095,126.13561 c -3.665147,-1.14932 -6.313862,-4.24757 -6.942303,-8.12053 -0.173536,-1.06948 -0.273859,-10.58332 -0.275129,-26.091069 l -0.002,-24.407811 h 67.73333 67.733327 l -0.005,24.275519 c -0.003,14.690021 -0.10928,24.995291 -0.26873,26.098351 -0.49586,3.43039 -2.63848,6.32632 -5.7651,7.79202 l -1.50155,0.7039 -59.795832,0.0496 c -48.928039,0.0406 -59.998469,-0.0139 -60.910774,-0.3 z"
         id="path5824" /><path
         style="fill:#fe525c"
         d="m 18.309095,126.13561 c -3.728643,-1.16923 -6.378282,-4.32361 -6.949371,-8.27317 -0.15446,-1.06822 -0.2617,-11.62573 -0.264819,-26.070721 L 11.089664,67.5162 h 67.73333 67.733326 l -0.005,24.275519 c -0.003,14.690021 -0.10928,24.995291 -0.26873,26.098351 -0.49586,3.43039 -2.63848,6.32632 -5.7651,7.79202 l -1.50155,0.7039 -59.795831,0.0496 c -48.928039,0.0406 -59.998469,-0.0139 -60.910774,-0.3 z"
         id="path5823" /><path
         style="fill:#fe515b"
         d="m 18.048163,126.02679 c -3.64418,-1.26234 -6.12902,-4.2955 -6.688439,-8.16435 -0.15446,-1.06822 -0.2617,-11.62573 -0.264819,-26.070721 L 11.089664,67.5162 h 67.73333 67.733326 l -0.005,24.275519 c -0.003,13.510931 -0.11427,25.029301 -0.25102,25.975401 -0.50571,3.49873 -2.66414,6.45303 -5.78273,7.91497 l -1.50155,0.7039 -59.795831,0.0587 c -56.998067,0.056 -59.860205,0.0364 -61.171706,-0.4179 z"
         id="path5822" /><path
         style="fill:#fe515a"
         d="m 18.048163,126.02679 c -3.667417,-1.27039 -6.132648,-4.32321 -6.709004,-8.30812 -0.13137,-0.90829 -0.241249,-12.57541 -0.244175,-25.926951 L 11.089664,67.5162 h 67.73333 67.733326 l -0.005,24.275519 c -0.003,13.510931 -0.11427,25.029301 -0.25102,25.975401 -0.50571,3.49873 -2.66414,6.45303 -5.78273,7.91497 l -1.50155,0.7039 -59.795831,0.0587 c -56.998067,0.056 -59.860205,0.0364 -61.171706,-0.4179 z"
         id="path5821" /><path
         style="fill:#fe4e58"
         d="m 18.048163,126.02679 c -3.667417,-1.27039 -6.132648,-4.32321 -6.709004,-8.30812 -0.13137,-0.90829 -0.241249,-12.57541 -0.244175,-25.926951 L 11.089664,67.5162 h 67.73333 67.733326 l -0.005,24.275519 c -0.003,13.510931 -0.11427,25.029301 -0.25102,25.975401 -0.50816,3.51569 -2.63957,6.41468 -5.82907,7.92829 l -1.45521,0.69058 -59.795831,0.0587 c -56.998067,0.056 -59.860205,0.0364 -61.171706,-0.4179 z"
         id="path5820" /><path
         style="fill:#fe4c56"
         d="m 18.300519,126.1319 c -2.780775,-0.86869 -5.294277,-3.26456 -6.464034,-6.16151 l -0.614529,-1.5219 -0.07612,-25.466146 -0.07613,-25.466144 h 67.753287 67.753287 l -0.0761,25.466144 -0.0761,25.466146 -0.61453,1.5219 c -1.19174,2.9514 -3.70382,5.31393 -6.56632,6.17542 -1.79118,0.53907 -119.215752,0.52557 -120.942662,-0.0139 z"
         id="path5819" /><path
         style="fill:#fe4b55"
         d="m 18.055838,126.00663 c -2.890023,-1.04042 -5.04775,-3.14043 -6.229207,-6.06257 L 11.221956,118.44849 11.144673,92.982344 11.06739,67.5162 H 78.822994 146.5786 l -0.0773,25.466144 -0.0773,25.466146 -0.61453,1.5219 c -1.18553,2.93602 -3.51466,5.14054 -6.47232,6.12605 -1.14394,0.38116 -6.98646,0.42092 -60.589578,0.4123 -57.174263,-0.009 -59.373133,-0.0274 -60.691764,-0.50211 z"
         id="path5818" /><path
         style="fill:#fe4a54"
         d="m 18.055838,126.00663 c -2.892558,-1.04133 -5.000317,-3.10452 -6.23477,-6.10293 L 11.221956,118.44849 11.144673,92.982344 11.06739,67.5162 H 78.822994 146.5786 l -0.0773,25.466144 -0.0773,25.466146 -0.59911,1.45521 c -1.24658,3.02787 -3.36209,5.08218 -6.29518,6.11308 -1.38463,0.48666 -3.18301,0.50122 -60.766282,0.49196 -57.189726,-0.009 -59.388985,-0.0274 -60.70762,-0.50211 z"
         id="path5817" /><path
         style="fill:#5356a3"
         d="M 11.089664,82.332866 V 67.5162 h 67.73333 67.733326 V 82.332866 97.149532 H 78.822994 11.089664 Z"
         id="path5816" /><path
         style="fill:#5056a3"
         d="M 11.089664,82.200574 V 67.5162 h 67.73333 67.733326 V 82.200574 96.884948 H 78.822994 11.089664 Z"
         id="path5815" /><path
         style="fill:#40469a"
         d="M 11.089664,82.332866 V 67.780783 h 67.73333 67.733326 V 82.332866 96.884948 H 78.822994 11.089664 Z"
         id="path5814" /></g></g></svg>
