<?xml version="1.0" encoding="UTF-8" standalone="no"?>
<!-- Created with Inkscape (http://www.inkscape.org/) -->

<svg
   width="53.724552mm"
   height="65.625175mm"
   viewBox="0 0 53.724552 65.625175"
   version="1.1"
   id="svg1"
   inkscape:export-filename="plyometrics.svg"
   inkscape:export-xdpi="96"
   inkscape:export-ydpi="96"
   xml:space="preserve"
   xmlns:inkscape="http://www.inkscape.org/namespaces/inkscape"
   xmlns:sodipodi="http://sodipodi.sourceforge.net/DTD/sodipodi-0.dtd"
   xmlns="http://www.w3.org/2000/svg"
   xmlns:svg="http://www.w3.org/2000/svg"><sodipodi:namedview
     id="namedview1"
     pagecolor="#ffffff"
     bordercolor="#000000"
     borderopacity="0.25"
     inkscape:showpageshadow="2"
     inkscape:pageopacity="0.0"
     inkscape:pagecheckerboard="0"
     inkscape:deskcolor="#d1d1d1"
     inkscape:document-units="mm"><inkscape:page
       x="0"
       y="0"
       width="53.724552"
       height="65.625175"
       id="page2"
       margin="0"
       bleed="0" /></sodipodi:namedview><defs
     id="defs1" /><g
     inkscape:label="Calque 1"
     inkscape:groupmode="layer"
     id="layer1"
     transform="translate(-82.234359,-108.74958)"><g
       id="g253"
       transform="translate(6.9745257,-0.25831566)"><path
         style="fill:#d3e7f4"
         d="m 75.273956,141.81667 v -32.80834 h 26.855204 26.85521 V 141.81667 174.625 H 102.12916 75.273956 Z"
         id="path259" /><path
         style="fill:#c5daeb"
         d="m 85.328123,174.43517 c 1.665176,-0.60703 5.408762,-2.10319 6.556278,-2.62028 0.768297,-0.34621 1.443893,-0.62947 1.501325,-0.62947 0.28857,0 5.845368,-2.78061 5.921216,-2.96296 0.04851,-0.11663 0.212607,-0.21204 0.364668,-0.21204 0.15206,0 0.89606,-0.35449 1.65332,-0.78776 l 1.37685,-0.78775 -0.59661,-1.83005 c -0.66202,-2.03071 -3.228272,-7.34945 -4.050219,-8.39439 -0.290174,-0.3689 -0.97709,-1.02794 -1.52648,-1.46454 -0.95424,-0.75833 -1.902733,-2.29416 -1.939,-3.13968 -0.01274,-0.2971 -0.08998,-0.27126 -0.307205,0.10277 -0.24515,0.42211 -0.382013,1.11683 -0.470587,2.38872 -0.0093,0.1334 -0.09604,0.16338 -0.192788,0.0666 -0.169017,-0.16902 -2.205352,4.05082 -2.205352,4.57009 0,0.45974 -1.756666,1.60303 -2.463061,1.60303 -0.425723,0 -0.804157,-0.2071 -0.980488,-0.53658 -0.157942,-0.29512 -0.400256,-0.46668 -0.538476,-0.38126 -0.138219,0.0854 -0.26123,0.059 -0.273357,-0.0587 -0.153142,-1.48674 -0.771301,-3.52135 -1.069861,-3.52135 -0.117919,0 -0.154648,-0.15571 -0.08162,-0.34602 0.07303,-0.19031 -0.04801,-1.11304 -0.268976,-2.05052 -0.220966,-0.93747 -0.403517,-2.27005 -0.405668,-2.96127 -0.0026,-0.82475 -0.1176,-1.25816 -0.33464,-1.26082 -0.24841,-0.003 -0.252975,-0.0535 -0.01834,-0.20272 0.229014,-0.14564 0.186157,-0.36601 -0.160579,-0.82569 -0.355325,-0.47107 -0.525455,-0.54209 -0.683997,-0.28557 -0.131169,0.21224 -0.105924,0.2765 0.06671,0.1698 0.152756,-0.0944 0.343683,2e-4 0.42428,0.21023 0.09775,0.25474 0.01889,0.3329 -0.236859,0.23476 -0.43002,-0.16502 -0.530259,0.31666 -0.118817,0.57095 0.145521,0.0899 0.26385,0.36485 0.262954,0.61092 -10e-4,0.27616 -0.15836,0.14684 -0.411091,-0.33784 -0.225203,-0.43188 -0.342845,-1.05066 -0.261426,-1.37506 0.09953,-0.39654 -0.0042,-0.67846 -0.316514,-0.86035 -0.255501,-0.1488 -0.339532,-0.27416 -0.186735,-0.27859 0.152797,-0.004 0.428178,0.14079 0.611957,0.32269 0.268969,0.26622 0.277741,0.18137 0.04497,-0.435 -0.159046,-0.42114 -0.357274,-0.87591 -0.440508,-1.01058 -0.307243,-0.49714 -0.197156,-5.86334 0.122473,-5.96989 0.170134,-0.0567 0.309334,-0.42656 0.309334,-0.82189 0,-0.39533 0.142875,-0.86166 0.3175,-1.03629 0.246944,-0.24694 0.232245,-0.31985 -0.06615,-0.32809 -0.211005,-0.006 -0.05622,-0.18822 0.343958,-0.40533 0.774436,-0.42013 0.940001,-0.63985 0.396875,-0.52667 -0.882454,0.18389 -1.178528,0.49383 -1.20021,1.25643 -0.02554,0.89812 -0.563668,1.64651 -0.77314,1.07522 -0.0667,-0.1819 -0.319705,-0.32694 -0.56224,-0.32231 -0.390515,0.007 -0.385247,0.0506 0.04605,0.37744 0.335908,0.25453 0.431621,0.54357 0.308478,0.93156 -0.142861,0.45012 -0.253403,0.5004 -0.553164,0.25162 -0.311207,-0.25828 -0.369428,-0.15986 -0.343932,0.58138 0.01688,0.49076 0.08514,0.68393 0.151692,0.42927 0.06655,-0.25466 0.244071,-0.46302 0.394491,-0.46302 0.160374,0 0.190655,0.19151 0.07321,0.46302 -0.110151,0.25466 -0.329444,1.35599 -0.487317,2.4474 -0.201787,1.39499 -0.312858,1.72898 -0.373962,1.12448 l -0.08692,-0.8599 H 78.432187 75.27395 v -17.4625 -17.4625 h 26.8552 26.85521 v 32.80842 32.80842 l -22.02656,-0.0227 c -12.114606,-0.0125 -21.847965,-0.0878 -21.629683,-0.16734 z m 29.897917,-17.15599 c 0,-0.22687 0.10821,-0.34562 0.24046,-0.26388 0.13226,0.0817 0.54129,-0.20889 0.90896,-0.64584 0.36768,-0.43695 0.74262,-0.79446 0.83321,-0.79446 0.0906,0 0.69748,-0.54041 1.34863,-1.20091 0.65115,-0.6605 1.29772,-1.13057 1.43683,-1.04459 0.14034,0.0867 0.18279,-0.0265 0.0954,-0.2543 -0.18659,-0.48624 0.31505,-0.56101 0.53602,-0.0799 0.0835,0.1819 0.0869,0.0673 0.007,-0.25459 -0.0795,-0.32192 -0.005,-0.84525 0.16463,-1.16295 0.2472,-0.46189 0.21265,-0.86149 -0.17243,-1.99437 -0.26486,-0.7792 -0.58299,-1.41673 -0.70697,-1.41673 -0.12397,0 -0.15667,-0.11122 -0.0727,-0.24715 0.21545,-0.3486 -0.6561,-2.42657 -0.94331,-2.24907 -0.13009,0.0804 -0.23654,0.26526 -0.23654,0.41078 0,0.14552 0.1177,0.19184 0.26155,0.10293 0.15536,-0.096 0.19082,0.0227 0.0873,0.29238 -0.13091,0.34115 -0.0808,0.39979 0.20147,0.2359 0.20663,-0.11996 0.28333,-0.11658 0.17044,0.008 -0.11289,0.1241 -0.47008,0.25471 -0.79375,0.29026 -0.32367,0.0355 -0.43967,0.003 -0.25777,-0.073 0.47441,-0.19736 0.4101,-0.70973 -0.0661,-0.52698 -0.21828,0.0838 -0.39688,0.0469 -0.39688,-0.0819 0,-0.12883 0.13267,-0.27846 0.29481,-0.3325 0.16215,-0.0541 0.33097,-0.42763 0.37516,-0.83017 0.064,-0.58323 0.009,-0.67263 -0.27126,-0.4401 -0.46717,0.38772 -0.84959,-0.18359 -0.4129,-0.61684 0.23658,-0.23471 0.26911,-0.18218 0.1372,0.22149 -0.13058,0.39957 -0.10801,0.43785 0.0921,0.15628 0.35206,-0.49527 0.087,-1.22572 -0.3032,-0.83553 -0.168,0.16801 -1.53938,0.28237 -3.38605,0.28237 -3.00417,0 -3.1078,-0.0191 -3.23215,-0.59531 -0.10927,-0.50632 -0.0939,0.25191 0.0844,4.16719 0.0227,0.49946 0.044,0.50286 0.37956,0.0607 0.3152,-0.4154 0.35542,-0.34045 0.35499,0.66145 -9.9e-4,2.33536 0.60704,5.39686 1.05383,5.30616 0.1547,-0.0314 0.22347,0.16399 0.15281,0.43421 -0.16151,0.61759 1.25807,3.71747 1.7041,3.72118 0.1819,0.002 0.33073,-0.18286 0.33073,-0.40973 z m -25.713658,-7.29636 c -0.315471,-0.20005 -0.252878,-0.26052 0.218219,-0.21081 0.493301,0.0521 1.376998,-3.69139 1.210175,-5.12644 -0.03059,-0.26312 0.04586,-0.41568 0.169886,-0.33903 0.175251,0.10831 0.832044,-0.8923 0.832044,-1.2676 0,-0.0417 -0.416719,-0.0757 -0.926042,-0.0757 -0.948705,0 -1.082689,0.16139 -0.237024,0.28551 0.260107,0.0382 0.524588,0.22441 0.587735,0.41385 0.06315,0.18944 -0.0072,0.26902 -0.15637,0.17684 -0.295234,-0.18247 -0.674137,0.53947 -0.462696,0.88159 0.07163,0.1159 -0.04705,0.35786 -0.263725,0.53769 -0.3162,0.26242 -0.397632,0.25528 -0.412558,-0.0362 -0.01051,-0.20518 -0.124614,-0.13296 -0.262337,0.16604 l -0.243741,0.52917 0.07961,-0.52917 c 0.04379,-0.29104 0.208322,-0.50375 0.365633,-0.47269 0.15731,0.0311 0.341399,-0.23322 0.409086,-0.5873 0.06769,-0.35408 0.02943,-0.58592 -0.08501,-0.51519 -0.114444,0.0707 -0.284065,0.006 -0.376936,-0.14461 -0.307626,-0.49775 -0.661005,0.0168 -0.692151,1.0078 -0.01688,0.53712 -0.08105,0.73845 -0.142593,0.44741 -0.385672,-1.8238 -0.455227,-1.86542 -0.663248,-0.39688 -0.113372,0.80037 -0.281804,1.96239 -0.374294,2.58227 -0.197216,1.32178 0.02707,2.44482 0.488264,2.4448 0.197604,-2e-5 0.313142,0.33816 0.293786,0.85989 -0.04752,1.2808 0.218944,1.4841 0.628773,0.47972 0.299231,-0.73333 0.301967,-0.92929 0.01551,-1.11094 z"
         id="path258" /><path
         style="fill:#b6d2e4"
         d="m 98.695722,174.37035 c -0.183076,-0.29622 0.3051,-0.62325 0.63032,-0.42226 0.328802,0.20321 3.854588,-3.48831 3.889748,-4.07259 0.0156,-0.25862 0.10355,-0.59197 0.19553,-0.74079 0.092,-0.14882 0.002,-0.40752 -0.19942,-0.57488 -0.2076,-0.17229 -0.30334,-0.54639 -0.2207,-0.8624 0.12874,-0.49231 0.0572,-0.54115 -0.60677,-0.41423 -0.74654,0.14272 -0.74806,0.14032 -0.18518,-0.29205 0.56621,-0.43492 0.56643,-0.43998 0.0943,-2.15573 -0.53313,-1.93753 -1.54297,-4.43016 -2.03664,-5.02709 -0.18052,-0.21828 -0.657667,-1.11125 -1.060324,-1.98437 -0.65734,-1.42538 -2.514719,-3.57188 -3.090771,-3.57188 -0.123016,0 -0.523462,-0.65484 -0.889881,-1.45521 -0.366419,-0.80036 -0.707786,-1.4552 -0.758593,-1.4552 -0.05081,0 -0.234542,0.44648 -0.408299,0.99218 -0.173756,0.54571 -0.64705,1.70657 -1.051763,2.57969 -0.404713,0.87313 -1.002266,2.21594 -1.327894,2.98404 -0.641878,1.51406 -1.673249,2.43992 -2.717981,2.43992 -1.286381,0 -2.60761,-3.3067 -3.277234,-8.20208 -0.323667,-2.36622 -0.614297,-3.44583 -1.307182,-4.85583 -0.838198,-1.70571 -0.890979,-1.97608 -0.890979,-4.56406 0,-1.65758 0.10516,-2.75095 0.264584,-2.75095 0.145521,0 0.264583,-0.33345 0.264583,-0.741 0,-0.82192 0.542195,-2.16414 0.875511,-2.16735 0.117729,-0.001 0.141909,-0.11879 0.05373,-0.26147 -0.08817,-0.14267 0.192817,-0.0567 0.624428,0.19099 0.467159,0.26811 0.846951,0.74786 0.938453,1.18544 0.08454,0.40428 0.228124,1.10159 0.319077,1.54957 0.09388,0.46239 0.388316,0.89699 0.681082,1.00529 0.283642,0.10492 0.496267,0.27506 0.472501,0.37808 -0.02377,0.10301 0.03496,1.16868 0.130508,2.36815 0.09555,1.19946 0.06933,2.65709 -0.05825,3.23918 -0.251325,1.14663 0.113378,3.49186 0.718244,4.61868 0.345972,0.64452 0.354247,0.63791 0.99416,-0.79375 0.354907,-0.79403 0.753992,-2.21759 0.886857,-3.16347 0.31086,-2.21307 0.884616,-3.73372 1.696576,-4.49652 0.355655,-0.33412 0.572387,-0.72764 0.481627,-0.87449 -0.09076,-0.14685 -0.04375,-0.19206 0.104462,-0.10046 0.33435,0.20664 2.383145,-0.74723 3.185719,-1.4832 0.647471,-0.59374 0.778329,-1.36766 0.283011,-1.67378 -0.171767,-0.10616 -0.876669,-0.16727 -1.566451,-0.13579 -1.210667,0.0552 -1.282399,0.0162 -2.068948,-1.12705 -0.44814,-0.65134 -0.814799,-1.37412 -0.814799,-1.60616 0,-0.23205 -0.310988,-0.54014 -0.691084,-0.68465 -0.559873,-0.21286 -0.655468,-0.37488 -0.503494,-0.85335 0.204053,-0.64243 0.203412,-0.70656 -0.02817,-2.81794 -0.266533,-2.42999 0.807148,-5.28095 2.247696,-5.96834 0.490959,-0.23428 0.828578,-0.49003 0.750265,-0.56834 -0.07831,-0.0783 -0.420476,-0.007 -0.760361,0.15822 -0.589076,0.28656 -0.593957,0.28138 -0.104383,-0.11085 0.306125,-0.24526 1.032662,-0.41147 1.798571,-0.41147 1.051001,0 1.403602,-0.128 1.936433,-0.70293 0.358298,-0.38661 0.71547,-0.63891 0.793715,-0.56066 0.07824,0.0782 -0.05617,0.3407 -0.298708,0.58323 -0.793002,0.793 -0.207995,0.71645 0.650023,-0.0851 0.714834,-0.66775 0.768048,-0.79869 0.367043,-0.90313 -0.302287,-0.0787 -0.215912,-0.13306 0.242988,-0.15284 0.391595,-0.0169 0.785574,0.0884 0.875511,0.23389 0.224293,0.36291 1.455211,0.33551 1.455211,-0.0324 0,-0.20518 0.12267,-0.19517 0.39687,0.0324 0.21828,0.18116 0.39688,0.50141 0.39688,0.71168 0,0.26191 0.16665,0.32942 0.52916,0.21436 0.29104,-0.0924 0.54198,-0.0706 0.55764,0.0483 0.26439,2.0082 0.20331,3.38585 -0.16832,3.79649 -0.50358,0.55645 -0.41617,1.90391 0.13985,2.15586 0.32484,0.14721 0.31284,0.18322 -0.0661,0.19844 -0.30404,0.0122 -0.46302,0.23161 -0.46302,0.63899 0,0.34121 -0.23243,1.32348 -0.51652,2.18281 l -0.51652,1.56242 0.57758,0.84501 c 0.66229,0.96894 0.96134,1.08057 3.49817,1.30575 1.39763,0.12406 2.17669,0.0534 3.175,-0.28809 1.6967,-0.58035 5.15938,-0.87475 5.15938,-0.43867 0,0.20712 0.50406,0.2914 1.52135,0.25435 0.89343,-0.0325 2.09222,0.13635 2.90447,0.40919 0.76072,0.25552 1.52325,0.37798 1.69453,0.27212 0.18671,-0.1154 0.24109,-0.0787 0.1358,0.0917 -0.0966,0.15628 -0.0208,0.44256 0.1684,0.6362 0.39178,0.40096 1.51294,2.7211 1.51294,3.13089 0,0.14908 0.10445,0.4778 0.23211,0.73049 0.38405,0.76019 0.77762,2.21277 1.09226,4.0313 0.86244,4.98461 1.17542,5.92453 1.98293,5.95501 0.14552,0.005 0.22423,0.23904 0.17491,0.51899 -0.0805,0.45681 -0.0414,0.46977 0.38152,0.12636 0.25915,-0.21046 0.38939,-0.24614 0.28941,-0.0793 -0.1,0.16684 -0.10545,0.86013 -0.0122,1.54064 0.0933,0.68052 0.24152,1.12111 0.32942,0.9791 0.0879,-0.14201 0.15983,0.49378 0.15983,1.41288 0,0.9191 -0.0803,1.75185 -0.1785,1.85057 -0.27341,0.27493 -1.27404,-0.12382 -1.20518,-0.48027 0.0334,-0.17303 -0.0838,-0.28626 -0.26044,-0.25163 -0.17666,0.0346 -0.25911,-0.0988 -0.18322,-0.29661 0.0759,-0.19778 -0.0418,-0.53936 -0.26151,-0.75908 -0.21972,-0.21972 -0.32903,-0.46996 -0.2429,-0.55608 0.16786,-0.16787 -0.94273,-1.72541 -1.79936,-2.52348 -0.28629,-0.26671 -0.58645,-0.94784 -0.66704,-1.51362 -0.31594,-2.21815 -2.32758,-7.10594 -2.80349,-6.8118 -0.16371,0.10117 -0.20925,0.0532 -0.10685,-0.11245 0.0982,-0.15883 -0.15133,-0.96503 -0.55443,-1.79156 l -0.73291,-1.50277 -2.11667,0.17257 c -1.16416,0.0949 -2.51718,0.31623 -3.00671,0.49181 l -0.89005,0.31925 0.14608,2.78609 c 0.0803,1.53235 0.28087,3.14064 0.44563,3.57397 0.16475,0.43333 0.27106,0.78787 0.23623,0.78787 -0.22238,0 1.06464,4.37052 1.86993,6.35 1.55776,3.8291 1.9381,4.61339 2.16826,4.47114 0.11939,-0.0738 0.42637,3.4e-4 0.68218,0.16473 0.41371,0.26584 0.41543,0.28354 0.0156,0.16008 -0.3139,-0.0969 -0.40515,-0.0231 -0.30242,0.24461 0.0809,0.21087 0.30879,0.3834 0.50639,0.3834 0.19759,0 0.48727,0.2392 0.64373,0.53155 0.21263,0.3973 0.44886,0.49029 0.93535,0.36819 0.38968,-0.0978 0.65087,-0.049 0.65087,0.12161 0,0.16179 -0.20012,0.20918 -0.46302,0.10963 -0.42193,-0.15977 -0.4198,-0.13175 0.024,0.3158 0.36847,0.37156 0.53663,0.41087 0.69078,0.16145 0.15218,-0.24624 0.24655,-0.21814 0.37286,0.11102 0.25661,0.66869 0.19749,1.11658 -0.0878,0.66534 -0.19711,-0.31177 -0.23984,-0.27434 -0.20561,0.1801 0.0238,0.31551 0.13756,0.51534 0.25288,0.44407 0.11531,-0.0713 0.20965,0.29915 0.20965,0.82315 0,0.57081 0.20184,1.16936 0.50352,1.49317 0.48177,0.51713 0.51518,0.5196 0.7739,0.0573 0.14872,-0.26574 0.35499,-0.39858 0.45837,-0.29519 0.10339,0.10338 -0.0198,0.50505 -0.2737,0.89258 -0.32113,0.4901 -0.5222,0.60669 -0.66048,0.38295 -0.30638,-0.49574 -0.4791,0.2052 -0.33692,1.36735 0.10287,0.84091 0.17367,0.9298 0.48925,0.61422 0.20294,-0.20294 0.36898,-0.56882 0.36898,-0.81306 0,-0.2791 0.14244,-0.38943 0.3834,-0.29696 0.25626,0.0983 0.33461,0.02 0.23628,-0.23628 -0.0809,-0.21087 -0.009,-0.3834 0.15926,-0.3834 0.16852,0 0.49253,-0.44648 0.72004,-0.99218 0.2275,-0.54571 0.62424,-1.28985 0.88164,-1.65365 0.25741,-0.3638 0.51327,-0.89937 0.56858,-1.19015 0.0603,-0.31714 0.3109,-0.52888 0.62621,-0.52917 0.37658,-3.4e-4 0.54937,-0.20679 0.60935,-0.72808 0.0479,-0.41645 0.24593,-0.7276 0.46302,-0.7276 0.20862,0 0.3793,-0.17859 0.3793,-0.39688 0,-0.28663 0.29399,-0.39687 1.05834,-0.39687 h 1.05833 v 1.05833 c 0,0.76435 0.11024,1.05834 0.39688,1.05834 0.34048,0 0.39687,0.80889 0.39687,5.69258 v 5.69258 l -15.07079,-0.0124 c -8.62249,-0.007 -15.133716,-0.11419 -15.217856,-0.25034 z m -23.391074,-55.77087 -0.03069,-9.59115 9.458854,0.004 9.458854,0.004 -0.839197,0.72338 c -0.461559,0.39786 -1.762747,1.49729 -2.891529,2.44317 -1.128782,0.94589 -2.511916,2.16628 -3.073631,2.71198 -0.561715,0.5457 -1.127738,0.99219 -1.257829,0.99219 -0.130091,0 -0.306057,0.21906 -0.391035,0.4868 -0.08498,0.26774 -0.450189,0.64505 -0.81158,0.83846 -0.36139,0.19341 -0.657074,0.45424 -0.657074,0.57961 0,0.12538 -0.416718,0.59385 -0.926041,1.04104 -0.993914,0.87266 -1.16439,1.28742 -0.529167,1.28742 0.218281,0 0.396875,-0.17859 0.396875,-0.39687 0,-0.21828 0.182331,-0.39688 0.405179,-0.39688 0.222848,0 0.48061,-0.20836 0.572804,-0.46302 0.20615,-0.56944 3.835757,-4.10111 6.165767,-5.99941 0.945885,-0.77063 2.293841,-1.95356 2.995457,-2.62873 l 1.275666,-1.22759 9.175369,0.006 9.17538,0.006 -3.43958,1.73122 c -3.96581,1.99608 -10.660555,5.75054 -10.980209,6.15778 -0.07276,0.0927 -0.578776,0.39565 -1.124479,0.67323 -0.545703,0.27757 -0.992188,0.605 -0.992188,0.7276 0,0.12261 -0.172459,0.22292 -0.383243,0.22292 -0.210784,0 -0.716799,0.31192 -1.124479,0.69316 -0.40768,0.38124 -1.157955,1.00564 -1.667278,1.38756 -0.509323,0.38192 -1.007316,0.80818 -1.106652,0.94726 -0.09934,0.13907 -0.623211,0.25286 -1.164167,0.25286 -0.540955,0 -0.846634,0.0456 -0.679285,0.10142 0.485163,0.16172 0.351734,0.85108 -0.164731,0.85108 -0.257951,0 -0.880338,0.47625 -1.383081,1.05833 -0.502743,0.58208 -1.136277,1.05833 -1.407851,1.05833 -0.271575,0 -0.556044,0.23813 -0.632153,0.52917 -0.07611,0.29104 -0.303087,0.52917 -0.504396,0.52917 -0.201309,0 -0.366017,0.17859 -0.366017,0.39687 0,0.21828 -0.164015,0.39688 -0.364478,0.39688 -0.200463,0 -0.512698,-0.1786 -0.693855,-0.39688 -0.181157,-0.21828 -0.493392,-0.39687 -0.693855,-0.39687 -0.564413,0 -0.494589,-2.05246 0.0736,-2.16342 0.407714,-0.0796 0.407714,-0.11071 0,-0.44867 -0.376917,-0.31243 -0.438077,-0.30319 -0.438077,0.0661 0,0.58807 -1.673096,0.57734 -2.365092,-0.0152 -0.49288,-0.42202 -0.496828,-0.48207 -0.07827,-1.19063 0.242433,-0.4104 0.534179,-0.74619 0.648325,-0.74619 0.114145,0 0.207537,-0.23813 0.207537,-0.52917 0,-0.29104 -0.06354,-0.52917 -0.141209,-0.52917 -0.332631,0 -4.287329,4.53843 -4.549081,5.22054 -0.07085,0.18465 -0.29468,0.33572 -0.497393,0.33572 -0.202712,0 -0.368567,0.2301 -0.368567,0.51133 0,0.28124 -0.230472,0.58449 -0.512161,0.67389 -0.281688,0.0894 -0.565533,0.36532 -0.630766,0.61314 -0.06523,0.24783 -0.132417,-3.86542 -0.149298,-9.14055 z m 22.601495,-0.4652 c 0.430891,-0.35214 0.932266,-0.64453 1.114167,-0.64977 0.181901,-0.005 0.330729,-0.11469 0.330729,-0.24324 0,-0.25359 0.876231,-0.5865 1.715061,-0.65161 0.29463,-0.0229 0.56891,-0.27258 0.62592,-0.56987 0.13468,-0.70226 0.55879,-0.93879 1.3343,-0.74415 0.40794,0.10238 0.57577,0.0608 0.46674,-0.11558 -0.1873,-0.30306 0.42857,-0.62565 0.95121,-0.49825 0.1819,0.0443 0.24143,0.0307 0.13229,-0.0303 -0.32574,-0.18217 -0.22463,-0.62264 0.13229,-0.5763 0.66809,0.0868 0.99219,-0.0277 0.99224,-0.35047 3e-5,-0.18191 0.76934,-0.68792 1.70959,-1.12448 0.94024,-0.43657 1.71412,-0.94258 1.71974,-1.12448 0.006,-0.1819 0.21856,-0.33252 0.47322,-0.33472 0.64219,-0.006 2.89881,-0.87307 4.8912,-1.8804 0.25269,-0.12775 3.61621,-0.23228 7.47448,-0.23228 h 7.01505 v 4.90023 4.90022 l -15.93083,-0.0171 -15.930834,-0.0171 z"
         id="path257" /><path
         style="fill:#9db4d4"
         d="m 99.762226,174.02969 c 0.271264,-0.32742 1.447944,-1.57758 2.614854,-2.77813 1.3681,-1.40754 1.96106,-2.18281 1.66951,-2.18281 -0.27891,0 -0.5121,-0.27877 -0.60866,-0.7276 -0.0861,-0.40019 -0.32377,-1.14433 -0.5282,-1.65365 -0.20442,-0.50932 -0.51024,-1.52135 -0.67958,-2.24896 -0.16935,-0.7276 -1.07929,-2.87073 -2.02208,-4.7625 -1.424996,-2.85932 -1.998958,-3.71748 -3.402271,-5.08685 -0.928451,-0.90599 -1.688093,-1.76144 -1.688093,-1.901 0,-0.13956 -0.127228,-0.58838 -0.282729,-0.99738 -0.273474,-0.71929 -0.317513,-0.66139 -1.345299,1.76872 -0.584413,1.38179 -1.366169,3.26797 -1.737235,4.19152 -0.705961,1.75707 -1.711446,2.68345 -2.914783,2.68546 -1.204999,0.002 -2.701845,-4.09849 -3.283475,-8.99484 -0.234192,-1.97152 -0.476191,-2.82735 -1.122217,-3.96875 -0.78361,-1.38449 -0.822437,-1.59022 -0.798955,-4.23334 0.02986,-3.36049 0.602352,-6.08541 1.278524,-6.08541 0.804894,0 2.004086,2.07829 2.004086,3.47324 0,0.36368 0.12601,0.50377 0.369203,0.41044 0.585165,-0.22455 1.042291,3.48714 0.674101,5.47344 -0.295399,1.5936 -0.07099,3.23508 0.690558,5.05113 l 0.328015,0.78221 0.777776,-1.71535 c 0.427777,-0.94344 0.861237,-2.42547 0.963245,-3.2934 0.285672,-2.43062 1.215189,-4.19904 2.703071,-5.14262 0.68642,-0.43532 1.617698,-0.91348 2.069507,-1.06259 1.120707,-0.36987 1.529891,-1.06113 1.116878,-1.88681 -0.282803,-0.56538 -0.463785,-0.62492 -1.661549,-0.54668 l -1.344176,0.0878 -0.829773,-1.34855 c -0.456375,-0.74171 -0.829773,-1.46878 -0.829773,-1.61571 0,-0.14694 -0.30976,-0.38493 -0.688355,-0.52887 -0.515173,-0.19587 -0.639745,-0.37728 -0.495142,-0.72106 0.37677,-0.89573 0.435767,-1.5903 0.150079,-1.76686 -0.386255,-0.23872 -0.366735,-2.04586 0.04123,-3.81693 0.468204,-2.0326 1.733227,-3.38207 3.638021,-3.88089 0.800365,-0.2096 1.663568,-0.3825 1.918229,-0.38423 0.254662,-0.002 0.688553,-0.22867 0.964203,-0.50432 0.275651,-0.27565 0.978814,-0.58188 1.562586,-0.68051 0.87614,-0.14802 1.250483,-0.06 2.144653,0.5045 0.59578,0.37611 1.08325,0.86795 1.08325,1.093 0,0.22504 0.0922,0.35221 0.20478,0.2826 0.41263,-0.25502 0.19224,2.19299 -0.23598,2.62119 -0.30909,0.30908 -0.39293,0.73976 -0.30167,1.5495 0.0781,0.69271 -0.088,1.903 -0.43444,3.16575 -0.82446,3.00519 -0.31007,3.67311 3.1872,4.13851 1.98325,0.26392 2.39624,0.24791 3.10876,-0.12055 1.37692,-0.71203 3.32524,-0.95912 5.26975,-0.66833 0.97312,0.14553 2.64084,0.39416 3.70606,0.55251 2.16017,0.32112 2.98956,0.90631 3.81865,2.69431 1.12713,2.43074 2.15253,6.39285 2.47572,9.56604 0.14494,1.42306 0.32894,1.98157 0.81195,2.46458 1.08504,1.08504 1.46606,1.87406 1.57433,3.26014 0.0579,0.74061 0.22927,1.57843 0.38094,1.86183 0.31869,0.59548 0.0924,1.55383 -0.3667,1.55314 -0.2977,-4.5e-4 -1.24231,-1.3884 -2.03382,-2.98839 -0.20132,-0.40694 -0.75016,-1.18866 -1.21964,-1.73715 -0.47426,-0.55406 -0.93811,-1.45987 -1.04375,-2.03823 -0.37939,-2.07718 -3.42639,-9.13642 -4.28753,-9.93326 -0.2447,-0.22644 -4.44226,0.37404 -5.42034,0.7754 -0.84116,0.34518 -0.87106,0.61086 -0.45269,4.02279 0.36607,2.98548 1.34501,6.6549 2.68042,10.04723 1.35037,3.43031 1.50123,3.67255 3.67944,5.9079 1.10213,1.13105 1.86585,2.17014 2.0419,2.77813 0.52143,1.80084 0.8928,5.10991 0.71696,6.38843 -0.13858,1.00759 -0.06,1.49428 0.38062,2.35801 l 0.55525,1.08836 h -10.8943 -10.894305 z m -24.475797,-60.08177 -0.02659,-4.93959 h 3.049769 c 1.677373,0 3.047658,0.0893 3.045077,0.19844 -0.0026,0.10914 -0.594823,1.03187 -1.316095,2.05052 -0.721271,1.01865 -1.610017,2.4095 -1.974989,3.0908 -0.364973,0.68129 -1.133159,1.98137 -1.70708,2.88906 l -1.043493,1.65035 z m 10.041694,1.70585 c 0,-0.12854 0.26789,-0.30714 0.595312,-0.39686 1.004558,-0.2753 0.06253,-0.62586 -2.226235,-0.82846 -2.226084,-0.19706 -2.220606,-0.1921 -2.086907,-1.88912 0.0247,-0.31352 -0.06398,-0.63734 -0.197076,-0.7196 -0.133092,-0.0823 -0.188991,0.12767 -0.12422,0.4665 0.131399,0.68737 -0.615671,1.16897 -1.085117,0.69953 -0.187954,-0.18796 -0.135437,-0.27326 0.168231,-0.27326 0.280353,0 0.386843,-0.1424 0.291769,-0.39016 -0.155786,-0.40597 0.722707,-2.01831 1.550985,-2.84658 0.435399,-0.4354 0.973182,-0.47157 6.044802,-0.40653 l 5.566883,0.0714 -1.272651,0.97334 c -0.699958,0.53534 -1.535564,1.21995 -1.856901,1.52136 -0.321337,0.3014 -0.707281,0.54801 -0.857654,0.54801 -0.150372,0 -0.422116,0.23813 -0.603874,0.52917 -0.181759,0.29104 -0.539955,0.52916 -0.795992,0.52916 -0.256037,0 -0.435756,0.10666 -0.399376,0.23702 0.07373,0.26418 -2.144451,2.40882 -2.49142,2.40882 -0.121308,0 -0.220559,-0.10518 -0.220559,-0.23373 z"
         id="path256" /><path
         style="fill:#66cadb"
         d="m 99.897428,174.16198 c 0.190632,-0.25466 1.363582,-1.50482 2.606572,-2.77813 1.83829,-1.88314 2.15086,-2.3151 1.67521,-2.3151 -0.42358,0 -0.6279,-0.20055 -0.74128,-0.7276 -0.0861,-0.40019 -0.32377,-1.14433 -0.5282,-1.65365 -0.20442,-0.50932 -0.51024,-1.52135 -0.67958,-2.24896 -0.16935,-0.7276 -1.07929,-2.87073 -2.02208,-4.7625 -1.424996,-2.85932 -1.998958,-3.71748 -3.402271,-5.08685 -0.928451,-0.90599 -1.688093,-1.76144 -1.688093,-1.901 0,-0.13956 -0.125906,-0.5849 -0.27979,-0.98964 -0.278548,-0.73264 -0.28279,-0.7289 -0.955998,0.84267 -0.371915,0.86821 -0.891552,1.99529 -1.15475,2.50461 -0.263197,0.50933 -0.727184,1.59104 -1.031081,2.40382 -0.64722,1.73099 -1.493991,2.62411 -2.560537,2.70066 -0.693911,0.0498 -0.845167,-0.10517 -1.633541,-1.67382 -0.908646,-1.80795 -1.899815,-5.90547 -1.905827,-7.87874 -0.0023,-0.76434 -0.3149,-1.77946 -0.947187,-3.07614 -0.937739,-1.92308 -0.94286,-1.9527 -0.809171,-4.68003 0.074,-1.50959 0.186411,-3.10189 0.249809,-3.53846 0.136919,-0.94282 0.632003,-2.24895 0.85246,-2.24895 0.413701,0 1.17978,0.58772 1.17978,0.9051 0,0.19653 0.17786,0.69836 0.395245,1.11517 0.217384,0.41682 0.395978,1.09985 0.396875,1.51785 0.0013,0.61493 0.0711,0.70234 0.365586,0.45795 0.300001,-0.24898 0.415637,0.0454 0.658054,1.6753 0.287245,1.93131 0.163482,4.27297 -0.238984,4.52171 -0.209833,0.12969 0.500316,3.11286 1.069156,4.49129 0.22643,0.54869 0.368612,0.67122 0.46053,0.39688 0.07313,-0.21829 0.460885,-1.17079 0.861668,-2.11667 0.400784,-0.94589 0.805081,-2.41321 0.898438,-3.26073 0.30203,-2.74188 1.464279,-4.29171 4.117784,-5.49094 0.733919,-0.33169 1.334397,-0.70794 1.334397,-0.83611 0,-0.12817 0.119063,-0.15945 0.264584,-0.0695 0.35518,0.21951 0.337307,-0.82495 -0.02573,-1.50328 -0.250464,-0.468 -0.459266,-0.52061 -1.521354,-0.38338 -1.59016,0.20547 -1.899623,-0.0389 -2.85878,-2.25784 -0.230494,-0.53322 -0.654418,-1.03103 -0.942052,-1.10625 -0.431441,-0.11282 -0.491795,-0.27871 -0.344834,-0.94782 0.09798,-0.44608 0.04305,-1.22038 -0.122057,-1.72066 -0.604152,-1.8306 0.546932,-5.67063 1.981608,-6.61066 0.862257,-0.56498 2.928535,-1.20614 3.89934,-1.20996 0.400183,-0.002 0.727605,-0.0999 0.727605,-0.21844 0,-0.2648 1.721989,-1.10734 2.263192,-1.10734 0.216236,0 0.844356,0.28483 1.395816,0.63295 0.71576,0.45184 1.09278,0.93378 1.31766,1.68434 0.42678,1.42448 0.41772,1.47531 -0.4126,2.31593 -0.48075,0.48671 -0.6154,0.77572 -0.39688,0.85188 0.65537,0.22838 0.0561,4.26388 -0.78648,5.29605 -0.193,0.23643 -0.0542,0.61183 0.4891,1.32292 0.41721,0.54604 0.73644,1.06042 0.7094,1.14306 -0.027,0.0826 0.31771,0.0964 0.76611,0.0306 0.4484,-0.0658 0.75116,-0.0144 0.67281,0.11433 -0.2316,0.38039 3.82513,0.26587 4.6975,-0.13261 1.45535,-0.66477 2.85309,-0.81493 4.89479,-0.52586 5.51382,0.78068 5.57413,0.7952 6.30239,1.51737 1.52764,1.51489 3.1725,6.59538 3.64853,11.2693 0.14494,1.42306 0.32894,1.98157 0.81195,2.46458 1.07094,1.07095 1.46516,1.86843 1.56684,3.1697 0.054,0.6913 0.23615,1.59097 0.40474,1.99925 0.21899,0.53032 0.22514,0.82371 0.0215,1.02731 -0.48699,0.48699 -1.02921,0.0445 -1.74941,-1.42749 -0.38116,-0.77906 -1.1681,-1.99138 -1.74875,-2.69406 -0.58065,-0.70267 -1.05574,-1.54142 -1.05574,-1.86389 0,-1.62879 -3.89896,-10.46857 -4.61737,-10.46857 -1.12045,0 -4.88877,0.6502 -5.45981,0.94206 -0.67491,0.34495 -0.68109,0.37499 -0.4429,2.15128 0.13286,0.9908 0.19453,2.12258 0.13703,2.51508 -0.0575,0.3925 -0.0325,0.66912 0.0555,0.61471 0.18021,-0.11137 0.87913,3.05558 0.91289,4.1365 0.0121,0.38628 0.0888,0.66099 0.17059,0.61046 0.23969,-0.14813 1.06534,2.80096 0.87184,3.11405 -0.1,0.16175 -0.0533,0.20913 0.10793,0.10951 0.16832,-0.10403 0.4147,0.22982 0.60444,0.81901 0.71322,2.21477 1.91311,4.17449 3.62203,5.91569 0.97661,0.99506 1.94609,2.25942 2.1544,2.80969 0.2436,0.64351 0.39951,2.23352 0.43694,4.45617 0.0435,2.58118 0.1669,3.66589 0.48775,4.28634 0.23626,0.45687 0.42956,0.89611 0.42956,0.9761 0,0.08 -4.77708,0.14543 -10.61573,0.14543 -10.06587,0 -10.597783,-0.024 -10.269136,-0.46302 z"
         id="path255" /><path
         style="fill:#b7fb3d"
         d="m 99.897428,174.16198 c 0.190632,-0.25466 1.363582,-1.50482 2.606572,-2.77813 1.83829,-1.88314 2.15086,-2.3151 1.67521,-2.3151 -0.42358,0 -0.6279,-0.20055 -0.74128,-0.7276 -0.0861,-0.40019 -0.32377,-1.14433 -0.5282,-1.65365 -0.20442,-0.50932 -0.51024,-1.52135 -0.67958,-2.24896 -0.16935,-0.7276 -1.07929,-2.87073 -2.02208,-4.7625 -1.409122,-2.82747 -2.005735,-3.72409 -3.352503,-5.03829 -1.250148,-1.21991 -1.721894,-1.89718 -1.991028,-2.85843 l -0.352702,-1.25973 -0.855552,2.19698 c -2.412093,6.19402 -3.100598,7.32931 -4.507104,7.43188 -0.711107,0.0519 -0.853409,-0.0926 -1.647172,-1.67196 -0.908646,-1.80795 -1.899815,-5.90547 -1.905827,-7.87874 -0.0023,-0.76434 -0.3149,-1.77946 -0.947187,-3.07614 -0.937739,-1.92308 -0.94286,-1.9527 -0.809171,-4.68003 0.198499,-4.04952 0.493885,-5.52283 1.107279,-5.52283 0.544965,0 1.126976,1.01435 1.475437,2.57143 0.20664,0.92337 0.431194,1.37615 0.64231,1.29514 0.54334,-0.2085 1.007289,3.7787 0.643559,5.53078 -0.299141,1.44095 -0.06007,3.0592 0.77364,5.2368 0.261399,0.68275 0.814824,0.78131 0.814824,0.1451 0,-0.14892 0.342411,-1.06463 0.760914,-2.0349 0.418502,-0.97028 0.837297,-2.45756 0.930654,-3.30508 0.30073,-2.73009 1.287222,-4.07283 3.930827,-5.35036 0.836745,-0.40435 1.521354,-0.84196 1.521354,-0.97246 0,-0.13049 0.119063,-0.16368 0.264584,-0.0737 0.35518,0.21951 0.337307,-0.82495 -0.02573,-1.50328 -0.250464,-0.468 -0.459266,-0.52061 -1.521354,-0.38338 -1.59016,0.20547 -1.899623,-0.0389 -2.85878,-2.25784 -0.230494,-0.53322 -0.654418,-1.03103 -0.942052,-1.10625 -0.431441,-0.11282 -0.491795,-0.27871 -0.344834,-0.94782 0.09798,-0.44608 0.04305,-1.22038 -0.122057,-1.72066 -0.585568,-1.77429 0.544811,-5.67678 1.896957,-6.54899 0.705958,-0.45539 2.78079,-1.00991 3.778729,-1.00991 0.37669,0 0.749241,-0.16769 0.82789,-0.37265 0.214411,-0.55874 1.557887,-1.02275 2.402605,-0.82979 1.03189,0.2357 1.87546,0.99363 2.338,2.10064 0.49972,1.196 0.49285,1.60844 -0.0356,2.13687 -0.29821,0.2982 -0.44732,1.00231 -0.49427,2.334 -0.037,1.04884 -0.27064,2.48542 -0.51923,3.19241 -0.71117,2.02248 0.0537,3.30276 2.09649,3.509 0.43959,0.0444 1.39456,0.14716 2.12216,0.22839 0.95418,0.10653 1.69166,0.006 2.64584,-0.35923 2.0538,-0.787 3.36406,-0.78803 8.31062,-0.007 2.32182,0.36683 3.08543,0.82457 3.82735,2.29431 1.05352,2.08701 2.21338,6.1266 2.56216,8.9236 0.29664,2.3789 0.42825,2.77931 1.3045,3.96875 0.67654,0.91836 1.06542,1.8084 1.27164,2.91042 0.16338,0.87313 0.37844,1.8674 0.47792,2.2095 0.14812,0.50941 0.0926,0.605 -0.30672,0.5281 -0.27408,-0.0528 -0.81799,-0.73064 -1.24214,-1.54804 -0.41501,-0.79978 -1.22465,-2.03572 -1.79922,-2.74653 -0.57456,-0.71082 -1.04466,-1.55317 -1.04466,-1.87189 0,-1.62306 -3.90102,-10.46176 -4.61737,-10.46176 -1.18747,0 -4.9067,0.65944 -5.53633,0.98163 l -0.76099,0.38941 0.17331,2.15875 c 0.25035,3.11842 0.39817,3.95755 1.24246,7.05354 0.77258,2.83297 2.52162,7.40253 3.27137,8.5468 0.2286,0.34888 1.17296,1.39631 2.09857,2.32762 2.10765,2.1206 2.63804,3.60443 2.6859,7.51412 0.0233,1.9025 0.15623,2.88373 0.47316,3.49259 0.24242,0.46572 0.44076,0.9122 0.44076,0.99219 0,0.08 -4.77708,0.14543 -10.61573,0.14543 -10.06587,0 -10.597783,-0.024 -10.269136,-0.46302 z"
         id="path254" /><path
         style="fill:#4c0f89"
         d="m 100.10831,173.8974 c 0.91343,-1.25703 6.42013,-6.54576 8.76773,-8.42069 2.52758,-2.01866 4.82672,-3.55951 6.09532,-4.08498 0.84795,-0.35123 0.85865,-0.34574 2.36752,1.21539 1.93146,1.99837 2.48324,3.6099 2.52949,7.38767 0.0233,1.9025 0.15623,2.88373 0.47316,3.49259 0.24242,0.46572 0.44076,0.9122 0.44076,0.99219 0,0.08 -4.77061,0.14543 -10.60135,0.14543 H 99.579589 Z M 88.141337,159.7655 c -1.232302,-1.88445 -2.537286,-6.58506 -2.545155,-9.16775 -0.0023,-0.76434 -0.3149,-1.77946 -0.947187,-3.07614 -0.937739,-1.92308 -0.94286,-1.9527 -0.809171,-4.68003 0.198499,-4.04952 0.493885,-5.52283 1.107279,-5.52283 0.544965,0 1.126976,1.01435 1.475437,2.57143 0.20664,0.92337 0.431194,1.37615 0.64231,1.29514 0.54334,-0.2085 1.007289,3.7787 0.643559,5.53078 -0.299141,1.44095 -0.06007,3.0592 0.77364,5.2368 0.261399,0.68275 0.814824,0.78131 0.814824,0.1451 0,-0.14892 0.342411,-1.06463 0.760914,-2.0349 0.418502,-0.97028 0.837467,-2.45901 0.931031,-3.30828 0.181858,-1.65072 0.671206,-2.83954 1.580149,-3.83881 0.55413,-0.6092 1.986929,-1.48565 2.153491,-1.31729 0.04661,0.0471 -0.0188,0.62144 -0.145356,1.27628 -0.126555,0.65484 -0.237289,2.79797 -0.246074,4.7625 -0.01537,3.43614 -0.04964,3.65231 -0.901881,5.68854 -0.487249,1.16417 -1.208867,2.89057 -1.603596,3.83646 -0.80681,1.93335 -1.535866,2.79736 -2.573447,3.04981 -0.558488,0.13588 -0.790854,0.0424 -1.110767,-0.44681 z m 36.223983,-3.22156 c -0.36994,-0.63125 -0.67262,-1.24427 -0.67262,-1.36228 0,-0.118 -0.53578,-0.86536 -1.19062,-1.66079 -0.65484,-0.79544 -1.19063,-1.70937 -1.19063,-2.03097 0,-1.62745 -3.89944,-10.46698 -4.61737,-10.46698 -1.17501,0 -4.9033,0.65769 -5.52168,0.97405 -0.68631,0.35112 -0.74069,0.48843 -0.67601,1.70691 0.0825,1.55389 -0.17227,1.80698 -1.8247,1.8129 -0.95749,0.003 -1.30948,-0.16102 -2.30119,-1.07516 -1.47951,-1.36375 -2.08993,-2.9195 -2.10962,-5.3766 l -0.0151,-1.87856 1.15368,0.0742 c 0.66568,0.0428 1.72889,-0.14081 2.51354,-0.43416 2.11286,-0.78989 3.40189,-0.79145 8.34757,-0.0101 2.32182,0.36683 3.08543,0.82457 3.82735,2.29431 1.05352,2.08701 2.21338,6.1266 2.56216,8.9236 0.29664,2.3789 0.42825,2.77931 1.3045,3.96875 0.67654,0.91836 1.06542,1.8084 1.27164,2.91042 0.16338,0.87313 0.3753,1.85539 0.47094,2.18281 0.31064,1.06356 -0.60822,0.68245 -1.33189,-0.55241 z m -27.296308,-9.35876 c -1.188739,-1.00159 -1.446194,-1.72448 -1.165989,-3.27387 0.142554,-0.78825 0.463181,-2.05129 0.712504,-2.80676 0.37338,-1.13137 0.396287,-1.49874 0.129909,-2.08337 -0.30226,-0.66339 -0.404978,-0.69926 -1.570881,-0.54856 -1.608038,0.20786 -1.914109,-0.0323 -2.875209,-2.25566 -0.230494,-0.53322 -0.654418,-1.03103 -0.942052,-1.10625 -0.431441,-0.11282 -0.491795,-0.27871 -0.344834,-0.94782 0.09798,-0.44608 0.04305,-1.22038 -0.122057,-1.72066 -0.585568,-1.77429 0.544811,-5.67678 1.896957,-6.54899 0.705958,-0.45539 2.78079,-1.00991 3.778729,-1.00991 0.37669,0 0.749241,-0.16769 0.82789,-0.37265 0.214411,-0.55874 1.557887,-1.02275 2.402605,-0.82979 1.031886,0.2357 1.875456,0.99363 2.337996,2.10064 0.50061,1.19812 0.49292,1.60838 -0.0401,2.14145 -0.30214,0.30214 -0.44452,0.96258 -0.47464,2.20171 -0.0237,0.97356 -0.25745,2.43879 -0.51952,3.25607 -0.43923,1.36977 -0.44372,1.54935 -0.0574,2.29636 0.23048,0.44571 0.65849,0.88637 0.95113,0.97925 0.49727,0.15783 0.53207,0.39496 0.53207,3.62607 0,3.99828 -0.26849,5.14651 -1.47735,6.31819 -1.09557,1.06186 -3.069132,1.35175 -3.979678,0.58455 z"
         id="path253" /></g></g></svg>
