<?xml version="1.0" encoding="UTF-8" standalone="no"?>
<!-- Created with Inkscape (http://www.inkscape.org/) -->

<svg
   width="53.710407mm"
   height="65.623634mm"
   viewBox="0 0 53.710407 65.623634"
   version="1.1"
   id="svg1"
   inkscape:export-filename="sprint.svg"
   inkscape:export-xdpi="96"
   inkscape:export-ydpi="96"
   xml:space="preserve"
   xmlns:inkscape="http://www.inkscape.org/namespaces/inkscape"
   xmlns:sodipodi="http://sodipodi.sourceforge.net/DTD/sodipodi-0.dtd"
   xmlns="http://www.w3.org/2000/svg"
   xmlns:svg="http://www.w3.org/2000/svg"><sodipodi:namedview
     id="namedview1"
     pagecolor="#ffffff"
     bordercolor="#000000"
     borderopacity="0.25"
     inkscape:showpageshadow="2"
     inkscape:pageopacity="0.0"
     inkscape:pagecheckerboard="0"
     inkscape:deskcolor="#d1d1d1"
     inkscape:document-units="mm"><inkscape:page
       x="0"
       y="0"
       width="53.710407"
       height="65.623634"
       id="page2"
       margin="0"
       bleed="0" /></sodipodi:namedview><defs
     id="defs1" /><g
     inkscape:label="Calque 1"
     inkscape:groupmode="layer"
     id="layer1"
     transform="translate(-104.63668,-128.59647)"><g
       id="g259"
       transform="translate(27.510629,21.440208)"><path
         style="fill:#d3e6f4"
         d="m 77.126045,139.96458 v -32.80833 h 26.855205 26.85521 v 32.80833 32.80834 H 103.98125 77.126045 Z"
         id="path265" /><path
         style="fill:#c5daeb"
         d="m 89.693753,171.62932 c 3.494015,-1.34997 4.357481,-1.7324 8.170901,-3.6189 2.701606,-1.33649 2.947166,-1.51997 3.009836,-2.24896 0.0375,-0.43656 0.30214,-1.98437 0.58803,-3.43958 0.42927,-2.18504 0.48627,-3.17576 0.3273,-5.68855 -0.15811,-2.49911 -0.26316,-3.02695 -0.58803,-2.95451 -0.21755,0.0485 -0.313,0.006 -0.21213,-0.0952 0.10087,-0.10088 -0.12983,-0.67634 -0.51267,-1.27882 -0.38284,-0.60248 -0.697545,-1.47877 -0.699343,-1.94731 -0.0037,-0.97339 -0.663061,-1.42947 -0.878043,-0.60738 -0.07584,0.29001 -0.243413,0.46206 -0.37239,0.38235 -0.128977,-0.0797 -0.249386,-0.0188 -0.267576,0.13527 -0.08004,0.67814 -0.109564,0.77561 -0.289359,0.95541 -0.104577,0.10457 -0.140551,-0.0674 -0.07994,-0.38207 0.105713,-0.54892 0.06896,-0.54257 -0.903129,0.15618 -0.557329,0.40062 -0.987353,0.85036 -0.955608,0.99943 0.03175,0.14907 0.0078,0.18174 -0.05326,0.0726 -0.180148,-0.32212 -0.722798,-0.22833 -1.27308,0.22004 -0.365908,0.29814 -0.39313,0.38148 -0.09467,0.28981 0.245823,-0.0755 0.418924,0.0265 0.418924,0.24682 0,0.25243 -0.169826,0.32158 -0.518203,0.21101 -0.37848,-0.12013 -0.470941,-0.0677 -0.342917,0.1946 0.09641,0.19749 0.03399,0.16872 -0.138712,-0.0639 -0.283785,-0.38231 -0.391888,-0.38416 -1.123472,-0.0192 -1.030457,0.51406 -4.785482,0.76143 -5.050444,0.33272 -0.234339,-0.37917 -0.75892,-5.18496 -0.787039,-7.21021 -0.0146,-1.05164 -0.107019,-1.42731 -0.309738,-1.25907 -0.15891,0.13189 -0.337578,0.19114 -0.397041,0.13168 -0.05946,-0.0595 -0.08903,0.44758 -0.0657,1.12677 l 0.04241,1.23489 -0.174536,-1.19063 c -0.17322,-1.18165 -0.182531,-1.19071 -1.235661,-1.202 -0.583619,-0.006 -1.201158,-0.0979 -1.372308,-0.20369 -0.470179,-0.29059 -1.129965,-1.74812 -0.974602,-2.15299 0.07525,-0.1961 0.0096,-0.43514 -0.145802,-0.53121 -0.508593,-0.31433 -0.296899,-1.13156 0.413734,-1.59718 0.484977,-0.31777 0.598714,-0.51662 0.37469,-0.65507 -0.234329,-0.14482 -0.20201,-0.24471 0.119036,-0.36791 0.60731,-0.23305 0.720175,-0.21271 0.529711,0.0955 -0.08994,0.14552 -0.05017,0.26458 0.08837,0.26458 0.13854,0 0.315717,-0.16632 0.393727,-0.36961 0.09137,-0.2381 -0.084,-0.41279 -0.492853,-0.49095 -0.349078,-0.0667 -0.579443,-0.0319 -0.511922,0.0773 0.06752,0.10925 -0.06488,0.27065 -0.29423,0.35866 -0.576285,0.22114 -0.648046,0.20387 -0.572153,-0.13765 0.03638,-0.16371 -0.09926,-0.35775 -0.301413,-0.4312 -0.206904,-0.0752 -0.294302,-0.015 -0.199957,0.13765 0.09218,0.14915 -0.0025,0.33647 -0.210483,0.41626 -0.22388,0.0859 -0.368522,0.48139 -0.354639,0.96965 0.01532,0.53896 0.09822,0.70451 0.239338,0.47795 0.120756,-0.19387 0.158346,0.17806 0.0853,0.84402 -0.0902,0.8224 -0.05127,1.07025 0.12588,0.80141 0.141058,-0.21407 0.344303,-0.30138 0.451655,-0.19403 0.282875,0.28288 -0.329237,0.80965 -0.685186,0.58967 -0.165163,-0.10208 -0.264834,-0.44294 -0.221491,-0.75747 0.07457,-0.54113 -0.03854,-0.57601 -2.104006,-0.64872 l -2.182813,-0.0769 v -17.18721 -17.18722 h 18.933323 c 12.554841,0 18.878231,0.0891 18.769801,0.26458 -0.0899,0.14552 -0.0374,0.26459 0.11668,0.26459 0.1541,0 0.28019,-0.11907 0.28019,-0.26459 0,-0.17041 2.77813,-0.26458 7.80521,-0.26458 h 7.80521 v 32.80833 32.80834 l -22.02656,-0.01 -22.026562,-0.01 z m 26.421717,-15.12828 c 0.0838,-0.21828 0.0884,-0.56342 0.0103,-0.76698 -0.0781,-0.20357 -0.0162,-0.44787 0.13757,-0.54291 0.1647,-0.10179 0.22022,-0.0181 0.13512,0.20368 -0.0795,0.20706 0.041,0.44763 0.26762,0.5346 0.22664,0.087 0.41208,0.0348 0.41208,-0.11592 0,-0.24895 1.78681,-2.09059 2.02834,-2.09059 0.14386,0 2.46957,-2.34141 2.46957,-2.48623 0,-0.22675 1.62943,-1.74711 1.87244,-1.74711 0.13433,0 0.24423,-0.23812 0.24423,-0.52916 0,-0.2988 0.17639,-0.52917 0.40518,-0.52917 0.22285,0 0.4829,-0.20836 0.57789,-0.46302 0.095,-0.25466 0.38891,-0.6186 0.65315,-0.80875 0.27707,-0.19939 0.48045,-0.67538 0.48045,-1.12448 0,-0.5631 0.12822,-0.78033 0.46302,-0.78448 0.26016,-0.003 0.63689,-0.37994 0.85989,-0.85989 0.21828,-0.46979 0.66477,-0.9717 0.99219,-1.11535 0.46562,-0.20428 0.59531,-0.47808 0.59531,-1.25677 0,-0.70858 -0.11441,-0.99559 -0.39687,-0.99559 -0.21828,0 -0.39688,0.11906 -0.39688,0.26458 0,0.16537 -1.5875,0.26458 -4.23333,0.26458 h -4.23333 l -0.0104,0.72761 c -0.0102,0.71299 -0.0187,0.709 -0.42442,-0.19844 -0.37367,-0.83571 -0.43537,-0.87442 -0.63251,-0.39687 -0.12014,0.29104 -0.22681,0.98347 -0.23703,1.53874 -0.0102,0.55527 -0.14185,1.23988 -0.29249,1.52136 -0.1888,0.35278 -0.1888,0.51177 0,0.51177 0.15064,0 0.27389,-0.13891 0.27389,-0.30868 0,-0.16977 0.0725,-0.23616 0.16116,-0.14752 0.0886,0.0886 -0.09,0.51381 -0.39688,0.94483 -0.36159,0.50781 -0.55816,1.18843 -0.55839,1.93347 -4.9e-4,1.54037 -0.71848,5.54632 -1.05426,5.8821 -0.40176,0.40177 -0.32462,0.6879 0.19472,0.72233 0.41464,0.0275 0.41678,0.0429 0.0205,0.14774 -0.65323,0.17279 -1.37527,2.4674 -0.77641,2.4674 0.12995,0 0.30481,-0.1786 0.38857,-0.39688 z"
         id="path264" /><path
         style="fill:#b6d2e4"
         d="m 100.83456,172.3544 c -0.26242,-0.68386 -0.18272,-5.07411 0.12635,-6.95931 0.15783,-0.96266 0.45286,-2.55694 0.65563,-3.54285 0.37272,-1.81225 0.25698,-8.39391 -0.14761,-8.39391 -0.0999,0 -0.51003,-0.60324 -0.91132,-1.34054 -0.54317,-0.99798 -0.703851,-1.61073 -0.628789,-2.39783 0.07973,-0.83609 0.03821,-0.97165 -0.19849,-0.64794 -0.164624,0.22514 -0.374039,0.33462 -0.465366,0.24329 -0.09133,-0.0913 -0.24112,0.0296 -0.332875,0.2687 -0.09176,0.23911 -0.281095,0.43474 -0.420756,0.43474 -0.139662,0 -0.643757,0.29734 -1.120212,0.66075 -0.476455,0.36341 -1.867496,1.15765 -3.091201,1.76498 -2.023731,1.00438 -2.414328,1.10613 -4.319595,1.12519 l -2.094677,0.021 -0.213604,-0.78765 c -0.117482,-0.43321 -0.24644,-2.42635 -0.286573,-4.4292 -0.06439,-3.21337 -0.125576,-3.64186 -0.520375,-3.64413 -0.246073,-0.001 -0.511362,0.10092 -0.589531,0.2274 -0.314577,0.50899 -3.422716,-0.15723 -3.269843,-0.70089 0.02947,-0.10479 -0.08659,-0.44277 -0.257908,-0.75106 -0.171317,-0.30829 -0.239177,-0.63283 -0.150799,-0.72121 0.08838,-0.0884 0.01482,-0.33644 -0.16346,-0.55126 -0.455426,-0.54875 -0.133086,-1.33594 0.703047,-1.71691 0.577798,-0.26326 0.637954,-0.37163 0.325643,-0.58665 -0.289795,-0.19951 -0.243536,-0.22468 0.18997,-0.10335 0.315175,0.0882 0.649624,0.0365 0.743219,-0.11496 0.09359,-0.15144 0.450881,-0.27534 0.793968,-0.27534 0.343087,0 0.683848,-0.14883 0.757247,-0.33073 0.07972,-0.19758 0.141862,-0.14432 0.15434,0.13229 0.01181,0.26175 0.227913,0.46302 0.497138,0.46302 0.261938,0 0.619125,0.14288 0.79375,0.3175 0.246945,0.24695 0.3175,0.0889 0.3175,-0.71114 0,-0.81481 -0.242082,-1.33677 -1.164595,-2.51098 -1.454456,-1.85129 -1.690329,-2.9948 -0.683646,-3.31431 0.293155,-0.093 0.453352,-0.29805 0.355995,-0.45558 -0.09736,-0.15753 -0.05575,-0.21147 0.09246,-0.11987 0.148213,0.0916 0.768473,-0.0745 1.378355,-0.3692 0.666516,-0.32203 1.327385,-0.4664 1.656618,-0.36191 0.416501,0.13219 0.495936,0.0878 0.331528,-0.18523 -0.179065,-0.29737 -0.139297,-0.29668 0.231449,0.004 0.246216,0.19971 0.447664,0.63917 0.447664,0.97657 0,0.33739 0.105336,0.67854 0.234078,0.75811 0.304728,0.18833 0.529946,1.72579 0.275814,1.88285 -0.265796,0.16427 0.0185,1.17871 0.330332,1.17871 0.137137,0 0.171829,0.12542 0.07709,0.27871 -0.09474,0.15328 -0.09089,0.97964 0.0085,1.83635 0.176914,1.5243 0.194824,1.55231 0.836528,1.30833 1.552834,-0.59038 4.329658,-0.82425 6.147063,-0.5177 1.511243,0.2549 2.069949,0.23462 3.460269,-0.12565 2.30095,-0.59624 3.18236,-1.29301 3.18236,-2.51571 0,-0.72771 -0.19718,-1.14654 -0.81737,-1.73618 -1.01214,-0.96228 -1.35424,-1.6332 -1.94774,-3.81981 -0.50963,-1.87765 -0.85041,-2.46727 -1.2745,-2.20517 -0.16357,0.1011 -0.19588,0.0415 -0.0795,-0.14679 0.10777,-0.17438 0.0698,-0.46911 -0.0845,-0.65495 -0.32447,-0.39096 -0.27228,-2.01887 0.0647,-2.01965 0.12471,-2.9e-4 0.15584,-0.1853 0.0692,-0.41114 -0.0867,-0.22584 -0.0573,-0.34864 0.0653,-0.27288 0.12257,0.0757 0.36024,-0.16377 0.52814,-0.53228 0.17408,-0.38206 0.19201,-0.60001 0.0417,-0.50713 -0.15202,0.094 -0.19712,-0.0102 -0.10658,-0.24621 0.0864,-0.225 0.24417,-0.35521 0.35073,-0.28936 0.10656,0.0659 0.4634,-0.0691 0.79297,-0.29998 0.47946,-0.33582 0.52774,-0.47082 0.24156,-0.67538 -0.27876,-0.19926 -0.26238,-0.22544 0.0742,-0.11866 0.23756,0.0754 0.94487,0.007 1.5718,-0.15232 0.91559,-0.2324 1.03885,-0.3274 0.62642,-0.48279 -0.37985,-0.14311 -0.27248,-0.19459 0.41257,-0.19781 0.50932,-0.002 1.28323,-0.058 1.71979,-0.12347 0.43657,-0.0655 0.55563,-0.0652 0.26459,6.3e-4 -1.07109,0.24234 -1.03291,0.60409 0.0638,0.60409 0.6026,0 1.1664,0.11451 1.2529,0.25447 0.10069,0.16291 0.39811,0.16291 0.82659,0 0.97145,-0.36934 1.42862,-0.31341 1.42862,0.1748 0,0.34467 -0.0755,0.36663 -0.38302,0.11139 -0.2748,-0.22806 -0.51777,-0.23949 -0.8599,-0.0404 -0.42514,0.24734 -0.42869,0.27831 -0.0328,0.28548 0.24427,0.004 0.63122,0.19515 0.8599,0.42382 0.22867,0.22868 0.42066,0.31797 0.42664,0.19844 0.006,-0.11954 0.30265,0.46093 0.65927,1.28992 0.57093,1.32714 0.62818,1.74661 0.4791,3.5102 -0.12819,1.51649 -0.31054,2.1673 -0.75083,2.67969 -0.48508,0.56453 -0.56023,0.90384 -0.45316,2.04606 0.0706,0.75311 0.24433,1.44418 0.38607,1.5357 0.15015,0.0969 0.10717,0.22628 -0.10294,0.30984 -0.19837,0.0789 0.38729,0.15283 1.30147,0.16432 2.16296,0.0272 3.18993,0.48285 4.39061,1.94812 0.91288,1.11405 0.99126,1.35015 1.1305,3.40522 0.11212,1.65475 0.044,2.50658 -0.27182,3.3988 -0.23179,0.65484 -0.42317,1.86476 -0.42529,2.68871 -0.004,1.52523 -0.49123,4.31932 -1.16924,6.704 -1.39415,4.90353 -1.51451,5.97279 -0.73541,6.53343 0.26424,0.19016 0.5629,0.56645 0.66368,0.83621 0.11455,0.30659 0.33769,0.43121 0.59519,0.33239 0.30712,-0.11785 0.37274,-0.0345 0.25788,0.32735 -0.10479,0.33018 0.0886,0.68925 0.60481,1.12281 0.41739,0.35057 0.82672,0.81599 0.90963,1.03427 0.12003,0.316 0.15501,0.30252 0.17164,-0.0662 0.0115,-0.25466 0.13122,-0.46302 0.26607,-0.46302 0.13485,0 0.30263,-0.20836 0.37284,-0.46302 0.0702,-0.25466 0.0964,-0.0259 0.0582,0.50844 -0.0568,0.79393 0.0314,0.99785 0.48249,1.11582 0.3036,0.0794 0.66716,0.0292 0.80791,-0.11157 0.33607,-0.33608 1.20842,-0.32982 1.20842,0.009 0,0.38168 0.72764,0.32622 0.86777,-0.0661 0.065,-0.1819 0.21525,-0.23997 0.33398,-0.12904 0.11873,0.11093 -0.0436,0.5526 -0.36065,0.98148 -0.31709,0.42888 -0.57652,0.89663 -0.57652,1.03946 0,0.14283 -0.1177,0.33242 -0.26155,0.42133 -0.14998,0.0927 -0.19434,-0.0135 -0.10399,-0.24897 0.0923,-0.24058 0.016,-0.41061 -0.18441,-0.41061 -0.18809,0 -0.60874,-0.2506 -0.93476,-0.55689 -0.34557,-0.32464 -0.72801,-0.47331 -0.91703,-0.35649 -0.24095,0.14891 -0.20519,0.28746 0.1392,0.53928 0.27358,0.20005 0.38061,0.47291 0.26126,0.66604 -0.13884,0.22464 -0.0711,0.27684 0.21619,0.1666 0.47728,-0.18315 0.72676,0.2875 0.72676,1.37108 0,0.40041 0.073,0.80106 0.16233,0.89034 0.16726,0.16727 2.44798,-2.88165 3.59721,-4.80883 0.35674,-0.59823 0.72835,-1.00797 0.82579,-0.91053 0.0974,0.0975 0.17717,-0.0808 0.17717,-0.39609 0,-0.43509 0.15943,-0.57326 0.66146,-0.57326 0.38544,0 0.66145,-0.1521 0.66145,-0.36448 0,-0.20047 0.1786,-0.5127 0.39688,-0.69386 0.33562,-0.27854 0.39687,-0.22228 0.39687,0.36448 0,0.63311 0.0927,0.69386 1.05834,0.69386 h 1.05833 v 1.05833 c 0,0.76435 0.11024,1.05833 0.39688,1.05833 0.33624,0 0.39687,0.64676 0.39687,4.23334 v 4.23333 h -14.92065 c -13.36161,0 -14.93743,-0.0437 -15.08125,-0.41852 z M 77.126045,116.68125 v -9.525 l 9.458854,0.01 9.458854,0.01 -0.699997,0.5858 c -5.64832,4.72684 -9.164086,8.00782 -8.882539,8.28937 0.104574,0.10457 0.8839,-0.51439 1.731836,-1.37547 0.847936,-0.86108 2.236072,-2.16092 3.084746,-2.88852 3.094863,-2.65336 3.704681,-3.18851 4.447084,-3.90261 l 0.75645,-0.7276 9.173917,0.009 9.17392,0.009 -4.49792,2.26967 c -2.47385,1.24832 -4.67651,2.42141 -4.89479,2.60686 -0.21828,0.18546 -1.11125,0.69822 -1.98437,1.13946 -0.87313,0.44125 -1.99759,1.10946 -2.4988,1.48492 -0.50122,0.37546 -1.066764,0.68265 -1.256774,0.68265 -0.190009,0 -0.345472,0.0903 -0.345472,0.20054 0,0.1103 -0.797882,0.73538 -1.773072,1.38907 -0.97519,0.65368 -1.969328,1.36711 -2.209196,1.58539 -0.855281,0.77832 -1.451968,1.19522 -2.169294,1.51569 -0.400182,0.17878 -0.727604,0.44667 -0.727604,0.59531 0,0.14864 -0.209184,0.27025 -0.464853,0.27025 -0.255669,0 -0.847304,0.41672 -1.314743,0.92605 -0.615036,0.67014 -1.072883,0.92604 -1.656855,0.92604 -0.728643,0 -0.790851,0.0642 -0.640948,0.66146 0.122726,0.48897 0.0608,0.66145 -0.237494,0.66145 -0.22193,0 -0.45808,0.14883 -0.524777,0.33073 -0.09701,0.26459 -0.191382,0.26459 -0.47184,0 -0.288707,-0.27236 -0.271198,-0.33073 0.09922,-0.33073 0.298026,0 0.449791,-0.21363 0.449791,-0.63315 0,-0.34823 0.178594,-0.70168 0.396875,-0.78544 0.741311,-0.28447 0.400936,-0.69807 -0.574479,-0.69807 -0.534245,0 -1.189088,-0.19705 -1.455208,-0.43789 -0.450232,-0.40745 -0.483854,-0.40745 -0.483854,0 0,0.68687 -1.791076,0.5892 -2.416362,-0.13176 -0.607024,-0.69991 -0.639008,-1.13009 -0.06772,-0.91087 0.302412,0.11605 0.382586,0.0496 0.275825,-0.22862 -0.08278,-0.21572 -7.7e-5,-0.54449 0.183783,-0.7306 0.183861,-0.18611 0.41319,-0.54675 0.509621,-0.80141 0.09643,-0.25466 0.292717,-0.46302 0.43619,-0.46302 0.334407,0 1.60783,-1.26685 1.60783,-1.59953 0,-0.49372 -0.48568,-0.23965 -1.287424,0.67349 -0.447192,0.50932 -0.935776,0.92604 -1.085742,0.92604 -0.149967,0 -0.272667,0.11707 -0.272667,0.26016 0,0.14309 -0.527417,0.8277 -1.172038,1.52135 -1.754932,1.88843 -2.270802,2.51086 -2.744773,3.31172 -0.236838,0.40018 -0.583537,0.7276 -0.770443,0.7276 -0.186906,0 -0.34379,0.20836 -0.348632,0.46302 -0.0086,0.45311 -0.84938,1.65365 -1.158087,1.65365 -0.08581,0 -0.156027,-4.28625 -0.156027,-9.525 z m 27.516665,1.45521 c 0,-0.31971 -0.41157,-0.39688 -2.11667,-0.39688 -2.13193,0 -2.26399,-0.0644 -2.12613,-1.03695 0.0421,-0.29683 -0.0947,-0.27855 -0.653068,0.0873 -0.388462,0.25453 -0.776568,0.3925 -0.86246,0.30661 -0.192768,-0.19277 0.74083,-0.9245 1.194268,-0.93603 0.1819,-0.005 0.33073,-0.10555 0.33073,-0.22428 0,-0.11872 0.44648,-0.45349 0.99219,-0.74393 1.07358,-0.57139 2.12881,-0.54712 2.35959,0.0543 0.11492,0.2995 0.8681,0.37636 3.68798,0.37636 h 3.54357 v -1.05834 -1.05833 h -1.05833 c -0.76435,0 -1.05834,-0.11024 -1.05834,-0.39687 0,-0.21829 -0.17859,-0.39688 -0.39687,-0.39688 -0.21828,0 -0.39688,0.17859 -0.39688,0.39688 0,0.29986 -0.32338,0.39687 -1.32291,0.39687 -0.72761,0 -1.32292,-0.11231 -1.32292,-0.24958 0,-0.43157 1.07,-1.02075 1.6014,-0.88178 0.33452,0.0875 0.57351,-0.0358 0.69762,-0.35998 0.26395,-0.68932 1.1002,-1.31856 2.26504,-1.70434 0.54571,-0.18073 0.99219,-0.47462 0.99219,-0.6531 0,-0.17847 0.32742,-0.3855 0.7276,-0.46006 1.52321,-0.28379 2.00442,-0.44964 2.43485,-0.83918 0.24428,-0.22107 0.82577,-0.47827 1.29219,-0.57155 0.46642,-0.0933 0.91212,-0.2733 0.99044,-0.40002 0.0783,-0.12673 3.35006,-0.23041 7.27054,-0.23041 h 7.12813 v 3.175 c 0,2.64583 -0.0661,3.175 -0.39687,3.175 -0.28664,0 -0.39688,0.29398 -0.39688,1.05833 0,0.76436 0.11024,1.05834 0.39688,1.05834 0.28663,0 0.39687,0.29398 0.39687,1.05833 0,0.76435 -0.11024,1.05833 -0.39687,1.05833 -0.21829,0 -0.39688,0.1786 -0.39688,0.39688 0,0.28663 -0.29398,0.39687 -1.05833,0.39687 -0.76435,0 -1.05834,-0.11024 -1.05834,-0.39687 0,-0.31971 -0.41157,-0.39688 -2.11666,-0.39688 -1.7051,0 -2.11667,0.0772 -2.11667,0.39688 0,0.28663 -0.29398,0.39687 -1.05833,0.39687 -0.76435,0 -1.05834,-0.11024 -1.05834,-0.39687 0,-0.33073 -0.52916,-0.39688 -3.175,-0.39688 -2.64583,0 -3.175,0.0661 -3.175,0.39688 0,0.3197 -0.41157,0.39687 -2.11666,0.39687 -1.7051,0 -2.11667,-0.0772 -2.11667,-0.39687 0,-0.31971 -0.41157,-0.39688 -2.11667,-0.39688 -1.70509,0 -2.11666,0.0772 -2.11666,0.39688 0,0.28663 -0.29398,0.39687 -1.05834,0.39687 -0.76435,0 -1.05833,-0.11024 -1.05833,-0.39687 z m 23.28333,-3.57188 v -1.05833 h -7.40833 -7.40833 v 1.05833 1.05834 h 7.40833 7.40833 z"
         id="path263" /><path
         style="fill:#5ce6ed"
         d="m 101.01266,168.60573 c 0.11947,-4.12781 0.21548,-5.09254 0.73953,-7.43097 0.4171,-1.86116 0.0382,-7.44419 -0.55066,-8.1133 -1.20028,-1.36394 -1.617257,-3.0537 -1.02612,-4.15826 0.27929,-0.52184 0.24718,-0.51773 -0.595308,0.0762 -0.489784,0.3453 -1.368248,0.9883 -1.952143,1.42889 -0.583895,0.44058 -2.115078,1.32391 -3.402628,1.96295 -1.880726,0.93345 -2.686402,1.18326 -4.097747,1.27055 -0.966211,0.0598 -1.935341,-0.0122 -2.153622,-0.15997 -0.319048,-0.21595 -0.415111,-1.12335 -0.489867,-4.62723 l -0.09299,-4.35861 -0.651837,0.24783 c -0.771697,0.2934 -2.754214,0.32211 -3.13093,0.0453 -0.426457,-0.31331 -0.926042,-1.33562 -0.926042,-1.89497 0,-0.28443 -0.119062,-0.59073 -0.264583,-0.68067 -0.551371,-0.34076 -0.222373,-0.95187 0.992187,-1.84295 1.446157,-1.061 1.957368,-1.12796 3.317494,-0.43453 l 0.981985,0.50065 v -1.13785 c 0,-0.95805 -0.19087,-1.37216 -1.207877,-2.62065 -1.669911,-2.04999 -1.578483,-2.64711 0.58012,-3.78878 1.417956,-0.74994 1.723147,-0.8219 2.434385,-0.57396 0.699107,0.24371 0.842291,0.45679 1.020669,1.5189 0.114117,0.67948 0.182919,1.41402 0.152893,1.6323 -0.03002,0.21828 0.05457,0.69453 0.187999,1.05833 0.133425,0.3638 0.303697,1.37583 0.378381,2.24896 0.07469,0.87312 0.140697,1.60596 0.146694,1.62853 0.006,0.0226 0.695512,-0.14315 1.532257,-0.36825 0.917101,-0.24671 2.362053,-0.38427 3.638021,-0.34632 4.223559,0.1256 4.780359,0.10641 5.844329,-0.20147 2.67427,-0.77384 3.22242,-2.44511 1.45901,-4.44844 -0.79967,-0.90848 -1.16063,-1.65971 -1.60862,-3.34789 -0.31768,-1.19712 -0.72723,-2.29564 -0.91013,-2.44116 -0.65545,-0.52152 -0.93525,-1.37132 -0.71005,-2.15655 0.36341,-1.26715 1.29055,-2.84317 1.93506,-3.28937 2.6903,-1.8625 7.08739,-1.13801 8.79275,1.44875 0.67037,1.01683 0.71027,1.24059 0.62021,3.47776 -0.0835,2.07486 -0.17732,2.47209 -0.70936,3.00413 -0.47438,0.47437 -0.57694,0.79397 -0.45326,1.41237 0.0879,0.4396 0.15985,1.2011 0.15985,1.69223 v 0.89297 h 1.62242 c 3.09773,0 5.01314,1.90742 5.41768,5.39508 0.0978,0.8428 0.006,1.94954 -0.24425,2.9393 -0.22058,0.87312 -0.47869,2.61172 -0.57359,3.86355 -0.15549,2.05126 -0.50385,3.67028 -1.83292,8.51863 -0.73835,2.69343 -0.60992,3.39226 0.96944,5.27519 1.68157,2.00479 3.87461,5.23851 4.53314,6.68429 0.37984,0.83392 1.46547,3.98403 1.48175,4.29948 0.002,0.0364 -4.82908,0.0661 -10.73546,0.0661 H 100.89205 Z M 77.126045,112.23928 v -5.08303 h 3.042708 c 3.361183,0 3.524604,0.10035 2.363004,1.45107 -0.373482,0.43429 -0.931042,1.23796 -1.239022,1.78594 -0.307981,0.54798 -0.657103,0.99632 -0.775827,0.99632 -0.118725,0 -0.215863,0.12122 -0.215863,0.26937 0,0.14815 -0.49596,1.07088 -1.102133,2.05052 -0.606173,0.97963 -1.320548,2.19328 -1.5875,2.697 l -0.485367,0.91583 z m 8.983186,2.73564 c 0.335203,-0.35681 0.540792,-0.82512 0.457506,-1.04216 -0.105045,-0.27374 0.04891,-0.41931 0.503919,-0.47648 1.354845,-0.17023 0.580368,-0.61986 -1.455473,-0.84498 -1.854624,-0.20508 -2.121249,-0.30116 -2.191475,-0.78966 -0.05577,-0.38792 -0.273042,-0.55741 -0.718206,-0.56026 -0.351038,-0.002 -0.688409,-0.153 -0.749713,-0.335 -0.0691,-0.20515 0.04043,-0.27262 0.288218,-0.17754 0.296503,0.11378 0.364092,0.0173 0.261826,-0.37377 -0.08165,-0.31225 0.114969,-0.87961 0.482326,-1.39175 1.388703,-1.93602 0.966531,-1.82857 7.132958,-1.81543 5.560751,0.0118 5.584279,0.0143 5.109791,0.53863 -0.262176,0.2897 -0.631596,0.46728 -0.820933,0.39462 -0.189337,-0.0726 -0.315912,-0.0349 -0.281277,0.084 0.03463,0.11885 -0.47281,0.65261 -1.127653,1.18613 -1.583122,1.28982 -3.092609,2.55964 -3.814565,3.20894 -0.323613,0.29104 -0.948989,0.80111 -1.389727,1.13348 -0.440737,0.33237 -0.958473,0.89792 -1.150525,1.25677 -0.192052,0.35885 -0.528414,0.65246 -0.747471,0.65246 -0.297367,0 -0.244037,-0.16419 0.210474,-0.648 z"
         id="path262" /><path
         style="fill:#9cb5d4"
         d="m 101.01266,168.60573 c 0.11947,-4.12781 0.21548,-5.09254 0.73953,-7.43097 0.4171,-1.86116 0.0382,-7.44419 -0.55066,-8.1133 -1.257207,-1.42863 -1.511821,-2.70943 -0.91329,-4.59421 0.16777,-0.52832 -0.0496,-0.42559 -1.399552,0.66146 -1.814538,1.46114 -5.205779,3.50901 -6.885185,4.15776 -1.237335,0.47798 -3.403119,0.5734 -4.029541,0.17755 -0.320194,-0.20234 -0.41498,-1.0996 -0.49058,-4.64389 -0.08446,-3.95968 -0.136665,-4.37407 -0.529166,-4.20025 -0.661138,0.29279 -2.351379,0.44684 -3.017727,0.27504 -0.591935,-0.1526 -1.254194,-1.21911 -1.254194,-2.01975 0,-0.23293 -0.134872,-0.55837 -0.299715,-0.72322 -0.460308,-0.46031 -0.116544,-0.99925 1.226959,-1.92361 1.266948,-0.87168 1.43512,-0.88016 3.107652,-0.15668 l 0.992187,0.42919 v -1.16992 c 0,-0.99612 -0.179435,-1.3902 -1.207877,-2.65272 -1.675248,-2.05654 -1.58112,-2.64574 0.607581,-3.80321 2.372254,-1.25453 2.816621,-0.86821 3.133286,2.72396 0.122862,1.39372 0.634271,4.71066 0.743068,4.81946 0.05774,0.0577 0.862299,-0.0969 1.787902,-0.34367 1.065725,-0.28412 2.459179,-0.42578 3.799582,-0.38627 4.23126,0.12471 4.78081,0.10572 5.84433,-0.20203 2.67427,-0.77384 3.22242,-2.44511 1.45901,-4.44844 -0.79967,-0.90848 -1.16063,-1.65971 -1.60862,-3.34789 -0.31768,-1.19712 -0.72723,-2.29564 -0.91013,-2.44116 -0.65844,-0.5239 -0.93539,-1.37085 -0.70778,-2.16448 0.64776,-2.25859 1.80193,-3.54117 3.66033,-4.06755 2.50964,-0.71084 5.16844,0.2599 6.58827,2.4054 0.56016,0.84646 0.61536,1.18153 0.53006,3.21766 -0.0719,1.71647 -0.22273,2.45776 -0.61613,3.02839 -0.43004,0.62377 -0.49435,1.03252 -0.36867,2.34308 l 0.15225,1.5875 1.71979,0.13229 c 2.74447,0.21111 4.35615,1.51153 4.9819,4.01977 0.40988,1.64292 0.39093,3.00899 -0.0638,4.59731 -0.20544,0.71764 -0.43523,2.19776 -0.51066,3.28917 -0.17038,2.46542 -0.28712,3.0551 -1.39732,7.05808 -1.24877,4.50261 -1.21285,5.17297 0.3739,6.97817 2.57983,2.93498 4.46704,5.95603 5.34789,8.5609 0.9493,2.80727 1.9893,2.53827 -9.81353,2.53827 h -10.342 z M 77.126045,112.23928 v -5.08303 h 3.042708 c 3.361183,0 3.524604,0.10035 2.363004,1.45107 -0.373482,0.43429 -0.931042,1.23796 -1.239022,1.78594 -0.307981,0.54798 -0.657103,0.99632 -0.775827,0.99632 -0.118725,0 -0.215863,0.12122 -0.215863,0.26937 0,0.14815 -0.49596,1.07088 -1.102133,2.05052 -0.606173,0.97963 -1.320548,2.19328 -1.5875,2.697 l -0.485367,0.91583 z m 8.983186,2.73564 c 0.335203,-0.35681 0.540792,-0.82512 0.457506,-1.04216 -0.105045,-0.27374 0.04891,-0.41931 0.503919,-0.47648 1.354845,-0.17023 0.580368,-0.61986 -1.455473,-0.84498 -1.854624,-0.20508 -2.121249,-0.30116 -2.191475,-0.78966 -0.05577,-0.38792 -0.273042,-0.55741 -0.718206,-0.56026 -0.351038,-0.002 -0.688409,-0.153 -0.749713,-0.335 -0.0691,-0.20515 0.04043,-0.27262 0.288218,-0.17754 0.296503,0.11378 0.364092,0.0173 0.261826,-0.37377 -0.08165,-0.31225 0.114969,-0.87961 0.482326,-1.39175 1.388703,-1.93602 0.966531,-1.82857 7.132958,-1.81543 5.560751,0.0118 5.584279,0.0143 5.109791,0.53863 -0.262176,0.2897 -0.631596,0.46728 -0.820933,0.39462 -0.189337,-0.0726 -0.315912,-0.0349 -0.281277,0.084 0.03463,0.11885 -0.47281,0.65261 -1.127653,1.18613 -1.583122,1.28982 -3.092609,2.55964 -3.814565,3.20894 -0.323613,0.29104 -0.948989,0.80111 -1.389727,1.13348 -0.440737,0.33237 -0.958473,0.89792 -1.150525,1.25677 -0.192052,0.35885 -0.528414,0.65246 -0.747471,0.65246 -0.297367,0 -0.244037,-0.16419 0.210474,-0.648 z"
         id="path261" /><path
         style="fill:#b8fb3c"
         d="m 100.94103,169.26719 c 0.002,-2.55593 0.15449,-4.22256 0.56351,-6.15156 0.76679,-3.61628 0.73162,-9.30758 -0.061,-9.86272 -0.67437,-0.47235 -1.563379,-2.24011 -1.563379,-3.10872 0,-0.37917 0.126789,-0.92629 0.281739,-1.21583 0.43548,-0.81371 0.15886,-1.19009 -0.428745,-0.58337 -1.499875,1.54867 -5.866701,4.20291 -8.187369,4.97644 -1.493698,0.49789 -3.432072,0.35369 -3.672637,-0.27321 -0.0812,-0.2116 -0.228217,-2.26964 -0.326709,-4.57342 -0.13927,-3.25761 -0.258695,-4.18869 -0.537261,-4.18869 -0.197001,0 -0.358184,0.0888 -0.358184,0.19723 0,0.2871 -2.002995,0.58007 -2.622219,0.38353 -0.552977,-0.17551 -1.346531,-1.49808 -1.346531,-2.24419 0,-0.23958 -0.130969,-0.56656 -0.291042,-0.72664 -0.333863,-0.33386 0.08466,-0.78305 1.691335,-1.81527 l 1.003419,-0.64465 1.036562,0.52882 c 1.546965,0.7892 1.851393,0.70808 1.851393,-0.49336 0,-0.81126 -0.272958,-1.39194 -1.322917,-2.81429 -0.727604,-0.98566 -1.322917,-2.01508 -1.322917,-2.28759 0,-0.59343 3.13864,-2.25013 3.789627,-2.00032 0.510156,0.19576 1.340374,2.83562 0.99911,3.17688 -0.144394,0.1444 -0.09195,0.59633 0.131171,1.13033 0.204467,0.48936 0.373385,1.34006 0.375372,1.89043 0.002,0.55038 0.07157,1.2539 0.154621,1.56339 0.14506,0.54053 0.198985,0.54826 1.36889,0.19617 1.758663,-0.52928 5.287592,-0.74598 6.529877,-0.40097 1.336584,0.37119 4.057994,-0.21194 5.532934,-1.18558 0.98264,-0.64866 1.01544,-0.71742 0.84716,-1.77564 -0.11849,-0.74506 -0.46907,-1.40255 -1.08476,-2.03435 -0.67131,-0.68887 -1.08427,-1.51673 -1.57585,-3.1591 -0.36638,-1.22408 -0.90379,-2.47855 -1.19424,-2.78772 -0.69007,-0.73455 -0.66324,-1.54954 0.10534,-3.20017 0.75122,-1.61332 1.73977,-2.37759 3.58803,-2.77397 1.72854,-0.3707 2.77013,-0.17642 4.31845,0.80549 1.86056,1.17993 2.36348,2.3753 2.14784,5.10503 -0.12907,1.63391 -0.3037,2.32607 -0.69573,2.75767 -0.45175,0.49736 -0.49806,0.79449 -0.33832,2.17082 0.21811,1.87928 0.57526,2.27312 1.84528,2.03486 1.33414,-0.25029 3.35304,0.67968 4.23339,1.95003 1.07674,1.55375 1.39338,3.82922 0.85864,6.17048 -0.24047,1.05284 -0.50278,2.62862 -0.58292,3.50175 -0.28277,3.08084 -0.45869,3.99814 -1.36446,7.115 -0.84357,2.90277 -1.30556,6.37391 -0.80736,6.066 0.44436,-0.27462 4.21296,4.57931 5.473,7.04918 0.73573,1.44217 1.59282,3.89037 1.59282,4.54978 0,0.4656 -0.46848,0.48775 -10.31875,0.48775 h -10.31875 z"
         id="path260" /><path
         style="fill:#4c0e89"
         d="m 103.84725,164.85279 c -1.30427,-0.39674 -2.37943,-1.09692 -2.37323,-1.54552 0.003,-0.25092 0.13198,-0.93248 0.28557,-1.51456 0.1536,-0.58208 0.263,-2.73276 0.24313,-4.77928 l -0.0361,-3.72094 0.74275,-0.34032 c 0.85189,-0.39033 3.49984,-0.41203 5.16486,-0.0423 0.62377,0.13851 2.56289,0.44811 4.30914,0.68801 1.74625,0.2399 3.20099,0.46164 3.23277,0.49274 0.0318,0.0311 -0.18091,0.82431 -0.47265,1.76267 -0.29173,0.93837 -0.53986,2.36096 -0.55139,3.16132 -0.0115,0.80037 -0.15089,1.61614 -0.30967,1.81284 -0.43054,0.53331 -4.36147,3.04051 -5.79878,3.69854 -1.2747,0.58357 -3.14048,0.72102 -4.43637,0.32683 z M 88.569711,153.54935 c -0.340316,-0.0731 -0.645011,-0.3746 -0.712035,-0.70467 -0.465241,-2.29115 -0.592308,-12.15883 -0.158433,-12.30345 0.151095,-0.0504 0.274719,-0.54163 0.274719,-1.0917 0,-0.7848 -0.284809,-1.38594 -1.322917,-2.79224 -0.727604,-0.98566 -1.322917,-2.01508 -1.322917,-2.28759 0,-0.59343 3.13864,-2.25013 3.789627,-2.00032 0.510156,0.19576 1.340374,2.83562 0.99911,3.17688 -0.144394,0.1444 -0.09195,0.59633 0.131171,1.13033 0.204467,0.48936 0.373385,1.34006 0.375372,1.89043 0.002,0.55038 0.07157,1.2539 0.154621,1.56339 0.14506,0.54053 0.198985,0.54826 1.36889,0.19617 1.758663,-0.52928 5.287592,-0.74598 6.529877,-0.40097 1.336584,0.37119 4.057994,-0.21194 5.532934,-1.18558 0.98264,-0.64866 1.01544,-0.71742 0.84716,-1.77564 -0.11849,-0.74506 -0.46907,-1.40255 -1.08476,-2.03435 -0.67131,-0.68887 -1.08427,-1.51673 -1.57585,-3.1591 -0.36638,-1.22408 -0.90379,-2.47855 -1.19424,-2.78772 -0.69007,-0.73455 -0.66324,-1.54954 0.10534,-3.20017 0.75122,-1.61332 1.73977,-2.37759 3.58803,-2.77397 1.72854,-0.3707 2.77013,-0.17642 4.31845,0.80549 1.86056,1.17993 2.36348,2.3753 2.14784,5.10503 -0.12907,1.63391 -0.3037,2.32607 -0.69573,2.75767 -0.45175,0.49736 -0.49806,0.79449 -0.33832,2.17082 0.21811,1.87928 0.57526,2.27312 1.84528,2.03486 1.33414,-0.25029 3.35304,0.67968 4.23339,1.95003 1.07374,1.54941 1.39263,3.8275 0.86375,6.17048 -0.23766,1.05284 -0.50411,2.50662 -0.59212,3.23063 -0.088,0.72401 -0.21406,1.37043 -0.28012,1.43648 -0.46436,0.46437 -5.20314,-3.14549 -6.06658,-4.62132 -0.57269,-0.97888 -0.99866,-1.07427 -3.33651,-0.74716 -0.96282,0.13472 -1.28539,0.3383 -1.88649,1.19062 -0.51391,0.72869 -0.91847,1.02812 -1.38907,1.02812 -0.5566,0 -0.66397,-0.12434 -0.66397,-0.76898 0,-1.16177 -0.93064,-0.76892 -1.74604,0.73707 -1.441512,2.6624 -1.947936,3.28435 -3.703282,4.54809 -3.553632,2.5584 -7.085282,3.93115 -9.036177,3.51234 z m -4.780306,-8.77108 c -0.45264,-0.3071 -1.10711,-1.57523 -1.10711,-2.14518 0,-0.2453 -0.130969,-0.57697 -0.291042,-0.73705 -0.333863,-0.33386 0.08466,-0.78305 1.691335,-1.81527 l 1.003419,-0.64465 1.035578,0.52831 1.035578,0.52832 -0.649934,0.64993 c -0.753052,0.75305 -0.83287,1.73633 -0.217219,2.67593 0.237993,0.36322 0.377412,0.71571 0.309819,0.7833 -0.261165,0.26117 -2.48019,0.40041 -2.810424,0.17636 z"
         id="path259" /></g></g></svg>
