<?xml version="1.0" encoding="UTF-8" standalone="no"?>
<!-- Created with Inkscape (http://www.inkscape.org/) -->

<svg
   width="53.718975mm"
   height="65.748962mm"
   viewBox="0 0 53.718975 65.748962"
   version="1.1"
   id="svg1"
   inkscape:export-filename="starter-protein.svg"
   inkscape:export-xdpi="96"
   inkscape:export-ydpi="96"
   xml:space="preserve"
   xmlns:inkscape="http://www.inkscape.org/namespaces/inkscape"
   xmlns:sodipodi="http://sodipodi.sourceforge.net/DTD/sodipodi-0.dtd"
   xmlns="http://www.w3.org/2000/svg"
   xmlns:svg="http://www.w3.org/2000/svg"><sodipodi:namedview
     id="namedview1"
     pagecolor="#ffffff"
     bordercolor="#000000"
     borderopacity="0.25"
     inkscape:showpageshadow="2"
     inkscape:pageopacity="0.0"
     inkscape:pagecheckerboard="0"
     inkscape:deskcolor="#d1d1d1"
     inkscape:document-units="mm"><inkscape:page
       x="0"
       y="0"
       width="53.718975"
       height="65.748962"
       id="page2"
       margin="0"
       bleed="0" /></sodipodi:namedview><defs
     id="defs1" /><g
     inkscape:label="Calque 1"
     inkscape:groupmode="layer"
     id="layer1"
     transform="translate(-86.980943,-118.94567)"><g
       id="g308"
       transform="translate(9.8634685,1.7352398)"><path
         style="fill:#d4e7f4"
         d="m 77.126045,150.01875 v -32.80833 h 26.855205 26.85521 v 32.80833 32.80834 H 103.98125 77.126045 Z"
         id="path315" /><path
         style="fill:#c6daea"
         d="m 89.559896,181.75359 c 1.527107,-0.58138 3.193982,-1.27376 3.704166,-1.53862 0.510184,-0.26486 1.374092,-0.62816 1.919795,-0.80732 0.545703,-0.17917 0.992188,-0.4356 0.992188,-0.56983 0,-0.13424 0.190948,-0.24407 0.42433,-0.24407 0.233381,0 1.275178,-0.44648 2.315104,-0.99218 1.466891,-0.76976 1.757311,-1.01115 1.295461,-1.07674 -0.417961,-0.0594 -0.595312,-0.26371 -0.595312,-0.68595 0,-0.33077 -0.408231,-1.42382 -0.90718,-2.429 -0.49895,-1.00517 -1.183559,-2.40732 -1.521355,-3.11589 -0.998121,-2.09369 -1.120408,-2.28357 -1.470664,-2.28357 -0.183774,0 -0.334134,-0.10168 -0.334134,-0.22595 0,-0.12427 -0.302662,-0.55252 -0.672582,-0.95167 -0.561438,-0.60581 -0.618199,-0.79801 -0.343489,-1.16312 0.27193,-0.36141 0.267454,-0.38272 -0.02577,-0.12268 -0.281068,0.24926 -0.56626,0.13922 -1.371532,-0.52917 -0.590917,-0.49048 -1.018674,-1.08025 -1.021446,-1.40832 -0.0029,-0.33944 -0.215721,-0.61962 -0.533936,-0.70284 -0.355478,-0.093 -0.529167,-0.36089 -0.529167,-0.8163 0,-0.51542 -0.102452,-0.63861 -0.427408,-0.51391 -0.344941,0.13236 -0.390522,0.0478 -0.236237,-0.43832 0.130538,-0.41129 0.09826,-0.5449 -0.101759,-0.42128 -0.189546,0.11715 -0.292929,-0.10168 -0.292929,-0.62002 0,-0.64327 0.09121,-0.77172 0.463021,-0.65212 0.358453,0.11531 0.380674,0.0902 0.09839,-0.11101 -0.200544,-0.14298 -0.281012,-0.4221 -0.178817,-0.62027 0.102196,-0.19817 0.01347,-0.14983 -0.197162,0.10743 -0.360897,0.44078 -0.408174,0.42928 -0.820211,-0.19957 -0.240482,-0.36702 -0.499996,-1.05375 -0.576697,-1.52607 -0.0767,-0.47232 -0.3342,-1.7815 -0.572219,-2.90929 l -0.432762,-2.05052 h -1.00844 c -0.832052,0 -1.00844,0.0926 -1.00844,0.52917 0,0.44097 -0.176389,0.52916 -1.058334,0.52916 -0.881944,0 -1.058333,-0.0882 -1.058333,-0.52916 0,-0.44098 -0.176389,-0.52917 -1.058333,-0.52917 -0.881945,0 -1.058334,0.0882 -1.058334,0.52917 0,0.48507 -0.176388,0.52916 -2.116666,0.52916 h -2.116667 v -17.99166 -17.99167 h 26.855204 26.85521 v 32.80833 32.80834 h -6.21771 c -3.41974,0 -6.21771,-0.0643 -6.21771,-0.14301 0,-0.14392 1.06854,-1.72715 1.33204,-1.97366 0.41603,-0.38919 1.3138,-1.69303 1.3138,-1.90803 0,-0.13704 -0.43836,0.3255 -0.97413,1.02787 -0.53576,0.70237 -1.13186,1.43515 -1.32465,1.6284 -0.19278,0.19324 -0.47299,0.5802 -0.62268,0.85989 -0.25412,0.47482 -0.61233,0.50854 -5.40279,0.50854 H 107.592 l -0.15427,-2.31511 c -0.36609,-5.494 -0.43948,-10.01825 -0.17385,-10.71691 0.15182,-0.39934 0.66597,-0.95719 1.14254,-1.23967 0.47657,-0.28248 0.9902,-0.60996 1.14141,-0.72773 0.15121,-0.11777 0.4411,-0.25122 0.64421,-0.29657 0.80116,-0.17886 5.29858,-4.43618 5.29858,-5.0157 0,-0.12432 0.22078,-0.46302 0.49063,-0.75266 0.76104,-0.81688 2.05149,-3.70518 2.78256,-6.22796 1.38051,-4.76386 1.43147,-8.904 0.17028,-13.83521 -2.34002,-9.14939 -10.7555,-14.50911 -18.70616,-11.91375 -2.076874,0.67795 -3.206733,1.23923 -4.309222,2.14068 -1.471789,1.2034 -2.977458,2.86117 -3.929741,4.3267 -0.565631,0.87048 -1.116411,1.49611 -1.223955,1.39027 -0.107543,-0.10583 -0.170108,-0.0138 -0.139031,0.20445 0.09636,0.67684 0.0031,1.09533 -0.214082,0.96108 -0.114338,-0.0707 -0.220953,0.0711 -0.236923,0.31512 -0.03878,0.5924 -0.286546,1.6171 -0.58708,2.42797 -0.279145,0.75316 -0.712439,3.14091 -0.96281,5.30574 -0.187664,1.62264 0.271004,6.1372 0.791559,7.79113 0.183204,0.58208 0.490785,1.59412 0.683514,2.24896 0.63235,2.14857 2.157212,4.90834 3.784293,6.84902 0.598062,0.71332 0.678936,0.94755 0.396875,1.14943 -0.264288,0.18916 -0.234605,0.21494 0.116886,0.10149 0.29536,-0.0953 0.778006,0.11747 1.293644,0.57035 0.452379,0.39733 0.957956,0.84148 1.123505,0.987 0.804702,0.70736 1.973379,1.40887 2.906919,1.74492 1.598079,0.57527 1.812929,1.36804 1.634169,6.02995 -0.0815,2.12674 -0.21768,4.9086 -0.30253,6.1819 l -0.15427,2.31511 -7.058158,-0.008 -7.058164,-0.008 z m 12.306854,-1.3739 c 0.0946,-1.34607 0.19235,-4.29286 0.21721,-6.54844 0.0519,-4.70508 -0.18668,-5.46635 -1.90564,-6.08152 -1.068073,-0.38224 -2.605304,-1.38322 -3.993161,-2.60019 -0.504309,-0.44221 -1.040091,-0.73424 -1.190625,-0.64894 -0.150534,0.0853 -0.191001,0.0632 -0.08993,-0.0491 0.101073,-0.11228 -0.449203,-1.11364 -1.222836,-2.22524 -2.883599,-4.14331 -4.214193,-8.51043 -4.203146,-13.79505 0.0089,-4.24199 1.140184,-8.76822 2.810604,-11.24479 3.461517,-5.13206 7.012018,-7.26491 12.107024,-7.2729 4.91384,-0.008 9.36539,2.76892 12.08428,7.53748 4.50474,7.90071 3.17378,19.81494 -2.96533,26.54449 -1.07172,1.1748 -4.00593,3.33155 -5.21389,3.83241 -1.69774,0.70394 -1.92503,1.35389 -2.03386,5.81598 -0.0648,2.65649 -3.6e-4,4.03421 0.19793,4.23251 0.17106,0.17106 0.294,1.2676 0.294,2.62232 v 2.32834 h -2.53232 -2.53232 z"
         id="path314" /><path
         style="fill:#b9d2e5"
         d="m 99.615628,181.87562 c 0,-0.52331 -0.194185,-1.61944 -0.431521,-2.43585 -0.316681,-1.08934 -0.349286,-1.51179 -0.122516,-1.58738 0.169952,-0.0567 0.656817,-0.39566 1.081919,-0.75337 l 0.77292,-0.65036 -0.45197,-0.97797 c -0.24857,-0.53789 -0.514732,-1.03751 -0.591457,-1.11027 -0.07672,-0.0728 -0.350699,-0.8169 -0.608833,-1.65365 -0.258133,-0.83674 -0.582311,-1.52135 -0.720396,-1.52135 -0.138084,0 -0.251063,-0.18115 -0.251063,-0.40255 0,-0.2214 -0.30893,-0.86937 -0.686511,-1.43993 -0.377582,-0.57057 -0.622084,-1.14164 -0.543338,-1.26905 0.07874,-0.12742 -0.0822,-0.3941 -0.357651,-0.59264 -0.275453,-0.19853 -0.435747,-0.46627 -0.356209,-0.59496 0.07954,-0.1287 -0.07567,-0.40088 -0.3449,-0.60485 -0.269234,-0.20397 -0.347714,-0.37464 -0.174401,-0.37927 0.173312,-0.005 0.386917,0.10776 0.474676,0.24976 0.230709,0.3733 2.814676,2.03326 3.474794,2.23224 0.308229,0.0929 0.784479,0.4163 1.058329,0.71864 0.44759,0.49415 0.49316,0.96819 0.45083,4.6896 -0.0259,2.27694 -0.12364,5.24121 -0.21721,6.58728 -0.16464,2.36841 -0.19087,2.4474 -0.81281,2.4474 -0.561376,0 -0.642682,-0.12037 -0.642682,-0.95147 z m 2.249242,-1.49593 c 0.0936,-1.34607 0.19132,-4.29286 0.21721,-6.54844 0.0547,-4.76361 -0.15512,-5.45293 -1.84569,-6.06388 -1.790673,-0.64713 -4.599851,-2.95938 -6.297697,-5.18368 -4.547113,-5.95704 -5.800074,-15.59595 -2.945865,-22.66226 3.632944,-8.99426 12.430642,-12.54108 20.172132,-8.13244 3.0999,1.76534 5.99864,5.98364 7.25446,10.55685 0.91802,3.34308 0.87312,8.61605 -0.10458,12.28224 -0.38502,1.44372 -1.04024,3.34872 -1.45605,4.23333 -0.89614,1.90648 -2.86532,4.77743 -3.92232,5.71851 -1.51416,1.3481 -3.68876,2.8288 -4.68119,3.18745 -1.69057,0.61095 -1.90038,1.30027 -1.84569,6.06388 0.0259,2.25558 0.12364,5.20237 0.21721,6.54844 l 0.17013,2.4474 h -2.55109 -2.5511 z m -5.636629,-16.44772 c -1.761149,-1.83445 -2.369137,-2.70773 -3.453852,-4.96094 -1.91636,-3.98071 -2.289106,-5.66359 -2.275896,-10.27519 0.0122,-4.25773 0.312003,-6.02317 1.499394,-8.82938 1.625542,-3.8417 3.827991,-6.21956 7.572734,-8.17588 2.150689,-1.12355 1.426409,-1.1405 -0.938013,-0.022 -2.952683,1.39684 -6.337051,5.44177 -7.440826,8.89311 -1.027427,3.21262 -1.228445,4.54369 -1.208433,8.0018 0.03901,6.73991 2.214747,12.16929 6.446787,16.08741 0.895485,0.82906 1.697308,1.50739 1.781829,1.50739 0.08452,0 -0.808155,-1.00187 -1.983724,-2.22637 z m 15.293639,-6.85448 c 0,-0.28281 1.13636,-2.67499 1.34215,-2.8254 0.0995,-0.0728 0.24244,-0.60855 0.31752,-1.19063 0.0751,-0.58208 0.33331,-1.92484 0.57383,-2.9839 0.37153,-1.63592 0.39174,-2.27271 0.13435,-4.23333 -0.16662,-1.26927 -0.30789,-2.64515 -0.31392,-3.0575 -0.008,-0.51828 -0.0813,-0.6408 -0.2387,-0.39688 -0.15406,0.23871 -0.29193,0.26213 -0.42617,0.0724 -1.4914,-2.10782 -3.02207,-3.29142 -4.25654,-3.29142 -0.27902,0 -0.65553,-0.1786 -0.83669,-0.39688 -0.18116,-0.21828 -0.49339,-0.39687 -0.69385,-0.39687 -0.20047,0 -0.36448,-0.10253 -0.36448,-0.22783 0,-0.28608 -1.94882,0.16182 -3.16583,0.72761 -1.1479,0.53366 -2.65501,1.85109 -2.65501,2.32085 0,0.1949 -0.10098,0.35437 -0.2244,0.35437 -0.12342,0 -0.42185,0.44648 -0.66318,0.99218 -1.373129,3.10491 -1.307307,8.73729 0.13386,11.45462 0.43091,0.81248 2.16514,2.63445 2.50759,2.63445 0.13486,0 0.43324,0.20836 0.66307,0.46302 1.14596,1.26976 2.63843,1.91823 4.41487,1.91823 0.73535,0 1.10569,0.11612 1.10569,0.34671 0,0.19069 0.59532,-0.20345 1.32292,-0.87588 0.7276,-0.67243 1.32292,-1.30599 1.32292,-1.40793 z m -4.0838,23.3022 c -0.39675,-6.36307 -0.42555,-10.12185 -0.0826,-10.78177 0.18906,-0.3638 0.94104,-0.964 1.67107,-1.33377 6.58823,-3.33708 10.77433,-11.07798 10.79672,-19.96519 0.022,-8.72426 -4.25315,-15.99026 -10.86283,-18.46244 -2.04965,-0.76662 -7.64014,-0.85211 -9.027661,-0.13805 -0.480405,0.24723 -1.075717,0.37709 -1.322917,0.28857 -0.247199,-0.0885 -0.360311,-0.0627 -0.251361,0.0573 0.273472,0.30123 -2.402611,1.79186 -2.884735,1.60685 -0.557132,-0.21379 -0.150192,-0.72293 0.502677,-0.62892 0.904662,0.13027 0.865295,-0.56858 -0.04225,-0.75009 -0.449068,-0.0898 -0.816488,-0.2745 -0.816488,-0.41042 0,-0.13592 0.10969,-0.17933 0.243755,-0.0965 0.375779,0.23225 1.875249,0.363 1.744943,0.15216 -0.06347,-0.10269 0.111182,-0.60945 0.388109,-1.12614 0.276927,-0.51669 0.430903,-1.01203 0.342168,-1.10076 -0.31195,-0.31196 0.233604,-0.15743 0.598034,0.16939 0.940462,0.84339 1.193996,0.99219 1.690596,0.99219 0.75761,0 0.43584,-0.58242 -0.584687,-1.05834 -1.015974,-0.47379 -1.019283,-0.73673 -0.01634,-1.29829 0.414039,-0.23182 0.792487,-0.5108 0.840987,-0.61994 0.0485,-0.10914 0.25688,-0.19843 0.46302,-0.19843 0.20616,0 0.37484,-0.11907 0.37484,-0.26459 0,-0.14552 0.17859,-0.26458 0.39687,-0.26458 0.21828,0 0.39688,-0.12133 0.39688,-0.26963 0,-0.37552 1.4027,-0.004 1.66679,0.44185 0.32132,0.54207 0.97904,0.42637 0.97904,-0.17222 0,-0.3044 -0.17639,-0.52917 -0.41528,-0.52917 -0.27932,0 -0.38759,-0.1949 -0.33073,-0.59531 0.047,-0.33103 0.27204,-0.59716 0.50688,-0.59947 0.58351,-0.006 2.35178,-1.24481 2.35399,-1.64949 9.9e-4,-0.1819 0.23363,-0.33073 0.51697,-0.33073 0.28335,0 1.07497,-0.29765 1.7592,-0.66146 0.68422,-0.3638 1.4049,-0.66145 1.6015,-0.66145 0.19661,0 0.35747,-0.1786 0.35747,-0.39688 0,-0.22138 0.23558,-0.39687 0.53276,-0.39687 0.29301,0 0.7395,-0.11054 0.99218,-0.24563 0.25269,-0.1351 1.05475,-0.50081 1.78235,-0.81271 0.72761,-0.31189 1.52966,-0.67761 1.78235,-0.8127 0.25269,-0.1351 3.67573,-0.24563 7.60677,-0.24563 h 7.14733 v 6.35 6.35 h -5.39731 -5.39731 l -0.0939,1.18092 c -0.0616,0.7748 0.0657,1.47856 0.37024,2.0464 0.25528,0.476 0.46415,1.01989 0.46415,1.20863 0,0.18873 0.17861,0.41169 0.39688,0.49545 0.21828,0.0838 0.39688,0.43722 0.39688,0.78545 0,0.34823 0.15654,0.63315 0.34787,0.63315 0.42847,0 1.23963,1.6404 1.23963,2.5069 0,0.35028 0.12501,0.71413 0.2778,0.80855 0.15278,0.0944 0.26629,0.90513 0.25223,1.80156 -0.0419,2.67159 0.32595,7.58299 0.56793,7.58299 0.39787,0 0.25356,4.03994 -0.17355,4.85889 -0.21739,0.41682 -0.39525,1.21346 -0.39525,1.77032 0,0.55686 -0.12718,1.09108 -0.28262,1.18715 -0.15544,0.0961 -0.21582,0.34876 -0.13416,0.56154 0.0816,0.21278 -0.045,0.76104 -0.28152,1.21835 -0.29752,0.57536 -0.33771,0.86223 -0.13042,0.93133 0.36146,0.12048 0.40617,2.17242 0.0473,2.17242 -0.24383,0 -1.33531,2.19931 -1.33531,2.69063 0,0.2679 -0.418,0.82097 -1.12448,1.48783 -0.25466,0.24038 -0.46302,0.58919 -0.46302,0.77513 0,0.18594 -0.11906,0.33808 -0.26458,0.33808 -0.14552,0 -0.26457,0.23812 -0.26457,0.52916 0,0.29105 0.10791,0.52917 0.23981,0.52917 0.1319,0 0.17789,0.23679 0.10221,0.52619 -0.0757,0.28941 -0.2264,0.47131 -0.33493,0.40424 -0.3378,-0.20877 -1.59488,1.40679 -1.42966,1.83735 0.0899,0.23433 -0.0229,0.47085 -0.26977,0.56559 -0.23338,0.0896 -0.42433,0.26636 -0.42433,0.3929 0,0.12653 -1.01203,1.23077 -2.24896,2.45385 -1.23692,1.22309 -2.24517,2.32721 -2.24054,2.45361 0.005,0.12639 0.15345,0.0437 0.33073,-0.1837 0.17727,-0.22743 0.70927,-0.64005 1.18221,-0.91694 0.47294,-0.27689 0.85989,-0.65635 0.85989,-0.84326 0,-0.18691 0.15206,-0.33983 0.33791,-0.33983 0.18585,0 0.72898,-0.35719 1.20696,-0.79375 0.47797,-0.43656 1.04029,-0.79375 1.24959,-0.79375 0.2093,0 0.38054,-0.16014 0.38054,-0.35587 0,-0.19572 0.2296,-0.56364 0.51021,-0.8176 0.57585,-0.52113 1.60646,-0.35096 1.60646,0.26526 0,0.20847 0.23812,0.37904 0.52916,0.37904 0.29104,0 0.53174,0.14883 0.53488,0.33073 0.003,0.1819 0.41524,0.68275 0.91577,1.11299 l 0.91003,0.78226 -0.65116,0.85373 c -0.35815,0.46956 -0.65118,0.978 -0.65118,1.12987 0,0.15188 -0.29766,0.47117 -0.66146,0.70955 -0.3638,0.23837 -0.66147,0.61683 -0.66147,0.84102 0,0.22419 -0.29765,0.79786 -0.66145,1.27483 -0.36381,0.47697 -0.66146,0.99422 -0.66146,1.14945 0,0.28515 -0.33216,0.3801 -1.05834,0.30256 -0.33397,-0.0357 -0.33795,-0.003 -0.0251,0.20803 0.30689,0.20675 0.26074,0.39071 -0.26458,1.05473 l -0.6363,0.80431 -4.94216,0.0146 -4.94216,0.0146 z m 11.22755,2.20202 c 0,-0.13496 0.28149,-0.4668 0.62554,-0.73743 0.34404,-0.27063 0.82054,-0.84482 1.05888,-1.27598 0.23834,-0.43115 0.96889,-1.4983 1.62345,-2.37142 0.65455,-0.87313 1.31691,-1.83051 1.47192,-2.12751 0.15501,-0.29701 0.54195,-0.65419 0.85987,-0.79375 0.31793,-0.13956 0.59525,-0.43233 0.61628,-0.65062 0.0715,-0.74263 0.41964,-1.5875 0.65408,-1.5875 0.12855,0 0.23373,-0.17859 0.23373,-0.39687 0,-0.21828 0.16728,-0.39688 0.37173,-0.39688 0.56984,0 1.74493,-2.21441 1.74493,-3.28826 0,-0.64687 0.12041,-0.94507 0.38162,-0.94507 0.20988,0 0.7159,-0.59519 1.12447,-1.32265 1.35673,-2.4156 1.40433,-2.16449 1.40433,7.40807 v 8.73125 h -6.08542 c -3.56305,0 -6.08541,-0.10171 -6.08541,-0.24538 z M 84.534378,136.65729 c -0.181157,-0.21828 -0.547511,-0.39687 -0.81412,-0.39687 -0.266609,0 -0.764811,-0.28007 -1.107115,-0.62237 -0.342305,-0.34231 -0.73467,-0.66973 -0.871923,-0.72761 -0.137252,-0.0579 -0.466688,-0.51713 -0.732078,-1.02056 -0.436096,-0.82724 -0.442461,-0.94462 -0.06615,-1.21979 0.22901,-0.16746 0.416382,-0.45291 0.416382,-0.63433 0,-0.18143 0.172531,-0.26367 0.383401,-0.18275 0.249496,0.0957 0.334604,0.02 0.243684,-0.21697 -0.102204,-0.26634 0.01919,-0.32254 0.452135,-0.20932 0.509488,0.13323 0.570314,0.0724 0.43708,-0.43708 -0.110301,-0.42179 -0.05489,-0.55352 0.19285,-0.45846 0.22309,0.0856 0.307546,-0.0254 0.235751,-0.30983 -0.105534,-0.41811 1.023826,-1.89843 1.448344,-1.89843 0.108256,0 0.407825,-0.35719 0.665709,-0.79375 0.257884,-0.43656 0.392304,-0.79375 0.298711,-0.79375 -0.360906,0 -5.691862,5.78353 -5.918105,6.42052 -0.05788,0.16296 -0.376664,0.56772 -0.708414,0.89947 -0.33175,0.33175 -0.816082,0.96359 -1.076293,1.4041 -0.260211,0.4405 -0.566503,0.80091 -0.680649,0.80091 -0.114145,0 -0.207537,-4.28625 -0.207537,-9.525 v -9.525 l 9.458854,0.008 9.458854,0.008 -1.175044,0.98455 c -0.646275,0.5415 -1.853285,1.59827 -2.682245,2.34838 -0.828961,0.75012 -1.758706,1.49845 -2.066102,1.66296 -0.307395,0.16451 -0.558901,0.47352 -0.558901,0.68668 0,0.21316 -0.117276,0.38757 -0.260615,0.38757 -0.416231,0 -3.058798,2.58961 -2.852788,2.79562 0.102586,0.10259 0.874834,-0.47758 1.716108,-1.28927 4.457043,-4.30027 5.439782,-5.21052 5.625475,-5.21052 0.111918,0 0.762678,-0.53578 1.446132,-1.19063 l 1.242645,-1.19062 9.175376,0.0128 9.17538,0.0128 -3.96875,1.99285 c -2.18281,1.09606 -4.24867,2.17249 -4.59079,2.39207 -0.34212,0.21958 -1.29462,0.76248 -2.11667,1.20645 -0.82204,0.44398 -1.67322,0.9445 -1.8915,1.11228 -0.21828,0.16778 -0.7243,0.46887 -1.12448,0.66909 -0.40018,0.20021 -0.7276,0.46297 -0.7276,0.5839 0,0.12093 -0.13058,0.21987 -0.29018,0.21987 -0.423131,0 -4.067129,2.57207 -6.278307,4.43145 -0.389158,0.32724 -0.826623,0.59523 -0.972144,0.59552 -0.145521,2.9e-4 -0.703136,0.38739 -1.239146,0.86022 -1.812663,1.599 -2.07333,1.78573 -2.492815,1.78573 -0.230242,0 -0.480892,0.23812 -0.557001,0.52917 -0.07611,0.29104 -0.303088,0.52916 -0.504397,0.52916 -0.201308,0 -0.366016,0.19133 -0.366016,0.42519 0,0.279 -0.143881,0.36997 -0.418514,0.26458 -0.230183,-0.0883 -0.52784,-0.1606 -0.661459,-0.1606 -0.133619,0 -0.242943,-0.11906 -0.242943,-0.26458 0,-0.14552 0.297656,-0.26459 0.661458,-0.26459 0.411574,0 0.661458,-0.14993 0.661458,-0.39687 0,-0.28663 -0.293981,-0.39688 -1.058333,-0.39688 -0.999537,0 -1.058333,0.0441 -1.058333,0.79375 0,0.52917 0.132291,0.79375 0.396875,0.79375 0.246944,0 0.396875,0.24989 0.396875,0.66146 0,0.41158 -0.149931,0.66146 -0.396875,0.66146 -0.218282,0 -0.396875,0.17859 -0.396875,0.39687 0,0.21829 -0.164016,0.39688 -0.364479,0.39688 -0.200463,0 -0.512697,-0.17859 -0.693855,-0.39688 z"
         id="path313" /><path
         style="fill:#b3c8d8"
         d="m 100.62803,180.91769 c -0.0971,-1.12293 -0.27214,-2.1945 -0.38903,-2.38125 -0.340124,-0.54346 -0.260844,-1.09526 0.23652,-1.64622 0.25467,-0.2821 0.46123,-0.63929 0.45904,-0.79375 -0.004,-0.31259 -0.50576,-1.71264 -1.047972,-2.92667 -1.272536,-2.84926 -1.573678,-3.65509 -1.444206,-3.86458 0.08038,-0.13006 -0.02037,-0.23647 -0.223878,-0.23647 -0.422001,0 -1.068286,-1.23727 -0.839581,-1.60732 0.0832,-0.13462 -0.127902,-0.24476 -0.469109,-0.24476 -0.450709,0 -0.620377,-0.14958 -0.620377,-0.54694 0,-0.42722 0.05999,-0.46995 0.274033,-0.19521 0.150718,0.19345 0.601455,0.49655 1.001637,0.67356 0.400182,0.17701 0.727604,0.4246 0.727604,0.5502 0,0.12561 0.456867,0.36526 1.015259,0.53256 1.91396,0.57343 2.03195,0.89485 1.99318,5.42927 -0.0188,2.20418 -0.13829,5.19823 -0.26543,6.65344 l -0.23117,2.64583 z m 1.23684,-0.538 c 0.0936,-1.34607 0.19132,-4.29286 0.21721,-6.54844 0.0547,-4.76361 -0.15512,-5.45293 -1.84569,-6.06388 -1.790673,-0.64713 -4.599851,-2.95938 -6.297697,-5.18368 -4.547113,-5.95704 -5.800074,-15.59595 -2.945865,-22.66226 3.630349,-8.98784 12.425792,-12.53304 20.172132,-8.13082 3.10099,1.76228 6.00701,5.9935 7.24938,10.55523 0.81293,2.98491 0.88465,8.10812 0.15741,11.24479 -1.04739,4.51753 -3.06685,8.44453 -5.56444,10.82048 -1.61474,1.53611 -3.60486,2.94169 -4.75203,3.35626 -1.69057,0.61095 -1.90038,1.30027 -1.84569,6.06388 0.0259,2.25558 0.12364,5.20237 0.21721,6.54844 l 0.17013,2.4474 h -2.55109 -2.5511 z m -5.636629,-16.44772 c -1.761149,-1.83445 -2.369137,-2.70773 -3.453852,-4.96094 -1.91636,-3.98071 -2.289106,-5.66359 -2.275896,-10.27519 0.0122,-4.25773 0.312003,-6.02317 1.499394,-8.82938 1.625542,-3.8417 3.827991,-6.21956 7.572734,-8.17588 2.150689,-1.12355 1.426409,-1.1405 -0.938013,-0.022 -2.952683,1.39684 -6.337051,5.44177 -7.440826,8.89311 -1.027427,3.21262 -1.228445,4.54369 -1.208433,8.0018 0.03901,6.73991 2.214747,12.16929 6.446787,16.08741 0.895485,0.82906 1.697308,1.50739 1.781829,1.50739 0.08452,0 -0.808155,-1.00187 -1.983724,-2.22637 z m 11.324889,-1.74238 c 0.60945,-0.60946 1.07081,-0.66793 1.5657,-0.19844 0.2876,0.27284 0.29137,0.23558 0.0216,-0.21288 -0.28658,-0.47634 -0.22244,-0.64822 0.5184,-1.38906 0.465,-0.465 0.95536,-0.84546 1.08969,-0.84546 0.13433,0 0.24423,-0.17859 0.24423,-0.39687 0,-0.21828 0.10775,-0.39688 0.23944,-0.39688 0.1317,0 0.56206,-0.55049 0.95636,-1.22333 0.49565,-0.84574 0.78137,-1.11905 0.92572,-0.88548 0.13819,0.22359 0.21042,0.12281 0.21358,-0.29802 0.005,-0.64101 0.51909,-2.73669 1.38964,-5.66296 0.59552,-2.00177 0.83112,-5.95312 0.35496,-5.95312 -0.18096,0 -0.40791,-0.46693 -0.50432,-1.03761 -0.0964,-0.57068 -0.34501,-1.10273 -0.55243,-1.18232 -0.20741,-0.0796 -0.37712,-0.28209 -0.37712,-0.45 0,-0.21995 0.11094,-0.21321 0.39688,0.0241 0.21828,0.18116 0.39687,0.21419 0.39687,0.0734 0,-0.37783 -0.93995,-1.16192 -1.14595,-0.95593 -0.0973,0.0973 -0.17696,0.0213 -0.17696,-0.16903 0,-0.42682 -2.25478,-2.65261 -2.68716,-2.65261 -0.17264,0 -0.51652,-0.18339 -0.76418,-0.40752 -0.64154,-0.58058 -3.03814,-0.89706 -4.74945,-0.62718 -0.80108,0.12633 -1.67648,0.26199 -1.94533,0.30146 -0.76861,0.11286 -3.132135,2.50555 -3.67686,3.72223 -0.27149,0.60639 -0.660501,1.28694 -0.864469,1.51232 -0.263104,0.29072 -0.43935,1.67581 -0.606613,4.76726 -0.325496,6.01598 -0.226445,6.93406 0.891449,8.2626 0.354353,0.42112 0.644277,0.9065 0.644277,1.07861 0,0.17211 0.238125,0.46164 0.529167,0.6434 0.291039,0.18176 0.529169,0.53479 0.529169,0.78452 0,0.50157 1.75573,2.1873 2.27812,2.1873 0.44542,0 1.20079,0.78065 1.02717,1.06156 -0.26129,0.42278 1.04371,1.0551 2.17754,1.0551 0.77897,0 1.2967,-0.16494 1.66092,-0.52916 z m -0.1145,18.1901 c -0.0836,-1.34607 -0.21974,-4.1333 -0.30248,-6.19386 -0.17512,-4.3609 0.0532,-5.14763 1.69132,-5.82833 1.02508,-0.42595 3.10983,-1.85197 4.3623,-2.98391 2.29741,-2.07631 4.77177,-6.46747 5.72174,-10.15414 1.28507,-4.98715 1.32321,-8.49193 0.14362,-13.19671 -1.76753,-7.04979 -7.00785,-12.21494 -13.02336,-12.83656 -0.92447,-0.0955 -1.38906,-0.2639 -1.38906,-0.5034 0,-0.22069 0.28138,-0.35267 0.72761,-0.34126 0.64474,0.0165 0.66734,0.0445 0.19843,0.24598 -0.40271,0.17305 -0.24464,0.23087 0.66146,0.24194 0.86151,0.0105 1.08092,-0.0564 0.79375,-0.24194 -0.33917,-0.21919 -0.32955,-0.25707 0.0661,-0.26053 0.25466,-0.002 0.46302,0.17454 0.46302,0.39282 0,0.2407 0.23427,0.38956 0.59531,0.37828 0.56803,-0.0177 0.57107,-0.029 0.0662,-0.24598 -0.41586,-0.1787 -0.30255,-0.2306 0.52916,-0.24238 1.55747,-0.0221 2.20874,0.22276 2.30024,0.86466 0.0713,0.50036 0.23617,0.56305 1.37817,0.52413 1.44781,-0.0493 2.80388,0.69991 2.80388,1.54918 0,0.32839 0.19816,0.47941 0.62907,0.47941 0.34598,0 0.77728,0.17859 0.95843,0.39687 0.18116,0.21828 0.48921,0.39688 0.68455,0.39688 0.19534,0 0.49775,0.26789 0.67201,0.59531 0.30065,0.5649 1.61691,2.33574 2.24003,3.01364 0.15911,0.1731 0.43624,0.71182 0.61584,1.19716 0.1796,0.48533 0.55773,1.39636 0.8403,2.0245 0.58311,1.29629 0.94172,3.68371 1.15982,7.72147 0.0825,1.52797 0.21964,3.27992 0.30468,3.89324 0.085,0.61331 0.0334,1.68487 -0.11479,2.38125 -0.14818,0.69637 -0.41885,1.98051 -0.60149,2.85363 -0.18264,0.87313 -0.49101,1.77547 -0.68526,2.00521 -0.19425,0.22974 -0.35319,0.62152 -0.35319,0.87061 0,0.44787 -1.00553,2.06901 -1.38906,2.23946 -0.35381,0.15725 -0.2098,0.57327 0.19844,0.57327 0.22048,0 0.39687,0.23518 0.39687,0.52916 0,0.3041 -0.17639,0.52917 -0.4147,0.52917 -0.28816,0 -0.36564,0.15461 -0.25389,0.50668 0.10751,0.33873 -0.0201,0.63338 -0.38497,0.88895 -0.37319,0.26139 -0.48755,0.53405 -0.36164,0.86218 0.14323,0.37324 0.0864,0.4424 -0.25548,0.31119 -0.2418,-0.0928 -0.41275,-0.0837 -0.3799,0.0202 0.10469,0.33106 -0.68306,2.03281 -1.04273,2.25258 -0.19045,0.11637 -0.34627,0.36778 -0.34627,0.55867 0,0.1909 -0.47625,1.21351 -1.05833,2.27246 -1.11922,2.03613 -1.3135,2.6578 -0.66146,2.11666 0.26676,-0.22138 0.39687,-0.23366 0.39687,-0.0374 0,0.16056 -0.29765,0.36664 -0.66145,0.45795 -0.36381,0.0913 -0.66146,0.26803 -0.66146,0.39271 0,0.12468 -0.35719,0.63351 -0.79375,1.13073 -0.43657,0.49721 -0.79375,1.02911 -0.79375,1.182 0,0.15288 -0.2193,0.34757 -0.48732,0.43264 -0.26803,0.0851 -0.77404,0.46947 -1.12448,0.85424 -0.72263,0.79342 -0.37198,0.64187 1.34721,-0.58225 0.65485,-0.46628 1.44161,-0.97826 1.74837,-1.13776 0.49279,-0.25621 0.54838,-0.22191 0.47735,0.29453 -0.0442,0.32149 -0.6524,1.98217 -1.3515,3.6904 l -1.27109,3.10589 -2.42862,0.003 -2.42862,0.003 z M 80.95644,130.69436 c -0.0866,-0.14013 -0.08387,-0.37384 0.0061,-0.51936 0.0922,-0.14917 -0.122194,-0.26458 -0.491503,-0.26458 -0.360263,0 -0.703735,0.14613 -0.763269,0.32473 -0.06662,0.19986 -0.507521,-0.0536 -1.146528,-0.65916 -0.571056,-0.54114 -1.12758,-0.98493 -1.23672,-0.98619 -0.395662,-0.005 -0.186177,-0.67642 0.306935,-0.98437 0.277955,-0.17358 0.585072,-0.67847 0.682481,-1.12198 0.168711,-0.76813 0.491437,-1.03649 0.731109,-0.60793 0.06104,0.10914 0.0743,0.0486 0.02947,-0.13459 -0.109825,-0.44874 0.299533,-1.48026 0.776873,-1.9576 0.213605,-0.21361 0.651392,-0.90394 0.972861,-1.53407 0.50932,-0.99835 1.281342,-2.18177 2.893374,-4.43521 0.411832,-0.5757 0.533452,-0.58716 6.316103,-0.59532 l 5.896185,-0.008 -0.904031,0.79375 c -0.497217,0.43656 -0.97761,0.79375 -1.06754,0.79375 -0.08993,0 -0.37786,0.20836 -0.639845,0.46302 -0.261985,0.25466 -1.17554,1.05833 -2.030123,1.78594 -1.40461,1.1959 -5.340117,4.8495 -7.409959,6.87916 -0.445205,0.43657 -1.249341,1.29536 -1.78697,1.90842 -0.537629,0.61307 -1.048364,1.00002 -1.134966,0.8599 z m -3.830395,-8.45686 v -5.02708 h 3.166696 c 2.904592,0 3.152556,0.0383 2.995862,0.46302 -0.09396,0.25466 -0.239728,0.52255 -0.323931,0.59531 -0.272372,0.23536 -1.605294,2.07706 -1.605294,2.21804 0,0.0752 -0.357187,0.66594 -0.79375,1.3128 -0.436562,0.64686 -0.79375,1.30767 -0.79375,1.46847 0,0.1608 -0.100979,0.29236 -0.224399,0.29236 -0.12342,0 -0.439159,0.47625 -0.701642,1.05833 -0.262483,0.58209 -0.566575,1.05834 -0.675759,1.05834 -0.109184,0 -0.323033,0.35718 -0.47522,0.79375 -0.152186,0.43656 -0.342427,0.79375 -0.422758,0.79375 -0.08033,0 -0.146055,-2.26219 -0.146055,-5.02709 z m 24.606245,0.1196 c -0.50932,-0.50086 -1.11364,-0.91127 -1.34294,-0.912 -0.22929,-7.4e-4 -0.696531,-0.299 -1.038306,-0.66281 -0.496338,-0.52832 -0.878385,-0.66145 -1.898203,-0.66145 -0.958541,0 -1.276796,-0.0989 -1.276796,-0.39688 0,-0.23251 0.241064,-0.39687 0.582083,-0.39687 0.747407,0 0.333188,-0.42904 -0.648229,-0.67142 -0.728259,-0.17986 -1.0562,0.23014 -0.396875,0.49619 0.181901,0.0734 -0.02646,0.13936 -0.463021,0.14658 l -0.79375,0.0131 0.86407,-0.78599 c 0.541306,-0.4924 1.150771,-0.78599 1.631597,-0.78599 0.42214,0 0.807794,-0.1208 0.857009,-0.26845 0.05865,-0.17595 2.960651,-0.24432 8.422571,-0.19844 7.57834,0.0637 8.23124,0.10376 7.20861,0.44262 -0.61847,0.20494 -1.12448,0.44575 -1.12448,0.53515 0,0.33902 -3.00118,1.63265 -3.5026,1.50975 -0.18362,-0.045 -0.22991,-0.027 -0.10286,0.04 0.28658,0.15114 -2.07055,1.64352 -2.59586,1.64352 -0.21012,0 -0.45317,0.1151 -0.54011,0.25577 -0.12803,0.20716 -2.71391,1.63208 -2.87146,1.58228 -0.0244,-0.008 -0.46112,-0.42384 -0.97045,-0.9247 z"
         id="path312" /><path
         style="fill:#a4b8c8"
         d="m 101.73229,180.63105 c 0,-1.23435 0.12651,-2.32255 0.28888,-2.48492 0.19223,-0.19223 0.25742,-1.64821 0.19487,-4.35239 -0.10895,-4.71014 -0.34757,-5.43656 -1.97965,-6.02637 -2.732917,-0.98764 -6.385637,-4.70062 -8.149709,-8.28416 -1.940081,-3.94108 -2.363744,-5.90883 -2.379529,-11.05196 -0.01165,-3.79688 0.06599,-4.63982 0.595979,-6.47036 0.86077,-2.97303 2.294268,-5.54202 4.249099,-7.61484 2.721966,-2.88627 6.10866,-4.43846 9.67116,-4.43249 6.72694,0.0113 12.21246,4.86153 14.21021,12.56457 1.25932,4.85575 0.61518,11.7027 -1.52175,16.17571 -1.98249,4.14973 -5.13727,7.49841 -8.45784,8.97768 -1.92239,0.85641 -2.10328,1.41731 -2.04211,6.33203 0.0272,2.18281 0.12491,5.07007 0.21721,6.41614 0.14851,2.16575 0.11758,2.4474 -0.26873,2.4474 -0.37463,0 -0.42421,-0.28159 -0.34951,-1.98499 0.0806,-1.83887 0.0481,-1.98465 -0.44212,-1.98033 -0.31391,0.003 -0.41082,0.0837 -0.23825,0.19906 0.16,0.10691 0.31512,0.99805 0.34471,1.98032 l 0.0538,1.78594 h -1.99835 -1.99836 z m -2.263299,-13.96784 c -2.836946,-1.77349 -5.376852,-4.76467 -7.010896,-8.25654 -4.02778,-8.60717 -2.012468,-20.14945 4.361071,-24.97712 0.88321,-0.669 2.320212,-1.56107 3.193334,-1.98239 1.0387,-0.50122 1.3131,-0.71322 0.79375,-0.61325 -2.995181,0.57655 -6.864328,3.94441 -8.666276,7.54348 -1.617067,3.22981 -2.165356,5.83727 -2.141914,10.18615 0.0169,3.13507 0.127518,4.10236 0.719995,6.2959 1.088896,4.03144 2.842521,7.09841 5.496233,9.61254 1.281482,1.21407 3.832702,3.00927 4.276582,3.00927 0.15768,0 -0.30217,-0.36811 -1.021879,-0.81804 z m 5.246309,-1.39522 c -0.0915,-0.14806 0.10629,-0.18279 0.48135,-0.0845 0.77534,0.20316 2.35648,-0.32676 2.35648,-0.78977 0,-0.20415 0.17231,-0.2693 0.44028,-0.16647 0.27422,0.10523 0.37513,0.0636 0.26756,-0.11052 -0.095,-0.1537 0.0798,-0.3455 0.38841,-0.4262 0.40566,-0.10608 0.52275,-0.29354 0.4226,-0.67651 -0.1784,-0.68222 0.71043,-1.60206 0.94852,-0.9816 0.0989,0.25783 0.0278,0.34734 -0.20513,0.25797 -0.19615,-0.0753 -0.43439,-0.011 -0.52943,0.14273 -0.10516,0.17015 -0.0121,0.21792 0.23782,0.12202 0.48719,-0.18695 0.54217,0.19083 0.0931,0.63988 -0.17463,0.17463 -0.24227,0.3175 -0.15031,0.3175 0.0919,0 0.43684,-0.37868 0.76641,-0.84152 0.35085,-0.49273 0.44057,-0.75876 0.21645,-0.64183 -0.21052,0.10983 -0.0553,-0.0572 0.34484,-0.37117 0.40019,-0.31398 0.72578,-0.70976 0.72356,-0.87952 -0.002,-0.17648 -0.11389,-0.13871 -0.26054,0.0882 -0.14106,0.21828 -0.25451,0.27781 -0.25211,0.13229 0.006,-0.34624 0.65036,-1.19062 0.90899,-1.19062 0.11092,0 0.0691,0.15978 -0.093,0.35507 -0.16207,0.19529 -0.21687,0.43289 -0.12176,0.52799 0.0951,0.0951 0.38963,-0.31112 0.65451,-0.90273 0.26487,-0.59161 0.59026,-1.00848 0.7231,-0.92639 0.13283,0.0821 0.31216,-0.0348 0.3985,-0.25983 0.0863,-0.225 0.0608,-0.34967 -0.0567,-0.27704 -0.11752,0.0726 -0.1546,-0.2486 -0.0824,-0.71386 0.12921,-0.83257 0.13465,-0.83548 0.34464,-0.18446 0.16342,0.50664 0.1907,0.40858 0.11652,-0.41893 -0.0661,-0.73757 0.008,-1.08038 0.23265,-1.08038 0.19351,0 0.28302,0.22748 0.21691,0.55122 -0.0959,0.46979 -0.0549,0.45399 0.27767,-0.10693 0.21463,-0.36197 0.33413,-0.74893 0.26555,-0.85989 -0.0686,-0.11097 -0.014,-0.20176 0.12133,-0.20176 0.13531,0 0.32644,-0.71075 0.42472,-1.57944 0.0983,-0.86869 0.28467,-1.64495 0.41421,-1.725 0.12954,-0.0801 0.23376,-0.35158 0.2316,-0.60337 -0.002,-0.2518 0.0814,-1.31133 0.1857,-2.35451 0.10429,-1.04319 0.10279,-2.11475 -0.003,-2.38125 -0.10612,-0.26651 -0.23352,-1.03154 -0.28312,-1.70009 -0.10207,-1.37578 -1.43851,-5.03999 -1.76469,-4.8384 -0.1175,0.0726 -0.22853,0.006 -0.24672,-0.14816 -0.10085,-0.85444 -0.51597,-1.60311 -0.88887,-1.60311 -0.1849,0 -0.48889,-0.18402 -0.67555,-0.40892 -0.18665,-0.2249 -0.50507,-0.34533 -0.70759,-0.26761 -0.20253,0.0777 -0.29607,0.0245 -0.20788,-0.11816 0.18921,-0.30614 -0.26322,-1.20743 -0.57728,-1.15 -0.11937,0.0218 -0.19769,-0.0377 -0.17404,-0.13229 0.0237,-0.0946 -0.66738,-0.201 -1.53564,-0.23646 -0.86825,-0.0355 -1.80562,-0.18596 -2.08303,-0.33442 -0.3468,-0.18561 -0.85897,-0.17849 -1.63936,0.0228 -0.62423,0.161 -1.55169,0.35619 -2.06102,0.43375 -0.50932,0.0776 -1.02125,0.30469 -1.13762,0.50471 -0.11637,0.20003 -0.38418,0.36369 -0.59513,0.36369 -0.43415,0 -3.294329,2.69869 -3.294329,3.10832 0,0.14656 -0.181282,0.41692 -0.402849,0.6008 -0.232561,0.19301 -0.336866,0.54223 -0.246753,0.82615 0.113055,0.35621 0.02351,0.49182 -0.324756,0.49184 -0.387279,2e-5 -0.573813,0.42478 -0.958573,2.18281 -0.92087,4.2076 -1.077184,6.16524 -0.607053,7.60258 0.232825,0.71182 0.423318,1.68627 0.423318,2.16543 0,0.79604 0.474397,2.27545 1.512875,4.7179 0.216553,0.50933 0.351699,0.97194 0.300324,1.02803 -0.05137,0.0561 0.18482,0.2049 0.524877,0.3307 0.340056,0.12579 0.75401,0.58829 0.919896,1.02778 0.195295,0.51739 0.433551,0.74843 0.675913,0.65543 0.32053,-0.123 0.32142,-0.0785 0.006,0.31009 -0.250012,0.30812 -0.261081,0.38938 -0.0345,0.25321 0.20633,-0.12399 0.64144,0.10729 1.14021,0.60605 0.4436,0.4436 1.29383,0.97127 1.88939,1.17259 0.65031,0.21982 0.93466,0.4247 0.71187,0.5129 -0.25713,0.1018 -0.21894,0.15327 0.12445,0.16775 0.40119,0.0169 0.43513,0.0935 0.17844,0.40283 -0.25914,0.31225 -0.22012,0.37464 0.21386,0.34195 0.29196,-0.022 0.46093,-0.15309 0.3755,-0.29132 z m 2.71761,14.97941 c -0.46195,-7.61342 -0.45477,-9.50324 0.0401,-10.53894 0.31976,-0.66926 0.73868,-1.08215 1.27076,-1.25245 1.67019,-0.53455 4.78019,-3.09103 6.35735,-5.22586 4.24939,-5.7519 5.77709,-13.21451 4.23411,-20.68301 -0.53606,-2.59473 -2.89622,-7.30239 -4.19607,-8.36964 -0.24324,-0.19972 -0.44488,-0.49737 -0.44808,-0.66146 -0.003,-0.16408 -0.53264,-0.65193 -1.17655,-1.08411 -0.6439,-0.43218 -1.11826,-0.83825 -1.05413,-0.90237 0.0641,-0.0641 0.35544,0.0996 0.64738,0.36377 0.29193,0.26419 0.53078,0.38779 0.53078,0.27466 0,-0.11313 0.17338,-0.0618 0.38529,0.11406 0.21191,0.17587 0.50224,0.24747 0.6452,0.15912 0.14295,-0.0883 0.35652,0.003 0.47461,0.20318 0.11808,0.2001 0.48831,0.50751 0.82272,0.68314 0.45081,0.23675 0.56321,0.46056 0.43468,0.86551 -0.10029,0.31597 -0.0684,0.4813 0.0757,0.39225 0.31508,-0.19473 2.98402,2.28859 2.97857,2.77141 -0.003,0.2769 -0.0627,0.26823 -0.26054,-0.0379 -0.21918,-0.33917 -0.25707,-0.32955 -0.26053,0.0661 -0.002,0.25466 0.12775,0.46302 0.28884,0.46302 0.16109,0 0.22199,0.18478 0.13532,0.41062 -0.0867,0.22584 -0.0565,0.34814 0.0671,0.27179 0.2376,-0.14685 0.84525,1.12723 1.37808,2.88946 0.176,0.58209 0.45058,1.14268 0.61018,1.24576 0.20739,0.13395 0.19999,0.2776 -0.026,0.50355 -0.22823,0.22823 -0.23885,0.46055 -0.0382,0.83549 0.16158,0.30192 0.28651,2.47267 0.2984,5.18499 0.0176,4.00772 -0.0561,4.90814 -0.52258,6.38542 -0.29867,0.94589 -0.69571,2.22581 -0.88231,2.84427 -0.18659,0.61847 -0.43927,1.12448 -0.5615,1.12448 -0.12223,0 -0.22223,0.17331 -0.22223,0.38513 0,0.42488 -0.97889,2.02402 -1.86974,3.05446 -0.31452,0.3638 -0.82013,1.16747 -1.12357,1.78593 -0.57805,1.17815 -0.8897,1.34251 -1.50508,0.79375 -0.31537,-0.28122 -0.31861,-0.26163 -0.0217,0.13089 0.19206,0.25388 0.29089,0.68459 0.21962,0.95713 -0.0881,0.33704 0.004,0.48558 0.28936,0.46443 0.23042,-0.0171 0.46201,0.17727 0.51463,0.43193 0.059,0.28532 -0.0641,0.46302 -0.32059,0.46302 -0.26764,0 -0.41628,0.23618 -0.41628,0.66146 0,0.3638 -0.11255,0.66146 -0.25013,0.66146 -0.13757,0 -0.68305,0.8632 -1.21218,1.91823 -0.52914,1.05502 -1.06853,2.09682 -1.19867,2.3151 -0.13013,0.21828 -0.44157,0.87313 -0.69209,1.45521 -0.25051,0.58208 -0.50145,1.14763 -0.55763,1.25677 -0.0562,0.10914 0.0934,0.19844 0.3324,0.19844 0.2408,0 0.35666,0.126 0.25986,0.28262 -0.0961,0.15544 -0.3474,0.21633 -0.55852,0.13532 -0.21112,-0.081 -0.31325,-0.0331 -0.22696,0.10656 0.0863,0.13962 -0.1566,0.52521 -0.53977,0.85687 -0.38317,0.33165 -0.82009,0.83216 -0.97095,1.11225 -0.2633,0.48885 -0.23758,0.48759 0.6425,-0.0317 0.50424,-0.2975 1.25811,-0.76456 1.67528,-1.0379 l 0.75849,-0.49698 -0.4423,0.79324 c -0.7745,1.38902 -1.25266,2.8151 -1.25266,3.73597 v 0.89373 h -1.70164 -1.70163 z M 77.129946,126.5526 c -0.0021,-0.31884 0.115162,-0.65329 0.260683,-0.74322 0.14552,-0.0899 0.264583,-0.28259 0.264583,-0.42811 0,-0.14552 -0.119063,-0.191 -0.264583,-0.10106 -0.172059,0.10634 -0.264584,-1.27607 -0.264584,-3.95313 v -4.11666 h 2.910417 c 3.311623,0 3.383417,0.0614 2.116666,1.81009 -0.436562,0.60266 -0.79375,1.2031 -0.79375,1.33431 0,0.13121 -0.148828,0.29865 -0.330729,0.37209 -0.181901,0.0734 -0.623932,0.71125 -0.982292,1.41737 -0.35836,0.70611 -0.9063,1.64103 -1.217644,2.0776 -0.311344,0.43656 -0.647888,0.97234 -0.747876,1.19062 -0.09999,0.21828 -0.353965,0.69453 -0.564394,1.05834 -0.369287,0.63844 -0.382733,0.64129 -0.386497,0.0818 z"
         id="path311" /><path
         style="fill:#9faab3"
         d="m 101.73229,180.59374 c 0,-1.22834 0.11907,-2.30692 0.26459,-2.39686 0.1566,-0.0968 0.26458,-1.72076 0.26458,-3.97901 0,-5.03448 -0.22744,-5.64556 -2.506019,-6.73303 -1.936764,-0.92433 -5.043239,-3.69462 -6.349128,-5.66203 -2.482576,-3.74016 -3.598304,-7.46818 -3.770286,-12.59781 -0.149094,-4.44694 0.431696,-7.49095 2.060603,-10.79994 5.64309,-11.46348 19.97732,-11.29232 25.39823,0.30327 1.33432,2.85416 1.92405,5.72461 1.93909,9.43834 0.0182,4.50299 -0.91699,8.34482 -2.93056,12.03854 -1.43186,2.62662 -4.95016,6.12645 -7.27304,7.23486 -1.55856,0.7437 -1.81612,0.97501 -2.19743,1.97346 -0.44037,1.1531 -0.43889,4.10336 0.006,10.96616 0.10762,1.66199 0.0675,2.4474 -0.12488,2.4474 -0.17624,0 -0.28336,-0.75019 -0.28336,-1.98438 v -1.98437 l -1.12448,0.0209 c -0.61846,0.0115 -0.94588,0.0804 -0.7276,0.15325 1.204,0.40156 1.20749,0.40489 0.66146,0.62941 -0.29105,0.11967 -0.38034,0.22596 -0.19844,0.23618 0.22224,0.0125 0.33073,0.49595 0.33073,1.47381 v 1.45521 h -1.71979 -1.7198 z m -2.263299,-13.93053 c -2.836946,-1.77349 -5.376852,-4.76467 -7.010896,-8.25654 -4.02778,-8.60717 -2.012468,-20.14945 4.361071,-24.97712 0.88321,-0.669 2.320212,-1.56107 3.193334,-1.98239 1.0387,-0.50122 1.3131,-0.71322 0.79375,-0.61325 -2.994586,0.57643 -6.863378,3.9437 -8.667008,7.54348 -1.646434,3.28605 -2.13621,5.59792 -2.129937,10.05386 0.0046,3.25701 0.106994,4.21922 0.678033,6.37063 1.054778,3.97391 2.873778,7.15649 5.52695,9.6701 1.281482,1.21407 3.832702,3.00927 4.276582,3.00927 0.15768,0 -0.30217,-0.36811 -1.021879,-0.81804 z m 8.084139,-1.86166 c 1.91743,-0.82274 4.98006,-4.26485 6.45381,-7.25348 2.03531,-4.12742 2.61788,-7.48409 2.04182,-11.7645 -0.34768,-2.58336 -0.7958,-4.00316 -1.94451,-6.16083 -1.2798,-2.4039 -4.98042,-5.47899 -6.59352,-5.47899 -0.28686,0 -0.76464,-0.13009 -1.06174,-0.28909 -0.3759,-0.20118 -0.62433,-0.20494 -0.81688,-0.0124 -0.19118,0.19118 -0.43476,0.19213 -0.78801,0.003 -0.28121,-0.1505 -0.58047,-0.20446 -0.66502,-0.11991 -0.0845,0.0846 0.0149,0.15446 0.2211,0.15536 0.53338,0.002 -0.68659,0.58801 -2.46945,1.18556 -0.83674,0.28044 -1.52135,0.64345 -1.52135,0.80668 0,0.16324 -0.498621,0.52553 -1.108044,0.80511 -0.609424,0.27957 -1.136275,0.66012 -1.170782,0.84565 -0.03451,0.18554 -0.0022,0.21531 0.07176,0.0661 0.07397,-0.14916 0.258216,-0.2712 0.409428,-0.2712 0.165988,0 0.144414,0.15727 -0.05445,0.39688 -0.181158,0.21828 -0.58269,0.3987 -0.892293,0.40092 -0.469084,0.003 -0.496761,0.0504 -0.166041,0.28192 0.317888,0.22256 0.287438,0.24741 -0.152999,0.12483 -0.45451,-0.12649 -0.60167,0.0157 -0.848529,0.82008 -0.164261,0.53521 -0.221384,1.10229 -0.126941,1.26018 0.09959,0.16649 0.0077,0.15451 -0.218678,-0.0285 -0.702914,-0.56824 -1.111762,0.10396 -1.479376,2.43226 -0.06893,0.43657 -0.288956,1.04885 -0.488951,1.36063 -0.444229,0.69253 -0.699355,6.70917 -0.284492,6.70917 0.146419,0 0.118383,0.14783 -0.0623,0.32851 -0.261634,0.26164 -0.379316,0.24817 -0.578032,-0.0661 -0.326398,-0.51627 -0.329912,-2.30973 -0.0047,-2.42314 0.15133,-0.0528 0.167452,-0.46473 0.04015,-1.0259 -0.116995,-0.51573 -0.129698,-1.17058 -0.02823,-1.45521 0.355335,-0.99674 0.545453,-2.39587 0.268058,-1.97271 -0.20761,0.31671 -0.262606,0.26327 -0.272259,-0.26458 -0.01105,-0.60439 -0.03689,-0.61879 -0.299415,-0.16693 -0.18133,0.3121 -0.193152,0.55611 -0.03205,0.66146 0.161822,0.10582 0.12994,0.99022 -0.08709,2.41589 -0.424792,2.79045 -0.452887,3.96875 -0.09463,3.96875 0.169539,0 0.213243,0.33758 0.112929,0.87229 -0.196649,1.04823 0.604562,3.35833 0.966661,2.78714 0.172959,-0.27283 0.224147,-0.25274 0.227286,0.0892 0.0022,0.24276 0.08382,0.64924 0.181307,0.9033 0.12085,0.31493 0.07875,0.40104 -0.132292,0.27061 -0.17025,-0.10522 -0.309546,-0.14585 -0.309546,-0.0903 0,0.30497 1.604309,3.34895 1.842689,3.49628 0.155435,0.0961 0.202739,0.30389 0.105121,0.46184 -0.116548,0.18858 -0.0515,0.20931 0.18947,0.0604 0.201827,-0.12474 0.57535,-0.24215 0.83005,-0.26091 0.364604,-0.0269 0.398696,0.0435 0.160299,0.33073 -0.245828,0.2962 -0.343759,0.30026 -0.520535,0.0216 -0.127813,-0.20149 -0.219415,-0.22306 -0.221793,-0.0522 -0.0071,0.50786 1.570192,2.48709 1.981983,2.48709 0.217369,0 0.395216,0.1562 0.395216,0.34712 0,0.58367 3.428951,2.75247 3.911671,2.47412 0.10415,-0.0601 0.42749,-0.01 0.71853,0.11175 0.74948,0.31293 2.96377,0.0159 4.36563,-0.58561 z m 0,14.0724 c 0,-0.57349 -0.11906,-1.1163 -0.26459,-1.20624 -0.14552,-0.0899 -0.26458,-1.22432 -0.26458,-2.52085 0,-1.98078 0.063,-2.33314 0.39465,-2.20589 0.225,0.0863 0.46438,-0.0303 0.55689,-0.27137 0.0892,-0.23254 0.26967,-0.35641 0.40097,-0.27527 0.1313,0.0812 0.31016,-0.0386 0.39746,-0.2661 0.0873,-0.2275 0.31199,-0.41364 0.49932,-0.41364 0.18732,0 0.72426,-0.35841 1.1932,-0.79646 0.46893,-0.43806 1.16613,-0.85549 1.54933,-0.92763 0.3832,-0.0721 0.5202,-0.0518 0.30444,0.0453 -0.57623,0.25917 -1.4718,1.47863 -1.37988,1.87891 0.0573,0.24938 -0.12742,0.30069 -0.6617,0.18381 -0.53175,-0.11632 -0.63539,-0.088 -0.36683,0.10026 0.31988,0.22423 0.30534,0.48704 -0.10004,1.80734 -0.2609,0.84972 -0.48887,1.86245 -0.5066,2.2505 -0.0325,0.71184 -0.42913,1.40466 -0.42913,0.74965 0,-0.19402 -0.0765,-0.27628 -0.16999,-0.18278 -0.0935,0.0935 -0.0234,0.34659 0.15569,0.56243 0.41475,0.49974 0.11192,2.0016 -0.40359,2.0016 -0.20672,0 -0.37586,0.11907 -0.37586,0.26459 0,0.14552 -0.11906,0.26458 -0.26458,0.26458 -0.14552,0 -0.26458,-0.46922 -0.26458,-1.04272 z"
         id="path310" /><path
         style="fill:#c3360c"
         d="m 101.83449,181.43802 c 0.0932,-0.76398 0.25721,-3.65125 0.36439,-6.41614 l 0.19487,-5.02708 0.14309,3.96875 0.14309,3.96875 0.0554,-4.28226 c 0.0304,-2.35524 -0.0593,-4.5837 -0.19934,-4.95213 -0.16595,-0.43649 -0.80311,-0.94673 -1.8288,-1.46449 -5.277202,-2.66392 -8.993021,-8.39699 -10.100665,-15.58412 -0.403712,-2.61956 0.07014,-7.64141 0.977719,-10.3618 1.482922,-4.44492 4.05702,-7.52213 7.869523,-9.40762 1.480143,-0.73201 2.972663,-1.26423 3.866073,-1.37859 l 1.45521,-0.18629 -1.19062,-0.16255 c -1.11415,-0.15211 -1.08016,-0.1649 0.52916,-0.19915 5.88281,-0.12519 11.25351,4.01181 13.57867,10.45952 0.98419,2.72918 1.3299,5.43942 1.16589,9.14001 -0.17053,3.84747 -0.82648,6.58406 -2.29967,9.59405 -1.81179,3.70182 -4.92277,6.93774 -8.12965,8.45613 -2.36035,1.11757 -2.36443,1.14581 -1.85519,12.84283 0.0539,1.23692 0.0575,1.53458 0.008,0.66146 -0.1627,-2.8735 -0.0823,-2.77813 -2.34082,-2.77813 h -1.97934 v 2.24896 c 0,1.49214 -0.10036,2.24896 -0.29825,2.24896 -0.20492,0 -0.2452,-0.43463 -0.12872,-1.38907 z m 6.15812,-16.77385 c 5.35604,-3.13885 9.11217,-11.38302 8.29998,-18.21729 -0.77219,-6.49774 -3.50864,-10.51183 -8.62061,-12.64556 -3.12787,-1.30556 -4.30589,-1.30936 -6.83489,-0.022 -2.569839,1.30812 -3.881341,2.29071 -5.201824,3.89725 -2.327221,2.83136 -3.427971,6.39993 -3.427971,11.11329 0,3.7846 0.845806,6.70509 3.012562,10.40209 1.632115,2.78478 4.826803,5.6785 6.839353,6.19502 0.47504,0.12192 1.71876,0.17656 2.76382,0.12143 1.48769,-0.0785 2.17564,-0.26172 3.16958,-0.84421 z"
         id="path309" /><path
         style="fill:#462924"
         d="m 102.52604,165.78088 c -2.0006,-0.42927 -3.043095,-1.03453 -4.767797,-2.76814 -1.958247,-1.96835 -3.084213,-3.65859 -4.249706,-6.3794 -1.353516,-3.15976 -1.67031,-4.71738 -1.66816,-8.20209 0.0035,-5.73049 1.757698,-10.12782 5.207225,-13.05347 0.75757,-0.64252 1.859189,-1.41121 2.448041,-1.7082 1.180797,-0.59554 3.456387,-1.09578 2.765817,-0.60801 -0.21828,0.15418 -0.60523,0.28215 -0.85989,0.28438 -0.25467,0.002 -0.46331,0.0934 -0.46365,0.20249 -3.5e-4,0.10914 -0.68297,0.555 -1.516936,0.99079 -3.248924,1.69776 -5.977995,5.51173 -6.789492,9.48855 -0.534211,2.61796 -0.54915,6.98757 -0.0307,8.97805 1.292695,4.96299 4.511128,9.69753 7.976978,11.73469 1.15999,0.68181 1.5215,0.75602 3.66807,0.75288 2.16409,-0.003 2.50139,-0.0751 3.69875,-0.78834 5.43197,-3.23592 9.16338,-11.397 8.348,-18.25818 -0.74563,-6.27423 -3.18996,-10.02905 -8.12523,-12.48143 -2.01108,-0.99933 -2.19375,-1.14226 -1.32018,-1.03304 3.72593,0.46587 7.32232,4.24405 9.08644,9.54572 0.61882,1.85974 0.70605,2.55023 0.71863,5.68854 0.0171,4.25742 -0.34403,5.87684 -2.12393,9.525 -2.39901,4.91713 -5.75847,7.92947 -9.22415,8.27106 -0.7276,0.0717 -1.97776,-0.0101 -2.77813,-0.18185 z"
         id="path308" /></g></g></svg>
