<?xml version="1.0" encoding="UTF-8" standalone="no"?>
<!-- Created with Inkscape (http://www.inkscape.org/) -->

<svg
   width="53.711037mm"
   height="65.623367mm"
   viewBox="0 0 53.711037 65.623367"
   version="1.1"
   id="svg1"
   inkscape:export-filename="starter-training.svg"
   inkscape:export-xdpi="96"
   inkscape:export-ydpi="96"
   xml:space="preserve"
   xmlns:inkscape="http://www.inkscape.org/namespaces/inkscape"
   xmlns:sodipodi="http://sodipodi.sourceforge.net/DTD/sodipodi-0.dtd"
   xmlns="http://www.w3.org/2000/svg"
   xmlns:svg="http://www.w3.org/2000/svg"><sodipodi:namedview
     id="namedview1"
     pagecolor="#ffffff"
     bordercolor="#000000"
     borderopacity="0.25"
     inkscape:showpageshadow="2"
     inkscape:pageopacity="0.0"
     inkscape:pagecheckerboard="0"
     inkscape:deskcolor="#d1d1d1"
     inkscape:document-units="mm"><inkscape:page
       x="0"
       y="0"
       width="53.711037"
       height="65.623367"
       id="page2"
       margin="0"
       bleed="0" /></sodipodi:namedview><defs
     id="defs1" /><g
     inkscape:label="Calque 1"
     inkscape:groupmode="layer"
     id="layer1"
     transform="translate(-72.936922,-117.68796)"><g
       id="g279"
       transform="translate(-19.270295,3.6531366)"><path
         style="fill:#d2e5f2"
         d="m 92.207291,146.84376 v -32.80834 h 26.855209 26.85521 v 32.80834 32.80833 H 119.0625 92.207291 Z"
         id="path286" /><path
         style="fill:#c6dae9"
         d="m 106.09792,177.91414 c 2.32833,-0.95923 4.44169,-1.80792 4.69635,-1.88599 0.25466,-0.0781 0.46302,-0.24712 0.46302,-0.37567 0,-0.12855 0.14883,-0.23382 0.33073,-0.23393 0.59462,-3.8e-4 5.42273,-2.57001 7.08368,-3.7701 0.97337,-0.70329 0.2807,-0.54705 -1.06441,0.24009 -1.00959,0.5908 -1.46779,0.68908 -3.0135,0.64638 -1.00259,-0.0277 -2.23752,-0.22359 -2.7443,-0.43534 -0.50677,-0.21174 -1.32359,-0.38499 -1.81514,-0.38499 -0.7102,0 -0.89373,-0.10612 -0.89373,-0.51678 0,-0.68626 -2.05894,-1.59988 -3.6055,-1.59988 h -1.157 v -1.32292 -1.32292 h -1.05833 -1.05833 v -5.29167 c 0,-3.35138 0.097,-5.29166 0.26458,-5.29166 0.14842,0 0.27275,-0.7841 0.28318,-1.78594 0.0114,-1.09557 0.0958,-1.58886 0.21832,-1.27612 0.18533,0.4731 0.21258,0.47631 0.37828,0.0445 0.40361,-1.05181 0.23143,-1.21579 -1.27665,-1.21579 h -1.45521 v -1.05833 -1.05833 h -1.058336 c -0.999537,0 -1.058334,-0.0441 -1.058334,-0.79375 0,-0.74966 -0.0588,-0.79375 -1.058333,-0.79375 -0.582083,0 -1.058333,-0.11906 -1.058333,-0.26459 0,-0.15434 -0.881945,-0.26458 -2.116667,-0.26458 h -2.116666 v -16.93333 -16.93334 h 26.855209 26.85521 v 32.80834 32.80833 h -6.23573 -6.23572 l 0.54718,-0.76845 c 0.30095,-0.42264 0.54718,-0.85516 0.54718,-0.96115 0,-0.10599 0.21944,-0.38526 0.48764,-0.62061 0.26819,-0.23535 0.63257,-0.72557 0.80971,-1.08937 0.35598,-0.73107 0.1251,-0.4937 -2.12312,2.18281 l -1.05567,1.25677 h -6.37224 -6.37224 l 0.97078,-0.65879 c 1.93762,-1.3149 3.86556,-2.84963 3.86556,-3.07716 0,-0.12804 0.20836,-0.2422 0.46302,-0.25369 0.25466,-0.0115 0.3237,-0.0778 0.15342,-0.14729 -0.28033,-0.11446 -1.28764,0.53687 -4.84977,3.13592 l -1.19063,0.86872 -8.73125,0.0692 -8.73125,0.0692 z m 17.19791,-14.6737 c 1.01865,-0.14387 2.20927,-0.39166 2.64583,-0.55063 1.12004,-0.40786 2.09377,-0.86759 2.24896,-1.06181 0.0728,-0.0911 0.50198,-0.38902 0.95381,-0.66212 2.17126,-1.31238 3.23356,-3.63306 3.67884,-8.03671 0.216,-2.13606 1.84961,-10.77165 2.38186,-12.59096 0.5985,-2.04578 0.51756,-4.47316 -0.18787,-5.63406 -0.8413,-1.3845 -1.39074,-1.80146 -4.04851,-3.07233 -6.32798,-3.02587 -15.04734,-3.83698 -20.6375,-1.91978 -2.44104,0.83717 -4.07417,2.11539 -4.09268,3.20325 -0.006,0.32982 -0.14084,0.4405 -0.41136,0.33669 -0.33445,-0.12834 -0.35266,-0.0606 -0.10708,0.39829 0.18998,0.35496 0.24367,1.41855 0.14996,2.97061 -0.16749,2.77425 -0.15755,2.47665 -0.18652,5.58929 -0.0122,1.30783 -0.11296,2.43893 -0.22398,2.51354 -0.29095,0.19557 -0.54992,1.35606 -0.26304,1.17876 0.13195,-0.0815 0.23991,0.38751 0.23991,1.04235 0,0.65484 -0.11907,1.26421 -0.26459,1.35415 -0.14552,0.0899 -0.26276,0.30532 -0.26053,0.47863 0.003,0.19477 0.11308,0.16355 0.28954,-0.0818 0.22969,-0.3193 0.24932,-0.29344 0.10044,0.13229 -0.10178,0.29104 -0.21496,0.94589 -0.25151,1.45521 -0.0365,0.50932 -0.15768,1.66311 -0.26917,2.56396 -0.33066,2.6716 -0.0877,3.31714 2.06092,5.47523 3.95243,3.96991 10.11833,5.81279 16.45427,4.91791 z m -6.84771,-0.66333 c -3.81265,-0.72133 -7.21208,-2.44601 -9.42567,-4.78207 -1.71232,-1.80706 -1.99459,-2.87745 -1.47384,-5.58892 0.58187,-3.0297 0.64873,-3.87551 0.81078,-10.25715 0.24153,-9.51111 0.26535,-9.62009 2.37201,-10.85467 4.2442,-2.48727 13.7796,-2.24044 20.71294,0.53616 4.34475,1.73995 5.62276,3.07 5.62446,5.85347 5.4e-4,0.89121 -0.15934,2.08183 -0.3553,2.64583 -0.19596,0.564 -0.56232,2.15655 -0.81415,3.539 -0.25182,1.38245 -0.63365,3.26097 -0.84852,4.1745 -0.21486,0.91353 -0.50935,2.759 -0.65441,4.10105 -0.61944,5.73078 -1.57885,7.60454 -4.82815,9.42957 -2.42055,1.35954 -7.42932,1.9015 -11.12015,1.20323 z m -9.70263,-8.32502 c 0.57332,-2.19297 0.87937,-5.11039 0.84654,-8.06979 -0.0468,-4.22323 0.4,-9.70882 0.93754,-11.50938 0.23894,-0.80036 0.46626,-1.62188 0.50516,-1.82559 0.0389,-0.20372 0.20786,-0.45515 0.37548,-0.55875 0.16763,-0.1036 0.30052,-0.29411 0.29532,-0.42336 -0.005,-0.12925 0.37158,-0.43837 0.8373,-0.68694 1.33206,-0.71095 0.17518,-0.5493 -1.28411,0.17943 -0.7198,0.35944 -1.47881,0.92499 -1.6867,1.25677 -0.28299,0.45165 -0.43022,2.19888 -0.58592,6.95324 -0.21187,6.46978 -0.55338,10.82005 -1.04231,13.27736 -0.20199,1.01514 -0.18699,1.66771 0.0577,2.51354 0.27546,0.95202 0.34483,1.03218 0.41621,0.48097 0.0471,-0.3638 0.1946,-1.07818 0.32775,-1.5875 z"
         id="path285" /><path
         style="fill:#b7cfe1"
         d="m 109.35427,178.52761 c -0.0777,-1.07353 -0.11732,-1.12125 -0.8751,-1.0533 l -0.79375,0.0712 0.79375,-0.37153 c 0.43656,-0.20434 1.24023,-0.56937 1.78593,-0.81119 0.54571,-0.24182 0.99219,-0.55315 0.99219,-0.69184 0,-0.1387 0.18513,-0.25217 0.41139,-0.25217 0.71908,0 3.8436,-1.46181 5.67403,-2.6546 0.65484,-0.42673 1.5564,-0.96847 2.00346,-1.20387 0.44707,-0.2354 0.97221,-0.68393 1.16699,-0.99674 0.32069,-0.51503 0.31327,-0.53497 -0.0785,-0.21118 -0.3488,0.28824 -0.83869,0.30293 -2.5268,0.0757 -2.49753,-0.33611 -5.39125,-1.57557 -7.00759,-3.00152 -0.28151,-0.24835 -1.01776,-0.68936 -1.63611,-0.98002 -1.15095,-0.54101 -2.24016,-1.66335 -2.24016,-2.30828 0,-0.19866 -0.11298,-0.3612 -0.25107,-0.3612 -0.40498,0 -1.8656,-3.30582 -1.8656,-4.22241 0,-0.4617 0.13094,-1.08413 0.29098,-1.38316 0.18802,-0.35132 0.19369,-0.48357 0.016,-0.37376 -0.15923,0.0984 -0.25801,-0.0552 -0.23467,-0.36495 0.0482,-0.6396 0.11122,-0.65373 0.62491,-0.14004 0.21716,0.21717 0.30932,0.53322 0.2048,0.70234 -0.11879,0.19221 -0.0745,0.23608 0.11815,0.11702 0.18006,-0.11128 0.77457,0.25659 1.42994,0.8848 1.24946,1.19769 4.56313,3.03043 6.48345,3.5859 3.74909,1.08445 8.77651,1.14353 12.02096,0.14127 2.27657,-0.70327 4.65553,-2.47641 5.53792,-4.12765 0.82388,-1.54175 1.19205,-3.06201 1.56235,-6.45127 0.15046,-1.37708 0.44781,-3.22255 0.66078,-4.10104 0.4268,-1.76056 1.63584,-7.53105 1.97001,-9.40247 0.50511,-2.82871 -0.37702,-4.76822 -2.84126,-6.24699 -0.75433,-0.45267 -1.28911,-0.90545 -1.18839,-1.00617 0.10073,-0.10073 -0.0216,-0.10458 -0.27182,-0.009 -0.26991,0.10357 -0.45495,0.0491 -0.45495,-0.13393 0,-0.16968 -0.11089,-0.23997 -0.24642,-0.15621 -0.21975,0.13581 -0.94112,-0.11548 -2.86749,-0.9989 -0.43866,-0.20117 -0.50992,-0.33272 -0.26458,-0.48844 0.18468,-0.11722 0.21076,-0.21494 0.058,-0.21717 -0.1528,-0.002 -0.41871,0.13684 -0.59091,0.30904 -0.1722,0.1722 -0.40092,0.22525 -0.50827,0.1179 -0.10735,-0.10735 -0.02,-0.30595 0.19403,-0.44133 0.21406,-0.13538 0.26419,-0.24797 0.1114,-0.25019 -0.1528,-0.002 -0.40138,0.1195 -0.55239,0.27052 -0.34563,0.34563 -2.53137,0.0273 -2.30686,-0.33597 0.0971,-0.15717 -0.057,-0.1908 -0.39012,-0.0851 -0.70049,0.22232 -2.59642,-0.11381 -2.16073,-0.38308 0.19068,-0.11785 -0.0367,-0.24922 -0.56914,-0.3288 -0.48769,-0.0729 -0.94917,-0.0353 -1.02552,0.0836 -0.2147,0.33431 -4.22681,0.26761 -4.22681,-0.0703 0,-0.19263 0.58485,-0.23534 1.78594,-0.13042 1.66577,0.14551 1.7241,0.13318 0.86691,-0.18315 l -0.91904,-0.33915 0.91904,-0.21896 c 0.50546,-0.12043 1.94947,-0.19316 3.20889,-0.16162 1.28693,0.0322 2.36055,-0.057 2.45124,-0.20376 0.28132,-0.45519 -0.82302,-0.60429 -4.15149,-0.56051 -1.77949,0.0234 -3.4438,0.0322 -3.69847,0.0196 -0.35707,-0.0177 -0.46302,-0.25669 -0.46302,-1.04456 0,-0.92478 -0.058,-1.01056 -0.6114,-0.90477 -0.34297,0.0656 -0.75306,-0.0538 -0.93404,-0.27188 -0.27008,-0.32542 -0.012,-0.58751 1.58426,-1.60877 2.05415,-1.31423 3.00408,-1.5239 3.25941,-0.71942 0.17487,0.55096 0.87688,0.81318 2.19188,0.8187 0.80703,0.003 0.85989,-0.0533 0.85989,-0.92243 0,-1.00873 -0.51534,-1.24224 -1.20952,-0.54806 -0.54151,0.54151 -0.46726,0.89094 0.21734,1.0228 0.4305,0.0829 0.35725,0.12463 -0.26459,0.15069 -0.62549,0.0262 -0.85989,-0.0789 -0.85989,-0.38561 0,-0.23191 -0.23813,-0.48392 -0.52917,-0.56003 -0.57387,-0.15007 -0.74083,-1.12204 -0.19844,-1.15524 0.81904,-0.0501 1.29393,-0.23516 1.97147,-0.76812 0.48521,-0.38166 0.76277,-0.46779 0.83258,-0.25836 0.0576,0.1728 -0.0388,0.4029 -0.2143,0.51134 -0.22977,0.14201 -0.19414,0.24508 0.12738,0.36846 0.28375,0.10888 0.76687,-0.0946 1.326,-0.5585 0.88406,-0.73348 1.20323,-1.64224 0.58708,-1.67157 -0.1819,-0.009 0.29435,-0.3096 1.05833,-0.66875 0.76399,-0.35916 1.38907,-0.76879 1.38907,-0.9103 0,-0.14151 0.35016,-0.25729 0.77813,-0.25729 0.42798,0 0.85191,-0.11938 0.94209,-0.26528 0.20804,-0.33662 2.35473,-1.32222 2.87985,-1.32222 0.21768,0 0.46936,-0.11906 0.5593,-0.26458 0.10259,-0.16599 2.86907,-0.26459 7.42395,-0.26459 h 7.26043 v 3.175 3.175 h -5.68855 -5.68854 v 1.05834 1.05833 h -2.11666 -2.11667 v 1.05833 1.05834 h 1.05833 1.05834 v 1.45521 1.4552 h 1.05833 c 0.76435,0 1.05833,-0.11024 1.05833,-0.39687 0,-0.28663 0.29398,-0.39688 1.05834,-0.39688 1.04439,0 1.05849,0.0131 1.07058,0.99219 0.0103,0.8351 0.17593,1.11786 1.04608,1.78594 0.56861,0.43656 1.04486,0.91281 1.05834,1.05833 0.0135,0.14552 0.48972,0.62177 1.05833,1.05834 1.06554,0.81809 1.30429,1.32092 0.7276,1.53237 -0.26458,0.097 -0.26458,0.19139 0,0.47184 0.1819,0.19282 0.33073,0.62442 0.33073,0.95912 0,0.36454 0.15914,0.60854 0.39688,0.60854 0.28522,0 0.39687,0.29153 0.39687,1.03629 0,0.58805 0.14157,1.08347 0.3273,1.14538 0.50404,0.16801 0.34443,7.69752 -0.20308,9.58092 -0.23293,0.80124 -0.53476,1.52556 -0.67074,1.60959 -0.13597,0.084 -0.24723,0.91968 -0.24723,1.85698 0,0.95973 -0.11558,1.70417 -0.26458,1.70417 -0.14552,0 -0.26458,0.1786 -0.26458,0.39688 0,0.21828 0.11906,0.39687 0.26458,0.39687 0.14552,0 0.26458,-0.17859 0.26458,-0.39687 0,-0.21828 0.16163,-0.39688 0.35919,-0.39688 0.45839,0 0.76247,2.67555 0.52943,4.65835 -0.15534,1.32169 -0.11656,1.46615 0.53023,1.9749 0.64592,0.50809 0.69782,0.70018 0.69782,2.58293 0,1.80301 -0.0751,2.11504 -0.66146,2.74738 -0.47889,0.51646 -0.66146,1.00864 -0.66146,1.78323 0,0.77462 -0.10953,1.06988 -0.39687,1.06988 -0.25888,0 -0.39357,0.25301 -0.38736,0.72761 l 0.01,0.7276 0.65063,-0.79375 c 0.4334,-0.52874 0.65107,-1.12501 0.65194,-1.78594 0.001,-0.92575 0.0545,-0.99219 0.79507,-0.99219 0.74965,0 0.79375,-0.0588 0.79375,-1.05833 v -1.05833 h 1.05833 1.05834 v 2.11666 c 0,1.7051 -0.0772,2.11667 -0.39688,2.11667 -0.21828,0 -0.39687,0.1786 -0.39687,0.39688 0,0.21828 0.17859,0.39687 0.39687,0.39687 0.34102,0 0.39688,0.83785 0.39688,5.95313 v 5.95312 h -6.08542 c -3.56306,0 -6.08542,-0.10171 -6.08542,-0.24538 0,-0.13496 0.29766,-0.47951 0.66146,-0.76568 0.3638,-0.28617 0.66146,-0.63091 0.66146,-0.76609 0,-0.13519 0.71437,-1.22105 1.5875,-2.41302 0.87312,-1.19198 1.5875,-2.28463 1.5875,-2.42811 0,-0.14349 0.11906,-0.26088 0.26458,-0.26088 0.14552,0 0.26459,-0.1786 0.26459,-0.39688 0,-0.21828 0.10517,-0.39687 0.23372,-0.39687 0.12855,0 0.30527,-0.20836 0.39271,-0.46303 0.0874,-0.25466 0.45335,-0.93927 0.81313,-1.52135 0.35978,-0.58208 0.65932,-1.14646 0.66563,-1.25418 0.0221,-0.37811 -1.09279,0.73309 -1.48612,1.48114 -0.53939,1.02583 -2.7249,3.98511 -3.02395,4.09457 -0.13253,0.0485 -0.24096,0.20565 -0.24096,0.3492 0,0.32082 -1.47749,2.49897 -2.30382,3.39636 -0.33363,0.36231 -0.60659,0.762 -0.60659,0.8882 0,0.1262 -0.17253,0.16324 -0.3834,0.0823 -0.25626,-0.0983 -0.33461,-0.02 -0.23628,0.23627 0.12593,0.32818 -0.75766,0.3834 -6.13457,0.3834 h -6.2817 l 0.67273,-0.52916 c 0.37,-0.29105 0.75176,-0.52917 0.84836,-0.52917 0.27779,0 5.20671,-3.96226 6.14355,-4.93867 0.46553,-0.48519 0.92052,-0.88216 1.01109,-0.88216 0.2657,0 0.99565,-0.80693 0.85615,-0.94643 -0.0701,-0.0701 -0.52188,0.24095 -1.00392,0.69125 -0.48205,0.4503 -1.22831,1.01935 -1.65837,1.26456 -1.29253,0.73696 -1.64002,0.95927 -2.04543,1.30855 -0.21295,0.18345 -0.80389,0.69128 -1.31321,1.12851 -0.54304,0.46617 -1.12619,0.74656 -1.40997,0.67794 -0.33213,-0.0803 -0.43949,-0.001 -0.34228,0.25207 0.0779,0.20301 0.0423,0.43051 -0.0792,0.50557 -0.35604,0.22004 -2.92834,0.22332 -4.71702,0.006 l -1.65365,-0.20091 v 1.09603 1.09602 h -3.02749 -3.0275 z m 7.28999,-15.917 c -3.72574,-0.71146 -6.69218,-2.09962 -9.0062,-4.2145 -2.26355,-2.06876 -2.69577,-3.36095 -2.05743,-6.15097 0.50105,-2.19001 0.91154,-8.177 0.91456,-13.33888 0.001,-2.4011 0.13287,-4.83501 0.29214,-5.40869 0.6876,-2.47661 3.98909,-3.8694 9.61836,-4.05764 4.87155,-0.16291 9.34271,0.63939 13.67874,2.45449 2.55895,1.0712 4.10053,2.23132 4.62135,3.47782 0.47073,1.1266 0.46372,3.09637 -0.0169,4.74277 -0.20947,0.71763 -0.6302,2.61448 -0.93495,4.21521 -0.30475,1.60073 -0.66515,3.32713 -0.80088,3.83645 -0.13574,0.50933 -0.36947,2.05714 -0.5194,3.43959 -0.65012,5.99427 -1.62236,7.9461 -4.86542,9.76762 -2.36156,1.3264 -7.44223,1.9016 -10.92401,1.23673 z m -10.08511,-6.6408 c -0.0698,-0.36494 0.006,-0.99002 0.16798,-1.38906 0.16215,-0.39904 0.36203,-1.43321 0.44417,-2.29814 0.0821,-0.86494 0.21846,-1.6844 0.3029,-1.82104 0.0845,-0.13664 0.18593,-2.52459 0.22551,-5.30656 0.0872,-6.12983 0.25658,-8.30925 0.79402,-10.2175 0.22541,-0.80037 0.43807,-1.57427 0.47257,-1.71979 0.13333,-0.56238 1.0689,-1.75514 1.59935,-2.03903 0.30598,-0.16376 1.0928,-0.45618 1.74847,-0.64983 1.04788,-0.30949 1.08007,-0.33914 0.26609,-0.24505 -1.4445,0.16698 -4.00078,1.22141 -4.6442,1.91567 -0.75054,0.80984 -0.91092,1.67614 -0.91713,4.95391 -0.007,3.73321 -0.47018,11.71145 -0.80427,13.85573 -0.5788,3.71495 -0.58492,3.92503 -0.13937,4.78663 0.52254,1.01048 0.65276,1.05732 0.48391,0.17406 z M 92.207291,123.56042 v -9.525 l 9.458849,0.009 9.45886,0.009 -0.66146,0.53925 c -0.3638,0.29659 -1.37583,1.16858 -2.24896,1.93774 -0.87312,0.76917 -1.99729,1.74294 -2.49814,2.16393 -0.50085,0.42099 -1.63012,1.45004 -2.5095,2.28679 -0.87937,0.83674 -1.68998,1.52135 -1.80134,1.52135 -0.11136,0 -0.20248,0.11932 -0.20248,0.26516 0,0.14584 -0.43029,0.67103 -0.9562,1.16709 -0.996379,0.93981 -1.047444,1.7195 -0.0787,1.20102 0.28628,-0.15321 0.46659,-0.36583 0.40068,-0.47248 -0.0659,-0.10665 0.70465,-0.95974 1.71238,-1.89575 1.00772,-0.93602 1.83222,-1.85481 1.83222,-2.04178 0,-0.18696 0.12846,-0.33993 0.28547,-0.33993 0.15701,0 0.80213,-0.50601 1.43361,-1.12448 0.63147,-0.61846 1.84074,-1.71979 2.68726,-2.44739 0.84652,-0.72761 1.87743,-1.65034 2.29091,-2.05052 l 0.75179,-0.72761 9.17392,0.009 9.17391,0.009 -3.70416,1.86807 c -4.52575,2.28242 -8.70856,4.58992 -9.83808,5.4273 -0.46323,0.34342 -0.91876,0.6244 -1.01228,0.6244 -0.0935,0 -0.84561,0.51753 -1.6713,1.15006 -1.93555,1.48276 -2.5444,1.79384 -3.13574,1.60216 -0.40516,-0.13133 -0.41879,-0.10928 -0.0853,0.13808 0.3461,0.25673 0.33382,0.33143 -0.096,0.58398 -0.27108,0.15928 -0.74138,0.5381 -1.0451,0.84183 -0.3465,0.34649 -0.8923,0.55223 -1.46505,0.55223 -0.50204,0 -0.77589,0.0456 -0.60854,0.10142 0.49327,0.16442 0.34755,0.85108 -0.18061,0.85108 -0.26669,0 -0.86761,0.47625 -1.33539,1.05833 -0.49254,0.6129 -1.07839,1.05833 -1.39196,1.05833 -0.31896,0 -0.59834,0.21746 -0.67985,0.52917 -0.0761,0.29104 -0.29436,0.52917 -0.485,0.52917 -0.19064,0 -0.38511,0.18456 -0.43216,0.41013 -0.0767,0.36753 -0.14052,0.36841 -0.61471,0.008 -0.52307,-0.39709 -0.5223,-0.40182 0.0661,-0.41014 0.51674,-0.007 0.59531,-0.1481 0.59531,-1.06675 v -1.05833 h -2.01948 c -1.737959,0 -2.088364,-0.0794 -2.513544,-0.56965 -0.599494,-0.69122 -0.640938,-1.13083 -0.08655,-0.91809 0.263774,0.10122 0.380424,0.0231 0.330729,-0.22154 -0.04223,-0.20785 0.161351,-0.55512 0.452392,-0.77171 0.436194,-0.32461 0.468372,-0.45504 0.183146,-0.74234 -0.285795,-0.28788 -0.50895,-0.16434 -1.282117,0.70979 -0.514854,0.58208 -1.254882,1.41552 -1.644509,1.85208 -0.389626,0.43656 -0.999379,1.21047 -1.355007,1.71979 -0.355628,0.50933 -0.795171,1.07921 -0.976762,1.2664 -0.181591,0.1872 -0.538602,0.69321 -0.793358,1.12448 -0.254756,0.43127 -0.556585,0.78412 -0.67073,0.78412 -0.114146,0 -0.207537,-4.28625 -0.207537,-9.525 z m 52.916669,1.45521 c 0,-0.32977 -0.51447,-0.39687 -3.04271,-0.39687 h -3.04271 v -0.99739 -0.99739 l 3.37344,0.007 3.37343,0.007 0.08,1.38756 c 0.0641,1.1121 -0.002,1.38756 -0.33073,1.38756 -0.22589,0 -0.4107,-0.1786 -0.4107,-0.39688 z"
         id="path284" /><path
         style="fill:#a4b9c9"
         d="m 128.76577,171.5269 c 0.31196,-0.37589 0.25061,-0.39914 -0.57602,-0.2183 -1.5217,0.3329 -6.34913,0.47012 -6.34913,0.18048 0,-0.14276 0.14883,-0.32095 0.33073,-0.39599 0.1819,-0.075 -0.086,-0.0771 -0.59531,-0.005 l -0.92604,0.13182 1.19062,-1.07694 c 0.65485,-0.59232 1.39899,-1.14396 1.65365,-1.22588 0.25466,-0.0819 0.46302,-0.25998 0.46302,-0.3957 0,-0.339 -0.3605,-0.30959 -0.72962,0.0595 -0.23199,0.232 -0.40682,0.22285 -0.72077,-0.0377 -0.22796,-0.18919 -0.49745,-0.26102 -0.59886,-0.15961 -0.10141,0.10141 -0.0208,0.28551 0.17924,0.40912 0.25048,0.1548 0.14524,0.21207 -0.3382,0.18405 -0.38601,-0.0224 -0.70192,-0.10529 -0.70202,-0.18424 -2.4e-4,-0.18476 -2.22651,-0.78249 -2.9144,-0.78249 -0.28895,0 -0.52537,-0.0931 -0.52537,-0.20682 0,-0.11375 -0.56555,-0.3698 -1.25677,-0.56901 -1.451,-0.41816 -4.18249,-1.73123 -4.42811,-2.12866 -0.0919,-0.14878 -0.45781,-0.27051 -0.81303,-0.27051 -0.35521,0 -0.64584,-0.122 -0.64584,-0.27113 0,-0.14912 -0.29766,-0.3843 -0.66146,-0.52262 -0.40496,-0.15396 -0.66146,-0.45922 -0.66146,-0.7872 0,-0.35932 -0.17423,-0.53571 -0.52916,-0.53571 -0.29104,0 -0.52917,-0.16946 -0.52917,-0.37658 0,-0.20711 -0.3186,-0.75521 -0.70801,-1.21799 -0.60972,-0.72461 -0.6621,-0.91493 -0.37734,-1.37091 0.18804,-0.3011 0.20812,-0.45374 0.0466,-0.35389 -0.15626,0.0966 -0.28412,0.0164 -0.28412,-0.17809 0,-0.45499 -0.95212,-1.27671 -1.21068,-1.04487 -0.10839,0.0972 -0.10663,0.0201 0.004,-0.17126 0.21296,-0.36872 0.47741,-0.20432 2.04437,1.27094 0.56634,0.53319 0.64454,0.74228 0.39688,1.06115 -0.26706,0.34385 -0.24758,0.34945 0.14526,0.0417 0.38704,-0.30318 0.56196,-0.27908 1.19063,0.16404 2.79795,1.97215 7.6719,3.11767 12.2463,2.87824 3.30576,-0.17304 5.18777,-0.69441 7.10867,-1.96933 2.72748,-1.81026 3.78586,-4.03117 4.26304,-8.94561 0.13991,-1.44093 0.42243,-3.27472 0.62781,-4.07508 0.20538,-0.80037 0.57037,-2.52677 0.81109,-3.83646 0.66558,-3.62133 0.98749,-4.72459 1.25976,-4.31746 0.14636,0.21885 0.17026,0.0777 0.0642,-0.3789 -0.099,-0.42622 -0.058,-0.7276 0.0991,-0.7276 0.16114,0 0.21003,-0.43287 0.12254,-1.08511 -0.0994,-0.74085 -0.0358,-1.15295 0.20038,-1.29891 0.27456,-0.16969 0.25117,-0.30855 -0.11341,-0.67313 -0.36822,-0.36822 -0.38985,-0.50235 -0.10905,-0.6762 0.46501,-0.28792 0.81974,0.98666 0.4611,1.65679 -0.14395,0.26898 -0.19802,0.50394 -0.12013,0.52213 0.0779,0.0182 0.25471,0.048 0.39295,0.0661 0.4685,0.0616 0.87531,0.65436 0.96336,1.40356 0.36882,3.13839 0.39734,6.07925 0.10658,10.98952 -0.3144,5.30939 -0.30523,5.76786 0.13857,6.92996 0.32778,0.85826 0.54321,1.13726 0.69427,0.8991 0.16397,-0.25853 0.22003,-0.22894 0.22306,0.1177 0.002,0.25467 -0.15689,0.46302 -0.3536,0.46302 -0.2573,0 -0.4038,0.59826 -0.52207,2.132 -0.11932,1.54733 -0.31638,2.34542 -0.71856,2.91024 -0.34783,0.48847 -0.49915,0.99996 -0.40642,1.37373 0.0813,0.32752 0.0794,0.44667 -0.004,0.26476 -0.18219,-0.39669 -0.90155,-0.44437 -0.90155,-0.0598 0,0.53917 -4.76048,5.07809 -5.16369,4.92337 -0.23193,-0.089 -0.39256,10e-4 -0.39256,0.2201 0,0.20391 -0.25386,0.45131 -0.56413,0.54979 -0.32265,0.1024 -0.44452,0.25296 -0.28471,0.35173 0.1605,0.0992 -0.002,0.30538 -0.38121,0.48445 -0.59108,0.27895 -0.62387,0.26748 -0.31147,-0.10893 z m -11.42306,-8.8184 c -5.13732,-0.86851 -9.58071,-3.30085 -11.39618,-6.23834 -0.50076,-0.81025 -0.55746,-1.18529 -0.42825,-2.83275 0.0819,-1.04437 0.28153,-2.7323 0.44358,-3.75094 0.16206,-1.01865 0.37922,-5.12631 0.48258,-9.12813 0.1711,-6.62472 0.23578,-7.3579 0.72254,-8.19054 0.65666,-1.12327 2.20515,-1.9467 4.99253,-2.65485 7.34025,-1.86482 20.85505,1.41162 22.54938,5.46673 0.42762,1.02344 0.47234,3.19901 0.0866,4.21356 -0.43014,1.13136 -2.09085,9.71868 -2.50229,12.93906 -0.72517,5.676 -1.79973,7.49257 -5.43761,9.19246 -2.0313,0.94918 -6.80024,1.44234 -9.51289,0.98374 z m -10.78356,-6.73869 c -0.0698,-0.36494 0.0187,-1.01484 0.19653,-1.44421 0.32158,-0.77637 0.65252,-2.78595 0.91647,-5.56518 0.076,-0.80036 0.20698,-1.85388 0.29105,-2.34114 0.0841,-0.48727 0.049,-0.82176 -0.0779,-0.74331 -0.12693,0.0784 -0.18908,-0.4119 -0.13811,-1.08966 0.051,-0.67775 0.21674,-1.30896 0.36838,-1.40268 0.17054,-0.1054 0.1238,-0.22869 -0.12251,-0.32321 -0.29747,-0.11415 -0.36774,-0.44144 -0.27773,-1.29359 0.0663,-0.62743 0.18755,-1.31937 0.2695,-1.53766 0.082,-0.21828 0.2019,-0.75406 0.26655,-1.19062 0.0935,-0.63159 0.0569,-0.71267 -0.17945,-0.39688 -0.23959,0.32018 -0.27096,0.26905 -0.16232,-0.26458 0.0741,-0.3638 0.27957,-1.43536 0.45669,-2.38125 0.17712,-0.94588 0.48639,-2.04721 0.68728,-2.4474 0.20089,-0.40018 0.28948,-0.7276 0.19686,-0.7276 -0.0926,0 0.11268,-0.23416 0.45622,-0.52036 0.34355,-0.2862 0.50733,-0.52433 0.36396,-0.52917 -0.14336,-0.005 0.17317,-0.24132 0.70342,-0.52552 0.53024,-0.28419 1.7191,-0.57677 2.64191,-0.65017 1.93272,-0.15373 2.87159,-0.32953 3.1027,-0.58096 0.37608,-0.40916 -4.3549,0.22423 -5.92105,0.79271 -3.25933,1.18307 -3.56866,1.7009 -3.57349,5.98222 -0.004,3.68911 -0.50719,12.30221 -0.83443,14.2875 -0.53913,3.27084 -0.55295,3.8706 -0.10893,4.72924 0.51721,1.00016 0.64685,1.04446 0.47844,0.16348 z M 92.207291,118.81354 v -4.77812 h 3.184116 3.184117 l -1.133596,1.65365 c -0.623478,0.9095 -1.222893,1.69333 -1.332033,1.74184 -0.109141,0.0485 -0.198438,0.20312 -0.198438,0.34359 0,0.14046 -0.484336,0.98457 -1.076302,1.87579 -0.591966,0.89123 -1.30464,2.06799 -1.583719,2.61503 -0.950304,1.86275 -1.044145,1.55252 -1.044145,-3.45178 z m 10.054169,1.77234 c 0,-0.443 -1.09104,-1.52337 -1.53841,-1.52337 -0.17252,0 -0.31368,-0.1786 -0.31368,-0.39688 0,-0.37433 -1.216936,-0.5703 -2.727346,-0.43919 -0.309772,0.0269 -0.409342,-0.0702 -0.282491,-0.27545 0.107745,-0.17433 0.207169,-0.5744 0.220942,-0.88903 0.01377,-0.31463 0.43855,-1.12063 0.943949,-1.79111 l 0.918908,-1.21906 5.622398,-0.008 c 3.09232,-0.004 5.62239,0.0412 5.62239,0.10158 0,0.0604 -0.62507,0.5661 -1.38906,1.12384 -1.64621,1.20182 -2.18688,1.62958 -2.95552,2.33828 -1.65748,1.52825 -1.759,1.58701 -2.0389,1.1801 -0.20278,-0.29478 -0.22775,-0.25054 -0.10538,0.18669 0.18504,0.66111 -0.34053,1.12622 -0.67008,0.593 -0.12134,-0.19633 -0.30359,-0.274 -0.405,-0.17259 -0.10141,0.10141 -0.0186,0.38815 0.18405,0.63719 0.32426,0.39851 0.3133,0.43215 -0.0914,0.2805 -0.27127,-0.10165 -0.43402,-0.0542 -0.39688,0.11583 0.0346,0.15847 -0.0858,0.3427 -0.26775,0.4094 -0.1819,0.0667 -0.33073,-0.0465 -0.33073,-0.25154 z"
         id="path283" /><path
         style="fill:#1194e9"
         d="m 115.62291,162.28597 c -2.09632,-0.44104 -4.54977,-1.50522 -6.41073,-2.78064 -3.41543,-2.3408 -4.29098,-4.20005 -3.50884,-7.45118 0.14678,-0.61014 0.37822,-2.24044 0.51431,-3.62289 l 0.24745,-2.51354 -0.12755,2.68281 c -0.0702,1.47555 -0.24207,3.08211 -0.38203,3.57013 -0.3757,1.30999 -0.30957,3.05951 0.14919,3.94665 0.55358,1.07052 0.8198,0.97837 0.70328,-0.24344 -0.0592,-0.62044 0.0789,-1.36539 0.3502,-1.89011 0.24632,-0.47633 0.44785,-1.26566 0.44785,-1.75407 0,-0.48841 0.0774,-0.88801 0.17198,-0.88801 0.0946,0 0.18254,-0.80367 0.19545,-1.78594 0.0597,-4.54206 0.57136,-13.52909 0.80215,-14.08907 0.09,-0.21828 0.19434,-0.71524 0.23194,-1.10435 0.0742,-0.76778 0.76529,-1.85371 1.78515,-2.80506 0.49512,-0.46186 1.16372,-0.66493 2.87014,-0.8717 2.75392,-0.3337 7.68373,-0.31667 8.02813,0.0277 0.14051,0.14051 0.59878,0.25548 1.01837,0.25548 0.93543,0 4.58092,0.90187 6.49946,1.60793 1.3875,0.51062 3.54675,1.6183 4.21373,2.16161 0.18542,0.15104 0.3988,0.21293 0.47419,0.13754 0.25624,-0.25623 -1.59908,-1.60285 -3.19257,-2.31721 -2.54386,-1.14043 -4.80945,-1.79953 -8.15228,-2.37167 -5.69567,-0.97484 -12.09695,-0.18024 -14.46113,1.79509 -0.8856,0.73994 -0.92384,0.84859 -1.09746,3.11783 l -0.17989,2.35117 0.0391,-2.24896 c 0.0463,-2.66234 0.4476,-3.3981 2.28809,-4.19537 3.8089,-1.64996 8.05316,-2.00906 13.22917,-1.11932 4.35403,0.74844 5.73494,1.15763 8.6679,2.56842 1.93719,0.93181 2.59479,1.39707 3.14081,2.22216 0.88224,1.33315 1.06556,2.96218 0.53846,4.78483 -0.22711,0.7853 -0.66513,2.73751 -0.97339,4.33824 -0.30826,1.60073 -0.74055,3.74385 -0.96065,4.7625 -0.22009,1.01865 -0.51202,2.92317 -0.64873,4.23228 -0.1367,1.30911 -0.444,3.07676 -0.68287,3.92811 -0.79419,2.83046 -3.78284,5.14562 -7.40916,5.73953 -2.20791,0.3616 -6.26317,0.2761 -8.41925,-0.1775 z"
         id="path282" /><path
         style="fill:#0477d3"
         d="m 115.62291,162.28597 c -2.09632,-0.44104 -4.54977,-1.50522 -6.41073,-2.78064 -3.41543,-2.3408 -4.29098,-4.20005 -3.50884,-7.45118 0.14678,-0.61014 0.37822,-2.24044 0.51431,-3.62289 l 0.24745,-2.51354 -0.12755,2.68281 c -0.0702,1.47555 -0.24207,3.08211 -0.38203,3.57013 -0.53611,1.8693 -0.0366,4.72726 0.82626,4.72726 0.15037,0 0.19982,-0.11906 0.10989,-0.26458 -0.0899,-0.14552 -0.0337,-0.26458 0.12498,-0.26458 0.15867,0 0.35415,0.17107 0.43438,0.38017 0.17793,0.46367 0.85205,0.2519 1.49116,-0.46844 0.25466,-0.28703 0.46302,-0.42373 0.46302,-0.30378 0,0.11995 -0.19026,0.42832 -0.4228,0.68527 -0.7657,0.84609 0.29423,1.46065 1.11081,0.64406 0.2121,-0.2121 0.56078,-0.31842 0.77485,-0.23627 0.21407,0.0821 0.38922,0.0198 0.38922,-0.1385 0,-0.15831 -0.28904,-0.36039 -0.64231,-0.44906 -0.84208,-0.21135 -1.03312,-0.77769 -0.55769,-1.65326 l 0.38506,-0.70915 0.0106,0.7276 c 0.006,0.40019 0.11577,0.72761 0.24431,0.72761 0.38561,0 0.56631,-1.15309 0.21935,-1.39974 -0.24994,-0.17769 -0.24775,-0.25768 0.01,-0.36225 0.44895,-0.18216 0.42093,-0.88385 -0.0353,-0.88385 -0.20131,0 -0.42956,-0.24301 -0.50724,-0.54003 -0.11441,-0.43751 -0.0449,-0.50947 0.36602,-0.37905 0.35266,0.11193 0.50724,0.0346 0.50724,-0.25371 0,-0.22809 0.11524,-0.41471 0.25608,-0.41471 0.14084,0 0.23014,-0.61232 0.19844,-1.36071 -0.0731,-1.72571 0.36674,-1.91514 1.00511,-0.43289 l 0.4876,1.13215 0.10399,-0.89354 c 0.0572,-0.49145 -0.0237,-1.02128 -0.17986,-1.1774 -0.43549,-0.43549 -0.34837,-1.05314 0.12303,-0.87225 0.58331,0.22384 0.76481,-0.49024 0.27115,-1.06679 -0.22978,-0.26837 -0.40063,-0.54747 -0.37966,-0.62023 0.021,-0.0728 -0.21293,-0.60073 -0.51979,-1.17327 -0.34908,-0.65131 -0.5031,-1.29507 -0.41144,-1.71979 0.11417,-0.52907 0.0845,-0.59126 -0.13452,-0.28194 -0.23857,0.33696 -0.38161,0.28081 -0.94744,-0.37188 -0.36654,-0.42282 -0.66644,-0.88319 -0.66644,-1.02304 0,-0.13985 -0.30238,-0.19647 -0.67195,-0.12582 -0.95546,0.18265 -0.67126,-0.42115 0.2969,-0.63077 0.42456,-0.0919 0.65174,-0.18122 0.50484,-0.19844 -0.1469,-0.0172 -0.42576,-0.28538 -0.6197,-0.59593 -0.2941,-0.47092 -0.29368,-0.60198 0.002,-0.7897 0.29014,-0.18389 0.29114,-0.22581 0.005,-0.22912 -0.2082,-0.002 -0.31854,-0.2449 -0.27274,-0.59937 0.0423,-0.32742 -0.012,-0.73816 -0.12077,-0.91276 -0.55856,-0.89697 2.38291,-1.10559 4.39668,-0.31183 0.77679,0.30618 1.6089,0.46209 1.97536,0.37012 0.34825,-0.0874 0.5711,-0.0585 0.49523,0.0643 -0.0759,0.12277 0.28706,0.23526 0.80654,0.24999 0.51947,0.0147 1.04142,0.1836 1.15988,0.37528 0.16841,0.27248 0.25354,0.24912 0.39023,-0.10709 0.21515,-0.56067 0.64738,-0.59988 0.64738,-0.0587 0,0.2756 0.27719,0.39687 0.90715,0.39687 0.49892,0 1.0672,0.16006 1.26283,0.35569 0.56652,0.56652 5.15949,1.0577 5.33323,0.57035 0.0546,-0.15314 0.43448,-0.0692 0.9019,0.1993 0.44416,0.25513 0.9969,0.39122 1.22831,0.30242 0.49708,-0.19075 0.55228,-0.92581 0.10325,-1.37484 -0.33116,-0.33116 -0.24556,-0.37373 0.84667,-0.42111 0.46864,-0.0203 0.64986,-0.16896 0.62168,-0.50989 -0.0254,-0.30724 0.0911,-0.43099 0.32225,-0.34229 0.19912,0.0764 0.43361,0.0231 0.52108,-0.11842 0.0875,-0.14154 0.26166,-0.19393 0.38707,-0.11642 0.12541,0.0775 0.304,0.018 0.39687,-0.13229 0.0929,-0.15027 0.2797,-0.20471 0.41516,-0.12099 0.13547,0.0837 0.2463,0.0232 0.2463,-0.13453 0,-0.15771 0.29766,-0.39991 0.66146,-0.53823 0.83237,-0.31646 0.82899,-0.55405 -0.0223,-1.56571 -1.33948,-1.59189 -5.98789,-3.37841 -11.04043,-4.24317 -5.69567,-0.97484 -12.09695,-0.18024 -14.46113,1.79509 -0.8856,0.73994 -0.92384,0.84859 -1.09746,3.11783 l -0.17989,2.35117 0.0391,-2.24896 c 0.0463,-2.66234 0.4476,-3.3981 2.28809,-4.19537 3.8089,-1.64996 8.05316,-2.00906 13.22917,-1.11932 4.35403,0.74844 5.73494,1.15763 8.6679,2.56842 1.93719,0.93181 2.59479,1.39707 3.14081,2.22216 0.88224,1.33315 1.06556,2.96218 0.53846,4.78483 -0.22711,0.7853 -0.66513,2.73751 -0.97339,4.33824 -0.30826,1.60073 -0.74055,3.74385 -0.96065,4.7625 -0.22009,1.01865 -0.51202,2.92317 -0.64873,4.23228 -0.1367,1.30911 -0.444,3.07676 -0.68287,3.92811 -0.79419,2.83046 -3.78284,5.14562 -7.40916,5.73953 -2.20791,0.3616 -6.26317,0.2761 -8.41925,-0.1775 z m 9.58596,-2.75812 c -0.16803,-0.26905 -0.21424,-0.58046 -0.1027,-0.692 0.11155,-0.11155 0.30238,-0.0417 0.42408,0.15522 0.16727,0.27064 0.26919,0.20705 0.4176,-0.26055 0.12293,-0.38733 0.0843,-0.65591 -0.10337,-0.71846 -0.40576,-0.13526 -0.38168,-0.58597 0.031,-0.58092 0.76973,0.009 1.02097,0.41497 0.73045,1.17908 -0.15523,0.40829 -0.20964,0.81494 -0.12091,0.90367 0.21444,0.21444 0.93241,-0.78109 0.76208,-1.05668 -0.073,-0.11816 -0.0243,-0.42805 0.10829,-0.68863 0.36111,-0.70971 0.83519,-2.30343 0.83519,-2.80767 0,-0.24433 0.11533,-0.44424 0.25628,-0.44424 0.14096,0 0.19237,-0.16655 0.11426,-0.37011 -0.0781,-0.20356 -0.009,-0.45228 0.15344,-0.55272 0.21586,-0.13341 0.21199,-0.2832 -0.0144,-0.55593 -0.17041,-0.20532 -0.22114,-0.37332 -0.11274,-0.37332 0.10839,0 0.0376,-0.20836 -0.15732,-0.46302 -0.19492,-0.25466 -0.25022,-0.37476 -0.12289,-0.26688 0.33684,0.28537 0.93575,-0.30058 0.76419,-0.74765 -0.10621,-0.27679 -0.0118,-0.33503 0.34645,-0.21363 0.27087,0.0918 0.10759,-0.11522 -0.36284,-0.46002 -0.47043,-0.34481 -0.85738,-0.79033 -0.8599,-0.99005 -0.004,-0.28797 0.0752,-0.29694 0.38072,-0.0434 0.2119,0.17587 0.52485,0.2335 0.69543,0.12808 0.22112,-0.13666 0.18647,-0.2609 -0.1207,-0.4328 -0.23697,-0.13262 -0.43085,-0.42082 -0.43085,-0.64046 0,-0.23402 -0.1262,-0.32135 -0.30485,-0.21094 -0.3154,0.19493 -0.20327,-1.40403 0.16169,-2.30585 0.21159,-0.52283 -0.43678,-0.82549 -1.30279,-0.60813 -0.44263,0.11109 -0.57367,0.29263 -0.47728,0.66122 0.14548,0.55632 -0.33203,0.71104 -0.54738,0.17736 -0.0734,-0.18191 -0.13345,0.0265 -0.13345,0.46302 0,0.43656 0.0601,0.64492 0.13345,0.46302 0.19999,-0.49562 0.53899,-0.39885 0.69519,0.19843 0.10875,0.41587 0.008,0.52917 -0.47,0.52917 -0.33464,0 -0.68915,0.20834 -0.78788,0.46302 -0.16902,0.43599 -0.20048,0.43452 -0.539,-0.0253 -0.35943,-0.48822 -0.5017,-0.50621 -3.64419,-0.46076 l -1.26337,0.0183 0.53576,1.05018 c 0.72015,1.4116 0.68137,1.69703 -0.32413,2.38599 -0.7845,0.53753 -0.85176,0.69132 -0.76711,1.7539 0.0579,0.72731 -0.0166,1.1647 -0.19844,1.1647 -0.37412,0 -0.38137,1.23597 -0.009,1.46636 0.15544,0.0961 0.22202,0.33259 0.14795,0.5256 -0.10248,0.26707 0.09,0.31448 0.8054,0.19839 l 0.94006,-0.15255 -0.18346,0.89933 -0.18347,0.89933 0.77015,-0.87519 c 0.64168,-0.7292 0.82176,-0.81301 1.07955,-0.50239 0.24734,0.29802 0.15023,0.4948 -0.48407,0.98091 -0.43642,0.33446 -0.79313,0.6796 -0.7927,0.76697 4.3e-4,0.0874 0.42045,0.16794 0.93339,0.17902 0.51294,0.0111 0.79499,-0.0649 0.62678,-0.16885 -0.1682,-0.10396 -0.22402,-0.32139 -0.12402,-0.48318 0.26703,-0.43208 0.94432,-0.35841 0.94432,0.10271 0,0.21828 0.17565,0.39687 0.39033,0.39687 0.30966,0 0.337,0.14026 0.13229,0.67869 -0.37677,0.99098 -0.3281,1.11341 0.38822,0.97648 0.55454,-0.10601 0.60289,-0.19296 0.34074,-0.61274 z m -4.69116,-24.06771 c -2.13163,-0.17751 -3.74459,-0.56267 -6.27625,-1.49869 -0.87391,-0.32311 -1.23364,-0.65415 -1.65365,-1.52177 -0.59247,-1.22389 -0.66745,-1.58292 -0.28063,-1.34385 0.14088,0.0871 1.9876,0.16643 4.10382,0.17636 3.2767,0.0154 3.88533,0.0825 4.10143,0.45262 0.17977,0.30785 0.25611,0.32955 0.26181,0.0744 0.006,-0.26063 0.24572,-0.31782 0.86795,-0.20692 1.71594,0.30584 3.5187,0.53038 4.10104,0.5108 0.34227,-0.0115 0.59531,0.13677 0.59531,0.34886 0,0.34903 0.22217,0.42373 1.44455,0.48569 0.32236,0.0163 0.5772,0.27447 0.67364,0.68234 0.1267,0.53581 0.18673,0.57385 0.32752,0.20754 0.14201,-0.36947 0.32326,-0.40526 1.02831,-0.20305 1.30982,0.37565 1.40225,0.6411 0.49039,1.40838 -0.80855,0.68035 -0.91669,0.69732 -4.18315,0.65649 -1.84422,-0.0231 -4.36517,-0.1262 -5.60209,-0.2292 z"
         id="path281" /><path
         style="fill:#0658a3"
         d="m 115.62291,162.28597 c -2.09632,-0.44104 -4.54977,-1.50522 -6.41073,-2.78064 -3.41543,-2.3408 -4.29098,-4.20005 -3.50884,-7.45118 0.14678,-0.61014 0.37822,-2.24044 0.51431,-3.62289 l 0.24745,-2.51354 -0.12755,2.68281 c -0.0702,1.47555 -0.24207,3.08211 -0.38203,3.57013 -0.57392,2.00113 -0.0269,4.72726 0.94861,4.72726 0.21767,0 0.83969,0.28439 1.38227,0.63198 0.54258,0.34759 1.70089,0.83883 2.57402,1.09166 0.87312,0.25282 2.3614,0.76083 3.30729,1.1289 0.94588,0.36808 2.07698,0.72477 2.51354,0.79265 1.41738,0.22038 8.59896,0.22649 8.59896,0.007 0,-0.1171 0.17859,-0.21291 0.39687,-0.21291 0.21828,0 0.39688,-0.10518 0.39688,-0.23373 0,-0.12855 0.22245,-0.29189 0.49434,-0.363 0.30209,-0.079 0.6719,-0.63121 0.95088,-1.41992 0.2511,-0.70985 0.63083,-1.61831 0.84385,-2.01879 0.21303,-0.40048 0.31897,-0.83874 0.23543,-0.97391 -0.0835,-0.13516 -0.0228,-0.32556 0.13505,-0.42309 0.15782,-0.0975 0.22449,-0.34008 0.14816,-0.53898 -0.0763,-0.1989 -0.0179,-0.43631 0.12975,-0.52759 0.14795,-0.0914 0.19364,-0.50685 0.10176,-0.92521 -0.12316,-0.56071 -0.0247,-0.91173 0.3765,-1.34238 l 0.54327,-0.58312 -0.55653,-0.38981 c -0.48208,-0.33766 -0.50142,-0.42065 -0.14462,-0.62033 0.29114,-0.16293 0.37228,-0.4816 0.27674,-1.08689 -0.0743,-0.47101 -0.0197,-1.36239 0.12137,-1.98086 0.23535,-1.03155 0.046,-1.49849 -0.34866,-0.85989 -0.0899,0.14552 -0.27657,0.26458 -0.41473,0.26458 -0.13817,0 -0.1025,-0.23812 0.0793,-0.52917 0.26182,-0.41925 0.26296,-0.63726 0.005,-1.04958 -0.23152,-0.37072 -0.24928,-0.71959 -0.0618,-1.21283 0.14479,-0.38082 0.20597,-0.78509 0.13596,-0.89837 -0.22056,-0.35687 0.85669,-3.05323 1.25236,-3.13468 0.20776,-0.0428 0.60952,-0.51902 0.8928,-1.05833 0.315,-0.59972 0.74177,-1.01342 1.09878,-1.06513 0.32105,-0.0465 0.58373,-0.25781 0.58373,-0.46957 0,-0.21176 0.29766,-0.49819 0.66146,-0.63651 2.0708,-0.78731 -1.09657,-3.32528 -6.21771,-4.98216 -0.94588,-0.30602 -3.12613,-0.79711 -4.84499,-1.0913 -5.69567,-0.97484 -12.09695,-0.18024 -14.46113,1.79509 -0.8856,0.73994 -0.92384,0.84859 -1.09746,3.11783 l -0.17989,2.35117 0.0391,-2.24896 c 0.0463,-2.66234 0.4476,-3.3981 2.28809,-4.19537 3.8089,-1.64996 8.05316,-2.00906 13.22917,-1.11932 4.35403,0.74844 5.73494,1.15763 8.6679,2.56842 1.93719,0.93181 2.59479,1.39707 3.14081,2.22216 0.88224,1.33315 1.06556,2.96218 0.53846,4.78483 -0.22711,0.7853 -0.66513,2.73751 -0.97339,4.33824 -0.30826,1.60073 -0.74055,3.74385 -0.96065,4.7625 -0.22009,1.01865 -0.51202,2.92317 -0.64873,4.23228 -0.1367,1.30911 -0.444,3.07676 -0.68287,3.92811 -0.79419,2.83046 -3.78284,5.14562 -7.40916,5.73953 -2.20791,0.3616 -6.26317,0.2761 -8.41925,-0.1775 z m 5.42396,-20.83533 c 0,-0.20131 -0.30456,-0.42425 -0.67681,-0.49541 -0.49814,-0.0952 -0.64003,-0.0335 -0.53747,0.23374 0.0766,0.19972 0.024,0.36312 -0.11694,0.36312 -0.14095,0 -0.25628,-0.17859 -0.25628,-0.39687 0,-0.21829 -0.11906,-0.39688 -0.26458,-0.39688 -0.14552,0 -0.26458,0.17859 -0.26458,0.39688 0,0.21828 -0.11907,0.39687 -0.26459,0.39687 -0.14552,0 -0.26458,-0.12655 -0.26458,-0.28121 0,-0.15467 -0.20836,-0.25544 -0.46302,-0.22392 -0.67012,0.0829 -1.38906,-0.28652 -1.38906,-0.7138 0,-0.25094 -0.32371,-0.36857 -1.01424,-0.36857 -0.55783,0 -1.08942,-0.0752 -1.18132,-0.16708 -0.30216,-0.30216 0.33604,-1.14208 0.74775,-0.98409 0.21792,0.0836 0.56269,0.0139 0.76616,-0.15499 0.25331,-0.21023 0.42402,-0.21956 0.54141,-0.0296 0.0943,0.15258 0.4621,0.27743 0.81731,0.27743 0.35521,0 0.64584,0.11906 0.64584,0.26458 0,0.14552 0.34806,0.26458 0.77345,0.26458 0.439,0 1.11337,0.28603 1.55955,0.66146 0.43236,0.3638 1.00704,0.67086 1.27707,0.68235 0.27004,0.0115 0.34884,0.0787 0.17511,0.14938 -0.17373,0.0707 -0.25029,0.2994 -0.17013,0.50828 0.0802,0.20888 0.0139,0.37978 -0.14716,0.37978 -0.16109,0 -0.29289,-0.16471 -0.29289,-0.36603 z m 0.36157,-6.00112 c -1.32911,-0.10498 -2.81739,-0.32203 -3.3073,-0.48233 -0.4899,-0.1603 -1.74664,-0.53308 -2.79276,-0.82841 -1.62359,-0.45835 -1.9625,-0.65816 -2.3151,-1.36497 -0.552,-1.1065 -0.52048,-1.34694 0.12417,-0.9474 0.43788,0.2714 0.57885,0.26612 0.76225,-0.0286 0.18577,-0.29848 0.486,-0.26388 1.72164,0.19844 1.62236,0.607 2.11876,0.69196 1.89114,0.32366 -0.0854,-0.13818 0.26519,-0.1408 0.84428,-0.006 0.54468,0.12649 1.08664,0.23282 1.20437,0.2363 0.11773,0.003 0.13995,0.12621 0.0494,0.27276 -0.17906,0.28972 0.0692,0.40165 1.40337,0.63271 0.54146,0.0938 0.81188,0.0522 0.71199,-0.1094 -0.0886,-0.14333 -0.035,-0.2606 0.11914,-0.2606 0.15411,0 0.2802,0.19499 0.2802,0.43331 0,0.37068 0.2149,0.40804 1.48696,0.25854 0.97286,-0.11434 1.6132,-0.07 1.85208,0.12826 0.27675,0.22968 0.46738,0.21815 0.7876,-0.0476 0.35625,-0.29565 0.46201,-0.27999 0.67461,0.0999 0.13867,0.24779 0.53394,0.45052 0.87839,0.45052 0.34444,0 0.68665,0.14883 0.76046,0.33073 0.10484,0.25839 0.18854,0.25333 0.3827,-0.0231 0.13667,-0.19463 0.50924,-0.31369 0.82792,-0.26458 0.51677,0.0796 0.54001,0.1428 0.21493,0.58416 -0.31255,0.42433 -0.77649,0.5027 -3.25518,0.54987 -1.58988,0.0303 -3.97813,-0.0309 -5.30724,-0.13585 z"
         id="path280" /><path
         style="fill:#153654"
         d="m 116.94583,162.5297 c -2.72192,-0.37642 -5.39302,-1.42923 -7.80521,-3.0764 -3.33376,-2.27646 -4.21388,-4.17103 -3.43728,-7.39915 0.14678,-0.61014 0.37822,-2.24044 0.51431,-3.62289 l 0.24745,-2.51354 -0.12755,2.68281 c -0.0702,1.47555 -0.24207,3.08211 -0.38203,3.57013 -0.70734,2.46633 0.0176,4.6576 1.84421,5.5748 0.49363,0.24786 0.99545,0.60505 1.11515,0.79375 0.1197,0.1887 0.21946,0.25137 0.22169,0.13927 0.002,-0.11209 0.46556,0.0316 1.02963,0.3194 0.56406,0.28776 1.10613,0.44264 1.2046,0.34417 0.0985,-0.0985 0.0991,0.0294 10e-4,0.28407 -0.15748,0.4104 -0.0537,0.44328 0.91206,0.28885 1.04744,-0.16749 1.08977,-0.1469 1.08977,0.53032 0,0.63596 0.0547,0.67534 0.56109,0.4043 0.39436,-0.21106 0.50766,-0.21382 0.38126,-0.009 -0.21986,0.35575 -3.8e-4,0.37187 0.61065,0.0449 0.29163,-0.15608 0.59987,-0.14695 0.8425,0.0249 0.29646,0.21004 0.26347,0.23215 -0.14655,0.0982 -0.41473,-0.13553 -0.46006,-0.1033 -0.20965,0.14904 0.25095,0.25286 0.4071,0.24927 0.72761,-0.0167 0.33839,-0.28084 0.40809,-0.26741 0.40809,0.0786 0,0.42049 1.01593,0.71271 2.38125,0.68493 0.3638,-0.007 1.53029,0.0333 2.59219,0.0905 1.06191,0.0572 1.98527,0.0157 2.05191,-0.0921 0.0666,-0.10783 0.61443,-0.27939 1.21731,-0.38124 1.61237,-0.27241 2.86984,-0.86631 2.86984,-1.35542 0,-0.23602 0.26789,-0.68247 0.59531,-0.99211 0.32742,-0.30965 0.6364,-0.79955 0.68661,-1.08868 0.13482,-0.77626 0.30696,-0.84214 0.47922,-0.1834 0.13699,0.52385 0.66523,0.86956 0.58877,0.38532 -0.13133,-0.8318 0.0685,-1.3582 0.45874,-1.20845 0.33983,0.13041 0.39039,0.0474 0.24676,-0.40517 -0.0994,-0.31306 -0.0698,-0.5692 0.0656,-0.5692 0.13546,0 0.22526,-0.26789 0.19955,-0.59531 -0.0257,-0.32742 0.0523,-0.79994 0.17329,-1.05003 0.12101,-0.2501 0.24184,-1.17284 0.2685,-2.05053 0.0267,-0.87768 0.12403,-1.59579 0.21636,-1.59579 0.0923,0 0.11932,-0.54306 0.06,-1.20679 -0.0646,-0.72268 0.0232,-1.36479 0.21896,-1.60066 0.31022,-0.37378 0.5133,-1.37068 0.54615,-2.68091 0.009,-0.34956 0.13058,-0.52205 0.29633,-0.41961 0.18567,0.11474 0.21091,0.002 0.0742,-0.33248 -0.114,-0.27854 -0.25574,-0.74455 -0.31498,-1.03559 l -0.10771,-0.52917 0.25142,0.52917 c 0.13828,0.29104 0.25979,0.37251 0.27002,0.18104 0.0102,-0.19147 -0.10102,-0.57162 -0.24721,-0.84478 -0.28113,-0.52529 -0.15871,-0.95693 0.89455,-3.15431 0.30903,-0.64471 0.57501,-1.47815 0.59106,-1.85208 0.016,-0.37393 0.11169,-1.03706 0.21254,-1.47362 0.53352,-2.3096 -4.52493,-4.95806 -11.8651,-6.21223 -5.70028,-0.97397 -12.0577,-0.18024 -14.42962,1.80156 -0.8856,0.73994 -0.92384,0.84859 -1.09746,3.11783 l -0.17989,2.35117 0.0391,-2.24896 c 0.0463,-2.66234 0.4476,-3.3981 2.28809,-4.19537 3.8089,-1.64996 8.05316,-2.00906 13.22917,-1.11932 4.35403,0.74844 5.73494,1.15763 8.6679,2.56842 1.93719,0.93181 2.59479,1.39707 3.14081,2.22216 0.9472,1.43131 1.06217,2.91179 0.41163,5.30042 -0.65684,2.41174 -2.31088,11.20371 -2.68443,14.26897 -0.46318,3.80068 -1.95225,5.9686 -5.06207,7.3698 -2.07151,0.93337 -6.67688,1.35797 -9.8978,0.91253 z"
         id="path279" /></g></g></svg>
