<?xml version="1.0" encoding="UTF-8" standalone="no"?>
<!-- Created with Inkscape (http://www.inkscape.org/) -->

<svg
   width="53.710464mm"
   height="65.616676mm"
   viewBox="0 0 53.710464 65.616676"
   version="1.1"
   id="svg1"
   inkscape:export-filename="starter-shoe.svg"
   inkscape:export-xdpi="96"
   inkscape:export-ydpi="96"
   xml:space="preserve"
   xmlns:inkscape="http://www.inkscape.org/namespaces/inkscape"
   xmlns:sodipodi="http://sodipodi.sourceforge.net/DTD/sodipodi-0.dtd"
   xmlns="http://www.w3.org/2000/svg"
   xmlns:svg="http://www.w3.org/2000/svg"><sodipodi:namedview
     id="namedview1"
     pagecolor="#ffffff"
     bordercolor="#000000"
     borderopacity="0.25"
     inkscape:showpageshadow="2"
     inkscape:pageopacity="0.0"
     inkscape:pagecheckerboard="0"
     inkscape:deskcolor="#d1d1d1"
     inkscape:document-units="mm"><inkscape:page
       x="0"
       y="0"
       width="53.710464"
       height="65.616676"
       id="page2"
       margin="0"
       bleed="0" /></sodipodi:namedview><defs
     id="defs1" /><g
     inkscape:label="Calque 1"
     inkscape:groupmode="layer"
     id="layer1"
     transform="translate(-69.050157,-115.90767)"><g
       id="g300"
       transform="translate(-1.4612541,10.868081)"><path
         style="fill:#d3e7f4"
         d="m 70.511459,137.84792 v -32.80834 h 26.855208 26.855203 v 32.80834 32.80833 H 97.366667 70.511459 Z"
         id="path308" /><path
         style="fill:#c5daeb"
         d="m 80.323091,170.56332 c 0.06063,-0.0511 1.479462,-0.59886 3.152951,-1.21721 1.67349,-0.61834 3.280833,-1.27284 3.571875,-1.45444 0.291042,-0.1816 0.975651,-0.47653 1.521354,-0.65541 0.545703,-0.17887 0.992188,-0.43504 0.992188,-0.56928 0,-0.13423 0.175446,-0.24406 0.389881,-0.24406 0.344945,0 1.449835,-0.51148 5.298571,-2.45281 0.582034,-0.29359 1.973838,-1.10166 3.092898,-1.79572 1.11906,-0.69407 2.279961,-1.33979 2.579781,-1.43495 0.29981,-0.0952 0.54512,-0.28406 0.54512,-0.41977 0,-0.13571 0.13169,-0.24675 0.29265,-0.24675 0.24604,0 2.19183,-1.37803 2.61776,-1.85393 0.0728,-0.0813 0.75737,-0.54327 1.52136,-1.02661 0.76398,-0.48334 1.38906,-0.98544 1.38906,-1.1158 0,-0.13035 0.13486,-0.237 0.2997,-0.237 0.16483,0 0.49225,-0.21662 0.7276,-0.48138 0.23535,-0.26477 0.63627,-0.55868 0.89093,-0.65316 0.25466,-0.0945 0.46302,-0.3541 0.46302,-0.57694 0,-0.22285 0.20836,-0.4107 0.46302,-0.41744 0.25466,-0.007 0.81621,-0.45878 1.24789,-1.00455 0.43168,-0.54577 1.2476,-1.32175 1.81317,-1.72441 1.21404,-0.86435 1.14825,-1.22214 -0.0867,-0.47116 -0.74364,0.45224 -1.17522,0.50124 -3.29865,0.37456 -1.94574,-0.11609 -2.70675,-0.0503 -3.73832,0.32313 -2.38954,0.86502 -3.7887,1.53939 -3.65218,1.76029 0.0745,0.12054 -0.0397,0.15195 -0.25379,0.0698 -0.32543,-0.12488 -1.5415,0.443 -2.01949,0.94307 -0.0728,0.0761 -0.60854,0.40416 -1.190623,0.72898 -0.582084,0.32481 -1.025618,0.72062 -0.985632,0.87956 0.03999,0.15894 -0.0432,0.21735 -0.184866,0.1298 -0.141661,-0.0875 -0.793081,-0.0243 -1.4476,0.14047 -1.999656,0.50352 -4.960926,-0.0472 -8.024147,-1.49236 -2.952711,-1.39299 -3.285081,-1.657 -5.38266,-4.27561 -0.841874,-1.05099 -1.579518,-1.8249 -1.639211,-1.71979 -0.05969,0.10511 -0.07459,0.0484 -0.03311,-0.12606 0.04148,-0.17444 -0.110245,-0.68933 -0.337165,-1.1442 -0.22692,-0.45487 -0.4292,-1.10562 -0.44951,-1.44611 -0.02663,-0.44636 -0.124715,-0.54626 -0.351595,-0.35809 -0.241182,0.20004 -0.252608,0.0362 -0.04893,-0.70144 0.342917,-1.24195 0.07484,-2.44532 -0.591894,-2.65693 -0.352281,-0.11181 -0.473309,-0.31851 -0.372487,-0.63618 0.08214,-0.2588 0.07438,-0.66592 -0.01725,-0.9047 -0.144774,-0.37728 -0.717445,-0.43415 -4.371624,-0.43415 H 70.51141 v -17.4625 -17.4625 h 26.855208 26.855202 v 32.80834 32.80833 h -6.19293 c -5.98872,0 -6.18854,-0.0169 -6.05935,-0.51086 0.0735,-0.28098 0.30046,-0.5749 0.5044,-0.65316 0.20394,-0.0783 0.3708,-0.28089 0.3708,-0.45029 0,-0.1694 0.21822,-0.50056 0.48492,-0.73591 0.69928,-0.61706 1.47584,-1.88311 1.15506,-1.88311 -0.15013,0 -0.31265,0.10995 -0.36116,0.24433 -0.0485,0.13439 -0.74304,1.08408 -1.5434,2.11044 l -1.45521,1.8661 -6.35,-0.003 -6.349999,-0.003 0.661458,-0.52028 c 0.363802,-0.28615 0.780521,-0.61453 0.926041,-0.72975 0.14552,-0.11521 0.8212,-0.59108 1.50152,-1.05749 0.68031,-0.4664 1.39469,-1.00497 1.5875,-1.19681 0.19281,-0.19184 0.54156,-0.46015 0.77499,-0.59625 0.56327,-0.32839 2.99336,-2.37468 4.32838,-3.64477 0.58742,-0.55885 1.39545,-1.2096 1.79563,-1.44611 0.40018,-0.23652 0.7276,-0.58714 0.7276,-0.77917 0,-0.52131 -0.93937,0.0478 -2.36312,1.43159 -0.6498,0.63157 -1.26887,1.14831 -1.37571,1.14831 -0.10684,0 -0.26983,0.23812 -0.36221,0.52916 -0.0924,0.29104 -0.32593,0.52917 -0.51901,0.52917 -0.19309,0 -0.72391,0.34829 -1.1796,0.77397 -0.4557,0.42568 -0.9358,0.81264 -1.0669,0.8599 -0.13109,0.0473 -0.63404,0.41566 -1.11767,0.81868 -0.48362,0.40302 -1.89135,1.44458 -3.128274,2.31458 l -2.248958,1.58182 -8.57691,5.3e-4 c -4.7173,2.8e-4 -8.5273,-0.0413 -8.466666,-0.0924 z m 12.148784,-19.91268 c 1.634085,-0.18827 3.191807,-0.73563 3.06131,-1.0757 -0.07386,-0.19247 -0.01896,-0.34994 0.121994,-0.34994 0.140954,0 0.25628,0.10503 0.25628,0.2334 0,0.2709 1.82261,-0.30669 2.077534,-0.65837 0.09428,-0.13007 0.707205,-0.24462 1.362049,-0.25456 1.076138,-0.0163 5.071398,-0.81953 9.458858,-1.90159 0.9095,-0.22431 1.65364,-0.51625 1.65364,-0.64877 0,-0.13251 0.12411,-0.16422 0.27579,-0.0705 0.30496,0.18848 2.89921,-0.66551 2.89921,-0.95437 0,-0.0998 0.26584,-0.25098 0.59075,-0.33594 0.48338,-0.12641 0.52823,-0.21617 0.24677,-0.49388 -0.28036,-0.27663 -0.41619,-0.24153 -0.73443,0.18977 -0.21475,0.29104 -0.49447,0.52916 -0.6216,0.52916 -0.12713,0 -0.32044,0.0893 -0.42958,0.19844 -0.37637,0.37637 -1.18306,0.19636 -2.23258,-0.49818 -0.57896,-0.38314 -1.05266,-0.79986 -1.05266,-0.92604 0,-0.12618 -0.11533,-0.22942 -0.25628,-0.22942 -0.14096,0 -0.18925,0.20836 -0.10733,0.46302 0.10031,0.31182 0.0726,0.35771 -0.085,0.14052 -0.12866,-0.17738 -0.16616,-1.03138 -0.0833,-1.89778 0.0828,-0.8664 0.0777,-1.53019 -0.0115,-1.47508 -0.0892,0.0551 -0.16213,-0.0568 -0.16213,-0.24873 0,-0.20725 0.19566,-0.29777 0.48186,-0.22293 0.28655,0.0749 0.54801,-0.0464 0.64508,-0.29936 0.0898,-0.23396 0.29959,-0.34367 0.46624,-0.24381 0.16665,0.0998 0.14068,-0.0186 -0.0577,-0.26319 -0.19838,-0.24462 -0.47959,-0.37128 -0.62489,-0.28148 -0.1453,0.0898 -0.36558,-7.8e-4 -0.4895,-0.20129 -0.15124,-0.24471 -0.0763,-0.4237 0.22802,-0.54446 0.38418,-0.15246 0.36925,-0.18275 -0.0979,-0.1985 -0.30317,-0.0102 -0.63095,-0.0983 -0.7284,-0.19579 -0.0975,-0.0974 -0.80191,-0.19387 -1.56546,-0.21426 -0.76354,-0.0204 -1.17844,0.009 -0.922,0.0649 0.25644,0.0561 0.39909,0.21068 0.31699,0.34352 -0.0829,0.13411 0.0628,0.16201 0.32749,0.0627 0.40119,-0.15046 0.4247,-0.11467 0.14833,0.22581 -0.35737,0.44026 -0.19486,0.7528 0.39143,0.7528 0.20442,0 0.55027,0.1786 0.76855,0.39688 0.21828,0.21828 0.29136,0.39687 0.16239,0.39687 -0.12896,0 -0.43867,0.42821 -0.68825,0.95157 -0.37854,0.79383 -0.40174,1.09546 -0.13993,1.81947 0.27722,0.76664 1.18068,1.57028 1.95091,1.73535 0.14552,0.0312 0.62177,0.34417 1.05833,0.6955 0.43656,0.35134 0.67469,0.60904 0.52917,0.57266 -0.14552,-0.0364 -0.50271,0.0654 -0.79375,0.22628 -0.29105,0.16082 -1.18401,0.35936 -1.98438,0.44118 -0.80036,0.0818 -1.83677,0.28296 -2.30312,0.44697 -0.46636,0.164 -1.06167,0.25432 -1.32292,0.2007 -0.26125,-0.0536 -0.61629,0.0855 -0.78898,0.30903 -0.27096,0.35081 -0.30354,0.334 -0.23782,-0.12267 0.0419,-0.29104 -0.18826,-0.76729 -0.51145,-1.05833 -0.866,-0.77987 -1.59026,-2.02016 -1.49793,-2.56518 0.0614,-0.36229 -0.0913,-0.47753 -0.63283,-0.47753 -1.610098,0 -7.97837,-1.23204 -8.434427,-1.63177 -0.383822,-0.33642 -0.730062,-0.26227 -0.515592,0.11042 0.110579,0.19215 0.08941,0.23834 -0.05053,0.11024 -0.132472,-0.12127 -0.243729,-0.35939 -0.24724,-0.52917 -0.0035,-0.16977 -0.219807,-0.29082 -0.48066,-0.26899 -0.260852,0.0218 -0.40639,-0.0282 -0.323418,-0.11117 0.08297,-0.083 -0.01043,-0.39849 -0.207556,-0.70115 -0.437254,-0.67133 -0.358262,-1.3618 0.23018,-2.01203 0.437775,-0.48373 0.34507,-1.05179 -0.17165,-1.05179 -0.146738,0 -0.200342,0.26789 -0.119119,0.59531 0.08122,0.32742 0.0769,0.4392 -0.0096,0.24841 -0.307817,-0.6789 -1.160743,0.47342 -1.160743,1.56818 v 1.00697 l -1.300806,-0.0558 c -0.715444,-0.0307 -1.280991,-0.17486 -1.256771,-0.32038 0.02422,-0.14552 -0.230771,-0.23499 -0.566647,-0.19883 -0.404528,0.0435 -0.547034,-0.0372 -0.42214,-0.23932 0.117665,-0.19038 0.07209,-0.23309 -0.121238,-0.11361 -0.170378,0.1053 -0.22991,0.32069 -0.132291,0.47864 0.103443,0.16737 0.05487,0.2114 -0.116421,0.10553 -0.161649,-0.0999 -0.233368,-0.33941 -0.159375,-0.53223 0.08116,-0.21149 -0.185863,-0.4833 -0.673014,-0.68509 -0.44415,-0.18397 -0.817777,-0.40935 -0.830282,-0.50083 -0.0125,-0.0915 -0.05103,-0.55213 -0.08562,-1.02366 -0.06622,-0.90282 -0.420812,-1.54209 -0.420812,-0.75866 0,0.25112 -0.117699,0.38384 -0.261553,0.29494 -0.149772,-0.0926 -0.194462,0.0132 -0.104567,0.24745 0.08634,0.225 0.256366,0.34767 0.377831,0.2726 0.121466,-0.0751 0.202715,0.10421 0.180555,0.3984 -0.02216,0.29418 -0.193548,0.53488 -0.380862,0.53488 -0.187314,0 -0.340571,0.0498 -0.340571,0.11065 0,0.0609 -0.06741,0.28634 -0.149809,0.50105 -0.09859,0.25693 0.142229,0.53609 0.704408,0.81654 0.46982,0.23438 0.905486,0.37487 0.968147,0.31221 0.06266,-0.0627 -0.254322,-0.30436 -0.704408,-0.53711 -0.450086,-0.23275 -0.818338,-0.48384 -0.818338,-0.55798 0,-0.0742 0.230298,-0.0116 0.511773,0.13908 0.786735,0.42105 1.297282,0.30617 0.546561,-0.12298 -0.363802,-0.20797 -0.542396,-0.38052 -0.396875,-0.38345 0.469429,-0.009 1.019269,0.461 1.088268,0.93112 0.08884,0.60533 0.645144,0.93244 1.259969,0.74086 0.341972,-0.10655 0.435464,-0.0564 0.300854,0.16141 -0.137486,0.22245 0.02898,0.29248 0.562338,0.23653 0.416701,-0.0437 0.876629,-0.0103 1.022063,0.0743 0.145433,0.0846 0.919268,0.30429 1.719632,0.48823 0.800365,0.18394 1.685605,0.45375 1.967199,0.59958 0.894523,0.46323 5.806893,1.7503 6.066952,1.58957 0.137331,-0.0849 0.170669,-0.0265 0.07409,0.12983 -0.103104,0.16682 0.206723,0.41032 0.750411,0.58975 0.703984,0.23234 0.980892,0.50707 1.154869,1.1458 0.125867,0.46211 0.335333,0.82054 0.465479,0.79653 0.130147,-0.024 0.261516,0.30236 0.291936,0.72528 0.045,0.62487 -0.0666,0.79417 -0.595306,0.90356 -0.357844,0.074 -0.978047,0.20108 -1.378229,0.28231 -1.231404,0.24997 -3.229151,1.24516 -3.057395,1.52307 0.08943,0.14469 0.03281,0.18287 -0.125803,0.0848 -0.158617,-0.098 -0.683029,0.0324 -1.165359,0.28985 -1.521014,0.81185 -3.244039,0.59155 -5.176443,-0.66185 -0.327422,-0.21237 -0.595312,-0.31607 -0.595312,-0.23044 0,0.0856 0.622561,0.57495 1.383468,1.08737 0.960398,0.64677 1.547001,0.87856 1.918229,0.75796 0.294119,-0.0956 0.832417,-0.20802 1.196219,-0.24994 z m 23.060565,-2.16825 c 0.26804,-0.19015 0.48735,-0.45191 0.48735,-0.58168 0,-0.34416 1.11422,-1.46514 1.65365,-1.66368 0.25466,-0.0937 0.46302,-0.32411 0.46302,-0.51196 0,-0.18784 0.23812,-0.49024 0.52916,-0.672 0.3376,-0.21083 0.52917,-0.61702 0.52917,-1.12198 0,-0.57525 0.12651,-0.79307 0.46302,-0.79723 0.26017,-0.003 0.6369,-0.37995 0.8599,-0.8599 0.21828,-0.46979 0.66476,-0.9717 0.99219,-1.11535 0.46561,-0.20427 0.59531,-0.47808 0.59531,-1.25677 0,-0.70858 -0.11441,-0.99559 -0.39688,-0.99559 -0.2221,0 -0.39687,0.23591 -0.39687,0.53572 0,0.51891 -0.13492,0.53344 -4.29948,0.46302 -3.60663,-0.061 -4.30142,-0.13666 -4.31151,-0.46957 -0.007,-0.21829 -0.18521,-0.3526 -0.39687,-0.29848 -0.21167,0.0541 -0.61183,0.16217 -0.88924,0.24012 -0.33822,0.095 -0.44204,0.0408 -0.31512,-0.16455 0.10411,-0.16844 0.13246,-0.30626 0.063,-0.30626 -0.0694,0 -0.34436,-0.0797 -0.61092,-0.17716 -0.44519,-0.16272 -0.44181,-0.12841 0.0415,0.42139 0.73982,0.84151 1.38305,1.1497 1.61529,0.77394 0.12537,-0.20285 0.0723,-0.23395 -0.15712,-0.0921 -0.23089,0.1427 -0.28252,0.11079 -0.15489,-0.0957 0.1053,-0.17038 0.30423,-0.24008 0.44207,-0.15489 0.13784,0.0852 0.1789,0.27094 0.0912,0.41278 -0.23247,0.37615 0.39705,1.02847 0.99252,1.02847 0.28181,0 0.44383,0.11091 0.36005,0.24648 -0.0838,0.13556 0.11755,0.43548 0.44741,0.66648 0.53486,0.37458 0.93433,1.88913 0.41334,1.56714 -0.38129,-0.23565 -0.20796,0.2862 0.31869,0.95948 0.5586,0.71413 0.66523,1.33349 0.29836,1.73302 -0.12694,0.13824 -0.29843,0.96573 -0.38111,1.83885 -0.0827,0.87313 -0.079,1.40891 0.008,1.19063 0.0871,-0.21828 0.37765,-0.55246 0.6457,-0.74261 z"
         id="path307" /><path
         style="fill:#b7d1e4"
         d="m 98.937231,170.41907 c 0.08062,-0.13045 0.608135,-0.47775 1.172249,-0.77179 0.56412,-0.29403 1.31477,-0.81238 1.66812,-1.15188 1.39715,-1.34239 2.16705,-1.8151 2.3998,-1.47346 0.15948,0.23408 0.20086,0.20684 0.14561,-0.0959 -0.0425,-0.23259 0.3148,-0.75342 0.79389,-1.1574 0.90773,-0.76543 1.4601,-0.74561 0.82028,0.0294 -0.31788,0.38507 -0.31398,0.42833 0.0284,0.31534 0.21829,-0.072 0.40892,-0.45071 0.42364,-0.8415 0.0147,-0.39079 0.0743,-0.74726 0.1323,-0.79216 0.68622,-0.53082 2.04737,-1.18619 2.18264,-1.05091 0.0957,0.0957 0.47689,-0.1107 0.84718,-0.45857 0.61721,-0.57984 0.63364,-0.64929 0.19739,-0.83433 -0.372,-0.15779 -0.33149,-0.1884 0.1856,-0.14026 0.57733,0.0538 0.67181,0.20462 0.74282,1.18607 0.081,1.11901 0.0864,1.12448 1.12448,1.12448 0.75083,0 1.04312,0.11121 1.04312,0.39687 0,0.21829 0.1228,0.39688 0.27289,0.39688 0.15009,0 0.34142,-0.17859 0.42518,-0.39688 0.18866,-0.49164 1.77975,-0.55666 1.61868,-0.0661 -0.0597,0.1819 -0.43002,0.36871 -0.82286,0.41513 -0.62305,0.0736 -0.70703,0.19187 -0.65765,0.92604 0.0609,0.90603 -0.45374,1.84834 -1.82716,3.34534 -0.47225,0.51474 -0.8592,1.02518 -0.8599,1.13432 -6.9e-4,0.10914 -2.74673,0.19844 -6.10229,0.19844 -3.53006,0 -6.039264,-0.1 -5.954449,-0.23718 z m 13.378389,-0.1273 c 0,-0.20046 0.18179,-0.51534 0.40397,-0.69974 0.39877,-0.33095 1.97728,-2.55469 1.97728,-2.7855 0,-0.0655 0.18611,-0.32739 0.41357,-0.58205 0.81003,-0.9069 1.96768,-2.52385 1.96768,-2.74836 0,-0.12551 0.17633,-0.2282 0.39184,-0.2282 0.21551,0 0.47105,-0.31564 0.56788,-0.70142 0.3081,-1.22758 1.24392,-2.45033 1.88456,-2.46238 0.32742,-0.006 0.59531,-0.17522 0.59531,-0.37568 0,-0.20046 0.17859,-0.5127 0.39687,-0.69386 0.33562,-0.27854 0.39688,-0.22228 0.39688,0.36448 0,0.63311 0.0927,0.69386 1.05833,0.69386 h 1.05833 v 1.05833 c 0,0.76435 0.11025,1.05833 0.39688,1.05833 0.33624,0 0.39687,0.64676 0.39687,4.23334 v 4.23333 h -5.95312 c -4.8801,0 -5.95313,-0.0657 -5.95313,-0.36448 z M 91.413542,155.67253 c -2.000474,-0.77746 -5.343011,-2.44026 -6.112938,-3.04098 -0.52446,-0.4092 -1.476659,-1.43237 -2.115998,-2.27371 -0.63934,-0.84135 -1.225017,-1.58925 -1.301507,-1.66201 -0.689405,-0.65579 -1.135267,-1.99019 -1.442031,-4.31578 -0.329812,-2.50032 -0.320296,-2.77237 0.131303,-3.75401 0.603979,-1.31286 1.999803,-2.97644 2.270363,-2.70588 0.110636,0.11064 0.06027,0.34205 -0.111935,0.51425 -0.867904,0.8679 0.10781,1.53238 3.182806,2.16754 2.488636,0.51404 4.888467,1.13262 5.242172,1.35122 0.145776,0.0901 1.126612,0.39623 2.179635,0.6803 3.033663,0.81839 5.751046,1.91325 5.751046,2.31717 0,0.20122 0.259301,0.82722 0.576224,1.3911 0.316923,0.56389 0.516198,1.08528 0.442838,1.15864 -0.0734,0.0734 -0.773092,0.2547 -1.554963,0.40298 -0.78187,0.14828 -2.430983,0.765 -3.664694,1.3705 -2.225626,1.09232 -2.255868,1.09872 -3.879548,0.82059 -1.708841,-0.29271 -2.331476,-0.68661 -4.062049,-2.56977 -0.525075,-0.57137 -1.133276,-1.22831 -1.351557,-1.45986 -0.849815,-0.9015 -2.142513,-2.6518 -2.772801,-3.75436 -0.752584,-1.31649 -0.78513,-1.30006 -0.332037,0.16766 0.468055,1.51619 1.310021,2.81277 1.723508,2.6541 0.205034,-0.0787 0.276844,-0.0153 0.17304,0.15261 -0.246917,0.39952 4.027344,4.47156 5.530836,5.26916 1.068163,0.56666 1.303723,0.60665 1.788785,0.30373 0.307244,-0.19188 0.487559,-0.23388 0.400699,-0.0933 -0.219224,0.35471 1.336135,-0.0257 4.071303,-0.99585 1.236927,-0.43872 2.56184,-0.80002 2.94425,-0.80289 0.382411,-0.003 1.096788,-0.16962 1.587498,-0.37054 0.49072,-0.20093 2.49955,-0.68326 4.46408,-1.07185 4.42784,-0.87584 6.9326,-1.59535 8.43385,-2.42269 0.63679,-0.35093 1.20234,-0.63806 1.25677,-0.63806 0.1587,0 0.10834,2.95077 -0.0686,4.02117 -0.12516,0.75704 -0.39571,1.13328 -1.19555,1.66259 -0.96469,0.6384 -1.21449,0.67962 -3.73792,0.61682 -2.52763,-0.0629 -2.8592,-0.008 -5.0796,0.84271 -1.3065,0.50051 -3.56869,1.6251 -5.027082,2.49909 l -2.651625,1.58908 -2.645833,0.0664 c -1.455208,0.0365 -2.824427,-0.003 -3.042708,-0.0878 z m 11.539048,-9.62343 c -0.80522,-0.74223 -1.26267,-1.41113 -1.37518,-2.01086 -0.14077,-0.75036 -0.2838,-0.89946 -0.86675,-0.90353 -0.782675,-0.005 -4.50025,-0.62514 -6.518993,-1.08663 -2.348248,-0.53682 -3.836458,-1.6131 -3.836458,-2.77455 0,-1.50419 2.963138,-3.27076 4.819064,-2.87304 0.478213,0.10248 0.803237,0.1161 0.722276,0.0303 -0.51085,-0.54159 -7.126823,-1.31888 -7.557769,-0.88793 -0.07963,0.0796 0.512003,0.22685 1.31475,0.32714 l 1.459539,0.18236 -0.908097,1.29196 c -0.552198,0.78562 -0.908097,1.60736 -0.908097,2.09673 0,0.48637 -0.163938,0.86767 -0.414372,0.96377 -0.511419,0.19625 -4.036042,-1.18971 -4.694013,-1.8458 -0.627979,-0.62617 -0.474849,-1.01311 0.606135,-1.53159 l 0.883265,-0.42365 -0.714825,-0.17941 c -0.86636,-0.21744 -2.565809,-2.71259 -3.06716,-4.50324 -0.210161,-0.75062 -0.450634,-1.14441 -0.635715,-1.04101 -0.218682,0.12216 -0.219661,0.0815 -0.0037,-0.15329 0.17198,-0.18694 0.222576,-0.66882 0.121908,-1.16103 -0.104662,-0.51174 -0.01252,-1.28651 0.235165,-1.97731 0.361621,-1.00858 0.362784,-1.16729 0.01038,-1.41628 -0.333566,-0.23569 -0.323015,-0.25666 0.06615,-0.13148 0.254661,0.0819 0.463021,0.0379 0.463021,-0.0978 0,-0.13571 0.416086,-0.52948 0.924635,-0.87505 0.508549,-0.34557 0.863532,-0.68941 0.78885,-0.76409 -0.07468,-0.0747 0.342291,-0.088 0.926606,-0.0295 0.88437,0.0884 1.236063,-0.0333 2.098835,-0.72667 0.849595,-0.68276 1.182477,-0.80084 1.846471,-0.655 1.132972,0.24884 1.501757,-0.0469 0.906317,-0.7268 -0.264141,-0.30161 -0.331428,-0.46135 -0.149527,-0.35499 0.183178,0.10711 0.330729,0.0606 0.330729,-0.10421 0,-0.48858 -0.526485,-1.32113 -0.835456,-1.32113 -0.178428,0 -0.149774,0.17583 0.07546,0.46302 0.331128,0.42222 0.321264,0.43014 -0.111936,0.0899 -0.261284,-0.20522 -0.415312,-0.52883 -0.342284,-0.71913 0.201377,-0.52478 -0.278906,-0.68412 -0.723125,-0.2399 -0.345365,0.34536 -0.410486,0.34566 -0.542193,0.002 -0.09586,-0.24981 0.01382,-0.39153 0.305031,-0.39413 0.27551,-0.002 0.342837,-0.0807 0.170834,-0.19843 -0.450317,-0.30835 -0.647101,-1.08615 -0.32514,-1.28513 0.177973,-0.10999 0.219439,-0.0611 0.105121,0.12382 -0.281048,0.45474 0.127152,0.36926 0.696306,-0.14581 0.403385,-0.36506 0.594583,-0.39137 1.000755,-0.13771 0.317531,0.1983 0.560978,0.21829 0.662272,0.0544 0.243885,-0.39462 1.080869,-0.30931 1.461166,0.14892 0.265997,0.32051 0.269585,0.47666 0.01672,0.7276 -0.252216,0.2503 -0.283776,0.21922 -0.145688,-0.1435 0.09695,-0.25466 0.05721,-0.46302 -0.08831,-0.46302 -0.370164,0 -0.616814,0.74334 -0.309643,0.93318 0.139165,0.086 0.253028,0.45404 0.253028,0.81784 0,0.36686 0.116066,0.58973 0.260599,0.5004 0.160595,-0.0992 0.201133,0.13627 0.105636,0.61375 -0.08623,0.43116 -0.03091,0.85148 0.124721,0.94767 0.153825,0.0951 0.208002,0.35965 0.120392,0.58796 -0.199796,0.52066 0.409566,0.92483 1.108443,0.7352 0.423634,-0.11495 0.450458,-0.0896 0.134504,0.12732 -0.733406,0.50341 0.129522,0.9247 1.741144,0.85005 0.818256,-0.0379 1.830672,0.0731 2.249811,0.24674 0.693958,0.28745 0.844858,0.24298 1.688271,-0.49755 1.178196,-1.03447 2.748251,-1.45609 4.766161,-1.27989 0.87502,0.0764 1.35282,0.077 1.06178,10e-4 -0.74477,-0.19355 -1.22823,-0.72803 -0.50081,-0.55368 0.66812,0.16015 0.71167,-0.42563 0.0962,-1.29388 -0.29893,-0.42171 -0.66171,-0.56349 -1.38906,-0.54288 -1.0516,0.0298 -1.38741,0.43806 -0.38915,0.47309 0.39779,0.014 0.46363,0.071 0.19844,0.17196 -0.21828,0.0831 -0.45783,0.24323 -0.53234,0.35586 -0.0745,0.11264 -0.27167,-0.0838 -0.43813,-0.43654 -0.16646,-0.35274 -0.1948,-0.64133 -0.063,-0.64133 0.13183,0 0.23969,-0.11907 0.23969,-0.26459 0,-0.14552 -0.18562,-0.26458 -0.41249,-0.26458 -0.22687,0 -0.34519,-0.10889 -0.26293,-0.24199 0.0823,-0.13309 0.009,-0.28889 -0.16317,-0.34622 -0.17199,-0.0573 0.18117,-0.3486 0.78481,-0.64725 0.60364,-0.29866 1.01176,-0.62879 0.90693,-0.73362 -0.10483,-0.10483 0.16634,-0.10306 0.6026,0.004 0.43627,0.10699 0.87049,0.31261 0.96494,0.45693 0.0945,0.14432 0.38878,0.17911 0.65405,0.0773 0.38189,-0.14654 0.40781,-0.23112 0.12452,-0.4062 -0.2344,-0.14487 -0.0785,-0.20708 0.45221,-0.18039 0.44549,0.0224 0.90386,0.13461 1.01859,0.24934 0.11473,0.11473 -0.0168,0.12211 -0.29229,0.0164 -0.39337,-0.15096 -0.46511,-0.099 -0.33422,0.24212 0.0917,0.23889 0.063,0.49842 -0.0638,0.57675 -0.12673,0.0783 -0.28383,-0.007 -0.34909,-0.18996 -0.0653,-0.18281 -0.20524,-0.25219 -0.31104,-0.15419 -0.1058,0.098 0.29462,0.82321 0.88982,1.61155 0.5952,0.78834 1.08219,1.57135 1.08219,1.74003 0,0.16868 0.12609,0.30669 0.2802,0.30669 0.15411,0 0.21033,0.11305 0.12494,0.25121 -0.0854,0.13817 0.25468,0.32812 0.75572,0.42212 0.50105,0.094 1.18121,0.45854 1.51148,0.81009 0.77693,0.82701 2.59041,1.35225 2.94197,0.85209 0.20048,-0.28523 0.22807,-0.28144 0.14699,0.0202 -0.0549,0.20423 0.17416,0.6453 0.50902,0.98016 0.52416,0.52416 0.60883,0.87732 0.60871,2.5391 -1.8e-4,2.57829 -1.48045,6.47606 -2.95024,7.76839 -1.62405,1.42798 -3.70922,1.95617 -5.59143,1.41636 -0.44842,-0.1286 -0.93696,-0.13141 -1.09489,-0.006 -0.39787,0.31522 -2.00497,0.51288 -2.00497,0.2466 0,-0.12032 -0.17062,-0.21876 -0.37916,-0.21876 -0.38275,0 -1.66573,-1.44373 -2.849373,-3.20638 l -0.642923,-0.95742 -0.602084,1.31242 c -0.331147,0.72183 -0.811839,1.52217 -1.068206,1.77854 -0.445105,0.4451 -0.309291,0.50964 3.012338,1.43151 1.913148,0.53096 4.482478,1.09128 5.709618,1.24515 1.22713,0.15387 2.28719,0.3358 2.35567,0.40429 0.0685,0.0685 -0.0968,0.77549 -0.36719,1.57111 -0.63598,1.87102 -0.38402,2.44187 1.57162,3.56078 0.81837,0.46822 1.44324,0.98803 1.38861,1.15513 -0.0546,0.16711 -0.507,0.38441 -1.00527,0.4829 -0.49827,0.0985 -1.62032,0.31797 -2.49344,0.48773 -0.87313,0.16976 -1.84513,0.36899 -2.16,0.44272 -0.41463,0.0971 -0.9052,-0.17262 -1.77908,-0.97813 z m 7.71689,-1.37581 c -1.07334,-0.6222 -1.79575,-1.84503 -1.78939,-3.0289 0.005,-0.89978 0.16367,-1.14935 1.11786,-1.75648 0.71648,-0.45588 0.74225,-0.44988 2.18547,0.50837 0.80325,0.53332 1.71395,1.37985 2.02378,1.88117 l 0.56333,0.91148 -0.63214,0.57307 c -0.76763,0.6959 -1.9923,1.49649 -2.27648,1.48817 -0.11426,-0.003 -0.65085,-0.26294 -1.19243,-0.57688 z M 70.511459,114.56458 v -9.525 h 9.445625 c 5.42656,0 9.338675,0.0987 9.194271,0.23197 -0.138245,0.12759 -1.322917,1.15001 -2.632605,2.27206 -2.893256,2.47873 -4.630208,4.07131 -4.630208,4.24536 0,0.38776 0.614173,-0.019 1.901392,-1.25928 0.792901,-0.76399 2.415862,-2.21495 3.606581,-3.22436 1.190719,-1.00942 2.164944,-1.93215 2.164944,-2.05052 0,-0.11838 4.196953,-0.21101 9.326562,-0.20585 8.219929,0.008 9.248079,0.0542 8.665099,0.3875 -0.3638,0.20796 -0.85989,0.38234 -1.10243,0.3875 -0.24253,0.005 -0.48066,0.11121 -0.52916,0.23569 -0.0485,0.12447 -1.33346,0.84999 -2.85545,1.61227 -4.912076,2.46017 -10.329621,5.67515 -10.329621,6.12999 0,0.12843 -0.120895,0.2335 -0.268654,0.2335 -0.296664,0 -3.034896,1.75386 -3.71777,2.38125 -0.81318,0.74712 -1.453488,1.19107 -2.635726,1.82745 -0.650682,0.35024 -1.556304,1.03485 -2.012493,1.52135 -0.598648,0.63842 -1.06017,0.88454 -1.658686,0.88454 -0.752418,0 -0.813871,0.0613 -0.663237,0.66146 0.122726,0.48898 0.0608,0.66146 -0.237494,0.66146 -0.22193,0 -0.45808,0.14882 -0.524777,0.33072 -0.09701,0.26459 -0.191382,0.26459 -0.47184,0 -0.288707,-0.27236 -0.271198,-0.33072 0.09922,-0.33072 0.303389,0 0.449791,-0.2153 0.449791,-0.66146 0,-0.36381 0.119063,-0.66146 0.264584,-0.66146 0.14552,0 0.264583,-0.1786 0.264583,-0.39688 0,-0.26934 -0.269618,-0.39687 -0.839062,-0.39687 -0.461485,0 -1.056797,-0.19705 -1.322917,-0.43788 -0.450232,-0.40746 -0.483854,-0.40746 -0.483854,0 0,0.33447 -0.249932,0.43788 -1.058334,0.43788 -0.582083,0 -1.058333,-0.11906 -1.058333,-0.26458 0,-0.14553 -0.178594,-0.26459 -0.396875,-0.26459 -0.218281,0 -0.396875,-0.0709 -0.396875,-0.15761 0,-0.26562 0.913424,-1.82116 1.124479,-1.91496 0.109141,-0.0485 0.198438,-0.2606 0.198438,-0.47132 0,-0.21072 0.190482,-0.45623 0.423294,-0.54557 0.895207,-0.34352 2.141993,-1.95361 1.494935,-1.93055 -0.365394,0.013 -2.310645,1.96866 -2.690543,2.70491 -0.206491,0.40018 -0.504147,0.73184 -0.661458,0.73701 -0.281274,0.009 -3.096157,3.39392 -3.279156,3.94292 -0.05152,0.15455 -0.262341,0.28101 -0.468496,0.28101 -0.206154,0 -0.378787,0.20835 -0.383629,0.46302 -0.0086,0.4531 -0.849379,1.65364 -1.158087,1.65364 -0.08581,0 -0.156027,-4.28625 -0.156027,-9.525 z m 27.516666,1.45521 c 0,-0.31719 -0.394961,-0.39688 -1.967151,-0.39688 -2.056295,0 -3.324515,-0.30974 -3.324515,-0.81197 0,-0.16274 0.238125,-0.35817 0.529166,-0.43428 0.291042,-0.0761 0.529167,-0.30309 0.529167,-0.5044 0,-0.2013 0.178594,-0.36601 0.396875,-0.36601 0.218281,0 0.396875,-0.11906 0.396875,-0.26459 0,-0.14552 0.178594,-0.26458 0.396875,-0.26458 0.218281,0 0.396875,-0.11906 0.396875,-0.26458 0,-0.14552 0.357187,-0.26459 0.79375,-0.26459 0.617361,0 0.79375,-0.11759 0.79375,-0.52916 0,-0.51846 0.349414,-0.65105 1.417984,-0.53811 0.27954,0.0296 0.419137,-0.0658 0.323319,-0.22084 -0.09274,-0.15006 0.102601,-0.42709 0.434099,-0.61561 0.581395,-0.33065 0.745613,-0.38084 1.462616,-0.44701 0.1819,-0.0168 0.33073,-0.20911 0.33073,-0.42739 0,-0.21828 0.1786,-0.39688 0.39688,-0.39688 0.21828,0 0.39687,-0.10318 0.39687,-0.2293 0,-0.12612 0.59531,-0.47671 1.32292,-0.77909 0.7276,-0.30238 1.32291,-0.67544 1.32291,-0.82903 0,-0.15358 0.23975,-0.27924 0.53276,-0.27924 0.29302,0 0.7395,-0.10488 0.99219,-0.23306 1.5164,-0.76924 2.95631,-1.35444 3.33268,-1.35444 0.23872,0 0.43404,-0.11906 0.43404,-0.26459 0,-0.16997 2.60174,-0.26458 7.27604,-0.26458 h 7.27604 v 5.29167 c 0,4.52731 -0.0573,5.29166 -0.39687,5.29166 -0.21828,0 -0.39688,0.1786 -0.39688,0.39688 0,0.28663 -0.29398,0.39687 -1.05833,0.39687 -0.76435,0 -1.05833,-0.11024 -1.05833,-0.39687 0,-0.3197 -0.41158,-0.39688 -2.11667,-0.39688 -1.70509,0 -2.11667,0.0772 -2.11667,0.39688 0,0.28663 -0.29398,0.39687 -1.05833,0.39687 -0.76435,0 -1.05833,-0.11024 -1.05833,-0.39687 0,-0.33073 -0.52917,-0.39688 -3.175,-0.39688 -2.64584,0 -3.175,0.0661 -3.175,0.39688 0,0.3197 -0.41158,0.39687 -2.11667,0.39687 -1.70509,0 -2.11667,-0.0772 -2.11667,-0.39687 0,-0.3197 -0.41157,-0.39688 -2.11666,-0.39688 -1.70509,0 -2.11667,0.0772 -2.11667,0.39688 0,0.28663 -0.29398,0.39687 -1.058332,0.39687 -0.764351,0 -1.058333,-0.11024 -1.058333,-0.39687 z"
         id="path306" /><path
         style="fill:#ca9e3d"
         d="m 92.006033,155.5316 c -0.620015,-0.107 -2.371786,-0.79482 -3.892823,-1.52849 -2.522316,-1.21662 -2.9168,-1.51123 -4.485718,-3.34999 -0.946107,-1.10883 -1.957509,-2.50885 -2.247559,-3.11115 -0.652753,-1.35547 -1.209729,-5.61718 -0.853847,-6.53321 0.349021,-0.89837 1.897741,-2.97834 2.081105,-2.79497 0.08278,0.0828 -0.0076,0.34105 -0.200911,0.57394 -0.293616,0.35378 -0.288938,0.46509 0.02844,0.67671 0.920808,0.61396 1.32651,0.75233 3.436507,1.17205 2.674866,0.53209 4.920274,1.09155 5.284548,1.31668 0.145776,0.0901 1.126612,0.39623 2.179635,0.6803 3.033663,0.81839 5.751046,1.91325 5.751046,2.31717 0,0.20122 0.259301,0.82722 0.576224,1.3911 0.316923,0.56389 0.5162,1.08528 0.44284,1.15864 -0.0734,0.0734 -0.779145,0.25254 -1.56841,0.39819 -0.789266,0.14564 -2.43011,0.75391 -3.64632,1.35171 -2.029228,0.99742 -2.327472,1.07239 -3.622374,0.91061 -1.030445,-0.12875 -1.711847,-0.41431 -2.52606,-1.05862 -1.67834,-1.32812 -5.194452,-5.3901 -5.962984,-6.88873 l -0.678424,-1.32292 0.180469,1.04603 c 0.09926,0.57532 0.39592,1.46828 0.65925,1.98438 0.551498,1.08086 4.930001,5.40709 6.572549,6.49408 0.994247,0.65796 1.261952,0.71657 2.570507,0.56277 1.146466,-0.13474 1.492319,-0.0892 1.607769,0.21164 0.0809,0.21083 0.315831,0.31856 0.52207,0.23942 0.375298,-0.14401 0.530379,0.67557 0.432127,2.28373 -0.02188,0.35816 0.05932,0.71535 0.180454,0.79375 0.121133,0.0784 0.303127,0.40817 0.404431,0.73283 0.172413,0.55256 0.111255,0.58699 -0.956526,0.5386 -0.627394,-0.0284 -1.648002,-0.13925 -2.268017,-0.24625 z m 3.905426,-0.61806 c 0,-0.21828 -0.119063,-0.39687 -0.264584,-0.39687 -0.318367,0 -0.318367,-1.50808 0,-2.24896 0.18241,-0.42449 0.231069,-0.3329 0.245987,0.46302 0.01728,0.92191 0.07482,0.99219 0.812346,0.99219 0.749653,0 0.79375,-0.0588 0.79375,-1.05834 0,-0.97717 -0.0558,-1.05864 -0.727604,-1.06238 -0.566985,-0.003 -0.639994,-0.0607 -0.330729,-0.26053 0.319292,-0.20635 0.277448,-0.25728 -0.214052,-0.26054 -0.340651,-0.002 -0.53832,-0.12153 -0.446806,-0.2696 0.09027,-0.14606 0.454481,-0.19268 0.809365,-0.10361 0.39325,0.0987 0.645243,0.0474 0.645243,-0.13132 0,-0.41214 -1.357962,-0.35016 -1.936489,0.0884 -0.459298,0.34817 -0.455366,0.37306 0.08608,0.54491 0.312051,0.099 0.518232,0.22921 0.45818,0.28926 -0.06005,0.0601 -0.56954,-0.0502 -1.132196,-0.24499 L 93.68694,150.9 l 2.15384,-0.82247 c 1.184612,-0.45236 2.726925,-0.9349 3.427361,-1.07232 0.700436,-0.13741 2.523679,-0.5525 4.051649,-0.92241 1.52797,-0.36991 3.90922,-0.92529 5.29167,-1.23416 2.97092,-0.66379 5.0242,-1.33107 5.509,-1.79034 0.61837,-0.5858 0.841,-0.3583 0.841,0.85941 0,0.66159 -0.1245,1.19062 -0.2802,1.19062 -0.15411,0 -0.20787,0.11704 -0.11946,0.26009 0.0884,0.14304 0.0864,0.65629 -0.004,1.14055 -0.12177,0.64913 -0.43655,1.0482 -1.19795,1.51877 -0.91973,0.56842 -1.3447,0.63967 -3.88255,0.65091 -2.551,0.0113 -3.09636,0.10383 -5.20173,0.88249 -1.29357,0.47842 -2.77973,1.16054 -3.30256,1.51582 -0.52284,0.35528 -1.060572,0.64596 -1.194957,0.64596 -0.134385,0 -0.662905,0.31925 -1.174489,0.70946 -0.511584,0.3902 -0.834991,0.55549 -0.718681,0.36729 0.125911,-0.20373 0.06395,-0.43561 -0.153155,-0.57312 -0.501306,-0.31752 -1.819834,-0.29902 -1.819834,0.0255 0,0.14552 0.18562,0.26459 0.412489,0.26459 0.22687,0 0.345191,0.10889 0.262935,0.24198 -0.08226,0.13309 1.5e-5,0.30229 0.182823,0.37599 0.182808,0.0737 0.06449,0.1434 -0.262935,0.15489 -0.362061,0.0127 -0.595312,-0.13461 -0.595312,-0.37599 z m 7.101071,-8.83994 c -0.82186,-0.72343 -1.27337,-1.35925 -1.384,-1.94897 l -0.1642,-0.87525 -3.20049,-0.46757 c -3.99328,-0.58339 -6.168647,-1.24922 -7.148518,-2.18799 -1.397842,-1.33922 -0.728463,-2.79691 1.745437,-3.80099 l 1.461814,-0.59331 3.109547,0.86136 c 5.45993,1.51243 6.79561,1.83615 7.60746,1.84376 0.43657,0.004 1.24024,0.0812 1.78594,0.17143 1.10828,0.18319 1.23218,0.55439 0.59368,1.77865 -0.52816,1.01271 -0.49954,2.11249 0.0678,2.60401 0.25466,0.22064 1.03371,0.72967 1.73123,1.13118 1.43587,0.82654 1.48242,1.24684 0.1669,1.50687 -0.49827,0.0985 -1.62032,0.31797 -2.49344,0.48773 -0.87313,0.16976 -1.82867,0.36584 -2.12342,0.43573 -0.36483,0.0865 -0.92535,-0.21571 -1.75572,-0.94664 z m 7.84789,-1.30962 c -1.26109,-0.77897 -1.77277,-1.51768 -1.913,-2.76178 -0.11569,-1.02644 -0.0476,-1.22419 0.59614,-1.73053 0.39972,-0.31442 0.88751,-0.57167 1.08398,-0.57167 0.7697,0 2.90157,1.60644 3.47046,2.61512 l 0.59175,1.04921 -1.28866,0.94596 c -0.70876,0.52028 -1.39176,0.94551 -1.51779,0.94497 -0.12602,-5.4e-4 -0.58632,-0.22162 -1.02288,-0.49128 z m -23.415628,-4.63183 c -1.838055,-0.68446 -3.400932,-1.5373 -3.555544,-1.94021 -0.229614,-0.59836 0.179185,-0.96083 1.700699,-1.50796 0.743302,-0.26729 1.305433,-0.532 1.249181,-0.58826 -0.05625,-0.0563 -0.50127,0.0368 -0.988928,0.20681 -0.847688,0.29551 -0.923003,0.26704 -1.713941,-0.64794 -0.45501,-0.52637 -1.175221,-1.58766 -1.600468,-2.35842 -0.701607,-1.27166 -0.773472,-1.63507 -0.776359,-3.92596 -0.0025,-1.99133 0.09766,-2.6786 0.474215,-3.25378 0.606843,-0.92692 1.963891,-1.76 2.869034,-1.76128 0.385329,-5.4e-4 1.218766,-0.29721 1.852083,-0.65926 0.658048,-0.37618 1.576661,-0.65963 2.143674,-0.66145 0.830366,-0.003 0.992187,-0.0938 0.992187,-0.55852 0,-0.97645 -0.82191,-2.32933 -1.771786,-2.91639 l -0.921701,-0.56964 0.677623,-0.67763 0.677623,-0.67762 0.99985,0.80912 c 0.8609,0.69667 1.062,1.07634 1.447066,2.73199 0.599658,2.57831 1.503936,3.41653 3.702747,3.43225 0.827271,0.006 1.80283,0.12431 2.167908,0.26312 0.559234,0.21262 0.795067,0.12972 1.497368,-0.52633 1.122215,-1.0483 3.120127,-1.61911 4.924737,-1.40702 1.36206,0.16009 1.41519,0.1426 1.41424,-0.46541 -5.4e-4,-0.34745 -0.24433,-1.03088 -0.54175,-1.51872 -0.4837,-0.79339 -0.63224,-0.86982 -1.40776,-0.72433 -0.74142,0.13909 -0.91894,0.0656 -1.22561,-0.50743 -0.44496,-0.83142 -0.17288,-1.15065 1.16592,-1.3679 0.9243,-0.15 1.06635,-0.0755 2.24104,1.17574 0.68981,0.73473 1.47393,1.82315 1.74248,2.41871 0.36357,0.80624 0.64179,1.08282 1.08926,1.08282 0.33054,0 0.98799,0.32742 1.46099,0.7276 0.47301,0.40019 1.39259,0.84667 2.04351,0.99219 1.66257,0.37169 2.25234,1.24527 2.38128,3.52719 0.0944,1.67095 0.0223,1.95741 -1.08006,4.29102 -1.83736,3.8895 -3.31379,4.9419 -6.55219,4.67041 -1.14557,-0.096 -1.89724,-0.0509 -2.00306,0.12032 -0.10401,0.16829 -0.64231,0.2057 -1.39486,0.0969 -1.28895,-0.18628 -1.28875,-0.18611 -3.318527,-2.83679 l -1.154762,-1.508 -0.851644,1.72993 c -0.736485,1.49602 -0.928335,1.70745 -1.418808,1.56366 -2.950858,-0.8651 -7.346139,-1.27737 -7.884005,-0.73951 -0.181692,0.1817 0.170981,0.26856 1.090312,0.26856 0.74738,0 1.423775,0.0649 1.5031,0.14423 0.07932,0.0793 -0.24987,0.71703 -0.731543,1.41712 -0.499063,0.72536 -0.879911,1.61373 -0.885399,2.06529 -0.01131,0.93096 -0.409337,1.06231 -1.729422,0.57074 z"
         id="path305" /><path
         style="fill:#cc442b"
         d="m 91.005919,150.04135 c -1.352752,-0.22238 -2.533742,-1.12604 -5.147773,-3.93892 -2.199742,-2.36708 -3.70502,-4.80755 -3.70502,-6.00688 0,-0.7158 0.005,-0.71775 0.688521,-0.26986 0.378687,0.24813 1.812115,0.67717 3.185397,0.95342 1.373281,0.27625 3.355399,0.79041 4.404707,1.14256 1.049308,0.35215 2.681739,0.83519 3.627624,1.07341 2.577653,0.64918 5.026911,1.73775 5.028072,2.23472 5.44e-4,0.23283 0.239093,0.81385 0.530108,1.29116 0.593495,0.97342 0.651535,0.92312 -1.585421,1.37416 -0.79816,0.16094 -2.325349,0.76412 -3.393753,1.34041 -1.068405,0.57629 -2.08224,1.0329 -2.252967,1.01469 -0.170728,-0.0182 -0.7915,-0.11221 -1.379495,-0.20887 z m 12.514911,-3.59903 c -1.03837,-0.70559 -1.78854,-1.85661 -1.78854,-2.74422 0,-0.42686 -0.23705,-0.55884 -1.25677,-0.69973 -3.036863,-0.41956 -5.835308,-0.9572 -7.166526,-1.37683 -1.494226,-0.47101 -2.953785,-1.58607 -2.953785,-2.2566 0,-0.73943 1.160079,-1.85572 2.582038,-2.48458 l 1.429686,-0.63228 3.219658,0.9625 c 4.037549,1.20699 5.710269,1.60291 7.717579,1.82665 2.66609,0.29717 2.57748,0.21636 1.95867,1.7863 -0.29453,0.74724 -0.46864,1.62502 -0.38692,1.95063 0.09,0.3585 0.77981,0.97547 1.74884,1.56413 0.88014,0.53465 1.55575,1.10874 1.50137,1.27576 -0.0544,0.16701 -0.68532,0.39771 -1.40209,0.51267 -1.56526,0.25104 -3.2721,0.62417 -3.81702,0.83443 -0.21843,0.0843 -0.84221,-0.14919 -1.38619,-0.51883 z m 6.89071,-2.10883 c -0.96547,-0.65605 -1.08581,-0.86354 -1.39419,-2.40386 -0.13119,-0.65524 -0.0253,-0.95057 0.54549,-1.52135 0.38955,-0.38956 0.84732,-0.70828 1.01727,-0.70828 0.66583,0 2.74341,1.57572 3.33089,2.52628 l 0.61986,1.00296 -1.01941,0.88122 c -1.21887,1.05363 -1.81451,1.09649 -3.09991,0.22303 z m -24.437543,-4.89894 c -1.733383,-0.81 -2.464549,-1.46129 -2.076334,-1.8495 0.624011,-0.62402 3.906869,-1.58922 5.405253,-1.58922 0.869802,0 1.581459,0.0693 1.581459,0.15391 0,0.0846 -0.416718,0.66246 -0.926041,1.28402 -0.622755,0.75999 -0.926042,1.40281 -0.926042,1.96276 0,0.73747 -0.08317,0.83004 -0.727604,0.80989 -0.400182,-0.0125 -1.448993,-0.35985 -2.330691,-0.77186 z m 14.875193,-3.42603 c -0.51958,-0.57511 -1.270659,-1.53823 -1.669072,-2.14027 l -0.724386,-1.09463 -0.87891,1.7434 c -0.483401,0.95887 -1.048474,1.7434 -1.255719,1.7434 -0.207244,0 -1.128337,-0.17176 -2.046872,-0.38168 -3.457996,-0.79028 -4.676701,-0.79473 -7.107342,-0.0259 l -2.235638,0.70711 -0.849738,-1.00964 c -0.467356,-0.5553 -1.179332,-1.66075 -1.582169,-2.45655 -0.627841,-1.24029 -0.733192,-1.76924 -0.737762,-3.70417 -0.0035,-1.4904 0.129497,-2.52411 0.391544,-3.04278 0.465926,-0.92219 2.199347,-1.98204 3.251859,-1.98824 0.406075,-0.002 1.078292,-0.25571 1.493815,-0.56292 0.415524,-0.30721 1.303671,-0.62035 1.973661,-0.69587 1.074362,-0.12109 1.218164,-0.21287 1.218164,-0.77749 0,-0.97918 -0.699406,-2.11822 -1.731132,-2.8193 l -0.931641,-0.63307 0.660619,-0.43285 c 0.880395,-0.57686 0.990206,-0.55727 1.83826,0.32791 0.482819,0.50395 0.896683,1.41321 1.226021,2.69357 0.273441,1.06304 0.676228,2.03301 0.895083,2.15549 0.218855,0.12248 0.595936,0.4207 0.837957,0.66272 0.311449,0.31145 0.809291,0.42044 1.703636,0.37297 0.694979,-0.0369 1.762083,0.0672 2.371343,0.23122 0.794502,0.21394 1.205122,0.21747 1.452108,0.0125 0.260452,-0.21615 0.37846,-0.15541 0.484296,0.24931 0.07696,0.29431 0.03198,0.46839 -0.09998,0.38684 -0.400309,-0.2474 -0.268223,0.34601 0.175866,0.7901 0.228675,0.22868 0.333159,0.41578 0.232186,0.41578 -0.100973,0 -0.03663,0.17707 0.142993,0.3935 0.17962,0.21643 0.255093,0.5798 0.167719,0.80749 -0.08737,0.2277 -0.05916,0.35237 0.06269,0.27707 0.121852,-0.0753 0.238152,0.18639 0.258446,0.58157 0.02029,0.39517 0.08096,0.95662 0.134821,1.24766 0.05385,0.29104 -0.03404,0.62752 -0.19533,0.74774 -0.211831,0.1579 -0.205553,0.25447 0.02261,0.34783 0.173726,0.0711 0.242794,0.31967 0.153475,0.55242 -0.111917,0.29165 -0.06068,0.36033 0.164849,0.22094 0.20412,-0.12615 0.30315,-0.0678 0.2632,0.15504 -0.0352,0.1965 0.0969,0.89306 0.29363,1.5479 0.19672,0.65485 0.33239,1.29266 0.3015,1.41737 -0.0309,0.12471 0.18218,0.63072 0.4735,1.12448 0.29132,0.49375 0.48802,0.89774 0.4371,0.89774 -0.0509,0 -0.51769,-0.47055 -1.03726,-1.04565 z m 5.354,-9.92394 c -1.03079,-0.74623 -2.95187,-1.8269 -3.14798,-1.77085 -0.0728,0.0208 -0.5401,-0.0968 -1.03853,-0.26127 -0.86099,-0.28416 -0.8808,-0.31789 -0.39687,-0.6757 0.37794,-0.27945 0.90896,-0.33095 2.05814,-0.19961 l 1.54878,0.17701 -0.18005,-0.88906 c -0.28679,-1.41609 -0.99843,-2.21198 -1.97782,-2.21198 -0.53397,0 -0.9877,-0.19028 -1.22469,-0.51359 -0.5586,-0.76207 -0.48148,-0.89294 0.71626,-1.21546 l 1.09273,-0.29424 1.31035,1.39569 c 0.72069,0.76764 1.54304,1.85181 1.82744,2.40928 0.37554,0.73612 0.73391,1.05694 1.30917,1.17199 0.43565,0.0871 1.01395,0.44047 1.2851,0.78519 0.27116,0.34472 0.68424,0.62677 0.91796,0.62677 0.69469,0 0.48283,0.45735 -0.30266,0.65337 -0.40018,0.0999 -1.10661,0.46996 -1.56985,0.82244 -1.04186,0.79274 -1.11913,0.7924 -2.22748,-0.01 z"
         id="path304" /><path
         style="fill:#c6231b"
         d="m 91.272621,150.0283 c -1.086506,-0.11888 -1.586383,-0.36444 -2.716334,-1.33439 -1.184932,-1.01714 -1.362832,-1.29008 -1.232652,-1.89112 0.08368,-0.38633 0.03721,-0.77344 -0.103261,-0.86026 -0.149208,-0.0922 -0.193324,0.0795 -0.106104,0.41306 0.111223,0.42532 0.06077,0.51619 -0.197847,0.35636 -0.249329,-0.15409 -0.286327,-0.10984 -0.131305,0.15706 0.11871,0.20439 -0.10055,0.0834 -0.487243,-0.26884 -0.386694,-0.35225 -0.66415,-0.67938 -0.61657,-0.72696 0.04758,-0.0476 -0.427855,-0.62333 -1.056523,-1.27944 -1.194654,-1.24681 -2.060806,-2.90078 -1.767561,-3.37526 0.09841,-0.15923 0.04462,-0.19899 -0.126292,-0.0934 -0.18055,0.11158 -0.365324,-0.0854 -0.46953,-0.50061 -0.230231,-0.91731 -0.04001,-1.03965 0.878214,-0.56482 0.424094,0.21931 1.596018,0.58553 2.604276,0.81382 l 1.833195,0.41507 -1.496437,-0.11116 -1.496438,-0.11116 -0.09621,1.20966 c -0.07825,0.98394 -0.0088,1.23251 0.371958,1.33209 0.257492,0.0673 0.468167,0.23463 0.468167,0.37177 0,0.13713 -0.134509,0.1662 -0.298909,0.0646 -0.181433,-0.11213 -0.250756,-0.0403 -0.176389,0.18282 0.06739,0.20216 0.23166,0.36938 0.365054,0.37161 0.443771,0.007 0.914761,0.42593 0.760403,0.67569 -0.129061,0.20883 0.385399,0.36133 0.971983,0.28814 0.09181,-0.0115 0.376136,0.21033 0.631828,0.49287 0.380138,0.42005 0.404094,0.58696 0.131398,0.91554 -0.330112,0.39776 -0.099,0.55427 0.623653,0.42235 0.126994,-0.0232 0.164277,0.13146 0.08285,0.34364 -0.143664,0.37439 0.546151,0.84852 0.82655,0.56812 0.07619,-0.0762 0.01946,-0.13852 -0.126063,-0.13852 -0.145521,0 -0.264584,-0.15308 -0.264584,-0.34017 0,-0.23505 0.427948,-0.33726 1.384751,-0.33073 0.761613,0.005 1.330055,0.0987 1.263205,0.20788 -0.229499,0.37468 2.173197,0.19843 2.74386,-0.20128 0.420453,-0.2945 0.620825,-0.31856 0.76121,-0.0914 0.118679,0.19203 0.07534,0.2371 -0.114923,0.11951 -0.168005,-0.10383 -0.305464,-0.0754 -0.305464,0.0631 0,0.4072 0.737786,0.57139 0.881752,0.19622 0.07249,-0.1889 0.386802,-0.41014 0.698476,-0.49165 0.466559,-0.122 0.511538,-0.0817 0.254579,0.22787 -0.247934,0.29875 -0.223844,0.37606 0.117171,0.37606 0.236099,0 0.429272,-0.11906 0.429272,-0.26458 0,-0.14552 0.170089,-0.26458 0.377976,-0.26458 0.431923,0 1.209524,-0.70259 1.209524,-1.09285 0,-0.14372 -0.09355,-0.20348 -0.207887,-0.13282 -0.114338,0.0707 -0.207887,-0.0775 -0.207887,-0.32923 0,-0.85954 0.806334,-0.53628 1.249238,0.50082 0.45227,1.05903 0.403343,1.31866 -0.2485,1.31866 -0.315093,0 -0.324279,-0.0734 -0.05049,-0.40327 0.184076,-0.2218 0.258186,-0.47977 0.164688,-0.57326 -0.0935,-0.0935 -0.171818,-0.001 -0.174046,0.20483 -0.0034,0.31646 -0.04012,0.31788 -0.235658,0.009 -0.183423,-0.28961 -0.266978,-0.25425 -0.401622,0.16998 -0.176174,0.55507 -1.222425,1.11565 -2.222887,1.19101 -0.316451,0.0238 -0.575365,0.13536 -0.575365,0.24782 0,0.11245 -0.684609,0.53877 -1.521354,0.94736 -1.263854,0.61715 -1.746728,0.71823 -2.8529,0.59719 z m -7.199403,-14.54799 c -1.20696,-1.40651 -2.154966,-3.62052 -2.350245,-5.48886 -0.326513,-3.1239 1.000851,-5.26379 3.359132,-5.41538 0.499114,-0.0321 1.238406,-0.32852 1.642871,-0.65876 0.729152,-0.59533 2.106907,-1.00226 2.839822,-0.83876 0.519719,0.11594 0.65063,-0.95932 0.23806,-1.95536 -0.182135,-0.43971 -0.786664,-1.12944 -1.343398,-1.53274 l -1.012243,-0.73326 0.650937,-0.42651 c 0.869836,-0.56994 0.981939,-0.54945 1.828577,0.33425 0.477451,0.49835 0.89553,1.40873 1.212062,2.6393 0.643279,2.50085 1.554231,3.33595 3.543724,3.24867 3.057882,-0.13414 4.418101,1.1503 4.622816,4.3653 0.0974,1.52961 0.01726,1.80821 -1.276288,4.43715 -0.759116,1.54279 -1.456824,2.8035 -1.550462,2.80159 -0.09364,-0.002 -1.301343,-0.23847 -2.683791,-0.52569 -3.305432,-0.68674 -4.540977,-0.66298 -6.879167,0.13229 -1.069622,0.3638 -1.953679,0.65138 -1.964571,0.63906 -0.01089,-0.0123 -0.405918,-0.47235 -0.877836,-1.02229 z m 22.556962,-9.06595 c -0.28933,-0.16774 -0.75273,-0.51614 -1.02976,-0.77423 -0.27703,-0.25809 -1.02256,-0.71316 -1.65674,-1.01126 -0.63418,-0.2981 -1.15306,-0.60822 -1.15306,-0.68915 0,-0.0809 0.53579,-0.0668 1.19063,0.0314 0.80519,0.12075 1.19062,0.0832 1.19062,-0.11608 0,-0.16204 -0.14882,-0.29645 -0.33072,-0.29868 -0.24892,-0.003 -0.24387,-0.0591 0.0204,-0.22666 0.27609,-0.17504 0.29047,-0.44794 0.0673,-1.27685 -0.36607,-1.35948 -1.11085,-2.04801 -1.97948,-1.83 -0.49486,0.1242 -0.75788,0.0198 -1.06899,-0.42439 -0.59149,-0.84447 -0.53673,-0.94674 0.68289,-1.27514 l 1.09552,-0.295 1.35187,1.45965 c 1.21148,1.30807 2.21467,2.9052 2.63713,4.19843 0.0947,0.28984 0.54456,0.52141 1.22402,0.63006 1.40303,0.22436 1.55232,0.53025 0.47795,0.97934 -0.47881,0.20014 -1.03397,0.56093 -1.23369,0.80176 -0.4236,0.51077 -0.76056,0.53726 -1.48586,0.1168 z"
         id="path303" /><path
         style="fill:#ad1c15"
         d="m 84.032235,135.38686 c -2.838692,-3.50748 -3.179851,-8.6992 -0.673435,-10.24825 0.498089,-0.30783 1.105319,-0.52097 1.3494,-0.47363 0.589592,0.11434 0.783974,0.74752 0.229484,0.74752 -0.242234,0 -0.35683,-0.12574 -0.258945,-0.28412 0.09658,-0.15626 -0.07499,-0.12762 -0.38126,0.0636 -0.306269,0.19127 -0.556853,0.43818 -0.556853,0.5487 0,0.11051 -0.15875,0.20094 -0.352778,0.20094 -0.194028,0 -0.352778,0.16721 -0.352778,0.37157 0,0.29409 0.101161,0.30841 0.485069,0.0687 0.266789,-0.16661 0.486893,-0.42312 0.489121,-0.57002 0.0022,-0.14689 0.121291,-0.0885 0.264584,0.1298 0.231584,0.35277 0.292168,0.35277 0.545258,0 0.25309,-0.35278 0.272608,-0.35278 0.17566,0 -0.05999,0.21828 -0.291039,0.39866 -0.513449,0.40086 -0.526843,0.005 -1.269854,0.62816 -1.269854,1.06469 0,0.18834 -0.148828,0.41079 -0.330729,0.49433 -0.181901,0.0835 -0.04483,0.0797 0.304607,-0.008 0.509719,-0.12868 0.602908,-0.0759 0.471325,0.26702 -0.202865,0.52866 0.0035,0.5351 0.971397,0.0303 0.87495,-0.45633 1.33127,-0.28625 1.144831,0.4267 -0.07178,0.27447 -0.01684,0.56929 0.122089,0.65515 0.153694,0.095 0.13177,0.30169 -0.056,0.52793 -0.244147,0.29418 -0.178041,0.47754 0.316559,0.87804 0.626734,0.5075 1.024667,0.50052 1.024667,-0.018 0,-0.1525 -0.183101,-0.20701 -0.406891,-0.12113 -0.399314,0.15323 -0.866931,-0.5014 -0.570155,-0.79818 0.230649,-0.23065 1.770796,0.77375 1.770796,1.15482 0,0.27583 0.102458,0.27808 0.529166,0.0116 0.291042,-0.18176 0.529167,-0.48043 0.529167,-0.6637 0,-0.4075 0.145246,-0.41572 0.833805,-0.0472 0.766736,0.41034 0.898776,0.11216 0.255897,-0.57789 -0.342423,-0.36755 -0.462432,-0.69968 -0.317022,-0.87739 0.141126,-0.17247 0.05897,-0.65346 -0.207017,-1.21199 -0.463761,-0.97384 -0.386465,-0.94919 -3.251286,-1.03687 -0.610904,-0.0187 -0.694168,-0.12373 -0.646295,-0.81522 0.03022,-0.43656 -0.04117,-0.79375 -0.158648,-0.79375 -0.11748,0 -0.2136,-0.12609 -0.2136,-0.2802 0,-0.15411 0.121499,-0.2051 0.269999,-0.11333 0.1485,0.0918 0.628255,-0.13458 1.066122,-0.50302 0.776623,-0.65348 2.135342,-1.07893 2.900551,-0.90823 0.519719,0.11594 0.65063,-0.95932 0.23806,-1.95536 -0.182135,-0.43971 -0.786664,-1.12944 -1.343398,-1.53274 l -1.012243,-0.73326 0.650937,-0.42651 c 0.869836,-0.56994 0.981939,-0.54945 1.828577,0.33425 0.477451,0.49835 0.89553,1.40873 1.212062,2.6393 0.643279,2.50085 1.554231,3.33595 3.543724,3.24867 1.671245,-0.0733 3.492639,0.51965 3.441627,1.12045 -0.01995,0.23496 0.05812,0.36886 0.173497,0.29756 0.328842,-0.20324 1.053401,2.21928 1.053401,3.52198 0,0.87924 -0.340688,1.8681 -1.351104,3.92162 -0.743108,1.51025 -1.452872,2.74591 -1.577254,2.74591 -0.124383,0 -1.247403,-0.23813 -2.4956,-0.52917 -3.009049,-0.70162 -4.650732,-0.67064 -7.011459,0.13229 -1.069622,0.3638 -1.953679,0.65531 -1.964571,0.6478 -0.01089,-0.008 -0.42436,-0.51352 -0.918819,-1.12448 z m 22.597945,-8.9725 c -0.28933,-0.16774 -0.75273,-0.51614 -1.02976,-0.77423 -0.27703,-0.25809 -1.02256,-0.71316 -1.65674,-1.01126 -0.63418,-0.2981 -1.15306,-0.60822 -1.15306,-0.68915 0,-0.0809 0.53579,-0.0668 1.19063,0.0314 0.80519,0.12075 1.19062,0.0832 1.19062,-0.11608 0,-0.16204 -0.14882,-0.29645 -0.33072,-0.29868 -0.24892,-0.003 -0.24387,-0.0591 0.0204,-0.22666 0.27609,-0.17504 0.29047,-0.44794 0.0673,-1.27685 -0.36607,-1.35948 -1.11085,-2.04801 -1.97948,-1.83 -0.49486,0.1242 -0.75788,0.0198 -1.06899,-0.42439 -0.59149,-0.84447 -0.53673,-0.94674 0.68289,-1.27514 l 1.09552,-0.295 1.35187,1.45965 c 1.21148,1.30807 2.21467,2.9052 2.63713,4.19843 0.0947,0.28984 0.54456,0.52141 1.22402,0.63006 1.40303,0.22436 1.55232,0.53025 0.47795,0.97934 -0.47881,0.20014 -1.03397,0.56093 -1.23369,0.80176 -0.4236,0.51077 -0.76056,0.53726 -1.48586,0.1168 z"
         id="path302" /><path
         style="fill:#4b3e15"
         d="m 90.714248,127.79598 c -0.311851,-0.12585 -0.739067,-0.47447 -0.949369,-0.77472 -0.507988,-0.72526 -2.476582,-2.13793 -2.979254,-2.13793 -0.637383,0 -0.461917,-0.74043 0.292626,-1.23483 0.380485,-0.2493 1.184157,-0.4765 1.785937,-0.50489 0.906387,-0.0428 1.109219,-0.15194 1.181985,-0.63628 0.142259,-0.94687 -0.501908,-2.13105 -1.586713,-2.91688 l -1.012243,-0.73326 0.650937,-0.42651 c 0.869836,-0.56994 0.981939,-0.54945 1.828577,0.33425 0.477451,0.49835 0.89553,1.40873 1.212062,2.6393 0.37124,1.44325 0.673632,2.03877 1.305019,2.57005 0.797518,0.67106 1.094747,1.43822 0.55723,1.43822 -0.478733,0 -0.275874,0.4645 0.264583,0.60583 0.797969,0.20867 0.636744,0.87202 -0.361959,1.48926 -0.962745,0.59501 -1.314726,0.64137 -2.189418,0.28839 z m 15.915932,-1.38162 c -0.28933,-0.16774 -0.75273,-0.51614 -1.02976,-0.77423 -0.27703,-0.25809 -1.02256,-0.71316 -1.65674,-1.01126 -0.63418,-0.2981 -1.15306,-0.60822 -1.15306,-0.68915 0,-0.0809 0.53562,-0.0668 1.19027,0.0314 l 1.19027,0.17849 -0.12999,-1.28676 c -0.17123,-1.69502 -0.86251,-2.60968 -1.97231,-2.60968 -0.53397,0 -0.9877,-0.19028 -1.22469,-0.51359 -0.55876,-0.76229 -0.48152,-0.89293 0.71907,-1.21621 l 1.09552,-0.295 1.35187,1.45965 c 1.21148,1.30807 2.21467,2.9052 2.63713,4.19843 0.0947,0.28984 0.54456,0.52141 1.22402,0.63006 1.40303,0.22436 1.55232,0.53025 0.47795,0.97934 -0.47881,0.20014 -1.03397,0.56093 -1.23369,0.80176 -0.4236,0.51077 -0.76056,0.53726 -1.48586,0.1168 z"
         id="path301" /></g></g></svg>
