<?xml version="1.0" encoding="UTF-8" standalone="no"?>
<!-- Created with Inkscape (http://www.inkscape.org/) -->

<svg
   width="53.867867mm"
   height="65.616669mm"
   viewBox="0 0 53.867867 65.616669"
   version="1.1"
   id="svg1"
   xml:space="preserve"
   inkscape:export-filename="the-titan.svg"
   inkscape:export-xdpi="96"
   inkscape:export-ydpi="96"
   xmlns:inkscape="http://www.inkscape.org/namespaces/inkscape"
   xmlns:sodipodi="http://sodipodi.sourceforge.net/DTD/sodipodi-0.dtd"
   xmlns="http://www.w3.org/2000/svg"
   xmlns:svg="http://www.w3.org/2000/svg"><sodipodi:namedview
     id="namedview1"
     pagecolor="#ffffff"
     bordercolor="#000000"
     borderopacity="0.25"
     inkscape:showpageshadow="2"
     inkscape:pageopacity="0.0"
     inkscape:pagecheckerboard="0"
     inkscape:deskcolor="#d1d1d1"
     inkscape:document-units="mm"><inkscape:page
       x="0"
       y="0"
       width="53.867867"
       height="65.616669"
       id="page2"
       margin="0"
       bleed="0" /></sodipodi:namedview><defs
     id="defs1" /><g
     inkscape:label="Calque 1"
     inkscape:groupmode="layer"
     id="layer1"
     transform="translate(-90.579889,-126.03437)"><g
       id="g1"
       transform="translate(12.420664,10.411439)"><path
         style="fill:#d3e6f2"
         d="m 78.18438,148.43125 v -32.80833 h 26.85521 26.8552 v 32.80833 32.80834 h -26.8552 -26.85521 z"
         id="path8" /><path
         style="fill:#b8d2e5"
         d="m 88.635421,180.91311 c 1.858009,-0.62109 6.36075,-2.41609 6.482291,-2.58414 0.07276,-0.1006 0.451388,-0.26095 0.841395,-0.35633 0.390006,-0.0954 0.887517,-0.35185 1.10558,-0.56991 0.218063,-0.21806 0.544401,-0.39648 0.725197,-0.39648 0.466181,0 3.677826,-1.59219 3.677826,-1.8233 0,-0.10545 -0.50601,-0.3039 -1.12448,-0.44099 l -1.124476,-0.24925 0.07585,-1.22303 c 0.07031,-1.13371 -0.0694,-1.44141 -1.912883,-4.21316 -1.093804,-1.64457 -2.119435,-3.38616 -2.279182,-3.8702 -0.159746,-0.48404 -0.342428,-0.88007 -0.405959,-0.88007 -0.06353,0 -0.760135,0.52506 -1.548009,1.16679 -1.381297,1.12508 -1.414799,1.1828 -0.937301,1.61493 0.27236,0.24649 0.576149,0.82276 0.675087,1.28061 0.17099,0.79129 0.93684,2.36885 1.906085,3.92632 0.243908,0.39193 0.361808,0.79426 0.262001,0.89407 -0.281775,0.28177 -4.274869,0.62151 -4.52309,0.38483 -0.275005,-0.26222 0.833385,-1.06546 1.470231,-1.06546 0.864658,0 0.589992,-0.60689 -1.8624,-4.11507 l -0.877487,-1.25526 0.439807,-1.34973 c 0.499409,-1.53265 1.275126,-3.37924 1.879824,-4.4749 0.609102,-1.10364 0.28726,-1.88641 -1.030239,-2.50571 -0.622706,-0.2927 -1.452375,-0.91868 -1.843708,-1.39105 -0.603847,-0.72889 -0.92337,-0.87593 -2.111529,-0.9717 -1.342321,-0.10818 -1.93038,-0.27719 -3.384389,-0.97265 -0.613823,-0.29359 -0.661459,-0.45178 -0.661459,-2.19661 0,-1.03412 0.07624,-1.83384 0.169427,-1.77713 0.09318,0.0567 0.24731,-0.31207 0.342502,-0.81949 0.143576,-0.76532 0.05652,-1.04679 -0.510742,-1.65133 -0.580627,-0.61878 -1.70001,-2.69652 -2.530784,-4.6975 -0.285299,-0.68717 -0.760781,-3.14919 -0.868666,-4.49792 -0.07491,-0.93652 -0.08905,-0.90607 -0.122822,0.26459 -0.02099,0.7276 0.07082,1.7929 0.204023,2.36733 0.145406,0.62706 0.146099,1.20858 0.0017,1.45521 -0.175763,0.30027 -0.242619,0.14967 -0.2485,-0.55976 -0.0097,-1.17156 -0.243234,-1.85697 -0.564936,-1.65815 -0.130642,0.0807 -0.219039,-0.54285 -0.197121,-1.39058 l 0.03974,-1.53697 0.185106,1.19062 0.185106,1.19063 0.03974,-1.52135 c 0.02186,-0.83675 -0.06455,-1.52136 -0.192018,-1.52136 -0.128274,0 -0.252024,-5.02023 -0.277145,-11.243 l -0.04539,-11.24301 18.797978,8e-5 c 10.338888,4e-5 18.797978,0.0648 18.797978,0.144 0,0.0792 -0.42959,0.32343 -0.95464,0.54281 -0.52505,0.21938 -0.88345,0.47006 -0.79645,0.55706 0.20419,0.20419 2.28026,-0.72732 2.28026,-1.02312 0,-0.12342 3.51234,-0.2244 7.80521,-0.2244 h 7.8052 v 5.52622 5.52622 l -0.78733,0.11555 c -0.59461,0.0873 -0.72223,0.0371 -0.52135,-0.20493 0.28713,-0.34598 -3.36088,0.91355 -5.3059,1.83193 -0.65484,0.3092 -1.38279,0.57588 -1.61767,0.59262 -0.59165,0.0422 -1.06302,0.36485 -0.90543,0.61983 0.17489,0.28299 -1.50306,2.0244 -1.84199,1.91165 -0.14582,-0.0485 -0.17639,5.4e-4 -0.0679,0.10898 0.27666,0.27666 -1.89306,3.06314 -2.33588,2.99988 -0.0849,-0.0121 -0.2238,0.0474 -0.30868,0.13229 -0.0849,0.0849 -0.0154,0.15434 0.15434,0.15434 0.16977,0 0.30868,0.13295 0.30868,0.29544 0,0.1625 -0.22922,0.2355 -0.50937,0.16224 -0.36117,-0.0944 -0.46761,-0.0244 -0.36583,0.24086 0.24332,0.63408 -1.22048,2.47646 -1.96759,2.47646 -0.5808,0 -0.63401,0.0816 -0.47446,0.72761 0.13871,0.56166 0.10773,0.65689 -0.13585,0.41755 -0.17355,-0.17053 -0.47964,-0.24709 -0.68018,-0.17013 -0.20055,0.077 -0.36464,0.004 -0.36464,-0.16128 0,-0.16565 0.183,-0.37141 0.40666,-0.45724 0.5058,-0.19409 1.31239,-1.67943 0.91199,-1.67943 -0.15534,0 -0.53804,0.23813 -0.85043,0.52917 -0.71886,0.66972 -0.99738,0.66972 -0.99738,0 0,-0.41157 -0.17639,-0.52917 -0.79375,-0.52917 -0.7266,0 -0.79375,0.0762 -0.79375,0.90128 0,0.77101 0.0765,0.88127 0.52916,0.76289 0.29586,-0.0774 0.52917,-0.008 0.52917,0.15706 0,0.16249 -0.35719,0.29544 -0.79375,0.29544 -0.74965,0 -0.79375,-0.0588 -0.79375,-1.05833 0,-0.68197 -0.1201,-1.05834 -0.33772,-1.05834 -0.23444,0 -0.30686,0.32366 -0.2368,1.05834 0.0627,0.65712 -0.01,1.05833 -0.19144,1.05833 -0.16081,0 -0.29237,-0.40398 -0.29237,-0.89773 0,-0.5033 -0.15475,-0.95712 -0.3522,-1.03289 -0.268,-0.10284 -0.42985,0.53281 -0.67697,2.65876 -0.17862,1.53666 -0.49465,3.28138 -0.70229,3.87716 -0.20763,0.59578 -0.37924,1.35113 -0.38136,1.67856 -0.002,0.32742 -0.10935,0.59531 -0.23829,0.59531 -0.12894,0 -0.4244,0.40031 -0.65657,0.88959 -0.23218,0.48928 -0.60562,1.04187 -0.82987,1.22798 -0.24881,0.20649 -0.34709,0.55587 -0.25214,0.89635 0.0998,0.35786 0.0729,0.43985 -0.0749,0.22862 -0.16754,-0.23935 -0.62652,0.0542 -1.6797,1.0743 -0.79705,0.772 -2.34617,1.8727 -3.44248,2.446 -3.331877,1.74235 -4.769371,2.81221 -4.600088,3.42362 0.08058,0.29104 0.276524,1.24354 0.435426,2.11666 0.158902,0.87313 0.38086,1.70657 0.49324,1.85209 0.11238,0.14552 -0.02631,0.97896 -0.308206,1.85208 -0.803621,2.48911 -0.582913,3.98404 0.908774,6.15543 0.673325,0.98014 1.597751,2.13056 2.054284,2.5565 0.45653,0.42593 0.92993,1.02125 1.05201,1.32291 0.18045,0.44589 0.22511,0.46258 0.23874,0.0892 0.0157,-0.4299 0.10572,-0.42665 1.40583,0.0507 2.9365,1.07824 7.65502,0.94134 11.57553,-0.33584 1.27923,-0.41674 2.03351,-0.87309 2.94445,-1.78145 1.11815,-1.11498 1.32177,-1.53001 2.34096,-4.77163 1.45041,-4.61311 3.12822,-8.41063 7.99798,-18.10252 2.19354,-4.36562 4.0312,-7.98711 4.08368,-8.04774 0.0525,-0.0606 0.0954,9.4346 0.0954,21.10052 v 21.21077 h -6.38239 c -5.68822,0 -6.346,-0.0439 -6.04772,-0.40327 0.18408,-0.2218 0.26784,-0.47012 0.18613,-0.55183 -0.0817,-0.0817 -0.28146,0.0998 -0.44389,0.40327 -0.28709,0.53644 -0.4739,0.55158 -6.70216,0.54302 l -6.40684,-0.009 0.66146,-0.54047 c 0.3638,-0.29726 0.93025,-0.76955 1.25878,-1.04953 0.32853,-0.27998 0.71548,-0.50906 0.8599,-0.50906 0.14441,0 0.26257,-0.1278 0.26257,-0.284 0,-0.29498 -2.97544,1.28019 -3.1309,1.65747 -0.0485,0.11772 -0.25687,0.21403 -0.46302,0.21403 -0.20616,0 -0.37483,0.12226 -0.37483,0.2717 0,0.18111 -2.88898,0.25913 -8.665108,0.23401 -6.189075,-0.0269 -8.438292,-0.11351 -7.871354,-0.30302 z m 3.574566,-36.29677 c 2.710212,-0.0895 5.024392,-0.64606 5.024392,-1.20834 0,-0.28109 0.344314,-0.60822 0.859896,-0.817 0.472942,-0.19151 1.198285,-0.59291 1.611873,-0.892 l 0.751982,-0.54379 -0.751982,-0.16713 -0.751977,-0.16714 0.743219,-0.0313 c 0.83874,-0.0353 0.72378,-0.56047 -0.122699,-0.56047 -0.557822,0 -2.14103,-0.77531 -2.296215,-1.12448 -0.04851,-0.10914 -0.256866,-0.19844 -0.463021,-0.19844 -0.286083,0 -0.374826,-0.4197 -0.374826,-1.77271 0,-1.66896 0.294973,-2.0301 0.605085,-0.74083 0.115024,0.47821 0.130237,0.47184 0.157973,-0.0661 0.01688,-0.32742 0.268817,-0.83343 0.559859,-1.12448 0.349024,-0.34902 0.529166,-0.88194 0.529166,-1.56545 0,-0.56995 0.1348,-1.08121 0.299555,-1.13613 0.204433,-0.0681 0.150701,-0.39021 -0.169209,-1.01424 -0.554138,-1.08092 -0.860357,-1.31765 -1.429269,-1.10495 -0.36424,0.13618 -0.37201,0.0973 -0.05774,-0.28906 0.199719,-0.24553 0.523886,-0.44642 0.720371,-0.44642 0.196485,0 0.985579,-0.28113 1.753541,-0.62473 0.767959,-0.34361 1.740629,-0.76548 2.161489,-0.9375 0.74716,-0.30539 0.75321,-0.32341 0.25666,-0.76433 -1.29987,-1.15424 -2.941464,-1.67622 -3.695669,-1.17511 -0.160911,0.10691 -0.372129,0.6111 -0.469374,1.12042 -0.137161,0.71839 -0.391702,1.03308 -1.135125,1.40336 -0.527074,0.26252 -1.055535,0.38009 -1.174356,0.26127 -0.118822,-0.11883 -0.238323,-0.95869 -0.265559,-1.86638 l -0.04952,-1.65033 -0.820292,0.003 c -0.451161,0.002 -1.484834,0.34045 -2.297052,0.75245 -2.82409,1.43254 -3.153448,1.68923 -3.153448,2.45769 0,0.58518 -0.21744,0.82673 -1.174454,1.30469 -0.831781,0.41541 -1.352734,0.92261 -1.785483,1.73835 -0.336066,0.63349 -0.789828,1.15363 -1.008359,1.15586 -0.347601,0.004 -0.348617,0.0348 -0.0081,0.25019 0.49785,0.31485 0.410309,0.39018 -1.1788,1.01439 -1.176725,0.46222 -1.339612,0.62548 -1.527814,1.5313 -0.115864,0.55766 -0.161652,1.14164 -0.101751,1.29774 0.0599,0.1561 1.62677,0.63196 3.48193,1.05747 1.85516,0.42551 3.531146,0.93178 3.724414,1.12505 0.409534,0.40954 0.548835,1.18162 0.800246,4.43543 0.1074,1.38998 0.250466,2.12219 0.343677,1.75892 0.14497,-0.56498 0.317917,-0.62755 1.876785,-0.67904 z m 13.598543,27.33544 c -1.99356,-0.18679 -3.64002,-0.80498 -5.10586,-1.91706 -1.372436,-1.04122 -2.876772,-3.30537 -3.234468,-4.86815 -0.525762,-2.29705 -0.113133,-3.14582 3.180698,-6.54264 2.51663,-2.59532 5.05985,-5.70169 12.65766,-15.46044 1.19985,-1.54112 2.68813,-3.44593 3.30729,-4.23291 0.61915,-0.78699 2.15853,-2.81105 3.42084,-4.49792 1.2623,-1.68687 2.63152,-3.40552 3.04271,-3.81922 1.18129,-1.18852 5.06726,-2.81587 7.69292,-3.22161 l 1.12447,-0.17376 v 5.08052 5.08051 l -4.47137,8.89951 c -5.48439,10.91577 -7.24529,14.98421 -8.87494,20.50495 -0.6583,2.23009 -2.16204,3.67258 -4.55827,4.37258 -1.7808,0.52022 -5.13364,1.09539 -5.90791,1.01348 -0.21829,-0.0231 -1.24148,-0.12112 -2.27377,-0.21784 z m -4.07318,-11.77235 c 1.23525,-0.7568 3.43653,-1.8345 4.89174,-2.3949 2.61947,-1.00875 2.63471,-1.01971 1.52989,-1.09984 -0.61376,-0.0445 -1.55956,0.0416 -2.10178,0.19126 -0.54222,0.14972 -1.03802,0.22005 -1.10178,0.15629 -0.0637,-0.0637 1.06065,-1.74986 2.49867,-3.74689 1.43802,-1.99704 2.79317,-3.90048 3.01146,-4.22988 0.43415,-0.65516 6.07845,-8.53091 6.42034,-8.95859 0.53195,-0.66545 5.75049,-7.9137 5.75049,-7.98711 0,-0.275 -0.37219,0.15464 -1.88324,2.17392 -6.50798,8.69693 -18.38885,23.53455 -20.09584,25.09703 -1.718657,1.57316 -2.504608,2.63398 -2.748179,3.70927 -0.161612,0.71346 -0.111513,0.6862 0.704163,-0.38323 0.535368,-0.70191 1.754836,-1.68845 3.124066,-2.52733 z"
         id="path7" /><path
         style="fill:#acc7d9"
         d="m 106.91577,180.8578 c 0.37345,-0.27307 0.55184,-0.28807 0.69778,-0.0587 0.14675,0.23067 0.19708,0.22754 0.20011,-0.0125 0.002,-0.17634 0.80772,-1.10743 1.78999,-2.0691 l 1.78594,-1.74848 -1.15013,0.56621 c -0.63258,0.31142 -1.33044,0.49702 -1.55082,0.41246 -0.27904,-0.10708 -0.35409,-0.0324 -0.24723,0.24612 0.094,0.24491 0.003,0.39987 -0.23513,0.39987 -0.21371,0 -0.38857,-0.10517 -0.38857,-0.23372 0,-0.12855 -0.20836,-0.2998 -0.46302,-0.38057 -0.55626,-0.17641 -1.89884,-0.98041 -2.38282,-1.42696 -0.19163,-0.1768 -0.69753,-0.52769 -1.12424,-0.77975 -0.85032,-0.50229 -1.35662,-1.31934 -0.64938,-1.04795 0.22748,0.0873 0.34921,0.0545 0.27049,-0.0728 -0.0787,-0.12736 0.0342,-0.3787 0.25084,-0.55853 0.57497,-0.47718 0.48137,-0.85474 -0.16132,-0.65075 -0.4726,0.14999 -0.52904,0.0935 -0.37905,-0.37905 0.1297,-0.40862 0.0626,-0.55528 -0.25407,-0.55528 -0.23668,0 -0.35674,0.11906 -0.2668,0.26458 0.0899,0.14552 0.0502,0.26458 -0.0884,0.26458 -0.13854,0 -0.31664,-0.16874 -0.39579,-0.37498 -0.18841,-0.49099 0.52188,-0.75258 1.14213,-0.42063 0.26805,0.14345 1.65841,0.33536 3.08969,0.42645 3.15276,0.20067 6.95772,-0.37689 8.99481,-1.36533 2.45843,-1.19288 3.17416,-2.28373 4.59073,-6.99676 0.98351,-3.27219 3.04343,-7.87257 7.52305,-16.80104 l 4.24791,-8.46667 0.0697,10.31875 c 0.0606,8.96223 0.0171,10.35737 -0.33073,10.61251 -0.22026,0.16156 -0.40048,0.5247 -0.40048,0.80697 0,0.28228 -0.14783,0.66106 -0.32851,0.84175 -0.26164,0.26163 -0.24817,0.37932 0.0661,0.57803 0.21707,0.13723 0.2594,0.25134 0.0941,0.25357 -0.16532,0.002 -0.49832,0.42077 -0.74001,0.93009 -0.24169,0.50932 -0.61245,0.92604 -0.8239,0.92604 -0.21145,0 -0.38446,0.21983 -0.38446,0.48852 0,0.26868 -0.18959,0.86855 -0.4213,1.33303 -0.42508,0.85209 -0.35482,1.61804 0.14841,1.61804 0.15009,0 0.27289,-0.29766 0.27289,-0.66146 0,-0.3638 0.11906,-0.66146 0.26458,-0.66146 0.14552,0 0.26458,0.47625 0.26458,1.05833 0,0.58209 -0.11906,1.05834 -0.26458,1.05834 -0.14552,0 -0.26458,0.47625 -0.26458,1.05833 0,0.76435 -0.11025,1.05833 -0.39688,1.05833 -0.3197,0 -0.39687,0.41158 -0.39687,2.11667 0,1.16417 -0.11254,2.11667 -0.25009,2.11667 -0.13755,0 -0.28637,0.5627 -0.33073,1.25046 -0.0612,0.94961 -0.21181,1.31563 -0.62585,1.52135 -0.65449,0.32519 -2.23292,1.62943 -2.23292,1.84504 0,0.21097 -1.67302,1.71581 -1.91822,1.72539 -0.10915,0.004 -0.19844,-0.17084 -0.19844,-0.38912 0,-0.21828 -0.1786,-0.39687 -0.39688,-0.39687 -0.21828,0 -0.39687,0.18613 -0.39687,0.41363 0,0.30565 -0.21919,0.392 -0.83952,0.33073 -1.11312,-0.10993 -1.23495,-0.61507 -0.23261,-0.96449 0.61698,-0.21508 0.79198,-0.42549 0.75233,-0.90456 -0.049,-0.59181 0.98464,-2.6114 1.43301,-2.79997 0.11534,-0.0485 0.2097,-0.24317 0.2097,-0.43259 0,-0.18942 0.29383,-0.53692 0.65296,-0.77223 0.4131,-0.27067 0.59501,-0.5788 0.49523,-0.83883 -0.19471,-0.50743 -1.51219,0.85584 -2.95378,3.05645 -1.10345,1.68443 -1.2679,1.83053 -1.8802,1.67041 -0.24872,-0.065 -0.6073,0.0686 -0.79686,0.29701 -0.23133,0.27874 -0.247,0.41527 -0.0477,0.41527 0.16334,0 0.29698,-0.11906 0.29698,-0.26458 0,-0.14553 0.1786,-0.26459 0.39688,-0.26459 0.54995,0 0.48591,0.27672 -0.26026,1.12448 l -0.6404,0.72761 h -4.495 c -2.9514,0 -4.55603,-0.0988 -4.67276,-0.28764 -0.0978,-0.1582 -0.43222,-0.21299 -0.74321,-0.12177 -0.311,0.0912 -0.91104,0.21731 -1.33343,0.28018 -0.71075,0.10579 -0.73059,0.087 -0.26626,-0.25256 z m -7.300141,-6.50143 c 0.2627,-0.17245 0.302485,-0.32762 0.117681,-0.45897 -0.153556,-0.10914 -0.289155,-0.46633 -0.301331,-0.79375 -0.01217,-0.32742 -0.03537,-0.74758 -0.05154,-0.93368 -0.01617,-0.1861 -0.691094,-1.33254 -1.499832,-2.54763 -1.339325,-2.01228 -1.631753,-2.93484 -0.930273,-2.93484 0.143953,0 0.572824,0.53084 0.953046,1.17964 0.380222,0.6488 1.106009,1.54374 1.612859,1.98876 0.506841,0.44502 1.194191,1.39759 1.527401,2.11682 0.33323,0.71923 0.7538,1.48595 0.93462,1.70381 0.53191,0.64092 0.0801,0.94875 -1.38607,0.94442 -0.994711,-0.003 -1.264002,-0.0759 -0.976566,-0.26458 z m -7.79367,-1.03562 c -0.09685,-0.1567 0.01621,-0.28325 0.253045,-0.28325 0.245646,0 0.350945,-0.12484 0.247065,-0.29293 -0.122308,-0.1979 0.0047,-0.23398 0.391447,-0.11123 0.509819,0.16181 0.465102,0.0129 -0.408506,-1.36071 -0.539547,-0.84833 -1.377569,-2.06556 -1.862271,-2.70495 -0.930289,-1.22718 -1.233033,-2.2369 -0.484401,-1.61559 0.309254,0.25665 0.396875,0.25801 0.396875,0.006 0,-0.17779 0.406998,-0.99604 0.904441,-1.81834 0.949016,-1.56877 1.453583,-3.21488 0.985428,-3.21488 -0.147863,0 -0.306152,0.37779 -0.351752,0.83952 -0.115512,1.16965 -0.74997,1.32238 -0.725771,0.17472 0.01546,-0.73319 0.05695,-0.79269 0.245987,-0.35278 0.191795,0.44633 0.230302,0.39725 0.245987,-0.3135 0.01023,-0.46347 0.140218,-1.16257 0.288867,-1.55354 0.331023,-0.87066 0.05368,-1.26423 -1.421068,-2.01659 -0.579648,-0.29571 -1.435109,-0.94186 -1.901024,-1.43587 -0.711455,-0.75436 -1.032792,-0.89862 -2.006503,-0.90079 -0.669462,-0.002 -1.746362,-0.27586 -2.548446,-0.64929 -1.341506,-0.62456 -1.389063,-0.68349 -1.389063,-1.7212 0,-0.59098 0.200647,-1.79619 0.445882,-2.67825 0.284409,-1.02296 0.351206,-1.66828 0.184451,-1.78194 -0.414466,-0.28251 -1.684553,-2.04595 -2.263946,-3.14337 -0.759344,-1.43825 -1.534619,-4.71696 -1.538263,-6.50545 -0.0017,-0.84322 0.193491,-2.31585 0.433798,-3.27252 0.404584,-1.61066 0.460712,-1.69494 0.75835,-1.1388 l 0.321428,0.60059 0.296586,-0.76766 c 0.261333,-0.67641 0.278781,-0.60594 0.146788,0.59287 -0.162554,1.4764 5.18e-4,1.72522 1.188217,1.81305 0.378492,0.028 0.956058,0.0695 1.28348,0.0923 0.327422,0.0228 0.595312,0.17095 0.595312,0.32926 0,0.18761 -0.391558,0.23153 -1.124479,0.12614 l -1.124479,-0.1617 1.031884,0.3855 c 0.567536,0.21202 1.10359,0.50151 1.191231,0.64332 0.08764,0.14181 0.605559,0.34154 1.150929,0.44385 0.580397,0.10888 0.991581,0.33839 0.991581,0.55345 0,0.20209 0.238125,0.36743 0.529167,0.36743 0.291041,0 0.529166,0.11906 0.529166,0.26458 0,0.14553 0.297657,0.26459 0.661459,0.26459 0.44616,0 0.661458,-0.1464 0.661458,-0.44979 0,-0.35822 0.06688,-0.38291 0.328517,-0.12128 0.261635,0.26164 0.248168,0.3785 -0.06614,0.57401 -0.344334,0.21419 -0.346389,0.32244 -0.01611,0.84888 0.212047,0.33799 0.428895,1.53676 0.493011,2.72544 0.112053,2.07742 0.09965,2.12998 -0.589685,2.4989 -0.610321,0.32663 -0.693639,0.51951 -0.625302,1.44754 0.05879,0.79839 0.197916,1.08125 0.547049,1.11219 0.328581,0.0291 0.348307,0.004 0.06615,-0.0833 -0.528929,-0.16412 -0.517339,-1.04344 0.01645,-1.24827 0.230183,-0.0883 1.338521,-0.1606 2.462972,-0.1606 1.388017,0 2.209362,-0.12473 2.558048,-0.38846 0.282475,-0.21366 0.936262,-0.39225 1.452861,-0.39688 0.516599,-0.005 1.082146,-0.15129 1.256771,-0.32591 0.246944,-0.24695 0.3184,-0.23225 0.321551,0.0661 0.0035,0.32707 0.04559,0.32511 0.285713,-0.0132 0.20279,-0.28574 0.230871,0.23289 0.100282,1.85209 -0.09976,1.23693 -0.188642,2.37748 -0.197518,2.53457 -0.0089,0.15708 -0.293731,0.23254 -0.63301,0.16768 -0.339279,-0.0648 -0.913166,0.0762 -1.275305,0.3135 -0.362138,0.23728 -1.253089,0.48084 -1.97989,0.54123 -1.627464,0.13523 -1.878774,0.28106 -1.758549,1.02041 0.0649,0.39912 0.250794,0.55592 0.591618,0.49903 0.27334,-0.0456 0.838857,-0.0724 1.256702,-0.0595 0.417846,0.0129 0.894096,-0.14212 1.058334,-0.34449 0.297882,-0.36705 2.023044,-1.32753 2.853051,-1.58842 0.661678,-0.20799 0.946156,-4.15848 0.413026,-5.73564 -0.390507,-1.15522 -0.351747,-1.84629 0.103552,-1.84629 0.129952,0 0.243823,0.20836 0.253047,0.46302 0.012,0.33129 0.09746,0.27483 0.300372,-0.19844 l 0.2836,-0.66145 0.202422,0.66145 c 0.13268,0.43357 0.211508,0.50194 0.228795,0.19844 0.01981,-0.34775 0.256907,-0.46302 0.952419,-0.46302 0.74473,0 0.92604,0.10198 0.92604,0.52086 0,0.37069 0.12315,0.47361 0.42713,0.35696 0.36186,-0.13886 0.39934,-0.44592 0.24525,-2.0097 -0.26319,-2.67096 -0.43168,-2.97802 -1.82685,-3.32933 -0.657457,-0.16555 -1.268998,-0.42013 -1.358984,-0.56573 -0.08999,-0.1456 -0.484006,-0.26995 -0.8756,-0.27634 -0.637885,-0.0104 -0.607568,-0.0489 0.291289,-0.36951 0.551803,-0.19684 1.42095,-0.43625 1.931435,-0.53202 0.51049,-0.0958 1.4795,-0.46727 2.15336,-0.82557 0.70752,-0.37619 1.2918,-0.54367 1.38284,-0.39637 0.24593,0.39793 0.61963,-0.004 1.30142,-1.3996 0.5252,-1.07511 0.60004,-1.52438 0.45687,-2.74256 -0.14915,-1.26906 -0.11652,-1.43583 0.2532,-1.29395 0.23343,0.0896 0.53068,0.16286 0.66057,0.16286 0.12988,0 0.43441,0.38695 0.67673,0.8599 0.24233,0.47294 0.51327,0.91942 0.60211,0.99218 0.0888,0.0728 0.42026,0.9062 0.73649,1.85209 1.74404,5.21659 0.57277,10.04596 -3.411,14.06417 -1.05956,1.06871 -2.52178,2.23879 -3.24939,2.60016 -0.7276,0.36137 -1.680101,0.90712 -2.116664,1.21279 -0.436562,0.30566 -1.389062,0.89439 -2.116666,1.30828 -0.727605,0.41389 -1.353219,0.77156 -1.390256,0.79482 -0.03704,0.0233 0.04054,0.38903 0.172393,0.81281 1.366362,4.39156 1.421117,4.64214 1.139707,5.21574 -0.157004,0.32002 -0.351389,0.82104 -0.431969,1.11339 -0.08058,0.29234 -0.415484,0.64953 -0.744233,0.79375 -0.684985,0.30049 -0.947968,1.40475 -0.422437,1.77379 0.287703,0.20203 0.283197,0.22942 -0.02409,0.14646 -0.207885,-0.0561 -0.505541,-0.33307 -0.661459,-0.61545 -0.155917,-0.28238 -0.308017,-0.5578 -0.338001,-0.61203 -0.02998,-0.0542 -0.446701,0.26515 -0.926041,0.70976 -0.47934,0.4446 -1.169183,1.04441 -1.532985,1.3329 l -0.661459,0.52454 0.566748,0.61779 c 0.311711,0.33978 0.653361,1.02645 0.759223,1.52593 0.196106,0.92527 0.849415,2.232 1.752056,3.50442 0.474752,0.66924 0.476695,0.7157 0.03517,0.84057 -1.262402,0.35701 -2.675221,0.45138 -2.837072,0.18949 z m -4.90633,-19.05109 c 0,-0.13586 -0.327422,-0.29661 -0.727604,-0.35723 -0.677216,-0.10259 -0.668054,-0.11297 0.132292,-0.14987 0.70518,-0.0325 0.85904,-0.14675 0.855142,-0.63495 -0.0034,-0.41959 -0.392944,-0.84914 -1.319844,-1.45521 -0.723299,-0.47295 -1.42109,-0.8599 -1.550647,-0.8599 -0.395795,0 -0.872173,1.47202 -0.78188,2.41602 0.07538,0.78804 0.192508,0.91022 1.011291,1.05488 1.466881,0.25916 2.38125,0.25388 2.38125,-0.0137 z m 16.920251,17.36553 c -2.56824,-0.72761 -5.105827,-3.08666 -6.058112,-5.63187 -1.042076,-2.7852 -0.684344,-3.72801 2.752132,-7.25332 2.37148,-2.43278 3.92741,-4.30564 10.33102,-12.43542 3.70138,-4.69912 4.2038,-5.34857 8.63949,-11.16789 1.69606,-2.22511 3.42247,-4.36641 3.83646,-4.75846 0.90611,-0.85808 5.54775,-2.73772 7.30115,-2.95662 l 1.25677,-0.1569 v 5.03617 5.03617 l -4.47458,8.91554 c -5.82115,11.59856 -7.06728,14.4824 -8.86725,20.52097 -0.64756,2.17245 -2.07495,3.5559 -4.5179,4.3788 -2.27538,0.76646 -8.19424,1.04086 -10.19918,0.47283 z m -3.61651,-10.46423 c 2.22812,-1.53299 4.01191,-2.46797 6.64378,-3.48238 l 2.67435,-1.03078 -1.32291,-0.006 c -0.72761,-0.003 -1.7694,0.0978 -2.31511,0.22449 -0.5457,0.12672 -0.99218,0.17431 -0.99218,0.10574 0,-0.10987 3.53977,-5.07012 7.22123,-10.11902 0.69745,-0.95652 1.47136,-2.04023 1.71979,-2.40823 1.45,-2.14794 9.24245,-12.95334 9.81811,-13.61426 0.54509,-0.62584 0.56469,-0.68632 0.0945,-0.29158 -0.3263,0.27392 -1.95533,2.29612 -3.62007,4.49378 -5.15105,6.80001 -14.74451,19.07407 -15.22087,19.47387 -0.0867,0.0728 -0.78503,0.92958 -1.55185,1.90404 -0.76683,0.97447 -2.01414,2.32603 -2.7718,3.00348 -1.601292,1.43177 -2.832774,3.13805 -2.832774,3.92496 0,0.44489 0.127484,0.36316 0.663151,-0.42514 0.364733,-0.53675 1.171436,-1.32563 1.792673,-1.75305 z M 80.301046,128.71979 c 0,-0.21828 -0.193742,-0.39687 -0.430538,-0.39687 -0.357205,0 -0.408886,-0.22533 -0.303422,-1.32292 0.06991,-0.7276 0.02553,-1.32292 -0.09863,-1.32292 -0.124159,0 -0.225744,-0.17859 -0.225744,-0.39687 0,-0.60772 0.444731,-0.47161 0.648406,0.19844 0.101922,0.3353 0.238455,0.45727 0.312602,0.27925 0.0724,-0.17384 0.0092,-0.54487 -0.140472,-0.82451 -0.280854,-0.52479 0.138795,-2.16672 0.553774,-2.16672 0.10998,0 0.439244,-0.52526 0.731698,-1.16723 0.292453,-0.64198 0.622851,-1.20754 0.734217,-1.25681 0.111366,-0.0493 0.472678,-0.56582 0.802917,-1.14788 0.330238,-0.58206 0.925551,-1.62212 1.322916,-2.31125 l 0.722483,-1.25296 5.878675,-0.004 c 6.191468,-0.004 6.609568,0.0912 4.894798,1.11516 -0.395618,0.23623 -1.180756,0.85501 -1.74475,1.37506 -0.563994,0.52005 -1.10308,0.94555 -1.197969,0.94555 -0.09489,0 -0.352535,0.20836 -0.572546,0.46302 -0.22001,0.25466 -1.087082,1.05833 -1.926825,1.78594 -2.230131,1.93232 -4.140758,3.76656 -4.140758,3.9752 0,0.24927 -1.380368,1.31647 -1.702784,1.31647 -0.143282,0 -0.53968,0.41671 -0.880884,0.92604 -1.069041,1.59578 -1.287223,1.73556 -1.650233,1.05727 -0.180572,-0.3374 -0.199541,-0.51949 -0.04411,-0.42343 0.149984,0.0927 0.347483,0.0475 0.438887,-0.10036 0.102145,-0.16527 -0.247677,-0.2689 -0.90776,-0.2689 -0.590671,0 -1.073948,0.12609 -1.073948,0.2802 0,0.15411 0.107959,0.21348 0.239909,0.13193 0.13195,-0.0816 0.177594,0.09 0.101433,0.38126 -0.163404,0.62485 -0.341342,0.694 -0.341342,0.13265 z m -2.108621,-8.00364 -0.008,-5.09323 h 3.166696 c 2.904591,0 3.152556,0.0383 2.995861,0.46302 -0.09396,0.25466 -0.239728,0.52255 -0.32393,0.59531 -0.408486,0.35298 -1.605294,2.11513 -1.605294,2.3636 0,0.15523 -0.111039,0.28223 -0.246754,0.28223 -0.135714,0 -0.330309,0.26789 -0.432433,0.59532 -0.102124,0.32742 -0.507649,1.07156 -0.901166,1.65364 -0.952192,1.40847 -1.994471,3.05195 -2.349136,3.70417 -0.215851,0.39694 -0.289764,-0.7435 -0.295799,-4.56406 z m 25.240765,1.10558 c 0.22867,-0.22868 0.41395,-0.61563 0.41172,-0.8599 -0.003,-0.36582 -0.046,-0.37777 -0.24223,-0.0678 -0.19446,0.30725 -0.40872,0.23441 -1.16747,-0.39688 -0.51111,-0.42525 -0.93789,-0.98155 -0.9484,-1.23621 -0.0339,-0.8207 -0.99875,-1.52136 -2.095114,-1.52136 -0.559726,0 -1.39302,-0.18724 -1.851764,-0.41609 -0.722539,-0.36045 -0.783576,-0.4666 -0.456423,-0.79375 0.20771,-0.20771 0.564754,-0.37766 0.793429,-0.37766 0.228676,0 0.415774,-0.1214 0.415774,-0.26979 0,-0.17819 2.931988,-0.26373 8.635268,-0.25195 l 8.63528,0.0178 -1.55767,0.78741 c -0.85672,0.43308 -1.73626,0.88357 -1.95454,1.00111 -1.342,0.72259 -2.20663,1.09663 -2.53499,1.09663 -0.20649,0 -0.37543,0.10518 -0.37543,0.23373 0,0.12855 -0.20836,0.30368 -0.46302,0.38919 -0.25466,0.0855 -0.64162,0.27929 -0.8599,0.43062 -0.21828,0.15133 -0.93265,0.51562 -1.5875,0.80953 -1.52307,0.6836 -2.19579,1.09654 -2.46054,1.51037 -0.11637,0.1819 -0.33324,0.33073 -0.48192,0.33073 -0.14868,0 -0.0832,-0.1871 0.14544,-0.41577 z"
         id="path6" /><path
         style="fill:#9bb6cb"
         d="m 111.38502,177.79261 c -0.0924,-0.14959 0.10888,-0.49652 0.4474,-0.77097 0.86503,-0.70131 0.55933,-0.81646 -0.90949,-0.3426 -1.13744,0.36695 -1.34395,0.36629 -2.11667,-0.007 -0.47094,-0.22738 -1.36227,-0.56196 -1.98074,-0.74351 -0.61846,-0.18156 -1.12447,-0.48964 -1.12447,-0.68463 0,-0.19499 -0.1786,-0.35452 -0.39688,-0.35452 -0.21828,0 -0.39687,-0.13197 -0.39687,-0.29327 0,-0.1807 -0.2539,-0.22954 -0.66146,-0.12725 -0.85199,0.21383 -0.83535,0.019 0.0661,-0.77444 0.72525,-0.63833 0.72562,-0.64043 0.1134,-0.64877 -0.33782,-0.005 -0.81407,-0.21006 -1.05834,-0.45657 -0.41622,-0.42006 -0.41088,-0.43405 0.085,-0.22264 1.03334,0.4405 5.75544,0.46854 8.18877,0.0486 4.3862,-0.75692 6.74836,-2.49657 7.59773,-5.59548 1.37272,-5.00832 2.78944,-8.28644 8.49844,-19.66437 l 4.02547,-8.02271 0.0707,7.22896 c 0.0607,6.21181 0.0142,7.27029 -0.33073,7.52271 -0.22076,0.16156 -0.40138,0.47683 -0.40138,0.7006 0,0.22376 -0.29622,0.92501 -0.65827,1.55833 -0.36205,0.63331 -0.6597,1.41087 -0.66146,1.7279 -0.002,0.31702 -0.18178,0.755 -0.40006,0.97329 -0.21828,0.21828 -0.40524,0.7328 -0.41547,1.14337 -0.0156,0.62582 -0.0513,0.66296 -0.22076,0.22972 -0.17143,-0.43823 -0.23488,-0.37791 -0.41746,0.39688 -0.11841,0.50251 -0.24991,1.17961 -0.29222,1.50467 -0.0423,0.32506 -0.4414,1.25512 -0.88686,2.06682 -0.44547,0.81169 -0.80994,1.58563 -0.80994,1.71987 0,0.13424 -0.34139,0.94884 -0.75864,1.81021 -0.41726,0.86138 -0.83625,1.87531 -0.93109,2.25318 -0.0948,0.37787 -0.27114,0.68703 -0.39179,0.68703 -0.12065,0 -0.43412,0.47625 -0.6966,1.05834 -0.26248,0.58208 -0.57822,1.05833 -0.70164,1.05833 -0.12342,0 -0.2244,0.0978 -0.2244,0.21725 0,0.46121 -2.30997,2.59865 -3.18277,2.94504 -0.50505,0.20045 -1.10624,0.52343 -1.33598,0.71774 -0.22974,0.19432 -0.61786,0.3533 -0.86249,0.3533 -0.24462,0 -0.64866,0.23813 -0.89786,0.52917 -0.38487,0.44949 -0.78051,0.52917 -2.62763,0.52917 -1.20369,0 -2.24959,-0.12143 -2.34263,-0.27198 z m -17.679754,-5.30835 c 0.109825,-0.69685 0.05749,-0.79625 -0.35381,-0.67197 -0.647455,0.19564 -2.308405,-2.45919 -2.089945,-3.34052 0.08093,-0.3265 0.0788,-0.44481 -0.0047,-0.26291 -0.08354,0.1819 -0.277678,0.33073 -0.43141,0.33073 -0.322518,0 -0.982478,-0.79978 -0.982478,-1.19063 0,-0.14552 0.15968,-0.0542 0.354844,0.20303 0.216203,0.28492 0.527409,0.4014 0.796517,0.29813 0.479228,-0.18389 0.410736,-0.80793 -0.07678,-0.6996 -0.444344,0.0987 -0.363026,-0.33234 0.272986,-1.44716 1.143087,-2.00363 1.27821,-2.33805 1.279811,-3.16743 8.97e-4,-0.46436 -0.122276,-0.92086 -0.273716,-1.01445 -0.15144,-0.0936 -0.202948,-0.39828 -0.114462,-0.67708 0.286083,-0.90136 -0.150733,-1.56208 -1.477077,-2.23419 -0.714228,-0.36193 -1.486475,-0.94479 -1.716104,-1.29525 -0.529886,-0.8087 -0.993649,-0.99845 -2.634719,-1.078 -1.581223,-0.0767 -3.242937,-0.97488 -3.468876,-1.8751 -0.17,-0.67733 0.335991,-3.21551 0.743761,-3.73088 0.30015,-0.37936 0.01564,-0.95497 -1.389949,-2.81207 -0.565624,-0.74732 -1.105856,-1.71893 -1.200516,-2.15915 -0.09466,-0.44021 -0.323776,-1.09804 -0.509144,-1.46184 -0.185369,-0.3638 -0.379389,-1.25677 -0.431155,-1.98438 l -0.09412,-1.32291 0.840903,-0.009 c 0.462496,-0.005 0.819684,0.10836 0.79375,0.252 -0.02593,0.14365 0.578469,0.46723 1.343119,0.71908 0.76465,0.25186 1.576826,0.64447 1.804836,0.87248 0.228011,0.22801 0.675076,0.41456 0.993479,0.41456 0.318404,0 0.723944,0.23223 0.901202,0.51607 0.177258,0.28383 0.741679,0.59474 1.25427,0.6909 0.675574,0.12674 0.931983,0.31233 0.931983,0.67456 0,0.27485 0.126089,0.49972 0.280198,0.49972 0.154109,0 0.213409,-0.10806 0.131778,-0.24014 -0.08163,-0.13208 -0.03667,-0.51904 0.09991,-0.8599 0.208049,-0.51923 0.251046,-0.41386 0.265097,0.64966 0.01372,1.03828 -0.108006,1.38504 -0.668545,1.90453 -0.657289,0.60916 -0.677808,0.71526 -0.501721,2.59436 0.155948,1.6642 0.119698,1.98375 -0.240726,2.12206 -0.659149,0.25294 -0.5133,0.52945 0.654825,1.24145 0.593529,0.36178 1.193031,0.86614 1.332225,1.1208 0.309528,0.56629 1.028212,0.61253 1.028212,0.0661 0,-0.51218 0.427528,-0.5142 0.623712,-0.003 0.11932,0.31095 0.299833,0.33739 0.857004,0.12556 0.388214,-0.1476 0.915697,-0.20176 1.172185,-0.12035 0.256487,0.0814 0.627714,-0.009 0.824949,-0.20161 0.610095,-0.59479 2.251203,-1.52043 2.695634,-1.52043 0.602304,0 0.875244,-0.67938 1.062968,-2.64583 0.106004,-1.11043 0.03206,-2.28228 -0.208686,-3.30729 -0.322789,-1.37432 -0.322272,-1.51853 0.0039,-1.07391 0.367543,0.50108 0.376715,0.49947 0.376715,-0.0662 0,-0.76621 0.520299,-0.75173 0.559858,0.0156 0.0231,0.44798 0.06064,0.48072 0.151692,0.13229 0.06655,-0.25466 0.238359,-0.46302 0.381798,-0.46302 0.143439,0 0.188056,0.1177 0.09915,0.26155 -0.09261,0.14984 0.01329,0.19442 0.247936,0.10438 0.334576,-0.12839 0.379486,-0.007 0.245246,0.66449 -0.10592,0.52963 -0.0585,0.82166 0.13333,0.82166 0.16371,0 0.30096,0.14883 0.305,0.33073 0.004,0.1819 0.34639,0.66316 0.76078,1.06946 l 0.75343,0.73873 0.10942,-0.60644 c 0.14091,-0.78102 -0.18047,-5.6755 -0.43506,-6.62571 -0.12683,-0.47338 -0.0925,-0.7276 0.0983,-0.7276 0.16129,0 0.29326,0.18562 0.29326,0.41249 0,0.22687 0.12101,0.3377 0.2689,0.2463 0.1479,-0.0914 0.20811,-0.26455 0.13381,-0.38477 -0.18408,-0.29784 0.56167,-0.55805 1.05587,-0.36841 0.22013,0.0845 0.56053,0.0206 0.75643,-0.14202 0.32392,-0.26883 2.66715,-1.07678 3.1428,-1.08364 0.10915,-0.002 0.19844,0.22823 0.19844,0.51068 0,0.28246 0.11906,0.58714 0.26459,0.67708 0.16179,0.1 0.26458,-0.31114 0.26458,-1.05834 0,-0.84542 0.0927,-1.16457 0.30086,-1.03591 0.49775,0.30762 0.0743,4.08171 -0.66108,5.89136 -1.33762,3.29191 -3.85131,6.09859 -6.624,7.39609 -0.90259,0.42237 -2.179251,1.17876 -2.837035,1.68086 -0.657784,0.50209 -1.573365,1.06922 -2.034625,1.26028 -0.722662,0.29934 -0.815673,0.44373 -0.672493,1.04402 0.09139,0.38315 0.277948,0.91435 0.414578,1.18045 0.293119,0.57087 1.096189,3.10371 1.104945,3.48494 0.0033,0.14552 -0.148428,0.71567 -0.337268,1.26701 -0.268438,0.78373 -0.448493,0.96906 -0.825299,0.84947 -0.37378,-0.11864 -0.521447,0.0268 -0.657914,0.64818 -0.190756,0.8685 -0.664416,1.36079 -0.664416,0.69054 0,-0.56875 -0.08726,-0.53319 -1.098021,0.44746 -0.487495,0.47297 -1.213776,1.09654 -1.613958,1.38571 -0.864893,0.62497 -0.911328,0.95189 -0.198438,1.3971 0.291042,0.18176 0.529167,0.5735 0.529167,0.87053 0,0.29704 0.203369,0.92111 0.451931,1.38682 0.248562,0.46572 0.457106,0.90629 0.463431,0.97905 0.0063,0.0728 0.290302,0.52344 0.63106,1.00152 0.499145,0.70028 0.557047,0.94454 0.297922,1.25677 -0.513488,0.61871 -0.750025,0.45213 -0.610957,-0.43028 z m -6.406978,-18.88559 c -0.01309,-0.96724 -0.128157,-1.12934 -1.455208,-2.05008 -0.792546,-0.54989 -1.570974,-1 -1.729841,-1.00024 -0.583792,-8.8e-4 -1.144227,2.91293 -0.695854,3.61788 0.201834,0.31733 1.674242,0.55955 3.101369,0.51018 0.746563,-0.0258 0.792905,-0.0899 0.779534,-1.07774 z m 16.947552,18.12837 c -3.19838,-0.79768 -5.914843,-3.44829 -6.739577,-6.57621 -0.241831,-0.91718 -0.221509,-1.41161 0.10405,-2.53149 0.341135,-1.17347 0.748991,-1.72398 2.600937,-3.51065 2.41752,-2.33233 11.61971,-13.74559 19.16854,-23.77431 3.45308,-4.58746 4.13884,-5.31709 5.63584,-5.9964 2.2952,-1.04153 4.76224,-1.80881 5.81586,-1.80881 h 1.0633 v 4.92742 4.92742 l -4.10223,8.07868 c -5.58062,10.99014 -7.62991,15.68438 -9.10155,20.84863 -0.85234,2.99102 -2.67351,4.50948 -6.3407,5.28678 -1.83913,0.38982 -6.74545,0.46788 -8.10447,0.12894 z m 5.90487,-1.99683 c 0.43235,-0.3638 0.9475,-0.65391 1.14478,-0.64469 0.19727,0.009 0.0908,0.12445 -0.23663,0.25606 -0.32742,0.13161 -0.59531,0.36219 -0.59531,0.5124 0,0.43798 1.22962,0.31897 1.27881,-0.12377 0.0243,-0.21828 0.0639,-0.56885 0.0882,-0.77905 0.0242,-0.2102 0.16601,-0.35903 0.31501,-0.33073 0.14901,0.0283 0.32149,-0.18289 0.3833,-0.4693 0.10213,-0.47327 0.0674,-0.48533 -0.38116,-0.13229 -0.44657,0.35149 -0.46139,0.34729 -0.1557,-0.0441 0.64029,-0.8198 -0.8433,-0.86395 -2.87996,-0.0857 -1.00293,0.38324 -1.8235,0.7476 -1.8235,0.80969 0,0.17173 1.69453,1.67632 1.89792,1.68517 0.098,0.004 0.53189,-0.2899 0.96424,-0.6537 z m -8.38716,-9.46617 c 2.36731,-1.42794 5.34663,-2.8047 6.91406,-3.19502 0.40018,-0.0996 0.7276,-0.27385 0.7276,-0.3871 0,-0.23098 -3.79225,0.0757 -4.22223,0.34143 -0.15163,0.0937 -0.27568,0.1091 -0.27568,0.0342 0,-0.0749 1.9076,-2.7906 4.23912,-6.03489 2.33152,-3.24429 6.40386,-8.9348 9.04965,-12.64559 2.64579,-3.71078 5.14464,-7.0846 5.553,-7.49737 0.40836,-0.41278 0.59251,-0.70213 0.40921,-0.64301 -0.38381,0.12379 -2.01404,2.14735 -7.21244,8.95257 -6.9969,9.15963 -14.47864,18.37252 -16.56037,20.39217 -1.961624,1.90313 -2.621924,2.87414 -2.621924,3.85569 0,0.23672 0.330492,-0.0369 0.75886,-0.62823 0.48285,-0.66655 1.661714,-1.59216 3.241144,-2.54486 z M 78.338568,123.91895 c -0.0848,-0.221 -0.154188,-2.17801 -0.154188,-4.34892 v -3.94711 h 2.910416 c 3.300503,0 3.471826,0.13592 2.116667,1.67937 -0.436563,0.49721 -0.79375,1.09667 -0.79375,1.33212 0,0.23545 -0.116005,0.42809 -0.257789,0.42809 -0.141784,0 -0.436664,0.34591 -0.65529,0.76868 -0.218626,0.42278 -0.549106,0.9288 -0.734399,1.12448 -0.185293,0.19569 -0.634553,0.97773 -0.998355,1.73787 -0.70405,1.47107 -1.182182,1.87985 -1.433312,1.22542 z"
         id="path5" /><path
         style="fill:#9ba7b1"
         d="m 112.76969,176.57837 c -0.0796,-0.0796 0.29172,-0.57039 0.8251,-1.0907 l 0.9698,-0.94601 -1.19063,0.66546 c -1.54986,0.86625 -2.96811,1.08194 -3.90399,0.59373 -0.39942,-0.20836 -0.93458,-0.37957 -1.18924,-0.38047 -0.25466,-8.9e-4 -0.46302,-0.12069 -0.46302,-0.26621 0,-0.14552 -0.26789,-0.26837 -0.59531,-0.273 -0.68245,-0.01 -1.52135,-0.5682 -1.52135,-1.01294 0,-0.39205 -0.34024,-0.38466 -0.74099,0.0161 -0.23491,0.23491 -0.23147,0.13208 0.0132,-0.39481 0.31934,-0.6876 0.40583,-0.71253 2.47903,-0.71453 3.35131,-0.003 6.5615,-0.66421 8.50538,-1.75129 1.96224,-1.09734 2.84421,-2.32003 3.50633,-4.86087 0.24714,-0.94835 0.66223,-2.20053 0.92243,-2.78261 0.2602,-0.58208 0.5111,-1.24443 0.55755,-1.47189 0.1878,-0.91964 1.08951,-2.61397 1.29299,-2.42954 0.1197,0.10849 0.12997,0.0452 0.0228,-0.14071 -0.10714,-0.18589 0.0433,-0.84073 0.33438,-1.45521 0.29105,-0.61448 0.84949,-1.89114 1.24099,-2.83702 0.39149,-0.94589 0.92068,-2.01745 1.17599,-2.38126 0.2553,-0.3638 0.54736,-0.92934 0.64901,-1.25677 0.10166,-0.32742 0.3029,-0.59531 0.44721,-0.59531 0.1443,0 0.18556,-0.12428 0.0917,-0.27617 -0.0939,-0.1519 -0.0544,-0.41979 0.0878,-0.59531 0.14216,-0.17553 1.33907,-2.46227 2.65979,-5.08164 1.32073,-2.61938 2.52253,-4.9411 2.67067,-5.15938 0.18721,-0.27586 0.27058,1.15616 0.27339,4.69636 0.003,4.35272 -0.0537,5.09322 -0.39282,5.09322 -0.21828,0 -0.39688,0.22821 -0.39688,0.50712 0,0.27892 -0.0893,0.54681 -0.19843,0.59532 -0.37541,0.16684 -1.91823,3.43227 -1.91823,4.05998 0,0.34563 -0.20836,0.78399 -0.46302,0.97414 -0.25466,0.19016 -0.69013,0.79222 -0.96771,1.33792 -0.27758,0.54571 -0.59644,0.99219 -0.70859,0.99219 -0.11215,0 -0.45968,0.68461 -0.77228,1.52136 -0.31261,0.83674 -0.74954,1.72221 -0.97097,1.9677 -0.22143,0.24549 -0.33587,0.55432 -0.25431,0.68629 0.2575,0.41664 -0.36526,2.17465 -0.77035,2.17465 -0.21144,0 -0.38444,0.10933 -0.38444,0.24295 0,0.54279 0.34309,1.07997 0.68977,1.07997 0.20271,0 0.36856,0.17859 0.36856,0.39687 0,0.21828 -0.22968,0.39688 -0.5104,0.39688 -0.40548,0 -0.57232,0.29823 -0.81155,1.45059 -0.16563,0.79783 -0.4122,1.51923 -0.54793,1.60312 -0.13573,0.0839 -0.24678,0.38362 -0.24678,0.66607 0,0.28245 -0.10935,0.51355 -0.24301,0.51355 -0.13365,0 -0.51447,0.44649 -0.84627,0.99219 -0.9931,1.63332 -2.98427,3.24115 -4.01392,3.24115 -0.39592,0 -0.85072,0.23284 -1.07207,0.54886 -0.25522,0.36439 -0.73311,0.57487 -1.42179,0.62624 -0.57054,0.0425 -1.28161,0.20809 -1.58015,0.36786 -0.29854,0.15978 -0.60791,0.22539 -0.68748,0.14582 z m -8.52385,-4.85133 c -3.19838,-0.79768 -5.914843,-3.44829 -6.739577,-6.57621 -0.241549,-0.91611 -0.22157,-1.4114 0.101805,-2.52377 0.340671,-1.17187 0.759229,-1.73088 2.731002,-3.64744 1.9736,-1.91834 6.53838,-7.41204 11.14469,-13.41263 1.69727,-2.21101 2.37891,-3.08411 4.14716,-5.31198 0.87753,-1.10562 2.71326,-3.4985 4.0794,-5.31751 1.36614,-1.81901 2.79129,-3.64581 3.167,-4.05957 1.2228,-1.34663 5.00326,-2.99065 7.49612,-3.25985 l 1.52135,-0.1643 v 4.97024 4.97024 l -3.99595,7.8336 c -5.65708,11.09006 -8.02613,16.52103 -9.24053,21.18362 -0.99074,3.80387 -4.48338,5.58747 -10.8406,5.53601 -1.52797,-0.0124 -3.13531,-0.11157 -3.57187,-0.22045 z m 5.89866,-1.36911 c -0.26833,-0.1659 -0.23914,-0.31396 0.13491,-0.6843 0.44656,-0.44214 0.46605,-0.44276 0.30242,-0.01 -0.14582,0.38604 -0.0211,0.46303 0.75014,0.46303 0.50877,0 1.19349,-0.21739 1.52161,-0.48308 0.49105,-0.39763 0.56541,-0.64332 0.42043,-1.38906 -0.0969,-0.49829 -0.39337,-1.18839 -0.65887,-1.53355 -0.42113,-0.54748 -0.50442,-0.57105 -0.65267,-0.1847 -0.0935,0.24358 -0.0647,0.37784 0.0639,0.29836 0.12861,-0.0795 0.30798,0.0487 0.3986,0.28486 0.13721,0.35757 0.0286,0.40215 -0.64939,0.26655 -0.79261,-0.15852 -5.01575,1.06374 -5.01605,1.45175 -7e-5,0.0915 0.3531,0.31265 0.78482,0.49147 0.43172,0.17883 0.85523,0.54658 0.94113,0.81723 0.11613,0.36588 0.39281,0.48319 1.07882,0.4574 0.58094,-0.0218 0.79582,-0.11309 0.58022,-0.24639 z m -8.38095,-10.09389 c 2.31852,-1.39851 5.99823,-3.10154 6.70144,-3.10154 0.17045,0 0.54103,-0.17145 0.82351,-0.38099 0.46118,-0.34212 0.3516,-0.36653 -1.07391,-0.23916 -0.87313,0.078 -1.97446,0.23987 -2.4474,0.35967 -0.47294,0.11981 -0.85989,0.16174 -0.85989,0.0932 0,-0.10845 2.00116,-2.89395 5.29716,-7.37333 1.10039,-1.49547 7.16576,-9.96619 8.23563,-11.50162 2.91305,-4.18071 4.92492,-6.86673 5.62299,-7.50715 0.46722,-0.42863 0.5925,-0.63771 0.29109,-0.48579 -0.74622,0.37613 -1.51433,1.27116 -4.58222,5.33935 -8.4446,11.198 -16.69017,21.46006 -19.26758,23.97955 -2.068477,2.02198 -2.740824,3.00099 -2.740824,3.99091 0,0.23672 0.330492,-0.0369 0.75886,-0.62823 0.48285,-0.66655 1.661714,-1.59216 3.241144,-2.54486 z m -5.322921,2.17451 c 0,-0.15411 -0.107959,-0.21347 -0.239909,-0.13192 -0.131949,0.0815 -0.181108,-0.0766 -0.109241,-0.3514 0.07187,-0.27482 0.0012,-0.57967 -0.156967,-0.67744 -0.168417,-0.10409 -0.287633,0.0297 -0.287633,0.32292 0,0.27537 -0.148828,0.50181 -0.330729,0.50319 -0.181901,10e-4 -0.628386,0.0886 -0.992188,0.19372 -0.485642,0.14039 -0.557939,0.12006 -0.271998,-0.0765 0.335415,-0.23054 0.326236,-0.29194 -0.06615,-0.44251 -0.250583,-0.0962 -0.455606,-0.34069 -0.455606,-0.5434 0,-0.49136 -0.506114,-0.47192 -0.697486,0.0268 -0.247948,0.64614 -0.62543,0.17015 -0.62543,-0.78864 0,-0.96354 -0.631014,-1.63717 -2.105838,-2.24806 -0.442518,-0.1833 -0.804579,-0.43788 -0.804579,-0.56575 0,-0.31131 0.361084,-0.29473 0.687365,0.0316 0.175652,0.17565 0.746886,0.13723 1.706562,-0.11478 2.734714,-0.71813 4.056716,-1.48272 3.109555,-1.79844 -0.198498,-0.0662 -0.148952,-0.17041 0.132292,-0.27833 0.302437,-0.11606 0.449643,-0.04 0.449643,0.23241 0,0.22273 0.31085,1.06204 0.690777,1.86514 0.379928,0.8031 0.676223,1.77799 0.658435,2.16643 -0.01779,0.38843 -0.02986,1.21226 -0.02682,1.83072 0.003,0.61847 -0.05513,1.12448 -0.129268,1.12448 -0.07413,0 -0.134789,-0.12609 -0.134789,-0.2802 z"
         id="path4" /><path
         style="fill:#47b09f"
         d="m 104.11355,171.60329 c -2.096,-0.59882 -2.65203,-0.91857 -4.06239,-2.33612 -1.712182,-1.72091 -2.552198,-3.44332 -2.552198,-5.23316 0,-1.82973 0.668601,-2.9936 2.821188,-4.911 1.62291,-1.44559 4.95742,-5.51029 12.87034,-15.68864 1.42706,-1.83562 2.83763,-3.63515 3.13462,-3.99895 0.29698,-0.3638 1.95535,-2.53064 3.68527,-4.81519 2.26348,-2.98918 3.46246,-4.3396 4.2765,-4.81666 1.67796,-0.98335 4.50193,-1.98221 6.15256,-2.17621 l 1.45535,-0.17105 v 4.84134 4.84134 l -4.33202,8.6227 c -5.54818,11.04338 -7.63372,15.80035 -8.87861,20.25144 -0.94192,3.36781 -2.52532,4.72243 -6.50544,5.56551 -2.24579,0.47571 -6.44149,0.48854 -8.06517,0.0246 z m 7.04511,-1.07455 c 0.72618,-0.21565 1.59873,-0.68844 1.93899,-1.05063 0.60817,-0.64737 0.61121,-0.67806 0.17924,-1.80916 -0.24168,-0.63285 -0.84079,-1.58881 -1.33134,-2.12437 -0.49055,-0.53556 -0.78656,-0.97374 -0.65779,-0.97374 0.62626,0 0.12312,-0.86714 -0.70357,-1.21255 -0.97371,-0.40684 -1.56938,-0.29072 -1.35636,0.26442 0.0927,0.24154 -0.42144,0.29267 -2.07207,0.20603 -2.55396,-0.13405 -5.33518,0.28674 -6.78543,1.0266 -0.813459,0.415 -1.019284,0.6685 -1.019284,1.25541 0,1.69401 2.529634,4.13249 4.733274,4.56273 1.75462,0.34257 5.7056,0.26173 7.07434,-0.14474 z m -11.772654,-8.50241 c 1.407154,-1.30236 4.626254,-3.10311 7.505664,-4.19865 1.45521,-0.55368 2.75894,-1.10843 2.89719,-1.2328 0.31697,-0.28516 -1.98882,-0.27647 -3.48535,0.0131 -1.22401,0.23687 -1.22311,0.2987 -0.0207,-1.42989 5.12514,-7.36797 7.22409,-10.13438 8.0172,-10.56663 0.43657,-0.23793 0.57214,-0.36744 0.30127,-0.2878 -0.67143,0.19742 -0.45605,-0.29743 0.92644,-2.12853 0.61132,-0.80967 1.47813,-1.64156 1.92626,-1.84863 0.46673,-0.21567 0.56048,-0.31354 0.21947,-0.22911 -0.76376,0.1891 -0.74998,-0.0154 0.0701,-1.04069 0.92726,-1.15928 0.95996,-1.20331 1.98821,-2.67778 0.50502,-0.72416 1.0071,-1.43854 1.11575,-1.5875 2.16937,-2.97437 2.82005,-3.8084 3.37434,-4.32519 l 0.66146,-0.61671 -0.79708,0.43724 c -0.44667,0.24502 -2.269,2.37673 -4.14533,4.84907 -9.86501,12.99864 -16.01741,20.67364 -19.01945,23.72642 -2.603274,2.64728 -3.166978,3.51514 -3.147578,4.84587 l 0.01036,0.71038 0.355334,-0.79375 c 0.195433,-0.43656 0.75632,-1.16487 1.246414,-1.61846 z"
         id="path3" /><path
         style="fill:#3e7787"
         d="m 104.11355,171.60329 c -2.096,-0.59882 -2.65203,-0.91857 -4.06239,-2.33612 -1.712182,-1.72091 -2.552198,-3.44332 -2.552198,-5.23316 0,-1.82973 0.668601,-2.9936 2.821188,-4.911 1.62291,-1.44559 4.95742,-5.51029 12.87034,-15.68864 1.42706,-1.83562 2.83763,-3.63515 3.13462,-3.99895 0.29698,-0.3638 1.95535,-2.53064 3.68527,-4.81519 2.26348,-2.98918 3.46246,-4.3396 4.2765,-4.81666 1.71163,-1.00308 4.51662,-1.98482 6.21871,-2.17653 1.66203,-0.1872 1.83784,0.0562 0.22566,0.31246 -1.23175,0.19576 -3.03515,0.81904 -3.50997,1.21311 -0.19446,0.16139 -0.35539,0.18956 -0.35762,0.0626 -0.002,-0.12696 -0.0983,-0.0824 -0.21358,0.0991 -0.11523,0.18148 -0.57092,0.37204 -1.01264,0.42347 -1.47871,0.17217 -2.32908,0.98098 -5.69651,5.41807 -9.86501,12.99864 -16.01741,20.67364 -19.01945,23.72642 -2.603274,2.64728 -3.166978,3.51514 -3.147578,4.84587 l 0.01036,0.71038 0.355334,-0.79375 c 0.793065,-1.77156 4.386414,-4.15843 8.752074,-5.81352 1.45521,-0.55169 2.75346,-1.14882 2.885,-1.32694 0.18862,-0.25542 0.46819,-0.25538 1.32291,1.7e-4 0.59607,0.17822 1.41333,0.28801 1.81614,0.24398 0.4028,-0.044 0.66819,0.0238 0.58974,0.15072 -0.0784,0.12693 0.0682,0.36509 0.32596,0.52924 0.38859,0.2475 0.32572,0.27478 -0.36824,0.15978 -0.91858,-0.15222 -1.13538,0.0266 -1.67229,1.3791 -0.31234,0.7868 -0.29622,0.92928 0.15409,1.36141 0.99354,0.95343 1.57819,0.90947 2.21297,-0.1664 0.32538,-0.55147 0.52979,-1.25369 0.46444,-1.59553 -0.0733,-0.38324 0.0107,-0.61055 0.22564,-0.61055 0.39113,0 0.75643,-0.92467 0.51782,-1.31075 -0.41197,-0.66659 -5.44438,-1.16261 -5.80904,-0.57257 -0.0793,0.12834 -0.59236,0.23981 -1.14009,0.24772 -0.54774,0.008 -1.50909,0.12999 -2.13634,0.27129 -1.13038,0.25464 -1.13709,0.25186 -0.75861,-0.31387 0.22676,-0.33893 0.59987,-0.53877 0.91859,-0.49197 0.55146,0.081 1.0369,-0.37517 0.728,-0.68406 -0.0952,-0.0952 -0.27929,-0.001 -0.40898,0.20838 -0.1297,0.20985 -0.32213,0.29523 -0.42763,0.18973 -0.23181,-0.23181 0.83275,-1.4181 1.29222,-1.43998 0.17932,-0.009 1.15947,-0.15053 2.17812,-0.31552 3.20906,-0.51977 5.83589,-0.51858 7.00125,0.003 0.78163,0.34994 1.00281,0.37625 0.89948,0.107 -0.0754,-0.19638 0.28904,-1.02308 0.80977,-1.83712 0.52074,-0.81403 0.94679,-1.59089 0.94679,-1.72636 0,-0.13546 0.20836,-0.36765 0.46302,-0.51598 0.25466,-0.14833 0.35914,-0.2733 0.23219,-0.27773 -0.12696,-0.004 -0.0915,-0.17593 0.0788,-0.38112 0.25171,-0.3033 0.16415,-0.40503 -0.46822,-0.54392 -1.68106,-0.36922 -5.59745,0.11565 -5.59745,0.69299 0,0.11901 -0.53814,0.35189 -1.19586,0.51751 -0.88652,0.22322 -1.12722,0.38382 -0.93052,0.62083 0.38481,0.46367 -0.21101,1.15404 -1.25216,1.45088 -0.53674,0.15302 -0.80693,0.15265 -0.71199,-9.7e-4 0.0842,-0.13617 -0.0256,-0.24758 -0.24386,-0.24758 -0.68148,0 -0.69236,-0.40682 -0.0367,-1.37175 0.54012,-0.79485 0.85759,-0.97356 2.17111,-1.22217 0.84617,-0.16015 2.3124,-0.46336 3.25829,-0.6738 0.94588,-0.21043 2.45429,-0.45907 3.35202,-0.55253 1.56183,-0.1626 1.67311,-0.13405 2.57969,0.66194 1.01613,0.89218 1.33002,0.88951 0.37185,-0.003 -0.64635,-0.60217 -0.56658,-0.87451 0.90633,-3.09461 0.80354,-1.21115 0.88916,-1.58347 0.40153,-1.74601 -0.35222,-0.11741 -2.46613,0.22323 -3.11351,0.50171 -0.21828,0.0939 -0.66476,0.1445 -0.99219,0.11245 -0.41477,-0.0406 -0.60164,0.0879 -0.6162,0.42368 -0.012,0.2779 -0.0774,0.34193 -0.15434,0.15123 -0.0734,-0.1819 -0.33189,-0.32891 -0.57442,-0.32668 -0.35478,0.003 -0.36945,0.0494 -0.075,0.23583 0.26947,0.17066 0.14908,0.2794 -0.45656,0.41242 -0.45239,0.0994 -0.94449,0.10528 -1.09356,0.0131 -0.14907,-0.0921 -0.27104,-0.0513 -0.27104,0.0906 0,0.39509 0.60511,0.52436 1.14714,0.24506 0.26712,-0.13765 0.5331,-0.20285 0.59106,-0.1449 0.0579,0.058 -0.59188,0.47969 -1.44408,0.93718 -0.8522,0.45749 -1.62419,0.75706 -1.71554,0.66571 -0.0913,-0.0914 -0.16608,-0.0272 -0.16608,0.1426 0,0.16977 -0.11533,0.30868 -0.25628,0.30868 -0.14095,0 -0.18694,-0.1807 -0.10219,-0.40156 0.0847,-0.22086 0.28938,-0.38535 0.45472,-0.36553 0.71388,0.0856 1.00903,-0.0519 0.87296,-0.40644 -0.0801,-0.20888 -0.01,-0.42516 0.15675,-0.48061 0.16999,-0.0567 0.0995,-0.17872 -0.16089,-0.27865 -0.25487,-0.0978 -0.41017,-0.0899 -0.34513,0.0176 0.065,0.10747 -0.0478,0.34893 -0.25084,0.53657 -0.21298,0.19685 -0.3691,0.22483 -0.3691,0.0661 0,-0.15126 -0.11906,-0.27501 -0.26458,-0.27501 -0.14553,0 -0.25049,0.0893 -0.23326,0.19844 0.0853,0.53998 -0.0682,0.85989 -0.41259,0.85989 -0.51468,0 -0.76011,0.44662 -0.37592,0.68406 0.19347,0.11957 0.23889,0.0768 0.12099,-0.11401 -0.10383,-0.16801 -0.0627,-0.30547 0.0914,-0.30547 0.15411,0 0.2802,0.1786 0.2802,0.39688 0,0.21828 -0.17009,0.39687 -0.37798,0.39687 -0.20788,0 -0.53531,0.15549 -0.7276,0.34554 -0.1923,0.19004 -0.57444,0.43074 -0.84922,0.53489 -0.36021,0.13654 -0.24392,-0.12594 0.41683,-0.94084 0.50402,-0.62162 1.1351,-1.50639 1.40239,-1.96617 0.42504,-0.73114 0.78744,-0.91907 2.89046,-1.49892 3.59341,-0.99077 6.44517,-1.5564 6.98429,-1.38529 0.74457,0.23632 2.05895,1.73314 2.80206,3.191 0.37088,0.72761 0.6865,1.20386 0.70137,1.05834 0.0149,-0.14552 0.0669,-0.47295 0.11569,-0.72761 0.0487,-0.25466 -0.0199,-0.46302 -0.15254,-0.46302 -0.13264,0 -0.24117,-0.18562 -0.24117,-0.41249 0,-0.2392 -0.12557,-0.33488 -0.29891,-0.22775 -0.17818,0.11012 -0.25165,0.043 -0.1819,-0.16629 0.0644,-0.19306 -0.069,-0.54893 -0.2964,-0.79082 -1.44839,-1.54082 -1.43691,-1.45461 -0.42382,-3.1832 l 0.92858,-1.58438 -0.63523,-0.28943 c -0.51281,-0.23365 -1.02244,-0.15572 -2.64425,0.40434 -1.10495,0.38157 -2.21631,0.70214 -2.46968,0.71237 -0.3965,0.016 -0.38893,0.0467 0.0543,0.22013 0.47697,0.18665 0.4672,0.21432 -0.13229,0.37467 -0.89091,0.23828 -1.24567,0.21612 -0.82355,-0.0515 0.2829,-0.17933 0.26779,-0.25638 -0.0762,-0.38837 -0.46418,-0.17812 -0.8359,0.40814 -0.55104,0.86906 0.10494,0.16979 -0.003,0.20788 -0.28454,0.1 -0.28747,-0.11031 -0.39013,-0.0708 -0.27984,0.1076 0.0958,0.155 -0.004,0.35009 -0.22118,0.43353 -0.21745,0.0834 -0.40291,0.007 -0.41213,-0.17071 -0.009,-0.17733 -0.12947,-0.041 -0.26722,0.30306 -0.18442,0.46058 -0.39477,0.58774 -0.79788,0.48232 -0.40652,-0.1063 -0.50878,-0.0424 -0.39727,0.24816 0.0845,0.22024 0.0358,0.32064 -0.11139,0.22966 -0.14385,-0.0889 -0.26155,-0.0494 -0.26155,0.0877 0,0.13714 -0.23786,0.31155 -0.52858,0.38757 -0.43244,0.11309 -0.33554,-0.13697 0.53274,-1.37479 1.00358,-1.43071 1.16549,-1.54369 2.97597,-2.07678 1.05306,-0.31007 3.01352,-0.83169 4.35656,-1.15917 l 2.4419,-0.59542 0.65301,0.61347 c 0.35915,0.33741 1.09159,1.31298 1.62764,2.16795 1.06911,1.70516 1.31628,1.90905 1.05571,0.87085 -0.11126,-0.44329 -0.0748,-0.62383 0.10361,-0.51355 0.15135,0.0935 0.27519,0.044 0.27519,-0.11012 0,-0.15411 -0.2311,-0.2802 -0.51355,-0.2802 -0.28246,0 -0.59502,-0.13182 -0.6946,-0.29293 -0.12423,-0.20102 0.0161,-0.23221 0.44741,-0.0994 0.34565,0.10643 0.54334,0.10353 0.43932,-0.006 -0.10402,-0.10997 -0.0677,-0.45219 0.0807,-0.76048 0.26232,-0.54483 0.25835,-0.54614 -0.1416,-0.0469 -0.29853,0.37262 -0.41258,0.40893 -0.41552,0.13229 -0.003,-0.32158 -0.0442,-0.31914 -0.26054,0.0156 -0.21746,0.3365 -0.25709,0.32406 -0.26053,-0.0818 -0.002,-0.26325 -0.1072,-0.41489 -0.23327,-0.33697 -0.12607,0.0779 -0.43623,-0.0871 -0.68925,-0.36665 -0.4397,-0.48587 -0.42401,-0.57479 0.35525,-2.01355 0.4484,-0.82787 0.75153,-1.60835 0.67363,-1.7344 -0.218,-0.35273 -1.53064,-0.27206 -2.55803,0.15721 -0.50861,0.21251 -0.9994,0.31173 -1.09065,0.22049 -0.0912,-0.0913 -0.1659,-0.0131 -0.1659,0.17362 0,0.21949 -0.23385,0.29483 -0.66145,0.21308 -0.39244,-0.075 -0.66146,-0.004 -0.66146,0.17494 0,0.58567 -1.99448,1.88908 -2.25231,1.4719 -0.0881,-0.14254 0.0255,-0.25916 0.25232,-0.25916 0.22687,0 0.40309,-0.20836 0.3916,-0.46302 -0.0124,-0.27585 -0.0748,-0.32951 -0.15419,-0.13275 -0.0797,0.19741 -0.37616,0.26932 -0.737,0.17876 -0.40765,-0.10232 -0.65561,-0.0163 -0.76355,0.26503 -0.0879,0.22911 -0.0544,0.41656 0.0744,0.41656 0.12883,0 0.29429,-0.14883 0.36769,-0.33073 0.0909,-0.22526 0.13882,-0.20416 0.15029,0.0661 0.009,0.21828 -0.0986,0.57547 -0.23965,0.79375 -0.17099,0.26458 -0.25783,0.28663 -0.26053,0.0661 -0.006,-0.46526 -0.70956,-0.41315 -0.89348,0.0661 -0.0838,0.21828 -0.0171,0.39687 0.14808,0.39687 0.16521,0 0.23804,0.0623 0.16186,0.13852 -0.0762,0.0762 -0.32879,0.0655 -0.56133,-0.0237 -0.35471,-0.13612 -0.27116,-0.38218 0.51866,-1.52759 0.51781,-0.75093 1.10048,-1.33202 1.29482,-1.2913 0.19435,0.0407 1.7427,-0.2867 3.44079,-0.7276 1.69809,-0.4409 3.37148,-0.80164 3.71866,-0.80164 0.7034,0 1.76476,1.28078 2.60445,3.1429 0.30098,0.66744 0.57523,0.9888 0.68806,0.80624 0.22812,-0.36911 0.0136,-1.30331 -0.29926,-1.30331 -0.12398,0 -0.15689,-0.17859 -0.0731,-0.39687 0.1001,-0.26085 -0.009,-0.39688 -0.31698,-0.39688 -0.2581,0 -0.39983,-0.0694 -0.31494,-0.15434 0.0849,-0.0849 -0.0739,-0.38254 -0.35278,-0.66145 -0.64172,-0.64173 -0.63731,-1.06675 0.0245,-2.36408 l 0.53165,-1.04213 -0.68345,-0.17154 c -0.37591,-0.0943 -0.97794,-0.0374 -1.33786,0.12663 -0.35992,0.16399 -0.82739,0.29816 -1.03882,0.29816 -0.21143,0 -0.62255,0.23813 -0.91359,0.52917 -0.29104,0.29104 -0.79706,0.5208 -1.12448,0.51057 -0.57223,-0.0179 -0.57479,-0.0283 -0.0661,-0.26865 0.4166,-0.19686 0.36088,-0.21658 -0.26193,-0.0927 -0.4351,0.0865 -0.86957,0.28431 -0.96548,0.4395 -0.0959,0.15519 -0.35629,0.21236 -0.57862,0.12704 -0.55737,-0.21388 -1.05791,0.41552 -0.65271,0.82073 0.37475,0.37474 0.18733,0.59485 -0.55406,0.65069 -0.30749,0.0232 -0.55907,0.14287 -0.55907,0.26601 0,0.12314 -0.11906,0.15031 -0.26459,0.0604 -0.14552,-0.0899 -0.26458,-0.0374 -0.26458,0.11668 0,0.15411 -0.11532,0.2802 -0.25628,0.2802 -0.14095,0 -0.18774,-0.1786 -0.10398,-0.39688 0.0838,-0.21828 0.31815,-0.39687 0.52086,-0.39687 0.20271,0 0.36857,-0.11906 0.36857,-0.26459 0,-0.84264 0.44619,-1.5875 0.95096,-1.5875 0.22175,0 0.32809,-0.1215 0.23632,-0.27 -0.0918,-0.14849 0.13932,-0.63388 0.51355,-1.07863 0.37423,-0.44475 0.68042,-0.89945 0.68042,-1.01045 0,-0.2256 1.239,-0.86502 1.85208,-0.95581 0.21828,-0.0323 1.49112,-0.38048 2.82852,-0.77366 1.3374,-0.39318 2.70662,-0.6759 3.04271,-0.62827 0.57961,0.0822 0.61106,0.19443 0.61106,2.18123 0,1.56682 -0.094,2.12594 -0.37289,2.21892 -0.27015,0.09 -0.32097,-0.011 -0.18445,-0.36676 0.10364,-0.27008 0.1038,-0.40643 3.6e-4,-0.30298 -0.10344,0.10344 -0.37243,0.0403 -0.59776,-0.14036 -0.37939,-0.30416 0.52614,1.43037 1.06479,2.03959 0.12224,0.13824 0.22224,0.78241 0.22224,1.43147 0,0.99796 -0.66867,2.5111 -4.33202,9.80282 -5.54818,11.04338 -7.63372,15.80035 -8.87861,20.25144 -0.94192,3.36781 -2.52532,4.72243 -6.50544,5.56551 -2.24579,0.47571 -6.44149,0.48854 -8.06517,0.0246 z m 7.04511,-1.07455 c 0.72618,-0.21565 1.59873,-0.68844 1.93899,-1.05063 0.60817,-0.64737 0.61121,-0.67806 0.17924,-1.80916 -0.24168,-0.63285 -0.84079,-1.58881 -1.33134,-2.12437 -0.49055,-0.53556 -0.78656,-0.97374 -0.65779,-0.97374 0.62626,0 0.12312,-0.86714 -0.70357,-1.21255 -0.97371,-0.40684 -1.56938,-0.29072 -1.35636,0.26442 0.0927,0.24154 -0.42144,0.29267 -2.07207,0.20603 -2.55396,-0.13405 -5.33518,0.28674 -6.78543,1.0266 -0.813459,0.415 -1.019284,0.6685 -1.019284,1.25541 0,1.69401 2.529634,4.13249 4.733274,4.56273 1.75462,0.34257 5.7056,0.26173 7.07434,-0.14474 z m 5.39768,-14.15543 c -0.30736,-0.18996 -0.31604,-0.35883 -0.0486,-0.94584 0.17907,-0.39303 0.27103,-0.76916 0.20435,-0.83584 -0.22019,-0.22019 -2.13324,-0.59187 -2.94128,-0.57144 -0.76935,0.0194 -0.77342,0.0261 -0.13229,0.21582 0.40711,0.12049 -0.14351,0.18665 -1.43199,0.17207 -1.45668,-0.0165 -2.12734,0.0769 -2.20486,0.30703 -0.0613,0.1819 -0.36939,0.32236 -0.68468,0.31213 -0.55513,-0.018 -0.55652,-0.0258 -0.0441,-0.24599 0.7758,-0.33337 0.0863,-0.31324 -0.88656,0.0259 -0.45828,0.15976 -0.83323,0.41062 -0.83323,0.55748 0,0.15078 0.20155,0.18373 0.46302,0.0757 0.25466,-0.10521 1.08475,-0.1715 1.84463,-0.1473 0.75989,0.0242 1.63746,-0.0929 1.95016,-0.26028 0.44712,-0.23928 0.52482,-0.23352 0.36382,0.027 -0.15643,0.25311 0.056,0.29628 0.9006,0.18299 0.94518,-0.12677 1.28648,-0.0246 2.35561,0.70555 0.68766,0.46959 1.30637,0.80937 1.37491,0.75506 0.0686,-0.0543 -0.0437,-0.20281 -0.24954,-0.33 z m 12.71245,-24.49444 c 0.88204,0.13023 0.98581,0.0686 1.53766,-0.91328 0.96259,-1.7127 0.42828,-1.95219 -2.29986,-1.03088 -0.90139,0.3044 -1.63888,0.67432 -1.63888,0.82205 0,0.14774 -0.1709,0.20302 -0.37978,0.12287 -0.20888,-0.0802 -0.41724,-0.0371 -0.46302,0.0956 -0.0458,0.13272 -0.48405,0.27148 -0.97394,0.30834 -0.48988,0.0369 -0.9491,0.21924 -1.02049,0.40528 -0.0714,0.18603 -0.2772,0.33824 -0.45736,0.33824 -0.39577,0 -1.2633,0.91017 -1.06067,1.1128 0.0791,0.0791 1.41882,-0.20369 2.97714,-0.62842 1.81983,-0.496 3.17167,-0.72228 3.7792,-0.63259 z"
         id="path2" /><path
         style="fill:#2f4347"
         d="m 104.6547,171.70766 c -3.60308,-0.75982 -6.63019,-3.68213 -7.064186,-6.81961 -0.102347,-0.7399 -0.06646,-0.88184 0.147068,-0.5818 0.238067,0.33452 0.28308,0.31281 0.286495,-0.13815 0.01164,-1.53736 3.716363,-4.20531 8.515143,-6.13216 3.54918,-1.4251 4.06228,-1.52975 5.52923,-1.12773 0.96142,0.26347 1.07769,0.3566 0.64405,0.51587 -0.29104,0.1069 -0.70776,0.14007 -0.92604,0.0737 -0.32937,-0.10011 -0.33424,-0.076 -0.0286,0.14155 0.30533,0.2174 0.26588,0.40593 -0.23097,1.10368 -0.4432,0.62242 -0.52184,0.91884 -0.30208,1.13861 0.33701,0.337 0.40602,0.81898 0.0892,0.62319 -0.11434,-0.0707 -0.20789,0.0882 -0.20789,0.35303 0,0.56932 0.83891,1.18818 1.08059,0.79714 0.0881,-0.14254 0.51033,-0.25916 0.9383,-0.25916 0.49201,0 0.77814,-0.13674 0.77814,-0.37185 0,-0.20451 0.41253,-0.86561 0.91673,-1.4691 l 0.91674,-1.09726 0.47233,0.57259 c 0.25978,0.31492 0.59729,0.70812 0.75003,0.87379 0.48596,0.52707 1.70595,3.16227 1.72526,3.72659 0.0184,0.53671 0.0212,0.53688 0.22797,0.0142 0.11516,-0.29104 0.14609,-0.69752 0.0687,-0.9033 -0.0887,-0.23604 -0.0275,-0.30421 0.16587,-0.18469 0.4517,0.27916 0.0969,-0.56034 -0.7903,-1.87009 -0.41206,-0.60831 -0.74921,-1.23339 -0.74921,-1.38907 0,-0.15568 -0.11906,-0.28305 -0.26458,-0.28305 -0.14552,0 -0.26458,-0.1786 -0.26458,-0.39688 0,-0.21828 -0.23813,-0.635 -0.52917,-0.92604 -0.29104,-0.29104 -0.39834,-0.52917 -0.23844,-0.52917 0.44397,0 1.74379,1.49554 2.55472,2.93938 0.78571,1.39896 1.25983,1.68543 1.06008,0.6405 -0.0687,-0.35939 -0.0355,-0.5982 0.0737,-0.53068 0.10925,0.0675 0.27065,-0.0649 0.35866,-0.29423 0.24884,-0.64848 0.18954,-0.95236 -0.14545,-0.74533 -0.18909,0.11687 -0.23365,0.0726 -0.11697,-0.11621 0.22242,-0.35987 -0.46416,-1.4478 -0.73976,-1.17221 -0.10378,0.10378 -0.11858,0.006 -0.0329,-0.21734 0.0889,-0.23162 -0.11009,-0.69294 -0.4632,-1.07395 -0.34045,-0.36735 -0.58754,-0.77632 -0.54909,-0.90882 0.10055,-0.34652 -1.75594,-1.69611 -2.33316,-1.69611 -0.26761,0 -0.48656,-0.11611 -0.48656,-0.25803 0,-0.38711 1.19334,0.13209 2.26027,0.98339 0.50309,0.40142 0.91472,0.8857 0.91472,1.07619 0,0.19049 0.11618,0.27455 0.25817,0.1868 0.14198,-0.0878 0.58847,0.43913 0.99218,1.17086 0.64907,1.17643 1.25561,1.61666 1.26725,0.91978 0.002,-0.13339 0.0985,-0.39136 0.21405,-0.57326 0.1155,-0.1819 0.12505,-0.46819 0.0212,-0.63619 -0.10856,-0.17565 -0.0734,-0.23414 0.0828,-0.13763 0.25893,0.16002 1.22131,-1.93428 1.22131,-2.65778 0,-0.18629 0.0969,-0.33871 0.21532,-0.33871 0.35355,0 0.0784,-1.42359 -0.43729,-2.26201 -1.27799,-2.07802 -1.86809,-2.82775 -2.49321,-3.16769 -0.48873,-0.26577 -0.55293,-0.37293 -0.22797,-0.38054 0.63922,-0.015 2.33731,1.74374 3.11919,3.23055 0.36349,0.69122 0.72064,1.25123 0.79365,1.24446 0.073,-0.007 0.62713,-0.98903 1.23137,-2.18281 l 1.09863,-2.1705 -0.56946,-1.07308 c -0.31321,-0.5902 -0.97233,-1.6468 -1.46472,-2.34802 l -0.89525,-1.27494 -1.75058,0.14592 c -1.08256,0.0902 -1.49817,0.0624 -1.08912,-0.073 0.3638,-0.1204 1.14412,-0.23079 1.73403,-0.24529 0.88132,-0.0217 1.22111,0.12696 1.90552,0.83352 0.45811,0.47294 1.1789,1.49282 1.60174,2.2664 l 0.76881,1.4065 0.9637,-2.02928 c 0.96732,-2.0369 1.13373,-2.64843 0.76526,-2.8122 -0.27385,-0.12171 -1.20145,-1.81921 -1.06737,-1.95328 0.0598,-0.0598 0.45022,0.43168 0.86767,1.09211 l 0.759,1.20078 0.84792,-1.8014 c 0.46635,-0.99077 0.74235,-1.84109 0.61332,-1.88959 -0.12903,-0.0485 -0.2346,-0.3079 -0.2346,-0.57642 0,-0.26852 -0.15707,-0.64555 -0.34904,-0.83785 -0.19197,-0.19229 -0.42091,-0.64728 -0.50877,-1.01108 -0.17508,-0.72501 -0.11284,-0.64995 0.98719,1.19062 l 0.63252,1.05834 0.5975,-1.43029 c 0.32862,-0.78665 0.64039,-1.30158 0.69283,-1.14428 0.0524,0.15731 -1.88651,4.23255 -4.30876,9.0561 -5.81926,11.5882 -7.70809,15.89031 -8.72317,19.86848 -0.79535,3.117 -2.33834,4.7227 -5.36682,5.58493 -2.05008,0.58368 -6.98409,0.84766 -8.77691,0.46959 z m 6.5341,-1.08181 c 1.21339,-0.32617 2.4534,-1.36953 2.44374,-2.0562 -0.003,-0.23482 -0.40747,-1.17181 -0.89814,-2.08222 -0.49067,-0.9104 -0.77984,-1.72467 -0.6426,-1.80949 0.694,-0.42892 -1.40158,-1.6946 -2.80574,-1.6946 -0.92616,0 -1.25305,0.34174 -0.60845,0.63609 0.1819,0.0831 -0.17408,0.0827 -0.79107,-7.6e-4 -1.64337,-0.22234 -5.82866,0.35717 -7.27872,1.00785 -1.161852,0.52134 -1.256774,0.63582 -1.256774,1.51562 0,1.94651 2.558814,4.33251 4.987934,4.65106 0.67638,0.0887 1.40837,0.19448 1.62665,0.23507 0.79651,0.14813 4.13068,-0.10875 5.22317,-0.40242 z m -13.417209,-8.25097 c -0.02229,-0.58631 0.927709,-1.79697 2.507869,-3.19596 2.05073,-1.8156 11.85625,-14.01442 20.13815,-25.05339 1.48188,-1.9752 3.01054,-3.79847 3.39703,-4.0517 1.25212,-0.82042 5.46188,-2.30958 6.85555,-2.42509 l 1.3569,-0.11246 -1.5875,0.3526 c -1.56062,0.34663 -4.29441,1.32167 -6.07599,2.16709 -0.60983,0.28938 -1.65981,1.43662 -3.21742,3.51545 -2.41324,3.22078 -8.27483,10.75725 -14.33551,18.43171 -1.95366,2.47385 -4.65497,5.62901 -6.00292,7.01146 -1.34795,1.38244 -2.580709,2.75166 -2.739466,3.0427 -0.158756,0.29105 -0.292268,0.43396 -0.296693,0.31759 z"
         id="path1" /></g></g></svg>
