<?xml version="1.0" encoding="UTF-8" standalone="no"?>
<!-- Created with Inkscape (http://www.inkscape.org/) -->

<svg
   width="53.724689mm"
   height="65.625015mm"
   viewBox="0 0 53.724689 65.625015"
   version="1.1"
   id="svg1"
   inkscape:export-filename="the-anvil.svg"
   inkscape:export-xdpi="96"
   inkscape:export-ydpi="96"
   xml:space="preserve"
   xmlns:inkscape="http://www.inkscape.org/namespaces/inkscape"
   xmlns:sodipodi="http://sodipodi.sourceforge.net/DTD/sodipodi-0.dtd"
   xmlns="http://www.w3.org/2000/svg"
   xmlns:svg="http://www.w3.org/2000/svg"><sodipodi:namedview
     id="namedview1"
     pagecolor="#ffffff"
     bordercolor="#000000"
     borderopacity="0.25"
     inkscape:showpageshadow="2"
     inkscape:pageopacity="0.0"
     inkscape:pagecheckerboard="0"
     inkscape:deskcolor="#d1d1d1"
     inkscape:document-units="mm"><inkscape:page
       x="0"
       y="0"
       width="53.724689"
       height="65.625015"
       id="page2"
       margin="0"
       bleed="0" /></sodipodi:namedview><defs
     id="defs1" /><g
     inkscape:label="Calque 1"
     inkscape:groupmode="layer"
     id="layer1"
     transform="translate(-94.515242,-109.54635)"><g
       id="g194"
       transform="translate(-4.2924356,18.265683)"><path
         style="fill:#d3e7f4"
         d="M 98.821877,124.08958 V 91.28125 h 26.855203 26.85521 v 32.80833 32.80834 H 125.67708 98.821877 Z"
         id="path202" /><path
         style="fill:#c5dbea"
         d="m 113.09748,155.0378 c 2.54008,-1.02085 4.6832,-1.94879 4.7625,-2.06209 0.0793,-0.1133 0.70492,-0.41626 1.39027,-0.67324 0.68534,-0.25698 1.67289,-0.75688 2.19456,-1.11089 0.52166,-0.35402 1.05523,-0.64366 1.1857,-0.64366 0.13047,0 0.30395,-0.10797 0.38551,-0.23994 0.0816,-0.13196 -0.26461,-0.11321 -0.76927,0.0417 -0.71866,0.22057 -1.3066,0.18211 -2.71236,-0.17742 -1.98826,-0.50851 -3.77147,-1.23694 -3.77615,-1.54254 -0.002,-0.10914 -0.24116,-0.19844 -0.5322,-0.19844 -0.29104,0 -0.52916,-0.10462 -0.52916,-0.23248 0,-0.12787 -0.3427,-0.37444 -0.76156,-0.54793 -0.41885,-0.1735 -1.28205,-0.91791 -1.91823,-1.65425 -0.63617,-0.73635 -1.28723,-1.47503 -1.44679,-1.64153 -0.15957,-0.16649 -0.37332,-0.74621 -0.47501,-1.28826 -0.10169,-0.54205 -0.32833,-0.98737 -0.50363,-0.9896 -0.19657,-0.002 -0.16662,-0.10236 0.0781,-0.26053 0.48075,-0.31069 0.87322,-0.34263 0.6965,-0.0567 -0.0707,0.11434 0.0711,0.2198 0.31512,0.23436 0.24397,0.0146 1.45562,0.38293 2.69255,0.81862 4.24082,1.49375 8.43737,1.6462 16.37525,0.59484 2.06387,-0.27335 7.69284,-1.89584 9.8185,-2.83008 1.86408,-0.81927 5.21408,-2.00543 7.34003,-2.59894 2.93736,-0.82004 3.82129,-1.37093 4.26483,-2.65792 0.627,-1.81936 0.48623,-3.21711 -0.61149,-6.07189 -0.62111,-1.61529 -1.06236,-3.26416 -1.13287,-4.23333 -0.0635,-0.87313 -0.22453,-1.70061 -0.35779,-1.83886 -0.36912,-0.38292 -0.29796,-1.00394 0.0884,-0.7718 0.26381,0.15849 0.26428,0.11657 0.002,-0.20717 -0.18064,-0.22322 -0.26612,-0.46818 -0.18995,-0.54434 0.0762,-0.0762 -0.22253,-0.28802 -0.66376,-0.47078 -0.44123,-0.18276 -0.80223,-0.42303 -0.80223,-0.53392 0,-0.53588 -1.12634,-0.43964 -1.76329,0.15067 -0.78703,0.72939 -1.14713,0.63115 -1.14713,-0.31295 0,-0.3638 -0.10658,-0.59558 -0.23686,-0.51507 -0.30303,0.18728 -0.61458,-0.60151 -0.38457,-0.97367 0.0958,-0.155 0.0502,-0.20505 -0.10146,-0.11132 -0.28741,0.17763 -0.95845,-0.43563 -0.7284,-0.66568 0.0724,-0.0724 -0.10724,-0.34778 -0.39917,-0.61198 -0.29193,-0.2642 -0.53079,-0.38162 -0.53079,-0.26094 0,0.12068 -0.26789,-0.023 -0.59531,-0.31921 -0.74996,-0.67857 -2.19215,-1.17169 -2.77387,-0.94846 -0.60666,0.2328 -1.11165,0.67078 -3.513,3.04684 -1.25831,1.24506 -2.1228,1.91976 -2.20356,1.71979 -0.074,-0.18321 -0.14216,-0.10948 -0.15379,0.16635 -0.0176,0.4179 -0.0853,0.44194 -0.43269,0.15365 -0.34049,-0.28259 -0.39776,-0.27674 -0.33073,0.0337 0.0782,0.36203 -0.0365,0.39106 -1.0434,0.26431 -0.40628,-0.0511 -0.39818,-0.0861 0.0661,-0.28567 0.43138,-0.18537 0.44649,-0.23083 0.0818,-0.24599 -0.66935,-0.0278 -0.8778,0.52492 -0.25898,0.68674 0.32353,0.0846 0.48107,0.28756 0.39577,0.50984 -0.0779,0.20311 -0.24097,0.30793 -0.3623,0.23295 -0.12133,-0.075 -0.32993,0.059 -0.46356,0.29781 -0.16879,0.30162 -0.59782,0.43214 -1.40533,0.42755 -1.04411,-0.006 -1.09506,0.0209 -0.5009,0.26393 l 0.66146,0.27053 -0.68479,0.29967 c -0.37663,0.16482 -1.04901,0.65686 -1.49417,1.09343 -0.44517,0.43656 -1.32359,1.08 -1.95206,1.42986 l -1.14268,0.63611 0.46014,-0.70226 c 0.25307,-0.38624 0.34535,-0.70226 0.20507,-0.70226 -0.14029,0 -0.32866,0.11907 -0.41859,0.26459 -0.095,0.15364 -1.55559,0.26458 -3.48351,0.26458 -2.94435,0 -3.30147,0.0482 -3.15638,0.42633 0.11471,0.29894 0.0493,0.38246 -0.21901,0.27952 -0.38934,-0.14941 -3.17629,1.91486 -2.92479,2.16636 0.0744,0.0744 0.27196,-0.002 0.4391,-0.16866 0.22879,-0.22879 0.38908,-0.19174 0.64863,0.14993 0.18962,0.2496 0.34492,0.57288 0.34512,0.7184 2.1e-4,0.14552 -0.11889,0.06 -0.26466,-0.19013 -0.20093,-0.34473 -0.47096,-0.41466 -1.11643,-0.28912 -0.46828,0.0911 -0.91094,0.24893 -0.9837,0.35079 -0.0994,0.13919 -3.1054,2.65384 -3.65916,3.06106 -0.048,0.0353 0.11695,0.37589 0.36657,0.75686 0.5702,0.87024 0.34224,1.13664 -0.46061,0.5383 -0.39622,-0.29529 -0.44896,-0.40115 -0.1494,-0.29987 0.25466,0.0861 0.46302,0.0511 0.46302,-0.0777 0,-0.12883 -0.14797,-0.28355 -0.32881,-0.34384 -0.34703,-0.11567 -3.32566,2.14679 -3.35704,2.54988 -0.0642,0.82442 -2.38034,1.26732 -3.49838,0.66897 -0.80642,-0.43159 -2.05965,-1.90129 -2.06843,-2.42573 -0.004,-0.25467 -0.18635,-0.46303 -0.40463,-0.46303 -0.30358,0 -0.39688,-0.33447 -0.39688,-1.42281 0,-0.94194 0.13414,-1.53413 0.39688,-1.75219 0.21828,-0.18115 0.3987,-0.52315 0.40092,-0.76 0.004,-0.3746 0.0373,-0.37899 0.25959,-0.0337 0.21026,0.32656 0.43223,0.19983 1.25272,-0.71522 0.54845,-0.61165 1.3783,-1.27114 1.8441,-1.46554 l 0.84692,-0.35344 -0.96234,-0.76788 c -0.61115,-0.48764 -1.00069,-0.65284 -1.06741,-0.45268 -0.0695,0.20846 -0.81427,0.31518 -2.19968,0.31518 H 98.821877 V 108.74346 91.280664 l 26.855203,0.0031 26.85521,0.0031 v 32.805486 32.80549 l -12.89844,-0.009 -12.89843,-0.009 0.66146,-0.52573 c 0.3638,-0.28916 0.92199,-0.74589 1.24042,-1.01496 0.31843,-0.26906 0.76492,-0.56056 0.99219,-0.64778 0.22727,-0.0872 0.41322,-0.27735 0.41322,-0.42253 0,-0.27725 -1.92014,0.74048 -2.07257,1.09853 -0.0485,0.11394 -0.23611,0.20716 -0.4169,0.20716 -0.18079,0 -0.60834,0.29766 -0.95011,0.66146 l -0.62141,0.66146 -8.75128,-0.002 -8.75127,-0.002 z m -4.7506,-29.36072 c 0.29104,-0.29104 0.59125,-0.52916 0.66713,-0.52916 0.26051,0 2.37571,-1.44799 2.81335,-1.92593 0.31363,-0.3425 0.63644,-0.42821 1.13832,-0.30225 0.57474,0.14425 0.84058,0.019 1.48045,-0.69774 0.42895,-0.48045 0.77991,-1.09024 0.77991,-1.35507 0,-0.26483 0.0989,-0.48151 0.21971,-0.48151 0.48276,0 2.95532,-2.54585 2.9558,-3.04342 3.3e-4,-0.3372 0.47911,-0.85465 1.32292,-1.42976 0.72732,-0.49572 1.32241,-1.00174 1.32241,-1.12448 0,-0.12275 0.18233,-0.22318 0.40517,-0.22318 0.22285,0 0.47372,-0.17859 0.55748,-0.39687 0.0838,-0.21828 0.28838,-0.39704 0.45472,-0.39724 0.16633,-2e-4 0.8382,-0.48596 1.49304,-1.07945 0.65485,-0.5935 1.66688,-1.38673 2.24896,-1.76275 0.58208,-0.37603 1.66447,-1.14043 2.40529,-1.69868 0.74083,-0.55825 1.47039,-1.01501 1.62125,-1.01501 0.15086,0 0.42675,-0.1837 0.61309,-0.40822 0.18633,-0.22452 0.52833,-0.36992 0.76,-0.3231 0.35513,0.0718 1.34725,-0.80684 1.34725,-1.19311 0,-0.53903 -4.99237,1.41924 -5.92899,2.32566 -0.1588,0.15368 -0.76497,0.62849 -1.34706,1.05513 -0.58208,0.42665 -1.42746,1.07718 -1.87862,1.44562 -0.45117,0.36844 -1.3409,1.08662 -1.9772,1.59594 -0.6363,0.50932 -1.3685,1.1344 -1.6271,1.38906 -0.25861,0.25466 -0.56273,0.46302 -0.67582,0.46302 -0.11309,0 -0.59669,0.35719 -1.07466,0.79375 -0.47798,0.43657 -0.90626,0.79375 -0.95175,0.79375 -0.0866,0 -1.21013,0.94682 -2.59025,2.18282 -0.44685,0.40018 -1.06596,0.7276 -1.3758,0.7276 -0.7293,0 -1.71538,0.69665 -2.00623,1.41737 -0.2009,0.49783 -0.23086,0.50657 -0.24559,0.0716 -0.0138,-0.40832 -0.086,-0.43794 -0.41073,-0.16846 -0.21668,0.17983 -0.33705,0.41904 -0.2675,0.53158 0.15788,0.25544 -0.6177,0.9257 -0.82791,0.7155 -0.22177,-0.22177 -1.43898,1.15809 -1.26703,1.43633 0.0793,0.12824 -0.0541,0.3092 -0.29624,0.40214 -0.25108,0.0964 -0.54085,0.0103 -0.67418,-0.20031 -0.15687,-0.24775 -0.23516,7.8e-4 -0.23788,0.7552 l -0.004,1.12448 -1.12448,0.0111 -1.12448,0.0111 0.92605,0.50698 c 1.19264,0.65295 1.7283,0.65295 2.38125,0 z m 8.59895,17.55571 c -3.29953,-0.68584 -6.01851,-1.82913 -7.1441,-3.00399 -0.62262,-0.64988 -0.71308,-0.92531 -0.59443,-1.8099 0.18017,-1.34328 1.52908,-3.3868 2.93252,-4.4426 1.31139,-0.98655 4.34846,-2.33936 7.95827,-3.54485 2.41118,-0.80522 2.88732,-1.08736 5.89404,-3.49252 1.79903,-1.4391 4.48818,-3.379 5.97588,-4.3109 1.54542,-0.96805 3.44211,-2.44483 4.4247,-3.44511 0.94588,-0.96293 2.0547,-1.92665 2.46403,-2.14162 0.69321,-0.36405 0.82547,-0.34323 1.92938,0.30371 1.22749,0.71935 2.54251,2.27639 3.18234,3.76801 0.29971,0.69871 0.51853,0.8599 1.16735,0.8599 0.46571,0 0.86198,-0.16541 0.9508,-0.39688 0.18368,-0.47866 0.63276,-0.50247 1.55461,-0.0825 0.55794,0.25421 0.65872,0.43941 0.52628,0.96709 -0.0928,0.3699 -0.0361,0.7316 0.13096,0.83485 0.16213,0.1002 0.36426,0.8854 0.44918,1.74489 0.0849,0.85949 0.3608,1.97942 0.61306,2.48875 0.25227,0.50932 0.66361,1.64041 0.9141,2.51354 0.25048,0.87312 0.57692,1.73525 0.72541,1.91584 0.18465,0.22455 0.16579,0.88056 -0.0597,2.07549 -0.4001,2.12044 -0.74684,2.38798 -4.62595,3.5692 -1.45521,0.44313 -4.13411,1.37522 -5.95312,2.07131 -4.74668,1.81646 -7.28146,2.6082 -9.39271,2.93384 -1.01865,0.15712 -2.51409,0.40044 -3.32322,0.54072 -1.416,0.2455 -9.6128,0.3096 -10.6997,0.0837 z m -6.38177,-3.3879 c -0.0811,-0.21136 0.30958,-1.38774 0.86819,-2.61419 l 1.01567,-2.2299 1.98437,-1.02384 c 1.09141,-0.56311 2.04391,-1.09385 2.11667,-1.17943 0.32531,-0.38262 5.64722,-2.20388 7.25774,-2.48373 0.64837,-0.11267 0.91565,-0.25759 0.70976,-0.38484 -0.23113,-0.14285 0.13176,-0.66316 1.20893,-1.73338 l 1.53919,-1.52927 -2.11666,1.70312 c -1.87185,1.50613 -2.49921,1.83369 -5.42396,2.83196 -6.2089,2.11922 -8.10149,3.30469 -9.41541,5.89757 -0.75342,1.48681 -0.79187,1.99331 -0.20088,2.64635 0.52851,0.584 0.65267,0.61109 0.45639,0.0996 z m 1.78626,-7.37913 c -0.16208,-0.19529 -0.20642,-0.4482 -0.0985,-0.56203 0.10787,-0.11383 -0.10152,-0.12696 -0.46532,-0.0292 -0.54759,0.14719 -0.58236,0.12815 -0.20194,-0.11061 0.33258,-0.20874 0.61132,-0.20715 1.0091,0.006 0.41089,0.2199 0.64708,0.21321 0.93594,-0.0265 0.21249,-0.17636 0.46285,-0.24415 0.55635,-0.15065 0.0935,0.0935 0.0241,0.16999 -0.1543,0.16999 -0.17836,0 -0.25593,0.11062 -0.17237,0.24583 0.0861,0.13931 -0.22238,0.20141 -0.71199,0.14331 -0.80788,-0.0959 -0.8306,-0.0775 -0.35033,0.28334 0.28248,0.21222 0.38636,0.38585 0.23084,0.38585 -0.15552,0 -0.41537,-0.15978 -0.57744,-0.35507 z"
         id="path201" /><path
         style="fill:#b5cfe0"
         d="m 127.66146,156.31017 c 1.13887,-0.71186 5.4352,-4.12517 6.64923,-5.28261 l 0.89139,-0.84984 -1.05833,0.60932 c -0.58208,0.33514 -1.15355,0.77562 -1.26992,0.97886 -0.11637,0.20323 -0.33766,0.36952 -0.49176,0.36952 -0.1541,0 -1.0484,0.56407 -1.98734,1.25349 -0.93894,0.68941 -1.84874,1.25496 -2.02178,1.25677 -0.17304,0.002 -0.58685,0.27551 -0.91958,0.60824 -0.33273,0.33273 -0.70951,0.54035 -0.8373,0.46138 -0.12778,-0.079 -0.28197,0.005 -0.34263,0.1873 -0.0767,0.23011 -0.44452,0.10973 -1.20755,-0.39522 -0.67484,-0.44659 -1.45594,-0.72613 -2.02897,-0.72613 -0.81744,0 -0.93171,-0.0811 -0.93171,-0.66146 0,-0.62538 -0.0794,-0.66145 -1.45521,-0.66145 -0.89508,0 -1.45521,0.11371 -1.45521,0.29544 0,0.16249 0.22303,0.23712 0.49563,0.16583 0.38118,-0.0997 0.4657,-0.0152 0.36601,0.36602 -0.12734,0.48696 -1.12622,0.71925 -1.12622,0.2619 0,-0.12855 -0.23813,-0.296 -0.52917,-0.37211 -0.29104,-0.0761 -0.52916,-0.27973 -0.52916,-0.4525 0,-0.17277 0.23812,-0.3764 0.52916,-0.45251 0.29104,-0.0761 0.52917,-0.22444 0.52917,-0.32963 0,-0.10519 0.30524,-0.33033 0.67831,-0.50032 0.39233,-0.17875 0.60885,-0.19666 0.51355,-0.0425 -0.20802,0.3366 0.14084,0.33766 0.66022,0.002 0.35278,-0.22798 0.35278,-0.25786 0,-0.26894 -0.30349,-0.01 -0.27603,-0.10387 0.11672,-0.40093 0.28247,-0.21365 0.63966,-0.38664 0.79375,-0.38441 0.15409,0.002 0.10156,0.13036 -0.11672,0.28473 -0.35278,0.24949 -0.35278,0.26863 0,0.17233 0.21828,-0.0596 0.41176,-0.24724 0.42995,-0.41701 0.0182,-0.16978 0.048,-0.41286 0.0662,-0.5402 0.0182,-0.12733 0.36212,-0.29732 0.76429,-0.37775 0.82109,-0.16422 1.9974,-1.07184 1.73248,-1.33675 -0.0949,-0.0949 -0.45716,0.014 -0.80507,0.24197 -0.34791,0.22796 -0.77413,0.35684 -0.94716,0.2864 -0.17303,-0.0704 -0.0824,-0.13748 0.20134,-0.14897 0.37884,-0.0153 0.4377,-0.0991 0.22149,-0.31533 -0.16752,-0.16752 -0.44531,-0.20121 -0.64442,-0.0782 -0.48623,0.3005 -1.95723,0.13937 -2.81557,-0.30842 -0.39436,-0.20573 -0.93083,-0.37479 -1.19216,-0.37569 -0.26133,-8.9e-4 -1.03429,-0.29928 -1.71769,-0.66309 -0.6834,-0.3638 -1.36334,-0.66145 -1.51099,-0.66145 -0.39711,0 -2.78182,-2.19757 -2.78002,-2.56186 8.5e-4,-0.1721 -0.26634,-0.39807 -0.59376,-0.50217 -0.57637,-0.18325 -0.57847,-0.19586 -0.0661,-0.39611 0.29104,-0.11376 0.39423,-0.21521 0.2293,-0.22544 -0.16493,-0.0102 -0.36214,-0.25672 -0.43825,-0.54776 -0.15706,-0.60057 -0.0992,-0.62997 0.54327,-0.27614 2.07184,1.14104 7.82552,1.78565 12.26092,1.37364 7.30847,-0.67888 9.97862,-1.32633 16.96924,-4.11462 1.6386,-0.65357 3.93177,-1.4469 5.09594,-1.76294 2.2312,-0.60572 3.8112,-1.29801 4.29373,-1.88133 0.15927,-0.19254 0.43131,-1.06444 0.60454,-1.93757 0.29721,-1.49808 0.27009,-1.72163 -0.48163,-3.96875 -0.43811,-1.30968 -0.95026,-2.73843 -1.13809,-3.175 -0.48437,-1.12574 -0.52607,-3.5651 -0.0579,-3.38544 0.19541,0.075 0.64783,-0.0553 1.00539,-0.28963 0.35756,-0.23428 0.89242,-0.42597 1.18859,-0.42597 0.53597,0 0.53847,0.0788 0.53847,16.93333 v 16.93334 h -6.10746 c -3.35911,0 -6.05858,-0.0893 -5.99882,-0.19844 0.0598,-0.10914 0.27438,-0.58539 0.47693,-1.05833 0.20256,-0.47294 0.49885,-0.8599 0.65843,-0.8599 0.15958,0 0.55781,-0.47625 0.88496,-1.05833 0.86079,-1.53157 0.34431,-1.29878 -1.02728,0.46302 -2.36431,3.03694 -1.35233,2.71259 -8.44749,2.70752 l -6.23614,-0.004 z m -1.32376,-1.99194 c 5.3e-4,-0.2096 -0.38677,-0.33073 -1.05749,-0.33073 -0.69145,0 -1.05833,0.11912 -1.05833,0.34362 0,0.22661 0.36011,0.33923 1.05749,0.33073 0.66226,-0.008 1.05781,-0.1365 1.05833,-0.34362 z m -9.39187,-11.09106 c -1.25708,-0.19309 -3.97275,-1.06972 -5.10799,-1.64887 -1.77954,-0.90786 -2.69721,-1.83387 -2.69721,-2.72173 0,-1.57077 1.78258,-4.16577 3.67669,-5.35234 1.12551,-0.70509 5.4825,-2.4933 8.07621,-3.31467 1.21309,-0.38417 2.28459,-0.96006 3.175,-1.70647 2.77545,-2.3266 5.91045,-4.63454 7.95855,-5.85897 1.16417,-0.69598 3.06917,-2.18076 4.23334,-3.2995 2.89006,-2.7773 3.04715,-2.8461 4.52319,-1.98109 1.22972,0.72067 2.54462,2.27694 3.18485,3.76949 0.29971,0.69871 0.51853,0.8599 1.16735,0.8599 0.46571,0 0.86198,-0.16541 0.9508,-0.39688 0.35685,-0.92993 2.36568,0.0261 2.06243,0.98157 -0.0958,0.30175 -0.0377,0.62229 0.13178,0.72701 0.16669,0.10302 0.35195,0.85855 0.41169,1.67894 0.0597,0.8204 0.23744,1.73232 0.39488,2.0265 0.15744,0.29418 0.69116,1.69813 1.18604,3.11989 0.8615,2.47502 0.88648,2.65227 0.58714,4.16531 -0.28618,1.4465 -0.40225,1.62951 -1.37099,2.16164 -0.58208,0.31974 -2.01083,0.83533 -3.175,1.14576 -1.16416,0.31043 -3.74139,1.21148 -5.72717,2.00234 -1.98578,0.79085 -3.73517,1.43792 -3.88755,1.43792 -0.15237,0 -1.33384,0.35406 -2.62547,0.78679 -1.29164,0.43274 -3.35224,0.92126 -4.57912,1.08561 -2.31993,0.31076 -11.16416,0.54464 -12.54944,0.33185 z M 110.57,139.86038 c -0.0778,-0.20284 0.3,-1.33467 0.83962,-2.51518 1.04264,-2.28093 1.02574,-2.26518 4.37496,-4.07642 1.99496,-1.07886 3.89088,-1.79511 7.11438,-2.68769 1.23693,-0.3425 2.01083,-0.63501 1.71979,-0.65 -0.42265,-0.0218 -0.22295,-0.32518 0.99219,-1.50732 0.83674,-0.81403 1.52135,-1.5349 1.52135,-1.60192 0,-0.13398 -2.11464,1.51089 -3.19712,2.48689 -0.37597,0.33898 -2.10238,1.10203 -3.83646,1.69565 -3.60818,1.23518 -6.67714,2.5908 -7.71698,3.40873 -1.05276,0.82811 -2.414,2.85567 -2.60666,3.88261 -0.12397,0.66081 -0.0448,1.03251 0.30117,1.41485 0.55475,0.61299 0.68689,0.65308 0.49376,0.1498 z m 28.79926,-22.34716 c 0.54382,-0.67892 -2.07896,1.27722 -2.88947,2.15504 -0.52813,0.57198 -0.26162,0.43485 0.90509,-0.46572 0.9095,-0.70203 1.80247,-1.46222 1.98438,-1.68932 z m -36.07942,18.9337 c -1.12336,-0.51795 -2.31788,-2.11804 -2.64762,-3.54653 -0.26247,-1.13708 -0.24106,-1.40856 0.15927,-2.01953 0.25437,-0.38822 0.59763,-0.70792 0.7628,-0.71043 0.16516,-0.003 0.58068,-0.30017 0.92338,-0.66146 0.63147,-0.66573 1.36129,-0.87605 1.36129,-0.3923 0,0.37129 0.68716,0.32978 1.10558,-0.0668 0.1923,-0.18225 0.79611,-0.56651 1.34182,-0.85391 0.5457,-0.28741 0.99218,-0.61454 0.99218,-0.72697 0,-0.11243 0.12415,-0.20442 0.27588,-0.20442 0.33778,0 2.96466,-1.92184 4.06763,-2.9759 0.71616,-0.6844 0.93136,-0.75119 1.93529,-0.60064 1.00997,0.15145 1.12954,0.11331 1.12954,-0.36038 0,-0.29137 0.11906,-0.60335 0.26458,-0.69328 0.14552,-0.0899 0.26458,-0.0374 0.26458,0.11667 0,0.15411 0.15198,0.2802 0.33772,0.2802 0.22869,0 0.31082,-0.32034 0.25439,-0.99219 -0.0783,-0.93237 0.003,-1.05304 1.34208,-2.00165 1.12686,-0.79804 1.40204,-1.13173 1.31382,-1.5932 -0.0777,-0.40654 0.17923,-0.88317 0.84648,-1.57022 0.52694,-0.54257 1.02592,-0.98649 1.10884,-0.98649 0.0829,0 0.54363,-0.32742 1.0238,-0.7276 0.48016,-0.40019 1.4445,-1.14433 2.14298,-1.65365 0.69847,-0.50932 1.45367,-1.10463 1.67822,-1.32292 0.74013,-0.71948 3.11394,-2.38125 3.40158,-2.38125 0.15517,0 0.37734,-0.15535 0.49372,-0.34524 0.11637,-0.18988 0.64715,-0.60956 1.17952,-0.93263 0.71652,-0.43482 0.99995,-0.49978 1.09118,-0.25007 0.0858,0.23479 0.30468,0.14849 0.7202,-0.28395 0.46299,-0.48185 0.64545,-0.5428 0.81308,-0.27157 0.11887,0.19234 0.13311,0.41238 0.0317,0.48898 -0.10145,0.0766 -0.47398,0.69447 -0.82783,1.37304 -0.35385,0.67856 -0.94916,1.62291 -1.32291,2.09854 -0.80546,1.02501 -4.17052,4.63535 -5.8002,6.22298 -0.72236,0.70372 -1.0771,1.24319 -0.95131,1.44672 0.13502,0.21846 0.0907,0.25664 -0.13554,0.11681 -0.2108,-0.13028 -0.596,0.0572 -1.03307,0.50279 -0.38332,0.3908 -1.88569,1.8351 -3.33861,3.20957 -1.90542,1.80255 -2.49534,2.5012 -2.11666,2.50679 0.43857,0.006 0.37256,0.14042 -0.40104,0.81368 -0.50933,0.44325 -1.28455,1.12437 -1.72273,1.51359 -0.43817,0.38923 -1.50973,1.32268 -2.38125,2.07434 -8.46372,7.29975 -8.12693,7.07855 -9.68431,6.36047 z m -4.467963,-35.64067 v -9.525 h 9.449403 c 7.96665,0 9.38861,0.05629 9.06198,0.358701 -0.21308,0.197286 -1.16133,1.004863 -2.10722,1.794617 -0.94588,0.789753 -2.06889,1.729666 -2.49557,2.088694 -2.72606,2.293843 -7.34363,6.878858 -7.80174,7.746728 -0.20649,0.39119 -0.51107,0.71126 -0.67685,0.71126 -0.16578,0 -0.65167,0.48376 -1.07977,1.07503 -0.4281,0.59127 -1.10578,1.41555 -1.50596,1.83173 -0.40019,0.41619 -0.72761,0.88492 -0.72761,1.04164 0,0.15671 -0.15036,0.28493 -0.33413,0.28493 -0.31743,0 -0.757031,0.63745 -1.140405,1.65365 -0.518667,1.37482 -0.642128,-0.36751 -0.642128,-9.06198 z m 10.583333,5.53653 c 0,-1.03533 -0.003,-1.03861 -1.05833,-1.03861 h -1.05834 v -1.09073 c 0,-0.90606 -0.0628,-1.03857 -0.37123,-0.78264 -0.20418,0.16945 -0.75768,0.41893 -1.23,0.55439 l -0.85878,0.24629 0.6347,-0.71272 c 1.31516,-1.47685 8.14663,-8.179179 9.37197,-9.194802 0.70227,-0.582083 1.74671,-1.504817 2.32096,-2.05052 l 1.04411,-0.992188 9.16236,0.0029 9.16237,0.0029 -2.77812,1.409073 c -4.26551,2.163476 -7.36983,3.829169 -9.26042,4.968876 -0.94589,0.570211 -2.10673,1.214201 -2.57966,1.431089 -0.47292,0.216888 -1.00758,0.630875 -1.18812,0.919972 -0.18054,0.28909 -0.49226,0.52563 -0.69271,0.52563 -0.20044,0 -0.77235,0.35814 -1.27089,0.79587 -0.57354,0.50357 -1.12082,0.76067 -1.49014,0.70003 -0.32103,-0.0527 -0.44146,-0.0462 -0.26762,0.0145 0.41522,0.14489 0.13001,0.87089 -0.34213,0.87089 -0.20148,0 -0.51504,0.23812 -0.6968,0.52916 -0.18176,0.29105 -0.49634,0.52917 -0.69906,0.52917 -0.20273,0 -0.6281,0.30201 -0.94527,0.67112 -0.31718,0.36912 -0.92634,0.76464 -1.3537,0.87894 -0.42737,0.11429 -0.77703,0.35719 -0.77703,0.53977 0,0.18258 -0.62507,0.5521 -1.38906,0.82114 l -1.38906,0.48918 z m 11.70781,-4.68562 c 0.25466,-0.0528 0.46302,-0.22018 0.46302,-0.372 0,-0.15183 -0.23812,-0.21377 -0.52916,-0.13766 -0.75845,0.19834 -0.65345,-0.19968 0.14914,-0.56537 0.39233,-0.17876 0.60885,-0.19666 0.51355,-0.0425 -0.0906,0.14662 -0.0387,0.26659 0.11544,0.26659 0.15411,0 0.2802,-0.21105 0.2802,-0.469 0,-0.56084 1.60017,-1.485097 2.60192,-1.502864 0.5253,-0.0093 0.72695,-0.164482 0.78992,-0.607823 0.0667,-0.469939 0.26177,-0.599229 0.92604,-0.613909 0.66914,-0.01479 0.73601,-0.05987 0.3265,-0.220132 -0.47861,-0.187295 -0.46993,-0.213323 0.12282,-0.368331 0.3508,-0.09174 0.70162,-0.06826 0.77958,0.05218 0.078,0.120436 0.37989,0.289961 0.67093,0.376723 0.64491,0.192253 2.24896,-1.155824 2.24896,-1.890072 0,-0.268503 0.32742,-0.657134 0.7276,-0.863625 0.40018,-0.206491 0.95841,-0.583798 1.24051,-0.838459 0.29783,-0.268853 0.93233,-0.463021 1.51306,-0.463021 0.78031,0 0.96666,-0.08723 0.84784,-0.396875 -0.0838,-0.218282 -0.0283,-0.396875 0.12337,-0.396875 0.15162,0 0.61084,-0.137673 1.0205,-0.305941 0.40965,-0.168267 0.954,-0.279707 1.20965,-0.247646 0.25565,0.03206 0.53628,-0.127921 0.62362,-0.355518 0.13869,-0.361425 1.07633,-0.413812 7.40653,-0.413812 h 7.24773 v 4.630208 4.630212 h -1.45521 c -1.37583,0 -1.45521,0.0361 -1.45521,0.66146 0,0.59531 -0.10583,0.66145 -1.05833,0.66145 -0.9525,0 -1.05833,-0.0661 -1.05833,-0.66145 v -0.66146 h -3.175 -3.175 v 0.66146 c 0,0.59531 -0.10583,0.66145 -1.05833,0.66145 -0.9525,0 -1.05834,-0.0661 -1.05834,-0.66145 0,-0.59532 -0.10583,-0.66146 -1.05833,-0.66146 -0.76435,0 -1.05833,-0.11025 -1.05833,-0.39688 0,-0.28663 -0.29399,-0.396873 -1.05834,-0.396873 -0.76435,0 -1.05833,0.110243 -1.05833,0.396873 0,0.28663 -0.29398,0.39688 -1.05833,0.39688 -0.9525,0 -1.05834,0.0661 -1.05834,0.66146 0,0.65043 -0.0353,0.66145 -2.11666,0.66145 h -2.11667 v -1.05833 -1.058333 h -1.05833 c -0.76436,0 -1.05834,-0.110243 -1.05834,-0.396875 0,-0.218281 -0.11906,-0.396875 -0.26458,-0.396875 -0.14552,0 -0.26458,0.178594 -0.26458,0.396875 0,0.218281 0.11906,0.396875 0.26458,0.396875 0.14552,0 0.26458,0.178594 0.26458,0.396873 0,0.28663 -0.29398,0.39688 -1.05833,0.39688 -0.95251,0 -1.05833,0.0661 -1.05833,0.66148 0,0.64577 -0.0424,0.66016 -1.78594,0.60573 -0.98227,-0.0307 -1.57758,-0.0989 -1.32292,-0.15172 z"
         id="path200" /><path
         style="fill:#a4b9c9"
         d="m 134.46213,151.21769 c 0.26145,-0.35923 0.61361,-0.65688 0.78258,-0.66146 0.16896,-0.005 0.61724,-0.39526 0.99618,-0.86821 0.37893,-0.47294 0.81092,-1.00872 0.95999,-1.19062 0.4158,-0.50739 0.0643,-0.39935 -1.29022,0.39658 -1.21365,0.71315 -1.33175,0.7286 -6.06639,0.79366 -2.65575,0.0365 -4.82864,-0.0339 -4.82864,-0.15647 0,-0.12256 0.40943,-0.44334 0.90985,-0.71283 0.50043,-0.2695 0.86794,-0.55781 0.81671,-0.64071 -0.15199,-0.24592 -2.52031,0.0208 -2.52031,0.28381 0,0.13283 -0.39908,0.0747 -0.88685,-0.12905 -0.48776,-0.2038 -1.35097,-0.4503 -1.91823,-0.54777 -1.88539,-0.32396 -3.91183,-1.15263 -4.92221,-2.01283 -0.54911,-0.4675 -1.208,-1.01061 -1.4642,-1.20691 -0.40869,-0.31315 -0.41714,-0.39278 -0.0689,-0.64947 0.31919,-0.23529 0.27289,-0.26507 -0.23655,-0.15212 -0.43985,0.0975 -0.54906,0.0561 -0.35736,-0.13562 0.36827,-0.36827 1.45323,-0.0173 1.20842,0.39086 -0.13298,0.22174 -0.0712,0.21806 0.21413,-0.0128 0.2992,-0.24205 0.79928,-0.25924 1.96902,-0.0677 2.43672,0.39903 5.95629,0.30666 10.40146,-0.27298 3.24084,-0.42259 4.85946,-0.79416 7.9375,-1.82211 2.12658,-0.7102 4.40228,-1.52477 5.05713,-1.81016 1.43733,-0.62639 3.71296,-1.41161 6.23319,-2.15079 2.80962,-0.82406 3.5826,-1.44887 4.06002,-3.28181 0.30945,-1.18803 0.33303,-1.74182 0.10698,-2.51164 -1.57206,-5.3535 -1.57202,-5.35318 -0.59499,-5.35318 0.28245,0 0.51355,-0.10792 0.51355,-0.23982 0,-0.13189 0.23812,-0.17754 0.52916,-0.10143 0.51773,0.13539 0.52917,0.3609 0.52917,10.42627 0,8.69944 -0.0579,10.2879 -0.37482,10.2879 -0.20616,0 -0.41452,0.0893 -0.46303,0.19843 -0.0814,0.18319 -0.65258,0.4793 -3.1309,1.62312 -0.50932,0.23507 -1.00907,0.54335 -1.11054,0.68505 -0.10774,0.15045 -0.46536,-0.006 -0.8595,-0.37647 -0.60607,-0.56937 -0.63451,-0.67888 -0.27852,-1.07224 0.38065,-0.42061 0.5398,-1.05789 0.26419,-1.05789 -0.16637,0 -1.19063,1.01552 -1.19063,1.18046 0,0.0672 -0.53653,0.67419 -1.1923,1.34893 -0.65576,0.67473 -1.11928,1.03649 -1.03002,0.8039 0.18061,-0.47067 -0.54125,-0.60995 -0.82039,-0.15829 -0.0902,0.14596 -1.27636,0.26458 -2.64583,0.26458 -1.36947,0 -2.55562,0.11861 -2.64583,0.26458 -0.0899,0.14552 -0.63648,0.26459 -1.21455,0.26459 -0.69016,0 -1.10331,0.13626 -1.20331,0.39687 -0.0838,0.21828 -0.26418,0.39688 -0.40093,0.39688 -0.13674,0 -0.0347,-0.29392 0.22675,-0.65315 z m -17.71119,-8.07626 c -2.66925,-0.47187 -5.3235,-1.56424 -6.78123,-2.79084 -1.38581,-1.16608 -1.02453,-2.89189 1.11396,-5.32134 1.27701,-1.45076 4.18281,-2.93095 8.70673,-4.43515 2.70727,-0.90017 3.02163,-1.08596 6.51288,-3.84936 2.01758,-1.59695 4.60705,-3.45542 5.75439,-4.12993 1.14735,-0.67452 3.03858,-2.14841 4.20275,-3.27533 2.87693,-2.78487 3.04734,-2.86085 4.50307,-2.00774 1.26074,0.73885 2.12313,1.74551 3.01271,3.5167 0.47658,0.94891 0.68915,1.12448 1.36144,1.12448 0.46408,0 0.86026,-0.16569 0.94897,-0.39688 0.355,-0.92511 2.2722,-0.0214 2.01786,0.95114 -0.0803,0.30703 -4.2e-4,0.64819 0.17748,0.75814 0.18129,0.11205 0.36024,0.91666 0.40715,1.83071 0.046,0.89694 0.21689,1.79128 0.37966,1.98741 0.16277,0.19613 0.66572,1.46897 1.11765,2.82854 0.67343,2.02588 0.79648,2.75005 0.68194,4.0132 -0.0769,0.84769 -0.27438,1.70347 -0.43893,1.90174 -0.35578,0.42868 -2.4386,1.26738 -4.644,1.87 -0.87313,0.23858 -3.07578,1.01113 -4.89479,1.71678 -5.07672,1.9694 -9.02597,3.15489 -11.57409,3.4743 -2.97637,0.3731 -10.93882,0.52101 -12.5656,0.23343 z m -6.11997,-3.50776 c 0.0193,-0.32732 0.433,-1.46312 0.91928,-2.52401 0.88163,-1.92337 0.89098,-1.93269 3.27216,-3.26146 2.81975,-1.57351 5.81419,-2.69292 9.62223,-3.59707 0.46596,-0.11063 0.53158,-0.20412 0.26459,-0.37695 -0.26772,-0.1733 -0.003,-0.56387 1.07602,-1.58774 0.78709,-0.74684 1.35494,-1.15949 1.26189,-0.91699 -0.11383,0.29662 0.11053,0.69541 0.68558,1.2186 0.99752,0.90756 1.13727,0.94375 1.36387,0.35325 0.18906,-0.49269 -1.02915,-1.9413 -1.63254,-1.9413 -0.20872,0 -0.28209,-0.13089 -0.17264,-0.30798 0.10468,-0.16939 -0.79438,0.50008 -1.99792,1.48771 -1.94563,1.59659 -2.52973,1.91257 -5.26796,2.84983 -3.54118,1.21211 -6.61045,2.57074 -7.6438,3.38356 -1.05276,0.82811 -2.414,2.85567 -2.60666,3.88261 -0.12397,0.66081 -0.0448,1.03251 0.30117,1.41485 0.56973,0.62954 0.51255,0.63747 0.55473,-0.0769 z m 21.54807,-12.86151 c -0.44368,-0.82903 -1.27135,-1.42439 -1.48949,-1.07143 -0.13577,0.21968 -0.0889,0.25436 0.14691,0.10865 0.23089,-0.14271 0.28252,-0.1108 0.15489,0.0957 -0.1053,0.17038 -0.30229,0.24128 -0.43776,0.15756 -0.13546,-0.0837 -0.2463,-0.0303 -0.2463,0.11867 0,0.14899 0.2525,0.40602 0.5611,0.57118 0.34204,0.18305 0.4953,0.19382 0.39256,0.0276 -0.0927,-0.14999 -0.0446,-0.34931 0.10692,-0.44294 0.1515,-0.0936 0.2584,-0.0721 0.23756,0.0479 -0.12002,0.69094 0.0604,1.11388 0.41681,0.9771 0.27408,-0.10517 0.32125,-0.28267 0.1568,-0.58996 z m 4.02553,-1.55306 c 0.13283,-0.69491 0.12252,-0.70251 -0.26934,-0.19844 -0.38367,0.49353 -0.39722,0.49469 -0.2321,0.02 0.18935,-0.54433 -0.79146,-1.84183 -1.20096,-1.58874 -0.12437,0.0769 -0.22613,0.0166 -0.22613,-0.1339 0,-0.18114 -0.21932,-0.19026 -0.64879,-0.027 -0.51983,0.19764 -0.61973,0.17093 -0.50259,-0.13434 0.12168,-0.31709 0.009,-0.33304 -0.67412,-0.0951 -0.45118,0.15728 -0.82033,0.34659 -0.82033,0.42069 0,0.0741 0.19368,0.0604 0.43041,-0.0305 0.23672,-0.0908 0.59391,-0.0295 0.79375,0.13638 0.19984,0.16585 0.36334,0.21424 0.36334,0.10754 0,-0.1067 0.20836,0.0543 0.46302,0.3578 0.35575,0.42396 1.41755,1.26666 2.35041,1.86542 0.0194,0.0125 0.0975,-0.3025 0.17343,-0.69991 z m 1.73773,-2.00988 c 0.22414,-0.27008 0.10402,-0.48977 -0.52008,-0.95119 -0.93574,-0.69183 -2.28359,-1.13971 -2.47888,-0.82373 -0.13947,0.22567 0.89105,1.00214 1.49657,1.12761 0.19232,0.0399 0.50525,0.28083 0.69541,0.53549 0.41465,0.55532 0.4364,0.55834 0.80698,0.11182 z m 0.56708,-4.94558 1.19062,-1.09282 -1.23584,0.84337 c -0.67971,0.46385 -1.57268,1.20744 -1.98437,1.65241 l -0.74854,0.80904 0.79375,-0.5596 c 0.43656,-0.30777 1.32953,-1.05136 1.98438,-1.6524 z m -36.05973,17.18428 c -0.75526,-0.73009 -0.90961,-0.97594 -0.4791,-0.76313 l 0.63513,0.31395 -0.61684,-0.86627 c -0.68051,-0.9557 -1.09106,-3.69289 -0.55389,-3.69289 0.16354,0 0.29917,0.38696 0.30139,0.8599 0.005,0.9758 0.47756,1.87014 0.6996,1.32292 0.0738,-0.1819 0.30769,-0.33073 0.51974,-0.33073 0.42165,0 1.57424,-0.77789 2.85277,-1.92534 0.45025,-0.40409 1.44128,-1.11846 2.20229,-1.5875 0.76101,-0.46903 1.38608,-1.00162 1.38906,-1.18352 0.003,-0.1819 0.30307,-0.33073 0.66687,-0.33073 0.3638,0 0.87726,-0.2158 1.14101,-0.47955 0.26376,-0.26376 0.63992,-0.42611 0.83591,-0.36078 0.23059,0.0769 0.30209,-0.0226 0.20258,-0.28195 -0.0846,-0.2204 -0.0202,-0.5343 0.14305,-0.69756 0.44409,-0.44409 0.83578,-0.35807 0.45557,0.10005 -0.48057,0.57905 0.0816,0.48536 0.79375,-0.13229 0.72627,-0.62989 0.89439,-0.6441 1.81126,-0.15304 0.38626,0.20686 0.90864,0.44048 1.16084,0.51915 0.67519,0.2106 0.36777,0.64892 -1.69168,2.41202 -1.01988,0.87312 -2.24034,1.94468 -2.71214,2.38125 -1.43852,1.3311 -3.84132,3.37211 -5.52884,4.69635 -2.0435,1.60358 -2.72534,1.63256 -4.22833,0.17969 z m 14.99312,-12.00838 c -0.0862,-0.22456 -0.32253,-0.40829 -0.52524,-0.40829 -0.20272,0 -0.3681,-0.14883 -0.36751,-0.33073 10e-4,-0.39258 2.23314,-2.57969 2.6325,-2.57969 0.15227,0 0.27686,-0.17859 0.27686,-0.39687 0,-0.21828 -0.11907,-0.39688 -0.26459,-0.39688 -0.14552,0 -0.26458,-0.35718 -0.26458,-0.79375 0,-0.52916 0.13229,-0.79375 0.39687,-0.79375 0.22049,0 0.39688,-0.23518 0.39688,-0.52916 0,-0.30049 0.17639,-0.52917 0.40817,-0.52917 0.4995,0 3.05212,-1.83642 4.47269,-3.21777 0.57442,-0.55856 1.21213,-1.01556 1.41713,-1.01556 0.205,0 0.60686,-0.29766 0.89303,-0.66146 0.28617,-0.3638 0.74979,-0.66146 1.03027,-0.66146 0.65092,0 0.64545,0.28395 -0.0192,0.99738 -0.29104,0.3124 -0.52916,0.70592 -0.52916,0.8745 0,0.17624 -0.2249,0.24769 -0.52917,0.16812 -0.34392,-0.0899 -0.52917,-0.008 -0.52917,0.23373 0,0.5537 0.56872,0.43701 1.38906,-0.28502 0.40019,-0.35223 0.72879,-0.67589 0.73024,-0.71925 0.006,-0.18732 4.2307,-4.54019 4.2307,-4.3593 0,0.55146 -1.30768,2.63893 -2.74993,4.38976 -2.09382,2.54181 -7.47608,8.13852 -8.23178,8.55977 -1.55132,0.86474 -2.78013,1.82683 -2.63442,2.06259 0.0889,0.14392 0.0636,0.23342 -0.0564,0.1989 -0.11996,-0.0345 -0.48776,0.0867 -0.81734,0.26944 -0.5026,0.27862 -0.62451,0.26635 -0.75591,-0.0761 z M 98.83461,96.078254 98.807679,91.28125 h 3.049811 c 1.67739,0 3.0498,0.0829 3.0498,0.184216 0,0.251371 -1.40659,2.30772 -1.65364,2.41752 -0.10914,0.04851 -0.19844,0.256867 -0.19844,0.463021 0,0.206155 -0.11104,0.374826 -0.24675,0.374826 -0.13572,0 -0.31436,0.20836 -0.39698,0.463021 -0.13961,0.430284 -1.82446,3.173325 -3.027715,4.929296 l -0.522223,0.76211 z m 10.04143,1.81758 c 0,-0.145521 0.11907,-0.264584 0.26459,-0.264584 0.14552,0 0.26458,-0.357187 0.26458,-0.79375 0,-0.55579 0.12869,-0.79375 0.42927,-0.79375 0.3472,0 0.36771,0.07418 0.10728,0.387979 -0.1771,0.213389 -0.27141,0.539748 -0.20957,0.725242 0.0618,0.185495 -0.0375,0.487154 -0.22067,0.670354 -0.40132,0.40132 -0.63548,0.426563 -0.63548,0.06851 z m 1.46637,-1.040286 c -0.0974,-0.157503 0.009,-0.357797 0.23665,-0.445099 0.73334,-0.281406 0.47263,-0.895866 -0.3801,-0.895866 -0.74965,0 -0.79375,-0.0588 -0.79375,-1.058333 V 93.397917 H 107.95 c -1.38431,0 -1.93349,-0.362239 -1.05833,-0.69807 0.21828,-0.08376 0.39687,-0.258619 0.39687,-0.388571 0,-0.450635 -0.51504,-0.232251 -1.32917,0.563586 -0.45003,0.439925 -0.91928,0.737417 -1.04278,0.661094 -0.12349,-0.07632 -0.16416,0.0921 -0.0904,0.374279 0.0738,0.282177 -0.0416,0.763957 -0.25637,1.070623 -0.33525,0.478632 -0.4135,0.49775 -0.55268,0.135033 -0.10454,-0.272405 -0.0566,-0.357299 0.13495,-0.238924 0.20414,0.126164 0.25892,-0.0765 0.17508,-0.647717 -0.0671,-0.457233 -0.021,-0.831333 0.10242,-0.831333 0.12344,0 0.36006,-0.297657 0.52581,-0.661459 0.16576,-0.363802 0.46087,-0.661458 0.65579,-0.661458 0.19492,0 0.35441,-0.181035 0.35441,-0.4023 0,-0.348221 0.76542,-0.39938 5.69408,-0.380583 3.50436,0.01336 5.63463,0.117923 5.53948,0.271889 -0.085,0.137596 -0.53402,0.444501 -0.99774,0.682011 -0.46371,0.23751 -1.16052,0.742679 -1.54845,1.122598 -0.38794,0.379918 -1.2691,1.16701 -1.95815,1.749093 -0.68905,0.582084 -1.46041,1.275656 -1.71414,1.541272 -0.30286,0.317056 -0.52211,0.384574 -0.6383,0.196568 z"
         id="path199" /><path
         style="fill:#9aa5ac"
         d="m 129.43835,147.47412 c -0.17861,-0.17861 0.36928,-1.15953 0.64765,-1.15953 0.0993,0 0.55194,-0.37136 1.00581,-0.82523 0.78824,-0.78824 0.79651,-0.81802 0.18455,-0.66443 -0.42309,0.10619 -0.8581,-0.0102 -1.28092,-0.34282 -0.54609,-0.42955 -0.88225,-0.47508 -2.2858,-0.30959 -0.90506,0.10671 -1.5451,0.0936 -1.42233,-0.0292 0.12278,-0.12277 1.28586,-0.34389 2.58463,-0.49136 1.98255,-0.22512 3.1002,-0.4413 5.80098,-1.12202 0.14552,-0.0367 0.40321,-0.15336 0.57265,-0.25929 0.16943,-0.10593 1.12193,-0.44315 2.11666,-0.74938 0.99473,-0.30622 2.88017,-1.0116 4.18985,-1.56751 1.30969,-0.5559 3.50082,-1.3236 4.86917,-1.706 3.43303,-0.95938 4.41604,-1.56454 4.91637,-3.02665 0.46403,-1.35603 0.52052,-3.00534 0.12804,-3.73868 -0.2517,-0.47031 -0.2209,-0.4862 0.39688,-0.20472 l 0.66975,0.30516 v 5.24919 c 0,4.48957 -0.0574,5.2492 -0.39687,5.2492 -0.21828,0 -0.39763,0.0893 -0.39855,0.19844 -0.002,0.27358 -1.53801,1.12448 -2.02947,1.12448 -0.22041,0 -0.71678,0.16208 -1.10304,0.36019 -0.84841,0.43514 -1.88126,0.80589 -4.67103,1.6767 -2.48185,0.77469 -4.10104,1.02034 -4.10104,0.62217 0,-0.37941 -0.72454,-0.35313 -0.85256,0.0309 -0.0566,0.16981 -0.54243,0.31864 -1.07961,0.33073 -0.55153,0.0124 -0.97703,0.15563 -0.97747,0.32897 -5e-4,0.19723 -0.82851,0.36427 -2.31588,0.46721 -1.27331,0.0881 -2.92149,0.21672 -3.66264,0.28577 -0.74114,0.069 -1.41874,0.0543 -1.50578,-0.0327 z m 3.88115,-3.56233 c 0.18132,-0.19704 0.1869,-0.26063 0.0145,-0.16493 -0.15433,0.0857 -0.89251,0.18366 -1.64041,0.21779 -0.74789,0.0341 -1.31175,0.13981 -1.25301,0.23485 0.18021,0.29158 2.5652,0.0532 2.87894,-0.28771 z m -16.90283,-0.89545 c -3.77614,-0.69336 -7.28187,-2.65408 -7.27023,-4.06618 0.009,-1.03652 0.86092,-2.74072 2.00321,-4.00511 1.25405,-1.38808 3.52565,-2.54203 7.99876,-4.06327 3.65707,-1.24372 3.40754,-1.0912 8.56017,-5.23229 1.01476,-0.81555 2.81826,-2.05903 4.0078,-2.76329 1.20058,-0.71081 3.16333,-2.23866 4.41175,-3.43422 2.8107,-2.69171 3.19519,-2.91337 4.16479,-2.40114 1.31388,0.6941 2.42212,1.85201 3.31815,3.46687 0.74726,1.34674 0.97893,1.57455 1.5276,1.50214 0.35571,-0.047 0.77893,-0.2553 0.9405,-0.46302 0.62581,-0.80458 2.28196,-0.0111 2.0253,0.97035 -0.0803,0.30703 -4.2e-4,0.64819 0.17748,0.75814 0.18129,0.11205 0.36024,0.91666 0.40715,1.83071 0.046,0.89694 0.20371,1.77706 0.35037,1.95583 0.46579,0.56772 1.90538,5.15308 1.90385,6.06411 -8.2e-4,0.48152 -0.12836,1.33242 -0.28343,1.89089 -0.31117,1.1206 -1.18289,1.64712 -3.96499,2.39487 -2.00585,0.53911 -4.45121,1.37481 -5.97208,2.04094 -2.23955,0.98092 -8.22969,2.85909 -10.01791,3.14104 -0.94629,0.14921 -2.4784,0.39035 -3.40469,0.53587 -2.30664,0.36238 -8.62867,0.29079 -10.88355,-0.12324 z m -5.6735,-2.90134 c -0.24987,-0.30107 -0.1073,-0.85005 0.69521,-2.67696 1.03761,-2.36211 1.81465,-3.14986 2.52528,-2.56009 0.18744,0.15556 1.09708,0.35275 2.02142,0.43821 0.92434,0.0855 1.78738,0.22136 1.91787,0.302 0.13048,0.0807 0.30868,-0.0395 0.39598,-0.26701 0.0873,-0.22751 0.41388,-0.41547 0.72573,-0.4177 0.46307,-0.003 0.49426,-0.0511 0.17013,-0.26053 -0.34202,-0.22103 -0.33504,-0.25704 0.0505,-0.26053 0.56804,-0.005 0.90982,0.52321 0.50165,0.77548 -0.17016,0.10516 0.14201,0.20791 0.6937,0.22834 0.5517,0.0204 1.18167,-0.0756 1.39996,-0.21329 0.27402,-0.17291 0.0693,-0.21295 -0.66146,-0.12936 -0.757,0.0866 -0.87076,0.0624 -0.39954,-0.0849 0.41198,-0.12883 0.54483,-0.27644 0.3546,-0.39401 -0.1673,-0.10339 -0.51305,-0.10784 -0.76834,-0.01 -0.35089,0.13465 -0.41093,0.0864 -0.24604,-0.19758 0.11996,-0.20663 0.12068,-0.28743 0.002,-0.17955 -0.11908,0.10788 -0.37478,0.0648 -0.56821,-0.0957 -0.19344,-0.16054 -0.538,-0.22041 -0.76569,-0.13303 -0.2277,0.0874 -0.34484,0.047 -0.26032,-0.0898 0.0845,-0.13676 -0.32984,-0.39351 -0.92079,-0.57056 -0.65801,-0.19715 -0.97963,-0.41675 -0.82979,-0.56659 0.14983,-0.14984 0.44008,-0.14009 0.74885,0.0252 0.78525,0.42025 4.53587,1.31514 6.35192,1.51555 1.30604,0.14413 1.72377,0.0971 2.05173,-0.23084 0.37269,-0.37268 0.34257,-0.42009 -0.317,-0.49906 -0.67659,-0.081 -0.6435,-0.1203 0.46181,-0.54844 0.65484,-0.25365 0.8642,-0.39892 0.46525,-0.32283 -0.39896,0.0761 -1.14659,-0.0376 -1.6614,-0.25274 -0.51482,-0.2151 -1.43855,-0.41519 -2.05275,-0.44464 -0.6142,-0.0294 -1.25984,-0.16296 -1.43476,-0.2967 -0.17492,-0.13374 -0.59163,-0.17261 -0.92604,-0.0864 -0.39491,0.10183 -0.32981,0.0247 0.18574,-0.22004 0.43656,-0.20726 1.59742,-0.57885 2.57969,-0.82576 0.98226,-0.24691 1.78594,-0.5618 1.78594,-0.69975 0,-0.13795 -0.11907,-0.17723 -0.26459,-0.0873 -0.14552,0.0899 -0.26458,0.0498 -0.26458,-0.0893 0,-0.28587 1.76112,-1.89511 2.07397,-1.89511 0.11191,0 0.61004,0.41947 1.10696,0.93216 0.49691,0.51269 1.04125,0.87929 1.20964,0.81467 0.16839,-0.0646 0.29119,0.0815 0.2729,0.32462 -0.0183,0.24315 0.11557,0.41233 0.29747,0.37595 0.1819,-0.0364 0.33255,0.0827 0.33478,0.26458 0.003,0.22049 0.0895,0.19844 0.26053,-0.0661 0.14106,-0.21828 0.25648,-0.51593 0.25648,-0.66145 0,-0.14552 -0.11542,-0.086 -0.25648,0.13229 -0.22798,0.35278 -0.26041,0.35278 -0.29187,0 -0.0195,-0.21828 -0.0151,-0.50462 0.01,-0.63631 0.0659,-0.3507 -1.87991,-2.27411 -2.3006,-2.27411 -0.21712,0 -0.27914,-0.12888 -0.15707,-0.3264 0.22019,-0.35627 -1.94084,1.31329 -3.21321,2.48245 -0.49625,0.45601 -1.97139,1.13538 -3.93586,1.81265 -7.15414,2.46647 -9.19181,3.86667 -10.3465,7.10965 -0.32042,0.89992 -0.29914,1.00587 0.33901,1.6878 0.70666,0.75513 1.14835,1.01326 0.59694,0.34885 z m 16.38912,-8.61812 c -0.21828,-0.14163 -0.90857,-0.19828 -1.53398,-0.12588 -0.92692,0.10729 -1.07752,0.0678 -0.81472,-0.21349 0.31271,-0.33476 1.53745,-0.39433 2.01678,-0.0981 0.13001,0.0804 0.82342,0.21882 1.54092,0.30769 1.27139,0.15749 1.28607,0.15153 0.5777,-0.23458 -0.39976,-0.21791 -0.86464,-0.48136 -1.03307,-0.58545 -0.19,-0.11742 -0.23457,-0.0733 -0.11743,0.11621 0.11299,0.18282 0.0169,0.30546 -0.23932,0.30546 -0.23546,0 -0.35441,-0.11925 -0.26433,-0.26499 0.10254,-0.16591 -0.19171,-0.21948 -0.78697,-0.14327 -0.61802,0.0791 -0.89116,0.0253 -0.7805,-0.15374 0.0936,-0.1515 -0.18495,-0.0918 -0.61908,0.13272 -0.43413,0.2245 -0.86107,0.33643 -0.94877,0.24873 -0.0877,-0.0877 -0.3221,-0.0244 -0.52091,0.14055 -0.1988,0.165 -0.45889,0.21173 -0.57798,0.10385 -0.11908,-0.10788 -0.13066,-0.047 -0.0257,0.1353 0.13836,0.2404 0.33009,0.25689 0.69792,0.06 0.40957,-0.2192 0.4774,-0.19388 0.35251,0.13157 -0.12932,0.33702 0.14239,0.40234 1.6596,0.39895 1.27293,-0.003 1.69583,-0.0809 1.41737,-0.26157 z m 4.45869,-0.68467 c 0.15648,0.0967 0.52428,-0.0639 0.81733,-0.35697 0.29469,-0.29469 0.71287,-0.46373 0.93569,-0.37822 0.22158,0.085 0.40288,0.0162 0.40288,-0.15299 0,-0.18446 -0.29126,-0.26582 -0.72761,-0.20323 -1.24938,0.17919 -2.18301,0.68281 -2.17876,1.17526 0.003,0.36994 0.0531,0.39221 0.235,0.10494 0.12703,-0.20054 0.35898,-0.2855 0.51547,-0.18879 z m 1.52297,-3.15967 c 0.0315,-0.21476 -0.0513,-0.32335 -0.18405,-0.24131 -0.13275,0.082 -0.24136,-0.0165 -0.24136,-0.21904 0,-0.43402 -1.91794,-2.03639 -2.59307,-2.1664 -0.25711,-0.0495 -0.7459,0.059 -1.0862,0.24109 l -0.61871,0.33113 0.75993,0.15629 c 0.41796,0.086 1.21538,0.60229 1.77204,1.1474 0.81801,0.80103 1.05903,0.91818 1.25677,0.61085 0.19631,-0.30509 0.27746,-0.2605 0.41056,0.22555 0.17252,0.63004 0.42511,0.5888 0.52409,-0.0856 z m 3.04505,-2.71931 c -0.33102,-0.27373 -0.338,-0.31526 -0.0309,-0.18363 0.21828,0.0936 -0.0739,-0.25862 -0.64922,-0.78261 -1.29055,-1.17536 -1.9207,-1.34792 -3.07873,-0.84308 -0.83146,0.36247 -0.85036,0.39524 -0.2408,0.41749 0.3638,0.0133 1.18959,0.44397 1.8351,0.95707 0.6455,0.5131 1.32868,0.87342 1.51818,0.8007 0.18949,-0.0727 0.33186,-0.0472 0.31638,0.0567 -0.0723,0.48517 0.0649,0.57829 0.3961,0.26887 0.30473,-0.28466 0.29432,-0.39343 -0.0661,-0.69152 z m 1.59412,-2.5218 c -0.89815,-1.02199 -2.45451,-1.42991 -2.99068,-0.78385 -0.17126,0.20636 -0.20194,0.34441 -0.0682,0.30678 0.34861,-0.0981 2.32776,0.97684 2.762,1.50008 0.34057,0.41036 0.3795,0.40702 0.54601,-0.0468 0.10848,-0.29567 0.0101,-0.68122 -0.24917,-0.9762 z m 0.88855,-4.26308 c 0.61123,-0.55662 0.80915,-0.84385 0.46851,-0.6799 -0.3244,0.15613 -1.2769,0.94799 -2.11666,1.75969 -1.1436,1.10538 -1.2612,1.27604 -0.46852,0.67991 0.58208,-0.43776 1.53458,-1.22962 2.11667,-1.7597 z m -34.77945,17.30803 c -0.9324,-0.52003 -1.50881,-1.22819 -1.22814,-1.50886 0.0861,-0.0861 0.15655,-0.0176 0.15655,0.15213 0,0.16978 0.29392,0.30868 0.65315,0.30868 0.47188,0 0.61089,-0.11014 0.50086,-0.39687 -0.11137,-0.29023 0.033,-0.39688 0.53747,-0.39688 0.38329,0 0.68977,-0.15016 0.68977,-0.33795 0,-0.29473 1.45943,-1.77871 1.74929,-1.77871 0.10265,0 1.3867,-1.08935 2.10514,-1.78594 0.18761,-0.1819 0.44221,-0.33073 0.56578,-0.33073 0.12358,0 0.42136,-0.20836 0.66174,-0.46302 0.77149,-0.81732 1.26805,-1.15813 1.26805,-0.87033 0,0.15126 0.17859,0.27502 0.39687,0.27502 0.21828,0 0.39688,0.18999 0.39688,0.4222 0,0.57347 -0.84086,1.95905 -1.18887,1.95905 -0.41872,0 -1.26679,1.05566 -0.85907,1.06934 0.18048,0.006 -0.13964,0.42404 -0.71137,0.92885 -0.64725,0.57148 -1.20952,0.86388 -1.49002,0.77486 -0.47613,-0.15112 -0.9127,0.49691 -0.79597,1.18147 0.055,0.32233 -0.002,0.32685 -0.3612,0.0287 -0.36588,-0.30365 -0.40278,-0.29224 -0.25979,0.0804 0.0964,0.25126 0.0353,0.43429 -0.14514,0.43429 -0.17148,0 -0.49038,0.1786 -0.70866,0.39688 -0.50621,0.50621 -0.81025,0.48379 -1.93332,-0.14258 z m 17.77997,-15.40169 c 0.0606,-0.1819 0.22789,-0.33073 0.37167,-0.33073 0.27857,0 1.17498,-0.81116 1.15913,-1.04888 -0.0299,-0.44928 0.0209,-0.48186 0.30631,-0.19641 0.24462,0.24462 0.14405,0.49498 -0.44638,1.11125 -0.7679,0.80152 -1.59513,1.07797 -1.39073,0.46477 z m 4.59221,-4.12164 c -0.0866,-0.14008 0.0205,-0.32295 0.23795,-0.4064 0.21745,-0.0834 0.39536,-0.3054 0.39536,-0.49324 0,-0.18785 0.23812,-0.49025 0.52917,-0.67201 0.76119,-0.47537 0.65136,-0.029 -0.23796,0.96711 -0.42191,0.47257 -0.83795,0.74462 -0.92452,0.60454 z"
         id="path198" /><path
         style="fill:#615d56"
         d="m 117.07813,143.10793 c -2.5703,-0.41396 -5.51313,-1.58346 -6.77132,-2.69097 -1.31063,-1.15366 -1.40349,-1.62383 -0.64898,-3.28583 1.18438,-2.60891 3.94117,-4.37861 9.91539,-6.36509 2.75679,-0.91666 3.12151,-1.12613 6.20788,-3.56536 1.80346,-1.42532 4.29854,-3.21442 5.54461,-3.97577 1.24607,-0.76136 3.22332,-2.28702 4.39389,-3.39037 1.17058,-1.10335 2.49478,-2.25773 2.94269,-2.56529 0.75379,-0.5176 0.87188,-0.52959 1.5875,-0.16115 1.24759,0.64235 2.73201,2.24668 3.46519,3.74512 0.58975,1.2053 0.77591,1.38425 1.37622,1.32292 0.38182,-0.039 0.87992,-0.29406 1.10689,-0.56678 0.3926,-0.47175 0.45462,-0.47416 1.27549,-0.0497 0.7102,0.36726 0.80625,0.51435 0.543,0.83154 -0.25414,0.30622 -0.23082,0.48371 0.11357,0.86425 0.27264,0.30127 0.43339,0.9422 0.43339,1.72797 0,0.68699 0.19617,1.62843 0.43594,2.09209 0.7502,1.45073 1.7382,4.50228 1.8669,5.76614 0.26657,2.61769 -0.75366,3.61889 -4.81638,4.72655 -1.16417,0.3174 -3.74139,1.22455 -5.72717,2.01589 -1.98578,0.79134 -3.75731,1.4388 -3.93674,1.4388 -0.17943,0 -1.1244,0.28791 -2.09994,0.63981 -3.77047,1.36008 -12.94989,2.13101 -17.20802,1.4452 z m -6.27796,-3.23754 c -0.13697,-0.71649 1.55901,-4.54807 2.09532,-4.73379 0.1904,-0.0659 0.80897,0.0414 1.3746,0.23844 2.15585,0.75111 9.62324,0.68688 9.87898,-0.085 0.0633,-0.1911 -0.4835,-0.42622 -1.43377,-0.6165 -2.70434,-0.54152 -6.12672,-1.71596 -5.83895,-2.00373 0.066,-0.066 0.65722,0.11764 1.31383,0.40809 1.71405,0.75821 4.70201,1.33041 6.94716,1.33041 1.9706,0 4.49744,-0.60506 6.67449,-1.59824 0.60922,-0.27793 1.59148,-0.65632 2.18281,-0.84088 0.59134,-0.18455 1.07515,-0.42562 1.07515,-0.53571 0,-0.11009 0.1889,-0.20017 0.41977,-0.20017 0.58332,0 2.75523,-1.59961 2.75523,-2.02922 0,-0.19362 0.12609,-0.35203 0.2802,-0.35203 0.15411,0 0.19455,0.14883 0.0899,0.33073 -0.11058,0.19216 -0.0894,0.23835 0.0505,0.11025 0.13247,-0.12127 0.24086,-0.3594 0.24086,-0.52917 0,-0.16977 0.26138,-0.42341 0.58085,-0.56363 0.31946,-0.14022 0.72654,-0.52718 0.9046,-0.8599 0.17807,-0.33272 0.512,-0.60545 0.74207,-0.60607 0.23007,-6.3e-4 0.91352,-0.32971 1.51877,-0.7313 1.02058,-0.67716 1.07263,-0.7682 0.71715,-1.25435 -0.32996,-0.45125 -0.4197,-0.46914 -0.64497,-0.1286 -0.53623,0.81065 -0.66414,0.94357 -1.56951,1.63102 -0.50932,0.38673 -1.31634,1.06698 -1.79337,1.51166 -0.47702,0.44469 -0.95327,0.82454 -1.05833,0.84413 -0.10505,0.0196 -0.96492,0.48993 -1.9108,1.04521 -2.14096,1.25684 -4.75016,2.06304 -7.61743,2.35367 -2.85408,0.28929 -7.7284,-0.21112 -7.7284,-0.79342 0,-0.325 0.20593,-0.30438 1.4552,0.14569 1.47096,0.52993 6.34396,0.52339 8.40732,-0.0113 1.44476,-0.37437 4.62017,-1.78323 4.95414,-2.19803 0.0728,-0.0904 0.45159,-0.34291 0.84184,-0.56119 1.64368,-0.91937 5.14565,-4.20852 5.99127,-5.62717 0.7692,-1.29043 0.8391,-1.55269 0.55525,-2.08308 -0.31888,-0.59582 -0.3523,-0.57606 -1.85127,1.09465 -1.14154,1.27233 -1.46939,1.80818 -1.29998,2.12475 0.13818,0.25818 0.0981,0.67482 -0.10273,1.06802 -0.26019,0.50941 -0.5076,0.63046 -1.17898,0.57681 -0.76689,-0.0613 -0.83481,-0.009 -0.69693,0.54074 0.2099,0.83631 -0.67868,1.63337 -1.57119,1.40936 -0.85421,-0.21439 -2.01019,0.31989 -2.01019,0.92908 0,0.62332 -0.93791,1.11277 -1.74444,0.91034 -0.89235,-0.22397 -1.95555,0.0824 -1.7893,0.51568 0.30434,0.79311 -1.94509,1.2561 -2.55168,0.5252 -0.21806,-0.26275 -0.81025,-0.39688 -1.75219,-0.39688 -0.78255,0 -1.42281,-0.11906 -1.42281,-0.26458 0,-0.14552 -0.20836,-0.26808 -0.46302,-0.27234 -0.35408,-0.006 -0.25972,-0.19269 0.40105,-0.79375 0.47524,-0.4323 1.0404,-0.786 1.25592,-0.786 0.21552,0 0.99142,0.62204 1.72421,1.3823 1.10582,1.14726 1.40961,1.33355 1.78678,1.09564 0.24994,-0.15766 0.45443,-0.4081 0.45443,-0.55653 0,-0.46244 -2.51112,-2.97974 -2.97242,-2.97974 -0.28481,0 -0.12454,-0.23102 0.45888,-0.66146 0.49311,-0.3638 0.98869,-0.66146 1.10129,-0.66146 0.11259,0 1.1051,0.78527 2.20556,1.74503 1.89218,1.65026 2.77857,2.00041 2.77857,1.0976 0,-0.35867 -1.92556,-2.31569 -3.26942,-3.32283 -0.93062,-0.69743 -0.81922,-0.75257 -4.84116,2.39659 -2.82209,2.20969 -3.3977,2.54232 -5.78005,3.34015 -7.02134,2.3514 -9.36031,3.98434 -10.44691,7.29344 -0.3273,0.99674 -0.31167,1.06644 0.37101,1.65365 0.8809,0.75771 0.902,0.75743 0.75524,-0.0103 z m 26.81184,-12.98201 c 0.1918,-0.49981 -0.18592,-1.14807 -1.32244,-2.26963 -0.90858,-0.89662 -1.27327,-1.55073 -0.64973,-1.16536 0.18497,0.11432 0.23381,0.0729 0.12382,-0.10512 -0.0999,-0.16165 -0.38619,-0.21728 -0.6362,-0.12363 -0.41219,0.1544 -0.41756,0.12251 -0.0577,-0.34229 0.3603,-0.46532 0.35734,-0.4817 -0.032,-0.17774 -0.30104,0.235 -0.61656,0.25972 -1.05833,0.0829 -0.34618,-0.13855 -0.46075,-0.25945 -0.25459,-0.26867 0.20615,-0.009 0.30946,-0.0821 0.22957,-0.16203 -0.13413,-0.13413 -1.94102,0.75308 -2.38656,1.17182 -0.10706,0.10063 0.0418,0.20564 0.33073,0.23335 0.28896,0.0277 0.70718,0.0731 0.92937,0.1008 0.22219,0.0277 1.20445,0.80079 2.18281,1.71795 1.8187,1.70493 2.34691,1.97045 2.60126,1.30763 z m 2.10406,-2.74816 c -0.0817,-0.25732 -0.69581,-0.92535 -1.36475,-1.48452 -0.94162,-0.7871 -1.13577,-1.07422 -0.85983,-1.27156 0.27464,-0.1964 0.25531,-0.22268 -0.0842,-0.11453 -0.24234,0.0772 -0.763,0.0541 -1.15702,-0.0512 -0.70684,-0.18904 -0.6904,-0.21417 1.23439,-1.8868 1.07292,-0.93237 2.06388,-1.79105 2.20212,-1.90818 0.14373,-0.12178 0.0473,-0.21297 -0.22523,-0.21297 -0.26212,0 -1.55633,1.07156 -2.87603,2.38125 -1.3197,1.30969 -2.22182,2.38125 -2.00472,2.38125 0.21711,0 0.86243,0.35387 1.43406,0.78639 0.57162,0.43251 1.16479,0.7897 1.31814,0.79375 0.15336,0.004 0.68379,0.42517 1.17875,0.93584 0.74386,0.76747 0.93918,0.85831 1.12637,0.52382 0.12455,-0.22255 0.15963,-0.61518 0.078,-0.8725 z m 4.95785,0.28009 c -0.14752,-0.40452 -0.0893,-0.39616 0.46094,0.0661 l 0.62979,0.52917 -0.41147,-0.66146 c -0.2263,-0.3638 -0.55735,-0.93704 -0.73567,-1.27386 -0.26067,-0.49238 -0.39837,-0.55084 -0.70263,-0.29833 -0.5556,0.46111 -0.46152,1.2194 0.20962,1.68948 0.73578,0.51536 0.75534,0.51354 0.54942,-0.0511 z"
         id="path197" /><path
         style="fill:#9b2b2b"
         d="m 118.26875,143.24797 c -3.53008,-0.50566 -6.90344,-1.76408 -8.26823,-3.08445 -1.02365,-0.99033 -1.04403,-1.25215 -0.23175,-2.97706 0.79407,-1.68623 2.2127,-3.12905 3.93442,-4.00151 1.664,-0.84321 6.04093,-2.54882 6.1811,-2.40865 0.0562,0.0562 -0.93909,0.49555 -2.21185,0.97623 -3.49812,1.32113 -5.15388,2.23475 -6.25109,3.44924 -0.93488,1.03479 -2.01614,3.0795 -2.01614,3.81259 0,0.48778 1.06394,1.39819 2.17792,1.86364 1.10145,0.46021 1.59624,0.53213 0.99708,0.14492 -0.21828,-0.14107 -0.27781,-0.25452 -0.13229,-0.25212 0.14552,0.002 0.47847,0.16658 0.7399,0.36484 0.26142,0.19826 0.73767,0.29289 1.05833,0.21028 0.51851,-0.13357 0.54284,-0.1012 0.21989,0.29257 -0.20542,0.25047 -0.24354,0.44276 -0.0878,0.44276 0.15143,0 0.4832,0.0798 0.73725,0.17726 0.29046,0.11146 0.39824,0.0742 0.29036,-0.10035 -0.22411,-0.36261 1.05214,-1.6315 1.83981,-1.82919 0.33762,-0.0847 1.18217,-0.0989 1.87679,-0.0314 1.68216,0.16336 8.9652,-0.48844 11.4335,-1.02324 2.43883,-0.52842 3.28385,-1.13621 4.12051,-2.96372 0.36014,-0.78664 1.07376,-2.00101 1.58583,-2.69859 0.84198,-1.147 1.17749,-1.36126 3.50728,-2.23983 1.41694,-0.53432 3.15767,-1.20086 3.8683,-1.48121 0.71063,-0.28034 1.56469,-0.50971 1.89793,-0.50971 0.33323,0 0.97539,-0.31092 1.42701,-0.69095 0.56197,-0.47286 1.02768,-0.65146 1.47551,-0.56585 0.75258,0.14386 0.81175,-0.0215 0.26591,-0.74315 -0.22426,-0.2965 -0.39202,-1.10409 -0.39688,-1.91057 l -0.008,-1.39699 -0.74205,0.54862 c -0.9132,0.67516 -1.29926,0.53702 -2.25167,-0.80571 -0.69723,-0.98296 -0.67822,-1.44109 0.0304,-0.73248 0.24695,0.24694 0.391,0.23959 0.64823,-0.0331 0.2592,-0.27475 0.26068,-0.3763 0.007,-0.46955 -0.24396,-0.0896 -0.2246,-0.27052 0.0785,-0.73304 0.35826,-0.54678 0.48798,-0.58174 1.18378,-0.31911 0.8868,0.33473 0.95608,0.6056 0.36922,1.44345 -0.22929,0.32736 -0.32188,0.73506 -0.20867,0.91877 0.11194,0.18165 -0.12961,0.11239 -0.53679,-0.1539 -0.86163,-0.56348 -1.12185,-0.4468 -0.71189,0.31922 0.37906,0.70828 1.39677,0.37771 1.61596,-0.52489 l 0.15373,-0.63308 0.31452,0.57792 c 0.17298,0.31785 0.31451,1.15456 0.31451,1.85936 0,0.70479 0.16134,1.51629 0.35853,1.80333 0.19718,0.28704 0.62034,1.35533 0.94034,2.37397 0.32,1.01865 0.69445,2.05883 0.8321,2.31152 0.59437,1.09106 0.0303,3.69141 -0.93843,4.32614 -0.34831,0.22822 -1.98386,0.81605 -3.63454,1.30627 -1.65069,0.49023 -3.94942,1.29655 -5.10827,1.79182 -3.30371,1.41195 -9.03472,3.10254 -11.47018,3.3836 -1.22068,0.14087 -2.31369,0.31439 -2.42891,0.3856 -0.28408,0.17557 -7.85126,0.37189 -8.84543,0.22948 z m 27.40069,-8.0511 c 0.87393,-0.27919 1.79333,-0.63934 2.0431,-0.80034 0.39949,-0.25752 0.39047,-0.2708 -0.075,-0.11045 -1.15845,0.39906 -1.53579,0.39195 -0.66146,-0.0125 0.50932,-0.23559 1.34276,-0.46894 1.85208,-0.51856 0.67147,-0.0654 0.91514,-0.21108 0.88636,-0.52986 -0.0218,-0.2418 0.0267,-0.3732 0.10795,-0.292 0.0812,0.0812 0.29719,0.0235 0.47999,-0.12819 0.26557,-0.22041 0.2575,-0.41931 -0.0402,-0.9899 -0.20489,-0.39273 -0.37327,-0.91539 -0.37416,-1.16146 -0.003,-0.75835 -0.49886,-0.80495 -1.14517,-0.10756 -0.33919,0.36599 -0.90527,0.79235 -1.25794,0.94748 -0.35268,0.15512 -1.23654,0.63132 -1.96415,1.05822 -0.7276,0.42691 -1.50151,0.84958 -1.71979,0.93927 -0.5758,0.2366 -1.86775,2.0008 -1.68351,2.2989 0.18603,0.30101 1.37421,0.10261 3.55191,-0.59308 z m -17.11855,-4.62499 c -0.10107,-0.26338 -0.52101,-0.39824 -1.24847,-0.40093 -0.60289,-0.002 -1.27476,-0.12832 -1.49304,-0.28021 -0.28892,-0.20103 -0.091,-0.22959 0.7276,-0.10498 1.23674,0.18826 1.418,-0.0569 0.59369,-0.80285 -0.29193,-0.2642 -0.47604,-0.5351 -0.40913,-0.60201 0.15685,-0.15686 1.99825,1.78979 1.99825,2.11246 0,0.13438 0.38696,0.20703 0.8599,0.16143 0.71651,-0.0691 0.87385,-0.20424 0.94361,-0.81052 0.0561,-0.48763 0.23791,-0.7276 0.55122,-0.7276 0.84946,0 0.84016,-0.35053 -0.0346,-1.30552 l -0.8642,-0.94344 1.05798,0.95781 c 0.58189,0.52679 1.29611,1.09382 1.58715,1.26006 0.49916,0.28511 0.49165,0.29974 -0.13229,0.25782 -1.39138,-0.0935 -1.85208,0.0344 -1.85208,0.5141 0,0.26194 -0.14288,0.61913 -0.3175,0.79375 -0.45036,0.45036 -1.78545,0.39652 -1.96807,-0.0794 z m -5.55052,-0.87607 c 0.19155,-0.30994 4.403,-3.7441 6.24744,-5.09438 0.50996,-0.37332 1.82016,-1.20034 2.91157,-1.83782 1.20865,-0.70597 2.83311,-2.01481 4.15554,-3.34816 1.19414,-1.20401 2.47038,-2.2642 2.83609,-2.35599 1.27633,-0.32034 3.26351,1.38002 4.52718,3.87376 0.42285,0.83445 0.84633,1.30544 1.24212,1.38146 0.512,0.0983 0.49128,0.12065 -0.14058,0.15137 -0.61553,0.0299 -0.80879,-0.12595 -1.14054,-0.91995 -0.92671,-2.21792 -2.98656,-4.33568 -4.21711,-4.33568 -0.23185,0 -1.4548,1.01718 -2.71765,2.2604 -1.26285,1.24322 -2.95094,2.63569 -3.7513,3.09437 -2.14388,1.22866 -4.56294,2.94251 -7.52183,5.32905 -1.44487,1.16538 -2.53879,1.97609 -2.43093,1.80157 z m 10.94857,-0.9877 c 0.0691,-0.36142 0.4686,-0.85974 0.88782,-1.10737 0.41921,-0.24764 0.7622,-0.53377 0.7622,-0.63584 0,-0.10208 -0.50602,-0.6287 -1.12448,-1.17028 -0.61846,-0.54158 -0.88635,-0.82272 -0.59531,-0.62475 0.29104,0.19796 1.03252,0.80979 1.64773,1.35961 0.61521,0.54983 1.21053,0.99786 1.32292,0.99564 0.56823,-0.0113 0.92784,-0.5233 0.80796,-1.15043 -0.0717,-0.37487 -0.0284,-0.61864 0.0961,-0.54169 0.1245,0.0769 0.22636,0.42634 0.22636,0.77643 0,0.82361 -0.85122,1.31378 -1.59252,0.91705 -0.66387,-0.35529 -2.11165,0.40057 -2.11165,1.10245 0,0.25108 -0.10186,0.51946 -0.22636,0.59641 -0.1245,0.0769 -0.16983,-0.15581 -0.10074,-0.51723 z M 138.1125,120.65 c -0.26339,-0.29104 -0.71073,-0.52917 -0.99409,-0.52917 -0.39538,0 -0.22462,-0.26153 0.73422,-1.12447 0.68718,-0.61847 1.41996,-1.22319 1.62839,-1.34382 0.48703,-0.28188 1.14502,0.25312 1.14502,0.93099 0,0.47741 -1.52354,2.58015 -1.87722,2.59087 -0.0866,0.003 -0.37293,-0.23336 -0.63632,-0.5244 z"
         id="path196" /><path
         style="fill:#1d1b1a"
         d="m 118.26875,143.24797 c -3.53008,-0.50566 -6.90344,-1.76408 -8.26823,-3.08445 -1.02365,-0.99033 -1.04403,-1.25215 -0.23175,-2.97706 0.79407,-1.68623 2.2127,-3.12905 3.93442,-4.00151 1.664,-0.84321 6.04093,-2.54882 6.1811,-2.40865 0.0562,0.0562 -0.93909,0.49555 -2.21185,0.97623 -3.49812,1.32113 -5.15388,2.23475 -6.25109,3.44924 -0.93488,1.03479 -2.01614,3.0795 -2.01614,3.81259 0,0.48778 1.06394,1.39819 2.17792,1.86364 1.10145,0.46021 1.59624,0.53213 0.99708,0.14492 -0.21828,-0.14107 -0.27781,-0.25452 -0.13229,-0.25212 0.14552,0.002 0.47847,0.16658 0.7399,0.36484 0.26142,0.19826 0.73767,0.29289 1.05833,0.21028 0.51851,-0.13357 0.54284,-0.1012 0.21989,0.29257 -0.20542,0.25047 -0.24354,0.44276 -0.0878,0.44276 0.15143,0 0.4832,0.0798 0.73725,0.17726 0.29046,0.11146 0.39824,0.0742 0.29036,-0.10035 -0.22411,-0.36261 1.05214,-1.6315 1.83981,-1.82919 0.33762,-0.0847 1.18217,-0.0989 1.87679,-0.0314 1.67699,0.16286 8.93853,-0.48924 11.51478,-1.03405 1.12736,-0.2384 2.18374,-0.59491 2.3475,-0.79223 0.47482,-0.57212 0.78667,-0.4164 0.60619,0.30269 -0.18603,0.74122 0.0925,0.82565 1.37322,0.41626 0.4219,-0.13486 1.97566,-0.6109 3.4528,-1.05787 2.14681,-0.64961 2.78388,-0.95876 3.17499,-1.54074 0.34685,-0.5161 0.73224,-0.73862 1.32373,-0.76431 0.96232,-0.0418 4.267,-1.02832 4.85411,-1.44906 0.31833,-0.22812 0.29215,-0.24734 -0.13229,-0.0971 -1.13963,0.40331 -1.53978,0.39877 -0.66146,-0.007 0.50932,-0.23559 1.34276,-0.46894 1.85208,-0.51856 0.67147,-0.0654 0.91514,-0.21108 0.88636,-0.52986 -0.0218,-0.2418 0.0267,-0.3732 0.10795,-0.292 0.27481,0.27481 0.87464,-0.43419 0.6284,-0.74277 -0.20824,-0.26095 -1.069,-2.89143 -1.24843,-3.81516 -0.0368,-0.18949 -0.25514,-0.63179 -0.48518,-0.98288 -0.24222,-0.36968 -0.41826,-1.20239 -0.41826,-1.97849 v -1.34015 l -0.74205,0.54862 c -0.40813,0.30175 -0.91415,0.48015 -1.12448,0.39645 -0.49176,-0.19568 -1.95806,-2.25214 -1.60583,-2.25214 0.14637,0 0.34271,0.1239 0.4363,0.27534 0.0936,0.15144 0.42805,0.20318 0.74322,0.11496 0.40322,-0.11285 0.46694,-0.0868 0.215,0.0879 -0.55441,0.38443 0.0645,1.36652 0.74848,1.18766 0.29131,-0.0762 0.45307,-0.26243 0.35946,-0.41389 -0.0988,-0.15988 -0.0421,-0.1962 0.13527,-0.0866 0.19312,0.11935 0.30546,-0.0116 0.30546,-0.356 0,-0.47405 -0.24602,-0.65222 -0.8158,-0.59081 -0.0849,0.009 -0.15434,-0.15011 -0.15434,-0.3539 0,-0.2038 0.091,-0.31431 0.20221,-0.24557 0.11121,0.0687 0.26927,0.0164 0.35125,-0.11621 0.082,-0.13265 -0.0334,-0.31117 -0.25631,-0.39673 -0.22987,-0.0882 -0.47057,0.0143 -0.55596,0.23686 -0.0828,0.21583 -0.31918,0.39241 -0.52525,0.39241 -0.31186,0 -0.30505,-0.10625 0.0406,-0.63382 0.37367,-0.57029 0.49493,-0.60377 1.20963,-0.334 0.60492,0.22834 0.76342,0.42678 0.66469,0.83226 -0.0713,0.29284 0.042,0.76356 0.25168,1.04603 0.21474,0.28923 0.38132,1.10149 0.38132,1.85936 0,0.74017 0.16134,1.58062 0.35853,1.86766 0.19718,0.28704 0.62034,1.35533 0.94034,2.37397 0.32,1.01865 0.69445,2.05883 0.8321,2.31152 0.59437,1.09106 0.0303,3.69141 -0.93843,4.32614 -0.34831,0.22822 -1.98386,0.81605 -3.63454,1.30627 -1.65069,0.49023 -3.94942,1.29655 -5.10827,1.79182 -3.30371,1.41195 -9.03472,3.10254 -11.47018,3.3836 -1.22068,0.14087 -2.31369,0.31439 -2.42891,0.3856 -0.28408,0.17557 -7.85126,0.37189 -8.84543,0.22948 z m 10.28214,-12.67609 c -0.10107,-0.26338 -0.52101,-0.39824 -1.24847,-0.40093 -0.60289,-0.002 -1.27476,-0.12832 -1.49304,-0.28021 -0.28892,-0.20103 -0.091,-0.22959 0.7276,-0.10498 1.23674,0.18826 1.418,-0.0569 0.59369,-0.80285 -0.29193,-0.2642 -0.47604,-0.5351 -0.40913,-0.60201 0.15685,-0.15686 1.99825,1.78979 1.99825,2.11246 0,0.13438 0.38696,0.20703 0.8599,0.16143 0.71651,-0.0691 0.87385,-0.20424 0.94361,-0.81052 0.0561,-0.48763 0.23791,-0.7276 0.55122,-0.7276 0.84946,0 0.84016,-0.35053 -0.0346,-1.30552 l -0.8642,-0.94344 1.05798,0.95781 c 0.58189,0.52679 1.29611,1.09382 1.58715,1.26006 0.49916,0.28511 0.49165,0.29974 -0.13229,0.25782 -1.39138,-0.0935 -1.85208,0.0344 -1.85208,0.5141 0,0.26194 -0.14288,0.61913 -0.3175,0.79375 -0.45036,0.45036 -1.78545,0.39652 -1.96807,-0.0794 z m -5.55052,-0.87607 c 0.19155,-0.30994 4.403,-3.7441 6.24744,-5.09438 0.50996,-0.37332 1.82016,-1.20034 2.91157,-1.83782 1.20865,-0.70597 2.83311,-2.01481 4.15554,-3.34816 1.19414,-1.20401 2.47038,-2.2642 2.83609,-2.35599 1.27633,-0.32034 3.26351,1.38002 4.52718,3.87376 0.42285,0.83445 0.84633,1.30544 1.24212,1.38146 0.512,0.0983 0.49128,0.12065 -0.14058,0.15137 -0.61944,0.0301 -0.80876,-0.12588 -1.15318,-0.95019 -0.90645,-2.16944 -3.0408,-4.40167 -3.66726,-3.83545 -0.11651,0.10531 -0.12619,0.0426 -0.0215,-0.13926 0.12698,-0.22066 0.003,-0.33073 -0.37346,-0.33073 -0.35216,0 -1.42568,0.84848 -2.85989,2.2604 -1.26285,1.24322 -2.95094,2.63569 -3.7513,3.09437 -2.14388,1.22866 -4.56294,2.94251 -7.52183,5.32905 -1.44487,1.16538 -2.53879,1.97609 -2.43093,1.80157 z m 10.94857,-0.9877 c 0.0691,-0.36142 0.4686,-0.85974 0.88782,-1.10737 0.41921,-0.24764 0.7622,-0.53377 0.7622,-0.63584 0,-0.10208 -0.50602,-0.6287 -1.12448,-1.17028 -0.61846,-0.54158 -0.88635,-0.82272 -0.59531,-0.62475 0.29104,0.19796 1.03252,0.80979 1.64773,1.35961 0.61521,0.54983 1.21053,0.99786 1.32292,0.99564 0.56823,-0.0113 0.92784,-0.5233 0.80796,-1.15043 -0.0717,-0.37487 -0.0284,-0.61864 0.0961,-0.54169 0.1245,0.0769 0.22636,0.42634 0.22636,0.77643 0,0.82361 -0.85122,1.31378 -1.59252,0.91705 -0.66387,-0.35529 -2.11165,0.40057 -2.11165,1.10245 0,0.25108 -0.10186,0.51946 -0.22636,0.59641 -0.1245,0.0769 -0.16983,-0.15581 -0.10074,-0.51723 z M 138.1125,120.65 c -0.26339,-0.29104 -0.72833,-0.54298 -1.03319,-0.55986 -0.45103,-0.025 -0.4675,-0.0533 -0.0884,-0.15225 0.25625,-0.0669 0.78229,0.10891 1.16898,0.39059 l 0.70306,0.51214 0.63626,-0.69062 0.63626,-0.69062 -0.59823,0.85989 c -0.70151,1.00836 -0.79241,1.02946 -1.42475,0.33073 z"
         id="path195" /></g></g></svg>
