<?xml version="1.0" encoding="UTF-8" standalone="no"?>
<!-- Created with Inkscape (http://www.inkscape.org/) -->

<svg
   width="53.720184mm"
   height="65.628365mm"
   viewBox="0 0 53.720184 65.628365"
   version="1.1"
   id="svg1"
   inkscape:export-filename="the-patriot.svg"
   inkscape:export-xdpi="96"
   inkscape:export-ydpi="96"
   xml:space="preserve"
   xmlns:inkscape="http://www.inkscape.org/namespaces/inkscape"
   xmlns:sodipodi="http://sodipodi.sourceforge.net/DTD/sodipodi-0.dtd"
   xmlns="http://www.w3.org/2000/svg"
   xmlns:svg="http://www.w3.org/2000/svg"><sodipodi:namedview
     id="namedview1"
     pagecolor="#ffffff"
     bordercolor="#000000"
     borderopacity="0.25"
     inkscape:showpageshadow="2"
     inkscape:pageopacity="0.0"
     inkscape:pagecheckerboard="0"
     inkscape:deskcolor="#d1d1d1"
     inkscape:document-units="mm"><inkscape:page
       x="0"
       y="0"
       width="53.720184"
       height="65.628365"
       id="page2"
       margin="0"
       bleed="0" /></sodipodi:namedview><defs
     id="defs1" /><g
     inkscape:label="Calque 1"
     inkscape:groupmode="layer"
     id="layer1"
     transform="translate(-115.48251,-113.86436)"><g
       id="g386"
       transform="translate(-25.663284,-15.251845)"><path
         style="fill:#d5e8f6"
         d="m 141.15521,161.925 v -32.80833 h 26.85521 26.85521 v 32.80833 32.80834 h -26.85521 -26.85521 z"
         id="path393" /><path
         style="fill:#c4daeb"
         d="m 152.5323,194.05174 c 0.94588,-0.36065 2.09497,-0.83108 2.55352,-1.0454 0.45856,-0.21432 0.91681,-0.38967 1.01835,-0.38967 0.10154,0 0.55979,-0.16731 1.01835,-0.37179 0.45855,-0.20449 1.33975,-0.58459 1.95821,-0.84467 0.61847,-0.26008 1.12448,-0.56903 1.12448,-0.68654 0,-0.11752 0.17629,-0.21367 0.39176,-0.21367 0.21546,0 1.38922,-0.4739 2.60836,-1.0531 l 2.21661,-1.05311 0.54427,-1.65887 c 1.46692,-4.471 1.8933,-7.5198 1.1997,-8.57838 -0.21545,-0.32882 -0.31999,-0.71392 -0.23231,-0.85579 0.0877,-0.14186 0.0384,-0.33272 -0.10949,-0.42412 -0.14789,-0.0914 -0.2689,-0.0401 -0.2689,0.11401 0,0.15411 -0.20836,0.27837 -0.46302,0.27615 -0.38025,-0.003 -0.39512,-0.047 -0.0832,-0.24442 0.3136,-0.19844 0.31991,-0.31261 0.0362,-0.6545 -0.39689,-0.47821 -0.91759,-0.28062 -0.70695,0.26827 0.0781,0.20356 0.08,0.37011 0.004,0.37011 -0.0758,0 -0.26227,-0.35718 -0.41445,-0.79375 -0.15219,-0.43656 -0.39215,-0.79375 -0.53324,-0.79375 -0.14109,0 -0.18095,-0.23812 -0.0886,-0.52916 0.0964,-0.30356 0.0476,-0.52917 -0.11446,-0.52917 -0.15533,0 -0.28241,0.11906 -0.28241,0.26458 0,0.14552 -0.11533,0.26459 -0.25628,0.26459 -0.14095,0 -0.18775,-0.1786 -0.10399,-0.39688 0.0838,-0.21828 0.0135,-0.39687 -0.15621,-0.39687 -0.16967,0 -0.23707,-0.11558 -0.14977,-0.25683 0.0873,-0.14125 -0.17357,-0.33054 -0.5797,-0.42064 -0.40614,-0.0901 -1.09561,-0.26531 -1.53218,-0.38937 -3.16858,-0.9004 -6.89645,-0.89931 -8.96141,0.003 -2.20232,0.96194 -4.34024,3.53998 -4.72227,5.69441 -0.16944,0.95555 -2.19421,0.20841 -3.94266,-1.45486 l -1.08228,-1.02955 0.0948,-2.30792 c 0.0631,-1.53606 0.2051,-2.34469 0.42463,-2.41787 0.18141,-0.0605 0.32984,-0.27086 0.32984,-0.46755 0,-0.19668 0.13051,-0.69277 0.29003,-1.10243 0.15952,-0.40965 0.32393,-1.59707 0.36535,-2.6387 0.0425,-1.06828 0.26206,-2.26823 0.50372,-2.75263 0.53345,-1.06933 0.54224,-1.40692 0.0315,-1.21094 -0.21828,0.0838 -0.39687,0.037 -0.39687,-0.10398 0,-0.14096 -0.65484,-0.25628 -1.45521,-0.25628 h -1.45521 v -16.93363 -16.93363 l 26.85521,0.003 26.85521,0.003 v 32.80548 32.80549 h -7.2505 -7.25051 l -0.11036,-2.57969 c -0.10297,-2.40678 -0.0524,-2.73418 0.75402,-4.88461 1.13854,-3.03596 2.09546,-4.7402 6.02009,-10.7216 5.32059,-8.10896 6.77072,-14.9809 4.78872,-22.69306 -0.76534,-2.97806 -3.04568,-7.06322 -4.95746,-8.88117 -3.12775,-2.97424 -7.82728,-4.40679 -12.09513,-3.68692 -2.838,0.47869 -6.62709,2.62368 -8.29662,4.69669 -0.26631,0.33068 -0.57389,0.5458 -0.68351,0.47806 -0.10961,-0.0677 -0.20159,0.0204 -0.20439,0.19591 -0.003,0.1755 -0.35445,0.91441 -0.78144,1.64201 -2.40874,4.10461 -3.10319,6.84028 -3.12314,12.30313 -0.0139,3.82003 0.0364,4.25514 0.73513,6.35 1.44858,4.34307 2.63677,6.64736 5.82851,11.3034 0.82015,1.1964 1.49117,2.21787 1.49117,2.26994 0,0.0521 0.52989,1.0245 1.17754,2.16097 1.82026,3.19414 3.08818,6.68496 2.94215,8.10026 -0.0663,0.64271 -0.1274,1.79363 -0.13575,2.55761 l -0.0152,1.38907 -2.3151,-0.008 c -2.54284,-0.009 -2.49591,0.12627 -0.48201,-1.3919 3.19131,-2.40576 2.83565,-2.6564 -0.49608,-0.34959 l -2.52739,1.74991 -8.53294,-0.0129 -8.53294,-0.0129 z m 2.11666,-24.7184 c 0.3638,-0.28457 0.76214,-0.52005 0.8852,-0.52329 0.12306,-0.003 0.53978,-0.22664 0.92604,-0.49646 0.38627,-0.26982 1.03435,-0.57091 1.44019,-0.66908 l 0.73789,-0.1785 -1.19432,-0.91164 -1.19432,-0.91165 -1.74578,1.72868 c -1.42879,1.41479 -1.68833,1.79789 -1.4294,2.10989 0.42072,0.50694 0.78049,0.47313 1.5745,-0.14795 z m 19.86191,22.55573 c 0.0495,-2.72873 0.0121,-2.94014 -0.92132,-5.20402 -1.26861,-3.07682 -2.33437,-4.98991 -5.4713,-9.82131 -2.80829,-4.32525 -4.06996,-6.92378 -5.11852,-10.54214 -1.20462,-4.15689 -0.84111,-10.5306 0.83221,-14.59181 2.21126,-5.36681 6.17001,-8.82255 11.18994,-9.76808 1.70103,-0.3204 2.2866,-0.32122 4.10104,-0.006 7.85142,1.36514 12.83229,8.65471 12.83229,18.78026 0,4.9965 -1.64485,9.58419 -5.60429,15.6311 -3.03164,4.62996 -4.04999,6.35489 -5.09442,8.62922 -1.55638,3.38917 -1.79155,4.35126 -1.74946,7.1571 l 0.0387,2.57969 h -1.99735 -1.99735 v -2.75705 c 0,-2.39873 -0.10605,-3.06065 -0.81602,-5.09323 -1.0071,-2.8832 -2.42694,-5.54161 -4.7094,-8.81752 -4.5862,-6.58239 -5.7143,-8.92849 -6.53783,-13.59668 -0.99658,-5.64918 0.36668,-12.37625 3.30296,-16.29851 1.70821,-2.28181 4.05823,-4.12556 6.51134,-5.10857 0.58208,-0.23325 0.86597,-0.43023 0.63086,-0.43773 -0.23511,-0.008 -1.30667,0.42244 -2.38125,0.95542 -2.6761,1.3273 -5.0372,3.76443 -6.52047,6.73043 -1.62032,3.24003 -1.96954,4.79083 -2.10912,9.36614 -0.10264,3.36464 -0.0404,4.29095 0.4088,6.08542 0.789,3.15181 2.41805,6.65864 4.70644,10.13146 3.60193,5.4662 5.10989,8.19715 6.27287,11.36034 0.78648,2.13915 0.8457,2.52251 0.7569,4.90039 -0.13296,3.56083 -0.62148,3.32846 -0.55625,-0.26458 z m 4.21824,-8.31722 1.53669,-2.72914 -3.05423,-0.0748 c -1.67983,-0.0412 -3.10167,-0.0274 -3.15965,0.0306 -0.12761,0.12761 2.91507,5.70514 3.04742,5.58621 0.0512,-0.046 0.78459,-1.31176 1.62977,-2.81279 z m -2.75691,-0.357 c -0.52268,-0.95089 -0.95032,-1.75845 -0.95032,-1.79458 0,-0.0905 3.81572,0.12451 3.9217,0.22093 0.0469,0.0427 -0.20361,0.53529 -0.55666,1.09474 -0.35305,0.55946 -0.72685,1.28508 -0.83068,1.6125 -0.10382,0.32742 -0.28888,0.59531 -0.41124,0.59531 -0.12236,0 -0.65012,-0.778 -1.1728,-1.7289 z"
         id="path392" /><path
         style="fill:#b7d1e4"
         d="m 162.32578,194.40261 c 0.002,-0.1819 0.17157,-0.62839 0.37649,-0.99219 0.67936,-1.20604 2.26544,-4.54144 2.26544,-4.76403 0,-0.12043 0.13062,-0.2625 0.29027,-0.31571 0.4711,-0.15703 1.77977,-4.28896 2.10063,-6.63242 0.40133,-2.93113 0.18635,-4.14558 -0.94645,-5.3467 -0.53306,-0.56521 -1.03905,-0.88754 -1.21882,-0.77644 -0.17534,0.10836 -0.2365,0.0753 -0.14237,-0.077 0.17482,-0.28286 -0.5565,-1.04504 -1.6965,-1.76807 -1.77449,-1.12544 -7.48399,-1.83208 -9.97484,-1.23454 -2.63722,0.63266 -5.36948,3.30649 -6.01076,5.88222 -0.12621,0.50695 -0.30224,0.66909 -0.61552,0.56699 -1.29819,-0.42312 -2.31855,-1.03522 -3.14597,-1.88725 l -0.92536,-0.95286 0.1134,-2.12885 c 0.084,-1.57746 0.2848,-2.4715 0.77514,-3.45177 0.49197,-0.98354 0.63297,-1.61406 0.54961,-2.45782 -0.0617,-0.6242 0.0285,-1.69576 0.20028,-2.38125 0.33877,-1.35158 2.34262,-4.81822 2.78511,-4.81822 0.1498,0 0.4125,-0.22439 0.58377,-0.49864 0.26545,-0.42505 3.14966,-2.68298 5.10857,-3.99928 0.32485,-0.21828 1.05179,-0.72429 1.61543,-1.12448 0.56364,-0.40018 1.14489,-0.7276 1.29167,-0.7276 0.14679,0 0.26913,-0.0893 0.27188,-0.19844 0.003,-0.10914 0.60336,-0.55562 1.33471,-0.99219 0.73134,-0.43656 1.60902,-1.04387 1.9504,-1.34957 0.34138,-0.30571 1.05045,-0.82143 1.5757,-1.14606 0.52526,-0.32463 0.95502,-0.69386 0.95502,-0.82053 0,-0.12666 0.56555,-0.6151 1.25677,-1.08543 1.29306,-0.87984 1.68857,-1.28098 1.52459,-1.5463 -0.0518,-0.0838 0.14501,-0.44664 0.43729,-0.80638 0.29229,-0.35973 0.45455,-0.50523 0.36057,-0.32333 -0.22039,0.42659 0.1762,0.42659 0.65458,0 0.31553,-0.28136 0.31859,-0.26161 0.0205,0.13229 -0.1927,0.25466 -0.54414,0.46485 -0.78099,0.46707 -0.34251,0.003 -0.35717,0.0506 -0.0716,0.23151 0.24885,0.15769 0.26958,0.28271 0.0676,0.40756 -0.55586,0.34353 -2.64266,5.05489 -3.05512,6.89751 -0.43075,1.92437 -0.95072,5.5985 -0.95482,6.74687 -0.002,0.63875 -0.0157,0.64382 -0.3923,0.14787 -0.35214,-0.4638 -0.38994,-0.4687 -0.38994,-0.0505 0,0.25468 -0.11747,0.39046 -0.26103,0.30173 -0.14357,-0.0887 -0.67319,-0.0475 -1.17695,0.0916 -0.59969,0.16558 -0.94626,0.16186 -1.0038,-0.0108 -0.0483,-0.14501 -0.67604,0.22235 -1.39488,0.81637 -0.71885,0.59402 -1.69726,1.26523 -2.17425,1.49158 -0.477,0.22634 -1.03389,0.73376 -1.23755,1.12759 -0.20366,0.39383 -0.6206,0.94258 -0.92654,1.21945 -0.30594,0.27688 -0.55625,0.6057 -0.55625,0.73071 0,0.31355 -1.65202,1.79005 -2.01352,1.79959 -0.29013,0.008 -1.61874,1.20304 -2.58542,2.32615 -0.46573,0.54111 -0.47001,0.62103 -0.0661,1.2374 0.23746,0.36241 0.43174,1.07983 0.43174,1.59428 0,0.51444 0.0893,0.935 0.19844,0.93459 0.10914,-4.2e-4 1.01031,-0.77433 2.00261,-1.71979 0.99229,-0.94547 1.85684,-1.71904 1.92122,-1.71904 0.0644,0 0.80031,-0.46452 1.63541,-1.03227 0.8351,-0.56776 2.23274,-1.37143 3.10586,-1.78594 0.87313,-0.41451 1.62719,-0.84296 1.6757,-0.9521 0.0485,-0.10914 0.29519,-0.19844 0.54818,-0.19844 0.64038,0 3.03416,-0.82735 3.22427,-1.11438 0.0861,-0.12995 0.66463,1.0499 1.28571,2.62187 1.299,3.28783 2.12122,4.82633 4.35548,8.14981 2.80948,4.17912 5.46062,9.21718 5.5393,10.52657 0.0221,0.36709 0.11781,0.61947 0.21278,0.56085 0.39579,-0.24433 0.63809,1.51405 0.54123,3.92768 l -0.10352,2.57969 -2.28956,-0.008 -2.28957,-0.008 1.05834,-0.63506 c 1.21225,-0.72742 3.30729,-2.52736 3.30729,-2.84144 0,-0.11613 -0.23813,-0.21115 -0.52917,-0.21115 -0.29104,0 -0.52917,0.11906 -0.52917,0.26458 0,0.14552 -0.13364,0.26459 -0.29698,0.26459 -0.2127,0 -0.20854,-0.10656 0.0147,-0.3755 0.17684,-0.21308 0.27668,-0.9569 0.23083,-1.71974 -0.0842,-1.40086 -0.32285,-1.7198 -0.60996,-0.81518 -0.0924,0.29104 -0.25836,0.52917 -0.36884,0.52917 -0.28015,0 -2.55653,3.19665 -2.47543,3.47617 0.0364,0.12539 -0.0342,0.22799 -0.15678,0.22799 -0.1226,0 -0.44733,0.41672 -0.72162,0.92605 l -0.49871,0.92604 h -2.58567 c -1.89422,0 -2.58462,-0.0884 -2.58176,-0.33073 z m -13.11634,-26.9875 c 0.10059,-0.47295 0.23628,-1.27662 0.30154,-1.78594 l 0.11865,-0.92604 -1.29975,1.45521 c -1.40008,1.56753 -1.40828,2.11666 -0.0316,2.11666 0.60774,0 0.75854,-0.14231 0.91115,-0.85989 z m 25.30114,24.47396 c 0.0457,-2.52907 -0.0279,-3.04952 -0.6636,-4.69636 -1.01222,-2.62217 -2.73605,-5.73562 -5.7132,-10.31875 -4.13412,-6.36421 -5.53328,-9.9924 -5.74878,-14.90729 -0.30501,-6.95622 1.54026,-12.47538 5.46622,-16.34939 4.2225,-4.16662 10.97889,-4.9751 16.05066,-1.92064 6.85853,4.13054 9.92533,14.93619 6.82149,24.03511 -1.03362,3.03006 -2.24444,5.39371 -4.47995,8.74534 -2.9292,4.39165 -4.66271,7.48517 -5.7901,10.33269 -0.93264,2.35562 -0.98742,2.65581 -0.95098,5.21158 l 0.0387,2.71198 h -1.99498 -1.99498 v -2.81359 c 0,-2.55532 -0.0861,-3.05292 -0.93763,-5.42073 -1.04463,-2.90464 -2.47354,-5.58957 -4.34795,-8.16985 -4.35534,-5.99546 -6.00407,-9.46105 -6.77297,-14.23662 -0.91654,-5.69257 0.58529,-12.56619 3.53176,-16.1643 1.93298,-2.36046 3.59745,-3.63268 6.14554,-4.69728 0.83141,-0.34736 1.21526,-0.61068 0.89545,-0.61427 -0.30787,-0.003 -1.43896,0.43188 -2.51354,0.96741 -4.22428,2.10521 -7.48576,6.81409 -8.42903,12.16974 -0.44232,2.51137 -0.39043,7.60396 0.0987,9.69002 0.46977,2.00333 1.95552,5.7706 2.99482,7.59363 0.37331,0.65485 1.47517,2.38125 2.44857,3.83646 2.63883,3.94499 4.63617,7.66561 5.61862,10.46629 0.79354,2.26214 0.86809,2.72964 0.78865,4.94569 -0.12547,3.49999 -0.62545,3.14658 -0.56148,-0.39687 z m 4.29753,-8.40052 1.45875,-2.64584 -3.05476,-0.0748 c -1.68012,-0.0412 -3.10955,-0.0201 -3.17652,0.0469 -0.067,0.067 0.54427,1.28756 1.35831,2.71242 0.81404,1.42486 1.48007,2.70749 1.48007,2.85028 0,0.47517 0.44978,-0.19663 1.93415,-2.88892 z m -2.10786,1.03643 c -0.10508,-0.279 -0.5164,-1.06227 -0.91404,-1.74062 -0.39764,-0.67834 -0.68318,-1.27365 -0.63454,-1.32291 0.0487,-0.0493 0.93804,-0.0498 1.97643,-0.001 l 1.88797,0.0884 -0.83559,1.49914 c -1.07506,1.9288 -1.24593,2.09932 -1.48023,1.47725 z m 3.5653,7.62867 c -0.0774,-2.36981 -0.0159,-2.75853 0.75638,-4.77786 0.97057,-2.53784 3.12041,-6.41749 5.7141,-10.3118 4.37202,-6.56439 5.84641,-10.82135 5.83899,-16.85878 -0.005,-4.07831 -0.63261,-7.08376 -2.08254,-9.97285 -2.19376,-4.37122 -4.73029,-6.8631 -8.47265,-8.32351 -1.61242,-0.62923 -2.21285,-0.71854 -4.88129,-0.72603 -2.6599,-0.007 -3.25914,0.0772 -4.76302,0.67297 -1.75118,0.69374 -2.83192,1.34266 -4.69928,2.82164 l -1.04543,0.828 0.0121,-1.24907 c 0.007,-0.68699 0.0579,-1.04071 0.1139,-0.78605 0.16411,0.74677 1.12129,0.58532 1.12129,-0.18912 0,-0.38136 0.21972,-0.76975 0.52916,-0.93535 0.29796,-0.15947 0.52917,-0.554 0.52917,-0.90296 0,-0.34086 0.1786,-0.76797 0.39688,-0.94913 0.45039,-0.37379 0.56569,-2.91041 0.13229,-2.91041 -0.14552,0 -0.26459,0.46922 -0.26459,1.04271 0,0.5735 -0.11906,1.11631 -0.26458,1.20624 -0.14552,0.0899 -0.26458,-0.0729 -0.26458,-0.36182 0,-0.47725 -0.2119,-0.53349 -2.31511,-0.61436 -1.2733,-0.0489 -2.6644,-2.1e-4 -3.09133,0.10833 -1.1121,0.28274 -1.11266,0.0889 -0.001,-0.48657 0.52859,-0.27371 1.1877,-0.61519 1.46466,-0.75884 0.27697,-0.14364 0.50358,-0.352 0.50358,-0.46302 0,-0.11101 0.1786,-0.20184 0.39688,-0.20184 0.21828,0 0.39687,-0.11906 0.39687,-0.26458 0,-0.14553 0.35719,-0.26459 0.79375,-0.26459 0.60241,0 0.79375,-0.12074 0.79375,-0.50086 0,-0.59834 0.52145,-0.84372 1.33878,-0.62999 0.41382,0.10822 0.53783,0.0617 0.40562,-0.15226 -0.10843,-0.17544 -8.2e-4,-0.38089 0.24991,-0.4771 0.24253,-0.0931 0.53466,-0.0164 0.65028,0.17069 0.15471,0.25032 0.49385,0.077 1.28943,-0.65914 0.59373,-0.54934 1.02864,-1.08112 0.96646,-1.18173 -0.0622,-0.10061 0.38735,-0.39719 0.99896,-0.65906 2.0565,-0.88053 2.96331,-1.30606 3.0964,-1.45301 0.2978,-0.32884 2.69707,-1.3367 3.18208,-1.3367 0.28714,0 0.52208,-0.11907 0.52208,-0.26459 0,-0.16997 2.60174,-0.26458 7.27605,-0.26458 h 7.27604 v 32.80833 32.80834 h -7.25789 -7.25788 z m -39.11034,-53.4895 v -9.54748 h 9.44715 9.44715 l -1.133,1.0565 c -0.62315,0.58108 -1.2875,1.14663 -1.47634,1.25677 -0.18884,0.11015 -1.162,0.94291 -2.16259,1.85058 -1.00058,0.90766 -2.05718,1.82066 -2.34799,2.02888 -0.29082,0.20822 -0.44211,0.46524 -0.3362,0.57114 0.1059,0.1059 0.80698,-0.39038 1.55795,-1.10285 0.75097,-0.71247 1.58687,-1.50376 1.85755,-1.75842 0.27069,-0.25466 0.57153,-0.46302 0.66854,-0.46302 0.097,0 0.48397,-0.28795 0.8599,-0.6399 0.37593,-0.35194 1.20388,-1.12585 1.83989,-1.71979 l 1.15638,-1.07989 9.16237,0.008 9.16237,0.008 -3.43959,1.737 c -4.83393,2.44117 -8.93782,4.72939 -11.16669,6.22627 -1.04846,0.70412 -2.03072,1.28023 -2.18282,1.28023 -0.15209,0 -0.27653,0.11906 -0.27653,0.26458 0,0.14552 -0.15213,0.26458 -0.33807,0.26458 -0.18594,0 -0.52683,0.20836 -0.75752,0.46302 -0.2307,0.25466 -0.80539,0.76068 -1.27709,1.12448 -0.4717,0.3638 -0.99402,0.78191 -1.16071,0.92913 -0.16669,0.14722 -0.63049,0.41256 -1.03067,0.58964 -0.40018,0.17708 -0.7276,0.44359 -0.7276,0.59223 0,0.14864 -0.19991,0.27025 -0.44424,0.27025 -0.24433,0 -0.82593,0.41672 -1.29245,0.92604 -0.6216,0.67863 -1.06844,0.92605 -1.67244,0.92605 -0.55624,0 -0.82421,-0.12904 -0.82421,-0.39688 0,-0.21828 -0.11906,-0.39687 -0.26458,-0.39687 -0.14552,0 -0.26458,0.17859 -0.26458,0.39687 0,0.21828 0.11906,0.39688 0.26458,0.39688 0.41848,0 0.3078,1.05291 -0.15984,1.52055 -0.34006,0.34006 -0.52341,0.36259 -0.92245,0.11339 -0.27392,-0.17107 -0.67824,-0.31103 -0.8985,-0.31103 -0.22025,0 -0.40046,-0.16867 -0.40046,-0.37482 0,-0.20616 -0.10062,-0.41452 -0.22359,-0.46302 -0.12298,-0.0485 -0.7706,-0.5583 -1.43917,-1.13286 l -1.21558,-1.04466 0.43788,-0.74128 c 0.24084,-0.4077 0.53128,-0.74127 0.64542,-0.74127 0.11415,0 0.20754,-0.23813 0.20754,-0.52917 0,-0.78707 -0.28491,-0.64563 -1.45521,0.72244 -0.58208,0.68045 -1.31145,1.50128 -1.62082,1.82407 -0.30936,0.32278 -0.84353,0.98159 -1.18705,1.46401 -0.34351,0.48242 -0.80477,1.07459 -1.02501,1.31594 -0.22025,0.24135 -0.66834,0.75909 -0.99577,1.15053 l -0.59531,0.71171 z"
         id="path391" /><path
         style="fill:#afc6da"
         d="m 162.32188,194.47637 c 0,-0.14133 0.53578,-1.1632 1.19062,-2.27082 0.65485,-1.10762 1.19063,-2.07602 1.19063,-2.152 0,-0.076 0.30559,-0.74657 0.67909,-1.49019 1.60642,-3.19832 2.73882,-9.56358 1.96532,-11.04716 -0.42401,-0.81326 -0.28324,-0.67563 0.88836,0.86856 0.52004,0.68541 1.26384,1.87437 1.65289,2.64213 0.38906,0.76775 0.99393,1.84986 1.34418,2.40468 0.54734,0.86705 2.20915,4.8075 2.19736,5.21032 -0.002,0.0761 -0.13253,-0.0403 -0.28955,-0.25855 -0.24244,-0.33703 -0.26352,-0.32833 -0.13979,0.0577 0.0801,0.25 0.0454,0.51655 -0.0772,0.59234 -0.12262,0.0758 -0.28338,-0.0933 -0.35724,-0.37572 -0.0738,-0.28243 0.002,-0.56386 0.16836,-0.62541 0.21952,-0.0812 0.22313,-0.19687 0.0131,-0.42127 -0.21597,-0.23077 -0.58565,0.0801 -1.45521,1.2237 -0.64112,0.84318 -1.30285,1.67873 -1.4705,1.85677 -0.16764,0.17805 -0.57808,0.77336 -0.91207,1.32292 -0.334,0.54956 -0.67327,1.05874 -0.75394,1.1315 -0.0807,0.0728 -0.31544,0.45971 -0.5217,0.85989 -0.36851,0.71498 -0.41788,0.72761 -2.84385,0.72761 -1.42069,0 -2.46883,-0.1091 -2.46883,-0.25697 z m 12.1887,-2.5873 c 0.0457,-2.52907 -0.0279,-3.04952 -0.6636,-4.69636 -1.0102,-2.61694 -2.73235,-5.72913 -5.70992,-10.31875 -2.63349,-4.05924 -3.63875,-6.06352 -4.91003,-9.78958 -1.39659,-4.09335 -1.15275,-10.88547 0.54238,-15.10798 2.50133,-6.23074 6.90453,-9.72555 12.70768,-10.08606 5.64609,-0.35075 10.33527,2.64741 13.2776,8.4894 1.2246,2.43144 1.91895,5.27298 2.11,8.63485 0.33679,5.92687 -1.28476,10.9804 -5.57811,17.38402 -2.85936,4.26478 -4.70151,7.55265 -5.83326,10.41117 -0.93264,2.35562 -0.98742,2.65581 -0.95098,5.21158 l 0.0387,2.71198 h -1.99498 -1.99498 v -2.87304 c 0,-2.68378 -0.0673,-3.05416 -1.02181,-5.6224 -1.08321,-2.91453 -2.5917,-5.58013 -5.59862,-9.8931 -1.5886,-2.27861 -3.26509,-5.3018 -3.96152,-7.14376 -0.11004,-0.29104 -0.33926,-0.87382 -0.50938,-1.29508 -0.60918,-1.50844 -1.07941,-4.83907 -1.07945,-7.64576 -9e-5,-5.54512 1.4486,-9.89016 4.3652,-13.09251 1.76121,-1.93376 3.28306,-3.04047 5.37802,-3.91098 0.86108,-0.3578 1.26277,-0.62869 0.94176,-0.63511 -0.30787,-0.006 -1.43896,0.42698 -2.51354,0.96251 -3.36093,1.67495 -6.13377,4.98871 -7.59825,9.08048 -0.7287,2.03597 -0.84835,2.66313 -1.09427,5.73572 -0.50519,6.31169 1.08786,11.47818 5.61462,18.20907 2.80686,4.17354 4.80227,7.85925 5.80961,10.73087 0.79354,2.26214 0.86809,2.72964 0.78865,4.94569 -0.12547,3.49999 -0.62545,3.14658 -0.56148,-0.39687 z m 4.29753,-8.40052 1.45875,-2.64584 -3.05476,-0.0748 c -1.68012,-0.0412 -3.10811,-0.0215 -3.17331,0.0437 -0.0652,0.0652 0.57581,1.36849 1.42446,2.89619 0.84865,1.5277 1.6202,2.69866 1.71455,2.60213 0.0944,-0.0965 0.82799,-1.36613 1.63031,-2.82133 z m -2.69215,-0.10429 c -0.45622,-0.87661 -0.8295,-1.65824 -0.8295,-1.73696 0,-0.0787 0.8448,-0.14313 1.87734,-0.14313 h 1.87734 l -0.84812,1.52135 c -0.46647,0.83675 -0.938,1.61838 -1.04784,1.73696 -0.10985,0.11859 -0.573,-0.50161 -1.02922,-1.37822 z m 14.51713,-17.24225 c 2.06969,-7.28112 -0.20187,-16.55143 -5.02788,-20.51886 -0.57924,-0.47619 -0.32968,-0.10363 0.66636,0.99483 1.66867,1.84023 3.22853,4.64505 3.95133,7.10494 1.03424,3.51979 1.02963,8.94826 -0.0108,12.7 -0.67253,2.4252 -0.70055,2.57197 -0.40095,2.10034 0.14436,-0.22726 0.51422,-1.29882 0.82191,-2.38125 z M 177.66771,161.925 c 0,-0.58208 -0.11906,-1.05833 -0.26458,-1.05833 -0.14552,0 -0.26459,-0.17859 -0.26459,-0.39688 0,-0.29794 0.31826,-0.39687 1.2768,-0.39687 1.01982,0 1.40187,-0.13313 1.8982,-0.66146 0.34178,-0.3638 0.80902,-0.66495 1.03831,-0.66921 0.47802,-0.009 2.13669,-1.43772 2.13669,-1.8406 0,-0.14757 0.1786,-0.26831 0.39688,-0.26831 0.28663,0 0.39687,-0.29399 0.39687,-1.05834 0,-0.76435 -0.11024,-1.05833 -0.39687,-1.05833 -0.21828,0 -0.39688,0.17859 -0.39688,0.39687 0,0.28664 -0.29398,0.39688 -1.05833,0.39688 -0.76435,0 -1.05833,-0.11024 -1.05833,-0.39688 0,-0.24694 -0.24989,-0.39687 -0.66146,-0.39687 -0.59531,0 -0.66146,0.10583 -0.66146,1.05833 0,0.76435 -0.11024,1.05834 -0.39687,1.05834 -0.27749,0 -0.39688,-0.2797 -0.39688,-0.92978 0,-0.71211 0.2013,-1.11289 0.8599,-1.71203 1.05583,-0.96051 1.25677,-0.98231 1.25677,-0.13632 0,0.57146 0.11699,0.6604 0.85989,0.6537 l 0.8599,-0.008 -0.8599,-0.78227 c -0.86525,-0.78714 -1.09898,-1.31889 -0.57969,-1.31889 0.15411,0 0.19875,-0.13177 0.0992,-0.29283 -0.12644,-0.20459 -0.24696,-0.18606 -0.39996,0.0615 -0.16935,0.27401 -0.40966,0.17545 -1.06008,-0.43477 -0.55629,-0.5219 -0.88157,-0.67711 -0.96062,-0.45838 -0.0679,0.18795 -0.56691,0.33073 -1.1558,0.33073 -0.74475,0 -1.03629,0.11165 -1.03629,0.39688 0,0.21828 -0.11906,0.39687 -0.26458,0.39687 -0.14552,0 -0.26458,0.47625 -0.26458,1.05834 0,0.99953 -0.0441,1.05833 -0.79375,1.05833 h -0.79375 v 2.39833 c 0,2.29488 -0.0316,2.42489 -0.73179,3.01409 -0.64082,0.53921 -0.71973,0.76732 -0.63482,1.835 l 0.097,1.21925 h 1.95773 1.95773 z m 2.58962,30.36094 c -0.0654,-2.10536 0.0254,-2.74051 0.65015,-4.54477 0.847,-2.4462 2.77378,-5.93261 6.14822,-11.12488 3.42546,-5.27079 4.93764,-9.04579 5.48583,-13.69484 0.57211,-4.8518 -0.47299,-10.18849 -2.75993,-14.09332 -2.65021,-4.5251 -5.86594,-6.77026 -11.23007,-7.8406 -1.71365,-0.34193 -3.41158,-0.12448 -5.7403,0.73517 -0.56101,0.2071 -1.27539,0.30516 -1.5875,0.21792 -0.38838,-0.10855 -0.45746,-0.0821 -0.21889,0.0838 0.26119,0.18164 0.1491,0.32504 -0.44705,0.57198 -0.4376,0.18126 -0.92052,0.25238 -1.07316,0.15804 -0.15475,-0.0956 -0.22342,-0.0191 -0.15524,0.17296 0.0673,0.18946 -0.39224,0.73142 -1.02111,1.20436 -1.46186,1.0994 -1.75157,1.10111 -0.63771,0.004 0.47796,-0.47087 0.95753,-0.82832 1.0657,-0.79433 0.10818,0.034 0.15889,-0.1859 0.11269,-0.48863 -0.0497,-0.32533 0.22157,-0.87754 0.66321,-1.35032 0.41096,-0.43994 0.74721,-1.02542 0.74721,-1.30107 0,-0.27565 0.11906,-0.50119 0.26458,-0.50119 0.14552,0 0.26458,0.16558 0.26458,0.36796 0,0.43765 3.76762,0.74054 4.63021,0.37223 0.4809,-0.20534 0.47483,-0.21545 -0.0665,-0.11087 -0.32762,0.0633 -0.52895,0.007 -0.4474,-0.12483 0.0815,-0.13195 0.31037,-0.2399 0.50851,-0.2399 0.19813,0 0.44127,-0.36896 0.54031,-0.8199 0.19552,-0.8902 0.6514,-0.73229 0.72549,0.25128 0.0236,0.31274 0.18495,0.56862 0.35864,0.56862 0.18554,0 0.25872,-0.21828 0.17742,-0.52917 -0.12999,-0.49707 -0.008,-0.52917 2.00914,-0.52917 1.61815,0 2.14753,0.0874 2.14753,0.35441 0,0.37144 1.07047,0.96851 1.73641,0.96851 0.98691,0 2.49692,0.67898 2.49692,1.12275 0,0.2894 0.20101,0.46475 0.53276,0.46475 0.29301,0 0.7395,0.10453 0.99219,0.23228 1.21777,0.61569 2.51101,1.09064 2.96973,1.09064 0.27939,0 1.19809,0.65407 2.04155,1.45349 0.84346,0.79943 1.62286,1.45427 1.732,1.45521 0.10914,9.4e-4 0.19844,0.18031 0.19844,0.39859 0,0.21828 0.17859,0.39687 0.39687,0.39687 0.34727,0 0.39688,1.5875 0.39688,12.7 0,11.1125 -0.0496,12.7 -0.39688,12.7 -0.24505,0 -0.39687,0.24859 -0.39687,0.64982 0,0.59226 -1.3773,3.26859 -1.84416,3.58352 -0.10786,0.0728 -0.53573,0.87643 -0.95083,1.78593 -0.41509,0.90951 -0.849,1.65365 -0.96424,1.65365 -0.11524,0 -0.20952,0.34261 -0.20952,0.76135 0,0.41875 -0.191,0.91987 -0.42444,1.11361 -0.49691,0.4124 -0.92071,1.39077 -1.05926,2.44535 -0.13704,1.04316 -0.37884,1.37149 -0.68744,0.93346 -0.17352,-0.24629 -0.20134,-0.1236 -0.0886,0.3908 0.10687,0.4877 0.0681,0.69032 -0.11089,0.57969 -0.15135,-0.0935 -0.27519,-0.0575 -0.27519,0.08 0,0.13752 -0.4529,0.94822 -1.00645,1.80155 -2.64788,4.08186 -2.95066,4.59421 -2.71495,4.59421 0.13901,0 0.79602,-0.68461 1.46002,-1.52135 1.75372,-2.20997 1.77272,-2.23051 1.92389,-2.07934 0.0761,0.0761 0.0411,0.35178 -0.0777,0.61272 -0.1188,0.26093 -0.2332,0.59349 -0.25423,0.73901 -0.20496,1.41876 -0.50589,2.24896 -0.81521,2.24896 -0.21554,0 -0.36743,0.27344 -0.36743,0.66146 0,0.4176 -0.14938,0.66146 -0.40518,0.66146 -0.22285,0 -0.47371,0.17859 -0.55747,0.39687 -0.11749,0.30617 -0.62731,0.39688 -2.23073,0.39688 h -2.07843 z m -34.8501,-14.05603 c -1.20641,-0.71007 -2.37519,-1.959 -2.57379,-2.75027 -0.21605,-0.86083 0.10724,-3.80488 0.45576,-4.15035 0.1945,-0.19279 0.2269,-0.14029 0.10731,0.17391 -0.10667,0.28026 0.0871,0.78884 0.51349,1.34789 0.8326,1.09161 0.96834,2.82864 0.22177,2.83813 -0.40427,0.005 -0.39186,0.0639 0.0978,0.46302 0.30846,0.25143 0.69179,0.69526 0.85185,0.98631 0.27589,0.50168 0.29196,0.49481 0.30941,-0.1323 0.0175,-0.63101 0.035,-0.62334 0.37879,0.16668 0.543,1.24774 0.82945,1.25328 1.1929,0.0231 0.38282,-1.29573 1.25918,-2.52975 2.74773,-3.86914 0.58121,-0.52296 1.18604,-1.06991 1.34407,-1.21543 1.51196,-1.39231 7.36171,-4.63021 8.36516,-4.63021 0.23811,0 0.51575,-0.0828 0.61697,-0.18404 0.10123,-0.10123 0.38196,-0.2131 0.62385,-0.2486 0.24189,-0.0355 0.71202,-0.13287 1.04474,-0.21638 0.49589,-0.12446 0.63793,-0.0204 0.78794,0.57728 0.32044,1.27675 2.37099,5.75556 3.3143,7.23911 0.50066,0.78737 1.01299,1.61019 1.13851,1.82847 0.12553,0.21828 -0.47656,-0.26768 -1.33796,-1.07991 -1.95044,-1.83911 -2.20656,-1.97433 -4.99303,-2.63612 -2.815,-0.66856 -6.24147,-0.73193 -7.99966,-0.14796 -1.84758,0.61367 -3.78959,2.42095 -4.79419,4.46158 -0.45907,0.9325 -0.98581,1.69407 -1.17053,1.69238 -0.18473,-0.002 -0.74418,-0.24341 -1.24322,-0.53715 z m -1.04459,-8.76428 c -0.12386,-3.04703 -0.0149,-4.15645 0.50899,-5.1834 0.85341,-1.67282 1.91347,-3.03358 3.19443,-4.10059 0.63742,-0.53095 1.21848,-1.05103 1.29124,-1.15573 0.24563,-0.35347 5.206,-3.73718 9.10531,-6.21119 0.86057,-0.54601 1.72811,-1.15617 1.92785,-1.35592 0.19975,-0.19974 0.71603,-0.57161 1.1473,-0.82636 0.43126,-0.25476 0.78412,-0.61612 0.78412,-0.80303 0,-0.1869 0.11058,-0.33982 0.24574,-0.33982 0.13516,0 0.68091,-0.41042 1.21278,-0.91204 1.63781,-1.54465 1.83922,-1.64368 1.01285,-0.49802 -0.43777,0.60692 -1.00417,1.64872 -1.25867,2.31511 -0.25449,0.66639 -0.54642,1.21161 -0.64872,1.21161 -0.1023,0 -0.20688,0.20836 -0.2324,0.46302 -0.0255,0.25467 -0.28716,1.53459 -0.58142,2.84427 -0.29426,1.30969 -0.54124,2.73844 -0.54884,3.175 -0.0136,0.78322 -0.0183,0.78574 -0.34893,0.19014 -0.1843,-0.33198 -0.41821,-0.5205 -0.51979,-0.41892 -0.10158,0.10158 -0.18468,-0.0168 -0.18468,-0.26308 0,-0.41402 -0.0608,-0.4163 -0.80737,-0.0303 -0.44405,0.22962 -0.86619,0.5708 -0.93809,0.75817 -0.0719,0.18737 -0.89921,0.7388 -1.83847,1.2254 -0.93926,0.48661 -1.70774,0.95947 -1.70774,1.05082 0,0.18919 -0.48387,0.7013 -2.2201,2.34967 -0.67072,0.63678 -1.21948,1.31547 -1.21948,1.50821 0,0.19274 -0.14918,0.44565 -0.3315,0.56202 -0.18233,0.11637 -0.67477,0.7176 -1.09432,1.33606 -0.41955,0.61847 -0.79487,1.12448 -0.83404,1.12448 -0.0392,0 -0.008,-0.74414 0.0693,-1.65364 l 0.14056,-1.65365 -0.78785,1.05833 c -0.43332,0.58209 -1.10887,1.37522 -1.50121,1.76251 -0.43124,0.42569 -0.60372,0.77193 -0.43613,0.87551 0.61851,0.38227 0.23908,0.6861 -0.64881,0.51953 -0.60702,-0.11388 -0.92604,-0.0724 -0.92604,0.1203 0,0.16172 0.17859,0.29403 0.39687,0.29403 0.21828,0 0.39688,0.11906 0.39688,0.26458 0,0.14552 -0.34727,0.26459 -0.77171,0.26459 -0.42443,0 -0.82902,0.14882 -0.89907,0.33073 -0.0701,0.1819 -0.13705,0.0926 -0.14888,-0.19844 z m -1.06007,-27.18594 c -0.0169,-0.25466 -0.20928,-0.46302 -0.42757,-0.46302 -0.28522,0 -0.39687,-0.29153 -0.39687,-1.03629 0,-0.56995 -0.13368,-1.08084 -0.29707,-1.1353 -0.43344,-0.14448 0.96698,-2.78053 1.58064,-2.9753 0.34784,-0.1104 0.54563,-0.49364 0.64776,-1.25509 0.0809,-0.6029 0.33424,-1.20094 0.56306,-1.32899 0.22881,-0.12806 0.41603,-0.45511 0.41603,-0.7268 0,-0.27168 0.0914,-0.53365 0.20321,-0.58216 0.11178,-0.0485 0.6153,-0.74304 1.11894,-1.5434 0.50364,-0.80037 1.05853,-1.60404 1.23309,-1.78594 0.23514,-0.24504 1.83282,-0.33073 6.16631,-0.33073 h 5.84894 l -0.90403,0.79375 c -0.49722,0.43656 -0.97761,0.79375 -1.06754,0.79375 -0.0899,0 -0.38068,0.20836 -0.64611,0.46302 -0.26544,0.25466 -1.17762,1.05833 -2.02707,1.78594 -0.84946,0.7276 -1.69534,1.47174 -1.87975,1.65364 -0.1844,0.1819 -0.39338,0.33073 -0.46439,0.33073 -0.071,0 -1.31641,1.19063 -2.76755,2.64584 -1.45115,1.4552 -2.77077,2.64583 -2.9325,2.64583 -0.16173,0 -0.29405,0.17859 -0.29405,0.39687 0,0.4694 -0.41838,0.52562 -0.68623,0.0922 -0.13047,-0.2111 -0.29778,-0.15494 -0.54479,0.18287 -0.47847,0.65434 -0.45326,1.06066 0.0404,0.65097 0.59481,-0.49365 0.47848,0.10871 -0.12677,0.65646 -0.47719,0.43185 -0.53839,0.43549 -0.68977,0.041 -0.22391,-0.5835 -1.36016,-0.5609 -1.51462,0.0301 -0.11524,0.44097 -0.12246,0.44097 -0.15169,0 z m 2.08598,-1.36742 c 0,-0.20638 0.0723,-0.56357 0.16059,-0.79375 0.13213,-0.34431 -0.0555,-0.41852 -1.05833,-0.41852 -1.17798,0 -1.21893,0.0267 -1.21893,0.79375 0,0.74966 0.0588,0.79375 1.05833,0.79375 0.73723,0 1.05834,-0.11385 1.05834,-0.37523 z m -4.22492,-6.70237 -0.008,-5.09323 h 3.19062 c 3.46097,0 3.3578,-0.0707 2.19431,1.5037 -0.34234,0.46323 -0.62243,0.95933 -0.62243,1.10243 0,0.1431 -0.10156,0.29988 -0.2257,0.34838 -0.12414,0.0485 -0.89575,1.21929 -1.7147,2.60174 -0.81895,1.38245 -1.61035,2.65734 -1.75867,2.8331 -0.14832,0.17576 -0.26968,0.4209 -0.26968,0.54475 0,0.12384 -0.1748,0.45629 -0.38846,0.73877 -0.34597,0.45742 -0.38938,-0.0434 -0.39687,-4.57964 z m 34.87668,2.24896 c -0.0219,-0.32743 -0.0157,-0.91272 0.0139,-1.30066 0.0387,-0.50701 -0.0989,-0.75383 -0.48927,-0.87773 -0.29871,-0.0948 -0.54311,-0.39256 -0.54311,-0.66167 0,-0.2691 -0.14883,-0.54934 -0.33073,-0.62274 -0.1819,-0.0734 -0.0103,-0.14285 0.38126,-0.15434 0.39159,-0.0115 0.78557,0.0982 0.87551,0.2437 0.0899,0.14552 0.56493,0.26458 1.05555,0.26458 0.7223,0 0.90811,0.11276 0.97657,0.59261 0.0491,0.34389 0.30664,0.63346 0.61371,0.68993 0.75202,0.13831 1.19063,0.55499 1.19063,1.13111 0,0.41861 -0.20467,0.49677 -1.30087,0.49677 -0.79939,0 -1.34779,-0.1275 -1.42259,-0.33073 -0.0669,-0.1819 -0.20883,-0.003 -0.31531,0.39687 -0.23373,0.87843 -0.65006,0.95652 -0.7053,0.1323 z m -9.4851,-1.46844 c 0,-0.11642 0.14288,-0.35454 0.3175,-0.52917 0.24695,-0.24694 0.24695,-0.3175 0,-0.3175 -0.17462,0 -0.3175,-0.17859 -0.3175,-0.39687 0,-0.28663 -0.29398,-0.39688 -1.05833,-0.39688 -0.9525,0 -1.05834,-0.0661 -1.05834,-0.66146 0,-0.59531 -0.10583,-0.66145 -1.05833,-0.66145 -1.64477,0 -1.24569,-0.43421 0.57388,-0.62439 0.89772,-0.0938 1.70139,-0.2401 1.78594,-0.32505 0.0846,-0.0849 -0.14393,-0.39694 -0.50774,-0.69332 l -0.66145,-0.53887 -0.0837,0.69394 c -0.0813,0.67409 -0.1362,0.69394 -1.91823,0.69394 -2.01087,0 -2.30672,-0.28508 -1.04243,-1.0045 0.43564,-0.24789 0.79283,-0.60212 0.79375,-0.78717 0.001,-0.26547 1.71822,-0.33082 8.13761,-0.30977 7.74778,0.0254 8.08544,0.047 7.0776,0.4516 -0.58208,0.23371 -1.09802,0.52193 -1.14653,0.6405 -0.0485,0.11857 -0.21772,0.21559 -0.37604,0.21559 -0.15832,0 -0.47582,0.15841 -0.70556,0.35203 -0.22973,0.19362 -1.01302,0.56966 -1.74062,0.83563 -0.7276,0.26598 -1.40858,0.61358 -1.51328,0.77245 -0.13526,0.20523 -0.34588,0.19246 -0.72761,-0.0441 -0.31744,-0.19674 -0.53724,-0.2238 -0.53724,-0.0661 0,0.14675 0.13891,0.26682 0.30869,0.26682 0.16977,0 0.22543,0.0832 0.12368,0.185 -0.10175,0.10175 -0.7169,0.15228 -1.36701,0.11231 -0.71202,-0.0438 -1.18202,0.0405 -1.18202,0.21188 0,0.15651 -0.29766,0.28456 -0.66146,0.28456 -0.41157,0 -0.66146,0.14993 -0.66146,0.39688 0,0.51039 0.38538,0.50328 1.18693,-0.0219 0.35152,-0.23033 0.82754,-0.37916 1.0578,-0.33073 0.24469,0.0515 -0.24442,0.44538 -1.17703,0.94795 -1.71099,0.92202 -1.86145,0.97442 -1.86145,0.64823 z"
         id="path390" /><path
         style="fill:#a2b8cb"
         d="m 162.32188,194.45553 c 0,-0.13825 0.0893,-0.25229 0.19844,-0.25342 0.10914,-0.001 0.32726,-0.26903 0.48471,-0.59532 0.15746,-0.32628 0.72301,-1.39182 1.25678,-2.36785 0.53376,-0.97604 0.97048,-2.01783 0.97048,-2.31511 0,-0.29727 0.10929,-0.54049 0.24286,-0.54049 0.33743,0 1.53528,-3.74234 1.86313,-5.82084 0.1492,-0.94588 0.27217,-2.42556 0.27327,-3.28817 l 0.002,-1.56838 1.18919,1.70067 c 0.65405,0.93537 1.13166,1.85569 1.06136,2.04515 -0.0703,0.18946 -0.0288,0.28329 0.0922,0.20851 0.24541,-0.15167 2.68983,4.32889 2.67486,4.90294 -0.0121,0.46301 -1.31031,2.06758 -1.31208,1.62168 -7.3e-4,-0.1819 -0.1055,-0.33073 -0.23283,-0.33073 -0.12733,0 -0.23151,0.27891 -0.23151,0.61981 0,0.34089 -0.21624,0.87236 -0.48054,1.18103 -0.38849,0.45373 -0.55527,0.49972 -0.87071,0.24009 -0.33165,-0.27297 -0.36413,-0.21655 -0.21655,0.37619 0.11655,0.46812 0.044,0.8049 -0.22069,1.02459 -0.21688,0.17999 -0.39432,0.47281 -0.39432,0.65072 0,0.32558 -1.02362,1.38866 -1.2184,1.26538 -0.0575,-0.0364 -0.31288,-0.0624 -0.56754,-0.0577 -0.43878,0.008 -0.43854,0.027 0.005,0.36326 0.25719,0.19516 0.40082,0.5289 0.31919,0.74163 -0.11364,0.29614 -0.7038,0.39394 -2.51814,0.41727 -1.34169,0.0173 -2.36971,-0.0786 -2.36971,-0.22088 z m 12.19008,-2.56646 c 0.0593,-2.54713 -0.008,-3.03211 -0.64021,-4.64217 -1.31461,-3.34582 -2.63212,-5.70212 -6.38561,-11.42034 -2.42662,-3.6968 -4.19673,-7.75661 -4.88445,-11.2026 -0.38932,-1.95083 -0.34753,-6.10705 0.0883,-8.78437 0.40633,-2.49593 1.59904,-5.45075 3.09717,-7.67292 3.9401,-5.84436 11.07639,-7.94617 17.01026,-5.00995 3.12223,1.54496 4.96835,3.42655 6.78803,6.91846 1.35746,2.60492 2.07943,5.43389 2.28139,8.93941 0.33571,5.8268 -1.26293,10.83879 -5.4855,17.19791 -2.98616,4.49711 -4.78137,7.70518 -5.9516,10.63559 -0.93247,2.33503 -0.98012,2.6004 -0.92892,5.17327 l 0.054,2.71198 h -2.00189 -2.00189 v -2.90684 c 0,-2.72874 -0.0626,-3.07321 -1.02171,-5.6224 -1.09465,-2.90941 -2.75002,-5.89952 -4.79912,-8.66868 -3.02737,-4.09121 -5.2316,-8.75328 -5.97461,-12.63663 -0.49524,-2.5884 -0.47695,-6.99485 0.0396,-9.53338 1.12458,-5.52694 4.71979,-10.19374 9.32832,-12.1087 0.86108,-0.3578 1.26277,-0.62869 0.94176,-0.63511 -0.30787,-0.006 -1.43896,0.42539 -2.51354,0.95897 -7.478,3.71321 -10.89216,14.50731 -7.64977,24.18521 0.95997,2.86531 2.37737,5.58859 4.71476,9.05854 2.65567,3.94244 4.49584,7.35442 5.5875,10.36014 0.89508,2.46448 0.95738,2.82893 0.87204,5.10148 -0.0534,1.42345 -0.20457,2.4474 -0.36118,2.4474 -0.17006,0 -0.24489,-1.04807 -0.20309,-2.84427 z m 4.19315,-8.20209 c 1.30454,-2.3307 1.50987,-2.85483 1.13719,-2.90274 -1.45174,-0.18665 -5.87914,-0.16991 -5.87897,0.0222 1.2e-4,0.12559 0.57534,1.25668 1.27828,2.51355 0.70293,1.25686 1.35404,2.49356 1.4469,2.74822 0.0929,0.25466 0.22639,0.46302 0.29672,0.46302 0.0703,0 0.84428,-1.27992 1.71988,-2.84427 z m -2.59964,-0.45901 c -0.45046,-0.79816 -0.81901,-1.51254 -0.81901,-1.5875 0,-0.075 0.77391,-0.1363 1.71979,-0.1363 0.94589,0 1.71979,0.0498 1.71979,0.11065 0,0.43678 -0.36923,0.91424 -0.59777,0.77299 -0.15591,-0.0964 -0.19986,-0.0456 -0.10018,0.11564 0.1898,0.30711 -0.59458,2.17572 -0.91329,2.17572 -0.10468,0 -0.55888,-0.65304 -1.00933,-1.4512 z m 12.55688,-11.88688 c 0.49832,-1.07855 1.28926,-3.07285 1.75765,-4.43178 0.81406,-2.36181 0.85197,-2.65162 0.85953,-6.57181 0.007,-3.47958 -0.0822,-4.41374 -0.587,-6.16457 -0.97082,-3.36736 -2.82747,-6.56404 -4.90993,-8.45366 -1.27113,-1.15341 -1.19796,-0.84647 0.12615,0.52917 2.95639,3.07147 4.53542,6.72647 4.99921,11.57171 0.45641,4.76823 -0.47981,9.46175 -2.83753,14.22517 -0.34213,0.69122 -0.55277,1.25677 -0.46809,1.25677 0.0847,0 0.56169,-0.88245 1.06001,-1.961 z m -6.05249,-1.26716 c 0.64827,-0.23441 0.87868,-0.47725 0.87868,-0.92604 0,-0.33457 0.11601,-0.6083 0.25779,-0.6083 0.14179,0 0.43667,-0.34591 0.65529,-0.76869 0.21863,-0.42277 0.58578,-0.95696 0.81589,-1.18707 0.23012,-0.23011 0.733,-1.58085 1.11751,-3.00163 0.58834,-2.17395 0.70119,-3.14917 0.71225,-6.15511 0.0104,-2.83119 -0.0596,-3.55678 -0.33752,-3.49909 -0.24073,0.05 -0.29735,-0.0952 -0.18061,-0.46302 0.0983,-0.30959 0.0508,-0.53581 -0.11235,-0.53581 -0.15533,0 -0.28512,0.14883 -0.28844,0.33073 -0.006,0.31182 -0.27202,-0.20792 -1.05079,-2.05052 -0.18451,-0.43656 -0.38932,-0.64492 -0.45513,-0.46302 -0.16712,0.46195 -0.60472,0.41408 -0.60472,-0.0662 0,-0.21828 -0.1318,-0.39687 -0.29289,-0.39687 -0.16109,0 -0.22668,-0.17253 -0.14577,-0.3834 0.0988,-0.25737 0.02,-0.33462 -0.23964,-0.23499 -0.21272,0.0816 -0.55713,0.007 -0.76535,-0.16577 -1.20807,-1.00261 -4.62315,-1.11003 -6.75843,-0.21258 -1.05107,0.44176 -3.4349,2.77728 -3.44786,3.37799 -0.005,0.21828 -0.18336,0.62799 -0.39701,0.91046 -0.21366,0.28248 -0.38847,0.82002 -0.38847,1.19454 0,0.37453 -0.25676,1.15544 -0.57058,1.73537 -0.54454,1.00629 -1.32661,4.66226 -1.35754,6.34608 -0.0297,1.61556 0.31277,2.91063 0.87451,3.3073 0.30913,0.21828 0.94114,0.71102 1.40448,1.09498 0.46333,0.38396 1.43714,0.88466 2.16401,1.11267 0.72687,0.22801 2.03596,0.7744 2.90908,1.21419 1.75886,0.88595 3.97823,1.0815 5.60361,0.49375 z m -2.29632,21.91453 c 0,-2.53435 0.0726,-2.92497 0.94659,-5.09323 0.96266,-2.38822 3.0941,-6.10421 6.50689,-11.34418 3.53963,-5.43474 5.14696,-10.7243 4.9043,-16.13959 -0.0717,-1.60073 -0.33618,-3.80338 -0.58766,-4.89479 -1.19982,-5.20703 -4.54685,-9.94665 -8.42591,-11.93167 -0.89343,-0.45719 -1.32676,-0.7473 -0.96296,-0.64469 0.36381,0.10261 0.8724,0.18351 1.1302,0.17977 0.25781,-0.004 0.39577,0.11126 0.30659,0.25557 -0.0964,0.15594 0.1428,0.22994 0.58959,0.18242 0.58984,-0.0627 0.73521,0.0189 0.67498,0.37885 -0.0536,0.32031 0.0472,0.41121 0.33409,0.30113 0.41659,-0.15986 1.19789,0.30934 1.19789,0.71938 0,0.12313 -0.20836,0.15686 -0.46302,0.0749 -0.38701,-0.12449 -0.39824,-0.10322 -0.0684,0.12958 0.25168,0.17762 0.48653,0.18666 0.64823,0.025 0.42908,-0.42908 1.32597,-0.2814 1.67383,0.2756 0.18176,0.29104 0.43912,0.52917 0.57192,0.52917 0.39085,0 2.66448,2.38843 2.66448,2.79901 0,0.2068 0.17554,0.37599 0.39008,0.37599 0.21455,0 0.57479,0.35719 0.80055,0.79375 0.22575,0.43656 0.52646,0.79375 0.66825,0.79375 0.14178,0 0.25779,0.36092 0.25779,0.80205 0,0.46886 0.16487,0.86532 0.39687,0.95435 0.34075,0.13076 0.39688,1.29079 0.39688,8.20209 0,6.91129 -0.0561,8.07132 -0.39688,8.20208 -0.25396,0.0975 -0.39687,0.5053 -0.39687,1.13262 0,0.53919 -0.2304,1.45721 -0.512,2.04005 -0.2816,0.58285 -0.59217,1.37912 -0.69014,1.76949 -0.098,0.39037 -0.34383,0.70977 -0.54634,0.70977 -0.2025,0 -0.36819,0.18021 -0.36819,0.40047 0,0.36726 -0.47773,1.40017 -0.79375,1.7162 -0.5102,0.5102 -1.32292,1.90795 -1.32292,2.27522 0,0.24451 -0.16299,0.57675 -0.3622,0.73832 -0.19922,0.16156 -0.70514,0.94859 -1.12428,1.74896 -0.41913,0.80036 -0.89233,1.59389 -1.05156,1.7634 -0.15923,0.16951 -0.43448,0.70529 -0.61168,1.19062 -0.1772,0.48534 -0.4935,1.21951 -0.70289,1.63148 -0.2094,0.41198 -0.38072,0.9705 -0.38072,1.24116 0,0.27066 -0.12741,0.57085 -0.28312,0.66709 -0.46556,0.28773 -0.74204,1.29022 -0.41339,1.49888 0.21323,0.13537 0.20398,0.27865 -0.0333,0.51593 -0.26164,0.26164 -0.32852,0.25311 -0.32852,-0.0419 0,-0.24678 -0.0883,-0.28216 -0.26441,-0.10601 -0.14542,0.14543 -0.28126,0.79432 -0.30185,1.44198 -0.0348,1.09584 -0.33659,2.05622 -0.74409,2.3682 -0.095,0.0728 -0.44411,0.57878 -0.77572,1.12448 -0.47529,0.78215 -0.76638,0.99219 -1.37509,0.99219 H 180.3135 Z M 147.4013,177.01013 c 0.22868,-1.21677 0.72953,-1.98574 2.31151,-3.54885 2.44614,-2.41697 7.13625,-5.17129 10.40647,-6.11133 1.71614,-0.49332 2.46718,-0.41721 2.46718,0.24999 0,0.61994 2.29067,5.69517 3.16548,7.01346 0.43031,0.64846 0.71782,1.24359 0.6389,1.3225 -0.0789,0.0789 -0.28257,-0.0376 -0.45257,-0.259 -0.7694,-1.00183 -2.81757,-2.34714 -4.14556,-2.72294 -2.15126,-0.60878 -5.67171,-1.02623 -7.09014,-0.84075 -3.08725,0.4037 -5.40363,1.90748 -6.69478,4.34622 -0.69657,1.31567 -0.76129,1.37445 -0.60649,0.5507 z m 0.0598,-10.83716 c -0.0485,-0.13748 -0.71327,-0.27782 -1.47725,-0.31187 -0.76399,-0.034 -1.38906,-0.12595 -1.38906,-0.20422 0,-0.26703 0.90805,-2.54047 1.1207,-2.80584 0.11661,-0.14552 0.44794,-0.55069 0.73628,-0.90037 0.28835,-0.34969 0.52452,-0.70688 0.52484,-0.79375 3.2e-4,-0.0869 0.53348,-0.51515 1.18481,-0.95171 0.65133,-0.43656 1.18685,-0.87041 1.19005,-0.96412 0.003,-0.0937 1.36108,-1.07672 3.01751,-2.18448 1.65644,-1.10776 3.1593,-2.19196 3.33969,-2.40932 0.1804,-0.21736 0.44386,-0.3952 0.58548,-0.3952 0.14162,0 0.58774,-0.23516 0.99138,-0.52258 0.40364,-0.28742 1.0471,-0.64166 1.42991,-0.7872 0.60742,-0.23094 0.69601,-0.19746 0.69601,0.26303 0,0.43409 -0.12018,0.4975 -0.67766,0.35758 -0.54522,-0.13684 -0.70639,-0.0603 -0.82461,0.39183 -0.0808,0.30906 -0.24671,0.56192 -0.36864,0.56192 -0.12194,0 -0.51816,0.29646 -0.88049,0.65879 -0.37517,0.37516 -0.82907,0.59345 -1.05429,0.50703 -0.21753,-0.0835 -0.61109,-0.0137 -0.87459,0.15493 -0.45552,0.29161 -0.45466,0.29899 0.0175,0.14987 0.27311,-0.0863 0.65696,-0.0237 0.853,0.13899 0.28683,0.23804 0.14619,0.47149 -0.72002,1.19519 -0.59206,0.49465 -1.18427,0.89937 -1.31602,0.89937 -0.13176,0 -0.23955,0.16801 -0.23955,0.37335 0,0.20535 -0.35719,0.67391 -0.79375,1.04125 -0.43657,0.36735 -0.79375,0.79465 -0.79375,0.94956 0,0.15492 -0.15468,0.28167 -0.34373,0.28167 -0.18905,0 -0.50064,0.44648 -0.69242,0.99219 -0.19179,0.5457 -0.62085,1.28984 -0.95347,1.65364 -0.33262,0.36381 -0.64904,0.89959 -0.70316,1.19063 -0.0726,0.39049 -0.26678,0.50509 -0.74094,0.43728 -0.55456,-0.0793 -0.59584,-0.0356 -0.30143,0.31914 0.18761,0.22606 0.26431,0.5353 0.17043,0.6872 -0.2127,0.34415 -0.59556,0.35824 -0.71272,0.0262 z m -5.90147,-28.55662 c 0.11692,-0.40499 0.0842,-0.56835 -0.092,-0.45943 -0.18338,0.11333 -0.28143,-1.18331 -0.29763,-3.93562 l -0.0242,-4.10463 h 3.06433 3.06434 l -0.59482,1.05833 c -0.32715,0.58209 -0.66488,1.05834 -0.75051,1.05834 -0.0856,0 -0.39113,0.44648 -0.67888,0.99218 -0.28776,0.54571 -0.72562,1.21663 -0.97302,1.49094 -0.24741,0.27432 -0.63032,0.86963 -0.85092,1.32292 -0.64062,1.31634 -2.07405,3.29519 -1.8667,2.57697 z m 12.82474,-5.19667 c 0,-0.22064 0.44648,-0.60406 0.99219,-0.85205 0.5457,-0.24799 1.03282,-0.47522 1.08249,-0.50495 0.0497,-0.0297 0.021,-0.27233 -0.0636,-0.53911 -0.12577,-0.39625 -0.37243,-0.46769 -1.34708,-0.39018 -0.94518,0.0752 -1.19312,0.009 -1.19312,-0.31792 0,-0.3329 -0.42256,-0.43144 -2.18281,-0.50902 -1.20055,-0.0529 0.11037,-0.0947 2.91315,-0.0928 2.9324,0.002 4.99715,0.10221 4.86322,0.23613 -0.128,0.12801 -0.42324,0.2607 -0.65609,0.29487 -0.39282,0.0577 -0.89658,0.43611 -3.12619,2.34859 -0.96076,0.82411 -1.28211,0.90593 -1.28211,0.32645 z"
         id="path389" /><path
         style="fill:#97a6b3"
         d="m 174.55127,192.048 c 0.12017,-2.49545 0.0748,-2.82754 -0.64166,-4.69635 -1.07417,-2.80191 -3.01991,-6.37188 -5.6934,-10.44602 -3.32349,-5.06467 -4.83679,-8.43127 -5.64407,-12.55614 -0.4126,-2.1082 -0.18004,-7.74502 0.41092,-9.9599 2.71624,-10.18035 11.69326,-15.19681 19.97632,-11.16299 7.49113,3.64816 11.02675,15.00333 7.68103,24.66883 -1.04405,3.01619 -2.07606,4.99214 -4.7511,9.09682 -3.24611,4.98093 -4.38219,7.02238 -5.48858,9.86257 -0.89717,2.30314 -0.95281,2.61982 -0.90179,5.13344 l 0.0544,2.67889 -2.00113,0.0387 -2.00113,0.0387 v -2.85197 c 0,-4.60584 -1.22593,-7.65242 -5.76554,-14.32797 -3.02971,-4.45522 -3.67863,-5.59717 -4.74109,-8.34315 -1.19207,-3.08096 -1.6642,-5.64863 -1.6642,-9.05076 0,-3.70872 0.56511,-6.31473 2.02014,-9.31585 1.97249,-4.06844 5.28402,-6.95168 9.35694,-8.14677 l 1.19063,-0.34935 -1.19063,0.1575 c -3.96493,0.5245 -7.68603,3.56919 -9.92008,8.11685 -1.60967,3.27665 -2.07641,5.53305 -2.0621,9.96893 0.01,3.08919 0.10764,3.89346 0.72278,5.95167 0.99739,3.33722 2.3405,6.06995 4.94222,10.05562 3.1676,4.85257 4.77654,7.814 5.82176,10.71562 0.83016,2.3046 0.89783,2.71699 0.81394,4.96094 -0.0558,1.49412 -0.20101,2.4474 -0.37267,2.4474 -0.18854,0 -0.23857,-0.88472 -0.15187,-2.68534 z m 4.51637,-9.00198 c 0.69721,-1.28458 1.17346,-2.34293 1.05834,-2.3519 -2.01809,-0.15716 -6.16183,-0.0572 -6.15931,0.14859 0.002,0.14552 0.31098,0.80037 0.68709,1.45521 0.37612,0.65484 1.05167,1.8946 1.50124,2.75502 l 0.81739,1.5644 0.41381,-0.61786 c 0.22759,-0.33982 0.98424,-1.66888 1.68144,-2.95346 z m -2.3603,1.03865 c -0.11154,-0.32787 -0.17921,-0.68542 -0.15038,-0.79456 0.0288,-0.10914 -0.0636,-0.19844 -0.20537,-0.19844 -0.14178,0 -0.4425,-0.35719 -0.66825,-0.79375 l -0.41047,-0.79375 1.79273,0.0307 c 0.98601,0.0169 1.57805,0.0864 1.31567,0.1544 -0.34047,0.0883 -0.40059,0.21587 -0.20996,0.44556 0.19758,0.23807 0.0958,0.32185 -0.39083,0.32185 -0.4273,0 -0.61219,-0.11921 -0.52743,-0.34009 0.10264,-0.26748 0.0255,-0.27451 -0.36133,-0.0329 -0.44634,0.27874 -0.45352,0.34547 -0.0776,0.72137 0.2909,0.2909 0.44532,0.32089 0.51871,0.10071 0.0575,-0.17242 0.27472,-0.24818 0.48277,-0.16835 0.20804,0.0798 0.31118,0.25368 0.2292,0.38633 -0.082,0.13265 -0.23605,0.1874 -0.34239,0.12168 -0.10634,-0.0657 -0.35537,0.1407 -0.5534,0.45871 -0.32843,0.52742 -0.32146,0.54631 0.0793,0.21507 0.53761,-0.44431 0.58545,-0.14202 0.0606,0.38284 -0.32866,0.32866 -0.40562,0.2999 -0.58158,-0.21734 z m 2.7971,-8.23345 c 0.28806,-0.22664 0.33561,-0.22364 0.19412,0.0123 -0.10307,0.17185 -0.0664,0.38723 0.0815,0.47864 0.1479,0.0914 0.2689,-0.0709 0.2689,-0.36058 0,-0.28972 0.35719,-0.7811 0.79375,-1.09196 0.43656,-0.31086 0.79375,-0.48299 0.79375,-0.3825 0,0.10049 0.17728,0.0356 0.39396,-0.14425 0.21668,-0.17983 0.31735,-0.45093 0.22371,-0.60245 -0.10281,-0.16634 -0.0409,-0.19551 0.15635,-0.0736 0.19884,0.1229 0.48067,-0.0181 0.72044,-0.36042 0.21661,-0.30925 0.52019,-0.48418 0.67464,-0.38873 0.16165,0.0999 0.22832,0.0176 0.15711,-0.19401 -0.068,-0.20215 0.0603,-0.50307 0.2851,-0.66869 0.22484,-0.16563 0.54847,-0.70141 0.71918,-1.19063 0.17071,-0.48922 0.43947,-0.86112 0.59725,-0.82646 0.15778,0.0347 0.41339,-0.40679 0.56801,-0.98101 0.26019,-0.9663 0.79592,-1.70509 0.79592,-1.09762 0,0.14552 -0.11906,0.33817 -0.26459,0.4281 -0.14552,0.0899 -0.26458,0.30205 -0.26458,0.47137 0,0.16931 0.18077,0.0498 0.40171,-0.26569 0.22095,-0.31544 0.37424,-0.66935 0.34067,-0.78647 -0.0336,-0.11713 0.0851,-0.47639 0.26376,-0.79838 0.17864,-0.32198 0.36374,-0.91976 0.41132,-1.32841 0.0476,-0.40864 0.20992,-0.97864 0.36076,-1.26666 0.54239,-1.03568 0.64952,-4.89379 0.20556,-7.40284 -0.4359,-2.46353 -1.80108,-5.83268 -2.25078,-5.55475 -0.14086,0.0871 -0.1916,-0.01 -0.11275,-0.21529 0.16961,-0.44201 -1.14746,-2.10366 -1.49645,-1.88797 -0.13226,0.0817 -0.24047,-0.044 -0.24047,-0.27949 0,-0.23546 -0.11906,-0.35452 -0.26458,-0.26458 -0.14552,0.0899 -0.26458,-0.009 -0.26458,-0.21882 0,-0.485 -1.66588,-1.29124 -2.22482,-1.07675 -0.23662,0.0908 -0.42102,0.0264 -0.42102,-0.14695 0,-0.16968 0.11084,-0.24 0.24631,-0.15628 0.13546,0.0837 0.30882,0.0511 0.38523,-0.0726 0.3256,-0.52683 -4.32109,-0.34266 -5.83013,0.23108 -0.36665,0.1394 -0.79411,0.17468 -0.94991,0.0784 -0.16757,-0.10356 -0.20615,-0.0503 -0.0945,0.1304 0.10383,0.16801 0.0673,0.30547 -0.0812,0.30547 -0.14848,0 -0.74148,0.47625 -1.31778,1.05833 -0.57629,0.58208 -1.17915,1.05833 -1.33969,1.05833 -0.16053,0 -0.40505,0.29766 -0.54337,0.66146 -0.13831,0.3638 -0.37349,0.66146 -0.52261,0.66146 -0.14913,0 -0.27114,0.23812 -0.27114,0.52917 0,0.29104 -0.16568,0.52916 -0.36819,0.52916 -0.2025,0 -0.44835,0.3194 -0.54633,0.70977 -0.098,0.39037 -0.40854,1.18664 -0.69014,1.76949 -0.2816,0.58285 -0.512,1.27548 -0.512,1.53919 0,0.27316 -0.19923,0.48747 -0.46302,0.49807 -0.40499,0.0163 -0.39912,0.0436 0.0468,0.21831 0.50337,0.1972 0.50337,0.20234 0,0.40668 -0.49869,0.20244 -0.49826,0.21171 0.0193,0.42455 0.48506,0.19944 0.47403,0.22088 -0.13229,0.25707 -0.3638,0.0217 -0.54156,0.0899 -0.39502,0.15151 0.39783,0.16726 0.14927,2.49203 -0.26644,2.49203 -0.61875,0 -0.60375,2.34736 0.0282,4.41372 0.31962,1.04511 0.50356,1.98681 0.40875,2.09268 -0.0948,0.10587 0.0422,0.11536 0.30438,0.0211 0.26222,-0.0943 0.41102,-0.065 0.33067,0.065 -0.0804,0.13001 0.36482,0.53579 0.98927,0.90174 0.62445,0.36595 1.70454,1.21072 2.4002,1.87726 0.69567,0.66654 1.3754,1.21189 1.51053,1.21189 0.13513,0 0.24672,0.0893 0.24799,0.19844 0.001,0.10914 0.39974,0.61765 0.88551,1.13001 0.48578,0.51237 1.02976,1.37557 1.20885,1.91823 0.36831,1.11599 0.47958,1.17577 0.97461,0.52364 0.32594,-0.42937 0.3521,-0.42036 0.3599,0.12398 0.006,0.44737 0.11856,0.54573 0.47144,0.41349 0.41742,-0.15644 0.42444,-0.12618 0.0713,0.30729 -0.36862,0.45252 -0.33746,0.46921 0.52917,0.28357 0.50647,-0.10849 1.09253,-0.33233 1.30237,-0.49743 z m 9.09045,-4.26892 c 1.94294,-3.97284 2.82425,-7.49042 2.81733,-11.2448 -0.014,-7.59458 -3.13748,-13.75085 -8.35924,-16.47581 -1.03993,-0.54268 -2.0286,-0.98669 -2.19705,-0.98669 -0.16845,0 0.62212,0.48043 1.75682,1.06761 2.34485,1.2134 3.6772,2.39328 5.06875,4.48864 1.99162,2.99894 2.85542,5.51256 3.22646,9.3889 0.46768,4.88597 -0.45534,9.37408 -2.99356,14.5559 -0.42768,0.87312 -0.65333,1.46843 -0.50145,1.32291 0.15189,-0.14552 0.68376,-1.09802 1.18194,-2.11666 z m -8.28135,20.59851 c 0,-1.96882 0.1336,-2.92175 0.58423,-4.16718 0.79836,-2.20648 1.17608,-2.90326 1.38797,-2.56041 0.0966,0.15635 0.10029,0.4063 0.008,0.55542 -0.0922,0.14913 -0.01,0.23843 0.18282,0.19844 0.45553,-0.0945 0.41622,0.3225 -0.39219,4.16053 -0.3678,1.74619 -0.61908,3.22455 -0.55839,3.28524 0.0607,0.0607 0.11035,-0.0286 0.11035,-0.19833 0,-0.16978 0.18533,-0.30868 0.41183,-0.30868 0.36005,0 0.35288,0.0998 -0.057,0.79375 -0.30331,0.51346 -0.68231,0.79375 -1.07329,0.79375 -0.58773,0 -0.60442,-0.0705 -0.60442,-2.55253 z m 4.74549,-10.13136 c 0.3136,-0.19844 0.31991,-0.3126 0.0362,-0.65449 -0.18903,-0.22777 -0.46115,-0.34154 -0.6047,-0.25282 -0.3781,0.23368 0.20914,-0.81339 1.72603,-3.07755 1.27393,-1.90152 1.55758,-2.33852 3.26298,-5.02709 0.41538,-0.65484 0.76165,-1.30968 0.7695,-1.4552 0.008,-0.14553 0.21942,-0.65154 0.47015,-1.12448 0.25074,-0.47295 0.40513,-0.8599 0.34308,-0.8599 -0.062,0 0.15795,-0.80367 0.48888,-1.78594 0.97712,-2.90031 1.28864,-5.26714 1.12856,-8.57441 -0.0799,-1.65061 -0.33893,-3.80999 -0.57562,-4.79862 -0.2367,-0.98863 -0.34862,-1.92976 -0.24872,-2.0914 0.0999,-0.16164 0.0655,-0.22211 -0.0765,-0.13437 -0.14196,0.0877 -0.45928,-0.39992 -0.70516,-1.08368 -0.24588,-0.68376 -0.80246,-1.77895 -1.23685,-2.43375 -0.43439,-0.65479 -0.79031,-1.33937 -0.79093,-1.52127 -6.3e-4,-0.1819 -0.12723,-0.33073 -0.28133,-0.33073 -0.15411,0 -0.20304,-0.12484 -0.10874,-0.27743 0.2079,-0.33638 0.9181,0.17571 0.9181,0.662 0,0.17587 0.29359,0.47689 0.65243,0.66893 0.35883,0.19205 0.58641,0.45599 0.50572,0.58655 -0.0807,0.13056 -0.0784,0.4154 0.005,0.63299 0.11656,0.30375 0.27128,0.33168 0.66624,0.1203 0.47919,-0.25645 0.49758,-0.21657 0.26851,0.58216 -0.30684,1.0699 -0.30486,1.23157 0.009,0.73526 0.19222,-0.30395 0.3656,-0.12839 0.78389,0.79375 0.2954,0.65122 0.5397,1.33286 0.54289,1.51476 0.003,0.1819 0.13876,0.33073 0.30124,0.33073 0.17245,0 0.2428,0.27534 0.16898,0.66146 -0.0695,0.3638 -0.011,0.66146 0.13013,0.66146 0.14449,0 0.18274,0.31787 0.0876,0.7276 -0.13266,0.5711 -0.10592,0.64224 0.12432,0.33073 0.23405,-0.31666 0.26983,-0.24982 0.17702,0.33073 -0.079,0.49439 -8.7e-4,0.72761 0.24387,0.72761 0.26553,0 0.36752,0.46934 0.38808,1.78593 0.0154,0.98227 0.0451,2.73844 0.0661,3.90261 0.0314,1.73699 -0.0448,2.17868 -0.42478,2.4624 -0.25466,0.19015 -0.46302,0.53742 -0.46302,0.7717 0,0.23428 -0.0762,0.34974 -0.16939,0.25657 -0.24446,-0.24445 -1.04433,1.3649 -1.26041,2.53595 -0.10144,0.54975 -0.28891,0.93497 -0.4166,0.85606 -0.33399,-0.20642 -0.61104,0.84751 -0.4214,1.60308 0.11769,0.46894 0.0527,0.64236 -0.2407,0.64236 -0.27622,0 -0.40318,0.26892 -0.40596,0.8599 -0.002,0.47294 -0.0915,0.73428 -0.19844,0.58076 -0.12705,-0.18244 -0.35479,-0.11369 -0.65741,0.19844 -0.25466,0.26266 -0.40043,0.47757 -0.32393,0.47757 0.0765,0 -0.0262,0.32742 -0.22828,0.7276 -0.20206,0.40019 -0.30481,0.9062 -0.22836,1.12448 0.11158,0.31855 0.0635,0.33459 -0.24361,0.0813 -0.26928,-0.2221 -0.49757,-0.2343 -0.77063,-0.0412 -0.32217,0.22785 -0.31139,0.24988 0.0636,0.12986 0.39346,-0.12595 0.41293,-0.0598 0.15131,0.51443 -0.1794,0.39375 -0.44798,0.60229 -0.6673,0.51813 -0.27126,-0.1041 -0.32061,0.005 -0.18911,0.41978 0.11084,0.34922 0.0772,0.4984 -0.0891,0.39561 -0.14686,-0.0908 -0.52086,0.26518 -0.8311,0.791 -0.53793,0.91173 -0.5422,0.97264 -0.0921,1.31411 0.41876,0.31766 0.42297,0.35902 0.0373,0.36649 -0.2391,0.005 -0.50979,-0.18722 -0.60154,-0.42633 -0.0918,-0.23911 -0.24053,-0.36105 -0.3306,-0.27098 -0.0901,0.0901 -0.0174,0.34012 0.16148,0.55567 0.25958,0.31277 0.24639,0.5045 -0.0653,0.94955 -0.21482,0.30671 -0.33033,0.78807 -0.25669,1.0697 0.0973,0.37207 -10e-4,0.51094 -0.35997,0.508 -0.39884,-0.003 -0.42078,-0.0503 -0.11402,-0.24442 z m -19.6283,-7.00048 c -0.9362,-0.82744 -1.35414,-1.47264 -0.68672,-1.06016 0.18497,0.11432 0.23381,0.0728 0.12382,-0.10512 -0.0999,-0.16165 -0.38619,-0.22061 -0.6362,-0.13102 -0.25,0.0896 -0.36191,0.0612 -0.2487,-0.0631 0.11321,-0.12428 -0.42257,-0.41732 -1.19063,-0.65121 -1.1453,-0.34877 -1.28939,-0.45402 -0.80115,-0.58519 0.32742,-0.088 0.59531,-0.045 0.59531,0.0955 0,0.14049 0.10789,0.18875 0.23975,0.10726 0.13186,-0.0815 0.17788,-0.38473 0.10227,-0.67386 -0.0868,-0.33201 0.0184,-0.5855 0.28562,-0.68804 0.37744,-0.14484 0.38068,-0.22291 0.03,-0.72355 -0.43131,-0.61578 -0.50223,-0.97261 -0.19329,-0.97261 0.20865,0 1.42588,2.93932 1.31752,3.1815 -0.0341,0.0763 0.0882,0.31447 0.27179,0.52917 0.61184,0.71535 1.91507,2.44618 1.91507,2.54342 0,0.17093 -0.11714,0.0873 -1.12448,-0.80304 z m -13.01325,-2.8335 c 0.0803,-0.12997 -0.0693,-0.2457 -0.33259,-0.25719 -0.37241,-0.0163 -0.39056,-0.0544 -0.0818,-0.17196 0.21828,-0.0831 0.47103,-0.26458 0.56166,-0.40331 0.10229,-0.15656 0.37216,-0.14125 0.71155,0.0404 0.32808,0.17558 0.60766,0.19408 0.69903,0.0462 0.0838,-0.13552 -0.11738,-0.28728 -0.44696,-0.33727 l -0.59924,-0.0909 0.617,-0.34583 c 0.535,-0.29987 0.66972,-0.28152 1.01378,0.13811 0.36091,0.44017 0.38363,0.44206 0.25121,0.0209 -0.0989,-0.31452 2.5e-4,-0.46898 0.30913,-0.48162 0.37583,-0.0154 0.36321,-0.0543 -0.0727,-0.22448 -0.4823,-0.18828 -0.45513,-0.24328 0.31759,-0.64287 1.03177,-0.53355 1.52718,-0.56629 0.6067,-0.0401 -0.60975,0.34856 -0.47013,0.37886 1.78594,0.3875 l 2.44739,0.009 v 0.79375 c 0,0.60011 0.12119,0.79375 0.49677,0.79375 0.27322,0 0.63345,0.16469 0.8005,0.36598 0.47913,0.57732 -0.29079,0.72105 -2.30321,0.42999 -2.19492,-0.31746 -4.63193,-0.32739 -5.9375,-0.0242 -0.57909,0.13449 -0.92968,0.13186 -0.84429,-0.006 z"
         id="path388" /><path
         style="fill:#18c2c4"
         d="m 179.19977,192.55052 -0.0769,-2.18281 -1.65365,0.06 c -1.28022,0.0465 -1.65364,-0.0248 -1.65364,-0.31567 0,-0.68192 -1.62154,-5.27123 -2.43376,-6.88808 -0.76366,-1.5202 -2.56083,-4.31955 -4.58624,-7.14375 -3.69985,-5.15903 -5.41542,-10.19902 -5.41542,-15.90943 0,-3.71451 0.56474,-6.31399 2.02686,-9.32957 1.55945,-3.21635 3.77742,-5.50845 6.81367,-7.04143 2.06878,-1.04451 2.12868,-1.05707 5.04151,-1.05707 2.89231,0 2.9871,0.0194 5.0305,1.02965 2.41018,1.19158 4.04611,2.60346 5.3978,4.65854 1.99162,3.02802 2.84763,5.52607 3.21741,9.38925 0.59179,6.18248 -1.09373,12.05726 -5.2681,18.36166 -1.90728,2.88051 -1.94415,2.94111 -1.78955,2.94111 0.19439,0 3.98372,-5.78985 4.64886,-7.10315 0.9365,-1.8491 2.28508,-5.59523 2.65355,-7.37111 0.22634,-1.09093 0.29989,-2.9112 0.21913,-5.42396 -0.1077,-3.35155 -0.21346,-4.04581 -0.92922,-6.10006 -1.06246,-3.04932 -2.22934,-4.98751 -4.22029,-7.0099 -2.67331,-2.71554 -6.8972,-4.2926 -10.539,-3.93494 l -1.32292,0.12993 1.3897,-0.28385 c 2.83683,-0.57942 6.968,0.67754 9.85708,2.99916 1.43124,1.15012 3.22127,3.53876 4.21976,5.6309 2.27457,4.76593 2.64214,11.64122 0.89639,16.76682 -1.16931,3.43315 -2.07144,5.19519 -4.80759,9.39011 -2.99645,4.59402 -4.7226,7.70917 -5.75159,10.37984 -0.63402,1.64555 -0.70787,2.16926 -0.66225,4.69636 0.0282,1.56435 -0.0109,2.84427 -0.087,2.84427 -0.0761,0 -0.17291,-0.98227 -0.21517,-2.18282 z m -0.47373,-8.70384 c 0.80037,-1.47119 1.48797,-2.80846 1.528,-2.97172 0.0507,-0.20661 -0.93444,-0.30341 -3.24115,-0.31849 -1.82266,-0.0119 -3.31393,0.0127 -3.31393,0.0547 0,0.24656 3.26279,5.91926 3.40231,5.91528 0.0933,-0.003 0.82441,-1.20855 1.62477,-2.67973 z m 1.39786,-7.27309 c 2.87183,-1.45072 6.17138,-5.71931 7.80619,-10.0988 0.8069,-2.16159 1.09247,-6.83599 0.59707,-9.77308 -0.47644,-2.82463 -2.23314,-6.22312 -4.22177,-8.16738 -1.14104,-1.11557 -4.94991,-3.15446 -6.29114,-3.36764 -1.2153,-0.19317 -3.60377,0.21878 -4.1207,0.71071 -0.17979,0.17109 -0.62454,0.44358 -0.98834,0.60554 -1.10749,0.49305 -3.35931,2.30395 -4.24462,3.4135 -3.48218,4.36421 -4.37581,11.94877 -2.06315,17.51075 1.60086,3.85008 3.98977,6.91078 6.81869,8.7362 1.60621,1.03644 1.87416,1.12173 3.53277,1.12448 1.41733,0.002 2.08498,-0.14365 3.175,-0.69428 z m -6.42679,10.04154 c -0.51008,-1.61395 -2.50631,-5.19032 -5.36343,-9.60888 -2.27515,-3.51854 -4.18525,-7.03162 -4.1493,-7.63143 0.006,-0.0956 0.51299,0.83826 1.12725,2.07518 0.61426,1.23693 1.95758,3.49912 2.98515,5.02709 3.12919,4.65298 6.27305,10.59441 5.83679,11.03067 -0.0645,0.0645 -0.26091,-0.33718 -0.43646,-0.89263 z"
         id="path387" /><path
         style="fill:#2b3a3c"
         d="m 179.25521,192.66959 c 0,-1.13507 -0.11186,-2.17686 -0.24857,-2.31511 -0.31677,-0.3203 1.42297,-4.97343 2.78045,-7.43666 0.54877,-0.99579 2.15088,-3.59646 3.56023,-5.77927 2.96186,-4.58737 3.42347,-5.4463 4.5995,-8.55836 1.32581,-3.5084 1.56292,-5.06504 1.42503,-9.35549 -0.1077,-3.35155 -0.21346,-4.04581 -0.92922,-6.10006 -1.06246,-3.04932 -2.22934,-4.98751 -4.22029,-7.0099 -2.67331,-2.71554 -6.8972,-4.2926 -10.539,-3.93494 l -1.32292,0.12993 1.3897,-0.28385 c 2.83683,-0.57942 6.968,0.67754 9.85708,2.99916 1.43124,1.15012 3.22127,3.53876 4.21976,5.6309 2.27457,4.76593 2.64214,11.64122 0.89639,16.76682 -1.16931,3.43315 -2.07144,5.19519 -4.80759,9.39011 -2.99645,4.59402 -4.7226,7.70917 -5.75159,10.37984 -0.63402,1.64555 -0.70787,2.16926 -0.66225,4.69636 0.0282,1.56435 -0.0157,2.84427 -0.0977,2.84427 -0.082,0 -0.14903,-0.92869 -0.14903,-2.06375 z m -3.41448,-6.48062 c -0.55495,-1.20691 -1.68282,-3.31209 -2.50638,-4.67818 -0.82355,-1.36609 -1.40585,-2.56768 -1.29398,-2.67021 0.11186,-0.10252 0.91776,0.085 1.79088,0.41677 1.31647,0.50019 1.47457,0.62195 0.92604,0.71319 -0.38633,0.0642 0.0648,0.19702 1.08452,0.3192 1.00761,0.12072 2.35029,0.0994 3.175,-0.0505 l 1.42903,-0.2597 -1.19063,-0.0675 c -0.77713,-0.044 -0.96468,-0.1098 -0.54005,-0.18937 0.35782,-0.067 1.22543,-0.34849 1.92803,-0.62542 0.70259,-0.27694 1.33257,-0.50353 1.39994,-0.50353 0.3663,0 -0.0564,0.94731 -1.5472,3.46748 -0.91295,1.54331 -2.01208,3.59685 -2.4425,4.56343 -0.43043,0.96658 -0.87734,1.7577 -0.99314,1.75805 -0.11581,3.4e-4 -0.66461,-0.98684 -1.21956,-2.19374 z m 2.88531,-2.34229 c 0.80037,-1.47119 1.48797,-2.80846 1.528,-2.97172 0.0507,-0.20661 -0.93444,-0.30341 -3.24115,-0.31849 -1.82266,-0.0119 -3.31393,0.0127 -3.31393,0.0547 0,0.24656 3.26279,5.91926 3.40231,5.91528 0.0933,-0.003 0.82441,-1.20855 1.62477,-2.67973 z m -5.02893,2.76845 c -0.51008,-1.61395 -2.50631,-5.19032 -5.36343,-9.60888 -2.27515,-3.51854 -4.18525,-7.03162 -4.1493,-7.63143 0.006,-0.0956 0.51299,0.83826 1.12725,2.07518 0.61426,1.23693 1.95758,3.49912 2.98515,5.02709 3.12919,4.65298 6.27305,10.59441 5.83679,11.03067 -0.0645,0.0645 -0.26091,-0.33718 -0.43646,-0.89263 z m -0.49959,-9.88159 c -2.59088,-1.68385 -4.59558,-4.06927 -6.33027,-7.5325 -1.58549,-3.16535 -2.00521,-5.00265 -1.99457,-8.73125 0.0107,-3.7538 0.49199,-6.03188 1.85969,-8.80271 2.08462,-4.22322 6.44133,-7.18959 10.57674,-7.20144 2.243,-0.006 5.32854,1.28999 7.27234,3.05553 1.05364,0.957 2.61126,2.8914 2.61126,3.2429 0,0.13594 0.30891,0.94568 0.68647,1.79941 1.48818,3.36502 1.87583,8.85096 0.89691,12.69264 -1.27921,5.02008 -4.96501,10.18225 -8.54052,11.96147 -1.0224,0.50875 -1.57649,0.5977 -3.38868,0.54396 -1.99161,-0.0591 -2.28611,-0.14201 -3.64937,-1.02801 z m 6.92638,-0.15995 c 2.87183,-1.45072 6.17138,-5.71931 7.80619,-10.0988 0.8069,-2.16159 1.09247,-6.83599 0.59707,-9.77308 -0.47644,-2.82463 -2.23314,-6.22312 -4.22177,-8.16738 -1.14104,-1.11557 -4.94991,-3.15446 -6.29114,-3.36764 -1.2153,-0.19317 -3.60377,0.21878 -4.1207,0.71071 -0.17979,0.17109 -0.62454,0.44358 -0.98834,0.60554 -1.10749,0.49305 -3.35931,2.30395 -4.24462,3.4135 -3.48218,4.36421 -4.37581,11.94877 -2.06315,17.51075 1.60086,3.85008 3.98977,6.91078 6.81869,8.7362 1.60621,1.03644 1.87416,1.12173 3.53277,1.12448 1.41733,0.002 2.08498,-0.14365 3.175,-0.69428 z"
         id="path386" /></g></g></svg>
