<?xml version="1.0" encoding="UTF-8" standalone="no"?>
<!-- Created with Inkscape (http://www.inkscape.org/) -->

<svg
   width="53.710472mm"
   height="65.617249mm"
   viewBox="0 0 53.710472 65.617249"
   version="1.1"
   id="svg1"
   inkscape:export-filename="the-hunter.svg"
   inkscape:export-xdpi="96"
   inkscape:export-ydpi="96"
   xml:space="preserve"
   xmlns:inkscape="http://www.inkscape.org/namespaces/inkscape"
   xmlns:sodipodi="http://sodipodi.sourceforge.net/DTD/sodipodi-0.dtd"
   xmlns="http://www.w3.org/2000/svg"
   xmlns:svg="http://www.w3.org/2000/svg"><sodipodi:namedview
     id="namedview1"
     pagecolor="#ffffff"
     bordercolor="#000000"
     borderopacity="0.25"
     inkscape:showpageshadow="2"
     inkscape:pageopacity="0.0"
     inkscape:pagecheckerboard="0"
     inkscape:deskcolor="#d1d1d1"
     inkscape:document-units="mm"><inkscape:page
       x="0"
       y="0"
       width="53.710472"
       height="65.617249"
       id="page2"
       margin="0"
       bleed="0" /></sodipodi:namedview><defs
     id="defs1" /><g
     inkscape:label="Calque 1"
     inkscape:groupmode="layer"
     id="layer1"
     transform="translate(-73.820772,-106.88482)"><g
       id="g129"
       transform="translate(16.273893,0.25831579)"><path
         style="fill:#d8e4ea"
         d="m 57.546875,139.43542 v -32.80834 h 26.855207 26.855208 v 32.80834 32.80833 H 84.402082 57.546875 Z"
         id="path136" /><path
         style="fill:#b6d1e4"
         d="m 57.546875,168.42953 v -3.81423 l 1.124479,-0.86185 c 0.618464,-0.47402 1.243542,-0.99538 1.389063,-1.15859 0.845437,-0.94822 4.595887,-3.8606 6.226597,-4.83521 l 0.992998,-0.59348 0.156866,0.625 c 0.129874,0.51746 0.590615,0.76883 2.677661,1.46088 3.85207,1.27732 7.151625,1.68871 12.303169,1.53393 3.654249,-0.10978 4.732091,-0.24056 6.614583,-0.80258 1.965068,-0.58667 8.367239,-3.62845 8.731249,-4.14836 0.296607,-0.42364 2.54746,-1.3836 4.71087,-2.00913 2.68895,-0.77747 5.25377,-1.8522 6.00765,-2.51736 0.69765,-0.61555 1.31594,-3.20169 0.93543,-3.91268 -0.15228,-0.28453 -0.28533,-1.62649 -0.29567,-2.98212 -0.0103,-1.35564 -0.11365,-3.53635 -0.22957,-4.84604 -0.12022,-1.35823 -0.10988,-2.44619 0.0241,-2.53241 0.12916,-0.0831 0.2136,-0.38079 0.18765,-0.66146 -0.0259,-0.28066 -0.0142,-0.74842 0.026,-1.03946 0.0553,-0.39933 0.12226,-0.33441 0.27308,0.26458 0.14692,0.58346 0.1912,0.35085 0.16714,-0.878 l -0.0327,-1.67175 -1.12448,-0.30135 c -0.61846,-0.16575 -1.12448,-0.39573 -1.12448,-0.51107 0,-0.29863 0.63793,-0.2597 0.95597,0.0583 0.18102,0.18102 0.54623,0.17109 1.12476,-0.0306 0.47118,-0.16426 0.93,-0.22535 1.01958,-0.13577 0.0896,0.0896 0.0363,0.16289 -0.11843,0.16289 -0.34832,0 -0.40831,2.68893 -0.0783,3.50954 0.18328,0.45573 0.24173,0.48522 0.25465,0.12848 0.009,-0.25466 0.1271,-0.46302 0.26195,-0.46302 0.13485,0 0.29964,-0.20836 0.36619,-0.46302 0.0665,-0.25467 0.13481,8.02018 0.15169,18.38854 l 0.0307,18.85156 H 84.402082 57.546875 Z m 18.123958,-8.45793 c -2.264889,-0.32851 -6.468011,-1.47857 -7.239532,-1.98088 -0.757322,-0.49307 -1.136555,-5.00714 -0.467317,-5.56256 0.199618,-0.16567 0.424275,-0.80532 0.499236,-1.42146 0.284418,-2.33773 0.320512,-2.37017 5.545224,-4.98354 2.660564,-1.3308 5.254107,-2.74818 5.76343,-3.14973 0.509323,-0.40155 2.652448,-1.86759 4.7625,-3.25785 2.110052,-1.39027 4.100468,-2.71656 4.423147,-2.94731 0.322679,-0.23075 0.720708,-0.92293 0.884509,-1.53818 0.31189,-1.17148 0.918339,-2.04467 1.420059,-2.04467 0.162635,0 0.523775,-0.42351 0.802533,-0.94113 0.278758,-0.51763 0.783028,-1.23915 1.1206,-1.6034 0.542007,-0.58484 0.76046,-0.64361 1.868439,-0.50265 4.457603,0.56707 5.692979,0.96741 6.003399,1.94545 0.1345,0.42377 0.51019,0.52212 2.46746,0.64597 1.26985,0.0803 2.89003,0.35135 3.60041,0.60224 l 1.2916,0.45616 -0.18738,1.7492 c -0.10306,0.96206 -0.17985,1.86826 -0.17063,2.01378 0.009,0.14552 0.095,2.34818 0.19054,4.89479 0.11823,3.15022 0.28645,4.80255 0.5263,5.16937 0.29781,0.45547 0.28348,0.75507 -0.0923,1.93023 -0.56611,1.77026 -1.09332,2.10072 -5.79449,3.63196 -2.44336,0.79584 -4.433597,1.65189 -6.038448,2.59728 -6.133065,3.61286 -8.663777,4.395 -14.696978,4.54223 -2.527065,0.0617 -5.014963,-0.0325 -6.482291,-0.2453 z m 6.119373,-1.48618 c 0.195187,-0.65485 0.356693,-1.31142 0.358902,-1.45906 0.0022,-0.14763 -0.740124,-0.30103 -1.64963,-0.34087 -0.909505,-0.0399 -2.348962,-0.19413 -3.198793,-0.34284 -3.037852,-0.53161 -7.707021,-2.17275 -7.955606,-2.79627 -0.237868,-0.59665 0.550412,-0.55534 1.975805,0.10354 2.19862,1.01629 5.450631,1.88322 8.22456,2.19253 l 2.50416,0.27924 2.366864,-2.27842 c 1.301776,-1.25314 2.724052,-2.44003 3.160614,-2.63754 0.436563,-0.19752 1.083633,-0.59225 1.437933,-0.8772 0.624614,-0.50234 0.630442,-0.53905 0.191822,-1.20847 l -0.452362,-0.69039 1.248267,-0.8591 c 1.895923,-1.30485 4.896316,-4.01491 8.497477,-7.67522 l 3.250221,-3.3036 2.04145,-0.18176 c 2.66451,-0.23722 3.83084,-0.49069 3.95369,-0.85923 0.0711,-0.21341 -0.18867,-0.23405 -0.90626,-0.072 -0.55329,0.12494 -1.95849,0.28761 -3.12265,0.36148 l -2.11667,0.13432 2.51354,-0.34433 c 1.38245,-0.18938 2.78143,-0.43074 3.10885,-0.53635 0.73059,-0.23565 0.77225,-0.8368 0.0835,-1.20538 -0.64667,-0.34609 -6.36739,-0.36564 -6.36739,-0.0218 0,0.13867 0.12615,0.529 0.28033,0.86739 0.4231,0.9286 -0.0944,2.00478 -1.18264,2.45948 -0.93557,0.39091 -2.008106,1.62976 -2.008106,2.31951 0,0.64926 -0.933523,1.59762 -1.884604,1.91455 -0.595996,0.1986 -1.034183,0.59057 -1.315955,1.17715 -0.517368,1.07703 -1.182721,1.59044 -2.075532,1.60153 -0.880226,0.0109 -1.603076,0.57239 -1.603076,1.24513 0,0.91197 -0.691521,1.19804 -3.14595,1.30144 -2.326036,0.098 -2.3479,0.0929 -3.74358,-0.86713 -0.772133,-0.53113 -1.949792,-1.15795 -2.61702,-1.39292 -0.667228,-0.23497 -1.271758,-0.54629 -1.3434,-0.69181 -0.219381,-0.44561 1.211918,-0.4512 2.270571,-0.009 0.626346,0.26171 1.093387,0.32466 1.249612,0.16843 0.250109,-0.25011 -1.312799,-0.81652 -2.261378,-0.81954 -0.254662,-8.1e-4 -0.463021,-0.12034 -0.463021,-0.26562 0,-0.14528 -0.565547,0.13737 -1.256771,0.62811 -0.691224,0.49075 -3.26167,1.8799 -5.712103,3.08702 -4.771205,2.35036 -4.838536,2.41097 -5.131235,4.61881 -0.07717,0.58208 -0.320467,1.26533 -0.540664,1.51833 -0.314446,0.36129 -0.363804,0.85333 -0.230009,2.2929 0.09369,1.0081 0.236254,2.00464 0.316803,2.21455 0.356519,0.92908 7.891612,2.58061 11.335182,2.48443 l 1.559327,-0.0436 z m 4.728543,-15.08125 c -0.199208,-0.90699 0.107255,-1.02315 0.769303,-0.2916 0.5212,0.57592 2.440254,0.94373 1.970461,0.37767 -0.430796,-0.51908 -2.617557,-1.67357 -3.169964,-1.67357 -0.272713,0 -0.495842,-0.11609 -0.495842,-0.25797 0,-0.14552 0.345994,-0.18877 0.79375,-0.0992 0.453061,0.0906 0.79375,0.0467 0.79375,-0.10241 0,-0.14364 -0.71613,-0.37649 -1.591399,-0.51745 -1.55419,-0.25029 -1.622241,-0.23551 -2.910417,0.63199 -1.458977,0.98254 -1.567363,1.13881 -0.78985,1.13881 0.291042,0 0.529167,-0.17157 0.529167,-0.38126 0,-0.2097 0.09811,-0.4419 0.218032,-0.51601 0.119918,-0.0741 0.209214,0.12722 0.198437,0.4474 -0.0142,0.42205 0.156993,0.6071 0.62246,0.67283 0.35313,0.0499 0.918677,0.27193 1.256771,0.49345 0.567013,0.37152 0.616337,0.36449 0.635604,-0.0907 0.01579,-0.3731 0.05672,-0.39665 0.167818,-0.0966 0.449045,1.21293 1.257076,1.42631 1.001919,0.26459 z m 7.224568,-0.98445 c 0.0943,-0.63724 -0.716978,-1.28196 -3.102477,-2.46553 -0.884702,-0.43894 -1.608549,-0.86133 -1.608549,-0.93863 0,-0.0773 0.110835,-0.072 0.246301,0.0117 0.135465,0.0837 0.313987,0.0427 0.396714,-0.0911 0.248308,-0.40177 -2.519544,-0.47247 -2.997722,-0.0766 -0.23288,0.1928 -0.261835,0.26728 -0.06434,0.16551 0.273171,-0.14078 0.313871,-0.0426 0.170124,0.41029 -0.192057,0.60511 0.171438,1.04607 0.869172,1.05438 0.258156,0.003 0.271842,-0.12338 0.05684,-0.52512 -0.159258,-0.29757 -0.175885,-0.52916 -0.03799,-0.52916 0.134865,0 0.319916,0.29765 0.411225,0.66146 0.149749,0.59664 0.600626,0.82123 1.346559,0.67074 0.14552,-0.0294 0.176043,0.0352 0.06783,0.14337 -0.108215,0.10822 0.04831,0.36841 0.347839,0.5782 0.299526,0.2098 0.603641,0.3224 0.67581,0.25023 0.07217,-0.0722 0.416246,0.15382 0.764614,0.50218 0.960634,0.96064 1.322155,0.77453 0.663613,-0.34161 -0.412238,-0.69869 -0.452192,-0.87287 -0.14098,-0.61458 0.23886,0.19823 0.612019,0.70411 0.829241,1.12417 0.43787,0.84675 0.981642,0.85173 1.106185,0.0101 z m 3.491057,-2.9853 c 0,-0.76916 -2.805251,-2.64484 -3.955611,-2.64484 -0.305661,0 -0.542306,-0.17318 -0.542306,-0.39687 0,-0.34325 -0.830188,-0.55823 -1.653646,-0.42821 -0.323895,0.0511 -0.225628,-0.44955 0.132292,-0.67405 0.181901,-0.1141 0.539089,-0.17317 0.79375,-0.13128 0.524162,0.0862 0.59143,-0.28111 0.189128,-1.03281 -0.15064,-0.28148 -0.213229,-0.51178 -0.139086,-0.51178 0.07414,0 0.319515,0.35719 0.545271,0.79375 0.225755,0.43657 0.618496,0.79375 0.872757,0.79375 0.254262,0 1.63569,0.29766 3.06984,0.66146 3.209132,0.81407 3.221269,0.81404 3.759087,-0.007 0.41025,-0.62611 0.40783,-0.7014 -0.0383,-1.19436 -0.310212,-0.34279 -0.656617,-0.46885 -0.994045,-0.36175 -0.341901,0.10851 -0.456383,0.0648 -0.336868,-0.12855 0.282112,-0.45647 -1.581292,-0.36064 -1.964439,0.10103 -0.179827,0.21668 -0.439656,0.32431 -0.577396,0.23918 -0.137741,-0.0851 -0.03495,-0.31815 0.228416,-0.51784 0.436534,-0.33097 0.397012,-0.36699 -0.447188,-0.4075 -0.570066,-0.0274 -0.709624,-0.0869 -0.363049,-0.15488 0.392372,-0.077 0.606059,-0.36673 0.705095,-0.95615 0.07816,-0.46515 0.219881,-1.04205 0.314944,-1.282 0.144708,-0.36525 -0.05621,-0.45403 -1.234261,-0.54539 -1.768945,-0.13717 -1.860237,-0.10391 -2.448753,0.89237 -0.266464,0.45109 -0.920287,1.25103 -1.45294,1.77764 -0.532653,0.52662 -1.133895,1.47207 -1.336094,2.10102 -0.339341,1.05552 -0.71156,1.48796 -2.027633,2.35562 -0.417067,0.27497 -0.381264,0.286 0.235921,0.0727 0.500445,-0.17296 0.727604,-0.16207 0.727604,0.0349 0,0.15749 0.185249,0.21526 0.411664,0.12837 0.226416,-0.0869 0.821728,0.0134 1.322917,0.22278 0.635906,0.2657 0.911252,0.2896 0.911252,0.0791 0,-0.16777 0.146781,-0.11948 0.330729,0.10882 0.332803,0.41305 1.256771,0.85068 1.256771,0.59527 0,-0.0754 -0.181651,-0.4884 -0.403669,-0.91774 -0.222019,-0.42933 -0.303602,-0.78061 -0.181296,-0.78061 0.122305,0 0.418527,0.41134 0.65827,0.91409 0.239744,0.50274 0.797577,1.10111 1.239629,1.32971 0.956241,0.49449 0.997562,0.35905 0.222531,-0.72938 -0.319661,-0.44892 -0.433899,-0.72518 -0.253862,-0.61391 0.180036,0.11127 0.62719,0.6773 0.993675,1.25785 0.546037,0.86498 0.73517,0.99842 1.047612,0.73911 0.209702,-0.17404 0.381277,-0.52584 0.381277,-0.7818 z m -29.798496,3.15319 c -1.492954,-0.43285 -1.87418,-1.69147 -0.612287,-2.02146 0.328396,-0.0859 0.486691,-0.28815 0.400755,-0.5121 -0.0855,-0.2228 0.119198,-0.48917 0.514202,-0.66915 0.360934,-0.16445 0.656243,-0.39896 0.656243,-0.52112 0,-0.41519 -1.655654,-0.22433 -2.089844,0.24091 -0.508602,0.54497 -2.162839,1.4579 -2.333139,1.2876 -0.322674,-0.32267 -0.106831,-3.11774 0.2872,-3.71911 0.237389,-0.3623 0.431617,-1.12547 0.431617,-1.69594 0,-0.82986 0.140065,-1.12899 0.700622,-1.49628 0.6853,-0.44903 0.697415,-0.4468 0.553937,0.10186 -0.29413,1.12476 0.302407,0.52482 0.715845,-0.71992 0.233987,-0.70447 0.660275,-1.53293 0.947305,-1.84102 0.287031,-0.3081 0.523697,-0.71398 0.525925,-0.90196 0.0032,-0.26641 0.05422,-0.26262 0.231511,0.0172 0.282603,0.44601 0.622741,-0.0152 0.413448,-0.56059 -0.08725,-0.22738 0.225514,-0.70825 0.773715,-1.18958 0.506095,-0.44436 0.839504,-0.89625 0.740911,-1.0042 -0.09859,-0.10795 0.07972,-0.13264 0.396256,-0.0549 0.426432,0.10478 0.537473,0.0423 0.428656,-0.2413 -0.09247,-0.24097 0.06185,-0.43729 0.416671,-0.53008 0.309942,-0.081 0.563531,-0.25254 0.563531,-0.38109 0,-0.12855 0.166182,-0.23372 0.369293,-0.23372 0.203112,0 0.751009,-0.59485 1.217549,-1.32189 0.477728,-0.74448 0.971708,-1.2456 1.130878,-1.14723 0.165711,0.10242 0.228128,0.0199 0.150886,-0.19946 -0.124344,-0.35314 0.671882,-1.37566 0.896391,-1.15115 0.05771,0.0577 0.395054,-0.49107 0.749653,-1.21951 0.476196,-0.97823 0.765852,-1.29452 1.108111,-1.20998 0.281416,0.0695 0.39477,0.003 0.288656,-0.16827 -0.122596,-0.19836 1.160117,-0.2412 4.299114,-0.14356 4.714824,0.14666 7.891786,-0.0287 7.312015,-0.40365 -0.376337,-0.24337 -5.836158,-0.26677 -6.783235,-0.0291 -0.333883,0.0838 -1.772899,0.0224 -3.197815,-0.13653 -2.974124,-0.33163 -3.360424,-0.20003 -4.386468,1.49438 -0.503698,0.83181 -2.668386,3.838 -3.105681,4.31299 -0.06699,0.0728 -0.174945,-0.0165 -0.23991,-0.19844 -0.06497,-0.1819 -0.241837,-0.33073 -0.393049,-0.33073 -0.181528,0 -0.175656,0.11962 0.01728,0.3521 0.220428,0.2656 0.160854,0.4931 -0.242493,0.92604 -0.558599,0.59959 -1.212922,0.79793 -0.885705,0.26848 0.114318,-0.18497 0.07285,-0.23381 -0.105122,-0.12382 -0.161649,0.0999 -0.217284,0.3862 -0.123634,0.6362 0.148786,0.39718 0.113937,0.40872 -0.276138,0.0914 -0.378372,-0.30778 -0.514455,-0.30778 -0.892827,0 -0.393667,0.32022 -0.424574,0.30494 -0.261582,-0.12935 0.139279,-0.37111 0.08628,-0.45467 -0.215045,-0.33904 -0.273326,0.10489 -0.399876,-0.0114 -0.399876,-0.36741 0,-0.61205 -0.478193,-0.69698 -0.69807,-0.12399 -0.08376,0.21828 -0.437213,0.39687 -0.785446,0.39687 -0.562287,0 -0.633151,0.11845 -0.633151,1.05834 0,1.09847 -0.07143,1.15331 -1.389062,1.06643 -0.568108,-0.0375 -0.727604,0.0685 -0.727604,0.4833 0,0.2989 -0.231449,0.60473 -0.529167,0.69923 -0.510975,0.16217 -0.639648,0.42576 -0.548917,1.12447 0.0651,0.5013 -0.345542,0.39602 -0.773999,-0.19843 -0.265629,-0.36854 -0.684925,-0.52917 -1.381326,-0.52917 -0.712433,0 -0.999924,-0.11411 -0.999924,-0.39687 0,-0.28664 -0.293982,-0.39688 -1.058334,-0.39688 H 57.546875 V 117.607 106.6265 l 26.855207,0.003 26.855208,0.003 v 9.52215 9.52215 h -4.79712 -4.79712 l 0.15028,0.92605 c 0.18935,1.16685 -0.25426,1.22022 -0.55321,0.0666 -0.12249,-0.47272 -0.42046,-0.89758 -0.66214,-0.94412 -0.39653,-0.0764 -0.39024,0.0269 0.0645,1.05793 0.42044,0.95327 0.60215,1.81864 0.78485,3.73785 0.0112,0.11773 0.11418,0.15608 0.22883,0.0852 0.11465,-0.0709 0.23177,0.15289 0.26027,0.49721 l 0.0518,0.62604 -0.62335,-0.62334 c -0.34284,-0.34284 -1.08504,-0.7513 -1.649327,-0.90767 -1.620071,-0.44896 -5.348115,-0.88583 -6.05189,-0.7092 -0.361825,0.0908 -1.009459,0.70631 -1.489143,1.41524 -0.46687,0.69 -1.246395,1.59111 -1.732277,2.00248 -0.585965,0.49611 -0.98303,1.14353 -1.179248,1.92278 -0.270426,1.07396 -0.480446,1.29495 -2.446082,2.57388 -4.009601,2.60882 -3.692761,2.4931 -4.926961,1.79944 -0.971284,-0.54589 -1.188208,-0.57347 -2.322327,-0.29531 -0.688033,0.16876 -1.637922,0.36946 -2.110865,0.44601 -0.472943,0.0766 -0.859896,0.23232 -0.859896,0.34614 0,0.11383 -0.279112,0.27701 -0.620249,0.36263 -1.122955,0.28184 -4.914014,2.10447 -4.791069,2.3034 0.06621,0.10713 -0.117907,0.13246 -0.40915,0.0563 -0.296179,-0.0775 -0.529531,-0.008 -0.529531,0.15697 0,0.34891 -1.619351,0.35355 -2.810997,0.008 z m 2.958417,-4.24194 c 0.97898,-0.24651 1.175496,-0.40132 1.175496,-0.92604 0,-0.49566 0.141085,-0.63005 0.661459,-0.63005 0.363802,0 0.661458,-0.1096 0.661458,-0.24356 0,-0.13396 0.386953,-0.32539 0.859896,-0.42541 1.099439,-0.23252 2.579687,-1.12721 2.579687,-1.55921 0,-0.18313 0.506016,-0.49252 1.124479,-0.68754 1.433279,-0.45197 1.785938,-0.72548 1.785938,-1.38512 0,-0.29253 0.233054,-0.73401 0.517898,-0.98105 0.284845,-0.24704 0.910772,-1.2081 1.39095,-2.13568 1.026367,-1.98268 2.465265,-3.19747 4.575078,-3.86253 0.795934,-0.2509 1.406011,-0.49732 1.355724,-0.54761 -0.215984,-0.21598 -3.152328,0.73834 -4.191414,1.36222 -1.781332,1.06955 -2.060736,1.34964 -2.060736,2.06583 0,0.36857 -0.178594,0.73866 -0.396875,0.82243 -0.218282,0.0838 -0.396875,0.39415 -0.396875,0.68976 0,0.30922 -0.174276,0.53747 -0.410376,0.53747 -0.225707,0 -0.579608,0.38696 -0.786446,0.8599 -0.624849,1.42874 -1.255769,2.03099 -2.776455,2.65033 -0.797875,0.32495 -1.450682,0.75106 -1.450682,0.94691 0,0.19598 -0.921973,0.73132 -2.050515,1.19062 -1.724647,0.70191 -2.050517,0.93162 -2.050521,1.44546 -3e-6,0.34961 -0.115939,0.53928 -0.271044,0.44342 -0.38751,-0.2395 -1.879927,0.13131 -1.70003,0.42239 0.193337,0.31283 0.42792,0.30613 1.853906,-0.0529 z"
         id="path135" /><path
         style="fill:#abc6da"
         d="m 87.180207,171.58229 c 0,-0.59531 -0.105833,-0.66146 -1.058333,-0.66146 -0.764352,0 -1.058333,-0.11024 -1.058333,-0.39687 0,-0.24694 0.249884,-0.39688 0.661458,-0.39688 0.85096,0 0.84349,-0.39769 -0.01807,-0.96221 -0.517417,-0.33902 -0.642457,-0.59296 -0.524126,-1.06443 0.144734,-0.57667 0.07784,-0.61926 -0.974114,-0.62018 -1.13267,-9.9e-4 -2.849312,-0.79508 -2.849312,-1.31804 0,-0.14766 -0.119062,-0.26847 -0.264583,-0.26847 -0.145521,0 -0.264583,0.1786 -0.264583,0.39688 0,0.53071 -0.442539,0.50468 -0.749653,-0.0441 -0.155884,-0.27855 -0.574904,-0.43801 -1.137626,-0.43294 -0.489966,0.004 -1.022501,-0.0951 -1.183412,-0.22121 -0.160911,-0.12608 -0.637161,-0.27305 -1.058333,-0.32659 -1.086583,-0.13813 -2.220976,-0.71749 -2.220976,-1.1343 0,-0.19492 -0.223547,-0.35441 -0.49677,-0.35441 -0.273223,0 -0.64499,-0.17859 -0.826147,-0.39687 -0.181157,-0.21828 -0.457227,-0.39688 -0.613488,-0.39688 -0.379753,0 -2.296928,-1.33887 -2.296928,-1.60408 0,-0.11506 0.208359,-0.26365 0.46302,-0.3302 0.273767,-0.0715 0.154051,-0.13354 -0.29289,-0.15169 -0.56813,-0.0231 -0.716769,-0.1327 -0.598344,-0.44131 0.08666,-0.22584 0.05235,-0.34558 -0.07626,-0.2661 -0.128606,0.0795 -0.300636,-0.0296 -0.382289,-0.24237 -0.233168,-0.60762 0.122275,-0.6549 1.819748,-0.24204 4.080505,0.99245 5.549703,1.13965 10.576388,1.05969 4.554853,-0.0725 5.245731,-0.14625 7.354673,-0.78548 2.270389,-0.68816 7.140546,-3.03458 9.365265,-4.51213 0.610237,-0.40529 2.299081,-1.0842 3.753001,-1.50868 2.6181,-0.76438 5.5958,-2.00573 6.4045,-2.66993 0.46504,-0.38194 0.87074,-2.03127 0.80058,-3.25463 -0.25899,-4.51564 -0.27391,-7.09682 -0.039,-6.74688 0.14653,0.21828 0.26824,0.27337 0.27047,0.12243 0.002,-0.15095 0.36124,-0.30167 0.7978,-0.33494 l 0.79375,-0.0605 v 12.43962 c 0,10.88105 -0.0497,12.43962 -0.39688,12.43962 -0.21828,0 -0.39687,-0.12325 -0.39687,-0.27389 0,-0.18237 -0.18352,-0.17568 -0.54919,0.02 -0.71462,0.38245 -1.56748,1.24037 -1.56748,1.57678 0,0.15434 -0.88194,0.26458 -2.11666,0.26458 -2.08139,0 -2.11667,0.011 -2.11667,0.66146 0,0.59531 -0.10583,0.66146 -1.05833,0.66146 -0.76436,0 -1.05834,0.11024 -1.05834,0.39687 0,0.21828 -0.11906,0.39688 -0.26458,0.39688 -0.14552,0 -0.26458,-0.1786 -0.26458,-0.39688 0,-0.21828 0.0893,-0.3978 0.19843,-0.39894 0.10914,-0.001 0.32773,-0.26902 0.48575,-0.59531 0.81511,-1.68309 1.56544,-2.99436 1.8074,-3.15855 0.14917,-0.10123 0.18373,-0.27153 0.0768,-0.37846 -0.10693,-0.10693 -0.6095,0.25875 -1.11682,0.81262 -0.50732,0.55387 -0.92456,0.84324 -0.9272,0.64304 -0.003,-0.20019 -0.35982,0.28012 -0.79375,1.06735 -0.92571,1.67944 -0.9828,2.27959 -0.25979,2.73111 0.37673,0.23527 0.52917,0.61702 0.52917,1.32516 v 0.99469 h -3.968751 c -2.469444,0 -3.96875,-0.1 -3.96875,-0.26458 0,-0.14552 -0.16014,-0.26459 -0.355868,-0.26459 -0.195727,0 -0.571368,-0.23812 -0.834757,-0.52916 -0.263389,-0.29104 -0.634136,-0.52917 -0.823882,-0.52917 -0.600069,0 -2.205531,0.91203 -2.212316,1.25677 -0.0041,0.20838 -0.398037,0.33073 -1.064843,0.33073 -0.9525,0 -1.058334,-0.0661 -1.058334,-0.66146 z M 76.332291,160.07128 c -2.216674,-0.30251 -5.061502,-0.98402 -6.784326,-1.62525 -1.534637,-0.57119 -1.596621,-0.69153 -1.854632,-3.60084 -0.134564,-1.51733 -0.0862,-2.01716 0.230388,-2.38125 0.220385,-0.25345 0.476354,-0.95984 0.568819,-1.56976 0.342428,-2.25871 0.33237,-2.24984 5.509453,-4.85372 2.664112,-1.33995 5.260558,-2.76166 5.769881,-3.15936 0.509323,-0.3977 2.473854,-1.74416 4.365625,-2.99213 5.653381,-3.72945 5.366904,-3.49116 5.6997,-4.74094 0.316187,-1.1874 0.920799,-2.06261 1.42489,-2.06261 0.162635,0 0.509418,-0.39685 0.770629,-0.88189 0.261211,-0.48504 0.772212,-1.2025 1.13556,-1.59435 0.602286,-0.64954 0.7818,-0.69848 2.032634,-0.55411 3.735695,0.43117 5.573078,1.03676 5.856678,1.93031 0.13155,0.41445 0.52555,0.5183 2.46615,0.64999 1.27028,0.0862 2.88992,0.35801 3.59921,0.60403 l 1.28961,0.44731 -0.19433,1.74987 c -0.10689,0.96243 -0.18278,1.86894 -0.16865,2.01446 0.0141,0.14552 0.1039,2.34818 0.19948,4.89479 0.11987,3.19398 0.28503,4.80036 0.53245,5.17876 0.3066,0.46889 0.29128,0.74683 -0.10548,1.91408 -0.25529,0.75105 -0.70167,1.52965 -0.99197,1.73023 -0.63135,0.43622 -4.43885,1.85584 -6.49435,2.42141 -0.80775,0.22224 -2.538314,1.03918 -3.845706,1.81542 -6.40277,3.80151 -9.135537,4.66602 -15.19088,4.80567 -2.255573,0.052 -4.874948,-0.011 -5.820833,-0.14012 z m 5.457915,-1.58586 c 0.195187,-0.65485 0.356693,-1.31142 0.358902,-1.45906 0.0022,-0.14763 -0.740124,-0.30103 -1.64963,-0.34087 -0.909505,-0.0399 -2.348962,-0.19413 -3.198793,-0.34284 -3.037852,-0.53161 -7.707021,-2.17275 -7.955606,-2.79627 -0.237868,-0.59665 0.550412,-0.55534 1.975805,0.10354 2.203103,1.01836 5.452349,1.88341 8.243267,2.19462 l 2.522867,0.28132 2.348157,-2.28259 c 1.291487,-1.25542 2.705345,-2.44325 3.141907,-2.63962 0.436563,-0.19637 1.083633,-0.59017 1.437933,-0.87512 0.624614,-0.50234 0.630442,-0.53905 0.191822,-1.20847 l -0.452362,-0.69039 1.248267,-0.8591 c 1.892933,-1.30279 4.894872,-4.01343 8.476154,-7.65365 l 3.228894,-3.28204 2.84127,-0.3175 c 2.56137,-0.28623 3.60649,-0.60106 3.23348,-0.97407 -0.0727,-0.0727 -0.50167,-0.0262 -0.95329,0.10332 -0.45161,0.12952 -1.75341,0.30013 -2.89289,0.37913 l -2.07178,0.14364 2.38125,-0.34433 c 1.30969,-0.18938 2.64914,-0.42958 2.97656,-0.53378 0.73058,-0.23249 0.77237,-0.83417 0.0835,-1.20281 -0.64667,-0.34609 -6.36739,-0.36564 -6.36739,-0.0218 0,0.13867 0.12615,0.529 0.28033,0.86739 0.4231,0.9286 -0.0944,2.00478 -1.18264,2.45948 -0.93557,0.39091 -2.008106,1.62976 -2.008106,2.31951 0,0.64926 -0.933523,1.59762 -1.884604,1.91455 -0.595996,0.1986 -1.034183,0.59057 -1.315955,1.17715 -0.517368,1.07703 -1.182721,1.59044 -2.075532,1.60153 -0.880226,0.0109 -1.603076,0.57239 -1.603076,1.24513 0,0.91197 -0.691521,1.19804 -3.14595,1.30144 -2.326036,0.098 -2.3479,0.0929 -3.74358,-0.86713 -0.772133,-0.53113 -1.949792,-1.15795 -2.61702,-1.39292 -0.667228,-0.23497 -1.271758,-0.54629 -1.3434,-0.69181 -0.219381,-0.44561 1.211918,-0.4512 2.270571,-0.009 0.626346,0.26171 1.093387,0.32466 1.249612,0.16843 0.250109,-0.25011 -1.312799,-0.81652 -2.261378,-0.81954 -0.254662,-8.1e-4 -0.463021,-0.11495 -0.463021,-0.25363 0,-0.13869 -0.684609,0.19955 -1.521354,0.75163 -0.836745,0.55208 -3.397292,1.92485 -5.690105,3.0506 -2.311378,1.13486 -4.291892,2.2769 -4.445134,2.56323 -0.15201,0.28404 -0.346378,1.10743 -0.431928,1.82976 -0.08555,0.72233 -0.317661,1.44788 -0.515803,1.61232 -0.395394,0.32815 -0.444463,1.21451 -0.186264,3.36458 0.192529,1.60323 0.05785,1.51159 3.794755,2.58191 2.527556,0.72394 5.454889,1.1274 7.777036,1.07187 l 1.559327,-0.0373 z m 6.833852,-13.29532 c -0.224667,-0.7459 -1.715614,-2.34189 -2.014941,-2.1569 -0.122463,0.0757 -0.22266,0.0115 -0.22266,-0.14258 0,-0.43832 0.401825,-0.33029 0.926042,0.24896 0.263389,0.29105 0.698561,0.52917 0.967049,0.52917 0.268488,0 0.463006,0.0893 0.432263,0.19844 -0.03074,0.10914 0.02581,0.58539 0.125677,1.05833 0.128414,0.60814 0.330147,0.8599 0.689047,0.8599 2.046533,0 -0.801008,-3.47811 -3.272369,-3.99701 l -0.79375,-0.16667 0.859896,-0.0348 c 1.387882,-0.0562 0.988618,-0.47027 -0.718588,-0.74521 -1.362757,-0.21946 -1.684493,-0.18708 -2.354169,0.23693 -0.840614,0.53224 -0.876257,1.46005 -0.06553,1.70579 0.234469,0.0711 0.81326,0.29719 1.286202,0.50249 0.782874,0.33984 0.860245,0.33219 0.863797,-0.0855 0.0029,-0.33956 0.08881,-0.29233 0.330729,0.18182 0.409181,0.80197 0.984899,1.0174 0.998643,0.37368 0.0067,-0.31434 0.136887,-0.19435 0.369829,0.34087 0.294407,0.67645 1.301534,1.6876 1.680891,1.6876 0.05019,0 0.01056,-0.26789 -0.08806,-0.59532 z m 5.119259,-2.77038 c 0.0943,-0.63724 -0.716978,-1.28196 -3.102477,-2.46553 -0.884702,-0.43894 -1.608549,-0.86133 -1.608549,-0.93863 0,-0.0773 0.110835,-0.072 0.246301,0.0117 0.135465,0.0837 0.313987,0.0427 0.396714,-0.0911 0.296667,-0.48002 -2.530079,-0.45259 -3.327389,0.0323 -0.912783,0.5551 -1.004517,1.26337 -0.159897,1.23457 0.327422,-0.0112 0.855136,0.0615 1.172698,0.16142 0.498326,0.15685 0.561325,0.0966 0.460088,-0.43975 -0.09552,-0.50609 -0.06354,-0.48639 0.172266,0.10612 0.262309,0.65911 0.702371,0.88492 1.436094,0.73689 0.14552,-0.0294 0.176043,0.0352 0.06783,0.14337 -0.108215,0.10822 0.04831,0.36841 0.347839,0.5782 0.299526,0.2098 0.612231,0.31381 0.6949,0.23115 0.08267,-0.0827 0.381266,0.14331 0.663551,0.50217 0.282285,0.35887 0.694959,0.65249 0.917052,0.65249 0.329891,0 0.296811,-0.18162 -0.180721,-0.99219 -0.574961,-0.97595 -0.575388,-0.98394 -0.02613,-0.48816 0.307115,0.27722 0.558392,0.64036 0.558392,0.80698 0,0.41945 0.58352,0.96365 0.91612,0.85439 0.150977,-0.0496 0.310873,-0.33593 0.355323,-0.6363 z m 3.491057,-2.9853 c 0,-0.76916 -2.805251,-2.64484 -3.955611,-2.64484 -0.305661,0 -0.542306,-0.17318 -0.542306,-0.39687 0,-0.34325 -0.830188,-0.55823 -1.653646,-0.42821 -0.323895,0.0511 -0.225628,-0.44955 0.132292,-0.67405 0.181901,-0.1141 0.539089,-0.17317 0.79375,-0.13128 0.524162,0.0862 0.59143,-0.28111 0.189128,-1.03281 -0.15064,-0.28148 -0.213974,-0.51178 -0.140741,-0.51178 0.07323,0 0.301447,0.32121 0.507143,0.71379 0.324298,0.61895 0.720933,0.7958 2.985013,1.33092 4.340675,1.02594 4.217508,1.02001 4.736544,0.22787 0.43532,-0.66439 0.43442,-0.72443 -0.0184,-1.22476 -0.310212,-0.34279 -0.656617,-0.46885 -0.994045,-0.36175 -0.367329,0.11658 -0.459681,0.0702 -0.317639,-0.15967 0.149115,-0.24127 -0.07896,-0.29741 -0.892908,-0.21979 -0.601248,0.0573 -1.093178,0.0118 -1.093178,-0.10118 0,-0.11298 -0.386953,-0.22164 -0.859895,-0.24146 -0.562992,-0.0236 -0.665507,-0.0742 -0.296904,-0.14646 0.392372,-0.077 0.606059,-0.36673 0.705095,-0.95615 0.07816,-0.46515 0.219881,-1.04205 0.314944,-1.282 0.144708,-0.36525 -0.05621,-0.45403 -1.234261,-0.54539 -1.785216,-0.13844 -1.807045,-0.12959 -2.596135,1.05195 -0.362926,0.54342 -1.012686,1.32676 -1.44391,1.74074 -0.431225,0.41399 -0.974026,1.30696 -1.206225,1.98438 -0.302247,0.88178 -0.70002,1.41335 -1.40022,1.87122 -1.018004,0.66569 -1.169859,1.07839 -0.207232,0.5632 0.409667,-0.21924 0.551827,-0.21747 0.551827,0.007 0,0.16621 0.17649,0.23447 0.392201,0.15169 0.21571,-0.0828 1.183316,0.14728 2.150235,0.51122 1.716685,0.64616 1.754703,0.64899 1.616412,0.12016 -0.115066,-0.44001 -0.0022,-0.39234 0.601752,0.25423 0.408855,0.43768 0.874198,0.81066 1.034095,0.82885 0.159897,0.0182 0.403831,0.048 0.542076,0.0661 0.138244,0.0182 0.397349,0.17907 0.575787,0.35751 0.404241,0.40424 1.024942,-0.0332 1.024942,-0.72231 z m -29.104166,2.94523 c 0,-0.12692 -0.47625,-0.30692 -1.058333,-0.4 -1.268915,-0.20291 -1.341658,-0.53205 -0.243139,-1.10011 0.512486,-0.26502 0.761575,-0.56129 0.670797,-0.79785 -0.09345,-0.24353 0.08687,-0.43434 0.511101,-0.54082 0.360525,-0.0905 0.743275,-0.30768 0.850557,-0.48266 0.107282,-0.17498 0.790371,-0.42958 1.517975,-0.56578 1.152934,-0.21582 1.314819,-0.32413 1.25989,-0.84295 -0.04948,-0.46736 0.07151,-0.59531 0.562916,-0.59531 0.344268,0 0.774162,-0.1786 0.955319,-0.39688 0.181157,-0.21828 0.512697,-0.39687 0.736755,-0.39687 0.622251,0 2.702828,-1.29985 2.702828,-1.6886 0,-0.18885 0.506016,-0.50294 1.124479,-0.69796 1.460266,-0.46048 1.851156,-0.77506 1.69675,-1.36551 -0.07508,-0.2871 0.104555,-0.6718 0.444626,-0.95218 0.313832,-0.25874 0.925938,-1.18137 1.360237,-2.05028 0.434298,-0.86892 1.037111,-1.81797 1.339583,-2.10901 1.249836,-1.20261 4.113425,-2.27009 5.940575,-2.21452 l 0.926042,0.0282 -0.79375,0.18973 -0.79375,0.18973 0.79375,0.15205 c 0.545906,0.10457 0.401331,0.13823 -0.463021,0.10779 l -1.256771,-0.0443 0.03069,1.06024 c 0.01688,0.58313 0.08514,0.85188 0.151692,0.59722 C 87.187334,127.1212 87.490965,127 88.257941,127 c 0.571413,0 1.038933,-0.11352 1.038933,-0.25226 0,-0.13875 0.534953,-0.22804 1.188784,-0.19844 1.069595,0.0484 1.191341,0.12014 1.214284,0.71528 0.03614,0.93762 0.760324,-1.74846 0.766828,-2.84427 0.0028,-0.47294 -0.113959,-0.85989 -0.259479,-0.85989 -0.145521,0 -0.265029,-0.32743 -0.265573,-0.72761 -5.44e-4,-0.40018 -0.238669,-1.11743 -0.529166,-1.59389 -0.653383,-1.07165 -0.653222,-1.11809 0.0039,-1.11809 0.698161,0 2.939076,1.05783 2.781394,1.31297 -0.06734,0.10895 0.166449,0.14287 0.519525,0.0754 0.522238,-0.0998 0.989491,0.23461 2.505534,1.79335 1.024969,1.05383 1.86358,2.01922 1.86358,2.14531 0,0.12609 0.178594,0.22925 0.396875,0.22925 0.218281,0 0.396875,0.16499 0.396875,0.36663 0,0.20165 0.177865,0.70767 0.395245,1.12448 0.21739,0.41682 0.39598,1.13778 0.39688,1.60213 8.9e-4,0.46436 0.12069,0.91787 0.26621,1.00781 0.14552,0.0899 0.26458,0.32105 0.26458,0.5136 0,0.28967 -0.1712,0.28898 -0.99218,-0.004 -0.545709,-0.19475 -1.272822,-0.35931 -1.615813,-0.3657 -0.409929,-0.008 -0.576977,-0.13316 -0.4875,-0.36634 0.07487,-0.19509 0.0299,-0.52252 -0.09993,-0.7276 -0.180218,-0.28468 -0.237011,-0.23571 -0.240104,0.20704 -0.0039,0.55525 -0.0816,0.57341 -1.82719,0.42707 -2.46887,-0.20698 -2.943528,-0.0374 -3.823552,1.36589 -0.413545,0.65945 -0.867056,1.19899 -1.007803,1.19899 -0.140747,0 -0.170949,0.13746 -0.06712,0.30547 0.115002,0.18608 0.07278,0.23377 -0.108023,0.12202 -0.163246,-0.10089 -0.448407,0.0593 -0.633692,0.356 -0.185285,0.29669 -0.441882,0.53943 -0.570217,0.53943 -0.128334,0 -0.08512,-0.17859 0.09604,-0.39687 0.181157,-0.21829 0.225501,-0.3987 0.09854,-0.40093 -0.126959,-0.002 -0.07486,-0.10297 0.115776,-0.22387 0.230068,-0.14591 0.07439,-0.22755 -0.463021,-0.24283 -0.537198,-0.0153 -0.809631,0.10457 -0.809631,0.35615 0,0.20855 0.160844,0.37918 0.35743,0.37918 0.226002,0 0.338517,0.26754 0.305997,0.72761 -0.08341,1.17994 -0.128949,1.27723 -0.402525,0.85989 -0.186704,-0.28481 -0.215541,-0.16391 -0.102132,0.4282 0.188055,0.98183 0.246006,0.92381 -3.162424,3.16666 l -2.60678,1.71534 -1.131553,-0.66314 c -1.066226,-0.62485 -1.228868,-0.64664 -2.817178,-0.37753 -0.927095,0.15708 -1.949328,0.45132 -2.27163,0.65387 -0.322302,0.20255 -0.742303,0.36827 -0.933337,0.36827 -0.191033,0 -1.035779,0.35719 -1.877212,0.79375 -0.841433,0.43656 -1.691705,0.79375 -1.889492,0.79375 -0.460106,0 -1.986119,0.86302 -1.988324,1.12448 -9.2e-4,0.10914 -0.477922,0.19844 -1.060006,0.19844 -0.582083,0 -1.058333,-0.10385 -1.058333,-0.23077 z m 1.677353,-4.74096 c -0.454418,-0.28112 -0.825802,-2.9008 -0.645503,-4.55327 0.196916,-1.80478 0.983903,-3.31239 2.394211,-4.58652 l 1.083132,-0.97854 -0.733243,-0.29628 c -0.716888,-0.28966 -0.70123,-0.30284 0.702027,-0.5909 1.544524,-0.31707 1.908839,-0.72312 2.858799,-3.18633 0.952298,-2.46927 2.506669,-3.26988 5.578769,-2.87347 1.041805,0.13444 2.044578,0.14896 2.228385,0.0323 0.183807,-0.11668 1.125128,-0.21396 2.091824,-0.21619 1.320968,-0.003 1.795466,0.0945 1.909926,0.39282 0.08376,0.21828 0.334625,0.39688 0.557474,0.39688 0.222848,0 0.405179,0.17976 0.405179,0.39946 0,0.21971 0.238125,0.60335 0.529166,0.85255 0.666632,0.57079 0.709246,1.65117 0.06615,1.677 -0.395933,0.0159 -0.386349,0.0515 0.06615,0.24599 0.400619,0.17215 0.231246,0.2319 -0.697221,0.24598 -3.020471,0.0458 -7.37257,2.17834 -7.37257,3.61257 0,0.35768 -0.232951,0.74542 -0.549688,0.91493 -0.302328,0.1618 -0.488107,0.45466 -0.412841,0.6508 0.07527,0.19614 -0.153626,0.54694 -0.508646,0.77956 -0.355021,0.23261 -0.645492,0.59982 -0.645492,0.81601 0,0.72024 -1.365818,1.93828 -2.717039,2.42304 -0.734299,0.26344 -1.383002,0.66155 -1.441562,0.88469 -0.09473,0.36095 -0.793261,0.73846 -3.323609,1.79616 -0.404434,0.16906 -0.821984,0.54161 -0.927889,0.8279 -0.11166,0.30184 -0.319986,0.44169 -0.495881,0.33288 z m 10.198935,-11.46164 c 0.912067,-0.31795 1.882045,-1.84186 1.882045,-2.95685 0,-0.78588 -0.893675,-1.61619 -2.184387,-2.02948 -2.001596,-0.64093 -3.899689,1.11303 -3.900618,3.60442 -3.59e-4,0.96201 0.09227,1.13628 0.727193,1.36817 0.9912,0.36202 2.460033,0.36783 3.475767,0.0137 z M 61.11875,119.59167 c -0.08994,-0.14552 -0.632745,-0.26459 -1.20624,-0.26459 -1.040116,0 -1.042718,-0.003 -1.042718,-1.05833 0,-0.64676 0.123472,-1.05833 0.3175,-1.05833 0.229305,0 0.220118,-0.0919 -0.03307,-0.33073 -0.280459,-0.26459 -0.374827,-0.26459 -0.471841,0 -0.0667,0.1819 -0.228373,0.33073 -0.359282,0.33073 -0.231732,0 0.621601,-1.73313 1.100796,-2.23573 0.131807,-0.13825 0.23965,-0.49694 0.23965,-0.7971 0,-0.30016 0.297656,-0.76927 0.661458,-1.04248 0.363802,-0.2732 0.661458,-0.66284 0.661458,-0.86586 0,-0.453 0.790795,-1.72879 1.250419,-2.01729 0.185395,-0.11637 0.337081,-0.34218 0.337081,-0.50178 0,-0.15961 0.423083,-0.9276 0.940185,-1.70665 l 0.940185,-1.41645 5.872836,0.008 5.872835,0.008 -0.834372,0.71985 c -0.458905,0.39592 -1.292342,1.0953 -1.852083,1.55419 -1.810107,1.48396 -3.578986,3.01373 -4.558536,3.94231 -0.5264,0.49902 -1.046389,0.90834 -1.155529,0.9096 -0.109141,0.001 -0.198438,0.18089 -0.198438,0.39917 0,0.21828 -0.113181,0.39687 -0.251515,0.39687 -0.138333,0 -0.97177,0.71803 -1.852083,1.59561 -0.880312,0.87758 -1.600568,1.44976 -1.600568,1.27151 0,-0.29087 -0.363585,0.13967 -1.579764,1.87068 -0.417231,0.59386 -0.933154,0.7184 -1.198361,0.28929 z m -3.571875,-8.0698 v -4.89479 h 3.190615 c 3.460969,0 3.357802,-0.0707 2.194309,1.5037 -0.342333,0.46324 -0.622424,0.96925 -0.622424,1.12448 0,0.15523 -0.119063,0.28224 -0.264583,0.28224 -0.145521,0 -0.264584,0.16007 -0.264584,0.35572 0,0.19565 -0.300733,0.70166 -0.668296,1.12448 -0.367563,0.42282 -0.737658,1.03665 -0.822433,1.36407 -0.08478,0.32742 -0.230526,0.59547 -0.323891,0.59567 -0.09336,1.9e-4 -0.586473,0.77394 -1.095796,1.71943 -0.509323,0.9455 -1.015339,1.71925 -1.12448,1.71944 -0.10914,2e-4 -0.198437,-2.2023 -0.198437,-4.89444 z m 25.720297,0.51837 c -0.190841,-0.21596 -0.802882,-0.38607 -1.389063,-0.38607 -0.974782,0 -1.047901,-0.0524 -1.047901,-0.75128 0,-0.54684 -0.182025,-0.83422 -0.668884,-1.05605 -0.367886,-0.16762 -0.737812,-0.48439 -0.822058,-0.70393 -0.100248,-0.26124 -0.509071,-0.39916 -1.183199,-0.39916 -1.231105,0 -1.322819,-0.38717 -0.237949,-1.00449 0.435643,-0.2479 0.79283,-0.59955 0.79375,-0.78145 0.0013,-0.25535 1.448954,-0.33073 6.351673,-0.33073 3.4925,0 6.35,0.0971 6.35,0.21575 0,0.24516 2.054819,0.19888 2.30563,-0.0519 0.0901,-0.0901 0.411861,-0.15768 0.715029,-0.15018 0.367657,0.009 0.198783,0.15708 -0.507118,0.44442 -0.582083,0.23693 -1.135443,0.54552 -1.229688,0.68576 -0.09425,0.14024 -0.405893,0.19365 -0.69255,0.11869 -0.361232,-0.0945 -0.511652,-0.009 -0.490103,0.27768 0.01962,0.26124 -0.359365,0.5416 -1.027242,0.75991 -1.824611,0.59642 -1.984375,0.66686 -1.984375,0.8749 0,0.11158 -0.208359,0.27954 -0.463021,0.37325 -0.254661,0.0937 -0.879739,0.39953 -1.389062,0.67961 -0.948315,0.52147 -1.773004,0.73191 -1.058334,0.27006 0.280151,-0.18105 -0.07002,-0.2556 -1.190625,-0.25349 l -1.5875,0.003 0.728953,0.45193 c 0.700314,0.43418 0.834981,0.87669 0.312844,1.028 -0.136425,0.0395 -0.401569,-0.10185 -0.589207,-0.31419 z"
         id="path134" /><path
         style="fill:#9eb9cd"
         d="m 98.028745,167.81198 c 3.42e-4,-0.10914 -0.961107,-0.15932 -2.136552,-0.11152 -1.51227,0.0615 -2.445913,-0.0366 -3.193062,-0.33556 -0.580739,-0.23237 -1.146777,-0.36632 -1.257863,-0.29766 -0.284438,0.17579 -2.364592,-0.48076 -3.467577,-1.09446 -0.630583,-0.35085 -1.938155,-0.61827 -4.100775,-0.83866 -3.287402,-0.33501 -5.372879,-0.74132 -5.807604,-1.13146 -0.138245,-0.12407 -0.703792,-0.22558 -1.256771,-0.22558 -0.552979,0 -1.005417,-0.11679 -1.005417,-0.25954 0,-0.14275 -0.297656,-0.33425 -0.661458,-0.42556 -0.363802,-0.0913 -0.661458,-0.27919 -0.661458,-0.41753 0,-0.13833 -0.101122,-0.18901 -0.224716,-0.11263 -0.270534,0.1672 -1.38616,-1.05442 -1.16495,-1.27563 0.08522,-0.0852 -0.04349,-0.15494 -0.286029,-0.15494 -0.242534,0 -0.44934,0.14883 -0.459568,0.33073 -0.01023,0.1819 -0.113039,0.0926 -0.22847,-0.19844 -0.127706,-0.32199 -0.09453,-0.60527 0.08474,-0.72355 0.163572,-0.10792 -0.02207,-0.19619 -0.417373,-0.19844 -0.391594,-0.002 -0.796306,-0.14048 -0.89936,-0.30722 -0.129379,-0.20934 0.0091,-0.25513 0.447406,-0.14794 2.739221,0.66984 6.136368,1.02266 9.895896,1.02776 3.713212,0.005 4.573726,-0.0801 6.995534,-0.69234 2.760875,-0.69793 7.533521,-2.90946 10.357454,-4.7994 0.725209,-0.48535 2.199878,-1.06761 3.652158,-1.44202 1.33969,-0.34539 3.40672,-1.11016 4.59339,-1.6995 l 2.1576,-1.07151 0.36915,-1.68933 c 0.27667,-1.26611 0.29629,-1.84922 0.0784,-2.32755 -0.36592,-0.80311 -0.38754,-4.58208 -0.0262,-4.58208 0.14552,0 0.27839,0.38695 0.29527,0.85989 0.0169,0.47295 0.0851,0.65154 0.15169,0.39688 0.0733,-0.28053 0.37406,-0.46302 0.76306,-0.46302 h 0.64206 v 8.73125 c 0,7.37553 -0.0585,8.73125 -0.37657,8.73125 -0.20712,0 -0.74046,0.30619 -1.18521,0.68042 -0.44475,0.37423 -0.93014,0.60533 -1.07864,0.51355 -0.1485,-0.0918 -0.27,-0.0454 -0.27,0.10313 0,0.1485 -0.47625,0.39824 -1.05833,0.55498 -0.62195,0.16747 -1.05833,0.44442 -1.05833,0.67166 0,0.21267 -0.11907,0.38667 -0.26459,0.38667 -0.14552,0 -0.26458,-0.47625 -0.26458,-1.05833 0,-1.22703 -0.12493,-1.28629 -0.91484,-0.43396 -0.36865,0.39778 -1.02779,0.69172 -1.81628,0.80996 -0.68069,0.10207 -1.23763,0.28965 -1.23763,0.41684 0,0.12718 -0.41672,0.38193 -0.92604,0.5661 -0.50932,0.18418 -0.926045,0.48954 -0.926045,0.67859 0,0.18905 -0.119063,0.34372 -0.264583,0.34372 -0.398915,0 -1.322917,1.0055 -1.322917,1.43959 0,0.2097 0.119062,0.45485 0.264583,0.54479 0.408778,0.25263 0.312577,0.92604 -0.132291,0.92604 -0.218282,0 -0.396596,-0.0893 -0.396254,-0.19844 z m -22.225621,-7.87931 c -2.269726,-0.31632 -5.025625,-1.01231 -6.922292,-1.74818 -0.799502,-0.31019 -0.931387,-0.68904 -1.183243,-3.3989 -0.144915,-1.55924 -0.103171,-1.99151 0.215003,-2.2264 0.217158,-0.16031 0.468799,-0.83554 0.559201,-1.5005 0.32935,-2.42255 0.307273,-2.40231 5.400261,-4.95052 2.859566,-1.43075 6.06016,-3.29331 8.148779,-4.74212 1.89177,-1.31227 4.332551,-2.9681 5.423958,-3.67964 1.745994,-1.13829 2.033437,-1.44146 2.392789,-2.52371 0.443739,-1.3364 0.94136,-2.07251 1.40992,-2.08565 0.164083,-0.005 0.61513,-0.53067 1.002328,-1.16905 1.168502,-1.92654 1.527694,-2.05344 4.534526,-1.60207 2.783264,0.41781 4.028086,0.90705 4.273236,1.67945 0.13164,0.41474 0.52419,0.51779 2.46615,0.6474 1.27028,0.0848 2.88827,0.37013 3.59555,0.63412 l 1.28596,0.47998 -0.19701,1.71979 c -0.10836,0.94588 -0.18593,1.89838 -0.17239,2.11666 0.0136,0.21829 0.10631,2.42094 0.20614,4.8948 0.11955,2.96236 0.29898,4.67857 0.52559,5.02708 0.28801,0.44292 0.26704,0.76491 -0.12867,1.97563 -0.41234,1.26161 -0.62182,1.5222 -1.63917,2.03912 -0.64152,0.32596 -2.35703,0.96157 -3.81224,1.41247 -2.66805,0.82671 -4.932219,1.82853 -6.879168,3.04379 -1.744598,1.08896 -5.721704,2.93702 -7.276041,3.38099 -3.512482,1.00327 -8.578297,1.22364 -13.229167,0.57546 z m 6.094752,-1.66578 c 0.322434,-0.99114 0.36942,-1.43596 0.158395,-1.49955 -0.165012,-0.0497 -1.371584,-0.15274 -2.681272,-0.22893 -4.060736,-0.23623 -11.092518,-2.62116 -9.900472,-3.35789 0.171068,-0.10572 0.980376,0.10594 1.798461,0.47037 2.338324,1.04164 5.542526,1.88716 8.329124,2.19788 l 2.560828,0.28555 1.879184,-1.86434 c 1.033551,-1.02538 2.698217,-2.40392 3.699258,-3.0634 1.001042,-0.65949 1.820075,-1.28912 1.820075,-1.39916 0,-0.11005 -0.184264,-0.46317 -0.409476,-0.7847 -0.393592,-0.56193 -0.360822,-0.6181 0.844777,-1.44794 1.902385,-1.30944 4.899165,-4.01594 8.506515,-7.68252 l 3.253277,-3.30669 2.24155,-0.18672 c 2.70442,-0.22528 3.61403,-0.44775 3.77232,-0.92262 0.0847,-0.25409 -0.0224,-0.30404 -0.36767,-0.17153 -0.26794,0.10282 -0.96879,0.22663 -1.55746,0.27514 -0.58866,0.0485 -0.83217,0.035 -0.54112,-0.0301 2.08346,-0.46571 2.51354,-0.65748 2.51354,-1.12076 0,-0.67122 -0.695,-0.80658 -4.16291,-0.81079 l -2.97228,-0.004 0.41069,0.86123 c 0.5599,1.17414 0.1568,2.21064 -1.05698,2.71778 -0.943819,0.39436 -2.008106,1.6314 -2.008106,2.33406 0,0.59643 -1.100483,1.74514 -1.760133,1.83727 -0.721122,0.10071 -1.414867,0.66833 -1.414867,1.15763 0,0.64106 -1.251548,1.67483 -2.038494,1.68378 -0.936636,0.0107 -1.665673,0.55563 -1.665673,1.24513 0,0.91197 -0.691521,1.19804 -3.14595,1.30144 -2.326036,0.098 -2.3479,0.0929 -3.74358,-0.86713 -0.772133,-0.53113 -1.949792,-1.15795 -2.61702,-1.39292 -0.667228,-0.23497 -1.271758,-0.54629 -1.3434,-0.69181 -0.215665,-0.43806 1.204155,-0.45445 2.23021,-0.0257 0.527885,0.22056 1.14545,0.32978 1.372366,0.2427 0.615401,-0.23615 -0.01214,-0.54372 -1.537368,-0.75349 -1.321707,-0.18178 -1.760714,-0.6541 -0.607966,-0.6541 0.411574,0 0.661459,-0.14993 0.661459,-0.39688 0,-0.52952 -0.264086,-0.49234 -1.058334,0.14903 -1.458395,1.17769 -3.500957,2.35541 -7.471092,4.30779 -2.35553,1.15836 -4.28598,2.2759 -4.445134,2.57328 -0.154733,0.28912 -0.351328,1.11668 -0.436878,1.83901 -0.08555,0.72233 -0.317661,1.44788 -0.515803,1.61232 -0.387617,0.3217 -0.454421,2.04629 -0.146404,3.77951 0.160386,0.90249 0.315942,1.07974 1.241523,1.41465 3.250451,1.17616 7.289831,1.90383 10.160184,1.8303 l 1.693688,-0.0434 z m 8.309092,-12.9322 c 0.180777,-0.47109 -1.54453,-2.72427 -2.086036,-2.72427 -0.19072,0 -0.493996,-0.17741 -0.673945,-0.39423 -0.27078,-0.32627 -0.219352,-0.43442 0.298332,-0.62737 0.548185,-0.20432 0.445616,-0.26978 -0.829695,-0.52957 -2.225553,-0.45337 -3.04398,-0.44762 -3.767475,0.0264 -0.811832,0.53193 -0.736436,1.78932 0.107292,1.78932 0.281304,0 0.854261,0.17727 1.273239,0.39393 0.695462,0.35964 0.772262,0.35388 0.88221,-0.0661 0.08969,-0.34264 0.128268,-0.30812 0.151125,0.13523 0.01688,0.32742 0.08049,0.59531 0.141344,0.59531 0.06086,0 0.298984,0.0723 0.529167,0.1606 0.285098,0.10941 0.427125,0.004 0.445525,-0.33073 0.01662,-0.30222 0.128602,-0.17633 0.290968,0.32711 0.280235,0.86891 1.791756,2.02287 1.806734,1.37934 0.0051,-0.21768 0.105636,-0.1783 0.271581,0.10634 0.296593,0.50874 0.921736,0.37866 1.159634,-0.2413 z m 3.538862,-2.91613 c 0.06706,-0.46944 -0.282149,-0.8176 -1.788643,-1.78324 -1.029587,-0.65995 -2.002559,-1.1999 -2.16216,-1.1999 -0.159602,0 -0.225856,-0.16764 -0.147232,-0.37253 0.109022,-0.28411 -0.179407,-0.39427 -1.215153,-0.46413 -1.139997,-0.0769 -1.540834,0.0294 -2.495896,0.66205 -1.059783,0.70197 -1.409357,1.04225 -0.939351,0.91437 1.13953,-0.31005 4.869999,1.03692 6.416146,2.31669 0.939724,0.77783 2.216433,0.7377 2.332289,-0.0733 z m 3.488544,-2.97126 c 0,-0.53567 -1.614488,-1.87523 -2.877094,-2.38715 -0.846524,-0.34323 -0.86706,-0.38197 -0.396875,-0.74873 0.433614,-0.33824 0.437734,-0.36675 0.03282,-0.22719 -0.254661,0.0878 -0.463021,0.0737 -0.463021,-0.0312 0,-0.10492 -0.600284,-0.17556 -1.333965,-0.15698 -0.88249,0.0223 -1.300826,-0.067 -1.236047,-0.26395 0.05386,-0.16376 0.386249,-0.3395 0.738653,-0.39055 0.352404,-0.0511 0.728208,-0.22965 0.83512,-0.39688 0.14596,-0.22831 0.195395,-0.22843 0.198438,-4.9e-4 0.0022,0.16697 0.760532,0.43531 1.685119,0.59632 0.924587,0.16101 2.26404,0.4696 2.976562,0.68575 1.812019,0.54971 2.407464,0.50017 2.892896,-0.24069 0.35285,-0.53852 0.36425,-0.72879 0.0722,-1.20563 -0.23257,-0.37978 -0.540102,-0.53028 -0.93404,-0.45712 -0.336861,0.0626 -0.519448,-7.2e-4 -0.428177,-0.1484 0.09689,-0.15677 -0.265744,-0.21696 -0.927153,-0.15389 -0.622614,0.0594 -0.98724,0.005 -0.854245,-0.12844 0.12762,-0.12762 0.838967,-0.19 1.580769,-0.13863 0.741803,0.0514 1.348666,0.0624 1.348566,0.0244 -7.8e-4,-0.33082 -1.204622,-2.51498 -1.429538,-2.59367 -0.57258,-0.20031 -4.465816,-0.59945 -4.757054,-0.4877 -0.163542,0.0628 -0.700769,0.70529 -1.19384,1.42785 -0.493071,0.72256 -1.17879,1.49871 -1.523821,1.72478 -0.383636,0.25137 -0.754289,0.88574 -0.95416,1.63303 -0.255134,0.95392 -0.554923,1.37292 -1.366584,1.91003 -0.807126,0.5341 -0.932765,0.70866 -0.561559,0.78022 0.263006,0.0507 0.579934,-0.0684 0.704284,-0.26459 0.125313,-0.19774 0.227896,-0.22729 0.230141,-0.0663 0.0022,0.15975 0.331474,0.2999 0.731656,0.31144 0.400182,0.0115 1.303022,0.26778 2.00631,0.56943 1.569631,0.67324 1.593854,0.67356 1.422756,0.0193 -0.192816,-0.73733 0.03889,-0.66297 0.331386,0.10635 0.155021,0.40774 0.603132,0.75111 1.250222,0.95801 0.554728,0.17736 1.118873,0.42433 1.253655,0.5488 0.323752,0.29901 0.945567,-0.23204 0.945567,-0.80753 z m -15.218243,-0.42976 c -0.579497,-0.35076 -1.338812,-0.63836 -1.687366,-0.6391 -0.427331,-9.1e-4 0.04662,-0.34567 1.455208,-1.05854 1.148919,-0.58146 2.282762,-1.05771 2.519652,-1.05834 0.23689,-6.3e-4 0.875866,-0.18714 1.419948,-0.41447 0.544081,-0.22734 1.139426,-0.3557 1.322987,-0.28526 0.183562,0.0704 0.46732,-0.005 0.630573,-0.16876 0.219377,-0.21937 0.296824,-0.21398 0.296824,0.0207 0,0.17463 0.119063,0.3175 0.264584,0.3175 0.14552,0 0.264583,-0.18562 0.264583,-0.41249 0,-0.22687 0.120537,-0.33799 0.267859,-0.24694 0.147322,0.091 0.175195,0.33112 0.06194,0.5335 -0.160432,0.28668 -4.02059,3.02052 -5.493875,3.89088 -0.148106,0.0875 -0.743419,-0.1279 -1.322917,-0.47866 z m -12.232277,-2.56813 c -0.539212,-0.24443 -0.595313,-0.45388 -0.595313,-2.2226 0,-2.38729 0.68545,-3.92599 2.489863,-5.58924 0.667867,-0.61561 1.214304,-1.17638 1.214304,-1.24614 0,-0.0698 -0.238125,-0.12685 -0.529167,-0.12685 -0.291041,0 -0.529166,-0.11906 -0.529166,-0.26458 0,-0.14552 0.461671,-0.26458 1.025936,-0.26458 1.238077,0 1.334287,-0.10812 2.432196,-2.73333 0.606144,-1.44935 1.133455,-2.2755 1.754992,-2.74957 0.85772,-0.65421 0.985488,-0.67274 3.688216,-0.5348 1.539844,0.0786 3.113775,0.0566 3.497625,-0.0488 0.38385,-0.10542 0.995565,-0.10514 1.359367,6.1e-4 0.564736,0.16416 0.506702,0.19885 -0.396875,0.23725 -0.698522,0.0297 -0.900372,0.10748 -0.593712,0.22883 0.400854,0.15863 0.310071,0.35171 -0.661458,1.40684 -0.808924,0.87853 -1.103404,1.40829 -1.045569,1.88094 0.04428,0.36189 -0.113052,0.85153 -0.349628,1.08811 -0.364503,0.3645 -0.370059,0.43014 -0.03641,0.43014 0.216549,0 0.453778,-0.14883 0.527177,-0.33073 0.102285,-0.25349 0.138331,-0.25508 0.15434,-0.007 0.01149,0.17817 -0.306533,0.50316 -0.706716,0.72222 -1.304647,0.71414 -1.984375,1.4528 -1.984375,2.15642 0,0.57822 -0.09737,0.66432 -0.635057,0.56153 -0.399411,-0.0763 -0.738172,0.0373 -0.912946,0.30621 -0.241814,0.37209 -0.258122,0.36469 -0.12562,-0.0571 0.08375,-0.26656 0.152269,-0.65351 0.152269,-0.85989 0,-0.20638 0.171194,-0.37524 0.380432,-0.37524 0.218092,0 0.363319,-0.22717 0.340329,-0.53236 -0.05466,-0.7257 -0.50205,-0.52064 -0.79743,0.3655 -0.24254,0.72762 -1.355232,2.01895 -1.739655,2.01895 -0.342131,0 -2.946624,2.02802 -2.796847,2.1778 0.07681,0.0768 -0.359059,0.53464 -0.9686,1.01741 l -1.108257,0.87776 0.897618,0.34816 0.897619,0.34816 -0.875726,-0.13224 c -0.70676,-0.10672 -1.002134,0.004 -1.530888,0.57469 -0.360339,0.38882 -0.589991,0.87677 -0.510336,1.08435 0.09596,0.25005 0.01566,0.32784 -0.237955,0.23052 -0.21053,-0.0808 -0.42024,-0.0503 -0.466022,0.0677 -0.04578,0.11801 -0.35113,0.0931 -0.678552,-0.0553 z m 10.842774,-10.47858 c 0.638314,-0.5334 1.13858,-1.49754 1.347383,-2.59675 0.133559,-0.70311 0.04358,-0.9402 -0.527203,-1.38918 -0.378537,-0.29776 -1.136749,-0.67575 -1.684914,-0.83998 -2.036448,-0.61014 -3.957434,1.16443 -3.958358,3.65665 -4.51e-4,1.21597 0.188099,1.41777 1.578102,1.68904 1.217051,0.23751 2.604753,0.0152 3.24499,-0.51978 z M 57.707474,114.67524 c -0.08833,-0.23019 -0.160599,-2.13519 -0.160599,-4.23334 v -3.81482 h 3.052017 3.052018 l -0.309105,0.57757 c -0.170007,0.31766 -0.709977,1.13555 -1.199934,1.81754 -0.489956,0.68198 -0.890829,1.37457 -0.890829,1.5391 0,0.16452 -0.106621,0.29913 -0.236934,0.29913 -0.130314,0 -0.458083,0.44648 -0.728377,0.99218 -0.58455,1.18017 -2.006726,3.2275 -2.247528,3.2355 -0.09357,0.003 -0.242399,-0.18268 -0.330729,-0.41286 z"
         id="path133" /><path
         style="fill:#97a0a7"
         d="m 89.117704,163.49208 c -0.156752,-0.15675 -1.936736,-0.45655 -3.955521,-0.66621 -5.507743,-0.57203 -5.585976,-0.58514 -6.513263,-1.09166 -0.473782,-0.25879 -1.159077,-0.54578 -1.522879,-0.63773 -0.607088,-0.15346 -0.592061,-0.16978 0.182823,-0.19851 0.464354,-0.0172 0.901619,0.0615 0.971698,0.17486 0.07008,0.1134 0.912977,0.14025 1.873104,0.0597 1.350869,-0.11336 1.716421,-0.0702 1.616292,0.19071 -0.07117,0.18545 0.05249,0.33719 0.274793,0.33719 0.222303,0 0.330602,-0.11906 0.240665,-0.26459 -0.08994,-0.14552 -0.0045,-0.26458 0.189764,-0.26458 0.978916,0 5.023991,-0.60373 6.380948,-0.95236 1.606155,-0.41265 5.408494,-2.11718 7.116217,-3.19008 0.542811,-0.34103 1.155151,-0.62006 1.360755,-0.62006 0.205604,0 0.43249,-0.15288 0.504191,-0.33973 0.213739,-0.55699 2.281029,-1.4785 4.855929,-2.16456 3.09729,-0.82525 6.28258,-2.44756 6.39966,-3.25944 0.0465,-0.32245 0.16556,-0.5868 0.26458,-0.58746 0.099,-6.5e-4 0.20249,-0.43386 0.22993,-0.9627 0.0274,-0.52883 0.17627,-1.08789 0.33073,-1.24236 0.37126,-0.37126 0.3613,-0.78512 -0.0133,-0.55359 -0.29567,0.18273 -0.75984,-0.31869 -0.7517,-0.81203 0.002,-0.14553 0.1843,-0.0265 0.40421,0.26458 0.21992,0.29104 0.48402,0.4994 0.5869,0.46302 0.10288,-0.0364 0.18705,0.0827 0.18705,0.26458 0,0.1819 0.0595,0.39026 0.13229,0.46302 0.65132,0.65132 0.79375,1.62395 0.79375,5.42037 0,3.82659 -0.0334,4.10463 -0.49257,4.10463 -0.27091,0 -1.31271,0.36274 -2.3151,0.80609 -1.0024,0.44335 -2.12019,0.93411 -2.484,1.09057 -0.3638,0.15646 -0.95911,0.43321 -1.32291,0.615 -0.36381,0.18178 -1.13771,0.48045 -1.71979,0.6637 -0.58209,0.18326 -1.21004,0.4537 -1.39546,0.601 -0.18542,0.14729 -0.41177,0.19315 -0.50301,0.10192 -0.2203,-0.22031 -0.86059,0.64016 -0.87125,1.17086 -0.005,0.2304 -0.157238,0.43482 -0.339139,0.45425 -0.181901,0.0194 -1.878542,0.21522 -3.770312,0.43509 -4.079559,0.47414 -6.533596,0.51897 -6.926045,0.12652 z m -13.31458,-3.54125 c -1.382447,-0.20265 -3.346979,-0.62148 -4.365624,-0.93072 -3.366615,-1.02204 -3.22673,-0.91317 -3.548627,-2.76165 -0.386469,-2.21926 -0.362611,-3.52326 0.06914,-3.77917 0.196336,-0.11637 0.429238,-0.75564 0.51756,-1.4206 0.319531,-2.40568 0.34215,-2.42722 4.867619,-4.63569 2.298847,-1.12185 5.072691,-2.64679 6.164097,-3.38875 1.091406,-0.74196 3.764841,-2.53983 5.940967,-3.99528 3.85563,-2.57874 3.970494,-2.68275 4.501374,-4.07625 0.311765,-0.81834 0.774631,-1.53254 1.082156,-1.66976 0.295555,-0.13188 0.851951,-0.76059 1.236435,-1.39713 1.134071,-1.87753 1.483816,-1.99982 4.499608,-1.57327 2.777881,0.39291 4.042251,0.88298 4.289731,1.66271 0.13115,0.41321 0.5279,0.51936 2.44738,0.65482 1.25997,0.0889 2.87882,0.3731 3.59745,0.63152 l 1.30661,0.46985 -0.19803,1.59021 c -0.10891,0.87461 -0.18946,1.82833 -0.17899,2.11937 0.25451,7.07327 0.43368,9.59288 0.71068,9.99401 0.2589,0.3749 0.24055,0.76836 -0.0914,1.96107 -0.41375,1.48652 -0.42222,1.49526 -2.27806,2.35112 -1.02452,0.47248 -2.8809,1.15357 -4.12528,1.51355 -2.17724,0.62983 -3.680183,1.31346 -5.93957,2.70168 -2.214471,1.36061 -6.167326,3.09723 -8.202083,3.60344 -2.804866,0.69779 -8.844964,0.88185 -12.303125,0.37492 z m 6.115448,-1.67666 c 0.352678,-1.03951 0.393171,-1.42713 0.15665,-1.49956 -0.175435,-0.0537 -1.390535,-0.16001 -2.700223,-0.2362 -4.060736,-0.23623 -11.092518,-2.62116 -9.900472,-3.35789 0.171068,-0.10572 0.980376,0.10594 1.798461,0.47037 2.344593,1.04443 5.544843,1.88742 8.354675,2.20073 l 2.58638,0.2884 1.92435,-1.90638 c 1.058392,-1.04851 2.44367,-2.23966 3.078394,-2.64702 0.634725,-0.40735 1.446275,-0.97005 1.803444,-1.25044 0.632366,-0.49643 0.637397,-0.52812 0.191821,-1.20816 l -0.457577,-0.69835 1.248267,-0.8591 c 1.896349,-1.30515 4.896523,-4.01512 8.500531,-7.67831 l 3.253277,-3.30669 2.24155,-0.18672 c 2.70442,-0.22528 3.61403,-0.44775 3.77232,-0.92262 0.0824,-0.24734 -0.0219,-0.30421 -0.33662,-0.18344 -0.25085,0.0963 -0.95171,0.23035 -1.55745,0.29797 -1.08821,0.12149 -0.99376,0.0798 0.94917,-0.41896 0.69594,-0.17865 0.99219,-0.40044 0.99219,-0.74281 0,-0.67122 -0.695,-0.80658 -4.16291,-0.81079 l -2.97228,-0.004 0.41069,0.86123 c 0.5599,1.17414 0.1568,2.21064 -1.05698,2.71778 -0.943819,0.39436 -2.008106,1.6314 -2.008106,2.33406 0,0.59643 -1.100483,1.74514 -1.760133,1.83727 -0.721122,0.10071 -1.414867,0.66833 -1.414867,1.15763 0,0.64106 -1.251548,1.67483 -2.038494,1.68378 -0.936636,0.0107 -1.665673,0.55563 -1.665673,1.24513 0,0.91197 -0.691521,1.19804 -3.14595,1.30144 -2.326036,0.098 -2.3479,0.0929 -3.74358,-0.86713 -0.772133,-0.53113 -2.008408,-1.17859 -2.747278,-1.43879 -0.73887,-0.26021 -1.3434,-0.57152 -1.3434,-0.69181 0,-0.39884 1.386012,-0.38702 2.360468,0.0201 0.527885,0.22056 1.14545,0.32978 1.372366,0.2427 0.615401,-0.23615 -0.01214,-0.54372 -1.537368,-0.75349 -1.321707,-0.18178 -1.760714,-0.6541 -0.607966,-0.6541 0.411574,0 0.661459,-0.14993 0.661459,-0.39688 0,-0.56996 -0.286768,-0.49525 -1.328779,0.34617 -1.34138,1.08315 -3.082688,2.0717 -7.467985,4.23959 -2.146084,1.06093 -4.022938,2.15499 -4.170786,2.43124 -0.147848,0.27626 -0.342761,1.07264 -0.43314,1.76973 -0.09038,0.69709 -0.344439,1.47481 -0.564578,1.72825 -0.541222,0.62312 -0.263594,4.41321 0.356929,4.87269 1.214337,0.89918 7.772992,2.18325 10.805855,2.1156 l 1.827724,-0.0408 z m 8.279547,-12.91642 c 0.205856,-0.53645 -0.815383,-2.01101 -1.872853,-2.7042 -0.996867,-0.65346 -1.178204,-1.24104 -0.313195,-1.01484 0.384945,0.10067 0.48069,0.0618 0.297882,-0.12105 -0.148169,-0.14817 -1.147586,-0.42404 -2.220926,-0.61304 -1.727284,-0.30416 -2.040086,-0.29415 -2.722223,0.0871 -0.987037,0.5517 -1.171204,1.88325 -0.260473,1.88325 0.315593,0 0.914013,0.1765 1.329822,0.39223 0.687614,0.35674 0.772454,0.35075 0.937689,-0.0662 0.154023,-0.38861 0.184503,-0.37265 0.200269,0.10484 0.01212,0.36696 0.295186,0.67778 0.812346,0.892 0.436563,0.18083 0.79375,0.40773 0.79375,0.50422 0,0.0965 0.357188,0.38643 0.79375,0.64431 0.592755,0.35015 0.795788,0.38135 0.801796,0.1232 0.0051,-0.21768 0.105636,-0.1783 0.271581,0.10634 0.291943,0.50076 0.920631,0.38153 1.150785,-0.21824 z m 3.543514,-2.90716 c 0.0881,-0.61374 -0.875971,-1.45817 -2.876879,-2.51987 -0.665634,-0.35319 -1.165692,-0.77582 -1.11124,-0.93918 0.06242,-0.18725 -0.413627,-0.33159 -1.288113,-0.39057 -1.153304,-0.0778 -1.579219,0.0283 -2.52678,0.62921 -1.029681,0.653 -1.461505,1.08656 -0.941226,0.945 1.13953,-0.31005 4.869999,1.03692 6.416146,2.31669 0.921619,0.76284 2.215961,0.73989 2.328092,-0.0413 z m 3.492741,-3.01617 c 0,-0.51946 -1.487729,-1.75545 -2.907259,-2.41531 l -0.9292,-0.43193 0.661459,-0.30314 c 0.597758,-0.27394 0.604128,-0.29206 0.06615,-0.18815 -0.327422,0.0632 -0.595313,0.0278 -0.595313,-0.0787 0,-0.10653 -0.598347,-0.17557 -1.32966,-0.15343 -0.827668,0.025 -1.294673,-0.0647 -1.236989,-0.23776 0.09987,-0.29962 1.772644,-0.73037 1.773287,-0.45664 2.13e-4,0.0908 0.494275,0.19898 1.097915,0.24048 0.603641,0.0415 1.970496,0.30938 3.037457,0.59531 2.497501,0.66928 2.90729,0.65493 3.414759,-0.11957 0.55,-0.83941 0.066,-1.68815 -1.065691,-1.86885 -1.94222,-0.3101 -2.029234,-0.35585 -0.597488,-0.31416 0.836943,0.0244 1.516639,-0.0152 1.510439,-0.088 -0.006,-0.0728 -0.274241,-0.66807 -0.595664,-1.32291 l -0.584407,-1.19063 -2.248958,-0.32306 c -1.236927,-0.17768 -2.427552,-0.26779 -2.645833,-0.20023 -0.218281,0.0675 -0.800631,0.71626 -1.29411,1.44157 -0.493479,0.72532 -1.179533,1.50372 -1.524564,1.72979 -0.383636,0.25137 -0.754289,0.88574 -0.95416,1.63303 -0.251098,0.93883 -0.556899,1.37424 -1.319707,1.87904 -0.546082,0.36138 -0.992876,0.7028 -0.992876,0.75872 0,0.0559 0.446485,0.0603 0.992188,0.01 0.595659,-0.0551 1.67796,0.15917 2.708117,0.53623 0.973421,0.35629 1.753378,0.51571 1.802474,0.36842 0.0476,-0.14279 0.320948,-0.0252 0.607442,0.26127 0.286495,0.28649 0.876843,0.59209 1.311886,0.67909 0.435044,0.087 0.858642,0.26767 0.941329,0.40146 0.217088,0.35125 0.896981,-0.28679 0.896981,-0.84177 z"
         id="path132" /><path
         style="fill:#c1975e"
         d="m 77.126041,160.03174 c -2.944029,-0.30155 -7.663105,-1.48639 -8.556777,-2.1484 -0.28991,-0.21475 -0.540706,-1.05973 -0.743971,-2.50657 -0.266841,-1.89939 -0.252691,-2.24273 0.109046,-2.64584 0.228623,-0.25477 0.495309,-0.93947 0.592637,-1.52155 0.434648,-2.59949 0.282011,-2.45563 5.193293,-4.8948 2.490565,-1.23692 5.494045,-2.9403 6.674399,-3.78527 1.180355,-0.84497 3.720115,-2.55127 5.643912,-3.79178 l 3.497811,-2.25547 0.420467,-1.44635 c 0.285365,-0.98163 0.595818,-1.51123 0.966195,-1.64824 0.300151,-0.11103 0.994662,-0.84949 1.543358,-1.64103 l 0.997629,-1.43915 2.215896,0.0631 c 3.01693,0.0859 4.459214,0.53361 5.126314,1.59115 0.51571,0.81754 0.5792,0.83914 2.49618,0.84907 1.08186,0.006 2.67352,0.20843 3.53703,0.45072 l 1.57001,0.44052 -0.21098,1.47771 c -0.24806,1.73738 -0.24807,2.03088 -3.2e-4,7.56312 0.10426,2.32833 0.31651,4.49552 0.47165,4.81598 0.34361,0.70974 -0.15693,2.76091 -0.81664,3.34651 -0.62834,0.55775 -3.39004,1.66557 -5.77279,2.31568 -2.293277,0.62569 -2.823978,0.86493 -5.507475,2.48273 -3.338335,2.01259 -6.271735,3.29619 -8.769708,3.83747 -2.804191,0.60763 -7.450551,0.82115 -10.677166,0.49066 z m 9.128125,-0.6119 c 2.490172,-0.40404 4.050513,-0.83794 4.497916,-1.25079 0.165618,-0.15283 0.09139,-0.17822 -0.198437,-0.0679 -0.25709,0.0979 -0.463021,0.0539 -0.463021,-0.0988 0,-0.40031 1.145302,-0.71127 1.267663,-0.34419 0.105361,0.31608 3.749735,-1.41911 5.214628,-2.48283 0.436563,-0.31701 0.972344,-0.64503 1.190625,-0.72894 0.334914,-0.12875 0.330158,-0.15583 -0.03046,-0.17346 -0.235037,-0.0115 -0.711287,0.20247 -1.058333,0.47545 -0.347047,0.27299 -0.690526,0.50138 -0.763286,0.50753 -0.72704,0.0615 -1.782577,0.48836 -2.042106,0.8259 -0.177273,0.23056 -0.327924,0.30013 -0.334781,0.15461 -0.0069,-0.14552 -0.105108,-0.11876 -0.218337,0.0595 -0.11323,0.17823 -0.465526,0.36368 -0.782881,0.41211 -0.317354,0.0484 -0.653255,0.1643 -0.746444,0.25749 -0.09319,0.0932 -0.42368,0.004 -0.734423,-0.19798 -0.488078,-0.3174 -0.997178,-0.29503 -3.739986,0.1643 -1.996172,0.3343 -3.289864,0.68023 -3.48437,0.93172 -0.271302,0.35077 -0.377111,0.33225 -0.859896,-0.15053 -0.302789,-0.30279 -0.52076,-0.63983 -0.48438,-0.74897 0.03638,-0.10914 -1.131918,-0.27131 -2.596218,-0.36038 -1.658132,-0.10085 -3.654125,-0.44 -5.291666,-0.89913 -2.661033,-0.74608 -5.142844,-1.81092 -5.142844,-2.20658 0,-0.5137 0.395428,-0.48153 1.806417,0.14697 3.595914,1.60175 10.427505,2.91083 11.320939,2.16935 0.243298,-0.20192 1.090548,-0.30044 2.258142,-0.26257 1.621328,0.0526 1.918855,-0.0109 2.247265,-0.47981 0.288747,-0.41224 0.61152,-0.52077 1.360901,-0.4576 0.540307,0.0455 1.16097,-0.009 1.379252,-0.12039 0.218281,-0.11177 0.605234,-0.26769 0.859895,-0.34651 0.628662,-0.19457 0.592904,-0.78476 -0.03756,-0.61989 -0.420657,0.11001 -0.490661,-0.001 -0.438467,-0.69674 0.06835,-0.91084 -0.326498,-2.01828 -0.719607,-2.01828 -0.137938,0 -0.181583,-0.27577 -0.09699,-0.61282 0.08877,-0.35368 -0.01632,-0.8557 -0.248501,-1.18719 -0.38424,-0.54858 -0.345977,-0.61316 0.851943,-1.43771 1.903951,-1.31052 4.899918,-4.01671 8.517731,-7.69386 l 3.264491,-3.31804 2.95322,-0.21738 2.95322,-0.21737 0.0803,-1.10217 c 0.10559,-1.44979 -0.0499,-1.49657 -4.78341,-1.43941 l -2.3219,0.028 0.40928,0.79147 c 0.58945,1.13986 0.27372,2.03665 -0.93392,2.65274 -1.038728,0.52992 -2.107606,1.7714 -2.107606,2.44794 0,0.63994 -1.058341,1.78077 -1.652016,1.78077 -0.64883,0 -1.522984,0.71383 -1.522984,1.24366 0,0.63379 -1.256418,1.66627 -2.038494,1.67517 -0.936636,0.0107 -1.665673,0.55563 -1.665673,1.24513 0,0.91197 -0.691521,1.19804 -3.14595,1.30144 -2.326036,0.098 -2.3479,0.0929 -3.74358,-0.86713 -0.772133,-0.53113 -1.949792,-1.15795 -2.61702,-1.39292 -0.667228,-0.23497 -1.271758,-0.54629 -1.3434,-0.69181 -0.262994,-0.5342 1.308011,-0.40803 2.881748,0.23144 0.890012,0.36164 1.618202,0.60838 1.618202,0.5483 0,-0.0601 0.430728,0.13269 0.957174,0.42837 1.376263,0.773 1.423651,0.42141 0.06001,-0.44525 -1.450763,-0.92203 -2.756604,-1.39784 -3.877071,-1.4127 -0.494049,-0.007 -0.806598,-0.12312 -0.717346,-0.26753 0.333392,-0.53944 3.267275,0.41224 5.705168,1.85062 0.794166,0.46856 1.563001,0.87034 1.708522,0.89283 0.14552,0.0225 0.395871,0.12302 0.556333,0.22341 0.160463,0.10039 0.51765,0.0134 0.79375,-0.19327 0.489936,-0.36676 0.487444,-0.40163 -0.103698,-1.45105 -0.520731,-0.92443 -0.548568,-1.09719 -0.198438,-1.23154 0.223994,-0.086 0.407261,-0.2606 0.407261,-0.3881 0,-0.3672 -2.498863,-1.53592 -4.029202,-1.88446 -0.862317,-0.1964 -1.180218,-0.35266 -0.832762,-0.40934 0.864645,-0.14104 3.798838,0.94458 5.126547,1.89678 1.406173,1.00847 2.285441,1.28451 2.953193,0.92714 0.671107,-0.35916 0.608889,-0.94576 -0.202604,-1.91017 -0.64243,-0.76348 -0.65584,-0.83127 -0.198437,-1.00305 0.394913,-0.14832 0.237431,-0.29873 -0.80773,-0.77147 -0.714057,-0.32298 -1.758757,-0.649 -2.321554,-0.72449 -0.562798,-0.0755 -1.091617,-0.24784 -1.175154,-0.383 -0.356706,-0.57717 4.746,0.94066 5.630664,1.67486 0.191519,0.15895 0.533033,0.21808 0.758921,0.1314 0.225887,-0.0867 0.634454,-0.0179 0.907926,0.15291 0.386914,0.24164 0.590035,0.2335 0.915582,-0.0367 0.672615,-0.55822 0.488327,-1.24455 -0.567966,-2.11524 -0.542479,-0.44715 -0.827396,-0.81301 -0.633151,-0.81301 0.210484,0 0.289514,-0.1659 0.195606,-0.41062 -0.08666,-0.22584 -0.0481,-0.34296 0.0857,-0.26026 0.133799,0.0827 0.308352,0.045 0.387896,-0.0837 0.212166,-0.3433 -2.754396,-0.90725 -4.177153,-0.79409 -0.745576,0.0593 -1.18883,-0.007 -1.134193,-0.1692 0.133621,-0.39712 2.606378,-0.2013 5.00886,0.39664 2.878675,0.71646 3.778454,0.69218 4.308179,-0.11628 0.32809,-0.50073 0.35676,-0.76519 0.12908,-1.19062 -0.16098,-0.3008 -0.430332,-0.54691 -0.598546,-0.54691 -0.168214,0 -0.07473,-0.17481 0.207746,-0.38846 0.39275,-0.29706 0.42021,-0.39139 0.11672,-0.40093 -0.347873,-0.0109 -0.348735,-0.0429 -0.007,-0.25903 0.25585,-0.1618 0.45557,-0.1403 0.58092,0.0625 0.10507,0.17 0.25794,0.24219 0.33972,0.16042 0.0818,-0.0818 -0.12012,-0.54298 -0.44864,-1.02491 -0.726201,-1.06529 -2.105833,-1.5264 -4.909712,-1.64094 l -1.972003,-0.0806 -0.997367,1.43915 c -0.548552,0.79153 -1.221939,1.52222 -1.496415,1.62376 -0.310158,0.11473 -0.674884,0.74242 -0.963608,1.65836 -0.388929,1.23382 -0.63524,1.56968 -1.512947,2.06298 -0.576614,0.32408 -1.048388,0.67248 -1.048388,0.77423 0,0.10175 -0.208359,0.23973 -0.463021,0.30662 -0.39346,0.10334 -2.914997,1.79142 -7.53651,5.04545 -0.577823,0.40685 -3.0922,1.76079 -5.587506,3.00876 -2.495307,1.24796 -4.617489,2.39627 -4.715961,2.5518 -0.09847,0.15552 -0.30465,0.99586 -0.458173,1.86742 -0.153522,0.87156 -0.418193,1.6706 -0.588157,1.77565 -0.215896,0.13343 -0.263647,0.85304 -0.15845,2.38783 0.175882,2.56606 0.233259,2.63292 2.964642,3.45443 4.173067,1.25514 10.531363,1.63084 15.087928,0.89152 z"
         id="path131" /><path
         style="fill:#9e5827"
         d="m 77.126041,160.03174 c -2.944029,-0.30155 -7.663105,-1.48639 -8.556777,-2.1484 -0.28991,-0.21475 -0.540706,-1.05973 -0.743971,-2.50657 -0.266841,-1.89939 -0.252691,-2.24273 0.109046,-2.64584 0.228623,-0.25477 0.495309,-0.93947 0.592637,-1.52155 0.434648,-2.59949 0.282011,-2.45563 5.193293,-4.8948 2.490565,-1.23692 5.494045,-2.9403 6.674399,-3.78527 1.180355,-0.84497 3.720115,-2.55127 5.643912,-3.79178 l 3.497811,-2.25547 0.420467,-1.44635 c 0.285365,-0.98163 0.595818,-1.51123 0.966195,-1.64824 0.300151,-0.11103 0.994662,-0.84949 1.543358,-1.64103 l 0.997629,-1.43915 2.215896,0.0631 c 3.01693,0.0859 4.459214,0.53361 5.126314,1.59115 0.51571,0.81754 0.5792,0.83914 2.49618,0.84907 1.08186,0.006 2.67352,0.20843 3.53703,0.45072 l 1.57001,0.44052 -0.21098,1.47771 c -0.24806,1.73738 -0.24807,2.03088 -3.2e-4,7.56312 0.10426,2.32833 0.31651,4.49552 0.47165,4.81598 0.34361,0.70974 -0.15693,2.76091 -0.81664,3.34651 -0.62834,0.55775 -3.39004,1.66557 -5.77279,2.31568 -2.293277,0.62569 -2.823978,0.86493 -5.507475,2.48273 -3.338335,2.01259 -6.271735,3.29619 -8.769708,3.83747 -2.804191,0.60763 -7.450551,0.82115 -10.677166,0.49066 z m 10.715625,-0.85972 c 1.799968,-0.40279 7.088662,-2.78618 8.650939,-3.89862 1.414933,-1.00752 3.105664,-1.79609 4.777395,-2.22823 2.19504,-0.5674 5.78926,-1.94045 6.27336,-2.39651 0.21291,-0.20058 0.5341,-0.86253 0.71376,-1.471 0.31213,-1.05712 0.27264,-1.54511 -0.1243,-1.53593 -0.29008,0.007 -2.0028,1.58327 -1.72,1.58327 0.13987,0 0.53395,-0.29766 0.87572,-0.66146 0.72299,-0.76958 1.36684,-0.91172 0.67699,-0.14945 -0.25485,0.2816 -0.98767,0.75785 -1.62851,1.05833 -0.64083,0.30048 -1.70049,0.79736 -2.3548,1.10418 -0.65431,0.30681 -1.37487,0.48677 -1.60124,0.3999 -0.22638,-0.0869 -0.34921,-0.057 -0.27297,0.0663 0.0762,0.12336 -0.66172,0.43793 -1.63991,0.69904 -0.978183,0.2611 -2.01337,0.63506 -2.30041,0.83101 -0.287041,0.19595 -0.727609,0.35627 -0.979041,0.35627 -0.251431,0 -0.573196,0.20737 -0.715034,0.46081 -0.141837,0.25345 -0.343053,0.37565 -0.447147,0.27156 -0.104094,-0.10409 -0.559508,0.003 -1.012032,0.23842 -1.613348,0.83863 -1.773394,0.89733 -2.024158,0.74235 -0.139601,-0.0863 -0.253821,-0.018 -0.253821,0.15163 0,0.17012 -0.184197,0.23783 -0.410617,0.15094 -0.225839,-0.0867 -0.345174,-0.0517 -0.265188,0.0777 0.07998,0.12942 -0.449566,0.37805 -1.176781,0.5525 -1.528764,0.36675 -3.711242,0.48933 -3.530855,0.19832 0.06765,-0.10914 0.479973,-0.19844 0.916268,-0.19844 1.173114,0 3.171231,-0.55618 3.311522,-0.92177 0.139065,-0.3624 -0.52231,-2.13289 -1.721579,-4.60864 -0.766605,-1.58257 -0.790008,-1.71514 -0.360371,-2.04137 0.252712,-0.19189 0.532401,-0.35268 0.621532,-0.3573 0.08913,-0.005 0.60933,-0.36387 1.155998,-0.7983 0.546668,-0.43444 1.117217,-0.7137 1.267887,-0.62058 0.15067,0.0931 0.197783,0.0461 0.104695,-0.10455 -0.228563,-0.36982 2.481979,-2.76986 2.932824,-2.59685 0.208078,0.0798 0.284132,0.0189 0.182213,-0.146 -0.209228,-0.33854 1.186262,-1.87085 1.517412,-1.66619 0.126858,0.0784 0.197935,0.0241 0.15795,-0.12061 -0.03999,-0.14474 0.959928,-1.32313 2.22203,-2.61864 l 2.294733,-2.35548 1.9386,-0.0582 c 2.97317,-0.0893 3.72103,-0.31426 3.95516,-1.18971 0.10924,-0.40845 0.13484,-0.90883 0.0569,-1.11196 -0.22153,-0.5773 -1.80703,-0.88853 -3.74358,-0.73485 -2.14113,0.1699 -2.73895,-0.034 -3.53754,-1.20654 -0.743269,-1.0913 -2.098788,-1.54951 -4.925558,-1.66499 l -1.972003,-0.0806 -0.997367,1.43915 c -0.548552,0.79153 -1.221939,1.52222 -1.496415,1.62376 -0.309137,0.11435 -0.673907,0.73932 -0.958543,1.64229 -0.42789,1.35743 -0.582002,1.53228 -2.240552,2.54213 -0.979581,0.59644 -3.3884,2.21624 -5.352931,3.59956 -2.274814,1.6018 -5.30129,3.39139 -8.334375,4.92822 -2.619375,1.32721 -4.843068,2.54038 -4.94154,2.69594 -0.09847,0.15555 -0.30465,0.99592 -0.458173,1.86748 -0.153522,0.87156 -0.418193,1.6706 -0.588157,1.77565 -0.520457,0.32166 -0.122544,4.50082 0.469778,4.93394 0.68299,0.49941 3.839187,1.40844 6.311842,1.81789 2.761,0.4572 10.161003,0.30228 12.7,-0.26587 z m -1.719792,-12.58898 c -0.941417,-0.16847 -4.06281,-2.11718 -3.403127,-2.12459 0.281871,-0.003 0.273925,-0.0652 -0.03646,-0.28473 -0.352778,-0.24949 -0.352778,-0.26741 0,-0.16131 0.218281,0.0657 0.365225,0.25896 0.326542,0.42958 -0.03868,0.17062 0.08038,0.28077 0.264584,0.24479 0.184203,-0.036 0.836188,0.19648 1.448854,0.5166 0.612666,0.32012 1.505635,0.57825 1.984375,0.57362 0.837249,-0.008 0.850261,-0.024 0.34127,-0.41691 -1.14519,-0.88405 -2.930946,-1.81286 -4.082349,-2.12331 -0.665125,-0.17933 -0.945835,-0.3341 -0.6238,-0.34392 0.866653,-0.0264 3.027606,0.89123 4.934167,2.09534 0.924687,0.58399 1.932083,1.0618 2.23866,1.0618 0.787738,0 1.190207,-0.84586 0.706484,-1.4848 -0.435714,-0.57553 -0.521747,-1.6902 -0.130454,-1.6902 0.145521,0 0.264583,-0.11298 0.264583,-0.25107 0,-0.33079 -3.228895,-1.8656 -3.924816,-1.8656 -0.298029,0 -0.607505,-0.1062 -0.687725,-0.23599 -0.198708,-0.32152 1.827674,0.15051 2.796179,0.65134 0.425638,0.22011 1.503153,0.87154 2.394478,1.44763 1.88584,1.21888 2.493643,1.29893 2.910802,0.38337 0.261083,-0.57302 0.214955,-0.75735 -0.336402,-1.34424 -0.600276,-0.63898 -0.610755,-0.7008 -0.173019,-1.02089 0.585411,-0.42807 0.305636,-0.69082 -1.526432,-1.43357 -0.726425,-0.2945 -1.135881,-0.54195 -0.909902,-0.54988 0.225978,-0.008 1.395695,0.46182 2.599369,1.0439 2.536068,1.22641 3.044972,1.28772 3.604246,0.43416 0.504714,-0.77029 0.340968,-1.23877 -0.702682,-2.01037 l -0.809344,-0.59838 0.715771,-0.46954 0.715771,-0.46954 -0.753459,-0.27436 c -0.424175,-0.15446 -0.558633,-0.28349 -0.307663,-0.29525 0.245188,-0.0115 0.779614,0.10603 1.187614,0.26115 1.019317,0.38755 2.652816,0.37782 3.130521,-0.0186 0.54916,-0.45576 0.4937,-1.22348 -0.13372,-1.8509 -0.522853,-0.52285 -0.522964,-0.52916 -0.009,-0.52916 0.60159,0 1.06764,0.73475 1.06764,1.68319 0,0.66431 -1.07259,1.75639 -1.725044,1.75639 -0.43329,0 -1.24729,1.21663 -1.588931,2.37486 -0.179911,0.60993 -0.536329,1.04766 -1.058333,1.29976 -1.861964,0.89925 -2.073225,1.06087 -2.161954,1.65394 -0.128162,0.85664 -1.116031,1.58897 -1.897372,1.40656 -0.716338,-0.16723 -1.622533,0.50431 -1.622533,1.20238 0,0.81397 -0.940468,1.39518 -2.038717,1.25992 -0.552195,-0.068 -1.242116,-0.0435 -1.533158,0.0545 -0.291041,0.098 -0.945885,0.10355 -1.455208,0.0124 z m 6.357274,1.92361 c 0.359801,-0.24957 0.892309,-0.67336 1.183351,-0.94177 0.291041,-0.26841 1.270093,-0.98695 2.17567,-1.59676 0.905577,-0.60981 1.603268,-1.23322 1.550424,-1.38536 -0.05284,-0.15214 0.148016,-0.295 0.446356,-0.31747 0.29834,-0.0225 0.640623,-0.19566 0.760629,-0.38485 0.120006,-0.18919 0.222663,-0.22492 0.228127,-0.0794 0.0055,0.14552 0.221239,-0.01 0.479499,-0.34569 0.258261,-0.33566 0.722006,-0.75237 1.030536,-0.92604 1.09764,-0.61785 4.44274,-2.94519 4.53,-3.15173 0.0488,-0.11552 0.18388,-0.15125 0.30015,-0.0794 0.1596,0.0986 0.80173,-1.74543 0.80173,-2.30238 0,-0.0488 -0.60431,-0.0258 -1.34291,0.051 -1.3158,0.13682 -1.41865,0.21463 -5.093231,3.85371 -2.062672,2.04274 -4.821876,4.69097 -6.131564,5.88496 -1.309687,1.19399 -2.199382,2.1718 -1.9771,2.17291 0.222282,0.001 0.698532,-0.20218 1.058333,-0.45175 z"
         id="path130" /><path
         style="fill:#4d2d1d"
         d="m 77.522916,160.01237 c -2.503534,-0.19903 -4.018268,-0.49744 -7.157945,-1.41017 -2.062413,-0.59956 -2.196229,-0.7712 -2.526114,-3.24013 -0.251027,-1.87875 -0.235256,-2.26234 0.108784,-2.64584 0.221307,-0.24668 0.482007,-0.92477 0.579335,-1.50685 0.434946,-2.60128 0.269314,-2.44692 5.360464,-4.99572 2.843545,-1.42357 5.997518,-3.26035 8.001101,-4.65958 1.81901,-1.27034 4.280233,-2.92705 5.469385,-3.68158 1.932326,-1.22608 2.206483,-1.50215 2.579799,-2.59777 0.229739,-0.67425 0.804609,-1.59993 1.27749,-2.05707 0.472881,-0.45714 1.2061,-1.34429 1.629375,-1.97145 l 0.76959,-1.14029 2.140826,0.17331 c 2.918002,0.23622 4.601644,0.81758 5.147674,1.7775 0.4156,0.73064 0.5106,0.76082 2.39975,0.76243 1.08186,9.2e-4 2.6708,0.19914 3.53098,0.4405 l 1.56395,0.43882 -0.21552,1.47941 c -0.24946,1.7124 -0.2478,2.15281 0.0296,7.8294 0.11378,2.32834 0.32234,4.37964 0.46346,4.55845 0.34949,0.44284 -0.23613,2.81697 -0.82667,3.3514 -0.49931,0.45187 -4.59915,2.02648 -6.90972,2.65379 -0.80036,0.21729 -2.169583,0.82894 -3.042708,1.35921 -7.689272,4.66992 -12.007898,5.74724 -20.372916,5.08223 z m 10.583333,-0.83053 c 1.88505,-0.4258 4.868535,-1.79532 8.202083,-3.76503 2.711912,-1.6024 3.200065,-1.8175 5.820838,-2.56488 2.67557,-0.76301 5.16598,-1.80363 5.60547,-2.34225 0.99401,-1.21821 0.86057,-3.64755 -0.15331,-2.79098 -0.49559,0.4187 -3.23398,1.84381 -3.308,1.72155 -0.12905,-0.21317 -0.74683,-2.55031 -0.86117,-3.25796 -0.13287,-0.82233 0.47026,-2.60405 0.9903,-2.92546 0.19341,-0.11953 0.24899,-0.0105 0.1594,0.31264 -0.49625,1.79024 -0.45845,2.48574 0.20259,3.72751 0.58682,1.10233 0.83434,1.28337 0.69252,0.5065 -0.0232,-0.12699 0.14131,-0.1605 0.36554,-0.0745 0.50454,0.19361 0.50428,0.18337 -0.0222,-0.87206 -0.39843,-0.79867 -0.39658,-1.00346 0.0252,-2.7945 0.35888,-1.52391 0.57572,-1.97185 1.02525,-2.11786 0.31356,-0.10184 0.65941,-0.1723 0.76855,-0.15656 0.10914,0.0157 0.19844,-0.20951 0.19844,-0.50055 0,-0.29104 -0.0893,-0.5291 -0.19844,-0.52902 -0.29404,2.1e-4 -0.16093,-3.63462 0.18869,-5.15255 0.26691,-1.15884 0.24851,-1.35587 -0.15413,-1.65028 -0.58728,-0.42944 -2.03887,-0.70146 -2.88252,-0.54019 -0.36178,0.0692 -0.65777,0.0164 -0.65777,-0.11732 0,-0.13369 -0.67466,-0.20648 -1.49925,-0.16175 -0.99411,0.0539 -1.53492,-0.0256 -1.60512,-0.23613 -0.4944,-1.48244 -2.136232,-2.16135 -5.487403,-2.26908 l -1.844898,-0.0593 -0.888891,1.32291 c -0.48889,0.72761 -1.16807,1.47101 -1.509289,1.65201 -0.413019,0.21909 -0.758137,0.79396 -1.032459,1.71979 -0.405642,1.36904 -0.460145,1.42161 -3.498781,3.37508 -1.697696,1.0914 -4.229603,2.79854 -5.62646,3.79364 -1.396857,0.99509 -4.585273,2.82238 -7.08537,4.06063 -2.500097,1.23825 -4.622937,2.44814 -4.717422,2.68865 -0.09448,0.24051 -0.278548,1.08336 -0.409028,1.873 -0.130481,0.78964 -0.369047,1.51718 -0.530148,1.61674 -0.558932,0.34544 -0.25458,4.46873 0.367182,4.9745 0.461374,0.3753 4.000671,1.38277 6.263171,1.78282 2.662181,0.47073 10.575179,0.31979 13.096875,-0.24981 z"
         id="path129" /></g></g></svg>
