<?xml version="1.0" encoding="UTF-8" standalone="no"?>
<!-- Created with Inkscape (http://www.inkscape.org/) -->

<svg
   width="53.712032mm"
   height="65.653679mm"
   viewBox="0 0 53.712032 65.653679"
   version="1.1"
   id="svg1"
   inkscape:export-filename="the-feather.svg"
   inkscape:export-xdpi="96"
   inkscape:export-ydpi="96"
   xml:space="preserve"
   xmlns:inkscape="http://www.inkscape.org/namespaces/inkscape"
   xmlns:sodipodi="http://sodipodi.sourceforge.net/DTD/sodipodi-0.dtd"
   xmlns="http://www.w3.org/2000/svg"
   xmlns:svg="http://www.w3.org/2000/svg"><sodipodi:namedview
     id="namedview1"
     pagecolor="#ffffff"
     bordercolor="#000000"
     borderopacity="0.25"
     inkscape:showpageshadow="2"
     inkscape:pageopacity="0.0"
     inkscape:pagecheckerboard="0"
     inkscape:deskcolor="#d1d1d1"
     inkscape:document-units="mm"><inkscape:page
       x="0"
       y="0"
       width="53.712032"
       height="65.653679"
       id="page2"
       margin="0"
       bleed="0" /></sodipodi:namedview><defs
     id="defs1" /><g
     inkscape:label="Calque 1"
     inkscape:groupmode="layer"
     id="layer1"
     transform="translate(-28.885013,-100.97603)"><g
       id="g122"
       transform="translate(-40.038943,-2.195684)"><path
         style="fill:#cfe1ed"
         d="M 68.923958,135.99583 V 103.1875 h 26.855207 26.855205 v 32.80833 32.80834 H 95.779165 68.923958 Z"
         id="path129" /><path
         style="fill:#b8d3e4"
         d="m 79.374999,168.52935 c 4.695739,-1.86302 5.408479,-2.07486 6.648077,-1.97593 0.959481,0.0766 1.137017,0.0413 0.693816,-0.13767 -0.327584,-0.13232 -0.803834,-0.18006 -1.058334,-0.1061 -0.254499,0.074 0.192118,-0.17218 0.992483,-0.54699 0.800364,-0.37481 1.633802,-0.79605 1.852083,-0.93608 0.218281,-0.14004 1.141015,-0.62067 2.050521,-1.06807 0.909505,-0.44741 1.653645,-0.92391 1.653645,-1.0589 0,-0.13499 0.164016,-0.24544 0.364479,-0.24544 0.52033,0 1.153405,-0.78491 0.660106,-0.81842 -2.086305,-0.14174 -2.810446,-0.23472 -3.941898,-0.50615 -0.723811,-0.17364 -1.31602,-0.4229 -1.31602,-0.5539 0,-0.13101 -0.146257,-0.2382 -0.325016,-0.2382 -0.725332,0 -3.92128,-1.70125 -3.798249,-2.02187 0.07876,-0.20524 -0.01912,-0.27614 -0.255834,-0.1853 -0.340627,0.13071 -0.507866,-0.17955 -0.414733,-0.76939 0.01723,-0.10914 -0.226636,-0.19844 -0.541932,-0.19844 -0.315295,0 -0.506342,-0.0669 -0.42455,-0.14871 0.08179,-0.0818 1.049116,0.0373 2.149609,0.26458 1.126684,0.23272 3.306262,0.41286 4.988613,0.41229 2.789471,-9.4e-4 3.856765,-0.1307 9.734592,-1.18353 2.288603,-0.40993 5.455233,-1.33958 5.975963,-1.75441 0.15809,-0.12593 0.81293,-0.41235 1.45521,-0.63648 0.64228,-0.22413 1.94169,-0.80472 2.88758,-1.2902 0.94588,-0.48548 2.37463,-1.09386 3.175,-1.35197 0.80036,-0.2581 1.69333,-0.56947 1.98437,-0.69193 0.29104,-0.12245 1.40445,-0.56817 2.47423,-0.99049 2.2919,-0.90476 2.94742,-1.67899 2.94393,-3.47707 -0.001,-0.65484 -0.11273,-1.36522 -0.2477,-1.57862 -0.15404,-0.24356 -0.14524,-0.50869 0.0237,-0.71219 0.2909,-0.35052 -0.17039,-5.17597 -0.56535,-5.91395 -0.11821,-0.22089 -0.2243,-0.69761 -0.23573,-1.05937 -0.0114,-0.36176 -0.0815,-1.13399 -0.15572,-1.71607 -0.0742,-0.58209 -0.20674,-1.62388 -0.29453,-2.31511 -0.0949,-0.74719 -0.0553,-1.25677 0.0977,-1.25677 0.14152,0 0.24492,0.47241 0.22978,1.04981 -0.0346,1.31827 0.41332,1.8555 1.08129,1.29697 0.2581,-0.2158 0.8023,-0.53446 1.20933,-0.70812 1.61902,-0.69075 1.5089,-1.97108 1.5089,17.54363 v 17.85938 h -6.24998 -6.24998 l 0.43289,-0.59531 c 0.23808,-0.32743 0.50415,-0.74592 0.59126,-0.92999 0.0871,-0.18407 0.50214,-0.70267 0.9223,-1.15246 0.42016,-0.44978 0.76393,-0.94807 0.76393,-1.10731 0,-0.17842 -0.0828,-0.19307 -0.2157,-0.0382 -0.11864,0.13824 -0.90709,1.05503 -1.75211,2.03729 l -1.5364,1.78594 h -6.2368 -6.236796 l 0.911299,-0.64892 c 0.501214,-0.3569 1.089893,-0.81221 1.308174,-1.01179 0.218281,-0.19958 0.873018,-0.71124 1.454973,-1.13702 2.46803,-1.80572 3.48984,-2.75852 2.95831,-2.75852 -0.2445,0 -0.44453,0.11434 -0.44453,0.2541 0,0.2718 -4.593309,3.42462 -6.715078,4.60919 l -1.279281,0.71422 -8.107509,-0.0431 c -4.45913,-0.0237 -7.869385,-0.13754 -7.578343,-0.25301 z m 6.085417,-11.75667 c -2.439675,-0.50216 -3.626771,-0.87903 -4.542933,-1.44228 -0.727741,-0.44741 -0.863128,-0.71066 -1.022815,-1.98875 -0.101227,-0.8102 -0.09865,-1.79999 0.0057,-2.19955 0.104374,-0.39956 0.243685,-1.9171 0.30958,-3.37231 0.204708,-4.52074 1.303826,-5.60465 7.367113,-7.26518 4.484871,-1.22825 8.156648,-2.72514 9.590458,-3.90979 0.691602,-0.57141 1.943255,-1.53989 2.78145,-2.15217 1.400531,-1.02305 3.792751,-3.79915 5.096021,-5.91378 1.04372,-1.69351 3.02362,-2.11283 5.6707,-1.20099 2.22601,0.76679 2.5106,1.05042 2.71981,2.71067 0.10663,0.84612 0.24774,1.59228 0.31359,1.65813 0.0658,0.0659 0.71656,-0.0785 1.44601,-0.32078 1.93624,-0.64312 2.41025,-0.31921 2.41848,1.65268 0.003,0.83163 0.12968,1.9883 0.28047,2.57038 0.15078,0.58208 0.31482,1.31497 0.36452,1.62864 0.0497,0.31367 0.2866,1.24534 0.52644,2.07036 0.24781,0.85243 0.43562,2.43388 0.43501,3.66303 -5.8e-4,1.18963 0.0639,2.7138 0.14318,3.38704 0.1734,1.47154 -0.2246,1.94908 -2.34698,2.81606 -1.55201,0.63399 -2.98083,1.17314 -2.98083,1.1248 0,-0.14156 -4.00467,1.52718 -5.40908,2.25395 -0.97298,0.50352 -1.87256,0.91549 -1.99906,0.91549 -0.12649,0 -0.71407,0.22894 -1.30572,0.50876 -1.05147,0.49729 -2.87842,1.00725 -7.690302,2.14659 -4.375747,1.03608 -9.096824,1.29171 -12.170833,0.659 z m 4.244781,-1.59455 c -0.116107,-0.92929 -0.08455,-1.45521 0.08731,-1.45521 0.148019,0 0.305414,0.56555 0.349768,1.25677 0.07945,1.23817 0.09494,1.25796 1.047134,1.33736 0.938346,0.0782 0.97165,0.05 1.143613,-0.96779 0.300184,-1.77677 0.49637,-1.90536 3.247708,-2.12867 0.181901,-0.0148 0.330729,-0.12177 0.330729,-0.2378 0,-0.11603 -0.922734,-0.1159 -2.050521,3e-4 -3.719332,0.38319 -9.286446,-0.2995 -11.493232,-1.40939 -0.830804,-0.41785 -0.988291,-0.63897 -1.058334,-1.48595 -0.156182,-1.88859 0.288874,-4.02878 1.167689,-5.6152 0.853339,-1.54043 0.863927,-1.54826 3.285758,-2.43138 1.336314,-0.48728 2.39529,-0.92077 2.353282,-0.96332 -0.159554,-0.16161 -3.757214,0.83925 -4.690876,1.30498 -0.537273,0.26801 -1.311179,0.92487 -1.719792,1.45969 -0.674681,0.88308 -0.762401,1.25398 -0.954863,4.03734 -0.396887,5.73974 -0.367349,6.3784 0.320775,6.93561 1.116401,0.904 1.406599,0.67229 1.202625,-0.96026 -0.125275,-1.00267 -0.09006,-1.45521 0.113253,-1.45521 0.246992,0 0.420088,1.34015 0.366837,2.84014 -0.01141,0.32154 1.470692,0.85967 2.375628,0.86255 0.37807,0.001 0.469252,-0.25338 0.496982,-1.38758 l 0.03396,-1.38907 0.258445,1.50647 c 0.284629,1.65909 0.310497,1.67529 2.812974,1.76118 l 1.154965,0.0396 z m 21.683093,-19.97395 c 0.30935,-0.50055 -0.24708,-1.082 -2.91379,-3.0448 -0.92055,-0.67756 -2.17125,-1.1449 -3.1325,-1.1705 -0.61095,-0.0163 -0.72024,-0.10892 -0.56993,-0.48315 0.47037,-1.17103 0.41805,-1.17786 -0.3524,-0.046 -0.4533,0.6659 -1.0648,1.42849 -1.3589,1.69465 -0.2941,0.26616 -0.53473,0.59772 -0.53473,0.73681 0,0.13909 0.21508,-0.0127 0.47796,-0.33737 l 0.47797,-0.59026 2.15061,0.54385 c 1.72689,0.43669 2.44274,0.78179 3.63337,1.75157 1.53559,1.25076 1.84763,1.38973 2.12234,0.94524 z M 76.413514,151.5697 c -1.872848,-0.52173 -4.140066,-3.62484 -4.827705,-6.60761 -0.871176,-3.77889 0.345513,-8.7866 2.780636,-11.44468 0.892152,-0.97384 0.907513,-1.03066 0.907513,-3.35713 0,-1.5734 0.09953,-2.36653 0.29698,-2.36653 0.217959,0 0.218827,-0.0942 0.0033,-0.35391 -0.22674,-0.27321 -0.143625,-0.43424 0.364478,-0.70617 0.514953,-0.27559 0.658198,-0.56051 0.658198,-1.30918 0,-0.75353 0.103696,-0.95693 0.487859,-0.95693 0.3803,0 0.468538,0.16595 0.400222,0.75269 l -0.08764,0.75268 0.814848,-0.58022 c 0.63629,-0.45308 0.737019,-0.63591 0.459674,-0.83434 -0.265011,-0.18961 -0.234726,-0.21519 0.119298,-0.10078 0.270875,0.0875 0.896896,-0.11332 1.458911,-0.46811 2.599855,-1.64121 6.302826,-3.13363 8.647585,-3.48525 0.977087,-0.14652 1.19299,-0.10485 1.19299,0.23026 0,0.3503 -1.643586,1.48431 -5.386242,3.71629 -0.455126,0.27142 -1.164951,0.77744 -1.577388,1.12448 -0.412438,0.34705 -0.919346,0.63099 -1.126462,0.63099 -0.207116,0 -0.376575,0.14995 -0.376575,0.33323 0,0.18328 -0.258413,0.49461 -0.574251,0.69186 -0.549975,0.34346 -0.553367,0.37031 -0.08024,0.63509 0.355082,0.19871 0.522779,0.19016 0.5963,-0.0304 0.05626,-0.16878 0.43963,-0.30686 0.851939,-0.30686 0.412309,0 0.798908,-0.14777 0.859109,-0.32837 0.07813,-0.23438 0.245024,-0.1928 0.583107,0.14529 0.260508,0.2605 0.816487,0.54221 1.235509,0.62602 0.419022,0.0838 0.761859,0.25655 0.761859,0.38388 0,0.12733 0.427865,0.23151 0.950811,0.23151 0.700107,0 0.984319,0.12813 1.07789,0.48595 0.230889,0.88292 2.649587,1.85522 4.122861,1.65737 0.109141,-0.0147 0.19895,-0.29454 0.199576,-0.62196 6.26e-4,-0.32743 0.44711,-1.19675 0.992187,-1.93183 1.874666,-2.52815 2.181674,-3.00876 2.181674,-3.41527 0,-0.59185 0.707747,-0.50046 0.867926,0.11206 0.130117,0.49757 0.204767,0.4863 1.756023,-0.26514 4.393996,-2.12848 9.372696,-2.40501 10.204946,-0.56681 0.14364,0.31729 0.4413,0.58525 0.66145,0.59548 0.26781,0.0124 0.22515,0.0906 -0.12888,0.23618 -0.58528,0.24066 -0.32479,0.41569 0.92604,0.62226 0.4619,0.0763 0.36212,0.1201 -0.33073,0.14526 -0.5457,0.0198 -0.99219,0.1551 -0.99219,0.30062 0,0.14552 -0.22825,0.26458 -0.50723,0.26458 -0.96512,0 -2.80196,1.00783 -3.32923,1.82667 -0.29104,0.45198 -0.67473,0.76665 -0.85265,0.69927 -0.17792,-0.0674 -0.47558,0.0829 -0.66146,0.33401 -0.18588,0.2511 -0.66464,0.66508 -1.0639,0.91997 -0.39927,0.25488 -0.69692,0.60444 -0.66146,0.77679 0.0355,0.17235 -0.12235,0.31893 -0.35068,0.32572 -0.55712,0.0166 -2.362975,1.00007 -2.362975,1.28689 0,0.29072 -1.103096,1.21858 -1.462553,1.23021 -0.33102,0.0107 -1.18328,0.97207 -1.18328,1.33475 0,0.14385 -0.116897,0.26155 -0.25977,0.26155 -0.142874,0 -0.688876,0.41672 -1.213339,0.92605 -0.524463,0.50932 -1.069437,0.92604 -1.211053,0.92604 -0.141617,0 -0.1839,0.11906 -0.09396,0.26458 0.08994,0.14552 0.03041,0.26458 -0.132292,0.26458 -0.162697,0 -0.222228,0.11907 -0.132291,0.26459 0.08994,0.14552 0.114442,0.26458 0.05446,0.26458 -0.05999,0 -0.930216,0.30218 -1.933844,0.67151 -1.003628,0.36932 -3.11259,1.02577 -4.686582,1.45877 -3.835661,1.05518 -4.689072,1.52809 -5.754926,3.18908 -0.805845,1.2558 -0.891604,1.58744 -0.97832,3.78324 -0.05228,1.32373 -0.201705,2.73755 -0.332063,3.14184 -0.130359,0.40428 -0.175195,0.89616 -0.09964,1.09306 0.163154,0.42517 -1.383771,0.49314 -2.724319,0.1197 z M 73.31789,126.05232 c -0.08833,-0.23018 -0.160599,-1.18268 -0.160599,-2.11667 v -1.69815 h -1.294609 c -0.954558,0 -1.338242,-0.11371 -1.460725,-0.43289 -0.1538,-0.4008 -0.201577,-0.4008 -0.644453,0 -0.263086,0.23809 -0.55826,0.43289 -0.655942,0.43289 -0.09768,0 -0.177604,-4.28625 -0.177604,-9.525 v -9.525 l 9.458854,0.002 9.458854,0.002 -0.992188,0.94041 c -0.545703,0.51723 -0.992187,1.01472 -0.992187,1.10554 0,0.16147 1.428586,-1.05934 2.016079,-1.72285 0.23047,-0.26029 2.346359,-0.31916 9.524999,-0.26501 8.365361,0.0631 9.148271,0.10598 8.368821,0.45835 -0.72591,0.32816 -1.16105,0.80189 -0.73658,0.80189 0.33724,0 1.99335,-0.91999 1.99335,-1.10734 0,-0.11857 3.51234,-0.21558 7.8052,-0.21558 h 7.80521 v 8.44564 8.44565 l -0.84589,0.18579 c -0.46524,0.10218 -2.51907,0.14141 -4.56406,0.0872 -4.83137,-0.12815 -16.55046,0.29239 -16.55046,0.59391 0,0.12843 -0.41672,0.23351 -0.926045,0.23351 -0.646759,0 -0.926041,-0.1197 -0.926041,-0.39688 0,-0.32165 -0.426274,-0.39687 -2.248959,-0.39687 -1.322916,0 -2.248958,0.10894 -2.248958,0.26458 0,0.14552 -0.119063,0.26458 -0.264583,0.26458 -0.145521,0 -0.264584,-0.17859 -0.264584,-0.39687 0,-0.21828 0.119063,-0.39688 0.264584,-0.39688 0.14552,0 0.264583,-0.47625 0.264583,-1.05833 v -1.05833 h -1.058333 c -0.881945,0 -1.058334,0.0882 -1.058334,0.52916 0,0.48507 -0.176388,0.52917 -2.116666,0.52917 -1.877275,0 -2.116667,0.0549 -2.116667,0.48579 0,0.36817 -0.383377,0.59238 -1.583505,0.92604 -1.693008,0.4707 -2.321981,0.54642 -1.459203,0.17567 1.059815,-0.45542 -0.265915,-0.26382 -1.5875,0.22943 -1.40615,0.52481 -1.984375,0.49008 -1.984375,-0.11919 0,-0.25198 -0.303493,-0.37482 -0.926042,-0.37482 -0.612059,0 -0.926041,0.1241 -0.926041,0.36601 0,0.20131 -0.238125,0.42829 -0.529167,0.5044 -0.291041,0.0761 -0.529166,0.32812 -0.529166,0.56003 0,0.24525 -0.221369,0.42164 -0.529167,0.42164 -0.291042,0 -0.529167,0.17318 -0.529167,0.38485 0,0.49858 -1.233232,1.73182 -1.731818,1.73182 -0.211667,0 -0.384848,0.2301 -0.384848,0.51133 0,0.28124 -0.227126,0.58343 -0.504725,0.67153 -0.277598,0.0881 -0.571517,0.33426 -0.653154,0.547 -0.195247,0.50881 -0.596896,0.49285 -0.798189,-0.0317 z"
         id="path128" /><path
         style="fill:#aec9d9"
         d="m 112.91094,167.55035 c -0.45773,-0.15666 -0.41514,-0.77384 0.0661,-0.95853 0.21828,-0.0838 0.38748,-0.36439 0.37599,-0.62362 -0.0164,-0.37073 -0.0531,-0.38662 -0.17197,-0.0744 -0.16221,0.42614 -0.59459,0.78313 -0.95644,0.7897 -0.12279,0.002 0.20463,-0.59154 0.7276,-1.31948 0.52298,-0.72794 0.95086,-1.3876 0.95086,-1.46592 0,-0.0783 0.25944,-0.49329 0.57652,-0.92217 0.31709,-0.42888 0.49612,-0.86018 0.39786,-0.95844 -0.21002,-0.21003 -2.11804,1.68286 -2.36928,2.3505 -0.11106,0.2951 -0.34118,0.4041 -0.6456,0.30577 -0.39237,-0.12674 -0.40573,-0.10529 -0.0784,0.12573 0.31432,0.22182 0.32778,0.34541 0.0662,0.60704 -0.21953,0.21953 -0.32852,0.23116 -0.32852,0.035 0,-0.17671 -0.44743,-0.0797 -1.12448,0.24367 -1.40438,0.67086 -1.45293,0.71757 -1.02242,0.98364 0.24592,0.15198 0.26346,0.27142 0.0585,0.3981 -0.16105,0.0995 -0.29283,0.0549 -0.29283,-0.0992 0,-0.15411 -0.47625,-0.2802 -1.05833,-0.2802 -0.76435,0 -1.05833,0.11025 -1.05833,0.39688 0,0.33057 -0.52672,0.39687 -3.15295,0.39687 -2.2744,0 -3.19035,-0.0921 -3.28715,-0.33073 -0.10394,-0.25616 -0.1915,-0.24889 -0.38833,0.0323 -0.13977,0.19964 -0.416721,0.30455 -0.615452,0.23313 -0.23677,-0.0851 -0.110506,-0.24766 0.366275,-0.47159 0.400177,-0.18796 0.727607,-0.42829 0.727607,-0.53406 0,-0.10577 0.80367,-0.85059 1.78593,-1.65515 2.45215,-2.00852 4.1396,-3.60735 3.97793,-3.76901 -0.0742,-0.0742 -0.52111,0.2257 -0.99303,0.66654 -0.47193,0.44085 -0.96613,0.80154 -1.09824,0.80154 -0.32274,0 -1.37959,0.60024 -1.60266,0.91024 -0.1105,0.15356 -0.54093,0.13772 -1.12448,-0.0414 -0.63175,-0.19389 -0.94545,-0.20036 -0.94545,-0.0195 0,0.16238 -0.2911,0.19888 -0.727607,0.0912 -0.400183,-0.0987 -1.510804,-0.16499 -2.468048,-0.14735 -1.283437,0.0237 -1.830371,-0.0763 -2.082918,-0.38059 -0.443614,-0.53452 -1.07143,-0.53084 -1.07143,0.006 0,0.23041 -0.141387,0.3718 -0.314193,0.31419 -0.470267,-0.15675 -0.553164,-0.64881 -0.16299,-0.96746 0.18969,-0.15492 0.702079,-0.57216 1.138641,-0.9272 0.852983,-0.69369 0.723144,-1.28617 -0.160873,-0.73409 -0.293526,0.18331 -0.759864,0.26151 -1.036307,0.17377 -0.276443,-0.0877 -0.745246,-0.0297 -1.041784,0.12902 -0.433662,0.23209 -0.539161,0.20907 -0.539161,-0.11763 0,-0.27866 -0.259952,-0.40619 -0.827978,-0.40619 -1.316629,0 -5.561995,-1.63087 -5.392842,-2.07167 0.09455,-0.24639 0.0089,-0.31765 -0.258471,-0.21505 -0.219931,0.0844 -0.399875,0.0514 -0.399875,-0.0733 0,-0.12473 2.113359,-0.28684 4.696354,-0.36025 3.898981,-0.11081 5.347729,-0.27219 8.532812,-0.95045 3.75742,-0.80015 5.68771,-1.38123 6.74687,-2.03104 0.29105,-0.17856 1.00542,-0.47227 1.5875,-0.65269 0.58209,-0.18042 1.77271,-0.716 2.64584,-1.19017 0.87312,-0.47418 2.24234,-1.06271 3.04271,-1.30784 0.80036,-0.24514 1.69333,-0.54989 1.98437,-0.67723 1.96936,-0.86161 3.41276,-1.40639 3.72624,-1.40639 0.66232,0 1.42621,-1.1121 1.67364,-2.43653 0.1339,-0.71672 0.17574,-1.41269 0.093,-1.54659 -0.12681,-0.20519 -0.29133,-2.65121 -0.43355,-6.44587 -0.0177,-0.47295 -0.10878,-0.8599 -0.20236,-0.8599 -0.0936,0 -0.23668,-0.17344 -0.31802,-0.38541 -0.12246,-0.31913 -0.0365,-0.33467 0.49978,-0.0903 0.52236,0.23801 0.74151,0.21019 1.13261,-0.14375 0.26671,-0.24137 0.62438,-0.43885 0.79483,-0.43885 0.17044,0 0.30989,-0.11906 0.30989,-0.26459 0,-0.14552 0.1786,-0.26458 0.39688,-0.26458 0.34754,0 0.39687,1.661 0.39687,13.36146 0,11.70046 -0.0493,13.36146 -0.39687,13.36146 -0.24695,0 -0.39688,0.24988 -0.39688,0.66146 0,0.59531 -0.10583,0.66146 -1.05833,0.66146 -0.76435,0 -1.05833,0.11024 -1.05833,0.39687 0,0.28663 -0.29399,0.39688 -1.05834,0.39688 -0.58208,0 -1.05833,0.11906 -1.05833,0.26458 0,0.38547 -1.78373,0.3247 -1.94144,-0.0661 -0.0734,-0.1819 -0.14285,-0.003 -0.15434,0.39688 -0.0191,0.66679 -0.1078,0.7276 -1.06082,0.7276 -0.80375,0 -1.05913,0.11083 -1.12448,0.48802 -0.0465,0.26841 -0.23337,0.43708 -0.41527,0.37483 z M 84.798957,156.6155 c -3.404626,-0.73821 -4.540398,-1.38691 -4.832889,-2.76029 -0.123967,-0.58208 -0.154932,-1.59411 -0.06881,-2.24896 0.08612,-0.65484 0.21867,-2.38125 0.294552,-3.83646 0.238158,-4.5672 1.259764,-5.55067 7.649856,-7.36432 3.626694,-1.02934 7.35116,-2.35419 8.064557,-2.86868 4.881637,-3.52058 7.111467,-5.71849 9.138787,-9.00792 1.0405,-1.68828 2.96906,-2.09087 5.68311,-1.18635 2.19136,0.73032 2.4982,1.03587 2.7074,2.69603 0.10663,0.84612 0.25083,1.59537 0.32045,1.66499 0.0696,0.0696 0.72858,-0.0703 1.46435,-0.31096 1.93639,-0.63336 2.38509,-0.32664 2.39328,1.636 0.003,0.83163 0.12668,1.9883 0.2738,2.57038 0.14712,0.58208 0.30446,1.29646 0.34964,1.5875 0.0452,0.29104 0.28682,1.22868 0.53697,2.08363 0.27301,0.9331 0.44969,2.41378 0.442,3.70417 -0.007,1.18234 0.0556,2.70053 0.13931,3.37377 0.18293,1.47182 -0.21186,1.94711 -2.33908,2.81606 -1.55083,0.6335 -2.91166,1.14695 -3.11312,1.1746 -0.45012,0.0618 -3.80727,1.42947 -5.02708,2.04802 -2.01707,1.02285 -4.60033,2.03741 -6.48229,2.54589 -7.795129,2.10615 -13.240647,2.627 -17.594793,1.6829 z m 5.00308,-1.10664 c -0.291655,-1.50763 -0.287915,-1.78594 0.024,-1.78594 0.145521,0 0.264584,0.46651 0.264584,1.03669 0,1.56162 0.155101,1.78025 1.1782,1.66081 0.834641,-0.0974 0.920889,-0.19841 1.214303,-1.4215 0.173717,-0.72413 0.45061,-1.3671 0.615319,-1.42881 0.256775,-0.0962 1.282033,-0.23945 2.482282,-0.34678 0.181901,-0.0163 0.330729,-0.12451 0.330729,-0.24054 0,-0.11603 -0.922734,-0.1159 -2.050521,3e-4 -3.719332,0.38319 -9.286446,-0.2995 -11.493232,-1.40939 -0.830804,-0.41785 -0.988291,-0.63897 -1.058334,-1.48595 -0.156182,-1.88859 0.288874,-4.02878 1.167689,-5.6152 0.853339,-1.54043 0.863927,-1.54826 3.285758,-2.43138 1.336314,-0.48728 2.39529,-0.92077 2.353282,-0.96332 -0.161291,-0.16337 -3.762175,0.84173 -4.70975,1.31461 -0.547654,0.2733 -1.351326,0.98779 -1.785938,1.58776 -0.755358,1.04274 -0.790204,1.21091 -0.790204,3.81366 0,1.73282 -0.108314,2.78975 -0.297901,2.90692 -0.196072,0.12118 -0.250173,0.77871 -0.158272,1.9236 0.11008,1.37136 0.263317,1.83964 0.724088,2.21275 1.089174,0.88196 1.378534,0.64032 1.175846,-0.98194 -0.125275,-1.00267 -0.09006,-1.45521 0.113253,-1.45521 0.246992,0 0.420088,1.34015 0.366837,2.84014 -0.01141,0.32154 1.470692,0.85967 2.375628,0.86255 0.37807,0.001 0.469252,-0.25338 0.496982,-1.38758 l 0.03396,-1.38907 0.258445,1.50647 c 0.285708,1.66538 0.305751,1.67764 2.879252,1.76118 l 1.221244,0.0396 z m 21.586253,-20.30468 c 0.30935,-0.50055 -0.24708,-1.082 -2.91379,-3.0448 -0.92055,-0.67756 -2.17125,-1.1449 -3.1325,-1.1705 -0.61095,-0.0163 -0.72024,-0.10892 -0.56993,-0.48315 0.47037,-1.17103 0.41805,-1.17786 -0.3524,-0.046 -0.4533,0.6659 -1.0648,1.42849 -1.3589,1.69465 -0.2941,0.26616 -0.53473,0.59772 -0.53473,0.73681 0,0.13909 0.20986,-0.006 0.46636,-0.32304 0.4609,-0.56919 0.48806,-0.57099 2.3227,-0.15371 1.88167,0.42798 2.32791,0.65244 4.35853,2.19237 1.21555,0.92182 1.46125,1.00743 1.71466,0.59741 z m -39.676042,8.26015 c -0.159351,-0.94318 0.200238,-4.70305 0.557797,-5.83231 0.633176,-1.99975 2.934145,-5.31364 3.46267,-4.98699 0.15698,0.097 0.367258,0.77144 0.467284,1.49872 0.100027,0.72728 0.289775,1.38902 0.421663,1.47053 0.131887,0.0815 0.239796,0.43883 0.239796,0.79404 0,0.36023 0.155248,0.64585 0.351051,0.64585 0.238502,0 0.314199,0.25109 0.236106,0.78317 -0.06322,0.43074 0.07646,1.34492 0.310407,2.0315 0.511998,1.50263 0.511737,1.29448 0.0023,1.80396 -0.387735,0.38773 -0.326929,0.41177 0.727604,0.28768 0.671257,-0.079 0.896153,-0.0545 0.53977,0.0588 -0.33601,0.10683 -0.610927,0.31331 -0.610927,0.45883 0,0.14552 0.274917,0.35097 0.610927,0.45655 0.479846,0.15078 0.426427,0.17481 -0.248968,0.11197 -0.472943,-0.044 -0.859896,0.0184 -0.859896,0.13876 0,0.12032 -0.178594,0.21876 -0.396875,0.21876 -0.286632,0 -0.396875,-0.29398 -0.396875,-1.05834 0,-0.72054 -0.115879,-1.05833 -0.363059,-1.05833 -0.221642,0 -0.435314,-0.438 -0.548557,-1.12448 l -0.185498,-1.12448 -0.379826,0.79375 -0.379826,0.79375 0.122487,-1.01984 c 0.161267,-1.34274 -0.09515,-2.55203 -0.541138,-2.55203 -0.260333,0 -0.312584,-0.23317 -0.192696,-0.8599 l 0.164491,-0.85989 -0.971477,0.98589 c -0.783938,0.79557 -0.943875,1.12756 -0.828498,1.71979 0.114973,0.59015 0.09592,0.63025 -0.09727,0.20473 l -0.24025,-0.52916 -0.224943,0.52916 c -0.123718,0.29104 -0.217098,1.09472 -0.207511,1.78594 0.0096,0.69122 -0.08056,1.25677 -0.200331,1.25677 -0.11977,0 -0.198709,0.50602 -0.17542,1.12448 0.0403,1.07014 0.0476,1.07973 0.151155,0.19844 0.187193,-1.5931 0.678844,-1.63946 0.536336,-0.0506 -0.164804,1.83746 -0.613801,2.31414 -0.851961,0.90448 z m 8.133046,-1.37416 c -0.02155,-0.28613 -0.532769,-1.35106 -1.136034,-2.36651 -0.876184,-1.47483 -1.040931,-1.94238 -0.818911,-2.32402 0.261163,-0.44893 0.278927,-0.44583 0.294394,0.0514 0.01624,0.52216 0.0216,0.52237 0.404921,0.0156 0.332636,-0.43979 0.38846,-0.45038 0.38846,-0.0737 0,0.59638 1.24183,3.36643 1.771644,3.95187 0.409102,0.45205 0.443029,0.44969 0.79688,-0.0555 0.32979,-0.47084 0.287423,-0.64891 -0.393466,-1.65378 -0.993828,-1.46672 -1.202996,-2.05218 -0.733185,-2.05218 0.201812,0 0.553608,-0.0716 0.781769,-0.15918 0.289648,-0.11115 0.49744,0.0685 0.688557,0.59531 0.406487,1.12046 0.822315,1.87792 1.330252,2.42312 0.434151,0.46601 0.395377,0.51279 -0.902214,1.0884 -0.745724,0.33081 -1.562606,0.70901 -1.815293,0.84045 -0.61121,0.31794 -0.612685,0.31731 -0.657774,-0.28126 z m 4.621403,-1.76189 0.593782,-0.42621 -1.056803,-1.26223 c -0.581241,-0.69423 -1.056802,-1.43026 -1.056802,-1.63562 0,-0.20536 -0.129437,-0.50282 -0.287637,-0.66102 -0.207127,-0.20713 -0.207127,-0.3374 0,-0.46541 0.160146,-0.099 0.287637,0.005 0.287637,0.23472 0,0.22687 0.208359,0.41067 0.463021,0.40844 0.540784,-0.005 1.447072,-0.51468 0.926041,-0.52106 -0.181901,-0.002 -0.330729,-0.14958 -0.330729,-0.32744 0,-0.6333 1.031315,0.73493 1.540057,2.04318 0.362267,0.93158 0.660606,1.32291 1.008548,1.32291 0.729855,0 0.552838,-1.2871 -0.337569,-2.45448 -0.47181,-0.61858 -0.614554,-0.98809 -0.408264,-1.05686 0.174455,-0.0581 0.250735,-0.21326 0.16951,-0.34468 -0.08123,-0.13143 0.02505,-0.17267 0.236172,-0.0917 0.21112,0.081 0.462455,0.0201 0.558523,-0.13532 0.338208,-0.54723 0.66363,-0.2693 1.232215,1.05242 0.39226,0.91183 0.70815,1.30926 0.996504,1.25373 0.760948,-0.14655 0.609639,-0.94542 -0.388274,-2.04999 -0.940704,-1.04124 -0.960173,-1.10081 -0.478891,-1.46512 0.275922,-0.20886 0.62074,-0.38685 0.766261,-0.39553 0.145521,-0.009 0.727817,-0.36632 1.293993,-0.79477 0.566175,-0.42845 1.142096,-0.70936 1.279824,-0.62423 0.15211,0.094 0.137497,0.26768 -0.03722,0.4424 -0.1582,0.1582 -0.287637,0.61398 -0.287637,1.01285 0,0.39887 -0.119062,0.79881 -0.264583,0.88874 -0.145521,0.0899 -0.264584,0.50376 -0.264584,0.91961 0,0.41585 -0.12469,0.79765 -0.277091,0.84845 -0.1524,0.0508 -0.301228,0.56044 -0.330729,1.13253 -0.04687,0.90903 0.0291,1.05996 0.602588,1.19715 0.581998,0.13923 0.492215,0.2211 -0.79375,0.72379 -1.420104,0.55514 -3.574387,1.18118 -5.154142,1.49782 -0.790137,0.15837 -0.791047,0.15715 -0.199969,-0.26711 z m 7.611342,-5.38586 c -0.313549,-0.50733 -0.382925,-3.46523 -0.07684,-3.27606 0.18911,0.11688 0.238568,-0.0157 0.142675,-0.38237 -0.09648,-0.36894 0.06245,-0.78701 0.46386,-1.22013 0.335847,-0.36239 0.684975,-0.99737 0.77584,-1.41107 0.19019,-0.86593 1.314432,-2.18196 1.863983,-2.18196 0.205161,0 0.468233,-0.1631 0.584605,-0.36245 0.461383,-0.79036 4.987538,-2.68421 7.432698,-3.11002 1.45233,-0.25291 1.93174,-0.22788 3.24376,0.16937 1.47932,0.4479 1.54649,0.50711 1.71645,1.51312 0.20568,1.2174 0.11824,1.32407 -1.45249,1.77186 -0.67043,0.19114 -1.57335,0.7316 -2.09692,1.25517 -0.50572,0.50572 -1.1285,0.93524 -1.38394,0.95448 -0.25544,0.0192 -0.40926,0.12426 -0.34182,0.23338 0.0674,0.10912 -0.26824,0.39694 -0.74594,0.6396 -1.42842,0.72562 -1.58669,0.91019 -1.20254,1.40237 0.29522,0.37824 0.28133,0.38666 -0.1197,0.0725 -0.38807,-0.30398 -0.5662,-0.27528 -1.231471,0.19844 -0.968291,0.68948 -1.265619,0.69384 -1.68353,0.0247 -0.386076,-0.6182 -1.261514,-0.71001 -1.261514,-0.13229 0,0.29398 -0.308681,0.39688 -1.190625,0.39688 -0.654844,0 -1.190625,0.11906 -1.190625,0.26458 0,0.14552 -0.357188,0.26458 -0.79375,0.26458 -0.529167,0 -0.79375,0.1323 -0.79375,0.39688 0,0.21828 -0.119062,0.39687 -0.264583,0.39687 -0.387225,0 -0.325822,2.04786 0.06615,2.20603 0.23847,0.0962 0.242826,0.13927 0.01561,0.15434 -0.173312,0.0115 -0.38733,-0.096 -0.475595,-0.23878 z m -14.687415,-6.59745 c 0,-0.1334 0.148828,-0.29569 0.330729,-0.36066 0.181901,-0.065 0.234959,-0.22026 0.117906,-0.34511 -0.117053,-0.12485 -0.310548,-0.0689 -0.429989,0.12438 -0.219065,0.35446 -1.341562,0.18851 -1.341562,-0.19833 0,-0.30811 3.669579,-3.09358 5.634364,-4.27687 3.212239,-1.93458 8.388552,-3.41641 8.388552,-2.40139 0,0.23068 -2.710187,1.87968 -3.089316,1.87968 -0.157011,0 -0.432605,0.17728 -0.612433,0.39396 -0.179828,0.21668 -0.416619,0.33855 -0.526203,0.27082 -0.109584,-0.0677 -0.410095,0.10985 -0.667803,0.39462 -0.257708,0.28476 -0.898698,0.59767 -1.424423,0.69535 -1.076091,0.19995 -2.125661,0.86056 -2.138174,1.3458 -0.0046,0.17733 -0.17939,0.25677 -0.388483,0.17654 -0.217693,-0.0835 -0.311954,-0.32365 -0.220556,-0.56183 0.133718,-0.34846 0.0237,-0.33566 -0.678165,0.0789 -0.852493,0.50358 -1.033641,0.79567 -0.591685,0.95406 0.135351,0.0485 0.07705,0.31763 -0.129557,0.59805 -0.206608,0.28042 -0.466178,0.41294 -0.576822,0.2945 -0.110644,-0.11844 -0.05234,-0.26849 0.129558,-0.33346 0.522253,-0.18652 0.385177,-0.60319 -0.198438,-0.60319 -0.440972,0 -0.529166,0.17639 -0.529166,1.05834 0,0.88194 -0.08819,1.05833 -0.529167,1.05833 -0.291042,0 -0.529167,-0.10914 -0.529167,-0.24253 z M 71.061513,118.3349 c -0.01301,-0.20598 -0.420084,-0.33073 -1.079222,-0.33073 h -1.058333 v -1.05834 c 0,-0.58208 0.119062,-1.05833 0.264583,-1.05833 0.145521,0 0.264583,-0.59531 0.264583,-1.32292 0,-0.7276 -0.119062,-1.32291 -0.264583,-1.32291 -0.167105,0 -0.264583,-1.85209 -0.264583,-5.02709 v -5.02708 h 3.175 c 1.74625,0 3.175,0.0722 3.175,0.16036 0,0.0882 -0.357188,0.61135 -0.79375,1.16256 -0.836429,1.05607 -0.947742,1.32291 -0.551861,1.32291 0.133038,0 0.608188,-0.59531 1.055887,-1.32291 l 0.813999,-1.32292 h 5.991189 5.99119 l -1.412603,1.12448 c -0.776931,0.61846 -1.69134,1.39237 -2.03202,1.71979 -0.34068,0.32742 -0.703303,0.59862 -0.805829,0.60266 -0.102526,0.004 -0.543598,0.3731 -0.980161,0.82014 -0.436562,0.44703 -1.259561,1.18786 -1.828885,1.64629 -0.569324,0.45843 -1.879012,1.67015 -2.910417,2.6927 -1.031404,1.02256 -2.200813,2.06586 -2.598684,2.31845 -0.397872,0.2526 -0.792661,0.72565 -0.877309,1.05123 -0.08465,0.32558 -0.46132,0.81916 -0.837049,1.09683 -0.631557,0.46674 -0.707369,0.47174 -1.003943,0.0662 -0.17644,-0.2413 -0.456502,-0.43872 -0.62236,-0.43872 -0.371679,0 -0.399705,0.70186 -0.03698,0.92604 0.402769,0.24893 0.315574,1.19063 -0.110243,1.19063 -0.206154,0 -0.434879,0.14883 -0.508278,0.33073 -0.106762,0.26458 -0.13763,0.26458 -0.15434,0 z m 18.830673,-6.59138 c -0.185573,-0.0749 -0.330729,-0.58827 -0.330729,-1.16974 0,-1.03261 -0.0038,-1.03628 -1.058333,-1.03628 h -1.058333 v -1.05833 -1.05834 h 2.381249 c 1.940278,0 2.38125,-0.0735 2.38125,-0.39687 0,-0.28663 -0.293981,-0.39688 -1.058333,-0.39688 -0.9525,0 -1.058333,-0.0661 -1.058333,-0.66145 0,-0.62105 -0.08487,-0.66171 -1.389063,-0.66551 -0.960407,-0.003 -1.268954,-0.08 -0.99985,-0.2502 0.214067,-0.13538 0.304094,-0.33127 0.20006,-0.4353 -0.104034,-0.10403 -0.421118,0.0208 -0.704632,0.27735 -0.283513,0.25657 -0.671196,0.40415 -0.861518,0.32795 -0.251324,-0.10064 -0.235399,-0.14428 0.05818,-0.15945 0.222321,-0.0115 0.621992,-0.27523 0.888158,-0.58609 0.387575,-0.45265 0.528501,-0.49309 0.707736,-0.20308 0.176742,0.28597 0.384198,0.20844 0.986647,-0.36874 l 0.762847,-0.73085 8.311654,0.0381 8.311657,0.0381 -1.71301,0.77779 c -0.94215,0.42778 -1.77559,0.87438 -1.85208,0.99243 -0.0765,0.11805 -0.41146,0.29966 -0.74437,0.40358 -0.33291,0.10393 -1.22588,0.52544 -1.98438,0.93669 -0.758492,0.41126 -2.033923,1.08642 -2.834287,1.50036 -0.800365,0.41394 -1.494896,0.84192 -1.543403,0.95106 -0.04851,0.10914 -0.233054,0.19843 -0.410104,0.19843 -0.177051,0 -0.47098,0.14883 -0.653177,0.33073 -0.207589,0.20726 -1.091682,0.33073 -2.36802,0.33073 -1.91075,0 -2.041985,0.0368 -2.121302,0.59531 -0.10464,0.73679 0.368059,0.79281 0.558085,0.0661 0.152634,-0.58367 1.510837,-0.77395 1.510837,-0.21167 0,0.24695 0.07056,0.24695 0.3175,0 0.174625,-0.17462 0.502047,-0.31485 0.727605,-0.31161 0.764175,0.011 -0.873722,1.04037 -1.665187,1.04656 -0.526924,0.004 -0.793841,0.16445 -0.890755,0.53505 -0.142137,0.54354 -0.234103,0.58401 -0.804267,0.35394 z"
         id="path127" /><path
         style="fill:#a0b9ca"
         d="m 95.38229,161.46986 c 0,-0.12198 0.252714,-0.3969 0.561586,-0.61093 0.308872,-0.21402 0.717087,-0.53796 0.907143,-0.71987 0.190056,-0.1819 0.473124,-0.33072 0.629039,-0.33072 0.155915,0 0.283482,-0.11907 0.283482,-0.26459 0,-0.14552 -0.178594,-0.26458 -0.396875,-0.26458 -0.218281,0 -0.396873,0.0893 -0.39687,0.19844 2e-6,0.10914 -0.881559,0.17709 -1.959025,0.15099 -2.038031,-0.0494 -4.986624,-0.66843 -6.200767,-1.30191 l -0.703754,-0.36718 0.79375,-0.0219 c 0.436562,-0.012 1.003333,-0.0619 1.25949,-0.11091 0.256158,-0.049 1.585018,-0.14535 2.953024,-0.21418 1.368005,-0.0688 2.603215,-0.19679 2.74491,-0.28436 0.141695,-0.0876 1.789397,-0.47503 3.661559,-0.86101 1.872168,-0.38598 4.173878,-1.05667 5.114918,-1.49041 0.94105,-0.43374 2.18875,-0.95719 2.77268,-1.16321 0.58393,-0.20602 1.48086,-0.62374 1.99318,-0.92827 0.51232,-0.30452 1.88399,-0.89002 3.04815,-1.30111 1.16417,-0.41109 2.77152,-1.00445 3.57188,-1.31858 0.80036,-0.31413 1.75727,-0.62703 2.12646,-0.69534 0.96037,-0.17769 1.85723,-1.61542 1.88509,-3.02194 0.0126,-0.63788 -0.0446,-2.4397 -0.12709,-4.00405 -0.1364,-2.5854 -0.10809,-2.84427 0.31107,-2.84427 0.25363,0 0.58679,-0.12565 0.74037,-0.27923 0.15416,-0.15416 0.59264,-0.20057 0.97895,-0.10361 l 0.69973,0.17562 v 9.36403 c 0,8.13249 -0.0522,9.36837 -0.39687,9.3971 -0.21828,0.0182 -0.60524,0.0522 -0.8599,0.0755 -0.25466,0.0233 -0.70114,0.17485 -0.99219,0.33666 -0.29104,0.16182 -1.03518,0.43008 -1.65364,0.59614 -0.67224,0.18049 -1.12448,0.45743 -1.12448,0.68859 0,0.21268 -0.11906,0.38668 -0.26458,0.38668 -0.14552,0 -0.26459,-0.33734 -0.26459,-0.74965 0,-1.07706 -0.26676,-1.19772 -1.03999,-0.4704 -0.37389,0.35168 -0.91792,0.68784 -1.20897,0.74702 -0.29104,0.0592 -0.50697,0.22663 -0.47984,0.37212 0.0303,0.16235 -0.55742,0.22065 -1.52136,0.15092 -1.44262,-0.10435 -1.57067,-0.0695 -1.57067,0.42721 0,0.49246 -0.18933,0.54854 -2.11729,0.62711 -2.04503,0.0833 -2.11727,0.066 -2.11666,-0.50902 3.6e-4,-0.3525 0.16249,-0.59531 0.39749,-0.59531 0.21828,0 0.39688,-0.11906 0.39688,-0.26458 0,-0.14552 -0.1786,-0.26458 -0.39688,-0.26458 -0.21828,0 -0.39687,0.10461 -0.39687,0.23248 0,0.30396 -1.555,0.94654 -1.77008,0.73147 -0.0911,-0.0911 -0.29563,-0.0592 -0.45454,0.0708 -0.15891,0.13003 -2.20498,0.289 -4.54682,0.35326 -2.341835,0.0643 -4.395663,0.202 -4.564058,0.30607 -0.168394,0.10408 -0.306172,0.0894 -0.306172,-0.0326 z m -10.583333,-4.85585 c -3.4033,-0.73591 -4.540299,-1.38495 -4.832889,-2.7588 -0.123967,-0.58208 -0.153119,-1.59411 -0.06478,-2.24896 0.08834,-0.65484 0.244185,-2.45178 0.346329,-3.99319 0.163278,-2.46396 0.274069,-2.92985 0.916958,-3.85593 0.969052,-1.39593 2.151233,-2.01934 5.63069,-2.96932 2.815959,-0.76882 7.591306,-2.407 8.617632,-2.95627 0.27893,-0.14928 1.746632,-1.21933 3.261561,-2.37788 2.845152,-2.17586 4.172052,-3.52762 5.392362,-5.49342 2.12134,-3.41727 3.77968,-3.87806 7.7061,-2.14122 1.42769,0.63154 1.59058,0.85777 1.60104,2.22369 0.0131,1.70555 0.24159,1.87476 1.83027,1.35513 2.05862,-0.67334 2.28965,-0.44141 2.47951,2.48914 0.086,1.32727 0.28153,2.56404 0.43453,2.7484 0.153,0.18435 0.2218,0.39156 0.1529,0.46046 -0.0689,0.0689 0.115,0.95092 0.40869,1.96004 0.34668,1.19122 0.52955,2.57716 0.52139,3.95141 -0.007,1.16417 0.0579,2.65245 0.14413,3.30729 0.22426,1.70382 -0.10908,1.97135 -4.7808,3.83694 -0.29104,0.11622 -0.71485,0.24875 -0.9418,0.2945 -0.4783,0.0964 -2.96175,1.13245 -6.74744,2.81482 -2.57662,1.14506 -4.17385,1.65336 -7.788881,2.47873 -4.204136,0.95986 -5.353543,1.13239 -8.466667,1.27085 -2.736226,0.1217 -3.741301,0.0532 -5.820833,-0.39641 z m 5.116345,-1.50167 -0.04303,-1.52171 0.181136,1.37282 c 0.09962,0.75506 0.25565,1.44735 0.346723,1.53842 0.09107,0.0911 0.580214,0.0878 1.08698,-0.007 0.837727,-0.15716 0.934386,-0.26973 1.064489,-1.23972 0.0787,-0.58678 0.261399,-1.18517 0.40599,-1.32976 0.206582,-0.20658 4.727518,-1.0999 6.927268,-1.3688 0.220842,-0.027 0.518492,-0.11816 0.661462,-0.20259 0.14296,-0.0844 0.9743,-0.3522 1.84743,-0.59505 0.87312,-0.24284 1.73758,-0.49229 1.921,-0.55433 0.18343,-0.062 0.40825,-0.10588 0.49959,-0.0974 0.0913,0.008 0.24225,-0.10788 0.33535,-0.25852 0.0931,-0.15063 1.53515,-0.63229 3.20458,-1.07034 4.12766,-1.0831 8.62449,-2.54376 9.4043,-3.05471 0.47699,-0.31254 0.64351,-0.33421 0.64652,-0.0841 0.006,0.47061 0.51575,-0.34059 0.52106,-0.82865 0.003,-0.31285 -0.0693,-0.31023 -0.45896,0.0165 -0.8562,0.71792 -3.60683,1.71099 -8.26823,2.98512 -1.96453,0.53698 -3.86953,1.07756 -4.23334,1.20128 -0.3638,0.12372 -1.91161,0.60637 -3.43958,1.07254 -1.52797,0.46618 -2.981777,0.95061 -3.230686,1.07651 -0.248909,0.1259 -0.665627,0.16008 -0.926042,0.076 -0.405281,-0.13093 -0.416315,-0.10795 -0.07661,0.15953 0.327909,0.2582 0.286523,0.28802 -0.238162,0.17164 -0.34927,-0.0775 -1.242238,-0.0228 -1.984374,0.12139 -3.860398,0.75029 -11.175022,0.15385 -13.702467,-1.11732 -0.830804,-0.41785 -0.988291,-0.63897 -1.058334,-1.48595 -0.156182,-1.88859 0.288874,-4.02878 1.167689,-5.6152 0.853339,-1.54043 0.863927,-1.54826 3.285758,-2.43138 1.336314,-0.48728 2.39529,-0.92077 2.353282,-0.96332 -0.161291,-0.16337 -3.762175,0.84173 -4.70975,1.31461 -0.547654,0.2733 -1.351326,0.98779 -1.785938,1.58776 -0.753665,1.0404 -0.790204,1.21502 -0.790204,3.77635 0,1.63731 -0.11624,2.80176 -0.297808,2.98332 -0.184982,0.18499 -0.252686,0.92161 -0.178708,1.94436 0.09472,1.30941 0.242954,1.74683 0.723995,2.13635 1.091052,0.88348 1.430742,0.65979 1.235308,-0.81346 -0.112981,-0.8517 -0.07027,-1.3667 0.123274,-1.48632 0.209699,-0.1296 0.269531,0.29187 0.204946,1.44368 l -0.09122,1.62672 0.926042,0.22994 c 2.513591,0.62414 2.301913,0.71822 2.204962,-0.97999 -0.09817,-1.71959 0.05314,-1.59201 0.301491,0.25421 0.185444,1.37859 0.289045,1.43726 2.652922,1.50228 l 1.322916,0.0364 z m 19.091558,-17.79121 c 0.50045,-0.80975 -2.52737,-2.81054 -5.39997,-3.56831 -1.46811,-0.38729 -1.99672,-0.28604 -2.65636,0.50878 -0.29114,0.3508 -0.25588,0.41132 0.23969,0.41132 1.01677,0 4.54153,1.31456 5.67066,2.11487 1.13005,0.80096 1.86733,0.9842 2.14598,0.53334 z m 2.36796,-2.09517 c 0.29161,-0.47183 -0.19963,-1.10684 -1.80089,-2.328 -1.73075,-1.3199 -3.00832,-1.8988 -4.23193,-1.9176 -0.5645,-0.009 -0.71524,-0.1121 -0.59531,-0.40848 0.48355,-1.19495 0.42524,-1.21618 -0.36346,-0.1323 -0.47651,0.65485 -1.17112,1.51805 -1.54358,1.91823 -0.37246,0.40019 -0.5645,0.72761 -0.42676,0.72761 0.13775,0 0.39739,-0.2353 0.57699,-0.52289 0.25665,-0.41096 0.51097,-0.48962 1.18813,-0.36744 2.35036,0.42404 3.70412,0.98796 5.02314,2.0924 1.39907,1.17147 1.89685,1.38638 2.17367,0.93847 z m -23.863884,4.28732 c -0.327421,-0.0631 -0.595312,-0.23933 -0.595312,-0.39171 0,-0.15237 0.229217,-0.21709 0.509371,-0.14383 0.357334,0.0934 0.467344,0.0237 0.368567,-0.23373 -0.07744,-0.20181 -0.229045,-0.36693 -0.336895,-0.36693 -0.107851,0 -0.407689,-0.46923 -0.666307,-1.04274 -0.258618,-0.57352 -0.647297,-1.11071 -0.863732,-1.19376 -0.316924,-0.12162 -0.329914,-0.22765 -0.06674,-0.54475 0.179728,-0.21656 0.490794,-0.39375 0.691257,-0.39375 0.200463,0 0.364478,-0.12608 0.364478,-0.28019 0,-0.54844 0.549128,0.0726 1.200113,1.35725 0.657628,1.29777 0.993222,1.55772 1.322722,1.02457 0.275315,-0.44547 -0.06939,-1.38066 -0.794776,-2.15622 -0.368349,-0.39384 -0.669726,-0.77094 -0.669726,-0.83801 0,-0.1152 3.146606,-2.2824 3.313865,-2.2824 0.04321,0 -0.194418,0.75262 -0.528066,1.67248 -0.333647,0.91986 -0.690585,2.16939 -0.793196,2.77674 -0.10261,0.60734 -0.295266,1.17144 -0.428125,1.25355 -0.132859,0.0821 -0.241561,0.37189 -0.241561,0.64395 0,0.49637 -0.674953,1.35763 -1.011086,1.29017 -0.09875,-0.0198 -0.44743,-0.0876 -0.774851,-0.15069 z M 102.87471,128.3513 c -0.14833,-0.56721 -1.08711,-0.82213 -3.027576,-0.82213 -0.709414,0 -1.289844,-0.11907 -1.289844,-0.26459 0,-0.14552 -0.47625,-0.26458 -1.058333,-0.26458 -0.764352,0 -1.058333,0.11024 -1.058333,0.39688 0,0.23 -0.239742,0.39687 -0.570174,0.39687 -0.563023,0 -0.563853,-0.007 -0.06615,-0.56039 0.277215,-0.30822 0.742153,-0.66877 1.033195,-0.80122 0.488395,-0.22226 0.483299,-0.23196 -0.06615,-0.12583 -0.974098,0.18815 -0.680445,-0.29227 0.660817,-1.08109 3.459278,-2.03448 7.442698,-2.7869 9.657928,-1.82427 0.92965,0.40398 0.99219,0.50412 0.99219,1.58878 0,1.09618 -0.0456,1.16629 -0.8599,1.3208 -0.47294,0.0897 -1.20784,0.3447 -1.6331,0.56658 -0.56016,0.29226 -0.82444,0.32053 -0.95912,0.10261 -0.12271,-0.19856 -0.24267,-0.20895 -0.35291,-0.0306 -0.0919,0.14863 -0.0174,0.32058 0.16536,0.3821 0.25945,0.0873 0.25161,0.2097 -0.0357,0.55774 -0.23542,0.28518 -0.55975,0.38504 -0.89992,0.27708 -0.41473,-0.13164 -0.49572,-0.0747 -0.36782,0.25861 0.0902,0.23507 0.0971,0.4274 0.0153,0.4274 -0.0818,0 -0.20768,-0.22535 -0.27971,-0.50078 z m -33.933981,-20.33515 -0.01677,-4.82865 h 3.042708 c 1.67349,0 3.041553,0.0893 3.04014,0.19844 -0.0026,0.19757 -1.441102,2.16096 -2.229344,3.04271 -0.227657,0.25466 -0.413921,0.58495 -0.413921,0.73398 0,0.14903 -0.405314,0.86018 -0.900699,1.58035 -0.495384,0.72016 -1.06023,1.66979 -1.255213,2.11028 -0.194982,0.4405 -0.448348,0.80091 -0.563035,0.80091 -0.114687,0 -0.3162,0.26789 -0.447808,0.59531 -0.156457,0.38924 -0.245092,-1.07612 -0.256057,-4.23333 z"
         id="path126" /><path
         style="fill:#96a1aa"
         d="m 100.15498,158.58975 c 0.006,-0.27566 0.38881,-0.73933 0.85155,-1.03037 0.7825,-0.49215 1.05276,-1.19054 0.36857,-0.95245 -0.2877,0.10012 -1.11727,0.24345 -3.876143,0.66972 -0.7897,0.12202 -1.056983,0.0992 -0.79375,-0.0678 0.218281,-0.1385 1.025089,-0.33624 1.792906,-0.43943 0.767817,-0.10318 1.988647,-0.34394 2.712947,-0.535 0.72431,-0.19107 1.24993,-0.239 1.16805,-0.10651 -0.0819,0.13249 -0.0298,0.24089 0.1157,0.24089 0.14552,0 0.33937,-0.121 0.43077,-0.2689 0.0914,-0.14789 0.30679,-0.18833 0.47864,-0.0899 0.17184,0.0985 0.22172,0.0791 0.11083,-0.043 -0.2158,-0.2376 1.63808,-1.27129 3.37661,-1.88275 0.58209,-0.20472 1.73494,-0.72967 2.56189,-1.16656 1.79182,-0.94664 5.47393,-2.15744 5.85142,-1.92414 0.1521,0.094 0.18601,0.0336 0.0786,-0.14019 -0.1055,-0.17069 -0.036,-0.30942 0.15755,-0.31444 0.19049,-0.005 0.8226,-0.23902 1.40468,-0.52019 0.58208,-0.28116 1.2443,-0.51525 1.4716,-0.52019 0.22729,-0.005 0.70051,-0.39593 1.05159,-0.86887 0.69309,-0.93366 0.68304,-0.90078 0.74785,-2.4474 0.0244,-0.58208 0.13183,-1.19111 0.23874,-1.3534 0.25018,-0.37975 1.51628,-0.79284 1.28549,-0.41941 -0.0999,0.16159 0.0448,0.21319 0.36374,0.12978 0.51518,-0.13472 0.52941,-0.0104 0.52502,4.58874 l -0.005,4.72721 -1.38455,0.59691 c -0.7615,0.3283 -1.56314,0.59663 -1.78142,0.5963 -0.21828,-3.3e-4 -0.7867,0.23707 -1.26316,0.52757 -0.47646,0.2905 -1.03209,0.52818 -1.23473,0.52818 -0.20263,0 -0.40963,0.1236 -0.45999,0.27467 -0.0504,0.15108 -0.92348,0.45495 -1.94027,0.67527 -3.41326,0.73961 -3.62239,0.75451 -3.96742,0.28266 -0.29059,-0.39741 -0.38424,-0.37707 -1.03335,0.22451 -0.39259,0.36384 -1.09414,0.69085 -1.559,0.72669 -0.46486,0.0358 -0.91385,0.15783 -0.99775,0.2711 -0.0839,0.11327 -1.66148,0.27929 -3.50573,0.36892 -3.17411,0.15427 -3.35264,0.13621 -3.34299,-0.33824 z m -14.471898,-1.81869 c -2.426246,-0.44027 -4.390419,-1.09467 -5.079546,-1.69234 -0.636839,-0.55233 -1.10117,-3.75308 -0.627849,-4.32792 0.151787,-0.18435 0.316853,-1.59597 0.366811,-3.13695 0.08273,-2.55195 0.156036,-2.89576 0.822075,-3.85592 0.9509,-1.37082 2.121322,-1.99952 5.354176,-2.87604 2.720885,-0.73772 7.895351,-2.51662 8.937777,-3.07267 0.322972,-0.17228 1.742473,-1.19167 3.154446,-2.26532 2.698218,-2.0517 4.262518,-3.65049 5.450038,-5.57024 1.23046,-1.98915 1.84149,-2.60661 2.88113,-2.91142 1.11607,-0.32722 2.81192,-0.1012 4.48468,0.59773 1.6129,0.67391 1.94714,1.1141 1.94714,2.56434 0,1.55408 0.26628,1.71099 1.93954,1.14291 1.91328,-0.64958 2.18046,-0.37582 2.37523,2.43373 0.0887,1.27995 0.47784,3.45827 0.8647,4.84072 0.59053,2.11025 0.67864,2.84093 0.54914,4.55404 -0.091,1.20406 -0.0495,2.10524 0.10127,2.19843 0.4874,0.30123 0.27486,1.92811 -0.33978,2.60085 -0.53062,0.58077 -3.67559,2.02376 -4.41075,2.02376 -0.15708,0 -0.2856,0.12609 -0.2856,0.2802 0,0.15411 -0.11158,0.21124 -0.24795,0.12696 -0.13638,-0.0843 -1.35677,0.33845 -2.71198,0.93942 -5.75265,2.55098 -7.44585,3.16789 -11.472708,4.17998 -3.936393,0.98935 -8.541323,1.65028 -11.099656,1.59309 -0.582084,-0.013 -1.910634,-0.17831 -2.952334,-0.36734 z m 4.264667,-1.52679 c -0.02976,-0.76398 -0.0074,-1.03187 0.04966,-0.59531 0.254679,1.94801 0.305777,2.02109 1.351982,1.93367 0.914943,-0.0765 0.989951,-0.15084 1.192672,-1.18277 0.255878,-1.30252 0.52617,-1.56798 1.848045,-1.815 0.985998,-0.18426 0.992213,-0.17987 0.996239,0.70393 0.0022,0.48913 0.11825,1.06793 0.257827,1.28621 0.169987,0.26584 0.20016,-0.0617 0.09139,-0.99219 l -0.16239,-1.38906 h 0.905236 c 0.497879,0 1.526495,-0.16115 2.285812,-0.35812 l 1.380578,-0.35811 0.0416,1.21801 0.0416,1.21801 0.15687,-1.28769 0.15688,-1.28769 2.23908,-0.64484 c 1.2315,-0.35467 2.37151,-0.75475 2.53336,-0.88907 0.16185,-0.13432 1.47597,-0.55469 2.92029,-0.93416 1.44431,-0.37947 3.67459,-1.03704 4.95617,-1.46126 2.82318,-0.93453 3.2815,-0.95791 3.44947,-0.17602 0.11254,0.52387 0.12259,0.51594 0.0838,-0.0661 -0.0309,-0.46378 0.17548,-0.79984 0.69066,-1.12448 0.96904,-0.61065 1.07497,-0.58671 0.87791,0.19844 -0.0957,0.38143 -0.0519,0.66145 0.10361,0.66145 0.14829,0 0.27125,-0.26789 0.27324,-0.59531 0.002,-0.32742 0.0802,-0.89297 0.17382,-1.25677 0.16177,-0.62862 0.14517,-0.6401 -0.33434,-0.23133 -0.73734,0.62857 -7.27974,2.89405 -9.54259,3.30439 -0.32736,0.0594 -1.88053,0.51781 -3.4515,1.01878 -1.57096,0.50097 -3.51114,1.10848 -4.31151,1.35001 -0.80036,0.24154 -1.658858,0.54275 -1.907767,0.66936 -0.248909,0.12662 -0.665627,0.16138 -0.926042,0.0772 -0.40486,-0.13079 -0.415962,-0.1079 -0.07661,0.15798 0.322512,0.25268 0.262089,0.28159 -0.322478,0.15428 -0.395644,-0.0862 -1.288613,-0.0286 -1.984375,0.12799 -3.495546,0.78654 -11.080997,0.17104 -13.61815,-1.10501 -0.830804,-0.41785 -0.988291,-0.63897 -1.058334,-1.48595 -0.156182,-1.88859 0.288874,-4.02878 1.167689,-5.6152 0.853339,-1.54043 0.863927,-1.54826 3.285758,-2.43138 1.336314,-0.48728 2.397993,-0.91807 2.359287,-0.95732 -0.147939,-0.15 -3.714419,0.78427 -4.491712,1.17665 -2.165083,1.09293 -2.622699,1.95263 -2.862175,5.377 -0.106855,1.52797 -0.265641,3.57725 -0.352858,4.55396 -0.146879,1.64484 -0.110171,1.82424 0.497635,2.43205 0.578877,0.57888 1.940578,1.09528 4.18383,1.58665 0.683447,0.1497 0.693112,0.1318 0.594437,-1.10139 -0.110933,-1.38639 0.03335,-1.25973 0.285406,0.25054 0.180386,1.08084 0.387629,1.17655 2.680516,1.23799 l 1.344685,0.036 z m 19.059111,-17.92314 c 0.50859,-0.82291 -2.91985,-3.00554 -5.79821,-3.69128 -1.242,-0.29589 -1.33282,-0.27907 -1.97836,0.36647 l -0.6766,0.6766 h 0.6088 c 1.04017,0 4.55508,1.3045 5.69839,2.11487 1.13005,0.80096 1.86733,0.9842 2.14598,0.53334 z m 2.36796,-2.09517 c 0.29161,-0.47183 -0.19963,-1.10684 -1.80089,-2.328 -1.73075,-1.3199 -3.00832,-1.8988 -4.23193,-1.9176 -0.5645,-0.009 -0.71524,-0.1121 -0.59531,-0.40848 0.44467,-1.09888 0.44813,-1.26438 0.0138,-0.66146 -0.26206,0.3638 -0.94265,1.227 -1.5124,1.91823 -0.56976,0.69122 -0.93442,1.25677 -0.81035,1.25677 0.12406,0 0.36507,-0.22337 0.53556,-0.49637 0.27295,-0.43706 0.47038,-0.46721 1.65259,-0.25233 2.18935,0.39793 3.42532,0.94097 4.70464,2.06707 1.20081,1.057 1.76012,1.28194 2.04427,0.82217 z"
         id="path125" /><path
         style="fill:#eb9f4c"
         d="m 85.460416,156.71433 c -2.028075,-0.46836 -4.141689,-1.22743 -4.749939,-1.70589 l -0.717897,-0.56469 0.18597,-4.39531 c 0.288986,-6.83001 0.843532,-7.60884 6.484466,-9.1071 1.389035,-0.36893 4.00841,-1.21843 5.820834,-1.88777 2.832702,-1.04614 3.623498,-1.47613 5.633047,-3.06292 1.285752,-1.01526 2.476373,-1.93545 2.645833,-2.04485 0.72551,-0.46842 3.19989,-3.45105 3.91678,-4.72131 1.27208,-2.254 2.87986,-2.69567 6.14339,-1.68767 2.05831,0.63575 2.55106,1.20779 2.55106,2.96164 0,1.44877 0.21567,1.53788 2.1071,0.87054 1.76886,-0.62409 2.12608,-0.2787 2.1269,2.05646 4.2e-4,1.1986 0.24638,2.82608 0.66101,4.37373 0.45931,1.71443 0.66792,3.2046 0.68523,4.8948 0.0137,1.33648 0.13649,2.56549 0.27289,2.73113 0.42056,0.51072 -0.0442,2.47258 -0.6853,2.89263 -0.3188,0.20888 -1.87987,0.85958 -3.46904,1.44599 -2.87757,1.06184 -3.95386,1.50653 -8.40671,3.47347 -2.34437,1.03556 -7.436047,2.46801 -11.539597,3.24644 -2.044667,0.38786 -8.335305,0.53799 -9.666027,0.23068 z m 11.641666,-0.99475 c 4.656718,-1.05173 8.110948,-2.1572 11.244788,-3.5987 1.52797,-0.70284 4.00487,-1.70949 5.50422,-2.237 4.16449,-1.4652 4.90603,-1.91836 5.1009,-3.11723 0.18653,-1.14751 -0.11369,-1.4841 -0.78324,-0.87817 -0.25494,0.23072 -0.87252,0.54986 -1.37239,0.70919 -0.49987,0.15934 -1.14699,0.39262 -1.43803,0.5184 -0.77961,0.33695 -4.43681,1.43232 -7.01146,2.10001 -1.23692,0.32078 -2.66567,0.75349 -3.175,0.96159 -0.85731,0.35027 -3.35034,1.11381 -5.556247,1.70171 -5.800938,1.54601 -13.84986,1.40336 -17.247919,-0.30568 -0.830804,-0.41785 -0.988291,-0.63897 -1.058334,-1.48595 -0.156476,-1.89214 0.288913,-4.02879 1.172986,-5.62712 0.473766,-0.85653 1.039987,-1.61361 1.258268,-1.6824 1.287706,-0.40584 5.380322,-1.99514 5.159375,-2.00356 -0.145521,-0.006 -1.189256,0.21695 -2.319411,0.49444 -4.465966,1.09653 -5.815118,2.38764 -5.927902,5.67286 -0.03561,1.03739 -0.14694,3.04792 -0.247392,4.46785 -0.215629,3.04801 -0.07603,3.31157 2.206276,4.16549 2.232998,0.83548 3.870625,1.03528 7.743637,0.9448 2.691786,-0.0629 4.354176,-0.26013 6.746875,-0.80053 z m 8.281458,-16.0725 c 0.36495,-0.36495 0.42897,-1.27 0.0898,-1.27 -0.12522,0 -0.6433,-0.28206 -1.15131,-0.6268 -0.508,-0.34474 -1.74501,-0.89667 -2.7489,-1.22652 -1.00389,-0.32984 -1.871987,-0.64022 -1.929104,-0.68972 -0.05712,-0.0495 0.06195,-0.29433 0.264583,-0.54406 0.319341,-0.39356 0.315551,-0.42349 -0.02844,-0.22466 -0.883565,0.51072 -3.436665,2.60913 -3.318386,2.72741 0.06978,0.0698 0.433123,-0.0738 0.807431,-0.31905 0.577427,-0.37835 0.829273,-0.39815 1.661903,-0.13071 1.715583,0.55105 3.343073,1.24302 4.561423,1.9394 1.36922,0.78261 1.37241,0.78326 1.79096,0.36471 z m 3.58531,-2.37899 c 0.21654,-0.34387 0.16402,-0.5777 -0.22676,-1.0095 -0.58698,-0.64861 -3.82687,-2.24465 -5.08854,-2.50673 -1.04517,-0.21711 -1.21362,-0.44754 -0.77033,-1.05378 0.31288,-0.42789 0.49301,-0.43704 2.24049,-0.11385 1.04513,0.19329 1.90025,0.44466 1.90025,0.5586 0,0.11395 0.16733,0.20717 0.37184,0.20717 0.20451,0 0.86203,0.40955 1.46116,0.9101 1.22799,1.02596 2.07153,1.37662 2.43564,1.01251 0.43314,-0.43314 -0.0523,-1.10382 -1.71867,-2.37465 -1.64566,-1.255 -3.00241,-1.89649 -4.05571,-1.9176 -0.86809,-0.0174 -0.89879,-0.29799 -0.19039,-1.74021 0.72271,-1.47133 0.20715,-0.94239 -1.05267,1.08001 -0.42043,0.67492 -1.40317,1.91705 -2.18387,2.7603 l -1.41944,1.53317 0.99324,0.1749 c 1.93924,0.34149 3.53116,1.00097 4.89895,2.02949 1.45711,1.09568 1.94121,1.18628 2.40481,0.45007 z"
         id="path124" /><path
         style="fill:#ae5922"
         d="m 85.460416,156.71433 c -2.028075,-0.46836 -4.141689,-1.22743 -4.749939,-1.70589 l -0.717897,-0.56469 0.18597,-4.39531 c 0.288986,-6.83001 0.843532,-7.60884 6.484466,-9.1071 1.389035,-0.36893 4.00841,-1.21843 5.820834,-1.88777 2.832702,-1.04614 3.623498,-1.47613 5.633047,-3.06292 1.285752,-1.01526 2.476373,-1.93545 2.645833,-2.04485 0.72551,-0.46842 3.19989,-3.45105 3.91678,-4.72131 1.27208,-2.254 2.87986,-2.69567 6.14339,-1.68767 2.05831,0.63575 2.55106,1.20779 2.55106,2.96164 0,1.44877 0.21567,1.53788 2.1071,0.87054 1.76886,-0.62409 2.12608,-0.2787 2.1269,2.05646 4.2e-4,1.1986 0.24638,2.82608 0.66101,4.37373 0.45931,1.71443 0.66792,3.2046 0.68523,4.8948 0.0137,1.33648 0.13649,2.56549 0.27289,2.73113 0.42056,0.51072 -0.0442,2.47258 -0.6853,2.89263 -0.3188,0.20888 -1.87987,0.85958 -3.46904,1.44599 -2.87757,1.06184 -3.95386,1.50653 -8.40671,3.47347 -2.34437,1.03556 -7.436047,2.46801 -11.539597,3.24644 -2.044667,0.38786 -8.335305,0.53799 -9.666027,0.23068 z m 11.641666,-0.99475 c 4.656718,-1.05173 8.110948,-2.1572 11.244788,-3.5987 1.52797,-0.70284 4.00487,-1.70949 5.50422,-2.237 4.16449,-1.4652 4.90603,-1.91836 5.1009,-3.11723 0.19122,-1.1764 -0.0463,-1.4143 -0.87421,-0.87553 -0.99627,0.64834 -4.86983,1.98437 -8.53261,2.94298 -1.89599,0.49621 -4.51882,1.26989 -5.8285,1.71929 -6.620232,2.27159 -12.755388,2.90916 -17.859379,1.85594 -1.527969,-0.31529 -3.135313,-0.80322 -3.571875,-1.08428 l -0.79375,-0.51102 0.926041,0.15297 c 0.509323,0.0841 1.164167,0.2537 1.455209,0.37682 0.291041,0.12311 1.362306,0.40023 2.380589,0.61582 1.387436,0.29374 1.900303,0.31515 2.046469,0.0854 0.138227,-0.21724 0.196227,-0.2012 0.199098,0.055 0.0026,0.23065 0.195576,0.3115 0.532955,0.22328 0.290897,-0.0761 0.59558,-0.0304 0.677073,0.10143 0.200115,0.32379 1.368088,0.30534 1.572149,-0.0248 0.08994,-0.14552 0.569108,-0.26458 1.064826,-0.26458 0.644617,0 1.132556,-0.22606 1.713299,-0.79375 l 0.811994,-0.79375 -0.736726,0.004 c -0.416993,0.002 -0.603591,0.0884 -0.429957,0.19844 0.51075,0.32364 -5.704922,0.0663 -8.122993,-0.33631 -2.373469,-0.39518 -4.222318,-1.02675 -4.222318,-1.44235 0,-0.13539 0.558986,10e-4 1.242192,0.30332 2.201641,0.97389 7.938987,1.56441 10.72495,1.10388 0.542813,-0.0897 0.923583,-0.26565 0.846154,-0.39093 -0.07743,-0.12529 0.03677,-0.15966 0.253766,-0.0764 0.217001,0.0833 0.610138,0.0134 0.873638,-0.1553 0.443713,-0.28405 0.444447,-0.2959 0.0099,-0.16039 -0.393962,0.12287 -0.425115,0.064 -0.194401,-0.36704 0.160942,-0.30072 0.437457,-0.45092 0.66758,-0.36261 0.256401,0.0984 0.392839,-0.0122 0.392839,-0.31854 0,-0.2581 0.07291,-0.39637 0.162018,-0.30726 0.08911,0.0891 0.535594,-0.18892 0.992188,-0.61784 0.456593,-0.42892 0.969144,-0.72763 1.139002,-0.66379 0.169858,0.0638 0.37448,-0.055 0.454717,-0.26411 0.08024,-0.20909 0.298449,-0.38222 0.484917,-0.38474 0.186468,-0.003 0.619416,-0.30017 0.962116,-0.66145 0.60216,-0.63483 1.29095,-0.92065 0.97097,-0.40291 -0.23577,0.38148 1.36407,-0.23014 1.71824,-0.65689 0.16517,-0.19901 0.89977,-0.56095 1.63245,-0.80431 0.73268,-0.24336 2.0332,-0.83873 2.89005,-1.32305 0.85685,-0.48432 1.55791,-0.80906 1.55791,-0.72165 0,0.0874 0.20836,-0.0151 0.46302,-0.22779 0.25467,-0.2127 0.76068,-0.52794 1.12448,-0.70054 0.9227,-0.43777 1.5479,-0.8451 2.82266,-1.83902 0.78414,-0.6114 1.38175,-0.8599 2.06791,-0.8599 1.02088,0 1.9886,-0.38481 1.9886,-0.79075 0,-0.13363 -0.33002,-0.0536 -0.73337,0.17793 -0.67597,0.38795 -0.85717,0.3834 -2.3151,-0.0581 -0.86996,-0.26343 -1.74251,-0.45041 -1.93902,-0.4155 -0.1965,0.0349 -0.27877,-0.0636 -0.18282,-0.21882 0.0959,-0.15525 0.0484,-0.28228 -0.10574,-0.28228 -0.15411,0 -0.2802,0.12966 -0.2802,0.28813 0,0.46869 -1.86387,2.30955 -3.59308,3.54873 -4.63375,3.32062 -11.167078,5.42193 -15.589209,5.01395 -3.407497,-0.31437 -9.523078,-1.81123 -9.244116,-2.2626 0.0741,-0.11989 0.428166,-0.10642 0.786816,0.0299 0.35865,0.13635 0.652092,0.17676 0.652092,0.0898 0,-0.087 0.153543,-0.0307 0.341208,0.12504 0.803486,0.66683 4.578859,1.20843 8.522333,1.22258 3.809697,0.0137 4.074785,-0.0211 6.614586,-0.86671 3.97876,-1.32477 6.42932,-2.71769 9.60522,-5.4597 1.16322,-1.00429 2.76163,-3.2981 2.59707,-3.72694 -0.20184,-0.52599 -0.69292,-0.2471 -0.69292,0.39352 0,0.64422 -0.68987,1.18085 -1.53684,1.19548 -0.55523,0.01 -0.72321,0.17194 -0.85752,0.82877 -0.27672,1.35327 -0.47398,1.50568 -1.76108,1.3606 -0.93333,-0.1052 -1.2042,-0.0432 -1.31242,0.30021 -0.53245,1.6897 -1.55495,2.2313 -2.91335,1.54316 -0.4108,-0.20811 -1.53739,-0.43901 -2.50353,-0.51313 -1.14642,-0.0879 -2.295258,-0.39012 -3.307286,-0.86991 -1.819079,-0.86241 -1.348417,-1.20942 0.541558,-0.39929 1.483281,0.63581 2.008798,0.67853 2.008798,0.16329 0,-0.207 -0.424691,-0.51652 -0.943764,-0.68783 -0.519073,-0.17131 -0.90047,-0.35477 -0.84755,-0.40769 0.194189,-0.19419 2.544274,0.65092 4.378004,1.57438 1.99477,1.00455 2.70498,1.01417 2.70498,0.0366 0,-0.41032 -0.35261,-0.83133 -1.12358,-1.34154 l -1.12359,-0.74355 0.77,-0.31474 0.76999,-0.31473 -1.50842,-0.56437 c -0.82963,-0.31041 -1.74208,-0.56438 -2.02766,-0.56438 -0.28558,0 -0.51924,-0.12133 -0.51924,-0.26962 0,-0.62581 4.26045,0.86659 5.79811,2.03103 1.32404,1.00267 2.02947,1.1184 2.26643,0.37181 0.14646,-0.46146 -0.318,-1.60209 -0.65371,-1.60536 -0.0741,-7.3e-4 -0.48199,-0.27913 -0.90634,-0.61868 -0.58186,-0.46558 -0.68565,-0.67047 -0.42214,-0.83332 0.21972,-0.1358 0.2857,-0.11286 0.17776,0.0618 -0.19121,0.30937 0.42513,0.65088 1.37532,0.76205 0.61035,0.0714 0.61339,0.0613 0.13905,-0.46281 -0.27061,-0.29902 -0.52687,-0.40992 -0.57987,-0.25094 -0.0522,0.15669 -0.21684,0.28489 -0.3658,0.28489 -0.14896,0 -0.19454,-0.19884 -0.10128,-0.44187 0.0935,-0.24359 0.0171,-0.53859 -0.17013,-0.65741 -0.25136,-0.15949 -0.25608,-0.21659 -0.0182,-0.21959 0.17684,-0.002 0.71262,0.33568 1.19063,0.7509 1.14447,0.99415 2.01414,1.43582 2.47727,1.2581 0.60825,-0.2334 0.44022,-0.73346 -0.61598,-1.83317 -0.7425,-0.77307 -0.85583,-0.99206 -0.45034,-0.87019 0.44452,0.13361 0.60572,-0.0138 0.89742,-0.82047 0.19557,-0.54083 0.51729,-1.14503 0.71493,-1.34267 0.19764,-0.19764 0.35934,-0.6485 0.35934,-1.00191 0,-0.3534 0.14883,-0.64677 0.33073,-0.65193 0.29461,-0.008 -0.78943,-0.75183 -1.13001,-0.775 -0.0758,-0.005 -0.43298,0.53167 -0.79375,1.19294 -0.55985,1.02622 -0.74765,1.17936 -1.28211,1.04555 -0.3444,-0.0862 -0.93971,-0.20557 -1.32291,-0.2652 -0.38321,-0.0596 -1.15227,-0.18004 -1.70903,-0.26756 l -1.01229,-0.15913 0.43812,-0.66865 c 0.24096,-0.36776 0.37279,-0.73398 0.29294,-0.81383 -0.0798,-0.0798 -0.35724,0.23945 -0.61645,0.70953 -0.83836,1.52041 -2.87813,4.08575 -4.07096,5.11988 -3.668803,3.1807 -5.369025,4.25638 -8.571153,5.42272 -1.74625,0.63605 -4.292659,1.4409 -5.658687,1.78855 -4.918579,1.25176 -6.177316,2.40582 -6.292792,5.76946 -0.03561,1.03739 -0.14694,3.04792 -0.247392,4.46785 -0.215629,3.04801 -0.07603,3.31157 2.206276,4.16549 2.232998,0.83548 3.870625,1.03528 7.743637,0.9448 2.691786,-0.0629 4.354176,-0.26013 6.746875,-0.80053 z"
         id="path123" /><path
         style="fill:#40291a"
         d="m 85.460416,156.71433 c -2.028075,-0.46836 -4.141689,-1.22743 -4.749939,-1.70589 l -0.717897,-0.56469 0.18597,-4.39531 c 0.288986,-6.83001 0.843532,-7.60884 6.484466,-9.1071 1.389035,-0.36893 4.00841,-1.21843 5.820834,-1.88777 2.832702,-1.04614 3.623498,-1.47613 5.633047,-3.06292 1.285752,-1.01526 2.476373,-1.93545 2.645833,-2.04485 0.72551,-0.46842 3.19989,-3.45105 3.91678,-4.72131 1.26978,-2.24993 2.97776,-2.7191 6.12311,-1.68199 2.08908,0.68884 2.57134,1.24402 2.57134,2.96021 v 1.32742 l 1.11454,-0.17822 c 1.38872,-0.22207 1.13932,0.10817 -0.27733,0.36723 l -1.03584,0.18941 -0.14572,-1.60705 c -0.15748,-1.7367 -0.87456,-2.70127 -1.82365,-2.45308 -0.26321,0.0688 -0.41783,0.0269 -0.3436,-0.0932 0.13695,-0.22159 -0.47368,-0.38501 -2.3832,-0.63781 -1.42655,-0.18886 -2.73693,0.49151 -3.47151,1.80247 -1.24782,2.22687 -3.51715,4.61176 -6.496729,6.8275 -2.735896,2.03454 -3.337752,2.3553 -6.513206,3.47123 -1.924318,0.67625 -4.480087,1.47834 -5.679488,1.78241 -2.680432,0.67953 -4.197768,1.53317 -4.9827,2.80322 -0.529064,0.85605 -0.6278,1.50449 -0.844967,5.5493 -0.265437,4.94386 -0.27471,4.89821 1.133397,5.58058 2.004316,0.97129 3.856642,1.26695 7.9375,1.26695 3.557861,0 4.539091,-0.0998 7.408333,-0.75368 5.73994,-1.30806 8.97668,-2.35075 11.75719,-3.78751 0.71839,-0.3712 2.86151,-1.24336 4.7625,-1.93813 4.6344,-1.69377 4.75806,-1.74622 5.08763,-2.15822 0.4532,-0.56654 0.57038,-2.05254 0.18695,-2.37076 -0.21535,-0.17872 -0.28167,-0.57712 -0.18038,-1.08356 0.14842,-0.74211 0.1136,-0.78888 -0.47425,-0.63699 l -0.63443,0.16393 0.59531,-0.30641 c 0.8098,-0.4168 0.79185,-1.95061 -0.063,-5.38553 -0.36208,-1.45487 -0.65973,-3.03217 -0.66146,-3.50512 -0.004,-1.03319 -0.15885,-1.06965 -0.84414,-0.19843 -0.28617,0.3638 -0.66049,0.65205 -0.83183,0.64057 -0.23421,-0.0157 -0.23313,-0.0528 0.004,-0.14939 0.17372,-0.0707 0.24976,-0.30075 0.16898,-0.51128 -0.10624,-0.27686 -0.0106,-0.33981 0.34559,-0.22751 0.4568,0.14402 0.45893,0.1337 0.0295,-0.14244 -0.25466,-0.16374 -0.4612,-0.50015 -0.45897,-0.74758 0.002,-0.25585 0.0879,-0.33576 0.19844,-0.18529 0.30695,0.4178 1.195,0.48831 1.06029,0.0842 -0.0639,-0.19183 -0.28162,-0.34877 -0.48373,-0.34877 -0.21753,0 -0.36452,-0.26992 -0.36022,-0.66146 0.004,-0.3638 -0.0986,-0.73419 -0.22797,-0.82308 -0.40297,-0.27686 0.43915,-0.44199 1.06591,-0.20902 0.53925,0.20046 0.59531,0.39495 0.59531,2.06549 0,1.73778 0.48399,4.46742 1.06138,5.98607 0.14216,0.37391 0.27011,1.83477 0.28433,3.24634 0.0142,1.41157 0.13751,2.70201 0.27397,2.86765 0.42068,0.51062 -0.044,2.47254 -0.68518,2.89263 -0.3188,0.20888 -1.87987,0.85958 -3.46904,1.44599 -2.87757,1.06184 -3.95386,1.50653 -8.40671,3.47347 -2.34437,1.03556 -7.436047,2.46801 -11.539597,3.24644 -2.044667,0.38786 -8.335305,0.53799 -9.666027,0.23068 z"
         id="path122" /></g></g></svg>
