<?xml version="1.0" encoding="UTF-8" standalone="no"?>
<!-- Created with Inkscape (http://www.inkscape.org/) -->

<svg
   width="53.722187mm"
   height="65.617111mm"
   viewBox="0 0 53.722187 65.617111"
   version="1.1"
   id="svg1"
   inkscape:export-filename="zeus.svg"
   inkscape:export-xdpi="96"
   inkscape:export-ydpi="96"
   xml:space="preserve"
   xmlns:inkscape="http://www.inkscape.org/namespaces/inkscape"
   xmlns:sodipodi="http://sodipodi.sourceforge.net/DTD/sodipodi-0.dtd"
   xmlns="http://www.w3.org/2000/svg"
   xmlns:svg="http://www.w3.org/2000/svg"><sodipodi:namedview
     id="namedview1"
     pagecolor="#ffffff"
     bordercolor="#000000"
     borderopacity="0.25"
     inkscape:showpageshadow="2"
     inkscape:pageopacity="0.0"
     inkscape:pagecheckerboard="0"
     inkscape:deskcolor="#d1d1d1"
     inkscape:document-units="mm"><inkscape:page
       x="-8.9644326e-22"
       y="0"
       width="53.722187"
       height="65.617111"
       id="page2"
       margin="0"
       bleed="0" /></sodipodi:namedview><defs
     id="defs1" /><g
     inkscape:label="Calque 1"
     inkscape:groupmode="layer"
     id="layer1"
     transform="translate(-112.02324,-114.37888)"><g
       id="g343"
       transform="translate(38.083948,-2.8311809)"><path
         style="fill:#d3e7f4"
         d="m 73.951042,150.01875 v -32.80833 h 26.855208 26.85521 v 32.80833 32.80834 H 100.80625 73.951042 Z"
         id="path351" /><path
         style="fill:#c5dae9"
         d="m 86.386458,181.74705 c 1.527969,-0.58536 3.373438,-1.34359 4.101042,-1.68497 0.727604,-0.34138 1.590807,-0.70037 1.918229,-0.79775 0.327422,-0.0974 0.595313,-0.28811 0.595313,-0.42382 0,-0.13572 0.192548,-0.24676 0.427886,-0.24676 1.075958,0 10.949192,-5.51594 10.949192,-6.11705 0,-0.1453 -0.1199,-0.19007 -0.26645,-0.0995 -0.30783,0.19025 -0.63019,-0.48623 -0.46617,-0.97828 0.17065,-0.51195 1.49364,1.92832 2.36077,4.35444 0.71237,1.99316 0.76441,2.37437 0.62091,4.54853 -0.0861,1.30518 -0.19592,2.41234 -0.24394,2.46036 -0.048,0.048 -1.07088,0.0525 -2.27304,0.01 l -2.18574,-0.0774 1.73896,-1.27528 c 3.17754,-2.33026 3.11307,-2.80076 -0.079,-0.57681 -1.14879,0.80037 -2.21406,1.45521 -2.36727,1.45521 -0.15321,0 -0.27856,0.11906 -0.27856,0.26458 0,0.17117 -3.059504,0.26181 -8.665103,0.25671 l -8.665103,-0.008 z m 20.915262,-1.63194 c 0.0309,-2.43497 -0.0506,-2.9417 -0.79709,-4.96094 -0.97559,-2.63875 -2.97788,-6.26518 -5.85376,-10.60197 -2.965945,-4.4726 -4.244288,-7.26236 -5.246634,-11.44988 -0.386811,-1.61598 -0.398112,-6.81061 -0.01953,-8.97863 0.825607,-4.72806 3.157233,-8.91488 6.341954,-11.38804 1.90817,-1.48182 3.39425,-2.14289 6.02205,-2.67886 1.88319,-0.3841 2.26461,-0.38489 4.24731,-0.009 2.837,0.53817 4.2549,1.16718 6.30083,2.79519 2.02317,1.60988 3.97312,4.41588 5.07587,7.30427 1.71328,4.48747 1.84379,10.63445 0.32474,15.29524 -1.10268,3.3833 -2.10249,5.35596 -4.70056,9.27447 -2.86822,4.32596 -4.9116,8.03223 -5.87358,10.65348 -0.69859,1.90356 -0.8077,2.55583 -0.8077,4.82864 v 2.62779 h -1.98436 -1.98439 v -2.7285 c 0,-4.53834 -1.42077,-7.94933 -6.26354,-15.03738 -1.3568,-1.98586 -3.000876,-4.60524 -3.653507,-5.82083 -0.652631,-1.21559 -1.188591,-2.11307 -1.191022,-1.99439 -0.01314,0.6413 2.015238,4.39825 3.790909,7.02152 2.86504,4.23261 5.07141,8.29898 6.07054,11.18806 0.77053,2.22808 0.84766,2.72243 0.76821,4.92412 -0.12186,3.37737 -0.61003,3.14947 -0.56674,-0.26458 z M 97.007199,156.07027 c -0.133089,-0.35005 -0.444829,-1.63101 -0.692756,-2.84656 -0.422739,-2.07264 -0.423321,-2.39326 -0.0094,-5.15493 1.324791,-8.83802 2.435941,-11.61718 5.767857,-14.42633 0.75853,-0.63952 2.20922,-1.56225 3.22376,-2.05052 1.01454,-0.48827 1.65562,-0.88776 1.42461,-0.88776 -0.231,0 -1.29682,0.43865 -2.36848,0.97478 -3.24951,1.62566 -6.137005,5.03339 -7.576611,8.94166 -1.069357,2.90312 -1.519107,9.60873 -0.839868,12.52213 0.427615,1.83412 1.071132,3.80568 1.200087,3.67672 0.06201,-0.062 0.0038,-0.39914 -0.129243,-0.74919 z m 16.049881,24.17713 c -0.0568,-1.41883 -0.0141,-2.81781 0.095,-3.10885 1.68659,-4.49887 3.42856,-7.74677 6.94399,-12.94705 2.98678,-4.41826 4.62859,-8.53349 5.19069,-13.01058 0.81163,-6.46471 -1.33735,-13.60556 -5.29155,-17.58329 -2.07538,-2.08772 -3.38479,-2.95268 -5.60887,-3.70503 -5.71968,-1.93483 -11.84114,0.004 -15.926108,5.0449 -0.412758,0.50933 -0.660445,0.75882 -0.550413,0.55443 0.133576,-0.24812 0.09712,-0.30798 -0.109723,-0.18015 -0.170379,0.1053 -0.250183,0.28788 -0.177343,0.40574 0.07284,0.11786 -0.280118,0.9917 -0.784353,1.94188 -1.580254,2.97782 -2.514452,6.4945 -2.514452,9.46535 0,1.47248 -0.08021,1.83567 -0.405401,1.83567 -0.22297,0 -0.51308,-0.26789 -0.644687,-0.59531 -0.131608,-0.32742 -0.246833,-0.46536 -0.256057,-0.30653 -0.01112,0.19143 -0.414366,0.22844 -1.196244,0.10978 -1.395999,-0.21186 -1.419393,-0.19837 -2.227351,1.28436 -0.507034,0.93049 -0.603072,1.4169 -0.496272,2.51354 0.07283,0.74788 0.07913,1.15143 0.01399,0.89676 C 89.046789,152.60836 88.89144,152.4 88.76671,152.4 c -0.12473,0 -0.264827,-0.26789 -0.311329,-0.59531 -0.0648,-0.45627 -0.285381,-0.61468 -0.944443,-0.67822 -0.842661,-0.0813 -0.859896,-0.0614 -0.859896,0.99219 v 1.07509 h -1.058334 c -0.862006,0 -1.058333,-0.0929 -1.058333,-0.50086 0,-0.27547 -0.178594,-0.56939 -0.396875,-0.65315 -0.218281,-0.0838 -0.396875,-0.33463 -0.396875,-0.55747 0,-0.22285 -0.119062,-0.40518 -0.264583,-0.40518 -0.552983,0 -0.05465,-3.1877 0.847926,-5.42396 0.333153,-0.82544 2.656713,-3.30729 3.096347,-3.30729 0.138293,0 0.230141,-0.41619 0.204105,-0.92486 -0.03823,-0.74695 -0.153961,-0.92508 -0.601642,-0.92604 -0.304868,-6.5e-4 -0.780837,0.24913 -1.057709,0.55507 -0.276872,0.30594 -0.831106,0.72571 -1.231632,0.93283 -0.400526,0.20712 -0.731541,0.52236 -0.735589,0.70052 -0.004,0.17816 -0.361236,0.79163 -0.79375,1.36325 -0.432514,0.57163 -0.786389,1.23243 -0.786389,1.46844 0,0.23602 -0.102281,0.54223 -0.227291,0.68047 -0.27259,0.30145 -0.831043,3.07808 -0.831043,4.13194 0,0.84095 -0.387,0.98891 -0.749615,0.28661 -0.562982,-1.09038 -0.580738,-2.42726 -0.05732,-4.31606 0.930194,-3.35672 2.492795,-5.70241 4.805991,-7.21448 0.705709,-0.46131 1.285246,-0.96049 1.287861,-1.1093 0.0026,-0.14881 -0.400082,-0.48858 -0.894882,-0.75505 -0.891172,-0.47992 -0.90778,-0.47862 -1.765273,0.13827 -0.770424,0.55426 -1.809595,1.59092 -3.22207,3.21429 -0.254662,0.29268 -0.463021,0.69252 -0.463021,0.88854 0,0.19601 -0.119063,0.35639 -0.264583,0.35639 -0.145521,0 -0.264584,0.12481 -0.264584,0.27736 0,0.15255 -0.242449,0.77763 -0.538775,1.38907 -0.594873,1.22744 -0.949968,3.72226 -0.681852,4.79052 0.127618,0.50847 0.342816,0.6868 0.828793,0.6868 0.650528,0 0.656418,0.0215 0.656418,2.39686 0,1.54471 0.09491,2.33821 0.266951,2.23188 0.580644,-0.35885 1.320549,0.15995 1.320549,0.92594 0,0.49801 0.158217,0.79787 0.46302,0.87752 0.254662,0.0666 0.07607,0.13481 -0.396875,0.15169 -0.472942,0.0169 -0.859895,0.14623 -0.859895,0.28744 0,0.1412 0.297656,0.90748 0.661458,1.70283 0.363802,0.79536 0.661458,1.52624 0.661458,1.6242 0,0.49555 4.474359,4.92868 4.782378,4.73831 0.134588,-0.0832 0.246071,-0.0549 0.247741,0.0628 0.0028,0.19686 0.858508,0.62885 2.705808,1.36598 0.398458,0.15899 0.892431,0.22463 1.097717,0.14585 0.205286,-0.0788 0.451848,-0.0161 0.547916,0.13939 0.186511,0.30178 2.466919,0.38971 3.164509,0.12202 0.230183,-0.0883 0.418514,-0.38598 0.418514,-0.66145 0,-0.60199 0.707953,-0.64899 1.439632,-0.0956 0.282475,0.21365 0.699194,0.39028 0.926042,0.39251 0.825037,0.008 1.152816,0.41246 0.827334,1.02063 -0.165665,0.30955 -0.468587,0.56282 -0.67316,0.56282 -0.66332,0 -0.670845,0.43289 -0.042,2.41602 0.68176,2.15001 0.642166,2.6789 -0.191567,2.5589 -0.449255,-0.0647 -0.662198,-0.46337 -1.102606,-2.06451 l -0.54582,-1.98437 -1.678197,0.0661 c -3.181987,0.12527 -6.96457,-0.87763 -8.481954,-2.24888 -0.362319,-0.32741 -0.742269,-0.5953 -0.844338,-0.5953 -0.486281,0 -2.834215,-2.70048 -4.097695,-4.71297 -0.775871,-1.23582 -1.410674,-2.34008 -1.410674,-2.45393 0,-0.11384 -0.113523,-0.50557 -0.252273,-0.87051 l -0.252273,-0.66353 -1.798248,0.51556 c -0.989036,0.28355 -1.947076,0.45906 -2.128977,0.39002 -0.181901,-0.069 -0.330729,-0.52239 -0.330729,-1.00744 0,-0.83135 0.05466,-0.88345 0.95355,-0.90893 0.524453,-0.0149 1.084047,-0.15753 1.243542,-0.31703 0.159495,-0.15949 0.545716,-0.28999 0.858268,-0.28999 0.450016,0 0.572974,-0.16518 0.590846,-0.79375 0.01241,-0.43656 -0.08009,-0.79375 -0.205561,-0.79375 -0.21289,0 -0.642711,-1.74908 -0.877757,-3.57187 -0.08585,-0.66577 -0.110668,-0.62311 -0.153929,0.26458 -0.02837,0.58208 -0.21513,1.41552 -0.415029,1.85208 l -0.363452,0.79375 -0.02149,-0.7276 c -0.01975,-0.6689 -0.106875,-0.7276 -1.079823,-0.7276 h -1.058333 v -16.93334 -16.93333 h 26.855209 26.85521 v 32.80833 32.80834 h -7.2505 -7.25051 z m -11.14071,-10.55657 c 0.0641,-0.16718 -0.005,-0.37935 -0.15449,-0.4715 -0.14908,-0.0921 -0.21238,-0.32045 -0.14065,-0.50737 0.11695,-0.30477 -0.73567,-1.62935 -1.856623,-2.88435 -0.227461,-0.25466 -0.287476,-0.46302 -0.133367,-0.46302 0.51608,0 -0.04224,-0.53319 -0.959749,-0.91655 -0.499373,-0.20865 -0.90795,-0.51153 -0.90795,-0.67307 0,-0.16153 0.137459,-0.20874 0.305464,-0.10491 0.193656,0.11969 0.233457,0.0723 0.108737,-0.12952 -0.144949,-0.23454 -0.289665,-0.24118 -0.549835,-0.0253 -0.287233,0.23838 -0.33798,0.0687 -0.272023,-0.90966 0.0446,-0.66148 -0.02403,-1.13774 -0.152504,-1.05834 -0.128474,0.0794 -0.233589,-0.0412 -0.233589,-0.26812 0,-0.22687 -0.119062,-0.41249 -0.264583,-0.41249 -0.145521,0 -0.266406,0.20836 -0.268635,0.46302 -0.0032,0.3662 -0.05235,0.38677 -0.235002,0.0984 -0.127023,-0.20055 -0.355097,-0.2879 -0.506833,-0.19413 -0.151735,0.0938 -0.358894,0.0362 -0.460353,-0.12797 -0.101459,-0.16417 -0.02143,-0.39925 0.177842,-0.5224 0.453632,-0.28036 0.472203,-1.06085 0.03621,-1.52176 -0.181901,-0.19229 -0.330729,-0.63878 -0.330729,-0.99218 0,-0.35341 -0.111039,-0.64256 -0.246754,-0.64256 -0.135714,0 -0.327551,-0.26789 -0.426305,-0.59532 -0.09875,-0.32742 -0.365007,-0.99604 -0.591675,-1.48583 -0.378127,-0.81706 -0.375699,-0.9109 0.02943,-1.13763 0.242855,-0.1359 0.441554,-0.42681 0.441554,-0.64644 0,-0.79534 0.46462,-0.0882 0.666961,1.01508 0.114015,0.62169 0.228928,1.18988 0.255361,1.26264 0.211565,0.58235 0.778189,1.90036 1.194345,2.77812 0.27597,0.58209 0.628627,1.39781 0.783682,1.81272 0.414249,1.10849 4.125093,6.82946 4.541623,7.00177 0.11067,0.0458 0.1294,0.28391 0.0416,0.52917 -0.0878,0.24526 -0.0644,0.35978 0.052,0.25448 0.11635,-0.10529 0.43298,0.2217 0.70361,0.72665 0.61676,1.15074 0.61856,1.1363 -0.13564,1.09045 -0.35309,-0.0215 -0.5767,-0.17114 -0.51113,-0.34212 z m -12.148135,-6.2367 c -1.444367,-0.30128 -4.250054,-2.49106 -5.693206,-4.44344 -0.482463,-0.6527 -1.056371,-1.42379 -1.275351,-1.71353 -0.357966,-0.47364 -0.352175,-0.56042 0.05739,-0.8599 0.635664,-0.46481 1.677309,-0.4252 1.677309,0.0638 0,0.21829 0.119063,0.39688 0.264583,0.39688 0.145521,0 0.268545,0.14883 0.273386,0.33073 0.01389,0.52184 1.005734,1.57965 1.306723,1.39363 0.149586,-0.0924 0.276618,0.0473 0.282294,0.31055 0.01208,0.56018 2.125475,2.19842 2.836057,2.19842 0.268056,0 0.615859,0.12849 0.772897,0.28553 0.157037,0.15703 0.796598,0.40035 1.421246,0.5407 1.108175,0.24899 1.81328,0.82259 1.830233,1.48888 0.01005,0.39505 -1.878114,0.39896 -3.753559,0.008 z"
         id="path350" /><path
         style="fill:#b8d2e4"
         d="m 102.92292,182.15743 c 0.43656,-0.35785 0.93666,-0.65122 1.11133,-0.65195 0.17467,-7.2e-4 0.41394,-0.15014 0.53172,-0.33204 0.11777,-0.1819 0.59994,-0.68043 1.07148,-1.10783 l 0.85734,-0.77711 v 1.76929 1.7693 l -2.18281,-0.01 -2.18281,-0.01 z m 4.37835,-2.04232 c 0.0474,-2.34419 -0.0401,-2.9811 -0.6459,-4.69636 -0.85286,-2.41501 -3.13308,-6.53763 -6.02799,-10.89857 -2.385076,-3.59291 -3.498404,-5.82412 -4.595481,-9.20976 -0.596037,-1.8394 -0.750575,-2.87534 -0.848597,-5.68854 -0.202647,-5.8159 0.679865,-9.31655 3.337641,-13.23939 2.422097,-3.57497 5.354347,-5.5799 9.233487,-6.31338 1.94578,-0.36791 2.41041,-0.37064 4.23333,-0.0249 5.00809,0.94992 8.79444,4.11008 10.92591,9.11898 1.43094,3.36265 1.68446,4.77765 1.6842,9.40033 -2.1e-4,3.94105 -0.0519,4.38844 -0.74889,6.47976 -1.15608,3.46897 -2.52909,6.21062 -4.74289,9.47073 -2.82747,4.1638 -4.9815,8.05296 -5.98648,10.80873 -0.7631,2.09253 -0.85101,2.62264 -0.8166,4.92464 l 0.0386,2.57969 h -1.99735 -1.99735 v -2.71198 c 0,-2.31501 -0.11997,-3.07991 -0.81962,-5.22552 -0.45079,-1.38245 -0.91127,-2.63261 -1.02329,-2.77813 -0.11202,-0.14552 -0.5937,-0.97896 -1.0704,-1.85208 -0.4767,-0.87313 -1.95946,-3.19485 -3.29502,-5.15938 -3.909948,-5.75131 -4.978032,-7.96715 -5.806602,-12.04634 -0.386639,-1.90349 -0.391553,-2.34383 -0.04725,-4.23334 0.211352,-1.15987 0.464046,-2.97206 0.561542,-4.02709 0.0975,-1.05502 0.291272,-1.91823 0.430612,-1.91823 0.13934,0 0.177973,-0.12195 0.08585,-0.27101 -0.257888,-0.41727 1.110065,-4.24995 2.108942,-5.90875 1.247046,-2.07091 3.091846,-3.7061 5.567946,-4.93531 1.16417,-0.57792 1.92431,-1.05189 1.6892,-1.05326 -0.23511,-0.001 -1.30668,0.43357 -2.38125,0.96655 -3.98928,1.97862 -7.361531,6.68121 -8.320053,11.60227 -0.557776,2.86362 -0.557889,7.95892 -2.28e-4,10.27325 0.936061,3.88473 2.191849,6.56326 5.164331,11.01527 2.95096,4.41978 4.88653,7.99083 5.88346,10.85474 0.7897,2.26862 0.86668,2.75203 0.79004,4.96094 -0.049,1.41313 -0.19771,2.4474 -0.35181,2.4474 -0.16566,0 -0.24606,-1.02855 -0.212,-2.71198 z m 7.3956,-20.28472 c 0,-0.1334 -0.14882,-0.30293 -0.33072,-0.37674 -0.44252,-0.17955 0.20838,-0.66256 1.1771,-0.87349 0.39274,-0.0855 0.87655,-0.35017 1.07514,-0.58813 0.61826,-0.74085 2.08244,-4.21978 2.16929,-5.1543 0.0455,-0.48945 0.21523,-1.13753 0.3772,-1.44018 0.36674,-0.68525 0.39168,-6.46737 0.0333,-7.71702 -0.19339,-0.6743 -0.17621,-0.96475 0.0661,-1.11868 0.21495,-0.13652 0.12294,-0.2093 -0.26797,-0.21196 -0.32742,-0.002 -0.59721,-0.0933 -0.59954,-0.20249 -0.002,-0.10914 -0.35951,-0.60153 -0.79375,-1.09419 -0.43423,-0.49266 -0.78952,-1.01141 -0.78952,-1.15278 0,-0.14138 -0.17394,-0.1903 -0.38653,-0.10872 -0.21758,0.0835 -0.85358,-0.24188 -1.45503,-0.74438 -1.28147,-1.07063 -2.33512,-1.34646 -3.57733,-0.9365 -0.50754,0.1675 -1.1628,0.22838 -1.45612,0.13528 -0.31181,-0.099 -0.53332,-0.0496 -0.53332,0.11882 0,0.15845 -0.32742,0.43084 -0.72761,0.60532 -1.08294,0.47217 -1.82903,1.36198 -2.02705,2.41752 -0.20093,1.07105 -0.62302,1.46025 -1.00405,0.92582 -0.20453,-0.28688 -0.22978,-0.27003 -0.11844,0.079 0.0778,0.24402 -0.03,0.58602 -0.23962,0.76 -0.52008,0.43163 -0.47896,0.76609 0.16261,1.32251 l 0.54375,0.4716 -0.54375,0.17258 c -0.29907,0.0949 -0.54376,0.27659 -0.54376,0.40372 0,0.49228 0.57081,0.53509 1.89424,0.14207 1.82307,-0.54139 1.99115,-0.52222 2.13759,0.24379 0.11418,0.5973 -0.0184,0.70028 -1.56265,1.21419 l -1.6874,0.56153 0.12925,1.23321 c 0.0711,0.67826 0.19748,2.33915 0.28085,3.69086 0.14216,2.30464 0.30662,2.85708 1.38378,4.6482 0.075,0.12467 0.22819,0.078 0.34047,-0.10365 0.15576,-0.25201 0.38315,-0.20634 0.95912,0.19261 0.41523,0.28762 1.61044,0.79319 2.65603,1.1235 1.04559,0.3303 2.11715,0.81915 2.38125,1.08633 0.53129,0.53748 0.87705,0.64578 0.87705,0.2747 z m -1.64371,20.5493 c -0.066,-2.12433 0.0222,-2.7268 0.66857,-4.56406 0.68539,-1.94825 1.14379,-2.88699 3.22992,-6.61458 0.40721,-0.72761 1.776,-2.87073 3.04176,-4.7625 2.46021,-3.67697 3.82226,-6.57545 4.7868,-10.18646 0.83975,-3.14384 0.84693,-8.64237 0.0156,-11.90625 -0.79493,-3.12077 -2.48884,-6.36822 -4.37892,-8.39496 -2.6272,-2.81716 -4.89456,-4.05072 -8.67645,-4.72042 -1.70479,-0.30188 -2.32011,-0.30247 -3.83646,-0.004 -0.99331,0.19573 -2.10367,0.47206 -2.46747,0.61406 -0.3638,0.14199 -0.82686,0.20029 -1.02902,0.12955 -0.2242,-0.0785 -0.29551,-0.0121 -0.18282,0.17028 0.1016,0.1644 0.0657,0.29891 -0.0799,0.29891 -0.14552,0 -0.34012,-0.12222 -0.43244,-0.2716 -0.0923,-0.14938 -0.30771,-0.25434 -0.47864,-0.23324 -0.81946,0.10116 -0.97223,-0.069 -0.97223,-1.08266 v -1.05834 h -2.513544 c -1.778588,0 -2.513541,-0.0928 -2.513541,-0.3175 0,-0.24694 -0.07056,-0.24694 -0.3175,0 -0.433586,0.43359 -0.99072,0.39908 -1.171711,-0.0726 -0.193957,-0.50545 0.59369,-1.2931 1.099135,-1.09914 0.227984,0.0875 0.390076,-0.003 0.390076,-0.21671 0,-0.20151 0.357187,-0.5245 0.79375,-0.71774 0.436562,-0.19324 0.79375,-0.44134 0.79375,-0.55134 0,-0.11 0.216653,-0.2 0.481453,-0.2 0.264799,0 0.742022,-0.29968 1.060492,-0.66595 0.44999,-0.51753 0.74073,-0.6307 1.30449,-0.50777 0.50091,0.10923 0.61444,0.08 0.36682,-0.0945 -0.27649,-0.19482 -0.16113,-0.35121 0.50367,-0.68286 0.47426,-0.23659 1.02633,-0.43017 1.22682,-0.43017 0.20049,0 0.43306,-0.17859 0.51682,-0.39687 0.0838,-0.21828 0.31815,-0.39688 0.52087,-0.39688 0.20271,0 0.36856,-0.0968 0.36856,-0.215 0,-0.11825 0.59532,-0.47495 1.32292,-0.79265 0.72761,-0.3177 1.32292,-0.6972 1.32292,-0.84333 0,-0.14613 0.41672,-0.26568 0.92604,-0.26568 0.50932,0 0.92604,-0.11609 0.92604,-0.25798 0,-0.29638 2.14754,-1.32952 2.76361,-1.32952 0.22626,0 0.41139,-0.11907 0.41139,-0.26459 0,-0.17009 2.64583,-0.26458 7.40833,-0.26458 h 7.40834 v 5.29167 5.29166 h -1.8243 -1.82429 l -0.10203,1.06987 c -0.0737,0.77267 0.0247,1.18454 0.35417,1.48271 0.2509,0.22707 0.51219,0.72789 0.58063,1.11295 0.0684,0.38505 0.10177,0.19408 0.0741,-0.42438 -0.0277,-0.61847 0.0421,-1.12448 0.15507,-1.12448 0.11298,0 0.20543,0.41672 0.20543,0.92604 0,0.51119 0.20742,1.1546 0.46302,1.43624 0.94144,1.03738 1.12439,1.33026 1.12043,1.79374 -0.003,0.40744 -0.0436,0.41833 -0.28473,0.0773 -0.24949,-0.35278 -0.26376,-0.35278 -0.12841,0 0.0837,0.21828 0.22576,0.60524 0.31558,0.8599 0.0898,0.25466 0.32803,0.46302 0.52934,0.46302 0.30891,0 0.36602,3.69484 0.36602,23.68021 v 23.68021 h -7.26612 -7.26611 z m -8.90278,-1.26557 c -0.68859,-0.57365 -0.56361,-0.6793 0.27354,-0.23127 0.39066,0.20907 0.62021,0.20907 0.82928,0 0.20907,-0.20907 0.16458,-0.2891 -0.1607,-0.2891 -0.34677,0 -0.44979,-0.23734 -0.44979,-1.03628 0,-0.58964 0.14254,-1.08719 0.33073,-1.1544 0.19237,-0.0687 0.23256,-0.21629 0.0961,-0.35278 -0.1365,-0.13649 -0.28408,-0.0963 -0.35278,0.0961 -0.14322,0.40101 -1.13236,0.44515 -1.13236,0.0505 0,-0.15411 0.11084,-0.2117 0.24631,-0.12798 0.29137,0.18008 0.41525,-0.006 0.64554,-0.9703 0.1378,-0.57695 0.0545,-0.77362 -0.42644,-1.00678 -0.57113,-0.27689 -0.57503,-0.2716 -0.0879,0.11897 0.28042,0.2248 0.42032,0.49827 0.31089,0.6077 -0.10943,0.10944 -0.31502,-0.008 -0.45685,-0.26185 -0.14184,-0.25345 -0.45332,-0.46081 -0.69219,-0.46081 -0.36693,0 -0.35522,-0.0578 0.0755,-0.3728 0.34147,-0.24969 0.65823,-0.29337 0.95922,-0.13229 0.62053,0.33209 0.9913,0.2886 0.41247,-0.0484 -0.25772,-0.15004 -0.39896,-0.38545 -0.31386,-0.52315 0.0909,-0.1471 0.29192,-0.11311 0.48738,0.0824 0.42068,0.42081 1.22618,2.75303 1.02153,2.95768 -0.0843,0.0843 -0.0334,0.1532 0.11313,0.1532 0.14648,0 0.42814,0.49029 0.62591,1.08954 0.3298,0.99929 0.31816,1.11982 -0.14051,1.45521 -0.27505,0.20112 -0.65593,0.36567 -0.8464,0.36567 -0.19047,0 -0.34631,0.11906 -0.34631,0.26458 0,0.39458 -0.32369,0.30795 -1.02149,-0.27338 z m -7.566686,-8.50411 c -0.215308,-0.72502 -0.46218,-1.69583 -0.548605,-2.15734 l -0.157135,-0.83912 -2.620231,0.0907 c -2.152779,0.0745 -2.929336,-0.0122 -4.352878,-0.48593 -0.952957,-0.31712 -1.885227,-0.72916 -2.071712,-0.91565 -0.186485,-0.18648 -0.621594,-0.42873 -0.96691,-0.53833 -1.727727,-0.54836 -5.963449,-5.90932 -6.639532,-8.40336 -0.147929,-0.5457 -0.427456,-0.99219 -0.621171,-0.99219 -0.193715,0 -1.094875,0.23726 -2.002578,0.52723 -0.907703,0.28998 -1.741768,0.47074 -1.853478,0.4017 -0.11171,-0.069 -0.203109,-0.41384 -0.203109,-0.76622 0,-0.55906 0.206492,-0.69816 1.620573,-1.09161 0.891315,-0.248 1.748214,-0.55417 1.904221,-0.68037 0.179951,-0.14557 0.239721,-1.0664 0.16349,-2.51879 -0.09799,-1.867 -0.0527,-2.26731 0.245518,-2.16995 0.451942,0.14754 1.031954,1.30661 1.34007,2.67794 0.127891,0.5692 0.492471,1.24539 0.810178,1.50266 0.498569,0.40372 0.535949,0.55927 0.273049,1.13628 -0.262013,0.57505 -0.180966,0.9265 0.579658,2.51366 2.345627,4.8945 6.870303,7.99247 11.67324,7.99247 1.756156,0 1.93195,-0.0489 2.0091,-0.55938 0.07822,-0.51749 0.16083,-0.48723 1.103179,0.40405 0.810519,0.76659 0.95607,1.03881 0.712414,1.3324 -0.209702,0.25267 -0.224055,0.52144 -0.04554,0.85272 0.291728,0.54137 1.092619,3.09161 1.092619,3.47917 0,0.13759 -0.236917,0.31211 -0.526481,0.38784 -0.441414,0.11543 -0.589734,-0.0753 -0.91795,-1.18054 z m -7.509974,-7.70095 c -3.011218,-1.25064 -6.860048,-5.62783 -5.621555,-6.39326 0.342865,-0.2119 1.08221,0.11664 1.08221,0.48089 0,0.4 2.245358,2.7761 3.469568,3.67159 0.525814,0.38463 1.271079,0.7784 1.656145,0.87504 0.385066,0.0967 0.765553,0.28159 0.845527,0.41099 0.07997,0.1294 0.376505,0.23528 0.658958,0.23528 0.282454,0 0.513552,0.11906 0.513552,0.26458 0,0.14552 0.320413,0.26458 0.712028,0.26458 0.682877,0 0.691001,0.0159 0.198437,0.38846 -0.724763,0.54819 -1.873874,0.48341 -3.51487,-0.19815 z m 4.985655,-21.51108 c -0.363802,-0.20175 -1.236863,-0.44485 -1.940135,-0.54022 -0.844942,-0.11459 -1.159061,-0.24923 -0.926042,-0.39695 0.264249,-0.16751 0.26974,-0.22455 0.02191,-0.22759 -0.181901,-0.002 -0.330729,-0.1928 -0.330729,-0.4235 0,-0.3523 0.264738,-0.3982 1.653646,-0.28668 0.909505,0.073 1.939252,0.17247 2.288326,0.22101 0.369502,0.0514 0.687846,-0.0653 0.761929,-0.27931 0.07753,-0.22396 0.01047,-0.29539 -0.17166,-0.18283 -0.363755,0.22482 -0.398021,-0.17071 -0.04534,-0.52339 0.58867,-0.58867 -0.396287,-1.12779 -2.967224,-1.62411 -1.239601,-0.23931 -3.636342,0.1682 -3.636342,0.61827 0,0.31668 -0.153696,0.28641 -0.768448,-0.15133 -0.422646,-0.30095 -0.898896,-0.54718 -1.058333,-0.54718 -0.321204,0 -0.361251,-0.21757 -0.297849,-1.61819 0.02568,-0.56735 -0.178848,-1.32114 -0.502541,-1.85209 -0.356086,-0.58408 -0.546194,-0.73438 -0.54684,-0.43232 -5.43e-4,0.25466 -0.179582,0.46302 -0.397864,0.46302 -0.218281,0 -0.396875,0.11906 -0.396875,0.26458 0,0.42661 -1.514383,0.30759 -1.68318,-0.13229 -0.187894,-0.48965 -0.698069,-0.52475 -0.698069,-0.048 0,0.2314 -0.33403,0.33998 -0.992188,0.32252 -0.990676,-0.0263 -0.99231,-0.0282 -1.07283,-1.27489 -0.04435,-0.68671 -0.180443,-1.24856 -0.302422,-1.24856 -0.121978,0 -0.292767,-0.18499 -0.379529,-0.41109 -0.146978,-0.38302 -0.02705,-0.60928 0.828739,-1.56357 0.181901,-0.20284 0.33073,-0.48834 0.33073,-0.63445 0,-0.1461 0.238125,-0.34123 0.529166,-0.4336 0.291042,-0.0924 0.529167,-0.33852 0.529167,-0.547 0,-0.60617 -0.344397,-0.44554 -1.171464,0.5464 -0.424394,0.50899 -1.525055,1.71688 -2.445914,2.68419 -0.920859,0.9673 -1.674289,1.89379 -1.674289,2.05885 0,0.16507 -0.238125,0.47175 -0.529166,0.68152 -0.291042,0.20977 -0.529167,0.53745 -0.529167,0.72817 0,0.19072 -0.174061,0.41356 -0.386803,0.4952 -0.212742,0.0816 -0.45889,0.37556 -0.546996,0.65316 -0.516393,1.627 -0.653701,-0.26768 -0.653701,-9.02028 v -9.525 h 9.45615 9.456151 l -0.662574,0.59531 c -0.364415,0.32742 -1.338218,1.16388 -2.164006,1.85879 -0.825789,0.69491 -1.835715,1.61764 -2.244281,2.05052 -0.408566,0.43287 -0.836499,0.78705 -0.950963,0.78705 -0.114464,0 -0.64908,0.44648 -1.188036,0.99218 -0.538956,0.54571 -1.384797,1.31961 -1.879646,1.71979 -0.494848,0.40019 -0.794056,0.73026 -0.664906,0.73349 0.129151,0.003 -0.06106,0.23322 -0.422686,0.51107 -0.361628,0.27786 -0.56873,0.59397 -0.460227,0.70247 0.108503,0.1085 0.422305,-0.0322 0.697337,-0.31263 1.73345,-1.76761 6.33121,-6.19846 6.431957,-6.19846 0.138149,0 2.047938,-1.62457 3.188109,-2.71198 l 0.762909,-0.7276 9.173924,0.009 9.17392,0.009 -4.7625,2.44809 c -2.61938,1.34645 -5.45733,2.86054 -6.30657,3.36463 -0.849233,0.50409 -2.061941,1.21431 -2.694906,1.57827 -0.632964,0.36396 -1.492464,0.98904 -1.909999,1.38906 -0.417535,0.40003 -0.883015,0.72732 -1.034399,0.72732 -0.151384,0 -0.490744,0.23812 -0.754133,0.52917 -0.26339,0.29104 -0.63903,0.52916 -0.834758,0.52916 -0.195727,0 -0.355867,0.091 -0.355867,0.20213 0,0.11116 -0.47625,0.49646 -1.058334,0.85621 -0.582083,0.35974 -1.058333,0.74504 -1.058333,0.85621 0,0.11116 -0.15784,0.20212 -0.350754,0.20212 -0.192915,0 -0.633685,0.30116 -0.979489,0.66926 -0.345803,0.36809 -0.783276,0.60995 -0.972162,0.53747 -0.209843,-0.0805 -0.343428,0.0708 -0.343428,0.38907 0,0.30441 -0.178674,0.52087 -0.429948,0.52087 -0.457904,0 -0.415124,0.72738 0.126333,2.14801 0.257135,0.67464 0.339115,0.69661 3.128105,0.83817 1.575228,0.08 3.131942,0.22857 3.459364,0.33025 0.448102,0.13915 0.595312,0.0791 0.595312,-0.24287 0,-0.46242 0.404736,-0.57853 0.647492,-0.18575 0.08226,0.1331 -1.5e-5,0.30263 -0.182823,0.37674 -0.575868,0.23346 0.379953,0.72991 1.200626,0.6236 0.406589,-0.0527 0.800569,0.003 0.875511,0.12471 0.07494,0.12126 0.02308,0.22047 -0.115258,0.22047 -0.138333,0 -0.328796,0.30791 -0.42325,0.68424 -0.09445,0.37634 -0.466824,0.97934 -0.82749,1.34 -0.360665,0.36067 -0.589915,0.76229 -0.509443,0.8925 0.08047,0.1302 0.03041,0.44994 -0.111253,0.71052 -0.141661,0.26058 -0.326557,0.8012 -0.410879,1.20139 -0.170818,0.81067 -0.256859,0.83279 -1.201566,0.30891 z"
         id="path349" /><path
         style="fill:#b0c7d8"
         d="m 107.30127,180.11511 c 0.0472,-2.33429 -0.0411,-2.98298 -0.63402,-4.65785 -0.91543,-2.5857 -2.62396,-5.70193 -5.67858,-10.35726 -4.293587,-6.54356 -5.617,-10.07201 -5.805368,-15.47812 -0.202647,-5.8159 0.679865,-9.31655 3.337641,-13.23939 2.424317,-3.57826 5.379017,-5.57808 9.362907,-6.33709 1.80456,-0.3438 2.29384,-0.3441 4.07897,-0.003 7.49291,1.43363 12.21332,7.77803 12.70255,17.07267 0.31883,6.05752 -1.30368,11.15134 -5.51783,17.32303 -2.76666,4.05181 -5.02018,8.12084 -6.02793,10.88421 -0.7631,2.09253 -0.85101,2.62264 -0.8166,4.92464 l 0.0386,2.57969 h -1.99735 -1.99735 v -2.71198 c 0,-2.31501 -0.11997,-3.07991 -0.81962,-5.22552 -0.45079,-1.38245 -0.91127,-2.63261 -1.02329,-2.77813 -0.11202,-0.14552 -0.5937,-0.97896 -1.0704,-1.85208 -0.4767,-0.87313 -1.95946,-3.19485 -3.29502,-5.15938 -3.909948,-5.75131 -4.978032,-7.96715 -5.806602,-12.04634 -0.386639,-1.90349 -0.391553,-2.34383 -0.04725,-4.23334 0.211352,-1.15987 0.464046,-2.97206 0.561542,-4.02709 0.0975,-1.05502 0.291272,-1.91823 0.430612,-1.91823 0.13934,0 0.178018,-0.12188 0.08595,-0.27085 -0.192576,-0.31159 0.751333,-3.32602 1.530744,-4.88852 1.289174,-2.58443 3.322454,-4.55486 6.146044,-5.95607 2.17091,-1.07731 2.34902,-1.40177 0.33609,-0.61223 -4.41527,1.73181 -8.308397,6.79164 -9.353678,12.15682 -0.552932,2.83806 -0.550315,7.93893 0.0053,10.24459 0.936061,3.88473 2.191849,6.56326 5.164328,11.01527 2.95096,4.41978 4.88653,7.99083 5.88346,10.85474 0.7897,2.26862 0.86668,2.75203 0.79004,4.96094 -0.049,1.41313 -0.19771,2.4474 -0.35181,2.4474 -0.16566,0 -0.24606,-1.02855 -0.212,-2.71198 z m 6.73787,-18.40687 c 0.0778,0.0779 0.60205,-0.31897 1.16489,-0.88181 0.63139,-0.63139 1.17603,-0.96477 1.42196,-0.8704 0.21923,0.0841 0.47637,0.0272 0.5714,-0.12663 0.10744,-0.17382 0.007,-0.2161 -0.26455,-0.11176 -0.39959,0.15334 -0.40309,0.10166 -0.0405,-0.59834 0.21828,-0.42139 0.7443,-1.12923 1.16892,-1.57297 0.42462,-0.44373 0.72899,-0.93593 0.67638,-1.09376 -0.0526,-0.15784 0.0826,-0.46522 0.30043,-0.68307 0.21785,-0.21784 0.33497,-0.4572 0.26028,-0.53189 -0.18494,-0.18494 0.94649,-3.8596 1.24522,-4.04423 0.13129,-0.0811 0.2387,-0.61675 0.2387,-1.19024 0,-0.5735 0.11906,-1.04272 0.26458,-1.04272 0.14552,0 0.25622,-0.44648 0.24599,-0.99219 -0.0138,-0.73517 -0.0705,-0.85966 -0.21894,-0.48058 -0.38819,0.99129 -0.62408,-0.11796 -0.28365,-1.33385 0.18129,-0.64752 0.26454,-1.24238 0.185,-1.32193 -0.0795,-0.0795 -0.0452,-0.49124 0.0763,-0.91488 0.24927,-0.86915 0.0253,-1.13746 -1.06302,-1.2735 -0.14552,-0.0182 -0.26458,-0.32209 -0.26458,-0.67533 0,-0.36625 -0.27828,-0.86114 -0.64755,-1.15161 -0.51084,-0.40183 -0.58067,-0.58165 -0.33073,-0.85177 0.17425,-0.18833 0.18934,-0.27158 0.0335,-0.18501 -0.43094,0.23944 -2.03694,-0.83534 -1.87578,-1.25533 0.19772,-0.51524 -0.0835,-0.69857 -0.62607,-0.40819 -0.32873,0.17593 -0.55953,0.13773 -0.78113,-0.12927 -0.33666,-0.40565 -3.07235,-1.29491 -3.3881,-1.10133 -0.10417,0.0639 -0.81445,0.18323 -1.5784,0.26527 -0.76396,0.082 -1.62716,0.27661 -1.91823,0.43239 -0.29107,0.15577 -0.53284,0.18974 -0.53726,0.0755 -0.004,-0.11426 -0.12941,6.1e-4 -0.27774,0.25528 -0.14832,0.25466 -0.44236,0.46302 -0.65341,0.46302 -0.21105,0 -0.38373,0.11814 -0.38373,0.26254 0,0.1444 -0.37361,0.59088 -0.83026,0.99219 -0.90149,0.79224 -1.80049,2.49727 -1.80976,3.43237 -0.005,0.50289 0.7024,2.96104 0.92084,3.19991 0.0412,0.045 0.81623,-0.16158 1.72241,-0.45907 1.76053,-0.57795 2.11344,-0.53804 2.11344,0.23902 0,0.37041 -0.42486,0.63336 -1.71948,1.06418 l -1.71949,0.57221 0.13199,1.03687 c 0.0726,0.57027 0.19408,1.52039 0.26998,2.11136 0.0759,0.59098 0.0595,1.84113 -0.0365,2.77813 -0.14317,1.39736 -0.2599,1.70362 -0.64934,1.70362 -0.64422,0 -0.87578,-0.85101 -0.80955,-2.97519 0.0724,-2.32346 -0.31108,-3.77754 -1.01025,-3.83021 -0.4922,-0.0371 -0.52205,0.11105 -0.46809,2.32312 0.041,1.68213 0.1529,2.36314 0.38837,2.36417 0.24332,0.001 0.33072,0.7299 0.33072,2.75793 0,1.51607 0.0739,2.94909 0.16425,3.18449 0.15041,0.39197 0.21826,0.39261 0.80581,0.008 0.80257,-0.52587 1.4329,-0.33768 2.00797,0.59948 0.94642,1.54233 0.91556,1.51658 1.36743,1.14156 0.22938,-0.19037 0.41522,-0.48037 0.41299,-0.64445 -0.002,-0.16408 -0.11946,-0.11974 -0.26053,0.0985 -0.21722,0.33614 -0.2571,0.32328 -0.26053,-0.084 -0.003,-0.36105 0.12779,-0.43901 0.52511,-0.3129 0.31057,0.0986 0.52917,0.0475 0.52917,-0.12352 0,-0.31274 0.97706,-0.26156 1.52136,0.0797 0.1819,0.11404 0.44979,0.13377 0.59531,0.0438 0.14552,-0.0899 0.26458,-0.0289 0.26458,0.13557 0,0.16451 0.17859,0.47769 0.39688,0.69598 0.21828,0.21828 0.39687,0.72571 0.39687,1.12763 0,1.0797 0.27378,1.17372 1.10338,0.37892 0.40875,-0.39162 0.80688,-0.64833 0.88472,-0.57049 z m -0.97776,18.57285 c -0.0791,-2.38856 -0.0261,-2.69599 0.85726,-4.97141 1.11684,-2.87692 2.96168,-6.17112 6.08814,-10.87113 2.38807,-3.59 3.85506,-6.68428 4.80381,-10.13252 0.75675,-2.75044 0.81463,-8.47141 0.11697,-11.56332 -0.97995,-4.34302 -4.01834,-9.13873 -7.09673,-11.20125 -1.94376,-1.30233 -5.1819,-2.47311 -6.75886,-2.44373 -0.32021,0.006 -0.65466,-0.1064 -0.74322,-0.24969 -0.09,-0.14565 0.14443,-0.26054 0.53167,-0.26054 0.39441,0 0.62227,-0.11393 0.52916,-0.26458 -0.0899,-0.14552 -0.0337,-0.26458 0.12498,-0.26458 0.15868,0 0.36044,0.18745 0.44835,0.41655 0.1132,0.29499 0.3533,0.36801 0.82268,0.2502 0.97582,-0.24491 3.49878,0.12589 3.49878,0.51422 0,0.46921 1.99872,1.21239 2.34076,0.87035 0.40555,-0.40555 1.09883,-0.0263 1.09883,0.60108 0,0.39477 0.3208,0.69542 1.12448,1.05383 1.1691,0.52139 2.25417,1.44178 3.35769,2.84812 0.35515,0.45259 0.74307,0.76274 0.86204,0.68921 0.11898,-0.0735 0.44363,0.3966 0.72145,1.04472 0.27782,0.64813 0.63404,1.25809 0.79161,1.35547 0.15756,0.0974 0.28648,0.47143 0.28648,0.83121 0,0.35978 0.17859,0.72268 0.39687,0.80644 0.34369,0.13189 0.39688,1.5807 0.39688,10.8113 0,9.2306 -0.0532,10.67942 -0.39688,10.81131 -0.232,0.089 -0.39687,0.48549 -0.39687,0.95435 0,0.44113 -0.11104,0.80205 -0.24676,0.80205 -0.13571,0 -0.32233,0.23813 -0.4147,0.52917 -0.0924,0.29104 -0.33852,0.52917 -0.547,0.52917 -0.20847,0 -0.37904,0.23812 -0.37904,0.52916 0,0.29105 -0.11907,0.52917 -0.26459,0.52917 -0.14552,0 -0.26458,0.1871 -0.26458,0.41577 0,0.22868 -0.18444,0.60022 -0.40987,0.82565 -0.22542,0.22542 -0.47691,0.74509 -0.55885,1.15481 -0.0819,0.40972 -0.31423,0.80835 -0.51618,0.88584 -0.20195,0.0775 -0.36718,0.36032 -0.36718,0.62849 0,0.26817 -0.21277,0.71839 -0.47282,1.00049 -0.50931,0.55249 -1.17211,1.99454 -1.09766,2.3882 0.0901,0.47621 -0.0225,0.8709 -0.34775,1.21951 -0.1819,0.19496 -0.5568,0.76901 -0.8331,1.27567 -0.51691,0.94786 -2.48069,4.06266 -3.37487,5.35297 -0.34626,0.49966 -0.39814,0.72387 -0.16558,0.7157 0.18626,-0.007 1.1616,-1.14113 2.16742,-2.52131 1.71744,-2.35664 2.2246,-2.7692 2.47622,-2.01432 0.0593,0.17797 -0.14337,0.3142 -0.4675,0.3142 -0.50053,0 -0.55311,0.10776 -0.4196,0.85989 0.0968,0.54534 0.0749,0.67879 -0.0598,0.36482 -0.19461,-0.45346 -0.25294,-0.43333 -0.69371,0.23938 -0.36797,0.56159 -0.39058,0.69967 -0.0961,0.58666 0.33699,-0.12932 0.33718,-0.002 0.002,1.01739 -0.21098,0.64086 -0.54808,1.16519 -0.74911,1.16519 -0.20103,0 -0.36551,0.23676 -0.36551,0.52614 0,0.28938 -0.20505,0.76563 -0.45568,1.05834 -0.38784,0.45297 -0.77897,0.53219 -2.62767,0.53219 h -2.172 z m -16.18226,-9.05643 c -0.611671,-1.92861 -0.874298,-3.20178 -0.713969,-3.4612 0.14108,-0.22827 0.259857,-0.21902 0.462075,0.036 0.413585,0.52157 1.44017,3.43488 1.270253,3.6048 -0.329721,0.32972 -0.888055,0.23125 -1.018359,-0.1796 z m -7.776083,-4.00487 c -2.496284,-0.89601 -4.794019,-2.45545 -6.437051,-4.36874 -0.49986,-0.58209 -0.985485,-1.11787 -1.079166,-1.19063 -0.305168,-0.23702 -2.343998,-4.18169 -2.348163,-4.54317 -0.01112,-0.96495 -0.402813,-1.0599 -2.063884,-0.50033 -2.093532,0.70526 -2.429981,0.69448 -2.429981,-0.0778 0,-0.54247 0.231929,-0.69023 1.785938,-1.13785 l 1.785937,-0.51442 -0.05509,-1.97101 c -0.04908,-1.75624 -0.02291,-1.87597 0.240231,-1.09884 0.168187,0.49671 0.432966,0.81935 0.615068,0.74947 0.19066,-0.0732 0.445122,0.29575 0.630286,0.91377 0.17838,0.59538 0.476242,1.03647 0.699915,1.03647 0.302579,0 0.353594,0.2238 0.228843,1.00395 -0.181966,1.13795 0.470159,2.54066 2.362397,5.08147 2.471843,3.31907 5.953286,5.25556 9.569044,5.32261 1.509391,0.028 2.152151,0.22748 1.685406,0.52309 -0.286249,0.1813 -0.290451,0.23249 -0.01934,0.23566 0.194542,0.002 0.263383,0.13829 0.157064,0.31032 -0.130374,0.21094 -0.007,0.25859 0.396369,0.15311 0.382211,-0.1 0.549989,-0.0455 0.482992,0.15676 -0.182345,0.55048 -4.606051,0.49071 -6.206815,-0.0839 z m 0.855296,-4.23645 c -0.08994,-0.14552 -0.366617,-0.26459 -0.614845,-0.26459 -1.018241,0 -4.434971,-2.44553 -4.122685,-2.95081 0.0762,-0.1233 -0.04707,-0.22419 -0.273938,-0.22419 -0.436676,0 -0.534885,-0.45634 -0.208583,-0.96921 0.264791,-0.41619 2.005849,1.13875 1.81932,1.62483 -0.125538,0.32715 0.353249,0.70757 1.019481,0.81004 0.598768,0.0921 1.190755,0.4621 1.19269,0.74546 0.0022,0.31912 1.186486,0.96388 1.770475,0.96388 0.18927,0 0.344127,0.11907 0.344127,0.26459 0,0.14552 -0.171567,0.26458 -0.38126,0.26458 -0.209693,0 -0.454845,-0.11906 -0.544782,-0.26458 z m 5.850469,-24.91246 c -0.97088,-0.56387 -3.228124,-1.01047 -5.122865,-1.01357 -1.741595,-0.003 -2.441667,-0.277 -1.587499,-0.62166 0.181901,-0.0734 0.06284,-0.14285 -0.264584,-0.15434 -0.702405,-0.0246 -0.740759,-0.17782 -0.183947,-0.73464 0.585532,-0.58553 5.841011,-0.37819 6.829417,0.26944 0.372955,0.24437 0.853856,0.44431 1.068669,0.44431 0.63348,0 0.736023,0.45945 0.293525,1.31515 -0.227965,0.44083 -0.44119,0.7979 -0.473834,0.79347 -0.03264,-0.004 -0.28414,-0.1386 -0.558882,-0.29816 z m -8.628594,-2.56655 c 0,-0.29458 -0.109497,-0.60327 -0.243328,-0.68598 -0.13383,-0.0827 -0.504213,-0.99333 -0.823074,-2.02358 -0.594291,-1.9202 -0.482569,-2.60007 0.373292,-2.27165 0.52318,0.20076 0.890421,1.56007 1.292154,4.78278 0.03433,0.27538 -0.08641,0.55319 -0.268314,0.61736 -0.194088,0.0685 -0.33073,-0.10461 -0.33073,-0.41893 z m -10.583333,-3.9991 c 0,-0.42341 0.119063,-0.84342 0.264584,-0.93335 0.432714,-0.26743 0.300664,-0.69839 -0.198438,-0.64762 -1.236428,0.12577 -1.389062,0.0104 -1.389062,-1.05013 0,-0.56995 0.103324,-1.07597 0.229609,-1.12447 0.323662,-0.12433 0.650557,-1.27882 0.362096,-1.27882 -0.130737,0 -0.397004,0.29765 -0.591705,0.66145 -0.194701,0.36381 -0.459814,0.66146 -0.589139,0.66146 -0.129325,0 0.09599,-0.58906 0.500702,-1.30902 0.404729,-0.72 0.814358,-1.18198 0.910338,-1.02668 0.09597,0.15529 0.321811,-0.17838 0.501858,-0.7415 0.601045,-1.87982 1.610091,-3.50921 2.080724,-3.35991 0.335432,0.1064 0.352315,0.0801 0.07554,-0.11787 -0.284305,-0.20331 -0.150449,-0.56978 0.661458,-1.81089 0.559841,-0.8558 1.158216,-1.70483 1.329723,-1.88673 0.231244,-0.24526 1.827549,-0.33073 6.176934,-0.33073 H 92.7872 l -2.208184,1.75646 c -1.214501,0.96605 -2.393679,1.94832 -2.620396,2.18281 -0.226717,0.2345 -0.921956,0.84307 -1.544976,1.3524 -0.62302,0.50932 -2.18849,1.93807 -3.478823,3.175 -1.290333,1.23692 -2.76273,2.58351 -3.271995,2.99242 l -0.925935,0.74346 -0.252396,-0.87575 -0.252396,-0.87576 -0.02386,1.12448 c -0.01312,0.61846 0.09146,1.12448 0.232417,1.12448 0.140953,0 0.193283,0.16416 0.116289,0.36481 -0.07699,0.20064 -0.341149,0.34947 -0.587009,0.33073 -0.298573,-0.0228 -0.474102,0.2001 -0.528577,0.67113 -0.118436,1.02407 -0.844483,1.22021 -0.844484,0.22814 z m -2.645833,-9.21716 v -5.07765 h 3.20543 3.205429 l -0.478068,0.7276 c -0.262937,0.40019 -0.841805,1.32292 -1.286373,2.05052 -0.444568,0.72761 -0.878968,1.38245 -0.965332,1.45521 -0.08637,0.0728 -0.648473,0.96573 -1.249129,1.98438 -0.600656,1.01864 -1.214976,1.99588 -1.365155,2.17164 -0.150178,0.17576 -0.276838,0.41389 -0.281466,0.52917 -0.0046,0.11528 -0.183222,0.44072 -0.396875,0.72319 -0.345906,0.45733 -0.388461,-0.0427 -0.388461,-4.56406 z m 24.110156,0.52223 c -0.491133,-0.52105 -0.892969,-1.20794 -0.892969,-1.52643 0,-0.35469 -0.24637,-0.69132 -0.635811,-0.86876 -0.349696,-0.15933 -0.704739,-0.46932 -0.788984,-0.68886 -0.100249,-0.26124 -0.509072,-0.39916 -1.1832,-0.39916 -1.025308,0 -1.030026,-0.005 -1.030026,-1.05834 v -1.05833 l 7.871352,0.004 c 5.66894,0.003 7.76031,0.0834 7.47448,0.28754 -0.30988,0.22134 -0.25189,0.24805 0.26458,0.12187 2.04432,-0.49949 2.15393,-0.41811 0.52917,0.39283 -0.94588,0.47211 -1.75948,0.96008 -1.80799,1.08438 -0.0485,0.1243 -0.23348,0.226 -0.41107,0.226 -0.43505,0 -3.07888,1.3009 -3.7134,1.82719 -0.27967,0.23197 -0.42148,0.27294 -0.31511,0.091 0.14152,-0.24202 -0.0947,-0.33072 -0.88056,-0.33072 -1.01689,0 -1.07395,-0.0422 -1.07395,-0.79375 0,-0.74966 -0.0588,-0.79375 -1.05834,-0.79375 -1.05576,0 -1.058329,0.003 -1.058329,1.04314 0,0.90959 0.06952,1.02975 0.543022,0.93856 0.445457,-0.0858 0.511777,-0.006 0.369107,0.44337 -0.12797,0.40322 -0.0792,0.50478 0.18459,0.38452 0.19717,-0.0899 0.56685,-0.23692 0.82151,-0.32674 0.25466,-0.0898 0.46302,-0.24865 0.46302,-0.35295 0,-0.10429 0.1819,-0.18963 0.40423,-0.18963 0.71972,0 0.26793,0.48891 -1.209,1.30833 -0.7943,0.44068 -1.483875,0.90206 -1.532381,1.02528 -0.141654,0.35983 -0.38605,0.21497 -1.333941,-0.79067 z"
         id="path348" /><path
         style="fill:#a4b8c9"
         d="m 107.30127,180.11511 c 0.0472,-2.33429 -0.0411,-2.98298 -0.63402,-4.65785 -0.91208,-2.57626 -2.60142,-5.66275 -5.74127,-10.48955 -4.375555,-6.72639 -5.808613,-10.72909 -5.80791,-16.22215 6.67e-4,-5.21271 1.020271,-8.87878 3.472365,-12.48514 2.315435,-3.40538 5.310065,-5.41465 9.227275,-6.1911 1.72567,-0.34206 2.26033,-0.34499 4.10104,-0.0225 6.01307,1.05362 10.47554,5.69808 12.21306,12.71114 0.33003,1.33209 0.45379,2.9273 0.45042,5.80554 -0.004,3.52925 -0.0822,4.22296 -0.70483,6.26426 -1.02943,3.37492 -2.48844,6.31778 -4.8304,9.74304 -2.84414,4.15972 -4.75538,7.60016 -5.8634,10.55479 -0.85588,2.28226 -0.92824,2.69778 -0.88697,5.09322 l 0.0449,2.60824 h -1.99735 -1.99735 v -2.78267 c 0,-2.42051 -0.10728,-3.09765 -0.82434,-5.203 -0.88024,-2.58445 -2.949,-6.40577 -4.98729,-9.21225 -3.821946,-5.26239 -5.231558,-8.10639 -6.115203,-12.3379 -0.475909,-2.27898 -0.48228,-2.56583 -0.100109,-4.50685 0.224482,-1.14013 0.461428,-2.70762 0.526546,-3.48331 0.06512,-0.77569 0.19623,-1.53628 0.291359,-1.6902 0.09513,-0.15392 0.210173,-0.71876 0.255653,-1.2552 0.109627,-1.29304 1.497345,-4.85852 2.3953,-6.15427 1.151544,-1.66167 3.421554,-3.56661 5.467384,-4.58809 1.04504,-0.52179 1.54778,-0.87177 1.11718,-0.77774 -1.72048,0.37574 -3.77166,1.64461 -5.60963,3.47016 -4.947736,4.9143 -6.620246,13.51922 -4.15006,21.35169 0.915181,2.90187 2.128323,5.26366 4.57838,8.91338 2.01467,3.00114 5.30275,8.68027 5.30275,9.15884 0,0.13527 0.32931,1.13619 0.73181,2.22428 0.64318,1.73877 0.72101,2.27471 0.64268,4.42573 -0.0514,1.41035 -0.20221,2.4474 -0.35601,2.4474 -0.16566,0 -0.24606,-1.02855 -0.212,-2.71198 z m 3.82999,-14.7404 c -0.0674,-0.10905 0.19101,-0.13833 0.57423,-0.0651 0.56568,0.10814 0.6653,0.0512 0.52947,-0.3028 -0.092,-0.2398 -0.0617,-0.436 0.0673,-0.436 0.12905,0 0.45274,-0.0755 0.7193,-0.16789 0.42751,-0.14809 0.42227,-0.11682 -0.0445,0.26523 -0.40792,0.33389 -0.42626,0.3974 -0.08,0.2772 0.68677,-0.23842 1.86646,-1.89038 1.46641,-2.05347 -0.18043,-0.0735 0.0589,-0.0987 0.53184,-0.0559 0.61688,0.0559 0.8599,-0.0325 0.8599,-0.3126 0,-0.26265 -0.15158,-0.33277 -0.46302,-0.2142 -0.32342,0.12312 -0.37973,0.0922 -0.18676,-0.10244 0.15195,-0.1533 0.59645,-0.30522 0.98777,-0.3376 0.46626,-0.0386 0.62182,-0.14856 0.45133,-0.31905 -0.43863,-0.43863 -0.28825,-0.7716 0.17488,-0.38723 0.38706,0.32122 0.41404,0.29488 0.24465,-0.23884 -0.10472,-0.32993 -0.0921,-0.58279 0.028,-0.5619 0.12011,0.0209 0.30767,0.009 0.41681,-0.0264 0.10914,-0.0354 0.34727,-0.082 0.52917,-0.10341 0.1819,-0.0215 0.293,-0.25665 0.24689,-0.52265 -0.0461,-0.266 0.0321,-0.41199 0.17376,-0.32442 0.149,0.0921 0.19923,-0.064 0.11913,-0.37033 -0.0805,-0.3079 -0.008,-0.52953 0.17258,-0.52953 0.17108,0 0.2261,0.13746 0.12227,0.30546 -0.11432,0.18497 -0.0729,0.23382 0.10512,0.12382 0.16165,-0.0999 0.23146,-0.34438 0.15514,-0.54328 -0.0763,-0.1989 0.007,-0.45161 0.18472,-0.56158 0.2205,-0.13627 0.25535,-0.0897 0.10945,0.14641 -0.1505,0.24351 -0.11145,0.28294 0.1315,0.13279 0.27569,-0.17039 0.26106,-0.27533 -0.0724,-0.51913 -0.28429,-0.20788 -0.3407,-0.42759 -0.17643,-0.68722 0.16686,-0.26373 0.24272,-0.27946 0.24552,-0.0509 0.007,0.55981 0.4319,0.3667 0.75533,-0.34317 0.41415,-0.90896 0.37334,-1.19926 -0.059,-0.41953 -0.29748,0.53654 -0.37158,0.56303 -0.51676,0.1847 -0.0932,-0.24292 -0.0736,-0.38243 0.0435,-0.31002 0.23138,0.143 0.91892,-0.90623 1.36822,-2.08798 0.25843,-0.67973 0.24467,-0.71029 -0.16697,-0.37068 -0.40794,0.33656 -0.42097,0.31823 -0.14375,-0.20213 0.16768,-0.31474 0.45506,-0.62229 0.63863,-0.68345 0.47028,-0.15667 0.47516,-7.88463 0.005,-8.45114 -0.18064,-0.21781 -0.25907,-0.46538 -0.17428,-0.55017 0.26914,-0.26914 -0.18194,-1.26926 -0.48734,-1.08051 -0.19083,0.11794 -0.22795,0.0165 -0.10818,-0.29558 0.11409,-0.2973 -0.12672,-1.10949 -0.64343,-2.17012 -0.66127,-1.35739 -0.8973,-1.6356 -1.18503,-1.39681 -0.28643,0.23771 -0.33761,0.18561 -0.25239,-0.25692 0.0631,-0.32786 -0.15237,-0.85197 -0.52647,-1.28032 -0.58633,-0.67135 -0.62231,-0.68122 -0.48436,-0.13289 0.082,0.32578 0.25456,0.52712 0.38353,0.4474 0.39979,-0.24708 0.25753,0.33157 -0.16842,0.68508 -0.34213,0.28394 -0.37458,0.25888 -0.21505,-0.16604 0.159,-0.42351 0.12568,-0.44995 -0.21672,-0.17201 -0.39088,0.31728 -0.7528,0.20578 -0.7528,-0.23194 0,-0.1167 0.17859,-0.14365 0.39687,-0.0599 0.21828,0.0838 0.39688,0.0205 0.39688,-0.1406 0,-0.16109 -0.0893,-0.27879 -0.19844,-0.26156 -0.5304,0.0838 -0.87424,-0.0587 -0.72494,-0.30023 0.0914,-0.14789 0.29542,-0.18903 0.45337,-0.0914 0.16564,0.10237 0.21154,0.0551 0.10845,-0.11171 -0.0983,-0.15906 -0.41436,-0.24383 -0.70234,-0.18837 -0.28798,0.0555 -0.5236,-0.0241 -0.5236,-0.17686 0,-0.15524 -0.20419,-0.19996 -0.46302,-0.10142 -0.37125,0.14133 -0.39747,0.11023 -0.1323,-0.15691 0.18191,-0.18324 0.32891,-0.45819 0.32668,-0.61098 -0.003,-0.18209 -0.071,-0.18665 -0.19843,-0.0132 -0.32173,0.43791 -1.24267,1.09273 -1.02331,0.7276 0.14173,-0.23592 -0.0523,-0.34043 -0.67682,-0.36457 -1.69224,-0.0654 -3.51476,0.0825 -3.96137,0.32152 -0.24817,0.13282 -0.71571,0.24149 -1.03896,0.24149 -0.32325,0 -0.97798,0.29766 -1.45495,0.66146 -0.47697,0.3638 -0.93224,0.66146 -1.01171,0.66146 -0.27342,0 -2.40461,2.44426 -2.61597,3.00026 -0.11639,0.30617 -0.33731,0.63435 -0.49093,0.7293 -0.18729,0.11575 -0.15011,0.3797 0.11286,0.80122 0.2157,0.34572 0.71491,1.49179 1.10937,2.54682 0.71754,1.91914 0.87538,2.11732 1.34563,1.68962 0.21243,-0.19321 2.42337,-0.82972 2.88206,-0.82972 0.0811,0 0.14742,0.2152 0.14742,0.47822 0,0.35311 -0.43264,0.61833 -1.65365,1.01376 -1.3355,0.43251 -1.63919,0.6332 -1.57851,1.04314 0.0413,0.27917 0.12632,1.28149 0.18888,2.22738 0.0867,1.31029 0.0628,1.48284 -0.1001,0.72468 -0.27534,-1.28122 -0.55501,-1.55544 -0.58168,-0.57034 -0.0208,0.76879 -0.0217,0.7692 -0.24144,0.11024 -0.1213,-0.3638 -0.29382,-0.99309 -0.38337,-1.39842 -0.0999,-0.45193 -0.4158,-0.83314 -0.8169,-0.98564 -0.72244,-0.27467 -0.87494,-0.98737 -0.26163,-1.22272 0.32452,-0.12453 0.27119,-0.36351 -0.30812,-1.38076 -0.97045,-1.70407 -0.9924,-1.71775 -1.32833,-0.82776 -0.16533,0.43801 -0.18564,0.72189 -0.0455,0.63525 0.31331,-0.19364 0.15039,2.25283 -0.19057,2.86162 -0.13187,0.23546 -0.19904,1.02408 -0.14927,1.75249 0.0737,1.07878 0.1681,1.29462 0.50896,1.16382 0.32913,-0.1263 0.37315,-0.0519 0.20621,0.34837 -0.11673,0.27993 -0.27035,0.77685 -0.34136,1.10427 -0.071,0.32742 -0.23429,0.59531 -0.36285,0.59531 -0.12856,0 -0.23374,0.45796 -0.23374,1.01769 0,0.55972 -0.18656,1.39164 -0.41457,1.84871 -0.22802,0.45707 -0.34005,0.95161 -0.24897,1.09898 0.0911,0.14738 0.0249,0.26796 -0.14699,0.26796 -0.232947,0 -0.22867,0.10112 0.0168,0.39687 0.35109,0.42303 0.92475,0.55831 0.67859,0.16002 -0.0805,-0.13027 0.0439,-0.30987 0.27642,-0.39911 0.23297,-0.0894 0.35715,-0.33336 0.27657,-0.54334 -0.16629,-0.43335 0.81231,-0.85958 1.14936,-0.50062 0.34134,0.36352 0.61647,3.00284 0.31302,3.00284 -0.14636,0 -0.2327,0.3044 -0.19186,0.67644 0.058,0.52859 -0.0194,0.64112 -0.35403,0.51487 -0.35865,-0.1353 -0.35145,-0.084 0.0443,0.31575 0.41206,0.41618 0.50474,0.42648 0.72355,0.0804 0.14987,-0.23699 0.2526,-0.26992 0.25502,-0.0818 0.002,0.17332 -0.11695,0.3899 -0.26485,0.48131 -0.14789,0.0914 -0.1992,0.27896 -0.11401,0.4168 0.0852,0.13784 0.26767,0.18092 0.40551,0.0957 0.13784,-0.0852 0.1865,-0.25863 0.10814,-0.38542 -0.18335,-0.29667 0.94793,-1.35893 1.3125,-1.23242 0.1521,0.0528 0.27326,0.39369 0.26924,0.75758 -0.006,0.50543 0.10373,0.63259 0.46302,0.53863 0.25868,-0.0676 0.47033,0.01 0.47033,0.17244 0,0.1625 0.1786,0.29545 0.39688,0.29545 0.21828,0 0.39687,0.11906 0.39687,0.26458 0,0.14552 -0.11906,0.26458 -0.26458,0.26458 -0.14552,0 -0.26458,0.20241 -0.26458,0.4498 0,0.34088 0.0742,0.37557 0.30652,0.14327 0.2323,-0.23231 0.5366,-0.1263 1.25677,0.43781 0.52264,0.40938 1.30744,0.87129 1.744,1.02646 0.43656,0.15518 0.63789,0.29154 0.44741,0.30303 -0.61139,0.0369 -0.12488,0.41639 0.5843,0.45581 0.37652,0.0209 0.62944,-0.0512 0.56205,-0.16022 z m -2.02047,-1.10194 c -0.38022,-0.13804 -0.90617,-0.64998 -1.16878,-1.13763 -0.4155,-0.77152 -0.43255,-0.99513 -0.13134,-1.72232 0.33657,-0.81255 1.43357,-1.60448 2.22256,-1.60448 0.21434,0 0.75603,0.30824 1.20376,0.68497 1.01777,0.8564 1.10772,2.13749 0.21874,3.11535 -0.72445,0.79687 -1.4294,0.99653 -2.34494,0.66411 z m 3.99858,15.9354 c 0,-2.22034 0.11483,-2.90928 0.80207,-4.81244 0.90462,-2.50514 3.04845,-6.3117 6.12272,-10.87146 3.69576,-5.48154 5.51291,-10.68667 5.50876,-15.77959 -0.004,-4.82985 -1.06415,-8.9841 -3.11861,-12.21968 -0.99209,-1.56245 -2.70549,-3.78006 -3.03273,-3.9252 -0.35775,-0.15867 0.0851,-0.57271 0.61258,-0.57271 0.28245,0 0.51355,0.16931 0.51355,0.37625 0,0.20695 0.50601,0.81957 1.12448,1.36138 0.61846,0.54182 1.00036,0.91653 0.84867,0.8327 -0.15169,-0.0838 -0.29525,0.10572 -0.31902,0.42122 -0.0321,0.42634 0.0159,0.47796 0.18708,0.20103 0.19456,-0.3148 0.3378,-0.30217 0.9232,0.0814 0.38109,0.2497 0.67013,0.59748 0.6423,0.77283 -0.0795,0.50102 0.32771,1.25739 0.58976,1.09544 0.13027,-0.0805 0.23686,0.0307 0.23686,0.2472 0,0.21648 0.15507,0.55092 0.3446,0.74322 0.49444,0.50166 1.2819,2.58601 1.09267,2.8922 -0.088,0.1423 -0.0166,0.43143 0.15859,0.6425 0.17517,0.21107 0.26215,0.6785 0.19329,1.03873 -0.0689,0.36024 -0.0233,0.59202 0.10115,0.51508 0.1245,-0.0769 0.22703,0.25408 0.22784,0.73561 8.1e-4,0.48153 0.11963,1.30082 0.26403,1.82065 0.14441,0.51983 0.29932,3.00294 0.34426,5.51803 0.064,3.57905 0.007,4.60173 -0.26403,4.70556 -0.19823,0.0761 -0.34573,0.54955 -0.34573,1.10978 0,0.53741 -0.13242,1.10953 -0.29427,1.27138 -0.16184,0.16184 -0.50426,0.92979 -0.76092,1.70656 -0.29297,0.88665 -0.61033,1.40133 -0.85266,1.38283 -0.26773,-0.0204 -0.3494,0.16196 -0.26656,0.59532 0.0678,0.35492 -0.008,0.62477 -0.176,0.62477 -0.16248,0 -0.29543,0.23813 -0.29543,0.52917 0,0.29104 -0.1389,0.52917 -0.30868,0.52917 -0.16977,0 -0.23147,0.0772 -0.1371,0.17158 0.0944,0.0944 -0.36204,0.91937 -1.01423,1.83334 -0.6522,0.91398 -1.18582,1.78927 -1.18582,1.94509 0,0.15583 -0.11906,0.28332 -0.26458,0.28332 -0.14552,0 -0.26459,0.17859 -0.26459,0.39688 0,0.21828 -0.11906,0.39687 -0.26458,0.39687 -0.14552,0 -0.26458,0.19194 -0.26458,0.42654 0,0.57586 -1.63358,4.07138 -1.9027,4.07138 -0.11768,0 -0.21397,0.40214 -0.21397,0.89364 0,0.49151 -0.17859,1.04187 -0.39687,1.22302 -0.21829,0.18116 -0.39688,0.58865 -0.39688,0.90553 0,0.31688 -0.13705,0.71319 -0.30456,0.8807 -0.16751,0.16751 -0.33602,0.75687 -0.37447,1.30969 -0.0387,0.55626 -0.19807,0.97559 -0.3569,0.93898 -0.15784,-0.0364 -0.28699,0.17992 -0.28699,0.48067 0,0.30076 -0.31426,0.95884 -0.69835,1.46241 -0.7736,1.01424 -0.66313,1.52213 0.16757,0.77037 0.51512,-0.46618 0.53078,-0.46416 0.53078,0.0684 0,0.4935 -0.15991,0.54955 -1.5875,0.55637 l -1.5875,0.008 z M 92.075,167.57507 c -3.478533,-0.40092 -6.173532,-1.62587 -8.342464,-3.79187 -1.82982,-1.82735 -3.256969,-3.87226 -3.00644,-4.30782 0.103923,-0.18067 0.09364,-0.24235 -0.02286,-0.13706 -0.116497,0.10529 -0.433242,-0.2217 -0.703878,-0.72665 -0.587467,-1.09608 -0.617822,-1.44917 -0.124588,-1.44917 0.202112,0 0.35094,0.20836 0.330729,0.46302 -0.02021,0.25467 0.11208,0.43326 0.293981,0.39688 0.181901,-0.0364 0.33073,0.0529 0.33073,0.19844 0,0.14552 0.178593,0.26458 0.396875,0.26458 0.218281,0 0.396875,0.18233 0.396875,0.40518 0,0.22285 0.178593,0.47371 0.396875,0.55747 0.218281,0.0838 0.396875,0.27125 0.396875,0.41665 0,0.24476 1.485476,2.29 1.880741,2.58945 1.580555,1.1974 1.772954,1.4121 1.623444,1.8116 -0.142351,0.38037 -0.105509,0.39004 0.282735,0.0742 0.520814,-0.42364 0.568377,-0.23152 0.14333,0.57896 -0.29475,0.56203 -0.288527,0.56501 0.22632,0.10852 0.616255,-0.54641 1.446911,-0.35842 1.204747,0.27265 -0.122053,0.31806 -0.04819,0.37742 0.302315,0.24292 0.654554,-0.25118 1.911614,0.0822 1.439112,0.38164 -0.278639,0.1766 -0.260081,0.22642 0.08551,0.2296 0.242759,0.002 0.659478,0.0748 0.926041,0.1613 0.413506,0.13416 0.426394,0.11107 0.08779,-0.15725 -0.338609,-0.26833 -0.32572,-0.29142 0.08778,-0.15725 0.266563,0.0865 0.601012,0.15725 0.743219,0.15725 0.142207,0 0.184974,0.11906 0.09504,0.26458 -0.08994,0.14552 0.111396,0.28148 0.447406,0.30213 0.347189,0.0213 0.154043,0.11935 -0.447406,0.22704 l -1.058333,0.18949 1.256771,0.0375 c 0.691224,0.0206 1.256771,0.15661 1.256771,0.30213 0,0.14552 -0.02977,0.24675 -0.06615,0.22494 -0.03638,-0.0218 -0.423334,-0.0808 -0.859896,-0.13112 z M 74.837697,156.57549 c 0.07058,-0.46251 0.420972,-0.68618 1.651986,-1.05454 1.631151,-0.4881 2.574186,-0.47882 1.430109,0.0141 -0.563891,0.24294 -0.495594,0.26192 0.463021,0.12866 1.053002,-0.14638 1.123944,-0.11633 1.116064,0.47281 -0.0076,0.56878 -0.04106,0.58618 -0.348677,0.18145 -0.316807,-0.41681 -0.462972,-0.40313 -2.120288,0.19844 -2.17975,0.79121 -2.304455,0.79457 -2.192215,0.0591 z m 21.192824,-18.68297 c -0.450029,-0.39385 -2.396939,-0.83744 -3.853926,-0.87809 l -1.424512,-0.0397 1.190625,-0.1626 1.190625,-0.1626 -1.190625,-0.24157 -1.190625,-0.24157 1.190625,-0.17781 c 1.073585,-0.16033 0.995558,-0.18336 -0.79375,-0.23432 -1.643401,-0.0468 -1.870717,-0.10319 -1.322916,-0.32821 0.940792,-0.38643 3.537072,-0.11313 5.605286,0.59005 l 1.768828,0.60139 -0.38656,0.74753 c -0.431219,0.83388 -0.43225,0.83458 -0.783075,0.52754 z M 74.041974,126.40469 c 0.09551,-0.25466 0.245921,-0.64161 0.334251,-0.8599 0.08833,-0.21828 0.03819,-0.39687 -0.111414,-0.39687 -0.173016,0 -0.281747,-1.44439 -0.29876,-3.96875 l -0.02675,-3.96875 h 2.916286 c 1.86893,0 2.916286,0.10024 2.916286,0.2791 0,0.15351 -0.47625,0.98041 -1.058333,1.83757 -0.582083,0.85715 -1.058333,1.67413 -1.058333,1.81551 0,0.14138 -0.09101,0.29674 -0.202242,0.34525 -0.213683,0.0932 -2.443592,3.59014 -2.443592,3.83205 0,0.0778 -0.256737,0.45786 -0.570526,0.84462 -0.31379,0.38675 -0.492384,0.49483 -0.396875,0.24017 z m 14.196568,-6.28161 c 0,-0.14429 0.225983,-0.40347 0.502185,-0.57596 0.732463,-0.45743 0.155109,-1.27837 -0.89906,-1.27837 -0.512207,0 -0.917306,-0.18983 -1.129223,-0.52916 -0.319328,-0.51133 -0.264237,-0.52917 1.634099,-0.52917 1.323694,0 2.008345,0.10789 2.098765,0.33073 0.09807,0.2417 0.193038,0.25015 0.352778,0.0314 0.184584,-0.25279 1.673789,-0.44803 1.673789,-0.21944 0,0.0865 -2.474088,1.70332 -3.217937,2.10288 -0.267427,0.14365 -0.48623,0.41154 -0.48623,0.59531 0,0.18378 -0.119062,0.33414 -0.264583,0.33414 -0.145521,0 -0.264583,-0.11805 -0.264583,-0.26234 z"
         id="path347" /><path
         style="fill:#9aa5af"
         d="m 107.31764,180.11511 c 0.0681,-2.43812 -0.002,-2.92572 -0.69177,-4.82865 -0.91749,-2.53013 -3.12844,-6.51066 -6.02537,-10.84791 -3.933102,-5.88862 -5.482792,-10.33461 -5.482792,-15.7299 0,-4.97143 1.096663,-9.0027 3.350414,-12.31594 3.259708,-4.7921 8.402548,-7.21844 13.444368,-6.34291 4.55586,0.79114 7.96414,3.37521 10.30331,7.81171 3.07677,5.83542 3.32108,12.94292 0.67443,19.61974 -1.18527,2.99011 -1.86977,4.22224 -4.3719,7.86957 -2.33795,3.40802 -4.47635,7.29782 -5.43803,9.89192 -0.71093,1.91771 -0.79767,2.46502 -0.77218,4.87237 l 0.0287,2.71198 h -1.99498 -1.99498 v -2.80525 c 0,-4.5315 -1.17549,-7.49777 -5.52286,-13.9365 -4.468675,-6.61838 -5.574277,-8.82091 -6.390961,-12.73176 -0.500234,-2.39546 -0.506528,-2.64296 -0.113355,-4.45692 0.47459,-2.1896 0.993893,-5.33918 1.025567,-6.22009 0.01177,-0.32743 0.120624,-0.59532 0.241892,-0.59532 0.121267,0 0.169286,-0.14883 0.10671,-0.33073 -0.06258,-0.1819 0.09036,-0.92871 0.339864,-1.65959 1.574874,-4.61333 4.444623,-7.59158 8.719533,-9.0492 0.94925,-0.32367 1.51379,-0.59156 1.25454,-0.59531 -0.84855,-0.0123 -3.73528,1.07566 -5.01144,1.88873 -2.02664,1.29121 -4.028525,3.67493 -5.356673,6.37837 -1.616329,3.29002 -2.083069,5.54219 -2.068746,9.98232 0.0099,3.06751 0.110559,3.90811 0.712906,5.95312 0.932204,3.1649 2.596956,6.57811 4.731943,9.70181 2.65495,3.88445 4.9012,7.99857 5.97074,10.93569 0.89167,2.44867 0.95714,2.82821 0.87855,5.09323 -0.0495,1.42723 -0.19712,2.4474 -0.35408,2.4474 -0.1699,0 -0.2412,-1.00005 -0.19336,-2.71198 z m 3.24025,-8.35055 c 0.0821,0.1908 0.085,-0.0103 0.007,-0.44685 l -0.14268,-0.79375 0.48951,0.60123 0.48952,0.60124 0.4832,-0.81799 c 0.26575,-0.44989 0.41391,-0.88727 0.32923,-0.97195 -0.0847,-0.0847 0.0525,-0.32428 0.30495,-0.53245 0.42162,-0.34773 0.42243,-0.36709 0.01,-0.23828 -0.7329,0.22886 -5.14914,0.2532 -5.54026,0.0305 -0.19841,-0.11295 -0.0902,0.0574 0.24043,0.37848 0.33065,0.32112 0.52061,0.71421 0.42214,0.87354 -0.0999,0.16167 -0.0583,0.21506 0.0942,0.12082 0.15674,-0.0969 0.34677,0.19595 0.44568,0.68672 0.13544,0.6721 0.2266,0.77049 0.42503,0.45873 0.18319,-0.28781 0.25373,-0.3017 0.25667,-0.0505 0.002,0.19049 0.13582,0.2649 0.29688,0.16536 0.20563,-0.12709 0.1897,-0.24472 -0.0535,-0.39503 -0.19049,-0.11773 -0.42644,-0.16455 -0.52434,-0.10405 -0.0979,0.0605 -0.178,-0.19492 -0.178,-0.56762 0,-0.76892 0.66187,-1.16548 1.01484,-0.60804 0.38041,0.60078 0.27473,0.83676 -0.17384,0.38818 -0.5219,-0.5219 -0.66893,-0.52776 -0.47366,-0.0189 0.14524,0.3785 0.38774,0.47591 0.82329,0.33073 0.19072,-0.0636 0.23338,-0.19587 0.3002,-0.93108 0.0337,-0.37102 1.41654,-0.15491 1.57448,0.24606 0.0488,0.12391 0.19627,0.15884 0.3277,0.0776 0.13142,-0.0812 0.15893,0.0608 0.0611,0.3157 -0.12574,0.32767 -0.21172,0.36167 -0.29358,0.11609 -0.0942,-0.2825 -0.1638,-0.28 -0.37328,0.0134 -0.19711,0.27608 -0.22258,0.25207 -0.10856,-0.10235 0.0938,-0.29155 0.0116,-0.46302 -0.2218,-0.46302 -0.20391,0 -0.45238,0.26789 -0.55216,0.59531 -0.0998,0.32742 -0.37569,0.83344 -0.61314,1.12448 -0.42424,0.51999 -0.42188,0.52086 0.13615,0.05 0.4403,-0.37154 0.6014,-0.40126 0.7171,-0.13229 z m 2.34942,-6.81942 c 1.3376,-0.67657 2.60938,-1.70557 2.44224,-1.97602 -0.0831,-0.13437 0.004,-0.19757 0.19348,-0.14045 0.405,0.1221 2.41704,-2.07052 2.41704,-2.63398 0,-0.21249 0.0589,-0.32745 0.13088,-0.25547 0.32204,0.32204 2.20116,-3.21358 3.09294,-5.81943 0.60251,-1.76058 0.81745,-6.71295 0.40545,-9.34162 -0.43169,-2.75424 -1.96506,-5.90703 -3.87763,-7.97282 -0.81509,-0.8804 -1.58875,-1.53474 -1.71924,-1.45409 -0.1305,0.0806 -0.23726,0.0135 -0.23726,-0.14917 0,-0.1627 -0.10659,-0.22994 -0.23686,-0.14943 -0.13027,0.0805 -0.30987,-0.0439 -0.39911,-0.27642 -0.0925,-0.24106 -0.33188,-0.35771 -0.55689,-0.27137 -0.21705,0.0833 -0.39464,0.0361 -0.39464,-0.10484 0,-0.14095 -0.41112,-0.25628 -0.91359,-0.25628 -0.50248,0 -1.22538,-0.14206 -1.60645,-0.31568 -0.5443,-0.248 -0.73672,-0.24471 -0.89745,0.0153 -0.12771,0.20664 -0.45994,0.26694 -0.88416,0.16047 -0.49411,-0.12402 -0.83026,-0.0199 -1.23167,0.38153 -0.30366,0.30365 -0.73452,0.55209 -0.95747,0.55209 -0.22296,0 -0.84804,0.19687 -1.38906,0.43749 -0.54103,0.24063 -1.16229,0.41425 -1.38057,0.38585 -0.32786,-0.0427 -0.33347,-0.009 -0.0323,0.19438 0.54819,0.36989 0.10566,0.83437 -0.79494,0.83437 -0.66441,0 -0.76933,0.0839 -0.63479,0.50782 0.14143,0.44561 0.0561,0.49128 -0.69607,0.37273 -0.69486,-0.10951 -0.80183,-0.0679 -0.56471,0.21977 0.21518,0.26104 0.20227,0.56478 -0.0488,1.14863 l -0.34133,0.79375 -0.27887,-0.66145 c -0.15337,-0.36381 -0.28641,-0.50561 -0.29563,-0.31512 -0.009,0.19091 -0.15261,0.2624 -0.31945,0.15929 -0.16647,-0.10289 -0.0813,0.18774 0.18934,0.64584 0.27061,0.4581 0.58298,0.8329 0.69417,0.8329 0.38803,0 1.29717,2.14754 1.15445,2.72703 -0.0786,0.31915 -0.0746,0.43144 0.009,0.24954 0.26174,-0.56989 0.57223,-0.36256 0.6934,0.46302 0.0641,0.43656 0.005,0.79375 -0.13057,0.79375 -0.13588,0 -0.17456,0.20836 -0.0859,0.46302 0.11063,0.31795 -0.005,0.26731 -0.36857,-0.16161 -0.29133,-0.34354 -0.52969,-0.76138 -0.52969,-0.92854 0,-0.16715 -0.23812,-0.45263 -0.52917,-0.63439 -0.29104,-0.18176 -0.52916,-0.49531 -0.52916,-0.69679 0,-0.20148 -0.1786,-0.43486 -0.39688,-0.51862 -0.2371,-0.091 -0.39687,-0.002 -0.39687,0.22066 0,0.52552 -0.51915,0.78462 -0.869722,0.43405 -0.216207,-0.21621 -0.210081,-0.29445 0.02305,-0.29445 0.174632,0 0.313712,-0.20836 0.309092,-0.46302 -0.008,-0.41896 -0.0454,-0.41414 -0.396881,0.0506 -0.450276,0.59532 -0.515976,1.47078 -0.110377,1.47078 0.278259,0 1.044838,1.56796 1.044838,2.13712 0,0.1889 -0.34401,0.26187 -0.918466,0.1948 -0.653246,-0.0763 -0.967051,0.0109 -1.086733,0.30178 -0.140002,0.3403 -0.204825,0.32011 -0.385859,-0.12016 -0.155217,-0.37748 -0.222918,-0.12996 -0.236184,0.86349 -0.01023,0.76596 0.126116,1.62437 0.302986,1.90759 0.252389,0.40414 0.252389,0.70629 0,1.40426 -0.386596,1.06911 -0.398194,1.51645 -0.05295,2.04237 0.231583,0.35278 0.289479,0.35278 0.521063,0 0.339301,-0.51686 0.340392,-0.86932 0.002,-0.66021 -0.146625,0.0906 -0.116859,-0.1676 0.06615,-0.57381 l 0.332737,-0.73857 0.08431,0.87273 c 0.04843,0.50139 -0.103967,1.16007 -0.358174,1.54804 -0.243364,0.37142 -0.31286,0.5952 -0.154436,0.49729 0.194465,-0.12019 0.2377,0.0737 0.133081,0.59679 -0.08623,0.43116 -0.03092,0.85148 0.12472,0.94767 0.153826,0.0951 0.205119,0.36717 0.113984,0.60466 -0.11966,0.31183 -0.06834,0.37163 0.184728,0.21523 0.227554,-0.14064 0.287071,-0.11407 0.169739,0.0758 -0.212854,0.34441 0.835824,2.69982 1.202014,2.69982 0.13808,0 0.19382,0.0926 0.12385,0.20583 -0.07,0.11321 0.11193,0.50017 0.40422,0.8599 0.29229,0.35973 0.46982,0.52995 0.39451,0.37826 -0.0753,-0.1517 0.12122,-0.29525 0.43672,-0.31902 0.31551,-0.0238 0.45609,0.0408 0.3124,0.14351 -0.14368,0.1027 -0.29531,0.34845 -0.33694,0.54611 -0.097,0.46042 1.22646,2.21003 1.52987,2.02251 0.12598,-0.0779 0.31521,-0.002 0.42051,0.16821 0.13093,0.21186 0.074,0.23899 -0.18016,0.0858 -0.96259,-0.58013 0.42763,0.70182 1.74512,1.60921 2.38672,1.6438 5.04597,1.91898 7.3385,0.75938 z m -4.4314,-1.07682 c -1.27582,-1.27582 -0.88172,-3.24137 0.75844,-3.78267 2.15522,-0.71129 3.77714,1.96129 2.16726,3.57117 -0.77024,0.77024 -2.25932,0.87789 -2.9257,0.2115 z m 15.04122,-10.67457 c 0.4006,-1.6494 0.54833,-3.78404 0.47456,-6.85712 -0.0566,-2.35928 -0.36037,-1.29947 -0.46479,1.62176 -0.0867,2.42528 -0.39224,5.16972 -0.78906,7.08745 -0.29124,1.40748 0.36837,-0.16016 0.77929,-1.85209 z m -10.40414,27.18594 c 0.004,-2.80194 0.19404,-3.87875 0.58722,-3.32966 0.18507,0.25847 0.21007,0.22159 0.0933,-0.13762 -0.20756,-0.63827 0.34849,-2.48549 0.80038,-2.6589 0.48225,-0.18506 0.74238,0.3168 0.38648,0.74563 -0.1602,0.19302 -0.33455,1.28914 -0.38744,2.43581 -0.0529,1.14666 -0.17832,2.28116 -0.27872,2.5211 -0.1004,0.23995 -0.0606,0.51165 0.0885,0.60379 0.14908,0.0921 0.19606,0.36298 0.10439,0.60186 -0.1267,0.33018 -0.0574,0.39239 0.28914,0.25943 0.42692,-0.16383 0.42622,-0.12481 -0.0111,0.61552 -0.30161,0.51059 -0.68091,0.79044 -1.07133,0.79044 -0.5862,0 -0.60431,-0.0738 -0.6008,-2.4474 z m 4.41801,-11.95035 c 0.42874,-0.7447 1.82296,-2.68725 2.04205,-2.84516 0.13528,-0.0975 0.27546,-0.37828 0.31152,-0.62396 0.0361,-0.24567 0.29822,-0.70168 0.5826,-1.01334 0.47738,-0.5232 2.48793,-3.92931 2.67716,-4.53542 0.10971,-0.3514 0.47657,-1.28589 0.85694,-2.18281 0.1697,-0.40018 0.33341,-0.8169 0.3638,-0.92604 0.0304,-0.10914 0.079,-0.22821 0.10798,-0.26459 0.029,-0.0364 0.10185,-0.30427 0.16188,-0.59531 0.06,-0.29104 0.22935,-0.88635 0.37625,-1.32292 0.22073,-0.65594 0.24135,-0.54225 0.11876,0.65485 -0.0816,0.79673 -0.271,1.59639 -0.42092,1.77704 -0.14993,0.18065 -0.222,0.48022 -0.16017,0.66571 0.0618,0.1855 -0.0546,0.50427 -0.25871,0.70839 -0.2299,0.2299 -0.30838,0.6211 -0.20625,1.02802 0.13279,0.52909 0.0824,0.62523 -0.25919,0.49416 -0.23323,-0.0895 -0.3564,-0.0533 -0.27371,0.0805 0.0827,0.1338 0.0326,0.31606 -0.11136,0.40502 -0.14394,0.089 -0.38956,0.63656 -0.54583,1.21689 -0.17978,0.66764 -0.39327,0.98769 -0.58132,0.87147 -0.19411,-0.11997 -0.23863,-0.0311 -0.12836,0.2563 0.0929,0.24199 0.0508,0.70801 -0.0934,1.03559 -0.22984,0.52202 -0.24431,0.49754 -0.11707,-0.19814 l 0.14517,-0.79375 -0.53008,0.66146 c -0.29154,0.3638 -0.53273,0.75907 -0.53596,0.87837 -0.003,0.1193 -0.36307,0.73606 -0.79964,1.37059 -0.43656,0.63452 -0.79375,1.25241 -0.79375,1.37308 0,0.12068 -0.23812,0.36813 -0.52916,0.54989 -0.63239,0.39493 -0.70958,0.90777 -0.10151,0.67444 0.36806,-0.14124 0.38357,-0.0817 0.11129,0.42702 -0.30321,0.56655 -0.33203,0.57097 -0.69289,0.10627 -0.27639,-0.35593 -0.33814,-0.37346 -0.2322,-0.0659 0.0896,0.26006 -0.006,0.41893 -0.25229,0.41893 -0.21815,0 -0.32237,-0.12899 -0.23161,-0.28664 z"
         id="path346" /><path
         style="fill:#b45627"
         d="m 112.02794,182.62865 c -0.0127,-0.10914 -0.0425,-1.03188 -0.0662,-2.05052 l -0.043,-1.85208 -1.65365,0.0282 c -1.45249,0.0247 -1.65364,-0.0324 -1.65364,-0.46963 0,-0.27379 -0.23613,-1.16963 -0.52474,-1.99077 -0.36017,-1.02475 -0.44136,-1.59343 -0.2589,-1.81329 0.34296,-0.41323 -0.10962,-1.66086 -0.68218,-1.88057 -0.22848,-0.0877 -0.67214,-0.70555 -0.9859,-1.37305 -0.31376,-0.66749 -1.89597,-3.18232 -3.51601,-5.58849 -3.999035,-5.93957 -4.979995,-7.8077 -5.82558,-11.09414 -0.551727,-2.14433 -0.67916,-3.14935 -0.578214,-4.56019 0.07121,-0.99533 0.248218,-1.96025 0.393341,-2.14428 0.145123,-0.18402 0.3366,-1.04896 0.425506,-1.92209 0.229583,-2.25469 0.853721,-4.45102 1.836602,-6.46298 0.467274,-0.95651 0.850408,-1.9177 0.851409,-2.13598 10e-4,-0.21828 0.180257,-0.39974 0.398346,-0.40325 0.21809,-0.004 0.3802,-0.21059 0.36025,-0.46018 -0.02,-0.24958 0.0505,-0.40017 0.15652,-0.33464 0.10603,0.0655 0.5986,-0.30126 1.0946,-0.8151 0.496,-0.51383 1.58643,-1.35126 2.42318,-1.86094 0.83674,-0.50969 1.52135,-0.9818 1.52135,-1.04914 0,-0.15995 -0.99864,0.36588 -1.91823,1.01003 -0.40018,0.28032 -0.7276,0.42598 -0.7276,0.32368 0,-0.10229 -0.24677,0.12773 -0.54837,0.51115 -0.5856,0.74446 -1.04434,0.90751 -1.03095,0.36641 0.0238,-0.96042 4.62099,-3.4874 7.32143,-4.0244 1.32208,-0.2629 1.5532,-0.36319 0.87247,-0.37859 -2.6648,-0.0603 -6.59034,1.61195 -8.77964,3.74005 -5.259302,5.11227 -6.967387,14.36118 -4.135499,22.39281 1.081249,3.06657 1.771546,4.38446 4.174429,7.96961 2.77688,4.14318 5.15499,8.46559 5.9565,10.82644 0.36652,1.07959 0.62372,2.00558 0.57156,2.05775 -0.0522,0.0522 -0.41889,-0.83114 -0.81495,-1.9629 -0.86881,-2.48273 -2.95287,-6.27763 -5.7165,-10.40926 -3.36022,-5.02353 -4.940488,-8.71495 -5.568002,-13.00654 -0.366167,-2.50424 -0.171035,-6.65077 0.433008,-9.20132 0.497017,-2.09864 2.123865,-5.49067 3.489654,-7.27604 2.2733,-2.97167 6.06512,-5.02567 9.86838,-5.34562 3.61131,-0.3038 8.14973,1.56522 10.6129,4.37062 4.74817,5.40786 6.18719,13.59549 3.74855,21.32814 -0.87716,2.78137 -2.10357,5.18978 -4.34056,8.52396 -3.37407,5.02896 -5.19474,8.32464 -6.26447,11.33957 -0.5583,1.5735 -0.64888,2.26 -0.60226,4.56406 0.0302,1.49159 -0.0141,2.71198 -0.0985,2.71198 -0.0844,0 -0.16376,-0.0893 -0.17647,-0.19844 z m -0.36105,-11.0574 c 1.38545,-2.50752 1.56731,-3.03898 0.89842,-2.62558 -0.4481,0.27694 -5.01568,0.13983 -5.59052,-0.16781 -0.67027,-0.35872 -0.60846,-0.12417 0.41618,1.5792 0.4929,0.8194 1.21661,2.12937 1.60825,2.91104 0.46658,0.93123 0.80176,1.33155 0.9722,1.16111 0.14307,-0.14307 0.90603,-1.42915 1.69547,-2.85796 z m 1.55333,-6.6328 c 2.67672,-1.49605 4.90578,-4.02846 6.73726,-7.65414 1.96563,-3.89125 2.53926,-7.86912 1.77267,-12.29264 -1.89369,-10.92729 -12.45575,-15.5233 -19.46521,-8.47017 -1.59485,1.60479 -3.460736,4.97408 -3.958085,7.14725 -0.495633,2.16568 -0.640659,6.41221 -0.285491,8.35951 1.113926,6.10736 5.919026,12.53867 10.185426,13.63254 1.34243,0.34418 3.71746,0.002 5.01343,-0.72235 z m -4.26074,-0.89863 c -1.30061,-0.52403 -1.5627,-2.53906 -0.44463,-3.41853 1.24523,-0.9795 2.74656,-0.61787 3.23347,0.77886 0.34159,0.9799 0.0494,1.88914 -0.79778,2.48253 -0.66941,0.46887 -1.12761,0.50503 -1.99106,0.15714 z m 12.23166,-3.99068 c 1.71177,-3.39912 2.81263,-7.17836 2.96593,-10.18199 0.075,-1.47039 0.0514,-3.35426 -0.0526,-4.18638 -0.16743,-1.34007 -0.23693,-1.47342 -0.6083,-1.16716 -0.37201,0.30679 -0.38457,0.28062 -0.11137,-0.23215 0.37829,-0.71005 0.39062,-1.6706 0.0282,-2.20021 -0.24139,-0.35277 -0.26424,-0.35277 -0.20567,0 0.10859,0.65399 -0.30497,1.88545 -0.57677,1.71746 -0.15551,-0.0961 -0.17799,0.17982 -0.0584,0.71679 0.10695,0.48017 0.19446,2.59945 0.19446,4.7095 0,3.54217 -0.059,4.00898 -0.76852,6.08542 -0.42268,1.23693 -0.9364,2.50771 -1.14159,2.82396 -0.2052,0.31624 -0.38339,0.93722 -0.39598,1.37995 -0.0126,0.44272 -0.0942,0.76089 -0.18132,0.70704 -0.0871,-0.0539 -0.15843,0.30743 -0.15843,0.80286 0,0.49542 0.0283,0.90077 0.0628,0.90077 0.0345,0 0.48792,-0.84413 1.00749,-1.87586 z m -7.5526,-28.55122 c 0.23884,-0.44629 0.19886,-0.53435 -0.25527,-0.56224 -0.75868,-0.0466 -0.89257,-0.0802 -1.26608,-0.31732 -0.18754,-0.11908 -0.33073,-0.0903 -0.33073,0.0664 0,0.1677 -0.46817,0.23249 -1.19063,0.16477 -0.65484,-0.0614 -1.19062,-0.0101 -1.19062,0.11406 0,0.12413 -0.32742,0.34364 -0.72761,0.48781 -0.70595,0.25434 -0.69965,0.26016 0.21152,0.19565 0.51652,-0.0366 1.46902,0.0191 2.11667,0.12367 1.98091,0.3199 2.33521,0.28319 2.63275,-0.27277 z"
         id="path345" /><path
         style="fill:#383135"
         d="m 112.02794,182.62865 c -0.0127,-0.10914 -0.0425,-1.03188 -0.0662,-2.05052 l -0.043,-1.85208 -1.65365,0.0282 c -1.45249,0.0247 -1.65364,-0.0324 -1.65364,-0.46963 0,-0.27379 -0.22912,-1.14967 -0.50914,-1.94639 -0.28003,-0.79673 -0.46364,-1.4486 -0.40803,-1.4486 0.0556,0 0.42735,0.55669 0.8261,1.23709 l 0.72498,1.23709 0.2039,-0.76242 c 0.13538,-0.5062 0.0884,-0.8997 -0.1399,-1.17094 -0.73276,-0.87073 -1.74846,-2.89907 -1.61972,-3.23457 0.14811,-0.38598 -1.50403,-3.67346 -2.09089,-4.16051 -0.28176,-0.23384 -0.40164,-0.20774 -0.52525,0.11437 -0.0881,0.22955 -0.0549,0.35234 0.0737,0.27286 0.30423,-0.18802 0.63518,0.67071 0.36328,0.9426 -0.11435,0.11436 -1.49409,-1.69592 -3.06608,-4.02285 -2.1028,-3.11266 -2.814276,-4.36903 -2.692116,-4.75392 0.09132,-0.28774 0.270926,-0.45833 0.399106,-0.37911 0.12819,0.0792 -0.34636,-1.07991 -1.054556,-2.57585 -1.759497,-3.71662 -2.22518,-6.00003 -2.056375,-10.08311 0.147812,-3.57528 0.590482,-5.50724 1.854946,-8.09559 0.467274,-0.95651 0.850408,-1.9177 0.851409,-2.13598 0.001,-0.21828 0.180257,-0.39974 0.398346,-0.40325 0.21809,-0.004 0.3802,-0.21059 0.36025,-0.46018 -0.02,-0.24958 0.0505,-0.40017 0.15652,-0.33464 0.10603,0.0655 0.5986,-0.30126 1.0946,-0.8151 0.496,-0.51383 1.58643,-1.35126 2.42318,-1.86094 0.83674,-0.50969 1.52135,-0.9818 1.52135,-1.04914 0,-0.15995 -0.99864,0.36588 -1.91823,1.01003 -0.40018,0.28032 -0.7276,0.42598 -0.7276,0.32368 0,-0.10229 -0.24677,0.12773 -0.54837,0.51115 -0.5856,0.74446 -1.04434,0.90751 -1.03095,0.36641 0.0238,-0.96042 4.62099,-3.4874 7.32143,-4.0244 1.32208,-0.2629 1.5532,-0.36319 0.87247,-0.37859 -2.6648,-0.0603 -6.59034,1.61195 -8.77964,3.74005 -5.25941,5.11237 -6.967592,14.36235 -4.135254,22.39281 1.087974,3.0847 1.930483,4.69269 4.250314,8.112 2.65837,3.91831 5.07256,8.30466 5.88037,10.68405 0.36652,1.07959 0.62372,2.00558 0.57156,2.05775 -0.0522,0.0522 -0.41889,-0.83114 -0.81495,-1.9629 -0.86881,-2.48273 -2.95287,-6.27763 -5.7165,-10.40926 -2.435576,-3.64119 -3.510469,-5.7049 -4.510567,-8.65996 -1.025053,-3.02879 -1.407453,-5.94421 -1.201894,-9.16323 0.22192,-3.47525 0.749948,-5.62433 2.019932,-8.22113 1.391892,-2.84607 2.702484,-4.49386 4.876239,-6.13084 4.64155,-3.49538 10.92517,-3.53201 15.56482,-0.0907 6.20179,4.59994 8.63696,14.25352 5.83596,23.13514 -0.87716,2.78137 -2.10357,5.18978 -4.34056,8.52396 -3.37407,5.02896 -5.19474,8.32464 -6.26447,11.33957 -0.5583,1.5735 -0.64888,2.26 -0.60226,4.56406 0.0302,1.49159 -0.0141,2.71198 -0.0985,2.71198 -0.0844,0 -0.16376,-0.0893 -0.17647,-0.19844 z m -0.2687,-7.69247 c 0.57996,-0.99302 1.19173,-2.392 1.35951,-3.10885 0.16777,-0.71685 0.65101,-2.05285 1.07387,-2.96889 0.9109,-1.97327 0.91561,-2.0025 0.25678,-1.59106 -0.28162,0.17589 -0.45977,0.40438 -0.39587,0.50777 0.0639,0.10339 -0.30099,1.05846 -0.81086,2.12239 -0.50988,1.06392 -0.92705,2.26519 -0.92705,2.66948 0,0.40429 -0.10461,0.73507 -0.23248,0.73507 -0.12787,0 -0.38284,0.363 -0.56662,0.80667 -0.18377,0.44367 -0.67447,1.12789 -1.09043,1.52049 -0.8889,0.83898 -0.9476,1.11242 -0.2388,1.11242 0.36003,0 0.83835,-0.54938 1.57195,-1.80549 z m -0.0924,-3.36493 c 1.38545,-2.50752 1.56731,-3.03898 0.89842,-2.62558 -0.4481,0.27694 -5.01568,0.13983 -5.59052,-0.16781 -0.67027,-0.35872 -0.60846,-0.12417 0.41618,1.5792 0.4929,0.8194 1.21661,2.12937 1.60825,2.91104 0.46658,0.93123 0.80176,1.33155 0.9722,1.16111 0.14307,-0.14307 0.90603,-1.42915 1.69547,-2.85796 z m 1.55333,-6.6328 c 2.67672,-1.49605 4.90578,-4.02846 6.73726,-7.65414 1.96563,-3.89125 2.53926,-7.86912 1.77267,-12.29264 -1.89369,-10.92729 -12.45575,-15.5233 -19.46521,-8.47017 -1.59485,1.60479 -3.460736,4.97408 -3.958085,7.14725 -0.495633,2.16568 -0.640659,6.41221 -0.285491,8.35951 1.113926,6.10736 5.919026,12.53867 10.185426,13.63254 1.34243,0.34418 3.71746,0.002 5.01343,-0.72235 z m -4.26074,-0.89863 c -1.25333,-0.50498 -1.51845,-2.29136 -0.49234,-3.31747 1.11272,-1.11272 2.77683,-0.76896 3.28118,0.6778 0.34159,0.9799 0.0494,1.88914 -0.79778,2.48253 -0.66941,0.46887 -1.12761,0.50503 -1.99106,0.15714 z m 2.2722,-1.42407 c 0.38192,-1.00757 0.3749,-1.04208 -0.33609,-1.65364 -0.94207,-0.81034 -1.5867,-0.7897 -2.26493,0.0725 -0.66246,0.84218 -0.68325,1.23229 -0.11214,2.10392 0.35348,0.53948 0.6152,0.65065 1.37967,0.58601 0.82541,-0.0698 0.99223,-0.20851 1.33349,-1.10882 z m 9.95946,-2.56661 c 0.51957,-1.03172 1.38312,-3.14508 1.91901,-4.69635 0.9667,-2.79839 0.97427,-2.85368 0.96656,-7.05383 -0.009,-4.90757 -0.32445,-6.46635 -2.00045,-9.88555 -0.77428,-1.57961 -1.58763,-2.72472 -2.84292,-4.00252 -1.77899,-1.81092 -3.92763,-3.10169 -4.68153,-2.81239 -0.23781,0.0913 -0.34285,0.0467 -0.24878,-0.10548 0.17846,-0.28876 -0.17808,-0.4647 -1.19366,-0.589 -0.3638,-0.0445 -0.81028,-0.17427 -0.99218,-0.28831 -0.18585,-0.11652 -0.33073,-0.0863 -0.33073,0.069 0,0.1677 -0.46817,0.23249 -1.19063,0.16477 -0.65484,-0.0614 -1.19062,-0.0101 -1.19062,0.11406 0,0.12413 -0.32742,0.34114 -0.72761,0.48226 -0.68383,0.24115 -0.66394,0.2548 0.33073,0.22696 1.6507,-0.0462 4.89479,0.38177 4.89479,0.64574 0,0.13075 0.15819,0.23773 0.35152,0.23773 0.39191,0 2.61224,1.3799 3.58614,2.22872 0.58882,0.5132 2.94151,3.9384 2.94151,4.28244 0,0.0857 0.17057,0.53093 0.37904,0.98948 1.92142,4.22642 2.29323,10.99708 0.83763,15.25353 -0.37323,1.09141 -0.86723,2.31399 -1.09776,2.71685 -0.23054,0.40286 -0.42914,1.08337 -0.44133,1.51224 -0.0122,0.42888 -0.0935,0.73571 -0.18061,0.68186 -0.0871,-0.0539 -0.15843,0.30743 -0.15843,0.80286 0,0.49542 0.0283,0.90077 0.0628,0.90077 0.0345,0 0.48792,-0.84413 1.00749,-1.87586 z"
         id="path344" /></g></g></svg>
