<?xml version="1.0" encoding="UTF-8" standalone="no"?>
<!-- Created with Inkscape (http://www.inkscape.org/) -->

<svg
   width="53.862602mm"
   height="65.61702mm"
   viewBox="0 0 53.862602 65.61702"
   version="1.1"
   id="svg1"
   inkscape:export-filename="the-warrior.svg"
   inkscape:export-xdpi="96"
   inkscape:export-ydpi="96"
   xml:space="preserve"
   xmlns:inkscape="http://www.inkscape.org/namespaces/inkscape"
   xmlns:sodipodi="http://sodipodi.sourceforge.net/DTD/sodipodi-0.dtd"
   xmlns="http://www.w3.org/2000/svg"
   xmlns:svg="http://www.w3.org/2000/svg"><sodipodi:namedview
     id="namedview1"
     pagecolor="#ffffff"
     bordercolor="#000000"
     borderopacity="0.25"
     inkscape:showpageshadow="2"
     inkscape:pageopacity="0.0"
     inkscape:pagecheckerboard="0"
     inkscape:deskcolor="#d1d1d1"
     inkscape:document-units="mm"><inkscape:page
       x="0"
       y="0"
       width="53.862602"
       height="65.61702"
       id="page2"
       margin="0"
       bleed="0" /></sodipodi:namedview><defs
     id="defs1" /><g
     inkscape:label="Calque 1"
     inkscape:groupmode="layer"
     id="layer1"
     transform="translate(-112.24332,-115.20115)"><g
       id="g437"
       transform="translate(-6.666974,-2.0092251)"><path
         style="fill:#d2e7f4"
         d="m 118.93021,150.01875 v -32.80833 h 26.8552 26.85521 v 32.80833 32.80834 h -26.85521 -26.8552 z"
         id="path445" /><path
         style="fill:#c4daeb"
         d="m 128.98437,182.63715 c 2.00145,-0.74719 6.37915,-2.49722 7.01146,-2.8029 0.43656,-0.21105 2.01414,-0.95337 3.50573,-1.64959 1.49159,-0.69621 2.71198,-1.36524 2.71198,-1.48671 0,-0.12147 0.17859,-0.22086 0.39687,-0.22086 0.57568,0 0.48694,-0.60664 -0.20686,-1.41406 -0.41667,-0.48492 -0.88804,-0.71489 -1.52135,-0.74225 -0.80028,-0.0346 -0.82458,-0.0537 -0.19002,-0.14987 0.89322,-0.13531 0.9342,-0.66791 0.10178,-1.32269 -0.3442,-0.27075 -0.70635,-0.78541 -0.80478,-1.14368 -0.1725,-0.62788 -0.16662,-0.63131 0.1628,-0.0949 0.18797,0.30608 0.4906,0.50452 0.6725,0.44097 0.1819,-0.0635 0.33073,-0.003 0.33073,0.13539 0,0.29917 2.8319,1.26406 4.46263,1.5205 1.29612,0.20383 5.00795,0.21909 6.31614,0.026 2.93948,-0.43396 5.7218,-1.89392 6.82104,-3.5792 0.34161,-0.52372 0.80383,-1.6666 1.02716,-2.53972 0.82115,-3.21032 2.61055,-7.68546 5.00077,-12.50655 1.35877,-2.74062 7.63643,-14.96165 7.76698,-15.12037 0.0499,-0.0606 0.0907,9.55367 0.0907,21.36511 v 21.47535 h -13.00428 -13.00428 l 1.09803,-0.79541 c 1.4845,-1.07537 1.40401,-1.50986 -0.0926,-0.49981 -0.65485,0.44195 -1.19063,0.91417 -1.19063,1.04938 0,0.14695 -3.59188,0.23744 -8.92969,0.22495 -4.91132,-0.0115 -8.75109,-0.0876 -8.53281,-0.16905 z m 16.27188,-9.50984 c -1.23923,-0.26555 -2.98397,-1.03003 -3.96875,-1.73896 -1.4165,-1.01971 -2.93264,-3.32026 -3.31543,-5.03071 -0.5247,-2.3446 -0.0898,-3.34137 2.62143,-6.00774 1.26465,-1.24375 3.24785,-3.45198 4.4071,-4.90719 1.15925,-1.45521 2.25836,-2.80497 2.44246,-2.99946 0.18411,-0.1945 0.65968,-0.78981 1.05683,-1.32292 0.39715,-0.53311 0.78962,-1.02882 0.87215,-1.10158 0.2363,-0.20831 4.30042,-5.3086 5.16189,-6.47792 0.72359,-0.98218 1.6884,-2.23232 5.61874,-7.28041 0.84974,-1.09141 2.01286,-2.6017 2.5847,-3.3562 1.34205,-1.77074 3.87361,-2.9508 8.1383,-3.79357 1.66645,-0.32932 2.02885,-0.23389 1.50567,0.3965 -0.198,0.23858 -0.22288,0.40327 -0.0609,0.40327 0.17625,0 0.28354,1.53135 0.30125,4.29948 l 0.0275,4.29948 -1.0136,1.98437 c -0.55747,1.09141 -2.51351,4.90141 -4.34675,8.46667 -4.72365,9.18653 -6.99597,14.45019 -8.02911,18.59887 -0.74676,2.9987 -2.97394,4.79509 -6.74907,5.44363 -1.6655,0.28612 -6.14149,0.36287 -7.25437,0.12439 z m -2.35126,-12.15278 c 1.3371,-0.78693 2.50627,-1.43078 2.59815,-1.43078 0.59238,0 4.35955,-1.67648 4.23177,-1.88324 -0.0867,-0.14022 -0.35591,-0.19485 -0.59833,-0.12139 -0.24241,0.0735 -0.85747,0.19941 -1.36679,0.2799 -0.50932,0.0805 -1.26395,0.21559 -1.67695,0.30022 -0.69611,0.14265 -0.72921,0.11336 -0.45371,-0.40143 0.16346,-0.30542 0.40404,-0.55531 0.53464,-0.55531 0.13059,0 0.30689,-0.21879 0.39176,-0.48621 0.20133,-0.63435 1.7145,-2.3102 2.01256,-2.22894 0.12704,0.0346 0.163,-0.11419 0.0799,-0.33073 -0.0831,-0.21653 -0.0332,-0.3937 0.11096,-0.3937 0.14411,0 0.32743,-0.2501 0.40737,-0.55579 0.0799,-0.30568 0.27105,-0.47809 0.4247,-0.38313 0.1699,0.105 0.21762,0.0118 0.1218,-0.23796 -0.0867,-0.22584 -0.0258,-0.41062 0.13532,-0.41062 0.16109,0 0.29289,-0.17246 0.29289,-0.38324 0,-0.21079 0.31245,-0.7168 0.69434,-1.12448 0.70891,-0.75679 1.81453,-2.31345 2.42291,-3.41134 0.18652,-0.3366 0.64906,-0.85579 1.02787,-1.15376 0.37881,-0.29797 0.6064,-0.54176 0.50577,-0.54176 -0.10064,0 0.005,-0.26789 0.23399,-0.59532 0.22934,-0.32742 0.55364,-0.59531 0.72068,-0.59531 0.16704,0 0.32208,-0.24942 0.34454,-0.55427 0.0465,-0.63095 1.10389,-2.22385 1.47625,-2.22385 0.13561,0 0.24657,-0.17268 0.24657,-0.38373 0,-0.21105 0.16246,-0.47894 0.36102,-0.59531 0.19857,-0.11638 0.57227,-0.62831 0.83044,-1.13763 0.55263,-1.0902 1.86557,-2.65649 2.09091,-2.49437 0.0865,0.0622 0.10243,0.0385 0.0355,-0.0527 -0.1792,-0.24411 0.51235,-1.47884 1.15298,-2.0586 0.30594,-0.27688 0.55626,-0.66355 0.55626,-0.85928 0,-0.19572 0.10632,-0.35586 0.23627,-0.35586 0.12996,0 0.30481,-0.1786 0.38858,-0.39688 0.0838,-0.21828 0.10492,-0.39687 0.047,-0.39687 -0.0579,0 -1.39361,1.67809 -2.96825,3.7291 -1.57464,2.05101 -4.27247,5.53359 -5.99517,7.73907 -1.7227,2.20547 -3.59114,4.60526 -4.15208,5.33287 -0.56094,0.7276 -1.75279,2.21588 -2.64855,3.30729 -0.89577,1.09141 -2.10408,2.57969 -2.68515,3.30729 -0.58107,0.72761 -2.29575,2.60105 -3.81041,4.16321 -1.51465,1.56217 -2.75392,3.01095 -2.75392,3.21951 0,0.20857 -0.0796,0.58666 -0.1769,0.84021 -0.0973,0.25355 0.34472,-0.10489 0.98226,-0.79654 0.63753,-0.69165 2.25315,-1.90139 3.59026,-2.68832 z m -16.5003,8.93572 c -0.32743,-0.0465 -0.59532,-0.21579 -0.59532,-0.3762 0,-0.48472 3.27048,-3.6403 3.77285,-3.6403 0.25722,0 0.67441,-0.1014 0.9271,-0.22534 0.25268,-0.12394 1.05263,-0.5109 1.77765,-0.8599 0.72502,-0.349 1.48763,-0.79335 1.6947,-0.98744 0.56932,-0.53364 1.62701,-0.87031 2.1814,-0.69435 0.27186,0.0863 0.49422,0.0298 0.49422,-0.12555 0,-0.15533 0.19348,-0.28242 0.42995,-0.28242 0.63997,0 0.26489,1.57434 -0.54508,2.28789 -0.35467,0.31246 -0.56315,0.6498 -0.4633,0.74966 0.0999,0.0999 0.0625,0.14756 -0.083,0.10602 -0.14552,-0.0415 -0.74083,0.17328 -1.32292,0.47739 -0.58208,0.30411 -1.91097,0.80632 -2.95309,1.11603 -1.22978,0.36548 -2.20478,0.8544 -2.77812,1.39311 -0.48585,0.45649 -0.86353,0.90108 -0.83927,0.98797 0.0481,0.17227 -0.75672,0.20707 -1.69774,0.0734 z m 7.0776,-12.72749 c 0.3638,-0.12637 1.73302,-0.37099 3.04271,-0.54359 1.30968,-0.17261 2.97656,-0.45073 3.70416,-0.61804 l 1.32292,-0.30419 -2.18281,-0.23972 c -1.20055,-0.13184 -2.18281,-0.34237 -2.18281,-0.46784 0,-0.45504 -1.43603,-0.2141 -2.02572,0.33987 -0.50029,0.47 -0.67442,0.51006 -1.00924,0.23219 -0.49536,-0.41111 -0.52447,-0.80019 -0.0599,-0.80019 0.21796,0 0.35311,-0.36492 0.36748,-0.99218 0.0352,-1.53639 0.63654,-3.29039 1.35705,-3.95813 0.3596,-0.33327 0.74161,-0.60594 0.84891,-0.60594 0.10729,0 0.2608,-0.25128 0.34111,-0.55841 0.10527,-0.40254 0.004,-0.59558 -0.36304,-0.69154 -0.27998,-0.0732 -0.44385,-0.23865 -0.36414,-0.36763 0.0797,-0.12897 0.0288,-0.2345 -0.11321,-0.2345 -0.14199,0 -0.30048,0.12698 -0.35222,0.28219 -0.0517,0.1552 -0.74626,0.51329 -1.5434,0.79574 l -1.44934,0.51356 1.32292,-0.14936 c 0.7276,-0.0821 1.53127,-0.21013 1.78593,-0.28441 0.75469,-0.22012 0.52989,0.38724 -0.46743,1.2629 -0.51175,0.44932 -0.90733,0.9517 -0.87905,1.11639 0.0283,0.1647 -0.14843,0.71617 -0.39265,1.22549 l -0.44406,0.92604 0.1423,-1.05833 c 0.0875,-0.65115 0.0527,-0.92544 -0.0907,-0.71291 -0.15837,0.23483 -0.89484,0.34543 -2.30023,0.34543 -2.19958,0 -2.69234,-0.25926 -2.20906,-1.16228 0.14716,-0.27497 0.21441,-0.55309 0.14945,-0.61805 -0.065,-0.065 -0.27281,0.27265 -0.46189,0.75026 -0.18907,0.47761 -0.52292,1.07863 -0.74189,1.33561 -0.35785,0.41998 -0.34676,0.50608 0.10972,0.85148 0.44017,0.33305 0.44908,0.38538 0.0669,0.39267 -0.24254,0.005 -0.51043,-0.14041 -0.59531,-0.32232 -0.12348,-0.26458 -0.18521,-0.26458 -0.30868,0 -0.22508,0.48231 -2.35078,0.42222 -2.76607,-0.0782 -0.18666,-0.22491 -0.4912,-0.35066 -0.67676,-0.27945 -0.18557,0.0712 -0.3807,-4.6e-4 -0.43364,-0.15926 -0.0616,-0.18492 -0.92385,-0.26882 -2.39834,-0.23336 l -2.3021,0.0554 v -17.47886 -17.47886 h 26.8552 26.85521 v 5.55625 c 0,5.36884 -0.0179,5.55736 -0.52917,5.58932 -0.29104,0.0182 -0.61846,0.0551 -0.7276,0.0821 -0.10914,0.027 -0.84853,0.14576 -1.64309,0.26398 -0.79456,0.11822 -1.62799,0.30885 -1.85208,0.4236 -0.90948,0.46576 -3.07621,1.15681 -3.41055,1.08774 -0.22398,-0.0463 -0.28182,0.0483 -0.15503,0.25343 0.14225,0.23017 0.0676,0.27556 -0.25178,0.15302 -0.24971,-0.0958 -0.39203,-0.0739 -0.31628,0.0486 0.0758,0.12258 -0.15618,0.35678 -0.51542,0.52046 -0.35924,0.16368 -0.65317,0.46417 -0.65317,0.66775 0,0.44455 -0.69431,1.07386 -0.85694,0.77672 -0.0631,-0.11521 -0.0857,-0.0796 -0.0502,0.0791 0.0952,0.42622 -0.56263,1.37404 -2.46628,3.55355 -0.47295,0.54148 -0.8599,1.06778 -0.8599,1.16955 0,0.2233 -2.16545,2.88878 -2.44904,3.01457 -0.11005,0.0488 -0.13363,0.19627 -0.0524,0.32769 0.0812,0.13143 -0.0371,0.16805 -0.26293,0.0814 -0.26377,-0.10122 -0.41062,-0.009 -0.41062,0.2583 0,0.22874 -0.24736,0.54826 -0.54969,0.71006 -0.30232,0.1618 -0.48844,0.45379 -0.41358,0.64887 0.0749,0.19508 -0.0412,0.42271 -0.2578,0.50585 -0.2513,0.0964 -0.32624,0.0417 -0.207,-0.15128 0.11563,-0.18708 0.0696,-0.2299 -0.12079,-0.11226 -0.18509,0.11439 -0.40555,-0.0538 -0.55327,-0.42214 -0.13507,-0.33677 -0.25312,-0.4593 -0.26235,-0.27227 -0.009,0.18702 0.17209,0.62827 0.40291,0.98055 0.39662,0.60532 0.30761,1.34662 -0.12928,1.07661 -0.11121,-0.0687 -0.2022,0.0277 -0.2022,0.21437 0,0.35999 -0.85728,1.49272 -5.50388,7.27237 -3.44926,4.29035 -4.48665,5.3756 -4.81996,5.04229 -0.14789,-0.14789 -0.85535,-0.13005 -1.80511,0.0455 -0.85904,0.1588 -2.16247,0.32703 -2.89651,0.37383 -0.73404,0.0468 -2.16805,0.15203 -3.1867,0.23383 -1.19964,0.0963 -1.61907,0.0678 -1.19062,-0.081 z"
         id="path444" /><path
         style="fill:#b4cfe1"
         d="m 147.95193,182.08954 c 1.39521,-0.92571 3.07491,-2.4436 2.89889,-2.61962 -0.0734,-0.0734 -0.64781,0.20912 -1.2765,0.62777 -0.62869,0.41866 -1.48246,0.93291 -1.89727,1.14278 -0.68255,0.34534 -0.78748,0.33607 -1.1045,-0.0975 -0.20186,-0.27605 -0.55499,-0.42504 -0.8333,-0.35157 -0.42575,0.11238 -0.41244,0.15016 0.11231,0.31869 0.32742,0.10516 0.59531,0.40284 0.59531,0.66151 0,0.70861 -1.20657,0.53197 -2.20522,-0.32284 l -0.83749,-0.71685 0.79375,-0.0196 0.79375,-0.0195 -0.62462,-0.52037 c -0.34354,-0.2862 -0.49237,-0.52036 -0.33073,-0.52036 0.16164,0 0.0558,-0.23813 -0.23527,-0.52917 -0.37441,-0.37441 -0.88195,-0.52917 -1.73541,-0.52917 -0.8146,0 -1.14746,-0.0951 -1.0252,-0.29293 0.12282,-0.19872 -0.0211,-0.2372 -0.4474,-0.11965 -0.57181,0.15765 -0.58288,0.14495 -0.12278,-0.14096 0.39133,-0.24318 0.62149,-0.24189 1.01795,0.006 0.28176,0.17596 0.58999,0.23584 0.68496,0.13308 0.095,-0.10277 0.0238,-0.24 -0.15806,-0.30497 -0.62164,-0.22201 -0.33213,-0.53007 0.3717,-0.39552 0.59811,0.11433 0.68209,0.0565 0.56543,-0.38964 -0.0971,-0.37116 0.0836,-0.67171 0.61972,-1.03086 0.41621,-0.27883 0.75708,-0.57058 0.75749,-0.64835 4.2e-4,-0.0778 -0.35455,-0.35128 -0.78882,-0.60781 -0.43427,-0.25653 -0.76169,-0.56411 -0.7276,-0.68351 0.0341,-0.11941 -0.23568,-0.48002 -0.59948,-0.80136 l -0.66146,-0.58425 0.66146,0.17663 c 0.3638,0.0971 1.25677,0.34834 1.98437,0.55821 1.20691,0.34811 6.27758,0.53609 7.67292,0.28444 2.63649,-0.47548 3.59462,-0.82186 5.11787,-1.85016 1.16533,-0.78669 2.68734,-2.84423 2.68734,-3.63291 0,-1.73762 3.66303,-10.38484 7.7127,-18.20721 1.45684,-2.81402 3.1769,-6.17754 3.82236,-7.47448 0.64546,-1.29694 1.23116,-2.35807 1.30154,-2.35807 0.0704,0 0.12798,9.58453 0.12798,21.29896 v 21.29896 h -6.23572 -6.23573 l 0.54718,-0.76845 c 0.30096,-0.42265 0.54719,-0.83202 0.54719,-0.90971 0,-0.0777 0.35719,-0.53234 0.79375,-1.01031 0.43656,-0.47798 0.78996,-0.99134 0.78533,-1.14081 -0.005,-0.14947 -0.185,-0.0336 -0.40084,0.2574 -0.21583,0.29104 -1.01543,1.21378 -1.77688,2.05052 l -1.38446,1.52136 -6.21835,-0.001 -6.21834,-0.001 z m -3.35714,-9.14671 c -2.0005,-0.59946 -2.47029,-0.85729 -3.89322,-2.13662 -2.21064,-1.98756 -3.31447,-4.8265 -2.72614,-7.01139 0.24015,-0.89185 0.8193,-1.62678 2.79584,-3.54786 1.37112,-1.33265 3.23881,-3.38663 4.15042,-4.5644 0.91161,-1.17777 3.0363,-3.85668 4.72153,-5.95313 3.07189,-3.82146 10.33163,-13.14026 12.81094,-16.44448 1.38421,-1.84474 2.40205,-2.47923 5.55625,-3.46361 1.63801,-0.51119 4.40869,-1.01439 4.58955,-0.83353 0.0739,0.0739 -0.0951,0.31178 -0.37553,0.52866 -0.48037,0.37153 -0.48307,0.41039 -0.0468,0.67187 0.40874,0.24501 0.46263,0.74898 0.45966,4.29929 l -0.003,4.02175 -1.0178,1.98437 c -4.21133,8.21071 -8.52743,16.81893 -9.15355,18.25625 -1.63634,3.75637 -2.5195,6.10396 -3.03106,8.05704 -0.2946,1.12476 -0.78756,2.45264 -1.09546,2.95083 -0.72261,1.16921 -2.39765,2.3124 -4.22367,2.8826 -1.95123,0.60931 -7.86617,0.79722 -9.51757,0.30236 z m -2.0437,-11.72789 c 1.1968,-0.71365 2.9499,-1.58269 3.89578,-1.9312 2.75949,-1.01673 3.77552,-1.51674 3.46811,-1.70674 -0.3761,-0.23244 -3.43876,0.11772 -3.62194,0.4141 -0.0781,0.12635 -0.31774,0.22974 -0.53255,0.22974 -0.57217,0 0.001,-0.97323 0.70524,-1.19661 0.30811,-0.0978 0.49002,-0.32671 0.415,-0.52223 -0.15992,-0.41674 0.54965,-1.09896 1.2829,-1.23345 0.28937,-0.0531 0.55516,-0.33326 0.59064,-0.62263 0.0355,-0.28937 -0.003,-0.3773 -0.0851,-0.1954 -0.0823,0.18191 -0.27957,0.33073 -0.43833,0.33073 -0.15876,0 -0.0298,-0.27556 0.28663,-0.61236 0.31641,-0.3368 0.57529,-0.74649 0.57529,-0.91043 0,-0.16393 0.10795,-0.36478 0.2399,-0.44633 0.13195,-0.0815 0.17627,0.0951 0.0985,0.39253 -0.0778,0.29744 -0.0369,0.51214 0.0908,0.47711 0.49555,-0.1359 1.42287,0.36237 1.42287,0.76454 0,0.23272 0.0738,0.34931 0.16407,0.25907 0.26957,-0.26957 -0.1561,-1.54779 -0.45411,-1.3636 -0.15098,0.0933 -0.24778,0.009 -0.21509,-0.18762 0.0327,-0.19651 -0.0347,-0.57367 -0.14976,-0.83815 -0.31029,-0.71333 0.34499,-1.71745 1.36042,-2.08464 0.48508,-0.1754 0.89578,-0.50336 0.91266,-0.72879 0.0235,-0.31439 0.0589,-0.30201 0.15169,0.0532 0.0665,0.25466 0.32063,0.4612 0.56462,0.45897 0.38312,-0.004 0.38949,-0.039 0.0468,-0.26053 -0.34326,-0.22183 -0.3373,-0.25703 0.0441,-0.26053 0.24253,-0.002 0.49091,-0.0933 0.55194,-0.20249 0.061,-0.10914 0.0747,-0.0496 0.0304,0.13229 -0.0444,0.1819 0.0347,0.33073 0.17565,0.33073 0.14096,0 0.25628,-0.18562 0.25628,-0.41249 0,-0.25511 0.12619,-0.33987 0.33073,-0.22216 0.19215,0.11057 0.23835,0.0894 0.11024,-0.0505 -0.12126,-0.13247 -0.35939,-0.24626 -0.52916,-0.25288 -0.16978,-0.007 -0.27719,-0.18521 -0.23871,-0.39687 0.055,-0.30237 -0.002,-0.29318 -0.26795,0.0429 -0.30569,0.38693 -0.37467,0.38844 -0.72277,0.0158 -0.3395,-0.36343 -0.3313,-0.39143 0.0695,-0.23762 0.29466,0.11308 0.45435,0.0455 0.45435,-0.19217 0,-0.20158 0.14883,-0.42657 0.33073,-0.49997 0.1819,-0.0734 0.0926,-0.14468 -0.19844,-0.15839 -0.39419,-0.0186 -0.43904,-0.0821 -0.17584,-0.24891 0.19433,-0.12318 0.3134,-0.32515 0.26459,-0.44882 -0.0488,-0.12368 0.26844,-0.40802 0.705,-0.63188 0.43657,-0.22386 0.83121,-0.48963 0.87699,-0.5906 0.0458,-0.10096 0.25414,-0.11799 0.46302,-0.0378 0.20888,0.0801 0.37979,0.007 0.37979,-0.16277 0,-0.16968 -0.11907,-0.23493 -0.26459,-0.14499 -0.14552,0.0899 -0.2664,-0.0519 -0.26863,-0.31511 -0.003,-0.40582 -0.0431,-0.41826 -0.26053,-0.0818 -0.14107,0.21828 -0.25831,0.26262 -0.26054,0.0985 -0.002,-0.16408 0.1974,-0.46174 0.44362,-0.66146 0.24621,-0.19972 0.37137,-0.23554 0.27813,-0.0796 -0.0932,0.15594 0.0625,0.4822 0.34609,0.72501 0.28359,0.24282 0.51561,0.31985 0.51561,0.17119 0,-0.14867 -0.16719,-0.33446 -0.37154,-0.41287 -0.20434,-0.0784 -0.34128,-0.41815 -0.30431,-0.75495 0.0814,-0.74173 1.16045,-2.31965 1.45975,-2.13467 0.11785,0.0728 0.27619,-0.10436 0.35188,-0.39376 0.0757,-0.28941 0.29757,-0.52437 0.4931,-0.52214 0.27415,0.003 0.26643,0.0604 -0.0337,0.25019 -0.54463,0.34444 -0.27109,0.51797 0.56366,0.35759 0.41015,-0.0788 0.76146,-0.3564 0.84231,-0.66558 0.11437,-0.43733 0.0321,-0.51001 -0.469,-0.41422 -0.48404,0.0925 -0.58202,0.018 -0.4815,-0.36641 0.0694,-0.26543 0.23173,-0.41737 0.3607,-0.33766 0.12898,0.0797 0.2345,-0.15272 0.2345,-0.51653 0,-0.59669 0.36899,-1.07474 0.83785,-1.08551 0.097,-0.002 0.27561,-0.11243 0.39688,-0.24491 0.13053,-0.14259 0.0689,-0.15289 -0.15113,-0.0253 -0.25095,0.14559 -0.30989,0.11573 -0.18152,-0.092 0.10455,-0.16916 0.48959,-0.25326 0.85565,-0.18688 0.58819,0.10666 0.62467,0.0704 0.31381,-0.31202 -0.30849,-0.37949 -0.28667,-0.40841 0.17742,-0.2352 0.40378,0.15071 0.45626,0.12402 0.22149,-0.11261 -0.36358,-0.36648 -0.97161,-0.0787 -0.71409,0.33793 0.10541,0.17057 0.0545,0.21115 -0.12549,0.0999 -0.21147,-0.13069 -0.12393,-0.4427 0.28985,-1.03306 1.01114,-1.44266 1.78345,-2.35241 1.78345,-2.10084 0,0.13243 0.17336,0.24078 0.38524,0.24078 0.21188,0 0.31141,-0.11945 0.22118,-0.26545 -0.0967,-0.1565 0.0111,-0.19823 0.26275,-0.10167 0.29389,0.11278 0.38278,0.0491 0.28545,-0.20456 -0.0777,-0.20258 -0.33956,-0.40874 -0.58183,-0.45813 -0.35917,-0.0732 -0.30002,-0.22162 0.32039,-0.80385 0.41849,-0.39274 0.86498,-0.64974 0.99219,-0.57111 0.12721,0.0786 0.2313,0.0169 0.2313,-0.13725 0,-1.08408 -1.28062,0.307 -6.28821,6.83063 -8.72555,11.36719 -14.55245,18.54878 -17.41529,21.46417 -2.39852,2.44254 -3.284,3.65838 -3.284,4.50923 0,0.1328 0.47932,-0.27855 1.06516,-0.91411 0.58583,-0.63556 2.04435,-1.73946 3.24114,-2.4531 z m -16.74172,8.39755 c 0,-0.26701 1.96739,-2.18523 2.96893,-2.89473 0.41944,-0.29714 1.17906,-0.42713 2.49591,-0.42713 1.04113,0 1.75551,-0.0875 1.5875,-0.19439 -0.18234,-0.11603 -0.0655,-0.19602 0.28985,-0.19843 0.32742,-0.002 0.59531,-0.13015 0.59531,-0.28425 0,-0.15411 0.11906,-0.20662 0.26459,-0.11668 0.37046,0.22896 0.33102,-0.2246 -0.0529,-0.60854 -0.24695,-0.24695 -0.18186,-0.3175 0.29289,-0.3175 0.43387,0 0.56635,0.11477 0.4581,0.39687 -0.0838,0.21828 -0.0383,0.39688 0.10096,0.39688 0.39755,0 1.30531,-0.86422 1.15805,-1.1025 -0.0729,-0.1179 0.0319,-0.15128 0.23283,-0.0742 0.21122,0.0811 0.48847,-0.11553 0.65729,-0.46605 0.2878,-0.59755 0.29224,-0.5981 0.30989,-0.0383 0.0368,1.16648 -3.30992,3.32525 -5.71394,3.68576 -0.60789,0.0912 -1.32309,0.36212 -1.58931,0.60215 -1.69473,1.52793 -2.29966,1.89106 -3.15019,1.89106 -0.49815,0 -0.90574,-0.1125 -0.90574,-0.25001 z m 14.68438,-13.37034 c 0.58208,-0.19904 1.26669,-0.37105 1.52135,-0.38223 0.25466,-0.0112 0.46302,-0.1394 0.46302,-0.28492 0,-0.14552 0.0893,-0.25048 0.19844,-0.23325 0.55308,0.0873 0.8599,-0.073 0.8599,-0.44923 0,-0.32598 -0.17328,-0.37984 -0.78781,-0.24486 -0.90441,0.19864 -1.93839,-0.0515 -1.71396,-0.41462 0.0835,-0.13505 0.37228,-0.24554 0.64182,-0.24554 0.26954,0 1.16081,-0.65484 1.98059,-1.45521 0.81979,-0.80036 1.54062,-1.4552 1.60186,-1.4552 0.0612,0 0.45899,-0.32743 0.88391,-0.72761 0.42492,-0.40018 1.63159,-1.50151 2.68149,-2.44739 1.04991,-0.94589 2.27182,-2.04722 2.71537,-2.4474 1.64564,-1.48474 1.28709,-0.57679 -0.51677,1.30858 -0.32081,0.33531 -0.4994,0.61147 -0.39687,0.6137 0.10252,0.002 0.0673,0.0915 -0.0782,0.19844 -0.38663,0.28406 -2.26628,2.63006 -3.10772,3.87878 -0.39956,0.59296 -0.72898,0.95904 -0.73206,0.81352 -0.003,-0.14552 -0.2534,0.12237 -0.55628,0.59531 -0.30288,0.47295 -0.66509,0.8599 -0.80491,0.8599 -0.13982,0 -0.19229,0.1002 -0.1166,0.22266 0.19754,0.31963 -1.41838,1.75882 -2.35534,2.09775 -0.43657,0.15792 -1.38907,0.34868 -2.11667,0.42392 l -1.32292,0.13679 z m -5.84239,-2.05799 c -0.19855,-0.62555 0.0804,-2.19954 0.54901,-3.09793 0.32566,-0.62433 3.81921,-4.09543 5.57697,-5.54114 0.42611,-0.35046 1.25522,-1.06483 1.84248,-1.5875 2.69682,-2.40021 7.49403,-6.10967 7.90124,-6.10967 0.19741,0 0.49599,0.16514 0.6635,0.36697 0.24113,0.29055 0.12389,0.51984 -0.56292,1.10094 -0.47711,0.40367 -0.83771,0.83385 -0.80133,0.95594 0.0364,0.12209 -0.0658,0.22198 -0.22704,0.22198 -0.16125,0 -0.86066,0.56555 -1.55425,1.25677 -0.69358,0.69123 -2.07969,2.0091 -3.08025,2.92861 -2.37707,2.18453 -7.7649,7.50457 -7.79856,7.70044 -0.17325,1.00819 -0.0971,1.7858 0.19623,2.003 0.25766,0.1908 -0.0522,0.27241 -1.09218,0.28762 -1.20938,0.0177 -1.4788,-0.0635 -1.6129,-0.48603 z m -9.45082,-1.46142 c -0.24723,-0.27318 -0.4495,-0.72328 -0.4495,-1.00022 0,-0.27694 0.9525,-2.37494 2.11667,-4.66221 1.16416,-2.28727 2.11666,-4.26518 2.11666,-4.39535 0,-0.13016 -0.77246,-1.53514 -1.71658,-3.12217 -1.95425,-3.285 -1.95927,-3.36247 -0.33394,-5.15342 0.25466,-0.28061 0.46302,-0.88948 0.46302,-1.35304 0,-0.50836 0.23479,-1.09277 0.59164,-1.47261 l 0.59163,-0.62977 -1.45153,0.17103 c -0.79834,0.0941 -1.60486,0.21896 -1.79227,0.27753 -0.60423,0.18883 -0.65068,-0.63713 -0.0808,-1.4374 0.30463,-0.42781 0.55387,-0.90829 0.55387,-1.06772 0,-0.15944 0.10141,-0.28989 0.22534,-0.28989 0.32073,0 1.89133,-1.53992 1.89133,-1.85438 0,-0.14426 0.1014,-0.26228 0.22534,-0.26228 0.39204,0 1.89133,-1.57488 1.89133,-1.98668 0,-0.21702 0.15733,-0.39457 0.34962,-0.39457 0.19229,0 1.01354,-0.62508 1.82498,-1.38907 0.81145,-0.76398 2.17044,-1.98437 3.01999,-2.71198 0.84954,-0.7276 1.88292,-1.65033 2.29641,-2.05052 l 0.75178,-0.7276 9.17392,0.001 9.17392,10e-4 -3.65175,1.84043 c -4.56863,2.30252 -6.89321,3.53409 -7.06387,3.74247 -0.0728,0.0888 -0.54901,0.37142 -1.05834,0.62798 -0.50932,0.25655 -1.49186,0.86848 -2.18342,1.35983 -0.69156,0.49136 -1.34641,0.89463 -1.45521,0.89616 -0.21389,0.003 -3.07876,2.05581 -3.83585,2.74855 -0.25466,0.23302 -0.57533,0.42367 -0.7126,0.42367 -0.13727,0 -0.40516,0.20938 -0.59531,0.46529 -0.19015,0.25592 -0.70292,0.58621 -1.13948,0.73398 -1.03192,0.34929 -1.03348,1.00832 -0.003,1.19044 0.43812,0.0774 0.76681,0.28578 0.73043,0.46302 -0.0364,0.17725 0.0387,0.32227 0.16689,0.32227 0.12817,0 0.56436,0.65484 0.96931,1.4552 0.40495,0.80037 0.83586,1.45521 0.95759,1.45521 0.12172,0 0.2051,0.50602 0.18528,1.12448 -0.0198,0.61847 -0.0876,0.85659 -0.15069,0.52917 -0.20867,-1.08339 -0.60702,-0.6176 -0.60702,0.70977 0,1.1133 -0.0858,1.33231 -0.58361,1.49032 -0.35343,0.11217 -0.62301,0.067 -0.68351,-0.11446 -0.0549,-0.16483 -0.27355,-0.29969 -0.48579,-0.29969 -0.21224,0 -0.63913,-0.23593 -0.94864,-0.52429 -0.56133,-0.52296 -0.56373,-0.5229 -0.9456,0.0223 -0.2817,0.40218 -0.30486,0.62457 -0.0876,0.84178 0.16236,0.16236 0.2952,0.62858 0.2952,1.03604 0,0.40746 0.11906,0.74083 0.26459,0.74083 0.14552,0 0.26458,0.29063 0.26458,0.64585 0,0.35521 0.11906,0.71942 0.26458,0.80936 0.14552,0.0899 0.26459,0.27556 0.26459,0.41249 0,0.3693 -0.72831,0.30187 -0.88311,-0.0818 -0.0734,-0.1819 -0.14285,0.0562 -0.15434,0.52917 -0.0235,0.96784 0.34703,1.12641 0.77286,0.33073 0.23413,-0.43747 0.55399,-0.52917 1.84578,-0.52917 0.85942,0 1.63616,-0.11906 1.7261,-0.26458 0.0899,-0.14552 0.50808,-0.26459 0.9292,-0.26459 0.42113,0 1.06136,-0.13471 1.42273,-0.29936 0.36136,-0.16465 0.85696,-0.22265 1.10132,-0.12888 0.37484,0.14384 0.28442,0.34793 -0.57844,1.30553 -1.78077,1.9763 -3.0071,3.46147 -3.0071,3.6418 0,0.0959 -1.24895,0.4378 -2.77543,0.75969 -2.47538,0.52198 -2.81862,0.54205 -3.175,0.18568 -0.21977,-0.21977 -0.39957,-0.59518 -0.39957,-0.83425 0,-0.70991 -0.54385,-0.0105 -2.58469,3.32399 -1.61442,2.63779 -1.95104,3.03614 -2.62375,3.105 -0.49628,0.0508 -0.93217,-0.0983 -1.22123,-0.41771 z m -6.25356,-25.92118 -0.0168,-9.59114 h 9.4494 c 7.85286,0 9.38395,0.0591 9.06198,0.34977 -0.21308,0.19237 -1.21963,1.05557 -2.23676,1.91823 -1.01714,0.86265 -1.98314,1.68752 -2.14667,1.83304 -0.16353,0.14552 -0.80394,0.6813 -1.42314,1.19063 -2.15799,1.77505 -7.85404,7.68252 -8.51902,8.83521 -0.0989,0.17145 -0.60493,0.76246 -1.12448,1.31335 -0.51956,0.55089 -0.94465,1.1122 -0.94465,1.24736 0,0.13516 -0.17859,0.24574 -0.39687,0.24574 -0.21828,0 -0.39688,0.18233 -0.39688,0.40518 0,0.22285 -0.18855,0.47754 -0.41901,0.56597 -0.23046,0.0884 -0.52057,0.41212 -0.64469,0.7193 -0.13105,0.32435 -0.2327,-3.46276 -0.24244,-9.03264 z m 22.29674,-0.12115 c 0.26697,-0.18803 0.74322,-0.56281 1.05834,-0.83285 0.72222,-0.61892 1.70437,-1.02866 2.55731,-1.06688 0.47314,-0.0212 0.68553,-0.19913 0.74601,-0.62495 0.0872,-0.6137 0.24198,-0.68291 1.37066,-0.61279 0.51618,0.0321 0.57597,-0.0165 0.27224,-0.22091 -0.59421,-0.40001 -0.13589,-0.63993 0.48351,-0.25311 0.48892,0.30534 0.66429,0.21558 1.76979,-0.90576 1.16569,-1.18239 4.07342,-2.83607 4.98676,-2.83607 0.23386,0 0.4252,-0.15468 0.4252,-0.34373 0,-0.39266 1.75077,-1.11763 2.4492,-1.01417 0.25565,0.0379 0.53628,-0.11736 0.62362,-0.34496 0.13869,-0.36142 1.07633,-0.41381 7.40653,-0.41381 h 7.24773 v 4.63021 4.63021 l -2.18281,-0.036 c -1.20055,-0.0198 -1.91492,-0.0876 -1.5875,-0.15069 0.89724,-0.17282 0.7149,-0.53517 -0.33073,-0.65724 -0.65277,-0.0762 -0.92604,-0.003 -0.92604,0.24762 0,0.26084 -0.26468,0.31649 -0.99219,0.20862 -0.73822,-0.10947 -0.85674,-0.0834 -0.46302,0.1017 0.50021,0.23522 0.4949,0.24985 -0.097,0.26743 -0.49965,0.0148 -0.59819,-0.0884 -0.4877,-0.51094 0.0762,-0.29124 0.0305,-0.46281 -0.10143,-0.38126 -0.13195,0.0815 -0.23991,0.3174 -0.23991,0.52412 0,0.3178 -1.78742,0.38799 -11.57552,0.45452 -6.36654,0.0433 -11.87318,0.16979 -12.23698,0.28114 -0.59407,0.18182 -0.61201,0.16762 -0.17607,-0.13941 z"
         id="path443" /><path
         style="fill:#a1b8cb"
         d="m 152.68951,180.26911 c 0.10073,-0.31045 0.0749,-0.37156 -0.0719,-0.16998 -0.19947,0.27401 -1.93744,0.42688 -1.93744,0.17042 0,-0.0527 0.38695,-0.46122 0.85989,-0.9079 0.86675,-0.81861 0.66915,-0.91844 -0.70486,-0.35608 -0.29484,0.12068 -0.44361,0.10558 -0.35609,-0.0361 0.0827,-0.13387 -0.28473,-0.24069 -0.81649,-0.23736 -0.89761,0.006 -2.973,-0.81754 -3.16983,-1.25723 -0.0475,-0.10607 -0.5535,-0.45542 -1.12448,-0.77633 -1.14697,-0.64463 -1.22322,-0.7968 -0.64127,-1.27978 0.49787,-0.41319 0.51144,-0.79375 0.0283,-0.79375 -0.20271,0 -0.44,-0.18614 -0.5273,-0.41364 -0.0917,-0.23898 -0.29918,-0.33431 -0.49133,-0.22577 -0.22989,0.12986 -0.25089,0.0984 -0.068,-0.10197 0.18757,-0.20548 1.03468,-0.21687 2.91041,-0.0391 4.25248,0.40298 8.26108,-0.30936 10.38048,-1.84464 1.53306,-1.11054 2.34705,-2.30114 2.81797,-4.12174 0.94102,-3.63802 3.42402,-9.68739 5.9628,-14.52727 0.69416,-1.32334 2.50092,-4.83347 4.01502,-7.80029 l 2.7529,-5.39422 0.0701,8.70151 c 0.0546,6.7686 -0.004,8.76029 -0.26458,8.9661 -0.33955,0.2684 -0.61402,0.90413 -1.57088,3.63852 -0.29291,0.83702 -0.64061,1.45507 -0.77268,1.37345 -0.13207,-0.0816 -0.24013,0.3419 -0.24013,0.94116 0,0.65589 -0.10486,1.02475 -0.26345,0.92673 -0.14491,-0.0896 -0.3921,0.17131 -0.54934,0.5797 -0.15723,0.40839 -0.50196,1.18341 -0.76607,1.72226 -0.30097,0.61407 -0.37606,1.01446 -0.20119,1.07275 0.15346,0.0512 0.003,0.41033 -0.33412,0.79818 -0.73791,0.84867 -1.68383,3.36704 -1.26468,3.36704 0.15723,0 0.0888,0.21774 -0.15201,0.48386 -0.24084,0.26612 -0.43789,0.61008 -0.43789,0.76435 0,0.15427 -0.20835,0.26396 -0.46302,0.24375 -0.25832,-0.0205 -0.46497,0.14682 -0.46743,0.3785 -0.002,0.22838 -0.24055,0.76416 -0.52917,1.19062 -0.28861,0.42646 -0.58965,1.01351 -0.66897,1.30455 -0.15479,0.56794 -1.22461,0.75876 -1.11255,0.19844 0.0364,-0.1819 -0.0416,-0.33073 -0.17326,-0.33073 -0.13168,0 -0.17553,0.47625 -0.0975,1.05833 0.0911,0.67948 0.0377,1.05833 -0.14916,1.05833 -0.16011,0 -0.22258,0.1786 -0.13882,0.39688 0.0838,0.21828 0.0205,0.39687 -0.1406,0.39687 -0.29264,0 -0.39822,-0.34852 -0.30744,-1.01482 0.0291,-0.21332 -0.14201,-0.31195 -0.43167,-0.24887 -0.2639,0.0575 -0.45023,0.24573 -0.41406,0.41834 0.14922,0.71224 -3.46573,1.90451 -6.34964,2.09422 -1.63915,0.10782 -1.77304,0.0776 -1.62869,-0.36726 z m -7.56555,-7.2146 c -3.87375,-0.7811 -7.26765,-4.43505 -7.25022,-7.80578 0.009,-1.83292 0.45852,-2.55578 3.47382,-5.59197 1.43467,-1.4446 3.29136,-3.51952 4.12598,-4.61092 0.83462,-1.09141 2.52816,-3.23453 3.76343,-4.7625 2.34517,-2.90088 4.25672,-5.34915 10.51877,-13.47217 2.06621,-2.68027 4.05581,-5.09335 4.42131,-5.3624 0.86784,-0.63883 3.85116,-1.66538 6.3469,-2.18394 2.35303,-0.48891 2.11667,-0.47236 2.11667,-0.14816 0,0.14552 -0.17859,0.26458 -0.39687,0.26458 -0.51542,0 -0.51542,0.69165 0,0.88943 0.32965,0.1265 0.39687,0.86179 0.39687,4.34102 0,2.3038 -0.10264,4.30183 -0.2281,4.44007 -0.12546,0.13825 -1.73063,3.18593 -3.56706,6.77264 -1.83643,3.58671 -3.69625,7.21811 -4.13293,8.06979 -0.77449,1.51052 -1.48538,3.06783 -3.12242,6.84018 -0.89026,2.05149 -1.93415,5.03275 -2.55915,7.30872 -0.45469,1.65579 -1.8491,3.28812 -3.46313,4.05403 -2.16352,1.02666 -7.61976,1.52683 -10.44387,0.95738 z m -2.83995,-11.65455 c 1.18205,-0.72744 3.55557,-1.86972 5.2745,-2.5384 3.51586,-1.36771 4.32506,-1.39504 6.61909,-0.22355 l 1.24843,0.63753 0.30814,-0.57577 c 0.45956,-0.8587 -0.49,-1.52654 -2.23901,-1.57472 -0.74786,-0.0206 -1.6574,-0.0504 -2.0212,-0.0661 -0.36381,-0.0158 -1.13771,0.0605 -1.7198,0.16959 -0.58208,0.10905 -1.52576,0.2649 -2.09706,0.34633 -0.5713,0.0814 -1.25591,0.26428 -1.52136,0.40634 -0.57597,0.30825 -0.6516,-0.0844 -0.10382,-0.53907 0.88583,-0.73518 8.99545,-1.21824 9.76264,-0.58153 0.20615,0.17109 0.5593,0.24028 0.78478,0.15376 0.49446,-0.18974 0.8132,-0.91924 0.52568,-1.20315 -0.69148,-0.68281 -5.43237,-0.67 -7.88002,0.0213 -1.63825,0.4627 -2.24896,0.54038 -2.24896,0.28606 0,-0.34317 0.79839,-0.75801 1.7495,-0.90903 0.42022,-0.0667 1.27006,-0.20083 1.88852,-0.29803 0.61846,-0.0972 1.12448,-0.27741 1.12448,-0.40047 0,-0.12306 -0.37525,-0.8274 -0.83389,-1.5652 -0.8006,-1.28788 -0.81535,-1.36194 -0.36944,-1.85466 0.25545,-0.28227 0.80929,-0.58896 1.23076,-0.68153 0.42148,-0.0926 0.76632,-0.27417 0.76632,-0.40357 0,-0.12939 0.17368,-0.1686 0.38596,-0.0871 0.21228,0.0814 0.79748,0.0123 1.30043,-0.1537 0.89116,-0.29411 0.90497,-0.32001 0.54171,-1.01631 -0.20502,-0.39297 -0.37349,-0.86333 -0.37439,-1.04523 -8.9e-4,-0.1819 -0.10443,-0.33073 -0.23009,-0.33073 -0.12565,0 -0.21495,-0.26789 -0.19843,-0.59531 0.0215,-0.42707 0.27489,-0.67447 0.89648,-0.87538 0.47655,-0.15404 0.79985,-0.34667 0.71845,-0.42808 -0.0814,-0.0814 0.13781,-0.0934 0.48715,-0.0266 0.51788,0.099 0.6596,-0.006 0.76748,-0.57069 0.1152,-0.60264 0.0615,-0.66964 -0.41524,-0.51833 -0.50394,0.15995 -0.51353,0.13977 -0.12041,-0.25334 0.23492,-0.23492 0.36895,-0.6496 0.29784,-0.92151 -0.18649,-0.71314 0.49965,-1.2696 2.16094,-1.75255 0.80027,-0.23265 1.45503,-0.46553 1.45503,-0.51752 0,-0.052 -0.16774,-0.49347 -0.37277,-0.98108 -0.50207,-1.19407 -0.18976,-1.67854 1.42859,-2.21607 0.72899,-0.24213 1.32543,-0.50088 1.32543,-0.575 0,-0.0741 -0.22886,-0.33244 -0.50859,-0.57405 -0.79046,-0.68274 -0.31254,-1.42038 1.29472,-1.99834 0.86057,-0.30946 1.25805,-0.57118 1.05657,-0.6957 -0.17765,-0.10979 -0.23329,-0.34475 -0.12367,-0.52213 0.1456,-0.23559 0.03,-0.27269 -0.42912,-0.13765 -0.59311,0.17446 -0.58381,0.14072 0.1653,-0.60006 0.43657,-0.4317 0.88396,-0.73267 0.99422,-0.66881 0.2211,0.12806 0.99016,-0.55365 0.99016,-0.87769 0,-0.11226 -0.14288,-0.0612 -0.3175,0.11339 -0.17463,0.17462 -0.53091,0.3175 -0.79174,0.3175 -0.28067,0 -1.16594,0.89095 -2.16887,2.18281 -0.93205,1.20055 -3.63102,4.68313 -5.99771,7.73906 -8.17416,10.55469 -12.52619,15.88515 -15.22926,18.65313 -2.43529,2.49377 -3.27617,3.66487 -3.27617,4.56277 0,0.16224 0.42526,-0.20184 0.94503,-0.80907 0.51976,-0.60723 1.91215,-1.69923 3.09419,-2.42666 z m -6.88349,-8.03685 c -0.72282,-0.35799 -0.74935,-0.84264 -0.10341,-1.88915 0.53838,-0.87223 3.24025,-3.6653 5.06048,-5.23127 1.1639,-1.00132 1.59256,-1.11513 1.80457,-0.47911 0.0816,0.24477 -0.0641,0.29257 -0.51263,0.1682 -0.60371,-0.16741 -0.60795,-0.15883 -0.11593,0.23469 0.46225,0.36972 0.55722,0.36633 1.00152,-0.0358 0.26995,-0.24431 0.43316,-0.59448 0.36268,-0.77815 -0.0793,-0.20676 0.0179,-0.27792 0.25526,-0.18683 0.21087,0.0809 0.3834,0.2344 0.3834,0.34107 0,0.3675 -3.24704,3.44032 -3.48196,3.29513 -0.12943,-0.08 -0.20261,-0.031 -0.16262,0.10885 0.04,0.13986 -0.5626,0.93416 -1.33907,1.76512 -0.77647,0.83095 -1.53226,1.85647 -1.67953,2.27892 -0.28414,0.81508 -0.51959,0.88035 -1.47276,0.40828 z m -7.34743,-2.9804 c 0.35709,-0.6883 0.28497,-1.42229 -0.13974,-1.42229 -0.12137,0 -0.28734,0.10788 -0.36883,0.23974 -0.17127,0.27712 -1.20598,0.0662 -1.20598,-0.24583 0,-0.11492 0.23812,-0.14668 0.52917,-0.0706 0.41974,0.10976 0.52832,0.009 0.52511,-0.48779 -0.003,-0.48934 -0.0578,-0.54112 -0.2502,-0.23696 -0.13538,0.21406 -0.31951,0.31584 -0.40918,0.22617 -0.12586,-0.12586 2.29302,-5.37374 2.6356,-5.71808 0.0414,-0.0416 0.28239,0.37514 0.53559,0.92605 0.2532,0.5509 0.62517,1.34575 0.8266,1.76631 0.33937,0.70858 0.30672,0.8687 -0.44515,2.18282 -0.44626,0.77998 -0.9775,1.41814 -1.18053,1.41814 -0.21343,0 -0.30718,0.16151 -0.22224,0.38285 0.0808,0.21057 -0.0718,0.68308 -0.33903,1.05002 -0.63883,0.87706 -0.94825,0.8704 -0.49119,-0.0106 z m 0.33597,-9.48402 c -0.25466,-0.35022 -0.46302,-0.70502 -0.46302,-0.78843 0,-0.0834 -0.48571,-0.86322 -1.07934,-1.7329 -1.03055,-1.50975 -1.06187,-1.61427 -0.69274,-2.31211 0.21263,-0.40198 0.75366,-1.42905 1.20228,-2.28237 0.44863,-0.85332 1.02825,-1.71274 1.28805,-1.90981 0.63376,-0.48074 5.0008,-0.5181 5.19194,-0.0444 0.10676,0.26458 0.13763,0.26458 0.15434,0 0.0229,-0.36322 1.07922,-0.4681 1.07922,-0.10715 0,0.41186 -0.98671,1.12221 -1.91473,1.37845 -1.40555,0.38809 -2.05402,1.08244 -2.05402,2.19932 0,0.52863 0.11906,0.96115 0.26458,0.96115 0.4086,0 0.31265,0.71869 -0.11802,0.88395 -0.40692,0.15616 -1.56241,2.46525 -1.84154,3.68011 -0.20384,0.88715 -0.41469,0.90253 -1.017,0.0742 z m -9.43956,-18.87865 -0.0392,-4.80962 h 3.05267 c 1.67896,0 3.05266,0.10194 3.05266,0.22653 0,0.1246 -0.41672,0.7723 -0.92604,1.43934 -0.50932,0.66704 -0.92604,1.33901 -0.92604,1.49326 0,0.15425 -0.0908,0.28045 -0.20184,0.28045 -0.20673,0 -0.25778,0.082 -1.37224,2.20508 -0.35642,0.67898 -0.74337,1.23451 -0.85989,1.23451 -0.11653,0 -0.21186,0.15614 -0.21186,0.34698 0,0.19084 -0.21634,0.57919 -0.48074,0.863 -0.26441,0.2838 -0.60843,0.74418 -0.76449,1.02305 -0.21115,0.37729 -0.2938,-0.72379 -0.32298,-4.30258 z m 10.03487,1.80496 c 0,-0.14552 0.11907,-0.26458 0.26459,-0.26458 0.14552,0 0.26458,-0.35016 0.26458,-0.77814 0,-0.79046 0.54432,-1.42537 0.73404,-0.85621 0.0571,0.17129 0.2824,0.31143 0.50068,0.31143 0.21828,0 0.3477,-0.14883 0.2876,-0.33073 -0.072,-0.21801 -0.7333,-0.34116 -1.94028,-0.36133 -1.00705,-0.0168 -1.44405,0.0205 -0.9711,0.0829 0.93079,0.12287 1.07573,0.43112 0.48192,1.02493 -0.46724,0.46724 -0.94494,0.48986 -0.94494,0.0447 0,-0.18327 -0.26602,-0.49936 -0.59114,-0.7024 -0.57623,-0.35986 -0.5779,-0.37435 -0.0661,-0.57422 0.28875,-0.11277 0.97148,-0.21341 1.51718,-0.22363 0.954,-0.0179 0.99219,-0.0543 0.99219,-0.94464 0,-0.92383 -0.003,-0.92604 -1.21436,-0.92604 -1.28681,0 -2.19791,-0.67977 -2.21642,-1.65365 -0.008,-0.42693 0.43586,-0.46302 5.69535,-0.46302 5.84696,0 6.25365,0.0863 4.53167,0.96141 -0.46371,0.23567 -1.21636,0.83014 -1.67255,1.32104 -0.45619,0.4909 -0.94073,0.89255 -1.07677,0.89255 -0.13603,0 -0.49214,0.26789 -0.79136,0.59531 -1.18604,1.29782 -2.16532,2.05161 -2.32652,1.7908 -0.26746,-0.43277 -0.73657,-0.30982 -0.56123,0.14709 0.0879,0.22909 -0.01,0.58628 -0.21738,0.79375 -0.44255,0.44255 -0.6796,0.48184 -0.6796,0.11263 z"
         id="path442" /><path
         style="fill:#9aa4b0"
         d="m 153.9875,177.51322 c 0.29104,-0.34684 0.70776,-0.78332 0.92604,-0.96996 0.32456,-0.27752 0.25224,-0.28121 -0.39688,-0.0202 -0.43656,0.17553 -0.90686,0.41558 -1.0451,0.53347 -0.4115,0.35088 -3.49898,0.24327 -4.43602,-0.15461 -1.3867,-0.58881 -2.14547,-0.94844 -2.84383,-1.34787 -0.56608,-0.32376 -0.59224,-0.39588 -0.19844,-0.54699 0.24948,-0.0957 0.4536,-0.33992 0.4536,-0.54264 0,-0.20486 0.26442,-0.37001 0.59531,-0.37182 3.57537,-0.0196 6.64066,-0.46707 8.66511,-1.26504 0.90813,-0.35795 3.11476,-2.34378 3.54888,-3.19377 0.19587,-0.38352 0.43745,-1.11403 0.53684,-1.62335 0.26977,-1.38249 0.70847,-2.39289 0.96904,-2.23185 0.12696,0.0785 0.15829,-0.0464 0.0696,-0.27748 -0.20474,-0.53354 1.17936,-4.36869 1.64052,-4.54566 0.19696,-0.0756 0.27446,-0.32216 0.18031,-0.57368 -0.1351,-0.36092 -0.0943,-0.38366 0.2246,-0.12505 0.31699,0.25709 0.38971,0.22369 0.38971,-0.17901 0,-0.2723 -0.11194,-0.4259 -0.24877,-0.34134 -0.15127,0.0935 -0.15657,0.008 -0.0135,-0.21786 0.1294,-0.20439 0.23709,-0.4329 0.23932,-0.50781 0.01,-0.33199 1.59334,-3.8972 1.99599,-4.49401 0.24544,-0.3638 0.77713,-1.4056 1.18152,-2.3151 0.4044,-0.90951 0.8451,-1.65365 0.97933,-1.65365 0.13424,0 0.15465,0.14883 0.0454,0.33073 -0.13501,0.22472 -0.0552,0.21434 0.24897,-0.0324 0.56967,-0.46209 0.58063,-0.86191 0.0177,-0.6459 -0.30879,0.1185 -0.1783,-0.29307 0.46302,-1.46037 0.49114,-0.89395 1.03808,-1.62678 1.21541,-1.6285 0.17734,-0.002 0.25966,-0.1667 0.18295,-0.36661 -0.11601,-0.30233 1.29272,-3.43625 1.73955,-3.86987 0.075,-0.0728 0.17547,-0.31088 0.22331,-0.52916 0.0478,-0.21829 0.24066,-0.57547 0.4285,-0.79375 0.18783,-0.21829 0.40718,-0.57547 0.48744,-0.79375 0.0803,-0.21829 0.15532,1.95834 0.16681,4.83695 0.0177,4.42141 -0.0407,5.25746 -0.37598,5.38612 -0.21829,0.0838 -0.39688,0.37768 -0.39688,0.65315 0,0.27547 -0.10098,0.50086 -0.2244,0.50086 -0.12342,0 -0.43947,0.47693 -0.70233,1.05986 -0.26286,0.58292 -0.63813,1.19281 -0.83393,1.35531 -0.1958,0.1625 -0.35601,0.63807 -0.35601,1.05681 0,0.41874 -0.11103,0.76135 -0.24675,0.76135 -0.13571,0 -0.31401,0.21192 -0.39622,0.47093 -0.0822,0.25901 -0.57056,1.12221 -1.08523,1.91823 -0.51467,0.79602 -1.00955,1.74496 -1.09973,2.10876 -0.0902,0.3638 -0.23492,0.72099 -0.32166,0.79375 -0.37201,0.31208 -1.06415,2.07177 -1.22281,3.10885 -0.10874,0.71083 -0.30946,1.12448 -0.54564,1.12448 -0.54649,0 -0.45599,0.72841 0.15554,1.25202 0.66253,0.56727 0.67391,0.86465 0.0331,0.86465 -0.47523,0 -0.80063,0.7534 -0.96654,2.2378 -0.0318,0.2849 -0.19203,0.56271 -0.35596,0.61736 -0.16394,0.0546 -0.29808,0.38709 -0.29808,0.73876 0,0.35168 -0.15467,0.63941 -0.34372,0.63941 -0.18905,0 -0.48467,0.38979 -0.65694,0.8662 -0.35,0.9679 -2.54969,2.75649 -4.00565,3.25703 -0.49953,0.17173 -1.03598,0.48628 -1.19211,0.699 -0.15613,0.21273 -0.76012,0.47303 -1.3422,0.57846 -0.58208,0.10543 -1.35599,0.26092 -1.71979,0.34554 l -0.66146,0.15384 z m -8.86354,-4.45871 c -3.85263,-0.77684 -7.23716,-4.43275 -7.24158,-7.82221 -0.002,-1.78249 0.55525,-2.73348 2.92215,-4.98404 2.53496,-2.41037 6.96913,-7.89413 18.95121,-23.43709 2.06621,-2.68027 4.05927,-5.09594 4.42902,-5.36816 1.02197,-0.75241 5.08368,-2.0203 6.93892,-2.16602 0.90708,-0.0713 1.38134,-0.0687 1.05392,0.006 -0.7339,0.16681 -0.74936,0.40624 -0.0662,1.02454 0.48275,0.43689 0.52917,0.81491 0.52917,4.30949 v 3.8306 l -3.47448,6.77788 c -1.91097,3.72783 -3.74842,7.25412 -4.08322,7.8362 -1.71294,2.97813 -5.08183,11.37581 -6.17157,15.38397 -0.5639,2.07409 -2.91362,3.80451 -6.07638,4.47488 -1.82129,0.38603 -6.09337,0.46038 -7.71101,0.1342 z m 5.6017,-1.74023 c -0.0807,-0.43916 -0.0559,-0.44172 0.34963,-0.0362 0.51491,0.51491 0.44606,0.50594 1.3234,0.17238 0.38204,-0.14525 0.62173,-0.38201 0.53265,-0.52614 -0.0912,-0.1476 0.009,-0.19663 0.22837,-0.11226 0.22593,0.0867 0.50392,-0.0625 0.66003,-0.35416 0.20507,-0.38319 0.11775,-0.8319 -0.36441,-1.8726 -0.63396,-1.36835 -1.10745,-1.83783 -0.84628,-0.83914 0.0762,0.29124 0.0455,0.47208 -0.0681,0.40187 -0.11361,-0.0702 -0.93749,0.16933 -1.83083,0.53232 -0.89334,0.363 -2.20621,0.78481 -2.91749,0.93735 -1.28152,0.27484 -2.71131,1.3031 -1.81195,1.3031 0.22527,0 0.47811,-0.1786 0.56187,-0.39688 0.0838,-0.21828 0.28968,-0.39687 0.45758,-0.39687 0.21995,0 0.21322,0.11093 -0.0241,0.39687 -0.18116,0.21828 -0.2255,0.41451 -0.0985,0.43605 0.41874,0.0711 1.01768,0.14647 1.4793,0.18624 0.29715,0.0256 0.39972,0.18247 0.29602,0.45272 -0.13266,0.34572 0.0315,0.39505 1.00049,0.30074 0.93774,-0.0913 1.1426,-0.2031 1.07235,-0.58543 z m -11.18869,-7.89133 c 1.06584,-1.1564 5.14376,-3.45169 8.30204,-4.67286 2.69392,-1.04163 2.91893,-1.0856 4.17593,-0.81602 0.73072,0.15671 1.81705,0.53413 2.41406,0.8387 0.87963,0.44875 1.12809,0.48656 1.31013,0.19936 0.3941,-0.62179 0.25053,-1.25199 -0.36257,-1.59146 -0.79973,-0.44281 -5.66097,-0.3719 -7.81284,0.11396 -1.1061,0.24974 -1.62953,0.27988 -1.56629,0.0902 0.24098,-0.72296 7.96313,-1.16425 10.01717,-0.57245 0.5731,0.16512 0.76235,0.0942 1.0167,-0.38105 0.56092,-1.0481 -0.26138,-1.36404 -3.44068,-1.32192 -1.82502,0.0242 -4.33223,0.36107 -5.75469,0.77326 -0.54378,0.15757 -0.85989,0.15629 -0.85989,-0.003 0,-0.34989 1.00465,-0.69782 3.0369,-1.05172 1.70535,-0.29697 2.05338,-0.60632 1.4081,-1.25159 -0.17463,-0.17463 -0.22952,-0.3175 -0.12199,-0.3175 0.10754,0 -0.0472,-0.26058 -0.34395,-0.57906 -0.99044,-1.06311 -0.63388,-2.09837 0.85106,-2.47106 0.39937,-0.10024 0.72648,-0.25864 0.72691,-0.352 4.3e-4,-0.0934 0.39348,-0.17771 0.87345,-0.18742 1.65976,-0.0336 1.76773,-0.16798 1.29835,-1.61626 -0.22754,-0.70207 -0.54057,-1.36083 -0.69562,-1.46392 -0.42458,-0.28226 0.0681,-0.61366 1.47396,-0.9914 0.96212,-0.25852 1.25762,-0.46938 1.35237,-0.96505 0.0667,-0.34884 0.021,-0.63425 -0.10148,-0.63425 -0.31349,0 -0.10298,-1.50351 0.27413,-1.95789 0.17202,-0.20728 0.90255,-0.51836 1.6234,-0.69128 0.72084,-0.17293 1.36286,-0.39894 1.4267,-0.50224 0.0638,-0.1033 -0.0143,-0.70147 -0.17365,-1.32927 -0.32427,-1.27753 -0.1778,-1.45961 1.62585,-2.02113 1.07439,-0.33449 1.25941,-0.68524 0.67154,-1.27311 -0.69935,-0.69935 -0.35078,-1.25976 1.13426,-1.82359 1.02463,-0.38902 1.32161,-0.61227 1.12678,-0.84703 -0.14551,-0.17532 -0.18622,-0.39712 -0.0905,-0.49287 0.0957,-0.0958 -0.0389,-0.17409 -0.29928,-0.17409 -0.39077,0 -0.41589,-0.0693 -0.14399,-0.39688 0.18116,-0.21828 0.47518,-0.39687 0.65337,-0.39687 0.35771,0 1.61258,-1.00651 1.43957,-1.15465 -0.0597,-0.0511 -0.48396,0.0643 -0.94278,0.25655 -0.9412,0.39431 -0.83439,0.26708 -7.63892,9.10018 -8.65996,11.24169 -13.10396,16.71368 -15.90093,19.57917 -2.55742,2.62007 -3.28566,3.67082 -3.26685,4.71358 0.007,0.37011 0.0576,0.35596 0.3,-0.0834 0.16057,-0.29104 0.60344,-0.86712 0.98414,-1.28018 z"
         id="path441" /><path
         style="fill:#49a9e4"
         d="m 144.95689,172.90719 c -0.89226,-0.19405 -1.96382,-0.53163 -2.38125,-0.75018 -2.6072,-1.36501 -4.59543,-4.44606 -4.59543,-7.12128 0,-1.70572 0.52536,-2.53678 3.30459,-5.22739 1.62148,-1.56978 9.49219,-11.16923 14.02561,-17.10622 8.23246,-10.78127 8.49141,-11.08367 10.1151,-11.81234 1.83001,-0.82126 4.14635,-1.4518 6.00032,-1.63337 l 1.34708,-0.13192 -1.32291,0.37525 c -0.72761,0.20638 -1.00711,0.35425 -0.62112,0.3286 1.04431,-0.0694 1.8191,0.76355 1.77571,1.90902 -0.0277,0.73023 -0.0643,0.79753 -0.15764,0.28973 -0.20679,-1.12472 -0.60351,-1.39135 -1.85951,-1.24978 -0.63138,0.0712 -1.21257,0.194 -1.29155,0.27298 -0.28959,0.28959 1.54708,1.97987 2.31911,2.13428 0.44127,0.0882 0.72237,0.27853 0.63067,0.42691 -0.091,0.14723 -0.0618,0.26769 0.065,0.26769 0.12672,0 0.25255,1.02946 0.2796,2.28769 l 0.0492,2.28768 -1.68523,3.20242 c -7.69456,14.62188 -10.85635,21.55982 -11.82902,25.95659 -0.29535,1.33505 -0.56482,1.80196 -1.69458,2.93614 -1.48992,1.49575 -2.77774,2.04364 -5.82436,2.47791 -2.45687,0.35021 -4.66972,0.31014 -6.64936,-0.12041 z m 7.46598,-1.48172 c 0.69833,-0.35031 1.38778,-0.83388 1.53211,-1.07459 0.3748,-0.62512 -1.22001,-3.80038 -2.16703,-4.31456 -0.48859,-0.26528 -0.57097,-0.38928 -0.26346,-0.39656 0.8466,-0.02 0.76984,-0.53562 -0.14467,-0.97172 -0.99531,-0.47463 -1.83471,-0.34053 -1.6056,0.25652 0.12008,0.31294 -0.0564,0.32804 -1.08441,0.0928 -1.34434,-0.30763 -5.91682,0.12215 -7.22723,0.6793 -1.88484,0.80139 -2.112,1.90486 -0.75804,3.68227 1.63894,2.15152 3.74589,2.88828 7.89705,2.76145 2.0644,-0.0631 2.79401,-0.19958 3.82128,-0.71489 z m -12.90328,-7.85276 c 1.37545,-1.41726 4.97068,-3.44473 8.36982,-4.72003 2.77629,-1.04162 2.95662,-1.07473 4.23451,-0.77768 0.7341,0.17065 1.57279,0.4535 1.86374,0.62856 0.48208,0.29007 0.46636,0.30417 -0.17722,0.15905 -0.76789,-0.17315 -1.35534,0.44086 -1.66423,1.73948 -0.12941,0.54404 0.006,0.77145 0.76164,1.28115 0.50544,0.34083 1.01466,0.55892 1.1316,0.48464 0.11695,-0.0743 0.5102,-0.68497 0.8739,-1.35707 0.5702,-1.05372 0.60664,-1.25654 0.26458,-1.47277 -0.32367,-0.20461 -0.29466,-0.25151 0.15762,-0.25482 0.30487,-0.002 0.76981,0.23408 1.0332,0.52512 0.26339,0.29104 0.60926,0.51976 0.76861,0.50828 0.16571,-0.012 0.14745,-0.0782 -0.0427,-0.15489 -0.18281,-0.0737 -0.26508,-0.2429 -0.18282,-0.37599 0.0823,-0.13309 -0.0431,-0.24199 -0.27855,-0.24199 -0.23546,0 -0.35668,-0.11556 -0.26939,-0.25681 0.0873,-0.14125 -0.0249,-0.61195 -0.24939,-1.04601 -0.70799,-1.36912 -2.86164,-1.65502 -7.15414,-0.94975 -1.30968,0.21519 -2.55984,0.38971 -2.77812,0.38782 -1.02494,-0.009 0.54206,-0.49013 2.46794,-0.75799 3.77376,-0.52489 6.70805,-0.3377 8.44253,0.53856 0.6019,0.30408 0.99578,0.29451 0.99578,-0.0242 0,-0.14095 -0.17995,-0.18723 -0.39988,-0.10283 -0.29718,0.11404 -0.35358,0.0328 -0.21962,-0.31629 0.11628,-0.30303 0.0792,-0.40726 -0.10461,-0.29368 -0.17929,0.11081 -0.23575,-0.0118 -0.15232,-0.33082 0.20807,-0.79566 -0.78748,-1.14063 -3.19303,-1.10641 -1.97041,0.028 -3.66652,0.22975 -5.91856,0.70391 -0.5204,0.10957 -0.8599,0.0759 -0.8599,-0.0852 0,-0.27115 1.34916,-0.66707 3.37344,-0.98996 1.13154,-0.1805 1.39422,-0.55103 0.80698,-1.13827 -0.17463,-0.17463 -0.22952,-0.3175 -0.12199,-0.3175 0.10754,0 -0.0472,-0.26058 -0.34395,-0.57906 -0.616,-0.66119 -0.70383,-1.601 -0.18953,-2.02783 0.19248,-0.15974 1.11521,-0.47887 2.05052,-0.70917 0.93532,-0.2303 1.83824,-0.46335 2.0065,-0.51789 0.31009,-0.10051 -0.10953,-1.801 -0.69957,-2.8349 -0.21948,-0.3846 -0.047,-0.51747 1.16958,-0.90096 1.11128,-0.3503 1.45328,-0.58711 1.54563,-1.07022 0.0652,-0.34122 0.0232,-0.62039 -0.0935,-0.62039 -0.29645,0 -0.16128,-1.07732 0.22062,-1.75822 0.20654,-0.36826 0.78519,-0.6796 1.6476,-0.88648 0.73109,-0.17539 1.38149,-0.40341 1.44533,-0.50671 0.0638,-0.1033 -0.0143,-0.70147 -0.17365,-1.32927 -0.32427,-1.27753 -0.1778,-1.45961 1.62585,-2.02113 1.0775,-0.33545 1.25937,-0.68529 0.66516,-1.27949 -0.64305,-0.64305 -0.28768,-1.16978 1.24583,-1.84656 0.84104,-0.37117 1.24937,-0.67958 1.0571,-0.79841 -0.17232,-0.1065 -0.2448,-0.30446 -0.16107,-0.43993 0.0837,-0.13547 -0.048,-0.2463 -0.29267,-0.2463 -0.36545,0 -0.38608,-0.0709 -0.11551,-0.39688 0.18116,-0.21828 0.47518,-0.39687 0.65337,-0.39687 0.3656,0 1.60713,-1.00523 1.43957,-1.16558 -0.0597,-0.0571 -0.52528,0.0666 -1.03461,0.27493 -0.60109,0.24589 -1.39025,0.99768 -2.24895,2.14247 -7.61592,10.15322 -18.6461,23.8758 -21.51971,26.77257 -2.59127,2.61215 -2.9773,3.22101 -2.91822,4.60273 0.0264,0.61761 0.0666,0.68443 0.15032,0.25018 0.0629,-0.32587 0.55267,-1.04418 1.08845,-1.59626 z m 23.75037,-9.05604 c 0.20616,0 0.37483,-0.12609 0.37483,-0.2802 0,-0.15411 -0.10938,-0.2126 -0.24306,-0.12998 -0.13368,0.0826 -0.32196,-0.20905 -0.4184,-0.64815 -0.10545,-0.48011 -0.29016,-0.72741 -0.46337,-0.62037 -0.17967,0.11105 -0.22865,0.0233 -0.1302,-0.23325 0.0876,-0.22843 -0.0734,-0.65941 -0.36222,-0.96944 -0.28602,-0.30701 -0.4382,-0.55819 -0.33819,-0.55819 0.10001,0 -0.20669,-0.3713 -0.68155,-0.8251 -0.8357,-0.79864 -0.91968,-0.82 -2.61893,-0.66611 -0.96555,0.0874 -1.78531,0.16108 -1.82169,0.16364 -0.23044,0.0162 0.008,0.60794 0.40487,1.00483 0.25906,0.25905 0.69288,1.06273 0.96404,1.78594 0.61308,1.63507 0.57653,1.59751 1.12289,1.15419 0.30043,-0.24379 0.38683,-0.25654 0.25536,-0.0377 -0.10929,0.18191 -0.0825,0.33073 0.0595,0.33073 0.14198,0 0.3182,-0.14882 0.3916,-0.33073 0.0782,-0.19372 0.14211,-0.1346 0.15434,0.14273 0.0173,0.39146 0.0848,0.41437 0.39,0.13229 0.203,-0.18764 0.30367,-0.44885 0.2237,-0.58048 -0.08,-0.13162 -0.0364,-0.17195 0.0968,-0.0896 0.29446,0.18198 1.01464,-0.31721 1.24318,-0.8617 0.0916,-0.21828 0.10024,0.036 0.0192,0.56502 -0.15846,1.03395 0.2925,1.63349 0.74484,0.99023 0.17976,-0.25564 0.2136,-0.12737 0.11321,0.42913 -0.0788,0.43656 -0.0785,0.64492 6.5e-4,0.46302 0.0791,-0.1819 0.31251,-0.33073 0.51866,-0.33073 z m 2.30555,-3.37344 c 0.81619,-1.55413 0.89593,-1.86428 0.61433,-2.38955 -0.17798,-0.33198 -0.42579,-0.51058 -0.5507,-0.39687 -0.12491,0.1137 -0.15222,0.0753 -0.0607,-0.0853 0.17497,-0.30705 -0.96315,-2.2724 -1.80058,-3.10929 -0.40449,-0.40424 -0.72551,-0.45983 -1.8183,-0.31486 -0.72989,0.0968 -1.42594,0.23714 -1.54677,0.31182 -0.12083,0.0747 0.0155,0.57355 0.30299,1.10861 0.28748,0.53505 0.95182,1.8984 1.47631,3.02966 0.62785,1.35418 1.06147,1.995 1.26931,1.87581 0.17362,-0.0996 0.23113,-0.0873 0.12779,0.0272 -0.21836,0.24205 0.48972,1.72867 0.82337,1.72867 0.12376,0 0.64708,-0.80367 1.16295,-1.78594 z m 2.27218,-4.32229 c 0.4533,-0.88568 0.82418,-1.71274 0.82418,-1.83791 0,-0.36683 -1.75622,-3.24256 -2.39334,-3.91897 -0.51061,-0.5421 -0.7385,-0.59774 -1.80745,-0.44125 -1.53582,0.22483 -1.76876,0.44911 -1.27928,1.23172 0.21452,0.34298 0.45966,0.92125 0.54475,1.28506 0.0851,0.3638 0.64996,1.3163 1.25526,2.11666 0.60529,0.80037 1.28625,1.84216 1.51326,2.31511 0.227,0.47294 0.43651,0.85989 0.46559,0.85989 0.0291,0 0.42374,-0.72464 0.87703,-1.61031 z m 1.9982,-7.4185 c -0.48647,-0.966 -1.0772,-1.94907 -1.31274,-2.18461 -0.46259,-0.46259 -2.3731,-0.59454 -2.62836,-0.18153 -0.0839,0.13569 0.14724,0.92441 0.51355,1.75271 0.36632,0.8283 0.66603,1.61998 0.66603,1.75928 0,0.13931 0.3983,0.74957 0.88512,1.35614 0.48681,0.60658 0.97313,1.34099 1.0807,1.63203 0.1659,0.44885 0.30826,0.30856 0.93789,-0.92424 l 0.7423,-1.45342 z m 2.52518,-1.42223 c -0.001,-0.14552 -0.0802,-0.55586 -0.17539,-0.91187 -0.15902,-0.59454 -0.18807,-0.60532 -0.35641,-0.13229 -0.13904,0.39065 -0.23106,0.23571 -0.38114,-0.64176 -0.13288,-0.77691 -0.35209,-1.1971 -0.66756,-1.27959 -0.30092,-0.0787 -0.42453,-0.29564 -0.34398,-0.60368 0.14779,-0.56516 -0.69448,-0.93174 -1.88393,-0.81995 -1.79098,0.16833 -1.81342,0.30661 -0.31518,1.94201 0.7667,0.83689 1.46159,1.45403 1.5442,1.37142 0.0826,-0.0826 0.13233,0.007 0.1105,0.19818 -0.0218,0.1916 0.25797,0.9579 0.62177,1.70288 l 0.66146,1.35452 0.59396,-0.95764 c 0.32668,-0.52671 0.59294,-1.07671 0.5917,-1.22223 z"
         id="path440" /><path
         style="fill:#42689f"
         d="m 144.95689,172.90719 c -0.89226,-0.19405 -1.96382,-0.53163 -2.38125,-0.75018 -2.6072,-1.36501 -4.59543,-4.44606 -4.59543,-7.12128 0,-1.70572 0.52536,-2.53678 3.30459,-5.22739 1.62148,-1.56978 9.49219,-11.16923 14.02561,-17.10622 8.23246,-10.78127 8.49141,-11.08367 10.1151,-11.81234 1.84175,-0.82653 4.16083,-1.45545 6.00032,-1.62725 0.81355,-0.076 1.04977,-0.0512 0.59642,0.0626 l -0.75067,0.18841 0.68452,0.64144 c 0.50507,0.47328 0.67742,0.88944 0.65744,1.5875 l -0.0271,0.94606 -0.20909,-0.88441 c -0.33171,-1.40301 -0.55281,-1.48973 -2.53116,-0.99279 -0.97309,0.24444 -1.82203,0.39165 -1.88653,0.32715 -0.0645,-0.0645 0.7162,-0.33198 1.7349,-0.5944 1.01869,-0.26243 1.787,-0.58258 1.70735,-0.71146 -0.24835,-0.40184 -3.07049,0.26708 -6.03734,1.43101 -1.06485,0.41776 -1.58098,0.86277 -2.64583,2.28126 -7.69731,10.25355 -18.64701,23.87532 -21.51971,26.77116 -2.59127,2.61215 -2.9773,3.22101 -2.91822,4.60273 0.0264,0.61761 0.0666,0.68443 0.15032,0.25018 0.317,-1.64328 4.56603,-4.48081 9.45827,-6.31629 2.77629,-1.04162 2.95662,-1.07473 4.23451,-0.77768 0.7341,0.17065 1.57279,0.4535 1.86374,0.62856 0.48208,0.29007 0.46636,0.30417 -0.17722,0.15905 -0.76789,-0.17315 -1.35534,0.44086 -1.66423,1.73948 -0.12941,0.54404 0.006,0.77145 0.76164,1.28115 0.50544,0.34083 1.01466,0.55892 1.1316,0.48464 0.11695,-0.0743 0.5102,-0.68497 0.8739,-1.35707 0.5702,-1.05372 0.60664,-1.25654 0.26458,-1.47277 -0.3169,-0.20033 -0.27381,-0.25158 0.21424,-0.25482 0.39381,-0.003 0.54384,-0.11261 0.42214,-0.30951 -0.1179,-0.19078 -0.0725,-0.23358 0.121,-0.11401 0.17038,0.1053 0.25111,0.28637 0.17941,0.40239 -0.17124,0.27707 0.8666,1.21249 1.0935,0.9856 0.0961,-0.0961 0.0288,-0.17477 -0.14953,-0.17477 -0.17837,0 -0.25071,-0.11906 -0.16078,-0.26458 0.0899,-0.14552 -0.0291,-0.26459 -0.26458,-0.26459 -0.23546,0 -0.35668,-0.11556 -0.26939,-0.25681 0.29888,-0.48359 -0.63142,-1.79929 -1.48184,-2.09575 -1.17568,-0.40984 -3.65565,-0.36399 -6.41464,0.11861 -1.28978,0.22561 -2.40515,0.35008 -2.47862,0.27662 -0.3235,-0.32351 4.026,-0.94857 6.61809,-0.95108 1.29934,-0.001 2.42196,0.15346 3.04271,0.41935 1.28748,0.55149 2.4389,0.73872 2.4389,0.39659 0,-0.14969 -0.17995,-0.20312 -0.39988,-0.11872 -0.29718,0.11404 -0.35358,0.0328 -0.21962,-0.31629 0.11178,-0.2913 0.0772,-0.40604 -0.0911,-0.30205 -0.16614,0.10268 -0.22593,-0.0698 -0.15421,-0.44493 0.10168,-0.53192 -0.0377,-0.65596 -1.05807,-0.94164 -1.31487,-0.36815 -3.94371,-0.21801 -6.94069,0.3964 -2.19392,0.44976 -1.98438,0.43466 -1.98438,0.14302 0,-0.69512 10.04147,-1.64668 10.06231,-0.95353 0.004,0.14553 0.13474,0.0465 0.28971,-0.22 0.15496,-0.26653 0.22205,-0.71289 0.14908,-0.99193 -0.073,-0.27903 -0.0168,-0.57896 0.12488,-0.66651 0.14166,-0.0875 0.32296,0.0909 0.4029,0.39662 0.16715,0.6392 0.36228,0.69007 0.86327,0.22505 0.28505,-0.26458 0.31897,-0.26458 0.16959,0 -0.10269,0.18191 -0.0705,0.33073 0.0714,0.33073 0.14198,0 0.3182,-0.14882 0.3916,-0.33073 0.0782,-0.19372 0.14211,-0.1346 0.15434,0.14273 0.0173,0.39146 0.0848,0.41437 0.39,0.13229 0.203,-0.18764 0.30367,-0.44885 0.2237,-0.58048 -0.08,-0.13162 -0.0364,-0.17195 0.0968,-0.0896 0.29446,0.18198 1.01464,-0.31721 1.24318,-0.8617 0.0916,-0.21828 0.10024,0.036 0.0192,0.56502 -0.15846,1.03395 0.2925,1.63349 0.74484,0.99023 0.17976,-0.25564 0.2136,-0.12737 0.11321,0.42913 -0.0788,0.43656 -0.0785,0.64492 6.5e-4,0.46302 0.0791,-0.1819 0.31251,-0.33073 0.51866,-0.33073 0.20616,0 0.37483,-0.12609 0.37483,-0.2802 0,-0.15411 -0.10938,-0.2126 -0.24306,-0.12998 -0.13368,0.0826 -0.32196,-0.20905 -0.4184,-0.64815 -0.10545,-0.48011 -0.29016,-0.72741 -0.46337,-0.62037 -0.18763,0.11597 -0.22488,0.0135 -0.10688,-0.29402 0.12092,-0.31512 -0.01,-0.63737 -0.3924,-0.96944 -0.31544,-0.27358 -0.47812,-0.49742 -0.36151,-0.49742 0.11661,0 -0.16174,-0.35719 -0.61857,-0.79375 -0.72988,-0.69752 -1.01892,-0.79375 -2.38414,-0.79375 -0.85446,0 -2.53429,0.24409 -3.73296,0.54242 -1.19866,0.29833 -2.30853,0.49937 -2.46636,0.44676 -0.65807,-0.21935 4.88593,-1.30412 6.86585,-1.3434 1.18245,-0.0235 2.06472,-0.10219 1.96061,-0.17495 -0.10411,-0.0728 -0.10355,-0.42995 0.001,-0.79375 l 0.19053,-0.66146 0.0264,0.70871 c 0.0145,0.38978 0.18188,0.86603 0.37195,1.05833 0.19006,0.1923 0.5691,0.73011 0.84229,1.19514 0.2732,0.46502 0.62371,0.77336 0.77891,0.68518 0.1552,-0.0882 0.19763,-0.0666 0.0943,0.0479 -0.21836,0.24205 0.48972,1.72867 0.82337,1.72867 0.12376,0 0.64708,-0.80367 1.16295,-1.78594 0.81619,-1.55413 0.89593,-1.86428 0.61433,-2.38955 -0.17798,-0.33198 -0.38686,-0.54034 -0.46418,-0.46302 -0.0773,0.0773 -0.14059,-0.0362 -0.14059,-0.25234 0,-0.67622 -1.77884,-3.05538 -2.40455,-3.21604 -0.7811,-0.20057 -5.50167,0.59492 -7.39415,1.24603 -1.76191,0.60618 -2.44863,0.65819 -1.13741,0.0861 1.1002,-0.48 7.47491,-1.98629 8.53343,-2.01639 0.85608,-0.0243 1.94208,1.04458 3.09727,3.04854 l 0.73145,1.26889 0.83038,-1.62243 c 0.45671,-0.89234 0.83038,-1.72486 0.83038,-1.85003 0,-0.36443 -1.75431,-3.24054 -2.38486,-3.90986 -0.50921,-0.54054 -0.74881,-0.59454 -2.07203,-0.46704 l -1.49623,0.14418 1.32291,-0.38776 c 0.72761,-0.21326 1.57966,-0.39005 1.89346,-0.39286 0.45304,-0.004 0.54367,-0.12771 0.44007,-0.60042 -0.10482,-0.47827 -0.0747,-0.51728 0.15301,-0.19843 0.15592,0.21828 0.28531,0.61928 0.28754,0.89111 0.002,0.27183 0.36538,0.92667 0.807,1.45521 1.1328,1.35573 1.1841,1.42891 1.41557,2.0193 0.17801,0.45404 0.31191,0.32469 0.94304,-0.91097 0.71402,-1.39794 0.72306,-1.46781 0.30836,-2.38412 -0.76227,-1.6843 -1.85838,-3.38594 -2.287,-3.55042 -0.23024,-0.0883 -1.45379,0.0748 -2.719,0.36246 -3.59232,0.81688 -3.70077,0.83383 -2.69726,0.42151 0.50933,-0.20927 1.12665,-0.38955 1.37184,-0.40062 0.24519,-0.0111 0.78097,-0.1563 1.19063,-0.32273 0.40965,-0.16643 1.1473,-0.34333 1.63921,-0.3931 0.49191,-0.0498 1.05604,-0.22467 1.25364,-0.38866 0.27473,-0.228 0.39778,-0.19777 0.52299,0.12852 0.09,0.23467 0.32958,0.42667 0.53229,0.42667 0.20272,0 0.36857,0.12609 0.36857,0.2802 0,0.15411 0.13746,0.19525 0.30546,0.0914 0.1851,-0.11439 0.23381,-0.0728 0.12363,0.10544 -0.10001,0.16182 0.16398,0.94227 0.58665,1.73434 l 0.7685,1.44013 0.58296,-1.03725 c 0.43913,-0.78132 0.53618,-1.24811 0.39335,-1.8919 -0.1631,-0.73516 -0.21622,-0.78067 -0.3799,-0.32549 -0.14876,0.41367 -0.23347,0.2767 -0.38814,-0.62759 -0.13288,-0.77691 -0.35209,-1.1971 -0.66756,-1.27959 -0.29437,-0.077 -0.42424,-0.29675 -0.3479,-0.58869 0.18238,-0.69744 -1.11336,-1.15634 -2.29822,-0.81394 -0.50836,0.1469 -1.1632,0.25718 -1.45521,0.24506 -0.47835,-0.0199 1.59722,-0.59552 3.18589,-0.8836 0.82402,-0.14942 2.55931,0.33251 2.35977,0.65536 -0.0851,0.13765 -0.051,0.25028 0.0757,0.25028 0.12672,0 0.25255,1.02946 0.2796,2.28769 l 0.0492,2.28768 -1.68523,3.20242 c -7.69456,14.62188 -10.85635,21.55982 -11.82902,25.95659 -0.29535,1.33505 -0.56482,1.80196 -1.69458,2.93614 -1.48992,1.49575 -2.77774,2.04364 -5.82436,2.47791 -2.45687,0.35021 -4.66972,0.31014 -6.64936,-0.12041 z m 7.46598,-1.48172 c 0.69833,-0.35031 1.38778,-0.83388 1.53211,-1.07459 0.3748,-0.62512 -1.22001,-3.80038 -2.16703,-4.31456 -0.48859,-0.26528 -0.57097,-0.38928 -0.26346,-0.39656 0.8466,-0.02 0.76984,-0.53562 -0.14467,-0.97172 -0.99531,-0.47463 -1.83471,-0.34053 -1.6056,0.25652 0.12008,0.31294 -0.0564,0.32804 -1.08441,0.0928 -1.34434,-0.30763 -5.91682,0.12215 -7.22723,0.6793 -1.88484,0.80139 -2.112,1.90486 -0.75804,3.68227 1.63894,2.15152 3.74589,2.88828 7.89705,2.76145 2.0644,-0.0631 2.79401,-0.19958 3.82128,-0.71489 z"
         id="path439" /><path
         style="fill:#333539"
         d="m 146.21257,173.03787 c -1.70969,-0.1898 -3.56293,-0.77023 -4.39591,-1.37679 -2.78838,-2.03049 -4.23014,-5.04107 -3.71898,-7.76576 0.14376,-0.76631 0.81401,-1.62901 3.14783,-4.05166 1.63085,-1.69292 3.6143,-3.91147 4.40767,-4.93012 0.79337,-1.01864 1.50712,-1.91161 1.5861,-1.98437 0.17817,-0.16414 6.64698,-8.33364 8.17063,-10.31875 0.61432,-0.80037 2.76148,-3.59833 4.77148,-6.21771 2.81124,-3.66353 3.89196,-4.87571 4.68345,-5.25313 1.24524,-0.59379 4.05188,-1.4923 4.60078,-1.47287 0.21828,0.008 -0.50496,0.29076 -1.6072,0.62897 -2.51499,0.7717 -4.11352,1.57914 -4.47928,2.26255 -0.15583,0.29119 -2.15815,2.93994 -4.4496,5.88612 -2.29144,2.94618 -4.75198,6.1306 -5.46785,7.07649 -0.71588,0.94588 -1.36795,1.77932 -1.44904,1.85208 -0.0811,0.0728 -2.00744,2.46401 -4.28076,5.31388 -2.27332,2.84988 -5.22712,6.28693 -6.564,7.63788 -2.58621,2.61345 -2.93696,3.18525 -2.89924,4.7264 l 0.0239,0.97497 0.23832,-0.82141 c 0.55084,-1.89864 4.2795,-4.39238 9.6298,-6.44045 2.2165,-0.84846 2.68723,-0.92 4.14015,-0.62922 l 0.89297,0.17872 -0.79375,0.33852 c -0.473,0.20172 -0.60894,0.34333 -0.3364,0.35044 0.39311,0.0103 0.41436,0.10627 0.15131,0.68362 -0.17796,0.39056 -0.45499,0.61452 -0.66191,0.53512 -0.2699,-0.10357 -0.29381,-0.0206 -0.099,0.34347 0.1413,0.26401 0.21146,0.83909 0.15592,1.27794 -0.0901,0.71173 -0.003,0.82803 0.80755,1.07675 0.72969,0.22395 0.90854,0.20722 0.90854,-0.085 0,-0.20009 0.16287,-0.3013 0.36195,-0.22491 0.32538,0.12486 0.74389,-0.38385 1.91311,-2.32547 0.27807,-0.46175 0.32192,-0.45815 1.00968,0.0828 1.00704,0.79215 1.96025,2.39155 2.36284,3.96465 l 0.3422,1.33714 0.32465,-1.0836 c 0.17856,-0.59598 0.25258,-1.20021 0.1645,-1.34274 -0.0881,-0.14253 -0.0303,-0.25914 0.12834,-0.25914 0.15868,0 0.35977,-0.20836 0.44688,-0.46302 0.0871,-0.25467 0.9242,-2.17357 1.86023,-4.26423 0.93602,-2.09067 1.63866,-3.9659 1.56141,-4.16719 -0.0772,-0.20129 0.006,-0.36598 0.18522,-0.36598 0.46891,0 4.79578,-8.45722 4.7378,-9.26042 -0.0331,-0.45877 0.022,-0.55206 0.17993,-0.30445 0.15926,0.24972 0.73202,-0.64095 1.90608,-2.96405 0.92312,-1.82657 1.72402,-3.27543 1.77978,-3.21968 0.0557,0.0558 -1.92364,4.06848 -4.39866,8.91717 -5.88915,11.53719 -8.33906,17.14397 -9.17022,20.98664 -0.82141,3.79763 -6.06223,5.90872 -12.80919,5.15974 z m 5.3833,-1.17463 c 1.40146,-0.42178 2.52392,-1.32012 2.52392,-2.01999 0,-0.2509 -0.35235,-1.126 -0.78299,-1.94466 -0.43064,-0.81867 -0.71419,-1.66776 -0.63011,-1.88688 0.31549,-0.82214 -2.36614,-2.22922 -3.45336,-1.81201 -0.56007,0.21492 -0.54135,0.56785 0.0378,0.71281 0.25466,0.0637 -0.37041,0.0582 -1.38906,-0.0123 -2.21854,-0.15361 -5.3613,0.2949 -6.93063,0.98909 -0.98982,0.43784 -1.13916,0.61164 -1.13916,1.32567 0,0.45197 0.17088,1.15223 0.37975,1.55612 0.60684,1.1735 2.40195,2.62509 3.64015,2.94355 0.62671,0.16119 1.25854,0.33679 1.40406,0.39023 0.72862,0.26753 5.21615,0.0965 6.33962,-0.24159 z"
         id="path438" /></g></g></svg>
