<?xml version="1.0" encoding="UTF-8" standalone="no"?>
<!-- Created with Inkscape (http://www.inkscape.org/) -->

<svg
   width="53.710442mm"
   height="65.64193mm"
   viewBox="0 0 53.710442 65.64193"
   version="1.1"
   id="svg1"
   inkscape:export-filename="keto-sourcing.svg"
   inkscape:export-xdpi="96"
   inkscape:export-ydpi="96"
   xml:space="preserve"
   xmlns:inkscape="http://www.inkscape.org/namespaces/inkscape"
   xmlns:sodipodi="http://sodipodi.sourceforge.net/DTD/sodipodi-0.dtd"
   xmlns="http://www.w3.org/2000/svg"
   xmlns:svg="http://www.w3.org/2000/svg"><sodipodi:namedview
     id="namedview1"
     pagecolor="#ffffff"
     bordercolor="#000000"
     borderopacity="0.25"
     inkscape:showpageshadow="2"
     inkscape:pageopacity="0.0"
     inkscape:pagecheckerboard="0"
     inkscape:deskcolor="#d1d1d1"
     inkscape:document-units="mm"><inkscape:page
       x="0"
       y="0"
       width="53.710442"
       height="65.64193"
       id="page2"
       margin="0"
       bleed="0" /></sodipodi:namedview><defs
     id="defs1" /><g
     inkscape:label="Calque 1"
     inkscape:groupmode="layer"
     id="layer1"
     transform="translate(-69.315688,-86.434237)"><g
       id="g115"
       transform="translate(60.187572,8.653578)"><path
         style="fill:#cde1ef"
         d="M 9.1281261,110.59583 V 77.787498 H 35.983334 62.838541 v 32.808332 32.80834 H 35.983334 9.1281261 Z"
         id="path122" /><path
         style="fill:#b9d2e5"
         d="m 20.505209,142.82676 c 0.800365,-0.2943 2.387979,-0.93963 3.528031,-1.43405 1.140053,-0.49443 2.241381,-0.89896 2.447396,-0.89896 0.206015,0 0.374573,-0.13294 0.374573,-0.29543 0,-0.17084 0.273356,-0.24317 0.648203,-0.17151 0.356511,0.0681 0.69859,-0.007 0.760176,-0.16789 0.06159,-0.16049 0.990285,-0.75652 2.063776,-1.32451 1.073492,-0.56799 2.011334,-1.11736 2.084095,-1.22081 0.07276,-0.10346 0.370416,-0.26566 0.661458,-0.36044 0.291042,-0.0948 0.826823,-0.41647 1.190625,-0.71487 0.479987,-0.39371 0.516281,-0.47514 0.132292,-0.29681 -0.923025,0.42864 -2.043692,0.62897 -1.860511,0.33257 0.10005,-0.16188 0.0017,-0.20826 -0.242721,-0.11447 -0.514448,0.19741 -4.114476,-0.6653 -4.114476,-0.986 0,-0.12984 -0.216982,-0.23608 -0.482182,-0.23608 -0.672539,0 -3.493709,-1.54965 -4.22384,-2.32013 -0.332739,-0.35113 -0.788209,-0.91806 -1.012155,-1.25984 -0.235938,-0.36009 -0.566946,-0.56012 -0.787084,-0.47565 -0.27807,0.10671 -0.332631,0.0138 -0.203542,-0.34669 0.097,-0.27087 0.291523,-0.64131 0.432272,-0.82321 0.140749,-0.1819 0.173293,-0.33073 0.07232,-0.33073 -0.100973,0 -0.331571,0.14883 -0.512441,0.33073 -0.395717,0.39797 -2.279182,3.32018 -2.279182,3.53617 0,0.0838 -0.246232,0.49826 -0.547183,0.9209 -0.300951,0.42265 -0.449779,0.776 -0.330729,0.78522 0.11905,0.009 -0.02782,0.11572 -0.326389,0.23665 -0.344517,0.13954 -0.727026,0.76174 -1.046978,1.70302 -0.277275,0.81573 -0.611281,1.48314 -0.742236,1.48314 -0.130955,0 -0.157371,-0.20836 -0.0587,-0.46302 0.240483,-0.62068 0.648922,-2.82222 0.543205,-2.92793 -0.193399,-0.1934 -0.688938,1.85374 -1.075173,4.4417 -0.227417,1.52379 -0.474785,2.83184 -0.549707,2.90676 -0.07492,0.0749 -0.115024,-1.35042 -0.08912,-3.16741 0.0334,-2.34241 -0.110503,-4.18895 -0.494574,-6.34635 -0.803361,-4.51262 -1.103251,-8.01527 -1.103251,-12.88572 v -4.36299 l 0.929614,-1.95898 c 0.511288,-1.07744 1.093693,-1.95897 1.294234,-1.95897 0.697478,0 0.816631,-2.21117 0.142719,-2.64849 -0.11437,-0.0742 -0.286547,-0.49093 -0.382615,-0.92604 -0.09607,-0.4351 -0.07574,-0.67204 0.04517,-0.52652 0.30629,0.36864 1.968843,0.93922 2.242985,0.76979 0.124196,-0.0768 0.225811,-0.0135 0.225811,0.14064 0,0.15411 0.119062,0.2802 0.264583,0.2802 0.145521,0 0.264584,-0.29766 0.264584,-0.66146 0,-0.3638 -0.119063,-0.66146 -0.264584,-0.66146 -0.145521,0 -0.264583,-0.21163 -0.264583,-0.47029 0,-0.25866 -0.185345,-0.73491 -0.411878,-1.05834 -0.374974,-0.53535 -0.373377,-0.58803 0.01783,-0.58803 0.319465,0 0.386214,-0.15273 0.260177,-0.59532 -0.144735,-0.50824 -0.05625,-0.47077 0.604988,0.25618 l 0.774518,0.8515 0.298021,-0.65409 c 0.171823,-0.37711 0.228976,-1.15783 0.134969,-1.84368 -0.118337,-0.86336 -0.07217,-1.18959 0.168354,-1.18959 0.201143,0 0.277013,-0.208 0.193025,-0.52917 -0.07611,-0.29104 -0.03586,-0.52917 0.08944,-0.52917 0.125303,0 0.308275,-0.44648 0.406603,-0.99219 0.09833,-0.545698 0.262653,-1.111245 0.365164,-1.256766 0.102511,-0.145521 0.404601,-1.098021 0.67131,-2.116667 0.706488,-2.698297 1.178602,-3.751653 1.473007,-3.286499 0.130917,0.206845 0.243641,0.554676 0.250497,0.772958 0.0069,0.218281 0.179992,0.618032 0.384745,0.888336 0.32964,0.435171 0.354741,0.321531 0.219153,-0.992188 -0.132639,-1.285149 -0.09235,-1.483648 0.301118,-1.483648 0.498001,0 2.001038,-1.375866 2.001038,-1.831731 0,-0.156715 0.148828,-0.285082 0.330729,-0.285259 0.365687,-3.58e-4 1.785938,-1.143548 1.785938,-1.43754 0,-0.102119 -0.345802,0.06056 -0.768448,0.361513 -0.422647,0.300951 -0.839125,0.547183 -0.925506,0.547183 -0.08638,0 -0.662669,0.47625 -1.280637,1.058334 -0.617968,0.582083 -1.273053,1.058333 -1.455744,1.058333 -0.182691,0 -0.332165,0.119062 -0.332165,0.264583 0,0.417274 -0.793616,0.308213 -0.962653,-0.132291 -0.192955,-0.502831 -0.624847,-0.518071 -0.624847,-0.02205 0,0.206154 -0.0893,0.414514 -0.198438,0.463021 -0.312589,0.138928 -1.653646,2.007805 -1.653646,2.304496 0,0.146979 -0.229456,0.427952 -0.509903,0.624384 -0.280447,0.196433 -0.656746,0.679434 -0.83622,1.073337 -0.354385,0.777792 -0.640852,0.903631 -0.877469,0.385457 -0.08306,-0.181901 -0.110647,0.14552 -0.0613,0.727604 0.04935,0.582083 0.03957,0.849974 -0.02172,0.595312 -0.134185,-0.557515 -0.130685,-0.557254 -1.242174,-0.09284 -0.754058,0.315066 -0.872379,0.482475 -0.794755,1.124479 0.05016,0.414867 0.02722,0.545943 -0.05099,0.291282 -0.103864,-0.33822 -0.422218,-0.463021 -1.181122,-0.463021 h -1.038933 v -1.190625 -1.190625 h -1.058333 c -1.05342,0 -1.058333,-0.0048 -1.058333,-1.02965 0,-0.864961 0.10113,-1.055033 0.632274,-1.188342 0.711914,-0.178678 1.108108,-0.909959 0.709148,-1.308919 -0.174844,-0.174844 -0.348886,-0.03865 -0.517572,0.405033 -0.139781,0.367652 -0.441862,0.740491 -0.67129,0.828531 -0.229429,0.08804 -0.420906,0.312637 -0.425505,0.499106 -0.01066,0.432095 -1.1998667,1.794241 -1.5664475,1.794241 -0.1881755,0 -0.2772744,-3.060746 -0.2772744,-9.525 v -9.525001 l 9.4588539,0.0051 9.458854,0.0051 -1.045165,0.912085 c -0.574841,0.501647 -0.981194,0.976057 -0.903007,1.054244 0.07819,0.07819 0.630041,-0.336087 1.226343,-0.920609 l 1.084185,-1.062768 9.159952,0.06959 9.159953,0.06959 -4.181756,2.098678 c -2.299966,1.154272 -4.221443,2.196069 -4.26995,2.315104 -0.04851,0.119035 -0.197686,0.216427 -0.33151,0.216427 -0.133823,0 -0.808511,0.354925 -1.499305,0.788722 -0.690795,0.433798 -1.110829,0.790986 -0.933409,0.79375 0.464679,0.0072 2.262037,-0.965987 2.925487,-1.584084 0.311445,-0.290155 0.752202,-0.527555 0.979459,-0.527555 0.227258,0 0.857315,-0.280262 1.400126,-0.622805 0.542811,-0.342543 1.25482,-0.707754 1.582242,-0.81158 0.327422,-0.103826 0.595313,-0.299814 0.595313,-0.435528 0,-0.135715 0.17481,-0.246754 0.388468,-0.246754 0.213657,0 1.363042,-0.47625 2.554189,-1.058333 l 2.165721,-1.058334 h 7.367686 7.367685 v 8.995834 8.995834 H 53.975 45.111458 l -0.0186,0.595312 c -0.01767,0.565545 -0.02938,0.568852 -0.234267,0.06615 -0.194107,-0.47626 -0.235575,-0.449807 -0.414761,0.264583 -0.1095,0.436563 -0.320824,0.948011 -0.469608,1.136553 -0.148785,0.188541 -0.255056,0.754088 -0.236158,1.25677 0.02418,0.643198 -0.08083,0.913973 -0.354458,0.913973 -0.21385,0 -0.388818,0.2282 -0.388818,0.50712 0,0.27891 -0.09491,0.5468 -0.210905,0.59531 -0.115998,0.0485 -0.75079,1.15976 -1.41065,2.46944 -1.347923,2.67536 -2.150976,4.16891 -2.347195,4.36543 -0.07276,0.0729 -0.358674,0.54921 -0.635364,1.05853 -0.689388,1.26901 -2.878043,4.2297 -3.687809,4.98866 -0.393687,0.36899 -0.797278,0.54112 -0.989788,0.42214 -0.190968,-0.11802 -0.25734,-0.0913 -0.160902,0.0647 0.327796,0.53038 -1.138341,1.3629 -4.271613,2.42556 -3.160633,1.07194 -6.475396,2.58739 -7.670463,3.5068 -0.787145,0.60558 -2.116646,2.43894 -2.589742,3.57122 -0.598321,1.43198 -0.466679,2.28543 0.492661,3.19396 0.927098,0.87799 3.074642,2.31868 3.505729,2.35183 0.145521,0.0112 0.919427,0.22809 1.719791,0.48199 2.949104,0.93553 11.159819,0.80225 16.256732,-0.26389 3.021985,-0.63212 7.156097,-1.91249 10.198344,-3.15851 1.574382,-0.64482 3.975352,-1.48837 5.335489,-1.87456 3.63145,-1.0311 4.393155,-1.47261 4.619186,-2.67746 0.357783,-1.90715 0.17281,-3.87261 -0.566648,-6.02099 -0.400697,-1.16417 -0.814142,-2.23573 -0.918766,-2.38125 -0.291882,-0.40598 -0.287166,-2.29455 0.0053,-2.11381 0.141227,0.0873 0.184238,-0.0246 0.09692,-0.25218 -0.08634,-0.225 -0.233806,-0.36185 -0.327699,-0.3041 -0.09389,0.0577 -0.195685,-0.24059 -0.226207,-0.66298 -0.03052,-0.42238 0.0658,-0.76797 0.214052,-0.76797 0.148251,0 0.201047,0.11083 0.117325,0.2463 -0.08372,0.13547 -0.04167,0.31463 0.09345,0.39814 0.13512,0.0835 0.211146,-0.0571 0.168947,-0.31245 -0.06315,-0.38215 0.24456,-0.93491 1.340311,-2.40769 0.03737,-0.0502 0.433647,-0.011 0.880615,0.0872 l 0.812669,0.17849 v 17.83835 17.83836 h -6.24998 -6.24998 l 0.432885,-0.59532 c 0.238087,-0.32742 0.505702,-0.74994 0.5947,-0.93895 0.089,-0.189 0.504034,-0.68585 0.922303,-1.10412 0.418269,-0.41827 0.756207,-0.91848 0.750974,-1.11157 -0.0053,-0.19391 -0.271764,-0.0396 -0.595313,0.34463 -0.322188,0.38264 -1.11405,1.30537 -1.759692,2.05052 l -1.173894,1.35481 h -6.188593 -6.188593 l 0.786099,-0.66146 c 0.432354,-0.3638 0.907817,-0.66146 1.056585,-0.66146 0.148767,0 0.310173,-0.0937 0.35868,-0.20823 0.04851,-0.11453 0.621036,-0.62055 1.272287,-1.12448 0.65125,-0.50394 1.344364,-1.06508 1.540253,-1.24698 0.195888,-0.1819 0.45398,-0.33073 0.573538,-0.33073 0.119557,0 0.288786,-0.18608 0.376063,-0.41353 0.121653,-0.31702 -0.0202,-0.28614 -0.607849,0.1323 -0.421594,0.3002 -0.837118,0.54582 -0.923386,0.54582 -0.08627,0 -0.901325,0.53902 -1.811239,1.19784 -0.909914,0.65881 -1.932387,1.39745 -2.272162,1.64142 -0.339775,0.24398 -0.80182,0.47061 -1.026768,0.50362 -0.224947,0.033 -0.536309,0.18734 -0.691914,0.34295 -0.430791,0.43079 -13.453877,0.38606 -13.921318,-0.0478 -0.195974,-0.1819 -0.290717,-0.21167 -0.210542,-0.0661 0.08745,0.15873 -0.399823,0.28259 -1.217955,0.30958 l -1.363729,0.045 z m 8.062298,-44.853752 c 0.110616,-1.102943 0.347779,-2.037085 0.562405,-2.215209 0.204122,-0.169406 0.37113,-0.472025 0.37113,-0.672488 0,-0.200463 0.238125,-0.364479 0.529167,-0.364479 0.440972,0 0.529166,-0.176389 0.529166,-1.058333 0,-0.764352 0.110243,-1.058333 0.396875,-1.058333 0.218282,0 0.396875,-0.184346 0.396875,-0.409656 0,-0.225311 0.238125,-0.902518 0.529167,-1.504905 0.291042,-0.602387 0.520798,-1.459839 0.51057,-1.905449 -0.01259,-0.548512 -0.07668,-0.669282 -0.198437,-0.373912 -0.09891,0.239958 -0.515458,0.77574 -0.925655,1.190625 -0.410198,0.414886 -1.314665,1.365595 -2.009927,2.112687 -0.695262,0.747092 -1.520505,1.439725 -1.833873,1.539184 -0.393289,0.124825 -0.572367,0.400673 -0.578176,0.890609 -0.0046,0.390376 -0.198101,0.9479 -0.429941,1.238942 -0.416113,0.522371 -0.419732,0.521563 -0.281798,-0.06286 0.124817,-0.528849 0.01541,-0.490155 -1.025268,0.362601 -1.312197,1.075248 -1.43901,1.651147 -0.557656,2.532501 0.628842,0.628842 0.923155,0.720191 1.379954,0.428312 0.467717,-0.298854 1.098636,0.409386 1.29375,1.452305 l 0.188711,1.00869 0.480843,-0.61182 c 0.302818,-0.3853 0.551659,-1.317925 0.672118,-2.519014 z m -1.30597,31.907582 c -4.045991,-0.58941 -8.079245,-2.75387 -8.079245,-4.33575 0,-0.82976 1.19867,-3.0798 2.169957,-4.07326 1.347902,-1.37866 5.469978,-3.29171 10.133168,-4.70279 0.727604,-0.22017 1.620573,-0.67309 1.984375,-1.00648 1.623746,-1.48802 7.158949,-5.57895 8.978525,-6.6358 1.100926,-0.63945 2.712276,-1.89389 3.580779,-2.78765 2.556504,-2.63085 3.114272,-2.97707 4.468873,-2.77393 1.252175,0.18777 1.933152,0.76059 2.722971,2.29048 1.300367,2.51884 1.537433,2.88834 1.853093,2.88834 0.193135,0 0.273893,-0.17115 0.187272,-0.39688 -0.122821,-0.32006 0.102943,-0.39687 1.166532,-0.39687 1.335535,0 2.139307,0.47776 1.780496,1.05833 -0.09782,0.15827 -0.06484,0.43138 0.07328,0.60691 0.138121,0.17552 0.32051,1.09304 0.405309,2.03893 0.09587,1.06938 0.478558,2.47026 1.011886,3.70416 0.765218,1.7704 0.859488,2.26127 0.87424,4.55221 0.02002,3.10831 0.12559,2.99586 -3.932537,4.18853 -1.594543,0.46863 -3.998487,1.30958 -5.342098,1.86878 -2.382532,0.99158 -7.367528,2.56207 -10.023413,3.15782 -3.90039,0.87489 -10.682065,1.24023 -14.013463,0.75492 z"
         id="path121" /><path
         style="fill:#b0c7d6"
         d="m 15.04695,139.43542 c 0.121904,-1.98851 0.06102,-3.30454 -0.214209,-4.63021 -0.598038,-2.88053 -1.193637,-7.87066 -1.381632,-11.57579 -0.145031,-2.85837 -0.107719,-3.44439 0.244267,-3.83646 0.228495,-0.25451 0.616954,-0.96877 0.863243,-1.58723 0.246288,-0.61846 0.561416,-1.12448 0.700283,-1.12448 0.138868,0 0.216187,-0.21427 0.171821,-0.47615 -0.07689,-0.45385 0.576312,-1.48079 1.800608,-2.83083 0.642642,-0.70864 0.577403,-1.62148 -0.207918,-2.90923 -0.266737,-0.43739 -0.476021,-1.03337 -0.465077,-1.32442 0.01094,-0.29104 0.08079,-0.37783 0.155207,-0.19287 0.168362,0.41845 1.615262,1.18707 1.901547,1.01013 0.116054,-0.0717 0.134282,-0.72848 0.04051,-1.45946 -0.164525,-1.28246 -0.13509,-1.36364 0.839555,-2.31535 1.008613,-0.98489 1.378041,-2.29965 0.708845,-2.52271 -0.315078,-0.10503 -0.175244,-0.69661 0.830978,-3.51557 0.259717,-0.727603 0.540688,-1.531275 0.624379,-1.785937 0.110249,-0.335477 0.435502,-0.463021 1.180761,-0.463021 h 1.028597 l 0.177234,2.125188 c 0.1739,2.08521 0.989014,4.84349 1.530163,5.17793 0.150779,0.0932 0.521669,-0.0781 0.824202,-0.38063 0.473626,-0.47362 0.506514,-0.64563 0.236679,-1.23785 -0.229386,-0.50345 -0.236109,-0.83218 -0.02508,-1.22648 0.158564,-0.29628 0.212765,-0.83964 0.120446,-1.20747 -0.151579,-0.60394 -0.128109,-0.62903 0.242086,-0.25884 0.225466,0.22547 0.409938,0.53751 0.409938,0.69342 0,0.42837 0.362484,0.3408 0.824916,-0.19928 0.227344,-0.26552 0.4872,-1.02153 0.577457,-1.680034 0.162674,-1.186833 0.927848,-2.859396 1.309606,-2.862614 0.10914,-9.2e-4 0.198437,-0.350356 0.198437,-0.776524 0,-0.426168 0.178594,-0.953445 0.396875,-1.171726 0.218281,-0.218282 0.396875,-0.518142 0.396875,-0.666357 0,-0.148215 0.297656,-0.829297 0.661458,-1.513514 0.363802,-0.684218 0.661459,-1.464424 0.661459,-1.733792 0,-0.269368 0.0893,-0.490689 0.198437,-0.491824 0.237613,-0.0025 0.859896,-1.283717 0.859896,-1.770476 0,-0.760775 0.740546,-0.303735 0.835705,0.515769 0.161162,1.387913 -0.269206,8.199599 -0.563923,8.92554 -0.293764,0.723596 -0.797888,4.820812 -0.618102,5.023572 0.06078,0.0685 0.221275,-0.0505 0.356655,-0.26459 0.186751,-0.29529 0.247123,-0.21364 0.250197,0.3384 0.0045,0.80744 0.190196,0.87255 1.189735,0.41713 0.404667,-0.18438 0.564619,-0.38266 0.393836,-0.48821 -0.196811,-0.12164 -0.136548,-0.4809 0.190929,-1.13823 0.398365,-0.79962 0.619546,-0.96158 1.320576,-0.967 0.581581,-0.004 0.889861,-0.1571 0.996571,-0.49331 0.08498,-0.26774 0.450189,-0.64505 0.81158,-0.838461 0.734139,-0.392899 0.86516,-0.791403 0.260199,-0.791403 -0.218281,0 -0.396875,-0.04914 -0.396875,-0.109198 0,-0.141769 1.743037,-2.836482 2.104203,-3.253073 0.152376,-0.175759 0.277047,-0.44365 0.277047,-0.595312 0,-0.151663 0.17057,-0.275751 0.379045,-0.275751 0.208475,0 0.44964,-0.222422 0.535922,-0.494272 0.08628,-0.27185 0.391961,-0.707022 0.679288,-0.967049 0.287326,-0.260027 0.522963,-0.662682 0.523636,-0.89479 0.0013,-0.463231 1.462408,-2.141805 1.86427,-2.141805 0.138145,0 0.251172,-0.416719 0.251172,-0.926042 0,-1.096674 0.408433,-1.234915 0.605336,-0.204885 0.174948,0.915179 -0.08469,3.512177 -0.351126,3.512177 -0.110509,0 -0.2554,0.506015 -0.321978,1.124479 -0.13774,1.279488 -0.505275,2.397011 -1.41541,4.303673 -0.348418,0.72991 -0.633488,1.467665 -0.633488,1.639455 0,0.488527 -3.755273,7.749057 -4.007946,7.749057 -0.123963,0 -0.225388,0.23813 -0.225388,0.52917 0,0.29104 -0.122009,0.52917 -0.271131,0.52917 -0.149123,0 -0.385181,0.29997 -0.524573,0.66659 -0.453759,1.19348 -2.955942,4.68703 -3.449413,4.81608 -0.264428,0.0691 -0.544808,0.29258 -0.623068,0.49652 -0.07826,0.20395 -0.294855,0.36898 -0.481323,0.36675 -0.240336,-0.003 -0.223497,-0.0858 0.05784,-0.28472 0.352778,-0.24949 0.352778,-0.26741 0,-0.16131 -0.218281,0.0656 -0.369392,0.24646 -0.335801,0.4018 0.09479,0.43838 -1.248219,1.3712 -1.974161,1.3712 -0.358105,0 -0.967127,0.16742 -1.353381,0.37204 -0.386255,0.20462 -1.297594,0.57399 -2.025198,0.82082 -2.506844,0.85044 -5.745872,2.62253 -6.861136,3.75377 -1.883919,1.91091 -2.731997,4.27345 -2.014973,5.61323 0.138609,0.25899 0.895373,0.91399 1.681698,1.45555 l 1.42968,0.98466 -0.711114,0.71111 c -0.391112,0.39112 -1.277287,1.6927 -1.969277,2.8924 -0.691989,1.19971 -1.408949,2.27071 -1.593245,2.38 -0.184295,0.10929 -0.581265,0.91309 -0.882157,1.78622 -0.640335,1.85812 -0.76656,1.19032 -0.191976,-1.01566 0.522321,-2.00532 0.494198,-2.13495 -0.153429,-0.70716 -0.296275,0.65319 -0.713394,2.43222 -0.926931,3.95341 -0.213537,1.52118 -0.461037,2.83223 -0.55,2.91343 -0.08896,0.0812 -0.08511,-1.10251 0.0086,-2.63048 z m 38.1343,2.38125 c -0.08994,-0.14552 -0.0968,-0.37255 -0.01525,-0.50449 0.08155,-0.13195 -0.116054,-0.17079 -0.43912,-0.0863 -0.537449,0.14055 -0.509293,0.0429 0.331158,-1.14915 0.505201,-0.71652 1.087138,-1.63018 1.293193,-2.03037 0.206055,-0.40018 0.473589,-0.7276 0.59452,-0.7276 0.12093,0 0.219874,-0.23812 0.219874,-0.52917 0,-0.29104 0.119062,-0.52916 0.264583,-0.52916 0.145521,0 0.264583,-0.19463 0.264583,-0.4325 0,-0.25267 -0.458136,0.1307 -1.10185,0.92203 -0.606017,0.74498 -1.320392,1.42388 -1.5875,1.50865 -0.267107,0.0848 -0.48565,0.37105 -0.48565,0.63617 0,0.26511 -0.219571,0.75318 -0.487936,1.0846 -0.459321,0.56724 -0.67655,0.60257 -3.704166,0.60257 -2.636777,0 -3.216231,0.0693 -3.216231,0.38458 0,0.31323 -0.3068,0.3535 -1.653645,0.21708 -0.909506,-0.0921 -1.891771,-0.17315 -2.182813,-0.18006 -0.488261,-0.0116 -0.478034,-0.0544 0.132292,-0.55378 0.956274,-0.78246 3.656651,-3.14214 4.567126,-3.99091 0.429276,-0.40018 0.65426,-0.7276 0.499964,-0.7276 -0.154295,0 -0.55384,0.27178 -0.887876,0.60395 -0.334037,0.33217 -1.024058,0.77189 -1.533381,0.97716 -0.509323,0.20527 -0.985953,0.45852 -1.059177,0.56278 -0.199801,0.28448 -8.319665,-0.25339 -8.421725,-0.55787 -0.04851,-0.1447 -0.346164,-0.26787 -0.661459,-0.2737 -0.507881,-0.009 -0.48503,-0.0584 0.200348,-0.42943 1.015602,-0.54985 1.936294,-1.41206 1.507843,-1.41206 -0.182527,0 -0.536346,0.10944 -0.786265,0.24319 -0.292419,0.1565 -1.017162,0.11081 -2.033126,-0.12816 -0.868302,-0.20424 -2.041812,-0.3732 -2.607801,-0.37548 -0.674885,-0.003 -1.473066,-0.27732 -2.319079,-0.79788 -0.709504,-0.43656 -1.407282,-0.79375 -1.550617,-0.79375 -0.143334,0 -0.260608,-0.11906 -0.260608,-0.26458 0,-0.14552 -0.238125,-0.26459 -0.529167,-0.26459 -0.291041,0 -0.529312,-0.0893 -0.52949,-0.19843 -1.77e-4,-0.10914 -0.295263,-0.54139 -0.655747,-0.96055 -0.360483,-0.41916 -0.592278,-0.86428 -0.515101,-0.98916 0.07718,-0.12487 -0.04581,-0.15562 -0.273295,-0.0683 -0.308674,0.11845 -0.369112,0.0427 -0.238207,-0.29839 0.151693,-0.3953 0.09924,-0.41635 -0.38792,-0.15563 -0.470084,0.25158 -0.537733,0.23478 -0.408686,-0.10151 0.187251,-0.48797 0.100342,-0.48818 2.194071,0.005 3.47447,0.81897 6.68665,0.97473 10.708061,0.51923 6.041648,-0.68433 10.597765,-1.83621 16.070199,-4.06287 1.364795,-0.55531 3.76913,-1.38946 5.342968,-1.85366 3.719537,-1.09707 4.052703,-1.32779 4.383456,-3.03568 0.431966,-2.23051 0.05517,-4.39244 -1.304773,-7.48633 -0.355502,-0.80877 -0.402542,-1.16827 -0.181753,-1.38906 0.220788,-0.22079 0.215711,-0.29788 -0.01962,-0.29788 -0.405981,0 -0.415549,-0.96651 -0.01204,-1.21589 0.180547,-0.11159 0.233972,-0.0731 0.130643,0.0941 -0.231761,0.375 0.216101,0.50292 1.312607,0.37491 0.53947,-0.063 0.897119,-0.25142 0.897119,-0.47267 0,-0.20236 0.178594,-0.36792 0.396875,-0.36792 0.347539,0 0.396875,1.66099 0.396875,13.36145 0,11.55944 -0.05228,13.36146 -0.387668,13.36146 -0.213218,0 -0.818329,0.37813 -1.344692,0.84028 -0.771753,0.67761 -1.001896,0.76767 -1.188814,0.46523 -0.184601,-0.29869 -0.298674,-0.30816 -0.560308,-0.0465 -0.180685,0.18068 -0.602362,0.32851 -0.937059,0.32851 -0.364538,0 -0.608542,0.15914 -0.608542,0.39688 0,0.28663 -0.293982,0.39687 -1.058333,0.39687 -0.582084,0 -1.058334,0.11907 -1.058334,0.26459 0,0.14552 -0.532804,0.26458 -1.18401,0.26458 -1.174456,0 -1.182729,0.006 -1.02526,0.79375 0.157208,0.78604 0.01131,1.03978 -0.304271,0.52917 z M 27.510464,129.91361 c -3.112495,-0.45752 -5.767848,-1.51418 -7.394773,-2.94264 -1.061454,-0.93197 -1.137739,-1.47975 -0.424742,-3.04993 1.243925,-2.7394 3.965841,-4.52732 9.882516,-6.49144 2.88975,-0.95929 3.329524,-1.19843 5.696723,-3.09776 3.701138,-2.96962 5.724179,-4.41966 7.447909,-5.3384 0.834457,-0.44476 2.279879,-1.59138 3.212049,-2.54803 2.68806,-2.75868 3.205237,-3.08481 4.567823,-2.88048 1.252175,0.18777 1.933152,0.76059 2.722971,2.29048 1.300367,2.51884 1.537433,2.88834 1.853093,2.88834 0.193135,0 0.273893,-0.17115 0.187272,-0.39688 -0.120379,-0.3137 0.07908,-0.39687 0.95174,-0.39687 1.363171,0 2.225954,0.42034 2.011244,0.97987 -0.08656,0.22556 -0.05257,0.54385 0.07554,0.70731 0.128103,0.16346 0.302297,1.0711 0.387096,2.01699 0.09508,1.06058 0.480775,2.48041 1.006225,3.70416 0.755663,1.75991 0.854555,2.27486 0.87424,4.5524 0.02669,3.0874 0.07467,3.03253 -3.549679,4.059 -1.382448,0.39153 -3.946813,1.28219 -5.698589,1.97925 -3.06196,1.21841 -7.262167,2.54591 -10.044119,3.17451 -3.741914,0.84551 -10.678834,1.2437 -13.764536,0.79012 z M 12.435418,90.752082 c -0.08994,-0.145521 0.05501,-0.264583 0.322106,-0.264583 0.406998,0 0.469286,-0.171358 0.384699,-1.058333 -0.08698,-0.912029 -0.188527,-1.058334 -0.734596,-1.058334 -0.348517,0 -0.633668,-0.119062 -0.633668,-0.264583 0,-0.145521 -0.119062,-0.264584 -0.264583,-0.264584 -0.145521,0 -0.264583,0.595313 -0.264583,1.322917 0,0.999537 -0.09701,1.322917 -0.396875,1.322917 -0.286632,0 -0.396875,-0.293982 -0.396875,-1.058333 0,-0.764352 -0.110243,-1.058334 -0.396875,-1.058334 -0.2182815,0 -0.3968752,-0.119062 -0.3968752,-0.264583 0,-0.357251 0.3539822,-0.333935 0.7364232,0.04851 0.1722,0.172199 0.400924,0.225257 0.508275,0.117905 0.107352,-0.107351 0.03097,-0.296674 -0.169733,-0.420716 -0.305677,-0.18892 -0.291655,-0.390608 0.08638,-1.242385 0.248212,-0.559269 0.562926,-1.195447 0.699363,-1.413728 0.136438,-0.218281 0.409996,-0.754062 0.607906,-1.190625 0.19791,-0.436563 0.556873,-0.957157 0.797696,-1.156876 0.240823,-0.199719 0.43786,-0.590409 0.43786,-0.8682 0,-0.27779 0.178594,-0.573606 0.396875,-0.657369 0.218282,-0.08376 0.396875,-0.276061 0.396875,-0.427331 0,-0.15127 0.423083,-0.912438 0.940185,-1.691484 l 0.940185,-1.416449 5.872836,0.0078 5.872836,0.0078 -0.826194,0.719849 c -0.454406,0.395916 -1.33885,1.136567 -1.965431,1.64589 -0.62658,0.509322 -1.726228,1.461823 -2.443661,2.116666 -0.717434,0.654844 -1.560789,1.369219 -1.874123,1.5875 -0.313334,0.218282 -1.664718,1.4982 -3.003076,2.844264 -1.342732,1.350463 -2.705094,2.488737 -3.039613,2.539641 -0.340451,0.05181 -0.647717,0.312805 -0.700853,0.595319 -0.187483,0.996826 -1.094925,1.543852 -1.492882,0.899943 z M 9.1281261,82.830197 v -5.042699 h 3.1906149 c 2.477427,0 3.148148,0.07393 3.000631,0.33073 -0.10449,0.181901 -0.587767,0.882462 -1.073948,1.556802 -0.48618,0.67434 -0.883965,1.290678 -0.883965,1.369641 0,0.07896 -0.568835,1.01551 -1.264078,2.081218 -0.695243,1.065708 -1.550824,2.509857 -1.901291,3.209219 -0.3504667,0.699363 -0.7341314,1.331467 -0.8525881,1.404678 -0.1184566,0.07321 -0.2153758,-2.136105 -0.2153758,-4.909589 z m 25.3999989,0.831052 c 0,-0.116417 0.142875,-0.354542 0.3175,-0.529167 0.246945,-0.246944 0.246945,-0.3175 0,-0.3175 -0.174625,0 -0.3175,0.119062 -0.3175,0.264583 0,0.145521 -0.120146,0.264584 -0.266991,0.264584 -0.34973,0 -1.849675,-1.437048 -1.849675,-1.772113 0,-0.142788 -0.300998,-0.396759 -0.668884,-0.564379 -0.367886,-0.16762 -0.737812,-0.484387 -0.822058,-0.703928 -0.08424,-0.21954 -0.47381,-0.399164 -0.865699,-0.399164 -0.391889,0 -0.825635,-0.108768 -0.96388,-0.241708 -0.418252,-0.4022 -1.271445,-0.416817 -1.971146,-0.03377 -0.59177,0.323962 -0.62569,0.318735 -0.321957,-0.04962 0.664689,-0.806093 1.731317,-1.059079 2.585841,-0.613316 0.703481,0.366972 0.787472,0.366092 0.868218,-0.0091 0.04917,-0.228454 -0.129427,-0.583586 -0.396875,-0.789183 -0.421769,-0.324231 0.654307,-0.371421 8.11269,-0.355775 7.729954,0.01621 8.507866,0.05648 7.697587,0.398457 -0.495753,0.209231 -1.150597,0.319888 -1.455208,0.245904 -0.304611,-0.07398 -0.40501,-0.06616 -0.223109,0.01738 0.528185,0.242585 0.384706,0.566054 -0.330729,0.745617 -0.363802,0.09131 -0.661458,0.282809 -0.661458,0.425558 0,0.142748 -0.155217,0.259542 -0.344926,0.259542 -0.189709,0 -0.966573,0.30978 -1.726364,0.6884 -1.115082,0.555669 -1.456694,0.625945 -1.771741,0.364479 -0.272585,-0.226225 -0.390303,-0.234351 -0.390303,-0.02694 0,0.163339 0.144576,0.29698 0.32128,0.29698 0.207175,0 0.168315,0.152964 -0.109413,0.430693 -0.288236,0.288236 -0.934195,0.441386 -1.952939,0.463021 -0.957819,0.02034 -1.563099,0.154957 -1.632427,0.363057 -0.130481,0.391664 0.62296,0.449616 0.859958,0.06615 0.203469,-0.329221 0.661458,-0.347717 0.661458,-0.02671 0,0.130828 -0.479916,0.488016 -1.066481,0.79375 -1.182934,0.61658 -1.314769,0.651095 -1.314769,0.344215 z"
         id="path120" /><path
         style="fill:#a3bac8"
         d="m 15.066345,139.23698 c 0.142482,-2.10677 0.05476,-3.283 -0.478535,-6.41615 -0.35915,-2.11005 -0.738116,-4.89699 -0.842147,-6.19321 -0.16514,-2.05762 -0.137664,-2.33699 0.216476,-2.2011 0.29968,0.115 0.449686,-0.0792 0.574324,-0.74359 0.09279,-0.49459 0.318756,-1.05191 0.502158,-1.23849 0.650363,-0.66163 1.762422,-3.2338 1.762422,-4.07645 0,-0.47036 0.178593,-1.03379 0.396875,-1.25207 0.219299,-0.2193 0.396875,-0.8662 0.396875,-1.4458 0,-0.71846 0.133683,-1.10022 0.424326,-1.21175 0.25532,-0.098 0.36036,-0.32953 0.263725,-0.58135 -0.227507,-0.59288 0.075,-0.99021 0.491024,-0.64494 0.525083,0.43578 1.118974,-0.3791 0.6703,-0.91972 -0.229668,-0.27673 -0.430765,-0.31824 -0.652053,-0.13459 -0.410428,0.34063 -0.668156,0.0776 -0.668156,-0.68198 0,-0.80513 2.502887,-2.48746 3.70072,-2.48746 0.615998,0 0.842875,-0.28761 0.527055,-0.66815 -0.376133,-0.45322 0.43398,-1.12593 0.852225,-0.70768 0.217042,0.21704 0.20257,0.40653 -0.05472,0.71655 -0.299794,0.36123 -0.266873,0.44317 0.230299,0.57318 0.379185,0.0992 0.536305,0.30071 0.453656,0.58192 -0.06954,0.23662 -0.207329,1.29343 -0.30619,2.34845 l -0.179748,1.91823 h 0.683895 c 0.376143,0 1.109821,-0.28904 1.630396,-0.64231 0.520576,-0.35327 1.068128,-0.68286 1.216783,-0.73241 0.148655,-0.0495 0.302963,-0.31276 0.342906,-0.58491 0.03994,-0.27215 0.271585,-0.6403 0.514759,-0.81812 0.243174,-0.17781 0.442135,-0.56572 0.442135,-0.86203 0,-0.6058 1.747669,-2.27681 2.132507,-2.03897 0.136808,0.0846 0.248742,-0.095 0.248742,-0.39892 0,-0.52937 -0.105136,-0.54792 -2.495259,-0.44017 l -2.49526,0.11249 0.288771,-0.63378 c 0.231674,-0.50847 0.489633,-0.63378 1.304635,-0.63378 0.558725,0 1.015864,-0.11907 1.015864,-0.26459 0,-0.14552 0.40698,-0.26458 0.904402,-0.26458 1.165548,0 1.741431,-0.2281 1.741431,-0.68977 0,-0.54079 0.467463,-0.44907 0.790844,0.15517 0.328714,0.61421 0.116916,1.63404 -0.587201,2.82743 -0.276917,0.46933 -0.57174,1.51467 -0.655163,2.32296 -0.09686,0.93851 -0.274047,1.46963 -0.490274,1.46963 -0.472148,0 -1.25098,2.48982 -1.122658,3.58899 0.07954,0.68129 0.0035,0.91676 -0.303781,0.94023 -0.225441,0.0172 -0.0527,0.12219 0.383858,0.23328 0.553468,0.14083 0.629557,0.21145 0.251354,0.23328 -0.298318,0.0172 -0.655505,0.13036 -0.79375,0.25143 -0.501681,0.43935 -3.095125,1.35803 -3.364236,1.19171 -0.151894,-0.0939 -0.206766,-0.0584 -0.121937,0.0789 0.149767,0.24233 -2.386547,1.58589 -2.784452,1.475 -0.10914,-0.0304 -0.198437,0.1233 -0.198437,0.34158 0,0.21828 -0.119309,0.39688 -0.265131,0.39688 -0.503922,0 -2.573161,3.13804 -2.884469,4.37436 -0.264145,1.04901 -0.247895,1.33901 0.105232,1.87795 0.397453,0.60659 2.224899,2.07349 2.837528,2.2777 0.15841,0.0528 -0.01733,0.40135 -0.390526,0.77455 -0.373199,0.3732 -0.926127,1.16385 -1.228729,1.75699 -0.617313,1.21004 -1.878072,3.12956 -1.878072,2.85939 0,-0.0967 0.416719,-1.00331 0.926042,-2.01469 1.175742,-2.33471 1.172665,-2.65734 -0.0077,-0.80458 -0.506094,0.7944 -1.30092,2.60598 -1.76628,4.02573 -0.847869,2.58672 -1.31977,3.39884 -0.71898,1.23733 0.492263,-1.77106 0.733054,-3.20214 0.497775,-2.95841 -0.432259,0.44779 -1.265002,3.46562 -1.575573,5.70982 -0.17621,1.27331 -0.38046,2.31511 -0.453887,2.31511 -0.07343,0 -0.05499,-1.16086 0.04096,-2.57969 z m 20.830655,-3.481 c 0.192284,-0.30789 0.558261,-0.62603 0.813283,-0.70697 0.255021,-0.0809 0.463676,-0.25821 0.463676,-0.39392 0,-0.13572 0.178593,-0.24676 0.396875,-0.24676 0.218281,0 0.396875,-0.11906 0.396875,-0.26458 0,-0.32544 -0.715829,-0.35347 -0.837848,-0.0328 -0.117395,0.30851 -5.956919,-0.44541 -6.967361,-0.89953 -0.50617,-0.22749 -0.625995,-0.36286 -0.330729,-0.37366 0.96898,-0.0354 0.412271,-0.54608 -0.595312,-0.54608 -0.582084,0 -1.058333,-0.11907 -1.058333,-0.26459 0,-0.14552 -0.177585,-0.26458 -0.394633,-0.26458 -0.217049,0 -0.543345,-0.23812 -0.725103,-0.52917 -0.181759,-0.29104 -0.59246,-0.52916 -0.912669,-0.52916 -0.320209,0 -0.646507,-0.10406 -0.725105,-0.23123 -0.0786,-0.12718 0.658515,-0.0568 1.638031,0.15638 1.917998,0.41745 7.319659,0.33059 10.115312,-0.16265 0.800364,-0.14121 2.238439,-0.38285 3.195721,-0.53699 2.438804,-0.39267 6.612784,-1.66069 10.959486,-3.32937 2.037292,-0.78211 4.239948,-1.55656 4.894792,-1.721 2.437597,-0.61209 4.282888,-1.41314 4.691342,-2.03652 0.532761,-0.8131 0.649522,-4.30907 0.187193,-5.60479 -0.874372,-2.4505 -1.116,-3.48352 -0.742265,-3.17335 0.198906,0.16508 0.361646,0.21145 0.361646,0.10306 0,-0.1084 0.178594,-0.0489 0.396875,0.13229 0.32838,0.27253 0.400085,0.24387 0.415472,-0.16604 0.0173,-0.461 0.03439,-0.45865 0.245987,0.0337 0.194443,0.45249 0.230085,0.46208 0.245987,0.0661 0.01023,-0.25466 0.19719,-0.46302 0.415471,-0.46302 0.345298,0 0.396875,1.21635 0.396875,9.35964 v 9.35963 l -0.816017,0.16321 c -0.448809,0.0898 -1.162053,0.4096 -1.584986,0.71076 -0.422933,0.30115 -1.186819,0.61536 -1.697525,0.69823 -0.757993,0.12301 -0.928555,0.26583 -0.928555,0.77753 0,0.34476 -0.124282,0.62684 -0.276182,0.62684 -0.1519,0 -0.256856,-0.14883 -0.233235,-0.33073 0.216412,-1.66656 -0.30747,-2.23959 -1.148984,-1.25677 -0.249198,0.29104 -0.692377,0.52916 -0.984843,0.52916 -0.292466,0 -0.769881,0.23813 -1.060923,0.52917 -0.291041,0.29104 -0.529166,0.4101 -0.529166,0.26458 0,-0.38002 -0.615301,-0.3261 -1.491111,0.13067 -0.416816,0.21738 -1.19441,0.39597 -1.727986,0.39687 -0.533577,9e-4 -1.012303,0.12812 -1.063836,0.28272 -0.06564,0.19693 -0.323558,0.1937 -0.861426,-0.0108 -0.422251,-0.16054 -0.912314,-0.2364 -1.08903,-0.16859 -0.611792,0.23476 -0.09088,-0.78837 0.628624,-1.2347 0.501318,-0.31098 0.57945,-0.44249 0.265851,-0.44746 -0.244267,-0.004 -0.603911,0.15275 -0.79921,0.34805 -0.530944,0.53094 -1.598143,1.08005 -2.196251,1.13003 -0.291042,0.0243 -2.472126,0.11488 -4.846854,0.20124 -2.374728,0.0864 -4.437346,0.23095 -4.583595,0.32134 -0.146249,0.0904 -0.108585,-0.0876 0.0837,-0.39547 z m -8.370036,-5.87529 c -3.285843,-0.47871 -5.739804,-1.44215 -7.411273,-2.90972 -1.0591,-0.9299 -1.138781,-1.4883 -0.430045,-3.01368 1.309027,-2.81736 3.736246,-4.42367 9.747568,-6.45084 3.154338,-1.06372 3.335105,-1.16781 6.879166,-3.96121 2.001837,-1.57783 4.592203,-3.43869 5.75637,-4.13524 1.201372,-0.71882 3.169841,-2.28081 4.552188,-3.61219 2.661461,-2.56334 3.120163,-2.74171 4.84052,-1.8823 0.877785,0.43851 1.516674,1.35382 2.76992,3.96834 0.404757,0.84441 1.337126,1.26357 1.029927,0.46302 -0.120379,-0.3137 0.07908,-0.39687 0.95174,-0.39687 1.363171,0 2.225954,0.42034 2.011244,0.97987 -0.08656,0.22556 -0.05175,0.54385 0.07735,0.70731 0.129097,0.16346 0.293649,1.07114 0.36567,2.01708 0.115508,1.51709 0.633703,3.20257 1.618856,5.26548 0.471499,0.98732 0.398882,5.53981 -0.09345,5.85874 -0.218281,0.1414 -1.766094,0.68824 -3.439583,1.21519 -1.67349,0.52695 -4.471459,1.51838 -6.217709,2.20318 -8.201966,3.21644 -16.784599,4.59059 -23.008452,3.68384 z m -6.831251,-3.60829 c 0.0905,-1.08759 1.689549,-4.01943 2.602791,-4.7722 1.701915,-1.40286 5.628928,-3.18169 8.670513,-3.92751 1.575668,-0.38637 2.729407,-0.78619 2.563865,-0.8885 -0.190584,-0.11779 0.311374,-0.79238 1.368483,-1.83913 l 1.669469,-1.6531 -2.264298,1.77857 c -2.010557,1.57927 -2.662847,1.91825 -5.820833,3.02503 -5.985976,2.09791 -7.665844,3.13837 -8.946582,5.54128 -0.938317,1.76047 -1.033783,2.52306 -0.364641,2.9128 0.254661,0.14833 0.467449,0.27331 0.472862,0.27773 0.0054,0.004 0.02718,-0.20031 0.04837,-0.45497 z M 9.2930164,85.846833 C 9.2023267,85.6105 9.1281261,83.700468 9.1281261,81.602317 v -3.814819 h 3.0731379 3.073138 l -0.46377,0.727605 c -0.255073,0.400182 -0.864079,1.293426 -1.353346,1.984987 -0.489267,0.691561 -0.889577,1.340005 -0.889577,1.440987 0,0.169272 -1.282616,2.158567 -1.586755,2.461005 -0.07317,0.07276 -0.331991,0.486344 -0.575157,0.919075 -0.5279187,0.939466 -0.8886098,1.109856 -1.1127806,0.525676 z"
         id="path119" /><path
         style="fill:#96a6b3"
         d="m 15.243969,137.80341 c -0.01673,-1.2614 -0.101189,-2.51156 -0.187677,-2.77812 -0.130781,-0.40308 -0.109195,-0.41786 0.12824,-0.0878 0.25377,0.35278 0.28554,0.35278 0.28593,0 7.89e-4,-0.71389 -0.312522,-1.58437 -0.523359,-1.45406 -0.413999,0.25586 -0.493041,-1.09608 -0.147022,-2.51469 0.368101,-1.50914 0.548485,-1.14647 0.427693,0.8599 -0.110114,1.829 0.444258,1.01608 0.631511,-0.92605 0.101722,-1.05502 0.423087,-2.93026 0.714144,-4.16718 0.291057,-1.23693 0.585583,-2.52846 0.654502,-2.87007 0.106374,-0.52726 0.233422,-0.59397 0.840854,-0.44151 0.393552,0.0988 0.627528,0.0916 0.519948,-0.016 -0.10758,-0.10758 -0.06299,-0.35538 0.09908,-0.55067 0.218661,-0.26347 0.212831,-0.35508 -0.0226,-0.35508 -0.174504,0 0.05138,-0.3102 0.501964,-0.68935 0.450584,-0.37914 0.787141,-0.84758 0.747904,-1.04098 -0.03924,-0.1934 0.04772,-0.35163 0.193244,-0.35163 0.145521,0 0.22846,0.20055 0.184309,0.44567 -0.04415,0.24512 0.144913,0.0885 0.420142,-0.34808 0.27523,-0.43656 0.701032,-0.95942 0.946228,-1.1619 0.394657,-0.32591 0.425693,-0.31074 0.270489,0.13229 -0.09643,0.27524 -0.313997,0.6195 -0.48349,0.76502 -0.913085,0.78395 -2.531161,3.18576 -2.67973,3.97771 -0.09415,0.50185 -0.247421,0.86534 -0.340605,0.80775 -0.09318,-0.0576 -0.169426,0.22973 -0.169426,0.6385 0,0.40877 0.0893,0.68803 0.198437,0.62058 0.109141,-0.0674 0.198438,0.0347 0.198438,0.22705 0,0.19233 0.322813,0.58631 0.717363,0.87551 0.39455,0.2892 1.06789,0.83341 1.496311,1.20935 0.671996,0.58967 0.716925,0.70732 0.327228,0.85686 -0.283389,0.10875 -0.387428,0.0693 -0.279191,-0.10581 0.205106,-0.33187 -0.693812,-1.05682 -1.042903,-0.84107 -0.13323,0.0823 -0.162366,0.0205 -0.06475,-0.13747 0.09762,-0.15795 0.05648,-0.36197 -0.09141,-0.45337 -0.147895,-0.0914 -0.268899,0.0194 -0.268899,0.2463 0,0.22687 -0.117656,0.41249 -0.261457,0.41249 -0.253457,0 -0.71297,2.00139 -0.572198,2.49218 0.03837,0.13378 -0.138404,0.0742 -0.39283,-0.13229 -0.310463,-0.25202 -0.396068,-0.26484 -0.260306,-0.039 0.17834,0.2967 -0.558882,2.16554 -1.832688,4.64583 -0.211578,0.41198 -0.391549,1.12635 -0.399936,1.5875 -0.0084,0.46115 -0.113756,1.31471 -0.234156,1.89679 -0.18459,0.89242 -0.223679,0.69879 -0.249336,-1.23513 z m 23.416536,-3.77821 c 0.08666,-0.22584 0.327161,-0.41062 0.53444,-0.41062 0.207279,0 0.445404,-0.17859 0.529166,-0.39687 0.08376,-0.21828 0.308992,-0.39688 0.500511,-0.39688 0.191518,0 0.705402,-0.35718 1.141965,-0.79375 0.44477,-0.44477 0.637902,-0.79375 0.439276,-0.79375 -0.194961,0 -0.398268,0.13138 -0.451794,0.29196 -0.135989,0.40797 -2.063444,-0.42029 -2.063444,-0.8867 0,-0.23414 0.888558,-0.56503 2.579688,-0.96066 1.418828,-0.33193 2.745088,-0.66898 2.947245,-0.749 0.255496,-0.10114 0.30213,-0.0342 0.152957,0.21956 -0.140944,0.23976 -0.04007,0.21761 0.2939,-0.0645 0.279676,-0.23626 0.984752,-0.57612 1.566835,-0.75524 0.582083,-0.17913 2.546614,-0.89862 4.365625,-1.59889 1.81901,-0.70026 4.686435,-1.69825 6.372055,-2.21776 3.376804,-1.04072 3.543835,-1.19189 3.85921,-3.4928 0.08676,-0.63296 0.235482,-1.10279 0.330499,-1.04407 0.09502,0.0587 0.172759,-0.11602 0.172759,-0.38831 0,-0.36398 -0.08689,-0.42297 -0.328133,-0.22276 -0.257743,0.21391 -0.273959,0.0834 -0.07559,-0.60822 0.311572,-1.08639 0.311604,-1.08407 -0.01205,-0.88405 -0.14552,0.0899 -0.264583,0.0502 -0.264583,-0.0884 0,-0.13854 0.193904,-0.3263 0.430898,-0.41725 0.355849,-0.13655 0.404058,-0.0311 0.276791,0.60519 -0.1336,0.668 -0.08531,0.75255 0.362851,0.63535 0.499577,-0.13064 0.51696,0.0349 0.51696,4.92276 0,4.31956 -0.05794,5.05794 -0.396875,5.05794 -0.218281,0 -0.399804,0.14883 -0.403385,0.33073 -0.0077,0.38883 -1.64441,1.25677 -2.37,1.25677 -0.276472,0 -0.576261,0.11906 -0.666198,0.26458 -0.08994,0.14552 -0.474542,0.26459 -0.854677,0.26459 -0.380136,0 -0.879125,0.16076 -1.108865,0.35726 -0.602354,0.51519 -4.748577,1.76197 -5.854895,1.76058 -0.516599,-6.5e-4 -1.097029,-0.15 -1.289844,-0.33191 -0.280458,-0.26458 -0.374826,-0.26458 -0.47184,0 -0.0667,0.18191 -0.416029,0.33073 -0.776292,0.33073 -0.432739,0 -0.590103,0.10505 -0.463715,0.30955 0.132193,0.21389 0.04136,0.252 -0.293961,0.12333 -0.266899,-0.10242 -0.556823,-0.0704 -0.644277,0.0711 -0.08745,0.1415 -1.97401,0.37775 -4.19235,0.52499 -2.218339,0.14724 -4.149239,0.33934 -4.290887,0.42689 -0.145499,0.0899 -0.188993,-0.0195 -0.09998,-0.25145 z m -10.970196,-4.11611 c -3.27658,-0.46191 -6.609314,-1.83618 -7.960471,-3.28254 -0.641571,-0.68677 -0.642043,-0.69164 -0.201108,-2.0757 0.985386,-3.09304 3.497523,-4.87536 9.931554,-7.04625 3.119097,-1.05241 3.405708,-1.21291 6.35,-3.55589 3.294049,-2.6213 5.687084,-4.30963 7.184508,-5.0688 0.509323,-0.25822 2.094831,-1.59906 3.523351,-2.97966 l 2.59731,-2.51016 1.106857,0.17614 c 1.580975,0.25158 1.916496,0.55853 3.201151,2.92856 1.069666,1.9734 2.006747,2.84732 2.006747,1.87148 0,-0.30081 0.261673,-0.41627 0.943436,-0.41627 1.218086,0 2.056341,0.44383 1.850645,0.97987 -0.08656,0.22556 -0.05242,0.54385 0.07585,0.70731 0.128276,0.16346 0.304279,1.13063 0.391116,2.14928 0.104415,1.22484 0.448011,2.52413 1.01455,3.83646 0.755964,1.75111 0.858257,2.27319 0.870219,4.44142 0.01051,1.90431 -0.07572,2.51488 -0.383319,2.71414 -0.218281,0.1414 -1.766094,0.6886 -3.439583,1.216 -1.67349,0.5274 -4.410528,1.49357 -6.082308,2.14706 -3.938518,1.53955 -8.629033,2.85603 -12.001707,3.36851 -3.374172,0.51271 -8.779004,0.70916 -10.978801,0.39904 z m -7.008711,-3.51992 c 0,-0.89234 1.769229,-4.07875 2.693218,-4.85053 1.865667,-1.55832 4.816197,-2.9378 8.185787,-3.82714 1.786191,-0.47142 3.117947,-0.93728 2.959457,-1.03523 -0.173216,-0.10706 0.377781,-0.83906 1.381305,-1.83506 1.454387,-1.44349 1.516919,-1.54248 0.485377,-0.76836 -0.651251,0.48874 -1.346166,1.03924 -1.544257,1.22334 -1.155526,1.07393 -2.347327,1.68559 -4.967933,2.54965 -3.278709,1.08105 -6.299791,2.45404 -7.62669,3.46612 -0.927892,0.70774 -2.536403,3.42395 -2.536403,4.2831 0,0.48834 0.458883,1.14036 0.80257,1.14036 0.09216,0 0.167569,-0.15582 0.167569,-0.34625 z"
         id="path118" /><path
         style="fill:#69529a"
         d="m 27.964571,129.90954 c -3.346701,-0.47119 -6.191791,-1.5537 -7.849362,-2.98656 l -1.041061,-0.89993 0.34406,-1.16517 c 0.189233,-0.64084 0.800283,-1.77376 1.357888,-2.51758 1.241881,-1.65663 4.092404,-3.21457 8.831503,-4.82682 2.945994,-1.00224 3.337946,-1.22164 6.07248,-3.39921 3.718505,-2.96112 5.298107,-4.08898 6.781805,-4.84232 0.652786,-0.33144 2.260129,-1.63802 3.571875,-2.90351 1.311745,-1.26548 2.624783,-2.42851 2.917862,-2.58451 0.520192,-0.27688 2.346959,-0.0981 2.977135,0.29137 0.161825,0.10002 0.865443,1.25086 1.563595,2.55744 0.698153,1.30658 1.371394,2.37559 1.496091,2.37559 0.124698,0 0.288994,-0.23812 0.365103,-0.52916 0.26694,-1.02078 2.807571,-0.53723 2.920207,0.55579 0.344558,3.34359 0.578934,4.74133 0.927223,5.52962 1.269696,2.87374 1.388608,3.33985 1.388608,5.44303 0,1.42767 -0.121309,2.29509 -0.361411,2.58425 -0.198776,0.23939 -1.210808,0.68476 -2.248959,0.9897 -2.952909,0.86739 -4.558706,1.42118 -7.915146,2.72971 -7.289456,2.84183 -16.648654,4.36571 -22.099496,3.59827 z m -7.105797,-3.3916 c -0.189923,-0.72627 1.375846,-3.91293 2.356169,-4.79529 1.598559,-1.43883 5.186054,-3.10847 8.632103,-4.01743 2.009656,-0.53009 3.091727,-0.92633 2.804669,-1.02702 -0.38426,-0.13479 -0.223673,-0.3726 0.903002,-1.33722 0.753709,-0.6453 1.554892,-1.45141 1.780409,-1.79135 0.410123,-0.61822 -0.455095,-0.002 -3.209545,2.2863 -0.712932,0.59225 -2.063363,1.21111 -4.184334,1.91756 -3.408149,1.13517 -7.445674,3.09068 -8.314014,4.02675 -0.753395,0.81216 -1.915774,3.06741 -1.915774,3.71698 0,0.53172 0.694359,1.50278 1.07457,1.50278 0.109344,0 0.142079,-0.21693 0.07275,-0.48206 z"
         id="path117" /><path
         style="fill:#a64c39"
         d="m 28.514981,129.9165 c -3.487242,-0.39285 -6.900954,-1.65098 -8.478755,-3.12486 -0.787409,-0.73555 -0.816517,-0.83129 -0.548943,-1.80554 0.920603,-3.35198 3.30243,-5.11485 9.970359,-7.37939 3.048062,-1.03517 3.449256,-1.25551 6.067059,-3.33207 3.880683,-3.07833 5.611773,-4.32392 6.968392,-5.01404 0.639736,-0.32543 2.056126,-1.44655 3.147532,-2.49136 2.711897,-2.59613 3.367442,-3.05257 4.384082,-3.05257 1.50722,0 2.13363,0.41192 2.891361,1.90133 1.513736,2.97544 1.775504,3.39033 2.139055,3.39033 0.206297,0 0.375085,-0.23812 0.375085,-0.52916 0,-0.42255 0.173264,-0.52728 0.859896,-0.51979 1.214442,0.0132 1.905621,0.51509 1.991281,1.44583 0.04018,0.43656 0.134004,1.47465 0.208499,2.30687 0.07449,0.83222 0.329734,1.96331 0.567196,2.51354 1.245137,2.88515 1.587813,4.25851 1.530591,6.13427 -0.04592,1.50532 -0.161329,1.97749 -0.55717,2.27954 -0.274588,0.20953 -1.86847,0.81324 -3.54196,1.34156 -1.673489,0.52833 -4.173802,1.40907 -5.55625,1.95719 -7.642339,3.03009 -16.647838,4.62826 -22.41731,3.97832 z m -7.615994,-3.24723 c -0.09185,-0.37586 0.189574,-1.29093 0.763396,-2.48228 0.821174,-1.70491 1.615056,-2.77188 1.429069,-1.92067 -0.127759,0.58472 1.440898,1.11776 4.080659,1.38664 2.122087,0.21615 2.785613,0.19011 3.836458,-0.15059 1.830623,-0.59352 3.519556,-1.35741 3.519556,-1.59187 0,-0.11119 0.148828,-0.2029 0.330729,-0.2038 0.181901,-8.9e-4 0.658151,-0.17243 1.058334,-0.38118 0.400182,-0.20876 0.727604,-0.27836 0.727604,-0.15467 0,0.12368 0.47625,-0.005 1.058333,-0.28645 0.582084,-0.28123 1.058333,-0.60338 1.058333,-0.71589 0,-0.11251 0.922735,-0.41912 2.050521,-0.68137 1.127787,-0.26225 2.114133,-0.57937 2.191882,-0.70472 0.07775,-0.12535 0.643121,-0.26244 1.256383,-0.30464 0.613262,-0.0422 1.115197,-0.16604 1.11541,-0.27518 2.13e-4,-0.10914 0.186008,-0.19843 0.412878,-0.19843 0.226869,0 0.341062,-0.11558 0.253762,-0.25683 -0.0873,-0.14125 0.143798,-0.33276 0.513552,-0.42556 0.369753,-0.0928 0.672279,-0.27488 0.672279,-0.40463 0,-0.12975 0.132816,-0.2359 0.295147,-0.2359 0.427681,0 3.938186,-2.37661 3.938186,-2.66615 0,-0.13435 0.194706,-0.24427 0.432681,-0.24427 0.237974,0 0.721018,-0.31112 1.073431,-0.69138 0.615576,-0.66422 0.655418,-0.67201 1.014113,-0.19844 0.419205,0.55347 0.513244,0.33079 0.156478,-0.37054 -0.128543,-0.25268 -0.377066,-0.76869 -0.552275,-1.14667 l -0.31856,-0.68724 -1.365955,1.35291 c -2.02101,2.0017 -4.490734,3.75632 -6.900448,4.90243 -2.883077,1.37126 -3.767701,1.6015 -7.165506,1.86495 -2.554669,0.19807 -3.131814,0.16113 -4.721699,-0.30227 -0.996206,-0.29035 -1.753477,-0.58572 -1.682825,-0.65638 0.07065,-0.0707 0.739576,0.0714 1.486498,0.31574 2.020203,0.66077 6.902497,0.41266 9.415942,-0.47852 2.084249,-0.73899 5.88645,-2.91087 7.25755,-4.14562 0.499152,-0.44952 1.005167,-0.8173 1.124479,-0.8173 0.119311,0 0.216929,-0.11171 0.216929,-0.24825 0,-0.13654 0.365956,-0.64256 0.813236,-1.12448 1.261117,-1.3588 1.905747,-2.75871 1.564201,-3.3969 -0.212829,-0.39767 -0.396261,-0.46814 -0.739872,-0.28425 -0.594251,0.31804 -2.803871,2.93721 -2.477923,2.93721 0.528695,0 0.563877,1.18767 0.0504,1.70123 -0.436075,0.43614 -0.611503,0.46459 -1.203022,0.19507 -0.880322,-0.4011 -1.267359,-0.17369 -0.847797,0.49813 0.238083,0.38124 0.246974,0.63971 0.03371,0.97992 -0.337845,0.53896 -1.368523,0.75797 -1.753812,0.37268 -0.476116,-0.47612 -1.524528,0.21504 -1.524528,1.00503 0,1.25816 -1.172494,1.75633 -2.260774,0.96056 -0.604321,-0.44189 -1.568463,-0.0702 -1.342864,0.51773 0.40525,1.05606 -1.857025,1.60468 -2.675461,0.64882 -0.350636,-0.40951 -0.783796,-0.53008 -1.915639,-0.53322 -2.406846,-0.007 -2.500869,-0.28668 -0.668803,-1.99183 2.264216,-2.10735 2.382593,-2.19746 2.181667,-1.66079 -0.123151,0.32893 0.10665,0.58667 0.884651,0.99218 1.676988,0.8741 2.118844,0.69081 0.89954,-0.37314 -0.580493,-0.50653 -1.234036,-0.92704 -1.452317,-0.93446 -0.303784,-0.0103 -0.276407,-0.1046 0.116716,-0.40195 0.282475,-0.21365 0.399354,-0.38846 0.259733,-0.38846 -0.139621,0 -0.807172,0.44649 -1.483446,0.99219 -4.125922,3.32932 -4.424818,3.5123 -7.293471,4.4651 -3.502481,1.16332 -6.791097,2.67809 -7.953109,3.66328 -1.056989,0.89615 -2.425928,3.20173 -2.429356,4.09155 -0.0014,0.35442 0.256396,0.91997 0.572804,1.25677 0.715376,0.76148 0.79469,0.76369 0.612241,0.017 z"
         id="path116" /><path
         style="fill:#281c37"
         d="m 28.514981,129.9165 c -3.487242,-0.39285 -6.900954,-1.65098 -8.478755,-3.12486 -0.787409,-0.73555 -0.816517,-0.83129 -0.548943,-1.80554 0.920509,-3.35164 3.302569,-5.11489 9.968136,-7.37863 3.138602,-1.06593 3.386236,-1.20662 6.563158,-3.72895 1.815819,-1.44168 4.459688,-3.3356 5.875264,-4.20873 1.415576,-0.87312 3.046061,-2.11295 3.6233,-2.75516 3.441913,-3.82933 5.891991,-4.2587 7.398927,-1.29663 1.513736,2.97544 1.775504,3.39033 2.139055,3.39033 0.206297,0 0.375085,-0.25137 0.375085,-0.55861 0,-0.50038 0.10343,-0.54028 0.992187,-0.38277 1.767773,0.3133 1.940397,0.40558 1.677525,0.89676 -0.158624,0.2964 -0.12218,0.61057 0.107218,0.92429 0.191138,0.26139 0.352119,1.06866 0.357737,1.79392 0.0068,0.88037 0.355666,2.21615 1.049558,4.01889 0.912599,2.37095 1.031781,2.93543 0.977332,4.62895 -0.04925,1.53178 -0.164758,2.00711 -0.561264,2.30967 -0.274588,0.20953 -1.86847,0.81324 -3.54196,1.34156 -1.673489,0.52833 -4.173802,1.40907 -5.55625,1.95719 -7.642339,3.03009 -16.647838,4.62826 -22.41731,3.97832 z m -7.615994,-3.24723 c -0.09185,-0.37586 0.189574,-1.29093 0.763396,-2.48228 0.821174,-1.70491 1.615056,-2.77188 1.429069,-1.92067 -0.127759,0.58472 1.440898,1.11776 4.080659,1.38664 2.122087,0.21615 2.785613,0.19011 3.836458,-0.15059 1.830623,-0.59352 3.519556,-1.35741 3.519556,-1.59187 0,-0.11119 0.148828,-0.2029 0.330729,-0.2038 0.181901,-8.9e-4 0.658151,-0.17243 1.058334,-0.38118 0.400182,-0.20876 0.727604,-0.27836 0.727604,-0.15467 0,0.12368 0.47625,-0.005 1.058333,-0.28645 0.582084,-0.28123 1.058333,-0.60338 1.058333,-0.71589 0,-0.11251 0.922735,-0.41912 2.050521,-0.68137 1.127787,-0.26225 2.114133,-0.57937 2.191882,-0.70472 0.07775,-0.12535 0.643121,-0.26244 1.256383,-0.30464 0.613262,-0.0422 1.115197,-0.16604 1.11541,-0.27518 2.13e-4,-0.10914 0.186008,-0.19843 0.412878,-0.19843 0.226869,0 0.341062,-0.11558 0.253762,-0.25683 -0.0873,-0.14125 0.143798,-0.33276 0.513552,-0.42556 0.369753,-0.0928 0.672279,-0.27488 0.672279,-0.40463 0,-0.12975 0.132816,-0.2359 0.295147,-0.2359 0.427681,0 3.938186,-2.37661 3.938186,-2.66615 0,-0.13435 0.194706,-0.24427 0.432681,-0.24427 0.237974,0 0.721018,-0.31112 1.073431,-0.69138 0.615576,-0.66422 0.655418,-0.67201 1.014113,-0.19844 0.419205,0.55347 0.513244,0.33079 0.156478,-0.37054 -0.128543,-0.25268 -0.377066,-0.76869 -0.552275,-1.14667 l -0.31856,-0.68724 -1.365955,1.35291 c -2.02101,2.0017 -4.490734,3.75632 -6.900448,4.90243 -2.883077,1.37126 -3.767701,1.6015 -7.165506,1.86495 -2.554669,0.19807 -3.131814,0.16113 -4.721699,-0.30227 -0.996206,-0.29035 -1.753477,-0.58572 -1.682825,-0.65638 0.07065,-0.0707 0.739576,0.0714 1.486498,0.31574 2.020203,0.66077 6.902497,0.41266 9.415942,-0.47852 2.084249,-0.73899 5.88645,-2.91087 7.25755,-4.14562 0.499152,-0.44952 1.005167,-0.8173 1.124479,-0.8173 0.119311,0 0.216929,-0.11171 0.216929,-0.24825 0,-0.13654 0.365956,-0.64256 0.813236,-1.12448 1.261117,-1.3588 1.905747,-2.75871 1.564201,-3.3969 -0.212829,-0.39767 -0.396261,-0.46814 -0.739872,-0.28425 -0.594251,0.31804 -2.803871,2.93721 -2.477923,2.93721 0.528695,0 0.563877,1.18767 0.0504,1.70123 -0.436075,0.43614 -0.611503,0.46459 -1.203022,0.19507 -0.880322,-0.4011 -1.267359,-0.17369 -0.847797,0.49813 0.238083,0.38124 0.246974,0.63971 0.03371,0.97992 -0.337845,0.53896 -1.368523,0.75797 -1.753812,0.37268 -0.476116,-0.47612 -1.524528,0.21504 -1.524528,1.00503 0,1.25816 -1.172494,1.75633 -2.260774,0.96056 -0.604321,-0.44189 -1.568463,-0.0702 -1.342864,0.51773 0.40525,1.05606 -1.857025,1.60468 -2.675461,0.64882 -0.350636,-0.40951 -0.783796,-0.53008 -1.915639,-0.53322 -0.804405,-0.002 -1.641147,-0.12308 -1.859428,-0.26856 -0.332652,-0.2217 -0.257049,-0.39231 0.467195,-1.05428 0.475238,-0.43437 1.02106,-0.78977 1.212937,-0.78977 0.191877,0 0.918586,0.60173 1.614909,1.33718 0.879753,0.92918 1.43722,1.31264 1.827068,1.25677 0.929767,-0.13326 0.795374,-0.91342 -0.376318,-2.18456 -1.086354,-1.17855 -1.150516,-1.56886 -0.131159,-0.79785 0.282474,0.21365 0.757423,0.38846 1.055441,0.38846 0.447714,0 0.358486,-0.16001 -0.51359,-0.92097 -1.158864,-1.01121 -1.581724,-1.13585 -1.81258,-0.53424 -0.08376,0.21828 -0.293548,0.39687 -0.46619,0.39687 -0.187139,0 -0.120511,-0.21368 0.164995,-0.52916 0.263389,-0.29105 0.692135,-0.52917 0.952769,-0.52917 0.260634,0 1.368692,0.78352 2.462352,1.74115 1.967818,1.72307 2.934879,2.0831 2.934879,1.09262 0,-0.25644 -0.714375,-1.18782 -1.5875,-2.06971 -0.873125,-0.8819 -1.408907,-1.57907 -1.190625,-1.54928 0.747449,0.10201 1.058333,-0.009 1.058333,-0.3771 0,-0.58069 -0.785033,-0.73287 -1.62332,-0.31468 -0.475491,0.23721 -0.695116,0.2665 -0.578059,0.0771 0.324468,-0.525 -1.520597,0.75762 -4.485359,3.11806 -2.608336,2.07667 -3.091202,2.34932 -5.688541,3.21199 -3.496896,1.16145 -6.785685,2.67661 -7.947048,3.66125 -1.056989,0.89615 -2.425928,3.20173 -2.429356,4.09155 -0.0014,0.35442 0.256396,0.91997 0.572804,1.25677 0.715376,0.76148 0.79469,0.76369 0.612241,0.017 z m 24.794645,-1.95536 c 0.392955,-0.19786 0.938658,-0.35974 1.212673,-0.35974 0.274015,0 0.586501,-0.0883 0.694415,-0.19621 0.107913,-0.10791 0.99096,-0.3762 1.962326,-0.59619 1.55299,-0.35172 1.817771,-0.50327 2.194131,-1.25586 0.670154,-1.34006 0.969893,-1.60468 3.523881,-3.11097 2.718738,-1.60345 4.255596,-2.87059 3.994333,-3.29332 -0.09767,-0.15804 -0.318182,-0.20301 -0.490028,-0.0999 -0.235791,0.14142 -0.235018,0.0916 0.0031,-0.20299 0.177898,-0.22007 0.222632,-0.54081 0.102527,-0.73514 -0.166773,-0.26985 -0.518862,-0.1898 -1.620501,0.36845 -0.774089,0.39226 -2.499596,1.10855 -3.83446,1.59175 -4.305641,1.55857 -6.5935,2.57003 -7.097024,3.13758 -0.506433,0.57082 -1.643125,2.70573 -2.375079,4.46083 l -0.414557,0.99403 0.714875,-0.17127 c 0.393181,-0.0942 1.036384,-0.33315 1.42934,-0.53101 z m 2.024831,-10.91348 c 0.451973,-0.2864 0.136287,-0.919 -0.996736,-1.99733 -0.796022,-0.7576 -1.122096,-1.42735 -0.511055,-1.04971 0.190775,0.11791 0.233581,0.0725 0.114009,-0.12099 -0.1053,-0.17038 -0.303439,-0.24057 -0.44031,-0.15598 -0.136871,0.0846 -0.561419,-0.0921 -0.943441,-0.39256 -0.382021,-0.3005 -0.566492,-0.54636 -0.409935,-0.54636 0.156558,0 0.358235,0.11906 0.448172,0.26458 0.08994,0.14552 0.305323,0.26063 0.478635,0.25578 0.173313,-0.005 0.03403,-0.24296 -0.309509,-0.52916 -0.641008,-0.53402 -1.78523,-0.73017 -1.492043,-0.25578 0.08994,0.14552 -0.08754,0.26458 -0.394399,0.26458 -0.306857,0 -0.938961,0.20495 -1.404678,0.45545 -0.842226,0.45301 -0.843217,0.45598 -0.185298,0.55499 0.703688,0.1059 3.498512,1.99053 4.340486,2.92693 0.531702,0.59132 1.11196,0.70205 1.706102,0.32556 z m 2.258531,-2.03314 c 0.235619,-0.61401 -0.215689,-1.28011 -1.624085,-2.39703 -0.691392,-0.5483 -1.367398,-1.08938 -1.502236,-1.20239 -0.347533,-0.29129 0.759741,-0.0505 1.438642,0.31282 0.521765,0.27925 0.543219,0.25987 0.272445,-0.24608 -0.161656,-0.30206 -0.41582,-0.54919 -0.564809,-0.54919 -0.148989,0 -0.205719,-0.10545 -0.126066,-0.23433 0.07965,-0.12888 -0.151446,-0.29097 -0.513552,-0.36019 -0.362106,-0.0692 -0.658375,-0.0233 -0.658375,0.10204 0,0.12534 -0.133641,0.22789 -0.29698,0.22789 -0.205186,0 -0.195172,-0.12267 0.0324,-0.39687 0.181157,-0.21828 0.538345,-0.39688 0.79375,-0.39688 0.255405,0 0.612593,0.1786 0.79375,0.39688 0.504359,0.60771 0.928193,0.48266 1.824674,-0.53838 0.969287,-1.10395 0.993104,-1.27405 0.278458,-1.9887 -0.741461,-0.74146 -1.170912,-0.54065 -3.168041,1.48135 -0.942269,0.954 -1.5169,1.66075 -1.276958,1.57054 0.239942,-0.0902 0.514859,-0.0368 0.610927,0.11861 0.108732,0.17593 -0.118635,0.28262 -0.602298,0.28262 -0.427333,0 -0.92355,0.17662 -1.102706,0.39249 -0.269025,0.32415 -0.215271,0.43449 0.30874,0.63372 0.348963,0.13267 1.448605,0.90855 2.44365,1.72417 1.900768,1.55803 2.376412,1.75035 2.638673,1.06691 z"
         id="path115" /></g></g></svg>
