<?xml version="1.0" encoding="UTF-8" standalone="no"?>
<!-- Created with Inkscape (http://www.inkscape.org/) -->

<svg
   width="53.736061mm"
   height="65.647026mm"
   viewBox="0 0 53.736061 65.647026"
   version="1.1"
   id="svg1"
   inkscape:export-filename="the-bullseye.svg"
   inkscape:export-xdpi="96"
   inkscape:export-ydpi="96"
   xml:space="preserve"
   xmlns:inkscape="http://www.inkscape.org/namespaces/inkscape"
   xmlns:sodipodi="http://sodipodi.sourceforge.net/DTD/sodipodi-0.dtd"
   xmlns="http://www.w3.org/2000/svg"
   xmlns:svg="http://www.w3.org/2000/svg"><sodipodi:namedview
     id="namedview1"
     pagecolor="#ffffff"
     bordercolor="#000000"
     borderopacity="0.25"
     inkscape:showpageshadow="2"
     inkscape:pageopacity="0.0"
     inkscape:pagecheckerboard="0"
     inkscape:deskcolor="#d1d1d1"
     inkscape:document-units="mm"><inkscape:page
       x="0"
       y="0"
       width="53.736061"
       height="65.647026"
       id="page2"
       margin="0"
       bleed="0" /></sodipodi:namedview><defs
     id="defs1" /><g
     inkscape:label="Calque 1"
     inkscape:groupmode="layer"
     id="layer1"
     transform="translate(-135.48607,-118.2704)"><g
       id="g351"
       transform="translate(12.877306,0.54797048)"><path
         style="fill:#d4e8f5"
         d="m 122.63438,150.54793 v -32.80834 h 26.8552 26.85521 v 32.80834 32.80833 h -26.85521 -26.8552 z"
         id="path358" /><path
         style="fill:#c5d9e9"
         d="m 132.68854,183.16853 c 2.21493,-0.81459 5.8232,-2.26704 6.35,-2.55609 0.3638,-0.19961 1.10795,-0.50658 1.65365,-0.68216 0.5457,-0.17557 0.99219,-0.42905 0.99219,-0.56329 0,-0.13423 0.1642,-0.24406 0.3649,-0.24406 0.55602,0 3.24378,-1.28594 3.60995,-1.72715 0.1778,-0.21424 0.48325,-0.38952 0.67877,-0.38952 0.48468,0 2.22554,-0.84607 2.22554,-1.08163 0,-0.43771 -5.56996,-11.61837 -5.78802,-11.61837 -0.13123,0 -0.23307,-0.14883 -0.22632,-0.33073 0.0323,-0.8694 -0.0957,-1.27277 -0.35335,-1.11354 -0.1553,0.096 -0.24773,0.0137 -0.20548,-0.18282 0.12174,-0.56631 -2.49227,-5.83213 -2.71569,-5.47063 -0.11431,0.18495 -0.23808,-0.0609 -0.29837,-0.59259 l -0.10302,-0.90865 -0.21577,1.12448 c -0.13203,0.68805 -0.3603,1.12448 -0.58814,1.12448 -0.29847,0 -0.31225,-0.11234 -0.0694,-0.56604 0.48687,-0.90973 0.76308,-2.07979 0.49096,-2.07979 -0.13537,0 -0.24612,0.12675 -0.24612,0.28168 0,0.15492 -0.24921,0.86099 -0.55381,1.56905 -0.6259,1.45493 -1.86621,2.25958 -3.09661,2.00891 -1.53638,-0.31301 -6.93291,-0.4426 -6.93291,-0.16648 0,0.15157 0.18562,0.27559 0.41249,0.27559 0.22687,0 0.34581,0.10788 0.26432,0.23974 -0.24931,0.40339 -1.20598,-0.006 -1.20598,-0.51629 0,-0.26367 -0.17859,-0.658 -0.39687,-0.87628 -0.21828,-0.21828 -0.39688,-0.56792 -0.39688,-0.77697 0,-0.20905 -0.2657,-0.71787 -0.59044,-1.13071 -0.32474,-0.41285 -0.4429,-0.65944 -0.26257,-0.548 0.2576,0.15921 0.26244,0.059 0.0226,-0.46738 -0.1679,-0.36851 -0.40693,-0.60719 -0.53117,-0.53041 -0.12424,0.0768 -0.2259,0.0135 -0.2259,-0.14059 0,-0.15411 -0.45035,-0.2802 -1.00079,-0.2802 h -1.0008 l -0.0454,-1.38906 -0.0455,-1.38906 0.42749,1.05833 c 0.23512,0.58209 0.47428,1.11442 0.53146,1.18297 0.13027,0.15615 0.59626,-0.56159 0.59626,-0.91838 0,-0.14552 -0.11541,-0.086 -0.25648,0.13229 -0.22798,0.35278 -0.25758,0.35278 -0.26641,0 -0.005,-0.21828 -0.24277,-0.69453 -0.52734,-1.05834 -0.61814,-0.79025 -0.76972,-4.09216 -0.19843,-4.32268 0.26458,-0.10677 0.26458,-0.13763 0,-0.15434 -0.2604,-0.0164 -0.33073,-3.17175 -0.33073,-14.83756 v -14.81667 h 18.93332 c 12.55484,0 18.87823,0.0891 18.7698,0.26459 -0.0899,0.14552 -0.0374,0.26458 0.11668,0.26458 0.15411,0 0.2802,-0.11906 0.2802,-0.26458 0,-0.17041 2.77812,-0.26459 7.8052,-0.26459 h 7.80521 v 32.80834 32.80833 h -7.25726 -7.25727 l -0.0995,-2.44739 c -0.0887,-2.18167 -10e-4,-2.77777 0.80321,-5.49011 0.49648,-1.67349 1.10433,-3.28083 1.35077,-3.57187 0.24644,-0.29104 0.79895,-1.06495 1.22779,-1.71979 0.42885,-0.65485 0.85155,-1.25016 0.93935,-1.32292 0.0878,-0.0728 0.47499,-0.60854 0.86043,-1.19063 0.38544,-0.58208 1.17138,-1.71317 1.74653,-2.51354 2.62662,-3.65516 4.84232,-9.27072 5.35405,-13.56954 0.3125,-2.62515 -0.0342,-7.07271 -0.73933,-9.4848 -0.81954,-2.80339 -2.97485,-6.53344 -4.81203,-8.32785 -0.98342,-0.96053 -3.57767,-2.74906 -3.98749,-2.74906 -0.12033,0 -0.56849,-0.17445 -0.9959,-0.38767 -2.85961,-1.42656 -6.27278,-1.45211 -9.60626,-0.0719 -4.22688,1.75013 -6.50733,3.94014 -8.60603,8.26478 -1.41159,2.90875 -2.00705,5.43313 -2.18947,9.28192 -0.1594,3.36294 0.1267,5.37912 1.24473,8.77174 1.11266,3.37638 3.67845,8.2035 5.202,9.78672 0.17133,0.17804 0.58477,0.77335 0.91877,1.32292 0.33399,0.54956 0.68504,1.05873 0.78011,1.13149 0.0951,0.0728 0.50692,0.66542 0.91522,1.31703 0.4083,0.6516 0.88915,1.33152 1.06855,1.51092 0.28978,0.28977 1.64919,4.29127 2.12052,6.24184 0.0977,0.40448 0.0937,1.74393 -0.009,2.97657 l -0.18669,2.24114 -2.29135,-0.009 -2.29135,-0.009 0.63279,-0.52698 c 0.34804,-0.28984 0.56659,-0.59318 0.48568,-0.6741 -0.17148,-0.17147 -1.2128,0.34917 -1.72722,0.86359 -0.28346,0.28346 -2.09923,0.35088 -9.0013,0.3342 -4.75541,-0.0115 -8.46761,-0.0866 -8.24933,-0.16684 z m -0.21241,-36.13417 c 0.82905,-0.75967 1.98991,-1.7749 2.57968,-2.25606 0.58977,-0.48116 1.07232,-0.99091 1.07232,-1.13278 0,-0.4157 -0.82818,-0.61375 -1.05201,-0.25158 -0.12418,0.20093 -0.42675,0.26102 -0.76835,0.1526 -0.39545,-0.12551 -0.61355,-0.0484 -0.73131,0.25845 -0.13288,0.34628 -0.21289,0.36436 -0.38438,0.0869 -0.175,-0.28316 -0.37119,-0.25909 -1.02206,0.12539 -0.44301,0.26169 -0.92514,0.40186 -1.07139,0.31147 -0.14625,-0.0904 -0.34195,0.0338 -0.43489,0.27601 -0.19081,0.49726 0.33735,0.93785 0.87633,0.73103 0.1951,-0.0749 0.35472,-0.004 0.35472,0.15677 0,0.16109 -0.14883,0.30662 -0.33073,0.32341 -0.1819,0.0168 -0.50932,0.0466 -0.7276,0.0661 -0.21828,0.0196 -0.43492,0.30352 -0.48142,0.63094 -0.0579,0.40787 -0.2662,0.59659 -0.66146,0.59937 -0.3173,0.002 -0.75551,0.12909 -0.97379,0.28191 -0.30552,0.21391 -0.24462,0.23944 0.26459,0.11091 0.5092,-0.12853 0.5701,-0.103 0.26458,0.11091 -0.21828,0.15282 -0.635,0.29377 -0.92604,0.31322 -0.7257,0.0485 0.8089,0.43193 1.85208,0.46277 0.60568,0.0179 1.1509,-0.30379 2.30113,-1.35776 z m 23.52439,33.60992 c 0.0681,-2.45319 -0.008,-2.97697 -0.80184,-5.48897 -0.80724,-2.55564 -1.14667,-3.16725 -4.25842,-7.67292 -3.64047,-5.27124 -5.11183,-7.99297 -6.27025,-11.59873 -0.68703,-2.13851 -0.73668,-2.59612 -0.73668,-6.79094 0,-5.16032 0.28811,-6.63001 1.97432,-10.07142 2.22395,-4.53889 5.17224,-7.05435 9.86826,-8.41952 4.65048,-1.35193 10.63201,1.02239 13.7846,5.47169 2.81054,3.96655 3.87278,7.58199 3.8735,13.18376 7.5e-4,5.80965 -1.88835,10.53911 -7.26489,18.18801 -3.12222,4.44181 -3.40339,4.94549 -4.25462,7.62159 -0.7921,2.49024 -0.91173,3.22061 -0.9135,5.57745 l -0.002,2.71198 h -1.98438 -1.98437 l -0.004,-0.85989 c -0.002,-0.47295 -0.11947,-1.03849 -0.26053,-1.25677 -0.18551,-0.28705 -0.25761,-0.0491 -0.26054,0.85989 -0.002,0.7269 -0.12544,1.25677 -0.29197,1.25677 -0.19369,0 -0.26328,-0.88765 -0.2126,-2.71198 z m 0.35627,-8.59896 c -0.63558,-0.98457 -2.81751,-3.77031 -2.9531,-3.77031 -0.0599,0 -0.0144,0.14883 0.10112,0.33073 0.20888,0.32897 0.25418,0.47282 0.31733,1.0078 0.0182,0.15411 0.15213,0.20662 0.29765,0.11668 0.14552,-0.0899 0.26459,-0.0445 0.26459,0.10106 0,0.14552 -0.11546,0.33594 -0.25658,0.42316 -0.28723,0.17751 -1.13783,-1.65024 -0.974,-2.0929 0.0577,-0.15587 -0.12954,-0.5414 -0.41606,-0.85672 -0.36748,-0.40443 -0.45037,-0.69942 -0.28138,-1.00139 0.21313,-0.38085 0.34728,-0.35496 1.21608,0.23462 0.53708,0.36447 0.97834,0.57697 0.98057,0.47222 0.002,-0.10476 0.0944,-0.0484 0.2048,0.12529 0.11041,0.17366 0.79319,0.45562 1.5173,0.62657 0.72411,0.17094 1.50964,0.40727 1.74562,0.52517 0.23599,0.11791 0.53365,0.11702 0.66146,-0.002 0.12782,-0.11898 0.91094,-0.40967 1.74028,-0.64597 0.82934,-0.2363 1.57829,-0.54356 1.66434,-0.68279 0.0861,-0.13923 -0.35438,-0.0718 -0.97872,0.14989 -1.49757,0.53169 -4.64868,0.27492 -6.28563,-0.5122 -0.64995,-0.31252 -1.9894,-1.32678 -2.97657,-2.25391 -1.92223,-1.80533 -2.26085,-1.92028 -1.02902,-0.34931 0.42121,0.53717 0.81731,1.36362 0.88022,1.83657 0.21156,1.59035 -0.31867,1.07268 -2.50671,-2.4474 -3.33765,-5.36956 -4.51272,-9.17039 -4.49165,-14.52854 0.0334,-8.5006 3.66429,-14.55772 10.3653,-17.29178 0.86383,-0.35245 1.14221,-0.54127 0.67555,-0.45822 -0.43656,0.0777 -1.78198,0.63337 -2.98982,1.23485 -2.67631,1.33273 -4.67752,3.3834 -6.32561,6.48194 -1.39852,2.62933 -1.88811,4.47757 -2.16089,8.15758 -0.2796,3.77204 -0.0114,6.30158 0.98923,9.33143 0.85443,2.58703 3.09927,7.20503 3.50242,7.20503 0.13079,0 0.2378,0.12286 0.2378,0.27302 0,0.15017 1.09029,1.81418 2.42288,3.69781 2.16167,3.05557 2.46026,3.37556 2.76971,2.96812 0.19075,-0.25116 0.3655,-0.36736 0.38832,-0.25822 0.0228,0.10914 0.0629,0.28774 0.0891,0.39688 0.0507,0.21113 1.80403,2.14374 1.96721,2.16828 0.0531,0.008 -0.11479,-0.31289 -0.37312,-0.71308 z m 6.68787,-1.72306 c 0.32477,-0.47114 0.95863,-1.28823 1.40857,-1.81575 0.67253,-0.78848 0.82901,-1.21984 0.87947,-2.42451 0.0338,-0.80595 0.22974,-1.68403 0.4355,-1.95129 0.20577,-0.26725 0.054,-0.20071 -0.33732,0.14787 -0.3913,0.34857 -0.6365,0.76529 -0.54489,0.92604 0.0916,0.16075 0.0691,0.204 -0.05,0.0961 -0.2364,-0.21415 -0.92665,0.25171 -0.92665,0.62542 0,0.1277 0.144,0.20242 0.32,0.16604 0.92994,-0.19222 -0.30473,2.83817 -1.76077,4.32167 -0.44275,0.4511 -0.53209,0.77355 -0.21288,0.76828 0.10914,-0.002 0.46416,-0.38875 0.78893,-0.85989 z"
         id="path357" /><path
         style="fill:#b8d2e5"
         d="m 151.27552,182.89106 c 0.74174,-0.45988 0.95024,-0.85771 0.44952,-0.85771 -0.15294,0 -0.45238,-0.38696 -0.6654,-0.8599 -0.21303,-0.47294 -0.48973,-1.03849 -0.6149,-1.25677 -0.91158,-1.58973 -1.3566,-2.68897 -1.19467,-2.95098 0.13051,-0.21117 0.0114,-0.26068 -0.38057,-0.15818 -0.65823,0.17213 -0.68538,0.11087 -0.25573,-0.57711 0.24537,-0.3929 0.24147,-0.59247 -0.0177,-0.9047 -0.18286,-0.22034 -1.32166,-2.46243 -2.53065,-4.98242 -4.7227,-9.84385 -7.41529,-15.29745 -7.55278,-15.29745 -0.079,0 -0.36019,0.6096 -0.62482,1.35467 -0.26462,0.74507 -0.79858,1.63427 -1.18658,1.97602 -0.79652,0.70156 -1.55023,0.75468 -6.58828,0.46438 l -2.97241,-0.17127 -0.51219,-1.0843 c -0.28171,-0.59636 -1.1277,-2.45351 -1.87999,-4.127 -0.75228,-1.67349 -1.5357,-3.38842 -1.74091,-3.81096 -0.37253,-0.76703 -0.52266,-1.98302 -0.20571,-1.66606 0.0921,0.0921 0.39119,-0.11706 0.66469,-0.46476 0.27349,-0.34769 0.86102,-0.71206 1.30561,-0.80971 0.44459,-0.0977 1.12775,-0.34418 1.51813,-0.54785 0.39038,-0.20367 0.91111,-0.37105 1.15719,-0.37194 0.24607,-9e-4 0.52099,-0.12069 0.61092,-0.26622 0.20794,-0.33645 1.46375,-0.33645 1.98438,0 0.31313,0.20237 0.25388,0.25734 -0.28084,0.26054 -0.37274,0.002 -0.96276,0.27194 -1.31114,0.59936 -0.34839,0.32742 -1.05545,0.74212 -1.57125,0.92154 -0.5158,0.17943 -0.67004,0.2799 -0.34276,0.22328 0.32727,-0.0566 0.65696,-0.003 0.73262,0.11965 0.0757,0.12244 -0.25163,0.26121 -0.72734,0.3084 -0.4757,0.0472 0.38514,0.18145 1.91299,0.29837 l 2.7779,0.21259 0.66656,-0.74426 c 0.36661,-0.40934 1.25513,-1.22051 1.97449,-1.80259 0.71937,-0.58208 1.66968,-1.46596 2.11179,-1.96417 0.44212,-0.49821 1.30987,-1.38078 1.92833,-1.96127 0.61847,-0.58049 1.12448,-1.27419 1.12448,-1.54156 0,-0.26737 0.11907,-0.48613 0.26459,-0.48613 0.14552,0 0.26458,-0.13751 0.26458,-0.30559 0,-0.18283 -0.19436,-0.12969 -0.48385,0.1323 -0.26612,0.24083 -0.74237,0.43788 -1.05834,0.43788 -0.31596,0 -0.57448,0.13759 -0.57448,0.30575 0,0.57477 -1.30107,2.01265 -1.97397,2.18154 -0.36952,0.0927 -0.67186,0.27157 -0.67186,0.3974 0,0.12583 -0.38695,0.19069 -0.8599,0.14414 -0.47294,-0.0466 -0.95622,-0.0922 -1.07394,-0.10153 -0.11773,-0.009 -0.15034,-0.11998 -0.0725,-0.24599 0.0779,-0.126 0.43694,-0.17264 0.79792,-0.10363 1.21326,0.23193 3.50851,-1.70631 2.82729,-2.38753 -0.40185,-0.40185 -2.14949,-0.27088 -2.66991,0.20009 -0.24523,0.22193 -0.58532,0.40351 -0.75576,0.40351 -0.17044,0 -0.3099,0.10632 -0.3099,0.23627 0,0.12996 -0.17859,0.30481 -0.39687,0.38857 -0.24175,0.0928 -0.39688,4.2e-4 -0.39688,-0.23627 0,-0.21372 0.1786,-0.38857 0.39688,-0.38857 0.21828,0 0.39687,-0.1786 0.39687,-0.39688 0,-0.21828 0.10518,-0.39687 0.23373,-0.39687 0.12855,0 0.3101,-0.20836 0.40346,-0.46302 0.38664,-1.05473 1.0389,-1.99094 1.46467,-2.10228 0.29983,-0.0784 0.65114,-0.77445 1.03362,-2.04788 0.85352,-2.84167 0.97674,-2.91144 4.78073,-2.7069 2.27946,0.12256 3.18264,0.085 3.25612,-0.13546 0.0763,-0.22902 0.32822,-0.22611 1.01035,0.0117 0.60732,0.21172 0.93881,0.22626 0.99962,0.0438 0.05,-0.1501 0.30802,-0.27291 0.57331,-0.27291 0.33914,0 0.44433,0.1454 0.35429,0.48972 -0.0704,0.26935 0.0598,0.67757 0.28935,0.90715 0.56721,0.56721 0.5598,0.59592 -0.62533,2.42114 -2.46636,3.79845 -3.58935,8.32216 -3.38718,13.64449 0.22049,5.80461 2.03325,10.38911 6.85252,17.33021 3.684,5.30598 3.76055,5.44315 4.65105,8.33438 0.69039,2.24149 0.7613,2.79274 0.65517,5.09322 l -0.11901,2.57969 -2.28355,-0.007 c -2.2611,-0.007 -2.27639,-0.0115 -1.55594,-0.45816 z m 4.75542,-2.11449 c 0.11447,-2.41677 0.0608,-2.77183 -0.84988,-5.62239 -0.82996,-2.59788 -1.25623,-3.44886 -2.91579,-5.82083 -1.06905,-1.52797 -2.56472,-3.6711 -3.3237,-4.76251 -1.92095,-2.7623 -3.4488,-5.99811 -4.36292,-9.24015 -0.66783,-2.36854 -0.77761,-3.21499 -0.77761,-5.996 0,-5.09457 0.7572,-8.1578 2.91386,-11.788 2.98759,-5.02886 8.94539,-8.1125 13.81861,-7.15223 2.34452,0.46199 5.64454,2.14396 7.27662,3.70879 5.42069,5.19731 7.11947,14.53671 4.18889,23.02935 -1.08487,3.14388 -2.45189,5.51804 -6.26335,10.87783 -2.68062,3.76957 -2.95133,4.26817 -3.8787,7.14375 -0.79467,2.46412 -0.89259,3.08465 -0.86637,5.4901 l 0.0296,2.71198 h -1.99498 -1.99498 l -0.001,-2.84427 c -10e-4,-2.58981 -0.0828,-3.06311 -0.91218,-5.2904 -0.86771,-2.33013 -1.44226,-3.5871 -1.45974,-3.19349 -0.004,0.0997 0.12266,0.51639 0.28241,0.92604 0.15975,0.40966 0.60623,1.81639 0.99219,3.12608 0.58452,1.98351 0.68755,2.79004 0.61681,4.82865 -0.0512,1.47639 -0.19497,2.44739 -0.36229,2.44739 -0.18282,0 -0.23571,-0.87932 -0.15518,-2.57969 z m 0.32794,-8.73125 c -0.25718,-0.40018 -1.05503,-1.47174 -1.773,-2.38125 -0.71797,-0.9095 -1.22243,-1.65364 -1.12102,-1.65364 0.10142,0 -0.0785,-0.21289 -0.39984,-0.47308 -0.36894,-0.29875 -0.55037,-0.69354 -0.49233,-1.07133 l 0.0919,-0.59824 1.05834,0.75864 c 0.58208,0.41725 1.59411,0.91316 2.24896,1.10201 0.65484,0.18885 1.49302,0.4527 1.86263,0.58634 0.51066,0.18463 1.1089,0.0785 2.4917,-0.44197 1.00083,-0.37671 2.06765,-0.82306 2.3707,-0.99188 0.30306,-0.16882 0.63038,-0.31117 0.7274,-0.31632 0.097,-0.005 0.26568,-0.0987 0.37482,-0.20782 0.10914,-0.10914 0.35644,-0.19843 0.54956,-0.19843 0.74723,0 -0.0352,1.75237 -1.7525,3.92489 -1.59336,2.01575 -0.78206,1.80293 0.92074,-0.24152 1.74247,-2.09207 1.92993,-2.47316 1.91401,-3.89087 -0.0133,-1.18725 0.0977,-1.51648 0.73608,-2.18282 1.27381,-1.32957 0.60044,-0.86846 -1.11364,0.7626 -2.43163,2.31386 -3.5871,2.76844 -6.69177,2.63266 -3.07946,-0.13468 -4.19758,-0.64098 -6.4358,-2.91422 -0.85371,-0.86707 -1.61105,-1.51764 -1.68297,-1.44572 -0.0719,0.0719 0.23518,0.63596 0.68247,1.25342 0.49866,0.68839 0.81096,1.4399 0.80735,1.94284 l -0.006,0.82019 -0.52573,-0.66145 c -2.52683,-3.17924 -5.21345,-8.70146 -5.96183,-12.25428 -0.48749,-2.31427 -0.48766,-7.25592 -3.4e-4,-9.74901 0.738,-3.77551 2.53774,-7.23005 4.91216,-9.42869 1.78731,-1.655 5.18694,-3.38204 7.39296,-3.75569 1.19878,-0.20304 1.20011,-0.20445 0.22306,-0.23538 -1.73316,-0.0549 -4.95232,1.25105 -7.14479,2.89844 -2.55857,1.92247 -5.07523,6.1832 -5.92732,10.03502 -0.67491,3.05086 -0.60948,8.29617 0.13688,10.97451 1.26873,4.55286 2.55496,7.05718 6.45776,12.57341 2.9949,4.23301 3.61736,5.02467 2.86046,3.63802 -0.43774,-0.80195 -0.46719,-0.99219 -0.15363,-0.99219 0.21338,0 0.35819,0.14883 0.32181,0.33073 -0.0364,0.1819 0.0827,0.30096 0.26458,0.26458 0.1819,-0.0364 0.30097,0.0259 0.26459,0.13831 -0.0578,0.17866 1.62692,2.11049 1.88251,2.15861 0.0531,0.01 -0.11385,-0.30923 -0.37103,-0.70942 z m 7.11153,-11.83449 c -0.0264,-0.29242 0.2432,-0.5743 0.72214,-0.75508 0.55018,-0.20766 1.00416,-0.75624 1.62084,-1.95859 0.50968,-0.99372 0.98864,-1.61947 1.18261,-1.54503 0.20364,0.0781 0.26821,-0.0255 0.17204,-0.27615 -0.0847,-0.22069 -0.0296,-0.66111 0.12238,-0.97871 0.43317,-0.90511 0.85845,-3.52054 1.01888,-6.26601 0.21276,-3.64109 -0.23865,-5.29347 -1.93435,-7.08074 -0.7232,-0.76226 -1.50753,-1.38593 -1.74295,-1.38593 -0.23542,0 -0.58362,-0.21346 -0.77377,-0.47436 -0.86464,-1.18635 -4.89815,-1.5111 -6.43158,-0.51782 -0.50548,0.32742 -0.92087,0.71437 -0.92309,0.85989 -0.002,0.14552 -0.35515,0.49983 -0.78429,0.78735 -0.94258,0.63152 -1.09837,0.93832 -2.00535,3.94931 -0.61477,2.04094 -0.69627,2.7126 -0.61046,5.0308 0.0883,2.38437 0.19348,2.8653 0.96725,4.42135 0.79696,1.60264 1.29171,2.27595 2.21919,3.02006 0.92471,0.74188 2.81678,1.91496 3.58458,2.22244 0.47294,0.18939 0.8599,0.44897 0.8599,0.57683 0,0.12787 0.47625,0.23249 1.05833,0.23249 0.78911,0 1.05833,0.10657 1.05833,0.41892 0,0.23041 0.14883,0.36642 0.33073,0.30225 0.1819,-0.0642 0.31179,-0.32664 0.28864,-0.58327 z m -1.72569,20.56574 c -0.0763,-2.33466 5.1e-4,-2.84306 0.80867,-5.35264 0.92485,-2.87192 1.34218,-3.58563 5.41418,-9.25922 4.50628,-6.27871 6.53214,-12.41095 6.16437,-18.65949 -0.27904,-4.74095 -1.70092,-8.83019 -4.24903,-12.21992 -2.57477,-3.4252 -7.37911,-5.90404 -11.44287,-5.90404 -2.01778,0 -4.05566,0.41989 -4.05566,0.83563 0,0.12249 -0.33897,0.2227 -0.75327,0.2227 -0.4143,0 -1.02375,0.23459 -1.35434,0.52132 -0.3306,0.28672 -0.8289,0.59361 -1.10735,0.68199 -0.27844,0.0884 -0.80953,0.44174 -1.18018,0.78525 -0.37066,0.34351 -0.84442,0.55914 -1.05281,0.47917 -0.25192,-0.0967 -0.32952,-0.0167 -0.23156,0.23855 0.17562,0.45766 -0.52779,1.11732 -0.9278,0.87009 -0.42806,-0.26455 -0.0137,-0.72484 0.48251,-0.53602 0.34967,0.13306 0.37061,0.0999 0.10552,-0.16717 -0.36394,-0.36664 -0.44497,-0.79212 -0.13229,-0.69466 0.10914,0.034 0.53185,-0.27504 0.93936,-0.6868 0.55825,-0.56408 0.89897,-0.70898 1.38201,-0.58774 0.4859,0.12195 0.60608,0.0696 0.49643,-0.2161 -0.0857,-0.22344 0.0518,-0.42782 0.33778,-0.50175 0.4382,-0.1133 0.43998,-0.12756 0.0194,-0.15543 -0.35868,-0.0238 -0.46302,-0.26917 -0.46302,-1.08903 0,-0.9525 0.0661,-1.05833 0.66146,-1.05833 0.41157,0 0.66146,0.14993 0.66146,0.39687 0,0.28663 0.29398,0.39688 1.05833,0.39688 0.76435,0 1.05834,-0.11025 1.05834,-0.39688 0,-0.28663 -0.29399,-0.39687 -1.05834,-0.39687 -0.78161,0 -1.05833,-0.10773 -1.05833,-0.412 0,-0.35512 -0.45198,-0.40078 -3.27417,-0.33073 -2.82069,0.07 -3.25303,0.0264 -3.12158,-0.31489 0.1237,-0.32118 0.019,-0.30866 -0.55299,0.0662 -0.38806,0.25426 -0.85858,0.45965 -1.0456,0.45642 -0.42909,-0.007 0.86519,-1.03859 1.31361,-1.04657 0.1819,-0.003 0.33073,-0.0993 0.33073,-0.21342 0,-0.43033 1.74076,-1.21321 2.57299,-1.15717 0.74221,0.05 0.86698,-0.0283 0.8693,-0.54523 0.002,-0.46813 0.33579,-0.76878 1.4867,-1.33951 1.12572,-0.55824 1.44518,-0.63477 1.32324,-0.31699 -0.10868,0.28323 -0.0546,0.35887 0.16695,0.23353 0.63528,-0.35941 1.51832,-1.26074 1.51832,-1.54976 0,-0.16088 0.59531,-0.52352 1.32292,-0.80587 0.7276,-0.28236 1.32291,-0.66575 1.32291,-0.852 0,-0.19987 0.32526,-0.33863 0.79375,-0.33863 0.43656,0 0.79375,-0.11906 0.79375,-0.26458 0,-0.14552 0.16346,-0.26459 0.36324,-0.26459 0.50254,0 2.75439,-1.01603 2.94871,-1.33045 0.0967,-0.15642 3.05295,-0.25705 7.55158,-0.25705 h 7.39272 v 4.8948 4.89479 h -2.51354 c -2.05787,0 -2.51354,0.072 -2.51354,0.39687 0,0.24695 0.24988,0.39688 0.66146,0.39688 0.59531,0 0.66145,0.10583 0.66145,1.05833 0,0.9525 0.0661,1.05833 0.66146,1.05833 0.57957,0 0.66146,0.11466 0.66146,0.92605 0,0.51119 0.20743,1.1546 0.46302,1.43624 1.15404,1.27163 1.43749,1.87105 0.88479,1.87105 -0.13183,0 -0.10206,0.29672 0.0661,0.65939 0.16821,0.36267 0.45466,0.66032 0.63656,0.66146 0.26211,0.002 0.33073,4.9156 0.33073,23.68227 v 23.68021 h -7.25788 -7.25789 z m -32.76034,-44.01311 c 0,-0.57556 -1.41221,-2.09053 -1.94872,-2.09053 -0.41932,0 -1.0196,-1.01519 -0.8053,-1.36193 0.11654,-0.18856 0.255,-0.16307 0.41768,0.0769 0.17344,0.25585 0.22095,0.16896 0.16536,-0.30248 -0.0759,-0.6438 -0.0374,-0.65985 1.44337,-0.60105 1.42196,0.0565 1.91053,-0.18554 1.22719,-0.60786 -0.16179,-0.1 -0.38712,-0.0314 -0.50073,0.15242 -0.15162,0.24533 -0.28711,0.18372 -0.5094,-0.23164 -0.25594,-0.47822 -0.19887,-0.678 0.36843,-1.28981 0.66137,-0.71326 0.88128,-1.39081 0.45141,-1.39081 -0.12093,0 -0.37918,0.29765 -0.57388,0.66146 -0.1947,0.3638 -0.51247,0.66145 -0.70616,0.66145 -0.1937,0 -0.35217,0.0943 -0.35217,0.20954 0,0.11524 -0.53527,0.79985 -1.18948,1.52135 -0.65422,0.7215 -1.19,1.43437 -1.19063,1.58414 -6.3e-4,0.14978 -0.23927,0.44395 -0.53031,0.65372 -0.29104,0.20977 -0.53293,0.50395 -0.53752,0.65373 -0.009,0.29572 -1.19773,1.72752 -1.43416,1.72752 -0.0797,0 -0.14498,-4.28625 -0.14498,-9.525 v -9.525 l 9.45885,0.009 9.45885,0.009 -0.66145,0.53685 c -3.78018,3.06805 -7.25678,6.29988 -7.02564,6.53101 0.0892,0.0892 0.78374,-0.45476 1.5434,-1.20884 0.75966,-0.75407 1.67885,-1.60962 2.04265,-1.90122 1.33977,-1.07385 3.04734,-2.53996 3.78272,-3.2478 l 0.7559,-0.72761 9.17392,0.0132 9.17392,0.0132 -3.70417,1.86157 c -4.35981,2.19108 -7.80053,4.11616 -10.18645,5.69931 -4.76879,3.16427 -5.92887,3.97065 -6.49901,4.51748 -0.34138,0.32742 -0.73267,0.59531 -0.86953,0.59531 -0.13686,0 -0.52923,0.2956 -0.87192,0.65689 -0.3427,0.36129 -0.75524,0.65895 -0.91675,0.66146 -0.16152,0.003 -0.5172,0.30223 -0.79041,0.66603 -0.2732,0.3638 -0.64707,0.66146 -0.83081,0.66146 -0.18374,0 -0.33407,0.11906 -0.33407,0.26458 0,0.14552 -0.24928,0.26458 -0.55394,0.26458 -0.33142,0 -0.60952,0.21257 -0.69232,0.52917 -0.0761,0.29104 -0.30309,0.52917 -0.50439,0.52917 -0.20131,0 -0.36602,0.18661 -0.36602,0.4147 0,0.30852 -0.15243,0.36731 -0.59531,0.22961 -0.32742,-0.1018 -0.635,-0.28842 -0.68351,-0.4147 -0.14987,-0.39019 -0.83785,-0.25285 -0.83785,0.16726 0,0.21828 0.1786,0.39688 0.39688,0.39688 0.24694,0 0.39687,0.24988 0.39687,0.66146 0,0.55561 -0.12451,0.66145 -0.77813,0.66145 -0.42798,0 -0.85172,0.11907 -0.94166,0.26459 -0.3141,0.50822 -1.19062,0.2942 -1.19062,-0.29072 z"
         id="path356" /><path
         style="fill:#b1c7d8"
         d="m 153.06146,182.29793 c 0,-0.76435 -0.11024,-1.05833 -0.39688,-1.05833 -0.24336,0 -0.39687,-0.24748 -0.39687,-0.63982 0,-0.3519 -0.0723,-0.82815 -0.1606,-1.05834 -0.21417,-0.5581 -0.89773,-0.53659 -0.89773,0.0283 0,0.37889 -0.0804,0.36047 -0.52917,-0.12122 -0.29104,-0.3124 -0.52917,-0.78346 -0.52917,-1.04681 0,-0.26335 -0.29765,-0.91685 -0.66146,-1.45223 -0.3638,-0.53539 -0.66145,-1.16207 -0.66145,-1.39264 0,-0.23057 -0.1786,-0.48775 -0.39688,-0.57151 -0.21828,-0.0838 -0.39687,-0.30127 -0.39687,-0.48334 0,-0.18208 -1.82664,-4.06864 -4.0592,-8.6368 -2.23255,-4.56817 -4.32677,-8.8713 -4.65381,-9.56252 -0.32704,-0.69123 -0.67685,-1.25678 -0.77735,-1.25678 -0.10051,0 -0.40679,0.56555 -0.68063,1.25678 -0.27384,0.69122 -0.87603,1.57903 -1.3382,1.97291 l -0.84032,0.71614 -4.12755,-0.1612 c -2.27015,-0.0887 -4.22596,-0.23232 -4.34625,-0.31926 -0.30906,-0.2234 -4.57669,-9.65432 -4.57669,-10.11393 0,-0.12683 0.17859,-0.2306 0.39687,-0.2306 0.21828,0 0.39688,-0.1786 0.39688,-0.39688 0,-0.21828 0.17009,-0.39687 0.37797,-0.39687 0.20789,0 0.53633,-0.15835 0.72987,-0.35189 0.4101,-0.4101 2.33174,-0.77971 2.33174,-0.44848 0,0.12358 -0.47618,0.30514 -1.05819,0.40347 -0.582,0.0983 -1.14755,0.32946 -1.25677,0.51362 -0.10922,0.18417 -0.37718,0.39514 -0.59546,0.46883 -0.21828,0.0737 1.32953,0.21875 3.43959,0.32237 l 3.83645,0.1884 1.5875,-1.40806 c 0.87313,-0.77443 3.09788,-2.9261 4.9439,-4.78149 1.84602,-1.85539 3.48313,-3.37344 3.63802,-3.37344 0.15489,0 0.28163,-0.13045 0.28163,-0.28988 0,-0.15944 0.24623,-0.63569 0.54718,-1.05834 0.30095,-0.42264 0.42001,-0.76845 0.26458,-0.76845 -0.15543,0 -0.2826,-0.47625 -0.2826,-1.05833 0,-0.58208 -0.11906,-1.05833 -0.26458,-1.05833 -0.14552,0 -0.26458,0.12074 -0.26458,0.26831 0,0.38916 -1.64938,1.82997 -2.11667,1.84901 -0.21828,0.009 -0.62799,0.19098 -0.91047,0.40463 -0.557,0.4213 -3.32286,0.54958 -3.32286,0.15412 0,-0.12888 0.17786,-0.57537 0.39524,-0.99218 0.21739,-0.41682 0.39598,-0.93857 0.39688,-1.15945 8.9e-4,-0.22088 0.297,-0.83628 0.65801,-1.36756 l 0.65638,-0.96595 3.11393,0.1496 c 1.71266,0.0823 3.18685,0.26149 3.27597,0.39823 0.0891,0.13674 0.62604,0.21512 1.19315,0.17418 0.81937,-0.0592 1.17386,0.0683 1.72616,0.62058 l 0.69503,0.69504 -0.89054,1.32238 c -2.3725,3.52296 -3.53799,7.68429 -3.54382,12.65311 -0.004,3.16221 0.37485,5.42674 1.41312,8.45303 1.21856,3.55178 2.24688,5.33374 7.26641,12.59178 1.34469,1.94436 1.99008,3.20463 2.64213,5.15937 0.94856,2.84359 0.96397,2.94859 0.89416,6.09229 -0.0509,2.2912 -0.47509,2.98352 -0.64849,1.05833 l -0.10128,-1.12448 -0.0462,1.12448 c -0.0416,1.01073 -0.11314,1.12448 -0.70768,1.12448 -0.59532,0 -0.66146,-0.10583 -0.66146,-1.05833 z m 0.52917,-4.21129 c 0,-0.56995 -0.0893,-1.07597 -0.19844,-1.12448 -0.10914,-0.0485 -0.42555,-0.53467 -0.70312,-1.08038 -0.65018,-1.27821 -0.95053,-1.25731 -0.95053,0.0662 0,0.76435 0.11025,1.05833 0.39688,1.05833 0.28663,0 0.39687,0.29398 0.39687,1.05834 0,0.88194 0.0882,1.05833 0.52917,1.05833 0.43909,0 0.52917,-0.17639 0.52917,-1.03629 z m 2.44031,2.68993 c 0.11447,-2.41677 0.0608,-2.77183 -0.84988,-5.62239 -0.82996,-2.59788 -1.25623,-3.44886 -2.91579,-5.82083 -1.06905,-1.52797 -2.56472,-3.6711 -3.3237,-4.76251 -1.92095,-2.7623 -3.4488,-5.99811 -4.36292,-9.24015 -0.66783,-2.36854 -0.77761,-3.21499 -0.77761,-5.996 0,-5.09457 0.7572,-8.1578 2.91386,-11.788 2.98759,-5.02886 8.94539,-8.1125 13.81861,-7.15223 2.34452,0.46199 5.64454,2.14396 7.27662,3.70879 5.42069,5.19731 7.11947,14.53671 4.18889,23.02935 -1.08487,3.14388 -2.45189,5.51804 -6.26335,10.87783 -2.68062,3.76957 -2.95133,4.26817 -3.8787,7.14375 -0.79467,2.46412 -0.89259,3.08465 -0.86637,5.4901 l 0.0296,2.71198 h -1.99498 -1.99498 v -2.79132 c 0,-2.45267 -0.10234,-3.08666 -0.84352,-5.22553 -0.78283,-2.25907 -1.81538,-4.472 -2.36416,-5.06679 -0.45756,-0.49593 -0.23043,0.31415 0.26449,0.94334 0.41555,0.52829 1.69546,4.08096 2.372,6.58405 0.27344,1.01165 0.0502,5.55625 -0.2729,5.55625 -0.18282,0 -0.23571,-0.87932 -0.15518,-2.57969 z m 0.32794,-8.73125 c -0.25718,-0.40018 -1.05503,-1.47174 -1.773,-2.38125 -0.71797,-0.9095 -1.22243,-1.65364 -1.12102,-1.65364 0.10142,0 -0.0785,-0.21289 -0.39984,-0.47308 -0.36894,-0.29875 -0.55037,-0.69354 -0.49233,-1.07133 l 0.0919,-0.59824 1.05834,0.75864 c 0.58208,0.41725 1.59411,0.91316 2.24896,1.10201 0.65484,0.18885 1.49302,0.4527 1.86263,0.58634 0.51066,0.18463 1.1089,0.0785 2.4917,-0.44197 1.00083,-0.37671 2.06765,-0.82306 2.3707,-0.99188 0.30306,-0.16882 0.63038,-0.31117 0.7274,-0.31632 0.097,-0.005 0.26568,-0.0987 0.37482,-0.20782 0.10914,-0.10914 0.35644,-0.19843 0.54956,-0.19843 0.74723,0 -0.0352,1.75237 -1.7525,3.92489 -1.02052,1.29106 -1.07518,1.92714 -0.0759,0.88296 2.47925,-2.59061 2.97657,-3.43897 2.97657,-5.07772 0,-1.24658 0.10788,-1.59133 0.66041,-2.1104 0.36323,-0.34124 0.62515,-0.6557 0.58204,-0.6988 -0.0431,-0.0431 -0.80593,0.61395 -1.69517,1.46013 -2.42214,2.30482 -3.58027,2.75956 -6.68255,2.62388 -3.07946,-0.13468 -4.19758,-0.64098 -6.4358,-2.91422 -1.6587,-1.68465 -2.28223,-1.89574 -1.12739,-0.38166 0.38546,0.50536 0.76432,1.37638 0.84191,1.93561 l 0.14109,1.01678 -0.55544,-0.66145 c -0.67329,-0.8018 -3.1916,-4.88533 -3.1916,-5.17529 0,-0.11385 -0.1623,-0.39498 -0.36066,-0.62472 -0.5771,-0.6684 -2.01802,-4.49067 -2.43313,-6.45427 -0.4544,-2.14944 -0.49622,-6.61265 -0.0867,-9.25859 0.26858,-1.73554 1.23382,-4.58271 2.12887,-6.27952 0.455,-0.86256 2.09436,-2.96978 2.51741,-3.23585 0.17864,-0.11235 0.47951,-0.35868 0.66859,-0.54741 1.65206,-1.64888 5.03818,-3.28519 7.44846,-3.59939 l 1.62658,-0.21203 -1.37982,-0.0335 c -3.20659,-0.078 -7.65498,2.2963 -9.92798,5.29894 -1.48202,1.95774 -3.01817,5.26869 -3.541,7.63209 -0.67491,3.05086 -0.60948,8.29617 0.13688,10.97451 1.25088,4.48879 2.58161,7.10201 6.22081,12.21607 1.88022,2.6422 2.38246,3.1897 2.82088,3.07505 0.36228,-0.0947 0.50856,-0.0225 0.45598,0.22505 -0.0426,0.20049 0.0714,0.33476 0.25331,0.29838 0.1819,-0.0364 0.30097,0.0246 0.26459,0.13542 -0.06,0.18284 1.65425,2.16327 1.88251,2.17481 0.0531,0.003 -0.11385,-0.32254 -0.37103,-0.72273 z m 4.73268,-8.53281 c 0.14036,-0.7018 0.26679,-0.79375 1.09141,-0.79375 0.59357,0 0.93266,-0.12629 0.93266,-0.34737 0,-0.44161 1.37227,-1.7693 1.82872,-1.7693 0.18951,0 0.28089,-0.16591 0.20307,-0.3687 -0.0778,-0.20279 0.14757,-0.64027 0.50086,-0.97217 0.35329,-0.3319 0.64235,-0.75327 0.64235,-0.93637 0,-0.18311 0.2431,-0.41009 0.54022,-0.50439 0.40009,-0.12698 0.49569,-0.31178 0.36853,-0.71242 -0.12547,-0.39531 -0.0816,-0.48528 0.16291,-0.33416 0.2453,0.1516 0.29333,0.049 0.17994,-0.38464 -0.11739,-0.44892 -0.0604,-0.55526 0.23665,-0.44128 0.21522,0.0826 0.32528,0.0433 0.24457,-0.0873 -0.16737,-0.27082 0.53475,-3.35827 0.92157,-4.0524 0.14081,-0.25269 0.25602,-0.82526 0.25602,-1.27239 0,-0.47459 0.11012,-0.74489 0.26458,-0.64943 0.14553,0.0899 0.26459,0.0473 0.26459,-0.0946 0,-0.14198 -0.1388,-0.30441 -0.30843,-0.36096 -0.22329,-0.0744 -0.23507,-0.3179 -0.0427,-0.88194 0.32763,-0.96054 -0.11438,-5.11888 -0.59521,-5.59972 -0.17987,-0.17986 -0.48632,-0.68686 -0.68099,-1.12666 -0.19467,-0.4398 -0.44395,-0.79963 -0.55395,-0.79963 -0.10999,0 -0.19999,-0.1786 -0.19999,-0.39688 0,-0.21828 0.11906,-0.39687 0.26458,-0.39687 0.14552,0 0.26459,-0.14288 0.26459,-0.3175 0,-0.24695 -0.0706,-0.24695 -0.3175,0 -0.476,0.47599 -0.8828,0.38822 -1.57296,-0.33939 -0.3427,-0.36129 -0.77674,-0.65894 -0.96453,-0.66146 -0.18779,-0.003 -0.68984,-0.26215 -1.11567,-0.57698 -0.59175,-0.4375 -1.26699,-0.60094 -2.86496,-0.69344 -2.46624,-0.14277 -3.59386,0.16701 -4.88776,1.34279 -0.51393,0.46701 -1.27134,1.10306 -1.68312,1.41346 -0.45158,0.34038 -0.94476,1.12411 -1.24271,1.97481 -0.2717,0.77576 -0.67549,1.68746 -0.89732,2.026 -0.54435,0.83079 -0.72113,2.26912 -0.72342,5.88587 -0.002,3.0563 0.37987,5.01576 1.12754,5.78658 0.19345,0.19945 0.42029,0.70546 0.5041,1.12448 0.0838,0.41903 0.25655,0.76186 0.38388,0.76186 0.12733,0 0.23151,0.1786 0.23151,0.39688 0,0.21828 0.11906,0.39687 0.26458,0.39687 0.14552,0 0.26459,0.11504 0.26459,0.25564 0,0.43961 1.94845,2.39779 2.11604,2.12661 0.22297,-0.36077 1.39059,0.50096 1.2335,0.91034 -0.18954,0.49393 0.18568,0.93918 0.90323,1.07182 0.35311,0.0653 0.82061,0.35569 1.03889,0.64538 0.59474,0.78931 1.23041,0.67826 1.41552,-0.24729 z m 10.87646,-8.37495 c 0.60007,-2.06402 1.18599,-7.64544 0.69012,-6.57401 -0.1347,0.29104 -0.25368,1.24354 -0.2644,2.11667 -0.0168,1.37119 -0.81564,4.95808 -1.47307,6.61458 -0.16303,0.41081 -0.13726,0.46217 0.11525,0.22962 0.1789,-0.16475 0.59834,-1.23884 0.9321,-2.38686 z m -10.2233,25.63901 c -0.0762,-2.33112 0.001,-2.84737 0.80571,-5.35781 0.91724,-2.86311 0.89491,-2.82593 6.29457,-10.48195 2.43367,-3.45063 4.51404,-8.54509 5.1514,-12.61486 0.35428,-2.26223 0.16459,-6.40549 -0.41899,-9.1514 -0.5151,-2.42375 -2.06095,-5.74401 -3.64837,-7.83616 -1.119,-1.4748 -4.57224,-4.36563 -5.21497,-4.36563 -0.15549,0 -0.48945,-0.10517 -0.74214,-0.23371 -1.98901,-1.01182 -3.67771,-1.43187 -5.74048,-1.42789 l -1.8627,0.004 1.45521,-0.2137 c 1.00148,-0.14707 2.03267,-0.095 3.30729,0.16711 1.01865,0.20945 2.23134,0.30968 2.69488,0.22272 0.6383,-0.11973 0.98745,-0.0233 1.43895,0.39731 0.32789,0.30547 0.93572,0.5554 1.35073,0.5554 0.7748,0 2.18171,0.83164 2.79753,1.65365 0.19078,0.25466 0.56274,0.46302 0.82658,0.46302 0.58864,0 2.66529,1.77709 2.66529,2.28082 0,0.20076 0.11906,0.36501 0.26458,0.36501 0.14552,0 0.26458,0.16868 0.26458,0.37483 0,0.20615 0.0942,0.41451 0.20926,0.46302 0.46624,0.19651 1.90741,2.67208 1.90741,3.27646 0,0.39978 0.1521,0.64819 0.39688,0.64819 0.34622,0 0.39687,1.36387 0.39687,10.68732 0,9.25576 -0.0532,10.70772 -0.39687,10.83962 -0.21828,0.0838 -0.39688,0.32497 -0.39688,0.53603 0,0.51267 -0.84214,2.09274 -1.25677,2.35799 -0.1819,0.11638 -0.33073,0.38427 -0.33073,0.59532 0,0.21105 -0.11906,0.38372 -0.26458,0.38372 -0.14552,0 -0.26459,0.1871 -0.26459,0.41578 0,0.22867 -0.18444,0.60021 -0.40986,0.82564 -0.22543,0.22543 -0.47844,0.7527 -0.56224,1.17173 -0.0838,0.41902 -0.30087,0.76186 -0.48236,0.76186 -0.18149,0 -0.40614,0.47625 -0.49922,1.05833 -0.0931,0.58208 -0.26778,1.05833 -0.38822,1.05833 -0.25963,0 -0.8331,1.18681 -0.8331,1.72413 0,0.42151 -2.07635,4.02398 -4.00056,6.94098 -0.69596,1.05502 -1.16444,1.91823 -1.04107,1.91823 0.26997,0 1.45067,-1.39152 2.49506,-2.94054 0.71572,-1.06156 0.78222,-1.09886 1.12448,-0.63081 0.20007,0.27362 0.36194,0.68309 0.35971,0.90994 -0.003,0.33722 -0.0462,0.34594 -0.235,0.0478 -0.25882,-0.40863 -0.86148,-0.16325 -0.78209,0.31843 0.11773,0.71432 -0.38375,2.29516 -0.7281,2.29516 -0.21553,0 -0.36742,0.27344 -0.36742,0.66145 0,0.36381 -0.11907,0.66146 -0.26459,0.66146 -0.14552,0 -0.26458,0.1786 -0.26458,0.39688 0,0.32315 -0.43896,0.39687 -2.3631,0.39687 h -2.36309 z m -36.99368,-49.9401 c 0,-0.21828 -0.17859,-0.39688 -0.39687,-0.39688 -0.55665,0 -0.52514,-1.80097 0.0425,-2.42818 0.24165,-0.26701 0.36146,-0.56337 0.26626,-0.65857 -0.0952,-0.0952 -0.39616,0.0841 -0.66882,0.3985 -0.27265,0.31437 -0.66036,0.5678 -0.86157,0.56317 -0.26515,-0.006 -0.23841,-0.10515 0.0972,-0.3599 0.25466,-0.19331 0.46302,-0.54671 0.46302,-0.78533 0,-0.23862 0.097,-0.43385 0.21558,-0.43385 0.11857,0 0.4143,-0.41672 0.65718,-0.92604 0.24288,-0.50933 0.53867,-0.92605 0.65731,-0.92605 0.11864,0 0.35566,-0.38702 0.52671,-0.86005 0.32358,-0.89485 2.41973,-4.32165 3.40526,-5.56694 l 0.56724,-0.71676 h 5.85811 5.85811 l -0.90404,0.79375 c -0.49721,0.43657 -0.97761,0.79375 -1.06754,0.79375 -0.0899,0 -0.37524,0.20836 -0.63402,0.46302 -0.25879,0.25467 -1.11367,0.99881 -1.89974,1.65365 -1.87014,1.55795 -4.7886,4.27891 -6.45617,6.01927 -0.73203,0.76399 -1.46486,1.38906 -1.62851,1.38906 -0.30863,0 -1.10263,0.85707 -1.61244,1.7405 -0.31227,0.54112 -0.69036,0.59982 -0.8465,0.13143 -0.0521,-0.15643 0.0937,-0.28443 0.32412,-0.28443 0.23041,0 0.41892,-0.17859 0.41892,-0.39687 0,-0.21828 -0.184,-0.39688 -0.4089,-0.39688 -0.22489,0 -0.70656,-0.29765 -1.07036,-0.66145 -0.3638,-0.36381 -0.73223,-0.66146 -0.81874,-0.66146 -0.0865,0 -0.0897,0.65484 -0.007,1.45521 0.0826,0.80036 0.0993,1.4552 0.037,1.4552 -0.0623,0 -0.11318,-0.17859 -0.11318,-0.39687 z m -2.11231,-8.00365 -0.004,-5.09323 h 3.175 c 1.74625,0 3.175,0.0781 3.175,0.17347 0,0.0954 -0.29766,0.56371 -0.66146,1.04068 -0.3638,0.47697 -0.66146,0.99422 -0.66146,1.14945 0,0.15523 -0.10214,0.28224 -0.22698,0.28224 -0.26757,0 -2.15427,2.98937 -2.15427,3.41331 0,0.15997 -0.097,0.29085 -0.21558,0.29085 -0.11857,0 -0.42043,0.38696 -0.6708,0.8599 -0.25038,0.47294 -0.74672,1.33615 -1.10299,1.91823 l -0.64776,1.05833 z m 25.66023,0.47133 c 0,-0.14096 -0.14883,-0.20349 -0.33073,-0.13896 -0.42196,0.14968 -2.05052,-1.31961 -2.05052,-1.84999 0,-0.7191 -1.00629,-1.45894 -1.98438,-1.45894 -0.90523,0 -0.92604,-0.024 -0.92604,-1.06692 v -1.06691 l 8.50176,0.0284 c 7.5334,0.0252 8.41898,0.0713 7.77497,0.40546 -0.39974,0.20738 -0.89178,0.37706 -1.09343,0.37706 -0.20165,0 -0.36663,0.10518 -0.36663,0.23373 0,0.12855 -0.20836,0.30368 -0.46302,0.38919 -0.25466,0.0855 -0.64162,0.26991 -0.8599,0.40978 -0.21828,0.13987 -1.17078,0.62824 -2.11666,1.08525 -0.94589,0.45702 -2.59501,1.29854 -3.66471,1.87004 -2.02778,1.08337 -2.42071,1.21044 -2.42071,0.78282 z"
         id="path355" /><path
         style="fill:#a2b6ca"
         d="m 155.99214,180.3797 c 0.0437,-2.786 -0.0133,-3.14909 -0.88958,-5.67143 -0.79812,-2.29734 -1.34926,-3.282 -3.73619,-6.67505 -3.75266,-5.33444 -5.18955,-7.91259 -6.38912,-11.46365 -0.92571,-2.7404 -1.01499,-3.26494 -1.11492,-6.55081 -0.18406,-6.05206 1.21885,-10.79783 4.30178,-14.55208 2.18094,-2.65585 6.00581,-4.72996 9.54865,-5.17794 4.12267,-0.52131 9.7637,2.483 12.36424,6.58495 2.43405,3.83936 3.16746,6.62766 3.17915,12.08674 0.008,3.71628 -0.0587,4.32445 -0.71034,6.48229 -1.26278,4.1814 -2.66695,6.72038 -7.46265,13.49375 -1.95939,2.7674 -2.3692,3.54863 -3.19227,6.08542 -0.85141,2.62409 -0.94068,3.17721 -0.90751,5.62239 l 0.0368,2.71198 h -1.99498 -1.99498 l -0.006,-2.84427 c -0.005,-2.62581 -0.0846,-3.06476 -1.03186,-5.71498 -0.56431,-1.57889 -1.17453,-3.00764 -1.35603,-3.175 -0.25861,-0.23845 -0.28535,-0.1898 -0.12359,0.22488 0.11352,0.29104 0.63707,1.89838 1.16344,3.57187 0.86307,2.74399 0.94869,3.28298 0.87208,5.49011 -0.1236,3.56133 -0.6131,3.09569 -0.55629,-0.52917 z m -0.11942,-8.99185 c -0.53522,-0.76617 -1.25817,-1.80977 -1.60657,-2.31909 -0.34839,-0.50932 -0.88104,-1.1767 -1.18365,-1.48305 -0.51678,-0.52317 -0.75696,-1.42736 -0.37916,-1.42736 0.0941,0 0.82815,0.43615 1.63128,0.96923 0.80312,0.53309 1.70841,0.9878 2.01176,1.01048 0.30334,0.0227 0.91274,0.12611 1.35421,0.22984 0.50314,0.11822 1.22946,0.038 1.9464,-0.21493 0.62905,-0.22194 1.26851,-0.32641 1.42102,-0.23216 0.16175,0.1 0.19863,0.0441 0.0885,-0.13408 -0.11951,-0.19337 0.0125,-0.30547 0.35958,-0.30547 0.56176,0 1.38637,-0.38543 2.17817,-1.0181 0.24549,-0.19616 0.57185,-0.27909 0.72524,-0.18429 0.41718,0.25784 -0.28822,1.74794 -1.68959,3.56913 -0.66099,0.859 -1.20179,1.61925 -1.20179,1.68944 0,0.0702 0.23812,0.0653 0.52916,-0.0108 0.29104,-0.0761 0.52917,-0.215 0.52917,-0.30866 0,-0.0936 0.26911,-0.46672 0.59803,-0.82904 1.93727,-2.13396 2.31239,-2.82238 2.31239,-4.24373 0,-1.08473 0.14904,-1.58756 0.67492,-2.27702 0.96562,-1.266 0.64159,-1.09505 -0.98727,0.52085 -0.77935,0.77314 -2.10605,1.74284 -2.94822,2.15488 -1.4391,0.70408 -1.67454,0.73987 -3.91315,0.59484 -2.98143,-0.19316 -4.28771,-0.78973 -6.37816,-2.9129 -1.53385,-1.55784 -2.43068,-1.90718 -1.31087,-0.51061 0.76413,0.95299 1.14659,1.88449 1.05027,2.55801 -0.15425,1.07866 -4.3964,-6.05833 -5.53409,-9.31055 -1.8393,-5.25784 -1.69488,-12.19822 0.34893,-16.76912 0.44673,-0.99909 0.91954,-1.81653 1.0507,-1.81653 0.13116,0 0.10865,0.26789 -0.05,0.59532 -0.27744,0.57251 -0.27269,0.57559 0.12398,0.0804 0.27065,-0.3379 0.3229,-0.6045 0.15197,-0.77544 -0.34702,-0.34702 0.69155,-1.76175 2.60092,-3.54294 1.99543,-1.86148 5.16014,-3.41749 7.57946,-3.72662 l 1.85208,-0.23665 -1.5297,-0.0335 c -2.76602,-0.0605 -6.56695,1.64314 -8.92354,3.99974 -4.78403,4.78402 -6.49963,13.45681 -4.19806,21.22216 0.7537,2.54293 2.57885,6.1719 4.46401,8.87588 0.86237,1.23693 2.24819,3.23025 3.0796,4.42961 1.44222,2.0805 2.07201,2.67573 1.42598,1.34774 -0.24903,-0.51191 -0.20351,-0.4931 0.26522,0.10963 0.31121,0.40018 0.72777,0.7276 0.92569,0.7276 0.19791,0 0.56868,0.35353 0.82392,0.78561 0.25524,0.43209 0.51814,0.73154 0.58423,0.66545 0.0661,-0.0661 -0.31774,-0.74704 -0.85296,-1.51322 z m 4.8126,-5.25658 c 0.0458,-0.11428 0.2278,-0.15231 0.40447,-0.0845 0.17668,0.0678 0.55594,-0.0641 0.8428,-0.29315 0.50558,-0.40364 0.50129,-0.41155 -0.13988,-0.25779 -0.57299,0.13741 -0.59738,0.11859 -0.18237,-0.14073 0.2635,-0.16465 0.65045,-0.2336 0.8599,-0.15323 0.21757,0.0835 0.3808,-0.01 0.3808,-0.21767 0,-0.22629 -0.18873,-0.31445 -0.4993,-0.23323 -0.27462,0.0718 -0.59067,-0.0173 -0.70234,-0.19795 -0.13641,-0.2207 -0.0945,-0.26144 0.12766,-0.12413 0.66111,0.40859 2.47519,-0.93366 2.20687,-1.63289 -0.08,-0.2086 0.0735,-0.34181 0.39391,-0.34181 0.28879,0 0.68848,-0.20145 0.8882,-0.44767 0.19972,-0.24621 0.2254,-0.36511 0.0571,-0.26421 -0.20849,0.12497 -0.25865,0.002 -0.15735,-0.38521 0.14337,-0.54823 0.1617,-0.55089 0.51033,-0.0741 0.1989,0.272 0.30321,0.64679 0.2318,0.83287 -0.20931,0.54547 0.0728,0.38828 0.39982,-0.22278 0.16516,-0.3086 0.18289,-0.48853 0.0394,-0.39985 -0.14349,0.0887 -0.32049,-0.0666 -0.39332,-0.34515 -0.0985,-0.37677 -0.0267,-0.46584 0.28043,-0.34796 0.3033,0.11638 0.3681,0.0418 0.24416,-0.28121 -0.0928,-0.2418 -0.0837,-0.42696 0.0202,-0.41148 0.50851,0.0758 1.21265,-0.0902 0.90548,-0.21341 -0.2611,-0.10476 -0.26963,-0.22406 -0.0362,-0.50537 0.16809,-0.20252 0.40521,-0.30667 0.52694,-0.23144 0.12173,0.0752 0.35293,-0.13444 0.51378,-0.46593 0.28015,-0.57737 0.27515,-0.58112 -0.11901,-0.0891 -0.40704,0.50805 -0.41147,0.50801 -0.41147,-0.004 0,-0.67408 0.90264,-2.35202 1.28817,-2.39462 0.62823,-0.0694 0.6609,-0.10806 0.35224,-0.41672 -0.40425,-0.40425 -0.41474,-0.83216 -0.0143,-0.5847 0.21313,0.13173 0.25127,-0.0194 0.12842,-0.50889 -0.13004,-0.51813 -0.0496,-0.77445 0.31464,-1.00189 0.33276,-0.20781 0.45439,-0.52686 0.38004,-0.99685 -0.0863,-0.54517 -0.0499,-0.60736 0.17188,-0.29434 0.24836,0.35047 0.28172,0.34893 0.2853,-0.0132 0.002,-0.22556 -0.14478,-0.57044 -0.32668,-0.76642 -0.26458,-0.28505 -0.26458,-0.31897 0,-0.16959 0.5614,0.31695 0.43719,-5.28935 -0.16516,-7.45463 -0.6831,-2.45553 -1.29463,-3.83624 -1.6122,-3.63997 -0.16167,0.0999 -0.19833,-0.0141 -0.0929,-0.28895 0.11221,-0.29241 0.0717,-0.39066 -0.1138,-0.27601 -0.17443,0.10781 -0.3614,-0.15611 -0.4741,-0.66925 -0.16458,-0.74934 -0.22374,-0.79575 -0.51192,-0.40164 -0.30388,0.41559 -0.35517,0.41318 -0.76148,-0.0358 -0.23961,-0.26477 -0.43565,-0.62607 -0.43565,-0.80289 0,-0.17682 -0.14949,-0.28717 -0.33219,-0.24521 -0.18271,0.042 -0.61183,-0.20335 -0.95361,-0.54513 -0.46659,-0.46659 -0.80766,-0.58416 -1.369,-0.47189 -0.43266,0.0865 -0.78799,0.0283 -0.84352,-0.13829 -0.16991,-0.50974 -2.73395,-0.58469 -4.15059,-0.12134 -0.72274,0.2364 -1.45905,0.42981 -1.63625,0.42981 -0.1772,0 -0.71244,0.29766 -1.1894,0.66146 -0.47697,0.3638 -0.95964,0.66146 -1.0726,0.66146 -0.26502,0 -2.47576,2.40353 -2.47576,2.69167 0,0.12031 -0.11906,0.21875 -0.26458,0.21875 -0.14553,0 -0.2784,0.50601 -0.29528,1.12448 -0.0169,0.61846 -0.0851,0.91612 -0.15169,0.66146 -0.0666,-0.25467 -0.24522,-0.46303 -0.39704,-0.46303 -0.15464,0 -0.2087,0.25753 -0.12292,0.58556 0.0931,0.35618 -0.0167,0.7732 -0.28039,1.06459 -0.33091,0.36565 -0.36027,0.55226 -0.12407,0.78847 0.23621,0.2362 0.10635,0.40081 -0.54865,0.69549 -0.65171,0.29319 -0.74673,0.41283 -0.39507,0.49745 0.49155,0.11828 0.67317,1.39553 0.19844,1.39553 -0.14554,0 -0.26526,0.68451 -0.26609,1.52135 -0.002,1.98513 0.57414,6.94531 0.80667,6.94531 0.0994,0 0.39156,0.68461 0.64925,1.52136 0.25768,0.83674 0.63613,1.71481 0.841,1.95126 0.20487,0.23645 0.34287,0.5341 0.30667,0.66146 -0.0362,0.12735 0.31556,0.63061 0.7817,1.11835 0.46614,0.48773 0.78227,0.99238 0.70251,1.12144 -0.0798,0.12906 0.0397,0.16375 0.26559,0.0771 0.22584,-0.0867 0.41062,-0.0255 0.41062,0.13601 0,0.31502 1.18052,1.43629 3.30729,3.14129 1.07901,0.86503 1.46926,1.03389 2.11666,0.91588 0.43657,-0.0796 0.83121,-0.23818 0.87699,-0.35246 z m 11.16924,-10.50129 c 0.87739,-2.82499 1.13197,-5.70719 0.79863,-9.04159 -0.16007,-1.60108 -0.40744,-3.18087 -0.54972,-3.51065 -0.18745,-0.43444 -0.20375,-0.27165 -0.0592,0.59102 0.10972,0.65484 0.19614,3.03609 0.19204,5.29167 -0.007,4.00138 -0.28481,5.73323 -1.33201,8.31163 -0.14257,0.35104 -0.1129,0.44909 0.0967,0.31955 0.16631,-0.10278 0.55042,-0.98551 0.85358,-1.96163 z m -10.06185,25.00014 c 0,-2.40449 0.10701,-3.04388 0.90694,-5.41924 0.92021,-2.73247 1.39268,-3.52958 5.52008,-9.31294 2.91865,-4.08964 5.03469,-8.91746 5.77709,-13.18065 0.42202,-2.42342 0.15386,-7.61816 -0.52172,-10.10686 -0.91398,-3.36687 -2.35183,-6.11403 -4.40781,-8.42151 -0.34628,-0.38864 -0.62763,-0.82103 -0.62522,-0.96087 0.002,-0.13984 -0.21279,-0.33983 -0.47822,-0.44443 -0.42268,-0.16655 -0.42705,-0.19248 -0.0352,-0.20876 0.24607,-0.0102 0.52219,0.10241 0.61359,0.2503 0.0914,0.14789 0.27997,0.19858 0.41905,0.11263 0.13907,-0.086 0.22014,-0.0398 0.18015,0.1026 -0.04,0.14238 0.44306,0.63528 1.07343,1.09534 0.81896,0.5977 1.0982,0.96139 0.9782,1.27408 -0.0924,0.24069 -0.082,0.35169 0.023,0.24666 0.24582,-0.24582 1.15993,0.57523 1.15993,1.04184 0,0.19573 0.10032,0.35587 0.22292,0.35587 0.12261,0 0.44734,0.41672 0.72163,0.92604 0.27428,0.50932 0.57174,0.92604 0.66102,0.92604 0.0893,0 0.30887,0.65489 0.48799,1.45531 0.17913,0.80042 0.48098,1.6106 0.67079,1.8004 0.1898,0.18981 0.41041,1.17203 0.49024,2.18272 0.0798,1.01069 0.27323,2.79011 0.42977,3.95428 0.30284,2.25222 0.12534,5.17417 -0.33229,5.47013 -0.16005,0.1035 -0.25578,1.04813 -0.22793,2.24896 0.049,2.11503 -0.0264,2.38782 -1.43266,5.17949 -0.34823,0.6913 -0.63315,1.49497 -0.63315,1.78593 0,0.29097 -0.22637,0.7554 -0.50304,1.03208 -0.27668,0.27667 -0.57372,0.72572 -0.6601,0.99788 -0.0864,0.27216 -0.50276,0.87333 -0.92527,1.33593 -0.42252,0.46259 -0.97509,1.38277 -1.22793,2.04482 -0.25284,0.66206 -0.5626,1.20374 -0.68835,1.20374 -0.12575,0 -0.22864,0.23812 -0.22864,0.52917 0,0.29104 -0.10098,0.52916 -0.2244,0.52916 -0.22447,0 -0.92164,1.45827 -1.23331,2.57969 -0.091,0.32742 -0.27649,0.59531 -0.4122,0.59531 -0.13572,0 -0.24675,0.2311 -0.24675,0.51355 0,0.28246 -0.10557,0.5788 -0.23459,0.65854 -0.12903,0.0797 -0.31302,0.56302 -0.40887,1.07395 -0.0959,0.51093 -0.28794,0.92896 -0.42687,0.92896 -0.13892,0 -0.25259,0.17268 -0.25259,0.38373 0,0.21105 -0.20836,0.50509 -0.46302,0.65341 -0.41073,0.23923 -0.41393,0.2706 -0.0283,0.27773 0.52927,0.01 0.90018,0.8018 0.3755,0.8018 -0.23954,0 -0.31923,0.20333 -0.23332,0.59531 0.10482,0.47828 0.0747,0.51729 -0.15301,0.19844 -0.22503,-0.31504 -0.28432,-0.21956 -0.28754,0.46302 -0.002,0.47294 -0.12311,0.8599 -0.26863,0.8599 -0.14553,0 -0.26459,0.12388 -0.26459,0.27529 0,0.15142 -0.26051,0.62767 -0.57892,1.05834 -0.40276,0.54476 -0.80532,0.78303 -1.32292,0.78303 h -0.74399 z m -15.34583,-10.13585 c 0,-0.25179 -0.16966,-0.64577 -0.37703,-0.87551 -0.37987,-0.42087 -3.43541,-6.47384 -6.01196,-11.9096 -0.76543,-1.61484 -1.51497,-2.89498 -1.66565,-2.84476 -0.15067,0.0502 -0.43099,0.64738 -0.62295,1.32701 -0.25408,0.89959 -0.48201,1.23568 -0.83802,1.23568 -0.35876,0 -0.45216,-0.14095 -0.35064,-0.52916 0.0945,-0.36144 0.008,-0.52917 -0.27259,-0.52917 -0.27026,0 -0.43936,-0.29441 -0.49388,-0.85989 -0.0612,-0.63436 -0.1998,-0.84055 -0.52858,-0.78614 -0.34657,0.0574 -0.48591,-0.20739 -0.62665,-1.19063 -0.0995,-0.69541 -0.39606,-1.6811 -0.65892,-2.19042 -0.26287,-0.50933 -0.55335,-1.27205 -0.64552,-1.69494 -0.14893,-0.68328 -0.21176,-0.72473 -0.56425,-0.37223 -0.35082,0.35082 -0.35182,0.56199 -0.009,1.82723 0.31296,1.15381 0.39423,1.277 0.42011,0.63681 0.0283,-0.70075 0.0656,-0.73612 0.31794,-0.30184 0.20563,0.35386 0.20337,0.67291 -0.008,1.13692 -0.39473,0.86635 -0.37015,1.1493 0.0999,1.1493 0.25478,0 0.45348,0.37353 0.56298,1.05833 0.0931,0.58208 0.25786,1.05833 0.36619,1.05833 0.10832,0 0.27175,0.46781 0.36318,1.03956 0.0914,0.57176 0.35327,1.22661 0.58188,1.45521 0.37781,0.37781 0.14295,0.41544 -2.57981,0.41335 -1.6475,-0.001 -3.62615,-0.078 -4.39699,-0.17062 -1.2472,-0.14979 -1.44047,-0.25879 -1.7552,-0.98989 -0.19453,-0.45186 -0.77105,-1.71453 -1.28117,-2.80594 -0.885,-1.89347 -1.65908,-3.61216 -2.4727,-5.4901 l -0.37254,-0.8599 h 4.26165 c 4.03914,0 4.26888,0.0276 4.40003,0.52917 0.17058,0.6523 0.56702,0.67772 1.03127,0.0661 0.47021,-0.61942 0.45783,-0.95086 -0.0286,-0.76421 -0.21828,0.0838 -0.39688,0.0655 -0.39688,-0.0405 0,-0.27243 1.30006,-1.64264 1.55854,-1.64264 0.11781,0 1.26839,-1.02841 2.55684,-2.28535 1.28846,-1.25694 2.38805,-2.14917 2.44353,-1.98273 0.0555,0.16644 0.20977,0.23532 0.34286,0.15307 0.13309,-0.0823 0.24198,-0.0305 0.24198,0.11503 0,0.14552 -0.11906,0.33817 -0.26458,0.4281 -0.14552,0.0899 -0.26458,0.63275 -0.26458,1.20624 0,0.86633 -0.0895,1.04272 -0.52917,1.04272 -0.44097,0 -0.52917,0.17639 -0.52917,1.05833 v 1.05834 h 1.05834 1.05833 v 1.05833 1.05833 h 1.05833 1.05834 v -1.05833 c 0,-0.58208 0.11906,-1.05833 0.26458,-1.05833 0.14552,0 0.26458,0.46167 0.26458,1.02593 0,0.58917 0.16896,1.16617 0.39688,1.35532 0.21921,0.18193 0.39697,0.75903 0.39709,1.28917 7.2e-4,3.17425 2.13769,9.24528 4.50663,12.80312 0.52972,0.79555 0.77506,1.4265 0.66561,1.71172 -0.0953,0.24846 -0.0874,0.36581 0.0176,0.26078 0.19557,-0.19557 1.15993,0.53312 1.15993,0.87648 0,0.10477 -0.31813,0.1905 -0.70697,0.1905 -0.8584,0 -1.48713,0.77725 -1.28416,1.5875 0.1056,0.42154 0.0318,0.59531 -0.25279,0.59531 -0.22105,0 -0.40191,-0.11906 -0.40191,-0.26458 0,-0.14552 -0.12609,-0.26458 -0.2802,-0.26458 -0.15411,0 -0.20422,0.12294 -0.11135,0.2732 0.37495,0.60667 0.60635,1.843 0.37206,1.9878 -0.1348,0.0833 -0.24509,-0.0545 -0.24509,-0.30633 z m -23.64117,-44.60125 c -0.0903,-0.33704 -0.16573,-2.30944 -0.16772,-4.38311 l -0.004,-3.77032 h 3.05201 3.05202 l -0.3091,0.57757 c -0.17001,0.31766 -0.70998,1.13555 -1.19994,1.81754 -0.48995,0.68198 -0.89083,1.37458 -0.89083,1.5391 0,0.16452 -0.092,0.29913 -0.20441,0.29913 -0.11243,0 -0.43549,0.44648 -0.71791,0.99218 -0.43087,0.83257 -1.55652,2.48538 -2.26432,3.32478 -0.10014,0.11876 -0.25593,-0.0598 -0.34619,-0.39687 z m 15.43908,-6.56593 c 0,-0.14552 -0.17859,-0.26458 -0.39687,-0.26458 -0.21828,0 -0.39688,-0.10932 -0.39688,-0.24294 0,-0.60665 0.36437,-1.07998 0.83137,-1.07998 0.42818,0 0.46465,0.085 0.22697,0.52917 -0.29497,0.55115 -0.10953,0.65612 0.64657,0.36598 0.32877,-0.12617 0.35647,-0.24609 0.12208,-0.52851 -0.25025,-0.30153 -0.11283,-0.35786 0.78699,-0.32261 0.59961,0.0235 1.09019,0.0703 1.09019,0.10406 0,0.11146 -2.55623,1.704 -2.73514,1.704 -0.0964,0 -0.17528,-0.11907 -0.17528,-0.26459 z"
         id="path354" /><path
         style="fill:#97a7b6"
         d="m 156.0312,180.65497 c 0.12402,-2.57541 0.0848,-2.83778 -0.84104,-5.62998 -0.98576,-2.97285 -1.55677,-3.97217 -4.91523,-8.60206 -4.47766,-6.17279 -6.46174,-11.37534 -6.46983,-16.96482 -0.0112,-7.75624 2.6891,-13.65537 7.75076,-16.93238 7.09083,-4.59072 15.79861,-1.66601 19.78459,6.64511 1.90685,3.97597 2.56666,9.77197 1.62687,14.29103 -0.98631,4.74271 -2.49066,7.8063 -6.83726,13.92397 -3.33279,4.69077 -3.27082,4.57841 -4.3421,7.87377 -0.75188,2.31282 -0.84358,2.92037 -0.80797,5.3528 l 0.0402,2.74385 h -1.99498 -1.99498 v -2.88078 c 0,-2.59717 -0.0872,-3.12472 -0.88544,-5.35858 -0.48699,-1.36279 -1.08258,-2.85903 -1.32353,-3.32497 l -0.43809,-0.84718 0.78065,0.44803 c 0.42935,0.24642 0.91034,0.73268 1.06885,1.08057 0.15851,0.3479 0.35941,0.56134 0.44643,0.47432 0.18323,-0.18323 -0.35759,-1.07751 -1.80052,-2.97731 -0.56285,-0.74104 -1.02335,-1.48244 -1.02335,-1.64754 0,-0.16511 -0.29766,-0.49522 -0.66146,-0.7336 -0.56617,-0.37097 -0.94862,-1.43087 -0.51631,-1.43087 0.0798,0 0.87797,0.48674 1.77363,1.08166 1.42871,0.94897 1.84095,1.09111 3.36058,1.15869 1.13847,0.0506 1.90728,-0.0455 2.24324,-0.28038 0.34248,-0.23948 0.61462,-0.27151 0.82479,-0.0971 0.21315,0.1769 0.42006,0.13209 0.64574,-0.13983 0.18264,-0.22008 0.43893,-0.40014 0.56953,-0.40014 0.13059,0 0.71132,-0.29915 1.29052,-0.66478 l 1.05307,-0.66477 -0.001,0.59863 c -0.001,0.66469 -1.02979,2.32939 -2.30513,3.73089 -0.76365,0.8392 -0.85962,1.23337 -0.30029,1.23337 0.31718,0 1.81836,-1.60393 2.80499,-2.99698 0.71255,-1.00607 0.8599,-1.45747 0.8599,-2.63432 0,-1.1728 0.11523,-1.52847 0.66145,-2.04162 0.36381,-0.34178 0.66146,-0.78964 0.66146,-0.99525 0,-0.20561 -0.69624,0.33329 -1.5472,1.19757 -0.87038,0.884 -2.20636,1.89391 -3.05403,2.30863 -1.38213,0.67622 -1.68833,0.7259 -3.69999,0.6004 -2.79528,-0.17439 -4.2215,-0.801 -6.33074,-2.78141 -0.90195,-0.84686 -1.8674,-1.71402 -2.14544,-1.92703 -0.48311,-0.37012 -0.48898,-0.35796 -0.13229,0.27417 0.20528,0.3638 0.63123,0.95912 0.94657,1.32292 0.55326,0.6383 1.02926,2.38125 0.65032,2.38125 -0.26515,0 -2.16536,-2.9491 -3.47035,-5.38596 -1.1035,-2.0606 -2.66527,-6.23776 -2.6295,-7.03295 0.0135,-0.30079 0.0839,-0.26925 0.25834,0.11578 0.15924,0.35148 0.17521,0.17378 0.0476,-0.52916 -0.32609,-1.79562 -0.20887,-8.35193 0.17739,-9.92188 0.85956,-3.49366 3.02636,-7.12041 5.36799,-8.98485 0.73865,-0.58812 1.22684,-1.06932 1.08487,-1.06932 -0.14198,0 -0.47364,0.23813 -0.73703,0.52917 -0.48872,0.54003 -0.92604,0.6929 -0.92604,0.3237 0,-0.35616 2.22155,-1.66298 2.58798,-1.52237 0.19246,0.0738 0.28031,0.0216 0.19523,-0.11601 -0.0851,-0.13766 0.20748,-0.43756 0.65011,-0.66646 0.62813,-0.32482 0.9272,-0.35066 1.36244,-0.11773 0.44974,0.2407 0.64126,0.20944 0.98979,-0.16153 0.23769,-0.25299 0.28333,-0.37664 0.10143,-0.2748 -0.1819,0.10185 -0.33073,0.0591 -0.33073,-0.095 0,-0.33794 0.70392,-0.37501 0.9062,-0.0477 0.079,0.12786 0.83019,0.2899 1.66926,0.36009 0.83907,0.0702 1.75347,0.22394 2.032,0.34166 0.33634,0.14215 0.44793,0.11938 0.33225,-0.0678 -0.0958,-0.155 0.01,-0.35246 0.23493,-0.43881 0.23426,-0.0899 0.34001,-0.0452 0.24744,0.10457 -0.0891,0.14418 0.11251,0.25785 0.44928,0.2533 0.52132,-0.007 0.45569,-0.10388 -0.4474,-0.66011 -2.84149,-1.75011 -8.89255,-0.0787 -12.39491,3.42362 -4.68246,4.68246 -6.41913,13.69554 -4.10009,21.27898 0.91057,2.97763 2.99135,6.7684 6.24225,11.37212 2.98981,4.23398 3.14957,4.52976 4.16733,7.71539 0.97336,3.04667 1.05152,3.50913 0.97341,5.76003 -0.052,1.49824 -0.19397,2.44739 -0.3661,2.44739 -0.18865,0 -0.23838,-0.88892 -0.15111,-2.70129 z m 1.52553,-10.26329 c 0.26824,0 0.54087,0.14883 0.60583,0.33073 0.065,0.1819 0.21503,0.2402 0.33347,0.12956 0.11844,-0.11065 -0.0141,-0.37475 -0.29451,-0.5869 -0.49542,-0.37481 -0.493,-0.38597 0.0855,-0.39414 0.32742,-0.005 0.59531,0.11064 0.59531,0.25617 0,0.14552 0.23813,0.26458 0.52917,0.26458 0.29104,0 0.52917,-0.11906 0.52917,-0.26458 0,-0.14553 -0.1786,-0.26459 -0.39688,-0.26459 -0.21828,0 -0.39687,-0.11906 -0.39687,-0.26458 0,-0.14552 -0.66076,-0.26458 -1.46835,-0.26458 -0.80759,0 -1.82436,-0.18411 -2.25948,-0.40912 l -0.79114,-0.40911 0.82965,1.13672 c 0.45631,0.62519 0.93729,1.10695 1.06886,1.07057 0.13156,-0.0364 0.25302,0.0827 0.2699,0.26458 0.0169,0.1819 0.0851,0.12237 0.15169,-0.13229 0.0665,-0.25466 0.34047,-0.46302 0.60872,-0.46302 z m 4.46524,-4.6687 c 1.73275,-1.00931 3.75721,-2.76149 3.55975,-3.08098 -0.0916,-0.14827 -0.0437,-0.19361 0.10657,-0.10075 0.25305,0.1564 1.55877,-1.51194 1.59805,-2.04187 0.01,-0.12925 0.1313,-0.30784 0.27048,-0.39687 0.42667,-0.27293 1.92009,-3.43794 2.62358,-5.56014 0.56077,-1.69171 0.67013,-2.53389 0.69046,-5.31736 0.0273,-3.73492 -0.53842,-6.33665 -1.95615,-8.99658 -0.92739,-1.73996 -3.26988,-4.35526 -3.67609,-4.1042 -0.15621,0.0965 -0.25131,0.0237 -0.21132,-0.16196 0.04,-0.18562 -0.31721,-0.46933 -0.79376,-0.63046 -0.47656,-0.16114 -0.80132,-0.35811 -0.72171,-0.43773 0.0796,-0.0796 -0.40376,-0.35424 -1.07416,-0.61027 -0.93979,-0.3589 -1.35012,-0.39956 -1.79184,-0.17752 -0.53006,0.26645 -0.51992,0.27683 0.13553,0.13886 0.38964,-0.082 0.92542,-0.0124 1.19062,0.15476 0.38272,0.24121 0.12744,0.279 -1.2376,0.1832 -0.94589,-0.0664 -1.89839,-0.17287 -2.11667,-0.23665 -0.21828,-0.0638 -0.29923,-0.0633 -0.17988,0.001 0.33325,0.17993 -0.65088,0.77672 -2.29564,1.39211 -0.81751,0.30587 -1.62539,0.47022 -1.79527,0.36523 -0.1963,-0.12132 -0.23769,-0.0757 -0.11355,0.12516 0.14063,0.22753 -0.0147,0.2756 -0.55443,0.17159 l -0.74977,-0.14448 0.7276,0.28822 c 0.80601,0.31927 0.97359,0.77328 0.28542,0.77328 -0.57863,0 -1.40881,0.76197 -1.41395,1.29778 -0.003,0.33774 -0.0495,0.35031 -0.23155,0.063 -0.14842,-0.23423 -0.43508,-0.29316 -0.82466,-0.16951 -0.46326,0.14703 -0.51516,0.24054 -0.23147,0.41702 0.29161,0.18141 0.22386,0.36976 -0.3344,0.92974 -0.8787,0.88139 -1.24448,0.67158 -1.17575,-0.67443 0.043,-0.84231 -0.0153,-0.99239 -0.29532,-0.76001 -0.25701,0.2133 -0.27236,0.3818 -0.0583,0.63975 0.15984,0.1926 0.22719,0.45282 0.14966,0.57826 -0.0775,0.12545 0.14662,0.81528 0.49811,1.53295 0.35149,0.71767 0.64132,1.54298 0.64406,1.83402 0.006,0.58631 -1.89558,2.77813 -2.40963,2.77813 -0.17918,0 -0.0947,0.18743 0.18782,0.41651 0.50076,0.40611 0.49872,0.41334 -0.0815,0.28942 -0.69557,-0.14856 -1.09429,0.30621 -0.56333,0.64251 0.27064,0.17142 0.21118,0.232 -0.23069,0.23501 -0.50606,0.003 -0.59926,0.15279 -0.62168,0.99624 -0.0235,0.88548 -0.0492,0.92105 -0.23821,0.33072 -0.20915,-0.65307 -0.21245,-0.6514 -0.25988,0.1323 -0.11501,1.90015 0.0657,4.02182 0.4133,4.85387 0.20666,0.49461 0.37575,1.18241 0.37575,1.52844 0,0.34603 0.11532,0.62914 0.25628,0.62914 0.14095,0 0.19125,0.16947 0.11177,0.37659 -0.0828,0.21567 0.0904,0.50228 0.40517,0.67077 0.30233,0.1618 0.55348,0.49835 0.55811,0.74789 0.005,0.24954 0.1794,0.67961 0.3884,0.95571 0.20899,0.2761 0.31406,0.60867 0.23348,0.73904 -0.0806,0.13037 0.19113,0.67651 0.60379,1.21365 0.41266,0.53713 0.87908,1.21659 1.0365,1.50992 0.15742,0.29332 0.43416,0.50059 0.61498,0.46061 0.18082,-0.04 0.26532,0.03 0.18777,0.15544 -0.0776,0.12548 0.3452,0.69398 0.93944,1.26333 0.68827,0.65943 1.12447,0.91513 1.20172,0.70445 0.0667,-0.1819 0.24499,-0.33073 0.3962,-0.33073 0.17784,0 0.1689,0.12775 -0.0253,0.36177 -0.41165,0.496 0.15069,0.86 2.88128,1.86507 0.95866,0.35286 3.78176,-0.1053 4.99176,-0.81012 z m 10.04557,-10.8929 c 0.29362,-1.11825 0.61139,-2.86737 0.70614,-3.88693 0.18115,-1.94922 -0.24832,-6.90455 -0.68364,-7.88799 -0.18358,-0.41473 -0.20237,-0.24214 -0.0668,0.6136 0.10374,0.65484 0.18218,3.03609 0.1743,5.29167 -0.012,3.44669 -0.10647,4.39655 -0.59192,5.95312 -0.31768,1.01865 -0.64032,2.09021 -0.71697,2.38125 -0.13308,0.50529 -0.12168,0.5075 0.25283,0.0488 0.21571,-0.26419 0.63244,-1.39529 0.92607,-2.51355 z m -10.27483,25.80004 c 0,-2.41186 0.10667,-3.04478 0.92527,-5.4901 0.5089,-1.52018 1.15868,-2.95755 1.44396,-3.19414 0.28527,-0.2366 0.4533,-0.49555 0.3734,-0.57546 -0.21007,-0.21006 0.5046,-0.0753 0.89539,0.16879 0.44716,0.27935 0.41694,0.92072 -0.0662,1.40381 -0.21828,0.21828 -0.39687,0.26931 -0.39687,0.11339 0,-0.15591 -0.12852,-0.28348 -0.28561,-0.28348 -0.18054,0 -0.2206,0.29596 -0.10889,0.80459 0.0976,0.44448 0.0545,0.95182 -0.0963,1.13355 -0.30934,0.37274 -0.82627,3.27913 -0.83175,4.67644 -0.002,0.50933 -0.18149,1.26708 -0.39887,1.68389 -0.50917,0.97629 -0.50576,1.38304 0.008,0.95664 0.2218,-0.18408 0.48024,-0.25772 0.57431,-0.16365 0.26553,0.26554 -1.01094,1.49187 -1.55287,1.49187 -0.43641,0 -0.48304,-0.26315 -0.48304,-2.72614 z m 5.1182,-11.96012 c -0.16816,-0.36257 -0.20277,-0.72286 -0.0769,-0.80064 0.12586,-0.0778 0.78851,-0.9756 1.47255,-1.99515 0.82409,-1.22828 1.33245,-1.765 1.5067,-1.59075 0.27797,0.27797 -0.35684,1.24589 -1.89874,2.89505 -0.95994,1.02673 -1.06283,1.4706 -0.28355,1.22327 0.53038,-0.16834 0.53256,-0.15711 0.0735,0.37904 -0.2602,0.30389 -0.47639,0.5516 -0.48043,0.55046 -0.004,-0.001 -0.14493,-0.29871 -0.3131,-0.66128 z m -25.59947,-8.61525 -2.59492,-5.30985 1.35164,-1.35874 c 0.7434,-0.74731 1.35163,-1.4535 1.35163,-1.56932 0,-0.11582 0.23813,-0.21058 0.52917,-0.21058 0.36635,0 0.52917,-0.17639 0.52917,-0.57326 0,-1.19545 0.40698,-0.0966 0.68566,1.85132 0.26563,1.85671 1.88122,6.84368 2.62884,8.11465 1.21495,2.06544 1.73745,3.08931 1.50243,2.94406 -0.1506,-0.0931 -0.33412,-0.0197 -0.40782,0.16315 -0.0737,0.1828 -0.14523,0.0943 -0.15894,-0.19679 -0.0137,-0.29105 -0.14998,-0.70776 -0.30281,-0.92605 -0.2139,-0.30552 -0.23943,-0.24462 -0.11091,0.26459 0.12797,0.50698 0.10253,0.56877 -0.10892,0.26458 -0.15173,-0.21828 -0.21297,-0.59914 -0.13609,-0.84636 0.0788,-0.25344 -0.0969,-0.68619 -0.40291,-0.99219 -0.29849,-0.29848 -0.54452,-0.81059 -0.54675,-1.13801 -0.003,-0.44186 -0.0636,-0.50132 -0.235,-0.23069 -0.12703,0.20055 -0.36333,0.28282 -0.52512,0.18283 -0.16589,-0.10253 -0.29416,-0.009 -0.29416,0.21507 0,0.21828 0.1239,0.47345 0.27534,0.56704 0.37733,0.2332 0.055,1.21946 -0.57758,1.76743 -0.48175,0.4173 -0.49075,0.50666 -0.1199,1.19063 0.22052,0.4067 0.40572,0.59063 0.41154,0.40873 0.006,-0.1819 0.11851,-0.33073 0.25041,-0.33073 0.1319,0 0.17754,0.23813 0.10143,0.52917 -0.0761,0.29104 -0.21986,0.52916 -0.31945,0.52916 -0.0996,0 -1.34878,-2.38943 -2.77598,-5.30984 z m 28.53364,3.95874 c -0.1925,-0.31147 0.82587,-1.85037 1.07503,-1.62451 0.11982,0.10862 0.13947,0.0604 0.0437,-0.10713 -0.0958,-0.16755 0.16763,-1.00098 0.58541,-1.85209 0.41778,-0.8511 0.91772,-1.99394 1.11097,-2.53964 0.19325,-0.54571 0.45924,-0.99219 0.5911,-0.99219 0.13186,0 0.17532,-0.16787 0.0966,-0.37304 -0.17452,-0.45479 0.35349,-2.2728 0.66009,-2.2728 0.3527,0 0.25366,1.26532 -0.11053,1.41228 -0.25379,0.1024 -0.25533,0.13831 -0.007,0.15434 0.22099,0.0142 0.27228,0.29448 0.16121,0.88078 -0.1938,1.02295 -0.57789,1.57714 -0.93857,1.35422 -0.14356,-0.0887 -0.12588,0.0912 0.0393,0.39979 0.29083,0.54342 0.14012,0.70125 -0.5687,0.5956 -0.1039,-0.0155 -0.12555,0.13696 -0.0481,0.33878 0.0774,0.20182 0.0136,0.44554 -0.14181,0.54161 -0.15544,0.0961 -0.28262,0.35326 -0.28262,0.57154 0,0.21828 0.11429,0.32624 0.25398,0.23991 0.15052,-0.093 0.13997,0.17006 -0.0259,0.64584 -0.15392,0.44155 -0.38354,0.80281 -0.51025,0.80281 -0.12672,0 -0.15437,-0.19812 -0.0614,-0.44027 0.10526,-0.2743 0.0636,-0.37515 -0.1106,-0.26751 -0.15376,0.095 -0.35984,0.60076 -0.45798,1.12385 -0.1273,0.67857 -0.28751,0.90922 -0.55916,0.80498 -0.44237,-0.16976 -0.50408,0.13727 -0.10733,0.53402 0.18815,0.18815 0.14326,0.27341 -0.14393,0.27341 -0.22954,0 -0.47423,-0.0921 -0.54377,-0.20458 z m -42.81612,-6.12337 c -0.20907,-0.32743 -0.52832,-1.10133 -0.70944,-1.7198 -0.18113,-0.61846 -0.44228,-1.12448 -0.58033,-1.12448 -0.13806,0 -0.17245,-0.20473 -0.0764,-0.45495 0.096,-0.25023 0.085,-0.36536 -0.0245,-0.25584 -0.29026,0.29026 -1.68711,-2.93401 -1.49171,-3.44322 0.10292,-0.2682 0.0589,-0.36499 -0.11657,-0.25652 -0.33094,0.20454 -1.15767,-1.67633 -0.91063,-2.07176 0.0909,-0.14552 0.22852,0.0926 0.30579,0.52917 0.0773,0.43656 0.2584,0.73422 0.40249,0.66146 0.14409,-0.0728 0.24045,-0.19689 0.21413,-0.27585 -0.0263,-0.0789 0.33087,-0.15651 0.79375,-0.17234 0.46288,-0.0158 0.63325,0.0277 0.37858,0.0968 -0.25466,0.0691 -0.46302,0.24296 -0.46302,0.3864 0,0.14344 -0.0997,0.19917 -0.22161,0.12384 -0.12188,-0.0753 -0.20384,0.30459 -0.18211,0.84428 0.0307,0.76339 0.13867,0.96398 0.48619,0.9035 0.269,-0.0468 0.4467,0.0946 0.4467,0.3555 0,0.23828 0.23812,0.49551 0.52917,0.57162 0.48671,0.12728 0.65036,0.58856 0.5904,1.66416 -0.0161,0.28878 0.0815,0.25589 0.35817,-0.12077 0.37596,-0.51177 0.38468,-0.51138 0.76708,0.0346 0.21273,0.30372 0.83647,0.73329 1.38609,0.95459 0.98414,0.39627 2.18992,1.28277 2.18992,1.61004 0,0.48588 1.15475,1.2262 1.91823,1.22979 0.65252,0.003 0.76419,0.0659 0.46302,0.26053 -0.21828,0.14107 -1.67405,0.25831 -3.23504,0.26054 -2.6565,0.004 -2.86251,-0.0341 -3.21829,-0.59126 z m 47.46375,-3.87413 c 0,-0.32521 -0.11847,-0.51566 -0.26459,-0.42535 -0.30555,0.18884 -0.36602,-1.0008 -0.0661,-1.30126 0.10914,-0.10935 0.17981,-1.58771 0.15705,-3.28524 l -0.0414,-3.08642 0.21692,2.91042 c 0.1193,1.60073 0.15806,3.20807 0.0861,3.57187 -0.10248,0.51836 -0.0705,0.5756 0.14771,0.26458 0.20547,-0.29281 0.23595,-0.11936 0.11624,0.66146 -0.18711,1.22061 -0.35192,1.54371 -0.35192,0.68994 z"
         id="path353" /><path
         style="fill:#41bfbc"
         d="m 157.10994,180.73539 c 0.15842,-2.6003 0.14695,-2.67006 -0.90395,-5.49653 -1.47479,-3.96656 -1.43042,-3.77539 -0.84043,-3.6211 0.28949,0.0757 0.8717,0.85504 1.36665,1.8294 0.88387,1.73996 1.25501,2.17182 1.57237,1.82958 0.0995,-0.10725 0.0209,-0.25186 -0.17454,-0.32134 -0.19545,-0.0695 -0.68843,-0.85685 -1.09551,-1.74971 -0.40708,-0.89286 -1.22943,-2.26997 -1.82744,-3.06023 -0.59801,-0.79027 -1.0873,-1.54357 -1.0873,-1.674 0,-0.13044 -0.36253,-0.59968 -0.80562,-1.04278 -0.44309,-0.44309 -0.75733,-0.85391 -0.6983,-0.91294 0.059,-0.059 0.98163,0.43172 2.05023,1.09056 1.06859,0.65883 2.24008,1.19788 2.6033,1.19788 0.51308,0 0.58968,0.0707 0.34337,0.31702 -0.24631,0.24631 -0.59746,0.21651 -1.57427,-0.1336 -0.69149,-0.24784 -1.34177,-0.45003 -1.44508,-0.44931 -0.10331,7.2e-4 0.40892,0.78972 1.13828,1.75334 0.72936,0.96363 1.57114,2.27331 1.87062,2.91042 0.29947,0.63711 0.70797,1.15838 0.90778,1.15838 0.1998,0 0.65295,-0.57163 1.00698,-1.2703 0.35404,-0.69866 1.18059,-1.97858 1.83677,-2.84427 1.17926,-1.55576 1.24051,-2.01231 0.1949,-1.45272 -0.44704,0.23925 -0.51091,0.21757 -0.37816,-0.12835 0.16689,-0.43493 2.97989,-2.35353 3.17079,-2.16264 0.28187,0.28187 -0.27097,0.99599 -0.65652,0.84804 -0.23145,-0.0888 -0.33489,-0.0755 -0.22986,0.0295 0.10502,0.10502 -0.0177,0.42944 -0.27265,0.72092 -0.27307,0.31216 -0.31087,0.44011 -0.092,0.31132 0.50101,-0.29479 0.21278,0.16094 -1.20821,1.91033 -1.27172,1.56563 -1.78704,2.4288 -1.57599,2.63984 0.0791,0.0791 0.28645,-0.16922 0.46078,-0.55183 0.17433,-0.3826 0.52747,-0.69564 0.78476,-0.69564 0.25729,0 0.65064,-0.18285 0.87412,-0.40633 0.22348,-0.22348 0.4592,-0.37231 0.52384,-0.33073 0.0646,0.0416 0.65796,-0.71372 1.31852,-1.67843 0.95365,-1.39277 1.21446,-2.01383 1.26631,-3.01546 0.0411,-0.79426 0.29121,-1.59435 0.6753,-2.16033 1.11478,-1.64272 0.67241,-1.84479 -0.69064,-0.31548 -1.07289,1.20375 -3.92624,3.14426 -4.62337,3.14426 -0.45782,0 -0.0668,-0.51167 0.5662,-0.74083 2.55599,-0.92538 5.33992,-4.00875 7.33384,-8.12272 2.25913,-4.66113 2.7322,-7.92306 1.86788,-12.87946 -0.86475,-4.95882 -3.86982,-9.25439 -7.54807,-10.7895 -0.36381,-0.15183 -0.8433,-0.37952 -1.06555,-0.50597 -0.22226,-0.12645 -1.23429,-0.37788 -2.24896,-0.55873 -1.74872,-0.31169 -1.95199,-0.29282 -3.90029,0.36209 -3.76746,1.26641 -6.0386,3.2654 -7.80407,6.86894 -1.5125,3.08719 -1.78422,4.45454 -1.76935,8.90367 0.0141,4.23052 0.30339,5.44475 2.1429,8.99584 1.41523,2.73204 1.81065,3.35868 2.83448,4.49194 0.52961,0.58621 0.96292,1.14645 0.96292,1.24499 0,0.0985 -0.42672,-0.31938 -0.94827,-0.92869 -0.52155,-0.60931 -1.04716,-1.04671 -1.16803,-0.97201 -0.12086,0.0747 -0.28006,-0.0138 -0.35376,-0.19656 -0.0782,-0.19406 -0.14269,-0.13234 -0.15489,0.1483 -0.0115,0.26438 0.3948,0.91922 0.90286,1.45521 0.63522,0.67014 0.9232,1.22245 0.92199,1.76828 -0.001,0.58516 -0.0656,0.69277 -0.24483,0.4095 -0.13369,-0.21133 -0.18437,-0.47922 -0.11262,-0.59531 0.0717,-0.11609 0.004,-0.21107 -0.14975,-0.21107 -0.15411,0 -0.25044,-0.0916 -0.21406,-0.20356 0.0891,-0.27431 -1.01832,-1.66648 -1.1895,-1.49531 -0.15804,0.15805 -1.37022,-1.86337 -1.63882,-2.7329 -0.13744,-0.44491 -0.0776,-0.59531 0.23691,-0.59531 0.37612,0 0.3792,-0.0635 0.029,-0.59795 -0.7467,-1.1396 -1.99079,-4.48018 -2.39214,-6.42325 -0.65004,-3.14702 -0.40282,-7.77921 0.57074,-10.69433 2.38498,-7.14131 8.21277,-11.22499 14.2216,-9.96543 1.48788,0.31189 4.12774,1.5728 4.33946,2.07271 0.0485,0.11454 0.24413,0.20825 0.43471,0.20825 0.19059,0 0.4198,0.19094 0.50935,0.42432 0.0935,0.24364 0.33189,0.35946 0.55985,0.27198 0.23149,-0.0888 0.53288,0.0652 0.72287,0.36942 0.17922,0.28698 0.46878,0.52178 0.64347,0.52178 0.17469,0 0.40257,0.13746 0.50641,0.30546 0.11696,0.18926 0.0726,0.23364 -0.11668,0.11668 -0.44856,-0.27723 -0.37265,0.25105 0.0914,0.63619 0.21828,0.18116 0.39687,0.24069 0.39687,0.13229 0,-0.10839 0.18402,-0.0444 0.40892,0.14229 0.2249,0.18665 0.33767,0.52502 0.2506,0.75193 -0.0871,0.22691 -0.0724,0.32664 0.0326,0.22162 0.10503,-0.10502 0.40898,0.006 0.67545,0.24751 0.38425,0.34774 0.48425,0.36155 0.48336,0.0667 -0.002,-0.58908 -1.45518,-2.62799 -2.95338,-4.14318 -1.74919,-1.76904 -6.09676,-4.01463 -7.89341,-4.07707 -1.04997,-0.0365 -1.08317,-0.0544 -0.28103,-0.1518 2.17952,-0.26458 6.20791,1.61219 8.6349,4.02287 4.9419,4.9087 6.65687,13.78054 4.18102,21.62913 -1.05912,3.35749 -2.50212,5.98887 -6.12914,11.17676 -3.01852,4.31755 -3.40581,5.00603 -4.24179,7.54063 -0.84386,2.55847 -0.9154,3.02187 -0.86459,5.60045 l 0.0554,2.8112 -2.04066,0.0395 -2.04066,0.0395 z m 14.9576,-25.90531 c 0.75717,-2.88364 0.92396,-5.3268 0.57817,-8.46928 -0.36576,-3.32397 -0.75716,-4.56412 -0.78206,-2.47799 -0.009,0.77258 0.0725,1.34944 0.18166,1.28193 0.23292,-0.14407 0.19638,5.15193 -0.0489,7.09109 -0.20618,1.62989 -0.91816,3.89509 -1.17449,3.73667 -0.10304,-0.0637 -0.13714,0.31421 -0.0758,0.83975 0.0992,0.84977 0.14897,0.90437 0.44956,0.49329 0.18591,-0.25424 0.57825,-1.3772 0.87188,-2.49546 z m -17.00393,19.58862 c -0.63995,-1.97496 -1.21642,-2.97487 -4.00291,-6.94318 -2.94792,-4.19819 -5.37513,-8.52358 -5.78721,-10.31301 l -0.15232,-0.66146 0.29443,0.66146 c 1.56114,3.50726 3.15874,6.40355 4.72515,8.56622 3.51555,4.85378 4.41798,6.3558 5.15634,8.58233 0.40118,1.20978 0.68098,2.24803 0.62178,2.30723 -0.0592,0.0592 -0.44406,-0.93061 -0.85526,-2.19959 z m -10.97424,-28.78939 c -0.0706,-2.4297 2.01555,-7.52618 4.14675,-10.13073 1.12625,-1.3764 3.6217,-3.26541 5.28664,-4.00189 2.08989,-0.92446 1.79645,-0.56787 -0.46355,0.56329 -4.48279,2.24371 -7.54772,6.6573 -8.57809,12.3527 -0.2024,1.11881 -0.37869,1.6663 -0.39175,1.21663 z"
         id="path352" /><path
         style="fill:#31434a"
         d="m 157.11537,180.78298 c 0.14906,-2.3552 0.10195,-2.75793 -0.52767,-4.51067 -0.38023,-1.05851 -0.61481,-2.00109 -0.52129,-2.09461 0.22006,-0.22006 0.2175,-0.2243 0.98971,1.63794 0.58244,1.4046 0.7516,1.59672 1.46826,1.66753 0.74439,0.0736 0.85593,-0.0268 1.37769,-1.23967 0.31225,-0.72584 0.56772,-1.44647 0.56772,-1.60139 0,-0.36372 0.34452,-0.3605 0.71168,0.007 0.20807,0.20807 0.41841,-0.10498 0.75554,-1.12448 0.43634,-1.31951 2.25836,-4.19805 5.40714,-8.54253 1.76421,-2.43412 3.84644,-6.53022 4.68656,-9.21922 0.8349,-2.67229 1.13621,-8.17932 0.61048,-11.15799 -0.66867,-3.78857 -2.5632,-7.44378 -5.18685,-10.00729 -1.69067,-1.6519 -6.08878,-3.87767 -7.7783,-3.93639 -1.04997,-0.0365 -1.08317,-0.0544 -0.28103,-0.1518 2.17952,-0.26458 6.20791,1.61219 8.6349,4.02287 4.9419,4.9087 6.65687,13.78054 4.18102,21.62913 -1.05912,3.35749 -2.50212,5.98887 -6.12914,11.17676 -3.01852,4.31755 -3.40581,5.00603 -4.24179,7.54063 -0.84386,2.55847 -0.9154,3.02187 -0.86459,5.60045 l 0.0554,2.8112 -2.03956,0.0395 -2.03955,0.0395 z m -2.05176,-6.36428 c -0.63995,-1.97496 -1.21642,-2.97487 -4.00291,-6.94318 -2.94792,-4.19819 -5.37513,-8.52358 -5.78721,-10.31301 l -0.15232,-0.66146 0.29443,0.66146 c 1.56114,3.50726 3.15874,6.40355 4.72515,8.56622 3.51555,4.85378 4.41798,6.3558 5.15634,8.58233 0.40118,1.20978 0.68098,2.24803 0.62178,2.30723 -0.0592,0.0592 -0.44406,-0.93061 -0.85526,-2.19959 z m 2.52165,1.48975 c -0.37777,-1.08368 -0.36808,-1.14806 0.1128,-0.74896 0.2218,0.18407 0.48969,0.24188 0.59531,0.12846 0.10563,-0.11342 0.0321,-0.26307 -0.16333,-0.33255 -0.19545,-0.0695 -0.68843,-0.85685 -1.09551,-1.74971 -0.40708,-0.89286 -1.22943,-2.26997 -1.82744,-3.06023 -0.59801,-0.79027 -1.0873,-1.54357 -1.0873,-1.674 0,-0.13044 -0.36253,-0.59968 -0.80562,-1.04278 -0.44309,-0.44309 -0.75733,-0.85391 -0.6983,-0.91294 0.059,-0.059 0.98163,0.43172 2.05023,1.09056 1.06859,0.65883 2.24008,1.19788 2.6033,1.19788 0.51308,0 0.58968,0.0707 0.34337,0.31702 -0.24631,0.24631 -0.59746,0.21651 -1.57427,-0.1336 -0.69149,-0.24784 -1.34177,-0.45003 -1.44508,-0.44931 -0.10331,7.2e-4 0.40892,0.78972 1.13828,1.75334 0.72936,0.96363 1.57114,2.27331 1.87062,2.91042 0.29947,0.63711 0.70797,1.15838 0.90778,1.15838 0.1998,0 0.65295,-0.57163 1.00698,-1.2703 0.35404,-0.69866 1.18059,-1.97858 1.83677,-2.84427 1.17926,-1.55576 1.24051,-2.01231 0.1949,-1.45272 -0.44704,0.23925 -0.51091,0.21757 -0.37816,-0.12835 0.16689,-0.43493 2.97989,-2.35353 3.17079,-2.16264 0.28187,0.28187 -0.27097,0.99599 -0.65652,0.84804 -0.23145,-0.0888 -0.33489,-0.0755 -0.22986,0.0295 0.10502,0.10502 -0.0177,0.42944 -0.27265,0.72092 -0.32764,0.37455 -0.34721,0.46175 -0.0667,0.29734 0.45601,-0.26731 0.46708,-0.28412 -1.65365,2.51176 -1.17414,1.54794 -1.58335,2.3609 -1.01001,2.00655 0.13572,-0.0839 -0.0339,0.53418 -0.37685,1.37345 -0.34298,0.83928 -0.68841,1.73432 -0.76762,1.98898 -0.0854,0.27467 -0.40593,0.46302 -0.7879,0.46302 -0.48432,0 -0.71585,-0.20648 -0.93434,-0.83323 z m 3.14912,-9.19506 c 0,-0.13128 0.32742,-0.35724 0.7276,-0.50212 1.24109,-0.44933 3.3158,-2.09557 4.64834,-3.68838 1.53187,-1.83107 3.94623,-6.67669 4.5249,-9.08145 0.51294,-2.13163 0.52409,-5.76589 0.0263,-8.55964 -0.32844,-1.84316 -0.32531,-2.17624 0.0261,-2.77812 0.23494,-0.40242 0.32553,-0.46609 0.22011,-0.15471 -0.43285,1.2785 -0.46409,1.53612 -0.16383,1.35055 0.19659,-0.1215 0.24782,-0.043 0.14567,0.22321 -0.0867,0.22584 -0.067,0.61897 0.0436,0.87364 0.11064,0.25466 0.21948,0.58208 0.24187,0.7276 0.0224,0.14552 0.12164,0.44318 0.22058,0.66146 0.0989,0.21828 0.22111,1.76609 0.27149,3.43958 0.0504,1.67349 0.066,1.25677 0.0347,-0.92604 -0.0313,-2.18281 -0.1387,-4.26641 -0.23868,-4.63021 -0.14557,-0.52969 -0.12551,-0.57401 0.10069,-0.2225 0.44225,0.68726 0.74372,5.41279 0.50332,7.88953 -0.23128,2.38279 -0.91325,4.86186 -1.27582,4.63778 -0.11988,-0.0741 -0.15099,0.12139 -0.0691,0.43439 0.0869,0.33232 -0.006,0.69024 -0.22311,0.86026 -0.20457,0.16014 -0.65936,0.82695 -1.01065,1.48179 -0.35129,0.65485 -0.97524,1.66697 -1.38656,2.24918 -0.47998,0.67938 -0.70524,1.27985 -0.62888,1.67638 0.11857,0.61567 -0.001,0.83493 -1.10012,2.01224 -0.31861,0.34137 -0.52441,0.67553 -0.45734,0.7426 0.0671,0.0671 7e-4,0.40712 -0.14749,0.75567 -0.23285,0.5477 -0.2549,0.4944 -0.16244,-0.39266 0.0588,-0.56452 0.35611,-1.36337 0.66061,-1.77523 0.3045,-0.41186 0.55364,-0.95602 0.55364,-1.20924 0,-0.30202 -0.44744,0.0416 -1.30064,0.99889 -0.75218,0.84392 -1.9672,1.81455 -2.88131,2.30177 -1.70111,0.90668 -1.90346,0.97087 -1.90346,0.60378 z m -12.93838,-7.912 c -0.28254,-0.55382 -0.50432,-1.1789 -0.49286,-1.38906 0.0115,-0.21016 2.7e-4,-0.62024 -0.0249,-0.91128 -0.0387,-0.44795 -0.0884,-0.46825 -0.3236,-0.13229 -0.21426,0.30603 -0.23713,0.25303 -0.0999,-0.23157 0.11132,-0.39308 0.0787,-0.56706 -0.0872,-0.46454 -0.37324,0.23068 -0.61364,-0.53593 -0.43131,-1.37543 0.11973,-0.55128 0.0907,-0.61935 -0.13216,-0.30971 -0.21711,0.3017 -0.24863,0.17479 -0.13141,-0.52917 0.12004,-0.72095 0.0885,-0.83814 -0.14248,-0.52916 -0.22806,0.30508 -0.25534,0.15854 -0.11795,-0.63356 0.12832,-0.7398 0.0938,-0.97793 -0.12247,-0.84428 -0.69421,0.42904 -0.17819,-6.54585 0.6728,-9.09394 1.35199,-4.04824 3.73386,-7.09177 6.89761,-8.8137 1.28489,-0.69933 4.49284,-1.67576 4.72915,-1.43945 0.0657,0.0657 -0.45061,0.26722 -1.1474,0.44776 -1.03491,0.26815 -1.17001,0.36593 -0.73774,0.53399 0.48263,0.18764 0.45936,0.2325 -0.26459,0.5101 -3.68672,1.41371 -6.11149,3.58931 -7.74697,6.95089 -0.58755,1.20765 -1.217,2.73151 -1.39879,3.38635 -0.50789,1.82959 -0.4497,11.85556 0.0641,11.04636 0.16485,-0.25962 0.21087,-0.2559 0.21405,0.0173 0.002,0.19144 0.41447,1.23637 0.9161,2.32207 0.50162,1.0857 0.77904,1.8918 0.61649,1.79134 -0.19228,-0.11884 -0.23651,-0.0288 -0.1266,0.25762 0.31304,0.81575 -0.064,0.44861 -0.58198,-0.56668 z m -3.70663,-13.17208 c -0.0706,-2.4297 2.01555,-7.52618 4.14675,-10.13073 1.12625,-1.3764 3.6217,-3.26541 5.28664,-4.00189 2.08989,-0.92446 1.79645,-0.56787 -0.46355,0.56329 -4.48279,2.24371 -7.54772,6.6573 -8.57809,12.3527 -0.2024,1.11881 -0.37869,1.6663 -0.39175,1.21663 z"
         id="path351" /></g></g></svg>
