<?xml version="1.0" encoding="UTF-8" standalone="no"?>
<!-- Created with Inkscape (http://www.inkscape.org/) -->

<svg
   width="53.748093mm"
   height="65.762108mm"
   viewBox="0 0 53.748093 65.762108"
   version="1.1"
   id="svg1"
   inkscape:export-filename="lean-protein.svg"
   inkscape:export-xdpi="96"
   inkscape:export-ydpi="96"
   xml:space="preserve"
   xmlns:inkscape="http://www.inkscape.org/namespaces/inkscape"
   xmlns:sodipodi="http://sodipodi.sourceforge.net/DTD/sodipodi-0.dtd"
   xmlns="http://www.w3.org/2000/svg"
   xmlns:svg="http://www.w3.org/2000/svg"><sodipodi:namedview
     id="namedview1"
     pagecolor="#ffffff"
     bordercolor="#000000"
     borderopacity="0.25"
     inkscape:showpageshadow="2"
     inkscape:pageopacity="0.0"
     inkscape:pagecheckerboard="0"
     inkscape:deskcolor="#d1d1d1"
     inkscape:document-units="mm"><inkscape:page
       x="0"
       y="0"
       width="53.748093"
       height="65.762108"
       id="page2"
       margin="0"
       bleed="0" /></sodipodi:namedview><defs
     id="defs1" /><g
     inkscape:label="Calque 1"
     inkscape:groupmode="layer"
     id="layer1"
     transform="translate(-138.25295,-117.83036)"><g
       id="g329"
       transform="translate(78.999078,11.690037)"><path
         style="fill:#d4e8f6"
         d="M 59.29155,138.96133 V 106.153 h 26.855207 26.855203 v 32.80833 32.80834 H 86.146757 59.29155 Z"
         id="path336" /><path
         style="fill:#c5dae9"
         d="m 69.345716,171.58153 c 1.853686,-0.68364 5.418608,-2.10932 6.556278,-2.62197 0.768297,-0.34621 1.575706,-0.62947 1.794242,-0.62947 0.218535,0 0.46587,-0.1786 0.549633,-0.39688 0.08376,-0.21828 0.286477,-0.39687 0.450477,-0.39687 0.164,0 1.344311,-0.49715 2.622912,-1.10477 2.319264,-1.10217 2.326917,-1.10373 3.254362,-0.66146 0.930509,0.44373 3.557512,0.62183 3.557512,0.24119 0,-0.11117 -0.595312,-0.48476 -1.322917,-0.8302 -0.727604,-0.34545 -1.322916,-0.72376 -1.322916,-0.8407 0,-0.11694 0.684609,-0.58155 1.521354,-1.03247 1.879492,-1.01286 2.300567,-1.334 2.521634,-1.92316 0.252047,-0.67172 0.615185,-0.56861 0.931824,0.26459 1.086522,2.85905 1.612776,5.06914 1.527775,6.41614 -0.05051,0.80037 -0.105501,1.96123 -0.122209,2.57969 l -0.03038,1.12448 -2.315104,-0.009 c -2.551435,-0.01 -2.534533,0.0457 -0.441159,-1.44641 1.287508,-0.91771 2.099734,-1.66983 1.95745,-1.81259 -0.07554,-0.0758 -1.206638,0.62736 -2.513542,1.56258 l -2.376187,1.70039 -8.598958,-0.0185 c -4.729427,-0.0102 -8.420364,-0.0843 -8.202083,-0.16484 z m 23.306087,-2.52384 c 0.05116,-2.13758 -0.04747,-3.04821 -0.465636,-4.29948 -0.291796,-0.87312 -0.694255,-2.15154 -0.894353,-2.84092 -0.200097,-0.68938 -1.070359,-2.2372 -1.933914,-3.43959 -4.686432,-6.52524 -6.923293,-10.63878 -8.221833,-15.11977 -1.204044,-4.15491 -0.867372,-10.4017 0.782749,-14.52351 2.155407,-5.38396 6.138922,-8.86961 11.239399,-9.83468 5.792939,-1.0961 11.762965,2.23569 14.680085,8.19275 1.83308,3.74334 2.11326,5.09844 2.1051,10.18134 -0.007,4.0747 -0.0568,4.51533 -0.75479,6.61206 -1.48253,4.45371 -3.55229,8.13292 -8.11953,14.43326 -1.235932,1.70492 -1.727659,2.70364 -2.475123,5.02708 -0.816663,2.53854 -0.933092,3.23708 -0.935301,5.61146 l -0.0025,2.71198 h -1.984375 -1.984375 v -1.04272 c 0,-0.5735 -0.119063,-1.1163 -0.264583,-1.20624 -0.161611,-0.0999 -0.264584,0.30593 -0.264584,1.04272 0,0.6871 -0.122941,1.20624 -0.285658,1.20624 -0.190131,0 -0.263953,-0.90692 -0.220754,-2.71198 z m -2.046064,-10.18646 c -0.684284,-1.18997 -1.679457,-2.68599 -3.551261,-5.33855 -2.685174,-3.80519 -4.549273,-7.64453 -5.197093,-10.70406 -0.814043,-3.84457 -0.458007,-10.47321 0.712218,-13.25999 1.306057,-3.11026 2.929961,-5.50286 4.700647,-6.92574 0.575149,-0.46218 1.807807,-1.2739 2.739241,-1.80382 0.931434,-0.52993 1.39586,-0.88072 1.032058,-0.77955 -0.935624,0.26019 -2.847656,1.37424 -4.165435,2.42701 -2.139943,1.70959 -4.355014,5.43308 -5.302302,8.91306 -0.631666,2.32051 -0.630181,9.70373 0.0024,11.98962 0.64931,2.34631 2.187466,5.61902 4.012203,8.53671 1.60871,2.57227 5.486386,8.20208 5.649394,8.20208 0.04984,0 -0.234596,-0.56555 -0.632081,-1.25677 z m 7.793619,10.31875 c -0.09244,-2.34692 -0.0207,-2.83983 0.795055,-5.46282 0.711562,-2.28796 1.182077,-3.27108 2.279307,-4.7625 1.32265,-1.79782 2.36177,-3.35555 4.96012,-7.43562 1.45244,-2.2807 2.95384,-5.7418 3.68811,-8.50204 0.67334,-2.53115 0.8076,-7.78723 0.26606,-10.41567 -0.93612,-4.54363 -3.14509,-8.59894 -6.03253,-11.07472 -2.4275,-2.08141 -6.146071,-3.48579 -9.195337,-3.47277 -2.975183,0.0127 -7.0217,1.52129 -8.895208,3.31622 -0.425764,0.40791 -0.854733,0.66104 -0.953265,0.56251 -0.09853,-0.0985 -0.0852,-0.17915 0.02964,-0.17915 0.114832,0 0.06057,-0.1786 -0.120592,-0.39688 -0.181157,-0.21828 -0.225501,-0.3987 -0.09854,-0.40092 0.126959,-0.002 0.05224,-0.11947 -0.166041,-0.26054 -0.218281,-0.14106 -1.319609,-0.2583 -2.447396,-0.26053 l -2.05052,-0.004 -0.01677,0.7276 -0.01677,0.72761 -0.256087,-0.64073 c -0.345281,-0.86389 0.03843,-1.06953 2.00942,-1.07689 2.357047,-0.009 5.161919,-0.31317 5.018882,-0.54461 -0.06892,-0.11151 -1.596325,-0.21658 -3.394236,-0.23349 -2.633094,-0.0247 -3.334039,0.0477 -3.603664,0.3726 -0.184103,0.22183 -0.736874,0.40333 -1.228378,0.40333 -0.732382,0 -0.893645,0.1006 -0.893645,0.55747 0,0.38552 0.121772,0.51075 0.394788,0.40598 0.257455,-0.0988 0.535938,0.12146 0.800545,0.63315 0.223166,0.43156 0.561173,0.78465 0.751127,0.78465 0.189954,0 0.498444,0.32742 0.685533,0.7276 0.187089,0.40018 0.449367,0.94081 0.582839,1.20139 0.341785,0.66727 0.04332,1.04455 -0.567662,0.71756 -0.808304,-0.43259 -1.117171,-0.33796 -0.804396,0.24647 0.150641,0.28147 0.273892,1.34205 0.273892,2.35683 0,1.47814 -0.139014,2.11301 -0.699022,3.1924 -0.737511,1.42152 -1.216599,1.66207 -1.716373,0.86181 -0.200512,-0.32107 -0.514928,-0.44505 -0.928283,-0.36603 -0.448541,0.0857 -0.625072,-0.001 -0.625072,-0.30823 0,-0.71895 -0.399322,-0.48361 -1.294504,0.76291 -0.924051,1.28671 -1.063818,1.36201 -1.596068,0.85989 -0.280459,-0.26458 -0.374827,-0.26458 -0.471841,0 -0.210587,0.57433 -0.534369,0.35984 -0.698941,-0.46302 -0.08731,-0.43656 -0.310554,-0.7945 -0.496093,-0.79542 -0.328768,-0.002 -1.263386,-1.38638 -1.263386,-1.87185 0,-0.13373 0.416719,-0.24315 0.926042,-0.24315 1.405884,0 1.20523,-0.6918 -0.264583,-0.91221 -0.654844,-0.0982 -1.190625,-0.29031 -1.190625,-0.42691 0,-0.53005 -0.480456,-0.21098 -0.783315,0.52018 -0.17509,0.42271 -0.546723,0.82828 -0.825849,0.90127 -0.290505,0.076 -0.507503,0.36289 -0.507503,0.67104 0,0.29608 -0.121005,0.61311 -0.268899,0.70451 -0.147895,0.0914 -0.200399,0.27702 -0.116677,0.41249 0.08372,0.13547 -0.02394,0.2463 -0.239245,0.2463 -0.22013,0 -0.468032,0.3486 -0.566402,0.79647 -0.09621,0.43806 -0.355101,0.97664 -0.575306,1.19685 -0.284452,0.28445 -0.409073,1.01141 -0.430424,2.51082 -0.01653,1.16074 -0.129683,2.11044 -0.251455,2.11044 -0.121772,0 -0.161106,-0.44648 -0.08741,-0.99218 0.0737,-0.54571 0.07036,-0.78383 -0.0074,-0.52917 -0.07777,0.25466 -0.255575,0.46302 -0.395115,0.46302 -0.317643,0 -0.753124,-1.10737 -0.562044,-1.4292 0.07791,-0.13122 -0.03582,-0.36934 -0.252726,-0.52917 -0.216906,-0.15982 -0.463821,-0.46918 -0.548701,-0.68746 -0.08488,-0.21828 -0.163726,0.80123 -0.175214,2.26558 -0.02089,2.66261 0.223185,3.59324 1.573357,5.99906 0.371019,0.6611 0.317681,0.84565 -0.135668,0.4694 -0.216428,-0.17962 -0.596705,-0.2486 -0.845061,-0.1533 -0.399649,0.15336 -0.395323,0.11114 0.03764,-0.36727 0.456181,-0.50408 0.459644,-0.57321 0.05131,-1.02441 -0.240835,-0.26612 -0.437882,-0.71856 -0.437882,-1.00542 0,-0.28686 -0.138473,-0.66003 -0.307718,-0.82928 -0.169246,-0.16924 -0.396945,-1.41345 -0.505999,-2.76489 l -0.19828,-2.45718 0.05189,2.70114 c 0.02854,1.48563 -0.03959,2.55719 -0.151408,2.38125 -0.111817,-0.17594 -0.216994,-1.0938 -0.233728,-2.03968 -0.01673,-0.94589 -0.117475,-2.01745 -0.22387,-2.38125 -0.106395,-0.3638 -0.164018,0.5887 -0.128052,2.11666 0.04024,1.70954 -0.01772,2.5237 -0.150683,2.11667 -0.145082,-0.44413 -0.224741,-0.50933 -0.242449,-0.19844 -0.03208,0.56315 -0.55554,0.62548 -0.55554,0.0662 0,-0.21828 -0.119063,-0.39688 -0.264584,-0.39688 -0.145521,0 -0.264583,0.1786 -0.264583,0.39688 0,0.21828 -0.119063,0.39687 -0.264583,0.39687 -0.145521,0 -0.264584,-0.17859 -0.264584,-0.39687 0,-0.21828 -0.119062,-0.39688 -0.264583,-0.39688 -0.173544,0 -0.264583,-5.64444 -0.264583,-16.40416 V 106.153 h 26.855207 26.855199 v 32.80833 32.80834 h -7.2505 -7.250494 z m -9.391785,-8.10209 c 0.121056,-0.31546 0.0064,-0.62625 -0.338345,-0.91698 -0.286806,-0.24188 -0.580382,-0.78666 -0.652391,-1.21062 -0.07201,-0.42397 -0.2614,-0.90022 -0.420866,-1.05834 -0.209627,-0.20785 -0.240575,-0.15783 -0.111726,0.18058 0.170412,0.44759 0.142568,0.44762 -0.636082,7.4e-4 -0.447862,-0.25704 -0.959303,-0.73829 -1.136534,-1.06945 -0.177232,-0.33116 -0.448278,-0.5601 -0.602326,-0.50875 -0.307589,0.10253 -1.211504,-0.92236 -1.211504,-1.37364 0,-0.15559 -0.297656,-0.47793 -0.661458,-0.7163 -0.363803,-0.23837 -0.665245,-0.62807 -0.669873,-0.866 -0.0074,-0.37891 -0.05347,-0.37317 -0.371475,0.0463 -0.257281,0.33933 -0.418881,0.38853 -0.554649,0.16885 -0.105374,-0.1705 -0.03961,-0.40392 0.146136,-0.51872 0.250682,-0.15493 0.09716,-0.50532 -0.595657,-1.35948 -1.860487,-2.29377 -2.547523,-4.57884 -0.814439,-2.70881 0.745631,0.80455 1.092259,0.65656 0.663955,-0.28346 -0.186572,-0.40949 -0.202606,-0.71183 -0.04298,-0.81049 0.140033,-0.0865 0.256429,0.058 0.258657,0.32128 0.0034,0.40485 0.04291,0.41746 0.256105,0.0818 0.160517,-0.25274 0.159046,-0.4289 -0.0041,-0.48506 -0.140857,-0.0485 -0.256104,-0.27963 -0.256104,-0.5136 0,-0.35048 -0.06578,-0.33544 -0.373493,0.0854 -0.340721,0.46596 -0.366863,0.41306 -0.297935,-0.60288 0.06639,-0.97851 -0.05094,-1.25111 -0.966775,-2.24615 -2.32472,-2.52579 -2.595131,-2.84845 -2.595131,-3.09656 0,-0.14223 -0.185962,-0.36266 -0.41325,-0.48986 -0.362569,-0.2029 -0.560966,-1.27059 -0.37981,-2.04398 0.16966,-0.72432 -0.05764,-0.92605 -1.043408,-0.92605 -0.573495,0 -1.116303,0.11907 -1.20624,0.26459 -0.08994,0.14552 -0.563291,0.26458 -1.051899,0.26458 -0.488608,0 -0.933757,0.13614 -0.98922,0.30253 -0.07432,0.22297 -0.261526,0.21652 -0.711912,-0.0245 -0.418945,-0.22421 -0.525453,-0.41265 -0.338758,-0.59934 0.149772,-0.14978 0.209732,-0.4354 0.133245,-0.63472 -0.07649,-0.19932 0.0411,-0.43154 0.261307,-0.51604 0.31213,-0.11978 0.349028,-0.33268 0.16741,-0.96594 -0.261584,-0.9121 -0.138115,-1.26614 0.441557,-1.26614 0.216722,0 0.864577,-0.22733 1.439677,-0.50519 0.954306,-0.46107 1.16588,-0.47348 2.422311,-0.14204 0.757171,0.19974 1.389931,0.33778 1.406133,0.30676 0.337924,-0.64699 1.178031,-1.85235 1.181317,-1.69492 0.0025,0.11746 -0.12874,0.74254 -0.291536,1.38906 -0.29196,1.15948 -0.825043,1.50925 -1.437028,0.94288 -0.138245,-0.12794 -0.70386,-0.37729 -1.256924,-0.5541 -0.911748,-0.29149 -1.091237,-0.26361 -1.923744,0.29876 -1.147929,0.77546 -1.174769,1.70601 -0.04698,1.62877 0.624502,-0.0428 0.727909,0.0508 0.731387,0.66146 0.0032,0.55642 0.05989,0.62487 0.260532,0.3144 0.170987,-0.26459 0.257831,-0.28663 0.260532,-0.0661 0.0087,0.7114 0.483711,0.28071 0.646312,-0.58603 0.193515,-1.03152 0.680656,-1.52274 0.680656,-0.68635 0,0.29963 0.126089,0.54478 0.280198,0.54478 0.154109,0 0.206614,0.11906 0.116677,0.26458 -0.206952,0.33486 0.143306,0.33486 0.661458,0 0.264584,-0.17099 0.286632,-0.25783 0.06615,-0.26053 -0.181901,-0.002 -0.330729,-0.12538 -0.330729,-0.27368 0,-0.15548 0.280023,-0.19934 0.661458,-0.10361 0.446516,0.11207 0.661459,0.0564 0.661459,-0.17134 0,-0.18555 0.07371,-0.26366 0.163789,-0.17358 0.231034,0.23104 0.894544,-0.48631 0.894544,-0.96712 0,-0.22009 0.101545,-0.46292 0.225655,-0.53962 0.12411,-0.0767 0.295964,1.49385 0.381898,3.49011 0.166858,3.87615 0.65735,6.13813 2.020276,9.31685 0.405865,0.94658 0.814064,1.89966 0.90711,2.11794 0.09305,0.21828 0.757211,1.34277 1.475923,2.49886 0.718711,1.1561 1.235416,2.22766 1.148232,2.38125 -0.08718,0.1536 -0.06406,0.19397 0.0514,0.0897 0.115452,-0.10425 0.529956,0.25294 0.921122,0.79375 2.189368,3.02694 2.754498,3.94524 2.71983,4.41954 -0.02636,0.36062 0.02757,0.41904 0.171646,0.18591 0.165688,-0.26808 0.28349,-0.25146 0.557479,0.0787 0.294239,0.35453 0.252616,0.50689 -0.272007,0.99565 -0.517425,0.48206 -0.589257,0.4985 -0.436286,0.0999 z m -9.210816,-3.34114 c -0.08994,-0.14552 -0.454151,-0.26458 -0.809365,-0.26458 -0.355213,0 -0.645843,-0.11906 -0.645843,-0.26459 0,-0.14552 -0.20004,-0.26458 -0.444533,-0.26458 -0.410096,0 -2.981699,-2.54579 -2.990968,-2.96095 -0.0022,-0.10055 0.131066,-0.26634 0.296246,-0.36843 0.193826,-0.11979 0.07968,-0.3037 -0.321882,-0.51861 -0.567825,-0.30389 -0.712995,-0.24221 -1.660857,0.70565 -0.571256,0.57125 -1.084584,0.99271 -1.140729,0.93656 -0.21043,-0.21043 0.848087,-2.23689 1.367932,-2.61881 0.400724,-0.29441 -0.185575,-0.24433 -0.661459,0.0565 -0.218281,0.13799 -0.411758,0.37429 -0.429948,0.52512 -0.07401,0.6137 -0.116642,0.65641 -0.325884,0.32652 -0.160968,-0.25377 -0.407788,-0.0965 -0.936643,0.59687 -0.394944,0.5178 -0.64862,1.05384 -0.563725,1.19121 0.0849,0.13736 -0.07068,0.37018 -0.345713,0.51738 -0.397219,0.21258 -0.625895,0.13369 -1.111864,-0.3836 -0.336489,-0.35818 -0.769637,-0.65123 -0.962552,-0.65123 -0.192914,0 -0.350754,-0.23813 -0.350754,-0.52917 0,-0.29104 -0.127567,-0.52917 -0.283482,-0.52917 -0.589579,0 -1.09435,-0.80351 -0.926042,-1.4741 0.15031,-0.59888 0.207238,-0.62431 0.574786,-0.25676 0.571797,0.57179 0.949605,0.50659 1.56078,-0.26935 0.291041,-0.3695 0.868922,-1.08265 1.284179,-1.58476 0.657615,-0.79517 0.691747,-0.91346 0.264584,-0.91699 -0.377823,-0.003 -0.407617,-0.0565 -0.129763,-0.23256 0.304501,-0.19292 0.304501,-0.25358 0,-0.3895 -0.198367,-0.0886 0.160516,-0.0899 0.797518,-0.003 l 1.158185,0.15792 -0.188662,-2.26486 c -0.199489,-2.39483 0.08848,-3.40023 1.166791,-4.07365 0.407649,-0.25458 0.490246,-0.0606 0.797699,1.87383 0.188631,1.1868 0.429628,2.27689 0.535549,2.42241 0.105921,0.14552 0.262588,0.63501 0.34815,1.08777 0.225664,1.19412 1.536664,3.88178 2.090178,4.28504 0.261002,0.19015 0.47455,0.46709 0.47455,0.61541 0,0.33378 2.360008,3.45809 2.831396,3.74836 0.188982,0.11637 0.343604,0.33044 0.343604,0.47571 0,0.14527 0.327422,0.55231 0.727604,0.90454 l 0.727604,0.6404 -0.976573,0.008 c -0.537115,0.005 -1.050157,-0.1107 -1.140094,-0.25622 z"
         id="path335" /><path
         style="fill:#b8d3e5"
         d="m 92.635941,168.9254 c 0.0367,-2.58587 -0.04268,-3.09934 -0.87382,-5.65181 -0.626508,-1.92404 -1.257206,-3.27186 -2.004204,-4.28304 -4.205451,-5.6927 -7.094683,-10.77362 -8.380423,-14.73755 -1.331186,-4.10404 -1.194475,-10.74386 0.303941,-14.7619 2.621984,-7.03091 8.032791,-10.98113 14.481946,-10.57269 7.138069,0.45206 12.631689,6.50062 13.688779,15.07157 0.97687,7.92043 -0.88416,13.25039 -8.26616,23.67421 -1.799139,2.54049 -2.226311,3.36543 -3.013104,5.81882 -0.80059,2.49641 -0.916764,3.20259 -0.916764,5.57266 v 2.714 h -1.984375 -1.984375 v -2.79133 c 0,-2.44718 -0.103479,-3.09144 -0.839306,-5.22552 -0.461619,-1.33881 -1.01205,-2.67232 -1.22318,-2.96336 -0.279328,-0.38505 -0.34293,-0.40747 -0.233534,-0.0823 1.586727,4.71623 1.904139,6.22066 1.817675,8.61512 -0.126017,3.48979 -0.623377,3.14536 -0.573096,-0.39687 z m -2.0409,-10.17118 c -0.409265,-0.75559 -1.720405,-2.74988 -2.913645,-4.43178 -2.516375,-3.54687 -4.561828,-7.32912 -5.337235,-9.86909 -0.657485,-2.15369 -1.184782,-6.97513 -0.962338,-8.7993 0.936154,-7.67704 3.488407,-11.96684 8.891794,-14.94524 0.786165,-0.43334 1.267462,-0.79005 1.069551,-0.79268 -0.816618,-0.0109 -3.70752,1.82014 -5.214133,3.3025 -3.532225,3.47534 -5.18388,8.10245 -5.194393,14.55208 -0.0099,6.06631 1.903457,10.61343 8.236785,19.57497 1.081484,1.53027 2.01165,2.78232 2.067034,2.78232 0.05538,0 -0.234155,-0.6182 -0.64342,-1.37378 z m 11.239289,-11.25219 c 0.18796,-0.17756 0.47313,-0.71335 0.63371,-1.19062 0.16057,-0.47728 0.41489,-1.02453 0.56516,-1.21612 0.46567,-0.59374 1.17293,-2.99628 1.51366,-5.14186 0.33396,-2.10295 0.20668,-7.25401 -0.25007,-10.12022 -0.0232,-0.14552 -0.16352,-0.0562 -0.31185,0.19844 -0.42765,0.73423 -1.03131,0.54161 -1.45107,-0.46302 -0.24252,-0.58044 -0.56778,-0.92605 -0.87153,-0.92605 -0.26654,0 -0.71142,-0.25079 -0.98864,-0.55732 -0.87655,-0.96923 -2.364968,-1.55934 -3.933069,-1.55934 -0.806162,0 -1.465749,0.11679 -1.465749,0.25954 0,0.14275 -0.327422,0.33809 -0.727604,0.43409 -0.77438,0.18576 -3.098993,2.3456 -3.684111,3.42297 -0.192932,0.35524 -0.528645,0.97332 -0.74603,1.3735 -0.217385,0.40018 -0.395978,0.93597 -0.396875,1.19063 -8.96e-4,0.25466 -0.120692,0.46302 -0.266213,0.46302 -0.145521,0 -0.264584,0.47625 -0.264584,1.05833 0,0.58729 0.128333,1.05833 0.288335,1.05833 0.200303,0 0.230714,0.69173 0.09961,2.26564 -0.161316,1.93658 -0.1176,2.39771 0.300999,3.175 0.269349,0.50015 0.641244,0.90936 0.826433,0.90936 0.185189,0 0.336708,0.25852 0.336708,0.57448 0,0.73063 0.725583,1.54219 1.378806,1.54219 0.276673,0 1.11775,0.60509 1.869058,1.34464 1.639003,1.61335 2.009654,1.82914 3.150887,1.83441 0.48251,0.002 1.026787,0.099 1.209506,0.21497 0.508975,0.32315 2.799373,0.21886 3.184523,-0.14499 z m -3.432438,21.68795 c -0.07728,-2.36486 -0.0054,-2.82205 0.863352,-5.4901 0.773566,-2.37576 1.261196,-3.34787 2.654426,-5.29167 6.27443,-8.75395 8.40419,-13.43699 8.86022,-19.48242 0.57449,-7.61573 -2.694,-15.23474 -7.98849,-18.62158 -2.938397,-1.87968 -6.744409,-2.72048 -9.596826,-2.12009 -2.012682,0.42364 -2.304725,0.51856 -4.211387,1.36884 -1.713306,0.76406 -1.878524,0.77559 -1.079804,0.0754 l 0.624624,-0.5476 -0.79375,0.15876 c -0.585928,0.1172 -0.689839,0.0885 -0.396875,-0.1098 0.218281,-0.14771 0.664766,-0.27039 0.992188,-0.27262 0.450384,-0.003 0.595312,-0.15819 0.595312,-0.6372 0,-0.34823 0.178594,-0.70168 0.396875,-0.78545 0.218281,-0.0838 0.396875,-0.27509 0.396875,-0.42518 0,-0.15009 -0.178594,-0.27289 -0.396875,-0.27289 -0.218281,0 -0.396875,-0.17179 -0.396875,-0.38175 0,-0.3084 -0.648154,-0.39737 -3.373437,-0.46302 -1.855391,-0.0447 -3.72274,0.006 -4.149664,0.11264 -1.026062,0.25633 -1.113627,0.11535 -0.215563,-0.34706 0.399963,-0.20593 1.277207,-0.76174 1.94943,-1.23512 0.672223,-0.47338 1.487042,-0.86069 1.810708,-0.86069 0.365968,0 0.640807,-0.20008 0.726863,-0.52916 0.135254,-0.51721 0.460353,-0.63347 1.531871,-0.5478 0.400495,0.032 0.441878,-0.0169 0.17019,-0.20104 -0.261319,-0.17715 -0.27616,-0.29453 -0.05456,-0.43149 0.167432,-0.10348 0.4672,-0.053 0.666151,0.11206 0.223997,0.1859 0.421698,0.20318 0.519225,0.0454 0.08662,-0.14016 0.0079,-0.31547 -0.174882,-0.38958 -0.467636,-0.18958 0.288707,-0.70308 0.765878,-0.51998 0.193871,0.0744 0.425765,-0.0557 0.515322,-0.28906 0.08956,-0.23338 0.328684,-0.42433 0.531396,-0.42433 0.202713,0 0.368568,-0.0961 0.368568,-0.21366 0,-0.23427 1.844124,-1.10925 2.337863,-1.10925 0.169384,0 0.30797,-0.1786 0.30797,-0.39688 0,-0.21828 0.20836,-0.39732 0.463021,-0.39787 0.254661,-5.5e-4 1.177396,-0.35729 2.050521,-0.79275 0.873125,-0.43547 1.795859,-0.79221 2.050521,-0.79276 0.254661,-5.5e-4 0.46302,-0.12006 0.46302,-0.26558 0,-0.17009 2.645836,-0.26458 7.408336,-0.26458 h 7.40833 v 4.89479 4.89479 h -1.4552 -1.45521 v 1.44002 c 0,1.2976 -0.0523,1.42994 -0.52917,1.33811 -0.29104,-0.056 -0.53099,0.0401 -0.53322,0.21363 -0.002,0.19018 -0.10594,0.15787 -0.26053,-0.0813 -0.14492,-0.22425 -0.25824,-0.26325 -0.26053,-0.0897 -0.002,0.16897 0.35314,0.60777 0.7897,0.97511 0.8433,0.7096 0.99448,1.12022 0.47605,1.29303 -0.24721,0.0824 -0.24721,0.14946 0,0.30225 0.17473,0.10799 0.3177,0.0703 0.3177,-0.0838 0,-0.15411 0.15152,-0.2802 0.33671,-0.2802 0.33006,0 0.85331,0.86739 1.55616,2.57968 0.19414,0.47295 0.5025,0.8599 0.68526,0.8599 0.26418,0 0.33228,4.85321 0.33228,23.68021 v 23.68021 h -7.25788 -7.257891 z M 79.796757,157.48217 c -0.08994,-0.14552 -0.450046,-0.26459 -0.800242,-0.26459 -0.350636,0 -1.001559,-0.35664 -1.448716,-0.79375 -0.446597,-0.43656 -0.956718,-0.79557 -1.133601,-0.7978 -0.238092,-0.003 -0.233397,-0.06 0.01808,-0.21959 0.195782,-0.12422 0.264251,-0.41213 0.161617,-0.67959 -0.135298,-0.35258 -0.228417,-0.38259 -0.387657,-0.12494 -0.142992,0.23137 -0.268985,0.0913 -0.396537,-0.44083 -0.102825,-0.42898 -0.304177,-0.92878 -0.447451,-1.11068 -0.428537,-0.54408 -1.383792,-0.37605 -2.019647,0.35525 -0.877076,1.00873 -1.0171,0.54594 -0.170608,-0.56387 0.39879,-0.52284 0.683284,-0.97649 0.632208,-1.00811 -0.05108,-0.0316 -0.306103,-0.22102 -0.566727,-0.42089 -0.419428,-0.32166 -0.57854,-0.26194 -1.385099,0.5198 -0.981397,0.95121 -1.525717,0.98935 -0.646181,0.0453 1.389923,-1.49191 0.661358,-3.02788 -0.891616,-1.87972 -0.810014,0.59887 -0.738234,0.26308 0.156547,-0.73232 0.28464,-0.31665 0.438494,-0.70361 0.341899,-0.8599 -0.107162,-0.17339 0.08075,-0.28417 0.482047,-0.28417 0.395733,0 0.714372,0.18441 0.800034,0.46302 0.154858,0.50367 -0.01773,-1.74828 -0.27586,-3.59948 -0.149707,-1.07362 -0.126226,-1.13366 0.344815,-0.88156 0.278004,0.14878 0.67085,0.69203 0.872992,1.20721 0.202142,0.51518 0.520691,0.99547 0.707886,1.0673 0.270861,0.10394 0.278226,-0.0154 0.03607,-0.58429 -0.167356,-0.3932 -0.478309,-0.92327 -0.691006,-1.17793 -0.342636,-0.41024 -0.336804,-0.46302 0.05116,-0.46302 0.240835,0 0.437882,0.17859 0.437882,0.39688 0,0.21828 0.10789,0.39687 0.239756,0.39687 0.131865,0 0.321988,0.59791 0.422496,1.32868 0.100507,0.73078 0.468369,1.89164 0.81747,2.57969 0.349102,0.68805 0.635228,1.41122 0.635837,1.60704 9.64e-4,0.30985 0.896615,1.78182 1.312782,2.15751 0.0806,0.0728 0.480881,0.58078 0.889515,1.12894 0.408634,0.54816 1.271159,1.55581 1.916724,2.23921 0.645564,0.68341 1.173753,1.33624 1.173753,1.45074 0,0.30275 -0.997873,0.25549 -1.190625,-0.0564 z m 0.108659,-12.88928 c -1.798062,-1.95868 -2.357617,-2.80154 -2.357617,-3.55127 0,-0.7487 -0.344619,-1.00544 -0.661458,-0.49279 -0.08994,0.14553 -0.282706,0.26459 -0.428377,0.26459 -0.226309,0 -0.20595,-0.76957 0.0455,-1.71979 0.119646,-0.45215 -0.316857,-1.19063 -0.703762,-1.19063 -0.202712,0 -0.368568,-0.23812 -0.368568,-0.52917 0,-0.29104 0.119063,-0.52916 0.264584,-0.52916 0.145521,0 0.264583,0.17859 0.264583,0.39687 0,0.5478 0.09645,0.52077 1.887885,-0.52916 0.869027,-0.50933 1.617127,-0.92605 1.662445,-0.92605 0.04532,0 0.148783,1.45852 0.229924,3.24115 0.09739,2.13973 0.32607,3.80309 0.672924,4.89479 0.288967,0.90951 0.495909,1.65365 0.459871,1.65365 -0.03604,0 -0.471607,-0.44236 -0.967932,-0.98303 z m -8.861267,-16.30905 c -0.302789,-0.16877 -0.499524,-0.45986 -0.437188,-0.64687 0.284108,-0.85232 -0.206918,-1.61699 -1.152209,-1.79433 -0.519769,-0.0975 -1.010156,-0.34699 -1.089749,-0.55441 -0.100649,-0.26229 -0.39634,-0.33289 -0.971063,-0.23185 -0.641706,0.11281 -0.708109,0.0905 -0.297182,-0.10004 0.291041,-0.13492 0.380338,-0.25368 0.198437,-0.26391 -0.477156,-0.0268 -0.406783,-0.83069 0.105516,-1.20529 0.383832,-0.28067 0.359992,-0.31596 -0.198438,-0.29375 -0.562309,0.0224 -0.643959,-0.10299 -0.716041,-1.09924 -0.05292,-0.73146 -0.207048,-1.12448 -0.440972,-1.12448 -0.197787,0 -0.414184,-0.14883 -0.480881,-0.33073 -0.09701,-0.26459 -0.191382,-0.26459 -0.47184,0 -0.694691,0.65537 -0.724084,0.30824 -0.0726,-0.8574 0.365231,-0.65347 0.773568,-1.25581 0.907415,-1.33853 0.303319,-0.18746 0.321981,-0.91293 0.02348,-0.91293 -0.120931,0 -0.379175,0.29766 -0.573876,0.66146 -0.194701,0.3638 -0.512476,0.66146 -0.706167,0.66146 -0.193692,0 -0.352166,0.10884 -0.352166,0.24187 0,0.13303 -0.412575,0.66671 -0.916832,1.18595 -0.504258,0.51925 -1.099568,1.29746 -1.322911,1.72936 -0.223343,0.4319 -0.556013,0.88048 -0.739266,0.99686 -0.183253,0.11637 -0.62974,0.65726 -0.992193,1.20197 -0.362454,0.5447 -0.748303,0.99119 -0.857444,0.99218 -0.10914,0.001 -0.198437,-4.28444 -0.198437,-9.52319 v -9.525 l 9.458854,0.004 9.458853,0.004 -0.825773,0.72338 c -0.454176,0.39786 -1.742326,1.49728 -2.862557,2.44317 -2.874659,2.42727 -3.976407,3.51463 -3.364252,3.32034 0.276992,-0.0879 1.165691,-0.81142 1.974885,-1.6078 0.809194,-0.79638 1.554454,-1.44796 1.656132,-1.44796 0.167976,0 0.86746,-0.61428 3.091996,-2.71538 l 0.773952,-0.731 9.13285,0.0695 9.132849,0.0696 -3.401916,1.67793 c -2.959381,1.45966 -4.617216,2.36224 -10.230924,5.57008 -1.091918,0.62395 -2.73385,1.82645 -3.738069,2.73764 -0.282101,0.25597 -0.669055,0.46539 -0.859896,0.46539 -0.190842,0 -0.346985,0.091 -0.346985,0.20213 0,0.11117 -0.47625,0.49646 -1.058333,0.85621 -0.582084,0.35974 -1.058334,0.73339 -1.058334,0.83032 0,0.0969 0.357188,0.30076 0.79375,0.45295 0.436563,0.15218 0.79375,0.40196 0.79375,0.55505 0,0.4059 -0.429283,0.34043 -0.908239,-0.13853 -0.229279,-0.22928 -0.840602,-0.45625 -1.358495,-0.50438 -0.8475,-0.0788 -0.893674,-0.0512 -0.461924,0.27616 0.263835,0.20003 0.610075,0.36747 0.769422,0.3721 0.159347,0.005 0.497956,0.23851 0.752464,0.51973 0.254507,0.28123 0.619392,0.45121 0.810854,0.37774 0.19756,-0.0758 0.426002,0.11183 0.52821,0.43386 0.104922,0.33058 0.32918,0.51023 0.537255,0.43038 0.216273,-0.083 0.493765,0.17157 0.703476,0.64533 0.200418,0.45278 0.490436,0.72709 0.688404,0.65112 0.213624,-0.082 0.539118,0.32839 0.866771,1.09277 0.288576,0.67322 0.478674,1.27005 0.422438,1.32629 -0.05624,0.0562 -0.424166,-0.0202 -0.817624,-0.16974 -0.393457,-0.14959 -1.005282,-0.27199 -1.359611,-0.27199 -0.354329,0 -0.644234,-0.15467 -0.644234,-0.34372 0,-0.18905 -0.418569,-0.49508 -0.930153,-0.68007 -0.511584,-0.18499 -0.861745,-0.44704 -0.778135,-0.58232 0.08361,-0.13528 -0.04063,-0.24597 -0.276087,-0.24597 -0.235458,0 -0.35452,-0.11906 -0.264583,-0.26458 0.09056,-0.14654 -0.109052,-0.26834 -0.447406,-0.273 -0.594176,-0.008 -0.596845,-0.0191 -0.09734,-0.39688 0.49358,-0.37332 0.486519,-0.38846 -0.181213,-0.38846 -0.382142,0 -1.00165,-0.11666 -1.376685,-0.25925 -0.575798,-0.21891 -0.910248,-0.11316 -2.149769,0.67975 -1.650222,1.05563 -1.791498,1.6688 -0.471708,2.04731 0.682737,0.19581 0.984987,0.12763 1.717975,-0.38749 0.489212,-0.34381 0.929164,-0.7144 0.977671,-0.82355 0.04851,-0.10914 0.25544,-0.19843 0.459851,-0.19843 0.204411,0 -0.236753,0.5773 -0.980365,1.28288 -1.178528,1.11827 -1.470335,1.26985 -2.274031,1.18128 -0.865741,-0.0954 -0.894714,-0.0743 -0.474734,0.34568 0.551228,0.55122 0.987932,1.64831 0.786112,1.97486 -0.08239,0.13331 0.04285,0.24238 0.278306,0.24238 0.246729,0 0.351079,0.12463 0.246301,0.29417 -0.09999,0.16179 -0.01772,0.39809 0.182822,0.52511 0.571181,0.36178 -0.578926,0.25115 -1.244232,-0.11969 z"
         id="path334" /><path
         style="fill:#b2c8d8"
         d="m 92.635941,168.9254 c 0.0367,-2.58587 -0.04268,-3.09934 -0.87382,-5.65181 -0.626508,-1.92404 -1.257206,-3.27186 -2.004204,-4.28304 -4.205451,-5.6927 -7.094683,-10.77362 -8.380423,-14.73755 -1.331186,-4.10404 -1.194475,-10.74386 0.303941,-14.7619 2.621984,-7.03091 8.032791,-10.98113 14.481946,-10.57269 7.138069,0.45206 12.631689,6.50062 13.688779,15.07157 0.97687,7.92043 -0.88416,13.25039 -8.26616,23.67421 -1.799139,2.54049 -2.226311,3.36543 -3.013104,5.81882 -0.80059,2.49641 -0.916764,3.20259 -0.916764,5.57266 v 2.714 h -1.984375 -1.984375 v -2.79133 c 0,-2.44718 -0.103479,-3.09144 -0.839306,-5.22552 -0.461619,-1.33881 -1.01205,-2.67232 -1.22318,-2.96336 -0.279328,-0.38505 -0.34293,-0.40747 -0.233534,-0.0823 1.586727,4.71623 1.904139,6.22066 1.817675,8.61512 -0.126017,3.48979 -0.623377,3.14536 -0.573096,-0.39687 z m -2.0409,-10.17118 c -0.409265,-0.75559 -1.720405,-2.74988 -2.913645,-4.43178 -2.516375,-3.54687 -4.561828,-7.32912 -5.337235,-9.86909 -0.657485,-2.15369 -1.184782,-6.97513 -0.962338,-8.7993 0.934111,-7.66028 3.504417,-11.97534 8.907359,-14.95375 0.777604,-0.42866 1.251897,-0.78154 1.053986,-0.78417 -0.816618,-0.0109 -3.70752,1.82014 -5.214133,3.3025 -3.532225,3.47534 -5.18388,8.10245 -5.194393,14.55208 -0.0099,6.06631 1.903457,10.61343 8.236785,19.57497 1.081484,1.53027 2.01165,2.78232 2.067034,2.78232 0.05538,0 -0.234155,-0.6182 -0.64342,-1.37378 z m 9.279063,-8.51883 c 0.164816,-0.65669 0.990466,-1.02039 1.913056,-0.84272 0.35839,0.069 0.51808,-0.046 0.51808,-0.37322 0,-0.2767 -0.14118,-0.41882 -0.34018,-0.34246 -0.61522,0.23609 -0.3548,-0.64938 0.32128,-1.09237 0.3638,-0.23837 0.66146,-0.60925 0.66146,-0.82418 0,-0.21492 0.17859,-0.39077 0.39687,-0.39077 0.22721,0 0.39688,-0.23833 0.39688,-0.55748 0,-0.37952 0.12305,-0.51025 0.38551,-0.40954 0.31211,0.11977 0.33745,0.0215 0.13309,-0.51598 -0.13883,-0.36515 -0.15736,-0.60516 -0.0412,-0.53335 0.11619,0.0718 0.4159,-0.84412 0.66604,-2.0354 0.25013,-1.19128 0.57143,-2.20565 0.71399,-2.25416 0.14256,-0.0485 0.2592,-0.44226 0.2592,-0.87502 0,-0.43276 0.13515,-1.32353 0.30032,-1.97951 0.22404,-0.88973 0.22404,-1.26896 0,-1.49299 -0.16517,-0.16518 -0.29653,-0.42534 -0.2919,-0.57814 0.005,-0.15279 0.18322,-0.0467 0.39687,0.23578 0.2781,0.36767 0.38846,1.22589 0.38846,3.02066 0,1.37889 0.0663,2.44076 0.14736,2.35972 0.38407,-0.38407 0.10429,-6.25679 -0.39018,-8.19015 -0.45329,-1.77232 -1.44166,-4.18611 -1.71409,-4.18611 -0.0517,0 0.1888,0.77932 0.53455,1.73183 0.65121,1.79408 0.86032,3.1885 0.30569,2.03848 -0.15791,-0.32742 -0.37947,-0.59531 -0.49236,-0.59531 -0.48582,0 -1.04627,-0.87626 -0.88514,-1.38393 0.11282,-0.35547 0.0715,-0.4738 -0.12331,-0.35338 -0.16111,0.0996 -0.29293,0.062 -0.29293,-0.0835 0,-0.14552 0.121,-0.33937 0.2689,-0.43078 0.14789,-0.0914 0.1992,-0.27896 0.11401,-0.4168 -0.0852,-0.13784 -0.2586,-0.18652 -0.38535,-0.10819 -0.12676,0.0783 -0.62455,-0.19284 -1.1062,-0.60262 -0.48166,-0.40978 -1.21149,-0.95638 -1.62185,-1.21467 -1.66571,-1.04844 -4.882979,-1.56989 -5.938206,-0.96245 -0.252687,0.14545 -0.816618,0.39195 -1.25318,0.54776 -0.436563,0.15582 -0.841319,0.3047 -0.899458,0.33085 -0.340993,0.15337 -2.938007,2.78706 -2.942884,2.98443 -0.0032,0.13096 -0.238713,0.53577 -0.523283,0.89957 -0.28457,0.3638 -0.520048,0.96507 -0.523284,1.33615 -0.0032,0.37107 -0.12898,0.79778 -0.279433,0.94823 -0.150452,0.15046 -0.393312,1.69232 -0.539688,3.42636 -0.215818,2.55668 -0.194699,3.38812 0.111694,4.39738 0.269269,0.88697 0.292907,1.27289 0.08227,1.3431 -0.199602,0.0665 -0.160641,0.30673 0.120002,0.7398 0.228562,0.3527 0.493879,0.95944 0.589594,1.34832 0.129111,0.52456 0.430137,0.78513 1.166333,1.0096 1.597835,0.48718 2.970373,1.17124 2.973646,1.48203 0.0017,0.15854 0.304033,0.4254 0.671919,0.59302 0.367886,0.16762 0.737812,0.48439 0.822057,0.70393 0.08425,0.21954 0.273546,0.39916 0.420667,0.39916 0.147121,0 0.674307,0.35719 1.171524,0.79375 0.715778,0.62847 1.150047,0.79375 2.08545,0.79375 1.119195,0 1.570443,0.3281 0.850689,0.61853 -0.209007,0.0843 -0.170875,0.14114 0.103609,0.15434 0.247108,0.0119 0.502736,-0.25164 0.593009,-0.61131 z m -1.472212,18.97597 c -0.07697,-2.33569 -0.0021,-2.81345 0.860773,-5.49011 0.783565,-2.43075 1.238935,-3.33875 2.664555,-5.31304 5.67651,-7.86123 8.00442,-12.66966 8.7103,-17.99167 1.05472,-7.95212 -1.97827,-16.11475 -7.36532,-19.82218 -2.5881,-1.78116 -6.48857,-2.92476 -9.187943,-2.69387 -1.513747,0.12947 -1.535011,0.12325 -0.457682,-0.13394 0.6214,-0.14835 1.060858,-0.3813 0.976573,-0.51768 -0.08429,-0.13637 0.03237,-0.24795 0.259244,-0.24795 0.226869,0 0.41249,0.11906 0.41249,0.26458 0,0.14552 0.18562,0.26458 0.41249,0.26458 0.226869,0 0.338905,-0.11906 0.248968,-0.26458 -0.08994,-0.14552 0.08163,-0.26458 0.38126,-0.26458 0.29963,0 0.544782,0.1318 0.544782,0.29289 0,0.16109 0.170898,0.22731 0.379773,0.14716 0.469332,-0.1801 3.701705,0.2772 4.779605,0.6762 0.90874,0.33638 1.75653,0.99149 1.60351,1.23908 -0.0571,0.0924 0.35478,0.12422 0.91526,0.0708 0.77735,-0.0741 1.16429,0.0414 1.63139,0.48718 0.33679,0.3214 1.23741,1.0513 2.0014,1.62201 1.0203,0.76218 1.38906,1.21103 1.38906,1.69076 0,0.58385 0.24994,0.78182 0.86286,0.68346 0.11076,-0.0178 0.46191,0.50391 0.78032,1.15929 0.31841,0.65539 0.67427,1.19161 0.79079,1.19161 0.11653,0 0.21186,0.41672 0.21186,0.92605 0,0.64675 0.1197,0.92604 0.39688,0.92604 0.34641,0 0.39687,1.39733 0.39687,10.98851 0,9.52349 -0.0529,11.00882 -0.39687,11.14081 -0.21828,0.0838 -0.39688,0.3827 -0.39688,0.66432 0,0.51893 -0.28645,0.9667 -1.12447,1.75774 -0.25467,0.24038 -0.46303,0.58919 -0.46303,0.77513 0,0.18594 -0.11906,0.33807 -0.26458,0.33807 -0.14552,0 -0.26458,0.39019 -0.26458,0.86708 0,0.59114 -0.24903,1.13972 -0.78252,1.72382 -0.43038,0.47121 -0.86256,1.28343 -0.9604,1.80493 -0.10326,0.55044 -0.25803,0.81849 -0.36896,0.63901 -0.11121,-0.17995 -0.4458,0.3897 -0.8005,1.36289 -0.33518,0.91963 -0.70998,1.78517 -0.8329,1.92342 -0.12291,0.13824 -0.22347,0.41116 -0.22347,0.60648 0,0.19532 -0.12083,0.49893 -0.2685,0.67468 -1.04456,1.24321 -2.11275,2.86823 -2.11275,3.21411 0,0.22701 -0.099,0.41275 -0.21988,0.41275 -0.12093,0 -0.38882,0.32742 -0.59531,0.7276 -0.20649,0.40018 -0.58254,0.95707 -0.83566,1.23752 -0.25313,0.28045 -0.39453,0.57561 -0.31422,0.65592 0.16965,0.16965 1.48934,-1.28009 2.38591,-2.62104 1.16919,-1.74868 1.8787,-2.46293 2.09651,-2.11051 0.1219,0.19724 0.0199,0.43043 -0.25566,0.58466 -0.35022,0.19599 -0.42594,0.48445 -0.32076,1.22193 0.0757,0.53096 0.0793,0.76362 0.008,0.51702 -0.20765,-0.71703 -0.91446,-0.26866 -0.7307,0.46353 0.087,0.34674 -0.0308,0.99582 -0.26646,1.46828 -0.23235,0.46574 -0.42245,1.24523 -0.42245,1.7322 v 0.88539 h -2.89226 -2.892257 z M 61.182889,121.05827 c -0.210003,-0.22809 -0.313843,-0.7634 -0.251566,-1.29685 0.09365,-0.80219 0.03491,-0.90842 -0.502277,-0.90842 -0.533329,0 -0.60833,0.13048 -0.60833,1.05833 0,0.58209 -0.119062,1.05834 -0.264583,1.05834 -0.344918,0 -0.344918,-1.77121 0,-1.98438 0.145521,-0.0899 0.264583,-0.64117 0.264583,-1.22496 0,-0.98712 1.390871,-4.18583 1.922275,-4.42083 0.111366,-0.0493 0.441764,-0.6148 0.734217,-1.25677 0.292454,-0.64198 0.647821,-1.16723 0.789704,-1.16723 0.141884,0 0.257971,-0.23812 0.257971,-0.52917 0,-0.29104 0.121615,-0.52916 0.270256,-0.52916 0.14864,0 0.41137,-0.32743 0.583843,-0.72761 0.172473,-0.40018 0.65189,-1.23362 1.065371,-1.85208 l 0.751785,-1.12448 h 5.976795 5.976796 l -1.028569,0.79927 c -1.501538,1.1668 -2.990398,2.40393 -3.918258,3.25578 -0.447963,0.41127 -1.399663,1.2447 -2.114889,1.85208 -0.715227,0.60738 -2.26977,2.08659 -3.454541,3.28714 -1.184771,1.20055 -2.296227,2.18281 -2.469901,2.18281 -0.173674,0 -0.317828,0.14883 -0.320343,0.33073 -0.0067,0.48383 -1.249164,1.59661 -1.371824,1.22863 -0.05548,-0.16646 -0.322358,0.1885 -0.593052,0.78879 -0.270693,0.60029 -0.642759,1.09144 -0.826812,1.09144 -0.184054,0 -0.374331,0.10733 -0.422838,0.23851 -0.04851,0.13119 -0.249123,0.0637 -0.445813,-0.14991 z M 59.29155,111.18008 V 106.153 h 3.190614 c 2.482947,0 3.146182,0.0733 2.990283,0.33073 -0.110183,0.1819 -0.563694,0.86651 -1.007802,1.52135 -1.240373,1.82895 -1.471758,2.21163 -1.639761,2.71198 -0.08551,0.25466 -0.246758,0.46302 -0.358334,0.46302 -0.111577,0 -0.275459,0.20836 -0.364184,0.46302 -0.08872,0.25467 -0.51488,0.99881 -0.947012,1.65365 -0.432131,0.65484 -0.962662,1.57758 -1.178957,2.05052 -0.216294,0.47294 -0.458869,0.8599 -0.539055,0.8599 -0.08019,0 -0.145792,-2.26219 -0.145792,-5.02709 z m 24.143228,1.39387 c -0.75121,-0.0913 -0.859896,-0.20268 -0.859896,-0.88146 0,-0.7116 0.07793,-0.77699 0.926042,-0.77699 0.509323,0 0.926042,-0.11906 0.926042,-0.26458 0,-0.15287 -0.837848,-0.26459 -1.984375,-0.26459 H 80.458216 V 109.328 c 0,-1.05349 -0.0047,-1.05833 -1.030026,-1.05833 -0.693109,0 -1.082309,-0.13625 -1.189865,-0.41654 -0.145432,-0.37899 -0.197383,-0.37899 -0.576373,0 -0.229094,0.2291 -0.556858,0.41225 -0.728364,0.40702 -0.171507,-0.005 0.0413,-0.29809 0.472893,-0.6508 0.561221,-0.45863 0.840247,-0.55144 0.979665,-0.32586 0.136687,0.22117 0.422416,0.0975 0.956164,-0.41387 l 0.761222,-0.7293 8.313279,0.0297 c 7.885153,0.0282 8.258776,0.0514 7.254946,0.45076 -0.582084,0.23159 -1.117865,0.48898 -1.190625,0.57197 -0.226175,0.25798 -1.160228,0.80148 -1.852083,1.07768 -0.363802,0.14524 -0.868203,0.38308 -1.120889,0.52854 -0.252687,0.14546 -0.63964,0.26447 -0.859896,0.26447 -0.220256,0 -0.400465,0.10517 -0.400465,0.23372 0,0.12855 -0.20836,0.306 -0.463021,0.39434 -0.254662,0.0883 -0.988965,0.46005 -1.631786,0.82602 -1.074052,0.61149 -1.218024,0.63313 -1.776628,0.26712 -0.334325,-0.21906 -0.879944,-0.38448 -1.212485,-0.36759 -0.542513,0.0275 -0.550264,0.0444 -0.07545,0.16409 0.291041,0.0734 0.742792,0.28282 1.003889,0.46544 0.435421,0.30454 0.391613,0.3837 -0.529166,0.95618 -1.188199,0.73875 -1.051468,0.70205 -2.128369,0.57121 z"
         id="path333" /><path
         style="fill:#a6b8c9"
         d="m 92.644058,168.9254 c 0.04431,-2.59889 -0.03056,-3.08685 -0.867735,-5.65593 -0.725235,-2.22556 -1.248662,-3.27347 -2.511013,-5.02709 -6.65588,-9.24612 -8.808398,-14.23796 -8.806087,-20.42194 0.0025,-6.67732 1.995502,-11.8657 5.944255,-15.47463 2.72101,-2.48685 6.123072,-3.672 9.796589,-3.41276 4.982583,0.35163 8.908263,3.12889 11.480543,8.12203 1.27601,2.47692 1.78068,4.06147 2.13388,6.69988 1.09208,8.15799 -1.04392,14.02366 -9.16902,25.17902 -0.830628,1.14041 -1.423193,2.41502 -2.092669,4.50131 -0.83451,2.6006 -0.930817,3.19912 -0.904694,5.6224 l 0.02923,2.71198 h -1.99498 -1.99498 v -2.88078 c 0,-2.62387 -0.08282,-3.11255 -0.92864,-5.47948 -0.510751,-1.42928 -1.046532,-2.71658 -1.190625,-2.86067 -0.363869,-0.36387 -0.370746,-0.39335 0.735134,3.15114 0.89834,2.87929 0.982536,3.40294 0.904006,5.62239 -0.123791,3.4986 -0.623606,3.14639 -0.563199,-0.39687 z m -2.143446,-10.31875 c -0.470818,-0.83675 -1.319474,-2.1762 -1.885903,-2.97657 -5.109391,-7.21957 -6.343824,-9.90068 -6.966021,-15.12972 -0.379477,-3.18918 -0.241073,-6.26147 0.392482,-8.71233 0.524518,-2.02906 1.566165,-4.56155 2.38203,-5.79128 0.896529,-1.35131 3.40268,-3.96875 3.800006,-3.96875 0.144724,0 0.45593,-0.17448 0.691568,-0.38773 0.235639,-0.21325 1.137983,-0.74752 2.005209,-1.18727 0.867226,-0.43975 1.384411,-0.80105 1.149302,-0.8029 -0.23511,-0.002 -1.306673,0.43322 -2.38125,0.9668 -2.816977,1.39878 -5.060059,3.74867 -6.664807,6.98218 -1.618463,3.26114 -2.123506,5.70316 -2.103635,10.17163 0.01747,3.92852 0.623539,6.50366 2.428211,10.31729 1.209286,2.55547 7.427661,12.04 7.893821,12.04 0.06326,0 -0.270194,-0.68461 -0.741013,-1.52135 z m 7.64653,-5.07281 c 0.250923,-0.13429 0.916413,-0.66568 1.478867,-1.18087 0.562451,-0.51519 1.141631,-0.86317 1.287051,-0.77329 0.15422,0.0953 0.18129,0.0289 0.065,-0.15928 -0.14988,-0.2425 -0.32443,-0.20959 -0.70234,0.13241 -0.276597,0.25032 -0.502902,0.33219 -0.502902,0.18193 0,-0.47458 0.769852,-0.93512 1.321872,-0.79077 0.29398,0.0769 0.46273,0.0285 0.3781,-0.10845 -0.0841,-0.13602 0.11022,-0.46031 0.43173,-0.72066 0.46761,-0.37865 0.52983,-0.57568 0.31097,-0.9848 -0.23396,-0.43734 -0.18074,-0.51701 0.3674,-0.54995 0.84758,-0.0509 1.48635,-0.60607 1.28903,-1.12029 -0.0871,-0.22691 -0.0751,-0.32932 0.0267,-0.22758 0.19282,0.19283 1.47811,-2.07068 1.50391,-2.64851 0.008,-0.1819 0.0949,-0.33073 0.1929,-0.33073 0.33784,0 0.85128,-2.04242 0.67223,-2.67411 -0.13155,-0.46411 -0.10905,-0.53089 0.0843,-0.25011 0.92905,1.34944 0.82208,-6.70492 -0.12801,-9.6382 -0.51528,-1.59088 -1.68426,-3.84175 -1.9952,-3.84175 -0.12239,0 -0.22253,-0.14231 -0.22253,-0.31625 0,-0.51196 -1.35185,-1.7727 -1.74078,-1.62346 -0.1964,0.0754 -0.7177,-0.11973 -1.15844,-0.43356 -0.44073,-0.31383 -0.92642,-0.49329 -1.07931,-0.3988 -0.152891,0.0945 -0.44564,0.0327 -0.650556,-0.13741 -0.204916,-0.17007 -0.586654,-0.26418 -0.848306,-0.20913 -0.275582,0.058 -0.610931,-0.12763 -0.797085,-0.44117 -0.176744,-0.29769 -0.325572,-0.39243 -0.330729,-0.21053 -0.0058,0.20506 -0.392318,0.33073 -1.017139,0.33073 -0.55427,0 -1.238879,0.17481 -1.521354,0.38846 -0.282475,0.21365 -0.740477,0.39225 -1.017783,0.39688 -0.277306,0.005 -0.89444,0.30607 -1.371409,0.66987 -0.476969,0.3638 -0.942839,0.66146 -1.035266,0.66146 -0.306412,0 -2.513091,2.44139 -2.513091,2.78039 0,0.18309 -0.2488,0.39795 -0.552889,0.47747 -0.410204,0.10727 -0.509773,0.28044 -0.385818,0.67098 0.120138,0.37852 0.02295,0.57214 -0.345976,0.68923 -0.339173,0.10765 -0.469611,0.32893 -0.384881,0.65294 0.07049,0.26955 -0.0013,0.57009 -0.159469,0.66787 -0.158199,0.0978 -0.287634,0.39894 -0.287634,0.66927 0,0.27032 -0.125649,0.53338 -0.27922,0.58457 -0.474856,0.15829 -0.847136,5.439 -0.490741,6.96107 0.170551,0.72838 0.415119,1.45747 0.543483,1.62019 0.128365,0.16272 0.212345,0.85224 0.186624,1.53225 -0.0378,0.99925 0.06304,1.31331 0.525711,1.63738 0.314862,0.22054 0.572477,0.63235 0.572477,0.91514 0,0.28279 0.09894,0.51416 0.219874,0.51416 0.120931,0 0.37121,0.28278 0.556176,0.62839 0.251635,0.47019 0.262711,0.76589 0.04399,1.17457 -0.192639,0.35995 -0.201848,0.60209 -0.02701,0.71014 0.238551,0.14744 0.379982,-0.19927 0.296631,-0.72716 -0.0982,-0.62194 1.855285,0.9371 2.155951,1.72062 0.08862,0.23094 0.763829,0.81446 1.500464,1.2967 0.736635,0.48224 1.339336,0.97504 1.339336,1.0951 0,0.12006 0.124278,0.14148 0.276174,0.0476 0.151895,-0.0939 0.468913,-0.0116 0.704485,0.18282 0.357948,0.29543 0.448238,0.29426 0.549604,-0.007 0.09829,-0.29227 0.161569,-0.2955 0.333683,-0.017 0.17401,0.28155 0.287751,0.28111 0.62943,-0.002 0.229373,-0.19036 0.431924,-0.27201 0.450114,-0.18143 0.01819,0.0906 0.06284,0.28375 0.09922,0.42927 0.03638,0.14553 0.08103,0.32412 0.09922,0.39688 0.05209,0.20837 0.554612,0.15499 1.05325,-0.11187 z m 0.30274,15.52912 c 0,-2.28279 0.125287,-3.07331 0.846956,-5.34401 0.574404,-1.80733 1.191692,-3.13221 1.918232,-4.11705 4.25311,-5.76523 7.53314,-11.64421 8.78496,-15.74577 0.64552,-2.11503 0.72823,-2.81017 0.73987,-6.21771 0.008,-2.34185 -0.13112,-4.50646 -0.35711,-5.55625 -1.13115,-5.25471 -4.33988,-10.07376 -8.13286,-12.21438 -0.78034,-0.4404 -1.4188,-0.84814 -1.4188,-0.90609 0,-0.23619 1.06705,0.0793 1.50957,0.44635 0.26114,0.2166 0.79654,0.55458 1.18976,0.75107 0.39323,0.1965 0.69089,0.47974 0.66146,0.62944 -0.0294,0.14969 0.24416,0.28145 0.60796,0.29278 0.77609,0.0242 2.45507,1.43099 2.27328,1.90474 -0.0688,0.17938 0.0761,0.48368 0.32214,0.67622 0.40195,0.31459 0.41048,0.30315 0.0842,-0.11295 -0.41526,-0.52949 -0.32748,-0.5616 0.58598,-0.2143 0.42287,0.16077 0.71705,0.53499 0.832,1.05833 0.0978,0.44529 0.28742,0.80962 0.42138,0.80962 0.13396,0 0.24356,0.18562 0.24356,0.41249 0,0.22687 0.11906,0.33891 0.26458,0.24897 0.14553,-0.0899 0.26459,0.0221 0.26459,0.24897 0,0.22687 0.10462,0.41249 0.23248,0.41249 0.44617,0 1.95949,4.78756 1.71484,5.42511 -0.0911,0.23728 -0.0388,0.69128 0.11616,1.00888 0.50158,1.02816 0.64389,2.3491 0.73921,6.86132 0.0796,3.7697 0.0354,4.43177 -0.2962,4.43177 -0.29624,0 -0.38983,0.3502 -0.38983,1.4588 0,0.80234 -0.11363,1.66554 -0.25252,1.91823 -0.13889,0.25269 -0.48938,1.02498 -0.77887,1.7162 -0.28949,0.69122 -0.65211,1.25677 -0.80581,1.25677 -0.1537,0 -0.27946,0.4108 -0.27946,0.9129 0,0.50209 -0.15814,1.0081 -0.35142,1.12447 -0.19328,0.11638 -0.58024,0.62495 -0.8599,1.13016 -0.27966,0.50521 -0.76622,1.20743 -1.08125,1.56049 -0.31503,0.35306 -0.7796,1.10057 -1.03237,1.66112 -0.25278,0.56056 -0.56058,1.01919 -0.684,1.01919 -0.12342,0 -0.2244,0.24232 -0.2244,0.53848 0,0.29616 -0.18271,0.81733 -0.40603,1.15816 -0.22332,0.34083 -0.51428,0.96172 -0.64658,1.37976 -0.49423,1.56163 -0.95708,2.63463 -1.46045,3.38571 -0.36358,0.54251 -0.42334,0.80528 -0.20004,0.87971 0.21838,0.0728 0.1439,0.34217 -0.23711,0.85751 -0.30553,0.41326 -0.55551,1.05696 -0.55551,1.43045 0,0.37349 -0.16372,0.81495 -0.36381,0.98101 -0.20009,0.16606 -0.3638,0.41435 -0.3638,0.55177 0,0.13741 -0.31426,0.66185 -0.69835,1.16543 -0.7736,1.01424 -0.66313,1.52212 0.16756,0.77036 0.51512,-0.46618 0.53079,-0.46416 0.53079,0.0684 0,0.4935 -0.15991,0.54955 -1.5875,0.55638 l -1.587498,0.008 z M 59.322329,110.88811 59.253886,106.153 h 3.068335 3.068334 l -0.378422,0.7276 c -0.208132,0.40019 -0.627908,1.01372 -0.932836,1.3634 -0.304928,0.34969 -0.554414,0.79618 -0.554414,0.99219 0,0.19602 -0.110342,0.35639 -0.245205,0.35639 -0.134862,0 -0.416278,0.32743 -0.625367,0.72761 -0.767065,1.46811 -1.126652,2.0759 -1.709116,2.88884 -0.327421,0.45697 -0.595312,0.91277 -0.595312,1.01287 0,0.10011 -0.2158,0.45636 -0.479556,0.79167 -0.468456,0.59554 -0.481139,0.50006 -0.547998,-4.12546 z"
         id="path332" /><path
         style="fill:#9aa5ad"
         d="m 92.682921,169.18998 c 0.106673,-2.35216 0.03913,-2.83639 -0.765768,-5.4901 -0.61874,-2.03996 -1.2126,-3.38522 -1.985595,-4.49792 -5.032984,-7.24484 -6.646149,-9.9337 -7.848241,-13.08166 -1.36564,-3.57625 -1.715336,-5.75492 -1.548655,-9.64842 0.156788,-3.66244 0.56365,-5.62099 1.707793,-8.22096 3.772308,-8.57226 12.559575,-11.83994 19.914205,-7.40539 2.61837,1.57878 4.38074,3.68343 5.97651,7.13726 2.25691,4.8848 2.54494,11.47492 0.73237,16.75666 -1.2648,3.68556 -4.05854,8.51346 -8.11534,14.02423 -0.911162,1.23773 -1.475901,2.43189 -2.187361,4.62527 -0.867296,2.6738 -0.955558,3.21629 -0.922288,5.66874 l 0.03679,2.71198 h -1.99498 -1.99498 l -0.0013,-2.97656 c -0.0012,-2.72701 -0.0759,-3.17691 -0.891181,-5.3662 -1.012669,-2.71933 -2.062035,-4.6938 -3.986398,-7.50076 -4.444871,-6.48347 -5.250603,-7.92397 -6.395776,-11.43446 -0.674565,-2.06786 -0.726299,-2.54633 -0.740993,-6.85327 -0.01483,-4.34558 0.02957,-4.77659 0.722318,-7.01146 0.405964,-1.30969 1.197126,-3.15516 1.758137,-4.10104 0.962396,-1.62264 3.552251,-4.49792 4.051411,-4.49792 0.125979,0 0.75802,-0.36394 1.404537,-0.80875 0.646516,-0.44482 1.620468,-0.97221 2.164338,-1.17199 0.543869,-0.19977 0.782903,-0.37161 0.531187,-0.38187 -0.747711,-0.0305 -2.614939,0.79891 -4.20939,1.86969 -2.105949,1.41428 -3.771651,3.41869 -5.136918,6.18146 -1.581113,3.19957 -2.049705,5.48184 -2.037139,9.92188 0.01189,4.20248 0.621155,6.74859 2.565191,10.71994 1.062817,2.17116 4.283598,7.20559 6.779452,10.59702 0.700985,0.95251 1.282098,2.29367 2.006229,4.63021 0.926817,2.99053 1.011695,3.51158 0.934485,5.73668 -0.05123,1.4764 -0.194968,2.4474 -0.362289,2.4474 -0.182466,0 -0.237337,-0.88263 -0.160374,-2.57969 z m 0.795202,-15.59434 c 0.598798,-0.5419 3.031347,-0.50175 3.657183,0.0604 0.349158,0.31361 0.623965,0.22565 1.986464,-0.63584 1.66688,-1.05394 3.91995,-3.37407 3.66972,-3.77895 -0.0812,-0.13136 -0.009,-0.20611 0.16093,-0.16613 0.44275,0.10433 2.50336,-3.78901 3.32237,-6.2773 1.22113,-3.71001 0.9179,-9.21576 -0.70465,-12.79421 -0.8495,-1.87353 -2.52268,-4.09965 -2.90415,-3.86389 -0.13271,0.082 -0.17599,-0.0211 -0.0962,-0.22904 0.0955,-0.2489 -0.33511,-0.68237 -1.2598,-1.26812 -2.107442,-1.33496 -2.926202,-1.62699 -4.40312,-1.57045 -0.512297,0.0196 -0.814793,-0.0743 -0.722193,-0.22407 0.09381,-0.15179 -0.276669,-0.25181 -0.900773,-0.24319 -0.583063,0.008 -1.000488,0.1111 -0.927611,0.22902 0.239393,0.38735 -0.983059,0.59754 -1.248462,0.21466 -0.179487,-0.25893 -0.207209,-0.20886 -0.09942,0.17957 0.108742,0.39189 0.02336,0.54094 -0.313398,0.54713 -0.25457,0.005 -0.745656,0.10248 -1.091302,0.21733 -0.435162,0.1446 -0.572765,0.11874 -0.447405,-0.0841 0.603389,-0.9763 -2.119406,0.7571 -3.676702,2.34068 -0.722134,0.73433 -1.223511,1.33514 -1.114172,1.33514 0.109339,0 -0.03884,0.25507 -0.329279,0.56682 -0.290443,0.31176 -0.902625,1.59168 -1.360405,2.84428 -0.68269,1.868 -0.8388,2.70555 -0.868332,4.65869 -0.0198,1.30969 0.06319,2.61938 0.184431,2.91042 0.181102,0.43474 0.165208,0.45835 -0.08907,0.13229 -0.242057,-0.31038 -0.281291,-0.0221 -0.180032,1.32292 0.142591,1.894 1.011843,4.89583 1.32657,4.58111 0.109644,-0.10965 0.120791,0.005 0.02477,0.2556 -0.100296,0.26137 -0.04996,0.45495 0.118308,0.45495 0.16109,0 0.278791,0.0893 0.261559,0.19844 -0.08163,0.51695 0.06373,0.68919 0.28558,0.33839 0.135381,-0.21406 0.329118,-0.30624 0.430527,-0.20483 0.10141,0.10141 0.02624,0.37493 -0.167038,0.60782 -0.222332,0.26789 -0.254961,0.48892 -0.08883,0.6017 0.144425,0.0981 0.407188,0.53646 0.583917,0.97424 0.17673,0.43778 0.73397,1.24639 1.238313,1.79691 0.504343,0.55052 1.046727,1.24337 1.205298,1.53966 0.162696,0.304 0.451003,0.47629 0.661721,0.39543 0.205375,-0.0788 0.345072,-0.009 0.310438,0.15421 -0.05043,0.23827 2.534233,2.26044 2.958902,2.31497 0.0613,0.008 0.333698,-0.18681 0.605325,-0.43263 z m 4.995089,15.46205 c 0.02047,-2.37978 0.142008,-3.06848 0.992188,-5.6224 0.532871,-1.60073 1.11173,-2.91041 1.28636,-2.91041 0.17462,0 0.46632,-0.14883 0.64823,-0.33073 0.26458,-0.26459 0.254,-0.33154 -0.0529,-0.33478 -0.22751,-0.002 -0.27596,-0.0832 -0.11906,-0.19844 0.14552,-0.10691 0.38364,-0.39825 0.52916,-0.64741 0.73763,-1.26299 3.57538,-5.25472 3.59825,-5.0615 0.0145,0.12257 0.1217,-0.0748 0.23821,-0.4386 0.19798,-0.6182 0.21356,-0.62341 0.23821,-0.0798 0.0145,0.31992 -0.28574,0.91524 -0.66722,1.32292 -1.22679,1.31105 -1.52236,1.8903 -1.17694,2.3065 0.21118,0.25446 0.22107,0.42617 0.0313,0.54346 -0.15259,0.0943 -0.27743,-0.0142 -0.27743,-0.24103 0,-0.55234 -0.33349,-0.522 -0.69921,0.0636 -0.22939,0.36731 -0.20615,0.59402 0.10171,0.99218 0.38798,0.50177 0.39514,0.49956 0.25836,-0.0796 -0.0774,-0.32762 -0.0327,-0.52896 0.0992,-0.44741 0.31125,0.19236 0.30915,0.83677 -0.003,1.0299 -0.13379,0.0827 -0.40507,-0.0115 -0.60284,-0.20925 -0.30307,-0.30306 -0.41943,-0.29552 -0.74027,0.0479 -0.33412,0.35767 -0.32511,0.38619 0.0737,0.23316 0.59047,-0.22658 0.56687,0.047 -0.0748,0.86738 -0.28457,0.3638 -0.52005,0.784 -0.52329,0.93378 -0.003,0.14977 -0.244,0.44395 -0.53505,0.65372 -0.52541,0.37869 -0.77126,1.23919 -0.26458,0.92604 0.33209,-0.20524 0.3508,0.7311 0.0214,1.07156 -0.59374,0.61371 -1.279813,6.84335 -0.78719,7.14781 0.40136,0.24805 -0.401154,1.17334 -1.017655,1.17334 -0.583331,0 -0.597248,-0.0657 -0.574483,-2.71198 z"
         id="path331" /><path
         style="fill:#4f9aa3"
         d="m 92.949432,169.29311 c -0.08221,-3.84366 -1.405387,-7.97332 -3.487613,-10.8849 -7.336243,-10.25829 -9.336757,-15.26639 -8.911853,-22.31002 0.217431,-3.60437 0.728707,-5.72734 2.025595,-8.4109 1.925572,-3.98445 4.944925,-6.85583 8.449567,-8.03548 5.877982,-1.97851 11.826242,0.15708 15.505912,5.56706 2.49511,3.66839 3.41635,7.0507 3.38271,12.41955 -0.019,3.02652 -0.12602,3.91813 -0.70119,5.83974 -1.28719,4.30038 -3.47192,8.29748 -7.7526,14.18385 -1.696909,2.33342 -2.088268,3.09366 -2.928361,5.68854 -0.896679,2.76965 -0.964489,3.20156 -0.900645,5.7365 0.05398,2.14332 -0.0054,2.71653 -0.272151,2.62761 -0.240924,-0.0803 -0.330774,-0.6721 -0.305741,-2.01374 l 0.03545,-1.9 -0.84067,0.0168 c -0.83378,0.0166 -0.835249,0.019 -0.179211,0.29476 0.363802,0.1529 0.536344,0.32596 0.383426,0.38459 -0.175444,0.0673 -0.218816,0.64457 -0.117546,1.56462 0.08827,0.80192 0.104242,1.51428 0.0355,1.58302 -0.06874,0.0687 -0.702467,0.12499 -1.408274,0.12499 h -1.283284 l 0.120664,-2.71198 c 0.115008,-2.58483 0.07665,-2.83602 -0.818074,-5.35781 -0.516307,-1.45521 -1.163909,-3.03279 -1.439116,-3.50573 -0.275208,-0.47295 -0.758532,-1.30638 -1.074055,-1.85209 l -0.573677,-0.99218 0.88964,0.79375 0.88964,0.79375 -0.755436,-0.92605 c -0.41549,-0.50932 -0.885095,-0.88635 -1.043567,-0.83784 -0.158472,0.0485 -0.202351,0.002 -0.09751,-0.10243 0.224901,-0.2249 -0.701215,-1.64643 -1.488304,-2.28445 -0.497509,-0.40329 -0.507395,-0.46332 -0.101924,-0.61892 0.247048,-0.0948 0.719046,0.0168 1.049332,0.24817 0.720086,0.50437 1.105471,0.54388 0.875436,0.0897 -0.09214,-0.18191 0.0019,-0.12422 0.208984,0.12817 0.207081,0.2524 0.454035,0.38139 0.548787,0.28664 0.09475,-0.0948 0.172277,-0.0135 0.172277,0.1805 0,0.19403 0.06628,0.2865 0.147284,0.20549 0.224004,-0.224 2.498549,1.93796 2.498549,2.37488 0,0.21028 -0.369779,0.72775 -0.821731,1.14993 -0.451952,0.42219 -0.700661,0.76761 -0.552687,0.76761 0.147975,0 0.54752,-0.32939 0.887877,-0.73199 0.466058,-0.55128 0.85338,-0.73091 1.568895,-0.7276 0.792238,0.004 0.928986,-0.0762 0.823188,-0.481 -0.09872,-0.37768 -0.176539,-0.40704 -0.350698,-0.13229 -0.174672,0.27555 -0.224714,0.25763 -0.227876,-0.0816 -0.0022,-0.23909 -0.182645,-0.50325 -0.400926,-0.58701 -0.218282,-0.0838 -0.396875,-0.28967 -0.396875,-0.45758 0,-0.22851 0.09388,-0.22737 0.373319,0.005 0.229747,0.19067 0.43389,0.21182 0.530815,0.055 0.08662,-0.14016 0.0079,-0.31513 -0.174882,-0.38883 -0.237898,-0.0959 -0.242805,-0.13994 -0.01726,-0.15489 0.493127,-0.0327 0.71915,0.54183 0.314095,0.79839 -0.200544,0.12702 -0.245564,0.23095 -0.100043,0.23095 0.703815,0 1.406527,-1.1764 0.845032,-1.41466 -0.214242,-0.0909 -0.166898,-0.22832 0.147156,-0.42711 0.850038,-0.53807 0.496315,-0.81097 -0.888081,-0.68516 -0.743105,0.0675 -1.568937,0.31992 -1.835182,0.56087 -0.453418,0.41034 -0.573003,0.39037 -1.887921,-0.31523 -1.383491,-0.7424 -4.82328,-3.93349 -4.61321,-4.27968 0.05934,-0.0978 -0.177496,-0.39172 -0.526304,-0.65318 -0.90623,-0.67928 -0.783174,-0.18338 0.289276,1.16575 0.649419,0.81695 0.924235,1.4326 0.926041,2.07452 0.002,0.70997 0.07312,0.84226 0.320068,0.59531 0.174625,-0.17462 0.435507,-0.3175 0.579737,-0.3175 0.14423,0 0.03112,0.16951 -0.251354,0.37668 -0.447758,0.3284 -0.572941,0.32314 -0.976612,-0.041 -0.254661,-0.22973 -0.463021,-0.55931 -0.463021,-0.7324 0,-0.1731 -0.290876,-0.65323 -0.646392,-1.06697 -0.355516,-0.41374 -0.586614,-0.84898 -0.513552,-0.9672 0.07306,-0.11822 -0.0015,-0.21494 -0.165765,-0.21494 -0.349185,0 -2.716283,-4.90972 -3.153793,-6.54145 -0.472892,-1.76368 -0.681686,-4.18151 -0.657493,-7.61376 0.01965,-2.78741 0.124078,-3.49799 0.855476,-5.82083 1.448489,-4.60025 3.613994,-7.52192 6.567873,-8.86127 0.925318,-0.41956 1.682396,-0.87548 1.682396,-1.01315 0,-0.13768 0.267891,-0.33507 0.595313,-0.43864 0.327422,-0.10358 1.131093,-0.35735 1.785937,-0.56392 l 1.190625,-0.3756 -1.407721,0.14777 c -3.399202,0.35683 -6.999409,2.93811 -9.214888,6.60689 -2.093089,3.46611 -2.863928,6.62513 -2.84071,11.64167 0.01492,3.22364 0.10856,4.00541 0.721844,6.02632 0.387585,1.27718 1.226675,3.36077 1.864644,4.6302 1.127872,2.24425 4.416357,7.40987 6.592318,10.35536 0.774559,1.04848 1.359744,2.34405 2.093123,4.63406 0.948526,2.96182 1.012175,3.35974 0.932882,5.83201 l -0.0851,2.6533 z M 93.290507,153.778 c 0.223177,-0.36111 3.394264,-0.33636 3.759968,0.0293 0.431647,0.43165 2.801026,-0.93294 4.352565,-2.50676 2.647,-2.68501 4.95197,-7.28237 5.53546,-11.04071 0.54802,-3.52986 -0.0784,-7.79059 -1.58392,-10.77295 -2.39762,-4.74967 -6.356251,-7.22892 -10.93119,-6.8461 -7.841343,0.65613 -12.858616,10.20731 -10.39038,19.77975 1.055391,4.09307 3.964282,8.45343 6.992241,10.48121 1.81445,1.21511 2.009243,1.29046 2.265256,0.87622 z"
         id="path330" /><path
         style="fill:#324144"
         d="m 97.126965,169.67809 v -2.09158 l -1.5875,0.14395 -1.5875,0.14395 v -0.80845 c 0,-0.78071 0.04049,-0.80844 1.180215,-0.80844 0.649118,0 1.29385,-0.0702 1.432737,-0.15607 0.318424,-0.1968 1.495144,-3.29939 1.914332,-5.04741 0.317697,-1.3248 1.850431,-3.43577 2.240721,-3.08605 0.1078,0.0966 0.12161,0.045 0.0307,-0.1146 -0.0909,-0.15964 0.19254,-0.63308 0.6299,-1.0521 1.18359,-1.13395 2.0788,-2.85592 1.77082,-3.40625 -0.3609,-0.6449 -0.0219,-1.70175 0.87277,-2.72071 0.79759,-0.9084 0.9757,-1.39425 0.51114,-1.39425 -0.14552,0 -0.26459,0.11471 -0.26459,0.25491 0,0.48285 -3.29069,3.77159 -4.620658,4.6179 -1.87463,1.19292 -2.136758,1.25651 -2.684453,0.65132 -0.287089,-0.31723 -0.742807,-0.49759 -1.149497,-0.45493 -0.370606,0.0389 -0.835898,-0.0295 -1.033981,-0.1519 -0.198084,-0.12243 -0.436137,-0.11804 -0.529008,0.01 -0.09287,0.12778 -0.430246,0.45326 -0.749722,0.72328 -0.572366,0.48377 -0.603892,0.47697 -2.154596,-0.46503 -1.957837,-1.18933 -3.296258,-2.52782 -4.325177,-4.3254 -0.437298,-0.76399 -0.897399,-1.32584 -1.022447,-1.24855 -0.187365,0.11579 -1.365719,-2.10889 -2.38678,-4.50614 -0.983971,-2.31017 -1.643879,-8.26761 -1.001539,-9.04158 0.148683,-0.17915 0.191872,-0.57294 0.09598,-0.87508 -0.0959,-0.30214 0.01945,-1.32215 0.256331,-2.26667 0.738386,-2.94424 2.507185,-6.16641 4.336237,-7.89919 0.71887,-0.68104 0.864085,-0.72595 1.283191,-0.39688 0.428926,0.33679 0.439545,0.3289 0.114934,-0.0854 -0.315412,-0.40252 -0.26854,-0.49563 0.396875,-0.78836 0.41499,-0.18257 0.827371,-0.43383 0.916401,-0.55836 0.08903,-0.12453 0.208092,-0.20857 0.264583,-0.18675 0.05649,0.0218 0.281304,-0.0237 0.499585,-0.10117 0.942368,-0.33445 4.124066,-1.10935 4.365625,-1.06325 0.832364,0.15887 1.43059,0.46656 1.304326,0.67086 -0.07971,0.12897 0.09606,0.2345 0.390604,0.2345 0.777309,0 2.880802,0.75527 3.974796,1.42718 0.51967,0.31916 1.12345,0.5678 1.34173,0.55252 0.55043,-0.0385 1.07011,0.39807 1.34998,1.1342 0.14424,0.37937 0.3575,0.54734 0.54657,0.43049 0.20673,-0.12777 0.25547,-0.0494 0.14626,0.23519 -0.11491,0.29946 -0.0496,0.38298 0.21898,0.27993 0.27897,-0.10705 0.36776,0.0344 0.32743,0.5216 -0.0732,0.88448 0.57128,2.05316 1.08556,1.96851 0.2507,-0.0413 0.46368,0.18879 0.55004,0.59413 0.0775,0.3638 0.33492,1.01865 0.57202,1.45521 0.53638,0.98762 0.70227,1.77234 0.99279,4.69635 0.42312,4.25867 -0.46642,8.7039 -2.45302,12.25832 -0.35944,0.64311 -0.541,1.16929 -0.40346,1.16929 0.13754,0 0.72595,-0.97383 1.30759,-2.16406 1.27271,-2.60441 1.33782,-2.68355 1.13077,-1.37445 -0.0892,0.56373 -0.2634,1.0649 -0.38721,1.11371 -0.1238,0.0488 -0.16562,0.18499 -0.0929,0.30262 0.20691,0.33477 -0.62708,2.12171 -0.99233,2.12623 -0.23693,0.003 -0.22854,0.0666 0.0304,0.23064 0.27113,0.17182 0.12271,0.40573 -0.61399,0.96764 -1.09882,0.83811 -2.33099,3.01255 -2.00551,3.53918 0.50692,0.82023 4.43881,-6.7447 5.4921,-10.56678 0.66567,-2.41552 0.65099,-8.89555 -0.0261,-11.50494 -0.57016,-2.19743 -2.36333,-5.71647 -3.77877,-7.41575 -1.09028,-1.3089 -3.1875,-2.84786 -3.56391,-2.61522 -0.12693,0.0785 -0.30222,-0.0435 -0.38952,-0.27101 -0.1571,-0.40939 -1.16678,-0.59775 -1.15362,-0.21521 0.009,0.25565 1.8901,1.12448 2.43488,1.12448 0.93318,0 5.00425,5.46395 4.76309,6.39274 -0.025,0.0963 0.23673,1.00467 0.58162,2.01868 1.01381,2.98073 1.28143,6.00367 0.85069,9.60907 -0.20183,1.68934 -0.50885,3.29669 -0.68228,3.57188 -0.2856,0.4532 -0.30242,0.43802 -0.17844,-0.16112 0.94084,-4.54686 0.86122,-9.19673 -0.21576,-12.5987 -1.2122,-3.82916 -4.24191,-7.69351 -6.93782,-8.84912 -2.08967,-0.89574 -4.378206,-1.57093 -5.324593,-1.57093 -1.514428,0 -5.24509,1.28513 -6.76246,2.32951 -4.869236,3.35143 -7.456911,10.26426 -6.527221,17.43712 0.473202,3.65091 1.293018,5.62339 4.253523,10.23399 0.643631,1.00237 1.155356,1.98464 1.137166,2.18281 -0.07686,0.83741 -0.110831,0.91354 -0.343446,0.76978 -0.134325,-0.083 -0.325318,-0.52015 -0.424429,-0.9714 -0.09911,-0.45124 -0.585876,-1.26948 -1.0817,-1.8183 -1.008628,-1.11643 -2.479483,-4.14355 -3.085911,-6.35101 -0.644832,-2.34725 -1.072669,-6.4909 -0.891494,-8.6342 0.190953,-2.25897 0.979398,-5.55433 1.770482,-7.39985 1.076975,-2.51248 4.204063,-6.19095 5.262963,-6.19095 0.166921,0 0.983225,-0.34913 1.814008,-0.77584 0.830784,-0.42671 2.227556,-0.91312 3.103937,-1.08091 1.385108,-0.26518 1.885109,-0.23427 3.824592,0.23649 1.227145,0.29786 2.286121,0.48661 2.353281,0.41945 0.06716,-0.0672 -0.02382,-0.12211 -0.202187,-0.12211 -0.178362,0 -0.254402,-0.11309 -0.168978,-0.2513 0.475452,-0.7693 -3.577427,-1.47096 -6.135771,-1.06226 -4.52006,0.72208 -7.917497,3.45315 -10.449404,8.39986 -0.574797,1.123 -0.96045,1.74417 -0.857008,1.38037 0.565913,-1.99029 2.981482,-5.57613 4.710999,-6.99334 3.117926,-2.55491 6.914477,-3.66621 10.489405,-3.0704 2.581007,0.43016 3.740066,0.89668 5.765836,2.32075 3.81323,2.68061 6.32766,7.48026 6.959,13.28363 0.81925,7.53074 -1.46793,13.54664 -9.08988,23.90882 -0.996322,1.35452 -1.552715,2.50139 -2.246309,4.6302 -0.843419,2.58867 -0.917824,3.072 -0.873464,5.67399 0.03176,1.86303 -0.04856,2.84427 -0.232834,2.84427 -0.174985,0 -0.281324,-0.79061 -0.281324,-2.09158 z M 93.290507,153.778 c 0.230662,-0.37322 3.209763,-0.32997 3.827093,0.0556 0.44215,0.27612 0.762006,0.14974 2.326703,-0.91937 2.280947,-1.5585 3.987267,-3.62906 5.502287,-6.67681 1.72919,-3.4786 2.34588,-6.21197 2.14901,-9.525 -0.28905,-4.86417 -1.5619,-8.112 -4.24502,-10.8317 -4.485764,-4.54691 -10.668194,-4.54723 -15.151397,-7.7e-4 -2.713342,2.75162 -3.968323,5.99189 -4.246737,10.96476 -0.129937,2.32084 -0.0621,3.1483 0.412106,5.02708 1.190979,4.71856 4.056762,9.09482 7.305596,11.1562 1.725121,1.09458 1.87472,1.1475 2.120359,0.75005 z m 0.406184,11.65906 c -0.150641,-0.28147 -0.273892,-0.75772 -0.273892,-1.05833 0,-0.30061 -0.09373,-0.54656 -0.208279,-0.54656 -0.114554,0 -0.228323,-0.26789 -0.252821,-0.59531 -0.0245,-0.32743 -0.105802,-0.89297 -0.180675,-1.25678 -0.07487,-0.3638 0.104902,-0.1287 0.3995,0.52245 0.294598,0.65114 0.663475,1.26291 0.819726,1.35948 0.156251,0.0966 0.214545,0.28811 0.129543,0.42565 -0.085,0.13753 0.01011,0.25006 0.211359,0.25006 0.20125,0 0.422991,-0.21828 0.492758,-0.48507 0.07594,-0.29039 -0.01405,-0.48507 -0.224234,-0.48507 -0.193095,0 -0.435967,-0.38647 -0.539714,-0.85883 -0.286172,-1.30293 -0.951042,-2.54952 -1.406586,-2.63724 -0.313818,-0.0604 -0.22787,-0.2755 0.374502,-0.93708 0.676583,-0.74308 0.968086,-0.86425 2.166051,-0.90037 1.22837,-0.037 1.451836,0.0429 1.984374,0.7101 0.906799,1.13605 0.938278,1.38721 0.393288,3.13802 -1.215969,3.90635 -1.190656,3.86666 -2.465638,3.86666 -0.861604,0 -1.213227,-0.1268 -1.419262,-0.51178 z"
         id="path329" /></g></g></svg>
