<?xml version="1.0" encoding="UTF-8" standalone="no"?>
<!-- Created with Inkscape (http://www.inkscape.org/) -->

<svg
   width="50.812336mm"
   height="62.177223mm"
   viewBox="0 0 50.812336 62.177223"
   version="1.1"
   id="svg1"
   inkscape:export-filename="lunges.svg"
   inkscape:export-xdpi="96"
   inkscape:export-ydpi="96"
   xml:space="preserve"
   xmlns:inkscape="http://www.inkscape.org/namespaces/inkscape"
   xmlns:sodipodi="http://sodipodi.sourceforge.net/DTD/sodipodi-0.dtd"
   xmlns="http://www.w3.org/2000/svg"
   xmlns:svg="http://www.w3.org/2000/svg"><sodipodi:namedview
     id="namedview1"
     pagecolor="#ffffff"
     bordercolor="#000000"
     borderopacity="0.25"
     inkscape:showpageshadow="2"
     inkscape:pageopacity="0.0"
     inkscape:pagecheckerboard="0"
     inkscape:deskcolor="#d1d1d1"
     inkscape:document-units="mm"><inkscape:page
       x="0"
       y="0"
       width="50.812336"
       height="62.177223"
       id="page2"
       margin="0"
       bleed="0" /></sodipodi:namedview><defs
     id="defs1" /><g
     inkscape:label="Calque 1"
     inkscape:groupmode="layer"
     id="layer1"
     transform="translate(-83.820529,-121.06074)"><g
       id="g241"
       transform="translate(7.1036834,10.33263)"><path
         style="fill:#d4e7f5"
         d="m 76.729164,141.81667 v -31.08854 h 25.399996 25.4 v 31.08854 31.08854 h -25.4 -25.399996 z"
         id="path247" /><path
         style="fill:#c5dbeb"
         d="m 86.747562,172.49798 c 0.48965,-0.21259 1.025431,-0.39056 1.190625,-0.3955 0.165193,-0.005 0.776602,-0.23902 1.358685,-0.52019 0.582084,-0.28116 1.148928,-0.51525 1.259655,-0.52019 0.620304,-0.0277 11.868673,-5.49054 12.131023,-5.89155 0.26797,-0.40959 -0.46898,-3.38488 -1.42844,-5.76711 -0.75908,-1.88468 -0.98928,-2.22841 -1.448024,-2.16213 -0.300003,0.0433 -0.621723,-0.0446 -0.714933,-0.19541 -0.101443,-0.16414 -0.0046,-0.21096 0.241144,-0.11664 0.225839,0.0867 0.410617,0.0258 0.410617,-0.13533 0,-0.16109 -0.109325,-0.29289 -0.242944,-0.29289 -0.133619,0 -0.450807,-0.0798 -0.704862,-0.17725 -0.31493,-0.12085 -0.401041,-0.0788 -0.270608,0.13229 0.105221,0.17025 0.06522,0.30955 -0.08889,0.30955 -0.154109,0 -0.280198,-0.18233 -0.280198,-0.40518 0,-0.22285 -0.182997,-0.4754 -0.406661,-0.56123 -0.624801,-0.23976 -1.170248,-1.51239 -1.220778,-2.84831 -0.03987,-1.05404 -0.09862,-1.1665 -0.465863,-0.89176 -1.053378,0.78805 -1.844761,1.63166 -1.720007,1.83352 0.07514,0.12158 -0.0218,0.16027 -0.215437,0.086 -0.193635,-0.0743 -0.586772,0.0523 -0.873638,0.28132 -0.504799,0.40302 -0.5003,0.41066 0.139884,0.23755 0.755318,-0.20424 0.677135,-0.0662 -0.230367,0.4066 -0.404247,0.21063 -0.563307,0.22337 -0.447406,0.0358 0.268312,-0.43414 -0.07904,-0.35265 -0.868883,0.20382 -1.149434,0.80983 -3.908986,1.70448 -4.669055,1.51372 -0.374799,-0.0941 -0.815577,-0.46541 -0.979507,-0.8252 -0.16393,-0.35978 -0.398006,-0.65415 -0.520168,-0.65415 -0.30846,0 -0.278737,0.46294 0.04247,0.66145 0.145521,0.0899 0.264584,0.30107 0.264584,0.46919 0,0.17253 -0.199413,0.10625 -0.457849,-0.15218 -0.378967,-0.37897 -0.401759,-0.54767 -0.132292,-0.97915 0.391233,-0.62646 0.431851,-1.41915 0.06097,-1.18994 -0.145521,0.0899 -0.264583,0.0374 -0.264583,-0.11668 0,-0.15411 0.142875,-0.28019 0.3175,-0.28019 0.246944,0 0.246944,-0.0706 0,-0.3175 -0.174625,-0.17463 -0.309132,-0.50205 -0.298904,-0.72761 0.01318,-0.29066 0.08482,-0.25598 0.245987,0.11906 0.19212,0.44709 0.230275,0.39915 0.245987,-0.30909 0.01023,-0.46104 0.09087,-1.02658 0.179195,-1.25677 0.105387,-0.27463 0.01443,-0.41851 -0.264583,-0.41851 -0.270051,0 -0.418397,-0.21721 -0.406586,-0.59531 0.01513,-0.48428 0.05215,-0.51077 0.198501,-0.14198 0.11468,0.28897 0.304327,0.37643 0.523094,0.24122 0.273672,-0.16914 0.260261,-0.28092 -0.06621,-0.55187 -0.22517,-0.18687 -0.407576,-0.47402 -0.405348,-0.6381 0.0022,-0.16409 0.119468,-0.11974 0.260532,0.0985 0.185502,0.28704 0.257602,0.0491 0.260532,-0.8599 0.0023,-0.71182 0.126508,-1.25677 0.286465,-1.25677 0.162007,0 0.210808,0.22561 0.114462,0.52917 -0.09635,0.30356 -0.04755,0.52917 0.114462,0.52917 0.155327,0 0.282413,-0.2311 0.282413,-0.51356 0,-0.28245 0.119062,-0.58713 0.264583,-0.67707 0.145521,-0.0899 0.264583,-0.44423 0.264583,-0.78732 0,-0.34308 0.145048,-0.67214 0.322329,-0.73123 0.367234,-0.12241 0.441025,-2.19663 0.103639,-2.91322 -0.138144,-0.29341 -0.110711,-0.46302 0.07489,-0.46302 0.161089,0 0.293482,0.20836 0.294205,0.46302 0.001,0.3536 0.146972,0.28099 0.617666,-0.30726 0.338994,-0.42366 0.737711,-0.69528 0.886038,-0.60361 0.148327,0.0917 0.408093,-0.15702 0.577258,-0.55263 0.252312,-0.59008 0.247196,-0.64304 -0.02847,-0.29479 -0.184824,0.23348 -0.603478,0.5094 -0.930341,0.61314 -0.326863,0.10374 -0.594297,0.29966 -0.594297,0.43538 0,0.13571 -0.119063,0.24675 -0.264583,0.24675 -0.452098,0 -0.291346,-0.57618 0.305067,-1.09345 0.313308,-0.27173 0.450588,-0.49405 0.305067,-0.49405 -0.595625,0 -1.468537,1.08403 -1.537697,1.90959 -0.04002,0.47769 -0.08581,0.95783 -0.101765,1.06697 -0.01595,0.10914 -2.410256,0.19844 -5.320672,0.19844 h -5.291667 v -16.40417 -16.40416 h 25.399992 25.4 v 31.08854 31.08854 l -20.83593,-0.0104 c -18.508491,-0.009 -20.736491,-0.0535 -19.945664,-0.39687 z m 34.167018,-22.40665 c 0,-0.28746 0.12026,-0.42636 0.28239,-0.32616 0.1555,0.0961 0.3477,-0.0752 0.42774,-0.38126 0.0799,-0.30568 0.25051,-0.55578 0.37906,-0.55578 0.12855,0 0.23373,-0.47625 0.23373,-1.05834 0,-0.99953 0.0441,-1.05833 0.79375,-1.05833 0.74965,0 0.79375,-0.0588 0.79375,-1.05833 0,-0.99954 0.0441,-1.05834 0.79375,-1.05834 0.61322,0 0.79375,-0.11849 0.79375,-0.52102 0,-0.48591 -0.21843,-0.52603 -3.24115,-0.59531 -2.97217,-0.0681 -3.2377,-0.11506 -3.19969,-0.56554 0.026,-0.308 -0.0517,-0.39809 -0.20827,-0.24152 -0.15658,0.15657 -0.13243,0.5372 0.0647,1.02041 0.17295,0.42388 0.35023,1.12788 0.39395,1.56444 0.0858,0.85634 0.30051,2.32384 0.46462,3.175 0.0561,0.29104 0.11722,0.61846 0.13579,0.7276 0.0186,0.10915 0.23617,0.19844 0.48356,0.19844 0.34984,0 0.37923,0.0706 0.13229,0.3175 -0.43897,0.43897 -0.39758,0.91722 0.0794,0.91722 0.21828,0 0.39687,-0.2253 0.39687,-0.50068 z"
         id="path246" /><path
         style="fill:#b6d2e4"
         d="m 101.71376,171.78073 c 0.0998,-0.61846 0.35873,-2.30582 0.57549,-3.74967 0.21675,-1.44386 0.45181,-2.71857 0.52234,-2.8327 0.3871,-0.62634 -1.90819,-7.58746 -2.78813,-8.45582 -0.234061,-0.23098 -0.759252,-0.50371 -1.167092,-0.60607 -0.40784,-0.10236 -1.009786,-0.45437 -1.337657,-0.78224 -0.554628,-0.55463 -1.103476,-2.46045 -0.960972,-3.33688 0.06802,-0.41834 0.157473,-0.47114 -1.836908,1.08423 -2.817117,2.19701 -6.353551,3.85333 -7.573534,3.54714 -0.425088,-0.10669 -0.799734,-0.49275 -1.04286,-1.07464 -0.434427,-1.03973 -0.51331,-4.25074 -0.11054,-4.49966 0.147894,-0.0914 0.214936,-0.25351 0.148982,-0.36022 -0.06595,-0.10672 0.177505,-1.02123 0.541021,-2.03224 0.363516,-1.01102 0.686775,-1.95727 0.718354,-2.10279 0.03158,-0.14552 0.132555,-0.38456 0.224393,-0.53118 0.09184,-0.14663 0.247343,-0.74195 0.345569,-1.32292 0.322721,-1.90881 0.681525,-2.74627 1.254534,-2.92813 0.589085,-0.18697 0.922154,-0.41828 1.931359,-1.34127 0.341129,-0.31199 0.681898,-0.50559 0.757264,-0.43022 0.07537,0.0754 0.529689,-0.0947 1.009606,-0.37781 0.968335,-0.57133 1.504563,-0.45695 3.036376,0.64767 0.454046,0.32743 0.941104,0.59532 1.082351,0.59532 0.282403,0 0.359196,-1.29836 0.101718,-1.7198 -0.08891,-0.14552 -0.164796,-0.44123 -0.168642,-0.65713 -0.0038,-0.2159 -0.245118,-0.43123 -0.53616,-0.47851 -1.223252,-0.19872 -1.246037,-0.28819 -0.380369,-1.49361 0.510051,-0.71023 0.780596,-1.34601 0.682052,-1.60281 -0.0949,-0.24729 -0.05374,-0.3579 0.09822,-0.26398 0.413887,0.2558 0.30396,-0.65872 -0.131526,-1.09421 -0.33744,-0.33744 -0.34134,-0.4752 -0.02755,-0.97329 0.201041,-0.31911 0.454632,-0.87693 0.563535,-1.23959 0.177189,-0.59006 0.152268,-0.62142 -0.237033,-0.29833 -0.559048,0.46397 -0.566396,0.20083 -0.0099,-0.35564 0.361754,-0.36175 0.376042,-0.55187 0.09587,-1.27567 -0.181078,-0.46781 -0.580736,-1.07477 -0.888129,-1.34881 -0.537363,-0.47906 -0.538508,-0.49223 -0.02973,-0.34197 0.544847,0.16092 1.943174,-0.74438 1.631375,-1.05618 -0.08986,-0.0899 -0.347727,-0.0104 -0.573042,0.17661 -0.225314,0.18699 -0.48616,0.26349 -0.579658,0.16999 -0.292476,-0.29247 0.08388,-0.46094 1.272886,-0.56977 0.683911,-0.0626 1.282981,-0.28943 1.481522,-0.56095 0.183328,-0.25072 0.403797,-0.38538 0.489929,-0.29924 0.08613,0.0861 0.593376,-0.0415 1.127206,-0.28372 0.73667,-0.33419 1.75502,-0.44036 4.22505,-0.4405 2.96915,-1.7e-4 3.24385,0.0404 3.13362,0.46284 -0.0727,0.27875 0.0273,0.46302 0.2513,0.46302 0.20465,0 0.61023,0.23812 0.90127,0.52916 0.6194,0.6194 0.71631,0.64154 0.86866,0.19844 0.0626,-0.1819 0.0835,-0.12649 0.0466,0.12313 -0.0785,0.53069 0.7122,1.53052 1.21042,1.53052 0.18908,0 0.26545,0.0783 0.1697,0.17409 -0.0957,0.0957 -0.0415,0.33388 0.12059,0.52917 0.22898,0.2759 0.18234,0.35507 -0.20917,0.35507 -0.4781,0 -0.62128,0.38846 -0.68267,1.85208 -0.009,0.21828 -0.12323,0.46686 -0.25351,0.55239 -0.13028,0.0855 -0.2563,0.64268 -0.28004,1.2381 -0.024,0.60247 -0.15404,1.01407 -0.29316,0.92809 -0.13749,-0.085 -0.16655,-0.0195 -0.0646,0.14549 0.10197,0.165 0.0438,0.56466 -0.12935,0.88813 -0.234,0.43723 -0.23714,0.61401 -0.0122,0.68898 0.16639,0.0555 0.30253,0.20624 0.30253,0.33507 0,0.12882 -0.1786,0.1657 -0.39688,0.0819 -0.54898,-0.21066 -0.50794,0.49306 0.0661,1.13423 0.25466,0.28442 0.88878,0.77579 1.40917,1.09194 0.75627,0.45946 1.01919,0.50983 1.31015,0.25096 0.30593,-0.27217 0.30961,-0.25179 0.0231,0.12778 -0.30026,0.39777 -0.17253,0.55969 1.07109,1.35775 4.14172,2.65782 5.19305,4.70718 6.67279,13.00729 0.89615,5.02663 1.03017,5.87593 1.21082,7.67291 0.1973,1.96265 0.10637,2.53375 -0.30992,1.94648 -0.18154,-0.25611 -0.21387,-0.17612 -0.1128,0.27911 0.16205,0.72996 -0.22004,1.58402 -0.93592,2.092 -0.27038,0.19185 -0.42814,0.45152 -0.35057,0.57703 0.0776,0.12551 0.002,0.31435 -0.16875,0.41965 -0.19347,0.11957 -0.2389,0.0768 -0.12099,-0.11401 0.10391,-0.16812 0.0414,-0.30546 -0.13907,-0.30546 -0.18031,0 0.0508,-0.33805 0.51356,-0.75121 0.46277,-0.41316 0.8414,-0.85064 0.8414,-0.97216 0,-0.12153 -0.26789,0.0138 -0.59531,0.30074 -1.04356,0.91451 -1.63761,1.31476 -1.42424,0.9596 0.11251,-0.18726 0.068,-0.33072 -0.10252,-0.33072 -0.31482,0 -0.2364,0.70049 0.32096,2.86707 l 0.29515,1.14728 0.35678,-0.84854 c 0.19623,-0.4667 0.71367,-1.25501 1.14986,-1.7518 0.43619,-0.49679 0.79307,-1.0727 0.79307,-1.27979 0,-0.20709 0.48827,-0.88756 1.08504,-1.51215 0.59677,-0.62459 1.40044,-1.79255 1.78593,-2.59546 0.51077,-1.06383 0.82651,-1.43539 1.16393,-1.36967 0.34705,0.0676 0.46302,0.35041 0.46302,1.12912 0,0.93181 0.0682,1.03894 0.66146,1.03894 h 0.66145 v 5.68854 5.68854 h -12.9984 -12.99839 z m -24.976181,-52.12292 -0.0084,-8.92968 17.793229,0.008 17.793232,0.008 -2.24896,1.18621 c -1.23692,0.65241 -2.57638,1.31528 -2.97657,1.47303 -0.40018,0.15775 -0.72759,0.39423 -0.72759,0.52552 0,0.13128 -0.18021,0.2387 -0.40047,0.2387 -0.40462,0 -1.25213,0.41113 -1.98078,0.96089 -0.21828,0.16469 -0.69453,0.3891 -1.05834,0.49868 -0.3638,0.10959 -0.72099,0.28421 -0.79375,0.38805 -0.22019,0.31425 -3.608996,2.38571 -3.902889,2.38571 -0.150607,0 -0.342363,0.1786 -0.426126,0.39688 -0.08376,0.21828 -0.288924,0.39687 -0.455915,0.39687 -0.16699,0 -1.03393,0.56576 -1.926533,1.25725 -0.892602,0.69148 -1.931336,1.41581 -2.308296,1.60961 -0.376961,0.1938 -1.091336,0.69933 -1.5875,1.12339 -0.496165,0.42405 -1.042838,0.77129 -1.21483,0.77163 -0.171992,3.4e-4 -0.567052,0.35781 -0.877912,0.79437 -0.31086,0.43657 -0.722948,0.79375 -0.915751,0.79375 -0.192803,0 -0.419084,0.1786 -0.502846,0.39688 -0.08376,0.21828 -0.391889,0.39687 -0.684725,0.39687 -0.341268,0 -0.58962,0.22787 -0.691717,0.63465 -0.108854,0.43371 -0.386647,0.66802 -0.877376,0.74005 -0.654387,0.096 -0.708454,0.0397 -0.609474,-0.63465 0.103913,-0.70801 0.06149,-0.74005 -0.979748,-0.74005 -1.030033,0 -1.088363,-0.042 -1.088363,-0.78444 0,-0.51365 -0.182669,-0.8822 -0.529167,-1.06764 -0.715834,-0.3831 -0.674762,-1.05323 0.06615,-1.07922 0.327422,-0.0115 0.446485,-0.0809 0.264584,-0.15434 -0.181902,-0.0734 -0.33073,-0.25787 -0.33073,-0.40993 0,-0.15207 1.777805,-2.04714 3.950676,-4.21129 2.172872,-2.16414 3.839883,-3.9348 3.70447,-3.9348 -0.135414,0 -0.73695,0.47625 -1.336747,1.05833 -0.599797,0.58208 -1.124495,1.05833 -1.165995,1.05833 -0.274254,0 -6.052461,6.04086 -7.33287,7.66619 -0.862707,1.09511 -1.737059,2.08632 -1.943004,2.20269 -0.205946,0.11637 -0.374446,0.38426 -0.374446,0.59531 0,0.21105 -0.135703,0.38373 -0.301561,0.38373 -0.165858,0 -0.459728,0.20836 -0.653044,0.46302 -0.294508,0.38797 -0.352847,-0.98447 -0.359897,-8.46667 z m 20.83328,0.71166 c -0.320962,-0.51933 0.544033,-1.22576 1.535293,-1.25386 0.540183,-0.0153 0.846031,-0.0732 0.679664,-0.12867 -0.166367,-0.0555 -0.302486,-0.22271 -0.302486,-0.37167 0,-0.14896 0.183101,-0.20058 0.406891,-0.1147 0.231529,0.0888 0.471789,-0.013 0.557479,-0.23628 0.0828,-0.21583 0.37597,-0.39241 0.65144,-0.39241 0.31202,0 0.50086,-0.18567 0.50086,-0.49245 0,-0.35397 0.41583,-0.65158 1.47875,-1.05833 0.81331,-0.31124 1.61829,-0.56589 1.78884,-0.56589 0.17055,0 0.60513,-0.35719 0.96574,-0.79375 0.36061,-0.43656 0.81944,-0.79375 1.01962,-0.79375 0.35471,0 2.94995,-1.2971 3.21371,-1.60621 0.27574,-0.32313 1.94125,-1.03237 2.80476,-1.19437 0.49468,-0.0928 0.89941,-0.27454 0.89941,-0.40387 0,-0.13109 3.04375,-0.23513 6.87917,-0.23513 h 6.87916 v 4.6302 4.63021 h -14.79461 c -11.27685,0 -14.819802,0.0755 -14.900521,0.3177 -0.06193,0.18578 -0.171201,0.21204 -0.26317,0.0632 z"
         id="path245" /><path
         style="fill:#9db3d4"
         d="m 101.98277,170.98698 c 0.10261,-1.05503 0.35573,-2.89478 0.56249,-4.08834 0.4375,-2.52552 0.19146,-4.03453 -1.27383,-7.81262 -0.89185,-2.29952 -1.22708,-2.72255 -2.333638,-2.94484 -1.28225,-0.25758 -1.869375,-1.00458 -2.193531,-2.79081 l -0.303639,-1.67318 -1.455208,1.19401 c -1.675547,1.37481 -4.324561,2.87661 -6.171606,3.49887 -1.176531,0.39636 -1.328119,0.39653 -1.930039,0.002 -1.576921,-1.03324 -1.513544,-4.09973 0.175057,-8.47013 0.820581,-2.12381 1.047421,-2.87172 1.047421,-3.45343 0,-0.97668 0.698578,-2.48108 1.244824,-2.68074 0.261233,-0.0955 0.755565,-0.38883 1.098516,-0.65188 0.342952,-0.26305 1.2679,-0.7831 2.055441,-1.15567 1.389327,-0.65725 1.459548,-0.66427 2.362171,-0.23595 0.511652,0.2428 1.088063,0.66672 1.280912,0.94205 0.216497,0.30909 0.516649,0.4369 0.784594,0.33408 0.471383,-0.18089 0.514608,-0.51279 0.264137,-2.02814 -0.131664,-0.79657 -0.278894,-0.99219 -0.746741,-0.99219 -0.948479,0 -0.97022,-0.27181 -0.138074,-1.72625 0.857919,-1.49949 0.948066,-1.99666 0.493895,-2.72391 -0.232661,-0.37255 -0.174997,-0.71172 0.268957,-1.58194 0.528116,-1.03519 0.538845,-1.17059 0.163866,-2.06804 -0.855776,-2.04816 -0.479131,-2.54811 3.173725,-4.21277 2.10401,-0.95883 2.65961,-1.10709 2.36551,-0.63123 -0.12204,0.19747 0.19923,0.22874 1.04576,0.1018 1.44459,-0.21663 4.72245,0.0844 4.51816,0.41497 -0.0782,0.12649 0.10874,0.36425 0.41537,0.52835 1.37136,0.73393 2.97242,2.79365 2.43188,3.12854 -0.15227,0.0943 -0.36143,0.76683 -0.4648,1.49444 -0.25786,1.81509 -0.91292,4.66049 -1.18474,5.14619 -0.34442,0.61545 0.51302,1.84103 1.71768,2.45516 0.58208,0.29674 1.11786,0.61558 1.19062,0.70853 0.0728,0.093 0.48948,0.39427 0.92605,0.66959 0.92723,0.58475 1.64353,1.20422 3.07837,2.66219 1.16,1.17871 2.87475,4.35847 2.87475,5.33081 0,0.34622 0.10601,0.83624 0.23557,1.08893 0.22804,0.44474 0.89377,4.2093 1.36794,7.73547 0.64778,4.81722 0.0591,7.77695 -1.61326,8.11143 -0.4312,0.0862 -0.784,0.30591 -0.784,0.48815 0,0.18225 0.41672,1.94307 0.92604,3.91293 0.50932,1.96987 0.92604,3.65135 0.92604,3.73662 0,0.0853 -4.18257,0.15504 -9.2946,0.15504 h -9.2946 z m -25.232602,-55.5625 -0.03332,-4.69635 h 2.916575 c 1.604116,0 2.916574,0.0747 2.916574,0.16607 0,0.0913 -0.583338,0.95455 -1.296307,1.91823 -0.712969,0.96369 -1.570132,2.3177 -1.904806,3.00893 -0.334674,0.69122 -0.703835,1.25677 -0.820359,1.25677 -0.116523,0 -0.211861,0.15614 -0.211861,0.34698 0,0.19084 -0.241434,0.60613 -0.53652,0.92287 -0.295086,0.31674 -0.64005,0.84521 -0.766588,1.17437 -0.145922,0.37959 -0.242254,-1.11917 -0.263388,-4.09787 z m 9.027447,0.5421 c -0.17905,-0.17905 -0.837486,-0.28584 -1.508125,-0.2446 -0.938013,0.0577 -1.190326,-0.0152 -1.190326,-0.34366 0,-0.22927 -0.174857,-0.41686 -0.388571,-0.41686 -0.236031,0 -0.329014,-0.1552 -0.236859,-0.39536 0.08344,-0.21744 0.258299,-0.32948 0.388571,-0.24896 0.130272,0.0805 0.236859,-0.0917 0.236859,-0.38278 0,-0.29105 -0.119062,-0.60276 -0.264583,-0.69269 -0.145521,-0.0899 -0.264584,0.0221 -0.264584,0.24897 0,0.22687 -0.178593,0.41249 -0.396875,0.41249 -0.555858,0 -0.494042,-0.58968 0.132292,-1.26197 0.291042,-0.31239 0.529167,-0.67358 0.529167,-0.80263 0,-0.12905 0.221542,-0.43513 0.492315,-0.68018 0.429994,-0.38914 1.158473,-0.44072 5.754688,-0.4075 l 5.262372,0.038 -0.776538,0.56493 c -0.427096,0.31072 -1.215433,0.95189 -1.75186,1.42484 -0.536426,0.47294 -1.041029,0.85989 -1.121338,0.85989 -0.130367,0 -0.684367,0.48483 -2.444986,2.13971 -0.6039,0.56762 -1.967566,0.67238 -2.451619,0.18833 z"
         id="path244" /><path
         style="fill:#61cde3"
         d="m 102.12849,172.1776 c -3.8e-4,-0.40018 0.19629,-2.19974 0.43703,-3.99902 0.36043,-2.6939 0.38266,-3.57016 0.1259,-4.96362 -0.59737,-3.24205 -2.47776,-7.09159 -3.472673,-7.10928 -0.07276,-0.001 -0.563424,-0.25698 -1.090363,-0.56819 -0.860316,-0.50811 -0.976308,-0.7118 -1.136802,-1.99635 -0.0983,-0.78678 -0.100915,-1.63329 -0.0058,-1.88114 0.279935,-0.7295 -0.11838,-0.53427 -1.970907,0.96602 -2.926284,2.36988 -6.511235,4.09853 -7.819019,3.7703 -0.912621,-0.22905 -1.55319,-2.008 -1.337985,-3.71575 0.165658,-1.31458 1.267191,-5.12807 1.742256,-6.03167 0.13285,-0.25268 0.241545,-0.63964 0.241545,-0.85989 0,-0.22026 0.119062,-0.40047 0.264583,-0.40047 0.145521,0 0.264584,-0.40897 0.264584,-0.90881 0,-1.21218 0.415223,-2.24128 0.988216,-2.44922 0.256846,-0.0932 0.900844,-0.50687 1.431108,-0.91926 0.530264,-0.41238 1.107197,-0.74979 1.282073,-0.74979 0.174876,0 0.652949,-0.23854 1.062385,-0.53008 0.802545,-0.57146 1.236358,-0.51184 2.462916,0.33853 0.428024,0.29675 0.684569,0.67203 0.603616,0.88299 -0.16694,0.43504 0.208233,0.47303 0.91833,0.093 0.541076,-0.28958 0.723945,-1.68041 0.258744,-1.96792 -0.139165,-0.086 -0.185365,-0.33271 -0.102666,-0.54822 0.102462,-0.26701 -0.111937,-0.48328 -0.673013,-0.67887 -0.452857,-0.15787 -0.823376,-0.33672 -0.823376,-0.39745 0,-0.0607 0.370329,-0.7666 0.822953,-1.56861 0.746193,-1.32218 0.792195,-1.53244 0.493197,-2.25429 -0.279679,-0.6752 -0.257767,-0.95575 0.144291,-1.84735 0.399459,-0.88584 0.425934,-1.21184 0.168262,-2.07188 -0.168183,-0.56134 -0.302716,-1.24493 -0.298964,-1.51909 0.0077,-0.56611 1.821027,-1.86441 3.797129,-2.71872 1.44748,-0.62578 1.86852,-0.69539 1.60249,-0.26494 -0.1169,0.18914 -0.005,0.24301 0.31511,0.15204 1.41822,-0.40271 2.43792,-0.48285 4.00638,-0.31488 1.03029,0.11033 1.5928,0.27038 1.39026,0.39556 -0.25056,0.15485 -0.19794,0.25539 0.19969,0.3816 1.16049,0.36832 3.34422,2.89253 2.6908,3.11034 -0.16779,0.0559 -0.34438,0.62886 -0.39244,1.27318 -0.13744,1.84284 -0.72178,4.4867 -0.9592,4.33997 -0.11856,-0.0733 -0.14743,0.0443 -0.0642,0.26132 0.0833,0.217 0.032,0.60798 -0.11403,0.86885 -0.38873,0.69462 0.39378,1.87513 1.67636,2.52898 0.58208,0.29674 1.11786,0.61558 1.19062,0.70853 0.0728,0.093 0.48948,0.39427 0.92605,0.66959 0.92723,0.58475 1.64353,1.20422 3.07837,2.66219 1.16,1.17871 2.87475,4.35847 2.87475,5.33081 0,0.34622 0.10601,0.83624 0.23557,1.08893 0.22804,0.44474 0.89377,4.2093 1.36794,7.73547 0.38352,2.85209 0.31073,5.96904 -0.1483,6.35 -0.21828,0.18116 -0.39688,0.48664 -0.39688,0.67885 0,0.5152 -1.01431,1.13521 -1.60461,0.98084 -0.6717,-0.17565 -0.66749,-0.13333 0.41399,4.16115 0.50932,2.02248 0.92604,3.80236 0.92604,3.95529 0,0.18888 -2.88469,0.27804 -8.99583,0.27804 h -8.99584 z"
         id="path243" /><path
         style="fill:#b3e814"
         d="m 102.12849,172.1776 c -3.8e-4,-0.40018 0.19629,-2.19974 0.43703,-3.99902 0.36043,-2.6939 0.38266,-3.57016 0.1259,-4.96362 -0.59737,-3.24205 -2.47776,-7.09159 -3.472673,-7.10928 -0.07276,-0.001 -0.563424,-0.25698 -1.090363,-0.56819 -0.860316,-0.50811 -0.976308,-0.7118 -1.136802,-1.99635 -0.0983,-0.78678 -0.100915,-1.63329 -0.0058,-1.88114 0.279935,-0.7295 -0.11838,-0.53427 -1.970907,0.96602 -2.926284,2.36988 -6.511235,4.09853 -7.819019,3.7703 -0.912621,-0.22905 -1.55319,-2.008 -1.337985,-3.71575 0.165658,-1.31458 1.267191,-5.12807 1.742256,-6.03167 0.13285,-0.25268 0.241545,-0.63964 0.241545,-0.85989 0,-0.22026 0.119062,-0.40047 0.264583,-0.40047 0.145521,0 0.264584,-0.40897 0.264584,-0.90881 0,-1.21218 0.415223,-2.24128 0.988216,-2.44922 0.256846,-0.0932 0.900844,-0.50687 1.431108,-0.91926 0.530264,-0.41238 1.125577,-0.75358 1.322917,-0.75821 0.19734,-0.005 0.57948,-0.17559 0.849199,-0.37991 0.608625,-0.46107 1.568556,-0.15005 2.613481,0.84677 0.630261,0.60125 0.807817,0.65055 1.389063,0.38572 0.49388,-0.22503 0.666432,-0.50659 0.666432,-1.08746 0,-0.43109 -0.113862,-0.85418 -0.253028,-0.94018 -0.139165,-0.086 -0.185365,-0.33271 -0.102666,-0.54822 0.102462,-0.26701 -0.111937,-0.48328 -0.673013,-0.67887 -0.452857,-0.15787 -0.823376,-0.33672 -0.823376,-0.39745 0,-0.0607 0.370329,-0.7666 0.822953,-1.56861 0.746193,-1.32218 0.792195,-1.53244 0.493197,-2.25429 -0.279679,-0.6752 -0.257767,-0.95575 0.144291,-1.84735 0.399459,-0.88584 0.425934,-1.21184 0.168262,-2.07188 -0.491377,-1.64006 -0.385279,-1.95562 0.957807,-2.84875 1.554863,-1.03396 3.763488,-2.00549 3.763488,-1.65548 0,0.15609 0.37604,0.19115 0.93187,0.0869 0.96409,-0.18086 5.27546,0.13203 4.6926,0.34056 -0.18158,0.065 0.22429,0.49282 0.907,0.95612 1.44506,0.98065 2.51111,2.30441 2.00135,2.48516 -0.19067,0.0676 -0.33467,0.58414 -0.34003,1.2197 -0.01,1.15086 -0.46432,3.48675 -1.04971,5.39351 -0.43493,1.41669 -0.38606,1.47742 3.03926,3.77724 5.14584,3.45502 6.15652,5.19978 7.51081,12.96605 0.94538,5.42136 1.19556,8.38139 0.84194,9.96154 -0.33828,1.51161 -1.02081,2.24249 -1.88345,2.0169 -0.6717,-0.17565 -0.66749,-0.13333 0.41399,4.16115 0.50932,2.02248 0.92604,3.80236 0.92604,3.95529 0,0.18888 -2.88469,0.27804 -8.99583,0.27804 h -8.99584 z"
         id="path242" /><path
         style="fill:#4b0e89"
         d="m 102.12849,172.1776 c -3.8e-4,-0.40018 0.19629,-2.19974 0.43703,-3.99902 0.50607,-3.78243 0.33217,-5.34817 -0.95097,-8.56203 -1.05889,-2.6522 -1.06773,-2.73546 -0.27914,-2.63107 0.36381,0.0482 1.00718,0.25652 1.42972,0.46302 1.01864,0.49783 1.17163,0.47906 1.79197,-0.21985 0.49636,-0.55924 0.49528,-0.54524 -0.0179,0.23102 l -0.54624,0.82634 1.41591,0.94011 c 1.08711,0.7218 1.48874,0.86783 1.72959,0.62887 0.24109,-0.23922 0.27555,-0.21103 0.14891,0.1218 -0.11124,0.29236 0.0903,0.61469 0.62048,0.99219 1.04885,0.74684 1.28078,0.71007 1.89709,-0.30075 0.59491,-0.97572 0.70921,-0.68356 0.12939,0.33073 -0.54033,0.94521 -0.49508,1.05833 0.42334,1.05833 1.24721,0 2.47337,-1.36926 2.8889,-3.22605 0.18352,-0.82007 0.26456,-1.67114 0.18009,-1.89128 -0.17824,-0.46448 -2.51026,-1.56311 -2.85963,-1.34719 -0.1297,0.0802 -0.23582,0.0321 -0.23582,-0.10686 0,-0.13894 -0.61891,-0.64977 -1.37536,-1.13518 -1.71594,-1.10112 -2.28486,-1.64043 -3.31385,-3.14135 -0.44894,-0.65485 -1.17822,-1.55633 -1.62062,-2.0033 -0.82846,-0.83701 -2.69154,-1.62762 -3.15724,-1.3398 -0.30087,0.18595 -1.315205,3.78851 -1.637819,5.81696 -0.122579,0.77072 -0.113525,1.55674 0.02084,1.80956 0.37551,0.70652 -0.07811,0.73393 -1.120356,0.0677 -0.851201,-0.54412 -0.979624,-0.77363 -1.136802,-2.03164 -0.09746,-0.78002 -0.09938,-1.621 -0.0043,-1.86885 0.279579,-0.72857 -0.09209,-0.53865 -2.095435,1.07073 -2.100186,1.68718 -5.348881,3.44112 -6.804192,3.67352 -0.679865,0.10856 -1.068803,0.0284 -1.381983,-0.28476 -0.598569,-0.59856 -1.08426,-2.3387 -0.879957,-3.15271 l 0.168607,-0.67178 0.637055,0.63705 c 1.278285,1.27829 3.380179,1.09532 4.902226,-0.42673 0.790015,-0.79001 0.806129,-0.85749 0.731725,-3.06423 -0.07218,-2.14065 -0.04503,-2.26823 0.529007,-2.48648 0.332798,-0.12653 0.605087,-0.35206 0.605087,-0.50119 0,-0.14912 0.148828,-0.27491 0.330729,-0.27954 0.473929,-0.0121 1.382963,-0.74734 1.177704,-0.9526 -0.095,-0.095 -0.346589,-0.0284 -0.559085,0.14792 -0.297501,0.2469 -0.519682,0.24929 -0.966083,0.0104 -0.318851,-0.17065 -0.653883,-0.20849 -0.744517,-0.0841 -0.09064,0.1244 -0.477329,0.38697 -0.859321,0.58349 -0.561583,0.28892 -0.812692,0.29408 -1.31181,0.027 -0.339503,-0.18169 -0.860402,-0.35725 -1.157552,-0.39011 -0.29715,-0.0329 -0.62957,-0.075 -0.738711,-0.0935 -0.285597,-0.0486 -0.244374,-1.73058 0.06218,-2.53686 0.143337,-0.37701 0.470759,-0.76173 0.727604,-0.85494 0.256846,-0.0932 0.900844,-0.50687 1.431108,-0.91926 0.530264,-0.41238 1.125577,-0.75358 1.322917,-0.75821 0.19734,-0.005 0.57948,-0.17559 0.849199,-0.37991 0.608625,-0.46107 1.568556,-0.15005 2.613481,0.84677 0.630261,0.60125 0.807817,0.65055 1.389063,0.38572 0.49388,-0.22503 0.666432,-0.50659 0.666432,-1.08746 0,-0.43109 -0.113862,-0.85418 -0.253028,-0.94018 -0.139165,-0.086 -0.185365,-0.33271 -0.102666,-0.54822 0.102462,-0.26701 -0.111937,-0.48328 -0.673013,-0.67887 -0.452857,-0.15787 -0.823376,-0.33672 -0.823376,-0.39745 0,-0.0607 0.370329,-0.7666 0.822953,-1.56861 0.746193,-1.32218 0.792195,-1.53244 0.493197,-2.25429 -0.279679,-0.6752 -0.257767,-0.95575 0.144291,-1.84735 0.399459,-0.88584 0.425934,-1.21184 0.168262,-2.07188 -0.491377,-1.64006 -0.385279,-1.95562 0.957807,-2.84875 1.554863,-1.03396 3.763482,-2.00549 3.763482,-1.65548 0,0.15609 0.37604,0.19115 0.93187,0.0869 0.96409,-0.18086 5.27546,0.13203 4.6926,0.34056 -0.18158,0.065 0.22429,0.49282 0.907,0.95612 1.44506,0.98065 2.51111,2.30441 2.00135,2.48516 -0.19067,0.0676 -0.33467,0.58414 -0.34003,1.2197 -0.01,1.15086 -0.46432,3.48675 -1.04971,5.39351 -0.43493,1.41669 -0.38606,1.47742 3.03926,3.77724 5.14584,3.45502 6.15652,5.19978 7.51081,12.96605 0.94538,5.42136 1.19556,8.38139 0.84194,9.96154 -0.33828,1.51161 -1.02081,2.24249 -1.88345,2.0169 -0.6717,-0.17565 -0.66749,-0.13333 0.41399,4.16115 0.50932,2.02248 0.92604,3.80236 0.92604,3.95529 0,0.18888 -2.88469,0.27804 -8.99583,0.27804 h -8.99584 z"
         id="path241" /></g></g></svg>
