<?xml version="1.0" encoding="UTF-8" standalone="no"?>
<!-- Created with Inkscape (http://www.inkscape.org/) -->

<svg
   width="135.55894mm"
   height="88.952614mm"
   viewBox="0 0 135.55894 88.952614"
   version="1.1"
   id="svg1"
   xml:space="preserve"
   inkscape:export-filename="spain.svg"
   inkscape:export-xdpi="96"
   inkscape:export-ydpi="96"
   xmlns:inkscape="http://www.inkscape.org/namespaces/inkscape"
   xmlns:sodipodi="http://sodipodi.sourceforge.net/DTD/sodipodi-0.dtd"
   xmlns="http://www.w3.org/2000/svg"
   xmlns:svg="http://www.w3.org/2000/svg"><sodipodi:namedview
     id="namedview1"
     pagecolor="#ffffff"
     bordercolor="#000000"
     borderopacity="0.25"
     inkscape:showpageshadow="2"
     inkscape:pageopacity="0.0"
     inkscape:pagecheckerboard="0"
     inkscape:deskcolor="#d1d1d1"
     inkscape:document-units="mm"><inkscape:page
       x="0"
       y="-8.9644326e-22"
       width="135.55894"
       height="88.952614"
       id="page2"
       margin="0"
       bleed="0" /></sodipodi:namedview><defs
     id="defs1" /><g
     inkscape:label="Calque 1"
     inkscape:groupmode="layer"
     id="layer1"
     transform="translate(-62.895577,-129.16105)"><g
       id="g5617"
       transform="translate(27.898102,68.711993)"><path
         style="fill:#f4f4f5"
         d="m 42.187378,148.87428 c -2.858818,-0.92097 -5.039973,-2.84117 -6.314237,-5.55879 L 35.17592,141.82853 V 104.78686 67.745199 l 0.832485,-1.5918 c 1.024395,-1.958752 3.056321,-3.902348 5.062944,-4.842852 l 1.512904,-0.709098 h 60.192707 60.1927 l 1.52206,0.713287 c 2.12938,0.997902 4.19407,3.031528 5.12582,5.04871 l 0.76046,1.646336 v 36.914958 36.91496 l -0.86628,1.75963 c -1.07306,2.17967 -3.16372,4.16646 -5.28617,5.02354 l -1.52047,0.61399 -59.53125,0.0531 c -56.335707,0.0502 -59.609357,0.0279 -60.986452,-0.41569 z"
         id="path5784" /><path
         style="fill:#fef9e4"
         d="m 42.187378,148.87428 c -2.858818,-0.92097 -5.039973,-2.84117 -6.314237,-5.55879 L 35.17592,141.82853 V 104.91916 68.009782 l 0.760457,-1.646336 c 0.931752,-2.017182 2.99644,-4.050808 5.125823,-5.04871 l 1.522053,-0.713287 h 60.192707 60.1927 l 1.52206,0.713287 c 2.12938,0.997902 4.19407,3.031528 5.12582,5.04871 l 0.76046,1.646336 v 36.914958 36.91496 l -0.86628,1.75963 c -1.07306,2.17967 -3.16372,4.16646 -5.28617,5.02354 l -1.52047,0.61399 -59.53125,0.0531 c -56.335707,0.0502 -59.609357,0.0279 -60.986452,-0.41569 z"
         id="path5783" /><path
         style="fill:#fef9e2"
         d="m 42.163285,148.86859 c -2.782328,-0.89243 -5.041222,-2.89084 -6.299154,-5.57278 L 35.17592,141.82853 V 104.91916 68.009782 l 0.760457,-1.646336 c 0.931752,-2.017182 2.99644,-4.050808 5.125823,-5.04871 l 1.522053,-0.713287 h 60.192707 60.1927 l 1.52206,0.713287 c 2.12938,0.997902 4.19407,3.031528 5.12582,5.04871 l 0.76046,1.646336 v 36.914958 36.91496 l -0.86628,1.75963 c -1.07306,2.17967 -3.16372,4.16646 -5.28617,5.02354 l -1.52047,0.61399 -59.53125,0.0531 c -56.601101,0.0505 -59.604055,0.0297 -61.010545,-0.42138 z"
         id="path5782" /><path
         style="fill:#f2f2f3"
         d="m 42.163285,148.8674 c -2.780539,-0.88962 -5.04085,-2.88886 -6.299154,-5.57159 L 35.17592,141.82853 V 104.91916 68.009782 l 0.760457,-1.646336 c 0.931752,-2.017182 2.99644,-4.050808 5.125823,-5.04871 l 1.522053,-0.713287 h 60.192707 60.1927 l 1.52206,0.713287 c 2.12938,0.997902 4.19407,3.031528 5.12582,5.04871 l 0.76046,1.646336 v 36.909378 36.90937 l -0.69722,1.48696 c -1.27831,2.72625 -3.68457,4.79241 -6.5607,5.63344 -1.29458,0.37855 -7.28984,0.41881 -60.45729,0.40599 -55.947636,-0.0135 -59.097215,-0.0389 -60.499505,-0.48752 z"
         id="path5781" /><path
         style="fill:#fef8dc"
         d="m 42.163285,148.8674 c -2.780539,-0.88962 -5.04085,-2.88886 -6.299154,-5.57159 L 35.17592,141.82853 V 104.91916 68.009782 l 0.709098,-1.512905 c 0.990171,-2.11259 2.848134,-4.005015 4.946099,-5.037839 l 1.742009,-0.857589 h 60.198264 60.19827 l 1.52206,0.713287 c 2.12938,0.997902 4.19407,3.031528 5.12582,5.04871 l 0.76046,1.646336 v 36.909378 36.90937 l -0.69722,1.48696 c -1.27831,2.72625 -3.68457,4.79241 -6.5607,5.63344 -1.29458,0.37855 -7.28984,0.41881 -60.45729,0.40599 -55.947636,-0.0135 -59.097215,-0.0389 -60.499505,-0.48752 z"
         id="path5780" /><path
         style="fill:#f0f0f2"
         d="m 42.163285,148.8674 c -2.771314,-0.88667 -5.125235,-3.00104 -6.386994,-5.73703 L 35.17592,141.82853 V 104.91916 68.009782 l 0.709098,-1.512905 c 0.990171,-2.11259 2.848134,-4.005015 4.946099,-5.037839 l 1.742009,-0.857589 h 60.198264 60.19827 l 1.52206,0.713287 c 2.12938,0.997902 4.19407,3.031528 5.12582,5.04871 l 0.76046,1.646336 v 36.909378 36.90937 l -0.69722,1.48696 c -1.27831,2.72625 -3.68457,4.79241 -6.5607,5.63344 -1.29458,0.37855 -7.28984,0.41881 -60.45729,0.40599 -55.947636,-0.0135 -59.097215,-0.0389 -60.499505,-0.48752 z"
         id="path5779" /><path
         style="fill:#efeff0"
         d="m 42.163285,148.8674 c -2.771314,-0.88667 -5.125235,-3.00104 -6.386994,-5.73703 L 35.17592,141.82853 V 104.91916 68.009782 l 0.709098,-1.512905 c 0.990171,-2.11259 2.848134,-4.005015 4.946099,-5.037839 l 1.742009,-0.857589 h 60.203834 60.20383 l 1.74201,0.857589 c 2.09797,1.032824 3.95593,2.925249 4.9461,5.037839 l 0.7091,1.512905 v 36.909378 36.90937 l -0.69722,1.48696 c -1.27831,2.72625 -3.68457,4.79241 -6.5607,5.63344 -1.29458,0.37855 -7.28984,0.41881 -60.45729,0.40599 -55.947636,-0.0135 -59.097215,-0.0389 -60.499505,-0.48752 z"
         id="path5778" /><path
         style="fill:#fef7d9"
         d="m 42.163285,148.8674 c -2.771314,-0.88667 -5.125235,-3.00104 -6.386994,-5.73703 L 35.17592,141.82853 V 104.91916 68.009782 l 0.709098,-1.512905 c 0.990171,-2.11259 2.848134,-4.005015 4.946099,-5.037839 l 1.742009,-0.857589 h 60.203834 60.20383 l 1.74201,0.857589 c 2.09797,1.032824 3.95593,2.925249 4.9461,5.037839 l 0.7091,1.512905 v 36.909378 36.90937 l -0.69722,1.48696 c -1.27831,2.72625 -3.68457,4.79241 -6.5607,5.63344 -1.29458,0.37855 -7.28984,0.41881 -60.45729,0.40599 -55.947636,-0.0135 -59.097215,-0.0389 -60.499505,-0.48752 z"
         id="path5777" /><path
         style="fill:#fef7d8"
         d="m 42.163285,148.8674 c -2.771314,-0.88667 -5.125235,-3.00104 -6.386994,-5.73703 L 35.17592,141.82853 V 104.91916 68.009782 l 0.709098,-1.512905 c 0.990171,-2.11259 2.848134,-4.005015 4.946099,-5.037839 l 1.742009,-0.857589 h 60.203834 60.20383 l 1.74201,0.857589 c 2.09797,1.032824 3.95593,2.925249 4.9461,5.037839 l 0.7091,1.512905 v 36.909378 36.90937 l -0.60037,1.30184 c -0.82553,1.79007 -2.25369,3.46309 -3.8654,4.52815 -2.77604,1.83447 1.79439,1.71216 -63.3893,1.6964 -55.813278,-0.0135 -58.9574,-0.0389 -60.359645,-0.48752 z"
         id="path5776" /><path
         style="fill:#fef7d6"
         d="m 42.451962,148.94551 c -2.785518,-0.74428 -5.378994,-3.00344 -6.675671,-5.81514 L 35.17592,141.82853 V 104.91916 68.009782 l 0.709098,-1.512905 c 0.990171,-2.11259 2.848134,-4.005015 4.946099,-5.037839 l 1.742009,-0.857589 h 60.203834 60.20383 l 1.74201,0.857589 c 2.09797,1.032824 3.95593,2.925249 4.9461,5.037839 l 0.7091,1.512905 v 36.909378 36.90937 l -0.60037,1.30184 c -0.82553,1.79007 -2.25369,3.46309 -3.8654,4.52815 -2.77609,1.8345 1.78177,1.7125 -63.25701,1.69322 -50.804758,-0.0151 -58.944808,-0.07 -60.203258,-0.40623 z"
         id="path5775" /><path
         style="fill:#fef6d4"
         d="m 42.460668,148.94559 c -2.811243,-0.75551 -5.149078,-2.76852 -6.566109,-5.65381 L 35.17592,141.82853 V 104.91916 68.009782 l 0.709098,-1.512905 c 0.990171,-2.11259 2.848134,-4.005015 4.946099,-5.037839 l 1.742009,-0.857589 h 60.203834 60.20383 l 1.74201,0.857589 c 2.09797,1.032824 3.95593,2.925249 4.9461,5.037839 l 0.7091,1.512905 v 36.909378 36.90937 l -0.60037,1.30184 c -0.82553,1.79007 -2.25369,3.46309 -3.8654,4.52815 -2.77609,1.8345 1.78177,1.7125 -63.25701,1.69322 -50.80307,-0.0151 -58.943672,-0.07 -60.194552,-0.40615 z"
         id="path5774" /><path
         style="fill:#fef6d3"
         d="m 42.460668,148.94559 c -2.811243,-0.75551 -5.149078,-2.76852 -6.566109,-5.65381 L 35.17592,141.82853 V 104.91916 68.009782 l 0.709098,-1.512905 c 0.990171,-2.11259 2.848134,-4.005015 4.946099,-5.037839 l 1.742009,-0.857589 h 60.203834 60.20383 l 1.74201,0.857589 c 2.09797,1.032824 3.95593,2.925249 4.9461,5.037839 l 0.7091,1.512905 v 36.909378 36.90937 l -0.71864,1.46325 c -1.44412,2.94044 -3.76268,4.90699 -6.68176,5.66731 -1.40002,0.36466 -8.07877,0.40813 -60.32238,0.39265 -50.80307,-0.0151 -58.943672,-0.07 -60.194552,-0.40615 z"
         id="path5773" /><path
         style="fill:#fef6d2"
         d="m 42.460668,148.94559 c -2.811243,-0.75551 -5.149078,-2.76852 -6.566109,-5.65381 L 35.17592,141.82853 V 104.91916 68.009782 l 0.709098,-1.512905 c 0.990171,-2.11259 2.848134,-4.005015 4.946099,-5.037839 l 1.742009,-0.857589 h 60.203834 60.20383 l 1.74201,0.857589 c 2.09797,1.032824 3.95593,2.925249 4.9461,5.037839 l 0.7091,1.512905 v 36.909378 36.90937 l -0.77831,1.5875 c -1.39078,2.83677 -4.06749,4.9829 -7.08209,5.67828 -0.73181,0.1688 -22.01533,0.25802 -59.87293,0.25096 -50.808013,-0.009 -58.932776,-0.0634 -60.184002,-0.39968 z"
         id="path5772" /><path
         style="fill:#fef6d1"
         d="m 42.716545,149.00566 c -2.992015,-0.82371 -5.40263,-2.81629 -6.76232,-5.58963 l -0.778305,-1.5875 V 104.91916 68.009782 l 0.709098,-1.512905 c 0.990171,-2.11259 2.848134,-4.005015 4.946099,-5.037839 l 1.742009,-0.857589 h 60.203834 60.20383 l 1.74201,0.857589 c 2.09797,1.032824 3.95593,2.925249 4.9461,5.037839 l 0.7091,1.512905 v 36.909378 36.90937 l -0.77831,1.5875 c -1.39078,2.83677 -4.06749,4.9829 -7.08209,5.67828 -1.81069,0.41767 -118.274947,0.33149 -119.801055,-0.0887 z"
         id="path5771" /><path
         style="fill:#fef5cf"
         d="m 42.716545,149.00566 c -2.992015,-0.82371 -5.40263,-2.81629 -6.76232,-5.58963 l -0.778305,-1.5875 V 104.91916 68.009782 l 0.709098,-1.512905 c 0.990171,-2.11259 2.848134,-4.005015 4.946099,-5.037839 l 1.742009,-0.857589 h 60.203834 60.20383 l 1.74201,0.857589 c 2.09797,1.032824 3.95593,2.925249 4.9461,5.037839 l 0.7091,1.512905 v 36.909378 36.90937 l -0.7775,1.5875 c -1.38832,2.83467 -4.0678,4.98279 -7.0829,5.67828 -1.81069,0.41767 -118.274947,0.33149 -119.801055,-0.0887 z"
         id="path5770" /><path
         style="fill:#fef5ce"
         d="m 42.716545,149.00566 c -2.992628,-0.82388 -5.405883,-2.8184 -6.763128,-5.58963 l -0.777497,-1.5875 V 104.91916 68.009782 l 0.709098,-1.512905 c 0.990171,-2.11259 2.848134,-4.005015 4.946099,-5.037839 l 1.742009,-0.857589 h 60.203834 60.20383 l 1.74201,0.857589 c 2.09797,1.032824 3.95593,2.925249 4.9461,5.037839 l 0.7091,1.512905 v 36.909378 36.90937 l -0.7775,1.5875 c -1.38832,2.83467 -4.0678,4.98279 -7.0829,5.67828 -1.81069,0.41767 -118.274947,0.33149 -119.801055,-0.0887 z"
         id="path5769" /><path
         style="fill:#fef5cd"
         d="m 42.879989,149.07486 c -2.87914,-0.67591 -5.566279,-2.89495 -6.973023,-5.75832 L 35.17592,141.82853 V 104.91916 68.009782 l 0.709098,-1.512905 c 0.990171,-2.11259 2.848134,-4.005015 4.946099,-5.037839 l 1.742009,-0.857589 h 60.203834 60.20383 l 1.74201,0.857589 c 2.09797,1.032824 3.95593,2.925249 4.9461,5.037839 l 0.7091,1.512905 v 36.909378 36.90937 l -0.7775,1.5875 c -1.38832,2.83467 -4.0678,4.98279 -7.0829,5.67828 -1.47462,0.34015 -118.186662,0.32117 -119.637611,-0.0195 z"
         id="path5768" /><path
         style="fill:#eaeaeb"
         d="m 42.879989,149.07631 c -2.883695,-0.68105 -5.566682,-2.89722 -6.973023,-5.75977 L 35.17592,141.82853 V 104.91916 68.009782 l 0.709098,-1.512905 c 0.990171,-2.11259 2.848134,-4.005015 4.946099,-5.037839 l 1.742009,-0.857589 h 60.203834 60.20383 l 1.74201,0.857589 c 2.09797,1.032824 3.95593,2.925249 4.9461,5.037839 l 0.7091,1.512905 v 36.909378 36.90937 l -0.73105,1.48801 c -1.141,2.32246 -2.59687,3.78647 -4.89486,4.92222 l -2.01948,0.9981 -59.41272,0.041 c -35.253033,0.0243 -59.830415,-0.0576 -60.439901,-0.20157 z"
         id="path5767" /><path
         style="fill:#fef4ca"
         d="m 42.879989,149.07631 c -2.883695,-0.68105 -5.566682,-2.89722 -6.973023,-5.75977 L 35.17592,141.82853 V 104.91916 68.009782 l 0.709098,-1.512905 c 0.993494,-2.119679 2.856205,-4.01489 4.955864,-5.042332 l 1.743371,-0.853096 h 60.198267 60.19827 l 1.74201,0.857589 c 2.09797,1.032824 3.95593,2.925249 4.9461,5.037839 l 0.7091,1.512905 v 36.909378 36.90937 l -0.73105,1.48801 c -1.141,2.32246 -2.59687,3.78647 -4.89486,4.92222 l -2.01948,0.9981 -59.41272,0.041 c -35.253033,0.0243 -59.830415,-0.0576 -60.439901,-0.20157 z"
         id="path5766" /><path
         style="fill:#e8e8ea"
         d="m 42.879989,149.07631 c -2.883695,-0.68105 -5.566682,-2.89722 -6.973023,-5.75977 L 35.17592,141.82853 V 104.91916 68.009782 l 0.709098,-1.512905 c 0.993494,-2.119679 2.856205,-4.01489 4.955864,-5.042332 l 1.743371,-0.853096 h 60.198267 60.19827 l 1.74201,0.857589 c 2.09797,1.032824 3.95593,2.925249 4.9461,5.037839 l 0.7091,1.512905 v 36.909378 36.90937 l -0.73105,1.48801 c -1.141,2.32246 -2.59687,3.78647 -4.89486,4.92222 l -2.01948,0.9981 -59.41272,0.041 c -35.253033,0.0243 -59.830415,-0.0576 -60.439901,-0.20157 z"
         id="path5765" /><path
         style="fill:#fef4c6"
         d="m 42.879989,149.07631 c -2.883695,-0.68105 -5.566682,-2.89722 -6.973023,-5.75977 L 35.17592,141.82853 V 104.91916 68.009782 l 0.709098,-1.512905 c 0.993494,-2.119679 2.856205,-4.01489 4.955864,-5.042332 l 1.743371,-0.853096 h 60.198267 60.19827 l 1.74201,0.857589 c 2.09797,1.032824 3.95593,2.925249 4.9461,5.037839 l 0.7091,1.512905 v 36.909378 36.90937 l -0.73105,1.48801 c -1.141,2.32246 -2.59687,3.78647 -4.89486,4.92222 l -2.01948,0.9981 -59.41272,0.041 c -35.253033,0.0243 -59.830415,-0.0576 -60.439901,-0.20157 z"
         id="path5764" /><path
         style="fill:#fef3c4"
         d="m 42.879989,149.07631 c -2.883695,-0.68105 -5.566682,-2.89722 -6.973023,-5.75977 L 35.17592,141.82853 V 104.91916 68.009782 l 0.709098,-1.512905 c 0.993494,-2.119679 2.856205,-4.01489 4.955864,-5.042332 l 1.743371,-0.853096 h 60.198267 60.19827 l 1.74201,0.857589 c 2.09797,1.032824 3.95593,2.925249 4.9461,5.037839 l 0.7091,1.512905 0.0699,36.233598 c 0.0771,39.98078 0.16582,37.69529 -1.56946,40.42211 -1.06403,1.672 -2.35426,2.76162 -4.44099,3.75047 l -1.73232,0.8209 -59.39895,0.041 c -35.244694,0.0243 -59.816658,-0.0576 -60.426141,-0.20157 z"
         id="path5763" /><path
         style="fill:#e6e6e8"
         d="m 42.913904,149.08335 c -2.465431,-0.58466 -4.89306,-2.30384 -6.238372,-4.41786 -1.735283,-2.72682 -1.646545,-0.44133 -1.569466,-40.42211 l 0.06985,-36.233598 0.709098,-1.512905 c 0.993494,-2.119679 2.856205,-4.01489 4.955864,-5.042332 l 1.743371,-0.853096 h 60.198271 60.19827 l 1.74201,0.857589 c 2.09797,1.032824 3.95593,2.925249 4.9461,5.037839 l 0.7091,1.512905 0.0699,36.233598 c 0.0771,39.98078 0.16582,37.69529 -1.56946,40.42211 -1.06403,1.672 -2.35426,2.76162 -4.44099,3.75047 l -1.73232,0.8209 -59.39895,0.041 c -33.959828,0.0234 -59.824356,-0.0599 -60.39223,-0.19453 z"
         id="path5762" /><path
         style="fill:#fef3c2"
         d="m 42.913904,149.08335 c -2.465431,-0.58466 -4.89306,-2.30384 -6.238372,-4.41786 -1.735283,-2.72682 -1.646545,-0.44133 -1.569466,-40.42211 l 0.06985,-36.233598 0.709098,-1.512905 c 0.993494,-2.119679 2.856205,-4.01489 4.955864,-5.042332 l 1.743371,-0.853096 h 60.192711 60.1927 l 1.74337,0.853096 c 2.09966,1.027442 3.96237,2.922653 4.95587,5.042332 l 0.7091,1.512905 0.0699,36.233598 c 0.0771,39.98078 0.16582,37.69529 -1.56946,40.42211 -1.06403,1.672 -2.35426,2.76162 -4.44099,3.75047 l -1.73232,0.8209 -59.39895,0.041 c -33.959828,0.0234 -59.824356,-0.0599 -60.39223,-0.19453 z"
         id="path5761" /><path
         style="fill:#fef3bf"
         d="m 42.910873,149.08272 c -2.372943,-0.56251 -4.934192,-2.37299 -6.224036,-4.39961 -1.748377,-2.74708 -1.657901,-0.43248 -1.580771,-40.43973 l 0.06985,-36.233598 0.709098,-1.512905 c 0.993494,-2.119679 2.856205,-4.01489 4.955864,-5.042332 l 1.743371,-0.853096 h 60.192711 60.1927 l 1.74337,0.853096 c 2.09966,1.027442 3.96237,2.922653 4.95587,5.042332 l 0.7091,1.512905 0.0699,36.233598 c 0.0771,39.98078 0.16582,37.69529 -1.56946,40.42211 -1.06403,1.672 -2.35426,2.76162 -4.44099,3.75047 l -1.73232,0.8209 -59.39895,0.041 c -34.077774,0.0235 -59.823676,-0.0597 -60.395261,-0.19516 z"
         id="path5760" /><path
         style="fill:#fef2bf"
         d="m 42.910873,149.08301 c -2.373782,-0.56339 -4.934326,-2.37349 -6.224036,-4.3999 -1.748377,-2.74708 -1.657901,-0.43248 -1.580771,-40.43973 l 0.06985,-36.233598 0.709098,-1.512905 c 0.993494,-2.119679 2.856205,-4.01489 4.955864,-5.042332 l 1.743371,-0.853096 h 60.192711 60.1927 l 1.74337,0.853096 c 2.09966,1.027442 3.96237,2.922653 4.95587,5.042332 l 0.7091,1.512905 0.0699,36.233598 c 0.0771,39.98078 0.16582,37.69529 -1.56946,40.42211 -1.06403,1.672 -2.35426,2.76162 -4.44099,3.75047 l -1.73232,0.8209 -59.39895,0.0413 c -34.132777,0.0237 -59.822753,-0.0593 -60.395261,-0.19515 z"
         id="path5759" /><path
         style="fill:#fef2bd"
         d="m 43.072078,149.09534 c -2.388615,-0.47632 -5.051212,-2.31619 -6.385241,-4.41223 -1.748377,-2.74708 -1.657901,-0.43248 -1.580771,-40.43973 l 0.06985,-36.233598 0.709098,-1.512905 c 0.993494,-2.119679 2.856205,-4.01489 4.955864,-5.042332 l 1.743371,-0.853096 h 60.192711 60.1927 l 1.74337,0.853096 c 2.09966,1.027442 3.96237,2.922653 4.95587,5.042332 l 0.7091,1.512905 0.0699,36.233598 c 0.0771,39.98078 0.16582,37.69529 -1.56946,40.42211 -1.06403,1.672 -2.35426,2.76162 -4.44099,3.75047 l -1.73232,0.8209 -59.26666,0.0389 c -32.596672,0.0214 -59.761525,-0.0598 -60.366346,-0.1804 z"
         id="path5758" /><path
         style="fill:#fef2bb"
         d="m 42.848837,148.99722 c -3.627984,-0.89658 -6.375846,-3.5181 -7.390529,-7.05072 -0.378773,-1.3187 -0.414927,-5.18851 -0.352242,-37.70312 l 0.06985,-36.233598 0.709098,-1.512905 c 0.993494,-2.119679 2.856205,-4.01489 4.955864,-5.042332 l 1.743371,-0.853096 h 60.192711 60.1927 l 1.74337,0.853096 c 2.09966,1.027442 3.96237,2.922653 4.95587,5.042332 l 0.7091,1.512905 0.0699,36.233598 c 0.0627,32.51461 0.0265,36.38442 -0.35224,37.70312 -1.0459,3.64129 -3.95927,6.32533 -7.73428,7.12547 -2.11644,0.4486 -117.687296,0.37631 -119.512497,-0.0747 z"
         id="path5757" /><path
         style="fill:#fef2b9"
         d="m 42.848837,148.99722 c -3.627984,-0.89658 -6.375846,-3.5181 -7.390529,-7.05072 -0.378773,-1.3187 -0.414927,-5.18851 -0.352242,-37.70312 l 0.06985,-36.233598 0.709098,-1.512905 c 0.993494,-2.119679 2.856205,-4.01489 4.955864,-5.042332 l 1.743371,-0.853096 h 60.192711 60.1927 l 1.74337,0.853096 c 2.09966,1.027442 3.96237,2.922653 4.95587,5.042332 l 0.7091,1.512905 0.0698,36.311488 c 0.0696,36.17384 0.0677,36.31768 -0.48072,37.94576 -1.22188,3.6271 -3.8945,6.01831 -7.60577,6.80494 -2.11644,0.4486 -117.687296,0.37631 -119.512497,-0.0747 z"
         id="path5756" /><path
         style="fill:#e2e2e5"
         d="m 42.848837,148.99722 c -3.567089,-0.88153 -6.074607,-3.20541 -7.262017,-6.73019 -0.548462,-1.62808 -0.550285,-1.77192 -0.480725,-37.94576 l 0.06982,-36.311488 0.709098,-1.512905 c 0.993494,-2.119679 2.856205,-4.01489 4.955864,-5.042332 l 1.743371,-0.853096 h 60.192712 60.19269 l 1.74337,0.853096 c 2.09966,1.027442 3.96237,2.922653 4.95587,5.042332 l 0.7091,1.512905 0.0698,36.311488 c 0.0696,36.17384 0.0677,36.31768 -0.48072,37.94576 -1.22188,3.6271 -3.8945,6.01831 -7.60577,6.80494 -2.11644,0.4486 -117.687287,0.37631 -119.512488,-0.0747 z"
         id="path5755" /><path
         style="fill:#e2e2e4"
         d="m 42.848837,148.99722 c -3.567089,-0.88153 -6.074607,-3.20541 -7.262017,-6.73019 -0.548462,-1.62808 -0.550285,-1.77192 -0.480725,-37.94576 l 0.06982,-36.311488 0.709098,-1.512905 c 0.985438,-2.102491 2.781853,-3.929525 4.917435,-5.001247 l 1.7818,-0.894181 h 60.060422 60.0604 l 1.52047,0.613992 c 2.12239,0.857058 4.2131,2.843866 5.28617,5.023466 l 0.86628,1.759564 0.0698,36.317139 c 0.0696,36.17957 0.0677,36.32333 -0.48072,37.95142 -1.22188,3.6271 -3.8945,6.01831 -7.60577,6.80494 -2.11644,0.4486 -117.687287,0.37631 -119.512488,-0.0747 z"
         id="path5754" /><path
         style="fill:#fef1b7"
         d="m 42.848837,148.99722 c -3.567089,-0.88153 -6.074607,-3.20541 -7.262017,-6.73019 -0.548462,-1.62808 -0.550285,-1.77192 -0.480725,-37.94576 l 0.06982,-36.311488 0.7039,-1.501549 c 1.306636,-2.787301 3.612279,-4.75467 6.58497,-5.618855 1.32558,-0.385356 6.978248,-0.418461 60.850815,-0.356374 l 59.38947,0.06845 1.52047,0.613992 c 2.12239,0.857058 4.2131,2.843866 5.28617,5.023466 l 0.86628,1.759564 0.0698,36.317144 c 0.0696,36.17956 0.0677,36.32332 -0.48072,37.95142 -1.22188,3.6271 -3.8945,6.0183 -7.60577,6.80493 -2.11644,0.4486 -117.687287,0.37631 -119.512488,-0.0747 z"
         id="path5753" /><path
         style="fill:#fef1b5"
         d="m 42.777439,148.95894 c -3.661306,-0.98571 -6.002255,-3.1643 -7.190619,-6.69191 -0.548462,-1.62808 -0.550285,-1.77192 -0.480725,-37.94576 l 0.06982,-36.311488 0.7039,-1.501549 c 1.306636,-2.787301 3.612279,-4.75467 6.58497,-5.618855 1.32558,-0.385356 6.978248,-0.418461 60.850815,-0.356374 l 59.38947,0.06845 1.52047,0.613992 c 2.12248,0.857092 4.21311,2.843868 5.28617,5.023558 l 0.86628,1.759656 v 36.78265 36.78264 l -0.8399,1.77289 c -1.43192,3.02261 -3.97628,5.05575 -7.17677,5.73483 -1.01538,0.21544 -17.50774,0.29269 -59.79583,0.28008 -49.548626,-0.0148 -58.604944,-0.0743 -59.788056,-0.3928 z"
         id="path5752" /><path
         style="fill:#e0e0e3"
         d="m 42.782869,148.96033 c -3.168528,-0.85321 -5.376374,-2.68795 -6.767056,-5.62349 l -0.839893,-1.7729 V 104.78686 68.009782 l 0.7039,-1.501549 c 1.306636,-2.787301 3.612279,-4.75467 6.58497,-5.618855 1.32558,-0.385356 6.978248,-0.418461 60.85081,-0.356374 l 59.38948,0.06845 1.52047,0.613992 c 2.12248,0.857092 4.21311,2.843868 5.28617,5.023558 l 0.86628,1.759656 v 36.78265 36.78264 l -0.8399,1.77289 c -1.43192,3.02261 -3.97628,5.05575 -7.17677,5.73483 -1.01538,0.21544 -17.50774,0.29269 -59.79583,0.28008 -49.446661,-0.0147 -58.606552,-0.0747 -59.782631,-0.39141 z"
         id="path5751" /><path
         style="fill:#fef0b2"
         d="m 42.782869,148.96033 c -3.168528,-0.85321 -5.376374,-2.68795 -6.767056,-5.62349 l -0.839893,-1.7729 V 104.78686 68.009782 l 0.697221,-1.486961 c 1.284999,-2.740515 3.701718,-4.80849 6.588295,-5.637575 1.322528,-0.379858 7.228702,-0.414045 60.854164,-0.352242 l 59.38948,0.06845 1.52047,0.613992 c 2.12248,0.857092 4.21311,2.843868 5.28617,5.023558 l 0.86628,1.759656 v 36.78265 36.78264 l -0.8399,1.77289 c -1.43192,3.02261 -3.97628,5.05575 -7.17677,5.73483 -1.01538,0.21544 -17.50774,0.29269 -59.79583,0.28008 -49.446661,-0.0147 -58.606552,-0.0747 -59.782631,-0.39141 z"
         id="path5750" /><path
         style="fill:#dfdfe1"
         d="m 42.782869,148.96033 c -3.168528,-0.85321 -5.376374,-2.68795 -6.767056,-5.62349 l -0.839893,-1.7729 V 104.78686 68.009782 l 0.697221,-1.486961 c 1.284999,-2.740515 3.701718,-4.80849 6.588295,-5.637575 1.322528,-0.379858 7.228702,-0.414045 60.854164,-0.352242 l 59.38948,0.06845 1.52047,0.613992 c 2.1225,0.8571 4.21312,2.843868 5.28617,5.023582 l 0.86628,1.759679 v 36.782623 36.78262 l -0.8399,1.77289 c -1.43192,3.02261 -3.97628,5.05575 -7.17677,5.73483 -1.01538,0.21544 -17.50774,0.29269 -59.79583,0.28008 -49.446661,-0.0147 -58.606552,-0.0747 -59.782631,-0.39141 z"
         id="path5749" /><path
         style="fill:#fef0b0"
         d="m 42.782869,148.96033 c -3.168528,-0.85321 -5.376374,-2.68795 -6.767056,-5.62349 l -0.839893,-1.7729 V 104.78686 68.009782 l 0.697221,-1.486961 c 1.278309,-2.726246 3.684561,-4.79241 6.560697,-5.633437 1.293881,-0.378352 7.306994,-0.420227 60.343122,-0.420227 53.36456,0 59.04123,0.04005 60.34312,0.425747 2.96312,0.877846 5.25382,2.839769 6.55402,5.613329 l 0.7039,1.501549 v 36.777078 36.77708 l -0.8399,1.7729 c -1.43192,3.0226 -3.97628,5.05575 -7.17677,5.73482 -1.01538,0.21544 -17.50774,0.29269 -59.79583,0.28008 -49.446661,-0.0147 -58.606552,-0.0747 -59.782631,-0.39141 z"
         id="path5748" /><path
         style="fill:#dddde0"
         d="m 42.782869,148.96033 c -3.168528,-0.85321 -5.376374,-2.68795 -6.767056,-5.62349 l -0.839893,-1.7729 V 104.78686 68.009782 l 0.697221,-1.486961 c 1.278309,-2.726246 3.684561,-4.79241 6.560697,-5.633437 1.293881,-0.378352 7.306994,-0.420227 60.343122,-0.420227 53.36456,0 59.04123,0.04005 60.34312,0.425747 2.96312,0.877846 5.25382,2.839769 6.55402,5.613329 l 0.7039,1.501549 v 36.777078 36.77708 l -0.8399,1.7729 c -1.43192,3.0226 -3.97628,5.05575 -7.17677,5.73482 -1.01538,0.21544 -17.50774,0.29269 -59.79583,0.28008 -49.446661,-0.0147 -58.606552,-0.0747 -59.782631,-0.39141 z"
         id="path5747" /><path
         style="fill:#feefac"
         d="m 42.782869,148.96033 c -3.168528,-0.85321 -5.376374,-2.68795 -6.767056,-5.62349 l -0.839893,-1.7729 V 104.78686 68.009782 l 0.697221,-1.486961 c 1.278309,-2.726246 3.684561,-4.79241 6.560697,-5.633437 1.293881,-0.378352 7.306994,-0.420227 60.343122,-0.420227 53.03613,0 59.04924,0.04187 60.34312,0.420227 2.87613,0.841027 5.28239,2.907191 6.5607,5.633437 l 0.69722,1.486961 v 36.777078 36.77708 l -0.8399,1.7729 c -1.43192,3.0226 -3.97628,5.05575 -7.17677,5.73482 -1.01538,0.21544 -17.50774,0.29269 -59.79583,0.28008 -49.446661,-0.0147 -58.606552,-0.0747 -59.782631,-0.39141 z"
         id="path5746" /><path
         style="fill:#feefaa"
         d="m 42.782869,148.96033 c -3.168528,-0.85321 -5.376374,-2.68795 -6.767056,-5.62349 l -0.839893,-1.7729 V 104.78686 68.009782 l 0.697221,-1.486961 c 1.278309,-2.726246 3.684561,-4.79241 6.560697,-5.633437 1.293881,-0.378352 7.306994,-0.420227 60.343122,-0.420227 53.03613,0 59.04924,0.04187 60.34312,0.420227 2.87613,0.841027 5.28239,2.907191 6.5607,5.633437 l 0.69722,1.486961 v 36.777078 36.77708 l -0.8399,1.7729 c -1.41483,2.98652 -3.60996,4.78482 -6.88054,5.6367 -2.22415,0.57932 -117.721515,0.56659 -119.874691,-0.0132 z"
         id="path5745" /><path
         style="fill:#feeea7"
         d="m 43.292356,149.08605 c -3.18048,-0.6259 -5.847815,-2.73336 -7.276543,-5.74921 l -0.839893,-1.7729 V 104.78686 68.009782 l 0.697221,-1.486961 c 1.278309,-2.726246 3.684561,-4.79241 6.560697,-5.633437 1.293881,-0.378352 7.306994,-0.420227 60.343122,-0.420227 53.03613,0 59.04924,0.04187 60.34312,0.420227 2.87613,0.841027 5.28239,2.907191 6.5607,5.633437 l 0.69722,1.486961 v 36.777078 36.77708 l -0.8399,1.7729 c -1.47419,3.11182 -4.08136,5.12044 -7.4838,5.7657 -1.74424,0.33079 -117.078623,0.31477 -118.761944,-0.0165 z"
         id="path5744" /><path
         style="fill:#feeea6"
         d="m 43.292356,149.08605 c -3.18048,-0.6259 -5.847815,-2.73336 -7.276543,-5.74921 l -0.839893,-1.7729 V 104.78686 68.009782 l 0.697221,-1.486961 c 1.278309,-2.726246 3.684561,-4.79241 6.560697,-5.633437 1.293881,-0.378352 7.306994,-0.420227 60.343122,-0.420227 53.03613,0 59.04924,0.04187 60.34312,0.420227 2.87613,0.841027 5.28239,2.907191 6.5607,5.633437 l 0.69722,1.486961 v 36.777078 36.77708 l -0.8399,1.7729 c -1.45242,3.06588 -4.13486,5.13725 -7.46445,5.76403 -1.76537,0.33232 -117.090394,0.31793 -118.781294,-0.0148 z"
         id="path5743" /><path
         style="fill:#feeea4"
         d="m 43.257698,149.08013 c -3.105603,-0.60878 -5.834862,-2.77326 -7.241885,-5.74329 l -0.839893,-1.7729 V 104.78686 68.009782 l 0.697221,-1.486961 c 1.278309,-2.726246 3.684561,-4.79241 6.560697,-5.633437 1.293881,-0.378352 7.306994,-0.420227 60.343122,-0.420227 53.03613,0 59.04924,0.04187 60.34312,0.420227 2.87613,0.841027 5.28239,2.907191 6.5607,5.633437 l 0.69722,1.486961 v 36.777078 36.77708 l -0.8399,1.7729 c -1.45242,3.06588 -4.13486,5.13725 -7.46445,5.76403 -1.78539,0.33609 -117.098286,0.31597 -118.815952,-0.0207 z"
         id="path5742" /><path
         style="fill:#feeda3"
         d="m 43.257698,149.08013 c -3.105603,-0.60878 -5.834862,-2.77326 -7.241885,-5.74329 l -0.839893,-1.7729 V 104.78686 68.009782 l 0.697221,-1.486961 c 1.278309,-2.726246 3.684561,-4.79241 6.560697,-5.633437 1.293881,-0.378352 7.306994,-0.420227 60.343122,-0.420227 53.03613,0 59.04924,0.04187 60.34312,0.420227 2.87613,0.841027 5.28239,2.907191 6.5607,5.633437 l 0.69722,1.486961 v 36.777078 36.77708 l -0.84287,1.77927 c -1.43585,3.03099 -4.16527,5.13716 -7.46148,5.75766 -1.78539,0.33609 -117.098286,0.31597 -118.815952,-0.0207 z"
         id="path5741" /><path
         style="fill:#feeda1"
         d="m 43.257698,149.08013 c -3.071658,-0.60212 -5.849232,-2.80338 -7.238907,-5.73692 L 35.17592,141.56394 V 104.78686 68.009782 l 0.697221,-1.486961 c 1.278309,-2.726246 3.684561,-4.79241 6.560697,-5.633437 1.293881,-0.378352 7.306994,-0.420227 60.343122,-0.420227 53.03613,0 59.04924,0.04187 60.34312,0.420227 2.87613,0.841027 5.28239,2.907191 6.5607,5.633437 l 0.69722,1.486961 v 36.777078 36.77708 l -0.84287,1.77927 c -1.43585,3.03099 -4.16527,5.13716 -7.46148,5.75766 -1.78539,0.33609 -117.098286,0.31597 -118.815952,-0.0207 z"
         id="path5740" /><path
         style="fill:#feed9f"
         d="m 43.257698,149.08013 c -3.050886,-0.59805 -5.868021,-2.84498 -7.266382,-5.79564 L 35.17592,141.56394 V 104.78686 68.009782 l 0.697221,-1.486961 c 1.278309,-2.726246 3.684561,-4.79241 6.560697,-5.633437 1.293881,-0.378352 7.306994,-0.420227 60.343122,-0.420227 53.03613,0 59.04924,0.04187 60.34312,0.420227 2.87613,0.841027 5.28239,2.907191 6.5607,5.633437 l 0.69722,1.486961 v 36.777078 36.77708 l -0.84287,1.77927 c -1.43585,3.03099 -4.16527,5.13716 -7.46148,5.75766 -1.78539,0.33609 -117.098286,0.31597 -118.815952,-0.0207 z"
         id="path5739" /><path
         style="fill:#d7d7da"
         d="m 43.41782,149.09162 c -3.091418,-0.51872 -5.996977,-2.79071 -7.426504,-5.80713 L 35.17592,141.56394 V 104.78686 68.009782 l 0.697221,-1.486961 c 1.278309,-2.726246 3.684561,-4.79241 6.560697,-5.633437 1.293881,-0.378352 7.306994,-0.420227 60.343122,-0.420227 53.03613,0 59.04924,0.04187 60.34312,0.420227 2.87613,0.841027 5.28239,2.907191 6.5607,5.633437 l 0.69722,1.486961 v 36.777078 36.77708 l -0.84287,1.77927 c -1.47159,3.10644 -4.26131,5.2123 -7.63733,5.76514 -1.92986,0.31602 -116.593384,0.29983 -118.47998,-0.0167 z"
         id="path5738" /><path
         style="fill:#feec9e"
         d="m 43.41782,149.09162 c -3.091418,-0.51872 -5.996977,-2.79071 -7.426504,-5.80713 L 35.17592,141.56394 V 104.78686 68.009782 l 0.600371,-1.30184 c 1.281385,-2.778545 3.630354,-4.864564 6.47456,-5.749781 1.508346,-0.46945 3.927652,-0.489004 60.501659,-0.489004 53.05846,0 59.07368,0.04187 60.36757,0.420227 2.87613,0.841027 5.28239,2.907191 6.5607,5.633437 l 0.69722,1.486961 v 36.777078 36.77708 l -0.84287,1.77927 c -1.47159,3.10644 -4.26131,5.2123 -7.63733,5.76514 -1.92986,0.31602 -116.593384,0.29983 -118.47998,-0.0167 z"
         id="path5737" /><path
         style="fill:#feec9d"
         d="m 43.41782,149.09162 c -3.091418,-0.51872 -5.996977,-2.79071 -7.426504,-5.80713 L 35.17592,141.56394 V 104.78686 68.009782 l 0.600371,-1.30184 c 1.281385,-2.778545 3.630354,-4.864564 6.47456,-5.749781 1.508346,-0.46945 3.927652,-0.489004 60.501659,-0.489004 53.05846,0 59.07368,0.04187 60.36757,0.420227 2.87613,0.841027 5.28239,2.907191 6.5607,5.633437 l 0.69722,1.486961 v 36.777078 36.77708 l -0.8154,1.72055 c -1.48187,3.12687 -4.30792,5.27415 -7.6648,5.82386 -1.92986,0.31602 -116.593384,0.29983 -118.47998,-0.0167 z"
         id="path5736" /><path
         style="fill:#d6d6d8"
         d="m 43.41782,149.09162 c -3.091418,-0.51872 -5.996977,-2.79071 -7.426504,-5.80713 L 35.17592,141.56394 V 104.78686 68.009782 l 0.600371,-1.30184 c 1.281385,-2.778545 3.630354,-4.864564 6.47456,-5.749781 1.508346,-0.46945 3.927652,-0.489004 60.501659,-0.489004 53.05846,0 59.07368,0.04187 60.36757,0.420227 2.87613,0.841027 5.28239,2.907191 6.5607,5.633437 l 0.69722,1.486961 0.0814,35.851038 c 0.0608,26.76611 0.002,36.2198 -0.23007,37.30625 -0.8923,4.16914 -4.12756,7.25286 -8.33151,7.94128 -1.92986,0.31602 -116.593384,0.29983 -118.47998,-0.0167 z"
         id="path5735" /><path
         style="fill:#feec99"
         d="m 43.41782,149.09162 c -3.091418,-0.51872 -5.996977,-2.79071 -7.426504,-5.80713 L 35.17592,141.56394 V 104.78686 68.009782 l 0.600371,-1.30184 c 1.281385,-2.778545 3.630354,-4.864564 6.47456,-5.749781 1.508354,-0.469452 3.928322,-0.489004 60.526109,-0.489004 56.59778,0 59.01775,0.01955 60.52611,0.489004 2.8442,0.885217 5.19317,2.971236 6.47456,5.749781 l 0.60037,1.30184 0.0814,35.851038 c 0.0608,26.76611 0.002,36.2198 -0.23007,37.30625 -0.8923,4.16914 -4.12756,7.25286 -8.33151,7.94128 -1.92986,0.31602 -116.593384,0.29983 -118.47998,-0.0167 z"
         id="path5734" /><path
         style="fill:#feec98"
         d="m 43.41782,149.09162 c -3.943546,-0.66171 -7.226842,-3.87658 -8.093216,-7.92455 -0.232528,-1.08645 -0.290829,-10.54014 -0.230068,-37.30625 l 0.08138,-35.851038 0.600371,-1.30184 c 1.281385,-2.778545 3.630354,-4.864564 6.47456,-5.749781 1.508354,-0.469452 3.928322,-0.489004 60.526113,-0.489004 56.59778,0 59.01775,0.01955 60.52611,0.489004 2.8442,0.885217 5.19317,2.971236 6.47456,5.749781 l 0.60037,1.30184 0.0786,35.718748 c 0.057,25.93095 -0.004,36.15135 -0.22303,37.29743 -0.80742,4.2264 -4.0626,7.38264 -8.33573,8.08239 -1.92986,0.31602 -116.593388,0.29983 -118.479984,-0.0167 z"
         id="path5733" /><path
         style="fill:#feeb97"
         d="m 43.41782,149.09162 c -3.919536,-0.65768 -7.232117,-3.90122 -8.093216,-7.92455 -0.232528,-1.08645 -0.290829,-10.54014 -0.230068,-37.30625 l 0.08138,-35.851038 0.600371,-1.30184 c 1.281385,-2.778545 3.630354,-4.864564 6.47456,-5.749781 1.508354,-0.469452 3.928322,-0.489004 60.526113,-0.489004 56.59778,0 59.01775,0.01955 60.52611,0.489004 2.8442,0.885217 5.19317,2.971236 6.47456,5.749781 l 0.60037,1.30184 0.0786,35.718748 c 0.057,25.93095 -0.004,36.15135 -0.22303,37.29743 -0.80742,4.2264 -4.0626,7.38264 -8.33573,8.08239 -1.92986,0.31602 -116.593388,0.29983 -118.479984,-0.0167 z"
         id="path5732" /><path
         style="fill:#feeb96"
         d="m 43.41782,149.09162 c -2.822468,-0.4736 -5.888401,-2.72283 -7.176555,-5.26488 -0.340606,-0.67215 -0.755002,-1.9325 -0.92088,-2.80078 -0.218953,-1.14608 -0.280068,-11.36648 -0.223031,-37.29743 l 0.07857,-35.718748 0.600371,-1.30184 c 1.281385,-2.778545 3.630354,-4.864564 6.47456,-5.749781 1.508354,-0.469452 3.928322,-0.489004 60.526105,-0.489004 56.59778,0 59.01775,0.01955 60.52611,0.489004 2.8442,0.885217 5.19317,2.971236 6.47456,5.749781 l 0.60037,1.30184 0.0786,35.718748 c 0.057,25.93095 -0.004,36.15135 -0.22303,37.29743 -0.81995,4.29196 -4.14581,7.46102 -8.48915,8.08894 -2.09387,0.3027 -116.517928,0.28019 -118.326556,-0.0233 z"
         id="path5731" /><path
         style="fill:#feeb95"
         d="m 43.570592,149.10204 c -1.910019,-0.28163 -3.955189,-1.33726 -5.454483,-2.81538 -1.514021,-1.49263 -2.391189,-3.1432 -2.795724,-5.2607 -0.218953,-1.14608 -0.280068,-11.36648 -0.223031,-37.29743 l 0.07857,-35.718748 0.600371,-1.30184 c 1.281385,-2.778545 3.630354,-4.864564 6.47456,-5.749781 1.508354,-0.469452 3.928322,-0.489004 60.526105,-0.489004 56.59778,0 59.01775,0.01955 60.52611,0.489004 2.8442,0.885217 5.19317,2.971236 6.47456,5.749781 l 0.60037,1.30184 v 36.512498 c 0,28.65634 -0.0719,36.74908 -0.33422,37.61205 -0.83719,2.75431 -3.4585,5.46538 -6.41266,6.63225 -1.12733,0.44528 -4.31293,0.47216 -59.92812,0.50571 -32.305619,0.0195 -59.365203,-0.0571 -60.132404,-0.17025 z"
         id="path5730" /><path
         style="fill:#feeb94"
         d="m 43.570592,149.10204 c -1.910019,-0.28163 -3.955189,-1.33726 -5.454483,-2.81538 -1.514021,-1.49263 -2.391189,-3.1432 -2.795724,-5.2607 -0.218953,-1.14608 -0.280068,-11.36648 -0.223031,-37.29743 l 0.07857,-35.718748 0.600371,-1.30184 c 1.281385,-2.778545 3.630354,-4.864564 6.47456,-5.749781 1.508354,-0.469452 3.928322,-0.489004 60.526105,-0.489004 56.59778,0 59.01775,0.01955 60.52611,0.489004 2.8442,0.885217 5.19317,2.971236 6.47456,5.749781 l 0.60037,1.30184 v 36.512498 c 0,34.41125 -0.0273,36.59064 -0.4739,37.87028 -0.96153,2.75494 -3.22942,5.11387 -6.00839,6.24958 l -1.45521,0.59472 -58.7375,0.0354 c -32.305619,0.0195 -59.365203,-0.0571 -60.132404,-0.17025 z"
         id="path5729" /><path
         style="fill:#feea94"
         d="m 43.570592,149.10204 c -4.021457,-0.59296 -7.476678,-3.97103 -8.251515,-8.06726 -0.217193,-1.1482 -0.278548,-11.47169 -0.221723,-37.30625 l 0.07857,-35.718748 0.600371,-1.30184 c 1.281385,-2.778545 3.630354,-4.864564 6.47456,-5.749781 1.508354,-0.469452 3.928322,-0.489004 60.526105,-0.489004 56.59778,0 59.01775,0.01955 60.52611,0.489004 2.8442,0.885217 5.19317,2.971236 6.47456,5.749781 l 0.60037,1.30184 v 36.512498 c 0,34.41125 -0.0273,36.59064 -0.4739,37.87028 -0.96153,2.75494 -3.22942,5.11387 -6.00839,6.24958 l -1.45521,0.59472 -58.7375,0.0354 c -32.305619,0.0195 -59.365203,-0.0571 -60.132404,-0.17025 z"
         id="path5728" /><path
         style="fill:#d2d2d6"
         d="m 43.570592,149.10176 c -4.020821,-0.59207 -7.476654,-3.97062 -8.251515,-8.06698 -0.217193,-1.1482 -0.278548,-11.47169 -0.221723,-37.30625 l 0.07857,-35.718748 0.600371,-1.30184 c 1.281385,-2.778545 3.630354,-4.864564 6.47456,-5.749781 1.508354,-0.469452 3.928322,-0.489004 60.526105,-0.489004 56.59778,0 59.01775,0.01955 60.52611,0.489004 2.8442,0.885217 5.19317,2.971236 6.47456,5.749781 l 0.60037,1.30184 v 36.512498 c 0,34.41125 -0.0273,36.59064 -0.4739,37.87028 -0.9894,2.8348 -3.57374,5.42599 -6.3605,6.37738 -1.28949,0.44023 -4.71833,0.46893 -59.97289,0.50207 -32.23286,0.0193 -59.232913,-0.0573 -60.000114,-0.17025 z"
         id="path5727" /><path
         style="fill:#feea92"
         d="m 43.570592,149.10176 c -4.020821,-0.59207 -7.476654,-3.97062 -8.251515,-8.06698 -0.217193,-1.1482 -0.278548,-11.47169 -0.221723,-37.30625 l 0.07857,-35.718748 0.600371,-1.30184 c 0.825528,-1.790068 2.253684,-3.463093 3.865394,-4.528148 2.774575,-1.833503 -1.760107,-1.710637 63.135271,-1.710637 64.89538,0 60.3607,-0.122866 63.13527,1.710637 1.61171,1.065055 3.03987,2.73808 3.8654,4.528148 l 0.60037,1.30184 v 36.512498 c 0,34.41125 -0.0273,36.59064 -0.4739,37.87028 -0.9894,2.8348 -3.57374,5.42599 -6.3605,6.37738 -1.28949,0.44023 -4.71833,0.46893 -59.97289,0.50207 -32.23286,0.0193 -59.232913,-0.0573 -60.000114,-0.17025 z"
         id="path5726" /><path
         style="fill:#feea8f"
         d="m 43.510295,149.07104 c -3.917521,-0.64689 -7.048707,-3.57262 -8.063724,-7.53462 -0.362693,-1.41573 -0.402284,-5.783 -0.340529,-37.56431 l 0.06988,-35.962328 0.600371,-1.30184 c 0.825528,-1.790068 2.253684,-3.463093 3.865394,-4.528148 2.774575,-1.833503 -1.760107,-1.710637 63.135273,-1.710637 64.89538,0 60.3607,-0.122866 63.13527,1.710637 1.61171,1.065055 3.03987,2.73808 3.8654,4.528148 l 0.60037,1.30184 v 36.644788 36.64479 l -0.57527,1.4032 c -1.14427,2.79114 -3.58312,5.15229 -6.27054,6.07077 -1.27492,0.43573 -4.87175,0.46576 -59.96148,0.50077 -34.073194,0.0216 -59.214352,-0.0634 -60.060413,-0.20306 z"
         id="path5725" /><path
         style="fill:#d0d0d4"
         d="m 43.649629,149.07674 c -3.987891,-0.58663 -7.171257,-3.5128 -8.203058,-7.54032 -0.362693,-1.41573 -0.402284,-5.783 -0.340529,-37.56431 l 0.06988,-35.962328 0.600371,-1.30184 c 0.825528,-1.790068 2.253684,-3.463093 3.865394,-4.528148 2.774575,-1.833503 -1.760107,-1.710637 63.135273,-1.710637 64.89538,0 60.3607,-0.122866 63.13527,1.710637 1.61171,1.065055 3.03987,2.73808 3.8654,4.528148 l 0.60037,1.30184 v 36.644788 36.64479 l -0.57527,1.4032 c -1.14427,2.79114 -3.58312,5.15229 -6.27054,6.07077 -1.27492,0.43573 -4.86389,0.4657 -59.82919,0.49971 -32.444099,0.0201 -59.176441,-0.0673 -60.053369,-0.1963 z"
         id="path5724" /><path
         style="fill:#fee989"
         d="m 43.649629,149.07674 c -3.987891,-0.58663 -7.171257,-3.5128 -8.203058,-7.54032 -0.362693,-1.41573 -0.402284,-5.783 -0.340529,-37.56431 l 0.06988,-35.962328 0.718639,-1.463256 c 0.928942,-1.891463 2.256982,-3.428123 3.841403,-4.444843 2.718093,-1.744195 -1.594112,-1.632526 63.040996,-1.632526 64.89538,0 60.3607,-0.122866 63.13527,1.710637 1.61171,1.065055 3.03987,2.73808 3.8654,4.528148 l 0.60037,1.30184 v 36.644788 36.64479 l -0.57527,1.4032 c -1.14427,2.79114 -3.58312,5.15229 -6.27054,6.07077 -1.27492,0.43573 -4.86389,0.4657 -59.82919,0.49971 -32.444099,0.0201 -59.176441,-0.0673 -60.053369,-0.1963 z"
         id="path5723" /><path
         style="fill:#cfcfd2"
         d="m 43.649629,149.07444 c -3.983385,-0.58017 -7.17095,-3.50931 -8.203058,-7.53802 -0.362693,-1.41573 -0.402284,-5.783 -0.340529,-37.56431 l 0.06988,-35.962328 0.718639,-1.463256 c 0.928942,-1.891463 2.256982,-3.428123 3.841403,-4.444843 2.718093,-1.744195 -1.594112,-1.632526 63.040996,-1.632526 64.89538,0 60.3607,-0.122866 63.13527,1.710637 1.61171,1.065055 3.03987,2.73808 3.8654,4.528148 l 0.60037,1.30184 v 36.644788 36.64479 l -0.61775,1.53051 c -0.79281,1.96424 -3.0703,4.44748 -4.89152,5.33343 -0.75344,0.36652 -2.20334,0.78542 -3.22198,0.93089 -2.32104,0.33145 -115.716101,0.31247 -117.997119,-0.0197 z"
         id="path5722" /><path
         style="fill:#fee988"
         d="m 43.649629,149.07444 c -3.983385,-0.58017 -7.17095,-3.50931 -8.203058,-7.53802 -0.362693,-1.41573 -0.402284,-5.783 -0.340529,-37.56431 l 0.06988,-35.962328 0.718639,-1.463256 c 0.928942,-1.891463 2.256982,-3.428123 3.841403,-4.444843 2.718093,-1.744195 -1.594112,-1.632526 63.040996,-1.632526 64.63511,0 60.3229,-0.111669 63.04099,1.632526 1.58443,1.01672 2.91247,2.55338 3.84141,4.444843 l 0.71864,1.463256 v 36.644788 36.64479 l -0.61775,1.53051 c -0.79281,1.96424 -3.0703,4.44748 -4.89152,5.33343 -0.75344,0.36652 -2.20334,0.78542 -3.22198,0.93089 -2.32104,0.33145 -115.716101,0.31247 -117.997119,-0.0197 z"
         id="path5721" /><path
         style="fill:#fee887"
         d="m 43.649629,149.07444 c -0.869252,-0.12661 -2.200082,-0.53334 -2.9574,-0.90386 -1.829466,-0.89508 -4.106002,-3.3771 -4.898563,-5.34071 L 35.17592,141.29936 V 104.65457 68.009782 l 0.718639,-1.463256 c 0.928942,-1.891463 2.256982,-3.428123 3.841403,-4.444843 2.718093,-1.744195 -1.594112,-1.632526 63.040998,-1.632526 64.63511,0 60.3229,-0.111669 63.04099,1.632526 1.58443,1.01672 2.91247,2.55338 3.84141,4.444843 l 0.71864,1.463256 v 36.644788 36.64479 l -0.61775,1.53051 c -0.79281,1.96424 -3.0703,4.44748 -4.89152,5.33343 -0.75344,0.36652 -2.20334,0.78542 -3.22198,0.93089 -2.32104,0.33145 -115.716103,0.31247 -117.997121,-0.0197 z"
         id="path5720" /><path
         style="fill:#fee886"
         d="m 43.650916,149.0746 c -0.868544,-0.12652 -2.217779,-0.55313 -2.998302,-0.94804 -1.870086,-0.94618 -4.071627,-3.34606 -4.858948,-5.29669 L 35.17592,141.29936 V 104.65457 68.009782 l 0.718639,-1.463256 c 0.928942,-1.891463 2.256982,-3.428123 3.841403,-4.444843 2.718093,-1.744195 -1.594112,-1.632526 63.040998,-1.632526 64.63511,0 60.3229,-0.111669 63.04099,1.632526 1.58443,1.01672 2.91247,2.55338 3.84141,4.444843 l 0.71864,1.463256 v 36.644788 36.64479 l -0.61775,1.53051 c -0.81125,2.00993 -3.07316,4.45475 -4.93742,5.33668 -0.77881,0.36844 -2.22875,0.78739 -3.22209,0.931 -2.27041,0.32825 -115.690275,0.30618 -117.949824,-0.023 z"
         id="path5719" /><path
         style="fill:#fee885"
         d="m 43.71246,149.08229 c -3.342097,-0.48964 -6.64558,-3.09796 -7.918794,-6.25242 L 35.17592,141.29936 V 104.65457 68.009782 l 0.718639,-1.463256 c 0.928942,-1.891463 2.256982,-3.428123 3.841403,-4.444843 2.718093,-1.744195 -1.594112,-1.632526 63.040998,-1.632526 64.63511,0 60.3229,-0.111669 63.04099,1.632526 1.58443,1.01672 2.91247,2.55338 3.84141,4.444843 l 0.71864,1.463256 v 36.644788 36.64479 l -0.61775,1.53051 c -0.81125,2.00993 -3.07316,4.45475 -4.93742,5.33668 -0.77881,0.36844 -2.22875,0.78739 -3.22209,0.931 -2.23681,0.32339 -115.676958,0.3087 -117.88828,-0.0153 z"
         id="path5718" /><path
         style="fill:#ccccd0"
         d="m 41.943724,148.67103 c -2.643808,-0.92819 -5.114904,-3.28085 -6.158269,-5.86311 L 35.17592,141.29936 V 104.65457 68.009782 l 0.718639,-1.463256 c 0.928942,-1.891463 2.256982,-3.428123 3.841403,-4.444843 2.718093,-1.744195 -1.594112,-1.632526 63.040998,-1.632526 64.63511,0 60.3229,-0.111669 63.04099,1.632526 1.58443,1.01672 2.91247,2.55338 3.84141,4.444843 l 0.71864,1.463256 v 36.644788 36.64479 l -0.61775,1.53051 c -0.81743,2.02523 -3.06404,4.44218 -5.02371,5.4046 l -1.50229,0.73781 -60.06042,0.0547 c -53.696155,0.0489 -60.184356,0.0112 -61.230106,-0.35595 z"
         id="path5717" /><path
         style="fill:#fee782"
         d="m 41.943724,148.67103 c -2.643808,-0.92819 -5.114904,-3.28085 -6.158269,-5.86311 L 35.17592,141.29936 V 104.65457 68.009782 l 0.718639,-1.463256 c 0.928942,-1.891463 2.256982,-3.428123 3.841403,-4.444843 2.718578,-1.744506 -1.596399,-1.633189 63.030438,-1.626058 37.71352,0.0042 59.02066,0.09987 59.7512,0.268378 3.0146,0.695375 5.69131,2.841505 7.08209,5.678279 l 0.77831,1.5875 v 36.644788 36.64479 l -0.61775,1.53051 c -0.81743,2.02523 -3.06404,4.44218 -5.02371,5.4046 l -1.50229,0.73781 -60.06042,0.0547 c -53.696155,0.0489 -60.184356,0.0112 -61.230106,-0.35595 z"
         id="path5716" /><path
         style="fill:#fee780"
         d="m 41.943724,148.67103 c -2.643808,-0.92819 -5.114904,-3.28085 -6.158269,-5.86311 L 35.17592,141.29936 V 104.65457 68.009782 l 0.718639,-1.463256 c 0.928942,-1.891463 2.256982,-3.428123 3.841403,-4.444843 2.718578,-1.744506 -1.596399,-1.633189 63.030438,-1.626058 37.71352,0.0042 59.02066,0.09987 59.7512,0.268378 3.0146,0.695375 5.69131,2.841505 7.08209,5.678279 l 0.77831,1.5875 v 36.644788 36.64479 l -0.61775,1.53051 c -0.81151,2.01056 -2.98672,4.35062 -4.98407,5.3618 l -1.54193,0.78061 -60.06042,0.0547 c -53.696155,0.0489 -60.184356,0.0112 -61.230106,-0.35595 z"
         id="path5715" /><path
         style="fill:#cbcbcf"
         d="m 41.943724,148.67103 c -2.643808,-0.92819 -5.114904,-3.28085 -6.158269,-5.86311 L 35.17592,141.29936 V 104.65457 68.009782 l 0.718639,-1.463256 c 0.928942,-1.891463 2.256982,-3.428123 3.841403,-4.444843 2.718578,-1.744506 -1.596399,-1.633189 63.030438,-1.626058 37.71352,0.0042 59.02066,0.09987 59.7512,0.268378 3.0146,0.695375 5.69131,2.841505 7.08209,5.678279 l 0.77831,1.5875 v 36.644788 36.64479 l -0.61775,1.53051 c -0.81151,2.01056 -2.98672,4.35062 -4.98407,5.3618 l -1.54193,0.78061 -60.06042,0.0547 c -53.696155,0.0489 -60.184356,0.0112 -61.230106,-0.35595 z"
         id="path5714" /><path
         style="fill:#fee77f"
         d="m 41.943724,148.67103 c -2.643808,-0.92819 -5.114904,-3.28085 -6.158269,-5.86311 L 35.17592,141.29936 V 104.65457 68.009782 l 0.778305,-1.5875 c 1.390787,-2.836774 4.067494,-4.982904 7.082093,-5.678279 1.55804,-0.359391 117.923242,-0.359391 119.481282,0 3.0146,0.695375 5.69131,2.841505 7.08209,5.678279 l 0.77831,1.5875 v 36.644788 36.64479 l -0.61775,1.53051 c -0.81151,2.01056 -2.98672,4.35062 -4.98407,5.3618 l -1.54193,0.78061 -60.06042,0.0547 c -53.696155,0.0489 -60.184356,0.0112 -61.230106,-0.35595 z"
         id="path5713" /><path
         style="fill:#cacacf"
         d="m 41.943724,148.67103 c -2.643808,-0.92819 -5.114904,-3.28085 -6.158269,-5.86311 L 35.17592,141.29936 V 104.65457 68.009782 l 0.778305,-1.5875 c 1.390787,-2.836774 4.067494,-4.982904 7.082093,-5.678279 1.55804,-0.359391 117.923242,-0.359391 119.481282,0 3.0146,0.695375 5.69131,2.841505 7.08209,5.678279 l 0.77831,1.5875 v 36.644788 36.64479 l -0.61775,1.53051 c -0.81151,2.01056 -2.98672,4.35062 -4.98407,5.3618 l -1.54193,0.78061 -60.06042,0.0547 c -53.696155,0.0489 -60.184356,0.0112 -61.230106,-0.35595 z"
         id="path5712" /><path
         style="fill:#fee77e"
         d="m 41.943724,148.67103 c -2.643808,-0.92819 -5.114904,-3.28085 -6.158269,-5.86311 L 35.17592,141.29936 V 104.65457 68.009782 l 0.778305,-1.5875 c 1.390787,-2.836774 4.067494,-4.982904 7.082093,-5.678279 1.55804,-0.359391 117.923242,-0.359391 119.481282,0 3.0151,0.69549 5.69458,2.843603 7.0829,5.678279 l 0.7775,1.5875 v 36.644788 36.64479 l -0.61775,1.53051 c -0.81151,2.01056 -2.98672,4.35062 -4.98407,5.3618 l -1.54193,0.78061 -60.06042,0.0547 c -53.696155,0.0489 -60.184356,0.0112 -61.230106,-0.35595 z"
         id="path5711" /><path
         style="fill:#fee77d"
         d="m 41.943724,148.67103 c -2.643808,-0.92819 -5.114904,-3.28085 -6.158269,-5.86311 L 35.17592,141.29936 V 104.65457 68.009782 l 0.778305,-1.5875 c 1.390787,-2.836774 4.067494,-4.982904 7.082093,-5.678279 1.55804,-0.359391 117.923242,-0.359391 119.481282,0 3.0151,0.69549 5.69458,2.843603 7.0829,5.678279 l 0.7775,1.5875 v 36.644788 36.64479 l -0.614,1.52047 c -0.81201,2.01084 -2.88194,4.24548 -4.91893,5.31036 l -1.61082,0.84209 -60.06042,0.0547 c -53.696155,0.0489 -60.184356,0.0112 -61.230106,-0.35595 z"
         id="path5710" /><path
         style="fill:#fee679"
         d="m 42.451962,148.85779 c -2.791582,-0.8594 -5.597958,-3.40287 -6.66205,-6.03796 L 35.17592,141.29936 V 104.65457 68.009782 l 0.778305,-1.5875 c 1.390787,-2.836774 4.067494,-4.982904 7.082093,-5.678279 1.55804,-0.359391 117.923242,-0.359391 119.481282,0 3.0151,0.69549 5.69458,2.843603 7.0829,5.678279 l 0.7775,1.5875 v 36.644788 36.64479 l -0.614,1.52047 c -0.81201,2.01084 -2.88194,4.24548 -4.91893,5.31036 l -1.61082,0.84209 -60.06042,0.0446 c -33.033224,0.0245 -60.358066,-0.0471 -60.721868,-0.15906 z"
         id="path5709" /><path
         style="fill:#c8c8cc"
         d="m 42.172912,148.72199 c -2.979715,-1.10153 -5.317252,-3.26297 -6.383,-5.90216 L 35.17592,141.29936 V 104.65457 68.009782 l 0.778305,-1.5875 c 1.390787,-2.836774 4.067494,-4.982904 7.082093,-5.678279 1.55804,-0.359391 117.923242,-0.359391 119.481282,0 3.0151,0.69549 5.69458,2.843603 7.0829,5.678279 l 0.7775,1.5875 v 36.644788 36.64479 l -0.614,1.52047 c -0.81201,2.01084 -2.88194,4.24548 -4.91893,5.31036 l -1.61082,0.84209 -60.06042,0.0487 c -49.049391,0.0398 -60.232836,-0.015 -61.000918,-0.29898 z"
         id="path5708" /><path
         style="fill:#fee477"
         d="m 42.172912,148.72199 c -2.979715,-1.10153 -5.317252,-3.26297 -6.383,-5.90216 L 35.17592,141.29936 V 104.65457 68.009782 l 0.777497,-1.5875 c 1.388317,-2.834676 4.067803,-4.982789 7.082901,-5.678279 1.55804,-0.359391 117.923242,-0.359391 119.481282,0 3.0151,0.69549 5.69458,2.843603 7.0829,5.678279 l 0.7775,1.5875 v 36.644788 36.64479 l -0.614,1.52047 c -0.81201,2.01084 -2.88194,4.24548 -4.91893,5.31036 l -1.61082,0.84209 -60.06042,0.0487 c -49.049391,0.0398 -60.232836,-0.015 -61.000918,-0.29898 z"
         id="path5707" /><path
         style="fill:#fee575"
         d="m 41.873388,148.59616 c -2.828523,-1.10873 -5.050936,-3.22174 -6.087933,-5.78824 L 35.17592,141.29936 V 104.65457 68.009782 l 0.777497,-1.5875 c 1.388317,-2.834676 4.067803,-4.982789 7.082901,-5.678279 1.55804,-0.359391 117.923242,-0.359391 119.481282,0 3.0151,0.69549 5.69458,2.843603 7.0829,5.678279 l 0.7775,1.5875 v 36.644788 36.64479 l -0.614,1.52047 c -0.81201,2.01084 -2.88194,4.24548 -4.91893,5.31036 l -1.61082,0.84209 -60.06042,0.055 c -57.731117,0.0528 -60.108502,0.0361 -61.300442,-0.43109 z"
         id="path5706" /><path
         style="fill:#fee574"
         d="m 41.629758,148.4826 c -3.488131,-1.43704 -5.669002,-4.06134 -6.325259,-7.61136 -0.17525,-0.94801 -0.244133,-13.84288 -0.198486,-37.15666 l 0.06991,-35.704798 0.777497,-1.5875 c 1.388317,-2.834676 4.067803,-4.982789 7.082901,-5.678279 1.55804,-0.359391 117.923239,-0.359391 119.481279,0 3.0151,0.69549 5.69458,2.843603 7.0829,5.678279 l 0.7775,1.5875 0.0699,35.704798 c 0.0461,23.53446 -0.0225,36.20557 -0.20108,37.17395 -0.58744,3.18474 -2.76283,5.96788 -5.76425,7.37465 l -1.51291,0.7091 -59.92812,0.0608 -59.928117,0.0608 z"
         id="path5705" /><path
         style="fill:#c6c6ca"
         d="m 41.629758,148.4826 c -3.488131,-1.43704 -5.669002,-4.06134 -6.325259,-7.61136 -0.17525,-0.94801 -0.244133,-13.84288 -0.198486,-37.15666 l 0.06991,-35.704798 0.777497,-1.5875 c 1.388317,-2.834676 4.067803,-4.982789 7.082901,-5.678279 1.55804,-0.359391 117.923239,-0.359391 119.481279,0 3.0151,0.69549 5.69458,2.843603 7.0829,5.678279 l 0.7775,1.5875 0.0732,35.454168 c 0.0461,22.31165 -0.0233,36.08199 -0.18714,37.14782 -0.51397,3.34367 -2.66535,6.19087 -5.78149,7.65141 l -1.51291,0.7091 -59.92812,0.0608 -59.928117,0.0608 z"
         id="path5704" /><path
         style="fill:#fee472"
         d="m 41.629758,148.4826 c -3.488131,-1.43704 -5.669002,-4.06134 -6.325259,-7.61136 -0.17525,-0.94801 -0.244133,-13.84288 -0.198486,-37.15666 l 0.06991,-35.704798 0.777497,-1.5875 c 1.418065,-2.895415 4.141537,-5.041194 7.231773,-5.697794 0.822551,-0.174773 21.513088,-0.24138 60.399287,-0.194439 l 59.14813,0.0714 2.01948,0.998099 c 2.29799,1.135755 3.75386,2.599766 4.89486,4.922221 l 0.73105,1.488013 0.0732,35.454168 c 0.0461,22.31165 -0.0233,36.08199 -0.18714,37.14782 -0.51397,3.34367 -2.66535,6.19087 -5.78149,7.65141 l -1.51291,0.7091 -59.92812,0.0608 -59.928117,0.0608 z"
         id="path5703" /><path
         style="fill:#fee471"
         d="m 41.629758,148.4826 c -3.602988,-1.48435 -5.773457,-4.18488 -6.34325,-7.89235 -0.159489,-1.03774 -0.229216,-15.1232 -0.183788,-37.1263 l 0.0732,-35.454168 0.777497,-1.5875 c 1.418065,-2.895415 4.141537,-5.041194 7.231773,-5.697794 0.822551,-0.174773 21.513088,-0.24138 60.39929,-0.194439 l 59.14813,0.0714 2.01948,0.998099 c 2.29799,1.135755 3.75386,2.599766 4.89486,4.922221 l 0.73105,1.488013 0.0732,35.454168 c 0.0461,22.31165 -0.0233,36.08199 -0.18714,37.14782 -0.51397,3.34367 -2.66535,6.19087 -5.78149,7.65141 l -1.51291,0.7091 -59.92812,0.0608 -59.92812,0.0608 z"
         id="path5702" /><path
         style="fill:#c5c5c9"
         d="m 41.629758,148.4826 c -3.602988,-1.48435 -5.773457,-4.18488 -6.34325,-7.89235 -0.159489,-1.03774 -0.229216,-15.1232 -0.183788,-37.1263 l 0.0732,-35.454168 0.777497,-1.5875 c 1.418065,-2.895415 4.141537,-5.041194 7.231773,-5.697794 0.822551,-0.174773 21.513088,-0.24138 60.39929,-0.194439 l 59.14813,0.0714 2.01948,0.998099 c 2.29799,1.135755 3.75386,2.599766 4.89486,4.922221 l 0.73105,1.488013 0.0699,35.651568 c 0.0761,38.80074 0.10455,37.96951 -1.3886,40.51738 -0.93742,1.59959 -2.78014,3.24212 -4.58808,4.08965 l -1.50155,0.7039 -59.92812,0.0608 -59.92812,0.0608 z"
         id="path5701" /><path
         style="fill:#fee46f"
         d="m 41.629758,148.4826 c -3.602988,-1.48435 -5.773457,-4.18488 -6.34325,-7.89235 -0.159489,-1.03774 -0.229216,-15.1232 -0.183788,-37.1263 l 0.0732,-35.454168 0.777497,-1.5875 c 1.418065,-2.895415 4.141537,-5.041194 7.231773,-5.697794 0.822551,-0.174773 21.513088,-0.24138 60.39929,-0.194439 l 59.14813,0.0714 2.01948,0.998099 c 2.29799,1.135755 3.75386,2.599766 4.89486,4.922221 l 0.73105,1.488013 0.0708,35.647208 c 0.0771,38.80359 0.10563,37.97047 -1.38951,40.52174 -0.93742,1.59959 -2.78014,3.24212 -4.58808,4.08965 l -1.50155,0.7039 -59.92812,0.0608 -59.92812,0.0608 z"
         id="path5700" /><path
         style="fill:#c4c4c9"
         d="m 41.55054,148.45041 c -1.894396,-0.77992 -3.139007,-1.748 -4.461995,-3.47061 -2.0454,-2.66324 -1.912625,0.15453 -1.912625,-40.58981 V 68.009782 l 0.777497,-1.5875 c 1.418065,-2.895415 4.141537,-5.041194 7.231773,-5.697794 0.822551,-0.174773 21.513088,-0.24138 60.39929,-0.194439 l 59.14813,0.0714 2.01948,0.998099 c 2.29799,1.135755 3.75386,2.599766 4.89486,4.922221 l 0.73105,1.488013 0.0762,35.454168 c 0.0536,24.91553 -0.0103,35.96068 -0.21496,37.1582 -0.59007,3.45296 -2.64739,6.18369 -5.75671,7.64103 l -1.51291,0.7091 -59.92812,0.0608 -59.92812,0.0608 z"
         id="path5699" /><path
         style="fill:#fee46d"
         d="m 41.55054,148.45041 c -1.894396,-0.77992 -3.139007,-1.748 -4.461995,-3.47061 -2.0454,-2.66324 -1.912625,0.15453 -1.912625,-40.58981 V 68.009782 l 0.731046,-1.488013 c 1.141017,-2.322492 2.596869,-3.786467 4.89491,-4.922221 l 2.019517,-0.998099 h 59.955567 59.95556 l 2.01952,0.998099 c 2.29804,1.135754 3.75389,2.599729 4.89491,4.922221 l 0.73105,1.488013 0.0762,35.454168 c 0.0536,24.91553 -0.0103,35.96068 -0.21496,37.1582 -0.59007,3.45296 -2.64739,6.18369 -5.75671,7.64103 l -1.51291,0.7091 -59.92812,0.0608 -59.92812,0.0608 z"
         id="path5698" /><path
         style="fill:#c4c4c7"
         d="m 41.55054,148.44949 c -1.893833,-0.77858 -3.138544,-1.74648 -4.461995,-3.46969 -2.0454,-2.66324 -1.912625,0.15453 -1.912625,-40.58981 V 68.009782 l 0.731046,-1.488013 c 1.141017,-2.322492 2.596869,-3.786467 4.89491,-4.922221 l 2.019517,-0.998099 h 59.955567 59.95556 l 2.01952,0.998099 c 2.29804,1.135754 3.75389,2.599729 4.89491,4.922221 l 0.73105,1.488013 v 36.380208 c 0,34.61631 -0.0236,36.45208 -0.48698,37.86258 -0.91929,2.79832 -3.29458,5.24014 -6.12898,6.30062 l -1.47369,0.55138 -59.58746,-0.006 -59.58747,-0.006 z"
         id="path5697" /><path
         style="fill:#fee36d"
         d="m 41.55054,148.44949 c -1.893833,-0.77858 -3.138544,-1.74648 -4.461995,-3.46969 -2.0454,-2.66324 -1.912625,0.15453 -1.912625,-40.58981 V 68.009782 l 0.731046,-1.488013 c 1.141017,-2.322492 2.596869,-3.786467 4.89491,-4.922221 l 2.019517,-0.998099 h 59.955567 59.95556 l 2.01952,0.998099 c 2.29804,1.135754 3.75389,2.599729 4.89491,4.922221 l 0.73105,1.488013 v 36.380208 c 0,34.61631 -0.0236,36.45208 -0.48698,37.86258 -0.91929,2.79832 -3.29458,5.24014 -6.12898,6.30062 l -1.47369,0.55138 -59.58746,-0.006 -59.58747,-0.006 z"
         id="path5696" /><path
         style="fill:#fee36b"
         d="m 41.55054,148.44949 c -2.795848,-1.14941 -4.987156,-3.45583 -5.887641,-6.19692 -0.463367,-1.4105 -0.486979,-3.24627 -0.486979,-37.86258 V 68.009782 l 0.731046,-1.488013 c 1.141017,-2.322492 2.596869,-3.786467 4.89491,-4.922221 l 2.019517,-0.998099 h 59.955567 59.95556 l 2.01952,0.998099 c 2.29804,1.135754 3.75389,2.599729 4.89491,4.922221 l 0.73105,1.488013 v 36.380208 c 0,34.61631 -0.0236,36.45208 -0.48698,37.86258 -0.91929,2.79832 -3.29458,5.24014 -6.12898,6.30062 l -1.47369,0.55138 -59.58746,-0.006 -59.58747,-0.006 z"
         id="path5695" /><path
         style="fill:#fee36a"
         d="m 41.55054,148.44949 c -2.795848,-1.14941 -4.987156,-3.45583 -5.887641,-6.19692 -0.463367,-1.4105 -0.486979,-3.24627 -0.486979,-37.86258 V 68.009782 l 0.731046,-1.488013 c 1.141017,-2.322492 2.596869,-3.786467 4.89491,-4.922221 l 2.019517,-0.998099 h 59.955567 59.95556 l 2.01952,0.998099 c 2.29804,1.135754 3.75389,2.599729 4.89491,4.922221 l 0.73105,1.488013 v 36.380208 c 0,34.61631 -0.0236,36.45208 -0.48698,37.86258 -0.91929,2.79832 -3.29458,5.24014 -6.12898,6.30062 l -1.47369,0.55138 -59.58746,-0.006 -59.58747,-0.006 z"
         id="path5694" /><path
         style="fill:#fee369"
         d="m 42.263059,148.72072 c -3.718558,-1.16213 -6.345269,-4.28156 -6.956813,-8.26175 -0.185936,-1.21015 -0.253154,-13.45172 -0.203863,-37.12731 l 0.07354,-35.321878 0.731046,-1.488013 c 1.141017,-2.322492 2.596869,-3.786467 4.89491,-4.922221 l 2.019517,-0.998099 h 59.955564 59.95556 l 2.01952,0.998099 c 2.29804,1.135754 3.75389,2.599729 4.89491,4.922221 l 0.73105,1.488013 v 36.380208 c 0,34.61631 -0.0236,36.45208 -0.48698,37.86258 -0.91929,2.79832 -3.29458,5.24014 -6.12898,6.30062 l -1.47369,0.55138 -59.45517,-0.0177 c -48.397274,-0.0144 -59.662539,-0.0825 -60.570118,-0.36615 z"
         id="path5693" /><path
         style="fill:#fee163"
         d="m 42.263059,148.7219 c -3.721822,-1.16709 -6.345334,-4.28316 -6.956813,-8.26293 -0.185936,-1.21015 -0.253154,-13.45172 -0.203863,-37.12731 l 0.07354,-35.321878 0.731046,-1.488013 c 1.141017,-2.322492 2.596869,-3.786467 4.89491,-4.922221 l 2.019517,-0.998099 h 59.955564 59.95556 l 2.01952,0.998099 c 2.29804,1.135754 3.75389,2.599729 4.89491,4.922221 l 0.73105,1.488013 0.0735,35.321878 c 0.05,24.01564 -0.0166,35.90871 -0.20819,37.15522 -0.53088,3.45466 -2.6573,6.32132 -5.77213,7.7815 l -1.50155,0.7039 -59.79583,0.0496 c -48.928033,0.0406 -59.998463,-0.0139 -60.910768,-0.3 z"
         id="path5692" /><path
         style="fill:#bfbfc4"
         d="m 42.263059,148.7219 c -3.721822,-1.16709 -6.345334,-4.28316 -6.956813,-8.26293 -0.185936,-1.21015 -0.253154,-13.45172 -0.203863,-37.12731 l 0.07354,-35.321878 0.731046,-1.488013 c 1.141017,-2.322492 2.596869,-3.786467 4.89491,-4.922221 l 2.019517,-0.998099 h 59.955564 59.95556 l 2.01952,0.998099 c 2.29804,1.135754 3.75389,2.599729 4.89491,4.922221 l 0.73105,1.488013 0.077,35.057288 c 0.0506,23.02874 -0.0167,35.76933 -0.19611,37.13254 -0.48416,3.6792 -2.5411,6.54684 -5.78767,8.06877 l -1.50155,0.7039 -59.79583,0.0496 c -48.928033,0.0406 -59.998463,-0.0139 -60.910768,-0.3 z"
         id="path5691" /><path
         style="fill:#fee162"
         d="m 42.263059,148.7219 c -3.721822,-1.16709 -6.345334,-4.28316 -6.956813,-8.26293 -0.185936,-1.21015 -0.253154,-13.45172 -0.203863,-37.12731 l 0.07354,-35.321878 0.731046,-1.488013 c 1.141017,-2.322492 2.596869,-3.786467 4.89491,-4.922221 l 2.019517,-0.998099 h 59.941844 59.94184 l 1.73232,0.820906 c 2.08795,0.989429 3.3783,2.079594 4.43915,3.750467 1.72349,2.71457 1.63427,0.588744 1.6285,38.802168 -0.003,21.59725 -0.10464,35.36614 -0.26873,36.50137 -0.49587,3.43039 -2.63849,6.32632 -5.76511,7.79202 l -1.50155,0.7039 -59.79583,0.0496 c -48.928033,0.0406 -59.998463,-0.0139 -60.910768,-0.3 z"
         id="path5690" /><path
         style="fill:#fee160"
         d="m 42.263059,148.7219 c -3.845389,-1.20584 -6.42117,-4.3648 -6.97179,-8.55025 -0.174533,-1.32669 -0.242232,-14.3867 -0.19234,-37.10458 l 0.07699,-35.057288 0.731046,-1.488013 c 1.141017,-2.322492 2.596869,-3.786467 4.89491,-4.922221 l 2.019517,-0.998099 h 59.941848 59.94184 l 1.73232,0.820906 c 2.08795,0.989429 3.3783,2.079594 4.43915,3.750467 1.72349,2.71457 1.63427,0.588744 1.6285,38.802168 -0.003,21.59725 -0.10464,35.36614 -0.26873,36.50137 -0.49587,3.43039 -2.63849,6.32632 -5.76511,7.79202 l -1.50155,0.7039 -59.79583,0.0496 c -48.928037,0.0406 -59.998467,-0.0139 -60.910772,-0.3 z"
         id="path5689" /><path
         style="fill:#fee15f"
         d="m 42.002127,148.61308 c -3.720258,-1.28869 -6.153094,-4.34596 -6.721339,-8.44649 -0.145351,-1.04887 -0.217539,-16.23229 -0.175762,-36.96836 l 0.07089,-35.188448 0.731046,-1.488013 c 1.141017,-2.322492 2.596869,-3.786467 4.89491,-4.922221 l 2.019517,-0.998099 h 59.941851 59.94184 l 1.73232,0.820906 c 2.08795,0.989429 3.3783,2.079594 4.43915,3.750467 1.7235,2.714579 1.63428,0.588706 1.62842,38.802168 -0.003,19.91398 -0.10993,35.40227 -0.25102,36.37842 -0.50572,3.49873 -2.66414,6.45303 -5.78274,7.91497 l -1.50155,0.7039 -59.79583,0.0587 c -56.998068,0.056 -59.860206,0.0364 -61.171707,-0.4179 z"
         id="path5688" /><path
         style="fill:#fee05d"
         d="m 42.002127,148.61308 c -3.720258,-1.28869 -6.153094,-4.34596 -6.721339,-8.44649 -0.145351,-1.04887 -0.217539,-16.23229 -0.175762,-36.96836 l 0.07089,-35.188448 0.731046,-1.488013 c 1.141017,-2.322492 2.596869,-3.786467 4.89491,-4.922221 l 2.019517,-0.998099 h 59.941851 59.94184 l 1.73232,0.820906 c 2.08795,0.989429 3.3783,2.079594 4.43915,3.750467 1.7235,2.714579 1.63428,0.588706 1.62842,38.802168 -0.003,19.91398 -0.10993,35.40227 -0.25102,36.37842 -0.50817,3.51569 -2.63957,6.41468 -5.82908,7.92829 l -1.45521,0.69058 -59.79583,0.0587 c -56.998068,0.056 -59.860206,0.0364 -61.171707,-0.4179 z"
         id="path5687" /><path
         style="fill:#fee05c"
         d="m 42.002127,148.61189 c -2.797815,-0.96673 -5.039294,-3.15175 -6.211678,-6.05521 l -0.614529,-1.5219 v -36.5125 -36.512498 l 0.731046,-1.488013 c 1.141017,-2.322492 2.596869,-3.786467 4.89491,-4.922221 l 2.019517,-0.998099 h 59.941847 59.94184 l 1.73232,0.820906 c 2.08673,0.988849 3.37696,2.078466 4.44099,3.750467 1.74276,2.738578 1.6542,0.484394 1.57308,40.037678 l -0.0735,35.82428 -0.61752,1.5299 c -0.82126,2.03466 -2.01085,3.54507 -3.74782,4.75857 -2.75741,1.92641 2.39387,1.78226 -63.34987,1.77268 -56.350498,-0.008 -59.352885,-0.0322 -60.660663,-0.48404 z"
         id="path5686" /><path
         style="fill:#bcbcc1"
         d="m 42.254483,148.71819 c -2.780774,-0.86869 -5.294277,-3.26456 -6.464034,-6.16151 l -0.614529,-1.5219 v -36.5125 -36.512498 l 0.731046,-1.488013 c 1.141017,-2.322492 2.596869,-3.786467 4.89491,-4.922221 l 2.019517,-0.998099 h 59.941847 59.94184 l 1.73232,0.820906 c 2.08673,0.988849 3.37696,2.078466 4.44099,3.750467 1.74276,2.738578 1.6542,0.484394 1.57308,40.037678 l -0.0735,35.82428 -0.61453,1.5219 c -1.19175,2.9514 -3.70382,5.31393 -6.56632,6.17542 -1.79119,0.53907 -119.215757,0.52556 -120.942667,-0.0139 z"
         id="path5685" /><path
         style="fill:#fee05b"
         d="m 42.254483,148.71819 c -2.780774,-0.86869 -5.294277,-3.26456 -6.464034,-6.16151 l -0.614529,-1.5219 -0.07347,-35.82428 c -0.08112,-39.553284 -0.169686,-37.2991 1.573082,-40.037678 1.064023,-1.672001 2.354253,-2.761618 4.440981,-3.750467 l 1.732324,-0.820906 h 59.928123 59.92812 l 1.73232,0.820906 c 2.08673,0.988849 3.37696,2.078466 4.44099,3.750467 1.74276,2.738578 1.6542,0.484394 1.57308,40.037678 l -0.0735,35.82428 -0.61453,1.5219 c -1.19175,2.9514 -3.70382,5.31393 -6.56632,6.17542 -1.79119,0.53907 -119.215757,0.52556 -120.942667,-0.0139 z"
         id="path5684" /><path
         style="fill:#fee05a"
         d="m 42.254483,148.71819 c -2.780774,-0.86869 -5.294277,-3.26456 -6.464034,-6.16151 l -0.614529,-1.5219 -0.07434,-35.8213 c -0.08209,-39.555913 -0.170807,-37.298955 1.57395,-40.040658 1.064023,-1.672001 2.354253,-2.761618 4.440981,-3.750467 l 1.732324,-0.820906 h 59.928125 59.92812 l 1.73232,0.820906 c 2.08673,0.988849 3.37696,2.078466 4.44099,3.750467 1.74475,2.741703 1.65603,0.484745 1.57394,40.040658 l -0.0743,35.8213 -0.61453,1.5219 c -1.19175,2.9514 -3.70382,5.31393 -6.56632,6.17542 -1.79119,0.53907 -119.215759,0.52556 -120.942669,-0.0139 z"
         id="path5683" /><path
         style="fill:#fee059"
         d="m 42.009803,148.59292 c -2.892558,-1.04133 -5.000317,-3.10452 -6.23477,-6.10293 l -0.599113,-1.45521 -0.07434,-35.8213 c -0.08209,-39.555913 -0.170807,-37.298955 1.57395,-40.040658 1.064023,-1.672001 2.354253,-2.761618 4.440981,-3.750467 l 1.732324,-0.820906 h 59.928125 59.92812 l 1.73232,0.820906 c 2.08673,0.988849 3.37696,2.078466 4.44099,3.750467 1.74475,2.741703 1.65603,0.484745 1.57394,40.040658 l -0.0743,35.8213 -0.59912,1.45521 c -1.24658,3.02787 -3.36208,5.08218 -6.29517,6.11308 -1.38464,0.48666 -3.18301,0.50122 -60.76629,0.49195 -57.189726,-0.009 -59.388985,-0.0274 -60.707619,-0.5021 z"
         id="path5682" /><path
         style="fill:#bbbbbf"
         d="m 35.043629,94.516136 c 0,-27.763789 -0.06064,-26.674595 1.633741,-29.343314 1.060847,-1.670873 2.351192,-2.761038 4.439143,-3.750467 l 1.732324,-0.820906 h 59.928123 59.92812 l 1.73232,0.820906 c 2.08795,0.989429 3.3783,2.079594 4.43915,3.750467 1.69438,2.668719 1.63374,1.579525 1.63374,29.343314 V 119.73582 H 102.77696 35.043629 Z"
         id="path5681" /><path
         style="fill:#b7b7bc"
         d="m 35.043629,94.491687 c 0,-23.809893 0.02778,-25.3334 0.489004,-26.815307 0.909069,-2.920845 2.732873,-4.927732 5.772124,-6.35156 l 1.54408,-0.723371 h 59.928123 59.92812 l 1.73232,0.820906 c 2.08795,0.989429 3.3783,2.079594 4.43915,3.750467 1.69438,2.668719 1.63374,1.579525 1.63374,29.343314 V 119.73582 H 102.77696 35.043629 Z"
         id="path5680" /><path
         style="fill:#b3b3b9"
         d="m 35.043629,94.491687 c 0,-23.809893 0.02778,-25.3334 0.489004,-26.815307 0.909069,-2.920845 2.732873,-4.927732 5.772124,-6.35156 l 1.54408,-0.723371 h 59.928123 59.92812 l 1.73232,0.820906 c 2.08795,0.989429 3.3783,2.079594 4.43915,3.750467 1.69438,2.668719 1.63374,1.579525 1.63374,29.343314 V 119.73582 H 102.77696 35.043629 Z"
         id="path5679" /><path
         style="fill:#b0b0b7"
         d="m 35.043629,94.491687 c 0,-23.809893 0.02778,-25.3334 0.489004,-26.815307 1.111833,-3.572328 3.937036,-6.120941 7.659956,-6.910041 1.996877,-0.423252 117.173891,-0.422952 119.168741,3.1e-4 3.74825,0.795297 6.37094,3.139095 7.60209,6.793706 0.53762,1.595919 0.54687,2.050602 0.54687,26.899413 V 119.73582 H 102.77696 35.043629 Z"
         id="path5678" /><path
         style="fill:#aeaeb3"
         d="m 35.043629,94.459768 c 0,-24.848811 0.0092,-25.303494 0.54687,-26.899413 1.218062,-3.615761 3.895177,-6.008309 7.60209,-6.794016 1.996877,-0.423252 117.173891,-0.422952 119.168741,3.1e-4 3.74825,0.795297 6.37094,3.139095 7.60209,6.793706 0.53762,1.595919 0.54687,2.050602 0.54687,26.899413 V 119.73582 H 102.77696 35.043629 Z"
         id="path5677" /><path
         style="fill:#adadb4"
         d="m 35.043629,94.459768 c 0,-24.848811 0.0092,-25.303494 0.54687,-26.899413 1.218062,-3.615761 3.895177,-6.008309 7.60209,-6.794016 1.994015,-0.422645 117.078411,-0.422906 119.182881,-2.7e-4 3.46995,0.696866 6.46528,3.359681 7.5722,6.731603 0.55787,1.699392 0.56262,1.926912 0.56262,26.975998 v 25.26215 H 102.77696 35.043629 Z"
         id="path5676" /><path
         style="fill:#ababb1"
         d="m 35.043629,94.459768 c 0,-24.848811 0.0092,-25.303494 0.54687,-26.899413 1.028773,-3.053867 2.997293,-5.129144 6.027353,-6.354231 l 1.495568,-0.604675 58.7375,-0.07812 c 43.10384,-0.05733 59.15768,0.002 60.31618,0.223031 3.31555,0.632487 5.90025,2.65056 7.371,5.755113 l 0.8399,1.772896 0.0712,25.730728 0.0712,25.730723 H 102.78206 35.043629 Z"
         id="path5675" /><path
         style="fill:#aaaab1"
         d="m 35.104678,93.972489 0.07124,-25.763331 1.058334,-2.072585 c 1.228669,-2.406162 2.870695,-3.918409 5.333028,-4.911529 l 1.546138,-0.623595 58.737502,-0.07812 c 43.10384,-0.05733 59.15768,0.002 60.31618,0.223031 3.31555,0.632487 5.90025,2.65056 7.371,5.755113 l 0.8399,1.772896 0.0712,25.730728 0.0712,25.730723 H 102.77696 35.033435 Z"
         id="path5674" /><path
         style="fill:#a8a8af"
         d="m 35.104678,94.005093 0.07124,-25.730728 0.839893,-1.772896 c 0.936252,-1.976299 2.658945,-3.862252 4.28622,-4.692426 2.765585,-1.410896 -0.540682,-1.339886 62.385199,-1.339886 42.13765,0 58.66022,0.08237 59.6741,0.297492 3.20049,0.679074 5.74485,2.712221 7.17677,5.73482 l 0.8399,1.772896 0.0712,25.730728 0.0712,25.730727 H 102.77696 35.033435 Z"
         id="path5673" /><path
         style="fill:#a7a7ad"
         d="m 35.104678,94.005093 0.07124,-25.730728 0.839893,-1.772896 c 0.936252,-1.976299 2.658945,-3.862252 4.28622,-4.692426 2.765585,-1.410896 -0.540682,-1.339886 62.385199,-1.339886 42.13765,0 58.66022,0.08237 59.6741,0.297492 3.20049,0.679074 5.74485,2.712221 7.17677,5.73482 l 0.8399,1.772896 0.0725,25.730728 0.0725,25.730727 H 102.77818 35.033435 Z"
         id="path5672" /><path
         style="fill:#a2a2aa"
         d="m 35.103452,94.005093 0.07247,-25.730728 0.839893,-1.772896 c 0.936252,-1.976299 2.658945,-3.862252 4.28622,-4.692426 2.765585,-1.410896 -0.540682,-1.339886 62.385195,-1.339886 42.13765,0 58.66022,0.08237 59.6741,0.297492 3.20049,0.679074 5.74485,2.712221 7.17677,5.73482 l 0.8399,1.772896 0.0725,25.730728 0.0725,25.730727 H 102.77696 35.030983 Z"
         id="path5671" /><path
         style="fill:#9f9fa6"
         d="m 35.103452,94.005093 0.07247,-25.730728 0.839893,-1.772896 c 0.936252,-1.976299 2.658945,-3.862252 4.28622,-4.692426 2.765713,-1.410962 -0.548356,-1.339886 62.474925,-1.339886 63.02328,0 59.70921,-0.07108 62.47492,1.339886 1.62728,0.830174 3.34997,2.716127 4.28622,4.692426 l 0.8399,1.772896 0.0725,25.730728 0.0725,25.730727 H 102.77696 35.030983 Z"
         id="path5670" /><path
         style="fill:#9b9ba4"
         d="m 35.103452,94.005093 0.07247,-25.730728 0.839893,-1.772896 c 1.474193,-3.11182 4.08136,-5.120443 7.483807,-5.765704 1.936894,-0.367324 116.617778,-0.367324 118.554678,0 3.40244,0.645261 6.00961,2.653884 7.4838,5.765704 l 0.8399,1.772896 0.0725,25.730728 0.0725,25.730727 H 102.77696 35.030983 Z"
         id="path5669" /><path
         style="fill:#9a9aa1"
         d="m 35.103452,94.005093 0.07247,-25.730728 0.839893,-1.772896 c 1.474193,-3.11182 4.08136,-5.120443 7.483807,-5.765704 1.944714,-0.368807 116.614558,-0.367187 118.574028,0.0017 3.32959,0.626781 6.01203,2.698151 7.46445,5.764028 l 0.8399,1.772896 0.0725,25.730728 0.0725,25.730723 H 102.77696 35.030983 Z"
         id="path5668" /><path
         style="fill:#95959d"
         d="m 35.103452,94.005093 0.07247,-25.730728 0.842871,-1.77926 c 1.435843,-3.030999 4.165267,-5.137167 7.461471,-5.757664 1.96735,-0.370346 116.626046,-0.370346 118.593386,0 3.32959,0.626781 6.01203,2.698151 7.46445,5.764028 l 0.8399,1.772896 0.0725,25.730728 0.0725,25.730727 H 102.77696 35.030983 Z"
         id="path5667" /><path
         style="fill:#92929c"
         d="m 35.103452,94.005093 0.07247,-25.730728 0.815396,-1.720549 c 1.445419,-3.049946 4.213461,-5.199778 7.488946,-5.816375 1.96735,-0.370346 116.626046,-0.370346 118.593386,0 3.29621,0.620497 6.02563,2.726665 7.46148,5.757664 l 0.84287,1.77926 0.0725,25.730728 0.0725,25.730727 H 102.77696 35.030983 Z"
         id="path5666" /><path
         style="fill:#fe5b64"
         d="m 35.103452,94.005093 0.07247,-25.730728 0.815396,-1.720549 c 1.481873,-3.126867 4.307924,-5.27415 7.664804,-5.823851 2.141255,-0.350638 116.100418,-0.350638 118.241678,0 3.37602,0.552837 6.16574,2.658693 7.63733,5.76514 l 0.84287,1.77926 0.0725,25.730728 0.0725,25.730727 H 102.77696 35.030983 Z"
         id="path5665" /><path
         style="fill:#909099"
         d="m 35.103421,93.872802 0.0725,-25.598437 0.815396,-1.720549 c 1.481873,-3.126867 4.307924,-5.27415 7.664804,-5.823851 2.141255,-0.350638 116.100419,-0.350638 118.241679,0 3.37602,0.552837 6.16574,2.658693 7.63733,5.76514 l 0.84287,1.77926 0.0725,25.598437 0.0725,25.598438 H 102.77696 35.030922 Z"
         id="path5664" /><path
         style="fill:#fd5963"
         d="m 35.103421,93.872802 0.0725,-25.598437 0.815396,-1.720549 c 1.481873,-3.126867 4.307924,-5.27415 7.664804,-5.823851 2.141255,-0.350638 116.100419,-0.350638 118.241679,0 3.35688,0.549701 6.18293,2.696984 7.6648,5.823851 l 0.8154,1.720549 0.0725,25.598437 0.0725,25.598438 H 102.77696 35.030922 Z"
         id="path5663" /><path
         style="fill:#8f8f98"
         d="M 35.043629,104.91916 V 90.367073 h 67.733331 67.73333 v 14.552087 14.55208 H 102.77696 35.043629 Z m 0.05259,-25.730733 0.07971,-10.914062 0.815396,-1.720549 c 1.481873,-3.126867 4.307924,-5.27415 7.664804,-5.823851 2.141255,-0.350638 116.100421,-0.350638 118.241681,0 3.35688,0.549701 6.18293,2.696984 7.6648,5.823851 l 0.8154,1.720549 0.0797,10.914062 0.0797,10.914062 H 102.77696 35.016507 Z"
         id="path5662" /><path
         style="fill:#8d8d96"
         d="M 35.043629,104.91916 V 90.367073 h 67.733331 67.73333 v 14.552087 14.55208 H 102.77696 35.043629 Z m 0.05259,-25.730733 0.07971,-10.914062 0.815396,-1.720549 c 1.481873,-3.126867 4.307924,-5.27415 7.664804,-5.823851 2.141255,-0.350638 116.100421,-0.350638 118.241681,0 4.0652,0.665691 7.17468,3.508252 8.25283,7.5444 0.26565,0.994514 0.35416,3.868042 0.35652,11.575521 l 0.003,10.252603 H 102.7634 35.016507 Z"
         id="path5661" /><path
         style="fill:#8c8c95"
         d="M 35.043629,104.91916 V 90.367073 h 67.733331 67.73333 v 14.552087 14.55208 H 102.77696 35.043629 Z m 0.05259,-25.730733 0.07971,-10.914062 0.815396,-1.720549 c 1.481873,-3.126867 4.307924,-5.27415 7.664804,-5.823851 2.141255,-0.350638 116.100421,-0.350638 118.241681,0 4.18338,0.685044 7.44271,3.777062 8.315,7.888153 0.19041,0.897411 0.29749,5.016348 0.29749,11.443228 V 90.102489 H 102.7634 35.016507 Z"
         id="path5660" /><path
         style="fill:#8c8c94"
         d="M 35.043629,104.91916 V 90.367073 h 67.733331 67.73333 v 14.552087 14.55208 H 102.77696 35.043629 Z m 0.0031,-25.069274 c 0.0024,-7.707479 0.09086,-10.581007 0.356522,-11.575521 1.07815,-4.036148 4.18763,-6.878709 8.252829,-7.5444 2.141255,-0.350638 116.10042,-0.350638 118.24168,0 4.18338,0.685044 7.44271,3.777062 8.315,7.888153 0.19041,0.897411 0.29749,5.016348 0.29749,11.443228 V 90.102489 H 102.77696 35.043629 Z"
         id="path5659" /><path
         style="fill:#8a8a94"
         d="M 35.043629,104.91916 V 90.367073 h 67.733331 67.73333 v 14.552087 14.55208 H 102.77696 35.043629 Z m 0,-24.857814 c 0,-6.42688 0.10708,-10.545817 0.297491,-11.443228 0.872284,-4.111091 4.131619,-7.203109 8.315,-7.888153 2.141255,-0.350638 116.10042,-0.350638 118.24168,0 4.18338,0.685044 7.44271,3.777062 8.315,7.888153 0.19041,0.897411 0.29749,5.016348 0.29749,11.443228 V 90.102489 H 102.77696 35.043629 Z"
         id="path5658" /><path
         style="fill:#888891"
         d="M 35.043629,104.91916 V 90.367073 h 67.733331 67.73333 v 14.552087 14.55208 H 102.77696 35.043629 Z m 0,-24.857814 c 0,-6.42688 0.10708,-10.545817 0.297491,-11.443228 0.886211,-4.176729 4.214733,-7.279751 8.468421,-7.894703 2.243082,-0.32428 115.691749,-0.32428 117.934839,0 4.25368,0.614952 7.58221,3.717974 8.46842,7.894703 0.19041,0.897411 0.29749,5.016348 0.29749,11.443228 V 90.102489 H 102.77696 35.043629 Z"
         id="path5657" /><path
         style="fill:#878792"
         d="M 35.043629,104.91916 V 90.367073 h 67.733331 67.73333 v 14.552087 14.55208 H 102.77696 35.043629 Z m 0,-24.857814 c 0,-6.42688 0.10708,-10.545817 0.297491,-11.443228 0.898557,-4.234917 4.236059,-7.301442 8.605687,-7.906978 1.112216,-0.15413 24.360286,-0.223872 60.153273,-0.180456 55.18669,0.06694 58.40478,0.09619 59.53104,0.54105 2.88103,1.137977 5.49585,3.793471 6.3952,6.494679 0.22726,0.682577 0.35176,4.187092 0.41758,11.754306 l 0.0938,10.78177 H 102.79066 35.043629 Z"
         id="path5656" /><path
         style="fill:#87878f"
         d="M 35.043629,104.91916 V 90.367073 h 67.733331 67.73333 v 14.552087 14.55208 H 102.77696 35.043629 Z m 0,-24.857814 c 0,-6.42688 0.10708,-10.545817 0.297491,-11.443228 0.898557,-4.234917 4.236059,-7.301442 8.605687,-7.906978 1.112216,-0.15413 24.360286,-0.223872 60.153273,-0.180456 l 58.34042,0.07077 1.45521,0.594719 c 2.6973,1.102339 4.78417,3.205349 5.9151,5.960837 0.54282,1.322564 0.57062,1.845221 0.64703,12.163714 l 0.0798,10.78177 H 102.79066 35.043629 Z"
         id="path5655" /><path
         style="fill:#fe4a54"
         d="M 35.043629,104.91916 V 90.367073 h 67.733331 67.73333 v 14.552087 14.55208 H 102.77696 35.043629 Z m 0.06638,-25.598441 c 0.06608,-7.596172 0.189925,-11.070816 0.419173,-11.760057 0.893684,-2.686883 3.718685,-5.51943 6.456649,-6.473897 1.334244,-0.465124 3.863547,-0.485316 60.791129,-0.485316 56.92757,0 59.45687,0.02019 60.79112,0.485316 2.72855,0.951184 5.08027,3.237923 6.24273,6.07024 0.54282,1.322564 0.57061,1.845221 0.64703,12.163714 l 0.0798,10.78177 H 102.77696 35.016228 Z"
         id="path5654" /><path
         style="fill:#84848e"
         d="m 35.110014,79.320719 c 0.06608,-7.596172 0.189925,-11.070816 0.419173,-11.760057 0.893684,-2.686883 3.718685,-5.51943 6.456649,-6.473897 1.334244,-0.465124 3.863547,-0.485316 60.791124,-0.485316 56.92757,0 59.45688,0.02019 60.79112,0.485316 2.72855,0.951184 5.08027,3.237923 6.24273,6.07024 0.54282,1.322564 0.57062,1.845221 0.64703,12.163714 l 0.0798,10.78177 H 102.77696 35.016228 Z"
         id="path5653" /><path
         style="fill:#83838d"
         d="m 35.096074,79.320719 c 0.07677,-10.366219 0.102018,-10.835853 0.655112,-12.184972 1.177545,-2.872296 3.657418,-5.223081 6.408739,-6.075134 1.388653,-0.43005 5.240499,-0.459164 60.749325,-0.459164 56.79927,0 59.32462,0.0202 60.65883,0.485316 2.72855,0.951184 5.08027,3.237923 6.24273,6.07024 0.54282,1.322564 0.57062,1.845221 0.64703,12.163714 l 0.0798,10.78177 H 102.77696 35.016228 Z"
         id="path5652" /><path
         style="fill:#82828c"
         d="m 35.096074,79.320719 c 0.07677,-10.366219 0.102018,-10.835853 0.655112,-12.184972 1.177545,-2.872296 3.657418,-5.223081 6.408739,-6.075134 1.388611,-0.430037 5.233776,-0.459164 60.617035,-0.459164 55.54584,0 59.22504,0.02806 60.62844,0.462479 2.76459,0.855764 5.21097,3.182855 6.40541,6.093077 0.54282,1.322564 0.57062,1.845221 0.64703,12.163714 l 0.0798,10.78177 H 102.77696 35.016228 Z"
         id="path5651" /><path
         style="fill:#7f7f8a"
         d="m 35.096074,79.320719 c 0.07677,-10.366219 0.102018,-10.835853 0.655112,-12.184972 1.177545,-2.872296 3.657418,-5.223081 6.408739,-6.075134 1.388611,-0.430037 5.233776,-0.459164 60.617035,-0.459164 55.54584,0 59.22504,0.02806 60.62844,0.462479 2.76459,0.855764 5.21097,3.182855 6.40541,6.093077 0.54282,1.322564 0.57062,1.845221 0.64703,12.163714 l 0.0798,10.78177 H 102.77696 35.016228 Z"
         id="path5650" /><path
         style="fill:#7a7a85"
         d="m 35.096074,79.320719 c 0.07677,-10.366219 0.102018,-10.835853 0.655112,-12.184972 1.177545,-2.872296 3.657418,-5.223081 6.408739,-6.075134 1.388611,-0.430037 5.233776,-0.459164 60.617035,-0.459164 55.38326,0 59.22842,0.02913 60.61703,0.459164 2.75132,0.852053 5.2312,3.202838 6.40874,6.075134 0.55309,1.349119 0.57834,1.818753 0.65511,12.184972 l 0.0798,10.78177 H 102.77696 35.016228 Z"
         id="path5649" /><path
         style="fill:#7a7a84"
         d="m 35.096074,79.320719 c 0.07677,-10.366219 0.102018,-10.835853 0.655112,-12.184972 1.144273,-2.79114 3.583117,-5.152283 6.270539,-6.070763 1.273294,-0.435173 4.901593,-0.468242 59.300025,-0.540468 39.37084,-0.05227 58.62221,0.01209 60.06041,0.200809 1.22438,0.160658 2.69416,0.559835 3.48657,0.946913 1.82323,0.890615 4.10042,3.375409 4.89037,5.336207 0.60525,1.502326 0.61809,1.729007 0.69759,12.312274 l 0.081,10.78177 H 102.77696 35.016228 Z"
         id="path5648" /><path
         style="fill:#777782"
         d="m 35.097223,79.320719 c 0.0795,-10.583267 0.09235,-10.809948 0.697592,-12.312274 0.791228,-1.96397 3.067851,-4.446853 4.890372,-5.333438 0.753445,-0.36652 2.203337,-0.785419 3.221983,-0.930884 2.537114,-0.362308 115.20246,-0.362308 117.73958,0 1.01864,0.145465 2.46854,0.564364 3.22198,0.930884 1.82252,0.886585 4.09914,3.369468 4.89037,5.333438 0.60525,1.502326 0.61809,1.729007 0.69759,12.312274 l 0.081,10.78177 H 102.77696 35.016228 Z"
         id="path5647" /><path
         style="fill:#777781"
         d="m 35.097223,79.320719 c 0.0795,-10.583267 0.09235,-10.809948 0.697592,-12.312274 0.809703,-2.009828 2.981992,-4.347284 4.981762,-5.360545 l 1.543093,-0.781868 h 60.45729 60.45729 l 1.50229,0.737804 c 1.96098,0.963067 4.20678,3.379705 5.02256,5.404609 0.60525,1.502326 0.61809,1.729007 0.69759,12.312274 l 0.081,10.78177 H 102.77696 35.016228 Z"
         id="path5646" /><path
         style="fill:#72727e"
         d="m 35.097223,79.320719 c 0.0795,-10.583267 0.09235,-10.809948 0.697592,-12.312274 0.80988,-2.010267 2.984241,-4.349955 4.982925,-5.361801 l 1.54193,-0.780612 h 60.45729 60.45729 l 1.50229,0.737804 c 1.96098,0.963067 4.20678,3.379705 5.02256,5.404609 0.60525,1.502326 0.61809,1.729007 0.69759,12.312274 l 0.081,10.78177 H 102.77696 35.016228 Z"
         id="path5645" /><path
         style="fill:#72727c"
         d="m 35.097223,79.320719 c 0.0795,-10.583267 0.09235,-10.809948 0.697592,-12.312274 0.80988,-2.010267 2.984241,-4.349955 4.982925,-5.361801 l 1.54193,-0.780612 h 60.45729 60.45729 l 1.54193,0.780612 c 1.99868,1.011846 4.17304,3.351534 4.98292,5.361801 0.60525,1.502326 0.61809,1.729007 0.69759,12.312274 l 0.081,10.78177 H 102.77696 35.016228 Z"
         id="path5644" /><path
         style="fill:#70707c"
         d="m 35.097223,79.320719 c 0.0795,-10.583267 0.09235,-10.809948 0.697592,-12.312274 0.80988,-2.010267 2.984241,-4.349955 4.982925,-5.361801 l 1.54193,-0.780612 h 60.45729 60.45729 l 1.54193,0.780612 c 2.00205,1.013553 4.17426,3.35229 4.98001,5.361801 0.60102,1.498933 0.61546,1.752907 0.70003,12.312274 l 0.0864,10.78177 H 102.7794 35.016228 Z"
         id="path5643" /><path
         style="fill:#6c6c78"
         d="m 35.097696,79.320719 c 0.08457,-10.559367 0.09901,-10.813341 0.700035,-12.312274 0.805747,-2.009511 2.977952,-4.348248 4.980009,-5.361801 l 1.54193,-0.780612 h 60.45729 60.45729 l 1.54193,0.780612 c 2.00205,1.013553 4.17426,3.35229 4.98001,5.361801 0.60102,1.498933 0.61546,1.752907 0.70003,12.312274 l 0.0864,10.78177 H 102.77696 35.011342 Z"
         id="path5642" /><path
         style="fill:#6b6b78"
         d="m 35.097696,79.320719 c 0.08457,-10.559367 0.09901,-10.813341 0.700035,-12.312274 0.805747,-2.009511 2.977952,-4.348248 4.980009,-5.361801 l 1.54193,-0.780612 h 60.45729 60.45729 l 1.61082,0.842086 c 2.04179,1.067384 4.10865,3.300566 4.91487,5.310361 0.59625,1.486372 0.61186,1.762258 0.69628,12.30224 l 0.0864,10.78177 H 102.77696 35.011342 Z"
         id="path5641" /><path
         style="fill:#676773"
         d="m 35.097696,79.320719 c 0.08442,-10.539982 0.100032,-10.815868 0.696281,-12.30224 0.806216,-2.009795 2.873083,-4.242977 4.914873,-5.310361 l 1.61082,-0.842086 h 60.45729 60.45729 l 1.61082,0.842086 c 2.04179,1.067384 4.10865,3.300566 4.91487,5.310361 0.59625,1.486372 0.61186,1.762258 0.69628,12.30224 l 0.0864,10.78177 H 102.77696 35.011342 Z"
         id="path5640" /><path
         style="fill:#666672"
         d="m 35.097696,79.320719 c 0.08457,-10.559367 0.09901,-10.813341 0.700035,-12.312274 0.859454,-2.143454 3.008914,-4.397976 5.124403,-5.374873 l 1.662119,-0.76754 h 60.324997 60.325 l 1.61082,0.842086 c 2.04179,1.067384 4.10865,3.300566 4.91487,5.310361 0.59625,1.486372 0.61186,1.762258 0.69628,12.30224 l 0.0864,10.78177 H 102.77696 35.011342 Z"
         id="path5639" /><path
         style="fill:#636370"
         d="m 35.097696,79.320719 c 0.08442,-10.539982 0.100032,-10.815868 0.696281,-12.30224 0.850864,-2.121096 2.835192,-4.210844 5.019503,-5.286171 l 1.759665,-0.866276 h 60.330555 60.33055 l 1.61082,0.842086 c 2.04179,1.067384 4.10865,3.300566 4.91487,5.310361 0.59625,1.486372 0.61186,1.762258 0.69628,12.30224 l 0.0864,10.78177 H 102.77696 35.011342 Z"
         id="path5638" /><path
         style="fill:#62626f"
         d="m 35.097696,79.320719 c 0.08442,-10.539982 0.100032,-10.815868 0.696281,-12.30224 0.850864,-2.121096 2.835192,-4.210844 5.019503,-5.286171 l 1.759665,-0.866276 h 60.330555 60.33055 l 1.5918,0.832485 c 2.89422,1.513633 4.91339,4.26887 5.42706,7.40546 0.13976,0.853401 0.2548,5.927185 0.25565,11.275075 l 0.002,9.723437 H 102.76082 35.011342 Z"
         id="path5637" /><path
         style="fill:#62626e"
         d="m 35.043629,80.216728 c 0,-5.576018 0.117085,-10.507074 0.268573,-11.310937 0.594532,-3.154868 2.777071,-5.932962 5.759147,-7.33066 l 1.512904,-0.709099 h 60.192707 60.1927 l 1.51291,0.709099 c 3.06073,1.434565 5.2364,4.266863 5.76709,7.507631 0.14166,0.86507 0.25825,5.9484 0.2591,11.29629 l 0.002,9.723437 h -67.7338 -67.733331 z"
         id="path5636" /><path
         style="fill:#5f5f6c"
         d="m 35.045161,80.379052 c 8.43e-4,-5.34789 0.117435,-10.43122 0.259094,-11.29629 0.53069,-3.240768 2.70636,-6.073066 5.767094,-7.507631 l 1.512904,-0.709099 h 60.192707 60.1927 l 1.51291,0.709099 c 3.06073,1.434565 5.2364,4.266863 5.76709,7.507631 0.14166,0.86507 0.25825,5.9484 0.2591,11.29629 l 0.002,9.723437 h -67.7338 -67.733331 z"
         id="path5635" /><path
         style="fill:#5c5c6a"
         d="m 35.045161,80.379052 c 8.43e-4,-5.34789 0.117435,-10.43122 0.259094,-11.29629 0.53069,-3.240768 2.70636,-6.073066 5.767094,-7.507631 l 1.512904,-0.709099 h 60.192707 60.1927 l 1.50155,0.7039 c 1.80753,0.847337 3.65061,2.489986 4.58744,4.08856 1.27693,2.178911 1.44204,3.843447 1.44704,14.588269 l 0.005,9.855728 H 102.77696 35.043629 Z"
         id="path5634" /><path
         style="fill:#5b5b69"
         d="m 35.106116,79.453011 c 0.10643,-11.918159 0.142876,-12.186201 1.986076,-14.606438 1.282122,-1.683506 2.845639,-2.867768 4.704256,-3.563166 l 1.478251,-0.553085 59.847481,0.06786 59.84748,0.06785 1.51291,0.709099 c 3.04812,1.428652 5.12087,4.128956 5.73814,7.475432 0.17604,0.954432 0.28958,5.389007 0.28958,11.310937 v 9.740989 H 102.76065 35.011015 Z"
         id="path5633" /><path
         style="fill:#5b5b68"
         d="m 35.102846,79.453011 c 0.08191,-9.499171 0.144107,-10.796218 0.575796,-12.00798 0.972453,-2.729705 3.352805,-5.127105 6.117806,-6.161624 l 1.478251,-0.553085 59.847481,0.06786 59.84748,0.06785 1.51291,0.709099 c 3.04812,1.428652 5.12087,4.128956 5.73814,7.475432 0.17604,0.954432 0.28958,5.389007 0.28958,11.310937 v 9.740989 H 102.76065 35.011015 Z"
         id="path5632" /><path
         style="fill:#5a5a67"
         d="m 35.102846,79.453011 c 0.08191,-9.499171 0.144107,-10.796218 0.575796,-12.00798 0.971815,-2.727913 3.35284,-5.127118 6.113238,-6.159915 l 1.473682,-0.551375 h 59.511398 59.51139 l 1.47369,0.551375 c 2.7604,1.032797 5.14142,3.432002 6.11324,6.159915 0.43168,1.211762 0.49388,2.508809 0.57579,12.00798 l 0.0918,10.649478 H 102.77696 35.011015 Z"
         id="path5631" /><path
         style="fill:#585866"
         d="m 35.102846,79.453011 c 0.08191,-9.499171 0.144107,-10.796218 0.575796,-12.00798 0.971815,-2.727913 3.35284,-5.127118 6.113238,-6.159915 l 1.473682,-0.551375 h 59.511398 59.51139 l 1.47369,0.551375 c 2.76221,1.033478 5.14587,3.436458 6.11038,6.159915 0.42751,1.207149 0.49193,2.544968 0.57816,12.00798 l 0.097,10.649478 h -67.7683 -67.768305 z"
         id="path5630" /><path
         style="fill:#575764"
         d="m 35.045627,80.511344 c 0.0011,-5.419213 0.122741,-10.335346 0.279581,-11.302039 0.541591,-3.338127 2.704716,-6.208284 5.757496,-7.639373 l 1.501549,-0.7039 59.847487,-0.06785 59.84748,-0.06786 1.47825,0.553085 c 2.76682,1.0352 5.14981,3.436378 6.11495,6.161624 0.42751,1.207149 0.49193,2.544968 0.57816,12.00798 l 0.097,10.649478 H 102.79563 35.043629 Z"
         id="path5629" /><path
         style="fill:#565664"
         d="m 35.045627,80.511344 c 0.0011,-5.419213 0.122741,-10.335346 0.279581,-11.302039 0.541591,-3.338127 2.704716,-6.208284 5.757496,-7.639373 l 1.501549,-0.7039 h 60.192707 60.1927 l 1.50155,0.7039 c 3.05278,1.431089 5.21591,4.301246 5.7575,7.639373 0.15684,0.966693 0.27845,5.882826 0.27958,11.302039 l 0.002,9.591145 H 102.77696 35.043629 Z"
         id="path5628" /><path
         style="fill:#555563"
         d="m 35.045627,80.511344 c 0.0011,-5.419213 0.122741,-10.335346 0.279581,-11.302039 0.541591,-3.338127 2.704716,-6.208284 5.757496,-7.639373 l 1.501549,-0.7039 h 60.192707 60.1927 l 1.50155,0.7039 c 3.05278,1.431089 5.21591,4.301246 5.7575,7.639373 0.15684,0.966693 0.27845,5.882826 0.27958,11.302039 l 0.002,9.591145 H 102.77696 35.043629 Z"
         id="path5627" /><path
         style="fill:#50505e"
         d="m 35.045627,80.511344 c 0.0011,-5.419213 0.122741,-10.335346 0.279581,-11.302039 0.541591,-3.338127 2.704716,-6.208284 5.757496,-7.639373 l 1.501549,-0.7039 h 60.192707 60.1927 l 1.50155,0.7039 c 3.05278,1.431089 5.21591,4.301246 5.7575,7.639373 0.15684,0.966693 0.27845,5.882826 0.27958,11.302039 l 0.002,9.591145 H 102.77696 35.043629 Z"
         id="path5626" /><path
         style="fill:#4f4f5d"
         d="m 35.045627,80.511344 c 0.0011,-5.419213 0.122741,-10.335346 0.279581,-11.302039 0.541591,-3.338127 2.704716,-6.208284 5.757496,-7.639373 l 1.501549,-0.7039 h 60.192707 60.1927 l 1.50155,0.7039 c 3.12662,1.465703 5.26924,4.361633 5.76511,7.792019 0.14492,1.002557 0.26584,6.079315 0.26873,11.281685 l 0.005,9.458853 H 102.77696 35.043629 Z"
         id="path5625" /><path
         style="fill:#4d4d5c"
         d="m 35.04887,80.643636 c 0.0029,-5.20237 0.123812,-10.279128 0.268732,-11.281685 0.495863,-3.430386 2.638482,-6.326316 5.765102,-7.792019 l 1.501549,-0.7039 h 60.192707 60.1927 l 1.50155,0.7039 c 3.12662,1.465703 5.26924,4.361633 5.76511,7.792019 0.14492,1.002557 0.26584,6.079315 0.26873,11.281685 l 0.005,9.458853 H 102.77696 35.043629 Z"
         id="path5624" /><path
         style="fill:#4c4c5b"
         d="m 35.04887,80.643636 c 0.0029,-5.20237 0.123812,-10.279128 0.268732,-11.281685 0.496598,-3.43547 2.623919,-6.292671 5.811443,-7.805337 l 1.455208,-0.690582 h 60.192707 60.1927 l 1.50155,0.7039 c 3.12662,1.465703 5.26924,4.361633 5.76511,7.792019 0.14492,1.002557 0.26584,6.079315 0.26873,11.281685 l 0.005,9.458853 H 102.77696 35.043629 Z"
         id="path5623" /><path
         style="fill:#4c4c5a"
         d="m 35.04887,80.643636 c 0.0029,-5.20237 0.123812,-10.279128 0.268732,-11.281685 0.496598,-3.43547 2.623919,-6.292671 5.811443,-7.805337 l 1.455208,-0.690582 h 60.192707 60.1927 l 1.50155,0.7039 c 3.1186,1.461941 5.27702,4.416234 5.78274,7.914971 0.13513,0.934933 0.24809,5.956363 0.25102,11.158733 l 0.005,9.458853 H 102.77696 35.043629 Z"
         id="path5622" /><path
         style="fill:#4a4a58"
         d="m 35.048949,80.643636 c 0.0029,-5.20237 0.115886,-10.2238 0.251022,-11.158733 0.508163,-3.515697 2.639569,-6.414682 5.829074,-7.928289 l 1.455208,-0.690582 h 60.192707 60.1927 l 1.45521,0.690582 c 3.18951,1.513607 5.32091,4.412592 5.82908,7.928289 0.13513,0.934933 0.24809,5.956363 0.25102,11.158733 l 0.005,9.458853 H 102.77696 35.043629 Z"
         id="path5621" /><path
         style="fill:#494958"
         d="m 35.098853,79.453011 c 0.09439,-10.355 0.11379,-10.691563 0.701599,-12.171385 0.774527,-1.949886 2.281807,-3.851189 3.905886,-4.926934 2.637695,-1.747136 -2.048683,-1.632418 63.609232,-1.557095 l 59.65409,0.06843 1.45521,0.690582 c 3.18951,1.513607 5.32091,4.412592 5.82908,7.928289 0.13513,0.934933 0.24809,5.956363 0.25102,11.158733 l 0.005,9.458853 H 102.75603 35.001779 Z"
         id="path5620" /><path
         style="fill:#474756"
         d="m 35.098853,79.453011 c 0.09439,-10.355 0.11379,-10.691563 0.701599,-12.171385 1.16685,-2.937566 3.687895,-5.312146 6.556316,-6.175414 1.854887,-0.558239 118.985492,-0.558239 120.840382,0 2.86842,0.863268 5.38947,3.237848 6.55631,6.175414 0.58781,1.479822 0.60721,1.816385 0.7016,12.171385 l 0.0971,10.649478 h -67.7752 -67.775181 z"
         id="path5619" /><path
         style="fill:#464655"
         d="m 35.099493,79.453011 c 0.09897,-10.331447 0.119988,-10.694929 0.703751,-12.171385 1.153919,-2.918493 3.494249,-5.137999 6.459527,-6.126043 1.14357,-0.381043 6.996367,-0.421842 60.514189,-0.421842 53.51782,0 59.37062,0.0408 60.51419,0.421842 2.96527,0.988044 5.3056,3.20755 6.45952,6.126043 0.58377,1.476456 0.60478,1.839938 0.70375,12.171385 l 0.10202,10.649478 H 102.77696 34.997476 Z"
         id="path5618" /><path
         style="fill:#454554"
         d="m 35.099493,79.453011 c 0.09826,-10.256891 0.123632,-10.703125 0.688335,-12.104687 1.211322,-3.006438 3.341875,-5.079576 6.282383,-6.113081 1.384298,-0.486541 3.194836,-0.501502 60.690889,-0.501502 53.53233,0 59.38647,0.0408 60.53005,0.421842 2.96527,0.988044 5.3056,3.20755 6.45952,6.126043 0.58377,1.476456 0.60478,1.839938 0.70375,12.171385 l 0.10202,10.649478 H 102.77696 34.997476 Z"
         id="path5617" /></g></g></svg>
