<?xml version="1.0" encoding="UTF-8" standalone="no"?>
<!-- Created with Inkscape (http://www.inkscape.org/) -->

<svg
   width="53.710449mm"
   height="65.61676mm"
   viewBox="0 0 53.710449 65.61676"
   version="1.1"
   id="svg1"
   inkscape:export-filename="starter-grip.svg"
   inkscape:export-xdpi="96"
   inkscape:export-ydpi="96"
   xml:space="preserve"
   xmlns:inkscape="http://www.inkscape.org/namespaces/inkscape"
   xmlns:sodipodi="http://sodipodi.sourceforge.net/DTD/sodipodi-0.dtd"
   xmlns="http://www.w3.org/2000/svg"
   xmlns:svg="http://www.w3.org/2000/svg"><sodipodi:namedview
     id="namedview1"
     pagecolor="#ffffff"
     bordercolor="#000000"
     borderopacity="0.25"
     inkscape:showpageshadow="2"
     inkscape:pageopacity="0.0"
     inkscape:pagecheckerboard="0"
     inkscape:deskcolor="#d1d1d1"
     inkscape:document-units="mm"><inkscape:page
       x="0"
       y="0"
       width="53.710449"
       height="65.61676"
       id="page2"
       margin="0"
       bleed="0" /></sodipodi:namedview><defs
     id="defs1" /><g
     inkscape:label="Calque 1"
     inkscape:groupmode="layer"
     id="layer1"
     transform="translate(-78.258255,-115.63228)"><g
       id="g322"
       transform="translate(9.8634685,18.265683)"><path
         style="fill:#d3e7f4"
         d="M 68.394791,130.175 V 97.366669 H 95.249998 122.10521 V 130.175 162.98334 H 95.249998 68.394791 Z"
         id="path329" /><path
         style="fill:#c4dbeb"
         d="m 78.448957,162.79747 c 1.664822,-0.60443 8.462247,-3.3714 8.993271,-3.66082 0.365211,-0.19905 1.993678,-1.01547 3.618815,-1.81426 1.625137,-0.7988 4.217912,-2.23311 5.761722,-3.18737 1.543811,-0.95426 2.875926,-1.73502 2.960256,-1.73502 0.136931,0 2.146529,-1.49618 2.478439,-1.84524 0.0728,-0.0765 0.7276,-0.55231 1.4552,-1.05731 2.54476,-1.76621 2.54556,-1.7857 0.0693,-1.67563 -1.20226,0.0534 -2.56453,0.12801 -3.02727,0.16571 -0.46273,0.0377 -0.783129,-0.0256 -0.71199,-0.14074 0.0711,-0.11511 -0.205099,-0.20945 -0.61387,-0.20965 -0.40877,-2e-4 -1.75525,-0.18619 -2.992177,-0.41331 -1.236927,-0.22712 -2.606146,-0.46934 -3.042708,-0.53825 -0.436563,-0.0689 -1.210469,-0.282 -1.719792,-0.47352 -2.317116,-0.8713 -3.768057,-1.23577 -4.276799,-1.0743 -0.325421,0.10328 -0.487778,0.0713 -0.395573,-0.0779 0.215755,-0.3491 -1.020645,-0.97219 -1.428696,-0.72 -0.20211,0.12491 -0.263949,0.0964 -0.15904,-0.0734 0.217754,-0.35233 -0.472869,-0.62819 -1.082079,-0.43221 -0.338323,0.10883 -0.369976,0.0821 -0.117533,-0.0992 0.252097,-0.18106 -0.0052,-0.39388 -0.95192,-0.78731 -1.244336,-0.51712 -1.304468,-0.59068 -1.469968,-1.79813 -0.323686,-2.36155 -0.03727,-4.64534 0.705219,-5.62326 0.14078,-0.18542 0.187408,-0.40568 0.103618,-0.48947 -0.285666,-0.28566 1.416942,-1.8789 2.534419,-2.37161 0.612917,-0.27025 1.173925,-0.55417 1.246686,-0.63095 0.07276,-0.0768 0.251354,-0.14361 0.396875,-0.14852 1.050304,-0.0354 2.498877,-0.49727 2.629795,-0.83844 0.117819,-0.30703 0.392235,-0.37292 1.084989,-0.2605 0.631354,0.10246 0.870621,0.0588 0.749737,-0.13679 -0.117123,-0.18951 0.0578,-0.24229 0.514008,-0.15508 0.380353,0.0727 0.755236,6.8e-4 0.833073,-0.16007 0.09655,-0.19939 0.191741,-0.18366 0.299544,0.0495 0.121303,0.26236 0.244262,0.2702 0.529166,0.0337 0.20413,-0.16941 0.37205,-0.20415 0.373156,-0.0772 0.0011,0.12696 0.864309,0.24303 1.918229,0.25792 1.848101,0.0261 1.8833,0.0151 0.990177,-0.3106 -2.267561,-0.82687 -7.987527,-0.22711 -10.010802,1.04968 -0.533173,0.33646 -1.207531,0.68871 -1.498572,0.78279 -0.880651,0.28466 -4.105304,2.45963 -3.92058,2.64436 0.09477,0.0948 -0.03315,0.17231 -0.284271,0.17231 -0.251123,0 -0.3883,-0.11049 -0.304839,-0.24553 0.169895,-0.2749 -0.8655,-0.68518 -1.110596,-0.44008 -0.08605,0.086 0.01665,0.15645 0.228218,0.15645 0.211567,0 0.402605,0.23812 0.424528,0.52916 0.05078,0.67415 -0.723487,0.70911 -0.898315,0.0406 -0.09018,-0.34485 -0.306194,-0.45449 -0.734223,-0.37267 -0.479731,0.0917 -0.643047,-0.0299 -0.781593,-0.5819 -0.09633,-0.3838 -0.10805,-0.80638 -0.02605,-0.93907 0.082,-0.13268 -0.182244,-0.0684 -0.587217,0.14283 -0.404973,0.21124 -1.016944,0.38481 -1.359935,0.38571 -0.44529,0.001 -0.580069,0.11512 -0.471325,0.3985 0.11339,0.29549 -0.04008,0.39688 -0.600754,0.39688 -0.793426,0 -1.503042,-0.59182 -1.23318,-1.02846 0.08766,-0.14184 0.02873,-0.33864 -0.130952,-0.43733 -0.164786,-0.10185 -0.220384,-0.4816 -0.12857,-0.87818 0.107317,-0.46355 0.08079,-0.57734 -0.07882,-0.33807 -0.203126,0.3045 -0.262929,0.3045 -0.384024,0 -0.100003,-0.25147 -0.149756,-0.22048 -0.16432,0.10235 -0.01807,0.40065 -0.306028,0.46302 -2.137555,0.46302 h -2.116666 v -17.4625 -17.462501 h 26.855207 26.85521 v 32.804481 32.80449 l -12.88107,-2.4e-4 c -11.488482,-2.2e-4 -12.825731,-0.043 -12.369267,-0.39622 1.29304,-1.00043 3.531077,-2.68793 4.201177,-3.16772 1.62706,-1.16496 5.43874,-4.42587 5.43874,-4.65285 0,-0.13307 0.12757,-0.24194 0.28348,-0.24194 0.29751,0 1.03944,-0.6475 1.03944,-0.90714 0,-0.35816 -0.47182,-0.0829 -1.55491,0.90714 -0.63679,0.58208 -1.2538,1.05833 -1.37112,1.05833 -0.11732,0 -0.28889,0.23813 -0.38127,0.52917 -0.0924,0.29104 -0.32593,0.52917 -0.51901,0.52917 -0.19309,0 -0.73344,0.35718 -1.20078,0.79375 -0.46734,0.43656 -0.95005,0.79375 -1.07268,0.79375 -0.12263,0 -0.55653,0.30985 -0.96421,0.68856 -1.048851,0.97431 -4.733289,3.54477 -5.080995,3.54477 -0.159744,0 -0.290443,0.11906 -0.290443,0.26458 0,0.17143 -3.050832,0.25723 -8.665104,0.2437 -4.765807,-0.0115 -8.48651,-0.0857 -8.268229,-0.16498 z m 35.454163,-20.8659 c 0,-0.0823 -0.13188,-0.39611 -0.29307,-0.69729 -0.26788,-0.50055 -0.23516,-0.53308 0.38066,-0.37851 0.37055,0.093 0.74674,0.051 0.83598,-0.0934 0.0934,-0.15107 -0.0121,-0.19563 -0.24837,-0.10496 -0.2949,0.11317 -0.41061,-0.007 -0.41061,-0.42821 0,-0.41199 0.11774,-0.5406 0.39687,-0.43349 0.26799,0.10284 0.39688,-0.0129 0.39688,-0.35654 0,-0.52304 1.14871,-1.8558 1.59952,-1.8558 0.13891,0 0.25256,-0.47625 0.25256,-1.05834 0,-0.88739 0.0868,-1.05833 0.53747,-1.05833 0.29561,0 0.60426,-0.17406 0.6859,-0.3868 0.0816,-0.21274 0.37556,-0.45889 0.65315,-0.547 0.2776,-0.0881 0.50473,-0.39029 0.50473,-0.67153 0,-0.28124 0.17859,-0.51134 0.39687,-0.51134 0.28664,0 0.39688,-0.29398 0.39688,-1.05833 0,-0.76435 -0.11024,-1.05833 -0.39688,-1.05833 -0.21828,0 -0.39687,0.11906 -0.39687,0.26458 0,0.15434 -0.88195,0.26458 -2.11667,0.26458 -1.23472,0 -2.11666,0.11025 -2.11666,0.26459 0,0.16169 -1.23473,0.26458 -3.175,0.26458 -1.94028,0 -3.175,0.10289 -3.175,0.26458 0,0.40184 -0.68624,0.31606 -1.05834,-0.13229 -0.20099,-0.24217 -0.78084,-0.39687 -1.4876,-0.39687 -0.63703,0 -1.15823,-0.0989 -1.15823,-0.21989 0,-0.12094 -1.00414,-0.24332 -2.23141,-0.27196 -1.22728,-0.0286 -2.765815,-0.2129 -3.418966,-0.40947 -1.006666,-0.30296 -1.166226,-0.30184 -1.04757,0.007 0.07699,0.20062 0.395129,0.3829 0.706982,0.40507 0.936558,0.0666 1.082942,0.0977 1.403024,0.29828 0.16877,0.10577 0.51572,0.11215 0.77101,0.0142 0.29747,-0.11415 0.40117,-0.0762 0.28877,0.10566 -0.10027,0.16224 0.15474,0.39885 0.59545,0.55249 0.828,0.28864 2.93271,2.18635 2.93271,2.64427 0,0.15264 0.3458,0.52376 0.76845,0.82471 0.80891,0.576 1.52097,0.76271 0.79247,0.2078 -0.24042,-0.18313 -0.35479,-0.51069 -0.26459,-0.75782 0.13528,-0.37063 0.20954,-0.38042 0.50004,-0.0659 0.2195,0.23764 0.23752,0.36936 0.0505,0.36936 -0.15985,0 -0.2232,0.10911 -0.14078,0.24247 0.0824,0.13336 0.54405,0.21119 1.02584,0.17296 0.7991,-0.0634 0.87599,-0.005 0.87599,0.66946 0,0.44568 -0.11217,0.67666 -0.28262,0.58197 -0.60116,-0.33393 0.29719,0.43199 2.04649,1.74481 0.98998,0.74296 2.00201,1.34901 2.24896,1.34678 0.38661,-0.003 0.39386,-0.0397 0.0521,-0.26053 -0.23847,-0.15411 -0.2711,-0.2581 -0.0818,-0.26053 0.47833,-0.006 0.72347,0.55662 0.34449,0.79084 -0.24494,0.15138 -0.18133,0.28839 0.2381,0.51286 0.31478,0.16846 0.50243,0.41939 0.417,0.55761 -0.0854,0.13821 -0.0292,0.2513 0.12488,0.2513 0.15411,0 0.2802,-0.0674 0.2802,-0.14968 z"
         id="path328" /><path
         style="fill:#b7d2e4"
         d="m 96.839976,162.71475 c 0.0913,-0.14773 0.57625,-0.44001 1.077667,-0.64952 0.501418,-0.2095 0.982265,-0.56489 1.068549,-0.78974 0.08628,-0.22485 0.321699,-0.40882 0.523145,-0.40882 0.201447,0 0.721053,-0.37125 1.154673,-0.82499 0.49587,-0.51889 0.94244,-0.76588 1.20355,-0.66568 0.26329,0.10103 0.38707,0.0303 0.33838,-0.19321 -0.0861,-0.39538 1.57628,-1.91063 1.82419,-1.66273 0.0874,0.0873 0.006,0.34302 -0.18089,0.56815 -0.28776,0.34672 -0.27003,0.38259 0.1159,0.23449 0.27101,-0.104 0.40652,-0.36259 0.33444,-0.63823 -0.15849,-0.60604 0.0124,-0.82621 1.20302,-1.5497 0.54571,-0.33161 0.99219,-0.71228 0.99219,-0.84593 0,-0.38409 0.69583,-0.28292 1.05833,0.15387 0.18116,0.21828 0.49339,0.39688 0.69386,0.39688 0.56492,0 0.42964,-0.71499 -0.16469,-0.87042 -0.29104,-0.0761 -0.52917,-0.27661 -0.52917,-0.44556 0,-0.18645 0.20732,-0.24138 0.5275,-0.13976 0.40495,0.12852 0.49058,0.0712 0.36857,-0.24675 -0.21073,-0.54916 0.76769,-0.56303 1.2206,-0.0173 0.18116,0.21828 0.49339,0.39687 0.69385,0.39687 0.20047,0 0.36448,0.12074 0.36448,0.26831 0,0.37292 1.642,1.83114 2.07257,1.8406 0.64279,0.0141 0.14872,0.66766 -0.56903,0.75269 -0.63797,0.0756 -0.70076,0.182 -0.6638,1.12517 0.0456,1.16488 -0.21317,1.62137 -0.58549,1.03265 -0.18141,-0.28686 -0.24721,-0.16308 -0.2502,0.47068 -0.004,0.83108 -0.1773,0.97473 -1.06238,0.88022 -0.33397,-0.0357 -0.33796,-0.003 -0.0252,0.20803 0.30689,0.20675 0.26074,0.39071 -0.26458,1.05473 l -0.6363,0.80431 -6.03489,0.0146 c -4.019505,0.01 -5.979447,-0.0751 -5.868884,-0.25395 z m 13.358984,-0.11328 c 0,-0.21003 0.2162,-0.53746 0.48044,-0.72761 0.26425,-0.19015 0.56046,-0.52432 0.65826,-0.74261 0.0978,-0.21828 0.78275,-1.23031 1.52212,-2.24895 0.73937,-1.01865 1.54448,-2.17876 1.78913,-2.57802 0.24466,-0.39926 0.5914,-0.72668 0.77053,-0.7276 0.17912,-9.2e-4 0.40703,-0.3291 0.50644,-0.72928 0.27433,-1.10426 1.22777,-2.44044 1.744,-2.44412 0.49354,-0.004 1.26033,-1.51534 1.26033,-2.48489 0,-0.50716 0.12171,-0.55523 1.19062,-0.47021 l 1.19063,0.0947 v 1.03169 c 0,0.74067 0.11195,1.03169 0.39687,1.03169 0.34047,0 0.39688,0.80845 0.39688,5.68855 v 5.68854 h -5.95313 c -5.01133,0 -5.95312,-0.0604 -5.95312,-0.38187 z m -1.76747,-14.62225 c 0.11058,-0.17892 -1.40652,-0.26383 -4.52318,-0.25315 -5.454046,0.0187 -8.366068,-0.44425 -14.479145,-2.30178 -2.193966,-0.66666 -7.109464,-2.85946 -7.375744,-3.29031 -0.644387,-1.04264 -0.337678,-5.58255 0.446396,-6.60756 0.141834,-0.18542 0.191032,-0.40397 0.10933,-0.48567 -0.243634,-0.24363 0.922914,-1.43205 2.057518,-2.09608 0.954687,-0.55874 5.398482,-1.82321 7.408333,-2.10802 3.009182,-0.42643 3.829276,-0.4321 4.40272,-0.0304 0.35068,0.24562 0.864311,0.35345 1.268315,0.26627 0.530107,-0.1144 0.591953,-0.0847 0.28209,0.1354 -0.32459,0.23059 -0.276401,0.28369 0.264583,0.29157 0.363802,0.005 1.494896,0.29904 2.513544,0.65276 1.57345,0.54637 2.09091,0.89694 3.43958,2.33025 1.38181,1.46852 3.57188,3.14796 3.57188,2.73907 0,-0.0772 0.44648,0.27046 0.99218,0.77259 0.54571,0.50214 1.1472,0.85462 1.33666,0.78329 0.18946,-0.0713 0.27992,-0.0252 0.20102,0.10244 -0.14228,0.23021 1.46945,1.61224 1.88425,1.61571 0.54542,0.005 1.36771,1.79652 1.45097,3.16196 0.1,1.63962 0.27744,1.47307 -3.14819,2.95446 -1.05232,0.45506 -1.85405,0.92327 -1.78162,1.04047 0.0724,0.11719 -0.008,0.29923 -0.17809,0.40453 -0.17858,0.11037 -0.23931,0.0774 -0.1434,-0.0778 z M 79.832997,134.21656 c -0.475706,-0.0589 -0.799793,-0.21246 -0.720194,-0.34125 0.0796,-0.1288 -0.09825,-0.36421 -0.395216,-0.52314 -0.459026,-0.24566 -0.494017,-0.37652 -0.233494,-0.87317 0.303485,-0.57856 0.30102,-0.57939 -0.254981,-0.0858 -0.308785,0.27411 -0.486307,0.61992 -0.394494,0.76848 0.09181,0.14856 0.04315,0.1936 -0.108138,0.1001 -0.151289,-0.0935 -0.637442,-0.0437 -1.080339,0.11071 -0.506434,0.17655 -1.229565,0.19732 -1.948622,0.056 -1.139353,-0.22397 -1.143816,-0.22936 -1.275645,-1.54066 -0.09083,-0.90348 -0.242111,-1.29312 -0.482687,-1.2432 -0.192718,0.04 -0.280921,-0.0397 -0.196006,-0.17711 0.08491,-0.13739 -0.0253,-0.42949 -0.244917,-0.64911 -0.523897,-0.5239 -0.51027,-1.39624 0.02502,-1.60165 0.237251,-0.091 0.358994,-0.33309 0.276139,-0.54901 -0.0815,-0.21239 -0.01593,-0.46791 0.14572,-0.56781 0.16165,-0.0999 0.227361,-0.0739 0.146025,0.0577 -0.08407,0.13606 0.899538,0.23932 2.279646,0.23932 2.390799,0 2.457472,-0.0176 4.406482,-1.16092 1.088424,-0.6385 2.257195,-1.41241 2.597268,-1.71979 0.738942,-0.6679 2.424393,-3.60329 2.424393,-4.22232 0,-0.24068 0.119062,-0.4376 0.264583,-0.4376 0.145521,0 0.264583,-0.16037 0.264583,-0.35639 0,-0.19601 0.20836,-0.59805 0.463021,-0.89342 0.254662,-0.29536 0.939271,-1.11486 1.521354,-1.82111 3.220694,-3.90771 3.801099,-4.49297 5.170491,-5.21376 1.207245,-0.63544 1.653566,-0.73604 2.721283,-0.61338 1.610589,0.18502 3.710881,1.15411 5.046658,2.32856 0.91856,0.80763 1.04557,1.06896 1.1538,2.37412 0.11608,1.39977 0.0852,1.48957 -0.67718,1.97109 -1.96045,1.23817 -3.797678,2.5897 -4.748973,3.49353 -0.567149,0.53885 -0.7845,0.80113 -0.483004,0.58285 0.301496,-0.21829 0.607706,-0.46975 0.680467,-0.55882 0.126182,-0.15446 3.96813,-2.82078 4.59515,-3.18905 1.04638,-0.61456 3.40241,-1.35883 4.66345,-1.47318 1.23942,-0.11239 1.70456,-0.0211 2.84939,0.55899 1.48282,0.7514 2.33185,0.90377 2.02041,0.36258 -0.11058,-0.19216 -0.0894,-0.23835 0.0505,-0.11025 0.13248,0.12127 0.25574,0.32963 0.27393,0.46302 0.0182,0.1334 0.048,0.3616 0.0661,0.50712 0.0182,0.14552 0.12237,0.25049 0.23151,0.23325 0.56776,-0.0896 0.82691,0.074 0.68848,0.43476 -0.0851,0.22189 0.15671,0.87418 0.53747,1.44954 1.03631,1.56597 0.77929,4.03206 -0.604,5.79534 -0.41018,0.52286 -0.83197,1.42102 -0.93732,1.99592 -0.12615,0.68839 -0.52515,1.37886 -1.16868,2.02239 -0.90691,0.90691 -1.12644,0.99112 -3.05477,1.17182 -3.33741,0.31274 -6.636377,0.0198 -8.696386,-0.77232 -1.475319,-0.56727 -2.223388,-0.68736 -4.233333,-0.67961 -3.886857,0.015 -6.879354,0.99967 -10.562776,3.47562 -0.82876,0.55708 -1.662197,0.99382 -1.852083,0.97053 -0.189886,-0.0233 -0.73446,-0.0905 -1.210165,-0.14943 z M 68.394791,106.91197 v -9.545301 h 9.45615 9.45615 l -0.658755,0.597976 c -0.362315,0.328887 -1.781906,1.549278 -3.154646,2.711975 -3.452151,2.92395 -3.829272,3.28537 -3.632951,3.48169 0.154706,0.15471 3.358083,-2.6741 3.571204,-3.15362 0.04851,-0.10914 0.193311,-0.19844 0.321787,-0.19844 0.223159,0 1.596788,-1.15224 3.233047,-2.711977 l 0.763301,-0.727604 9.173918,0.0035 9.173914,0.0035 -3.83645,1.931579 c -5.220004,2.628162 -10.98961,5.965882 -12.199204,7.057242 -0.241928,0.21828 -0.942459,0.69453 -1.556735,1.05834 -0.614276,0.3638 -1.386482,0.89958 -1.716013,1.19062 -1.164657,1.02863 -1.734435,1.45521 -1.943685,1.45521 -0.116418,0 -0.496961,0.26579 -0.845652,0.59064 -0.348691,0.32486 -0.77135,0.59275 -0.939243,0.59532 -0.167893,0.003 -0.667195,0.39162 -1.109561,0.86456 -0.878778,0.93952 -2.444077,1.23606 -2.444077,0.46302 0,-0.21828 -0.119062,-0.39687 -0.264583,-0.39687 -0.145521,0 -0.264583,0.17859 -0.264583,0.39687 0,0.21828 0.119062,0.39688 0.264583,0.39688 0.145521,0 0.264583,0.29765 0.264583,0.66145 0,0.36381 -0.119062,0.66146 -0.264583,0.66146 -0.145521,0 -0.264583,0.1786 -0.264583,0.39688 0,0.21828 -0.164016,0.39687 -0.364479,0.39687 -0.200463,0 -0.512697,-0.17859 -0.693855,-0.39687 C 77.738633,114.4786 77.426398,114.3 77.225935,114.3 c -0.564413,0 -0.494589,-2.05246 0.0736,-2.16341 0.407715,-0.0796 0.407715,-0.11071 0,-0.44867 -0.376916,-0.31243 -0.438077,-0.3032 -0.438077,0.0661 0,0.58807 -1.673096,0.57735 -2.365092,-0.0152 -0.496776,-0.42535 -0.499745,-0.4793 -0.06917,-1.25677 0.247438,-0.44678 0.539184,-0.85202 0.648325,-0.90053 0.10914,-0.0485 0.198437,-0.3164 0.198437,-0.59531 0,-0.27892 0.173182,-0.50712 0.384849,-0.50712 0.211666,0 0.687916,-0.30307 1.058333,-0.67349 0.658109,-0.6581 0.872034,-1.18567 0.475047,-1.17152 -0.365394,0.013 -2.310645,1.96866 -2.690542,2.7049 -0.206491,0.40019 -0.504148,0.73439 -0.661459,0.74268 -0.268475,0.0141 -1.742501,1.75047 -2.931853,3.45358 -0.291041,0.41676 -0.677995,0.75931 -0.859896,0.76121 -0.181901,0.002 -0.330729,0.13511 -0.330729,0.29601 0,0.16089 -0.297656,0.64628 -0.661458,1.07863 l -0.661458,0.7861 z m 21.695832,0.87952 c 0,-0.29695 2.464097,-2.48732 2.798165,-2.48732 0.183006,0 0.385891,0.14883 0.450855,0.33073 0.0687,0.19237 0.216287,0.23256 0.352778,0.0961 0.136492,-0.13649 0.0963,-0.28408 -0.09607,-0.35278 -0.623195,-0.22257 -0.331024,-0.60319 0.463021,-0.60319 0.617361,0 0.79375,-0.11759 0.79375,-0.52916 0,-0.43438 0.177739,-0.5299 0.992188,-0.53322 0.610377,-0.002 0.862028,-0.0867 0.65395,-0.2187 -0.447903,-0.28423 0.811921,-0.96076 1.991883,-1.06965 0.181901,-0.0168 0.330729,-0.20911 0.330729,-0.42739 0,-0.21828 0.178594,-0.39688 0.396875,-0.39688 0.218281,0 0.396875,-0.1 0.396875,-0.22223 0,-0.12223 0.489968,-0.38394 1.088828,-0.58158 0.59885,-0.19764 1.2228,-0.57388 1.38656,-0.836099 0.16375,-0.262216 0.51969,-0.476756 0.79098,-0.476756 0.27128,0 1.08586,-0.297656 1.81018,-0.661458 0.72431,-0.363802 1.53069,-0.661458 1.79196,-0.661458 0.26127,0 0.62325,-0.178594 0.80441,-0.396875 0.2781,-0.335093 1.457,-0.396875 7.57302,-0.396875 h 7.24365 v 4.894791 4.89479 h -15.19465 c -13.153569,0 -15.247952,0.0533 -15.591515,0.39688 -0.388699,0.3887 -1.228423,0.55164 -1.228423,0.23836 z"
         id="path327" /><path
         style="fill:#d69562"
         d="m 99.615623,147.64155 c -3.85633,-0.41674 -10.48081,-2.08856 -13.110909,-3.30881 -0.444282,-0.20612 -1.59116,-0.72625 -2.548618,-1.15583 -0.957459,-0.42959 -1.811412,-0.89526 -1.897674,-1.03483 -0.648829,-1.04983 -0.346172,-5.58608 0.441395,-6.61566 0.141834,-0.18542 0.180616,-0.41439 0.08618,-0.50882 -0.268809,-0.26881 1.700912,-1.95221 2.874416,-2.4566 1.691581,-0.72705 8.176635,-1.92539 9.600397,-1.77401 1.557952,0.16565 4.715355,1.02453 6.50459,1.76937 0.98961,0.41196 1.70854,0.99013 2.65276,2.13333 0.81464,0.98633 1.89455,1.90704 2.91041,2.48137 0.88835,0.50223 2.27002,1.45643 3.07039,2.12044 0.80036,0.66401 1.6338,1.26551 1.85208,1.33667 0.81927,0.26706 1.5875,1.82784 1.5875,3.22525 0,1.50089 0.0998,1.41852 -3.30729,2.73025 -0.87313,0.33615 -1.70656,0.69841 -1.85209,0.80502 -0.42209,0.30923 -6.68785,0.48798 -8.863539,0.25286 z M 80.830207,134.2372 c -0.218281,-0.0711 -0.848353,-0.32021 -1.40016,-0.55347 -0.925704,-0.39131 -0.989607,-0.48638 -0.826393,-1.22949 l 0.176893,-0.80539 -0.968751,0.85058 c -0.785892,0.69002 -1.195037,0.85057 -2.167565,0.85057 -1.729879,0 -2.22092,-0.33288 -2.049575,-1.38943 0.11128,-0.68618 -0.02549,-1.06696 -0.678153,-1.88809 -0.44965,-0.56572 -0.817546,-1.09498 -0.817546,-1.17615 0,-0.0812 0.316917,-0.47837 0.70426,-0.88267 0.676548,-0.70616 0.778448,-0.72882 2.589592,-0.57572 2.064867,0.17455 2.611042,-0.0119 5.560051,-1.8984 1.757763,-1.12442 2.266171,-1.76675 3.649377,-4.61062 0.605453,-1.24481 1.224823,-2.3945 1.376376,-2.55486 0.151554,-0.16037 0.705933,-0.81521 1.231954,-1.45521 0.526022,-0.64 1.568138,-1.90295 2.315815,-2.80655 1.462168,-1.76709 3.150496,-2.92503 4.610231,-3.16191 1.814035,-0.29438 5.686547,1.41522 6.696227,2.95619 0.21301,0.32509 0.45729,1.18214 0.54285,1.90455 0.14761,1.24638 0.11463,1.33931 -0.64569,1.8194 -1.961157,1.23833 -3.799518,2.59055 -4.751423,3.49496 -0.567149,0.53885 -0.7845,0.80113 -0.483004,0.58285 0.301496,-0.21829 0.607706,-0.46975 0.680467,-0.55882 0.126182,-0.15446 3.96813,-2.82078 4.59515,-3.18905 1.04638,-0.61456 3.40241,-1.35883 4.66345,-1.47318 1.23942,-0.11239 1.70456,-0.0211 2.84939,0.55899 0.75249,0.38132 1.55446,0.69331 1.78214,0.69331 0.22769,0 0.48251,0.17859 0.56627,0.39687 0.0838,0.21828 0.31815,0.39688 0.52087,0.39688 0.20271,0 0.36856,0.18715 0.36856,0.4159 0,0.22875 0.31822,0.95891 0.70715,1.62257 0.68342,1.16617 0.69606,1.26038 0.3766,2.80704 -0.1818,0.8802 -0.66313,2.08481 -1.06962,2.67691 -0.40648,0.59209 -0.82576,1.47358 -0.93171,1.95887 -0.10652,0.48787 -0.68377,1.39276 -1.29118,2.02405 -1.05781,1.0994 -1.17462,1.14876 -3.1513,1.33177 -1.12902,0.10454 -3.21261,0.0885 -4.6302,-0.0357 -1.4176,-0.12417 -2.779885,-0.21873 -3.027311,-0.21014 -0.247426,0.009 -0.396164,-0.0713 -0.330528,-0.17747 0.06564,-0.1062 -0.437744,-0.38291 -1.118621,-0.61491 -1.592174,-0.5425 -5.316561,-0.55094 -7.617784,-0.0173 -1.759469,0.40805 -5.643927,2.27115 -7.200443,3.45355 -0.463233,0.35189 -0.879952,0.63041 -0.926042,0.61892 -0.04609,-0.0115 -0.262393,-0.0791 -0.480674,-0.15025 z"
         id="path326" /><path
         style="fill:#c7744c"
         d="m 102.39375,147.71826 c -2.554152,-0.16087 -6.21771,-0.68881 -6.21771,-0.89602 0,-0.12455 -0.17721,-0.15846 -0.3938,-0.0753 -1.035304,0.39729 -8.859329,-2.09102 -12.162292,-3.86802 -1.009295,-0.543 -1.362584,-0.90339 -1.533975,-1.56481 -0.311235,-1.20109 -0.143533,-3.87776 0.238452,-3.80591 0.17607,0.0331 0.248831,-0.15232 0.17322,-0.44146 -0.07171,-0.2742 -0.0036,-0.71661 0.151381,-0.98314 0.264449,-0.45482 0.28225,-0.45574 0.289802,-0.015 0.0044,0.25826 0.305702,0.58274 0.669504,0.72106 0.363802,0.13831 0.661458,0.37349 0.661458,0.52261 0,0.14913 0.119063,0.27114 0.264583,0.27114 0.145521,0 0.264584,-0.22539 0.264584,-0.50086 0,-0.91337 0.78706,-0.87665 1.67559,0.0782 1.689426,1.81549 2.134203,2.44427 3.012749,4.25914 0.499773,1.03241 0.823771,1.50079 0.732087,1.05833 -0.190217,-0.91797 -1.428642,-3.53997 -1.914697,-4.0538 -0.484966,-0.51267 -0.403565,-0.8105 0.179827,-0.65794 0.658864,0.1723 2.711616,2.78784 3.736435,4.76084 1.014109,1.95237 0.724045,0.78263 -0.373026,-1.50431 -0.453753,-0.94589 -0.796646,-1.80909 -0.761985,-1.91823 0.03466,-0.10914 -0.07589,-0.19844 -0.245661,-0.19844 -0.169774,0 -0.239503,-0.0692 -0.154952,-0.15372 0.320288,-0.32029 1.238973,0.423 1.069304,0.86515 -0.132731,0.34589 -0.06234,0.39809 0.332517,0.24657 0.27549,-0.10572 0.41598,-0.1073 0.312201,-0.004 -0.10378,0.10377 0.0261,0.33913 0.28862,0.52301 0.26252,0.18387 0.819983,1.20658 1.238806,2.27269 0.418823,1.0661 0.875086,2.09007 1.013919,2.27549 0.49883,0.66621 0.468212,0.0869 -0.06191,-1.17133 -0.924524,-2.19437 -0.929831,-3.30424 -0.01303,-2.72426 0.211333,0.13369 0.290251,0.24489 0.175373,0.24712 -0.114878,0.002 -0.05535,0.17015 0.132292,0.37316 0.187638,0.203 0.410795,0.32719 0.495903,0.27597 0.08511,-0.0512 0.489363,0.67543 0.898343,1.61478 0.40898,0.93936 0.904893,1.84178 1.102028,2.00539 0.383745,0.31847 0.498232,-0.0238 0.147857,-0.44202 -0.115814,-0.13824 -0.361857,-0.69842 -0.546763,-1.24484 -0.283549,-0.83792 -0.275406,-1.05428 0.052,-1.38169 0.341207,-0.3412 0.427326,-0.34105 0.711452,0.001 0.25666,0.30926 0.251795,0.3895 -0.02361,0.3895 -0.210745,0 -0.120735,0.21068 0.22936,0.53684 0.316927,0.29527 0.775289,0.92034 1.018582,1.38907 0.269573,0.51935 0.488991,0.714 0.561759,0.49834 0.06567,-0.19464 -0.01305,-0.48634 -0.174942,-0.64823 -0.161892,-0.16189 -0.294349,-0.50866 -0.294349,-0.7706 0,-0.26194 -0.119063,-0.47625 -0.264584,-0.47625 -0.145521,0 -0.264583,-0.16745 -0.264583,-0.3721 0,-0.65554 0.893776,-0.16222 1.638881,0.90458 0.68932,0.98693 2.12695,2.09528 1.6601,1.27985 -0.11246,-0.19641 -0.37717,-0.55859 -0.58825,-0.80483 -0.61319,-0.71534 -0.30017,-1.05442 0.56066,-0.60734 0.41682,0.21647 0.90038,0.39359 1.07459,0.39359 0.17421,0 0.58519,0.2501 0.91329,0.55577 0.61469,0.57267 0.99398,0.52781 0.75708,-0.0895 -0.0739,-0.19269 -0.83279,-0.56627 -1.68633,-0.83019 -0.85354,-0.26392 -2.0723,-0.7797 -2.70835,-1.14617 -0.636051,-0.36648 -2.112512,-1.00093 -3.281025,-1.40991 -1.168514,-0.40897 -2.467872,-0.99739 -2.887463,-1.30761 -1.121045,-0.82883 -6.453767,-3.53319 -8.287339,-4.20273 -3.129565,-1.14279 -3.3183,-1.3845 -1.857681,-2.37914 1.274271,-0.86775 2.574149,-1.27426 6.662906,-2.08369 3.037515,-0.60132 3.725112,-0.65961 4.795266,-0.40651 6.247756,1.47761 6.987126,1.80244 8.629956,3.79149 0.8158,0.98774 1.8931,1.90581 2.91041,2.48025 0.88835,0.50162 2.15771,1.36539 2.82081,1.91949 0.66309,0.5541 1.49653,1.21056 1.85208,1.45881 0.55455,0.38719 0.59003,0.4931 0.24958,0.74494 -0.32667,0.24164 -0.30163,0.26714 0.14153,0.14418 0.72396,-0.20088 1.44597,1.02938 1.44597,2.46386 0,1.22715 -0.0321,1.25114 -3.57188,2.66888 -1.16416,0.46627 -2.77151,0.90179 -3.57187,0.96782 -0.80037,0.066 -1.8124,0.14862 -2.24896,0.18353 -0.43656,0.0349 -1.27,0.0335 -1.85208,-0.003 z M 79.50729,133.65139 c -0.961057,-0.48459 -0.980467,-0.53226 -0.661501,-1.6243 0.184198,-0.63064 0.150126,-0.62042 -0.731272,0.21932 -0.974597,0.92854 -2.457518,1.3235 -3.750621,0.99895 -0.587003,-0.14732 -0.677439,-0.3127 -0.677439,-1.23883 0,-0.80943 -0.208183,-1.32786 -0.857853,-2.13629 l -0.857854,-1.06748 0.766728,-0.65952 c 0.708177,-0.60914 0.901005,-0.64602 2.525089,-0.48292 1.684041,0.16912 1.851597,0.13102 3.964311,-0.90141 1.213273,-0.5929 2.384154,-1.22589 2.601959,-1.40665 0.217804,-0.18076 0.58823,-0.33348 0.823168,-0.33937 0.651143,-0.0163 1.38732,0.39494 1.212706,0.67747 -0.08543,0.13822 -0.05899,0.25038 0.05873,0.24925 0.280106,-0.003 0.86483,-1.26689 0.646573,-1.3979 -0.09237,-0.0554 0.002,-0.0564 0.209711,-0.002 0.47967,0.12527 2.929643,-0.74502 2.929643,-1.04069 0,-0.12189 -0.244725,-0.0906 -0.543834,0.0694 -0.29911,0.16008 -0.686063,0.2332 -0.859896,0.16249 -0.200095,-0.0814 -0.170443,-0.13839 0.08081,-0.15534 0.218281,-0.0147 0.694531,-0.2596 1.058333,-0.54417 0.363802,-0.28457 0.899583,-0.51822 1.190625,-0.51923 0.438013,-0.002 0.460801,0.0423 0.132292,0.25465 -0.34532,0.22316 -0.340935,0.25701 0.03375,0.26053 0.71505,0.007 1.103151,-0.6597 0.618448,-1.06197 -0.30861,-0.25612 -0.332161,-0.39223 -0.0934,-0.53979 0.398122,-0.24605 1.076884,-0.009 0.881151,0.30759 -0.07948,0.12861 0.03573,0.16466 0.256031,0.0801 0.2203,-0.0845 0.473181,-0.38255 0.561958,-0.66227 0.08878,-0.27971 0.259427,-0.44798 0.379223,-0.37395 0.119795,0.074 0.287828,-0.0478 0.373407,-0.27086 0.08558,-0.22302 0.750522,-0.68112 1.477652,-1.018 0.72713,-0.33688 1.245056,-0.68952 1.150946,-0.78363 -0.158067,-0.15806 0.386499,-0.27091 1.17101,-0.24266 0.180335,0.006 0.262605,-0.0938 0.182822,-0.2229 -0.07978,-0.12909 0.252403,-0.23471 0.738189,-0.23471 0.579724,0 1.014313,-0.18185 1.264649,-0.52917 0.470292,-0.65249 0.838483,-0.69284 0.603616,-0.0661 -0.152757,0.4076 -0.119404,0.41898 0.278663,0.0951 0.42317,-0.34431 0.41786,-0.39197 -0.08275,-0.74261 -0.684453,-0.47941 -0.678024,-0.77471 0.02085,-0.95747 0.595631,-0.15576 0.459384,-0.71013 -0.174528,-0.71013 -0.209693,0 -0.38126,-0.23953 -0.38126,-0.53229 0,-0.4696 -0.132448,-0.51746 -1.124479,-0.40634 -0.832714,0.0933 -0.918527,0.0755 -0.330729,-0.0686 1.015122,-0.24885 0.426728,-0.70263 -0.61035,-0.4707 l -0.712567,0.15935 0.661458,-0.38233 c 0.616636,-0.35642 0.535954,-0.37733 -1.190625,-0.30847 -2.366596,0.0944 -3.224338,0.34071 -3.389814,0.97349 -0.130733,0.49992 -1.240394,0.74411 -1.240394,0.27296 0,-0.32412 1.777118,-1.89636 2.988551,-2.64402 1.410455,-0.87049 3.252369,-0.62299 5.523495,0.7422 1.807759,1.08666 2.251239,1.70889 2.497259,3.50381 l 0.15878,1.1584 -2.665381,1.8145 c -1.465958,0.99797 -3.393979,2.57326 -4.284492,3.50064 -2.592767,2.70009 -3.730189,3.51777 -5.449985,3.91792 -4.560296,1.06105 -4.523261,1.05752 -6.392623,0.60987 l -1.768312,-0.42344 -1.258096,0.68431 c -1.419147,0.77192 -1.497817,1.16422 -0.100496,0.50114 0.87405,-0.41476 0.964132,-0.40595 2.324564,0.22737 1.573479,0.73249 2.445742,0.80376 4.511109,0.3686 1.491931,-0.31434 5.273141,-1.51226 4.861313,-1.54011 -0.134717,-0.009 0.212297,-0.47654 0.771141,-1.03874 0.66792,-0.67193 1.182481,-0.97866 1.50171,-0.89518 0.267096,0.0699 0.48563,-0.002 0.48563,-0.16014 0,-0.15833 -0.207712,-0.21501 -0.463021,-0.12636 -0.361638,0.12558 -0.330764,0.0224 0.141002,-0.47132 0.519346,-0.5435 0.643392,-0.57647 0.884854,-0.23524 0.231829,0.32763 0.253171,0.31173 0.122311,-0.0911 -0.404998,-1.2467 6.012792,-5.7386 9.490752,-6.64272 2.17413,-0.56518 3.06215,-0.51653 4.59131,0.25152 0.72431,0.3638 1.508,0.66146 1.74153,0.66146 0.23352,0 0.42459,0.17859 0.42459,0.39687 0,0.21829 0.0947,0.39688 0.21041,0.39688 0.11573,0 0.59819,0.75605 1.07214,1.6801 0.82522,1.60893 0.84823,1.73504 0.54313,2.97657 -0.25964,1.05653 -0.77113,2.09357 -1.47817,2.99696 -0.0486,0.0622 -0.43978,-0.2236 -0.86919,-0.635 l -0.78075,-0.74801 0.57096,-0.80183 c 0.31403,-0.44101 0.43671,-0.71887 0.27262,-0.61746 -0.16408,0.10141 -0.36803,0.0716 -0.45322,-0.0662 -0.0852,-0.13784 -0.0451,-0.3185 0.0892,-0.40146 0.29287,-0.181 0.0665,-1.20864 -0.26629,-1.20864 -0.12855,0 -0.23751,0.20836 -0.24214,0.46302 -0.008,0.41761 -0.04,0.42182 -0.33073,0.0429 -0.17727,-0.23105 -0.50091,-0.50026 -0.71919,-0.59824 -0.21828,-0.098 -0.1175,-0.12544 0.22396,-0.061 0.34146,0.0644 0.78794,0.053 0.99219,-0.0254 0.5295,-0.20319 0.46064,-0.65343 -0.0857,-0.5605 -0.25271,0.043 -0.45974,-0.0898 -0.46302,-0.29709 -0.003,-0.20615 -0.18453,-0.42357 -0.40281,-0.48316 -0.32115,-0.0877 -0.32838,-0.0603 -0.0379,0.14332 0.20691,0.14505 0.25182,0.31788 0.10602,0.40798 -0.13912,0.086 -0.41578,-0.16702 -0.6148,-0.56223 -0.19901,-0.39522 -0.39441,-0.76705 -0.43421,-0.82629 -0.16085,-0.23937 -2.45977,-0.45202 -2.77571,-0.25676 -0.19421,0.12003 -0.60484,0.0357 -0.96015,-0.19707 -0.73801,-0.48356 -1.14719,-0.25095 -0.45234,0.25714 0.421,0.30784 0.42924,0.37139 0.0662,0.51071 -0.22806,0.0875 -0.54974,-0.004 -0.71485,-0.2026 -0.23577,-0.28408 -0.47836,-0.29961 -1.1303,-0.0723 -0.74515,0.25976 -0.77733,0.3123 -0.31446,0.5134 0.39838,0.17308 0.33979,0.19946 -0.25766,0.11602 -0.88268,-0.12328 -3.405941,1.24749 -2.76499,1.50209 0.328765,0.13059 0.120973,0.21402 -0.439906,0.17663 -0.07796,-0.005 -0.324587,0.1734 -0.548066,0.39688 -0.473902,0.4739 -1.016376,0.54782 -0.740136,0.10086 0.117906,-0.19078 0.07248,-0.23358 -0.120992,-0.11401 -0.170379,0.1053 -0.254684,0.2806 -0.187344,0.38956 0.06734,0.10895 -0.123091,0.36862 -0.42318,0.57703 -1.745531,1.21225 -1.830889,1.31916 -1.398434,1.75162 0.224684,0.22468 0.370545,0.48399 0.324135,0.57624 -0.751887,1.49455 -1.808883,2.41669 -2.770115,2.41669 -0.18927,0 -0.344127,0.12952 -0.344127,0.28784 0,0.19061 0.368145,0.22564 1.089913,0.1037 0.857205,-0.14483 1.064556,-0.10742 0.971155,0.17518 -0.06532,0.19762 -0.526011,0.43294 -1.023766,0.52293 -0.497756,0.09 -0.726416,0.18814 -0.508135,0.21814 0.218281,0.03 -0.646287,0.2794 -1.921263,0.55423 -2.193055,0.47273 -4.967975,1.73289 -7.929208,3.60084 -1.165026,0.7349 -1.609964,0.75523 -2.849529,0.13019 z m 22.225,-2.33759 c -1.48509,-0.0681 -6.858462,-1.63489 -6.871806,-2.00373 -0.004,-0.11192 0.297588,-0.12694 0.670303,-0.0334 0.540189,0.13558 0.706504,0.0598 0.819823,-0.37353 0.176877,-0.67638 0.832645,-0.95202 1.314173,-0.55239 0.282673,0.2346 0.36334,0.20624 0.36334,-0.12773 0,-0.24479 0.21524,-0.42927 0.500859,-0.42927 0.275473,0 0.56229,-0.16008 0.637372,-0.35574 0.07508,-0.19566 0.683132,-0.50879 1.351226,-0.69585 0.66809,-0.18705 1.21471,-0.42462 1.21471,-0.52792 0,-0.27549 3.55002,-0.86335 5.44277,-0.90129 1.11607,-0.0224 1.74637,0.088 1.98939,0.34835 0.30187,0.32341 0.28694,0.35471 -0.0986,0.20675 -0.30884,-0.11852 -0.45435,-0.0432 -0.45435,0.23524 0,0.31304 0.17845,0.3704 0.75702,0.24332 0.70598,-0.15506 0.76748,-0.10191 0.91188,0.78796 0.0852,0.52483 0.0719,1.16624 -0.0294,1.42536 -0.3176,0.81197 -1.57598,2.13319 -2.29047,2.40484 -0.73876,0.28088 -3.87758,0.45678 -6.22818,0.34903 z"
         id="path325" /><path
         style="fill:#ce6826"
         d="m 100.11337,147.52528 c -0.09,-0.0941 -0.863946,-0.23078 -1.719791,-0.30372 -0.855844,-0.073 -1.734675,-0.20447 -1.952956,-0.29226 -0.218281,-0.0878 -0.873125,-0.19665 -1.455208,-0.24188 -2.246985,-0.17462 -10.069561,-2.91035 -12.208724,-4.26967 -0.711219,-0.45194 -1.13049,-2.65223 -0.579193,-3.03955 0.275775,-0.19375 0.280514,-0.27686 0.02177,-0.38185 -0.181901,-0.0738 -0.330729,-0.43581 -0.330729,-0.80446 0,-0.53805 0.103478,-0.64321 0.524577,-0.53309 0.440557,0.11521 0.482934,0.0594 0.264583,-0.34862 -0.408002,-0.76236 -0.317256,-0.82838 0.533757,-0.3883 0.436562,0.22575 0.79375,0.54631 0.79375,0.71235 0,0.16604 0.07979,0.22209 0.177317,0.12457 0.09752,-0.0975 0.448503,3.7e-4 0.779952,0.21754 0.419845,0.2751 0.657027,0.30686 0.781956,0.10472 0.114109,-0.18463 0.388493,-0.0467 0.754518,0.37926 0.31636,0.36817 0.807422,0.64888 1.091249,0.62381 0.402255,-0.0355 0.796245,0.50868 1.78672,2.46796 1.009678,1.99726 1.238206,2.30988 1.112614,1.52201 -0.08693,-0.54533 -0.44921,-1.6169 -0.805065,-2.38125 -0.355855,-0.76434 -0.648172,-1.52863 -0.649593,-1.6984 -0.0014,-0.16978 -0.142728,-0.3554 -0.314013,-0.41249 -0.171286,-0.0571 -0.22259,-0.24756 -0.11401,-0.42324 0.268982,-0.43522 0.690021,-0.13101 0.690021,0.49856 0,0.28246 0.126089,0.51356 0.280199,0.51356 0.154109,0 0.207456,0.1177 0.118549,0.26155 -0.08891,0.14385 0.0038,0.19807 0.20599,0.12048 0.572592,-0.21973 2.834846,3.47869 2.834846,4.63451 0,0.29684 0.12133,0.53971 0.269624,0.53971 0.370746,0 0.07595,-1.10959 -0.835676,-3.14545 -0.846195,-1.88974 -0.932785,-2.22336 -0.381319,-1.46919 0.206551,0.28248 0.532374,0.5136 0.724052,0.5136 0.353002,0 1.501907,2.06791 1.530618,2.75496 0.01414,0.33846 1.550274,2.93358 1.736477,2.93358 0.04301,0 -0.212693,-0.83645 -0.568224,-1.85878 -0.658749,-1.89424 -0.646636,-2.46837 0.04646,-2.2024 0.222475,0.0854 0.391839,-0.004 0.396448,-0.20999 0.0058,-0.25785 0.07816,-0.23907 0.256826,0.0666 0.153816,0.26318 0.155343,0.75146 0.004,1.27917 -0.221792,0.77334 -0.203869,0.82033 0.190837,0.50037 0.268943,-0.21801 0.36344,-0.23281 0.246974,-0.0387 -0.104349,0.17395 -1.3e-4,0.41997 0.233231,0.55056 0.232032,0.12985 0.561958,0.51472 0.733169,0.85526 0.171211,0.34055 0.485958,0.67688 0.699438,0.7474 0.303944,0.10041 0.284252,-0.0303 -0.09078,-0.6027 -0.336871,-0.51413 -0.395871,-0.81398 -0.198915,-1.01094 0.196955,-0.19696 0.145403,-0.38227 -0.173806,-0.62476 -0.41591,-0.31596 -0.40437,-0.34545 0.13818,-0.35317 0.411907,-0.006 0.81098,0.33366 1.311864,1.11607 0.549199,0.85788 0.743353,1.01169 0.818917,0.64875 0.05448,-0.26165 -0.02881,-0.6298 -0.185089,-0.8181 -0.314413,-0.37884 -0.126261,-0.69055 0.416828,-0.69055 0.19402,0 0.35277,0.16447 0.35277,0.36548 0,0.46233 1.76993,1.83358 1.96315,1.52095 0.079,-0.12779 -0.14146,-0.53994 -0.48985,-0.91588 l -0.63348,-0.68352 0.83687,0.15771 c 0.94168,0.17747 2.29206,0.88435 2.29206,1.19981 0,0.11415 0.29392,0.20754 0.65316,0.20754 0.47188,0 0.61088,-0.11015 0.50086,-0.39688 -0.17468,-0.45522 0.82101,-0.57553 1.09494,-0.13229 0.24888,0.4027 0.92604,0.31558 0.92604,-0.11914 0,-0.21105 -0.20836,-0.50509 -0.46302,-0.65342 -0.44097,-0.25684 -0.44097,-0.27007 0,-0.27773 0.25466,-0.004 0.46302,0.0971 0.46302,0.2257 0,0.24118 1.3705,0.59697 1.56383,0.40597 0.0597,-0.059 -0.10754,-0.34616 -0.37173,-0.63809 -0.60489,-0.66839 -0.0111,-0.74121 0.71155,-0.0872 0.35011,0.31684 0.57151,0.36214 0.77507,0.15857 0.20357,-0.20356 0.12204,-0.33667 -0.2854,-0.46599 -0.77722,-0.24668 -0.53989,-0.77753 0.39649,-0.88684 0.42056,-0.0491 0.91314,-0.30128 1.09464,-0.56043 0.38497,-0.54962 1.6718,-0.43311 1.6718,0.15137 0,0.20132 0.10914,0.36603 0.24255,0.36603 0.13339,0 0.24253,0.51405 0.24253,1.14233 0,1.01438 -0.0939,1.19121 -0.83785,1.57864 -0.92145,0.47984 -3.29927,1.43258 -4.54202,1.81989 -0.95512,0.29766 -7.86885,0.61685 -8.1012,0.374 z m 2.94184,-3.75682 c -0.21829,-0.0842 -1.78374,-0.79596 -3.478798,-1.58163 -1.695056,-0.78567 -3.280948,-1.42849 -3.524204,-1.42849 -0.243256,0 -0.939986,-0.33788 -1.548289,-0.75083 -1.572014,-1.06719 -6.465864,-3.60523 -7.720587,-4.00403 -1.933609,-0.61458 -3.571898,-1.39189 -3.570067,-1.69387 0.0025,-0.41294 1.60933,-1.46766 2.928147,-1.92203 0.603026,-0.20775 2.704392,-0.69224 4.669701,-1.07663 3.033426,-0.59331 3.758599,-0.65496 4.799837,-0.4081 6.2382,1.47902 6.96531,1.79891 8.60721,3.78684 0.8158,0.98774 1.8931,1.90581 2.91041,2.48025 0.88835,0.50162 2.15771,1.36539 2.82081,1.91949 0.66309,0.5541 1.49653,1.20182 1.85208,1.43938 l 0.64645,0.43193 -1.32291,0.6264 c -0.72761,0.34453 -1.38245,0.69737 -1.45521,0.7841 -0.0728,0.0867 -0.45446,0.23652 -0.84823,0.33285 -0.39376,0.0963 -1.04861,0.31154 -1.45521,0.47826 -1.30889,0.5367 -3.62364,0.85139 -4.31114,0.58611 z M 79.50729,133.65139 c -0.961057,-0.48459 -0.980467,-0.53226 -0.661501,-1.6243 0.184198,-0.63064 0.150126,-0.62042 -0.731272,0.21932 -0.974597,0.92854 -2.457518,1.3235 -3.750621,0.99895 -0.587003,-0.14732 -0.677439,-0.3127 -0.677439,-1.23883 0,-0.80969 -0.20822,-1.32791 -0.858854,-2.13754 l -0.858854,-1.06873 0.792708,-0.63734 c 0.726297,-0.58395 0.9498,-0.62338 2.6678,-0.47067 1.700856,0.15119 1.990606,0.10218 3.118242,-0.52737 1.714837,-0.95738 2.141847,-0.8746 0.584166,0.11325 -1.485262,0.94193 -1.466679,1.32052 0.02741,0.55829 l 1.025975,-0.52341 1.44706,0.67398 c 0.810962,0.37771 1.936564,0.67721 2.560631,0.68134 0.787789,0.005 1.146486,0.12993 1.226079,0.42629 0.07057,0.26276 0.123949,0.19701 0.1432,-0.17639 0.01688,-0.32742 0.17952,-0.59694 0.361421,-0.59892 0.181901,-0.002 0.612132,-0.0789 0.956068,-0.17101 0.567227,-0.15183 0.597895,-0.11611 0.330014,0.38444 -0.162429,0.3035 -0.190824,0.6164 -0.0631,0.69534 0.127725,0.0789 0.232226,0.44187 0.232226,0.80653 0,0.53272 -0.266452,0.79691 -1.355989,1.34449 -0.745795,0.37482 -2.112085,1.1502 -3.036201,1.72307 -1.882431,1.16694 -2.165489,1.21162 -3.479164,0.54922 z m 19.068964,-2.98866 -1.700827,-0.56293 1.802522,-0.64834 c 0.991386,-0.35659 2.203241,-0.87342 2.693011,-1.14851 0.48977,-0.27508 0.8905,-0.38313 0.8905,-0.24009 0,0.14303 -0.11907,0.26006 -0.26459,0.26006 -0.14552,0 -0.26458,0.13231 -0.26458,0.29403 0,0.19404 0.32244,0.23354 0.94822,0.11614 1.14233,-0.2143 2.49136,0.042 2.49136,0.47325 0,0.17171 0.24904,0.46774 0.55343,0.65783 0.47193,0.29472 0.60152,0.27984 0.88006,-0.10107 0.40472,-0.5535 1.52952,-0.29758 1.30168,0.29616 -0.10909,0.28426 -0.0181,0.34066 0.34423,0.21347 0.47183,-0.16561 0.47285,-0.15205 0.0244,0.32333 -0.40853,0.43307 -0.94698,0.50466 -4.23333,0.56288 -3.24701,0.0575 -3.99937,-0.0108 -5.466096,-0.49621 z"
         id="path324" /><path
         style="fill:#b15a2b"
         d="m 93.00104,146.29733 c -3.844411,-1.00217 -8.743132,-2.89045 -10.253033,-3.95217 -0.624511,-0.43914 -1.162173,-2.90974 -0.633229,-2.90974 0.157477,0 0.234591,0.14883 0.171364,0.33073 -0.06323,0.1819 -0.01215,0.74745 0.113513,1.25677 0.125658,0.50932 0.240656,0.7158 0.255552,0.45885 0.0213,-0.3675 0.194439,-0.28281 0.811339,0.39687 0.70784,0.77988 0.773547,0.8049 0.674348,0.25681 -0.06045,-0.334 -0.04147,-0.78562 0.04219,-1.00361 0.131801,-0.34347 0.218332,-0.3364 0.648568,0.053 0.273062,0.24711 0.500758,0.57968 0.505992,0.73902 0.0052,0.15935 0.306545,0.64691 0.669581,1.08348 l 0.660067,0.79375 -0.144189,-0.8599 c -0.19872,-1.18511 0.267015,-1.08484 0.921692,0.19844 0.328855,0.64461 0.718824,1.05016 0.997565,1.03744 0.276223,-0.0126 0.326535,-0.0738 0.126914,-0.15434 -0.777295,-0.31364 -0.09397,-1.4392 0.741153,-1.22081 0.453052,0.11848 0.776343,0.67365 0.942623,1.61872 0.190285,1.08151 0.885775,0.54575 0.720008,-0.55464 -0.122042,-0.81013 -0.107098,-0.82892 0.264397,-0.33242 0.216562,0.28944 0.350013,0.59702 0.296558,0.68351 -0.05345,0.0865 0.07617,0.15726 0.288046,0.15726 0.21188,0 0.395974,-0.18852 0.409098,-0.41892 0.01312,-0.23041 0.137312,-0.002 0.275973,0.50711 0.458257,1.68325 0.495111,1.74909 0.749048,1.33821 0.124666,-0.20171 0.162214,-0.76392 0.08344,-1.24935 -0.119955,-0.7392 -0.06237,-0.88195 0.354413,-0.87856 0.332893,0.003 0.391919,0.0712 0.178298,0.20702 -0.47623,0.30268 0.256368,2.27535 0.889181,2.3943 0.629461,0.11833 1.129182,0.57487 0.607557,0.55507 -0.211006,-0.008 -1.276615,-0.24735 -2.368021,-0.53186 z m 10.05417,-2.52887 c -0.21829,-0.0842 -1.78374,-0.79596 -3.478798,-1.58163 -1.695056,-0.78567 -3.280948,-1.42849 -3.524204,-1.42849 -0.243256,0 -0.939986,-0.33788 -1.548289,-0.75083 -1.572014,-1.06719 -6.465864,-3.60523 -7.720587,-4.00403 -1.933609,-0.61458 -3.571898,-1.39189 -3.570067,-1.69387 0.0025,-0.41294 1.60933,-1.46766 2.928147,-1.92203 0.603026,-0.20775 2.704392,-0.69224 4.669701,-1.07663 3.033426,-0.59331 3.758599,-0.65496 4.799837,-0.4081 6.2382,1.47902 6.96531,1.79891 8.60721,3.78684 0.8158,0.98774 1.8931,1.90581 2.91041,2.48025 0.88835,0.50162 2.15771,1.36539 2.82081,1.91949 0.66309,0.5541 1.49653,1.20182 1.85208,1.43938 l 0.64645,0.43193 -1.32291,0.6264 c -0.72761,0.34453 -1.38245,0.69737 -1.45521,0.7841 -0.0728,0.0867 -0.45446,0.23652 -0.84823,0.33285 -0.39376,0.0963 -1.04861,0.31154 -1.45521,0.47826 -1.30889,0.5367 -3.62364,0.85139 -4.31114,0.58611 z M 79.50729,133.65139 c -0.961057,-0.48459 -0.980467,-0.53226 -0.661501,-1.6243 0.184198,-0.63064 0.150126,-0.62042 -0.731272,0.21932 -0.974597,0.92854 -2.457518,1.3235 -3.750621,0.99895 -0.587003,-0.14732 -0.677439,-0.3127 -0.677439,-1.23883 0,-0.80969 -0.20822,-1.32791 -0.858854,-2.13754 l -0.858854,-1.06873 0.792708,-0.63734 c 0.726297,-0.58395 0.9498,-0.62338 2.6678,-0.47067 1.700856,0.15119 1.990606,0.10218 3.118242,-0.52737 1.714837,-0.95738 2.141847,-0.8746 0.584166,0.11325 -1.485262,0.94193 -1.466679,1.32052 0.02741,0.55829 l 1.025975,-0.52341 1.44706,0.67398 c 0.810962,0.37771 1.936564,0.67721 2.560631,0.68134 0.787789,0.005 1.146486,0.12993 1.226079,0.42629 0.07057,0.26276 0.123949,0.19701 0.1432,-0.17639 0.01688,-0.32742 0.17952,-0.59694 0.361421,-0.59892 0.181901,-0.002 0.612132,-0.0789 0.956068,-0.17101 0.567227,-0.15183 0.597895,-0.11611 0.330014,0.38444 -0.162429,0.3035 -0.190824,0.6164 -0.0631,0.69534 0.127725,0.0789 0.232226,0.44187 0.232226,0.80653 0,0.53272 -0.266452,0.79691 -1.355989,1.34449 -0.745795,0.37482 -2.112085,1.1502 -3.036201,1.72307 -1.882431,1.16694 -2.165489,1.21162 -3.479164,0.54922 z m 19.068964,-2.98866 -1.700827,-0.56293 1.802522,-0.64834 c 0.991386,-0.35659 2.203241,-0.87342 2.693011,-1.14851 0.48977,-0.27508 0.8905,-0.38313 0.8905,-0.24009 0,0.14303 -0.11907,0.26006 -0.26459,0.26006 -0.14552,0 -0.26458,0.13231 -0.26458,0.29403 0,0.19404 0.32244,0.23354 0.94822,0.11614 1.14233,-0.2143 2.49136,0.042 2.49136,0.47325 0,0.17171 0.24904,0.46774 0.55343,0.65783 0.47193,0.29472 0.60152,0.27984 0.88006,-0.10107 0.40472,-0.5535 1.52952,-0.29758 1.30168,0.29616 -0.10909,0.28426 -0.0181,0.34066 0.34423,0.21347 0.47183,-0.16561 0.47285,-0.15205 0.0244,0.32333 -0.40853,0.43307 -0.94698,0.50466 -4.23333,0.56288 -3.24701,0.0575 -3.99937,-0.0108 -5.466096,-0.49621 z"
         id="path323" /><path
         style="fill:#4e5d5e"
         d="m 103.05521,143.75344 c -0.21829,-0.076 -1.78374,-0.78094 -3.478798,-1.56661 -1.695056,-0.78567 -3.249324,-1.42849 -3.453929,-1.42849 -0.204605,0 -0.901335,-0.33477 -1.548289,-0.74392 -2.162538,-1.36766 -6.835626,-3.73854 -8.422369,-4.27308 -3.285461,-1.10679 -3.4945,-1.35007 -2.021789,-2.35294 1.280145,-0.87175 2.574778,-1.27431 6.681077,-2.07745 3.033426,-0.59331 3.758599,-0.65496 4.799837,-0.4081 6.23539,1.47835 6.96577,1.79946 8.60354,3.78249 0.78387,0.94911 1.87592,1.88932 2.77812,2.39183 0.81761,0.45538 2.02234,1.27103 2.67718,1.81254 0.65484,0.54151 1.52095,1.19908 1.92469,1.46126 l 0.73407,0.47669 -0.73407,0.3997 c -3.79177,2.0646 -7.07473,3.03576 -8.53927,2.52608 z M 79.50729,133.65139 c -0.961057,-0.48459 -0.980467,-0.53226 -0.661501,-1.6243 0.184198,-0.63064 0.150126,-0.62042 -0.731272,0.21932 -0.974597,0.92854 -2.457518,1.3235 -3.750621,0.99895 -0.587003,-0.14732 -0.677439,-0.3127 -0.677439,-1.23883 0,-0.80969 -0.20822,-1.32791 -0.858854,-2.13754 l -0.858854,-1.06873 0.792708,-0.63734 c 0.726297,-0.58395 0.9498,-0.62338 2.6678,-0.47067 1.707449,0.15177 1.988227,0.10351 3.140516,-0.53981 1.585508,-0.88518 1.842747,-0.73621 0.389452,0.22554 -1.253181,0.82931 -1.2341,1.19602 0.02827,0.54322 0.934194,-0.48309 1.246619,-0.44932 3.500873,0.37842 0.880643,0.32336 1.793606,0.49309 2.159037,0.40137 0.474072,-0.11899 0.664676,-0.0369 0.758547,0.32682 0.106562,0.41285 0.12998,0.40103 0.156067,-0.0787 0.02098,-0.38586 0.24802,-0.60602 0.717507,-0.69576 0.619979,-0.11852 0.676597,-0.0617 0.58182,0.58407 -0.05775,0.39346 0.0576,0.86726 0.256333,1.0529 0.546473,0.51049 -0.322877,1.38921 -1.165228,1.17779 -0.424573,-0.10656 -0.627386,-0.0417 -0.633894,0.20272 -0.01169,0.43904 -3.785753,2.87796 -4.426027,2.86024 -0.252557,-0.007 -0.875913,-0.22283 -1.385236,-0.47965 z"
         id="path322" /></g></g></svg>
