<?xml version="1.0" encoding="UTF-8" standalone="no"?>
<!-- Created with Inkscape (http://www.inkscape.org/) -->

<svg
   width="53.722279mm"
   height="65.617119mm"
   viewBox="0 0 53.722279 65.617119"
   version="1.1"
   id="svg1"
   inkscape:export-filename="resistance-band.svg"
   inkscape:export-xdpi="96"
   inkscape:export-ydpi="96"
   xml:space="preserve"
   xmlns:inkscape="http://www.inkscape.org/namespaces/inkscape"
   xmlns:sodipodi="http://sodipodi.sourceforge.net/DTD/sodipodi-0.dtd"
   xmlns="http://www.w3.org/2000/svg"
   xmlns:svg="http://www.w3.org/2000/svg"><sodipodi:namedview
     id="namedview1"
     pagecolor="#ffffff"
     bordercolor="#000000"
     borderopacity="0.25"
     inkscape:showpageshadow="2"
     inkscape:pageopacity="0.0"
     inkscape:pagecheckerboard="0"
     inkscape:deskcolor="#d1d1d1"
     inkscape:document-units="mm"><inkscape:page
       x="0"
       y="0"
       width="53.722279"
       height="65.617119"
       id="page2"
       margin="0"
       bleed="0" /></sodipodi:namedview><defs
     id="defs1" /><g
     inkscape:label="Calque 1"
     inkscape:groupmode="layer"
     id="layer1"
     transform="translate(-62.675959,-117.7819)"><g
       id="g229"
       transform="translate(-48.305047,14.594841)"><path
         style="fill:#d2e6f4"
         d="M 110.99271,135.99583 V 103.1875 h 26.8552 26.85521 v 32.80833 32.80834 h -26.85521 -26.8552 z"
         id="path235" /><path
         style="fill:#c4daea"
         d="m 121.04687,168.61603 c 2.66276,-0.98203 5.96006,-2.30933 8.00076,-3.22066 0.68964,-0.30797 1.37425,-0.55995 1.52136,-0.55995 0.14711,0 0.26747,-0.11906 0.26747,-0.26458 0,-0.14553 0.11874,-0.26459 0.26387,-0.26459 0.59454,0 6.32466,-2.96398 8.20279,-4.243 0.21828,-0.14865 0.60524,-0.34024 0.8599,-0.42575 0.25466,-0.0855 0.46302,-0.26064 0.46302,-0.38919 0,-0.12855 0.13438,-0.23372 0.29863,-0.23372 0.32854,0 3.38009,-1.99273 3.80241,-2.48305 0.14552,-0.16896 0.88966,-0.70383 1.65365,-1.18861 0.76398,-0.48478 1.38906,-0.98808 1.38906,-1.11843 0,-0.13035 0.12409,-0.237 0.27575,-0.237 0.31375,0 0.64777,-0.25613 2.1565,-1.65364 0.58912,-0.54571 1.17585,-0.99219 1.30382,-0.99219 0.12797,0 0.23268,-0.18278 0.23268,-0.40619 0,-0.32975 0.10383,-0.35061 0.55183,-0.11085 0.3035,0.16243 0.60937,0.23778 0.67971,0.16744 0.21722,-0.21722 -2.84014,-1.25609 -3.14399,-1.06831 -0.16522,0.10212 -0.20999,0.0538 -0.10603,-0.1144 0.10891,-0.17622 -0.16219,-0.38894 -0.68673,-0.53884 -0.47667,-0.13623 -1.5004,-0.50153 -2.27497,-0.81178 -0.77457,-0.31026 -1.5371,-0.4845 -1.69453,-0.38721 -0.161,0.0995 -0.21063,0.0546 -0.11344,-0.10266 0.17217,-0.27858 -1.61421,-1.54028 -2.02891,-1.43301 -0.11996,0.031 -0.14538,-0.0613 -0.0565,-0.20507 0.0889,-0.14382 -0.0585,-0.48163 -0.3276,-0.7507 -0.26906,-0.26906 -0.43655,-0.64716 -0.3722,-0.84022 0.0767,-0.23018 3e-5,-0.27873 -0.22278,-0.14103 -0.22056,0.13632 -0.27473,0.10474 -0.15438,-0.09 0.10197,-0.165 0.0717,-0.51249 -0.0673,-0.7722 -0.30737,-0.57433 0.15478,-1.76293 1.04942,-2.69896 0.70005,-0.73245 0.85085,-1.25422 0.4365,-1.5103 -0.18423,-0.11386 -0.22726,0.0373 -0.12353,0.43393 0.11368,0.43473 0.0778,0.52724 -0.12575,0.32375 -0.1567,-0.15671 -0.20519,-0.49265 -0.10776,-0.74655 0.16365,-0.42646 0.20996,-0.42882 0.60786,-0.0309 0.39789,0.3979 0.48851,0.38208 1.18932,-0.20761 0.70729,-0.59514 0.91906,-1.15839 0.36625,-0.97412 -0.13377,0.0446 -0.0894,-0.10424 0.0985,-0.33073 0.38665,-0.46589 0.35523,-0.47525 -1.39298,-0.41484 -0.92851,0.0321 -1.25737,-0.0511 -1.21504,-0.30721 0.0319,-0.19317 -0.0368,-0.56956 -0.15281,-0.83642 -0.1659,-0.38177 -0.25853,-0.40997 -0.43455,-0.13229 -0.27876,0.43975 -0.29811,0.82182 -0.0334,0.65889 0.10914,-0.0672 0.2243,0.2348 0.25591,0.67104 0.0496,0.68459 0.002,0.74717 -0.34737,0.45718 -0.35123,-0.29149 -0.38132,-0.24227 -0.22722,0.37168 0.11019,0.43907 0.0694,0.70766 -0.10735,0.70766 -0.15709,0 -0.20915,-0.19757 -0.11602,-0.44027 0.11284,-0.29404 0.0671,-0.37736 -0.13756,-0.25085 -0.20775,0.1284 -0.25128,0.0358 -0.1351,-0.28732 0.22093,-0.61446 -0.0133,-0.38978 -0.43262,0.41506 -0.26917,0.5166 -0.26382,0.59481 0.0303,0.4434 0.19642,-0.10111 0.14876,-0.0131 -0.1059,0.19568 -0.25466,0.20873 -0.46119,0.54498 -0.45897,0.74722 0.003,0.29474 0.0559,0.28895 0.26533,-0.0292 0.19965,-0.30326 0.23453,-0.24086 0.1479,0.26459 -0.0624,0.3638 -0.12222,0.74702 -0.13303,0.85159 -0.0108,0.10457 -0.21608,0.11476 -0.45614,0.0226 -0.36586,-0.14039 -0.40737,-0.0427 -0.25655,0.60362 0.11828,0.50689 0.0963,0.64554 -0.0642,0.40463 -0.19576,-0.29381 -0.30653,-0.24997 -0.55864,0.2211 -0.17295,0.32316 -0.25095,0.65108 -0.17333,0.7287 0.0776,0.0776 -0.0358,0.3181 -0.25213,0.53439 -0.22561,0.22562 -0.32453,0.60978 -0.23204,0.90119 0.1025,0.32294 0.0455,0.48142 -0.15639,0.43514 -0.17467,-0.04 -0.43962,0.28439 -0.58877,0.72096 -0.14915,0.43656 -0.3605,0.85328 -0.46965,0.92604 -0.45309,0.30202 -0.26388,2.38117 0.2167,2.3813 0.37446,1e-4 0.34037,2.53764 -0.0489,3.64098 -0.86931,2.4639 -3.16684,3.53388 -5.73748,2.67201 -0.90573,-0.30366 -2.35458,-1.61085 -2.35458,-2.12435 0,-0.1521 -0.15843,-0.21576 -0.35207,-0.14146 -0.27562,0.10577 -0.34743,-0.31516 -0.33073,-1.93875 0.0194,-1.8873 0.0868,-2.14216 0.74894,-2.83325 0.40018,-0.41767 0.72943,-0.99101 0.73166,-1.27408 0.002,-0.31777 0.0784,-0.39912 0.19843,-0.21262 0.12963,0.20143 0.36372,0.0767 0.70262,-0.37428 0.27952,-0.372 0.3929,-0.60508 0.25195,-0.51797 -0.14095,0.0871 -0.42919,0.0446 -0.64052,-0.0944 -0.27388,-0.18021 -0.16108,-0.21565 0.39272,-0.1234 0.42733,0.0712 0.93111,0.001 1.1195,-0.15486 0.1884,-0.15635 0.81777,-0.23896 1.39861,-0.18357 1.05306,0.10043 1.05654,0.0977 1.21675,-0.97074 0.0884,-0.5893 0.0296,-2.24663 -0.13052,-3.68295 -0.16016,-1.43632 -0.22921,-2.67349 -0.15344,-2.74926 0.0758,-0.0758 0.1559,0.0309 0.17806,0.23707 0.0222,0.20615 0.068,0.49389 0.10177,0.63941 0.0338,0.14552 0.0883,0.50271 0.12099,0.79375 0.0327,0.29104 0.16345,-0.001 0.29049,-0.64913 0.12704,-0.64806 0.40598,-1.54708 0.61987,-1.99781 0.23659,-0.49859 0.3295,-1.17691 0.23725,-1.73213 -0.0834,-0.50193 -0.14206,-1.24002 -0.13035,-1.6402 0.0232,-0.79215 -0.3334,-0.97923 -0.59032,-0.30971 -0.17739,0.46229 0.0634,1.69866 0.33087,1.69896 0.0934,1e-4 0.18693,0.29776 0.20791,0.66146 0.038,0.6579 -0.39846,0.96138 -0.47533,0.33054 -0.0743,-0.60985 -0.12997,-0.85497 -0.41794,-1.84063 -0.2127,-0.72803 -0.20257,-1.3075 0.0393,-2.24896 0.1936,-0.75347 0.38749,-1.10714 0.47771,-0.87135 0.0961,0.25105 0.14158,0.18488 0.1239,-0.18011 -0.0154,-0.31734 -0.10882,-0.52701 -0.20764,-0.46593 -0.33802,0.20891 -0.77821,-0.60908 -0.59072,-1.09769 0.16689,-0.4349 0.14104,-0.44572 -0.23789,-0.0997 -0.26006,0.23748 -0.33098,0.48581 -0.18266,0.63957 0.36888,0.38241 0.28951,0.67613 -0.13834,0.51195 -0.20944,-0.0804 -0.59625,-0.0256 -0.85956,0.12179 -0.36841,0.20617 -0.22913,0.24388 0.60425,0.16361 l 1.083,-0.10431 -0.35573,1.3714 c -0.41066,1.58311 -0.45745,2.57899 -0.12119,2.57899 0.21032,0 0.34076,0.45847 0.64861,2.27981 0.0735,0.43474 -0.0147,0.53142 -0.39425,0.43216 -0.2689,-0.0703 -0.48891,0.005 -0.48891,0.16759 0,0.21306 -3.2463,0.29544 -11.64167,0.29544 H 110.99271 V 120.38542 103.1875 h 18.93332 c 12.55484,0 18.87823,0.0891 18.7698,0.26458 -0.0899,0.14552 -0.0374,0.26459 0.11668,0.26459 0.15411,0 0.2802,-0.11907 0.2802,-0.26459 0,-0.17041 2.77812,-0.26458 7.8052,-0.26458 h 7.80521 l -0.0264,15.54427 c -0.0145,8.54935 -0.1217,15.24662 -0.23821,14.88281 -0.1972,-0.61575 -0.21366,-0.6214 -0.23821,-0.0818 -0.0145,0.31884 0.0927,0.65329 0.23821,0.74322 0.17199,0.1063 0.26458,6.17636 0.26458,17.34583 v 17.1823 h -6.23929 -6.23928 l 0.61255,-0.99219 c 0.33691,-0.5457 0.94193,-1.33727 1.3445,-1.75903 0.40257,-0.42177 0.73194,-0.94554 0.73194,-1.16394 0,-0.2184 -0.57928,0.36481 -1.28728,1.29601 -2.16716,2.85037 -1.4646,2.63915 -8.50836,2.55798 l -6.17111,-0.0711 3.68389,-2.69928 c 2.02615,-1.48461 4.21968,-3.17939 4.87453,-3.76618 0.65484,-0.5868 1.27992,-1.06876 1.38906,-1.07104 0.10914,-0.002 0.19844,-0.18272 0.19844,-0.401 0,-0.21828 0.0976,-0.39688 0.21692,-0.39688 0.35146,0 1.89974,-1.47477 1.89974,-1.80954 0,-0.16892 0.12822,-0.30712 0.28494,-0.30712 0.3703,0 1.83173,-1.46143 1.83173,-1.83174 0,-0.15671 0.14883,-0.28527 0.33073,-0.28569 0.1819,-4.2e-4 0.56885,-0.35727 0.85989,-0.79299 0.29104,-0.43573 0.61847,-0.79257 0.72761,-0.79299 0.10914,-4.2e-4 0.19843,-0.11982 0.19843,-0.26535 0,-0.53805 -0.79614,-0.24158 -1.24343,0.46303 -0.25404,0.40018 -1.40647,1.67774 -2.56096,2.83902 -1.85827,1.8692 -2.12256,2.05132 -2.30375,1.5875 -0.17009,-0.43542 -0.20876,-0.38984 -0.22891,0.26983 -0.0186,0.61041 -0.2674,0.96578 -1.07693,1.53851 -0.57897,0.40962 -1.05268,0.91564 -1.05268,1.12448 0,0.20885 -0.166,0.37972 -0.3689,0.37972 -0.20289,0 -0.75126,0.35719 -1.2186,0.79375 -0.46734,0.43656 -1.00298,0.79375 -1.1903,0.79375 -0.18732,0 -0.41386,0.19095 -0.50342,0.42433 -0.0899,0.23418 -0.33363,0.35878 -0.544,0.27805 -0.22574,-0.0866 -0.33453,-0.0169 -0.26679,0.17099 0.10403,0.28856 -3.79187,3.11114 -4.5731,3.31322 -0.1819,0.047 -0.33072,0.19588 -0.33072,0.33073 0,0.14595 -3.50682,0.23673 -8.66511,0.22429 -4.76581,-0.0115 -8.48651,-0.0867 -8.26823,-0.16725 z m 34.925,-21.79011 c 0,-0.17217 0.23157,-0.20891 0.59324,-0.0941 0.52125,0.16543 0.55059,0.1369 0.2418,-0.23517 -0.39509,-0.47606 -0.20499,-0.9758 0.3712,-0.9758 0.20969,0 0.38126,-0.23812 0.38126,-0.52916 0,-0.2988 0.17639,-0.52917 0.40518,-0.52917 0.61639,0 0.77255,-0.75245 0.27113,-1.3065 -0.29799,-0.32929 -0.35116,-0.55178 -0.16006,-0.66989 0.15737,-0.0973 0.20626,-0.30607 0.10865,-0.46402 -0.10947,-0.17712 -0.0535,-0.21056 0.14601,-0.0872 0.17792,0.10997 0.25783,0.37106 0.17758,0.58021 -0.18231,0.47507 0.90063,0.93699 1.3497,0.5757 0.2021,-0.16259 0.51629,-0.14411 0.88256,0.0519 0.31281,0.16741 0.61332,0.2598 0.66782,0.2053 0.0545,-0.0545 -0.84492,-0.55808 -1.99868,-1.1191 -1.73565,-0.84396 -2.1672,-0.96239 -2.50007,-0.68613 -0.22128,0.18364 -0.34542,0.42598 -0.27586,0.53852 0.16019,0.2592 -0.61928,0.92412 -0.83291,0.7105 -0.18823,-0.18823 -2.09797,0.74658 -2.34641,1.14857 -0.0949,0.15352 -0.37084,0.21747 -0.61326,0.14211 -0.24241,-0.0754 -0.55982,-0.0504 -0.70534,0.0554 -0.4641,0.33749 -0.39477,0.79269 0.14212,0.93309 0.28604,0.0748 0.45843,0.0363 0.3831,-0.0856 -0.0753,-0.1219 0.0138,-0.30848 0.19807,-0.41462 0.18428,-0.10615 0.24927,-0.0981 0.14443,0.018 -0.25431,0.28149 0.81281,1.75815 1.20539,1.668 0.16948,-0.0389 0.32774,0.0342 0.35169,0.16244 0.10514,0.56301 1.41166,0.93955 1.41166,0.40683 z"
         id="path234" /><path
         style="fill:#b9d3e5"
         d="m 139.5093,168.39197 c 0.32367,-0.22672 0.72575,-0.32738 0.8935,-0.22371 0.18946,0.1171 0.23305,0.0721 0.11506,-0.11883 -0.11003,-0.17802 0.0119,-0.38164 0.28985,-0.48395 0.26388,-0.0971 0.575,-0.33442 0.69137,-0.5273 0.11637,-0.19287 0.4438,-0.35068 0.72761,-0.35068 0.28381,0 0.51602,-0.11438 0.51602,-0.25417 0,-0.13979 0.9525,-0.99249 2.11666,-1.89489 1.16417,-0.90239 2.11667,-1.74051 2.11667,-1.86249 0,-0.12198 0.14883,-0.22233 0.33073,-0.22301 0.1819,-6.7e-4 0.71122,-0.35786 1.17627,-0.79375 0.91559,-0.85817 1.78565,-1.02789 2.02826,-0.39565 0.0838,0.21828 0.2751,0.39688 0.42518,0.39688 0.15009,0 0.27289,-0.1786 0.27289,-0.39688 0,-0.21828 -0.16585,-0.39687 -0.36857,-0.39687 -0.56833,0 -0.69448,-0.67292 -0.20351,-1.08557 0.56187,-0.47225 2.15958,-0.34182 2.15958,0.17629 0,0.20906 0.22539,0.38011 0.50086,0.38011 0.27547,0 0.56979,0.17963 0.65403,0.39917 0.0842,0.21954 0.45417,0.5363 0.82206,0.70392 0.36789,0.16762 0.66888,0.46425 0.66888,0.65917 0,0.19493 0.12609,0.35441 0.2802,0.35441 0.45784,0 -0.0169,0.54273 -0.70277,0.80352 -0.40005,0.1521 -0.63576,0.45328 -0.63576,0.81235 0,0.5833 -0.84824,2.13365 -1.57785,2.88388 -0.22359,0.22991 -0.64314,0.74027 -0.93234,1.13413 l -0.52582,0.71612 h -6.21378 c -5.7015,0 -6.16527,-0.034 -5.62528,-0.4122 z m 13.28757,-0.11697 c 0.15576,-0.29104 0.40191,-0.52916 0.547,-0.52916 0.14509,0 0.34926,-0.20836 0.45372,-0.46303 0.50142,-1.22252 3.1323,-4.80816 3.44479,-4.69494 0.19304,0.0699 0.26888,0.003 0.17252,-0.1534 -0.0946,-0.15303 0.002,-0.47909 0.21353,-0.72458 0.71843,-0.83187 0.75005,-1.67316 0.0826,-2.19817 -0.5976,-0.47007 -0.60298,-0.51327 -0.2121,-1.70059 0.27603,-0.83845 0.46905,-1.10885 0.61914,-0.8673 0.12256,0.19723 0.1059,0.3896 -0.038,0.43916 -0.14086,0.0485 -0.25611,0.21191 -0.25611,0.36312 0,0.16735 0.1536,0.14746 0.39252,-0.0508 0.30056,-0.24944 0.36244,-0.73121 0.26415,-2.05633 -0.13074,-1.76261 -0.43389,-2.44521 -1.08594,-2.44521 -0.20046,0 -0.36448,-0.11104 -0.36448,-0.24675 0,-0.2135 -1.06456,-0.70306 -1.26191,-0.5803 -0.0392,0.0244 -0.33626,-0.20253 -0.66013,-0.50426 -0.32386,-0.30172 -0.79796,-0.4939 -1.05356,-0.42706 -0.25559,0.0668 -0.40366,0.0227 -0.32904,-0.098 0.18428,-0.29817 -4.05262,-1.9106 -4.42143,-1.68266 -0.16125,0.0997 -0.22403,0.0693 -0.1395,-0.0675 0.0845,-0.13677 -0.64121,-0.52966 -1.61276,-0.87309 -3.3283,-1.17649 -4.60917,-2.20319 -5.65276,-4.53105 -0.51113,-1.14013 -0.20832,-2.06765 1.06655,-3.26684 0.44911,-0.42245 0.75242,-0.87188 0.67401,-0.99874 -0.0784,-0.12686 -0.0444,-0.20078 0.0756,-0.16426 0.3588,0.10921 3.01042,-1.80297 2.79663,-2.01676 -0.1085,-0.10851 -0.0782,-0.17326 0.0673,-0.1439 0.59076,0.11919 0.9466,-0.0266 0.76849,-0.31475 -0.12018,-0.19445 -0.0722,-0.23342 0.13195,-0.10724 0.18276,0.11296 0.7791,-0.1051 1.3863,-0.50693 l 1.06557,-0.70516 -1.01469,-0.8892 c -0.55809,-0.48906 -1.25282,-1.00685 -1.54387,-1.15064 -0.73645,-0.36384 -4.6075,-1.20877 -4.7742,-1.04206 -0.0751,0.0751 -0.18343,0.50667 -0.24067,0.959 -0.0572,0.45233 -0.17395,0.93545 -0.25933,1.0736 -0.0854,0.13815 -0.19956,0.63185 -0.25373,1.0971 -0.0542,0.46526 -0.24679,0.93757 -0.42803,1.04958 -0.18751,0.11589 -0.24029,0.34807 -0.12247,0.53871 0.13482,0.21814 0.10049,0.26918 -0.0984,0.14626 -0.28363,-0.17529 -0.40962,0.19111 -0.37702,1.09637 0.006,0.18033 -0.0842,0.26853 -0.20158,0.196 -0.11736,-0.0725 -0.36034,0.3157 -0.53996,0.86274 -0.17961,0.54705 -0.55613,1.43673 -0.8367,1.97707 -0.28058,0.54035 -0.43385,1.10589 -0.3406,1.25677 0.0932,0.15088 0.0622,0.27433 -0.0689,0.27433 -0.13116,0 -0.67659,0.93362 -1.21208,2.07472 l -0.97361,2.07472 0.5292,1.16643 c 0.79508,1.75245 0.60803,3.62157 -0.51751,5.17136 -1.3196,1.817 -5.37955,1.88929 -6.82849,0.12159 -0.19041,-0.2323 -0.57947,-0.92054 -0.86457,-1.52943 -0.89583,-1.91316 -0.33331,-3.60622 1.9837,-5.97054 0.862,-0.8796 1.11964,-0.99219 2.27052,-0.99219 1.25921,0 1.30244,-0.0258 1.4397,-0.85989 0.0778,-0.47294 0.19951,-1.93146 0.27039,-3.24115 0.12944,-2.39166 0.32346,-3.35749 0.94119,-4.68545 0.54556,-1.1728 -0.10083,-6.01594 -1.01702,-7.62013 l -0.71437,-1.25081 -0.46308,0.61392 c -0.4465,0.59194 -0.50246,0.60003 -1.56255,0.22601 -0.63399,-0.22369 -1.46209,-0.31989 -1.95597,-0.22724 -0.71495,0.13413 -0.88574,0.0685 -1.03348,-0.39696 -0.0998,-0.31429 -0.30376,-0.47929 -0.46748,-0.37811 -0.18656,0.1153 -0.23005,0.022 -0.12155,-0.26074 0.12906,-0.33633 0.0169,-0.44028 -0.475,-0.44028 -0.35417,0 -1.04556,-0.35262 -1.53642,-0.7836 -0.69551,-0.61067 -0.96274,-0.71334 -1.21085,-0.46524 -0.39232,0.39232 -0.81526,-0.15667 -0.82145,-1.06626 -0.002,-0.33361 -0.14945,-0.56624 -0.33478,-0.52917 -0.21949,0.0439 -0.32583,-0.26758 -0.31616,-0.92604 0.01,-0.64715 -0.1055,-0.99219 -0.33072,-0.99219 -0.48536,0 -0.43067,-0.4398 0.079,-0.63538 0.24041,-0.0923 0.35921,-0.3325 0.2741,-0.5543 -0.0826,-0.21531 -0.059,-0.36313 0.0524,-0.3285 0.11145,0.0346 0.61318,-0.41159 1.11495,-0.99161 0.88745,-1.02584 0.89172,-1.0414 0.15644,-0.57068 -0.59729,0.38237 -0.81935,0.41507 -1.05834,0.15587 -0.2306,-0.25011 -0.21992,-0.28123 0.045,-0.131 0.43316,0.24566 1.42721,-0.60688 1.18307,-1.01466 -0.0973,-0.16245 0.0273,-0.1297 0.27688,0.0728 0.39664,0.32184 0.43275,0.31352 0.28706,-0.0662 -0.19221,-0.50089 0.30683,-0.60238 0.50923,-0.10357 0.0972,0.23958 0.19444,0.249 0.35278,0.0342 0.12022,-0.16311 0.6353,-0.35905 1.14462,-0.43544 0.50932,-0.0764 1.21255,-0.22958 1.56273,-0.34043 0.49027,-0.15521 0.58735,-0.12173 0.42214,0.14558 -0.14319,0.23168 -0.11151,0.28346 0.0952,0.15569 0.17038,-0.1053 0.24128,-0.30229 0.15756,-0.43776 -0.28017,-0.45332 0.42668,-0.25279 1.37115,0.38899 0.99754,0.67785 1.88528,1.74596 1.4511,1.74596 -0.14396,0 -0.33788,-0.23985 -0.43092,-0.533 -0.093,-0.29316 -0.27966,-0.46473 -0.41471,-0.38126 -0.13504,0.0835 -0.24553,0.0186 -0.24553,-0.14407 0,-0.1627 -0.1168,-0.22363 -0.25955,-0.1354 -0.14275,0.0882 0.15622,0.52546 0.66438,0.97163 0.72075,0.63283 1.00376,0.74496 1.28698,0.50991 0.27953,-0.23199 0.4006,-0.20347 0.52625,0.12396 0.22101,0.57593 0.20822,0.64657 -0.11701,0.64657 -0.15411,0 -0.19524,-0.13746 -0.0914,-0.30547 0.1179,-0.19077 0.0725,-0.23358 -0.12099,-0.11401 -0.43184,0.26689 -0.11238,0.68406 0.52383,0.68406 0.29104,0 0.45558,-0.11906 0.36564,-0.26458 -0.24212,-0.39177 0.22139,-0.32082 0.80933,0.12387 0.28247,0.21366 0.75172,0.40165 1.04276,0.41777 0.33101,0.0183 0.39554,0.0825 0.17234,0.17145 -0.19625,0.0782 -0.64514,-0.0122 -0.99753,-0.20075 -0.44962,-0.24063 -0.72401,-0.25961 -0.92,-0.0636 -0.19598,0.19599 -0.0563,0.35638 0.46837,0.53777 0.80147,0.27709 0.91411,0.27044 2.73203,-0.1615 0.65484,-0.15559 1.905,-0.28762 2.77812,-0.29341 1.12439,-0.007 1.47172,-0.0853 1.19063,-0.267 -0.21829,-0.14106 -0.27081,-0.2583 -0.11672,-0.26053 0.15409,-0.002 0.51127,0.17075 0.79375,0.38441 0.28247,0.21365 0.71203,0.39224 0.95456,0.39687 0.24254,0.005 0.51043,0.15725 0.59531,0.33915 0.12348,0.26458 0.18521,0.26458 0.30869,0 0.24596,-0.52708 0.90399,-0.38263 0.90399,0.19843 0,0.5044 0.25545,0.64502 0.99573,0.54811 0.18385,-0.0241 0.40139,0.13116 0.48344,0.34497 0.082,0.2138 0.61623,0.5756 1.18708,0.80401 0.57085,0.22841 1.03884,0.50556 1.03998,0.61588 0.001,0.11031 0.31859,0.34755 0.70546,0.52718 0.55799,0.25908 0.79003,0.25908 1.12242,0 0.36344,-0.28329 0.3743,-0.26935 0.0819,0.10512 -0.29342,0.37573 -0.19665,0.48794 0.74616,0.86517 0.59582,0.2384 1.51675,0.85441 2.04652,1.36892 0.75667,0.73487 1.10728,0.90221 1.63509,0.78043 0.42826,-0.0988 0.54635,-0.071 0.3257,0.0766 -0.25953,0.17366 -0.094,0.43945 0.66146,1.06183 0.5542,0.4566 1.216,1.01082 1.47066,1.2316 0.25466,0.22078 0.58208,0.40142 0.7276,0.40142 0.14553,0 0.26459,0.11629 0.26459,0.25841 0,0.31799 2.10928,1.36489 2.39463,1.18853 0.1133,-0.07 0.24594,-0.0351 0.29475,0.0776 0.1947,0.44959 1.62325,1.36809 1.88051,1.20909 0.1509,-0.0933 0.19746,-0.0451 0.10347,0.10696 -0.094,0.15209 0.12573,0.47088 0.48828,0.70844 l 0.65919,0.43191 v 5.17533 c 0,2.84643 -0.0893,5.13503 -0.19844,5.08578 -0.10914,-0.0493 -1.71954,-0.83308 -3.57867,-1.74184 -1.85913,-0.90876 -3.45523,-1.6523 -3.5469,-1.6523 -0.0917,0 -0.54484,0.28845 -1.00705,0.64099 -0.9875,0.75321 -2.70141,1.74026 -3.02176,1.74026 -0.12332,0 -0.67725,0.18929 -1.23095,0.42064 l -1.00673,0.42064 1.30515,0.76354 c 0.71783,0.41995 1.5135,0.83986 1.76816,0.93314 0.25467,0.0933 0.46302,0.26275 0.46302,0.3766 0,0.28996 1.83515,1.2149 2.8548,1.43885 0.46715,0.1026 0.84937,0.27804 0.84937,0.38985 0,0.22337 0.99009,0.34825 3.08681,0.38933 0.75185,0.0147 1.31843,0.0754 1.25906,0.13473 -0.0594,0.0594 0.026,0.26939 0.1898,0.46671 0.27606,0.33264 0.23087,1.31056 -0.15988,3.46006 -0.0728,0.40028 0.0872,0.0766 0.35554,-0.7193 0.38424,-1.13977 0.52395,-1.33334 0.65783,-0.91151 0.23141,0.7291 0.12087,4.16713 -0.12137,3.77516 -0.10642,-0.17218 -0.14172,-0.97806 -0.0785,-1.79085 0.0781,-1.00317 0.0391,-1.30785 -0.12128,-0.94863 -0.40085,0.89765 -0.33817,3.23687 0.0984,3.67347 0.24468,0.24469 0.29286,0.45624 0.12722,0.55861 -0.14664,0.0906 -0.26662,0.0387 -0.26662,-0.11542 0,-0.15411 -0.18905,-0.2802 -0.42013,-0.2802 -0.34245,0 -0.39117,-0.20792 -0.26353,-1.12448 0.11556,-0.82972 0.0913,-0.97394 -0.0927,-0.55017 -0.34084,0.78508 -0.31238,2.9862 0.0307,2.37316 0.31368,-0.56051 0.73607,-0.32028 0.77641,0.44158 0.0213,0.40203 0.0661,0.4465 0.14622,0.14509 0.0748,-0.28159 0.29694,-0.38717 0.63076,-0.29987 0.4908,0.12835 0.51524,0.40943 0.51524,5.92471 v 5.78998 h -6.09472 c -6.01274,0 -6.09092,-0.007 -5.81153,-0.52917 z m -41.80416,-55.58864 v -9.49886 l 9.45885,0.004 9.45885,0.004 -0.82671,0.72338 c -0.45469,0.39786 -1.81104,1.55682 -3.01411,2.57546 -1.20306,1.01865 -2.95824,2.59623 -3.90038,3.50573 -0.94215,0.90951 -1.81823,1.65365 -1.94683,1.65365 -0.12861,0 -0.23384,0.11906 -0.23384,0.26458 0,0.57367 0.56914,0.1832 2.55792,-1.75495 1.13976,-1.11074 2.72713,-2.52741 3.5275,-3.14815 0.80036,-0.62075 2.09053,-1.73602 2.86705,-2.47839 l 1.41184,-1.34976 9.17149,0.0137 9.17149,0.0137 -3.43958,1.72639 c -2.91782,1.4645 -5.98608,3.14647 -10.00407,5.48405 -0.46412,0.27002 -0.88354,0.59744 -0.93204,0.72761 -0.0485,0.13016 -0.20417,0.23666 -0.34591,0.23666 -0.431,0 -5.80288,3.84676 -6.00409,4.29948 -0.0485,0.10914 -0.2271,0.19859 -0.39688,0.19876 -0.29294,3.1e-4 -1.26203,0.70609 -2.42535,1.76635 -0.29104,0.26526 -0.70776,0.48785 -0.92604,0.49465 -0.21828,0.007 -0.36829,0.15207 -0.33336,0.32283 0.0349,0.17076 -0.19382,0.44819 -0.50835,0.61652 -0.31452,0.16833 -0.8597,0.64813 -1.21151,1.06623 -0.71007,0.84387 -2.18011,1.08885 -2.18011,0.36331 0,-0.29986 -0.32338,-0.39688 -1.32292,-0.39688 h -1.32291 v -1.2193 c 0,-1.16232 -0.0303,-1.2117 -0.64916,-1.05638 l -0.64915,0.16292 0.58301,-1.09362 c 0.32065,-0.60149 0.73183,-1.15089 0.91373,-1.22089 0.33252,-0.12794 0.47672,-1.12898 0.16264,-1.12898 -0.33826,0 -4.06524,4.30206 -4.06524,4.6925 0,0.11977 -0.23813,0.3894 -0.52917,0.59917 -0.29104,0.20977 -0.52916,0.48594 -0.52916,0.61371 0,0.12778 -0.35719,0.56598 -0.79375,0.97379 l -0.79375,0.74147 z m 23.252,0.75374 c -0.0172,-0.1819 -0.0164,-0.4225 0.002,-0.53466 0.0182,-0.11217 -0.26532,-0.12903 -0.63013,-0.0375 -1.31598,0.3303 -0.55193,-0.51899 0.99036,-1.10084 0.25466,-0.0961 0.46302,-0.27986 0.46302,-0.40841 0,-0.12854 0.17859,-0.23372 0.39687,-0.23372 0.21829,0 0.39688,-0.11906 0.39688,-0.26458 0,-0.14552 0.30139,-0.26459 0.66976,-0.26459 0.3964,0 0.73949,-0.18898 0.8406,-0.46302 0.22925,-0.62136 0.64718,-0.87622 1.17028,-0.71368 0.23743,0.0738 0.49439,-0.0292 0.57102,-0.22894 0.0766,-0.1997 0.53722,-0.56574 1.02352,-0.81343 0.48631,-0.24769 1.24138,-0.67649 1.67794,-0.95288 1.32621,-0.83965 2.3115,-1.32596 2.68649,-1.32596 0.19592,0 0.35622,-0.1786 0.35622,-0.39688 0,-0.21828 0.21584,-0.39687 0.47965,-0.39687 0.26381,0 1.10679,-0.30254 1.87329,-0.67232 0.7665,-0.36977 1.74128,-0.74184 2.16618,-0.82682 0.4249,-0.085 0.77255,-0.25869 0.77255,-0.38602 0,-0.12733 3.27422,-0.23151 7.27604,-0.23151 h 7.27604 v 5.29167 5.29166 h -15.21354 c -11.97773,0 -15.22021,-0.0703 -15.24487,-0.33073 z"
         id="path233" /><path
         style="fill:#a8c6db"
         d="m 160.37587,159.89081 c -0.10016,-0.10016 -0.73406,-0.19256 -1.40867,-0.20534 -1.6888,-0.032 -2.06418,-0.62989 -1.05608,-1.68212 0.6691,-0.69839 0.72675,-0.91496 0.65404,-2.45702 l -0.0797,-1.69112 -1.28444,-0.85841 c -0.70645,-0.47212 -1.40945,-0.78115 -1.56224,-0.68672 -0.15278,0.0944 -0.20222,0.0494 -0.10987,-0.10001 0.19797,-0.32032 -1.56727,-1.13036 -6.25428,-2.87001 -4.70367,-1.74584 -5.94503,-2.53026 -6.90426,-4.36283 -0.57664,-1.10164 -0.72264,-1.65545 -0.58304,-2.21163 0.31334,-1.24845 2.62119,-3.39659 5.44468,-5.0679 1.45839,-0.86327 2.65226,-1.64453 2.65306,-1.73614 7.9e-4,-0.0916 -0.53382,-0.60517 -1.18803,-1.14124 -0.94076,-0.77088 -1.70884,-1.10024 -3.67336,-1.57517 l -2.4839,-0.60049 -0.55791,2.08449 c -0.30685,1.14647 -0.84667,2.70416 -1.19961,3.46153 -0.35293,0.75736 -0.95955,2.15094 -1.34805,3.09682 -0.3885,0.94589 -1.18477,2.71156 -1.7695,3.92373 l -1.06313,2.20393 0.42475,1.1122 c 0.96605,2.52956 0.3069,5.09751 -1.58716,6.18339 -3.41985,1.96063 -7.48614,-0.97811 -6.66709,-4.81837 0.21151,-0.99171 0.58822,-1.58482 1.7873,-2.81405 1.41613,-1.45174 1.60145,-1.5575 2.72927,-1.5575 1.43702,0 1.39527,0.10685 1.76552,-4.51834 0.15214,-1.90051 0.4195,-3.42862 0.7044,-4.02608 0.67565,-1.41684 0.17122,-5.94408 -0.87009,-7.80917 -0.69764,-1.24952 -0.73802,-1.27697 -1.14293,-0.77692 -0.39734,0.49068 -0.49982,0.49797 -1.91931,0.13644 -0.99383,-0.25312 -1.58828,-0.29322 -1.7626,-0.11889 -0.3217,0.3217 -0.98681,-0.17073 -1.21909,-0.9026 C 128.7563,127.22737 128.47524,127 128.21993,127 c -0.25532,0 -0.93085,-0.34794 -1.50119,-0.77319 -0.78988,-0.58895 -1.12115,-0.70334 -1.39021,-0.48004 -0.42912,0.35614 -0.83185,-0.15416 -0.83802,-1.06187 -0.002,-0.32743 -0.13516,-0.56555 -0.29539,-0.52917 -0.17595,0.0399 -0.32011,-0.4715 -0.36396,-1.29126 -0.0662,-1.23796 0.0268,-1.4903 1.05706,-2.86775 1.36991,-1.8315 2.12786,-2.25714 4.01941,-2.25714 1.58408,0 2.20896,0.32729 4.25808,2.23022 1.75371,1.62859 2.49456,1.85339 4.472,1.35697 0.90303,-0.2267 2.2049,-0.41219 2.89306,-0.41219 1.28095,0 4.351,0.72714 4.59888,1.08924 0.0759,0.11086 0.90932,0.5688 1.85208,1.01765 0.94275,0.44884 2.19035,1.1095 2.77243,1.46813 0.58209,0.35863 1.21335,0.59529 1.40281,0.52592 0.18946,-0.0694 0.28229,-0.0255 0.20629,0.0975 -0.076,0.12297 0.83781,0.86575 2.03068,1.65062 1.19287,0.78487 2.66204,1.84375 3.26482,2.35308 0.60278,0.50932 1.33519,1.12084 1.62759,1.35893 0.74559,0.60714 4.91531,2.75521 5.17967,2.66836 0.11995,-0.0394 0.15378,0.0324 0.0752,0.15962 -0.0786,0.1272 0.15066,0.48655 0.5095,0.79855 0.65074,0.56582 0.65243,0.58034 0.65243,5.59612 0,2.76586 -0.0709,5.02883 -0.15759,5.02883 -0.0867,0 -0.47363,-0.21643 -0.8599,-0.48096 -0.38626,-0.26453 -1.47621,-0.80727 -2.42209,-1.20609 -0.94589,-0.39882 -2.14943,-1.00636 -2.67453,-1.35009 l -0.95474,-0.62497 -1.49639,1.0156 c -0.82301,0.55858 -2.34341,1.33927 -3.37866,1.73486 l -1.88227,0.71926 0.88451,0.37191 c 0.48648,0.20455 1.48401,0.81495 2.21673,1.35645 1.3821,1.0214 2.37044,1.57116 3.05201,1.69766 0.21829,0.0405 0.4708,0.17488 0.56115,0.29858 0.0903,0.1237 1.10237,0.34469 2.24895,0.49109 3.15535,0.40288 3.37169,0.52964 3.19715,1.8732 -0.91908,7.07451 -1.25361,8.30448 -2.3356,8.58743 -0.39774,0.10401 -0.44222,0.2118 -0.20524,0.49735 0.30757,0.3706 0.21193,0.51512 -0.12074,0.18245 z M 112.77864,115.9697 c -0.55517,-0.14508 -0.66789,-2.0816 -0.13229,-2.27289 0.1819,-0.065 0.23496,-0.22026 0.11791,-0.34511 -0.11706,-0.12485 -0.31894,-0.0553 -0.44864,0.15455 -0.12969,0.20985 -0.32364,0.29372 -0.43099,0.18637 -0.10735,-0.10736 -0.0543,-0.33608 0.1179,-0.50828 0.1722,-0.1722 0.31309,-0.58693 0.31309,-0.92163 0,-0.65258 0.38727,-0.82149 0.63697,-0.27781 0.0835,0.1819 0.087,0.0677 0.008,-0.25381 -0.10112,-0.40972 0.0506,-0.75391 0.50712,-1.1509 0.35826,-0.3115 0.72732,-0.97119 0.82015,-1.46599 0.0928,-0.49479 0.28244,-0.89962 0.42136,-0.89962 0.13893,0 0.2526,-0.14009 0.2526,-0.31133 0,-0.30625 2.21005,-3.73874 2.82335,-4.38502 0.23285,-0.24538 1.80385,-0.32873 6.08743,-0.32297 l 5.77359,0.008 -0.83269,0.71985 c -0.45798,0.39592 -1.12548,0.95797 -1.48334,1.24902 -2.33151,1.89615 -4.97012,4.27099 -8.33838,7.5048 -0.94393,0.90625 -1.54188,1.29087 -1.85208,1.19129 -0.39047,-0.12535 -0.39951,-0.10361 -0.0612,0.14725 0.33933,0.25163 0.28625,0.39209 -0.366,0.96865 -0.54038,0.47767 -0.84518,0.59203 -1.0451,0.39211 -0.15523,-0.15523 -0.80809,-0.28223 -1.4508,-0.28223 -1.0383,0 -1.15314,0.059 -1.03018,0.52917 0.0761,0.29104 0.11976,0.51535 0.097,0.49847 -0.0228,-0.0169 -0.24973,-0.0851 -0.5044,-0.15169 z m -1.78593,-7.75512 v -5.02708 h 3.175 c 1.74625,0 3.175,0.0646 3.175,0.14359 0,0.079 -0.47625,0.78826 -1.05834,1.5762 -0.58208,0.78794 -1.05833,1.50517 -1.05833,1.59386 0,0.0887 -0.28397,0.54025 -0.63105,1.00348 -0.34708,0.46324 -1.24763,1.94357 -2.00123,3.28964 -0.7536,1.34607 -1.42213,2.4474 -1.48562,2.4474 -0.0635,0 -0.11543,-2.26219 -0.11543,-5.02709 z m 24.27552,0.64073 c -0.78235,-0.71945 -0.99219,-1.10753 -0.99219,-1.83491 0,-0.89984 -0.026,-0.92248 -1.05833,-0.92248 -0.99954,0 -1.05834,-0.0441 -1.05834,-0.79375 0,-0.83084 -0.43634,-1.07892 -0.69807,-0.39688 -0.19511,0.50845 -1.41859,0.52747 -1.41859,0.022 0,-0.20615 -0.14883,-0.42798 -0.33073,-0.49294 -0.1819,-0.065 -0.23496,-0.22027 -0.11791,-0.34512 0.11724,-0.12505 0.29548,-0.10294 0.39688,0.0492 0.10122,0.15192 0.39241,0.3531 0.64707,0.44706 0.37535,0.13849 0.46302,0.0221 0.46302,-0.61461 v -0.78545 h 6.95854 c 4.99321,0 7.0467,0.0882 7.2707,0.31215 0.23981,0.23982 0.45752,0.23436 0.93947,-0.0236 0.34502,-0.18465 0.91297,-0.29249 1.26211,-0.23964 0.51867,0.0785 0.33228,0.23466 -1.01884,0.85346 -0.90951,0.41655 -1.65365,0.86017 -1.65365,0.98582 0,0.12564 -0.20836,0.23317 -0.46302,0.23895 -0.25466,0.006 -1.11786,0.36293 -1.91823,0.79368 -1.02871,0.55366 -1.82354,0.78321 -2.71198,0.78326 -0.90353,4e-5 -1.25677,0.10464 -1.25677,0.37216 0,0.25278 0.19091,0.32527 0.59531,0.22605 0.57658,-0.14146 0.5745,-0.12974 -0.0661,0.37248 -0.3638,0.28519 -1.09837,0.72029 -1.63237,0.96689 -0.534,0.2466 -1.01025,0.55865 -1.05833,0.69346 -0.0481,0.1348 -0.53391,-0.1655 -1.07961,-0.66734 z"
         id="path232" /><path
         style="fill:#9db3d5"
         d="m 158.1385,159.59755 c -0.91603,-0.14208 -1.00276,-0.78487 -0.21662,-1.60543 0.59708,-0.62321 0.69582,-0.95699 0.69582,-2.35199 0,-1.52549 -0.053,-1.66543 -0.85989,-2.27037 -1.65679,-1.24211 -3.80567,-2.28031 -7.97934,-3.85511 -5.41462,-2.04303 -6.41957,-2.65918 -7.40815,-4.54197 -0.58928,-1.1223 -0.7248,-1.64744 -0.57922,-2.24441 0.27893,-1.14383 3.14452,-3.74688 5.80089,-5.26943 1.26195,-0.72332 2.29447,-1.39358 2.29447,-1.48948 0,-0.0959 -0.5461,-0.62185 -1.21356,-1.16878 -0.97419,-0.79828 -1.70038,-1.10922 -3.68179,-1.57646 l -2.46824,-0.58205 -0.30903,1.21386 c -0.42855,1.68332 -1.02231,3.35991 -1.74173,4.91803 -0.33595,0.7276 -0.97509,2.17758 -1.42031,3.22218 -0.44522,1.04459 -1.2203,2.75647 -1.7224,3.80417 l -0.9129,1.90491 0.51727,1.01393 c 1.49868,2.93766 -0.56033,6.59127 -3.71454,6.59127 -2.99703,0 -5.06533,-2.51982 -4.4472,-5.41804 0.21151,-0.99171 0.58822,-1.58482 1.7873,-2.81405 1.41255,-1.44806 1.60362,-1.5575 2.71944,-1.5575 1.45805,0 1.45526,0.007 1.77758,-4.26975 0.14943,-1.98266 0.40907,-3.48501 0.72913,-4.21897 0.46569,-1.06794 0.47403,-1.3216 0.13218,-4.02074 -0.2789,-2.20215 -0.51527,-3.10252 -1.00324,-3.8216 -0.35111,-0.51738 -0.63838,-1.05633 -0.63838,-1.19767 0,-0.14133 -0.21382,0.007 -0.47515,0.32981 -0.46142,0.56983 -0.51845,0.57574 -1.9747,0.20485 -0.99383,-0.25312 -1.58828,-0.29322 -1.7626,-0.11889 -0.3217,0.3217 -0.98681,-0.17073 -1.21909,-0.9026 C 128.7563,127.22737 128.47748,127 128.22492,127 c -0.25257,0 -0.97018,-0.37577 -1.59469,-0.83503 -0.92254,-0.67845 -1.1804,-0.76528 -1.37504,-0.46303 -0.20389,0.31661 -0.27837,0.31291 -0.5001,-0.0249 -0.14329,-0.21828 -0.26235,-0.66476 -0.26458,-0.99218 -0.002,-0.32743 -0.1325,-0.56555 -0.28949,-0.52917 -0.1719,0.0398 -0.30345,-0.48167 -0.33073,-1.31104 -0.0401,-1.2195 0.0744,-1.54246 0.99984,-2.82052 1.2363,-1.70734 2.30213,-2.28459 4.21826,-2.28459 1.47249,0 1.57377,0.0616 4.61993,2.81091 1.12514,1.01548 2.34747,1.24583 4.12904,0.7781 2.78927,-0.73229 4.66615,-0.4598 8.01841,1.16413 0.91183,0.44171 1.73294,0.80311 1.8247,0.80311 0.0918,0 0.77447,0.39344 1.51714,0.87432 0.74267,0.48087 2.40119,1.52267 3.6856,2.3151 1.28441,0.79244 3.12988,2.12445 4.10104,2.96004 0.97116,0.83559 2.53359,1.88615 3.47207,2.33459 1.58742,0.75853 3.59363,2.12463 4.04431,2.75391 0.2306,0.32198 0.27408,10.19329 0.0449,10.19329 -0.0867,0 -0.48336,-0.23196 -0.88151,-0.51547 -0.39816,-0.28351 -1.36904,-0.7689 -2.15752,-1.07863 -0.78847,-0.30973 -1.98526,-0.90157 -2.65954,-1.3152 l -1.22595,-0.75204 -1.39681,0.94067 c -1.20023,0.80828 -2.7723,1.54947 -4.87737,2.29957 -0.452,0.16106 -0.37929,0.25261 0.52916,0.66625 0.57925,0.26374 1.52942,0.86427 2.11151,1.33452 1.8261,1.47526 3.51388,2.16877 6.18663,2.54207 1.3965,0.19505 2.59803,0.50045 2.7271,0.69315 0.12689,0.18947 0.18155,0.70168 0.12146,1.13824 -1.01874,7.40128 -1.18749,8.04029 -2.23805,8.47494 -0.8118,0.33588 -2.02508,0.53872 -2.64614,0.4424 z m -46.79429,-48.37627 c -0.21567,-0.088 -0.31806,-1.32908 -0.3366,-4.08015 l -0.0266,-3.95363 h 3.06419 c 2.38328,0 3.01906,0.0735 2.86111,0.33073 -0.1117,0.1819 -0.95216,1.452 -1.8677,2.82245 -0.91554,1.37045 -1.66461,2.65037 -1.66461,2.84427 0,0.1939 -0.10032,0.35255 -0.22292,0.35255 -0.12261,0 -0.44734,0.41672 -0.72163,0.92604 -0.51036,0.94768 -0.55077,0.9759 -1.0852,0.75774 z"
         id="path231" /><path
         style="fill:#b8f042"
         d="m 157.63566,159.2601 c -0.25266,-0.26092 -0.14835,-0.52722 0.49237,-1.25696 0.77381,-0.88132 0.80466,-1.00349 0.64066,-2.53692 -0.13991,-1.30807 -0.30562,-1.7211 -0.88125,-2.19648 -1.06232,-0.8773 -5.10248,-2.79397 -8.49951,-4.03222 -3.60997,-1.31586 -5.26075,-2.12833 -6.02005,-2.96289 -0.93556,-1.02829 -1.73005,-2.83619 -1.52721,-3.47525 0.48826,-1.53839 2.78447,-3.55148 6.2824,-5.50782 1.11538,-0.62381 2.02797,-1.20188 2.02797,-1.2846 0,-0.0827 -0.6609,-0.66655 -1.46866,-1.29742 -1.11999,-0.87473 -1.88945,-1.23744 -3.24115,-1.52782 -0.97486,-0.20943 -2.08735,-0.44821 -2.47219,-0.53062 -0.65418,-0.14009 -0.71137,-0.0749 -0.87905,1.00214 -0.1854,1.1908 -1.27084,4.35583 -1.89225,5.51759 -0.1946,0.36381 -0.90526,1.91162 -1.57927,3.43959 -0.674,1.52797 -1.52107,3.43297 -1.88237,4.23333 -0.3613,0.80037 -0.56706,1.36644 -0.45723,1.25794 0.29076,-0.28724 1.17217,1.83018 1.17217,2.81593 0,1.20652 -1.04206,3.09917 -2.08965,3.79535 -1.60397,1.06592 -4.11448,0.70569 -5.52179,-0.79232 -1.73524,-1.84708 -1.56495,-4.45993 0.42483,-6.51824 1.48293,-1.534 2.09569,-1.88158 3.31714,-1.88158 0.5103,0 1.00372,-0.1228 1.09648,-0.27289 0.0928,-0.15009 0.27362,-1.75407 0.40192,-3.56439 0.16249,-2.29297 0.39645,-3.67504 0.77121,-4.55576 0.50915,-1.19657 0.5195,-1.41384 0.19348,-4.05867 -0.27723,-2.249 -0.50347,-3.06983 -1.15908,-4.20539 -0.78471,-1.35917 -0.82625,-1.38922 -1.13157,-0.81873 -0.27212,0.50845 -0.47282,0.5728 -1.41882,0.45488 -0.60602,-0.0755 -1.31173,-0.21912 -1.56825,-0.31905 -0.25651,-0.0999 -0.63987,-0.0377 -0.85189,0.13824 -0.31867,0.26447 -0.46421,0.15491 -0.83939,-0.63185 -0.28842,-0.60482 -0.63916,-0.9518 -0.96211,-0.9518 -0.27953,0 -0.95203,-0.3515 -1.49445,-0.7811 -0.92043,-0.72899 -1.01564,-0.75168 -1.42714,-0.34018 -0.41151,0.4115 -0.44092,0.36464 -0.44092,-0.70242 0,-0.94111 -0.0752,-1.1145 -0.4249,-0.98029 -0.35571,0.1365 -0.40843,-0.01 -0.32374,-0.89773 0.0556,-0.58343 0.003,-1.06078 -0.11698,-1.06078 -0.26322,0 1.08777,-1.96691 2.03573,-2.96382 0.67513,-0.71 2.10901,-1.26521 3.2748,-1.26804 0.90116,-0.002 2.10569,0.70311 3.60953,2.11351 1.95481,1.83335 2.74114,2.04326 5.49183,1.46601 2.68873,-0.56425 3.94153,-0.37277 7.20815,1.10172 3.08544,1.39271 9.04217,5.11773 11.1272,6.95836 0.98782,0.87203 2.5827,1.95467 3.54418,2.40588 0.96149,0.4512 2.37323,1.28908 3.13722,1.86194 l 1.38906,1.04158 v 4.90827 c 0,2.69955 -0.0893,4.862 -0.19844,4.80545 -0.10914,-0.0565 -0.85328,-0.38778 -1.65364,-0.73607 -0.80037,-0.34829 -2.32916,-1.08853 -3.39731,-1.64498 l -1.9421,-1.01172 -1.56745,1.04671 c -1.33744,0.8931 -2.22705,1.30262 -4.99939,2.30136 -0.27124,0.0977 -0.10716,0.26567 0.5183,0.53054 0.50334,0.21316 1.51998,0.85418 2.25919,1.42447 1.9292,1.48837 4.12263,2.41258 6.31284,2.65993 3.13905,0.35451 3.25702,0.4842 2.70185,2.97026 -0.20221,0.90549 -0.44901,2.57968 -0.54845,3.72043 -0.23319,2.67513 -0.91111,3.55563 -2.90936,3.77874 -0.88552,0.0989 -1.42891,0.0383 -1.6435,-0.18335 z"
         id="path230" /><path
         style="fill:#4c0e89"
         d="m 157.63566,159.2601 c -0.25266,-0.26092 -0.14835,-0.52722 0.49237,-1.25696 0.77381,-0.88132 0.80466,-1.00349 0.64066,-2.53692 -0.13991,-1.30807 -0.30562,-1.7211 -0.88125,-2.19648 -1.06232,-0.8773 -5.10248,-2.79397 -8.49951,-4.03222 -3.60997,-1.31586 -5.26075,-2.12833 -6.02005,-2.96289 -0.93556,-1.02829 -1.73005,-2.83619 -1.52721,-3.47525 0.48826,-1.53839 2.78447,-3.55148 6.2824,-5.50782 1.11538,-0.62381 2.02797,-1.20188 2.02797,-1.2846 0,-0.0827 -0.6609,-0.66655 -1.46866,-1.29742 -1.11999,-0.87473 -1.88945,-1.23744 -3.24115,-1.52782 -0.97486,-0.20943 -2.08735,-0.44821 -2.47219,-0.53062 -0.65418,-0.14009 -0.71137,-0.0749 -0.87905,1.00214 -0.18348,1.1785 -1.2617,4.33106 -1.88708,5.51759 -0.19175,0.36381 -1.13661,2.4474 -2.09969,4.63021 -0.96308,2.18282 -2.15018,4.80724 -2.638,5.83206 -0.48782,1.02482 -0.96663,2.18079 -1.06402,2.56883 -0.0974,0.38804 -0.36374,0.85924 -0.59188,1.04711 -0.36566,0.30111 -0.39244,0.24754 -0.22606,-0.45216 0.10381,-0.43657 0.25537,-1.01702 0.33681,-1.28991 0.2554,-0.85578 -0.32307,-0.24147 -0.82889,0.88025 -0.68138,1.51104 -1.3082,1.46871 -0.79033,-0.0534 l 0.3826,-1.12448 -0.53717,0.63764 c -0.29544,0.3507 -0.64255,0.82596 -0.77136,1.05613 -0.4824,0.86201 -0.60214,-0.011 -0.14159,-1.03232 0.61324,-1.35992 0.39452,-1.57865 -0.50712,-0.50711 -1.17988,1.40221 -1.1197,0.60275 0.083,-1.10269 1.27165,-1.8032 1.33652,-2.7576 0.13388,-1.96959 -0.37495,0.24567 -0.74543,0.38297 -0.82328,0.30512 -0.2709,-0.2709 1.47379,-1.75293 2.08535,-1.7714 0.33861,-0.0102 0.85379,-0.13037 1.14483,-0.26698 0.38445,-0.18045 0.14929,-0.22217 -0.8599,-0.15253 -0.76398,0.0527 -1.38906,0.0568 -1.38906,0.009 0,-0.28068 1.70466,-0.894 2.48479,-0.894 0.50796,0 0.99946,-0.1228 1.09222,-0.27289 0.0928,-0.15009 0.27362,-1.75407 0.40192,-3.56439 0.16249,-2.29297 0.39645,-3.67504 0.77121,-4.55576 0.50915,-1.19657 0.5195,-1.41384 0.19348,-4.05867 -0.27723,-2.249 -0.50347,-3.06983 -1.15908,-4.20539 -0.78471,-1.35917 -0.82625,-1.38922 -1.13157,-0.81873 -0.27212,0.50845 -0.47282,0.5728 -1.41882,0.45488 -0.60602,-0.0755 -1.31173,-0.21912 -1.56825,-0.31905 -0.25651,-0.0999 -0.63987,-0.0377 -0.85189,0.13824 -0.31867,0.26447 -0.46421,0.15491 -0.83939,-0.63185 -0.28842,-0.60482 -0.63916,-0.9518 -0.96211,-0.9518 -0.27953,0 -0.95203,-0.3515 -1.49445,-0.7811 -0.92043,-0.72899 -1.01564,-0.75168 -1.42714,-0.34018 -0.41151,0.4115 -0.44092,0.36464 -0.44092,-0.70242 0,-0.94111 -0.0752,-1.1145 -0.4249,-0.98029 -0.35571,0.1365 -0.40843,-0.01 -0.32374,-0.89773 0.0556,-0.58343 0.003,-1.06078 -0.11698,-1.06078 -0.26322,0 1.08777,-1.96691 2.03573,-2.96382 0.67513,-0.71 2.10901,-1.26521 3.2748,-1.26804 0.90116,-0.002 2.10569,0.70311 3.60953,2.11351 1.95481,1.83335 2.74114,2.04326 5.49183,1.46601 2.68873,-0.56425 3.94153,-0.37277 7.20815,1.10172 3.08544,1.39271 9.04217,5.11773 11.1272,6.95836 0.98782,0.87203 2.5827,1.95467 3.54418,2.40588 0.96149,0.4512 2.37323,1.28908 3.13722,1.86194 l 1.38906,1.04158 v 4.90827 c 0,2.69955 -0.0893,4.862 -0.19844,4.80545 -0.10914,-0.0565 -0.85328,-0.38778 -1.65364,-0.73607 -0.80037,-0.34829 -2.32916,-1.08853 -3.39731,-1.64498 l -1.9421,-1.01172 -1.56745,1.04671 c -1.33744,0.8931 -2.22705,1.30262 -4.99939,2.30136 -0.27124,0.0977 -0.10716,0.26567 0.5183,0.53054 0.50334,0.21316 1.51998,0.85418 2.25919,1.42447 1.9292,1.48837 4.12263,2.41258 6.31284,2.65993 3.13905,0.35451 3.25702,0.4842 2.70185,2.97026 -0.20221,0.90549 -0.44901,2.57968 -0.54845,3.72043 -0.23319,2.67513 -0.91111,3.55563 -2.90936,3.77874 -0.88552,0.0989 -1.42891,0.0383 -1.6435,-0.18335 z"
         id="path229" /></g></g></svg>
