<?xml version="1.0" encoding="UTF-8" standalone="no"?>
<!-- Created with Inkscape (http://www.inkscape.org/) -->

<svg
   width="50.814533mm"
   height="62.177521mm"
   viewBox="0 0 50.814533 62.177521"
   version="1.1"
   id="svg1"
   inkscape:export-filename="endurance.svg"
   inkscape:export-xdpi="96"
   inkscape:export-ydpi="96"
   xml:space="preserve"
   xmlns:inkscape="http://www.inkscape.org/namespaces/inkscape"
   xmlns:sodipodi="http://sodipodi.sourceforge.net/DTD/sodipodi-0.dtd"
   xmlns="http://www.w3.org/2000/svg"
   xmlns:svg="http://www.w3.org/2000/svg"><sodipodi:namedview
     id="namedview1"
     pagecolor="#ffffff"
     bordercolor="#000000"
     borderopacity="0.25"
     inkscape:showpageshadow="2"
     inkscape:pageopacity="0.0"
     inkscape:pagecheckerboard="0"
     inkscape:deskcolor="#d1d1d1"
     inkscape:document-units="mm"><inkscape:page
       x="0"
       y="2.8013852e-23"
       width="50.814533"
       height="62.177521"
       id="page2"
       margin="0"
       bleed="0" /></sodipodi:namedview><defs
     id="defs1" /><g
     inkscape:label="Calque 1"
     inkscape:groupmode="layer"
     id="layer1"
     transform="translate(-97.96303,-116.8187)"><g
       id="g247"
       transform="translate(-3.3581049,16.144735)"><path
         style="fill:#d3e7f4"
         d="m 101.33542,131.7625 v -31.08854 h 25.4 25.4 v 31.08854 31.08854 h -25.4 -25.4 z"
         id="path253" /><path
         style="fill:#c6dbeb"
         d="m 111.91875,162.27704 c 0.80037,-0.29682 1.69334,-0.63427 1.98438,-0.74989 0.29104,-0.11561 0.91612,-0.35573 1.38906,-0.53359 0.47294,-0.17786 0.8599,-0.43019 0.8599,-0.56073 0,-0.2403 -0.88443,-3.66379 -1.32333,-5.12241 -0.13136,-0.43657 -0.49343,-1.92485 -0.80459,-3.3073 -0.31117,-1.38244 -0.66654,-2.93026 -0.78972,-3.43958 -0.38132,-1.57675 -0.75881,-3.26889 -0.92964,-4.16719 -0.11625,-0.61132 -0.30895,-0.85989 -0.66662,-0.85989 -0.33734,0 -0.55084,-0.23975 -0.64797,-0.72761 -0.0797,-0.40018 -0.27105,-1.08479 -0.42526,-1.52135 -0.15422,-0.43656 -0.39559,-1.26707 -0.53637,-1.84557 -0.14078,-0.57851 -0.346,-1.11429 -0.45603,-1.19063 -0.11004,-0.0763 -0.34962,-0.82138 -0.5324,-1.65564 -0.29104,-1.32837 -0.82557,-2.32642 -0.82557,-1.54148 0,0.1541 -0.11907,0.28019 -0.26459,0.28019 -0.14552,0 -0.26458,-0.23812 -0.26458,-0.52916 0,-0.29104 0.16913,-0.52917 0.37585,-0.52917 0.38164,0 0.86389,-1.49429 0.57537,-1.78281 -0.0866,-0.0866 -0.15747,-0.0186 -0.15747,0.15121 0,0.16978 -0.20836,0.31051 -0.46302,0.31274 -0.38835,0.003 -0.40025,0.0437 -0.0738,0.25019 0.21407,0.13538 0.33313,0.28239 0.26458,0.32668 -0.0685,0.0443 -1.64267,0.044 -3.49806,-7.4e-4 l -3.37344,-0.0813 V 117.063 100.67396 h 17.87499 c 11.84928,0 17.81986,0.0892 17.71147,0.26458 -0.0899,0.14552 -0.0374,0.26458 0.11667,0.26458 0.15411,0 0.2802,-0.11906 0.2802,-0.26458 0,-0.17009 2.64583,-0.26458 7.40833,-0.26458 h 7.40834 v 31.08854 31.08854 l -20.83594,-0.0172 -20.83594,-0.0172 z m 8.40328,-3.51024 c 1.59905,-0.77827 2.45016,-1.06803 2.52574,-0.85989 0.0627,0.17266 0.20495,-0.28139 0.31611,-1.00899 0.11115,-0.72761 0.54814,-2.49562 0.97108,-3.92891 0.70789,-2.39898 0.75465,-2.81408 0.58856,-5.22552 -0.0992,-1.44074 -0.28473,-2.61953 -0.41222,-2.61953 -0.12749,0 -0.15709,-0.29766 -0.0658,-0.66146 0.0913,-0.3638 0.0893,-0.96705 -0.004,-1.34054 l -0.17044,-0.67908 -0.4957,0.61215 c -0.27263,0.33669 -0.40348,0.67204 -0.29078,0.74523 0.1127,0.0732 0.29635,0.43073 0.4081,0.79453 l 0.20318,0.66146 -0.57838,-0.66146 -0.57838,-0.66146 0.17462,0.62845 c 0.11674,0.42014 0.0794,0.5696 -0.11264,0.45091 -0.15799,-0.0976 -0.62903,0.0751 -1.04675,0.38397 -0.72608,0.53682 -0.80426,0.54281 -1.77736,0.13622 -0.55983,-0.23391 -1.39959,-0.71644 -1.86612,-1.07228 -0.66882,-0.51013 -0.87856,-0.56798 -0.99156,-0.27349 -0.0788,0.20542 -0.001,0.43962 0.17254,0.52044 0.17372,0.0808 0.0331,0.0757 -0.31258,-0.0113 -0.48057,-0.12097 -0.57954,-0.0737 -0.4206,0.20088 0.11431,0.19749 0.10695,0.26736 -0.0164,0.15525 -0.25657,-0.23326 -0.37731,-1.22944 -0.14604,-1.20494 0.59734,0.0633 0.54287,-0.16088 -0.23379,-0.96219 -0.96556,-0.99621 -1.33289,-0.99536 -1.33289,0.003 0,0.35398 -0.23207,0.78853 -0.51572,0.96567 -0.40337,0.25191 -0.44918,0.40223 -0.2103,0.69007 0.16797,0.2024 0.2707,0.84876 0.22827,1.43636 -0.0424,0.58761 0.0485,1.14605 0.20214,1.24098 0.15361,0.0949 0.33775,0.70363 0.4092,1.35266 0.22372,2.03211 0.65299,4.2987 1.33998,7.07528 0.3647,1.47397 0.6631,3.04249 0.6631,3.48559 0,1.10351 0.45423,1.05397 3.37619,-0.36818 z m 24.71007,-17.87618 c 0.12328,0 0.22415,-0.29765 0.22415,-0.66145 0,-0.36381 0.15213,-0.66146 0.33808,-0.66146 0.59739,0 1.24942,-1.03716 1.24942,-1.9874 0,-0.71225 0.10869,-0.92302 0.47598,-0.92302 0.26957,0 0.7572,-0.45587 1.12448,-1.05122 0.35667,-0.57817 0.85686,-1.05442 1.11152,-1.05833 0.28426,-0.004 0.46302,-0.21141 0.46302,-0.53628 0,-0.48507 -0.17639,-0.52917 -2.11667,-0.52917 -1.94027,0 -2.11666,0.0441 -2.11666,0.52917 0,0.29104 -0.11906,0.52916 -0.26459,0.52916 -0.14552,0 -0.26458,-0.47625 -0.26458,-1.05833 0,-0.88194 -0.0882,-1.05833 -0.52917,-1.05833 -0.44097,0 -0.52916,0.17639 -0.52916,1.05833 0,1.01695 -0.34026,1.41721 -0.61852,0.7276 -0.0734,-0.1819 -0.14286,-0.0628 -0.15434,0.26459 -0.0115,0.32742 0.0843,0.59531 0.21283,0.59531 0.12855,0 0.30722,0.20836 0.39705,0.46302 0.0898,0.25466 0.23269,0.61185 0.31749,0.79375 0.0871,0.18683 -0.0201,0.33073 -0.24635,0.33073 -0.22029,0 -0.45227,-0.20836 -0.51552,-0.46302 -0.0633,-0.25466 -0.0688,-0.10583 -0.0124,0.33073 0.0564,0.43656 0.21895,0.83344 0.36118,0.88194 0.14222,0.0485 0.25859,0.24837 0.25859,0.44413 0,0.19576 0.19475,0.55067 0.43278,0.78871 0.323,0.32299 0.35656,0.509 0.13229,0.73327 -0.22426,0.22427 -0.30049,0.18639 -0.30049,-0.1493 0,-0.24739 -0.11906,-0.44979 -0.26458,-0.44979 -0.29706,0 -0.34925,1.64078 -0.0838,2.63343 l 0.17359,0.64906 0.26011,-0.58292 c 0.14305,-0.3206 0.36097,-0.58291 0.48425,-0.58291 z m -26.04311,-1.91823 c -0.0647,-0.1819 0.0871,-0.74744 0.33728,-1.25677 0.60197,-1.22545 0.90245,-2.47915 0.54059,-2.25551 -0.41888,0.25888 -0.32821,-0.2995 0.12168,-0.7494 0.21828,-0.21828 0.39688,-0.58397 0.39688,-0.81265 0,-0.34513 -0.37942,-0.41577 -2.23334,-0.41577 -2.31815,0 -2.4819,0.0753 -2.69277,1.23818 -0.10532,0.58078 -0.063,0.64721 0.24779,0.38925 0.29219,-0.2425 0.44912,-0.22146 0.71217,0.0955 0.18556,0.2236 0.25442,0.48951 0.15301,0.59092 -0.10141,0.10141 -0.26883,0.0478 -0.37203,-0.11925 -0.10321,-0.16699 -0.18448,0.39364 -0.1806,1.24584 0.004,0.8522 0.0945,1.63689 0.20134,1.74375 0.10686,0.10686 0.67085,0.17562 1.25332,0.15279 0.58246,-0.0228 1.05903,0.0767 1.05903,0.22118 0,0.14448 0.12898,0.26268 0.28663,0.26268 0.15764,0 0.2337,-0.14882 0.16902,-0.33073 z"
         id="path252" /><path
         style="fill:#b6d2e5"
         d="m 112.56933,162.56885 c -0.23233,-0.37591 -0.2027,-0.3943 1.3942,-0.86534 0.82644,-0.24377 1.44517,-0.30795 1.53697,-0.15942 0.0845,0.13674 0.28198,0.24862 0.43884,0.24862 0.46249,0 0.0848,-3.07061 -0.66709,-5.42396 -0.37197,-1.16417 -1.10647,-4.20026 -1.63222,-6.74688 -1.08726,-5.26644 -1.40532,-6.41298 -1.72432,-6.21583 -0.32448,0.20055 -0.59266,-0.31969 -1.0921,-2.11854 -0.24242,-0.87313 -0.70038,-2.24235 -1.01769,-3.04271 -0.84337,-2.12727 -1.26757,-3.78567 -1.08774,-4.25251 0.2074,-0.53842 2.97151,-0.59827 3.95407,-0.0856 0.38594,0.20137 0.79895,0.36685 0.9178,0.36775 0.25313,0.002 2.08006,1.33423 2.35028,1.71399 0.10182,0.14308 0.11649,0.76093 0.0326,1.37299 -0.14881,1.08573 -0.12836,1.12294 0.83938,1.52729 1.86702,0.78009 2.03615,0.66667 2.84085,-1.90521 0.39762,-1.2708 0.76418,-3.02493 0.81459,-3.89805 0.16152,-2.79815 1.11904,-3.86493 4.7659,-5.30976 l 1.80552,-0.71532 -0.75333,-0.69163 c -0.41433,-0.38039 -1.03071,-1.14224 -1.36975,-1.693 -0.49132,-0.79814 -0.7317,-0.96913 -1.18448,-0.84256 -0.41353,0.11561 -0.46789,0.0896 -0.19983,-0.0958 0.30477,-0.2107 0.26632,-0.39767 -0.22314,-1.08506 -0.32525,-0.45677 -0.52181,-1.01175 -0.4368,-1.23329 0.085,-0.22153 -0.0825,-0.86741 -0.37218,-1.43527 -0.79705,-1.56235 -0.72172,-3.69166 0.16801,-4.74904 0.81531,-0.96895 2.44283,-1.86078 3.39576,-1.86078 0.3696,0 0.672,-0.12709 0.672,-0.28242 0,-0.32255 1.10002,-0.0514 1.34716,0.33204 0.0861,0.13359 0.26469,0.21295 0.39688,0.17635 0.13218,-0.0366 0.71008,0.37383 1.28422,0.91207 0.57415,0.53824 1.22899,0.98045 1.45521,0.98268 0.36033,0.004 0.36239,0.035 0.0167,0.25356 -0.31432,0.19872 -0.32778,0.3164 -0.0661,0.57803 0.18069,0.18069 0.32852,0.55557 0.32852,0.83308 0,0.32481 0.13253,0.4537 0.37201,0.3618 0.47945,-0.18398 1.12896,0.59347 1.06665,1.27677 -0.0265,0.29104 -0.13098,1.3626 -0.2321,2.38125 -0.13157,1.32545 -0.1047,1.73923 0.0945,1.4552 0.21332,-0.30416 0.27929,-0.1316 0.2824,0.73867 0.003,0.77136 0.17636,1.3205 0.54132,1.71223 0.47983,0.51505 0.60003,0.5376 1.12447,0.21102 0.51993,-0.32378 0.5491,-0.31954 0.25454,0.037 -0.28441,0.34427 -0.15005,0.47114 0.92604,0.87446 0.6923,0.25947 1.73497,0.71709 2.31705,1.01692 0.58209,0.29984 1.11787,0.56051 1.19063,0.57928 0.62276,0.16065 1.56854,0.70762 2.11155,1.22115 0.361,0.3414 0.73394,0.59563 0.82877,0.56495 0.0948,-0.0307 0.15666,0.14792 0.1374,0.39688 -0.0193,0.24895 0.0841,0.4328 0.22957,0.40854 0.14552,-0.0242 0.29312,0.27341 0.32801,0.66146 1.00102,11.13599 0.99465,10.96711 0.47572,12.61693 -0.25598,0.81384 -0.52647,1.41866 -0.60109,1.34405 -0.0746,-0.0746 -0.51916,0.15685 -0.98787,0.51435 -1.06097,0.80924 -1.23261,0.80777 -2.64975,-0.0227 l -1.14796,-0.67275 -0.19281,2.05754 c -0.15835,1.68982 -0.0916,2.44326 0.37324,4.21577 0.31133,1.18702 0.57986,2.4391 0.59674,2.78239 0.025,0.50742 0.0547,0.53038 0.15909,0.12275 0.0947,-0.3698 0.18326,-0.41266 0.33739,-0.16327 0.16631,0.2691 0.32692,0.25556 0.78639,-0.0663 0.41049,-0.28752 0.48489,-0.46159 0.25738,-0.6022 -0.22633,-0.13988 -0.13521,-0.33987 0.3113,-0.6832 0.77098,-0.59282 1.38512,-0.62663 1.82193,-0.10031 0.18116,0.21828 0.49339,0.39687 0.69385,0.39687 0.57015,0 0.42795,-0.98001 -0.16469,-1.13499 -0.57741,-0.151 -0.7117,-0.83763 -0.2229,-1.13972 0.20984,-0.12969 0.25929,-0.01 0.15706,0.38126 -0.13917,0.53219 -0.0534,0.57054 1.2762,0.57054 1.26803,0 1.43798,0.0657 1.53937,0.59531 0.28119,1.4687 0.12317,1.70974 -1.08782,1.65929 -0.68094,-0.0284 -1.1221,0.0669 -1.10258,0.23812 0.18377,1.61185 -0.47268,2.72684 -1.18565,2.01387 -0.46965,-0.46965 -0.57888,-0.30847 -0.56368,0.83173 0.008,0.62298 0.15565,1.15196 0.33779,1.21267 0.48512,0.16171 0.40685,0.41505 -0.58232,1.88496 -0.51349,0.76304 -0.96254,1.204 -1.03745,1.01877 -0.19413,-0.48005 -0.20704,0.46967 -0.0132,0.97468 0.0883,0.23018 0.27395,0.41851 0.41249,0.41851 0.13854,0 0.1658,-0.13929 0.0606,-0.30954 -0.1264,-0.20452 -0.0502,-0.25538 0.22471,-0.14991 0.29251,0.11225 0.46648,-0.0414 0.58601,-0.51768 0.15949,-0.63545 0.6742,-1.40871 2.87193,-4.31453 0.49528,-0.65485 1.09714,-1.574 1.33748,-2.04257 0.24034,-0.46857 0.89942,-1.32372 1.46462,-1.90034 0.5652,-0.57662 1.09978,-1.20528 1.18795,-1.39702 0.10891,-0.23686 0.20576,-0.25462 0.30213,-0.0554 0.078,0.16127 0.32112,0.51846 0.54025,0.79375 0.36209,0.4549 0.39083,0.31192 0.31513,-1.56815 -0.0458,-1.13779 -0.0409,-1.94146 0.011,-1.78594 0.22394,0.6718 0.57933,0.19602 0.57933,-0.77557 0,-0.86661 0.0919,-1.05834 0.50712,-1.05834 0.27891,0 0.56027,-0.14882 0.62523,-0.33073 0.0687,-0.19237 0.21629,-0.23256 0.35278,-0.0961 0.13649,0.13649 0.0963,0.28407 -0.0961,0.35277 -0.39274,0.14027 -0.45465,2.19069 -0.0661,2.19069 0.16948,0 0.26459,2.42535 0.26459,6.74688 v 6.74687 H 137.2919 122.44838 l 0.17761,-1.91823 c 0.22975,-2.48126 0.77724,-5.2795 1.62895,-8.32562 0.66748,-2.38725 0.6755,-2.51499 0.38014,-6.06134 -0.16594,-1.99249 -0.41247,-3.81213 -0.54785,-4.04365 -0.13537,-0.23152 -0.26464,-0.33165 -0.28726,-0.22251 -0.0226,0.10914 -0.0591,0.28773 -0.0811,0.39687 -0.0633,0.31464 -0.99983,1.72928 -1.57638,2.38125 -0.31581,0.35713 -0.83065,0.59531 -1.28678,0.59531 -0.8838,0 -3.08105,-1.33649 -4.64825,-2.82733 l -1.09204,-1.03883 -0.31628,0.8086 c -0.17396,0.44473 -0.47412,0.93906 -0.66704,1.0985 -0.29058,0.24016 -0.28209,0.60328 0.0495,2.11667 0.3879,1.7703 0.55432,2.59316 1.14535,5.66323 0.96507,5.01301 1.90417,9.06223 2.26235,9.75488 0.63206,1.22227 0.53864,1.6222 -0.37893,1.6222 -0.57248,0 -0.79894,-0.12907 -0.81235,-0.46302 -0.0159,-0.39593 -0.0515,-0.38635 -0.24598,0.0661 -0.19445,0.4525 -0.23009,0.46208 -0.24599,0.0661 -0.0116,-0.28858 -0.22862,-0.46302 -0.57607,-0.46302 -0.38683,0 -0.51086,0.12148 -0.40518,0.39687 0.0838,0.21829 0.037,0.39688 -0.10399,0.39688 -0.14095,0 -0.25627,-0.17859 -0.25627,-0.39688 0,-0.21828 -0.1786,-0.39687 -0.39688,-0.39687 -0.21828,0 -0.39687,0.17859 -0.39687,0.39687 0,0.45242 -0.93747,0.54191 -1.20151,0.11469 z m -4.88391,-43.37406 c 0,-0.29104 -0.11906,-0.52917 -0.26458,-0.52917 -0.14553,0 -0.26459,-0.23812 -0.26459,-0.52916 0,-0.41158 -0.17639,-0.52917 -0.79375,-0.52917 -0.81966,0 -0.89993,-0.14893 -0.85572,-1.5875 0.0127,-0.4147 -0.0285,-0.48873 -0.11054,-0.19844 -0.15178,0.537 -0.52783,0.61094 -0.68649,0.13498 -0.1149,-0.34471 0.87193,-1.25946 1.35871,-1.25946 0.15618,0 0.35867,-0.29765 0.44998,-0.66145 0.11192,-0.44593 0.35065,-0.66278 0.73264,-0.66551 0.44262,-0.003 0.4835,-0.0567 0.18677,-0.24442 -0.31106,-0.19683 -0.31851,-0.31429 -0.0411,-0.64851 0.1863,-0.22448 0.29413,-0.54192 0.23963,-0.70543 -0.0545,-0.1635 -0.69083,0.37955 -1.41407,1.20678 -0.72324,0.82724 -1.5707,1.78368 -1.88324,2.12544 -0.31254,0.34175 -0.61019,0.71743 -0.66146,0.83484 -0.32025,0.73347 -1.46643,2.19183 -1.7248,2.19457 -0.16977,0.002 -0.36873,0.15211 -0.44213,0.33401 -0.0734,0.1819 -0.14285,-3.74631 -0.15434,-8.72936 l -0.0209,-9.06009 17.7692,8e-5 c 9.77307,5e-5 17.72049,0.044 17.66094,0.0976 -0.0596,0.0536 -1.95374,1.02881 -4.20931,2.16709 -2.25557,1.13829 -4.82828,2.52228 -5.71713,3.07554 -0.88885,0.55326 -1.75206,1.00593 -1.91823,1.00593 -0.16618,0 -0.30214,0.0971 -0.30214,0.21586 0,0.11872 -0.50601,0.49994 -1.12448,0.84715 -0.61846,0.34721 -1.79789,1.14304 -2.62095,1.76851 -0.82305,0.62548 -1.61399,1.13723 -1.75763,1.13723 -0.14363,0 -0.32969,0.17859 -0.41345,0.39687 -0.0838,0.21828 -0.33463,0.39688 -0.55748,0.39688 -0.22284,0 -0.40517,0.11906 -0.40517,0.26458 0,0.14552 -0.16094,0.26458 -0.35764,0.26458 -0.1967,0 -0.71193,0.32743 -1.14495,0.72761 -0.43303,0.40018 -1.01624,0.8564 -1.29602,1.01383 -0.27978,0.15742 -0.62622,0.54437 -0.76986,0.85989 -0.20178,0.4432 -0.49167,0.57367 -1.2746,0.57367 -0.8707,0 -0.99124,0.0699 -0.85589,0.49637 0.11221,0.35352 0.003,0.53675 -0.37904,0.63669 -0.29512,0.0772 -0.53659,0.33006 -0.53659,0.56197 0,0.55861 -0.5128,0.53666 -0.9667,-0.0414 -0.32855,-0.41841 -0.35686,-0.38673 -0.29375,0.32876 0.0534,0.60585 -0.0705,0.85382 -0.5279,1.05597 -0.32875,0.1453 -0.66419,0.47361 -0.74543,0.72957 -0.20262,0.63839 -0.9058,0.58888 -0.9058,-0.0638 z m 21.69583,-5.42396 c 0,-0.21828 -0.11906,-0.39687 -0.26458,-0.39687 -0.14552,0 -0.26459,-0.21902 -0.26459,-0.4867 0,-0.67423 -1.08138,-1.1008 -2.79057,-1.1008 -0.79352,0 -1.44276,-0.11906 -1.44276,-0.26459 0,-0.14552 -0.4578,-0.26458 -1.01732,-0.26458 -0.64955,0 -1.17563,-0.17492 -1.45521,-0.48385 -0.54843,-0.60601 -0.57309,-1.21215 -0.041,-1.00797 0.24175,0.0928 0.39688,4.2e-4 0.39688,-0.23627 0,-0.23938 0.25716,-0.38858 0.66976,-0.38858 0.36837,0 0.7378,-0.1773 0.82095,-0.394 0.0832,-0.2167 0.58544,-0.51432 1.11618,-0.66139 0.53074,-0.14706 1.14357,-0.38648 1.36185,-0.53204 0.35278,-0.23524 0.35278,-0.2936 0,-0.52518 -0.31261,-0.20522 -0.2467,-0.26139 0.31043,-0.26458 0.38902,-0.002 1.06105,-0.30171 1.49341,-0.66551 0.43235,-0.36381 0.91774,-0.66146 1.07863,-0.66146 0.16089,0 0.29253,-0.1786 0.29253,-0.39688 0,-0.21828 0.20294,-0.39687 0.45098,-0.39687 0.59885,0 3.51777,-1.35581 3.51777,-1.63396 0,-0.11997 0.36422,-0.21813 0.80937,-0.21813 0.44515,0 0.75412,-0.0894 0.68661,-0.19862 -0.0675,-0.10925 0.491,-0.48184 1.24115,-0.82798 0.75016,-0.34615 1.57066,-0.73302 1.82335,-0.85971 0.25268,-0.12669 3.49714,-0.23035 7.20989,-0.23035 h 6.75047 v 5.55625 5.55625 h -1.05834 c -0.58208,0 -1.05833,0.11906 -1.05833,0.26458 0,0.15434 -0.88194,0.26458 -2.11667,0.26458 -1.23472,0 -2.11666,-0.11024 -2.11666,-0.26458 0,-0.14552 -0.47625,-0.26458 -1.05834,-0.26458 -0.58208,0 -1.05833,0.11906 -1.05833,0.26458 0,0.16169 -1.23472,0.26458 -3.175,0.26458 -1.94028,0 -3.175,-0.10289 -3.175,-0.26458 0,-0.14552 -0.47625,-0.26458 -1.05833,-0.26458 -0.58209,0 -1.05834,0.11906 -1.05834,0.26458 0,0.15434 -0.88194,0.26458 -2.11666,0.26458 -1.91969,0 -2.11667,0.0479 -2.11667,0.51417 0,0.28279 -0.26462,0.69951 -0.58804,0.92604 -0.73755,0.5166 -0.99946,0.52053 -0.99946,0.015 z"
         id="path251" /><path
         style="fill:#9db4d4"
         d="m 116.29507,160.53594 c -0.25223,-1.27331 -0.74477,-3.19351 -1.09454,-4.26711 -0.34977,-1.0736 -0.63594,-2.25577 -0.63594,-2.62705 0,-0.37127 -0.11417,-1.04069 -0.25371,-1.48758 -0.25169,-0.80605 -1.00529,-4.15941 -1.59812,-7.11124 -0.24781,-1.23392 -0.43439,-1.58406 -0.94814,-1.77939 -0.39708,-0.15097 -0.63962,-0.45455 -0.63962,-0.8006 0,-0.65067 -1.18507,-4.3126 -1.70758,-5.27651 -0.19721,-0.3638 -0.44065,-1.21146 -0.54098,-1.88368 -0.17878,-1.1979 -0.16553,-1.22811 0.66547,-1.5178 1.35418,-0.47206 4.6124,0.43452 4.8518,1.35 0.0689,0.26354 0.22486,0.45685 0.34653,0.42957 0.12167,-0.0273 0.42958,0.0416 0.68424,0.153 0.3498,0.15306 0.46302,0.5175 0.46302,1.49042 0,1.13837 0.0844,1.33096 0.72761,1.65962 0.40018,0.20449 1.11455,0.45513 1.5875,0.55698 0.74069,0.15951 0.85989,0.11328 0.85989,-0.33351 0,-0.28527 0.29766,-1.30948 0.66146,-2.27602 0.3638,-0.96653 0.66146,-2.26878 0.66146,-2.89389 0,-0.62511 0.17684,-1.73204 0.39297,-2.45985 0.46093,-1.5521 1.68755,-2.57282 4.21989,-3.5115 2.1587,-0.80018 2.14036,-0.77588 1.28832,-1.70723 -2.28064,-2.49293 -3.66199,-4.4872 -3.40082,-4.90979 0.079,-0.12778 -0.0915,-0.7504 -0.37883,-1.3836 -0.71637,-1.57871 -0.69202,-3.35319 0.0613,-4.46587 0.80969,-1.19597 2.61337,-2.10935 4.16538,-2.10935 1.71333,0 3.51853,1.38559 4.16066,3.19354 0.2475,0.69687 0.54932,1.20566 0.67071,1.13064 0.79383,-0.49062 1.49412,1.7212 0.99032,3.12786 -0.27218,0.75998 -0.22982,1.13342 0.3055,2.69305 l 0.62149,1.81071 1.85209,0.74627 c 1.01864,0.41044 2.44739,1.05364 3.175,1.42932 0.7276,0.37568 1.45773,0.68356 1.62251,0.68417 0.62953,0.002 2.45493,2.17555 2.84685,3.38931 0.26233,0.81243 0.46386,2.95364 0.58266,6.19077 0.19581,5.33506 0.0874,6.02734 -1.13541,7.25015 -1.21114,1.21114 -1.60506,1.28071 -2.98838,0.52781 l -1.26007,-0.68581 -0.31798,2.52623 c -0.18311,1.45476 -0.22031,2.66063 -0.0877,2.84309 0.4077,0.56098 0.82414,2.11625 1.14751,4.2856 0.17354,1.16416 0.5532,3.00963 0.84368,4.10104 0.29049,1.0914 0.61756,2.35728 0.72682,2.81306 0.10926,0.45578 0.28092,0.9618 0.38147,1.12448 0.1334,0.21584 -2.31754,0.29579 -9.06813,0.29579 h -9.25095 l 0.12542,-1.65365 c 0.18857,-2.48636 1.05849,-6.96272 1.78155,-9.16732 0.3531,-1.07658 0.59937,-2.08862 0.54728,-2.24896 -0.0521,-0.16034 -0.22013,-1.74016 -0.37341,-3.51071 -0.15328,-1.77056 -0.35101,-3.40767 -0.43941,-3.63802 -0.22696,-0.59145 -0.63327,-0.52066 -0.63327,0.11033 0,0.29104 -0.11906,0.52916 -0.26458,0.52916 -0.14553,0 -0.26459,0.15206 -0.26459,0.33791 0,0.57056 -1.52436,2.04334 -2.11489,2.04334 -0.30647,0 -0.93826,-0.19593 -1.40398,-0.4354 -1.17678,-0.60511 -3.9003,-2.72455 -4.07026,-3.16748 -0.23174,-0.6039 -0.55999,-0.41556 -0.74517,0.42755 -0.0958,0.43639 -0.3766,0.9424 -0.62391,1.12448 -0.40057,0.29493 -0.66746,1.87972 -0.2758,1.63766 0.0873,-0.0539 0.47885,1.47547 0.87015,3.3987 0.39129,1.92323 0.82687,3.97304 0.96795,4.55512 0.14108,0.58208 0.30967,1.53375 0.37465,2.11482 0.12037,1.07639 0.66191,3.42479 1.34808,5.84593 0.48057,1.6957 0.48052,1.69654 -0.11144,1.69654 -0.40839,0 -0.57164,-0.39716 -0.95156,-2.3151 z m -14.94644,-55.36407 -0.0275,-4.49791 h 2.93916 2.93915 l -0.60609,0.99219 c -0.33334,0.5457 -1.17649,1.84629 -1.87366,2.89019 -0.69717,1.04391 -1.26757,1.96433 -1.26757,2.04539 0,0.20157 -1.84257,3.06806 -1.97214,3.06806 -0.0571,0 -0.11618,-2.02406 -0.13132,-4.49792 z m 9.52896,0.94673 c -0.23089,-0.2782 -0.68726,-0.33747 -1.75219,-0.22756 -1.61252,0.16642 -1.49058,0.35632 -1.52368,-2.37281 -0.0141,-1.16455 -0.10328,-1.23075 -0.44547,-0.33073 -0.27469,0.72249 -0.79375,0.89749 -0.79375,0.26761 0,-0.36206 0.41667,-0.98061 1.25677,-1.86574 0.1819,-0.19164 0.33073,-0.47601 0.33073,-0.63193 0,-0.19217 1.70961,-0.28348 5.30728,-0.28348 5.50666,0 5.7505,0.0577 4.38792,1.03831 -0.28801,0.20727 -1.36686,1.1048 -2.39745,1.99452 -3.43382,2.96445 -3.76145,3.14526 -4.37016,2.41181 z"
         id="path250" /><path
         style="fill:#5fd2dd"
         d="m 116.29507,160.53594 c -0.25223,-1.27331 -0.74477,-3.19351 -1.09454,-4.26711 -0.34977,-1.0736 -0.63594,-2.25577 -0.63594,-2.62705 0,-0.37127 -0.11417,-1.04069 -0.25371,-1.48758 -0.25173,-0.80619 -1.0052,-4.15902 -1.59852,-7.11314 -0.22935,-1.14193 -0.44884,-1.58987 -0.85217,-1.73907 -0.38734,-0.14329 -0.67848,-0.68901 -1.01443,-1.90148 -0.25915,-0.93528 -0.67277,-2.35536 -0.91917,-3.15572 -0.24639,-0.80036 -0.50778,-1.78263 -0.58086,-2.18281 -0.0731,-0.40018 -0.23842,-0.72761 -0.36742,-0.72761 -0.12901,0 -0.23456,-0.26852 -0.23456,-0.59671 0,-1.14319 2.10607,-1.28484 4.96094,-0.33366 0.65807,0.21925 0.77383,0.54966 0.26458,0.75515 -0.19757,0.0797 -0.14431,0.14186 0.13229,0.15434 0.25467,0.0115 0.53093,-0.009 0.61393,-0.0453 0.083,-0.0364 0.26891,0.14472 0.41313,0.40244 0.14423,0.25772 0.37398,0.39952 0.51056,0.31511 0.14192,-0.0877 0.24832,0.40705 0.24832,1.15463 0,1.13045 0.0974,1.37192 0.71719,1.77802 0.39446,0.25846 1.08012,0.50992 1.52371,0.5588 0.80088,0.0883 0.81257,0.0708 1.67136,-2.49001 0.47566,-1.41839 0.87061,-3.11467 0.87767,-3.76951 0.0208,-1.92729 0.52393,-2.94456 1.92647,-3.89485 0.69173,-0.46868 1.91804,-1.0603 2.72514,-1.31472 0.8071,-0.25442 1.5238,-0.60939 1.59265,-0.78882 0.0689,-0.17944 -0.65339,-1.25155 -1.60499,-2.38247 -0.95161,-1.13092 -1.83927,-2.29749 -1.97259,-2.59237 -0.58,-1.28286 -0.93541,-3.04621 -0.95415,-4.73392 -0.0198,-1.7867 -0.004,-1.83091 0.99337,-2.69233 0.94228,-0.81423 2.00761,-1.17425 3.88125,-1.31163 0.81981,-0.0601 1.65683,0.33488 1.44296,0.68094 -0.0877,0.14182 -0.0612,0.22962 0.0587,0.1951 0.80379,-0.23132 2.16551,1.48095 2.31843,2.91528 0.0564,0.529 0.22187,0.69557 0.69559,0.70019 0.86586,0.008 1.24838,1.35274 0.7847,2.75771 -0.26391,0.79964 -0.2685,1.22377 -0.0214,1.9726 0.17316,0.52467 0.22844,1.09373 0.12284,1.26458 -0.12831,0.20762 -0.0769,0.23948 0.15516,0.0961 0.25862,-0.15983 0.30907,-0.069 0.19785,0.35636 -0.0966,0.36946 -0.0488,0.50878 0.13558,0.39484 0.18684,-0.11547 0.21906,-0.005 0.0936,0.3223 -0.10518,0.2741 -0.11601,0.42313 -0.0241,0.33118 0.23209,-0.2321 2.50661,0.5712 2.50661,0.88526 0,0.14043 0.11906,0.18174 0.26458,0.0918 0.14553,-0.0899 0.26459,-0.0304 0.26459,0.13229 0,0.1627 0.11634,0.22391 0.25853,0.13603 0.21073,-0.13023 1.57316,0.49848 3.04876,1.4069 0.14552,0.0896 0.44318,0.16603 0.66146,0.16987 0.21828,0.004 0.35719,0.18559 0.30868,0.40387 -0.0485,0.21828 -0.003,0.31177 0.10093,0.20775 0.30659,-0.30659 1.23256,0.32649 1.07564,0.73541 -0.079,0.206 -0.001,0.34518 0.17306,0.31044 0.71055,-0.14145 1.36026,1.99115 1.55263,5.0964 0.28563,4.61042 0.26128,7.67828 -0.0681,8.58017 -0.27782,0.76069 -2.02412,2.26775 -2.62774,2.26775 -0.14937,0 -0.77286,-0.25573 -1.38553,-0.56829 -1.15298,-0.58821 -1.43177,-0.62504 -1.30343,-0.17218 0.0413,0.14572 -0.0566,1.22687 -0.21759,2.40254 -0.18807,1.37354 -0.20304,2.33332 -0.0419,2.68516 0.63959,1.39643 0.80944,2.06675 1.11453,4.39869 0.17982,1.37438 0.65926,3.77879 1.06544,5.34314 l 0.73849,2.84427 h -9.00134 -9.00135 l 0.18097,-2.18281 c 0.23091,-2.78526 1.06603,-6.99314 1.73728,-8.75357 0.4796,-1.25782 0.49969,-1.64088 0.25208,-4.80633 -0.26736,-3.41786 -0.67393,-5.42396 -1.09927,-5.42396 -0.12223,0 -0.20813,0.0893 -0.1909,0.19844 0.10349,0.65541 -0.0709,1.39586 -0.29591,1.25677 -0.14553,-0.0899 -0.26459,0.0412 -0.26459,0.29152 0,0.56144 -1.51955,1.95744 -2.13069,1.95744 -0.98529,0 -2.96246,-1.15678 -4.53538,-2.65352 -0.91312,-0.8689 -1.66204,-1.57946 -1.66426,-1.57903 -0.002,4.2e-4 -0.0138,0.43618 -0.0257,0.96835 -0.016,0.71569 -0.2054,1.11413 -0.7276,1.53052 -0.65308,0.52074 -1.01478,1.162 -0.46312,0.82105 0.13359,-0.0825 0.44149,0.71409 0.68424,1.77033 0.91012,3.96014 1.54643,7.23979 1.5661,8.07199 0.0112,0.47294 0.10822,0.85989 0.21565,0.85989 0.10742,0 0.16695,0.20836 0.13229,0.46302 -0.0593,0.43562 0.40468,2.44154 1.27525,5.51336 0.48057,1.6957 0.48052,1.69654 -0.11144,1.69654 -0.40839,0 -0.57164,-0.39716 -0.95156,-2.3151 z"
         id="path249" /><path
         style="fill:#b6ec42"
         d="m 116.29507,160.53594 c -0.25223,-1.27331 -0.74477,-3.19351 -1.09454,-4.26711 -0.34977,-1.0736 -0.63594,-2.25577 -0.63594,-2.62705 0,-0.37127 -0.11417,-1.04069 -0.25371,-1.48758 -0.25173,-0.80619 -1.0052,-4.15902 -1.59852,-7.11314 -0.22935,-1.14193 -0.44884,-1.58987 -0.85217,-1.73907 -0.38734,-0.14329 -0.67848,-0.68901 -1.01443,-1.90148 -0.25915,-0.93528 -0.67277,-2.35536 -0.91917,-3.15572 -0.24639,-0.80036 -0.50778,-1.78263 -0.58086,-2.18281 -0.0731,-0.40018 -0.23842,-0.72761 -0.36742,-0.72761 -0.12901,0 -0.23456,-0.29036 -0.23456,-0.64524 0,-0.55975 0.1543,-0.66839 1.1645,-0.81988 0.64047,-0.096 1.44414,-0.0953 1.78593,0.002 1.33281,0.3778 2.07691,0.74676 2.08266,1.03267 0.003,0.16425 0.39026,0.49099 0.8599,0.7261 0.79476,0.39787 0.84863,0.51005 0.77803,1.61995 -0.075,1.17848 -0.0618,1.19907 1.1216,1.75534 2.13436,1.00327 2.28064,0.91286 3.26312,-2.01682 0.47581,-1.41883 0.87088,-3.11547 0.87794,-3.77031 0.0208,-1.92729 0.52393,-2.94456 1.92647,-3.89485 0.69173,-0.46868 1.91804,-1.0603 2.72514,-1.31472 0.8071,-0.25442 1.5238,-0.60939 1.59265,-0.78882 0.0689,-0.17944 -0.65339,-1.25155 -1.60499,-2.38247 -0.95161,-1.13092 -1.83927,-2.29749 -1.97259,-2.59237 -0.58,-1.28286 -0.93541,-3.04621 -0.95415,-4.73392 -0.0198,-1.7867 -0.004,-1.83091 0.99337,-2.69233 1.01044,-0.87312 2.54825,-1.34882 3.87739,-1.19941 1.07726,0.12109 2.67198,1.59194 3.36335,3.1021 0.41881,0.91479 0.75856,1.34164 0.9955,1.25072 0.52073,-0.19982 0.66639,0.5309 0.61302,3.07523 -0.0618,2.94474 0.44854,4.25025 1.85374,4.74229 2.33949,0.8192 6.95131,3.26694 7.42505,3.94089 1.0998,1.56457 1.42689,2.5475 1.50645,4.52695 0.0443,1.10188 0.16593,3.3801 0.27031,5.0627 0.21973,3.5421 -0.0373,4.69702 -1.30227,5.85244 -0.99305,0.907 -1.3109,0.91845 -2.74435,0.0988 -0.61597,-0.35219 -1.17005,-0.55912 -1.23129,-0.45983 -0.21694,0.35168 -0.69148,3.33528 -0.69148,4.34754 0,0.56493 0.14041,1.2872 0.31202,1.60506 0.17162,0.31785 0.58145,1.8876 0.91075,3.48833 0.3293,1.60073 0.95329,4.19034 1.38665,5.75469 l 0.78792,2.84427 h -9.00225 -9.00225 l 0.18097,-2.18281 c 0.23091,-2.78526 1.06603,-6.99314 1.73728,-8.75357 0.4796,-1.25782 0.49969,-1.64088 0.25208,-4.80633 -0.26736,-3.41786 -0.67393,-5.42396 -1.09927,-5.42396 -0.12223,0 -0.22223,0.14305 -0.22223,0.31787 0,0.67734 -1.73149,3.14777 -2.30757,3.29236 -1.0049,0.25221 -2.94474,-0.75141 -4.78267,-2.47442 -0.96352,-0.90328 -1.76497,-1.61765 -1.78101,-1.5875 -0.016,0.0302 -0.1822,0.58662 -0.36924,1.23659 -0.18705,0.64998 -0.50107,1.30482 -0.69782,1.45521 -0.29483,0.22535 -0.13208,1.27381 0.92547,5.96198 0.70577,3.12869 1.51888,6.52198 1.80692,7.54062 0.28803,1.01865 0.6712,2.4474 0.85149,3.175 0.18029,0.72761 0.38798,1.53128 0.46155,1.78594 0.0954,0.3301 -0.0166,0.46302 -0.39006,0.46302 -0.44718,0 -0.59091,-0.3387 -0.98241,-2.3151 z"
         id="path248" /><path
         style="fill:#4c0e89"
         d="m 122.89256,160.66823 c 0.23091,-2.78526 1.06603,-6.99314 1.73728,-8.75357 0.4796,-1.25782 0.49969,-1.64088 0.25208,-4.80633 -0.26736,-3.41786 -0.67393,-5.42396 -1.09927,-5.42396 -0.12223,0 -0.22223,0.14305 -0.22223,0.31787 0,0.69415 -1.73216,3.14794 -2.32767,3.29741 -0.85454,0.21447 -2.5668,-0.58619 -4.23736,-1.98141 -1.86589,-1.55834 -2.23982,-2.16311 -2.02977,-3.28279 0.28094,-1.49752 0.43037,-1.5877 1.65251,-0.99722 2.02536,0.97854 2.20433,0.8632 3.18136,-2.05021 0.47581,-1.41883 0.87088,-3.11547 0.87794,-3.77031 0.0208,-1.92729 0.52393,-2.94456 1.92647,-3.89485 0.69173,-0.46868 1.91804,-1.0603 2.72514,-1.31472 0.8071,-0.25442 1.5238,-0.60939 1.59265,-0.78882 0.0689,-0.17944 -0.65339,-1.25155 -1.60499,-2.38247 -0.95161,-1.13092 -1.83927,-2.29749 -1.97259,-2.59237 -0.58,-1.28286 -0.93541,-3.04621 -0.95415,-4.73392 -0.0198,-1.7867 -0.004,-1.83091 0.99337,-2.69233 1.01044,-0.87312 2.54825,-1.34882 3.87739,-1.19941 1.07726,0.12109 2.67198,1.59194 3.36335,3.1021 0.41881,0.91479 0.75856,1.34164 0.9955,1.25072 0.52073,-0.19982 0.66639,0.5309 0.61302,3.07523 -0.0618,2.94474 0.44854,4.25025 1.85374,4.74229 2.33949,0.8192 6.95131,3.26694 7.42505,3.94089 1.0998,1.56457 1.42689,2.5475 1.50645,4.52695 0.0443,1.10188 0.16593,3.3801 0.27031,5.0627 0.21973,3.5421 -0.0373,4.69702 -1.30227,5.85244 -0.99305,0.907 -1.3109,0.91845 -2.74435,0.0988 -0.61597,-0.35219 -1.17005,-0.55912 -1.23129,-0.45983 -0.21694,0.35168 -0.69148,3.33528 -0.69148,4.34754 0,0.56493 0.14041,1.2872 0.31202,1.60506 0.17162,0.31785 0.58145,1.8876 0.91075,3.48833 0.3293,1.60073 0.95329,4.19034 1.38665,5.75469 l 0.78792,2.84427 h -2.8773 -2.87731 l -0.14088,-0.8599 c -0.22054,-1.3461 -0.63896,-8.29835 -0.83426,-13.86159 -0.17059,-4.85946 -0.15705,-5.07077 0.33481,-5.22688 0.45093,-0.14312 0.55698,-0.61593 0.8818,-3.93164 0.20307,-2.07292 0.37525,-4.36426 0.38262,-5.09186 0.0129,-1.27213 -0.0166,-1.32633 -0.76731,-1.41176 -0.5194,-0.0591 -0.89577,0.0685 -1.12448,0.38129 -0.45612,0.62378 -0.43595,0.79139 0.16253,1.35089 0.47709,0.44602 0.48949,0.65366 0.21495,3.59943 -0.23998,2.57502 -0.37684,3.17186 -0.77635,3.38567 -0.68589,0.36708 -0.93056,0.12539 -1.14239,-1.1284 -0.27571,-1.63194 -0.81249,-2.73907 -1.56803,-3.23411 -0.44451,-0.29126 -0.67407,-0.68288 -0.67407,-1.14995 0,-0.47021 -0.0886,-0.61971 -0.26349,-0.44479 -0.17492,0.17492 0.0428,1.19318 0.64784,3.02948 0.50122,1.5213 1.0411,3.27201 1.19972,3.89047 0.23002,0.89685 0.40686,1.12453 0.87352,1.12473 0.56356,2.5e-4 0.58743,0.10504 0.648,2.84428 0.1533,6.93314 0.66652,13.4629 1.26851,16.13933 l 0.1339,0.59531 h -5.85342 -5.85341 z m -10.95482,-22.04251 c -2.28646,-1.29486 -2.66482,-1.72462 -2.66482,-3.02676 0,-1.51556 0.48632,-1.96615 1.91123,-1.77084 1.49893,0.20545 2.58669,0.68982 2.58669,1.15185 0,0.19492 -0.11907,0.3544 -0.26459,0.3544 -0.48088,0 -0.27469,1.18932 0.26459,1.5261 0.37755,0.23579 0.528,0.6141 0.52511,1.32042 -0.007,1.61737 -0.21751,1.65715 -2.35821,0.44483 z"
         id="path247" /></g></g></svg>
