<?xml version="1.0" encoding="UTF-8" standalone="no"?>
<!-- Created with Inkscape (http://www.inkscape.org/) -->

<svg
   width="53.713444mm"
   height="65.625938mm"
   viewBox="0 0 53.713444 65.625938"
   version="1.1"
   id="svg1"
   inkscape:export-filename="starter-band.svg"
   inkscape:export-xdpi="96"
   inkscape:export-ydpi="96"
   xml:space="preserve"
   xmlns:inkscape="http://www.inkscape.org/namespaces/inkscape"
   xmlns:sodipodi="http://sodipodi.sourceforge.net/DTD/sodipodi-0.dtd"
   xmlns="http://www.w3.org/2000/svg"
   xmlns:svg="http://www.w3.org/2000/svg"><sodipodi:namedview
     id="namedview1"
     pagecolor="#ffffff"
     bordercolor="#000000"
     borderopacity="0.25"
     inkscape:showpageshadow="2"
     inkscape:pageopacity="0.0"
     inkscape:pagecheckerboard="0"
     inkscape:deskcolor="#d1d1d1"
     inkscape:document-units="mm"><inkscape:page
       x="0"
       y="0"
       width="53.713444"
       height="65.625938"
       id="page2"
       margin="0"
       bleed="0" /></sodipodi:namedview><defs
     id="defs1" /><g
     inkscape:label="Calque 1"
     inkscape:groupmode="layer"
     id="layer1"
     transform="translate(-62.919068,-117.79843)"><g
       id="g286"
       transform="translate(-28.494465,4.2924354)"><path
         style="fill:#d2e5f3"
         d="m 91.413544,146.31458 v -32.80833 h 26.855206 26.85521 v 32.80833 32.80834 H 118.26875 91.413544 Z"
         id="path293" /><path
         style="fill:#c6daeb"
         d="m 103.45208,178.17885 c 1.30969,-0.50846 2.97657,-1.20099 3.70417,-1.53897 0.72761,-0.33797 1.7694,-0.76022 2.31511,-0.93833 0.5457,-0.17811 0.99218,-0.42076 0.99218,-0.53922 0,-0.11846 0.31941,-0.29555 0.70979,-0.39353 0.76381,-0.1917 2.99438,-1.4262 2.99438,-1.65722 0,-0.0771 -0.36311,-0.0676 -0.8069,0.0212 -0.4438,0.0887 -0.74915,0.0679 -0.67856,-0.0463 0.0706,-0.11422 -0.31044,-0.22253 -0.84674,-0.24069 -0.85091,-0.0288 -0.89085,-0.005 -0.31363,0.18528 0.3638,0.12007 0.48286,0.22838 0.26458,0.2407 -0.40117,0.0226 -2.02592,-0.49542 -2.51354,-0.80143 -0.14552,-0.0913 -0.88966,-0.25037 -1.65365,-0.35342 -0.76398,-0.10305 -1.38906,-0.29526 -1.38906,-0.42712 0,-0.13187 -0.22355,-0.23976 -0.49677,-0.23976 -0.27322,0 -0.64499,-0.17859 -0.82615,-0.39687 -0.18115,-0.21829 -0.49821,-0.39688 -0.70457,-0.39688 -1.0105,0 -4.443894,-3.21142 -4.245302,-3.97083 0.08807,-0.3368 0.01405,-0.44397 -0.239446,-0.34669 -0.226546,0.0869 -0.366929,-0.036 -0.366929,-0.32136 0,-0.25419 -0.161344,-0.59435 -0.358542,-0.75591 -0.239968,-0.1966 -0.29244,-0.51251 -0.158665,-0.95521 0.174594,-0.57779 0.203213,-0.59142 0.22625,-0.10774 0.07785,1.63452 6.648014,3.13813 11.925934,2.7293 4.52566,-0.35056 7.14688,-1.04034 13.8436,-3.643 2.29879,-0.89342 4.30159,-1.62439 4.45067,-1.62439 0.14907,0 1.89965,-0.60939 3.89017,-1.3542 3.42283,-1.28075 4.75678,-2.07745 5.36936,-3.20681 0.29434,-0.54266 -0.14081,-5.60991 -0.68758,-8.0067 -0.19919,-0.87313 -0.42012,-2.48047 -0.49096,-3.57188 -0.0709,-1.0914 -0.27067,-2.54319 -0.44405,-3.22619 -0.35366,-1.39323 -0.55447,-1.49206 -3.2365,-1.5928 -1.01836,-0.0383 -1.52135,-0.16756 -1.52135,-0.3911 0,-0.69597 -1.32006,-1.20801 -3.36244,-1.30425 -1.11506,-0.0525 -2.09591,-0.20642 -2.17967,-0.34195 -0.0838,-0.13552 -0.98441,-0.27845 -2.00145,-0.31763 -1.68245,-0.0648 -1.8727,-0.0189 -2.11033,0.50864 -0.14365,0.31893 -0.35903,0.57987 -0.47864,0.57987 -0.1196,0 -0.15004,0.10907 -0.0677,0.24238 0.0824,0.13331 0.023,0.57576 -0.13187,0.98322 -0.22534,0.59267 -0.33074,0.66326 -0.52701,0.35293 -0.14316,-0.22634 -0.24703,-0.25934 -0.24939,-0.0792 -0.002,0.16978 -0.33148,0.42827 -0.73166,0.57443 l -0.7276,0.26574 0.7276,0.0209 c 0.40018,0.0115 0.72761,-0.1052 0.72761,-0.25931 0,-0.15411 0.11662,-0.20812 0.25916,-0.12003 0.36429,0.22515 -0.24243,1.12788 -0.86799,1.29147 -0.27651,0.0723 -0.42951,0.24998 -0.33999,0.39482 0.1957,0.31665 -0.78201,0.67219 -1.17707,0.42803 -0.1532,-0.0947 -0.45756,-0.0236 -0.67635,0.158 -0.26016,0.21592 -0.30095,0.39002 -0.11787,0.50317 0.17317,0.10702 0.0518,0.37712 -0.31821,0.70815 -0.91798,0.82131 -2.58252,1.75539 -2.58252,1.44923 0,-0.15016 0.19163,-0.38026 0.42584,-0.51133 0.38364,-0.21469 0.37926,-0.25618 -0.0442,-0.41869 -0.25855,-0.0992 -0.599,-0.0504 -0.75657,0.10854 -0.2066,0.20837 -0.13892,0.24165 0.24268,0.11937 0.46912,-0.15032 0.48149,-0.12958 0.10907,0.18276 -0.23105,0.19378 -0.38182,0.47139 -0.33503,0.61691 0.19528,0.60737 -1.32953,1.64121 -1.84529,1.25114 -0.1705,-0.12894 -0.84578,-0.24457 -1.50062,-0.25694 -1.03943,-0.0196 -1.10663,0.0104 -0.52917,0.23639 0.3638,0.14238 0.92935,0.20814 1.25677,0.14614 0.32742,-0.062 0.59531,-0.0102 0.59531,0.11517 0,0.12534 -0.2282,0.2279 -0.50712,0.2279 -0.27891,0 -0.56909,0.14882 -0.64483,0.33073 -0.0974,0.23382 -0.26777,0.17569 -0.58158,-0.19844 -0.30936,-0.36882 -0.48142,-0.42895 -0.56784,-0.19844 -0.14711,0.39245 -2.19654,0.45416 -2.19654,0.0662 0,-0.16169 -1.23473,-0.26459 -3.175,-0.26459 -1.94028,0 -3.175,0.1029 -3.175,0.26459 0,0.14552 -0.47625,0.26458 -1.05834,0.26458 -0.58208,0 -1.05833,-0.11906 -1.05833,-0.26458 0,-0.16169 -1.234722,-0.26459 -3.175,-0.26459 -1.940278,0 -3.175,0.1029 -3.175,0.26459 0,0.14552 -0.47625,0.26458 -1.058333,0.26458 h -1.058333 v -17.4625 -17.4625 h 26.855206 26.85521 v 32.80833 32.80834 h -6.24602 c -5.44331,0 -6.22644,-0.051 -6.09372,-0.39688 0.0838,-0.21828 0.0497,-0.39687 -0.0757,-0.39687 -0.12539,0 -0.29651,0.17859 -0.38027,0.39687 -0.1297,0.33798 -1.10572,0.39582 -6.57675,0.38976 l -6.42445,-0.007 0.92605,-0.79513 c 0.50932,-0.43732 1.44042,-1.15997 2.06911,-1.60589 0.62869,-0.44591 1.07471,-0.87912 0.99114,-0.96268 -0.0836,-0.0836 -0.41935,0.0856 -0.74619,0.37599 -0.32685,0.29035 -1.27888,0.97187 -2.11563,1.51449 -0.83674,0.54262 -1.52135,1.09927 -1.52135,1.23702 0,0.15277 -3.48224,0.24662 -8.92969,0.24064 l -8.92968,-0.01 z m 3.175,-11.79281 c -3.55106,-0.32435 -6.31635,-1.37628 -6.93201,-2.63697 -0.174588,-0.3575 -0.399594,-1.45195 -0.500013,-2.4321 -0.14571,-1.42221 -0.09993,-1.8747 0.226672,-2.24068 0.22509,-0.25222 0.549756,-0.98604 0.721481,-1.63071 0.43362,-1.62787 1.49029,-2.51772 4.91626,-4.14012 1.61166,-0.76322 3.69525,-1.91414 4.6302,-2.55762 0.93496,-0.64347 2.65241,-1.68521 3.81658,-2.31498 2.75516,-1.49042 5.56361,-3.33891 6.83627,-4.49953 0.55849,-0.50932 1.17001,-1.01366 1.35892,-1.12075 0.18892,-0.1071 0.42678,-0.63876 0.5286,-1.18149 0.24241,-1.29214 0.80434,-2.35408 1.35813,-2.56659 0.24431,-0.0937 1.40957,0.005 2.58947,0.21974 1.1799,0.21461 2.80012,0.48525 3.60049,0.60142 l 1.4552,0.21121 0.14943,1.11957 c 0.18954,1.42015 0.3416,1.56121 0.84867,0.78731 0.36687,-0.55991 0.57767,-0.61625 2.07656,-0.55499 1.64832,0.0674 1.67206,0.0793 1.98919,0.99526 0.17653,0.50989 0.37593,1.97632 0.4431,3.25872 0.0672,1.2824 0.24298,2.6363 0.39068,3.00868 0.28828,0.72682 0.72248,3.54771 0.97501,6.33441 0.14144,1.56091 0.0965,1.78783 -0.48634,2.45621 -0.66056,0.7575 -5.17152,2.72649 -7.90831,3.4519 -0.76362,0.2024 -2.87668,0.96514 -4.69569,1.69498 -7.86606,3.15607 -13.10135,4.22005 -18.38855,3.73712 z m -6.2177,-4.59333 c 0.32203,-1.55123 0.38055,-1.59921 1.4531,-1.19143 0.46113,0.17533 0.63913,0.17533 0.53078,0 -0.0897,-0.14508 -0.28357,-0.26378 -0.4309,-0.26378 -0.14732,0 -0.45171,-0.18385 -0.67641,-0.40855 -0.36835,-0.36834 -0.3258,-0.57665 0.43235,-2.11667 0.4625,-0.93946 0.9277,-1.70811 1.03378,-1.70811 0.10609,0 0.60622,-0.38696 1.11141,-0.8599 0.50518,-0.47294 1.54983,-1.1518 2.32144,-1.50857 0.77161,-0.35677 1.45527,-0.73337 1.51925,-0.8369 0.11926,-0.19296 -3.6203,1.43548 -5.04647,2.19755 -1.20466,0.64371 -1.69472,1.32059 -1.95159,2.69553 -0.12849,0.68778 -0.44239,1.40316 -0.69756,1.58974 -0.398031,0.29105 -0.437114,0.5898 -0.275089,2.10277 0.103872,0.96994 0.230471,1.76353 0.281329,1.76353 0.0509,0 0.22842,-0.65485 0.39458,-1.45521 z"
         id="path292" /><path
         style="fill:#b6cfe1"
         d="m 101.77358,178.9938 c 0.15414,-0.15351 3.71034,-1.45838 3.97458,-1.45838 0.13678,0 0.17511,0.11906 0.0852,0.26458 -0.0899,0.14552 -0.0374,0.26458 0.11668,0.26458 0.15411,0 0.28168,-0.20836 0.2835,-0.46302 0.002,-0.32988 0.5539,-0.67326 1.91822,-1.1942 1.05322,-0.40215 2.19398,-0.72957 2.53502,-0.7276 0.37545,0.002 0.66897,-0.18337 0.744,-0.47028 0.0682,-0.26062 0.56302,-0.66495 1.09971,-0.8985 1.47963,-0.64392 4.82039,-2.76464 4.63972,-2.94531 -0.0875,-0.0875 -0.531,0.0372 -0.98549,0.27717 -1.08726,0.57408 -3.60119,0.47849 -6.38261,-0.2427 -1.16416,-0.30185 -2.53026,-0.60885 -3.03577,-0.68221 -0.50552,-0.0734 -1.21989,-0.33832 -1.5875,-0.58878 -0.36762,-0.25046 -0.99506,-0.65329 -1.39433,-0.89519 -0.39926,-0.24189 -0.69692,-0.58638 -0.66146,-0.76553 0.0403,-0.20345 -0.17292,-0.29229 -0.56793,-0.23666 -0.47098,0.0663 -0.59385,-0.0114 -0.48133,-0.30466 0.0946,-0.2466 -0.0398,-0.44364 -0.35977,-0.52731 -0.29637,-0.0775 -0.51086,-0.36262 -0.51086,-0.67908 0,-0.32299 -0.29678,-0.70649 -0.72761,-0.94022 -0.960728,-0.5212 -0.529501,-0.5323 0.47616,-0.0122 0.42934,0.22202 0.78244,0.31132 0.78466,0.19844 0.002,-0.11288 0.0915,-0.0708 0.19844,0.0934 0.10691,0.16425 1.58581,0.49905 3.28644,0.74401 2.57761,0.37127 3.59009,0.39843 6.08542,0.16321 4.49724,-0.42393 7.14789,-1.17734 15.42878,-4.38543 1.01864,-0.39463 2.56646,-0.93392 3.43958,-1.19843 4.95773,-1.50193 7.5883,-2.85209 8.37165,-4.29682 0.32752,-0.60405 -0.18324,-6.3566 -0.75001,-8.44708 -0.22538,-0.83132 -0.34541,-1.67925 -0.26672,-1.88431 0.19055,-0.49658 2.2952,-1.499 3.14726,-1.499 0.3728,0 0.82495,-0.17728 1.00478,-0.39396 0.17983,-0.21668 0.41988,-0.33653 0.53345,-0.26634 0.11358,0.0702 0.63204,-0.0502 1.15215,-0.2675 1.91073,-0.79835 1.7564,-2.30967 1.7564,17.19967 v 17.5948 h -6.08542 c -3.34698,0 -6.08541,-0.0637 -6.08541,-0.1416 0,-0.20958 0.87316,-1.53707 1.2121,-1.84278 0.37378,-0.33713 1.43373,-1.88327 1.43373,-2.09136 0,-0.48595 -0.59925,0.0194 -1.60927,1.3572 -2.28654,3.0285 -1.3262,2.71854 -8.42274,2.71854 h -6.23241 l 0.86945,-0.59532 c 2.37674,-1.62735 7.4162,-5.75468 7.02644,-5.75468 -0.34079,0 -1.95022,1.10955 -1.95022,1.34449 0,0.13366 -0.16867,0.24301 -0.37483,0.24301 -0.20615,0 -0.41451,0.0893 -0.46302,0.19843 -0.21004,0.47261 -2.69995,1.93716 -3.05908,1.79935 -0.26816,-0.1029 -0.34801,-0.0284 -0.24823,0.23162 0.0978,0.25481 -0.26178,0.62294 -1.07246,1.09803 l -1.21955,0.71471 -0.9486,-0.49719 c -0.52173,-0.27345 -1.00814,-0.57464 -1.0809,-0.66932 -0.0728,-0.0947 -1.56104,-0.21487 -3.30729,-0.26711 l -3.175,-0.095 0.0928,1.12448 0.0928,1.12448 -2.47404,-0.004 c -1.50248,-0.002 -2.33164,-0.0943 -2.11143,-0.23376 0.24756,-0.15682 0.0129,-0.26305 -0.73969,-0.33482 -1.07127,-0.10216 -2.00633,0.13091 -1.3727,0.34216 0.16196,0.054 -0.25247,0.11928 -0.92096,0.14508 -0.66848,0.0258 -1.17448,0.006 -1.12443,-0.0437 z m 2.07538,-13.07182 c -2.23369,-0.59014 -3.934638,-1.48835 -4.207511,-2.22186 -0.119592,-0.32147 -0.299668,-1.43827 -0.40017,-2.48177 -0.15204,-1.57861 -0.112885,-1.93636 0.23312,-2.12999 0.228718,-0.128 0.469646,-0.51206 0.535391,-0.85347 0.46927,-2.43672 1.21203,-3.14047 5.31409,-5.03502 1.29885,-0.59987 3.19498,-1.66467 4.21362,-2.36622 1.01865,-0.70155 2.50693,-1.60548 3.30729,-2.00874 2.47817,-1.2486 6.41877,-3.83394 7.80371,-5.11986 1.00165,-0.93003 1.44377,-1.59814 1.8271,-2.761 0.62,-1.88084 1.08471,-2.17926 2.75465,-1.76891 0.68232,0.16767 2.22582,0.40869 3.42999,0.53561 1.20418,0.12692 2.30551,0.30251 2.4474,0.3902 0.14189,0.0877 0.25799,0.60883 0.25799,1.15807 0,1.31091 0.24583,1.50649 0.91073,0.72454 0.49539,-0.5826 0.69124,-0.62821 2.17248,-0.50595 1.88878,0.15589 1.81964,0.0247 2.20009,4.17551 0.12004,1.30969 0.39988,3.0361 0.62187,3.83646 0.22199,0.80037 0.53223,2.6829 0.68944,4.1834 0.30683,2.92876 0.18693,3.51386 -0.8778,4.28327 -0.75956,0.54889 -4.38805,2.03288 -6.77515,2.77093 -1.0914,0.33745 -3.41312,1.17034 -5.15937,1.85087 -5.23376,2.03966 -7.46603,2.75304 -10.36556,3.31259 -3.50633,0.67665 -8.43733,0.69079 -10.9334,0.0313 z m -3.5101,-3.26938 c 0.11467,-1.62156 0.37264,-2.35731 0.77269,-2.20379 0.22293,0.0855 0.72168,0.22557 1.10834,0.31117 0.63426,0.14041 0.61245,0.0985 -0.22301,-0.42853 -0.50933,-0.3213 -0.96085,-0.61517 -1.0034,-0.65305 -0.0425,-0.0379 0.2082,-0.71456 0.55721,-1.50374 0.71761,-1.62263 1.94582,-2.78811 4.53214,-4.30064 0.95418,-0.55803 1.73488,-1.05421 1.73488,-1.10262 0,-0.29024 -5.6087,2.43434 -6.25967,3.04081 -0.30684,0.28587 -0.70771,1.15312 -0.89081,1.92721 -0.1831,0.7741 -0.49462,1.50267 -0.69226,1.61904 -0.197639,0.11637 -0.358033,0.59262 -0.356431,1.05833 0.0067,1.95246 0.608321,3.81978 0.720321,2.23581 z m -8.925316,-39.62135 v -9.525 h 9.447826 9.44784 l -0.98178,0.92604 c -0.53998,0.50932 -1.09065,0.92604 -1.2237,0.92604 -0.13306,0 -0.28161,0.0893 -0.33012,0.19844 -0.0485,0.10914 -1.15975,1.14245 -2.46944,2.29625 -1.30969,1.1538 -2.42094,2.19559 -2.46945,2.3151 -0.0485,0.11951 -0.18542,0.2173 -0.30427,0.2173 -0.20028,0 -2.12107,1.80123 -2.12107,1.98905 0,0.0462 -0.922738,1.03199 -2.050524,2.19059 -2.628801,2.70062 -3.496177,3.67307 -4.295768,4.81619 -0.356264,0.50932 -0.796328,1.0792 -0.977919,1.2664 -0.181591,0.18719 -0.538602,0.69321 -0.793358,1.12448 -0.254756,0.43126 -0.556585,0.78412 -0.67073,0.78412 -0.114146,0 -0.207537,-4.28625 -0.207537,-9.525 z m 9.921876,7.67292 c -0.0899,-0.14553 -0.45415,-0.26459 -0.80937,-0.26459 -0.577092,0 -0.64584,-0.11265 -0.64584,-1.05833 v -1.05833 h -1.058333 c -0.582084,0 -1.058334,-0.10518 -1.058334,-0.23373 0,-0.12855 -0.248017,-0.29858 -0.55115,-0.37785 l -0.551151,-0.14413 0.590238,-0.79834 c 0.493316,-0.66725 0.725021,-0.77609 1.411046,-0.66287 0.677328,0.11179 0.739871,0.0839 0.357788,-0.15987 -0.569889,-0.36351 -0.609102,-1.0628 -0.0596,-1.0628 0.221883,0 0.507078,-0.26789 0.633768,-0.59531 0.126689,-0.32742 0.629758,-0.9598 1.117938,-1.40528 0.48817,-0.44547 1.08185,-1.04079 1.31929,-1.32291 0.66117,-0.7856 3.86567,-3.7426 6.27227,-5.78784 1.18776,-1.00941 2.15956,-1.93214 2.15956,-2.05052 0,-0.11837 4.19696,-0.20771 9.32657,-0.19853 l 9.32656,0.0167 -3.83646,1.92541 c -5.84423,2.93306 -10.27844,5.54469 -13.75833,8.10327 -0.80037,0.58847 -1.84217,1.31543 -2.31511,1.61548 -0.47294,0.30006 -0.85989,0.62798 -0.85989,0.72873 0,0.10074 -0.66352,0.51914 -1.47449,0.92977 -0.8259,0.4182 -1.60108,1.02443 -1.76227,1.37819 -0.15827,0.34738 -0.44725,0.63159 -0.64217,0.63159 -0.19492,0 -0.35441,0.11906 -0.35441,0.26459 0,0.14552 -0.24927,0.26458 -0.55393,0.26458 -0.33142,0 -0.60953,0.21256 -0.69232,0.52917 -0.0761,0.29104 -0.30309,0.52916 -0.5044,0.52916 -0.20131,0 -0.36601,0.11906 -0.36601,0.26459 0,0.14552 -0.11204,0.26458 -0.24897,0.26458 -0.13693,0 -0.32255,-0.11906 -0.41249,-0.26458 z m 11.57029,-7.02188 c -0.28466,-0.31801 -0.20385,-0.3552 0.52917,-0.24354 0.55666,0.0848 0.6958,0.0565 0.39024,-0.0793 -0.42346,-0.18826 -0.38882,-0.27474 0.32002,-0.7988 0.43719,-0.32323 0.91878,-0.58769 1.07019,-0.58769 0.15141,0 0.2753,-0.11907 0.2753,-0.26459 0,-0.14552 0.17859,-0.26458 0.39687,-0.26458 0.21828,0 0.39688,0.11906 0.39688,0.26458 0,0.14552 0.12708,0.26459 0.28241,0.26459 0.15533,0 0.21189,-0.22219 0.12571,-0.49374 -0.13162,-0.41468 -0.0463,-0.47262 0.53307,-0.36188 0.37938,0.0725 0.75226,0.29471 0.82864,0.49374 0.18183,0.47385 0.876,0.46855 0.876,-0.007 0,-0.20271 -0.17859,-0.4371 -0.39688,-0.52086 -0.21828,-0.0838 -0.39687,-0.39416 -0.39687,-0.68977 0,-0.51981 0.25729,-0.65681 1.03016,-0.5485 0.20279,0.0284 0.44091,-0.0468 0.52917,-0.16709 0.0883,-0.12032 0.44087,-0.45688 0.78359,-0.74792 l 0.62313,-0.52917 -0.094,0.63686 c -0.0517,0.35028 0.0549,0.68762 0.23676,0.74966 0.229,0.0781 0.33073,-0.21953 0.33073,-0.9676 0,-0.68086 0.12083,-1.08038 0.32673,-1.08038 0.58314,0 3.35666,-1.44632 3.3672,-1.75591 0.0112,-0.32956 1.2765,-0.64639 2.52378,-0.63195 0.60102,0.007 0.69844,-0.0524 0.40121,-0.24436 -0.31182,-0.2014 -0.19115,-0.33769 0.58681,-0.66274 0.53865,-0.22506 1.16178,-0.4092 1.38473,-0.4092 0.22296,0 0.40538,-0.11907 0.40538,-0.26459 0,-0.16997 2.60173,-0.26458 7.27604,-0.26458 h 7.27604 v 5.29167 5.29166 h -1.45521 -1.45521 v -1.05833 -1.05833 h -1.05833 -1.05833 v 1.06225 1.06225 l -13.42761,-0.0199 c -11.24043,-0.0167 -13.48233,-0.0811 -13.76356,-0.39523 z"
         id="path291" /><path
         style="fill:#a4b9ca"
         d="m 129.51354,173.0375 c 0,-0.14552 -0.36632,-0.26458 -0.81405,-0.26458 h -0.81405 l 0.81405,-0.68498 c 0.44773,-0.37674 0.81405,-0.80196 0.81405,-0.94494 0,-0.34717 0.68423,-1.01592 1.03944,-1.01592 0.15591,0 0.28348,-0.11906 0.28348,-0.26458 0,-0.40346 -0.37294,-0.31717 -0.94909,0.21959 -0.85299,0.79468 -2.03407,1.49676 -2.61097,1.55206 -0.29754,0.0285 -1.49348,0.16593 -2.65765,0.30537 -3.01683,0.36133 -6.02604,0.45419 -6.4392,0.19869 -0.20375,-0.12599 -0.47865,-0.0939 -0.64823,0.0757 -0.33811,0.33811 -0.71778,0.38807 -0.71778,0.0944 0,-0.11 0.35719,-0.3581 0.79375,-0.55135 0.43657,-0.19324 0.79375,-0.51996 0.79375,-0.72604 0,-0.30584 -0.69912,-0.3747 -3.80406,-0.3747 -3.05861,0 -3.86861,-0.0778 -4.13344,-0.39687 -0.18115,-0.21829 -0.62624,-0.39688 -0.98907,-0.39688 -0.80851,0 -3.24426,-0.84121 -3.24426,-1.12044 0,-0.11136 -0.26789,-0.2043 -0.59531,-0.20653 -0.44317,-0.003 -0.50185,-0.0632 -0.22963,-0.23566 0.49528,-0.31367 -0.52957,-0.64742 -1.35787,-0.4422 -0.38212,0.0947 -0.31105,0.0106 0.19843,-0.23482 l 0.79375,-0.38232 -0.91281,-0.0119 c -0.64004,-0.008 -0.82943,-0.0953 -0.63378,-0.29096 0.19565,-0.19565 0.82088,-0.18467 2.09234,0.0368 2.25665,0.39298 6.2512,0.18292 9.64071,-0.50698 3.19119,-0.64952 5.48433,-1.42237 11.90625,-4.01271 0.65485,-0.26413 1.72641,-0.62026 2.38125,-0.79139 0.65485,-0.17113 2.71024,-0.90662 4.56754,-1.63443 4.53655,-1.77772 4.77095,-2.06881 4.57806,-5.68529 -0.0764,-1.43278 -0.21443,-3.11106 -0.30669,-3.72953 -0.18149,-1.21662 0.0287,-1.48581 0.41326,-0.52916 0.23837,0.59302 0.23937,0.59276 0.26011,-0.0661 0.0133,-0.42279 0.0953,-0.54425 0.22719,-0.33661 0.15167,0.23874 0.30633,0.18615 0.58352,-0.19844 0.26661,-0.36989 0.68966,-0.52513 1.44323,-0.5296 0.58634,-0.003 1.48279,-0.0988 1.99212,-0.21186 1.98026,-0.43956 1.85208,-1.07859 1.85208,9.23341 0,8.03785 -0.0517,9.24102 -0.39688,9.24102 -0.21828,0 -0.39687,0.093 -0.39687,0.20657 0,0.11362 -0.38695,0.36115 -0.8599,0.55006 -0.73225,0.2925 -0.78735,0.37169 -0.37122,0.53349 0.66532,0.25869 0.21,0.57422 -1.74923,1.21219 -1.30988,0.42653 -1.50627,0.57439 -1.3915,1.04768 0.0735,0.30307 0.0653,0.40222 -0.0183,0.22032 -0.0835,-0.1819 -0.32057,-0.33073 -0.52672,-0.33073 -0.42515,0 -0.48788,-0.30233 -0.13998,-0.67469 0.12916,-0.13824 0.31578,-0.51924 0.4147,-0.84666 0.13314,-0.44066 0.0721,-0.59532 -0.23484,-0.59532 -0.22809,0 -0.41471,0.12409 -0.41471,0.27575 0,0.30483 -0.10164,0.44377 -1.43923,1.96728 -0.70647,0.80467 -0.88769,0.91366 -0.76984,0.46302 0.11559,-0.44204 0.0395,-0.58938 -0.30447,-0.58938 -0.32833,0 -0.41929,0.15031 -0.32021,0.52917 0.13555,0.51837 -0.21172,0.77062 -0.38534,0.2799 -0.12501,-0.35331 -3.20624,0.69507 -3.87558,1.31867 -0.58189,0.5421 -2.43033,0.73492 -2.43033,0.25351 z m -25.32234,-7.01201 c -2.13292,-0.48804 -4.273753,-1.58221 -4.547471,-2.32418 -0.118834,-0.32213 -0.291325,-1.42372 -0.383314,-2.44798 -0.148277,-1.65101 -0.107597,-1.91338 0.358563,-2.31252 0.289198,-0.24762 0.525812,-0.69333 0.525812,-0.99047 0,-1.84144 1.42144,-3.09795 5.54975,-4.90583 1.23335,-0.54011 2.8407,-1.43053 3.57188,-1.97872 0.73118,-0.54818 2.56575,-1.66926 4.07683,-2.49128 5.84476,-3.17954 8.35712,-5.27871 9.13235,-7.63046 0.61981,-1.88027 1.0844,-2.17884 2.75465,-1.77031 0.68232,0.16689 2.19308,0.41657 3.35725,0.55485 2.7981,0.33235 2.77813,0.32152 2.77813,1.50651 0,1.33457 0.24273,1.53406 0.91073,0.74846 0.49539,-0.5826 0.69124,-0.62821 2.17248,-0.50595 1.89179,0.15614 1.83389,0.0454 2.18327,4.17551 0.11079,1.30969 0.39245,3.0361 0.62592,3.83646 0.5666,1.94239 1.05796,6.7819 0.74711,7.3584 -0.54457,1.00994 -1.65922,1.65153 -5.09729,2.934 -1.98943,0.7421 -3.71614,1.34927 -3.83714,1.34927 -0.12099,0 -1.46984,0.48254 -2.99743,1.07232 -9.01168,3.47923 -10.93582,3.96013 -16.40349,4.09972 -2.68423,0.0685 -4.32965,-0.0149 -5.47859,-0.2778 z m -3.85234,-3.37289 c 0.11467,-1.62156 0.37264,-2.35731 0.77269,-2.20379 0.22293,0.0855 0.72168,0.22216 1.10834,0.3036 0.62841,0.13235 0.60116,0.0827 -0.25672,-0.4676 l -0.95976,-0.61566 0.51619,-1.31947 c 0.75329,-1.92555 1.00639,-2.15408 5.92641,-5.35114 0.27719,-0.18012 -0.21038,-0.0208 -1.08351,0.35411 -0.87312,0.37489 -1.88515,0.79831 -2.24896,0.94094 -0.3638,0.14263 -1.17131,0.5786 -1.79447,0.96881 -0.961,0.60176 -1.19665,0.9304 -1.5522,2.16468 -0.23056,0.80037 -0.58391,1.64318 -0.785219,1.87292 -0.39453,0.45024 -0.456364,1.38176 -0.196202,2.95573 0.181808,1.09993 0.488161,1.31963 0.553411,0.39687 z m -8.925316,-44.20746 v -4.93889 h 3.042708 c 1.673489,0 3.042708,0.0754 3.042708,0.16764 0,0.0922 -0.757525,1.3126 -1.683389,2.71198 -0.925864,1.39939 -2.251041,3.49684 -2.944838,4.661 -0.693796,1.16417 -1.30549,2.16628 -1.359319,2.22691 -0.05383,0.0606 -0.09787,-2.11225 -0.09787,-4.82864 z m 4.938888,-0.88195 c -0.325978,-0.32598 -0.180208,-0.60222 0.233927,-0.4433 0.321647,0.12343 0.37723,0.0216 0.257216,-0.47132 -0.115487,-0.47431 0.07621,-0.88434 0.78031,-1.66903 0.513374,-0.57214 0.933408,-1.14043 0.933408,-1.26287 0,-0.12244 2.559847,-0.21229 5.688537,-0.19966 3.1287,0.0126 5.68855,0.0767 5.68855,0.14228 0,0.0656 -0.33667,0.32593 -0.74816,0.57845 -0.85076,0.52211 -2.748,2.02154 -3.67763,2.90653 -0.82474,0.78513 -1.12389,0.75105 -1.16116,-0.13229 -0.0189,-0.44765 -0.0772,-0.54945 -0.15169,-0.26459 -0.0893,0.34182 -0.39295,0.46303 -1.15993,0.46303 -0.57141,0 -1.03893,0.11906 -1.03893,0.26458 0,0.14552 -0.47625,0.26458 -1.05834,0.26458 -0.7456,0 -1.05833,-0.11278 -1.05833,-0.38166 0,-0.25986 -0.358852,-0.40763 -1.124479,-0.46302 -0.999756,-0.0723 -1.117112,-0.14952 -1.058055,-0.69585 0.06194,-0.57302 0.03672,-0.58479 -0.373639,-0.17443 -0.359351,0.35936 -0.374655,0.48049 -0.08344,0.66047 0.294357,0.18193 0.296193,0.29323 0.01051,0.63745 -0.374289,0.45099 -0.622007,0.51733 -0.898681,0.24065 z"
         id="path290" /><path
         style="fill:#96a5b3"
         d="m 122.36979,169.77464 c -0.96084,-0.40776 -0.97735,-0.44475 -0.39646,-0.88835 0.48913,-0.37352 0.42962,-0.39091 -0.79416,-0.23204 -0.85158,0.11056 -1.19235,0.0837 -0.95644,-0.0753 0.43195,-0.29121 -0.0414,-0.6075 -1.5571,-1.04039 -0.50933,-0.14547 -1.12399,-0.34568 -1.36592,-0.44491 -0.2817,-0.11553 -0.47199,-0.0394 -0.52917,0.2117 -0.0654,0.28726 -0.22497,0.21035 -0.59669,-0.28762 -0.50656,-0.6786 -0.50645,-0.67948 0.0661,-0.52975 0.31546,0.0825 0.57355,0.0351 0.57355,-0.10544 0,-0.14048 0.1243,-0.17861 0.27622,-0.0847 0.15192,0.0939 0.56864,-0.0209 0.92604,-0.25507 0.35741,-0.23418 0.64983,-0.35932 0.64983,-0.27808 0,0.0812 0.25326,0.0121 0.56281,-0.15351 0.43899,-0.23494 0.61273,-0.22244 0.7897,0.0568 0.17344,0.2737 0.22784,0.2423 0.23093,-0.13329 0.003,-0.35529 0.13002,-0.44299 0.45901,-0.31674 0.25023,0.096 0.36683,0.0864 0.25912,-0.0213 -0.10771,-0.10771 0.66983,-0.52077 1.72786,-0.91791 1.05803,-0.39714 2.57853,-0.97943 3.3789,-1.29398 0.80036,-0.31455 2.52677,-0.92704 3.83646,-1.3611 4.80888,-1.59375 7.71208,-2.88236 8.30713,-3.68721 0.76906,-1.04021 1.13088,-2.0377 0.81088,-2.23547 -0.13996,-0.0865 -0.25447,-0.55582 -0.25447,-1.04293 0,-0.73951 0.0829,-0.86398 0.50216,-0.75434 0.27618,0.0722 0.7822,-0.0456 1.12448,-0.2618 1.0539,-0.66575 1.81294,-0.80549 1.81294,-0.33376 0,0.30743 0.27376,0.41471 1.05834,0.41471 0.58208,0 1.05833,-0.11907 1.05833,-0.26459 0,-0.14552 0.17859,-0.26458 0.39687,-0.26458 0.33767,0 0.39688,0.69124 0.39688,4.63365 v 4.63364 l -1.25677,0.5538 c -0.69123,0.30458 -1.59384,0.71975 -2.00582,0.9226 -0.41197,0.20285 -0.97752,0.36881 -1.25677,0.36881 -0.27925,0 -0.50909,0.14883 -0.51076,0.33073 -0.002,0.1819 -0.47792,0.55824 -1.05833,0.83632 -0.58042,0.27807 -1.0553,0.60549 -1.0553,0.7276 0,0.12211 -0.34261,0.22202 -0.76135,0.22202 -0.41875,0 -0.91046,0.17966 -1.0927,0.39924 -0.18224,0.21958 -0.79213,0.47293 -1.35531,0.56298 -0.56319,0.0901 -1.02397,0.27461 -1.02397,0.41012 0,0.13551 -0.12944,0.16639 -0.28764,0.0686 -0.20713,-0.12801 -0.20713,-0.25828 0,-0.46541 0.1582,-0.1582 0.28764,-0.37688 0.28764,-0.48596 0,-0.17821 -0.62106,0.0822 -2.99801,1.25688 -0.41197,0.20361 -1.14157,0.37019 -1.62133,0.37019 -0.47976,0 -1.27378,0.16698 -1.7645,0.37107 -0.49071,0.20408 -1.60658,0.45831 -2.47971,0.56496 -0.87312,0.10664 -1.64703,0.28071 -1.71979,0.38682 -0.0728,0.10611 -0.42995,0.0666 -0.79375,-0.0878 z m -18.38854,-3.8621 c -2.37607,-0.58419 -4.057505,-1.45734 -4.365265,-2.26681 -0.133596,-0.35138 -0.272118,-1.48907 -0.307825,-2.52818 -0.05322,-1.54876 0.01633,-1.93478 0.385856,-2.14158 0.247927,-0.13874 0.450774,-0.44089 0.450774,-0.67144 0,-0.23055 0.14065,-0.8886 0.31254,-1.46235 0.38603,-1.28844 1.44418,-2.05054 5.18509,-3.7344 1.49573,-0.67326 3.1626,-1.57584 3.70417,-2.00574 0.54156,-0.4299 2.23697,-1.4891 3.76758,-2.35379 1.53061,-0.86468 3.50585,-2.03941 4.38944,-2.6105 1.91846,-1.23995 4.59358,-3.54089 4.59826,-3.95507 0.007,-0.61904 1.13432,-2.98311 1.48707,-3.11847 0.2032,-0.078 0.93475,-0.0176 1.62567,0.13415 0.69092,0.15176 2.20872,0.39917 3.37289,0.54981 1.16417,0.15064 2.2655,0.3946 2.4474,0.54213 0.1819,0.14754 0.33073,0.72991 0.33073,1.29418 0,1.20859 0.54355,1.38864 1.02201,0.33853 0.20945,-0.4597 0.4498,-0.63499 0.72557,-0.52917 0.2268,0.087 0.98491,0.15824 1.68469,0.15824 1.26268,0 1.27366,0.008 1.44772,0.99219 0.0965,0.5457 0.26969,2.06375 0.38495,3.37344 0.11526,1.30969 0.34992,2.72406 0.52147,3.14305 0.46134,1.12678 1.12989,7.27405 0.84794,7.79686 -0.66754,1.23781 -2.30829,2.0032 -9.94165,4.63764 -1.89177,0.65289 -4.57067,1.62725 -5.95312,2.16524 -1.38245,0.53799 -3.28745,1.20329 -4.23333,1.47845 -4.48698,1.30525 -10.39093,1.63405 -13.89063,0.77359 z m -3.56826,-3.25994 c 0.002,-0.47294 0.0787,-1.14026 0.1704,-1.48293 0.14929,-0.55766 0.27383,-0.60591 1.18701,-0.45989 1.22582,0.19602 1.29278,0.0468 0.22648,-0.50457 -0.93846,-0.4853 -0.96589,-0.73421 -0.25746,-2.33575 0.63755,-1.44128 1.86408,-2.48348 5.28454,-4.49031 1.38245,-0.8111 2.93026,-1.8505 3.43958,-2.30977 0.86745,-0.7822 0.84234,-0.77505 -0.39687,0.113 -0.72761,0.52142 -1.97776,1.25842 -2.77813,1.63779 -0.80036,0.37936 -2.28864,1.08622 -3.30729,1.5708 -1.01864,0.48458 -2.11416,1.12704 -2.43448,1.42769 -0.51769,0.4859 -1.13189,2.01762 -1.13592,2.8328 -8.1e-4,0.16408 -0.18007,0.44655 -0.39835,0.62771 -0.41752,0.34651 -0.503243,1.57019 -0.227051,3.24114 0.201448,1.21876 0.622601,1.30754 0.627541,0.13229 z m 20.91216,-10.75618 c -0.14823,-0.27697 -0.7775,-0.94744 -1.39837,-1.48993 -0.62087,-0.54249 -0.83121,-0.78826 -0.4674,-0.54617 0.99001,0.65882 3.39723,1.74593 3.86605,1.74593 0.22626,0 0.36257,-0.14641 0.30292,-0.32537 -0.10236,-0.30709 -3.30614,-1.66388 -4.3481,-1.84141 -0.26528,-0.0452 -1.11407,-0.47191 -1.88619,-0.94825 l -1.40385,-0.86607 -1.0724,0.6395 -1.0724,0.6395 1.04089,0.17586 c 0.57249,0.0967 1.15102,0.14068 1.28563,0.0977 0.26567,-0.0849 2.07239,1.14246 3.55203,2.41294 1.08502,0.93164 2.03303,1.11268 1.60119,0.30579 z m 3.03229,-2.66807 -1.02939,-1.05419 1.76955,0.70208 c 1.73702,0.68917 2.50766,0.68149 1.75436,-0.0175 -0.20962,-0.1945 -1.21456,-0.61937 -2.23321,-0.94416 -1.01864,-0.32479 -2.67276,-0.99277 -3.6758,-1.48441 -1.75303,-0.85924 -2.91494,-0.97833 -1.85438,-0.19007 0.46806,0.3479 0.45376,0.36185 -0.20534,0.20033 -0.38964,-0.0955 -0.92065,-0.0548 -1.18003,0.0903 -0.3832,0.21445 -0.22562,0.30315 0.84073,0.47326 0.72178,0.11514 1.4107,0.18269 1.53094,0.15011 0.19754,-0.0535 2.98514,2.03482 4.26461,3.19485 0.34537,0.31313 0.60205,0.37887 0.78091,0.20001 0.17887,-0.17886 -0.0719,-0.61294 -0.76295,-1.32063 z m 4.62694,-1.70262 c 0,-0.207 -0.62508,-0.93784 -1.38907,-1.62409 l -1.38906,-1.24773 1.79505,0.96263 c 2.04935,1.099 2.04141,1.09678 2.04141,0.57113 0,-0.51241 -1.6086,-1.31794 -3.89977,-1.95285 -1.01047,-0.28002 -2.2241,-0.70919 -2.69695,-0.95371 -0.83762,-0.43315 -0.88634,-0.42698 -1.89401,0.23986 -0.56885,0.37645 -1.03427,0.75687 -1.03427,0.84539 0,0.0885 0.16888,0.0208 0.37529,-0.15053 1.00118,-0.83091 4.41465,0.59181 6.4632,2.69383 1.00275,1.02892 1.62818,1.26557 1.62818,0.61607 z"
         id="path289" /><path
         style="fill:#de4c06"
         d="m 106.49479,166.26797 c -3.11985,-0.54619 -3.95453,-0.76734 -5.19813,-1.37726 -1.17329,-0.57544 -1.468475,-0.86195 -1.682776,-1.63334 -0.371675,-1.33788 -0.324178,-3.73034 0.08382,-4.22195 0.190663,-0.22974 0.545566,-1.07578 0.788676,-1.88009 0.39645,-1.31161 0.58576,-1.54835 1.83616,-2.29626 0.76677,-0.45864 2.2871,-1.22387 3.3785,-1.70051 1.09141,-0.47664 2.87735,-1.47766 3.96875,-2.22448 1.09141,-0.74683 2.99641,-1.89782 4.23334,-2.55776 2.2606,-1.20609 4.36433,-2.61302 6.84125,-4.57528 1.12647,-0.89241 1.40607,-1.29869 1.7834,-2.59141 0.54838,-1.87873 1.06539,-2.29891 2.5048,-2.0357 1.52564,0.27899 1.5404,0.47092 0.025,0.32531 -1.12915,-0.1085 -1.34717,-0.0463 -1.72432,0.49218 -0.23745,0.33901 -0.50476,1.03721 -0.59402,1.55155 -0.11242,0.64774 -0.54572,1.30108 -1.40985,2.12578 -0.68615,0.65484 -1.05081,1.0418 -0.81035,0.8599 0.6496,-0.49141 2.52883,-0.4005 3.66104,0.17712 0.92112,0.46992 3.76488,2.80896 3.96644,3.26246 0.0485,0.10914 0.25686,0.19844 0.46302,0.19844 0.69525,0 0.4027,-1.17077 -0.48268,-1.93172 l -0.86229,-0.74109 1.35684,0.66307 c 0.74626,0.36469 1.43087,0.58904 1.52136,0.49856 0.70272,-0.70272 -0.93081,-1.65416 -4.93594,-2.87491 -2.5333,-0.77214 -2.52316,-0.75617 -1.61441,-2.54317 0.67564,-1.32859 1.20191,-1.49703 4.28989,-1.37302 3.13923,0.12606 3.48331,0.31083 3.48331,1.87055 0,0.99149 0.48656,1.16353 0.99376,0.35139 0.27671,-0.4431 0.57996,-0.51466 1.96214,-0.46303 l 1.63484,0.0611 0.33925,1.45521 c 0.18659,0.80037 0.3443,2.1916 0.35046,3.09163 0.006,0.90003 0.14123,1.9716 0.30013,2.38125 0.38646,0.99629 0.75057,3.43433 0.91348,6.11654 0.12941,2.13064 0.11134,2.21849 -0.60063,2.92063 -0.48115,0.4745 -1.91911,1.14512 -4.17364,1.94646 -1.89177,0.6724 -4.8088,1.72335 -6.48229,2.33543 -7.34956,2.6881 -9.69373,3.44499 -11.85387,3.82738 -2.38066,0.42142 -7.09453,0.71214 -8.25447,0.50907 z m -5.95242,-4.41782 0.16662,-1.26547 0.97467,0.1641 c 0.53607,0.0902 1.2128,0.21897 1.50384,0.28605 0.45967,0.10594 -1.21595,-1.09735 -1.80852,-1.29873 -0.12157,-0.0413 0.0696,-0.73238 0.42492,-1.53571 0.77741,-1.75786 1.9806,-2.84274 5.08581,-4.58572 1.26039,-0.70746 2.90043,-1.80597 3.64452,-2.44111 0.74409,-0.63515 1.45538,-1.15481 1.58063,-1.15481 0.12526,0 1.67622,0.65484 3.44659,1.45521 3.13411,1.4169 3.90221,1.66481 3.89387,1.25677 -0.0108,-0.53028 -0.63622,-0.94912 -3.27751,-2.19502 -3.2889,-1.55136 -3.37406,-1.54572 -5.9469,0.39425 -1.88517,1.42145 -1.78495,1.36142 -3.60383,2.15872 -5.01159,2.19682 -5.54385,2.60114 -6.04224,4.58988 -0.19878,0.79316 -0.49816,1.48769 -0.66531,1.5434 -0.400096,0.13337 -0.398426,2.96785 0.0023,3.94259 0.32653,0.7942 0.34921,0.74616 0.62052,-1.3144 z m 20.5078,-10.37269 c -0.75132,-0.79974 -0.66279,-0.8129 1.01638,-0.15103 0.71712,0.28266 1.37637,0.44141 1.46501,0.35278 0.47039,-0.47039 -0.0403,-0.88318 -1.88937,-1.52728 -1.12779,-0.39284 -2.91243,-1.13495 -3.96587,-1.64913 -1.664,-0.8122 -1.97286,-0.88691 -2.35362,-0.56936 -0.24106,0.20103 -0.74574,0.49232 -1.12153,0.64729 -0.634,0.26147 -0.55971,0.30737 1.03071,0.63673 1.33109,0.27566 2.06857,0.63027 3.30145,1.58748 2.06019,1.59951 2.58519,1.88654 2.89369,1.58209 0.1534,-0.15139 0.01,-0.49801 -0.37685,-0.90957 z m 4.23004,-1.10871 c 0,-0.24407 -0.38695,-0.77853 -0.8599,-1.18769 l -0.85989,-0.74394 1.51784,0.67631 c 1.53072,0.68205 2.15104,0.6601 2.00254,-0.0709 -0.0838,-0.41271 -1.07552,-0.84904 -3.78497,-1.66541 -0.87312,-0.26308 -2.13828,-0.7903 -2.81146,-1.17161 -1.10982,-0.62863 -2.08333,-0.70251 -2.08333,-0.1581 0,0.11298 -0.26789,0.28074 -0.59531,0.37279 -0.80406,0.22608 -0.21606,0.56234 1.38906,0.79438 0.9167,0.13252 1.70108,0.5662 3.40929,1.885 1.22027,0.94208 2.3216,1.71288 2.4474,1.71288 0.1258,0 0.22873,-0.19969 0.22873,-0.44375 z"
         id="path288" /><path
         style="fill:#0b2353"
         d="m 106.49479,166.26797 c -3.11985,-0.54619 -3.95453,-0.76734 -5.19813,-1.37726 -1.17329,-0.57544 -1.468475,-0.86195 -1.682776,-1.63334 -0.371675,-1.33788 -0.324178,-3.73034 0.08382,-4.22195 0.190663,-0.22974 0.545566,-1.07578 0.788676,-1.88009 0.39645,-1.31161 0.58576,-1.54835 1.83616,-2.29626 0.76677,-0.45864 2.2871,-1.22387 3.3785,-1.70051 1.09141,-0.47664 2.87735,-1.47766 3.96875,-2.22448 1.09141,-0.74683 2.99641,-1.89782 4.23334,-2.55776 2.2606,-1.20609 4.36433,-2.61302 6.84125,-4.57528 1.12647,-0.89241 1.40607,-1.29869 1.7834,-2.59141 0.54838,-1.87873 1.06539,-2.29891 2.5048,-2.0357 1.52564,0.27899 1.5404,0.47092 0.025,0.32531 -1.12915,-0.1085 -1.34717,-0.0463 -1.72432,0.49218 -0.23745,0.33901 -0.50476,1.03721 -0.59402,1.55155 -0.11242,0.64774 -0.54572,1.30108 -1.40985,2.12578 -0.68615,0.65484 -1.05081,1.0418 -0.81035,0.8599 0.6496,-0.49141 2.52883,-0.4005 3.66104,0.17712 0.92112,0.46992 3.76488,2.80896 3.96644,3.26246 0.0485,0.10914 0.25686,0.19844 0.46302,0.19844 0.69525,0 0.4027,-1.17077 -0.48268,-1.93172 l -0.86229,-0.74109 1.35684,0.66307 c 0.74626,0.36469 1.43087,0.58904 1.52136,0.49856 0.70272,-0.70272 -0.93081,-1.65416 -4.93594,-2.87491 -2.5333,-0.77214 -2.52316,-0.75617 -1.61441,-2.54317 0.67564,-1.32859 1.20191,-1.49703 4.28989,-1.37302 3.13923,0.12606 3.48331,0.31083 3.48331,1.87055 0,0.99149 0.48656,1.16353 0.99376,0.35139 0.27671,-0.4431 0.57996,-0.51466 1.96214,-0.46303 l 1.63484,0.0611 0.33925,1.45521 c 0.18659,0.80037 0.3443,2.1916 0.35046,3.09163 0.006,0.90003 0.14123,1.9716 0.30013,2.38125 0.38646,0.99629 0.75057,3.43433 0.91348,6.11654 0.12941,2.13064 0.11134,2.21849 -0.60063,2.92063 -0.48115,0.4745 -1.91911,1.14512 -4.17364,1.94646 -4.54466,1.61534 -9.12673,3.28291 -11.21421,4.08123 -0.92906,0.3553 -1.73472,0.60049 -1.79034,0.54486 -0.12685,-0.12684 5.13931,-2.17701 9.16809,-3.56923 1.67349,-0.5783 3.34036,-1.17305 3.70417,-1.32166 0.3638,-0.14861 1.37583,-0.5424 2.24895,-0.87509 1.72654,-0.65787 2.12842,-1.02929 2.35963,-2.18077 0.21556,-1.07353 -0.0697,-1.36016 -0.73389,-0.73747 -0.53119,0.49797 -4.96687,2.32869 -10.75386,4.43838 -1.38245,0.50398 -3.64464,1.14304 -5.02708,1.42012 -1.38245,0.27708 -3.39261,0.69284 -4.46702,0.92392 -4.21668,0.90687 -12.06305,-0.45458 -15.3218,-2.65854 -0.0425,-0.0288 0.2082,-0.698 0.55722,-1.48718 0.76505,-1.72993 1.98401,-2.82531 5.07443,-4.55999 1.26039,-0.70746 2.90043,-1.80597 3.64452,-2.44111 0.74409,-0.63515 1.45538,-1.15481 1.58063,-1.15481 0.12526,0 1.67622,0.65484 3.44659,1.45521 3.13411,1.4169 3.90221,1.66481 3.89387,1.25677 -0.0108,-0.53028 -0.63622,-0.94912 -3.27751,-2.19502 -3.2889,-1.55136 -3.37406,-1.54572 -5.9469,0.39425 -1.88517,1.42145 -1.78495,1.36142 -3.60383,2.15872 -5.01159,2.19682 -5.54385,2.60114 -6.04224,4.58988 -0.19878,0.79316 -0.49816,1.48769 -0.665309,1.5434 -0.33261,0.11087 -0.412287,2.35956 -0.133074,3.75563 0.303203,1.51603 2.556623,2.45036 7.016033,2.90905 2.75849,0.28373 7.38289,-0.12516 10.27564,-0.90858 2.44298,-0.66161 2.84561,-0.70607 1.34566,-0.14859 -2.66395,0.99009 -9.66673,1.83455 -11.929,1.4385 z m 14.55538,-14.79051 c -0.75132,-0.79974 -0.66279,-0.8129 1.01638,-0.15103 0.71712,0.28266 1.37637,0.44141 1.46501,0.35278 0.47039,-0.47039 -0.0403,-0.88318 -1.88937,-1.52728 -1.12779,-0.39284 -2.91243,-1.13495 -3.96587,-1.64913 -1.664,-0.8122 -1.97286,-0.88691 -2.35362,-0.56936 -0.24106,0.20103 -0.74574,0.49232 -1.12153,0.64729 -0.634,0.26147 -0.55971,0.30737 1.03071,0.63673 1.33109,0.27566 2.06857,0.63027 3.30145,1.58748 2.06019,1.59951 2.58519,1.88654 2.89369,1.58209 0.1534,-0.15139 0.01,-0.49801 -0.37685,-0.90957 z m 4.23004,-1.10871 c 0,-0.24407 -0.38695,-0.77853 -0.8599,-1.18769 l -0.85989,-0.74394 1.51784,0.67631 c 1.53072,0.68205 2.15104,0.6601 2.00254,-0.0709 -0.0838,-0.41271 -1.07552,-0.84904 -3.78497,-1.66541 -0.87312,-0.26308 -2.13828,-0.7903 -2.81146,-1.17161 -1.10982,-0.62863 -2.08333,-0.70251 -2.08333,-0.1581 0,0.11298 -0.26789,0.28074 -0.59531,0.37279 -0.80406,0.22608 -0.21606,0.56234 1.38906,0.79438 0.9167,0.13252 1.70108,0.5662 3.40929,1.885 1.22027,0.94208 2.3216,1.71288 2.4474,1.71288 0.1258,0 0.22873,-0.19969 0.22873,-0.44375 z"
         id="path287" /><path
         style="fill:#041d29"
         d="m 111.52188,162.52117 c -2.52083,-0.18156 -3.76534,-0.39484 -3.44808,-0.59092 0.19563,-0.12091 0.25264,-0.35343 0.1338,-0.54572 -0.13189,-0.21341 -0.10039,-0.26911 0.0868,-0.15344 0.16261,0.1005 0.48685,-0.11296 0.72601,-0.47797 0.23769,-0.36276 0.65964,-0.73177 0.93767,-0.82001 0.27802,-0.0882 0.50625,-0.30124 0.50717,-0.47334 0.003,-0.53981 1.57621,-1.23761 2.86404,-1.27024 0.67943,-0.0172 1.59251,-0.12219 2.02907,-0.23328 0.62476,-0.15897 0.4276,-0.20962 -0.92604,-0.23786 -2.79653,-0.0584 -6.33621,-0.50325 -8.57752,-1.07808 -2.17941,-0.55895 -2.4713,-0.68802 -2.19068,-0.96863 0.15972,-0.15973 1.23111,0.16761 2.47959,0.75757 0.31621,0.14943 0.89314,0.19181 1.28208,0.0942 0.38893,-0.0976 0.84459,-0.0695 1.01257,0.0624 0.46116,0.36225 3.34813,0.6333 3.34813,0.31435 0,-0.14679 0.17859,-0.2669 0.39687,-0.2669 0.21829,0 0.39688,-0.17859 0.39688,-0.39687 0,-0.24337 0.24748,-0.39688 0.63982,-0.39688 0.3519,0 0.82815,-0.0723 1.05833,-0.1606 0.52475,-0.20136 0.55351,-1.16231 0.0348,-1.16231 -0.21105,0 -0.47894,-0.15585 -0.59531,-0.34633 -0.22677,-0.37118 -3.46389,-1.50576 -4.29614,-1.50576 -0.27586,0 -0.54921,0.14297 -0.60746,0.3177 -0.0603,0.18092 -0.17083,0.2094 -0.25672,0.0661 -0.083,-0.13836 0.34173,-0.59598 0.94374,-1.01695 0.81065,-0.56685 0.96383,-0.61833 0.59055,-0.19843 -0.49695,0.55898 -0.49645,0.56695 0.0358,0.56695 1.42044,0 5.36898,1.53506 7.02256,2.73014 0.56754,0.41017 1.24427,0.76176 1.50385,0.78131 0.68339,0.0515 2.675,-0.62122 3.49207,-1.1795 0.38627,-0.26393 0.83275,-0.47987 0.99219,-0.47987 0.36694,0 0.37787,-0.44355 0.0164,-0.66693 -0.24978,-0.15438 0.77843,-1.18515 1.1822,-1.18515 0.0901,0 1.12378,-0.74414 2.29707,-1.65365 1.17329,-0.9095 2.46016,-1.89177 2.85971,-2.18281 0.39955,-0.29104 0.90923,-0.71358 1.13261,-0.93898 0.59196,-0.59729 1.3361,-2.12432 1.13386,-2.32675 -0.0955,-0.0956 -0.72938,-0.19858 -1.40857,-0.2288 -0.67919,-0.0302 -1.83712,-0.27209 -2.57318,-0.53747 l -1.33828,-0.48251 0.48911,-0.78545 0.48912,-0.78546 -0.18024,0.79375 c -0.0991,0.43657 -0.0851,0.70549 0.0311,0.59761 0.11622,-0.10788 0.36955,-0.0648 0.56295,0.0957 0.20022,0.16617 0.66048,0.21432 1.06887,0.11182 0.56468,-0.14172 0.63576,-0.23243 0.33417,-0.42643 -0.30992,-0.19935 -0.26939,-0.27756 0.21224,-0.40955 0.32742,-0.0897 0.59531,-0.33159 0.59531,-0.53746 0,-0.20588 0.15016,-0.43195 0.3337,-0.50238 0.18353,-0.0704 0.34822,-0.48341 0.36597,-0.91774 0.0316,-0.77312 0.005,-0.78968 -1.25974,-0.78968 -0.84173,0 -1.29201,0.11273 -1.29201,0.32345 0,0.1779 -0.18535,0.0588 -0.41188,-0.26458 -0.22653,-0.32342 -0.61349,-0.58986 -0.8599,-0.59209 -0.24641,-0.002 -0.62661,-0.13252 -0.84489,-0.28954 -0.32087,-0.23082 -0.29553,-0.2519 0.13229,-0.11007 0.29104,0.0965 1.46842,0.28297 2.61638,0.41443 1.14797,0.13146 2.15779,0.30958 2.24403,0.39583 0.0862,0.0862 0.14471,0.61854 0.12991,1.18288 -0.032,1.21953 0.49702,1.56538 1.09292,0.71454 0.34282,-0.48947 0.66658,-0.58606 1.99619,-0.59552 l 1.58701,-0.0113 0.23907,0.93733 c 0.13148,0.51554 0.3201,1.80054 0.41915,2.85557 0.1733,1.8459 0.15849,1.91823 -0.3926,1.91823 -0.97849,0 -3.82939,1.54304 -5.01949,2.71679 -1.45195,1.43198 -2.39788,2.80862 -3.534,5.14309 -0.95605,1.96448 -1.36887,3.16489 -1.27778,3.71564 0.0301,0.1819 -0.0658,0.33073 -0.21318,0.33073 -0.14733,0 -0.2083,0.15524 -0.13549,0.34498 0.16603,0.43267 -2.35982,1.3263 -5.30837,1.87807 -1.16417,0.21785 -2.99484,0.5854 -4.06817,0.81678 -1.07333,0.23138 -2.44255,0.38653 -3.04271,0.34478 -0.60016,-0.0418 -1.50792,-0.10593 -2.01724,-0.14261 z m 24.55374,-17.52374 c 0.0439,-0.91949 -0.036,-1.78761 -0.17755,-1.92916 -0.16675,-0.16674 -0.20395,0.14081 -0.10567,0.87353 0.10964,0.81744 0.0671,1.07858 -0.15359,0.9422 -0.17556,-0.1085 -0.62937,0.16618 -1.06805,0.64647 -0.41953,0.45933 -0.80629,0.7144 -0.85948,0.56683 -0.211,-0.58547 -1.53623,0.0339 -2.23741,1.04574 -0.68408,0.98712 -0.69573,1.05494 -0.23869,1.38914 0.41779,0.30549 0.75985,0.20684 2.62058,-0.7558 l 2.14007,-1.10714 z m -8.14958,14.16399 c 0,-0.0959 0.32948,-0.28922 0.73218,-0.4296 0.61092,-0.21297 0.81321,-0.5382 1.22149,-1.96383 0.26913,-0.93973 0.65402,-1.84529 0.85533,-2.01236 0.2013,-0.16707 0.366,-0.46777 0.366,-0.66824 0,-0.20046 0.15632,-0.36447 0.34738,-0.36447 0.19105,0 0.68552,-0.35296 1.09882,-0.78435 0.41329,-0.43138 0.85229,-0.72201 0.97554,-0.64584 0.12325,0.0762 0.2241,-0.0471 0.2241,-0.27399 0,-0.22687 0.11115,-0.41249 0.247,-0.41249 0.53943,0 2.92941,-1.69287 2.95074,-2.09007 0.0549,-1.02189 0.50247,1.34802 0.77262,4.09082 0.26439,2.68438 0.2484,3.06718 -0.15369,3.68086 -0.24683,0.3767 -0.50914,0.62453 -0.58293,0.55075 -0.0738,-0.0738 -0.0119,-0.28586 0.13758,-0.47128 0.39881,-0.49477 0.66699,-1.98269 0.3884,-2.15487 -0.132,-0.0816 -0.49414,0.0884 -0.80476,0.37782 -0.31062,0.28939 -2.26341,1.18984 -4.33955,2.001 -2.07613,0.81117 -3.92362,1.53552 -4.10552,1.60967 -0.1819,0.0742 -0.33073,0.0564 -0.33073,-0.0395 z"
         id="path286" /></g></g></svg>
