<?xml version="1.0" encoding="UTF-8" standalone="no"?>
<!-- Created with Inkscape (http://www.inkscape.org/) -->

<svg
   width="53.710464mm"
   height="65.6353mm"
   viewBox="0 0 53.710464 65.6353"
   version="1.1"
   id="svg1"
   inkscape:export-filename="starter-racket.svg"
   inkscape:export-xdpi="96"
   inkscape:export-ydpi="96"
   xml:space="preserve"
   xmlns:inkscape="http://www.inkscape.org/namespaces/inkscape"
   xmlns:sodipodi="http://sodipodi.sourceforge.net/DTD/sodipodi-0.dtd"
   xmlns="http://www.w3.org/2000/svg"
   xmlns:svg="http://www.w3.org/2000/svg"><sodipodi:namedview
     id="namedview1"
     pagecolor="#ffffff"
     bordercolor="#000000"
     borderopacity="0.25"
     inkscape:showpageshadow="2"
     inkscape:pageopacity="0.0"
     inkscape:pagecheckerboard="0"
     inkscape:deskcolor="#d1d1d1"
     inkscape:document-units="mm"><inkscape:page
       x="0"
       y="0"
       width="53.710464"
       height="65.6353"
       id="page2"
       margin="0"
       bleed="0" /></sodipodi:namedview><defs
     id="defs1" /><g
     inkscape:label="Calque 1"
     inkscape:groupmode="layer"
     id="layer1"
     transform="translate(-80.63682,-115.56681)"><g
       id="g315"
       transform="translate(7.2149442,-1.0959409)"><path
         style="fill:#d3e6f3"
         d="m 73.421875,149.48959 v -32.80834 h 26.855205 26.85521 v 32.80834 32.80833 H 100.27708 73.421875 Z"
         id="path322" /><path
         style="fill:#c5daea"
         d="m 86.254166,180.99844 c 4.606362,-1.86719 5.033148,-2.06608 5.411272,-2.52169 0.28952,-0.34885 0.263932,-0.41216 -0.166583,-0.41216 -0.279756,0 -0.651522,0.14287 -0.826147,0.3175 -0.246945,0.24694 -0.3175,0.22221 -0.3175,-0.11127 0,-0.27059 -0.317232,-0.49489 -0.859896,-0.60799 -0.905622,-0.18875 -3.902604,-3.06223 -3.902604,-3.74179 0,-0.1949 -0.178594,-0.35437 -0.396875,-0.35437 -0.549649,0 -0.499496,-0.46355 0.06615,-0.61137 0.348432,-0.091 0.315693,-0.12859 -0.132292,-0.15169 -0.385507,-0.0199 -0.595312,-0.19853 -0.595312,-0.50694 0,-0.26194 -0.148828,-0.62618 -0.33073,-0.80943 -0.265178,-0.26714 -0.238957,-0.29823 0.132292,-0.1569 0.254662,0.0969 0.463021,0.27395 0.463021,0.39332 0,0.11938 0.982266,0.60483 2.182812,1.07879 2.037546,0.8044 2.39411,0.86156 5.357813,0.85893 6.002075,-0.005 9.903383,-1.73161 11.027403,-4.87947 0.22945,-0.6426 0.74992,-2.23993 1.15659,-3.54962 0.40667,-1.30968 1.38352,-3.86953 2.17078,-5.68854 1.56452,-3.61492 9.49367,-19.57434 11.65884,-23.46635 1.82216,-3.27543 1.83417,-3.35992 0.73638,-5.17997 -0.50641,-0.83959 -0.98961,-1.74349 -1.07377,-2.00867 -0.0842,-0.26518 -0.46784,-0.76887 -0.85261,-1.11931 -0.38476,-0.35043 -0.62409,-0.50495 -0.53183,-0.34336 0.11095,0.19432 -0.35689,0.34862 -1.38192,0.45576 -1.8753,0.19601 -3.62377,0.74449 -5.6182,1.76238 -0.82157,0.4193 -1.54569,0.71044 -1.60915,0.64697 -0.0635,-0.0635 -0.26047,0.15566 -0.43777,0.48695 -0.17731,0.3313 -0.69908,0.76911 -1.15949,0.97291 -0.46042,0.2038 -0.69916,0.41653 -0.53054,0.47274 0.18017,0.06 -0.14797,0.68965 -0.79583,1.52696 -0.71839,0.92847 -1.17003,1.31535 -1.29654,1.11066 -0.11936,-0.19313 -0.18039,-0.11158 -0.15845,0.21171 0.0516,0.76044 -2.19792,3.6864 -2.49629,3.24692 -0.17643,-0.25988 -0.21293,-0.24626 -0.15514,0.0579 0.0642,0.33796 -0.87656,1.96354 -1.377641,2.38044 -0.08745,0.0728 -0.436359,0.58854 -0.775347,1.14618 -0.442123,0.72731 -0.753276,0.97809 -1.100784,0.88721 -0.266444,-0.0697 -0.622462,0.0396 -0.791152,0.24288 -0.221982,0.26747 -0.224669,0.36956 -0.0097,0.36956 0.163339,0 0.29698,-0.13891 0.29698,-0.30868 0,-0.16978 0.07254,-0.23614 0.161194,-0.14749 0.08866,0.0887 0.0021,0.5207 -0.192429,0.96009 -0.25263,0.57073 -0.506468,0.775 -0.888799,0.71523 -0.294346,-0.046 -0.384888,-0.0325 -0.201206,0.0301 0.183683,0.0626 0.269167,0.2186 0.189965,0.34675 -0.223908,0.36229 -0.920333,-0.0141 -0.92486,-0.4998 -0.0035,-0.37734 -0.0379,-0.38233 -0.260531,-0.0378 -0.32251,0.49905 -0.338905,0.87092 -0.02998,0.67999 0.428974,-0.26512 0.80293,0.48093 0.418465,0.83485 -0.281457,0.25909 -0.378993,0.23252 -0.48561,-0.13229 -0.07725,-0.26434 -0.116172,-0.17807 -0.09246,0.20495 0.02253,0.3638 -0.05289,0.81223 -0.167596,0.99651 -0.275672,0.44286 -0.720038,0.1543 -0.529004,-0.34352 0.09293,-0.24218 -0.01102,-0.3884 -0.276139,-0.3884 -0.466314,0 -0.573248,0.40642 -0.172154,0.65431 0.427407,0.26415 -0.02481,0.98539 -0.534304,0.85216 -0.310907,-0.0813 -0.427608,-0.006 -0.340704,0.22079 0.0727,0.18945 -0.233865,0.61508 -0.681253,0.94585 -0.447389,0.33077 -0.813434,0.70875 -0.813434,0.83996 0,0.13121 -0.213971,0.43624 -0.475491,0.67785 -0.261519,0.24161 -0.291285,0.32022 -0.06615,0.1747 0.350934,-0.22683 0.360147,-0.20167 0.06457,0.17633 -0.29052,0.37153 -0.275513,0.45481 0.09536,0.52917 0.38715,0.0776 0.375329,0.14675 -0.09818,0.57413 -0.522339,0.47144 -0.536185,0.47144 -0.466229,0 0.03965,-0.26723 -0.05754,-0.69424 -0.215993,-0.9489 -0.310118,-0.49842 -0.954552,-0.63239 -0.954552,-0.19844 0,0.14552 -0.238125,0.26459 -0.529166,0.26459 -0.291042,0 -0.529167,0.11906 -0.529167,0.26458 0,0.14552 -0.535781,0.26458 -1.190625,0.26458 -0.654844,0 -1.190625,-0.11906 -1.190625,-0.26458 0,-0.16888 -2.248958,-0.26458 -6.217708,-0.26458 h -6.217708 v -17.19792 -17.19792 h 26.855207 26.85521 v 32.80564 32.80563 l -13.03073,-1.9e-4 -13.03073,-1.9e-4 0.79375,-0.64905 c 0.43656,-0.35698 0.67347,-0.65334 0.52647,-0.65857 -0.14701,-0.005 -0.5883,0.28814 -0.98064,0.65194 l -0.71336,0.66146 -8.808943,-0.006 -8.808943,-0.006 z m 3.10753,-8.11358 c -2.189307,-0.41039 -3.873701,-1.31158 -5.192017,-2.77787 -1.491825,-1.65927 -2.089015,-2.93734 -2.227008,-4.76613 -0.150871,-1.99947 0.287033,-2.76469 3.241755,-5.66482 1.334343,-1.30968 3.437481,-3.69093 4.673641,-5.29166 1.23616,-1.60073 4.309097,-5.52979 6.828749,-8.73125 5.517034,-7.00991 5.188184,-6.58566 8.404144,-10.84257 2.79687,-3.70215 3.25723,-4.07256 6.6955,-5.3871 2.68364,-1.02602 4.65838,-1.27678 5.3224,-0.67585 0.27414,0.24809 0.49843,0.54315 0.49843,0.65569 0,0.11253 0.42645,0.92049 0.94767,1.79546 l 0.94766,1.59085 -1.19722,2.19843 c -2.45338,4.50509 -10.7718,21.13819 -11.94413,23.88287 -1.53419,3.59191 -2.60097,6.50951 -3.02238,8.26614 -0.18073,0.75337 -0.66499,1.90019 -1.07613,2.5485 -0.99155,1.56351 -3.213508,2.65436 -6.559959,3.22055 -2.610028,0.4416 -3.894973,0.43729 -6.341105,-0.0212 z m -2.703803,-11.91347 c 0.796596,-0.43615 1.686482,-0.93026 1.977523,-1.09802 0.291042,-0.16776 1.600729,-0.72198 2.910417,-1.23161 2.376228,-0.92463 2.378739,-0.9266 1.190625,-0.93203 -0.654844,-0.003 -1.63711,0.0982 -2.182813,0.22497 -0.61829,0.14358 -0.992187,0.13455 -0.992187,-0.024 0,-0.26304 1.205748,-2.00128 1.71197,-2.46803 0.157827,-0.14552 0.956385,-1.27661 1.774573,-2.51354 0.818189,-1.23693 1.779457,-2.56339 2.136153,-2.9477 0.356695,-0.38431 0.713025,-0.86056 0.791845,-1.05833 0.07882,-0.19778 0.751386,-1.16871 1.494592,-2.15763 0.743206,-0.98892 1.351283,-1.85262 1.351283,-1.91935 0,-0.0667 0.625078,-0.95208 1.389066,-1.96746 0.76398,-1.01539 2.08271,-2.83059 2.93051,-4.03378 0.8478,-1.20319 2.06955,-2.93177 2.71501,-3.84127 1.70014,-2.39564 1.20565,-2.02993 -0.71551,0.52916 -2.35288,3.13418 -6.436896,8.45168 -8.382359,10.91407 -0.919775,1.16416 -1.814073,2.29732 -1.98733,2.51812 -4.500229,5.73517 -8.025319,9.92791 -9.624012,11.44679 -1.74056,1.65366 -2.729541,3.04311 -2.729541,3.83479 0,0.12205 0.628161,-0.38651 1.395914,-1.13014 0.767753,-0.74362 2.047675,-1.7089 2.844271,-2.14505 z"
         id="path321" /><path
         style="fill:#b6cfe1"
         d="m 83.740625,182.12407 c 1.198409,-0.39882 3.512912,-1.32004 4.979397,-1.9819 0.919658,-0.41507 1.753096,-0.75518 1.852083,-0.7558 0.09899,-6.2e-4 0.715759,-0.3573 1.370603,-0.79262 0.700808,-0.46587 1.003244,-0.79195 0.735148,-0.79261 -0.688484,-0.002 -3.380982,-1.25525 -3.380982,-1.57408 0,-0.15353 -0.117701,-0.27914 -0.261558,-0.27914 -0.651251,0 -2.440649,-1.85271 -2.255472,-2.33527 0.101107,-0.26348 0.0081,-0.31898 -0.32424,-0.19343 -0.426451,0.1611 -0.430274,0.13989 -0.04502,-0.2498 0.386885,-0.39134 0.515512,-0.38714 1.5875,0.0519 1.599372,0.65496 7.03378,0.63904 9.500878,-0.0278 3.633658,-0.98219 5.398298,-2.51112 6.254088,-5.4187 0.68818,-2.33814 1.71474,-5.35553 2.21519,-6.5112 1.70804,-3.94429 2.96296,-6.56074 6.91609,-14.41979 2.45212,-4.87495 5.08347,-10.01131 5.84745,-11.41414 l 1.38905,-2.5506 -0.59794,-1.2322 c -0.48666,-1.00289 -0.54218,-1.34066 -0.29834,-1.81502 0.24704,-0.48058 0.23822,-0.52481 -0.0503,-0.2521 -0.53008,0.50106 -0.77322,0.39999 -0.77322,-0.32142 0,-0.38136 -0.21972,-0.76974 -0.52917,-0.93535 -0.29104,-0.15576 -0.52916,-0.4051 -0.52916,-0.55409 0,-0.14899 0.13746,-0.18594 0.30546,-0.0821 0.18951,0.11712 0.23363,0.0726 0.11624,-0.1174 -0.13977,-0.22615 -0.33169,-0.22993 -0.73427,-0.0145 -0.39528,0.21154 -0.49563,0.21174 -0.36521,7.2e-4 0.0989,-0.16004 0.0538,-0.29098 -0.10036,-0.29098 -0.15411,0 -0.2802,0.11906 -0.2802,0.26458 0,0.14552 -0.12609,0.26458 -0.28019,0.26458 -0.15411,0 -0.21565,-0.10444 -0.13676,-0.2321 0.0789,-0.12765 -0.30103,-0.0838 -0.84428,0.0973 -1.57486,0.52525 -2.64532,0.72744 -2.17835,0.41143 0.34298,-0.23209 0.33578,-0.26912 -0.053,-0.27262 -0.24743,-0.002 -0.55711,0.18758 -0.68818,0.42179 -0.21904,0.39139 -0.25153,0.39139 -0.40172,0 -0.11005,-0.28679 -0.0149,-0.43191 0.29131,-0.44443 0.38354,-0.0157 0.37189,-0.0577 -0.0744,-0.26865 -0.44705,-0.21125 -0.42007,-0.22907 0.17386,-0.11483 0.38666,0.0744 0.91221,0.2155 1.16788,0.31361 0.3175,0.12184 0.40421,0.0803 0.27355,-0.13116 -0.10522,-0.17025 -0.39265,-0.31709 -0.63872,-0.32632 -0.80408,-0.0301 0.67568,-0.49526 1.6039,-0.50414 1.21398,-0.0116 4.67674,0.41389 4.86006,0.59721 0.0842,0.0842 0.0635,0.2981 -0.0461,0.47535 -0.14625,0.23663 -0.29318,0.19371 -0.55293,-0.16152 -0.19456,-0.26608 -0.42403,-0.41351 -0.50992,-0.32762 -0.22291,0.22291 0.69298,1.54812 0.95713,1.38487 0.12066,-0.0746 0.34214,0.0753 0.49218,0.333 0.23674,0.40664 0.27386,0.37526 0.28084,-0.23738 0.014,-1.22448 0.26724,-1.54299 1.22698,-1.54299 0.6216,0 0.89774,0.12207 0.89774,0.39687 0,0.28663 0.29398,0.39688 1.05833,0.39688 0.91751,0 1.05996,0.0792 1.07058,0.59531 0.008,0.3716 0.40075,0.89359 1.04609,1.38906 0.96562,0.74139 1.03464,0.88539 1.04608,2.18281 0.009,0.96517 0.11318,1.36888 0.34298,1.32292 0.55997,-0.112 0.58214,2.14181 0.0271,2.75512 -0.30309,0.33491 -0.45429,0.88692 -0.42743,1.56046 0.0229,0.57323 -0.0544,1.04223 -0.17178,1.04223 -0.11733,0 -0.4764,0.80133 -0.79791,1.78074 -0.32152,0.9794 -0.6787,1.90214 -0.79375,2.05052 -0.11504,0.14838 -0.2818,0.65337 -0.37058,1.1222 -0.17455,0.9218 -1.93008,4.98208 -2.43417,5.62988 -0.16986,0.21828 -0.46695,0.99218 -0.6602,1.71979 -0.19326,0.7276 -0.43425,1.38245 -0.53553,1.45521 -0.10128,0.0728 -0.45389,0.72725 -0.78358,1.45442 -0.32968,0.72717 -0.88071,1.69091 -1.2245,2.14164 -0.34378,0.45073 -0.62507,1.0096 -0.62507,1.24194 0,0.23234 -0.11883,0.49587 -0.26407,0.58564 -0.31564,0.19507 -1.58801,2.82522 -1.58801,3.28261 0,0.17644 -0.1145,0.25005 -0.25444,0.16356 -0.13994,-0.0865 -0.5049,0.33369 -0.81102,0.93374 l -0.55658,1.09098 0.60253,-0.19123 c 0.3314,-0.10518 0.82406,-0.47286 1.09481,-0.81706 0.27075,-0.34421 0.66223,-0.62583 0.86995,-0.62583 0.20771,0 0.37767,-0.16585 0.37767,-0.36856 0,-0.20272 0.16,-0.42997 0.35556,-0.50502 0.46933,-0.18009 0.2602,1.00151 -0.25257,1.42707 -0.20217,0.16778 -0.36758,0.50585 -0.36758,0.75126 0,0.24541 -0.1748,0.67731 -0.38846,0.95979 -0.21365,0.28247 -0.39224,0.72356 -0.39687,0.9802 -0.005,0.25663 -0.11127,0.67335 -0.23698,0.92604 -1.16366,2.33906 -1.60587,3.50485 -1.46687,3.8671 0.1078,0.28091 0.0241,0.42879 -0.2428,0.42879 -0.22405,0 -0.49235,0.26789 -0.59623,0.59531 -0.20461,0.64492 -4.03539,4.42234 -6.26954,6.1822 -0.76035,0.59894 -2.39449,1.75658 -3.63141,2.57254 -1.23693,0.81596 -2.37409,1.57608 -2.52702,1.68916 -1.07172,0.79239 -1.605569,0.86704 -6.200638,0.86704 -4.126889,0 -4.76609,-0.055 -4.76609,-0.40979 0,-0.34906 -0.345585,-0.39008 -2.331896,-0.2768 -1.282543,0.0731 -2.659513,0.25755 -3.059933,0.40979 -0.40042,0.15224 -0.928645,0.2674 -1.173833,0.25591 -0.358051,-0.0168 -0.36768,-0.0469 -0.04892,-0.15296 z m 18.388545,-0.47941 c 0.43656,-0.35784 0.94257,-0.65491 1.12447,-0.66014 0.18191,-0.005 0.33073,-0.1084 0.33073,-0.22925 0,-0.12085 0.56555,-0.62334 1.25677,-1.11664 1.47555,-1.05305 1.80087,-1.30258 2.41061,-1.84902 0.24994,-0.22399 1.31297,-1.09226 2.36228,-1.92949 1.04932,-0.83723 1.90784,-1.63623 1.90784,-1.77555 0,-0.13933 0.11771,-0.25332 0.26156,-0.25332 0.27295,0 1.17594,-0.67863 1.68912,-1.26944 1.18977,-1.36974 2.46049,-2.17014 3.44533,-2.17014 0.67161,0 0.95399,-0.11748 0.95399,-0.39688 0,-0.24694 0.24989,-0.39687 0.66146,-0.39687 0.59531,0 0.66146,0.10583 0.66146,1.05833 0,1.03314 -0.022,1.05834 -0.92604,1.05834 -0.90399,0 -0.92604,0.0252 -0.92604,1.05833 0,0.72823 0.11496,1.05833 0.36856,1.05833 0.20272,0 0.44935,0.20836 0.54807,0.46302 0.16752,0.43215 0.20452,0.42902 0.55474,-0.0468 0.20638,-0.28042 0.4578,-0.4273 0.5587,-0.3264 0.25795,0.25796 -0.8554,1.64659 -1.24517,1.55304 -0.20136,-0.0483 -0.25716,0.0885 -0.14998,0.36781 0.10953,0.28543 -0.021,0.57906 -0.36441,0.81958 -0.2943,0.20613 -0.5351,0.60616 -0.5351,0.88895 0,0.28279 -0.16744,0.51417 -0.3721,0.51417 -0.24184,0 -0.32366,0.18524 -0.23373,0.52916 0.14858,0.56817 -0.33104,0.74965 -0.52445,0.19844 -0.0638,-0.1819 -0.11839,0.002 -0.12127,0.4079 -0.006,0.91274 -0.14022,1.05291 -1.03705,1.08669 -0.39079,0.0147 -0.74117,0.17857 -0.77862,0.36411 -0.0375,0.18554 -0.008,0.2153 0.0664,0.0661 0.15421,-0.31094 0.88839,-0.37194 0.87579,-0.0728 -0.005,0.10914 -0.29655,0.52586 -0.64877,0.92605 l -0.64041,0.7276 -6.16425,-10e-4 -6.16425,-0.001 z m 13.09687,0.31479 c 0,-0.18615 0.23813,-0.51009 0.52917,-0.71986 0.29104,-0.20977 0.52916,-0.49026 0.52916,-0.62331 0,-0.24624 3.29847,-4.84714 3.82104,-5.32982 0.15755,-0.14552 0.4636,-0.61255 0.68011,-1.03784 0.76353,-1.49985 0.91797,-1.74028 1.11784,-1.74028 0.11102,0 0.20185,0.17859 0.20185,0.39687 0,0.21828 -0.11158,0.39688 -0.24795,0.39688 -0.13637,0 -0.18049,0.41571 -0.098,0.9238 0.0963,0.59319 0.0193,1.08203 -0.21507,1.36594 -0.31365,0.37995 -0.30916,0.42387 0.0319,0.31225 0.21828,-0.0714 0.43492,-0.38846 0.48142,-0.70449 0.0786,-0.53432 0.2316,-0.57459 2.18282,-0.57459 2.06176,0 2.09826,0.0115 2.09826,0.66146 0,0.41158 0.14993,0.66146 0.39687,0.66146 0.33073,0 0.39688,0.52917 0.39688,3.175 v 3.175 h -5.95312 c -4.65869,0 -5.95313,-0.0736 -5.95313,-0.33847 z m -24.753597,-8.9282 c -3.62609,-0.38113 -6.30168,-2.12572 -7.771679,-5.06745 -1.506491,-3.01475 -1.007729,-5.08256 1.835415,-7.60939 0.996909,-0.886 2.548314,-2.53218 3.447567,-3.65818 0.899252,-1.126 1.916868,-2.39414 2.261368,-2.8181 0.344501,-0.42395 0.897157,-1.13151 1.228125,-1.57234 0.330968,-0.44084 1.142016,-1.46318 1.802329,-2.27188 0.660312,-0.8087 1.753099,-2.18474 2.428415,-3.05787 0.675316,-0.87312 2.252824,-2.89718 3.505573,-4.49791 2.958904,-3.78082 3.013894,-3.85249 5.962314,-7.77152 2.00812,-2.66918 2.77956,-3.48601 3.83646,-4.0622 1.60341,-0.87413 4.84054,-1.96627 6.52808,-2.20244 1.21525,-0.17007 1.2474,-0.15558 1.87811,0.84615 0.35293,0.56054 0.94806,1.59598 1.3225,2.30096 l 0.68081,1.28179 -1.17408,2.15779 c -1.99402,3.66473 -10.43929,20.52967 -11.67993,23.32447 -0.64599,1.45521 -1.65516,4.07458 -2.24262,5.82083 -0.58745,1.74625 -1.23879,3.67384 -1.44741,4.28352 -0.43757,1.27872 -1.62348,2.54592 -3.089089,3.30081 -2.022125,1.04155 -6.148001,1.60554 -9.312258,1.27296 z m -3.284239,-12.32187 c 1.087008,-0.59584 2.98841,-1.46945 4.225337,-1.94135 1.236927,-0.47191 2.335231,-0.93984 2.440675,-1.03984 0.252851,-0.23981 -3.567885,0.0759 -3.976759,0.32858 -0.592433,0.36614 -0.317818,-0.39378 0.543897,-1.50509 0.472942,-0.60993 0.926291,-1.1685 1.007441,-1.24126 0.08115,-0.0728 0.721361,-0.99444 1.42269,-2.04817 0.701329,-1.05373 1.545172,-2.20724 1.875207,-2.56336 0.330035,-0.35611 0.535987,-0.71156 0.457671,-0.78987 -0.07832,-0.0783 0.05324,-0.21747 0.29235,-0.30922 0.23911,-0.0918 0.434745,-0.26745 0.434745,-0.39043 0,-0.12298 0.565546,-1.01778 1.25677,-1.98845 0.691224,-0.97066 1.613959,-2.26539 2.050521,-2.87716 0.436563,-0.61178 1.448591,-2.04461 2.248961,-3.18407 0.80036,-1.13945 1.77347,-2.41028 2.16246,-2.82405 0.38899,-0.41377 0.65413,-0.7523 0.58921,-0.7523 -0.12631,0 0.70324,-1.36632 0.96384,-1.5875 0.0857,-0.0728 0.54823,-0.7088 1.02777,-1.41342 0.47955,-0.70462 1.2412,-1.71665 1.69256,-2.24896 0.76884,-0.90672 0.77399,-0.92606 0.0815,-0.30637 -0.59224,0.52997 -4.19675,5.13992 -7.42541,9.49665 -0.28116,0.37939 -1.121563,1.46371 -1.867564,2.4096 -1.876833,2.37971 -6.285718,7.97993 -6.663865,8.46452 -2.319215,2.97205 -5.439033,6.59203 -6.956649,8.07193 -1.848229,1.8023 -2.653854,2.90725 -2.653854,3.63986 0,0.19736 0.628676,-0.24321 1.397058,-0.97905 0.768383,-0.73584 2.286429,-1.82539 3.373438,-2.42122 z M 73.421875,126.22862 v -9.53385 l 9.45583,-0.006 9.45583,-0.006 -0.658435,0.59951 c -0.362138,0.32974 -1.015621,0.87607 -1.452184,1.21407 -0.743891,0.57594 -3.019423,2.57914 -6.054121,5.32957 -0.722525,0.65485 -1.799051,1.72045 -2.39228,2.36802 -0.593229,0.64756 -1.40602,1.47775 -1.806203,1.84486 -0.400182,0.3671 -0.727604,0.81954 -0.727604,1.00542 0,0.18587 -0.178594,0.33795 -0.396875,0.33795 -0.218281,0 -0.39754,0.0893 -0.398354,0.19844 -8.13e-4,0.10914 -0.536594,0.76354 -1.190624,1.45422 -0.654031,0.69068 -1.189147,1.36057 -1.189147,1.48865 0,0.12808 -0.47625,0.73855 -1.058333,1.35661 -0.582083,0.61805 -1.058333,1.22106 -1.058333,1.34 0,0.11895 -0.119063,0.28985 -0.264584,0.37979 -0.174519,0.10786 -0.264583,-3.08181 -0.264583,-9.37034 z m 9.921875,7.65055 c -0.08994,-0.14552 0.0221,-0.26458 0.248968,-0.26458 0.2636,0 0.41249,-0.23876 0.41249,-0.66146 0,-0.36381 0.119062,-0.66146 0.264583,-0.66146 0.145521,0 0.264584,-0.1786 0.264584,-0.39688 0,-0.21828 -0.119063,-0.39687 -0.264584,-0.39687 -0.145521,0 -0.264583,-0.1786 -0.264583,-0.39688 0,-0.28663 -0.293981,-0.39687 -1.058333,-0.39687 -0.933137,0 -1.058334,-0.0732 -1.058334,-0.61899 0,-0.4035 -0.230276,-0.72391 -0.661458,-0.92037 -0.794654,-0.36207 -0.865035,-0.99152 -0.132292,-1.18314 0.316602,-0.0828 0.529167,-0.36089 0.529167,-0.69231 0,-0.30467 0.118027,-0.55394 0.262282,-0.55394 0.144255,0 0.634997,-0.38695 1.090538,-0.8599 0.455541,-0.47294 0.928542,-0.83156 1.051113,-0.79692 0.122571,0.0346 0.160049,-0.1007 0.08328,-0.30075 -0.07937,-0.20684 0.187593,-0.59668 0.618955,-0.90384 0.41719,-0.29706 1.367386,-1.11423 2.111547,-1.81592 0.74416,-0.70169 1.916829,-1.75205 2.60593,-2.33413 0.6891,-0.58208 1.715807,-1.50482 2.28157,-2.05052 l 1.028659,-0.99219 9.183588,0.008 9.18358,0.008 -4.36563,2.19942 c -4.41112,2.22234 -5.95591,3.03826 -6.46674,3.41556 -0.15407,0.1138 -1.113572,0.6986 -2.132218,1.29957 -1.018646,0.60096 -1.891771,1.19246 -1.940278,1.31444 -0.04851,0.12199 -0.230406,0.22179 -0.404219,0.22179 -0.173814,0 -0.519915,0.23812 -0.769112,0.52917 -0.249198,0.29104 -0.60308,0.53192 -0.786406,0.5353 -0.183325,0.003 -0.796408,0.42317 -1.362406,0.93288 -0.565999,0.50971 -1.369671,1.12793 -1.785938,1.37383 -0.416267,0.24589 -0.756849,0.54047 -0.756849,0.65461 0,0.11415 -0.148828,0.20782 -0.330729,0.20816 -0.181901,3.4e-4 -0.74244,0.35249 -1.245642,0.78256 -0.503201,0.43007 -1.158045,0.81674 -1.455208,0.85928 -0.297163,0.0425 -0.540296,0.25593 -0.540296,0.47421 0,0.21945 -0.41009,0.52942 -0.917334,0.69337 -0.504533,0.16307 -1.040314,0.51523 -1.190625,0.78257 -0.32835,0.58402 -0.845436,1.16989 -1.032527,1.16989 -0.07457,0 -0.209161,-0.11906 -0.299097,-0.26458 z m 42.99479,-9.78958 v -1.05834 h -1.05833 c -0.76436,0 -1.05834,-0.11024 -1.05834,-0.39687 0,-0.31971 -0.41157,-0.39688 -2.11666,-0.39688 -1.7051,0 -2.11667,0.0772 -2.11667,0.39688 0,0.3197 -0.41157,0.39687 -2.11667,0.39687 -1.70509,0 -2.11666,-0.0772 -2.11666,-0.39687 0,-0.31971 -0.41158,-0.39688 -2.11667,-0.39688 -1.70509,0 -2.11667,0.0772 -2.11667,0.39688 0,0.3197 -0.41157,0.39687 -2.11666,0.39687 -1.7051,0 -2.11667,-0.0772 -2.11667,-0.39687 0,-0.28664 -0.29398,-0.39688 -1.05833,-0.39688 -0.76435,0 -1.05834,0.11024 -1.05834,0.39688 0,0.26458 -0.26458,0.39687 -0.79375,0.39687 -0.74965,0 -0.79375,-0.0588 -0.79375,-1.05833 0,-0.9525 0.0661,-1.05834 0.66146,-1.05834 0.3638,0 0.66146,-0.122 0.66146,-0.27113 0,-0.14912 0.32742,-0.3942 0.7276,-0.54461 0.69376,-0.26076 2.92726,-1.32551 3.77032,-1.79737 1.40601,-0.78694 2.13207,-1.09105 2.60489,-1.09105 0.29638,0 0.61246,-0.11906 0.7024,-0.26459 0.10247,-0.16579 2.82497,-0.26458 7.29166,-0.26458 h 7.12813 v 4.23333 c 0,3.58658 -0.0606,4.23334 -0.39688,4.23334 -0.28663,0 -0.39687,-0.29398 -0.39687,-1.05833 z"
         id="path320" /><path
         style="fill:#a4b8c9"
         d="m 95.144585,179.16657 c -1.59133,-0.24058 -1.938777,-0.84833 -0.964228,-1.6866 l 0.744534,-0.64042 -0.961925,0.1123 c -0.640525,0.0748 -0.961925,0.005 -0.961925,-0.20954 0,-0.17771 -0.178148,-0.25348 -0.397814,-0.16918 -0.511814,0.1964 -2.54048,-0.88318 -3.901599,-2.07628 -0.583645,-0.5116 -1.217234,-0.93018 -1.407974,-0.93018 -0.19074,0 -0.431754,-0.13746 -0.535587,-0.30546 -0.115572,-0.187 -0.07272,-0.23374 0.110482,-0.12051 0.853087,0.52724 5.767035,0.78887 8.353011,0.44474 2.848405,-0.37905 4.426742,-0.89232 5.9354,-1.93019 1.35248,-0.93044 2.01428,-1.92716 2.59574,-3.90941 0.23477,-0.80037 0.52277,-1.69334 0.64,-1.98438 0.11723,-0.29104 0.35918,-1.00542 0.53766,-1.5875 0.74498,-2.42949 4.24696,-10.01061 8.35792,-18.09325 2.41404,-4.74632 4.5379,-8.80826 4.71967,-9.02654 0.18178,-0.21828 0.41269,-0.6665 0.51314,-0.99603 0.10273,-0.33704 0.30793,-0.52172 0.46905,-0.42214 0.16356,0.10108 0.21069,0.0545 0.10988,-0.10862 -0.20222,-0.3272 0.33189,-1.64821 0.66641,-1.64821 0.12216,0 0.22211,-0.31254 0.22211,-0.69453 0,-0.63677 0.0688,-0.68078 0.82682,-0.52917 0.45476,0.0909 0.93101,0.16537 1.05834,0.16537 0.12733,0 0.23151,0.17859 0.23151,0.39687 0,0.21828 0.10718,0.39688 0.23819,0.39688 0.13101,0 0.38455,0.61007 0.56343,1.35573 0.37472,1.56199 0.19484,3.99693 -0.40052,5.42184 -0.22061,0.52798 -0.40151,1.27285 -0.40201,1.65526 -9.4e-4,0.71969 -1.42539,4.47196 -1.86601,4.91539 -0.13736,0.13825 -0.24975,0.5252 -0.24975,0.8599 0,0.3347 -0.10616,0.60854 -0.2359,0.60854 -0.12975,0 -0.31559,0.32742 -0.41298,0.72761 -0.0974,0.40018 -0.46749,1.17153 -0.82243,1.71412 -0.35495,0.54258 -0.64536,1.09476 -0.64536,1.22706 0,0.54672 -1.94764,4.31556 -2.59268,5.01703 -0.18904,0.20559 -0.41229,0.71664 -0.49609,1.13566 -0.0838,0.41902 -0.31982,0.76186 -0.52448,0.76186 -0.20466,0 -0.44391,0.20836 -0.53168,0.46302 -0.0878,0.25466 -0.50954,1.17739 -0.93728,2.05052 -0.79086,1.61435 -0.93544,1.90188 -1.50958,3.00233 -0.17822,0.34159 -0.25701,0.6881 -0.1751,0.77001 0.0819,0.0819 -0.0884,0.3152 -0.37854,0.51841 -0.85019,0.59549 -0.66107,1.13321 0.39856,1.13321 0.50932,0 0.92604,0.11906 0.92604,0.26458 0,0.14552 -0.11906,0.26458 -0.26458,0.26458 -0.14552,0 -0.26459,0.1786 -0.26459,0.39688 0,0.21828 -0.17859,0.39687 -0.39687,0.39687 -0.55564,0 -0.49805,0.9931 0.0661,1.14054 0.35381,0.0925 0.3248,0.12824 -0.12298,0.15169 -0.3223,0.0169 -0.72708,0.29858 -0.8995,0.626 -0.17243,0.32742 -0.38623,0.65485 -0.47511,0.72761 -0.0889,0.0728 -0.4355,0.7276 -0.77026,1.4552 -0.73783,1.6037 -2.51863,3.57188 -3.23181,3.57188 -0.62065,0 -0.68906,0.40753 -0.10596,0.63128 0.61724,0.23686 0.17549,0.71677 -0.50303,0.54647 -0.41074,-0.10309 -0.77365,0.0525 -1.21287,0.52004 -0.34471,0.36693 -0.72465,0.60665 -0.8443,0.5327 -0.11965,-0.074 -0.72742,0.11427 -1.3506,0.41826 -1.23541,0.60266 -4.454956,0.88363 -6.530135,0.5699 z m -7.354735,-6.70191 c -3.046692,-1.02234 -5.901309,-4.53793 -5.901309,-7.26773 0,-1.80003 0.633572,-2.93927 2.690545,-4.83792 1.775577,-1.63892 6.157449,-6.94067 12.53942,-15.1718 0.591116,-0.76239 2.147476,-2.75538 3.458574,-4.42887 1.31111,-1.67349 3.08631,-3.99521 3.94491,-5.15938 0.8586,-1.16417 1.62463,-2.1762 1.7023,-2.24896 0.0777,-0.0728 0.47098,-0.57478 0.87401,-1.1156 1.16176,-1.55892 5.74345,-3.52367 8.64099,-3.70548 l 1.17471,-0.0737 1.12098,1.85208 c 0.61654,1.01865 1.12971,2.04499 1.14039,2.28076 0.0107,0.23577 -2.3656,5.11734 -5.28062,10.84792 -7.00373,13.76849 -9.18479,18.68135 -10.67803,24.05239 -0.4776,1.71787 -1.87479,3.48051 -3.359142,4.23777 -2.683629,1.36909 -9.030967,1.75753 -12.067728,0.73853 z m -0.735451,-11.68484 c 1.01508,-0.55708 2.917163,-1.43048 4.22685,-1.94087 1.309688,-0.51039 2.467523,-1.01002 2.572967,-1.11029 0.252497,-0.24009 -3.567327,0.0751 -3.976759,0.32811 -0.592433,0.36614 -0.317818,-0.39378 0.543897,-1.50509 0.472942,-0.60993 0.926291,-1.1685 1.007441,-1.24126 0.08115,-0.0728 0.721361,-0.99444 1.42269,-2.04817 0.701329,-1.05373 1.545172,-2.20724 1.875207,-2.56336 0.330035,-0.35611 0.535987,-0.71156 0.457671,-0.78987 -0.07832,-0.0783 0.05324,-0.21747 0.29235,-0.30922 0.23911,-0.0918 0.434745,-0.26745 0.434745,-0.39043 0,-0.12298 0.565546,-1.01778 1.25677,-1.98845 0.691224,-0.97066 1.613959,-2.26539 2.050521,-2.87716 0.436563,-0.61178 1.448591,-2.04461 2.248961,-3.18407 0.80036,-1.13945 1.77347,-2.41028 2.16246,-2.82405 0.38899,-0.41377 0.65086,-0.7523 0.58194,-0.7523 -0.16842,0 2.1093,-3.24632 3.43434,-4.8948 0.64255,-0.79939 0.78604,-1.07274 0.36259,-0.69074 -0.38543,0.34769 -1.56499,1.77644 -2.62124,3.175 -2.85921,3.78579 -12.96608,16.77538 -13.375431,17.19041 -0.195333,0.19804 -1.089634,1.32914 -1.987335,2.51354 -0.897701,1.1844 -2.841361,3.40362 -4.319246,4.93159 -1.477884,1.52796 -2.822291,3.03818 -2.987571,3.35604 -0.652278,1.25442 -0.235252,1.24155 1.095036,-0.0338 0.767549,-0.73584 2.226065,-1.79369 3.241146,-2.35078 z M 73.421875,121.49515 v -4.8139 h 3.184117 3.184116 l -1.133596,1.65365 c -0.623477,0.9095 -1.222892,1.69333 -1.332033,1.74184 -0.109141,0.0485 -0.198437,0.20872 -0.198437,0.35603 0,0.14731 -0.267891,0.64093 -0.595313,1.09694 -0.686375,0.95593 -1.128259,1.67725 -1.487158,2.42758 -0.139211,0.29105 -0.561042,0.93925 -0.937403,1.44047 l -0.684293,0.9113 z m 10.583333,0.39839 c 0,-0.18917 0.142875,-0.48683 0.3175,-0.66145 0.246944,-0.24695 0.01176,-0.31751 -1.058333,-0.31751 -1.092722,0 -1.375834,0.0883 -1.375834,0.42928 0,0.36934 -0.06116,0.37857 -0.438077,0.0661 -0.407714,-0.33796 -0.407714,-0.36905 0,-0.44867 0.302699,-0.0591 0.451163,-0.38616 0.480421,-1.05833 l 0.04234,-0.97279 0.106712,0.8599 0.106712,0.85989 h 2.099903 c 1.154947,0 2.099903,-0.0902 2.099903,-0.20034 0,-0.11019 -0.535781,-0.15773 -1.190625,-0.10565 -1.17548,0.0935 -1.190625,0.0843 -1.190625,-0.7257 0,-0.74871 -0.07513,-0.82059 -0.859896,-0.82269 -0.472943,-0.001 -1.466702,-0.0752 -2.208354,-0.16434 -1.528268,-0.18364 -1.826049,0.10745 -1.450275,1.4177 0.17642,0.61514 0.134171,0.75221 -0.231854,0.75221 -0.777501,0 -0.499651,-1.52619 0.525434,-2.88615 0.956948,-1.26956 2.026315,-1.69612 1.767101,-0.70489 -0.07607,0.2909 -0.03043,0.59558 0.101433,0.67708 0.131859,0.0815 0.239744,-0.15609 0.239744,-0.52795 v -0.67612 l 5.093229,0.0186 c 4.512058,0.0165 5.032848,0.0622 4.564063,0.40095 -0.291042,0.2103 -0.738887,0.55869 -0.995212,0.77421 -0.256325,0.21552 -0.555107,0.39185 -0.66396,0.39185 -0.108852,0 -0.346625,0.23813 -0.528384,0.52917 -0.181758,0.29104 -0.457682,0.52916 -0.613164,0.52916 -0.155481,0 -0.639881,0.35719 -1.076444,0.79375 -0.436562,0.43657 -0.970211,0.79375 -1.185887,0.79375 -0.215675,0 -0.331679,0.0978 -0.257785,0.21739 0.158383,0.25627 -0.767666,1.10553 -1.205487,1.10553 -0.16795,0 -0.08885,-0.23615 0.177791,-0.53079 0.264196,-0.29193 0.404589,-0.60655 0.311984,-0.69916 -0.234634,-0.23463 -0.97491,0.42254 -0.97491,0.86547 0,0.20047 -0.119063,0.36448 -0.264584,0.36448 -0.145521,0 -0.264583,-0.15478 -0.264583,-0.34396 z"
         id="path319" /><path
         style="fill:#a0a8b1"
         d="m 95.570022,177.37037 c -0.09394,-0.0939 0.271868,-0.53054 0.812917,-0.97021 0.54105,-0.43967 0.745602,-0.71295 0.45456,-0.60729 -1.221892,0.4436 -1.88839,0.45722 -2.230029,0.0456 -0.191568,-0.23083 -0.638757,-0.41969 -0.993752,-0.41969 -0.354995,0 -1.322682,-0.32742 -2.150416,-0.7276 l -1.504969,-0.72761 3.175,-0.17108 c 3.660927,-0.19726 6.535109,-0.89386 7.861107,-1.90526 0.50423,-0.38458 1.0055,-0.61052 1.11394,-0.50208 0.10845,0.10845 0.16346,0.0781 0.12225,-0.0674 -0.0412,-0.14552 0.28447,-0.81939 0.72372,-1.49749 0.43926,-0.67811 0.95733,-1.89438 1.15127,-2.70284 0.19395,-0.80845 0.44544,-1.41256 0.55887,-1.34246 0.11343,0.0701 0.29239,-0.0119 0.39769,-0.18231 0.11957,-0.19348 0.0768,-0.2389 -0.11401,-0.121 -0.17156,0.10603 -0.30504,0.037 -0.3045,-0.15755 0.001,-0.44885 1.4949,-4.45014 1.74459,-4.67353 0.10496,-0.0939 0.1137,0.0438 0.0194,0.30603 -0.10837,0.30138 -0.0686,0.4132 0.10817,0.30396 0.15377,-0.095 0.212,-0.34892 0.1294,-0.56419 -0.19628,-0.51149 1.73365,-4.85817 2.06587,-4.65285 0.14579,0.0901 0.18306,-0.0295 0.0871,-0.27961 -0.0923,-0.24041 -0.0827,-0.42443 0.0212,-0.40894 0.50103,0.0747 0.68023,-0.0666 0.34985,-0.27579 -0.30494,-0.1931 -0.27701,-0.36292 0.16252,-0.98813 0.29191,-0.41523 0.69162,-1.20623 0.88824,-1.75778 l 0.3575,-1.00281 0.46695,0.60594 0.46695,0.60593 -0.28967,-0.79375 c -0.26601,-0.72891 -0.11666,-1.13582 1.8284,-4.98149 1.20295,-2.3784 2.18667,-4.03596 2.27683,-3.83646 0.0873,0.19321 0.0982,0.1021 0.0243,-0.20245 -0.0771,-0.3173 0.077,-0.82568 0.36084,-1.19063 0.27243,-0.35028 0.63746,-1.07284 0.81119,-1.60567 0.17372,-0.53284 0.49428,-1.03726 0.71234,-1.12094 0.21807,-0.0837 0.36114,-0.35002 0.31794,-0.59186 -0.0504,-0.28218 0.11548,-0.45578 0.46303,-0.48454 0.39909,-0.033 0.5558,0.12691 0.59561,0.60786 0.0297,0.35897 0.18894,0.81525 0.35384,1.01394 0.68309,0.82308 0.18461,4.90318 -0.72459,5.93079 -0.20327,0.22974 -0.36958,0.55716 -0.36958,0.7276 0,0.17044 -0.0944,0.3099 -0.20979,0.3099 -0.11538,0 -0.43796,0.67125 -0.71683,1.49168 -0.27887,0.82042 -0.63095,1.62409 -0.78239,1.78593 -0.15145,0.16185 -0.62752,1.04435 -1.05793,1.96113 -0.43042,0.91678 -0.93643,1.79456 -1.12448,1.95063 -0.18805,0.15606 -0.34191,0.5073 -0.34191,0.78052 0,0.27323 -0.0989,0.49677 -0.21973,0.49677 -0.53055,0 -1.89694,2.3658 -1.89694,3.2844 0,0.66711 -0.11787,0.94894 -0.39687,0.94894 -0.21828,0 -0.39688,0.15784 -0.39688,0.35075 0,0.19292 -0.29398,0.62694 -0.6533,0.9645 -0.35932,0.33756 -0.59991,0.70014 -0.53466,0.80572 0.0653,0.10559 -0.11184,0.45773 -0.39355,0.78254 -0.28171,0.32482 -0.71122,1.11169 -0.95446,1.74861 -0.24324,0.63691 -0.54606,1.09387 -0.67293,1.01546 -0.12687,-0.0784 -0.23068,0.0431 -0.23068,0.26993 0,0.22687 -0.11906,0.41249 -0.26458,0.41249 -0.14552,0 -0.26459,0.39779 -0.26459,0.88399 0,0.48619 -0.16504,1.4324 -0.36677,2.10267 -0.20172,0.67028 -0.30094,1.28451 -0.22048,1.36497 0.0804,0.0805 0.007,0.14628 -0.1624,0.14628 -0.16977,0 -0.30868,0.1786 -0.30868,0.39688 0,0.58082 0.99857,0.48539 1.38432,-0.13229 0.18176,-0.29105 0.429,-0.52917 0.54943,-0.52917 0.24065,0 -0.86206,1.66614 -1.19659,1.80799 -0.1144,0.0485 -0.20799,0.26203 -0.20799,0.47449 0,0.94306 -3.79115,4.06752 -4.93544,4.06752 -0.19593,0 -0.35623,0.10536 -0.35623,0.23413 0,0.51628 -4.945807,1.61103 -5.368518,1.18832 z m -7.085591,-4.67803 c -1.551091,-0.43954 -3.36402,-1.50539 -4.244277,-2.49529 -1.950548,-2.19351 -2.811436,-5.07831 -2.04994,-6.86926 0.197882,-0.4654 1.609942,-2.14177 3.137911,-3.72526 3.012513,-3.122 10.472054,-12.45311 19.764595,-24.72346 2.54714,-3.36337 2.86999,-3.68764 4.39079,-4.41002 2.3581,-1.12012 4.61752,-1.82588 6.13635,-1.91678 l 1.31986,-0.079 1.1249,1.97534 c 0.6187,1.08644 1.12609,2.12795 1.12754,2.31447 0.001,0.18652 -1.29288,2.86542 -2.87629,5.95312 -1.58341,3.0877 -4.01945,7.84363 -5.41343,10.56873 -3.38619,6.61967 -6.01674,12.66869 -7.23957,16.64753 -0.90666,2.95011 -1.12371,3.38898 -2.2277,4.50433 -1.740152,1.75808 -3.758138,2.36525 -8.301837,2.49785 -2.303558,0.0672 -3.838997,-0.0128 -4.648902,-0.24231 z m 6.284869,-1.40552 c 0.08981,-0.23404 0.277915,-0.28366 0.533379,-0.14069 0.599089,0.33526 1.557629,0.0576 2.214268,-0.64132 0.578023,-0.61527 0.580622,-0.64871 0.140077,-1.80226 -0.911942,-2.38789 -2.89742,-3.58653 -6.199213,-3.74248 l -2.028645,-0.0958 1.852083,0.23294 c 2.444439,0.30743 3.435728,0.62991 4.550808,1.48043 0.897717,0.68472 0.910382,0.71919 0.435846,1.1865 -0.555916,0.54744 -4.303449,1.83291 -5.351155,1.83554 l -0.693832,0.002 0.79375,0.54314 c 0.436563,0.29874 1.061641,0.65219 1.389063,0.78546 0.327421,0.13327 0.595312,0.40323 0.595312,0.59991 0,0.47386 1.576296,0.25714 1.768259,-0.2431 z m -8.025496,-10.25377 c 1.331428,-0.7739 3.520962,-1.81254 4.865631,-2.30809 1.344668,-0.49555 2.445996,-0.96489 2.447395,-1.04297 0.0014,-0.0781 -0.979094,-0.0576 -2.178874,0.0455 -1.19978,0.1031 -2.223764,0.14512 -2.275519,0.0934 -0.08202,-0.082 1.424637,-2.15182 1.827396,-2.51042 0.08172,-0.0728 0.898404,-1.23362 1.814852,-2.57969 0.916448,-1.34607 1.77232,-2.44739 1.901938,-2.44739 0.129617,0 0.235668,-0.1786 0.235668,-0.39688 0,-0.21828 0.119062,-0.39687 0.264583,-0.39687 0.145521,0 0.264584,-0.11459 0.264584,-0.25465 0,-0.14005 0.506015,-0.96309 1.124479,-1.82897 0.618463,-0.86589 2.196041,-3.09307 3.505733,-4.94931 1.30968,-1.85623 2.69951,-3.7121 3.0885,-4.12415 0.38899,-0.41204 0.65086,-0.74917 0.58194,-0.74917 -0.16842,0 2.1093,-3.24632 3.43434,-4.8948 0.64255,-0.79939 0.78604,-1.07274 0.36259,-0.69074 -0.38543,0.34769 -1.56468,1.77644 -2.62056,3.175 -7.824037,10.36323 -18.018418,23.05681 -20.316364,25.29699 -1.921826,1.87352 -2.654408,2.90534 -2.654408,3.73866 0,0.31246 0.302218,0.10456 0.952659,-0.65533 0.538671,-0.62932 2.004634,-1.72444 3.373437,-2.52007 z"
         id="path318" /><path
         style="fill:#eb876f"
         d="m 88.524653,172.61722 c -1.893358,-0.50905 -2.890414,-1.15496 -4.497953,-2.91386 -0.900349,-0.98513 -1.463457,-1.89827 -1.73548,-2.81427 -0.819211,-2.75858 -0.457325,-3.64415 2.893531,-7.08075 2.383741,-2.44474 5.080724,-5.66344 8.923212,-10.64936 0.62812,-0.81503 2.623876,-3.36602 4.435013,-5.66887 1.811134,-2.30284 4.356994,-5.61573 5.657464,-7.36198 3.06233,-4.11206 3.71609,-4.79125 5.46935,-5.68213 1.95654,-0.99416 4.83688,-1.85913 6.17943,-1.85569 1.08639,0.003 1.10709,0.0212 2.22109,1.97584 0.61846,1.08516 1.1218,2.1257 1.11852,2.31229 -0.003,0.1866 -0.5317,1.29177 -1.17427,2.45594 -2.23895,4.0564 -9.93489,19.43658 -11.47612,22.93478 -1.54958,3.51714 -2.95968,7.3201 -3.47421,9.36975 -0.3977,1.58428 -1.66581,3.17438 -3.115397,3.90644 -2.717738,1.37249 -8.342975,1.90028 -11.42418,1.07187 z m 6.98993,-0.93414 c 1.524815,-0.42233 2.513541,-1.20175 2.513541,-1.98143 0,-0.8186 -0.90504,-2.62032 -1.731268,-3.44655 -0.344261,-0.34426 -0.512278,-0.62593 -0.373372,-0.62593 0.561749,0 0.202121,-0.80624 -0.528054,-1.18383 -0.896167,-0.46343 -1.759892,-0.52357 -1.997514,-0.13909 -0.08994,0.14552 -0.03743,0.26459 0.116677,0.26459 0.154109,0 0.280215,0.0893 0.280236,0.19843 2.1e-5,0.10914 -1.012031,0.15646 -2.249006,0.10514 -3.661252,-0.15188 -7.326957,0.7231 -7.679219,1.83298 -0.348002,1.09646 1.295203,3.53942 2.991259,4.44712 1.478539,0.79129 6.582951,1.10296 8.65672,0.52857 z m -12.169142,-8.06402 c 0.829683,-1.08777 5.009962,-3.57258 7.683533,-4.56718 1.157397,-0.43057 2.312718,-0.86596 2.567379,-0.96755 0.984144,-0.39256 0.379418,-0.53202 -1.587499,-0.36608 -1.127787,0.0951 -2.097886,0.13033 -2.155775,0.0782 -0.05789,-0.0521 0.180235,-0.5015 0.529166,-0.99859 0.348932,-0.49709 1.509169,-2.16621 2.578306,-3.70916 1.069136,-1.54294 2.051402,-2.80535 2.182812,-2.80535 0.13141,0 0.238928,-0.17633 0.238928,-0.39184 0,-0.21551 0.30897,-0.46938 0.686599,-0.56416 0.453303,-0.11377 0.576837,-0.24016 0.363563,-0.37197 -0.299391,-0.18503 0.593701,-1.76988 1.782966,-3.16398 0.398645,-0.4673 2.416501,-3.31166 4.194691,-5.91281 0.67896,-0.99318 1.39952,-1.86913 1.60124,-1.94653 0.20173,-0.0774 0.36677,-0.28173 0.36677,-0.45405 0,-0.58544 3.5674,-5.29674 4.4709,-5.9045 0.49446,-0.33261 0.82964,-0.60475 0.74483,-0.60475 -0.86219,0 -2.05866,1.312 -6.67387,7.31832 -10.283017,13.38251 -15.755932,20.14314 -18.217389,22.50372 -1.949404,1.86952 -2.573889,2.96529 -2.53122,4.4415 0.01309,0.453 0.05284,0.4351 0.276126,-0.12438 0.143457,-0.35945 0.547532,-1.02944 0.897944,-1.48885 z m 22.621259,-5.66281 c -0.1026,-0.0728 -0.51917,-0.66313 -0.9257,-1.31193 -0.40654,-0.6488 -1.07357,-1.53745 -1.48229,-1.97479 -0.40873,-0.43734 -0.67736,-0.859 -0.59695,-0.93703 0.21952,-0.21302 2.08694,1.97458 2.58931,3.03325 0.24166,0.50926 0.54413,0.92592 0.67215,0.92592 0.25394,0 1.59449,-2.77327 1.59449,-3.29862 0,-0.48553 -0.74822,-1.89046 -1.21161,-2.27504 -0.33133,-0.27498 -0.85765,-0.25778 -2.83486,0.0927 -1.33539,0.2367 -2.46943,0.55472 -2.5201,0.70671 -0.0507,0.152 -0.40961,0.27798 -0.79767,0.27997 -1.167497,0.006 -1.998254,0.29803 -1.587816,0.55821 0.241656,0.15318 0.102582,0.23528 -0.440655,0.26014 -0.451768,0.0207 -0.123223,0.13419 0.762564,0.26348 2.578107,0.37632 4.326057,1.74366 5.725687,4.47892 l 0.60508,1.18251 0.31746,-0.92604 c 0.17461,-0.50933 0.23352,-0.98558 0.13091,-1.05834 z m 2.78615,-5.37944 c 0.134,-0.71425 0.007,-1.11589 -0.66821,-2.11666 -0.45847,-0.67933 -0.94422,-1.23515 -1.07943,-1.23515 -0.13521,0 -0.24584,-0.18034 -0.24584,-0.40076 0,-0.22042 -0.38695,-0.6367 -0.85989,-0.92505 -0.47294,-0.28836 -0.74084,-0.52429 -0.59531,-0.52429 0.64185,0 1.97671,1.10296 2.53322,2.09314 0.33381,0.59393 0.69018,1.07988 0.79193,1.07988 0.10175,0 0.25771,0.26789 0.34657,0.59531 0.14848,0.54709 0.21728,0.50291 0.84924,-0.54532 0.75226,-1.24776 0.72245,-1.94199 -0.12849,-2.9931 -0.46747,-0.57743 -0.69998,-0.62814 -2.84763,-0.62105 -1.28623,0.004 -2.57672,0.0938 -2.86776,0.19901 -0.29104,0.10521 -1.36261,0.41868 -2.38125,0.69659 -1.01865,0.27792 -1.613959,0.52828 -1.32292,0.55634 0.35179,0.0339 0.20385,0.1526 -0.441363,0.35402 -0.533793,0.16665 -1.069574,0.41126 -1.190625,0.54358 -0.130343,0.14249 -0.0043,0.1607 0.309074,0.0447 0.291041,-0.10777 1.693184,-0.3143 3.115864,-0.45897 l 2.5867,-0.26303 0.90011,0.74754 c 0.49507,0.41114 1.29558,1.49123 1.77893,2.4002 0.48335,0.90897 0.96271,1.65311 1.06526,1.65365 0.10255,5.4e-4 0.26087,-0.39571 0.35182,-0.88055 z"
         id="path317" /><path
         style="fill:#c35f51"
         d="m 88.524653,172.61722 c -1.893358,-0.50905 -2.890414,-1.15496 -4.497953,-2.91386 -0.900349,-0.98513 -1.463457,-1.89827 -1.73548,-2.81427 -0.819211,-2.75858 -0.457325,-3.64415 2.893531,-7.08075 2.383741,-2.44474 5.080724,-5.66344 8.923212,-10.64936 0.62812,-0.81503 2.623876,-3.36602 4.435013,-5.66887 1.811134,-2.30284 4.356994,-5.61573 5.657464,-7.36198 3.06233,-4.11206 3.71609,-4.79125 5.46935,-5.68213 1.95654,-0.99416 4.83688,-1.85913 6.17943,-1.85569 1.08639,0.003 1.10709,0.0212 2.22109,1.97584 0.61846,1.08516 1.1218,2.1257 1.11852,2.31229 -0.003,0.1866 -0.5317,1.29177 -1.17427,2.45594 -2.23895,4.0564 -9.93489,19.43658 -11.47612,22.93478 -1.54958,3.51714 -2.95968,7.3201 -3.47421,9.36975 -0.3977,1.58428 -1.66581,3.17438 -3.115397,3.90644 -2.717738,1.37249 -8.342975,1.90028 -11.42418,1.07187 z m 6.98993,-0.93414 c 1.524815,-0.42233 2.513541,-1.20175 2.513541,-1.98143 0,-0.8186 -0.90504,-2.62032 -1.731268,-3.44655 -0.344261,-0.34426 -0.512278,-0.62593 -0.373372,-0.62593 0.561749,0 0.202121,-0.80624 -0.528054,-1.18383 -0.896167,-0.46343 -1.759892,-0.52357 -1.997514,-0.13909 -0.08994,0.14552 -0.03743,0.26459 0.116677,0.26459 0.154109,0 0.280215,0.0893 0.280236,0.19843 2.1e-5,0.10914 -1.012031,0.15646 -2.249006,0.10514 -3.661252,-0.15188 -7.326957,0.7231 -7.679219,1.83298 -0.348002,1.09646 1.295203,3.53942 2.991259,4.44712 1.478539,0.79129 6.582951,1.10296 8.65672,0.52857 z m -12.169142,-8.06402 c 0.851429,-1.11628 5.044057,-3.58754 7.815824,-4.60688 1.230158,-0.4524 2.517922,-1.00563 2.861699,-1.2294 0.847839,-0.55188 2.425151,-0.28802 4.243919,0.70995 1.089728,0.59794 1.514109,0.71399 1.785937,0.48839 0.1961,-0.16275 0.35655,-0.43426 0.35655,-0.60334 0,-0.53617 -1.552663,-1.24992 -3.056712,-1.40515 -1.424745,-0.14704 -5.758288,0.32357 -6.931304,0.75273 -0.644472,0.23578 -0.799586,-0.064 -0.263388,-0.50895 0.404423,-0.33564 4.018709,-0.85058 6.612425,-0.94209 1.570128,-0.0554 2.105413,0.0411 3.068667,0.55328 0.641732,0.34121 1.195042,0.58591 1.229582,0.54379 0.13592,-0.16577 0.66365,-1.23929 0.66365,-1.35002 0,-0.39834 -1.99683,-0.83791 -3.727549,-0.82056 -2.283894,0.0229 -6.062033,0.60406 -6.062033,0.93248 0,0.12037 -0.198126,0.14283 -0.440279,0.0499 -0.262369,-0.10068 -0.373986,-0.0617 -0.276222,0.0965 0.09023,0.146 -0.01065,0.26545 -0.224172,0.26545 -0.333356,0 -0.336842,-0.0779 -0.02467,-0.55121 0.515954,-0.78227 3.628281,-1.42078 7.077203,-1.45193 2.687512,-0.0243 2.848362,0.006 3.853532,0.73453 1.16794,0.84605 2.41738,2.33487 3.13705,3.73806 l 0.47495,0.92604 0.31658,-0.92604 c 0.17412,-0.50933 0.23263,-0.98558 0.13002,-1.05834 -0.1026,-0.0728 -0.5161,-0.66807 -0.91887,-1.32291 -0.40277,-0.65485 -1.09877,-1.57758 -1.54666,-2.05052 -0.44789,-0.47295 -0.68121,-0.8599 -0.51848,-0.8599 0.40371,0 2.05842,1.96816 2.58153,3.07054 0.23443,0.49402 0.53098,0.89821 0.659,0.89821 0.25394,0 1.59449,-2.77327 1.59449,-3.29862 0,-0.48553 -0.74822,-1.89046 -1.21161,-2.27504 -0.33129,-0.27495 -0.85396,-0.25843 -2.81356,0.0889 -1.32368,0.23462 -2.47757,0.54039 -2.5642,0.67948 -0.0866,0.13909 -1.229074,0.32303 -2.538762,0.40876 -1.309687,0.0857 -3.244453,0.32227 -4.299479,0.52566 -1.055026,0.20338 -1.918229,0.28301 -1.918229,0.17695 0,-0.31947 0.898178,-0.99822 1.322917,-0.99972 1.271075,-0.004 4.114402,-0.42965 4.188531,-0.6263 0.04812,-0.12766 0.320283,-0.10752 0.604807,0.0448 0.563885,0.30178 1.001229,0.25589 3.852345,-0.40421 1.48161,-0.34304 1.99795,-0.59095 2.3501,-1.1284 0.422,-0.64405 0.42249,-0.70984 0.008,-1.01327 -0.86202,-0.63033 -5.079105,-0.29363 -7.56372,0.6039 -0.218281,0.0789 -0.664295,0.17898 -0.991143,0.22251 -0.326848,0.0435 -0.862629,0.15962 -1.190625,0.25799 -0.534661,0.16035 -0.555298,0.13623 -0.199482,-0.23311 0.361645,-0.37539 3.863387,-1.24493 6.4823,-1.60965 3.68669,-0.51343 3.35474,-0.57236 4.64963,0.8254 0.64797,0.69944 1.40301,1.77772 1.67786,2.39619 0.60207,1.35472 0.87022,1.41416 1.09019,0.24163 0.12664,-0.67506 0.0205,-1.09563 -0.45103,-1.78694 -1.31184,-1.92336 -2.13926,-2.8722 -2.64446,-3.03254 -0.28909,-0.0917 -0.46817,-0.22426 -0.39797,-0.29447 0.31114,-0.31113 1.8295,0.81968 2.46677,1.83715 0.38476,0.61431 0.77975,1.17647 0.87775,1.24923 0.098,0.0728 0.26451,0.36528 0.37003,0.65005 0.16738,0.45177 0.27766,0.37383 0.86522,-0.61147 0.73717,-1.23618 0.70365,-1.93616 -0.14277,-2.98169 -0.46747,-0.57743 -0.69998,-0.62814 -2.84763,-0.62105 -1.28623,0.004 -2.63625,0.10425 -3.00005,0.22222 -0.3638,0.11798 -2.03068,0.49096 -3.70417,0.82884 -1.673493,0.33789 -3.251071,0.69711 -3.505732,0.79828 -0.532328,0.21147 -0.624123,-0.20727 -0.132292,-0.60348 0.314965,-0.25373 1.570887,-0.59866 2.711979,-0.74482 0.291042,-0.0373 0.529167,-0.0879 0.529167,-0.11257 0,-0.0246 0.357188,-0.0791 0.793758,-0.12115 0.43656,-0.042 1.37199,-0.21371 2.07874,-0.38158 0.70675,-0.16787 2.06072,-0.32821 3.00882,-0.35631 1.49025,-0.0442 1.77934,-0.13583 2.13366,-0.67659 0.35147,-0.53641 0.3563,-0.6594 0.0339,-0.86346 -0.48941,-0.30976 -1.09015,-0.30301 -3.02179,0.0339 -0.87313,0.15229 -1.82563,0.31662 -2.11667,0.36516 -0.29104,0.0486 -1.06495,0.22913 -1.71979,0.40128 -0.65484,0.17215 -1.488284,0.38207 -1.852087,0.46648 -0.363802,0.0844 -0.735872,0.26751 -0.826822,0.40688 -0.100634,0.15421 -0.23755,0.1366 -0.349771,-0.045 -0.113137,-0.18306 0.20122,-0.4595 0.813385,-0.71528 1.460185,-0.6101 8.002405,-1.99962 8.568625,-1.81991 0.26657,0.0846 0.91663,0.65477 1.44458,1.26702 1.39111,1.61324 1.42445,1.66317 1.61338,2.41595 0.25078,0.99915 0.55333,1.05456 0.86568,0.15855 0.24322,-0.69769 0.16719,-0.9454 -0.66992,-2.1825 -1.28319,-1.89634 -2.20713,-2.8507 -2.75985,-2.8507 -0.49139,0 -6.39357,1.36517 -7.839391,1.81324 -0.472942,0.14657 -0.859896,0.16848 -0.859896,0.0487 0,-0.28029 0.82008,-0.64009 1.283327,-0.56304 0.1965,0.0327 0.29717,-0.0378 0.2237,-0.1567 -0.0735,-0.11888 0.12295,-0.23196 0.43647,-0.25129 0.31353,-0.0193 1.64077,-0.34676 2.94944,-0.7276 1.52828,-0.44476 3.02091,-0.69245 4.17286,-0.69245 1.67635,0 1.81401,-0.0451 2.10806,-0.69045 0.27004,-0.59269 0.24335,-0.74252 -0.18854,-1.05833 -0.56425,-0.41259 -1.19573,-0.48637 -1.19573,-0.13969 0,0.12551 -0.29766,0.19552 -0.66146,0.15559 -0.3638,-0.0399 -0.66146,0.043 -0.66146,0.18429 0,0.14129 -0.12427,0.18009 -0.27617,0.0862 -0.15189,-0.0939 -0.47241,-0.0116 -0.71225,0.18283 -0.3686,0.29881 -0.40103,0.29538 -0.20959,-0.0222 0.17204,-0.28538 0.11545,-0.33308 -0.23543,-0.19844 -0.25406,0.0975 -0.66054,0.17908 -0.9033,0.18131 -0.38472,0.004 -0.39043,0.0407 -0.0445,0.28954 0.32863,0.2364 0.31238,0.25801 -0.0945,0.12567 -0.27024,-0.0879 -0.98462,-0.0181 -1.5875,0.15508 -1.4042,0.4034 -1.28404,0.36374 -1.83516,0.60568 -0.46087,0.20232 -0.94243,0.0164 -0.66808,-0.25799 0.2828,-0.2828 8.56904,-2.23024 8.96296,-2.10649 0.45038,0.14149 2.51493,2.94235 2.86359,3.88487 l 0.21725,0.58728 0.32086,-0.59954 c 0.26866,-0.502 0.2272,-0.79301 -0.25488,-1.78884 -0.90111,-1.86146 -2.127,-3.01708 -3.1933,-3.01025 -0.96193,0.006 -4.56128,0.76711 -6.71563,1.41978 -1.2911,0.39115 -1.30887,0.38916 -0.73886,-0.0826 0.32124,-0.26588 0.54018,-0.52797 0.48655,-0.58242 -0.0536,-0.0544 0.33176,-0.10889 0.85643,-0.12098 0.52467,-0.0121 0.99604,-0.14829 1.04749,-0.30265 0.0515,-0.15435 0.32597,-0.21986 0.61003,-0.14558 0.28407,0.0743 0.51648,0.0186 0.51648,-0.12369 0,-0.14231 0.31536,-0.19847 0.70079,-0.12479 0.38543,0.0737 0.63512,0.0274 0.55488,-0.10283 -0.0802,-0.13024 0.28901,-0.26171 0.82057,-0.29214 0.53156,-0.0304 1.70516,-0.0944 2.60799,-0.14221 0.90284,-0.0478 1.72081,-0.16617 1.81771,-0.26307 0.0969,-0.0969 0.1001,-0.4794 0.007,-0.84998 -0.20742,-0.82642 -0.5186,-0.83835 -3.38341,-0.12964 -1.20977,0.29927 -2.37817,0.58782 -2.59645,0.64121 -0.21828,0.0534 -0.39687,0.11611 -0.39687,0.13937 0,0.0233 -0.27164,0.0723 -0.60364,0.10894 -0.332,0.0366 -0.95226,0.32438 -1.37835,0.63941 -1.02047,0.75446 -1.22971,0.72729 -0.47612,-0.0618 0.57692,-0.60411 2.16815,-1.17757 5.91505,-2.13173 0.88267,-0.22478 1.8603,-0.40868 2.1725,-0.40868 0.75464,0 1.5213,0.85112 2.50244,2.77812 0.76178,1.49617 0.82404,1.55233 1.08214,0.97617 0.21263,-0.47469 0.16526,-0.79996 -0.21197,-1.45521 l -0.48581,-0.84388 0.65836,0.59967 0.65836,0.59967 0.31235,-0.68553 c 0.44002,-0.96574 -0.26633,-2.13921 -1.39096,-2.31082 -0.44927,-0.0686 -0.8554,-0.0903 -0.90251,-0.0483 -0.0471,0.042 0.1044,0.47436 0.33669,0.96083 0.41431,0.86766 0.41342,0.87201 -0.0466,0.22877 -1.33546,-1.8672 -2.65233,-2.05514 -6.52879,-0.93179 -2.46445,0.71417 -2.91201,0.78614 -2.69387,0.43317 0.13607,-0.22016 1.72675,-0.72475 3.03775,-0.96363 0.34874,-0.0635 1.00359,-0.23064 1.45521,-0.37132 1.4757,-0.45968 2.75778,-0.50216 3.50205,-0.11603 0.86612,0.44935 1.42013,0.2946 1.42013,-0.39669 0,-0.82973 -0.66461,-1.18465 -1.78304,-0.9522 -0.5473,0.11375 -1.08438,0.18677 -1.19352,0.16228 -0.10914,-0.0245 -0.19844,0.0634 -0.19844,0.19528 0,0.1319 -0.21365,0.18394 -0.47478,0.11565 -0.26113,-0.0683 -1.18386,0.14625 -2.05052,0.47675 -0.86666,0.33049 -1.66504,0.5761 -1.77418,0.5458 -0.10914,-0.0303 -0.19844,0.0386 -0.19844,0.15318 0,0.11455 -0.25919,0.2278 -0.57598,0.25167 -0.56904,0.0429 -0.56825,0.0361 0.0661,-0.56164 0.38409,-0.3619 0.84482,-0.5526 1.14652,-0.47457 0.35771,0.0925 0.44425,0.0331 0.2976,-0.20416 -0.15405,-0.24925 -0.0549,-0.2864 0.38863,-0.14562 0.35167,0.11162 0.53248,0.0871 0.44165,-0.0599 -0.0846,-0.13686 0.22131,-0.24883 0.67977,-0.24883 0.45846,0 0.87979,-0.1387 0.9363,-0.30823 0.0635,-0.19053 0.36202,-0.24315 0.78177,-0.1378 0.37738,0.0947 0.61447,0.0651 0.53371,-0.0666 -0.17585,-0.28685 2.4091,-0.30486 2.99604,-0.0209 0.22887,0.11074 0.82418,0.9696 1.32292,1.90859 0.49874,0.93899 0.97237,1.70826 1.05251,1.70948 0.0802,0.001 0.40963,-0.54097 0.73219,-1.2049 0.55594,-1.14428 0.5644,-1.25364 0.16249,-2.10059 -0.28971,-0.61052 -0.66517,-0.94643 -1.18563,-1.06074 -0.66249,-0.14551 -0.72191,-0.23093 -0.45642,-0.65605 0.23516,-0.37656 0.22553,-0.58481 -0.042,-0.90713 -0.43526,-0.52445 -0.92413,-0.53259 -1.43288,-0.0238 -0.21698,0.21698 -0.43384,0.27776 -0.48192,0.13506 -0.0554,-0.16438 -0.47523,-0.14553 -1.14574,0.0514 -0.58208,0.17099 -1.13771,0.31858 -1.23472,0.32796 -0.097,0.009 -0.26569,0.10637 -0.37483,0.21551 -0.10914,0.10915 0.1786,0.19844 0.63941,0.19844 0.46082,0 0.83785,-0.11222 0.83785,-0.24939 0,-0.32714 0.99725,-0.12838 1.53299,0.30554 0.34683,0.28092 0.38293,0.27804 0.20566,-0.0164 -0.17571,-0.29185 -0.1083,-0.30002 0.36875,-0.0447 0.32106,0.17183 0.51506,0.38111 0.4311,0.46508 -0.084,0.084 -0.007,0.3422 0.17122,0.57387 0.20822,0.2708 0.11664,0.24461 -0.25645,-0.0734 -0.38294,-0.32637 -0.84908,-0.45514 -1.37053,-0.37861 -0.43461,0.0638 -0.72994,0.0185 -0.65628,-0.10073 0.20974,-0.33936 -0.35647,-0.25996 -2.3235,0.32585 -1.00199,0.29841 -1.75194,0.6556 -1.66656,0.79375 0.0854,0.13816 0.0292,0.2512 -0.12495,0.2512 -0.15411,0 -0.2802,-0.11533 -0.2802,-0.25628 0,-0.14096 -0.20836,-0.19869 -0.46302,-0.12831 -0.25466,0.0704 -0.10583,-0.047 0.33073,-0.26095 0.43656,-0.21391 0.94258,-0.3943 1.12448,-0.40086 0.1819,-0.007 0.33073,-0.131 0.33073,-0.27652 0,-0.14552 0.13394,-0.23482 0.29765,-0.19844 0.16371,0.0364 0.34911,-0.0733 0.41199,-0.24376 0.0734,-0.19889 -0.0807,-0.25893 -0.42995,-0.16758 -0.29935,0.0783 -0.54428,0.26735 -0.54428,0.42015 0,0.1528 -0.0747,0.20317 -0.16589,0.11193 -0.0913,-0.0913 -0.58204,0.008 -1.09065,0.22048 -0.50861,0.21251 -0.9995,0.38374 -1.09087,0.3805 -0.30929,-0.011 1.15424,-1.04064 1.48752,-1.04656 0.1819,-0.003 0.33073,-0.0952 0.33073,-0.20433 0,-0.10914 0.26789,-0.21769 0.59531,-0.24123 0.32742,-0.0235 1.6479,-0.36516 2.93439,-0.75915 2.90273,-0.88898 3.19802,-0.7825 4.46008,1.60823 0.85675,1.62295 0.9708,1.73833 1.23338,1.24771 0.23929,-0.44712 0.12593,-0.8159 -0.6555,-2.13245 -0.7687,-1.29511 -1.10346,-1.6216 -1.79589,-1.7515 -0.9537,-0.17891 -3.30473,0.19983 -4.19371,0.6756 -0.32048,0.17152 -0.88472,0.34702 -1.25386,0.39 -1.98997,0.23169 -2.4426,0.67701 -7.83034,7.70379 -10.004174,13.0476 -15.719932,20.11067 -18.196483,22.48573 -1.949404,1.86952 -2.573889,2.96529 -2.53122,4.4415 0.01309,0.453 0.05284,0.4351 0.276126,-0.12438 0.143457,-0.35945 0.547532,-1.02944 0.897944,-1.48885 z"
         id="path316" /><path
         style="fill:#3b3333"
         d="m 88.767708,172.67401 c -2.064767,-0.56844 -3.149595,-1.245 -4.643789,-2.89613 -1.463272,-1.61697 -2.273081,-3.42624 -2.204073,-4.92434 0.0299,-0.64918 0.04034,-0.64408 0.233279,0.11417 0.111086,0.43656 0.216062,0.61303 0.233279,0.39215 0.133239,-1.70933 4.130209,-4.52826 9.197606,-6.48676 3.341567,-1.29149 3.452286,-1.31127 4.974441,-0.88867 0.858216,0.23828 0.964091,0.33446 0.595306,0.54085 -0.707684,0.39604 -1.295857,1.75981 -1.114702,2.5846 0.120367,0.54803 0.395117,0.80556 1.085431,1.01742 0.899553,0.27609 0.941682,0.25609 1.575412,-0.74781 0.358129,-0.56731 0.651143,-1.14016 0.651143,-1.27301 0,-0.13284 0.170317,-0.30689 0.378483,-0.38677 0.713396,-0.27375 2.661796,2.39343 3.447136,4.71883 0.16822,0.49809 0.19432,0.50138 0.44431,0.056 0.40575,-0.72279 0.0152,-1.956 -1.22612,-3.87212 -1.34121,-2.07025 -2.674797,-3.39796 -3.730062,-3.71362 -0.675093,-0.20194 -0.694166,-0.2328 -0.156249,-0.25276 0.336989,-0.0125 0.87277,0.10911 1.190625,0.27026 0.943446,0.47832 3.092046,2.91652 3.808056,4.32133 l 0.66618,1.30704 0.35757,-0.64558 c 0.61623,-1.11259 0.42913,-1.92614 -0.88045,-3.82832 -0.82219,-1.19425 -1.69588,-2.09631 -2.52665,-2.6087 l -1.269869,-0.78322 -3.143572,0.32398 c -1.728965,0.17819 -3.509006,0.42878 -3.955647,0.55688 -0.446641,0.12809 -0.812074,0.14273 -0.812074,0.0325 0,-0.63524 7.35572,-1.31864 8.857682,-0.82295 1.24566,0.4111 2.95872,2.09313 3.84186,3.77225 0.62778,1.1936 1.05879,1.59092 1.05879,0.97603 0,-0.1544 0.47625,-1.29254 1.05833,-2.52918 0.58209,-1.23665 1.05834,-2.42475 1.05834,-2.64023 0,-0.38435 -0.88557,-2.27747 -1.3357,-2.85537 -1.3737,-1.76366 -1.81381,-2.10829 -2.92112,-2.28739 l -1.16714,-0.18878 1.32377,-0.0331 c 1.55392,-0.0389 2.1538,0.45766 3.5573,2.94452 0.47189,0.83615 0.93592,1.5164 1.03116,1.51167 0.0952,-0.005 0.63008,-0.92746 1.18851,-2.05052 1.35245,-2.71989 1.05633,-4.01208 -1.04143,-4.54448 -0.92486,-0.23473 -0.94279,-0.25369 -0.17233,-0.1823 0.47294,0.0438 0.85989,4.2e-4 0.85989,-0.0965 0,-0.0969 -0.37233,-0.61204 -0.82742,-1.1448 -0.59705,-0.69899 -1.05745,-0.97971 -1.65364,-1.00832 -0.82316,-0.0395 -0.82346,-0.0401 -0.0815,-0.15152 0.40959,-0.0615 1.02286,0.0704 1.36283,0.29315 0.67609,0.44299 2.16051,2.51746 2.5679,3.58863 0.24375,0.64092 0.30906,0.57154 1.29299,-1.37363 1.03147,-2.03915 1.03423,-2.05291 0.59505,-2.97388 -0.24267,-0.50888 -0.6736,-0.999 -0.95762,-1.08914 -0.34949,-0.11093 -0.41553,-0.22624 -0.20433,-0.35677 0.22863,-0.1413 0.20261,-0.2837 -0.0973,-0.53264 -0.43001,-0.35687 -0.54865,-0.80691 -0.21096,-0.80019 0.10914,0.002 0.61516,0.71477 1.12448,1.58355 0.50932,0.86878 1.01588,1.58138 1.12568,1.58355 0.10981,0.002 -1.06094,2.52294 -2.60166,5.6017 -1.54071,3.07876 -3.49082,7.15666 -4.33357,9.06198 -1.42309,3.21739 -3.18628,8.18214 -3.18628,8.97184 0,0.7988 -1.60934,2.81725 -2.80485,3.51787 -2.486424,1.45714 -8.489394,2.1507 -11.482652,1.32665 z m 7.154691,-1.09108 c 1.183586,-0.36817 2.105725,-1.19202 2.105725,-1.88128 0,-0.83307 -0.909732,-2.62502 -1.768796,-3.48408 -0.609758,-0.60976 -0.618935,-0.65181 -0.113378,-0.51961 0.47163,0.12334 0.511881,0.0725 0.282241,-0.35661 -0.337662,-0.63092 -1.609822,-1.29968 -2.472354,-1.29968 -0.720842,0 -1.157598,0.4164 -0.625715,0.59655 0.182807,0.0619 -1.215435,0.18064 -3.107206,0.26382 -3.666161,0.16122 -5.778804,0.70194 -6.261198,1.60254 -0.639586,1.19408 0.93903,3.65293 3.030124,4.71972 1.701038,0.86781 6.654255,1.06672 8.930557,0.35863 z m -13.769066,-7.75284 c -4.41e-4,-0.72693 0.829166,-1.84547 2.786639,-3.75717 1.11754,-1.09141 3.233026,-3.47266 4.70108,-5.29167 3.718952,-4.60801 11.805698,-14.9513 14.169958,-18.12396 3.11602,-4.18147 4.23432,-5.39631 5.60843,-6.09263 1.98978,-1.00829 5.12203,-1.97741 6.38242,-1.97471 1.13267,0.002 1.15381,0.0198 2.1396,1.7536 0.5476,0.96313 1.05382,2.00382 1.12494,2.31265 0.0817,0.35492 -0.30683,1.34026 -1.0561,2.67818 -0.65197,1.16416 -1.92683,3.57053 -2.83301,5.34748 -0.90618,1.77695 -1.69532,3.1831 -1.75364,3.12478 -0.0583,-0.0583 0.22772,-0.76518 0.63564,-1.57079 0.7301,-1.4419 0.73446,-1.47828 0.27942,-2.33103 -0.25424,-0.47645 -0.65025,-1.22346 -0.88003,-1.66003 -0.22978,-0.43656 -0.66126,-1.06164 -0.95883,-1.38906 -0.30782,-0.33868 -0.40421,-0.59531 -0.22362,-0.59531 0.34867,0 2.4141,3.10739 2.41813,3.63802 0.005,0.70904 0.45252,0.26737 1.1321,-1.11827 0.39086,-0.79695 0.64053,-1.63174 0.55483,-1.85508 -0.10522,-0.27419 -0.0356,-0.35993 0.21447,-0.26399 0.24442,0.0938 0.56748,-0.26375 0.95032,-1.05174 0.62058,-1.27734 0.51425,-2.11396 -0.39656,-3.12039 -0.23151,-0.25582 -0.35393,-0.53213 -0.27203,-0.61403 0.0819,-0.0819 0.44634,0.34989 0.80987,0.95951 0.63852,1.07075 0.67143,1.08887 0.96878,0.53328 0.25934,-0.48458 0.19087,-0.77079 -0.43483,-1.81779 -0.40845,-0.68345 -0.91387,-1.58392 -1.12316,-2.00104 -0.36857,-0.73456 -0.42652,-0.75299 -1.84381,-0.58642 -0.8048,0.0946 -1.5553,0.31681 -1.66778,0.49381 -0.11247,0.17701 -0.20632,0.24086 -0.20855,0.14188 -0.005,-0.22604 -4.16362,1.27247 -4.95798,1.78658 -0.32356,0.20942 -1.68529,1.8386 -3.02607,3.6204 -8.662843,11.51235 -18.585769,23.8716 -20.563848,25.61277 -0.893127,0.78617 -1.860725,1.90789 -2.150218,2.49272 -0.289494,0.58482 -0.526446,0.90858 -0.526561,0.71945 z"
         id="path315" /></g></g></svg>
