<?xml version="1.0" encoding="UTF-8" standalone="no"?>
<!-- Created with Inkscape (http://www.inkscape.org/) -->

<svg
   width="53.736526mm"
   height="65.648285mm"
   viewBox="0 0 53.736526 65.648285"
   version="1.1"
   id="svg1"
   inkscape:export-filename="the-eagle.svg"
   inkscape:export-xdpi="96"
   inkscape:export-ydpi="96"
   xml:space="preserve"
   xmlns:inkscape="http://www.inkscape.org/namespaces/inkscape"
   xmlns:sodipodi="http://sodipodi.sourceforge.net/DTD/sodipodi-0.dtd"
   xmlns="http://www.w3.org/2000/svg"
   xmlns:svg="http://www.w3.org/2000/svg"><sodipodi:namedview
     id="namedview1"
     pagecolor="#ffffff"
     bordercolor="#000000"
     borderopacity="0.25"
     inkscape:showpageshadow="2"
     inkscape:pageopacity="0.0"
     inkscape:pagecheckerboard="0"
     inkscape:deskcolor="#d1d1d1"
     inkscape:document-units="mm"><inkscape:page
       x="0"
       y="0"
       width="53.736526"
       height="65.648285"
       id="page2"
       margin="0"
       bleed="0" /></sodipodi:namedview><defs
     id="defs1" /><g
     inkscape:label="Calque 1"
     inkscape:groupmode="layer"
     id="layer1"
     transform="translate(-112.59558,-117.08762)"><g
       id="g393"
       transform="translate(-19.818266,-3.5618081)"><path
         style="fill:#d3e7f4"
         d="M 132.42397,153.45834 V 120.65 h 26.8552 26.85521 v 32.80834 32.80833 h -26.85521 -26.8552 z"
         id="path400" /><path
         style="fill:#c3d9e9"
         d="m 142.47813,186.08269 c 4.28689,-1.53605 10.7712,-4.44282 13.74271,-6.16054 l 0.67708,-0.3914 -0.60247,-0.091 c -0.33136,-0.05 -0.58514,-0.23109 -0.56396,-0.40236 0.11671,-0.94385 -0.0536,-1.23743 -0.71805,-1.23743 -0.60863,0 -0.65031,-0.0525 -0.33932,-0.42718 0.30428,-0.36663 0.262,-0.5075 -0.29834,-0.99392 -0.35907,-0.31171 -0.86828,-0.92315 -1.13158,-1.35876 l -0.47872,-0.79201 0.54486,0.62462 c 0.29968,0.34355 0.54487,0.53115 0.54487,0.4169 0,-0.11425 0.2679,0.0268 0.59532,0.31347 1.95392,1.71066 6.0639,2.50249 10.2526,1.97527 3.30646,-0.41617 5.40893,-1.23735 6.90961,-2.69873 1.08998,-1.06143 1.34388,-1.52706 1.94768,-3.57187 1.52577,-5.16706 2.79362,-8.09176 8.13051,-18.7555 2.33052,-4.65666 4.28369,-8.51627 4.34038,-8.57691 0.0567,-0.0606 0.10307,9.43461 0.10307,21.10053 v 21.21076 h -12.99642 -12.99641 l 1.53329,-1.19062 c 1.97756,-1.53562 1.54825,-1.53562 -0.67588,0 l -1.71979,1.1874 -8.59896,-0.0193 c -4.72942,-0.0106 -8.42036,-0.0833 -8.20208,-0.16148 z m 17.45339,-9.08383 c -0.95089,-0.11133 -2.17568,-0.3891 -2.72176,-0.61727 -2.68075,-1.12009 -4.9293,-3.64353 -5.50826,-6.18164 -0.52532,-2.30299 -0.11766,-3.12545 3.30682,-6.67144 1.62465,-1.68229 3.48835,-3.77309 4.14155,-4.64622 0.6532,-0.87312 2.60714,-3.37343 4.34209,-5.55625 5.06854,-6.37694 6.5691,-8.30819 10.65597,-13.71443 1.33834,-1.77039 2.82662,-3.60682 3.30729,-4.08094 0.98622,-0.97277 5.37942,-2.80362 7.42239,-3.09325 l 1.25677,-0.17818 v 5.05792 5.05792 l -4.70223,9.44423 c -5.85566,11.76084 -7.26681,15.00119 -8.42718,19.35091 -0.9429,3.5345 -2.71287,4.85337 -7.64038,5.69311 -2.56133,0.43651 -2.80962,0.4427 -5.43307,0.13553 z m -3.63181,-11.96255 c 1.34766,-0.79285 3.51781,-1.84702 4.82255,-2.34258 2.10059,-0.79784 2.27295,-0.91065 1.50515,-0.98514 -0.4769,-0.0463 -1.42384,0.0346 -2.1043,0.17976 -0.68047,0.14512 -1.2898,0.21128 -1.35407,0.14701 -0.0643,-0.0643 0.16908,-0.50235 0.51856,-0.97351 1.16257,-1.56729 5.9297,-8.181 6.73532,-9.34428 0.43657,-0.63038 2.2225,-3.13554 3.96875,-5.56703 1.74625,-2.43149 3.53219,-4.92181 3.96875,-5.53405 0.43656,-0.61224 1.06975,-1.48563 1.40708,-1.94087 0.33733,-0.45524 0.55104,-0.8277 0.47491,-0.8277 -0.0761,0 -0.8801,0.98226 -1.7866,2.18281 -1.43152,1.89587 -2.96314,3.87383 -8.95893,11.56969 -5.91504,7.59221 -8.13399,10.27674 -10.28357,12.44125 -2.13376,2.14859 -3.21018,3.62556 -3.21018,4.40475 0,0.10363 0.41541,-0.2969 0.92314,-0.89007 0.50773,-0.59316 2.02578,-1.72718 3.37344,-2.52004 z m -2.17338,-1.66337 c -0.004,-0.14952 0.1705,-0.52461 0.38687,-0.83352 0.30477,-0.43512 0.37928,-1.2771 0.33073,-3.73725 -0.0345,-1.74658 -0.15197,-3.12064 -0.26111,-3.05347 -0.10914,0.0672 -0.21411,-0.0933 -0.23327,-0.35652 -0.0192,-0.26325 -0.12254,-0.0619 -0.22975,0.44741 l -0.19493,0.92604 -0.0557,-1.19063 c -0.0306,-0.65484 -0.11578,-1.04179 -0.18917,-0.85989 -0.10363,0.25681 -2.48961,0.33073 -10.6764,0.33073 h -10.54295 l -0.0234,-17.19821 -0.0234,-17.19822 26.86024,0.003 26.86025,0.003 v 5.5534 5.5534 l -0.99219,0.0403 c -1.19182,0.0484 -1.37797,0.0813 -2.01338,0.35544 -0.27062,0.11677 -0.82576,0.22433 -1.23364,0.23902 -0.40787,0.0147 -0.69202,0.0768 -0.63144,0.13795 0.0606,0.0612 -0.60285,0.42684 -1.4743,0.81256 -0.87146,0.38572 -1.95639,1.0327 -2.41097,1.43773 -0.45458,0.40503 -0.98873,0.76023 -1.18701,0.78933 -0.19828,0.0291 -0.45325,0.15482 -0.5666,0.27938 -0.11335,0.12455 -0.0418,0.13127 0.15896,0.0149 0.25117,-0.14554 0.32339,-0.0969 0.23151,0.15602 -0.0735,0.20216 -0.26749,0.33779 -0.4312,0.30141 -0.16371,-0.0364 -0.27236,0.0232 -0.24144,0.1323 0.0776,0.27409 -0.56738,1.43201 -1.08428,1.94648 -0.80668,0.80287 -1.5194,1.71502 -1.69247,2.16603 -0.0953,0.24835 -0.35561,0.45155 -0.57845,0.45155 -0.22546,0 -0.40518,0.22906 -0.40518,0.51643 0,0.28404 -0.41672,0.92114 -0.92604,1.41579 -0.50933,0.49465 -0.92605,1.03616 -0.92605,1.20336 0,0.1672 -0.20836,0.30218 -0.46302,0.29995 -0.39569,-0.003 -0.40531,-0.0413 -0.0661,-0.26053 0.21828,-0.14107 0.26262,-0.2583 0.0985,-0.26053 -0.37858,-0.005 -0.93894,0.65485 -0.73184,0.86196 0.0857,0.0857 0.35258,0.0822 0.59302,-0.008 0.37913,-0.14189 0.38928,-0.10474 0.0764,0.2799 -0.19839,0.24392 -0.46923,0.37643 -0.60186,0.29445 -0.13264,-0.082 -0.22411,-0.0509 -0.20328,0.0691 0.11306,0.65081 -0.0833,0.84702 -0.76183,0.76115 -0.58818,-0.0744 -0.73705,0.0119 -0.73705,0.42722 0,0.45603 0.0376,0.46914 0.3032,0.10585 0.16676,-0.22806 0.37937,-0.41465 0.47247,-0.41465 0.31066,0 0.17436,0.42385 -0.30301,0.94229 -0.25975,0.2821 -0.67876,0.81057 -0.93113,1.17437 -0.25238,0.3638 -0.6054,0.66413 -0.7845,0.6674 -0.1791,0.003 -0.29234,0.20426 -0.25165,0.44665 0.0677,0.40307 0.006,0.40656 -0.7276,0.0408 -0.53866,-0.26872 -0.79549,-0.5888 -0.78299,-0.97582 0.018,-0.55669 0.0262,-0.55825 0.24598,-0.0468 0.14994,0.34892 0.23235,0.39398 0.24194,0.1323 0.008,-0.21829 -0.0897,-0.56144 -0.21706,-0.76257 -0.31414,-0.496 -0.65642,0.55234 -0.42175,1.29173 0.0964,0.30356 0.0476,0.52917 -0.11446,0.52917 -0.27718,0 -0.40818,-0.53741 -0.32248,-1.32292 0.14959,-1.37099 0.0225,-3.53877 -0.22488,-3.83689 -0.22266,-0.2683 -0.17864,-0.38657 0.18475,-0.49634 0.26239,-0.0793 0.0491,-0.0873 -0.474,-0.0178 -0.66455,0.0882 -1.1428,-0.0195 -1.5875,-0.35772 -0.35004,-0.2662 -1.20075,-0.69422 -1.89047,-0.95115 -0.68971,-0.25694 -1.32182,-0.57685 -1.40467,-0.71091 -0.0829,-0.13406 -0.55548,-0.24374 -1.05029,-0.24374 -1.08022,0 -3.36909,-1.29682 -3.17617,-1.79955 0.0727,-0.18953 0.0148,-0.27201 -0.12878,-0.18329 -0.14355,0.0887 -0.58867,-0.0196 -0.98915,-0.2408 -1.19196,-0.65824 -6.76611,-3.25584 -7.40198,-3.44938 -0.32362,-0.0985 -0.79987,-0.44763 -1.05833,-0.77584 -0.25846,-0.32821 -0.77817,-0.79854 -1.15491,-1.04519 l -0.68498,-0.44846 0.0576,1.85495 c 0.0317,1.02023 0.19004,2.01457 0.35195,2.20966 0.16192,0.19509 0.22502,0.42408 0.14023,0.50887 -0.30372,0.30372 0.20384,1.25236 0.67006,1.25236 0.69039,0 1.82086,0.97381 1.91837,1.65252 0.0899,0.62596 1.33818,1.23002 6.13712,2.96998 1.32737,0.48127 3.39567,1.24418 4.59622,1.69536 l 2.18281,0.82033 0.0264,-0.85711 c 0.0145,-0.47142 0.10381,-1.12226 0.19844,-1.44631 l 0.17207,-0.5892 1.55864,0.78763 c 0.85725,0.4332 1.66942,0.78764 1.80483,0.78764 0.59181,0 0.88711,0.77524 0.90706,2.38125 0.0117,0.94588 0.17412,2.23617 0.36083,2.8673 0.33588,1.13531 0.33012,1.15639 -0.54195,1.98437 -0.48479,0.46028 -0.73506,0.64009 -0.55615,0.39958 0.1789,-0.24051 0.23101,-0.48889 0.1158,-0.55195 -0.11521,-0.0631 -0.0705,-0.0822 0.0994,-0.0424 0.37254,0.0871 0.72761,-0.7143 0.41271,-0.93154 -0.12233,-0.0844 -0.36797,-0.51394 -0.54586,-0.95453 -0.1779,-0.4406 -0.57273,-0.95676 -0.87739,-1.14703 -0.4797,-0.29958 -4.70877,-2.15293 -4.91265,-2.15293 -0.0408,0 -0.0742,0.24432 -0.0742,0.54293 0,0.36538 0.25958,0.63342 0.79375,0.81963 0.78807,0.27472 1.08591,1.07148 0.52916,1.41556 -0.40603,0.25095 -0.31429,1.93195 0.15999,2.9314 0.29954,0.63124 0.39376,1.40266 0.31998,2.61967 -0.0575,0.94874 -0.0738,1.72498 -0.0361,1.72498 0.0376,0 0.23766,-0.32298 0.44449,-0.71772 l 0.37605,-0.71772 -0.0371,0.95298 c -0.0238,0.61141 -0.34778,1.38559 -0.90389,2.15996 -1.1076,1.54231 -4.01241,4.6258 -4.021,4.26835 z m -3.89523,-14.76297 c 0.14824,-1.51926 0.13937,-1.5449 -0.6263,-1.81182 -0.84245,-0.29368 -1.0652,-1.01281 -0.31365,-1.0126 0.25466,8e-5 1.0881,0.23772 1.85209,0.52809 l 1.38906,0.52796 -5.3e-4,-0.59424 c -5.7e-4,-0.64924 -0.68359,-0.98546 -5.55572,-2.7349 -2.14988,-0.77196 -2.50393,-0.98188 -2.44707,-1.45092 0.0482,-0.39724 -0.0612,-0.52404 -0.39687,-0.46007 -0.50319,0.0959 -0.81845,1.27353 -0.34094,1.27353 0.16033,0 0.39919,0.26789 0.5308,0.59531 0.13161,0.32743 0.24683,0.43946 0.25606,0.24897 0.0241,-0.49738 0.54594,-0.10446 0.54594,0.41106 0,0.23669 0.26477,0.71218 0.58837,1.05665 0.46986,0.50013 0.51606,0.671 0.22936,0.84819 -0.25426,0.15714 -0.0978,0.27981 0.5361,0.42039 0.74099,0.16432 0.80647,0.22994 0.38028,0.38113 -0.40752,0.14456 -0.25585,0.2591 0.7276,0.54948 1.43477,0.42363 1.65944,0.88706 0.35629,0.73493 -0.72854,-0.085 -0.86537,-0.024 -0.76929,0.34347 0.0643,0.2458 0.34399,0.50631 0.62158,0.5789 0.29381,0.0768 0.5047,0.36345 0.5047,0.68592 0,0.41448 0.16653,0.55394 0.66146,0.55394 0.36381,0 0.66508,0.14882 0.66951,0.33072 0.021,0.86421 0.46606,-0.6194 0.60117,-2.00409 z m 12.03531,-2.12407 c -0.19378,-0.19378 -0.61776,-0.49438 -0.94218,-0.668 -0.56968,-0.30489 -0.5884,-0.27691 -0.54751,0.81811 0.0364,0.97433 0.0574,1.01285 0.14906,0.27389 0.11067,-0.89177 0.5996,-1.212 0.60596,-0.39688 0.002,0.25466 0.0759,0.73268 0.16418,1.06227 0.1321,0.493 0.0728,0.57438 -0.33434,0.45903 -0.2722,-0.0771 -0.13772,0.0294 0.29884,0.23675 l 0.79375,0.37697 0.0823,-0.90491 c 0.046,-0.50565 -0.0732,-1.06035 -0.27004,-1.25723 z m -6.10878,0.19082 c -0.25656,-0.25655 -2.83158,-1.0991 -2.83158,-0.9265 0,0.10107 0.3791,0.32686 0.84245,0.50176 1.06398,0.40161 0.86054,0.66384 -0.26466,0.34113 -1.37401,-0.39406 -0.95756,0.16986 0.47743,0.64648 0.72589,0.24111 1.4105,0.5781 1.52135,0.74887 0.12336,0.19003 0.23494,0.0188 0.28761,-0.44129 0.0473,-0.41349 0.0327,-0.80519 -0.0326,-0.87045 z"
         id="path399" /><path
         style="fill:#b8d2e4"
         d="m 157.82396,185.8698 c 0,-0.21829 0.0893,-0.39781 0.19844,-0.39894 0.10914,-10e-4 0.34196,-0.3113 0.51738,-0.68924 0.28895,-0.62255 0.27114,-0.67467 -0.18939,-0.55424 -0.27958,0.0731 -0.49831,0.0558 -0.48605,-0.0384 0.0865,-0.66466 -0.1353,-0.83276 -1.09871,-0.83276 -0.58208,0 -1.05833,-0.11906 -1.05833,-0.26458 0,-0.14552 -0.4535,-0.26458 -1.00777,-0.26458 -0.55427,0 -1.23057,-0.16292 -1.50289,-0.36205 -0.47679,-0.34864 -0.47258,-0.37411 0.11365,-0.68786 0.39163,-0.20959 0.54464,-0.22201 0.42895,-0.0348 -0.22113,0.35779 0.11129,0.37139 0.64514,0.0264 0.28839,-0.18637 0.3022,-0.25758 0.0505,-0.26053 -0.19049,-0.002 -0.27597,-0.11791 -0.18996,-0.25708 0.17611,-0.28496 0.94941,-0.0653 1.28887,0.36602 0.13446,0.17087 0.1641,0.0996 0.0745,-0.17914 -0.0968,-0.30076 -0.0105,-0.46302 0.24617,-0.46302 0.21732,0 0.51267,-0.30917 0.65634,-0.68706 0.14367,-0.37788 0.49791,-0.74896 0.7872,-0.82461 0.52947,-0.13846 0.75179,-0.86958 0.26443,-0.86958 -0.4105,0 -1.32595,-0.8734 -1.32595,-1.26504 0,-0.20615 -0.13796,-0.2758 -0.33072,-0.16696 -0.23992,0.13544 -0.25304,0.102 -0.0478,-0.12181 0.21438,-0.23376 0.567,-0.20211 1.45521,0.13062 1.70091,0.63717 7.40971,0.6324 9.90352,-0.008 4.0655,-1.04446 5.24374,-2.29096 6.77131,-7.16357 0.59374,-1.89392 1.57528,-4.57232 2.18119,-5.95201 1.40626,-3.20206 9.6504,-19.84877 9.82994,-19.84877 0.0744,0 0.13527,9.46547 0.13527,21.03437 v 21.03438 h -6.23572 -6.23573 l 0.54718,-0.76845 c 0.30095,-0.42264 0.54719,-0.82677 0.54719,-0.89806 0,-0.0713 0.35718,-0.51198 0.79375,-0.97932 0.43656,-0.46734 0.79375,-0.98331 0.79375,-1.1466 0,-0.16329 -0.34326,0.11719 -0.76279,0.62329 -0.41954,0.5061 -1.13201,1.3369 -1.58328,1.84622 -0.45126,0.50933 -0.82238,1.01534 -0.82471,1.12448 -0.002,0.10914 -2.89149,0.19793 -6.42037,0.19731 l -6.41614,-0.001 1.081,-0.72647 c 0.59456,-0.39956 1.54706,-1.18039 2.11667,-1.73517 l 1.03566,-1.00871 -0.97493,0.53147 c -0.53622,0.29231 -1.47464,0.84693 -2.0854,1.23248 -0.88581,0.55919 -1.15611,0.62897 -1.33612,0.34494 -0.17437,-0.27513 -0.22658,-0.25082 -0.22971,0.10696 -0.003,0.31796 -0.21387,0.46302 -0.67381,0.46302 -0.36837,0 -0.7383,0.17859 -0.82206,0.39688 -0.0838,0.21828 -0.25862,0.39687 -0.38857,0.39687 -0.12995,0 -0.23628,-0.17859 -0.23628,-0.39687 z m 2.17303,-8.88561 c -1.23059,-0.12127 -2.44601,-0.44343 -3.35997,-0.89059 -3.44391,-1.68495 -5.68328,-5.49135 -4.90559,-8.33838 0.25834,-0.94574 0.88711,-1.76333 3.15396,-4.10104 2.52123,-2.60003 5.3782,-6.09119 12.65459,-15.46361 1.19646,-1.54111 2.51683,-3.21874 2.93416,-3.72807 0.41733,-0.50932 1.92084,-2.47385 3.34114,-4.36562 3.73785,-4.97865 4.04157,-5.25286 7.14875,-6.45413 1.46124,-0.56494 3.22236,-1.10734 3.91358,-1.20533 l 1.25677,-0.17818 v 5.0498 5.0498 l -4.46713,8.92319 c -5.93161,11.84851 -6.81256,13.89446 -8.95845,20.80555 -0.58814,1.89416 -2.2153,3.42113 -4.34219,4.07486 -2.7385,0.84171 -5.45784,1.1087 -8.36962,0.82175 z m -3.54084,-12.08902 c 1.05892,-0.62199 3.13933,-1.59875 4.62312,-2.17058 l 2.69782,-1.0397 -1.32292,-0.006 c -0.7276,-0.003 -1.7694,0.0978 -2.3151,0.22449 -0.5457,0.12673 -0.99219,0.15075 -0.99219,0.0534 0,-0.0974 1.10133,-1.67256 2.4474,-3.50044 1.34606,-1.82787 4.11427,-5.67108 6.15156,-8.54045 6.52964,-9.19651 9.44791,-13.24279 10.02259,-13.89662 0.30841,-0.35089 0.40884,-0.55032 0.22318,-0.44319 -0.18565,0.10714 -1.42477,1.64438 -2.75359,3.4161 -1.32882,1.77172 -3.02875,3.99522 -3.77762,4.94111 -0.74886,0.94588 -2.41974,3.08901 -3.71307,4.7625 -5.97162,7.72695 -11.60327,14.56836 -13.19284,16.02683 -1.41753,1.30062 -2.55136,2.9287 -2.55136,3.66353 0,0.0705 0.56874,-0.43169 1.26386,-1.11598 0.69512,-0.6843 2.13024,-1.75307 3.18916,-2.37505 z m -2.07177,-1.88439 c 0,-0.14344 0.10972,-0.32861 0.24382,-0.41149 0.39571,-0.24456 0.62661,-3.41555 0.42498,-5.83614 -0.17875,-2.14579 -0.21572,-2.24648 -0.82484,-2.24648 -0.35074,0 -0.63771,-0.1012 -0.63771,-0.2249 0,-0.12369 0.48766,-0.17613 1.08369,-0.11652 0.71904,0.0719 1.02539,0.014 0.91043,-0.17198 -0.0953,-0.15419 -0.61272,-0.29819 -1.14984,-0.31999 -0.76217,-0.0309 -0.82164,-0.0634 -0.27086,-0.14776 0.67251,-0.10302 0.70992,-0.19142 0.79505,-1.87858 0.081,-1.60462 -0.078,-2.15133 -0.62888,-2.1633 -0.10254,-0.002 -0.26674,0.44243 -0.36488,0.98813 -0.241,1.34012 -0.91516,2.4474 -1.49009,2.4474 -0.25966,0 -0.47212,-0.11906 -0.47212,-0.26458 0,-0.14552 0.097,-0.26459 0.21558,-0.26459 0.28339,0 1.10734,-1.73914 1.10734,-2.33731 0,-0.59124 -0.50207,-1.10227 -1.08294,-1.10227 -0.24637,0 -0.51648,-0.17859 -0.60024,-0.39688 -0.27328,-0.71216 -0.96266,-0.45955 -0.96266,0.35275 0,0.41229 -0.1363,1.42835 -0.3029,2.25791 -0.27605,1.37454 -0.25845,1.54129 0.19843,1.88042 0.27574,0.20467 0.94721,0.44913 1.49215,0.54324 0.54494,0.0941 1.06918,0.29793 1.16498,0.45293 0.21367,0.34572 -1.25989,0.1358 -3.34641,-0.47671 -3.77135,-1.10711 -6.44497,-1.80527 -8.99583,-2.34906 -2.29736,-0.48975 -2.77832,-0.67593 -2.77925,-1.07585 -6.6e-4,-0.2816 -0.22169,-0.51457 -0.52917,-0.55775 -1.25799,-0.17665 -3.31049,-0.79408 -3.59909,-1.08268 -0.52216,-0.52216 -0.61124,-4.02755 -0.13094,-5.15262 0.22872,-0.53576 0.53866,-1.05 0.68876,-1.14277 0.1501,-0.0928 0.19293,-0.29806 0.0952,-0.45622 -0.24665,-0.39909 2.5782,-0.0928 3.29969,0.35779 0.30223,0.18875 0.63828,0.2544 0.74679,0.14589 0.1085,-0.1085 0.22393,-1.26157 0.25649,-2.56238 0.0326,-1.3008 0.12243,-2.46738 0.19969,-2.59239 0.0773,-0.12501 0.22182,-1.02127 0.32125,-1.99167 0.15691,-1.53161 0.12358,-1.76437 -0.25265,-1.76437 -0.23838,0 -0.43341,-0.11906 -0.43341,-0.26458 0,-0.14552 0.11906,-0.26458 0.26458,-0.26458 0.14552,0 0.26458,-0.1786 0.26458,-0.39688 0,-0.21828 -0.11906,-0.39687 -0.26458,-0.39687 -0.14552,0 -0.26458,0.12756 -0.26458,0.28348 0,0.36631 -0.67313,1.03943 -1.03944,1.03943 -0.15591,0 -0.28415,0.0893 -0.28496,0.19844 -8.1e-4,0.10914 -0.53659,0.76354 -1.19063,1.45422 -0.65403,0.69068 -1.18923,1.34552 -1.18935,1.4552 -1.1e-4,0.10969 -0.41503,0.66552 -0.92204,1.23518 -0.507,0.56967 -0.99118,1.25428 -1.07595,1.52136 -0.50986,1.6064 -0.64763,-0.31666 -0.64763,-9.0394 v -9.525 l 9.45885,0.004 9.45885,0.004 -0.82577,0.72338 c -0.45418,0.39786 -1.74791,1.49729 -2.87497,2.44317 -3.03356,2.54593 -3.89015,3.37729 -3.63943,3.53224 0.12384,0.0765 0.9926,-0.62398 1.93058,-1.5567 0.93799,-0.93272 1.79267,-1.69925 1.89929,-1.70341 0.20113,-0.008 1.08479,-0.75389 2.90771,-2.45494 l 1.06328,-0.99219 9.16236,0.009 9.16237,0.009 -4.23333,2.13996 c -4.91446,2.48426 -11.77396,6.47255 -11.77396,6.84568 0,0.14116 -0.23813,0.25665 -0.52917,0.25665 -0.29104,0 -0.52998,0.0893 -0.53097,0.19844 -10e-4,0.10914 -0.44408,0.49609 -0.98463,0.85989 -0.95234,0.64094 -1.33836,0.94279 -2.45315,1.91823 -0.29104,0.25466 -0.62578,0.46302 -0.74386,0.46302 -0.11808,0 -0.50273,0.26789 -0.85478,0.59531 -0.35205,0.32743 -0.74423,0.56137 -0.87149,0.51989 -0.37211,-0.1213 -1.00518,0.52674 -0.86682,0.8873 0.21048,0.54848 -1.24134,0.77156 -1.55718,0.23927 -0.66235,-1.11626 -1.23129,-1.65856 -1.86764,-1.78021 -0.79138,-0.15128 -1.14934,0.38784 -0.65389,0.98482 0.24183,0.29138 0.24692,0.82946 0.0216,2.28168 -0.16217,1.04521 -0.26149,1.92188 -0.22071,1.94814 0.0408,0.0263 0.75292,0.38373 1.58254,0.79436 1.16451,0.5764 1.54531,0.91469 1.67032,1.48387 0.14561,0.66295 0.50026,0.8695 3.51869,2.04933 1.84622,0.72163 4.28235,1.64049 5.41363,2.04191 2.25205,0.7991 2.64573,1.24913 0.45667,0.52204 -0.74645,-0.24793 -1.39737,-0.40889 -1.44647,-0.35769 -0.0491,0.0512 -0.13069,0.36635 -0.1813,0.70031 -0.0791,0.52175 0.13139,0.69845 1.49548,1.25555 0.87313,0.35659 1.60402,0.64889 1.6242,0.64956 0.0202,6.8e-4 0.11488,-0.41549 0.21043,-0.92481 0.18483,-0.98524 0.38031,-1.11881 0.89058,-0.60854 0.17463,0.17462 0.3175,0.22996 0.3175,0.12298 0,-0.10699 0.21231,-0.0809 0.47179,0.058 0.38474,0.20591 0.473,0.14661 0.47835,-0.32142 0.004,-0.31565 0.0294,-1.01017 0.0574,-1.54338 l 0.0508,-0.96948 1.65365,0.77615 c 0.90951,0.42688 1.83224,0.87641 2.05052,0.99896 0.28258,0.15865 0.40713,0.71722 0.43247,1.93957 0.0196,0.94421 0.1684,1.96491 0.33073,2.26822 0.33514,0.62623 0.39516,1.64562 0.0967,1.64255 -0.10914,-0.001 -0.47242,-0.48176 -0.80728,-1.0681 -0.60289,-1.05565 -2.2002,-2.03509 -4.09417,-2.51044 -0.39927,-0.10021 -0.79138,-0.28808 -0.87136,-0.41748 -0.30191,-0.48851 -0.90792,-0.22319 -0.90792,0.3975 0,0.45431 0.18656,0.6796 0.66146,0.7988 0.72159,0.1811 0.76532,0.42397 0.40898,2.2715 -0.1693,0.87776 -0.12781,1.43254 0.15829,2.11667 0.25199,0.60257 0.36974,1.67922 0.33635,3.07551 -0.0283,1.1816 0.0323,2.28377 0.13458,2.44926 0.10228,0.16549 0.004,0.37058 -0.21761,0.45576 -0.22197,0.0852 -0.47456,0.37851 -0.56132,0.65187 -0.184,0.57973 -3.0374,3.57247 -3.0374,3.18572 z M 150.147,149.44066 c 0.002,-0.53623 0.12259,-1.28674 0.26747,-1.66781 0.23929,-0.62938 0.19081,-0.71816 -0.52917,-0.96915 -0.78635,-0.27412 -0.99863,-0.59512 -0.56912,-0.86058 0.12291,-0.076 0.84481,0.098 1.60423,0.38654 1.51645,0.57621 1.89647,0.51543 1.69097,-0.27041 -0.10113,-0.38671 -1.13856,-0.9105 -4.06081,-2.05026 -3.90995,-1.525 -3.92529,-1.53427 -4.00652,-2.41913 -0.0724,-0.78847 -0.2115,-0.93201 -1.23814,-1.27757 -1.32033,-0.44441 -1.51019,-0.33266 -1.76186,1.03702 -0.16779,0.91317 -0.12434,1.00996 0.57472,1.28027 0.41593,0.16083 0.98071,0.33764 1.25506,0.39291 0.72789,0.14665 0.77688,0.24937 0.82929,1.7388 0.0544,1.54682 0.0782,1.56875 2.90522,2.67479 1.50678,0.58951 1.65477,0.6936 0.79375,0.55828 -0.58208,-0.0915 -1.33397,-0.26873 -1.67087,-0.39389 -0.3369,-0.12515 -0.90244,-0.22755 -1.25677,-0.22755 -0.51808,0 -0.64423,0.13526 -0.64423,0.69077 v 0.69077 l 0.5441,-0.62463 c 0.51185,-0.58759 0.52754,-0.59036 0.26458,-0.0467 -0.15373,0.31785 -0.27952,0.64499 -0.27952,0.72698 0,0.19645 2.65368,1.47323 3.06198,1.47323 0.17442,0 0.65361,0.17457 1.06487,0.38794 0.90545,0.46975 1.1548,0.2054 1.16077,-1.23062 z m 12.43946,-1.97955 c 0,-0.82461 -0.0659,-1.43335 -0.14655,-1.35275 -0.0806,0.0806 -0.82474,-0.18316 -1.65364,-0.58614 l -1.5071,-0.73269 -0.22945,1.17249 c -0.25552,1.30569 -0.24941,1.32362 0.49404,1.45189 0.4377,0.0755 0.55514,-0.0916 0.67946,-0.96703 0.18889,-1.33007 0.54155,-0.70285 0.44625,0.79369 -0.0605,0.95071 -1.5e-4,1.06728 0.59408,1.14688 0.3638,0.0487 0.77457,0.19759 0.91281,0.33079 0.39421,0.37982 0.4101,0.33109 0.4101,-1.25713 z m -21.69583,-2.20486 c 0,-0.79775 -0.10518,-1.05833 -0.42721,-1.05833 -0.23497,0 -1.01714,-0.32108 -1.73816,-0.7135 -1.09623,-0.59665 -1.34947,-0.65118 -1.54615,-0.33293 -0.23409,0.37876 -0.0826,1.53066 0.25034,1.90348 0.16431,0.18401 2.83283,1.1984 3.26274,1.24028 0.10914,0.0106 0.19844,-0.45691 0.19844,-1.039 z m 40.08438,-13.12396 c -0.29105,-0.22393 -0.49941,-0.5178 -0.46303,-0.65305 0.0364,-0.13525 -0.29104,-0.2459 -0.7276,-0.2459 -0.52917,0 -0.79375,-0.1323 -0.79375,-0.39688 0,-0.3197 -0.41157,-0.39687 -2.11667,-0.39687 -1.70509,0 -2.11666,0.0772 -2.11666,0.39687 0,0.33073 -0.52917,0.39688 -3.175,0.39688 -2.64584,0 -3.175,-0.0661 -3.175,-0.39688 0,-0.28663 -0.29398,-0.39687 -1.05834,-0.39687 -0.76435,0 -1.05833,0.11024 -1.05833,0.39687 0,0.33073 -0.52917,0.39688 -3.175,0.39688 -2.64583,0 -3.175,-0.0661 -3.175,-0.39688 0,-0.28663 -0.29398,-0.39687 -1.05833,-0.39687 -0.75754,0 -1.05834,0.11118 -1.05834,0.3912 0,0.31147 -0.38008,0.38419 -1.86489,0.35677 -1.20516,-0.0223 -1.77407,-0.12526 -1.60817,-0.29116 0.14119,-0.14119 0.19375,-0.4208 0.11679,-0.62135 -0.0793,-0.20658 0.0265,-0.36463 0.24411,-0.36463 0.21121,0 0.72997,-0.29751 1.15278,-0.66114 0.84831,-0.72954 1.32449,-0.83434 1.50424,-0.33105 0.0687,0.19237 0.21628,0.23256 0.35278,0.0961 0.13649,-0.13649 0.0963,-0.28407 -0.0961,-0.35278 -0.1819,-0.065 -0.33073,-0.22952 -0.33073,-0.36569 0,-0.34853 1.39421,0.0147 1.74896,0.4557 0.39692,0.49338 0.89687,0.46188 0.89687,-0.0565 0,-0.2319 -0.23812,-0.48391 -0.52917,-0.56002 -0.29287,-0.0766 -0.52916,-0.3609 -0.52916,-0.63669 0,-0.39468 0.19582,-0.49831 0.94165,-0.49831 0.51792,0 0.87613,-0.10604 0.79603,-0.23564 -0.0801,-0.1296 0.14681,-0.42726 0.50424,-0.66146 0.75508,-0.49475 0.93308,-0.52551 0.93308,-0.16123 0,0.14552 -0.20241,0.26458 -0.44979,0.26458 -0.36157,0 -0.38429,0.0649 -0.11582,0.33073 0.2675,0.2649 0.38598,0.23857 0.59523,-0.13229 0.14369,-0.25466 0.43393,-0.46302 0.64498,-0.46302 0.21105,0 0.38373,-0.23813 0.38373,-0.52917 0,-0.29104 0.16586,-0.52917 0.36857,-0.52917 0.20271,0 0.42818,-0.15536 0.50105,-0.34524 0.0729,-0.18989 0.62139,-0.5066 1.21893,-0.70381 0.59755,-0.19721 1.08645,-0.5181 1.08645,-0.71309 0,-0.21527 0.3031,-0.35452 0.7717,-0.35452 0.42444,0 0.81139,-0.0945 0.8599,-0.21001 0.11565,-0.2754 2.71277,-1.37749 3.2461,-1.37749 0.22768,0 0.41397,-0.11906 0.41397,-0.26459 0,-0.16997 2.60173,-0.26458 7.27604,-0.26458 h 7.27604 v 4.89479 c 0,4.17454 -0.0584,4.8948 -0.39687,4.8948 -0.21829,0 -0.39688,0.23109 -0.39688,0.51355 0,0.64506 -0.4813,0.96307 -0.86972,0.57464 -0.39989,-0.39989 -0.79664,-0.37373 -0.55031,0.0363 0.15244,0.25374 0.10988,0.26097 -0.18283,0.031 -0.54442,-0.42767 -2.63047,-0.38163 -2.63047,0.0581 0,0.19121 0.20836,0.46901 0.46302,0.61734 0.25466,0.14832 0.34396,0.26951 0.19844,0.26931 -0.14553,-2e-4 -0.50271,-0.18358 -0.79375,-0.4075 z"
         id="path398" /><path
         style="fill:#aec8d8"
         d="m 161.48002,185.97235 c -0.18339,-0.11334 -0.23129,-0.30184 -0.10644,-0.4189 0.12485,-0.11705 0.28015,-0.064 0.34511,0.11791 0.065,0.1819 0.22353,0.33073 0.35235,0.33073 0.12883,0 0.1657,-0.1786 0.0819,-0.39688 -0.0964,-0.25131 0.004,-0.39687 0.27289,-0.39687 0.23385,0 0.42518,-0.1786 0.42518,-0.39688 0,-0.21828 0.0893,-0.40009 0.19844,-0.40403 0.34316,-0.0124 2.2329,-1.88303 2.06841,-2.04751 -0.0862,-0.0862 -0.48265,0.081 -0.88104,0.37154 -1.41654,1.03302 -1.43004,1.03144 -4.04807,-0.47481 -0.33995,-0.19558 -0.85496,-0.56396 -1.14447,-0.81863 -0.28951,-0.25466 -0.623,-0.4779 -0.74108,-0.49609 -0.11808,-0.0182 -0.35054,-0.048 -0.51659,-0.0662 -0.16604,-0.0182 -0.4337,-0.24203 -0.59479,-0.49742 -0.23937,-0.37948 -0.16002,-0.57853 0.43418,-1.08911 0.76627,-0.65844 0.96124,-1.10654 0.38528,-0.88553 -0.35923,0.13785 -1.09156,-0.28591 -1.27194,-0.73601 -0.0583,-0.14552 -0.19534,-0.23482 -0.30448,-0.19844 -0.10914,0.0364 -0.19844,-0.10716 -0.19844,-0.31899 0,-0.3317 0.15601,-0.32691 1.12448,0.0346 0.78635,0.2935 2.11899,0.42795 4.43177,0.44711 5.53161,0.0458 8.74702,-1.04386 10.59203,-3.58955 0.4533,-0.62547 0.89571,-1.4944 0.98311,-1.93096 0.2717,-1.35699 2.33688,-7.01601 3.57257,-9.78958 1.46514,-3.28857 8.8833,-18.12396 9.06255,-18.12396 0.0723,0 0.13141,4.70297 0.13141,10.45104 0,9.11343 -0.0508,10.45104 -0.39687,10.45104 -0.24695,0 -0.39688,0.24989 -0.39688,0.66146 0,0.41158 0.14993,0.66146 0.39688,0.66146 0.21828,0 0.39687,0.17859 0.39687,0.39687 0,0.25356 -0.25478,0.39688 -0.70556,0.39688 -0.38805,0 -0.63092,0.0746 -0.53971,0.16584 0.0912,0.0912 -0.0192,0.52372 -0.24544,0.96115 -0.30402,0.5879 -0.33094,0.84496 -0.10323,0.98569 0.20567,0.12712 0.0381,0.41751 -0.50422,0.87385 -0.44674,0.37591 -0.81226,0.81022 -0.81226,0.96514 0,0.15491 -0.11906,0.28166 -0.26458,0.28166 -0.14552,0 -0.26458,0.1786 -0.26458,0.39688 0,0.21828 0.11906,0.39687 0.26458,0.39687 0.14552,0 0.26458,-0.17859 0.26458,-0.39687 0,-0.21828 0.11907,-0.39688 0.26459,-0.39688 0.15434,0 0.26458,0.88195 0.26458,2.11667 0,1.94028 -0.0441,2.11667 -0.52917,2.11667 -0.44097,0 -0.52916,0.17639 -0.52916,1.05833 0,0.58208 0.11906,1.05833 0.26458,1.05833 0.14552,0 0.26458,0.47625 0.26458,1.05834 0,0.9525 -0.0661,1.05833 -0.66145,1.05833 -0.60042,0 -0.66228,0.10377 -0.67027,1.12448 -0.0118,1.50607 -0.69387,2.3151 -1.95183,2.3151 -0.87892,0 -0.94978,0.0592 -0.94978,0.79375 0,0.74719 -0.061,0.79375 -1.03893,0.79375 -0.7645,0 -1.07261,-0.1223 -1.16643,-0.46302 -0.0701,-0.25466 -0.0636,0.043 0.0144,0.66146 0.0781,0.61846 0.0726,1.12448 -0.0122,1.12448 -0.26253,0 -1.50105,-1.33175 -1.50105,-1.61404 0,-0.14689 0.47625,-0.96839 1.05834,-1.82554 0.58208,-0.85716 1.05833,-1.66561 1.05833,-1.79656 0,-0.13095 0.2297,-0.44597 0.51043,-0.70003 0.28074,-0.25407 0.70646,-0.87502 0.94604,-1.3799 0.23958,-0.50488 0.6052,-0.98305 0.81248,-1.06259 0.42646,-0.16365 0.51791,-0.88176 0.1123,-0.88176 -0.14552,0 -0.26458,0.1786 -0.26458,0.39688 0,0.21828 -0.10811,0.39687 -0.24023,0.39687 -0.13213,0 -0.45955,0.35119 -0.7276,0.78042 -0.26806,0.42923 -1.30833,1.92005 -2.31171,3.31294 -1.52834,2.12163 -1.91468,2.50733 -2.38125,2.37725 -0.43526,-0.12135 -0.47124,-0.0964 -0.16469,0.11412 0.33056,0.22704 0.26844,0.3986 -0.39511,1.0912 l -0.78734,0.8218 -5.34921,-0.0597 c -2.94206,-0.0328 -5.49925,-0.15239 -5.68264,-0.26573 z m -1.09804,-9.01054 c -3.78198,-0.2901 -6.60351,-2.08971 -8.01944,-5.11493 -1.52413,-3.2564 -1.18612,-4.38901 2.40826,-8.06979 1.4921,-1.52797 4.31329,-4.80219 6.26931,-7.27605 5.80761,-7.34513 10.21465,-13.00357 13.0854,-16.80104 1.48511,-1.96453 3.03848,-3.89264 3.45193,-4.28469 0.89018,-0.8441 5.51135,-2.7309 7.30017,-2.98062 l 1.25677,-0.17545 v 5.05413 5.05412 l -4.47004,8.91886 c -5.85917,11.69052 -7.0816,14.51855 -8.87179,20.52429 -0.65656,2.20264 -2.09365,3.58395 -4.52452,4.34893 -2.41574,0.76022 -5.00279,1.0234 -7.88605,0.80224 z m -5.20385,-11.26332 c 1.86007,-1.21309 3.63516,-2.09719 6.21771,-3.09679 l 2.38125,-0.92168 -1.32292,-0.003 c -0.7276,-0.002 -1.7694,0.1002 -2.3151,0.22692 -0.5457,0.12673 -0.99219,0.15337 -0.99219,0.0592 0,-0.0942 0.80367,-1.25552 1.78594,-2.5808 0.98226,-1.32528 3.75047,-5.17067 6.15156,-8.54532 8.05512,-11.32117 10.11784,-14.17486 10.81555,-14.96289 0.3816,-0.43101 0.46686,-0.6096 0.18945,-0.39688 -0.27741,0.21273 -1.57606,1.81552 -2.88589,3.56177 -1.30983,1.74625 -2.99422,3.94891 -3.74309,4.8948 -0.74886,0.94588 -2.41974,3.08901 -3.71307,4.7625 -5.97162,7.72695 -11.60327,14.56836 -13.19284,16.02683 -1.47771,1.35584 -2.55344,2.93413 -2.55064,3.74227 3.9e-4,0.11382 0.44688,-0.28736 0.99218,-0.89151 0.54531,-0.60414 1.52726,-1.44786 2.1821,-1.87494 z m -0.15287,-3.6412 c 0.10805,-0.29104 0.26171,-1.14334 0.34147,-1.89399 l 0.14501,-1.36483 0.91013,0.11288 c 0.57522,0.0713 0.84885,0.0137 0.74362,-0.15652 -0.0916,-0.14818 -0.51667,-0.26941 -0.94464,-0.26941 -0.73032,0 -0.77553,-0.061 -0.73579,-0.99219 0.0417,-0.97687 0.044,-0.97891 0.14905,-0.13229 0.0996,0.8029 0.17429,0.8599 1.12624,0.8599 0.56584,0 1.08074,-0.14717 1.15711,-0.33073 0.0757,-0.1819 0.10927,-0.0926 0.0747,0.19843 -0.13961,1.17393 -1.0989,2.70679 -2.40093,3.83646 -0.67318,0.58407 -0.73939,0.59955 -0.56593,0.13229 z m 0.21571,-6.2607 c -0.18008,-0.18008 -0.32742,-0.53181 -0.32742,-0.78162 0,-0.24981 -0.14883,-0.5156 -0.33073,-0.59064 -0.1819,-0.075 0.0418,-0.073 0.49708,0.005 0.94877,0.16165 1.27937,-0.18072 1.05143,-1.08891 -0.0946,-0.377 -0.33612,-0.60294 -0.62023,-0.58027 -0.39079,0.0312 -0.45289,-0.15346 -0.388,-1.15351 0.0425,-0.65484 0.19763,-1.23241 0.34475,-1.28349 0.37193,-0.12913 -0.58335,-0.81447 -1.14961,-0.82476 -0.30189,-0.005 -0.46303,0.19222 -0.46303,0.56811 0,0.78629 -0.58035,2.33389 -0.8752,2.33389 -0.13186,0 -0.15283,-0.20836 -0.0466,-0.46302 0.73255,-1.75611 0.77112,-1.94317 0.49231,-2.38798 -0.1573,-0.25096 -0.54902,-0.49529 -0.87048,-0.54296 -0.32145,-0.0477 -0.64946,-0.25602 -0.72889,-0.46302 -0.0794,-0.20699 -0.37808,-0.37635 -0.66368,-0.37635 -0.76848,0 -0.5449,-1.16297 0.24515,-1.27517 0.32742,-0.0465 0.59531,0.0316 0.59531,0.17366 0,0.14202 -0.23812,0.19595 -0.52917,0.11984 -0.29104,-0.0761 -0.52801,-0.0352 -0.5266,0.0909 0.003,0.282 3.6792,1.53053 3.8889,1.32083 0.0829,-0.0829 -0.19326,-0.27553 -0.61362,-0.42813 -1.35521,-0.49195 -1.97097,-0.88548 -1.74269,-1.11376 0.12261,-0.12261 0.75009,0.005 1.39441,0.28385 1.82345,0.78882 2.30568,0.88947 2.4349,0.50824 0.0637,-0.18795 0.0811,-0.12013 0.0386,0.15072 -0.053,0.33813 0.16598,0.58426 0.69891,0.78541 0.61794,0.23325 0.73995,0.40254 0.59853,0.83047 -0.0977,0.29563 -0.26236,0.95422 -0.36593,1.46355 -0.18098,0.89002 -0.18949,0.87655 -0.21873,-0.34635 -0.018,-0.75124 -0.13596,-1.20716 -0.28809,-1.11314 -0.32899,0.20333 -0.31823,4.89907 0.0112,4.89907 0.13554,0 0.24643,-0.381 0.24643,-0.84667 0,-0.64515 0.0735,-0.77318 0.30873,-0.53794 0.43759,0.43759 -0.48229,2.44294 -1.12061,2.44294 -0.25681,0 -0.50811,0.12353 -0.55844,0.27451 -0.0584,0.17536 -0.20975,0.15625 -0.41892,-0.0529 z m -6.78688,-2.83047 c -0.0774,-0.12519 -0.70433,-0.30488 -1.39324,-0.39931 -0.6889,-0.0944 -2.03161,-0.42131 -2.98378,-0.72642 -0.95218,-0.30511 -1.90649,-0.60807 -2.12069,-0.67326 -0.22693,-0.069 -0.28214,-0.19538 -0.13229,-0.30271 1.11969,-0.80201 1.97136,-3.35132 1.97543,-5.91301 0.001,-0.8348 -0.1057,-1.00369 -0.78637,-1.24097 -0.95183,-0.33181 -1.02461,-0.23464 -1.07147,1.43056 -0.047,1.67067 -0.50431,3.81942 -0.81285,3.81942 -0.13101,0 -0.24216,0.14883 -0.247,0.33073 -0.0134,0.50362 -0.95064,1.52135 -1.40103,1.52135 -0.72215,0 -1.23599,-0.31411 -1.23656,-0.75591 -4.1e-4,-0.32515 -0.53213,-0.56007 -2.10975,-0.93212 -2.41862,-0.57038 -2.50589,-0.68595 -2.44295,-3.23537 0.0672,-2.72241 0.84468,-4.07243 2.34531,-4.07243 0.86005,0 0.88589,0.0317 0.9155,1.12448 0.0168,0.61846 0.0104,1.32595 -0.014,1.5722 -0.0514,0.5174 1.14923,1.40049 1.55944,1.14697 0.15192,-0.0939 0.27622,-0.0446 0.27622,0.10948 0,0.15411 0.1802,0.2802 0.40046,0.2802 0.22026,0 0.64061,0.14883 0.93412,0.33073 0.7199,0.44616 1.01147,-0.0348 0.80208,-1.32299 -0.12036,-0.74044 -0.31325,-1.01283 -0.8164,-1.15287 -0.36234,-0.10086 -0.50998,-0.19524 -0.32808,-0.20974 0.1819,-0.0145 0.33073,-0.15835 0.33073,-0.31964 0,-0.17233 -0.2464,-0.23143 -0.59751,-0.1433 -0.67501,0.16941 -1.49097,-0.21644 -1.14454,-0.54124 0.12485,-0.11705 0.28015,-0.064 0.34511,0.11791 0.065,0.1819 0.24184,0.33073 0.39305,0.33073 0.17954,0 0.18647,-0.11476 0.02,-0.33073 -0.16481,-0.21379 -0.1342,-1.45335 0.0866,-3.50573 0.18785,-1.74625 0.34753,-3.32383 0.35485,-3.50573 0.007,-0.1819 0.28716,-0.33073 0.62186,-0.33073 0.72969,0 1.24354,-0.45919 1.24354,-1.11125 0,-0.26194 0.11367,-0.47625 0.25259,-0.47625 0.41185,0 0.61501,1.73809 0.41809,3.57691 l -0.18371,1.71547 1.21172,0.51941 c 0.66645,0.28567 1.21173,0.59119 1.21173,0.67893 0,0.19083 -0.95713,-0.0592 -1.78554,-0.46643 -0.77373,-0.38035 -0.91287,-0.20728 -1.0548,1.31208 -0.126,1.34881 -0.009,1.46992 1.98044,2.05055 0.52232,0.15244 0.59531,0.34874 0.59531,1.60111 0,1.42183 0.004,1.42937 1.12448,1.94395 l 1.12448,0.51659 -1.04651,-0.0436 c -1.03067,-0.0429 -1.04777,-0.0282 -1.13049,0.96796 -0.0553,0.66653 0.0123,0.95204 0.1982,0.83712 0.15521,-0.0959 0.4258,-0.0618 0.60133,0.0758 0.17552,0.1376 0.91445,0.47031 1.64205,0.73935 0.72761,0.26905 1.70595,0.71195 2.17411,0.98423 0.90318,0.52528 1.39777,0.43041 1.39777,-0.26812 0,-0.23395 0.0714,-0.35396 0.15866,-0.2667 0.21183,0.21183 -0.41474,2.0755 -0.84116,2.50191 -0.39109,0.39109 -0.81263,0.43697 -1.01446,0.11041 z m -12.58477,-7.01618 c -0.14869,-0.14869 -0.27035,-0.50742 -0.27035,-0.79717 0,-0.52003 0.005,-0.52021 0.38846,-0.0132 0.36744,0.48581 0.38891,0.46707 0.39687,-0.34631 0.006,-0.64426 -0.10769,-0.86091 -0.45461,-0.86395 -0.39955,-0.003 -0.40861,-0.0425 -0.0661,-0.28472 0.29229,-0.20672 0.30078,-0.25496 0.0322,-0.18307 -0.59438,0.15908 -1.17083,1.94519 -0.97121,3.00926 l 0.17747,0.94601 0.51884,-0.59823 c 0.35328,-0.40734 0.43257,-0.6845 0.24848,-0.86859 z m 26.98173,5.14745 c 0,-0.13436 -0.30745,-0.60967 -0.68323,-1.05625 -0.69419,-0.825 -1.12333,-1.06746 -3.94698,-2.22998 -0.87313,-0.35947 -1.62429,-0.83442 -1.66926,-1.05544 -0.0711,-0.34951 0.0738,-0.34281 1.11231,0.0514 0.65675,0.2493 1.27893,0.53812 1.38263,0.64182 0.10371,0.1037 0.39485,0.18855 0.64698,0.18855 0.35465,0 0.48043,-0.27664 0.55562,-1.22199 0.0821,-1.03267 0.0145,-1.25303 -0.43638,-1.42236 -0.45817,-0.17206 -0.57117,-0.0526 -0.79969,0.84562 -0.33863,1.33096 -0.70684,1.01006 -0.48742,-0.42479 0.0911,-0.59607 0.19844,-1.12314 0.23844,-1.17126 0.04,-0.0481 0.87306,0.28296 1.85125,0.73572 0.97819,0.45276 1.713,0.88873 1.63292,0.96882 -0.0801,0.0801 -0.38612,0.0169 -0.68005,-0.1404 -0.88769,-0.47508 -1.00541,-0.34605 -1.06671,1.16918 -0.0499,1.23463 0.0134,1.46132 0.41774,1.49551 0.26214,0.0222 0.62155,0.0533 0.7987,0.0692 0.80428,0.0721 2.16603,2.80095 1.39771,2.80095 -0.14552,0 -0.26458,-0.10993 -0.26458,-0.24428 z m -10.20499,-5.01741 c 0.0797,-0.12903 -0.003,-0.34902 -0.18282,-0.48886 -0.35909,-0.27852 -5.68604,-2.51065 -6.9148,-2.89749 -0.65552,-0.20637 -0.77013,-0.38263 -0.79375,-1.2207 -0.0152,-0.53872 0.0617,-0.97942 0.17084,-0.97934 0.10914,9e-5 0.19844,0.34933 0.19844,0.77608 0,0.57286 0.15579,0.82487 0.59531,0.96294 0.32742,0.10285 1.19062,0.46045 1.91823,0.79465 0.7276,0.3342 2.24565,0.92835 3.37343,1.32033 1.78047,0.61884 2.05052,0.79529 2.05052,1.33985 0,0.34493 -0.12608,0.62715 -0.28019,0.62715 -0.15411,0 -0.21495,-0.10558 -0.13521,-0.23461 z m -17.52639,-11.27183 0.10845,-0.92898 h -1.41769 c -0.89292,0 -1.35618,-0.0995 -1.25151,-0.2689 0.0914,-0.1479 0.27703,-0.2004 0.41249,-0.11668 0.13547,0.0837 0.24813,-0.004 0.25036,-0.19412 0.003,-0.25167 0.0742,-0.23785 0.26053,0.0505 0.18746,0.29008 0.25757,0.0892 0.26053,-0.7465 0.002,-0.65869 0.17229,-1.31162 0.40093,-1.54025 0.21828,-0.21829 0.38306,-0.59673 0.36618,-0.841 -0.0273,-0.39549 -0.0439,-0.39342 -0.15169,0.0189 -0.0666,0.25466 -0.22431,0.46302 -0.35057,0.46302 -0.37139,0 -0.61704,-0.57333 -0.32443,-0.75719 0.14781,-0.0929 0.45464,-0.61534 0.68185,-1.16104 0.22721,-0.5457 0.53825,-0.99219 0.6912,-0.99219 0.15294,0 0.27808,-0.12656 0.27808,-0.28124 0,-0.47071 1.39301,-3.15834 1.63698,-3.15834 0.12551,0 0.3448,-0.30667 0.4873,-0.68148 0.1425,-0.37481 0.62153,-1.20825 1.0645,-1.85208 l 0.80539,-1.17061 5.87427,0.008 5.87427,0.008 -0.83269,0.71985 c -0.45798,0.39592 -1.12413,0.95797 -1.48034,1.24902 -1.8179,1.4853 -3.59583,3.01995 -4.59789,3.96875 -0.61476,0.58208 -1.72231,1.58992 -2.46122,2.23964 -0.73892,0.64972 -1.34348,1.3049 -1.34348,1.45596 0,0.15106 -0.71438,0.7212 -1.5875,1.26698 -1.08942,0.68099 -1.5875,1.16014 -1.5875,1.52716 0,0.32702 -0.25701,0.63252 -0.66146,0.7863 -0.45383,0.17254 -0.66146,0.45229 -0.66146,0.89118 0,0.35184 -0.19178,0.71329 -0.42617,0.80324 -0.35291,0.13542 -0.40752,0.004 -0.31771,-0.76544 z m -2.6957,-9.13106 V 120.65 h 3.175 c 1.74625,0 3.175,0.0938 3.175,0.20843 0,0.11464 -0.35235,0.62066 -0.783,1.12448 -0.43065,0.50383 -0.78784,1.06488 -0.79375,1.24678 -0.006,0.1819 -0.12982,0.33073 -0.27534,0.33073 -0.14552,0 -0.26458,0.127 -0.26458,0.28224 0,0.15523 -0.29766,0.67248 -0.66146,1.14945 -0.3638,0.47697 -0.66146,0.9963 -0.66146,1.15407 0,0.15777 -0.1566,0.44419 -0.348,0.63649 -0.1914,0.19229 -0.79696,1.1533 -1.34569,2.13556 -0.54873,0.98227 -1.04697,1.78594 -1.1072,1.78594 -0.0602,0 -0.10952,-2.26219 -0.10952,-5.02708 z m 25.13946,0.33072 c -0.004,-0.56408 -0.10814,-0.59531 -1.98842,-0.59531 -1.09141,0 -1.98438,-0.10758 -1.98438,-0.23906 0,-0.13148 0.5201,-0.20837 1.15577,-0.17087 1.01156,0.0597 1.13976,0.007 1.02747,-0.42239 -0.0971,-0.37149 -0.37773,-0.4906 -1.15576,-0.4906 -0.91959,0 -1.02748,-0.0695 -1.02748,-0.66145 0,-0.46673 -0.14382,-0.66146 -0.48852,-0.66146 -0.26868,0 -0.8794,-0.195 -1.35716,-0.43334 -0.76925,-0.38375 -0.81494,-0.46339 -0.39936,-0.69596 0.3384,-0.18938 0.67295,-0.14232 1.19955,0.16875 0.93671,0.55333 1.04549,0.54316 1.04549,-0.0978 0,-0.29398 -0.17639,-0.52916 -0.39687,-0.52916 -0.21828,0 -0.39688,-0.11906 -0.39688,-0.26459 0,-0.17095 3.01957,-0.264 8.53281,-0.26295 7.73151,0.001 8.46165,0.0388 7.77497,0.39688 -0.41682,0.21738 -0.92283,0.39524 -1.12448,0.39524 -0.20165,0 -0.36663,0.10518 -0.36663,0.23373 0,0.12854 -0.20836,0.30368 -0.46302,0.38919 -0.25466,0.0855 -0.64162,0.27044 -0.8599,0.41096 -0.6882,0.44303 -2.18431,1.08279 -2.53214,1.08279 -0.1838,0 -0.38808,0.14883 -0.45395,0.33073 -0.0949,0.26195 -0.24182,0.25848 -0.70663,-0.0167 -0.53574,-0.31714 -0.57226,-0.3014 -0.41926,0.18067 0.13836,0.43592 -0.0482,0.62353 -1.06884,1.07502 -1.45075,0.64173 -1.80656,0.68141 -1.61416,0.18001 0.0988,-0.25741 -0.0112,-0.32717 -0.36856,-0.23373 -0.52561,0.13745 -0.71438,0.60066 -0.24479,0.60066 0.14552,0 0.26458,0.17859 0.26458,0.39687 0,0.47932 -0.69509,0.53134 -0.88385,0.0662 -0.10099,-0.24889 -0.20365,-0.23252 -0.41487,0.0661 -0.23244,0.32867 -0.28137,0.29457 -0.28473,-0.19844 z m 2.81817,-1.25677 c 0,-0.21828 -0.0992,-0.39687 -0.22048,-0.39687 -0.12127,0 -0.22049,-0.35719 -0.22049,-0.79375 0,-0.74965 -0.0588,-0.79375 -1.05833,-0.79375 -1.03314,0 -1.05834,0.022 -1.05834,0.92604 0,0.90399 0.0252,0.92604 1.05834,0.92604 0.58208,0 1.05833,0.11906 1.05833,0.26458 0,0.14553 0.0992,0.26459 0.22049,0.26459 0.12126,0 0.22048,-0.1786 0.22048,-0.39688 z"
         id="path397" /><path
         style="fill:#a2b9ca"
         d="m 165.02055,183.44117 c -0.23352,-0.0936 -0.0423,-0.43098 0.59531,-1.05018 1.17881,-1.14485 1.18226,-1.2788 0.0161,-0.62378 -0.65576,0.36832 -1.17325,0.46934 -1.78593,0.34863 -1.07567,-0.21192 -4.05011,-1.52664 -4.2742,-1.88922 -0.0915,-0.14808 -0.52222,-0.34739 -0.95711,-0.44291 -0.79662,-0.17496 -1.10699,-0.66079 -0.42215,-0.66079 0.20271,0 0.44084,-0.18833 0.52917,-0.41851 0.22494,-0.58619 0.20785,-0.63982 -0.20388,-0.63982 -0.20046,0 -0.52789,-0.19809 -0.7276,-0.4402 -0.32488,-0.39382 -0.30739,-0.41092 0.16604,-0.16233 0.82948,0.43556 7.63682,0.21553 9.525,-0.30786 1.74492,-0.48368 3.6932,-1.51995 4.46617,-2.37551 0.59905,-0.66306 1.74534,-3.03107 1.74895,-3.61302 0.004,-0.60762 1.67037,-5.23545 2.78775,-7.74102 0.53006,-1.18861 2.88845,-6.01849 5.24085,-10.73306 l 4.27711,-8.57196 0.0704,7.77821 c 0.0607,6.70074 0.0149,7.8189 -0.33073,8.07196 -0.22064,0.16156 -0.40117,0.5689 -0.40117,0.9052 0,0.33631 -0.16315,0.79943 -0.36256,1.02917 -0.46994,0.54141 -2.75018,5.95527 -3.21264,7.6276 -0.0905,0.32743 -0.27566,0.59532 -0.41138,0.59532 -0.13571,0 -0.24675,0.16212 -0.24675,0.36028 0,0.41513 -1.55876,3.93933 -1.83008,4.13763 -0.0995,0.0728 -0.47265,0.81487 -0.82911,1.64913 -0.35646,0.83426 -0.79693,1.51887 -0.97883,1.52136 -0.1819,0.002 -0.33073,0.16572 -0.33073,0.36275 0,0.43342 -1.1867,1.75843 -1.57487,1.75843 -0.15247,0 -0.27722,0.17859 -0.27722,0.39688 0,0.21828 -0.184,0.39687 -0.4089,0.39687 -0.22489,0 -0.70656,0.29766 -1.07036,0.66146 -0.3638,0.3638 -0.95532,0.66146 -1.31448,0.66146 -0.67752,0 -1.69732,0.46632 -2.02514,0.92604 -0.10377,0.14552 -1.20495,0.26458 -2.44706,0.26458 -1.24211,0 -2.25854,0.0893 -2.25872,0.19844 -3.7e-4,0.22034 -0.22419,0.22601 -0.74125,0.0188 z m -6.53513,-6.68704 c -3.23707,-0.80733 -5.96305,-3.49369 -6.75059,-6.65248 -0.53795,-2.15771 -0.0687,-3.15075 2.92579,-6.19227 1.43273,-1.45521 3.6466,-3.95552 4.9197,-5.55625 5.21674,-6.55922 11.42822,-14.52652 14.28363,-18.32119 1.66939,-2.21853 3.44507,-4.36068 3.94595,-4.76035 1.35225,-1.07898 5.56271,-2.68962 7.06771,-2.70364 l 1.25677,-0.0117 v 4.91425 4.91425 l -4.47284,8.91023 c -5.90667,11.76654 -7.25318,14.8577 -8.73095,20.04343 -0.85234,2.99101 -2.67351,4.50948 -6.3407,5.28678 -1.83912,0.38982 -6.74545,0.46788 -8.10447,0.12894 z m 9.0801,-3.02464 c 0.0838,-0.69929 -0.93113,-2.71144 -1.22128,-2.42129 -0.0828,0.0828 -0.01,0.29151 0.16247,0.46371 0.54078,0.54078 0.34298,0.80855 -0.47623,0.64471 -0.5117,-0.10234 -1.2329,0.0327 -2.05052,0.38409 -0.69366,0.29808 -1.46056,0.55748 -1.70421,0.57646 -0.67065,0.0522 -0.1409,0.84158 0.83652,1.24644 0.70316,0.29126 0.87907,0.27382 1.32704,-0.13159 0.37205,-0.33669 0.77171,-0.42594 1.42947,-0.3192 0.75491,0.12251 0.89921,0.0714 0.83321,-0.29514 -0.0439,-0.24381 0.0158,-0.68143 0.13269,-0.97247 0.18487,-0.46034 0.21923,-0.46895 0.26418,-0.0661 0.0284,0.25466 0.0744,0.61184 0.10213,0.79375 0.0277,0.1819 -0.19549,0.62295 -0.49609,0.9801 l -0.54656,0.64938 0.66146,-0.4148 c 0.37646,-0.23609 0.69776,-0.71779 0.74572,-1.11801 z m -12.38621,-7.95064 c 2.34943,-1.51984 3.49238,-2.09981 6.31965,-3.20683 l 2.27813,-0.892 -1.32292,-0.003 c -0.7276,-0.002 -1.7694,0.1002 -2.3151,0.22692 -0.5457,0.12673 -0.99219,0.18539 -0.99219,0.13037 0,-0.0814 11.67246,-16.47299 14.49083,-20.34944 0.4232,-0.58209 1.35425,-1.87842 2.069,-2.88074 0.71475,-1.00232 1.65392,-2.25248 2.08703,-2.77813 0.4503,-0.54649 0.54495,-0.74866 0.22104,-0.47214 -0.31155,0.26597 -1.61651,1.87331 -2.89992,3.57188 -2.44999,3.24251 -5.10108,6.68364 -7.37331,9.57059 -7.14584,9.07904 -8.45415,10.73286 -8.58161,10.84791 -0.0806,0.0728 -0.82591,0.97291 -1.65625,2.00032 -0.83033,1.02741 -2.22633,2.51143 -3.1022,3.29782 -0.91172,0.81857 -1.76476,1.8603 -1.99543,2.43681 -0.59792,1.49435 -0.48929,1.7754 0.26001,0.67271 0.36461,-0.53658 1.49557,-1.51423 2.51324,-2.17256 z m -10.84909,-14.1726 c -0.21829,-0.14106 -0.78383,-0.2583 -1.25678,-0.26053 -0.47294,-0.002 -0.85989,-0.0568 -0.85989,-0.12122 0,-0.0644 0.25156,-0.54353 0.55902,-1.06464 0.30746,-0.52111 0.71863,-1.56971 0.9137,-2.33023 l 0.35468,-1.38275 -0.10607,1.98437 c -0.0583,1.09141 -0.0441,1.77602 0.0317,1.52136 0.0758,-0.25466 0.26203,-0.46302 0.41385,-0.46302 0.26798,0 0.21108,0.43707 -0.18084,1.38906 -0.14459,0.35123 -0.0613,0.46302 0.34481,0.46302 0.29449,0 0.58858,-0.14883 0.65355,-0.33073 0.065,-0.1819 0.20812,-0.2471 0.31813,-0.14489 0.11,0.10221 0.0157,0.3701 -0.20947,0.59531 -0.4789,0.47891 -0.46319,0.47658 -0.97643,0.14489 z m -5.85136,-1.25677 c -0.0168,-0.10914 -0.0465,-0.37703 -0.0661,-0.59531 -0.0202,-0.22449 -0.35168,-0.43324 -0.76323,-0.4806 -0.84698,-0.0975 -0.90304,-0.25394 -0.26459,-0.73859 0.54493,-0.41366 1.22786,-0.48506 0.99219,-0.10373 -0.0899,0.14552 -0.0374,0.26459 0.11668,0.26459 0.15411,0 0.2802,-0.25658 0.2802,-0.57018 0,-0.53561 0.0293,-0.54363 0.48385,-0.13229 0.67772,0.61333 0.83906,0.55083 0.83906,-0.32501 0,-0.55744 0.15276,-0.80284 0.56722,-0.91122 0.53,-0.1386 0.55577,-0.2602 0.39258,-1.85299 -0.14588,-1.42388 -0.10501,-1.73137 0.24817,-1.8669 0.23254,-0.0892 0.45282,-0.16225 0.48951,-0.16225 0.11459,0 -0.0826,3.26089 -0.25541,4.22419 -0.19809,1.10401 -0.67281,2.05132 -1.42992,2.85342 -0.53542,0.56723 -1.5654,0.81799 -1.63017,0.39687 z m -3.20774,-1.57829 c -1.47907,-0.22439 -1.92129,-2.08187 -1.13,-4.74644 0.46208,-1.55598 1.1852,-2.33028 1.94966,-2.08764 0.66276,0.21035 0.87793,1.17847 0.67888,3.05456 -0.0849,0.80036 -0.1747,1.71297 -0.19952,2.02802 -0.0336,0.42625 -0.12976,0.50258 -0.37586,0.29833 -0.22855,-0.18968 -0.33073,-0.18941 -0.33073,8.6e-4 0,0.15144 -0.079,0.48128 -0.17561,0.73298 -0.14481,0.37735 -0.0562,0.43482 0.50501,0.32753 0.49547,-0.0947 0.6435,-0.0334 0.54418,0.22546 -0.0751,0.19556 -0.27254,0.33773 -0.43887,0.31593 -0.16633,-0.0218 -0.62854,-0.0891 -1.02714,-0.14959 z m 0.42977,-1.6293 c 0.52283,-0.57772 0.96659,-2.99938 0.71915,-3.92458 l -0.17059,-0.63785 -0.57369,0.61079 c -0.67037,0.71371 -1.1659,2.63974 -0.95302,3.70415 0.17447,0.87237 0.36827,0.9214 0.97815,0.24749 z m 4.2637,-4.26689 c -0.0899,-0.14552 -0.39462,-0.26458 -0.67707,-0.26458 -0.28246,0 -0.51355,-0.11906 -0.51355,-0.26458 0,-0.14553 0.0935,-0.26459 0.20788,-0.26459 0.11434,0 0.22074,-0.20836 0.23644,-0.46302 0.13748,-2.2298 0.39793,-3.91766 0.61583,-3.9908 0.14452,-0.0485 0.26459,-0.40569 0.26681,-0.79375 0.005,-0.81301 0.22739,-1.21268 0.79087,-1.41922 0.31609,-0.11586 0.41361,0.13326 0.47362,1.20993 0.0416,0.7457 0.13813,1.59395 0.2146,1.88499 0.10311,0.39247 0.0738,0.43497 -0.11331,0.16454 -0.13878,-0.20055 -0.38471,-0.28282 -0.5465,-0.18283 -0.36895,0.22803 -0.37298,0.95247 -0.008,1.4735 0.21559,0.30793 0.24402,0.24864 0.12684,-0.26459 -0.14609,-0.63985 -0.14122,-0.64249 0.14887,-0.0807 0.16936,0.32794 0.20939,0.7886 0.092,1.05833 -0.11436,0.2627 -0.18026,0.64245 -0.14644,0.84391 0.1876,1.11746 -0.68788,2.13143 -1.16866,1.35351 z m -7.38003,-14.17685 c -0.0883,-0.23018 -0.16059,-2.13518 -0.16059,-4.23333 V 120.65 h 3.05201 3.05202 l -0.31514,0.59531 c -0.17332,0.32743 -0.59423,0.96374 -0.93535,1.41404 -0.34112,0.4503 -0.62021,0.91342 -0.62021,1.02917 0,0.11574 -0.16631,0.34262 -0.36959,0.50419 -0.20327,0.16156 -0.65295,0.82953 -0.9993,1.48438 -0.85469,1.61599 -2.09643,3.43958 -2.34213,3.43958 -0.11061,0 -0.27339,-0.18833 -0.36172,-0.41852 z m 13.26038,-4.76953 c -0.30171,-0.30171 0.0737,-0.63279 0.71745,-0.63279 0.3374,0 0.76167,-0.17859 0.94282,-0.39687 0.48553,-0.58502 -0.12215,-1.19063 -1.19471,-1.19063 -0.74632,0 -1.18653,-0.35043 -1.18653,-0.94454 0,-0.23539 3.59364,-0.0417 3.9026,0.21036 0.2284,0.18633 0.33073,0.17793 0.33073,-0.0272 0,-0.39174 0.70973,-0.38239 0.95383,0.0126 0.12742,0.20617 0.0488,0.25485 -0.2355,0.14576 -0.29547,-0.11338 -0.38284,-0.0492 -0.28393,0.20855 0.0926,0.2413 -0.0983,0.43286 -0.54264,0.54437 -0.37703,0.0946 -0.68633,0.30797 -0.68732,0.4741 -0.003,0.55715 -2.36709,1.946 -2.7168,1.59629 z"
         id="path396" /><path
         style="fill:#9ca6af"
         d="m 167.01629,181.61246 c -0.0834,-0.0834 0.2847,-0.57771 0.81809,-1.09839 l 0.96979,-0.9467 -1.05833,0.61407 c -1.41449,0.82072 -3.18153,1.09262 -4.07405,0.6269 -0.37865,-0.19758 -0.89681,-0.35998 -1.15147,-0.36087 -0.25466,-9e-4 -0.46302,-0.1207 -0.46302,-0.26622 0,-0.14552 -0.23813,-0.26458 -0.52917,-0.26458 -0.29104,0 -0.52917,-0.11906 -0.52917,-0.26458 0,-0.14552 -0.20948,-0.26459 -0.46552,-0.26459 -0.25603,0 -0.6242,-0.25408 -0.81813,-0.56462 -0.50195,-0.80375 -0.0471,-1.01367 2.2097,-1.01983 4.18369,-0.0114 8.07868,-1.11558 9.84125,-2.7898 0.6117,-0.58104 1.9327,-3.01717 1.9327,-3.5642 0,-0.39915 1.81725,-5.80676 2.13362,-6.34905 0.18997,-0.32561 0.23299,-0.32957 0.23959,-0.0221 0.01,0.46026 0.35433,0.15531 0.43345,-0.38374 0.0315,-0.21476 -0.0667,-0.31381 -0.21837,-0.2201 -0.15759,0.0974 -0.21848,0.0129 -0.14214,-0.19717 0.0735,-0.20216 0.2599,-0.34033 0.41433,-0.30704 0.15443,0.0333 0.27198,-0.1453 0.2612,-0.39687 -0.0108,-0.25157 0.25443,-1.05271 0.58933,-1.78032 0.33491,-0.7276 0.58943,-1.41221 0.56562,-1.52135 -0.0406,-0.18589 0.36744,-0.30069 0.8166,-0.22977 0.10914,0.0172 0.19844,-0.10047 0.19844,-0.26156 0,-0.16109 -0.18854,-0.22054 -0.41898,-0.13211 -0.23044,0.0884 -0.37309,0.0714 -0.317,-0.0378 0.0561,-0.10924 0.54762,-1.12509 1.09228,-2.25743 0.54467,-1.13235 1.10267,-1.98937 1.24001,-1.90449 0.14188,0.0877 0.17447,-0.0417 0.0755,-0.29969 -0.11741,-0.30597 -0.0743,-0.39225 0.13229,-0.26459 0.18782,0.11608 0.25519,0.0557 0.17396,-0.15598 -0.0729,-0.18999 0.24439,-1.05937 0.7051,-1.93198 0.46071,-0.8726 1.35422,-2.62093 1.98558,-3.88518 0.63137,-1.26426 1.39535,-2.47194 1.69775,-2.68375 0.36759,-0.25747 0.43949,-0.42187 0.21694,-0.49606 -0.25043,-0.0835 -0.22226,-0.26886 0.11373,-0.74856 0.4257,-0.60777 0.4466,-0.39962 0.4466,4.44834 0,4.15389 -0.0671,5.08596 -0.36602,5.08596 -0.2013,0 -0.43597,0.20836 -0.52148,0.46302 -0.0855,0.25466 -0.26956,0.64161 -0.40901,0.8599 -0.50939,0.79735 -1.34307,2.81302 -1.51124,3.65386 -0.0949,0.47467 -0.36523,1.00986 -0.60066,1.18931 -0.51763,0.39456 -1.61867,2.38504 -1.61867,2.92626 0,0.2137 -0.0903,0.42824 -0.20067,0.47675 -0.49037,0.21551 -1.916,3.40936 -1.916,4.29241 0,0.67264 -0.11739,0.95516 -0.39687,0.95516 -0.21829,0 -0.39688,0.18233 -0.39688,0.40518 0,0.22284 0.17859,0.47371 0.39688,0.55747 0.59678,0.22901 0.50035,1.15401 -0.12031,1.15401 -0.39259,0 -0.55599,0.23901 -0.6783,0.99219 -0.21003,1.29333 -0.59802,2.10709 -2.11305,4.43177 -0.62725,0.96246 -1.94574,2.18793 -2.57845,2.39654 -0.25466,0.084 -0.46302,0.2637 -0.46302,0.39942 0,0.13571 -0.2752,0.24675 -0.61157,0.24675 -0.33636,0 -0.87674,0.24705 -1.20084,0.54899 -0.36483,0.33989 -1.04708,0.5863 -1.79122,0.64694 -0.66106,0.0539 -1.35203,0.2225 -1.53548,0.37475 -0.18344,0.15225 -0.4018,0.20855 -0.48523,0.12511 z m -8.53087,-4.85833 c -3.19838,-0.79768 -5.91484,-3.44829 -6.73957,-6.57621 -0.24124,-0.91495 -0.22164,-1.41118 0.0994,-2.51546 0.33548,-1.15402 0.7531,-1.7164 2.59195,-3.49042 1.20563,-1.16311 3.89742,-4.25787 5.98177,-6.87725 5.93412,-7.45732 12.80317,-16.28245 14.28619,-18.35442 1.20977,-1.6902 2.77141,-3.4889 3.42525,-3.94523 1.2665,-0.88391 4.90365,-2.21467 6.46242,-2.36446 l 1.50114,-0.14426 0.0282,4.94249 0.0282,4.9425 -4.44595,8.78461 c -2.44528,4.83153 -4.6707,9.32039 -4.94539,9.97523 -0.27468,0.65485 -0.89295,2.05987 -1.37392,3.12227 -0.48097,1.0624 -1.24573,3.14599 -1.69946,4.6302 -0.45373,1.48422 -0.9277,3.02567 -1.05326,3.42546 -0.65318,2.07971 -2.83104,3.63531 -6.04248,4.31601 -1.83912,0.38982 -6.74545,0.46788 -8.10447,0.12894 z m 5.24592,-0.97934 c 0.6625,-0.10947 0.89383,-0.2407 0.66912,-0.37958 -0.56384,-0.34847 -0.0547,-0.57389 0.55692,-0.24657 0.44964,0.24064 0.76304,0.20471 1.54401,-0.177 1.19652,-0.58482 1.40264,-1.61493 0.5873,-2.93522 -0.52498,-0.8501 -0.54777,-0.8583 -1.05993,-0.38115 -0.60904,0.56741 -3.33897,1.56204 -4.96365,1.80847 -0.61846,0.0938 -1.12448,0.25509 -1.12448,0.3584 0,0.10331 0.68461,0.52638 1.52136,0.94015 1.41394,0.69921 1.47465,0.76575 0.85989,0.9426 -0.53453,0.15377 -0.55991,0.19478 -0.13229,0.21374 0.29104,0.0129 0.98483,-0.0518 1.54175,-0.14384 z m -7.54522,-10.59336 c 1.4583,-0.87335 3.76284,-1.99309 5.12121,-2.48831 l 2.46976,-0.90041 -1.38459,-0.0798 c -0.76152,-0.0439 -1.80332,0.0358 -2.3151,0.17711 -0.51179,0.14131 -0.93052,0.20952 -0.93052,0.15158 0,-0.0579 3.60958,-5.13827 8.0213,-11.28961 4.41171,-6.15134 8.48077,-11.8391 9.04235,-12.63947 0.56159,-0.80036 1.32755,-1.81053 1.70215,-2.24482 0.63224,-0.733 0.63604,-0.75197 0.053,-0.26458 -0.34542,0.28876 -1.84155,2.13237 -3.32473,4.0969 -3.86725,5.12235 -12.23896,15.84213 -15.19035,19.45089 -0.23983,0.29325 -1.05921,1.30528 -1.82084,2.24896 -0.76164,0.94368 -2.15028,2.40718 -3.08588,3.25223 -1.64759,1.48814 -2.54079,2.81303 -2.54079,3.76875 0,0.30368 0.26322,0.0994 0.76577,-0.59438 0.50502,-0.69716 1.66859,-1.59779 3.41722,-2.64502 z"
         id="path395" /><path
         style="fill:#555359"
         d="m 158.35313,176.63038 c -2.09599,-0.59883 -2.65202,-0.91858 -4.06238,-2.33613 -1.71219,-1.7209 -2.5522,-3.44331 -2.5522,-5.23315 0,-1.82608 0.67048,-3.00366 2.75725,-4.8426 0.963,-0.84863 3.68336,-3.98855 6.04526,-6.9776 7.87438,-9.96526 10.55821,-13.40738 13.73924,-17.62118 1.73609,-2.29972 3.53589,-4.41414 3.99957,-4.6987 2.34974,-1.44202 7.85451,-2.93364 7.85451,-2.12831 0,0.17012 -0.18287,0.37949 -0.40637,0.46526 -0.36544,0.14023 -0.36544,0.2184 0,0.77613 0.31695,0.48373 0.40637,1.44194 0.40637,4.35456 v 3.73436 l -4.51615,9.00581 c -5.53607,11.03966 -7.61513,15.82535 -8.71327,20.05659 -0.52002,2.00373 -1.71716,3.6 -3.26289,4.35075 -2.7849,1.35261 -8.45934,1.90262 -11.28894,1.09421 z m 7.04512,-1.07456 c 0.72618,-0.21565 1.59872,-0.68843 1.93899,-1.05063 0.61452,-0.65413 0.61558,-0.66661 0.15822,-1.8642 -0.25325,-0.66311 -0.85035,-1.61907 -1.3269,-2.12436 -0.47655,-0.50529 -0.7631,-0.91871 -0.63677,-0.91871 0.62268,0 0.11561,-0.86841 -0.70801,-1.21254 -0.96953,-0.4051 -1.56955,-0.29114 -1.3588,0.25805 0.0897,0.23368 -0.50286,0.28906 -2.29707,0.21472 -2.65846,-0.11017 -5.76584,0.40748 -6.89761,1.14904 -0.89121,0.58395 -0.88576,1.59445 0.0158,2.92293 1.03276,1.52185 2.35958,2.42555 4.06706,2.77009 1.70211,0.34345 5.67668,0.262 7.04512,-0.14439 z m -12.15092,-8.14052 c 1.43985,-1.52241 4.9536,-3.50257 8.61153,-4.853 1.12779,-0.41635 2.05052,-0.84913 2.05052,-0.96173 0,-0.28231 -1.24363,-0.25625 -2.91713,0.0611 -0.77102,0.14622 -1.45338,0.21433 -1.51637,0.15134 -0.063,-0.063 0.51425,-0.95743 1.28274,-1.98765 0.99547,-1.33451 1.46415,-1.77746 1.62988,-1.5404 0.15382,0.22 0.18259,0.15214 0.0849,-0.2003 -0.10371,-0.37434 0.2653,-1.08402 1.23944,-2.38367 0.76292,-1.01785 2.56565,-3.51642 4.00607,-5.55239 1.44041,-2.03596 3.05651,-4.29706 3.59133,-5.02466 0.53481,-0.7276 2.11232,-2.93026 3.50558,-4.89479 1.39325,-1.96453 2.9323,-3.97984 3.42012,-4.47846 l 0.88694,-0.90658 -0.79707,0.4635 c -0.43839,0.25492 -2.30379,2.44882 -4.14534,4.87533 -10.00711,13.18587 -15.91501,20.55302 -19.02682,23.72642 -2.6647,2.71745 -3.16724,3.51728 -3.12782,4.97816 l 0.0227,0.84267 0.22927,-0.76615 c 0.1261,-0.42138 0.56235,-1.11832 0.96945,-1.54876 z m 15.07466,-2.15333 c 0.92058,-1.42178 0.87826,-1.81752 -0.25353,-2.37045 -1.16841,-0.57081 -1.49089,-0.40773 -2.00497,1.01394 -0.38293,1.05897 -0.15275,1.58274 0.87941,2.00112 0.77631,0.31467 0.75,0.32697 1.37909,-0.64461 z m 4.10357,-7.25938 c -0.061,-0.42414 0.0543,-0.5755 0.43825,-0.5755 0.39358,0 0.48662,-0.13158 0.38038,-0.53787 -0.0774,-0.29583 0.0244,-0.74231 0.22613,-0.99219 0.20173,-0.24987 0.57318,-0.82878 0.82545,-1.28646 0.41263,-0.74865 0.41681,-0.8482 0.0416,-0.99219 -0.84825,-0.3255 -1.16153,-0.12619 -2.13971,1.36131 -0.55025,0.83674 -1.15192,1.67869 -1.33706,1.87098 -0.18514,0.1923 -0.33662,0.51972 -0.33662,0.72761 0,0.20788 -0.14882,0.38176 -0.33072,0.38639 -0.1834,0.005 -0.0972,0.1849 0.19341,0.40459 0.28828,0.2179 0.88359,0.35403 1.32292,0.30251 0.64752,-0.0759 0.7831,-0.20265 0.71599,-0.66918 z m 3.25241,-5.09035 c -0.13664,-0.4305 -0.0704,-0.52851 0.3129,-0.46302 0.38315,0.0655 0.47566,-0.0712 0.43641,-0.64453 -0.0338,-0.49364 0.0783,-0.7276 0.34856,-0.7276 0.27796,0 0.3476,-0.15994 0.23042,-0.52917 -0.13099,-0.41269 -0.0476,-0.52917 0.37904,-0.52917 0.80521,0 0.67871,-0.51109 -0.32065,-1.2956 -0.41349,-0.32459 -0.55033,-0.29483 -1.12448,0.24456 -0.35954,0.33776 -0.65371,0.72506 -0.65371,0.86065 0,0.13559 -0.35718,0.69752 -0.79375,1.24873 -0.43656,0.5512 -0.79314,1.10412 -0.7924,1.2287 0.001,0.17178 1.36144,0.91361 2.067,1.12713 0.0462,0.014 0.006,-0.22033 -0.0893,-0.52068 z m 3.40821,-5.45924 c -0.0907,-0.36147 -0.0337,-0.60925 0.14035,-0.60925 0.1613,0 0.29327,-0.24515 0.29327,-0.54478 0,-0.29963 0.11906,-0.4712 0.26458,-0.38126 0.14969,0.0925 0.26458,-0.12644 0.26458,-0.50424 0,-0.68961 -0.75933,-1.31875 -1.2053,-0.99865 -0.13791,0.099 -0.41845,0.50542 -0.62342,0.90319 -0.20497,0.39777 -0.60746,0.79774 -0.89443,0.88882 -0.35237,0.11184 -0.42045,0.22822 -0.2097,0.35847 0.22668,0.1401 0.19351,0.29126 -0.12122,0.55247 -0.40126,0.33301 -0.40114,0.38311 0.002,0.67766 0.23923,0.17493 0.84167,0.30653 1.33874,0.29244 0.80668,-0.0229 0.88735,-0.0911 0.75087,-0.63487 z m 2.1485,-3.79972 c -0.11579,-0.3648 -0.0383,-0.51369 0.26728,-0.51369 0.24835,0 0.35344,-0.1244 0.24851,-0.29417 -0.1,-0.16179 -0.0635,-0.37015 0.081,-0.46302 0.48152,-0.30937 0.62737,-1.27092 0.24136,-1.59127 -0.44597,-0.37012 -1.23014,-0.11998 -1.23014,0.39239 0,0.20271 -0.11906,0.36857 -0.26458,0.36857 -0.14552,0 -0.26458,0.16585 -0.26458,0.36856 0,0.20272 -0.16281,0.43105 -0.3618,0.5074 -0.43875,0.16837 -0.42452,1.18349 0.0204,1.45811 0.17605,0.10865 0.56882,0.21628 0.87281,0.23918 0.43382,0.0327 0.51766,-0.0689 0.38969,-0.47206 z m 1.82038,-3.29182 c -0.0957,-0.24929 0.003,-0.39687 0.26458,-0.39687 0.26186,0 0.36025,-0.14759 0.26459,-0.39688 -0.0862,-0.22476 -0.006,-0.39687 0.18469,-0.39687 0.18534,0 0.25865,-0.0784 0.16289,-0.1741 -0.0958,-0.0957 -0.0458,-0.32866 0.11098,-0.51757 0.36748,-0.4428 0.084,-0.89583 -0.56055,-0.89583 -0.47305,0 -1.23219,0.95149 -1.10824,1.38906 0.0309,0.10914 -0.12238,0.19844 -0.34066,0.19844 -0.64238,0 -0.45526,0.63499 0.33073,1.1223 0.89392,0.55423 0.8768,0.55254 0.69099,0.0683 z m 2.12453,-3.68367 c -0.0702,-0.18293 0.0564,-0.48531 0.28129,-0.67196 0.46981,-0.38991 0.54161,-1.21968 0.12766,-1.47551 -0.3388,-0.20939 -1.35326,0.64622 -1.1521,0.97171 0.0779,0.12607 -0.0402,0.22922 -0.26252,0.22922 -0.25057,0 -0.3463,0.15084 -0.25189,0.39688 0.0887,0.231 0.002,0.40079 -0.20674,0.40625 -0.19747,0.005 -0.0674,0.17089 0.28909,0.3683 0.72775,0.40302 1.36907,0.2803 1.17521,-0.22489 z"
         id="path394" /><path
         style="fill:#252628"
         d="m 159.11265,176.73705 c -2.88564,-0.48759 -5.2813,-2.24183 -6.56227,-4.80528 -0.81938,-1.63973 -1.03378,-2.50225 -0.54725,-2.20156 0.14876,0.0919 0.26458,-0.11891 0.26458,-0.48165 0,-0.85815 2.04189,-3.00626 2.46008,-2.58806 0.36969,0.36968 0.80203,0.38199 0.57608,0.0164 -0.11137,-0.1802 0.0795,-0.21254 0.55301,-0.0937 0.52402,0.13152 0.66971,0.0951 0.52917,-0.13229 -0.1383,-0.22378 -0.006,-0.26664 0.46084,-0.14944 0.36012,0.0904 0.73178,0.0397 0.82592,-0.1126 0.10927,-0.1768 1.21733,-0.23703 3.06462,-0.16658 3.7091,0.14146 5.81847,0.81336 6.98076,2.22359 l 0.52115,0.63232 0.61183,-0.76462 c 0.33651,-0.42053 0.61242,-0.9088 0.61315,-1.08503 7.2e-4,-0.17623 0.22037,-0.53342 0.48812,-0.79375 0.70804,-0.68844 0.86676,-1.33092 0.43537,-1.76231 -0.32796,-0.32796 -0.32646,-0.42125 0.0112,-0.70152 0.47893,-0.39748 0.52937,-1.16393 0.0588,-0.89311 -0.1819,0.10468 -0.242,0.0924 -0.13356,-0.0272 0.10845,-0.11965 -0.10597,-0.61498 -0.47649,-1.10075 -0.37051,-0.48577 -0.56218,-0.88321 -0.42594,-0.88321 0.39037,0 3.48338,3.41512 3.48338,3.84614 0,0.21296 0.10184,0.38719 0.22631,0.38719 0.12447,0 0.34269,0.38696 0.48494,0.8599 l 0.25863,0.85989 0.45396,-1.05526 c 0.45006,-1.0462 0.39332,-2.25203 -0.10596,-2.25203 -0.14275,0 -0.25954,-0.16585 -0.25954,-0.36856 0,-0.20272 -0.1786,-0.43711 -0.39688,-0.52087 -0.21828,-0.0838 -0.39952,-0.30486 -0.40276,-0.49133 -0.003,-0.18646 -0.24048,-0.63669 -0.52722,-1.00049 -0.44585,-0.56569 -0.56243,-0.60399 -0.80519,-0.26458 -0.22741,0.31794 -0.25224,0.28376 -0.12485,-0.17185 0.1151,-0.41167 -0.0262,-0.71444 -0.51184,-1.09641 -0.9275,-0.72958 -0.83995,-0.94944 0.17009,-0.42713 1.04314,0.53943 2.46524,2.02336 2.9169,3.04374 0.18705,0.42257 0.43009,0.76832 0.54009,0.76832 0.10999,0 0.20938,0.20836 0.22086,0.46302 0.0204,0.45385 0.88771,-1.17778 1.70516,-3.20803 0.22703,-0.56387 0.46701,-0.97098 0.5333,-0.9047 0.0663,0.0663 -0.5228,1.56513 -1.30908,3.33076 -1.36945,3.07518 -2.29216,5.6345 -3.17006,8.79272 -0.50034,1.79999 -1.84897,3.43707 -3.45233,4.19074 -2.331,1.0957 -7.15872,1.60935 -10.23709,1.0892 z m 7.06549,-1.32788 c 1.50492,-0.72852 1.85348,-1.34517 1.4748,-2.60912 -0.15707,-0.52425 -0.29985,-1.07223 -0.31728,-1.21776 -0.0174,-0.14552 -0.1704,-0.44317 -0.33992,-0.66145 -0.26784,-0.34486 -0.24793,-0.3496 0.15187,-0.0362 0.25306,0.19839 0.39995,0.45805 0.32642,0.57703 -0.0735,0.11898 0.005,0.30184 0.17379,0.40636 0.22075,0.13643 0.25592,-0.0263 0.12467,-0.57703 -0.37601,-1.57766 -1.77414,-2.89652 -3.48671,-3.28902 -1.17189,-0.26859 -6.85972,0.13559 -7.99793,0.56834 -0.39206,0.14906 -0.71284,0.26601 -0.71284,0.25989 0,-0.006 -0.26789,0.0589 -0.59532,0.14455 -0.32742,0.0856 -0.59531,0.25622 -0.59531,0.3791 0,0.12288 -0.25776,0.46355 -0.57279,0.75706 -0.52436,0.48851 -0.54573,0.624 -0.25265,1.60219 0.36795,1.2281 1.52565,2.64737 2.80385,3.43734 1.89939,1.17389 7.6137,1.32449 9.81535,0.25869 z m 7.03338,-8.56988 c -0.51525,-0.57455 -0.94908,-1.46716 -0.87748,-1.80543 0.0231,-0.10914 -0.0771,-0.19844 -0.22258,-0.19844 -0.14552,0 -0.26458,-0.16586 -0.26458,-0.36857 0,-0.34667 -0.53718,-0.68976 -1.07997,-0.68976 -0.35132,0 -0.29823,0.43542 0.10255,0.84099 0.19002,0.1923 0.62594,0.85081 0.96871,1.46335 0.34277,0.61255 0.699,1.06689 0.79162,1.00965 0.0926,-0.0572 0.34131,0.005 0.55264,0.139 0.31874,0.20163 0.30531,0.24376 -0.0788,0.24712 -0.49595,0.004 -0.55691,0.28745 -0.28267,1.31276 0.1629,0.60906 0.19404,0.5868 0.52785,-0.37738 0.31981,-0.92374 0.30629,-1.07864 -0.13731,-1.57329 z m 3.53015,-10.12664 c -0.58208,-0.94981 -1.21683,-2.01768 -1.41055,-2.37305 -0.19372,-0.35537 -0.66997,-0.77275 -1.05834,-0.92752 -0.42771,-0.17045 -0.57036,-0.3316 -0.3618,-0.40873 0.55309,-0.20454 2.31905,1.18554 2.86128,2.25227 1.08192,2.12844 1.18269,2.23612 1.60324,1.71317 0.25423,-0.31613 0.23246,-0.16757 -0.0672,0.4583 -0.24383,0.50932 -0.45795,0.94549 -0.47583,0.96926 -0.0179,0.0238 -0.50874,-0.7339 -1.09083,-1.6837 z m 4.95981,-6.30869 0.85382,-1.73147 -0.79015,-1.46293 c -0.94454,-1.7488 -2.38171,-3.3867 -2.7642,-3.15031 -0.1512,0.0934 -0.2749,0.0358 -0.2749,-0.12813 0,-0.35236 1.00549,-0.0884 1.48327,0.38936 0.17453,0.17452 0.84367,1.10213 1.48697,2.06134 l 1.16965,1.74401 0.8429,-1.70931 0.8429,-1.70931 -0.83365,-1.51141 c -0.45851,-0.83128 -1.0754,-1.85622 -1.37086,-2.27765 -0.46847,-0.66817 -0.47716,-0.73261 -0.0679,-0.50357 0.25813,0.14446 0.92616,1.0817 1.48451,2.08276 l 1.01518,1.82012 0.55203,-1.28784 c 0.30362,-0.70832 0.61559,-1.22429 0.69327,-1.14661 0.14862,0.14862 -4.82638,10.25241 -5.04818,10.25241 -0.0707,0 0.25572,-0.77916 0.72533,-1.73146 z m -6.6796,-10.13911 c 0,-0.54951 1.09653,-1.59191 1.50835,-1.43389 0.28754,0.11034 0.367,0.0624 0.23923,-0.14433 -0.13538,-0.21905 0.16134,-0.30954 1.01493,-0.30954 0.66343,0 1.20624,-0.11907 1.20624,-0.26459 0,-0.14552 0.38695,-0.25518 0.8599,-0.24369 0.47294,0.0115 0.69759,0.0854 0.49922,0.16432 -0.3045,0.12109 -0.3045,0.18214 0,0.39204 0.23988,0.16534 0.0727,0.19188 -0.49922,0.0792 -0.54368,-0.10709 -0.8599,-0.0643 -0.8599,0.11624 0,0.15708 -0.46351,0.2856 -1.03003,0.2856 -1.07737,0 -1.72723,0.65376 -0.87353,0.87878 0.33586,0.0885 0.30609,0.12587 -0.11865,0.14886 -0.31568,0.0171 -0.64724,-0.17454 -0.74801,-0.43233 -0.15578,-0.3985 -0.23463,-0.36163 -0.56592,0.26459 -0.38662,0.73081 -0.63261,0.92473 -0.63261,0.4987 z m 1.59555,-2.2905 c -0.0134,-0.45052 1.61668,-2.27479 1.93719,-2.16795 0.16444,0.0548 0.45739,-0.0587 0.65098,-0.25232 0.1936,-0.1936 0.61733,-0.35199 0.94164,-0.35199 0.3243,0 0.72426,-0.13463 0.8888,-0.29917 0.2225,-0.2225 0.27515,-0.17164 0.20546,0.19844 -0.0515,0.27368 -0.10283,0.5869 -0.11396,0.69604 -0.0111,0.10914 -0.49649,0.19844 -1.07858,0.19844 -0.95666,0 -1.17409,0.16031 -1.10477,0.81456 0.009,0.0842 -0.24487,0.13028 -0.56398,0.10238 -0.83339,-0.0729 -1.16209,0.19415 -0.56264,0.45704 0.44941,0.1971 0.43916,0.21063 -0.0843,0.11126 -0.36822,-0.0699 -0.69373,0.0544 -0.85185,0.3253 -0.14076,0.24113 -0.25954,0.31671 -0.26396,0.16797 z m 1.0105,-2.46372 c 1.06495,-0.94685 5.16124,-2.55641 7.18353,-2.82264 1.54669,-0.20361 1.77665,-0.001 0.29517,0.25975 -0.48365,0.0852 -1.05409,0.32964 -1.26763,0.54318 -0.44414,0.44414 -0.72533,0.51617 -0.48274,0.12367 0.18926,-0.30625 -0.1517,-0.34206 -0.81892,-0.086 -0.43249,0.16596 -0.42935,0.19434 0.0445,0.40231 0.41661,0.18283 0.39133,0.20057 -0.13822,0.097 -0.85843,-0.16789 -3.55514,0.73426 -4.74903,1.58873 l -0.95293,0.682 z"
         id="path393" /></g></g></svg>
