<?xml version="1.0" encoding="UTF-8" standalone="no"?>
<!-- Created with Inkscape (http://www.inkscape.org/) -->

<svg
   width="53.738644mm"
   height="65.632835mm"
   viewBox="0 0 53.738644 65.632835"
   version="1.1"
   id="svg1"
   inkscape:export-filename="the-piranha.svg"
   inkscape:export-xdpi="96"
   inkscape:export-ydpi="96"
   xml:space="preserve"
   xmlns:inkscape="http://www.inkscape.org/namespaces/inkscape"
   xmlns:sodipodi="http://sodipodi.sourceforge.net/DTD/sodipodi-0.dtd"
   xmlns="http://www.w3.org/2000/svg"
   xmlns:svg="http://www.w3.org/2000/svg"><sodipodi:namedview
     id="namedview1"
     pagecolor="#ffffff"
     bordercolor="#000000"
     borderopacity="0.25"
     inkscape:showpageshadow="2"
     inkscape:pageopacity="0.0"
     inkscape:pagecheckerboard="0"
     inkscape:deskcolor="#d1d1d1"
     inkscape:document-units="mm"><inkscape:page
       x="0"
       y="0"
       width="53.738644"
       height="65.632835"
       id="page2"
       margin="0"
       bleed="0" /></sodipodi:namedview><defs
     id="defs1" /><g
     inkscape:label="Calque 1"
     inkscape:groupmode="layer"
     id="layer1"
     transform="translate(-97.450609,-107.2622)"><g
       id="g173"
       transform="translate(7.1236161,3.2878229)"><path
         style="fill:#d3e8f6"
         d="m 90.355209,136.78958 v -32.80833 h 26.855211 26.8552 v 32.80833 32.80834 h -26.8552 -26.855211 z"
         id="path180" /><path
         style="fill:#c4dbeb"
         d="m 101.73229,168.91632 c 0.94589,-0.36065 2.09498,-0.83108 2.55353,-1.0454 0.45856,-0.21432 0.93481,-0.39339 1.05833,-0.39795 0.12353,-0.005 0.81991,-0.30111 1.54752,-0.65903 0.7276,-0.35793 1.46324,-0.65186 1.63474,-0.65319 0.17151,-0.001 0.46917,-0.15576 0.66146,-0.34317 0.1923,-0.18741 0.89414,-0.54642 1.55966,-0.79778 1.2097,-0.45691 3.47871,-1.80155 3.31547,-1.96479 -0.0476,-0.0476 -0.42054,0.0405 -0.82883,0.19576 -0.53508,0.20343 -0.79306,0.20018 -0.92398,-0.0116 -0.0999,-0.16164 -0.46696,-0.32643 -0.8157,-0.36621 -1.19603,-0.13643 -3.6444,-0.95334 -4.03853,-1.34747 -0.21681,-0.21681 -0.56856,-0.3942 -0.78167,-0.3942 -0.21311,0 -0.456,-0.1786 -0.53976,-0.39688 -0.0838,-0.21828 -0.33927,-0.39687 -0.5678,-0.39687 -0.45584,0 -2.00505,-1.45767 -3.09317,-2.91042 -0.88575,-1.18256 -1.08959,-2.6956 -0.37728,-2.80036 0.27296,-0.0402 0.68968,0.0314 0.92604,0.15894 3.41554,1.84333 17.7148,2.55103 21.33185,1.05575 0.29104,-0.12032 1.06494,-0.45615 1.71979,-0.7463 0.65484,-0.29016 1.66687,-0.6847 2.24896,-0.87676 0.58208,-0.19206 1.81936,-0.87054 2.7495,-1.50772 0.93015,-0.63718 3.35636,-1.97507 5.39158,-2.97308 2.03523,-0.99802 3.91625,-2.0099 4.18005,-2.24864 0.57433,-0.51976 1.30491,-2.55145 1.30491,-3.62887 0,-0.42503 -0.16409,-1.14796 -0.36465,-1.60651 -0.83121,-1.90051 -1.23462,-3.33763 -1.47989,-5.27211 -0.14263,-1.125 -0.465,-2.43207 -0.71636,-2.90459 -0.25137,-0.47252 -0.4363,-1.03772 -0.41097,-1.256 0.0253,-0.21828 -0.0129,-0.26909 -0.085,-0.11292 -0.19949,0.43226 -1.69135,0.15059 -3.0938,-0.58412 -0.88227,-0.4622 -1.5513,-0.62704 -2.24896,-0.55409 l -0.99308,0.10384 1.12448,0.0445 c 0.61846,0.0245 1.12448,0.16354 1.12448,0.30906 0,0.14552 0.25797,0.26458 0.57326,0.26458 0.85558,0 0.35756,0.33548 -1.0491,0.7067 -1.62928,0.42997 -1.91769,0.42692 -1.74678,-0.0185 0.0781,-0.20357 0.0162,-0.44787 -0.13756,-0.54291 -0.17016,-0.10516 -0.21792,-0.0121 -0.12203,0.23782 0.17434,0.45431 -0.10117,0.52586 -0.66054,0.17156 -0.20223,-0.12809 -0.27639,-0.37372 -0.16651,-0.55151 0.15187,-0.24574 0.0708,-0.25243 -0.34732,-0.0286 -0.45387,0.2429 -0.6147,0.19303 -0.95798,-0.29706 -0.22689,-0.32393 -0.41253,-0.43639 -0.41253,-0.2499 0,0.20427 -0.13148,0.25752 -0.33072,0.13394 -0.18191,-0.11281 -1.07487,-0.23002 -1.98438,-0.26045 -1.31065,-0.0439 -1.65365,0.0261 -1.65365,0.33741 0,0.21602 -0.121,0.31797 -0.26889,0.22657 -0.1479,-0.0914 -0.21267,-0.25719 -0.14393,-0.3684 0.0687,-0.11121 -0.0418,-0.2022 -0.24557,-0.2022 -0.2038,0 -0.36306,0.0695 -0.35391,0.15434 0.0518,0.48091 -0.0836,0.637 -0.28159,0.32453 -0.15858,-0.25027 -0.22746,-0.1373 -0.22746,0.37307 v 0.73204 l 0.49021,-0.63765 c 0.26962,-0.35071 0.49286,-0.51127 0.49609,-0.35681 0.003,0.15446 -0.262,0.56888 -0.58942,0.92093 -0.32743,0.35205 -0.56555,0.73169 -0.52917,0.84364 0.0364,0.11195 -0.0529,0.20355 -0.19844,0.20355 -0.14552,0 -0.27295,0.20836 -0.28318,0.46302 -0.0157,0.39187 -0.0504,0.38171 -0.22543,-0.0662 -0.2,-0.51167 -0.21313,-0.50938 -0.39703,0.0691 -0.2137,0.67216 -1.60023,1.50389 -2.04687,1.22785 -0.17326,-0.10708 -0.24046,-0.0311 -0.16597,0.18763 0.11972,0.35154 -1.0127,1.55718 -1.46323,1.55786 -0.29019,4.3e-4 -1.78522,1.11863 -3.93863,2.94587 -0.99498,0.84427 -2.15641,1.58484 -2.64584,1.68707 -0.4798,0.10022 -1.46767,0.36084 -2.19528,0.57917 -5.62356,1.68737 -7.65243,2.53819 -8.32239,3.49002 -0.2117,0.30076 -0.44982,0.45025 -0.52917,0.33219 -0.27083,-0.40295 -3.715803,-1.89025 -4.378309,-1.89025 -0.363413,0 -0.630986,-0.11066 -0.594606,-0.24591 0.03638,-0.13525 -0.130191,-0.40314 -0.370159,-0.59531 -0.239967,-0.19217 -0.512833,-0.60769 -0.606369,-0.92338 -0.131537,-0.44394 -0.03269,-0.62046 0.436304,-0.7792 0.58355,-0.1975 0.576498,-0.21206 -0.18738,-0.38691 -0.783296,-0.17929 -0.784453,-0.18209 -0.08779,-0.21298 0.900642,-0.0399 1.542994,-0.28598 1.542994,-0.59102 0,-0.13119 -0.253681,-0.0887 -0.563735,0.0944 -0.45036,0.266 -0.587823,0.26646 -0.683507,0.002 -0.141571,-0.39092 -1.663174,-0.45144 -1.663174,-0.0661 0,0.14553 -0.506016,0.2505 -1.12448,0.23328 -1.017759,-0.0283 -1.049147,-0.0479 -0.330729,-0.2057 0.611655,-0.13438 0.691028,-0.215 0.345987,-0.35141 -0.562336,-0.22231 -2.330362,0.0496 -2.330362,0.35845 0,0.12648 -0.178593,0.22997 -0.396875,0.22997 -0.218281,0 -0.396875,-0.1786 -0.396875,-0.39688 0,-0.21828 0.127567,-0.39687 0.283482,-0.39687 0.155916,0 0.462202,-0.17872 0.680636,-0.39716 0.353149,-0.35314 0.329069,-0.38979 -0.217336,-0.33072 l -0.61449,0.0664 -0.06799,-17.92581 -0.06799,-17.92582 26.857063,0.003 26.85705,0.003 v 32.80283 32.80284 l -12.89843,-0.003 -12.89844,-0.003 1.05833,-0.91051 c 0.58209,-0.50077 1.13637,-0.91497 1.23174,-0.92043 0.0954,-0.005 0.69069,-0.44477 1.32292,-0.97622 0.63223,-0.53146 1.02971,-0.91841 0.88328,-0.8599 -0.67699,0.27053 -4.89314,3.23951 -4.89314,3.44572 0,0.12933 -3.96324,0.22681 -8.92969,0.21961 l -8.92969,-0.0129 z m -6.222647,-32.43721 c 0.506312,-0.23069 0.594499,-0.37113 0.343179,-0.5465 -0.220305,-0.15373 -0.133248,-0.17846 0.249685,-0.0709 0.387231,0.10875 0.985099,-0.0677 1.751449,-0.51676 0.661157,-0.38747 1.349775,-0.61041 1.594891,-0.51635 0.295941,0.11357 0.431362,0.0224 0.431362,-0.29051 0,-0.32578 0.151151,-0.41651 0.529171,-0.31766 0.29104,0.0761 0.52916,0.0385 0.52916,-0.0836 0,-0.12209 0.23813,-0.29756 0.52917,-0.38994 0.29104,-0.0924 0.52917,-0.27037 0.52917,-0.39556 0,-0.32179 -3.369154,-1.87523 -4.446108,-2.05 -0.839681,-0.13626 -1.014047,-0.0215 -2.723424,1.79266 -1.004468,1.06603 -1.826305,2.09552 -1.826305,2.28776 0,0.19223 -0.119063,0.34952 -0.264584,0.34952 -0.145521,0 -0.264583,0.13421 -0.264583,0.29824 0,0.19965 0.45922,0.25595 1.389062,0.17031 0.763985,-0.0704 1.240235,-0.0756 1.058334,-0.0116 -0.181901,0.064 -0.330729,0.22547 -0.330729,0.35887 0,0.31343 0.100314,0.30603 0.9211,-0.0679 z m 8.407827,-4.62647 c -0.47648,-0.1925 0.27077,-0.88389 0.95531,-0.88389 0.77521,0 0.93566,-0.45942 0.23781,-0.68091 -0.32898,-0.10442 -0.71766,-0.35304 -0.86374,-0.5525 -0.34184,-0.46675 -4.952641,-2.20618 -5.848053,-2.20618 -0.633176,0 -1.664091,0.87259 -1.684785,1.42604 -0.0048,0.12948 -0.195713,0.37209 -0.42416,0.53914 -0.423827,0.30991 0.291297,0.58199 5.310148,2.02036 1.44526,0.4142 3.10545,0.65629 2.31747,0.33794 z m 2.78261,-3.3058 c -0.69645,-0.25457 -0.70639,-0.28537 -0.29489,-0.91341 0.23423,-0.35747 0.35334,-0.72247 0.26471,-0.81111 -0.22511,-0.2251 0.66701,-1.67441 1.03068,-1.67441 0.16387,0 0.44064,-0.47625 0.61504,-1.05833 0.17439,-0.58208 0.43136,-1.05833 0.57104,-1.05833 0.13968,0 0.26233,-0.50602 0.27256,-1.12448 0.0132,-0.80038 0.0766,-0.97642 0.21968,-0.61077 0.1823,0.46573 0.2477,0.4348 0.70011,-0.33107 0.27446,-0.46463 0.71454,-0.91318 0.97794,-0.99678 0.2634,-0.0836 0.446,-0.35134 0.40577,-0.59497 -0.0511,-0.30963 0.14589,-0.46818 0.65447,-0.52669 0.85723,-0.0986 0.95376,-0.4703 0.18548,-0.71415 -0.31765,-0.10081 -0.80679,0.001 -1.18132,0.24676 -0.35155,0.23035 -0.82717,0.41881 -1.05692,0.41881 -0.22975,0 -0.73874,0.29766 -1.13109,0.66146 -0.39234,0.3638 -0.92293,0.66146 -1.17907,0.66146 -0.25615,0 -0.46573,0.11104 -0.46573,0.24675 0,0.13572 -0.26789,0.32929 -0.59531,0.43016 -0.32742,0.10087 -1.34516,0.70421 -2.26163,1.34075 -0.91648,0.63654 -1.73154,1.15734 -1.81124,1.15734 -0.0797,0 -0.51802,0.26789 -0.97403,0.59531 -0.456,0.32743 -1.01749,0.71438 -1.24774,0.8599 -0.23025,0.14552 -0.862812,0.54719 -1.405695,0.89261 -0.542883,0.34541 -0.945571,0.75248 -0.894863,0.90461 0.149754,0.44926 7.158628,2.24981 8.793638,2.25905 0.39814,0.002 0.35071,-0.0622 -0.19159,-0.26047 z m 2.63786,27.15312 c -4.78781,-0.69723 -5.85265,-1.08797 -7.44382,-2.73149 -0.95554,-0.98697 -1.01633,-1.14066 -0.85363,-2.1581 0.0963,-0.6025 0.51884,-1.85342 0.93889,-2.77982 0.70316,-1.55078 0.89032,-1.74827 2.35995,-2.49014 0.87792,-0.44317 3.45044,-1.33797 5.7167,-1.98844 3.93029,-1.12809 4.19292,-1.24645 5.69013,-2.56435 0.86331,-0.75992 1.49778,-1.49797 1.40993,-1.64011 -0.0879,-0.14214 -0.0289,-0.17759 0.13097,-0.0788 0.15989,0.0988 1.16055,-0.40023 2.2237,-1.10899 1.06314,-0.70876 2.47845,-1.60419 3.14511,-1.98984 1.23893,-0.71669 2.01748,-1.47449 3.13081,-3.04734 0.608,-0.85895 0.67915,-0.88513 2.11188,-0.777 0.98822,0.0746 2.13276,0.42826 3.43196,1.0605 l 1.94928,0.9486 1.09343,-0.49652 c 0.60139,-0.27309 1.6484,-0.49914 2.32669,-0.50233 1.74177,-0.008 2.49024,0.90751 2.74811,3.36221 0.1035,0.98524 0.54338,2.74385 0.97751,3.90802 1.0863,2.91303 1.16552,3.95354 0.41298,5.42396 -0.57906,1.13143 -0.82963,1.30244 -5.03982,3.43958 -2.43676,1.23693 -5.1373,2.69912 -6.0012,3.24933 -1.87576,1.19463 -5.23849,2.46342 -7.914,2.98602 -2.39017,0.46687 -9.26206,0.45319 -12.54556,-0.025 z m -0.90507,-1.55376 c 0.0255,-0.12373 0.43325,-0.63524 0.90619,-1.13671 0.47295,-0.50146 0.8599,-1.02234 0.8599,-1.1575 0,-0.13516 0.16585,-0.24574 0.36857,-0.24574 0.20271,0 0.43095,-0.16258 0.5072,-0.36128 0.11521,-0.30023 0.57757,-0.27818 2.73603,0.13048 1.42856,0.27047 2.80766,0.42502 3.06467,0.34345 0.25824,-0.082 0.46728,-0.0147 0.46728,0.15031 0,0.20284 0.37221,0.24281 1.16036,0.12462 0.68459,-0.10266 1.38316,-0.0548 1.70374,0.1168 0.33624,0.17995 0.60272,0.19477 0.69907,0.0389 0.1618,-0.26181 -0.17315,-0.33666 -3.69546,-0.82586 -1.16417,-0.16169 -2.89058,-0.46681 -3.83646,-0.67806 -2.24444,-0.50126 -7.20243,-2.13773 -7.79961,-2.57439 -0.43528,-0.31829 -0.40998,-0.40673 0.37071,-1.29588 0.87854,-1.00061 2.97298,-1.8535 6.59624,-2.68609 1.48511,-0.34126 1.88573,-0.58323 3.43959,-2.0775 0.96728,-0.93018 1.99583,-1.82192 2.28566,-1.98164 0.28983,-0.15972 0.44898,-0.36838 0.35366,-0.46369 -0.0953,-0.0953 -1.08593,0.62265 -2.20138,1.59547 -1.93262,1.6855 -2.161,1.80511 -4.85158,2.54103 -3.71915,1.01724 -7.19232,2.26691 -7.85069,2.82472 -0.2911,0.24664 -0.72942,0.7592 -0.97404,1.13902 -0.57607,0.89449 -1.36115,3.59757 -1.18113,4.06671 0.1664,0.43361 1.98906,1.29421 4.53653,2.14198 1.88586,0.6276 2.25276,0.67017 2.33495,0.27088 z"
         id="path179" /><path
         style="fill:#b3cee1"
         d="m 119.54852,168.77736 c 1.27144,-0.79136 1.37018,-0.86883 4.65644,-3.65324 2.66155,-2.25511 2.71623,-2.31817 1.37287,-1.58336 -0.63667,0.34826 -1.21496,0.78203 -1.28508,0.96393 -0.0701,0.1819 -0.35288,0.33073 -0.62835,0.33073 -0.27547,0 -0.50086,0.0961 -0.50086,0.21365 0,0.40164 -2.44181,1.93639 -2.83859,1.78413 -0.25279,-0.097 -0.34784,-0.028 -0.26364,0.19148 0.0737,0.19209 -0.0589,0.35066 -0.30127,0.36017 -0.23812,0.009 -0.76038,0.1073 -1.16056,0.21767 -0.62714,0.17297 -0.7276,0.12365 -0.7276,-0.35717 0,-0.47444 -0.15826,-0.55785 -1.05834,-0.55785 -0.9525,0 -1.05833,-0.0661 -1.05833,-0.66146 0,-0.53566 -0.13061,-0.66146 -0.68676,-0.66146 -0.37772,0 -1.0242,-0.24028 -1.43663,-0.53395 -0.46286,-0.32958 -0.8136,-0.43086 -0.91636,-0.26459 -0.0916,0.14816 0.0121,0.26938 0.23039,0.26938 0.21829,0 0.4644,0.10925 0.54693,0.24279 0.15778,0.25529 -1.61284,0.20347 -1.87107,-0.0548 -0.22178,-0.22177 1.46109,-1.02943 1.76002,-0.84468 0.14125,0.0873 0.25681,-0.0864 0.25681,-0.38606 0,-0.34886 0.17183,-0.54478 0.47777,-0.54478 0.56866,0 2.23229,-1.1705 1.99743,-1.40536 -0.0899,-0.0899 -0.3953,-0.0395 -0.67858,0.11212 -0.28328,0.15161 -0.71411,0.19105 -0.9574,0.0876 -0.24329,-0.10341 -0.97343,-0.21757 -1.62255,-0.25369 -0.64911,-0.0361 -1.22458,-0.19881 -1.27882,-0.36153 -0.0542,-0.16272 -0.56494,-0.29585 -1.1349,-0.29585 -0.56995,0 -1.03628,-0.0899 -1.03628,-0.19979 0,-0.10988 -0.71438,-0.47679 -1.5875,-0.81535 -0.87313,-0.33856 -1.5875,-0.72491 -1.5875,-0.85855 0,-0.13364 -0.23813,-0.24298 -0.52917,-0.24298 -0.29104,0 -0.52916,-0.16014 -0.52916,-0.35587 0,-0.19572 -0.24103,-0.57399 -0.53561,-0.84058 -0.29458,-0.26659 -0.49123,-0.61247 -0.437,-0.76861 0.0542,-0.15614 -0.17423,-0.46639 -0.50771,-0.68944 -0.41023,-0.27439 -0.53432,-0.52206 -0.38369,-0.7658 0.17764,-0.28743 0.45539,-0.30294 1.37406,-0.0768 4.59652,1.13171 13.21437,1.5837 17.15869,0.89994 1.86148,-0.32269 2.25831,-0.43894 3.77032,-1.10451 0.32742,-0.14413 1.42875,-0.57018 2.44739,-0.94679 1.01865,-0.3766 2.4501,-1.13507 3.18101,-1.68549 0.73091,-0.55042 3.07778,-1.85588 5.21526,-2.90103 2.25354,-1.10191 4.11319,-2.1887 4.42631,-2.58677 0.87584,-1.11344 1.34484,-3.05932 1.0218,-4.2394 -0.15124,-0.55248 -0.34882,-1.12358 -0.43907,-1.2691 -0.30062,-0.48471 -1.08478,-2.90375 -1.09354,-3.37343 -0.005,-0.25467 0.0977,-0.46303 0.22763,-0.46303 0.12996,0 0.31127,-0.19543 0.40294,-0.43429 0.13359,-0.34815 0.0931,-0.37328 -0.20396,-0.12672 -0.29582,0.24551 -0.40172,0.18864 -0.52473,-0.28175 -0.18861,-0.72125 0.0288,-1.00315 0.3644,-0.47249 0.15816,0.25009 0.24759,0.27396 0.25019,0.0668 0.002,-0.17806 0.18268,-0.25388 0.40297,-0.16935 0.21941,0.0842 0.69147,-0.0386 1.04903,-0.27289 0.35756,-0.23428 0.89242,-0.42596 1.18858,-0.42596 0.53597,0 0.53847,0.0788 0.53847,16.93333 v 16.93334 h -6.10103 c -4.80721,0 -6.06016,-0.0701 -5.90832,-0.33073 0.10599,-0.1819 0.81271,-1.23387 1.5705,-2.33771 0.75779,-1.10384 1.51826,-2.29446 1.68993,-2.64583 l 0.31214,-0.63886 -0.55081,0.66146 c -0.30294,0.3638 -0.81568,0.96469 -1.13942,1.3353 -0.32373,0.37061 -0.98638,1.16853 -1.47253,1.77316 -1.9711,2.45141 -1.08117,2.21036 -7.99214,2.16477 l -6.14896,-0.0406 z m -10.67248,-13.17388 c -1.67349,-0.26586 -3.56277,-0.62753 -4.19841,-0.8037 -1.40884,-0.39049 -3.73909,-2.45993 -3.73909,-3.32061 0,-0.68504 0.80892,-3.12104 1.44458,-4.35029 0.68106,-1.31702 3.40193,-2.4721 9.53366,-4.04729 1.79536,-0.46122 2.33476,-0.74083 3.57188,-1.85158 1.26092,-1.13211 4.86803,-3.6423 7.71335,-5.36772 0.48108,-0.29172 1.41337,-1.22084 2.07176,-2.0647 l 1.19706,-1.53429 1.45521,0.097 c 0.9946,0.0663 2.06635,0.39993 3.38602,1.05395 l 1.9308,0.95691 1.1119,-0.50479 c 0.61155,-0.27764 1.6567,-0.50741 2.32256,-0.5106 1.75456,-0.008 2.29454,0.67039 2.75742,3.46641 0.38612,2.33241 0.96163,4.3161 1.64739,5.67829 0.2906,0.57724 0.35921,1.16063 0.23439,1.993 -0.32648,2.17711 -0.78685,2.60071 -5.08686,4.68055 -2.1659,1.04761 -4.06671,1.99365 -4.22402,2.10232 -3.08096,2.1282 -5.09214,3.07493 -8.97439,4.22452 -2.15992,0.63959 -10.39903,0.69929 -14.15521,0.10258 z m 0.74388,-2.54953 c 0.48189,-0.79623 1.03752,-1.4477 1.23472,-1.4477 0.19721,0 0.40613,-0.14274 0.46428,-0.31719 0.0799,-0.23971 0.71542,-0.20213 2.60174,0.15384 6.39962,1.20771 11.33313,1.22778 13.7408,0.0559 0.80036,-0.38956 1.21708,-0.63605 0.92604,-0.54776 -4.00985,1.21652 -4.01848,1.21737 -7.9375,0.77639 -5.87297,-0.66085 -9.34946,-1.43707 -13.82448,-3.08672 -1.61011,-0.59354 -1.76113,-1.079 -0.66146,-2.12636 0.75802,-0.72197 3.55804,-1.76265 6.28386,-2.33551 1.38116,-0.29027 1.81102,-0.54473 3.30729,-1.95774 0.94588,-0.89326 2.01026,-1.82319 2.36529,-2.06651 0.35502,-0.24333 0.57485,-0.51305 0.48851,-0.59939 -0.14163,-0.14163 -3.55597,2.56593 -3.9383,3.12305 -0.0871,0.127 -1.21825,0.50795 -2.51354,0.84655 -3.17232,0.82928 -5.4391,1.49758 -5.92378,1.74647 -0.22003,0.11299 -0.77343,0.34324 -1.22977,0.51168 -1.39971,0.51664 -2.41297,1.7487 -3.04046,3.69701 -0.31785,0.9869 -0.5013,1.99401 -0.40766,2.23802 0.25574,0.66647 5.18249,2.71199 6.65908,2.76477 0.36756,0.0131 0.79676,-0.42322 1.40534,-1.42879 z m -8.29738,-6.82541 c -0.28396,-0.18853 -1.561319,-0.81185 -2.838577,-1.38514 -2.875441,-1.29064 -3.146175,-1.8133 -1.621839,-3.13098 l 1.013521,-0.87612 -2.598265,-0.13591 c -1.429045,-0.0747 -2.674659,-0.24112 -2.76803,-0.36971 -0.09337,-0.12859 -0.407891,-0.36563 -0.698932,-0.52675 -1.09087,-0.6039 -0.736352,-1.01147 1.394191,-1.60285 1.135133,-0.31507 2.714563,-0.87681 3.509844,-1.2483 2.017096,-0.94221 5.616477,-3.16857 5.623047,-3.47807 0.0138,-0.65155 -3.837778,-2.24138 -5.430118,-2.24138 -0.819534,0 -0.995923,-0.0937 -0.995923,-0.52917 0,-0.29104 0.09656,-0.52916 0.21458,-0.52916 0.118018,0 2.162875,0.53893 4.544121,1.19762 2.38125,0.65868 4.39805,1.10517 4.48178,0.99218 0.0837,-0.11298 0.56895,-0.43459 1.07827,-0.71467 0.50932,-0.28008 1.00676,-0.63042 1.10542,-0.77853 0.19777,-0.29689 -1.03511,-0.9094 -3.88355,-1.92939 -1.01864,-0.36476 -2.36241,-0.84745 -2.98614,-1.07264 -1.477653,-0.53349 -1.27108,-0.73894 0.2389,-0.2376 0.63786,0.21178 1.99318,0.57832 3.01183,0.81455 1.01864,0.23622 2.38786,0.55408 3.04271,0.70635 0.65484,0.15228 1.38677,0.3163 1.6265,0.3645 0.44303,0.0891 3.136,-2.25701 3.136,-2.73203 0,-0.14184 0.17859,-0.32643 0.39687,-0.41019 0.21828,-0.0838 0.39688,-0.39416 0.39688,-0.68977 0,-0.39691 0.17298,-0.53747 0.66145,-0.53747 0.36381,0 0.66146,-0.11292 0.66146,-0.25095 0,-0.43804 1.23328,-1.60113 1.69775,-1.60113 0.25837,0 0.56325,-0.33506 0.7237,-0.79534 0.18192,-0.52184 0.51749,-0.85564 0.97581,-0.97067 0.78818,-0.19782 1.14102,-0.49565 1.59735,-1.3483 0.17362,-0.32442 0.54961,-0.58986 0.83553,-0.58986 0.28593,0 0.51986,-0.17859 0.51986,-0.39687 0,-0.21828 0.16586,-0.39688 0.36857,-0.39688 0.20271,0 0.43411,-0.1708 0.51422,-0.37956 0.0801,-0.20877 0.38928,-0.50996 0.68706,-0.66932 0.52999,-0.28364 0.53782,-0.24638 0.37164,1.76863 -0.1573,1.9073 -0.25906,2.18126 -1.38636,3.73264 -2.33122,3.20821 -4.25929,7.81793 -4.25929,10.18331 0,0.90994 0.88982,1.79849 2.54554,2.54188 0.59968,0.26925 1.16236,0.60609 1.25039,0.74853 0.088,0.14243 -0.40262,0.60971 -1.09033,1.03838 -0.68772,0.42868 -2.2029,1.55233 -3.36706,2.49701 -1.74368,1.41493 -2.44303,1.80436 -3.96875,2.20999 -4.83039,1.28422 -8.14113,2.57182 -9.2733,3.60653 -0.46052,0.42089 -0.61968,0.44384 -1.05833,0.15261 z m -10.96028,-32.72229 -0.002,-9.525 h 9.4431 c 5.39921,0 9.33546,0.099 9.19174,0.23111 -0.13824,0.12712 -1.14432,0.98712 -2.23572,1.91113 -1.09141,0.92401 -2.11863,1.80227 -2.28272,1.9517 -0.16408,0.14942 -1.18892,1.07154 -2.27741,2.04914 -2.449258,2.19975 -4.821702,4.57146 -6.628674,6.62663 -0.758399,0.86256 -1.646798,1.86072 -1.97422,2.21813 -0.327422,0.35741 -0.595312,0.74339 -0.595312,0.85772 0,0.11434 -0.47625,0.70853 -1.058334,1.32043 -0.582083,0.6119 -1.058333,1.28612 -1.058333,1.49827 0,0.21216 -0.117026,0.38574 -0.260058,0.38574 -0.165501,0 -0.260785,-3.46325 -0.262059,-9.525 z m 11.63462,5.68854 c -0.21806,-0.26274 -0.81025,-0.39688 -1.75219,-0.39688 -1.324316,0 -1.422814,-0.0438 -1.422814,-0.63315 0,-0.34823 -0.178594,-0.70168 -0.396875,-0.78544 -0.218281,-0.0838 -0.396875,-0.2751 -0.396875,-0.42519 0,-0.15008 0.178594,-0.27288 0.396875,-0.27288 0.218281,0 0.396875,-0.12735 0.396875,-0.28299 0,-0.15564 -0.267891,-0.24211 -0.595313,-0.19215 -0.327422,0.05 -0.569617,0.22462 -0.538212,0.38814 0.03332,0.17349 -0.159506,0.24067 -0.46302,0.16129 -0.286067,-0.0748 -0.520122,-0.17405 -0.520122,-0.22055 0,-0.0465 0.912329,-0.98511 2.027398,-2.08581 1.455973,-1.43721 2.220343,-2.00353 2.711983,-2.00931 0.59649,-0.007 0.62448,-0.043 0.21748,-0.28001 -0.41609,-0.24227 -0.32282,-0.41472 0.85423,-1.57946 0.72673,-0.71912 1.44294,-1.30749 1.59157,-1.30749 0.14864,0 0.27026,-0.11055 0.27026,-0.24568 0,-0.28829 0.28607,-0.57899 1.97138,-2.00327 0.68876,-0.58209 1.73353,-1.50637 2.32172,-2.05396 l 1.06944,-0.99562 9.01904,0.0696 9.01904,0.0696 -3.72936,1.8825 c -4.27863,2.15975 -5.98921,3.07561 -6.17751,3.30748 -0.0728,0.0896 -0.66542,0.43326 -1.31701,0.76371 -1.44104,0.73081 -3.28095,1.91125 -3.4014,2.18225 -0.0485,0.10914 -0.23841,0.19843 -0.42201,0.19843 -0.1836,0 -0.54932,0.23813 -0.81271,0.52917 -0.26339,0.29104 -0.57814,0.52917 -0.69944,0.52917 -0.20998,0 -0.93756,0.54029 -1.69244,1.25677 -0.19164,0.1819 -0.46342,0.33073 -0.60395,0.33073 -0.14052,0 -0.65504,0.37829 -1.14338,0.84065 -0.61756,0.58473 -1.14966,0.84249 -1.74777,0.84667 -0.47294,0.003 -0.85989,0.10126 -0.85989,0.21768 0,0.11641 0.12608,0.21166 0.28019,0.21166 0.15411,0 0.21889,0.0992 0.14394,0.22047 -0.22005,0.35606 -1.74705,0.0215 -1.74705,-0.38279 0,-0.20176 -0.17859,-0.36684 -0.39688,-0.36684 -0.21828,0 -0.39687,0.17859 -0.39687,0.39687 0,0.21828 0.17859,0.39688 0.39687,0.39688 0.58346,0 0.4919,1.12395 -0.13531,1.66099 -0.65258,0.55876 -0.89597,0.5696 -1.31989,0.0588 z m 17.99166,-6.8544 c 0,-1.98415 -0.05,-2.21221 -0.46302,-2.11322 -0.56997,0.13659 -1.32578,-0.31725 -1.01445,-0.60914 0.12485,-0.11705 0.28015,-0.064 0.34512,0.1179 0.13548,0.37937 0.86777,0.45379 0.86777,0.0882 0,-0.1334 -0.14883,-0.31331 -0.33073,-0.39981 -0.1819,-0.0865 -0.0422,-0.10218 0.31037,-0.0348 0.61406,0.11726 2.12951,-0.89264 2.3586,-1.57177 0.0491,-0.14553 0.64439,-0.48128 1.3229,-0.74612 0.67851,-0.26485 1.34676,-0.59227 1.485,-0.72761 0.13825,-0.13533 0.53223,-0.24607 0.87551,-0.24607 0.34329,0 0.56085,-0.10244 0.48347,-0.22765 -0.14986,-0.24247 1.3482,-0.95341 2.55686,-1.21341 0.40018,-0.0861 0.7276,-0.27331 0.7276,-0.41606 0,-0.16338 2.69595,-0.25954 7.27604,-0.25954 h 7.27604 v 4.63021 4.6302 h -1.4552 c -1.37584,0 -1.45521,0.0361 -1.45521,0.66146 0,0.65044 -0.0353,0.66146 -2.11667,0.66146 -2.08139,0 -2.11667,-0.011 -2.11667,-0.66146 0,-0.65043 -0.0353,-0.66146 -2.11666,-0.66146 -2.08139,0 -2.11667,0.011 -2.11667,0.66146 0,0.65044 -0.0353,0.66146 -2.11667,0.66146 h -2.11666 v -1.05833 -1.05834 h -1.05834 c -0.76435,0 -1.05833,0.11025 -1.05833,0.39688 0,0.28663 -0.29398,0.39687 -1.05833,0.39687 -0.9525,0 -1.05834,0.0662 -1.05834,0.66146 0,0.65044 -0.0353,0.66146 -2.11666,0.66146 h -2.11667 z"
         id="path178" /><path
         style="fill:#9db6cb"
         d="m 129.93931,162.52716 c -0.0566,-0.0566 -0.44342,-0.14125 -0.85963,-0.18814 -0.90013,-0.10142 -0.90371,-0.7564 -0.008,-1.50425 0.31591,-0.26381 0.44406,-0.48363 0.2848,-0.48847 -0.15927,-0.005 -0.63552,0.28871 -1.05834,0.65233 -0.42281,0.36363 -0.82828,0.67648 -0.90105,0.69523 -0.96291,0.24813 -2.09785,0.32666 -5.66049,0.39164 -2.3129,0.0422 -4.36673,0.13866 -4.56406,0.21438 -0.19733,0.0757 -0.35878,0.0661 -0.35878,-0.0214 0,-0.23315 1.09876,-1.14721 1.37902,-1.14721 0.13184,0 0.16613,-0.11906 0.0762,-0.26458 -0.0899,-0.14553 -0.8411,-0.27085 -1.66926,-0.27851 -1.99882,-0.0185 -5.03352,-0.57698 -6.01103,-1.10628 -0.43251,-0.23418 -1.01178,-0.49746 -1.28727,-0.58506 -0.27549,-0.0876 -0.43092,-0.22925 -0.3454,-0.31477 0.18439,-0.18439 -1.04451,-1.23826 -1.79954,-1.54323 -0.49884,-0.2015 -0.49126,-0.22472 0.13229,-0.40528 0.59014,-0.17088 0.54735,-0.20495 -0.39687,-0.31597 l -1.05834,-0.12445 1.00069,-0.0445 c 0.55038,-0.0245 1.41799,0.12989 1.92803,0.343 0.568,0.23732 0.85625,0.27243 0.74388,0.0906 -0.12621,-0.20421 0.0152,-0.24133 0.45322,-0.11895 1.38786,0.3878 7.56165,0.49411 10.02939,0.17271 1.38245,-0.18005 2.8112,-0.35696 3.175,-0.39312 0.3638,-0.0362 1.01865,-0.21797 1.45521,-0.40401 0.43656,-0.18603 1.15094,-0.49082 1.5875,-0.6773 0.43656,-0.18648 1.4363,-0.59161 2.22164,-0.9003 0.78534,-0.30869 1.95476,-0.94306 2.59871,-1.4097 0.64396,-0.46665 3.15656,-1.8621 5.58357,-3.101 l 4.41275,-2.25254 0.58566,-1.58392 c 0.62695,-1.69557 0.59959,-3.07173 -0.0878,-4.41505 -0.49336,-0.96416 -0.46487,-1.07098 0.22972,-0.86112 0.40161,0.12134 0.50922,0.0925 0.33073,-0.0888 -0.14552,-0.14775 -0.50271,-0.33572 -0.79375,-0.4177 -0.29104,-0.082 -0.0231,-0.10487 0.59537,-0.0508 0.6185,0.054 1.06304,-10e-4 0.98787,-0.12293 -0.0752,-0.12162 -0.0157,-0.29591 0.13224,-0.38732 0.14789,-0.0914 0.26889,-0.0401 0.26889,0.11401 0,0.15411 0.18008,0.2802 0.40018,0.2802 0.3511,0 0.39166,1.17631 0.33073,9.59115 -0.0382,5.27513 -0.15362,9.53161 -0.2565,9.45885 -0.10287,-0.0728 -0.341,0.0611 -0.52916,0.29752 -0.18817,0.2364 -1.20532,0.75282 -2.26035,1.14761 -1.13717,0.42553 -1.91823,0.86998 -1.91823,1.09154 0,0.37786 -0.51368,0.54237 -0.5474,0.17531 -0.0838,-0.91264 -0.23883,-1.73432 -0.34766,-1.84315 -0.0722,-0.0722 -0.44149,0.17908 -0.82072,0.55832 -0.37924,0.37923 -0.87544,0.68952 -1.10268,0.68952 -0.25454,0 -0.35593,0.14911 -0.26411,0.3884 0.20572,0.5361 -0.27162,0.77553 -0.55097,0.27637 -0.20017,-0.3577 -0.34803,-0.34677 -1.27303,0.0941 -0.93429,0.44527 -3.92936,0.90036 -4.19266,0.63706 z m -19.34348,-6.70406 c -5.65292,-0.77105 -7.00599,-1.19847 -8.53281,-2.6954 -1.26859,-1.24376 -1.33326,-1.62552 -0.62438,-3.68591 0.84423,-2.45381 1.28191,-3.08281 2.61484,-3.75786 1.16295,-0.58897 5.59495,-2.03569 8.65902,-2.82653 0.91936,-0.23729 1.76683,-0.7375 2.77813,-1.63976 1.53258,-1.36734 5.89656,-4.35781 7.43002,-5.09149 0.49739,-0.23798 1.49966,-1.197 2.22727,-2.13114 1.28086,-1.64447 1.3612,-1.69853 2.52753,-1.7009 0.86561,-0.002 1.81396,0.29222 3.36977,1.0446 l 2.16515,1.04704 1.12815,-0.51207 c 0.62048,-0.28163 1.67294,-0.51468 2.3388,-0.51787 1.69999,-0.008 2.30791,0.69753 2.64168,3.06656 0.27066,1.92107 1.0803,4.70813 1.7657,6.07814 0.28784,0.57537 0.35623,1.16334 0.23182,1.993 -0.32648,2.17711 -0.78685,2.60071 -5.08686,4.68055 -2.1659,1.04761 -4.07076,1.99365 -4.23304,2.10232 -2.649,1.77393 -3.663,2.31794 -5.84116,3.13375 -1.4147,0.52987 -3.4703,1.12364 -4.56799,1.31949 -2.17189,0.3875 -8.44491,0.44086 -10.99164,0.0935 z m -0.81095,-2.62508 c 0.73183,-1.23281 1.01522,-1.50907 1.57512,-1.53549 0.12925,-0.006 0.31284,-0.13703 0.40797,-0.29095 0.11841,-0.19159 0.96231,-0.12349 2.67542,0.2159 3.07819,0.60983 5.57328,0.86002 8.62928,0.86529 2.03307,0.004 2.59999,-0.10517 4.3242,-0.82898 2.05197,-0.86139 1.93703,-0.86472 -1.19263,-0.0346 -2.00309,0.5313 -3.73839,0.46122 -9.45403,-0.38182 -4.7772,-0.70463 -11.31375,-2.70273 -11.31375,-3.45842 0,-0.20222 0.32742,-0.71613 0.7276,-1.14201 0.77331,-0.82297 2.6795,-1.56413 6.16213,-2.39593 1.79389,-0.42846 2.17676,-0.63037 3.10972,-1.63991 0.58518,-0.63322 1.54844,-1.50849 2.14058,-1.94505 0.59215,-0.43656 1.07944,-0.88724 1.08288,-1.0015 0.0105,-0.35003 -0.84027,0.2264 -2.63049,1.78218 -1.24849,1.08499 -2.10634,1.59654 -3.175,1.89331 -3.84151,1.06678 -6.26223,1.78792 -6.62362,1.97318 -0.21831,0.11192 -0.78058,0.34555 -1.24949,0.5192 -0.46891,0.17364 -1.14774,0.57053 -1.50852,0.88196 -0.85787,0.74057 -1.76148,2.81832 -1.82322,4.19233 -0.0443,0.98688 0.039,1.14329 0.87221,1.63698 1.30926,0.77576 4.75416,1.98162 5.69334,1.99293 0.67424,0.008 0.91067,-0.18741 1.5703,-1.29859 z m 20.67997,-11.9514 c 0.11697,-0.18926 0.0726,-0.23365 -0.11668,-0.11668 -0.168,0.10383 -0.30546,0.0498 -0.30546,-0.12009 0,-0.20155 0.25284,-0.25015 0.7276,-0.13987 0.53983,0.12539 0.62519,0.0997 0.33073,-0.0996 -0.21828,-0.14771 -0.60897,-0.27039 -0.8682,-0.27262 -0.25923,-0.002 -0.53706,-0.17537 -0.61741,-0.38476 -0.0804,-0.20939 -0.5231,-0.46126 -0.98389,-0.55972 -0.46078,-0.0985 -0.95685,-0.26973 -1.10237,-0.38062 -0.35499,-0.27049 -3.38252,-0.99672 -5.03372,-1.20747 -1.09267,-0.13946 -1.50514,-0.0661 -2.3151,0.41179 -0.54206,0.31983 -0.98556,0.61637 -0.98556,0.65898 0,0.0426 0.50602,0.0849 1.12448,0.0939 1.46503,0.0213 4.17475,0.44533 6.07775,0.95096 0.83252,0.2212 1.66596,0.36458 1.85208,0.31862 0.18612,-0.046 0.23611,-0.0293 0.11109,0.037 -0.17502,0.0929 0.66384,0.58492 1.86534,1.09417 0.0278,0.0118 0.13549,-0.11604 0.23932,-0.28404 z m 1.48969,-1.54761 c -0.47646,-0.2905 -0.98247,-0.52818 -1.12448,-0.52818 -0.142,0 -0.25819,-0.1044 -0.25819,-0.232 0,-0.35844 -3.42634,-1.72816 -5.64456,-2.25647 -0.5469,-0.13025 -0.69692,-0.093 -0.55443,0.1375 0.13071,0.2115 0.0824,0.24625 -0.14612,0.10503 -0.44568,-0.27544 0.50785,-1.0162 1.89918,-1.47538 0.87342,-0.28826 1.68752,-1.15563 2.28097,-2.43024 0.0508,-0.10914 -0.31668,-0.19844 -0.81666,-0.19844 -0.79658,0 -1.06411,0.19735 -2.16207,1.59488 -0.84048,1.0698 -1.70263,1.8238 -2.61872,2.29021 l -1.36571,0.69535 3.30435,0.607 c 1.81739,0.33384 3.72937,0.84587 4.24884,1.13783 0.53543,0.30093 1.22426,0.47727 1.59045,0.40714 0.35527,-0.068 0.48364,-0.0484 0.28528,0.0436 -0.53688,0.24897 0.15226,0.62346 1.15441,0.62732 l 0.79375,0.003 z m -32.989,5.28579 c -3.461203,-1.68975 -3.624548,-2.17523 -1.262155,-3.75124 0.564922,-0.37688 0.458514,-0.40929 -1.758776,-0.53571 -3.334949,-0.19015 -5.818099,-1.48551 -3.685186,-1.92241 0.872816,-0.17879 3.383951,-1.08335 5.358608,-1.93029 0.574813,-0.24654 1.269632,-0.41022 1.544042,-0.36373 0.274411,0.0465 0.715851,-0.11178 0.980977,-0.35172 0.32654,-0.29551 0.95812,-0.43625 1.95775,-0.43625 0.81164,0 1.54058,-0.10497 1.61987,-0.23326 0.22432,-0.36296 -0.73671,-2.16142 -1.32692,-2.48317 -0.29104,-0.15866 -0.5887,-0.35131 -0.66146,-0.42809 -0.0728,-0.0768 -0.42995,-0.28578 -0.79375,-0.46442 -0.4575,-0.22465 -0.49829,-0.28793 -0.13229,-0.20522 0.29104,0.0658 1.00542,0.19548 1.5875,0.28826 2.56058,0.4081 2.72812,0.53445 3.07994,2.32274 0.3167,1.60976 0.3265,1.62313 0.63548,0.86722 0.21464,-0.52511 0.36211,-0.65008 0.46665,-0.39544 0.11919,0.29034 0.22601,0.2558 0.48519,-0.15686 0.32329,-0.51474 0.33742,-0.51113 0.51815,0.13229 0.10621,0.3781 0.1971,-0.47555 0.21218,-1.99276 l 0.0264,-2.65422 -1.25677,-0.36131 c -0.69123,-0.19872 -1.67349,-0.58889 -2.18281,-0.86705 -0.50933,-0.27816 -0.68792,-0.42468 -0.39688,-0.3256 0.29104,0.0991 1.24354,0.33631 2.11667,0.52718 0.87312,0.19087 1.78511,0.42307 2.02664,0.516 0.56542,0.21755 0.82579,1.21719 0.79209,3.04109 -0.0197,1.06484 0.0373,1.31326 0.21224,0.92604 0.21417,-0.47394 0.24107,-0.45323 0.25772,0.19844 0.021,0.82193 0.31621,0.92136 0.92574,0.31183 0.45783,-0.45783 0.5562,-0.76058 0.16947,-0.52157 -0.56322,0.3481 -0.59088,-0.50428 -0.0311,-0.95759 0.79752,-0.64579 1.01954,-0.6136 1.11969,0.16237 0.0817,0.6327 0.11558,0.61976 1.37592,-0.52471 1.22955,-1.11652 1.28515,-1.22603 1.14665,-2.25864 -0.20549,-1.53205 0.60307,-2.89242 1.71918,-2.89242 0.67647,0 0.77355,0.0809 0.63533,0.52917 -0.0897,0.29104 -0.23657,0.76729 -0.32631,1.05833 -0.0958,0.31064 -0.0411,0.52917 0.1323,0.52917 0.16249,0 0.29544,-0.21164 0.29544,-0.4703 0,-0.25866 0.18534,-0.73491 0.41188,-1.05833 0.37278,-0.53222 0.37278,-0.58804 0,-0.58804 -0.53547,0 -0.50867,-0.25975 0.10235,-0.99219 0.5979,-0.7167 0.72686,-0.73541 0.91207,-0.13229 0.0782,0.25466 0.10414,0.1392 0.0576,-0.25657 -0.0465,-0.39578 0.007,-0.66293 0.1192,-0.59367 0.11207,0.0693 0.25717,-0.0236 0.32243,-0.20644 0.0653,-0.18281 0.20275,-0.25468 0.30552,-0.15971 0.10276,0.095 0.0596,0.39263 -0.096,0.66146 -0.15554,0.26883 -0.40391,0.78644 -0.55192,1.15024 -0.14802,0.36381 -0.55406,1.1659 -0.9023,1.78244 -0.38676,0.68473 -0.57476,1.34439 -0.48307,1.69502 0.10222,0.39089 0.0534,0.51425 -0.15311,0.38663 -0.18401,-0.11372 -0.25141,-0.052 -0.17142,0.15707 0.0725,0.18946 -0.0307,0.97036 -0.22932,1.73533 -0.28919,1.11378 -0.29557,1.48053 -0.032,1.841 0.18103,0.24758 0.27346,0.59527 0.20539,0.77265 -0.0823,0.21437 0.0607,0.27428 0.42631,0.17866 0.31451,-0.0822 0.55007,-0.0173 0.55007,0.1516 0,0.16249 0.20836,0.29922 0.46302,0.30385 0.63592,0.0116 1.32711,0.5821 1.1918,0.98378 -0.0613,0.1819 0.0176,0.33072 0.17521,0.33072 0.15765,0 0.28664,-0.12608 0.28664,-0.28019 0,-0.15411 0.13435,-0.19717 0.29856,-0.0957 0.42014,0.25966 -0.47702,0.73013 -1.00555,0.52731 -0.2856,-0.1096 -0.36474,-0.0388 -0.26044,0.23301 0.18255,0.4757 -1.64718,2.0654 -2.15359,1.87107 -0.19033,-0.073 -0.28159,-0.0285 -0.2028,0.099 0.0788,0.12748 -0.5401,0.80884 -1.37532,1.51413 -0.83521,0.70529 -1.37078,1.09468 -1.19014,0.86532 0.18064,-0.22937 0.24017,-0.51446 0.13229,-0.63354 -0.10788,-0.11908 -0.0473,-0.13087 0.13459,-0.0262 0.1819,0.10468 0.33984,0.094 0.35097,-0.0237 0.0256,-0.27085 0.1371,-0.84326 0.3767,-1.93417 0.13195,-0.60075 0.10061,-0.80512 -0.10407,-0.67862 -0.16108,0.0995 -0.29287,0.0187 -0.29287,-0.17976 0,-0.23923 -0.37881,-0.37967 -1.12448,-0.4169 -0.61846,-0.0309 -1.00542,0.0351 -0.8599,0.14671 0.37475,0.28731 0.9118,1.88112 0.66583,1.97601 -0.11253,0.0434 -0.26016,0.43611 -0.32806,0.87267 -0.0679,0.43657 -0.0737,0.64492 -0.0128,0.46302 0.17028,-0.50879 0.48766,-0.39194 0.48766,0.17954 0,0.28065 -0.0638,0.49987 -0.14174,0.48716 -0.078,-0.0127 -0.32033,0.0524 -0.53861,0.14474 -0.21829,0.0923 -1.82511,0.59673 -3.57072,1.12093 -3.78538,1.13675 -5.49121,1.84153 -6.10872,2.52387 -0.25121,0.27759 -0.58712,0.49488 -0.74647,0.48288 -0.15934,-0.012 -1.47523,-0.60058 -2.92418,-1.30796 z m -8.585796,-36.1023 -0.05275,-4.90125 h 3.056815 c 1.681247,0 3.056814,0.0952 3.056814,0.21164 0,0.11641 -0.510982,0.92008 -1.135515,1.78594 -0.624534,0.86586 -1.477762,2.1696 -1.896063,2.89721 -0.4183,0.7276 -1.038412,1.69134 -1.378026,2.14164 -0.339614,0.4503 -0.617479,0.8939 -0.617479,0.98579 0,0.0919 -0.220737,0.53004 -0.490526,0.97368 -0.490025,0.80578 -0.49058,0.8016 -0.543273,-4.09465 z m 10.562846,0.62125 c -0.002,-0.23685 0.18609,-0.58843 0.41848,-0.78129 0.38366,-0.31841 0.37757,-0.36836 -0.0661,-0.54297 -0.34349,-0.13517 -0.19389,-0.19783 0.50352,-0.2109 0.84591,-0.0159 0.99272,-0.10636 0.9958,-0.61391 0.002,-0.32742 0.0754,-0.8632 0.16315,-1.19062 0.14653,-0.54679 0.0708,-0.59531 -0.92966,-0.59531 -0.79178,0 -1.08919,-0.10837 -1.08919,-0.39688 0,-0.28663 -0.29398,-0.39687 -1.058331,-0.39687 -0.66579,0 -1.061454,-0.12267 -1.066748,-0.33073 -0.0047,-0.1863 -0.178058,-0.10644 -0.396875,0.18286 -0.494978,0.65442 -0.492411,0.94162 0.0084,0.94162 0.218281,0 0.396875,0.11906 0.396875,0.26458 0,0.35683 -0.724979,0.33861 -0.844927,-0.0212 -0.142444,-0.42733 -1.492201,0.25916 -1.681359,0.85514 -0.143448,0.45197 -0.648714,0.70261 -0.648714,0.32181 0,-0.37191 1.095198,-1.90699 1.460562,-2.04719 0.215337,-0.0826 0.391521,-0.33258 0.391521,-0.55542 0,-0.35129 0.756634,-0.40518 5.688536,-0.40518 3.1287,0 5.68854,0.058 5.68854,0.12897 0,0.0709 -0.49054,0.43864 -1.09009,0.81712 -0.59956,0.37848 -1.42898,1.03482 -1.84317,1.45853 -0.41419,0.42371 -0.86939,0.77038 -1.01157,0.77038 -0.14217,0 -0.43625,0.25377 -0.6535,0.56395 -0.24823,0.35439 -0.55385,0.50299 -0.8225,0.3999 -0.24876,-0.0955 -0.3599,-0.0547 -0.26584,0.0975 0.0889,0.14386 0.0769,0.39865 -0.0266,0.56622 -0.13062,0.21134 -0.29665,0.15647 -0.54205,-0.17912 -0.19456,-0.26609 -0.43148,-0.40606 -0.52648,-0.31106 -0.095,0.095 -0.0264,0.34898 0.15233,0.5644 0.44981,0.54199 0.0962,1.07627 -0.42567,0.64316 -0.31543,-0.26179 -0.44116,-0.25122 -0.63385,0.0533 -0.20135,0.3182 -0.24102,0.30996 -0.24442,-0.0508 z"
         id="path177" /><path
         style="fill:#95a1ac"
         d="m 120.78229,159.80833 c 0,-0.14552 0.0966,-0.26458 0.21469,-0.26458 0.11809,0 0.44551,-0.2137 0.72761,-0.47489 0.2821,-0.26118 1.22728,-1.05077 2.10041,-1.75463 0.87312,-0.70387 1.63253,-1.31903 1.68756,-1.36702 0.055,-0.048 -0.265,0.0505 -0.71119,0.21895 -0.4462,0.16842 -0.75739,0.39339 -0.69154,0.49994 0.20831,0.33705 -0.90455,0.53735 -1.42826,0.25707 -0.27608,-0.14775 -0.96519,-0.21952 -1.53135,-0.15947 -0.67307,0.0714 -0.53992,0.008 0.38464,-0.18426 1.16123,-0.24097 1.45614,-0.22691 1.64959,0.0787 0.12957,0.20465 0.2374,0.25034 0.23962,0.10154 0.004,-0.2883 1.21007,-0.96283 2.5176,-1.4084 2.48374,-0.84641 5.42395,-2.31549 5.42395,-2.71009 0,-0.15094 0.2679,-0.23717 0.59532,-0.19165 0.36213,0.0504 0.57016,-0.0445 0.5311,-0.24215 -0.0825,-0.41727 1.44575,-1.21516 1.95392,-1.02016 0.2127,0.0816 0.31794,0.0371 0.23385,-0.099 -0.20067,-0.32469 3.53514,-2.19589 4.01581,-2.01144 0.2089,0.0802 0.29808,0.0251 0.20453,-0.12626 -0.16045,-0.2596 1.36988,-0.96483 1.8117,-0.8349 0.11996,0.0353 0.13019,-0.0781 0.0228,-0.25197 -0.13441,-0.21748 -0.0537,-0.26174 0.25865,-0.14187 0.2754,0.10568 0.38892,0.0689 0.28855,-0.0935 -0.19323,-0.31266 0.42917,-1.84287 0.74958,-1.84287 0.1198,0 0.14247,-0.26789 0.0504,-0.59531 -0.12716,-0.45204 -0.10307,-0.50164 0.10007,-0.2061 0.14714,0.21407 0.35537,0.30138 0.46272,0.19403 0.10735,-0.10735 0.0543,-0.33608 -0.11791,-0.50827 -0.1722,-0.1722 -0.30369,-0.49764 -0.2922,-0.7232 0.014,-0.27495 0.065,-0.30057 0.15489,-0.0777 0.0737,0.18281 0.26129,0.25371 0.41687,0.15756 0.15557,-0.0961 0.21891,-0.0671 0.14076,0.0645 -0.23587,0.39721 0.27928,1.42994 0.71327,1.42994 0.34866,0 0.40477,0.63888 0.40089,4.56406 l -0.005,4.56407 -1.38454,0.59691 c -0.7615,0.32829 -1.56314,0.59663 -1.78143,0.5963 -0.21828,-3.4e-4 -0.7867,0.23707 -1.26316,0.52757 -0.47646,0.2905 -0.99098,0.52818 -1.14338,0.52818 -0.1524,0 -0.45568,0.17859 -0.67396,0.39687 -0.21828,0.21828 -0.67542,0.39688 -1.01586,0.39688 -0.34045,0 -1.37106,0.23407 -2.29026,0.52015 -1.46077,0.45465 -1.74275,0.47332 -2.23885,0.14826 -0.65357,-0.42824 -1.69328,-0.2511 -1.69328,0.28849 0,0.23186 -0.29664,0.36601 -0.80936,0.36601 -0.44515,0 -0.75155,0.0935 -0.68088,0.20789 0.15648,0.2532 0.082,0.26087 -4.16535,0.42912 -1.87365,0.0742 -3.47108,0.19938 -3.54983,0.27814 -0.23502,0.23502 -0.58416,0.16247 -0.58416,-0.1214 z m -11.77396,-4.24053 c -4.41794,-0.68103 -5.56044,-1.07982 -6.92207,-2.41616 -1.33763,-1.31279 -1.38215,-1.66922 -0.50893,-4.0749 1.10798,-3.05246 1.90602,-3.56392 8.50204,-5.44897 3.82477,-1.09306 4.01597,-1.18175 5.76187,-2.67274 1.7682,-1.51002 5.59886,-4.11443 7.18464,-4.88473 0.43952,-0.2135 1.39443,-1.15312 2.12204,-2.08804 l 1.32291,-1.69986 1.35079,0.0894 c 0.8603,0.0569 2.0925,0.44161 3.39343,1.05942 2.00192,0.95071 2.0594,0.96135 2.88255,0.53382 0.47754,-0.24802 1.50982,-0.44625 2.39268,-0.45947 1.36808,-0.0205 1.61332,0.0569 2.06184,0.65032 0.29946,0.39624 0.6584,1.59607 0.87175,2.91407 0.34278,2.11748 0.74324,3.44912 1.65642,5.50807 0.47601,1.07326 0.28724,2.66912 -0.45845,3.87568 -0.39167,0.63372 -1.37927,1.24997 -4.2598,2.65805 -4.15582,2.03147 -3.95302,1.92294 -6.48775,3.47209 -2.30968,1.41161 -6.37044,2.87888 -8.96694,3.24002 -2.97855,0.41428 -8.29233,0.29994 -11.89902,-0.25604 z m 0.663,-1.84737 c 0.36059,-0.58344 0.86667,-1.1278 1.12463,-1.20967 0.25796,-0.0819 0.40059,-0.25957 0.31696,-0.39489 -0.0836,-0.13532 0.18253,-0.37342 0.59147,-0.52913 0.5741,-0.21859 1.55744,-0.1471 4.3154,0.31376 2.13301,0.35642 4.74428,0.60117 6.48229,0.60758 2.61292,0.01 3.10993,-0.0686 4.8622,-0.7651 2.29968,-0.91412 2.12826,-1.19682 -0.25192,-0.41544 -2.11058,0.69286 -4.53545,0.69597 -9.35116,0.012 -5.54569,-0.78769 -12.32474,-2.78028 -12.32474,-3.62265 0,-1.23008 3.01123,-2.72702 7.10631,-3.53268 1.37112,-0.26975 1.79397,-0.50666 2.99959,-1.68061 0.77191,-0.75162 1.76589,-1.66157 2.20884,-2.02211 0.79263,-0.64516 1.339,-1.31062 1.07607,-1.31062 -0.13248,0 -2.97669,2.3105 -3.99294,3.24367 -0.28821,0.26465 -1.18118,0.66365 -1.98438,0.88667 -3.83325,1.06436 -6.25837,1.78682 -6.61969,1.97204 -0.21831,0.11192 -0.78058,0.34555 -1.24949,0.5192 -1.7661,0.65401 -2.99938,2.44308 -3.39664,4.92739 -0.1561,0.9762 -0.10225,1.12299 0.58341,1.59057 1.15635,0.78855 3.91963,1.83754 6.04704,2.29557 0.29105,0.0627 0.59036,0.12774 0.66515,0.14462 0.0748,0.0169 0.431,-0.44668 0.7916,-1.03013 z m 16.76041,-9.91894 c 0.45494,-0.33692 0.45968,-0.40631 0.0661,-0.96816 -0.63987,-0.91356 -0.50823,-1.14419 0.18985,-0.33262 0.60196,0.69982 0.62733,0.70467 1.31775,0.25229 0.56152,-0.36792 0.6519,-0.55858 0.44659,-0.94219 -0.30555,-0.57094 -1.27789,-0.91809 -4.06515,-1.45138 -3.13806,-0.60041 -3.16475,-0.58228 -1.57609,1.07111 0.77472,0.80628 1.58534,1.80779 1.80139,2.22558 0.41402,0.80062 0.88401,0.83817 1.81952,0.14537 z m 4.74248,-2.76243 c 0.11301,-0.10393 -0.40104,-0.51908 -1.14234,-0.92254 -1.88479,-1.02583 -1.45283,-1.15791 0.52374,-0.16015 1.48322,0.74873 2.13292,0.84144 2.13292,0.30437 0,-0.39223 -3.93416,-2.44598 -6.11954,-3.1946 l -2.21483,-0.7587 1.52135,-0.70437 c 0.83675,-0.3874 1.52135,-0.80556 1.52135,-0.92925 0,-0.12369 0.30824,-0.59121 0.68498,-1.03894 l 0.68498,-0.81405 h -1.04282 c -0.95987,0 -1.14227,0.12658 -2.29306,1.59135 -0.68762,0.87524 -1.62792,1.78375 -2.08955,2.01891 -0.46162,0.23517 -1.5912,0.91804 -2.51017,1.51751 l -1.67086,1.08994 3.15816,0.42691 c 2.99986,0.4055 6.33218,1.24532 7.19501,1.8133 0.39011,0.2568 1.25684,0.1317 1.66068,-0.23969 z m -27.95216,3.82566 c 0.0804,-0.20946 0.3223,-0.29944 0.55991,-0.20826 0.27502,0.10553 0.35347,0.0555 0.22894,-0.14597 -0.11723,-0.18968 -0.0546,-0.25476 0.16439,-0.17074 0.21533,0.0826 0.36911,-0.0672 0.39288,-0.38278 0.028,-0.37214 -0.17919,-0.56649 -0.73392,-0.68833 -0.42514,-0.0934 -0.84091,-0.27967 -0.92392,-0.414 -0.083,-0.13432 -0.38204,-0.24423 -0.6645,-0.24423 -0.28245,0 -0.51355,-0.11906 -0.51355,-0.26458 0,-0.14552 -0.17859,-0.26458 -0.39687,-0.26458 -0.21828,0 -0.39688,-0.11906 -0.39688,-0.26459 0,-0.14552 -0.17156,-0.26458 -0.38126,-0.26458 -0.20969,0 -0.46061,-0.12839 -0.557593,-0.28531 -0.116197,-0.18802 0.126573,-0.25569 0.711843,-0.19844 0.71321,0.0698 0.93965,-0.0304 1.1495,-0.50844 0.14373,-0.32742 0.50098,-0.61344 0.7939,-0.63561 0.91059,-0.0689 1.05241,-0.10014 1.37641,-0.30311 0.17308,-0.10843 0.7832,-0.12222 1.35584,-0.0307 0.64941,0.10385 1.10931,0.0562 1.22229,-0.12659 0.29253,-0.47333 0.75126,-0.33571 0.56648,0.16993 -0.0931,0.25466 0.11328,0.11556 0.45855,-0.30912 0.41439,-0.5097 0.77416,-0.71597 1.05847,-0.60687 0.23689,0.0909 0.50108,0.0514 0.58709,-0.0877 0.086,-0.13917 0.44701,-0.25303 0.80222,-0.25303 0.35522,0 0.65771,-0.14883 0.67222,-0.33073 0.0331,-0.41558 0.44078,0.82955 0.47642,1.45521 0.0145,0.25466 -0.0927,0.46302 -0.23821,0.46302 -0.14552,0 -0.26458,-0.21823 -0.26458,-0.48495 0,-0.31989 -0.17828,-0.47181 -0.52378,-0.44636 -0.7869,0.058 -0.90996,0.32422 -0.30061,0.65033 0.46617,0.24949 0.50147,0.38411 0.2471,0.9424 -0.16322,0.35823 -0.51683,0.72117 -0.78578,0.80653 -0.26896,0.0854 -0.48902,0.27328 -0.48902,0.41758 0,0.1443 -0.11812,0.18937 -0.26249,0.10014 -0.14436,-0.0892 -0.47179,-0.031 -0.7276,0.12931 -0.41038,0.25723 -0.39834,0.27343 0.10232,0.13763 0.33171,-0.09 0.72919,0.008 0.95682,0.23549 0.3428,0.3428 0.45694,0.34208 0.95392,-0.006 0.33734,-0.23627 0.56453,-0.28025 0.56453,-0.10927 0,0.15737 -0.30541,0.40225 -0.67868,0.54417 -0.91021,0.34606 -1.1734,0.32519 -1.1734,-0.093 0,-0.23929 -0.25184,-0.31409 -0.79105,-0.23495 -0.88268,0.12955 -0.82371,0.57775 0.0791,0.60081 0.31883,0.008 -0.31327,0.34713 -1.40468,0.75332 -1.0914,0.40618 -2.3061,0.87066 -2.69931,1.03216 -0.58502,0.24029 -0.68922,0.22663 -0.57342,-0.0752 z"
         id="path176" /><path
         style="fill:#688f95"
         d="m 111.91875,155.9268 c -2.94121,-0.36343 -6.26447,-0.94995 -7.27604,-1.28415 -1.40888,-0.46546 -3.70417,-2.34402 -3.70417,-3.03164 0,-0.92867 1.29786,-4.30963 1.90312,-4.9577 1.03541,-1.10863 2.66261,-1.75682 8.16826,-3.25383 2.64508,-0.7192 3.1423,-0.95155 4.45658,-2.08253 1.87846,-1.61648 3.56115,-2.81027 6.30222,-4.47112 1.48838,-0.90183 2.6123,-1.84 3.55296,-2.96576 l 1.37591,-1.64665 1.2507,0.12017 c 0.68789,0.0661 2.1484,0.54649 3.24558,1.06754 l 1.99488,0.94737 1.39612,-0.53049 c 1.73288,-0.65844 3.4743,-0.49105 4.04521,0.38885 0.20639,0.31809 0.51097,1.41178 0.67684,2.43043 0.34129,2.09584 0.88152,3.9593 1.64028,5.6579 0.56749,1.27042 0.49817,2.31463 -0.2591,3.90264 -0.37741,0.79144 -0.96239,1.16936 -4.54708,2.93757 -2.26266,1.11611 -4.76878,2.46686 -5.56915,3.00167 -0.80036,0.53481 -1.81239,1.14882 -2.24895,1.36446 -1.68765,0.83362 -5.64918,2.02785 -7.62592,2.29887 -1.93676,0.26554 -6.9942,0.32684 -8.77825,0.1064 z m 10.98021,-0.99271 c 1.51849,-0.38332 5.49207,-1.85255 5.77473,-2.13521 0.0897,-0.0897 -0.0121,-0.28689 -0.22614,-0.43823 -0.32771,-0.23167 -0.31998,-0.25312 0.0489,-0.13575 0.24505,0.078 0.64666,-0.091 0.91121,-0.3833 0.45618,-0.50406 0.4547,-0.51729 -0.0413,-0.37085 -0.48487,0.14317 -0.48402,0.135 0.0148,-0.1426 0.29104,-0.16196 1.30307,-1.2473 2.24896,-2.41187 2.88828,-3.55603 5.13651,-4.86561 7.81303,-4.55104 l 1.44738,0.17011 -0.006,-0.89632 -0.006,-0.89632 -0.47445,0.61675 c -0.4065,0.52842 -0.6804,0.60841 -1.91235,0.55844 -2.95972,-0.12005 -3.73612,0.35441 -7.06896,4.31984 -1.90218,2.26322 -1.95412,2.30123 -4.04856,2.96286 -1.27139,0.40163 -2.74694,0.67023 -3.68194,0.67023 -1.88123,0 -7.05459,-0.6384 -9.78947,-1.20804 -2.37559,-0.4948 -7.40872,-2.1123 -8.0642,-2.5916 -0.43548,-0.31843 -0.41112,-0.40542 0.35905,-1.28261 0.64665,-0.73649 1.30059,-1.09051 3.00891,-1.6289 1.20048,-0.37835 2.83754,-0.82406 3.6379,-0.99047 1.21271,-0.25214 1.67756,-0.52848 2.7895,-1.65828 1.93974,-1.9709 3.45234,-3.20096 4.00378,-3.25593 1.6658,-0.16603 7.6236,1.04762 10.03401,2.04401 0.68891,0.28478 0.91013,0.27584 1.38376,-0.0559 0.5497,-0.38502 0.52956,-0.41249 -0.8072,-1.10128 -0.75403,-0.38852 -1.21933,-0.70641 -1.034,-0.70641 0.18533,0 0.87085,0.31288 1.52337,0.69529 0.92826,0.54399 1.31157,0.63943 1.76162,0.43861 0.54925,-0.24508 0.52752,-0.28678 -0.48154,-0.92377 -1.84761,-1.16634 -3.90373,-2.1343 -5.81184,-2.73604 l -1.85208,-0.58407 1.2787,-0.56167 c 0.70329,-0.30892 1.3879,-0.56168 1.52136,-0.56168 0.13345,0 0.24264,-0.10245 0.24264,-0.22766 0,-0.12521 0.29407,-0.661 0.65349,-1.19063 0.39381,-0.5803 0.52523,-0.96439 0.33073,-0.96657 -0.17752,-0.002 -0.56569,-0.0689 -0.8626,-0.14865 -0.42039,-0.11294 -0.85115,0.22309 -1.94681,1.5187 -0.77383,0.91505 -2.00652,2.00615 -2.7393,2.42466 -1.03556,0.59143 -1.25019,0.81939 -0.9636,1.02341 0.28411,0.20226 0.25777,0.22651 -0.1148,0.10568 -0.59117,-0.19173 -3.27375,1.50157 -5.77912,3.6479 -1.64568,1.40984 -1.96696,1.566 -4.7625,2.31496 -4.26616,1.14295 -7.11219,2.26811 -7.9287,3.13454 -0.75373,0.79982 -1.81595,3.34435 -1.81595,4.35009 0,0.71884 1.72622,2.40066 3.00578,2.92847 0.72256,0.29805 6.07049,0.9848 10.09109,1.29584 2.22427,0.17208 6.79671,-0.0906 8.33438,-0.47873 z m 3.37385,-10.87489 c 0.47317,-0.28751 0.81578,-0.64181 0.76135,-0.78733 -0.0544,-0.14552 0.19548,-0.2825 0.55534,-0.30439 1.0017,-0.0609 1.28001,-0.48604 0.79892,-1.22026 -0.31444,-0.47991 -0.89413,-0.73253 -2.48672,-1.08369 -3.13187,-0.69056 -4.59024,-0.91567 -4.59024,-0.70852 0,0.10267 0.32742,0.48542 0.7276,0.85054 1.1062,1.00927 1.89328,2.00621 1.7204,2.17909 -0.0852,0.0852 -0.0191,0.15494 0.14694,0.15494 0.16604,0 0.49052,0.36478 0.72108,0.81063 0.23055,0.44584 0.5015,0.77037 0.6021,0.72118 0.10061,-0.0492 0.57006,-0.32468 1.04323,-0.61219 z"
         id="path175" /><path
         style="fill:#5d5457"
         d="m 110.19896,155.68242 c -4.70454,-0.62203 -6.19703,-1.08066 -7.82056,-2.40318 -0.79192,-0.64509 -1.43986,-1.33241 -1.43986,-1.52737 0,-0.66954 1.04986,-3.71804 1.57272,-4.56672 0.81329,-1.3201 3.09913,-2.3314 8.5271,-3.77256 2.65109,-0.70388 2.95626,-0.85757 4.98995,-2.5129 2.06861,-1.68376 6.07619,-4.40919 7.31021,-4.97145 0.31984,-0.14573 1.20711,-1.03601 1.97171,-1.9784 l 1.39019,-1.71344 1.31137,0.17396 c 0.72126,0.0957 2.20236,0.59677 3.29135,1.11354 1.7513,0.83106 2.06022,0.90222 2.67487,0.61611 2.03338,-0.94649 3.82176,-0.8932 4.59129,0.13682 0.25124,0.33628 0.58587,1.48571 0.74361,2.55428 0.27372,1.8541 1.26107,5.2348 1.61062,5.51472 0.49745,0.39836 0.483,1.86768 -0.0319,3.24387 l -0.55191,1.47511 -4.4209,2.15684 c -2.4315,1.18626 -4.65903,2.37057 -4.95007,2.63179 -1.67966,1.50758 -6.87428,3.47677 -10.42697,3.95268 -2.87771,0.3855 -6.85106,0.33797 -10.34282,-0.1237 z m 11.68454,-0.48846 c 4.278,-0.83959 8.42379,-2.99734 8.42379,-4.38431 0,-0.2723 0.11906,-0.56867 0.26458,-0.65861 0.48038,-0.29689 0.27512,0.57671 -0.31039,1.32106 -0.51916,0.66 -0.52558,0.70436 -0.0661,0.45685 0.67054,-0.36123 1.51322,-1.29565 2.19986,-2.43937 0.71102,-1.18432 0.70247,-1.41855 -0.0374,-1.02432 -0.54138,0.28847 -0.56215,0.27701 -0.22929,-0.12648 0.20132,-0.24403 0.55851,-0.41235 0.79375,-0.37405 0.2646,0.0431 0.45859,-0.14686 0.50866,-0.49804 0.0445,-0.31222 0.3186,-0.78278 0.60909,-1.04567 0.51676,-0.46765 0.52284,-0.46396 0.2815,0.17081 -0.13567,0.35684 -0.25256,0.70832 -0.25976,0.78108 -0.007,0.0728 -0.14053,0.46747 -0.29629,0.87713 -0.38216,1.00516 -0.37099,1.03532 0.31213,0.84316 0.4642,-0.13057 0.5079,-0.10669 0.19844,0.10843 -0.21828,0.15173 -0.57547,0.22125 -0.79375,0.15449 -0.23711,-0.0725 -0.51815,0.13905 -0.69816,0.52557 l -0.30128,0.64694 1.02004,-0.52039 c 1.109,-0.56577 1.71316,-1.40615 1.60927,-2.23845 -0.0546,-0.43752 -0.0189,-0.46043 0.20632,-0.13229 0.22978,0.33481 0.27931,0.31413 0.31673,-0.13229 0.0683,-0.8149 0.11753,-0.98654 0.5858,-2.04219 0.31404,-0.70798 0.55391,-0.93878 0.85541,-0.82308 0.23044,0.0884 0.30769,0.23351 0.17165,0.3224 -0.24226,0.1583 -0.56909,1.25414 -0.67149,2.25151 -0.0284,0.27631 0.12701,0.5605 0.34529,0.63153 0.21829,0.071 0.32008,0.046 0.22621,-0.0557 -0.0939,-0.10166 0.0995,-0.47632 0.42962,-0.83256 0.33016,-0.35625 0.67561,-1.11878 0.76768,-1.69451 0.11584,-0.72442 0.27662,-1.00487 0.52209,-0.91067 0.29329,0.11254 0.28605,0.35149 -0.0419,1.3801 -0.21811,0.6842 -0.58685,1.46865 -0.81942,1.74322 -0.41163,0.48594 -0.40001,0.48752 0.43703,0.0593 0.47294,-0.24193 0.87478,-0.55587 0.89297,-0.69766 0.0182,-0.14178 0.048,-0.38119 0.0661,-0.53202 0.0182,-0.15083 0.15214,-0.35919 0.29766,-0.46302 0.41576,-0.29666 0.45857,-0.91263 0.0801,-1.15268 -0.23015,-0.14597 -0.1029,-0.21998 0.38291,-0.22268 0.64489,-0.004 0.72694,-0.10181 0.72172,-0.86395 l -0.006,-0.85989 -0.45714,0.59055 c -0.41582,0.53718 -0.64703,0.58331 -2.55802,0.51039 -1.54673,-0.059 -2.1278,-0.1799 -2.20295,-0.45827 -0.0842,-0.31182 -0.058,-0.31517 0.14958,-0.0191 0.15171,0.21641 0.31562,0.25547 0.41273,0.0983 0.33108,-0.53569 -3.8949,-3.92955 -6.57723,-5.28213 -0.58208,-0.29352 -1.91769,-0.80873 -2.96802,-1.14491 -2.08793,-0.66828 -2.16611,-0.96478 -0.4092,-1.55203 0.71615,-0.23938 1.19753,-0.66047 1.7134,-1.49881 0.42983,-0.69853 0.58892,-1.16735 0.39687,-1.16951 -0.1763,-0.002 -0.57538,-0.072 -0.88685,-0.15557 -0.45536,-0.12218 -0.83918,0.17654 -1.95933,1.52497 -0.76617,0.92231 -1.94008,1.97793 -2.6087,2.34583 -2.0653,1.13643 -5.32556,3.41497 -7.223,5.04806 -0.99631,0.85749 -2.00044,1.55907 -2.23142,1.55907 -0.45401,0 -6.80164,1.7816 -7.48508,2.10085 -2.85446,1.33337 -3.39476,1.9245 -4.22783,4.62559 -0.58723,1.90399 -0.50056,2.13936 1.26506,3.43544 1.19563,0.87768 1.57851,0.99428 4.83318,1.47184 4.76044,0.69851 4.90296,0.7109 8.73692,0.75936 2.01818,0.0255 4.12208,-0.10916 5.29167,-0.3387 z m -0.70433,-3.48033 c -0.43657,-0.0611 -2.16297,-0.2962 -3.83646,-0.52254 -5.38535,-0.72835 -11.64167,-2.62492 -11.64167,-3.52911 0,-1.19442 2.60253,-2.49279 6.71023,-3.34765 1.64049,-0.34141 2.02857,-0.54007 2.95266,-1.51151 2.44693,-2.57231 3.6009,-3.28818 5.28607,-3.27925 0.7276,0.004 1.05677,0.0532 0.73147,0.10962 -0.53422,0.0927 -0.40441,0.31282 1.34162,2.2753 1.06318,1.19498 2.54302,3.07662 3.28853,4.18141 0.7455,1.1048 1.54076,2.07982 1.76723,2.16673 0.22648,0.0869 0.40238,0.31058 0.39089,0.49704 -0.0164,0.26555 -0.0498,0.26735 -0.15434,0.008 -0.0734,-0.1819 -0.24679,-0.33073 -0.3853,-0.33073 -0.13851,0 -0.0988,0.25263 0.0882,0.56141 0.18703,0.30877 0.47743,0.79975 0.64534,1.09106 0.30367,0.52682 0.30787,0.52664 0.78641,-0.0323 0.26461,-0.30904 0.59216,-0.56189 0.72789,-0.56189 0.64217,0 -0.86436,1.10911 -2.18632,1.60957 -1.45608,0.55124 -4.74553,0.86161 -6.51244,0.61448 z m 8.99725,-2.75092 c -0.10269,-0.16615 -0.11525,-0.37354 -0.0279,-0.46087 0.0873,-0.0873 0.15878,-0.0128 0.15878,0.16551 0,0.17836 0.12101,0.24951 0.2689,0.15811 0.1479,-0.0914 0.2004,-0.27703 0.11668,-0.41249 -0.0837,-0.13547 -0.0261,-0.24631 0.12797,-0.24631 0.15411,0 0.2802,-0.12608 0.2802,-0.28019 0,-0.15411 -0.1177,-0.20746 -0.26155,-0.11855 -0.1509,0.0933 -0.19379,-0.015 -0.10137,-0.25579 0.0881,-0.22967 -0.40023,-1.67297 -1.08566,-3.20855 -0.68521,-1.53511 -1.18644,-2.8505 -1.11384,-2.9231 0.26248,-0.26249 1.66371,0.68722 2.93764,1.99104 0.7157,0.73249 1.40326,1.26876 1.52791,1.19172 0.12466,-0.077 0.2096,-0.0419 0.18876,0.078 -0.0929,0.53492 0.0546,0.7136 0.28936,0.35039 0.20924,-0.32377 0.25723,-0.32828 0.26053,-0.0244 0.004,0.41084 -1.71851,2.73697 -2.73378,3.69076 -0.44107,0.41437 -0.70513,0.51101 -0.83262,0.30473 z"
         id="path174" /><path
         style="fill:#1c191a"
         d="m 118.53333,151.33843 c -3.61151,-0.49178 -6.87885,-1.19169 -8.97383,-1.92232 -1.02371,-0.35702 -1.00838,-0.36136 1.25772,-0.35659 1.43378,0.003 2.41276,-0.11388 2.6106,-0.31172 0.17411,-0.1741 0.71537,-0.31655 1.20282,-0.31655 0.48744,0 1.2673,-0.204 1.73302,-0.45333 1.12391,-0.6017 2.58863,-1.12526 3.16186,-1.13019 0.25466,-0.002 0.46302,-0.12304 0.46302,-0.26857 0,-0.14552 0.15848,-0.26458 0.35217,-0.26458 0.19369,0 0.51146,-0.29765 0.70617,-0.66146 0.1947,-0.3638 0.51247,-0.66146 0.70616,-0.66146 0.19369,0 0.35399,-0.20835 0.35622,-0.46302 0.003,-0.36619 0.0523,-0.38677 0.235,-0.0984 0.25548,0.40335 0.8257,0.18171 0.80809,-0.3141 -0.006,-0.17331 -0.71321,-1.20547 -1.57124,-2.29369 -0.85803,-1.08822 -1.49759,-2.04072 -1.42125,-2.11667 0.0764,-0.076 1.02504,0.78593 2.10821,1.91529 1.96861,2.05255 4.1914,5.20466 5.48616,7.77985 l 0.68708,1.36656 -1.24982,0.43581 c -1.87631,0.65427 -4.54032,0.69585 -8.65816,0.13513 z m 19.76884,-7.59926 c -0.917,-0.0823 -1.39663,-0.34611 -2.51354,-1.38255 -0.75916,-0.70446 -1.67795,-1.52923 -2.04176,-1.83283 l -0.66145,-0.55198 0.66145,-0.55157 c 0.9019,-0.75205 3.09433,-1.76196 4.29948,-1.98048 1.00577,-0.18237 1.18398,-0.46636 0.73661,-1.17384 -0.16161,-0.25557 -0.57449,-0.36319 -1.19001,-0.31016 -0.98571,0.0849 -3.19547,-0.61856 -3.80278,-1.21063 -0.29307,-0.28571 -0.19264,-0.41195 0.58681,-0.73763 0.51722,-0.2161 1.09305,-0.38455 1.27963,-0.37432 0.18657,0.0102 0.1011,0.12092 -0.18994,0.24598 -0.51018,0.21924 -0.50837,0.22806 0.0505,0.24599 0.31883,0.0102 0.65328,-0.10046 0.74322,-0.24599 0.0899,-0.14552 0.50504,-0.26458 0.92245,-0.26458 1.13534,0 1.73848,0.96749 2.09421,3.35926 0.29372,1.9748 1.19751,4.971 1.65636,5.49105 0.34457,0.39055 0.26154,0.67335 -0.1512,0.51496 -0.22424,-0.0861 -0.44237,0.0755 -0.547,0.40518 -0.0957,0.30157 -0.31483,0.5275 -0.48692,0.50208 -0.1721,-0.0254 -0.82286,-0.092 -1.44615,-0.14794 z"
         id="path173" /></g></g></svg>
