<?xml version="1.0" encoding="UTF-8" standalone="no"?>
<!-- Created with Inkscape (http://www.inkscape.org/) -->

<svg
   width="53.735165mm"
   height="65.648773mm"
   viewBox="0 0 53.735165 65.648773"
   version="1.1"
   id="svg1"
   inkscape:export-filename="the-samurai.svg"
   inkscape:export-xdpi="96"
   inkscape:export-ydpi="96"
   xml:space="preserve"
   xmlns:inkscape="http://www.inkscape.org/namespaces/inkscape"
   xmlns:sodipodi="http://sodipodi.sourceforge.net/DTD/sodipodi-0.dtd"
   xmlns="http://www.w3.org/2000/svg"
   xmlns:svg="http://www.w3.org/2000/svg"><sodipodi:namedview
     id="namedview1"
     pagecolor="#ffffff"
     bordercolor="#000000"
     borderopacity="0.25"
     inkscape:showpageshadow="2"
     inkscape:pageopacity="0.0"
     inkscape:pagecheckerboard="0"
     inkscape:deskcolor="#d1d1d1"
     inkscape:document-units="mm"><inkscape:page
       x="8.9644316e-22"
       y="0"
       width="53.735165"
       height="65.648773"
       id="page2"
       margin="0"
       bleed="0" /></sodipodi:namedview><defs
     id="defs1" /><g
     inkscape:label="Calque 1"
     inkscape:groupmode="layer"
     id="layer1"
     transform="translate(-134.61396,-116.56509)"><g
       id="g365"
       transform="translate(15.708487,-0.63929889)"><path
         style="fill:#d1e4f1"
         d="m 118.93021,150.01875 v -32.80833 h 26.8552 26.85521 v 32.80833 32.80834 h -26.85521 -26.8552 z"
         id="path372" /><path
         style="fill:#b8d3e4"
         d="m 129.31752,182.54788 c 0.78967,-0.22228 6.58034,-2.49282 7.51298,-2.94586 0.31354,-0.15231 0.7005,-0.19633 0.85989,-0.0978 0.17187,0.10622 0.28982,-0.0291 0.28982,-0.33259 0,-0.56629 1.04644,-0.90326 2.14347,-0.69023 0.56184,0.1091 0.57394,0.0955 0.10548,-0.11838 l -0.52916,-0.24161 0.52916,-0.1855 c 1.60053,-0.56104 1.95945,-0.74762 2.08935,-1.08615 0.0787,-0.20496 0.33673,-0.37265 0.57351,-0.37265 0.38315,0 1.88642,-0.71282 2.23194,-1.05834 0.60668,-0.60668 3.21169,-1.86063 3.49789,-1.68375 0.18131,0.11206 0.21131,0.0539 0.081,-0.15703 -0.20474,-0.33128 0.25338,-0.79591 0.78677,-0.79796 0.27823,-0.001 0.8028,1.0924 1.58321,3.3002 0.52936,1.49757 0.51168,1.32283 0.44834,4.43177 l -0.0472,2.31511 -2.31511,-0.001 -2.3151,-0.001 1.08928,-0.72647 c 1.50271,-1.00219 3.38699,-2.68839 3.20622,-2.86916 -0.0821,-0.0821 -1.03962,0.45741 -2.12777,1.19896 -1.08815,0.74155 -2.34847,1.47725 -2.8007,1.6349 -0.45223,0.15765 -0.82224,0.39807 -0.82224,0.53427 0,0.14956 -3.32717,0.22951 -8.40052,0.20185 -4.62029,-0.0252 -8.07201,-0.13826 -7.6705,-0.25129 z m 22.97691,-2.43277 c 0.0609,-2.39762 -0.0151,-2.942 -0.65557,-4.69636 -0.98139,-2.68825 -2.65742,-5.74664 -5.63539,-10.2834 -4.15747,-6.33368 -5.638,-10.21345 -5.84104,-15.30666 -0.2157,-5.41053 0.59478,-9.01358 2.88632,-12.83141 5.69455,-9.48743 18.23906,-9.41196 23.7823,0.14307 1.95127,3.36347 2.89613,7.11288 2.89815,11.50049 0.002,4.45042 -1.72244,9.767 -4.61524,14.22879 -3.58921,5.53592 -5.93984,9.64505 -6.8893,12.04313 -0.92858,2.34536 -0.98374,2.64828 -0.94733,5.20235 l 0.0387,2.71198 h -1.99498 -1.99498 V 180.002 c 0,-2.46946 -0.10089,-3.11062 -0.80146,-5.09323 -1.054,-2.98284 -1.65879,-4.17294 -3.56417,-7.01351 -0.87312,-1.30167 -2.26901,-3.38018 -3.10197,-4.6189 -0.83296,-1.23873 -1.95903,-3.1162 -2.50237,-4.17216 -0.54335,-1.05597 -1.02684,-1.881 -1.07443,-1.83341 -0.23958,0.23958 1.95346,4.36242 3.81269,7.16776 3.06388,4.62296 4.96731,8.12791 5.96301,10.9802 0.79406,2.27469 0.86911,2.74612 0.78971,4.96094 -0.0506,1.41127 -0.20072,2.4474 -0.35461,2.4474 -0.16658,0 -0.241,-1.0193 -0.19801,-2.71198 z m 3.56128,-7.27604 c 0.54325,-0.98227 1.26497,-2.2677 1.60383,-2.85652 l 0.61611,-1.07059 h -3.17264 c -1.74495,0 -3.14103,0.0802 -3.10241,0.17827 0.11443,0.29046 2.97672,5.52464 3.02402,5.52993 0.0239,0.003 0.48785,-0.79883 1.03109,-1.78109 z m -1.37024,-0.19844 c -0.11071,-0.29104 -0.53284,-1.09471 -0.93808,-1.78594 l -0.73679,-1.25677 h 1.98197 1.98197 l -0.64481,1.25677 c -0.35465,0.69123 -0.8244,1.4949 -1.0439,1.78594 l -0.39908,0.52917 z m 6.00861,-15.68828 c 0.22357,-0.2611 0.48916,-0.69018 0.5902,-0.95349 0.11644,-0.30343 0.33903,-0.41916 0.60782,-0.31602 0.29424,0.11291 0.37992,0.0476 0.27981,-0.21329 -0.17538,-0.45703 0.35123,-2.2758 0.65894,-2.2758 0.1211,0 0.22019,-0.47625 0.22019,-1.05833 0,-0.58208 0.11906,-1.05833 0.26458,-1.05833 0.14552,0 0.26458,-0.24596 0.26458,-0.54656 0,-0.30061 0.12326,-0.77686 0.2739,-1.05834 0.1888,-0.35278 0.1888,-0.51177 0,-0.51177 -0.16838,0 -0.2739,-0.91133 -0.2739,-2.36564 0,-1.30282 -0.11971,-2.43962 -0.26646,-2.53032 -0.14656,-0.0906 -0.44562,-0.51112 -0.66458,-0.93454 -0.36962,-0.71478 -0.36476,-0.75813 0.068,-0.60574 0.37313,0.13137 0.40239,0.0952 0.14662,-0.18111 -0.23698,-0.25605 -0.41098,-0.26931 -0.6736,-0.0514 -0.27288,0.22647 -0.62435,0.0566 -1.53257,-0.74076 -0.64816,-0.56905 -1.35707,-1.0435 -1.57535,-1.05433 -0.21828,-0.0108 -0.62799,-0.1945 -0.91047,-0.40816 -0.65442,-0.49497 -0.94161,-0.49241 -0.94161,0.008 0,0.28772 -0.29596,0.39687 -1.07613,0.39687 -0.82524,0 -1.31761,0.20048 -2.1119,0.8599 -1.15847,0.96176 -1.25359,1.17597 -0.58229,1.31133 0.43711,0.0881 0.43668,0.10373 -0.008,0.27863 -0.37219,0.14649 -0.50371,0.0203 -0.62839,-0.60313 -0.0867,-0.43362 -0.26587,-0.78839 -0.39811,-0.78839 -0.13223,0 -0.58958,-0.35719 -1.01634,-0.79375 -0.84231,-0.86168 -1.19929,-1.01356 -0.96847,-0.41204 0.0806,0.20994 0.0402,0.75211 -0.0896,1.20482 -0.16911,0.58969 -0.11127,1.21301 0.20399,2.19798 0.44292,1.38387 1.16177,2.23904 4.1621,4.95139 2.0095,1.81663 2.64421,2.65983 2.20952,2.93528 -0.197,0.12483 -0.55528,0.22879 -0.79619,0.23101 -0.24091,0.002 -0.89575,0.23234 -1.45521,0.51136 -0.55945,0.27901 -1.22354,0.57216 -1.47575,0.65144 -0.30491,0.0958 -0.40034,0.29587 -0.2848,0.59697 0.13275,0.34593 0.0693,0.41271 -0.26904,0.2829 -0.26806,-0.10286 -0.44281,-0.0398 -0.44281,0.15985 0,0.3897 0.93498,1.24112 1.36292,1.24112 0.1642,0 0.45087,0.20836 0.63705,0.46302 0.18618,0.25466 0.61602,0.48493 0.95521,0.51171 1.86308,0.1471 2.71927,0.36059 2.92574,0.72953 0.32782,0.58579 2.09116,0.54368 2.61004,-0.0623 z M 141.664,154.77117 c -1.04165,-3.91258 -0.91104,-9.87516 0.29298,-13.3747 0.85919,-2.49729 2.37783,-5.06413 3.97215,-6.71384 0.84897,-0.87847 1.60446,-1.59721 1.67886,-1.59721 0.0744,0 0.64725,-0.33832 1.27301,-0.75183 0.62576,-0.41351 1.614,-0.94315 2.19608,-1.17699 0.58208,-0.23384 0.86597,-0.4313 0.63086,-0.4388 -0.23511,-0.008 -1.30667,0.42453 -2.38125,0.96006 -3.35454,1.67177 -6.09794,4.94556 -7.60932,9.08048 -1.50932,4.12925 -1.55624,10.29266 -0.11344,14.89995 0.61054,1.94962 0.65205,1.33646 0.0601,-0.88712 z m 16.37419,25.47623 c -0.0768,-2.28617 -0.004,-2.80631 0.64403,-4.57145 0.90983,-2.48012 3.12992,-6.4837 6.09915,-10.99891 4.56783,-6.94615 6.26396,-12.80832 5.50705,-19.03352 -0.52997,-4.35873 -1.68963,-7.45296 -3.96181,-10.57095 -1.27276,-1.74655 -1.66684,-2.124 -3.57802,-3.42707 -5.2649,-3.58966 -11.47708,-3.36866 -16.74504,0.59571 -0.90706,0.6826 -1.65463,1.37933 -1.66127,1.54829 -0.007,0.16897 -0.36266,0.60221 -0.79115,0.96276 -0.4285,0.36056 -0.69639,0.74742 -0.59532,0.85969 0.10108,0.11228 0.033,0.11729 -0.15127,0.0111 -0.18428,-0.10615 -0.25205,-0.32729 -0.15061,-0.49143 0.26451,-0.42797 0.0916,-2.9393 -0.21541,-3.12906 -0.14195,-0.0877 -0.26896,-0.54197 -0.28225,-1.00944 -0.0137,-0.48119 -0.10872,-0.71311 -0.21907,-0.53457 -0.13359,0.21617 -0.33252,0.10533 -0.63242,-0.35238 -0.53147,-0.81113 -1.70499,-1.11645 -1.93974,-0.50468 -0.20905,0.54477 -1.42298,1.61268 -1.84542,1.62343 -0.18057,0.005 -0.59728,0.43037 -0.92604,0.94615 -0.51316,0.80507 -0.7054,0.9174 -1.35843,0.79375 -0.41837,-0.0792 -1.07321,-0.15812 -1.4552,-0.17534 -0.67936,-0.0306 -0.6772,-0.0357 0.0992,-0.23328 0.74024,-0.18836 0.71689,-0.20408 -0.34634,-0.23328 -0.62705,-0.0172 -1.07505,0.0739 -0.99555,0.20258 0.0795,0.12863 -0.2409,0.37802 -0.71199,0.5542 -1.57838,0.59029 -2.70539,1.01785 -3.10549,1.17815 -0.21828,0.0875 -0.93266,0.51376 -1.5875,0.94734 -0.65484,0.43358 -1.52003,0.94561 -1.92264,1.13784 -0.76769,0.36654 -0.71097,0.71109 0.11706,0.71109 0.6148,0 2.07016,1.36869 2.07016,1.94687 0,0.54348 0.92539,1.49271 1.45521,1.49271 0.21828,0 0.39688,0.11533 0.39688,0.25628 0,0.14096 0.16655,0.19237 0.37011,0.11426 0.20356,-0.0781 0.44871,-0.0149 0.54478,0.14059 0.0961,0.15544 -0.011,0.28262 -0.23782,0.28262 -0.49289,0 -0.54969,0.42971 -0.0818,0.61852 0.26458,0.10677 0.26458,0.13763 0,0.15434 -0.1819,0.0115 -0.33073,0.18695 -0.33073,0.3899 0,0.28267 0.20937,0.32179 0.89483,0.1672 0.49216,-0.111 1.027,-0.2835 1.18853,-0.38333 0.16154,-0.0998 0.50132,-0.0653 0.75507,0.0767 0.39821,0.22285 0.35322,0.28382 -0.32863,0.44529 -0.4345,0.1029 -1.23649,0.4318 -1.7822,0.73089 -0.90622,0.49667 -0.98952,0.63699 -0.96149,1.61955 0.0169,0.59166 0.0863,0.86116 0.15436,0.59889 0.10964,-0.42281 0.32565,-0.45697 1.90536,-0.30131 1.43903,0.1418 1.86228,0.095 2.20074,-0.24348 0.38234,-0.38235 0.4067,-0.32699 0.27807,0.63203 -0.13783,1.02759 -0.12281,1.05108 0.67199,1.05108 0.44713,0 0.88656,-0.11906 0.97649,-0.26458 0.0899,-0.14552 0.36486,-0.26503 0.61093,-0.26557 0.24607,-5.5e-4 0.86413,-0.26157 1.37345,-0.58005 0.50932,-0.31849 1.13873,-0.54795 1.39869,-0.50992 0.38433,0.0562 0.44077,-0.0579 0.30204,-0.61057 -0.0947,-0.37738 -0.0573,-0.67972 0.0841,-0.67972 0.15682,0 0.20973,1.44923 0.13765,3.77031 -0.0989,3.18481 -0.0335,4.09901 0.42117,5.88698 0.94854,3.7302 2.08401,6.38605 4.23236,9.89941 1.17775,1.92608 1.73297,3.12801 1.19766,2.5927 -0.16678,-0.16677 -0.89454,0.43005 -0.89454,0.73359 0,0.37993 -2.27821,3.01781 -2.61807,3.03141 -0.52589,0.021 -4.2427,-1.7948 -5.18714,-2.53417 -0.43657,-0.34177 -1.03188,-0.80051 -1.32292,-1.01943 -0.29104,-0.21891 -1.09772,-0.83355 -1.79263,-1.36585 l -1.26346,-0.96783 -1.43578,0.32131 c -1.12629,0.25206 -1.56523,0.25204 -2.03631,-8e-5 -0.64643,-0.34595 -2.59994,-2.34197 -2.59994,-2.65651 0,-0.10501 0.32742,-0.43641 0.7276,-0.73643 0.40018,-0.30002 0.87141,-0.66585 1.04717,-0.81295 0.17576,-0.14711 0.49467,-0.26746 0.7087,-0.26746 0.43273,0 1.22069,-0.69536 1.22069,-1.07724 0,-0.13512 -0.39551,-0.24568 -0.87891,-0.24568 -0.4834,0 -1.45622,-0.19671 -2.16184,-0.43714 l -1.28292,-0.43714 -0.59432,0.69094 -0.59432,0.69093 -0.65901,-0.51838 c -0.36246,-0.28511 -0.77633,-0.51838 -0.91971,-0.51838 -0.35555,0 -0.58188,-0.66347 -0.58188,-1.70575 0,-0.47779 -0.23813,-1.17144 -0.52917,-1.54144 -0.6512,-0.82787 -0.65807,-1.62716 -0.0353,-4.1085 0.38589,-1.53746 0.42987,-2.17198 0.21548,-3.10885 -0.14815,-0.64742 -0.36837,-1.17712 -0.48937,-1.17712 -0.121,0 -0.22001,-0.59532 -0.22001,-1.32292 0,-0.76124 0.11991,-1.32292 0.28242,-1.32292 0.162,0 0.2108,-0.2256 0.11446,-0.52916 -0.11919,-0.37553 -0.0476,-0.52917 0.24675,-0.52917 0.60474,0 0.54281,-1.73805 -0.0906,-2.54333 -0.30152,-0.38332 -0.54736,-0.51633 -0.60953,-0.3298 -0.0631,0.18937 -0.46372,-0.0141 -1.01603,-0.51603 -0.5015,-0.45577 -0.76299,-0.83215 -0.58109,-0.83642 0.44175,-0.0104 0.41746,-0.57471 -0.0645,-1.49886 -0.329,-0.63084 -0.39552,-2.34283 -0.39687,-10.21461 l -0.002,-9.45675 26.8552,8.9e-4 26.85521,8.8e-4 v 32.80535 32.80535 h -7.25788 -7.25789 z m -33.3533,-43.88916 c 0.32743,-0.0877 0.59532,-0.30202 0.59532,-0.47617 0,-0.31075 -1.63411,-1.09421 -2.00995,-0.96366 -0.10529,0.0366 -0.29736,-0.12276 -0.42681,-0.35408 -0.12946,-0.23132 -0.39531,-0.42058 -0.59079,-0.42058 -0.19548,0 -0.42396,-0.17859 -0.50772,-0.39687 -0.19306,-0.50311 -0.69807,-0.51906 -0.69807,-0.0221 0,0.20615 -0.11026,0.41451 -0.24502,0.46302 -0.37601,0.13535 -0.66141,1.5434 -0.31283,1.5434 0.1613,0 0.29327,-0.23812 0.29327,-0.52916 0,-0.29105 0.14995,-0.52917 0.33323,-0.52917 0.18328,0 0.48194,0.23812 0.6637,0.52917 0.18176,0.29104 0.45703,0.52916 0.61171,0.52916 0.15468,0 0.45983,0.1786 0.67812,0.39688 0.43273,0.43273 0.71159,0.47244 1.61584,0.23011 z m 16.08165,2.5613 c -0.0974,-0.15758 -0.3063,-0.20663 -0.46425,-0.10901 -0.16832,0.10403 -0.21132,0.0548 -0.1039,-0.11907 0.19768,-0.31985 -2.11096,-1.58736 -3.93798,-2.16206 -1.35795,-0.42715 -1.68187,-0.72975 -1.03643,-0.9682 0.54733,-0.20219 1.19642,-0.86723 2.20299,-2.25712 0.67776,-0.93586 1.83292,-1.96923 2.47806,-2.21679 1.08296,-0.41557 2.5646,2.14999 2.42743,4.20326 -0.0356,0.53215 0.0307,0.90862 0.14727,0.83659 0.16158,-0.0999 -1.15104,2.56953 -1.47281,2.99515 -0.0348,0.0461 -0.14299,-0.0452 -0.24038,-0.20275 z"
         id="path371" /><path
         style="fill:#b0c9d8"
         d="m 152.29273,179.98282 c 0.0555,-2.69774 0.0113,-2.96138 -0.8575,-5.11719 -1.06112,-2.633 -3.06632,-6.19457 -6.02001,-10.69257 -3.69896,-5.63291 -5.31861,-10.29912 -5.31799,-15.32111 6.2e-4,-5.03644 1.00172,-8.84714 3.24284,-12.34397 5.96418,-9.30595 18.59504,-8.62236 23.82098,1.2892 1.88335,3.57199 2.37285,5.71429 2.39958,10.50178 0.0168,3.01512 -0.0882,4.36297 -0.43716,5.60937 -0.96684,3.45331 -2.54229,6.72653 -5.16625,10.7336 -3.34221,5.10391 -4.53073,7.23542 -5.74614,10.30518 -0.91348,2.30718 -0.97007,2.62037 -0.93375,5.168 l 0.0387,2.71198 h -1.99498 -1.99498 v -2.87886 c 0,-2.6138 -0.0833,-3.10908 -0.90516,-5.37939 -1.08084,-2.98587 -2.09186,-4.90654 -4.079,-7.74904 -4.39332,-6.28441 -5.74255,-8.79057 -6.69481,-12.43542 -0.5083,-1.94553 -0.61553,-2.98642 -0.58602,-5.68854 0.0333,-3.05204 0.57232,-6.78236 1.14179,-7.90234 0.12083,-0.23762 0.61915,-1.26548 1.10738,-2.28412 1.26874,-2.64709 4.21792,-5.60439 6.84413,-6.86297 1.08138,-0.51823 1.77713,-0.94224 1.54613,-0.94224 -0.23101,0 -1.29921,0.43816 -2.37379,0.97369 -4.25129,2.11867 -7.47494,6.79544 -8.44759,12.25548 -0.49621,2.78551 -0.3834,7.74232 0.22882,10.05416 0.83641,3.15842 2.49935,6.65892 4.88018,10.27281 3.19662,4.85219 5.07042,8.29721 6.06924,11.15844 0.79406,2.27469 0.86911,2.74612 0.78971,4.96094 -0.0496,1.38361 -0.20185,2.4474 -0.35028,2.4474 -0.16102,0 -0.23992,-1.09988 -0.20404,-2.84427 z m 3.39514,-6.81302 c 0.44724,-0.80037 1.16774,-2.09021 1.60111,-2.86632 l 0.78793,-1.41112 h -3.17653 c -1.7471,0 -3.14347,0.0855 -3.10305,0.18992 0.12119,0.31314 2.98009,5.54098 3.03064,5.54189 0.0257,4.6e-4 0.41266,-0.65401 0.8599,-1.45437 z m -1.7037,-1.64136 c -0.43473,-0.8191 -0.83011,-1.58855 -0.87862,-1.70989 -0.0485,-0.12135 0.76391,-0.22063 1.80536,-0.22063 h 1.89355 l -0.85287,1.52135 c -0.46907,0.83675 -0.92579,1.6062 -1.01493,1.70989 -0.0891,0.1037 -0.51776,-0.48163 -0.95249,-1.30072 z m 3.31062,-8.80969 c 0.29104,-0.29104 0.52917,-0.63434 0.52917,-0.76289 0,-0.37706 0.98635,-0.52595 1.31628,-0.19869 0.22633,0.22451 0.26034,0.18917 0.13498,-0.14025 -0.12416,-0.32626 0.14944,-0.62616 1.05585,-1.15735 0.88649,-0.51952 1.26572,-0.92842 1.37698,-1.48475 0.12032,-0.60159 0.26064,-0.73379 0.64827,-0.61076 0.37434,0.11881 0.49472,0.0239 0.49472,-0.38998 0,-0.30085 0.16437,-0.54699 0.36527,-0.54699 0.25184,0 0.35454,-0.30811 0.33073,-0.99219 -0.0232,-0.66649 0.074,-0.97048 0.29619,-0.92604 0.1819,0.0364 0.30528,-0.0231 0.27417,-0.13229 -0.0881,-0.30917 0.90813,-3.86391 1.18409,-4.22503 0.13552,-0.17734 0.33549,-1.2489 0.44439,-2.38125 0.10891,-1.13236 0.28725,-2.29695 0.39633,-2.588 0.14725,-0.39288 0.12989,-0.43285 -0.0674,-0.15518 -0.19466,0.27394 -0.26812,0.0616 -0.2746,-0.79375 -0.0142,-1.87574 -0.0803,-2.35836 -0.32301,-2.35836 -0.12556,0 -0.16127,-0.20836 -0.0794,-0.46302 0.11681,-0.36311 0.0922,-0.38334 -0.11389,-0.0937 -0.30272,0.42532 -1.11197,0.20958 -1.10594,-0.29483 0.003,-0.23706 0.0812,-0.21967 0.26053,0.0578 0.29158,0.4512 0.3547,0.0135 0.0955,-0.662 -0.1349,-0.35155 -0.21437,-0.36931 -0.39282,-0.0878 -0.16149,0.25475 -0.22484,0.19166 -0.22777,-0.22678 -0.005,-0.66667 0.41489,-1.0401 0.61392,-0.54643 0.0737,0.18281 0.1434,0.20631 0.15489,0.0522 0.0115,-0.15409 -0.15799,-0.51128 -0.37663,-0.79375 -0.28189,-0.36419 -0.35443,-0.38883 -0.24938,-0.0847 0.0876,0.25365 -0.0258,0.49564 -0.27768,0.59228 -0.24416,0.0937 -0.35782,0.0534 -0.26642,-0.0945 0.0877,-0.14185 -0.26933,-0.63433 -0.79332,-1.0944 -0.52399,-0.46007 -0.89543,-0.98575 -0.82543,-1.16817 0.0744,-0.19398 -0.0514,-0.30546 -0.30308,-0.26852 -0.2367,0.0347 -0.4794,0.21029 -0.53934,0.39012 -0.0765,0.22948 -0.27798,0.17314 -0.67581,-0.18896 -1.00033,-0.91052 -2.31967,-1.17554 -4.17623,-0.83888 -0.91288,0.16553 -1.97715,0.4651 -2.36507,0.66569 -0.38791,0.2006 -0.77992,0.2901 -0.87113,0.19889 -0.0912,-0.0912 -0.16584,-0.0269 -0.16584,0.14285 0,0.16977 -0.1744,0.30868 -0.38756,0.30868 -0.21317,0 -0.52102,0.24934 -0.68412,0.5541 -0.20599,0.3849 -0.46427,0.51024 -0.84583,0.41046 -1.41383,-0.36973 -2.40057,1.22886 -2.42877,3.93478 -0.0126,1.20444 0.13982,2.22681 0.43375,2.91042 0.2492,0.57958 0.57659,1.54263 0.72753,2.14011 0.15094,0.59749 0.69119,1.63214 1.20055,2.29924 1.06052,1.38891 1.20947,2.52789 0.39695,3.03532 -0.29915,0.18682 -0.52916,0.61701 -0.52916,0.98968 0,0.36257 -0.11907,0.65922 -0.26459,0.65922 -0.14552,0 -0.26458,0.47625 -0.26458,1.05833 0,0.58209 -0.11906,1.05834 -0.26458,1.05834 -0.35895,0 -0.33646,0.7181 0.0296,0.94432 0.16179,0.1 0.39809,0.0177 0.52511,-0.18282 0.18068,-0.28526 0.23183,-0.25973 0.235,0.11729 0.004,0.45426 0.58064,1.23787 0.9112,1.23787 0.17825,0 1.23443,1.02785 1.15548,1.12448 -0.0673,0.0824 0.86003,1.21739 1.32348,1.61995 0.18888,0.16406 0.48653,0.44258 0.66146,0.61895 0.50707,0.51123 1.97515,0.4035 2.56702,-0.18838 z m 0.7624,17.66094 c -0.0393,-3.07051 -0.0737,-2.86214 0.86103,-5.22552 0.95917,-2.42525 2.82844,-5.77065 5.44193,-9.7393 4.69571,-7.13055 6.3902,-12.15555 6.08394,-18.04195 -0.2462,-4.732 -1.31766,-8.25103 -3.52459,-11.57592 -1.03967,-1.56633 -3.72291,-4.29908 -4.22119,-4.29908 -0.1714,0 -0.45398,-0.17151 -0.62795,-0.38113 -0.55417,-0.66772 -4.01341,-1.81395 -6.48573,-2.14906 -1.31499,-0.17824 -1.95143,-0.3367 -1.41431,-0.35215 0.53711,-0.0154 1.05016,-0.14714 1.14009,-0.29266 0.0899,-0.14552 0.40165,-0.26458 0.69269,-0.26458 0.29104,0 0.45558,0.11906 0.36565,0.26458 -0.18646,0.30169 0.0565,0.33479 2.72098,0.37082 1.89579,0.0256 2.60225,0.35348 2.33671,1.08439 -0.0573,0.15759 0.43128,0.24463 1.20816,0.21525 0.92436,-0.035 1.34677,0.0614 1.45013,0.33073 0.0802,0.20903 0.42212,0.38006 0.75979,0.38006 0.33767,0 0.83914,0.28629 1.11437,0.63619 0.27524,0.34991 0.85851,0.85592 1.29616,1.12448 1.79671,1.10254 2.53816,1.92102 2.36504,2.61078 -0.16573,0.66033 0.22511,0.94064 0.45302,0.3249 0.0673,-0.1819 0.36505,0.2217 0.66161,0.8969 0.29655,0.67519 0.66811,1.30729 0.82567,1.40467 0.15757,0.0974 0.28648,0.58675 0.28648,1.08749 0,0.63288 0.12099,0.91042 0.39688,0.91042 0.34614,0 0.39687,1.34917 0.39687,10.55503 0,9.13817 -0.0533,10.57547 -0.39687,10.70732 -0.21829,0.0838 -0.40172,0.42392 -0.40763,0.75591 -0.006,0.33199 -0.3631,1.01584 -0.79375,1.51967 -0.43065,0.50382 -0.783,1.06937 -0.783,1.25677 0,0.18739 -0.11906,0.34072 -0.26458,0.34072 -0.14552,0 -0.26459,0.29478 -0.26459,0.65506 0,0.78942 -0.78714,2.14788 -1.55702,2.68713 -0.3078,0.21559 -0.55964,0.61485 -0.55964,0.88725 0,0.27239 -0.16289,0.65815 -0.36197,0.85723 -0.36482,0.36482 -0.74975,1.32346 -0.82599,2.05708 -0.0647,0.62218 -1.44835,3.2074 -2.28619,4.27141 -0.41755,0.53026 -0.75919,1.21861 -0.75919,1.52966 0,0.31104 -0.18366,0.63602 -0.40814,0.72216 -0.22448,0.0861 -0.64753,0.64795 -0.9401,1.24847 l -0.53196,1.09184 0.74167,-0.81935 c 0.40791,-0.45064 0.97978,-1.1559 1.27083,-1.56723 1.19042,-1.68242 1.42265,-1.87929 1.71036,-1.44988 0.14625,0.21829 0.25833,0.69454 0.24907,1.05834 -0.009,0.3638 -0.0769,0.51263 -0.15029,0.33073 -0.15327,-0.37986 -0.8831,-0.45275 -0.8831,-0.0882 0,0.1334 0.14061,0.28941 0.31248,0.3467 0.21994,0.0733 0.15055,0.45201 -0.23431,1.27882 -0.30073,0.64606 -0.70854,1.56161 -0.90623,2.03455 l -0.35945,0.8599 h -2.58125 -2.58124 z m -17.25622,-10.96868 c -0.2676,-0.069 -0.90929,-0.41242 -1.42599,-0.76306 -0.5167,-0.35064 -1.04688,-0.63753 -1.17818,-0.63753 -0.13129,0 -0.48083,-0.22556 -0.77674,-0.50124 -0.5731,-0.53393 -0.33641,-0.95147 0.3082,-0.54369 0.21133,0.13369 0.83072,0.2449 1.37642,0.24713 0.88303,0.004 0.99219,-0.0687 0.99219,-0.65741 0,-0.59531 0.10584,-0.66146 1.05834,-0.66146 1.01395,0 1.05908,0.0361 1.07624,0.8599 0.0167,0.80238 0.0368,0.82075 0.30052,0.27465 0.15544,-0.32188 0.59386,-0.69944 0.97428,-0.83901 0.38041,-0.13957 0.52672,-0.26316 0.32513,-0.27465 -0.41073,-0.0234 -1.61784,-1.23363 -1.61784,-1.62202 0,-0.13802 -0.26789,-0.25103 -0.59531,-0.25114 -0.45533,-1.4e-4 -0.60474,-0.16288 -0.63538,-0.69207 -0.022,-0.38053 -0.20857,-0.86039 -0.41453,-1.06635 -0.27481,-0.27481 -0.32915,-0.72774 -0.20418,-1.70188 0.0937,-0.73007 0.0718,-1.38824 -0.0485,-1.46261 -0.12033,-0.0744 -0.21878,-0.32954 -0.21878,-0.56704 0,-0.36544 0.0653,-0.35287 0.42479,0.0818 0.38999,0.47152 0.38999,0.45475 0,-0.20471 -0.23363,-0.39506 -0.42479,-0.96061 -0.42479,-1.25677 0,-0.29616 -0.11906,-0.53847 -0.26458,-0.53847 -0.14552,0 -0.26458,-0.29766 -0.26458,-0.66146 0,-0.81058 -0.0707,-0.81588 -0.8799,-0.0659 -0.80987,0.75056 -1.55742,2.10463 -2.00834,3.63781 -0.1926,0.65485 -0.52958,1.66688 -0.74885,2.24896 -0.21927,0.58209 -0.43388,1.47505 -0.47692,1.98438 -0.043,0.50932 -0.15883,1.18599 -0.25732,1.50372 -0.15562,0.50197 -0.26234,0.53975 -0.8143,0.28826 -0.34936,-0.15918 -0.63521,-0.36698 -0.63521,-0.46178 0,-0.0948 -0.35401,-0.43409 -0.78669,-0.75398 -0.70736,-0.52298 -0.91331,-0.55325 -2.04239,-0.30022 -0.69063,0.15477 -1.49748,0.22062 -1.79299,0.14632 -0.62209,-0.1564 -2.78626,-2.10199 -2.78626,-2.50484 0,-0.33062 1.64993,-1.62165 2.07247,-1.62165 0.61251,0 1.36711,-0.92433 1.36711,-1.67461 0,-0.56975 0.10062,-0.72464 0.39688,-0.61096 0.21828,0.0838 0.39687,0.037 0.39687,-0.10398 0,-0.14096 0.22355,-0.25628 0.49677,-0.25628 0.27323,0 0.64499,-0.1786 0.82615,-0.39688 0.18116,-0.21828 0.46363,-0.40066 0.62771,-0.40529 0.55714,-0.0157 1.24884,-0.72704 1.37305,-1.41202 0.0681,-0.37533 0.23345,-0.97093 0.36752,-1.32357 0.13407,-0.35264 0.19111,-0.69383 0.12675,-0.75819 -0.27963,-0.27963 0.8923,-0.95319 1.7383,-0.99909 1.93049,-0.10474 2.64584,-10e-4 2.64584,0.38242 0,0.20847 -0.23986,0.45517 -0.53301,0.54821 -0.29316,0.093 -0.45336,0.29806 -0.356,0.45559 0.10389,0.16809 0.0539,0.21033 -0.12097,0.10224 -0.29295,-0.18105 -1.58863,0.49455 -1.95516,1.01947 -0.10286,0.14731 -0.55775,1.42998 -1.01087,2.85038 l -0.82386,2.58256 h -1.02163 c -0.83316,0 -1.12591,-0.14643 -1.58684,-0.79375 -0.747,-1.04907 -1.05833,-1.00183 -1.05833,0.1606 0,0.76199 -0.0845,0.92194 -0.41898,0.79357 -0.26619,-0.10215 -0.37843,-0.0401 -0.30777,0.17013 0.0743,0.22095 0.67504,0.3262 1.80805,0.31674 0.93325,-0.008 1.48846,0.0307 1.2338,0.0855 -0.81298,0.17509 -0.5034,0.65607 0.34238,0.53194 0.44297,-0.065 0.87878,0.0108 0.96846,0.16841 0.0897,0.15764 0.0645,0.19722 -0.056,0.088 -0.23773,-0.21562 -1.186,1.65899 -1.0039,1.98459 0.30952,0.55342 0.84184,0.0613 1.14476,-1.05833 0.18701,-0.69123 0.42686,-1.37584 0.533,-1.52136 0.10613,-0.14552 0.27894,-0.66624 0.38401,-1.15715 0.10508,-0.49091 0.42883,-1.29558 0.71946,-1.78816 0.29064,-0.49259 0.46083,-1.07177 0.3782,-1.28708 -0.0826,-0.21531 -0.0443,-0.36313 0.0852,-0.3285 0.1295,0.0346 0.70613,-0.43759 1.28141,-1.04939 0.57528,-0.6118 1.13617,-1.02852 1.24641,-0.92604 0.11025,0.10248 0.14115,-0.1411 0.0687,-0.54128 -0.0725,-0.40018 -0.0292,-0.72761 0.0961,-0.72761 0.12534,0 0.22789,0.11533 0.22789,0.25628 0,0.14096 0.16989,0.19109 0.37753,0.11141 0.28031,-0.10757 0.43028,0.18415 0.58237,1.13278 0.11265,0.70271 0.21066,1.35703 0.21778,1.45405 0.007,0.097 0.11274,0.2756 0.23471,0.39687 0.38339,0.38117 0.97203,1.98568 0.8192,2.23297 -0.0804,0.13006 -0.043,0.23648 0.0831,0.23648 0.1261,0 0.42693,0.44648 0.6685,0.99218 0.24158,0.54571 1.03946,1.9415 1.77308,3.10177 1.27617,2.01838 1.5031,2.73825 0.81336,2.58022 -0.17453,-0.04 -0.24224,0.0488 -0.15048,0.19727 0.0918,0.14848 -0.11939,0.53839 -0.46925,0.86645 -0.34986,0.32807 -0.78608,0.88046 -0.96937,1.22754 -0.23688,0.44853 -0.39201,0.53602 -0.53634,0.30248 -0.13094,-0.21186 -0.2624,-0.23259 -0.37009,-0.0583 -0.0919,0.14863 -0.0404,0.31244 0.11436,0.36402 0.15476,0.0516 0.20229,0.29988 0.10563,0.55177 -0.1727,0.45007 -0.56725,0.51989 -1.53169,0.27106 z m -17.72399,-11.38472 c -0.88985,-0.66726 -0.97045,-0.83382 -0.9179,-1.89676 0.0468,-0.94609 -0.0524,-1.2383 -0.5273,-1.55362 -0.68467,-0.4546 -0.72294,-0.79103 -0.20382,-1.79162 l 0.38108,-0.73454 0.16855,0.67157 c 0.15908,0.6338 0.22824,0.65816 1.22992,0.4331 1.98635,-0.44631 3.00033,-1.14419 3.39355,-2.33567 0.19805,-0.60011 0.45813,-1.1517 0.57796,-1.22575 0.28572,-0.17659 0.26889,2.13601 -0.0248,3.40045 -0.13448,0.57909 -0.13186,0.92968 0.006,0.84428 0.12997,-0.0803 0.2363,0.0396 0.2363,0.26645 0,0.22687 -0.10632,0.41249 -0.23627,0.41249 -0.12995,0 -0.30587,0.18135 -0.39092,0.403 -0.12659,0.32987 -0.0587,0.35166 0.37403,0.12005 0.70784,-0.37882 1.00312,-0.14865 0.84829,0.66126 -0.0939,0.49123 -0.0146,0.66777 0.30007,0.66777 0.50399,0 0.58691,0.96626 0.097,1.13022 -0.1819,0.0609 -0.003,0.0601 0.39688,-0.002 0.41374,-0.0639 0.7276,0.0109 0.7276,0.1733 0,0.40243 -2.15424,0.45532 -2.77813,0.0682 -0.63884,-0.3964 -1.33284,-0.27452 -1.98283,0.34821 l -0.70009,0.67072 z m -1.34273,-19.18618 c -0.62987,-1.07666 -1.00595,-3.40765 -0.61315,-3.80045 0.0949,-0.0949 0.57493,0.17069 1.06668,0.59024 0.49175,0.41954 1.11406,0.89058 1.38291,1.04674 0.4707,0.27341 0.46731,0.32519 -0.0915,1.39721 -0.31915,0.61231 -0.58027,1.28821 -0.58027,1.50201 0,0.71552 -0.50073,0.3992 -1.16471,-0.73575 z m 18.63715,-0.31875 c -0.50503,-0.60852 -2.41314,-1.64207 -3.71411,-2.01179 -1.57454,-0.44746 -1.80524,-0.69045 -1.00269,-1.05612 0.36592,-0.16672 1.00418,-0.83925 1.41837,-1.49451 0.98448,-1.5575 2.67334,-3.00629 3.24852,-2.78676 1.77962,0.67923 2.53186,4.38434 1.3575,6.68628 -0.57924,1.1354 -0.81588,1.25537 -1.30759,0.6629 z m -19.94937,-6.0974 c -0.0838,-0.21828 -0.45369,-0.39687 -0.82206,-0.39687 -0.605,0 -0.66976,-0.10234 -0.66976,-1.05834 0,-0.58208 0.11906,-1.05833 0.26458,-1.05833 0.14552,0 0.26458,-0.59531 0.26458,-1.32292 0,-0.7276 -0.11906,-1.32291 -0.26458,-1.32291 -0.16711,0 -0.26458,-1.85209 -0.26458,-5.02709 v -5.02708 h 3.175 c 1.74625,0 3.175,0.10061 3.175,0.22357 0,0.12297 -0.23813,0.43908 -0.52917,0.70247 -0.29104,0.26339 -0.52917,0.62058 -0.52917,0.79375 0,0.17317 -0.23812,0.53036 -0.52916,0.79375 -0.29105,0.26339 -0.52917,0.59989 -0.52917,0.74778 0,0.14789 -0.19771,0.48735 -0.43935,0.75436 -0.24164,0.26702 -0.36071,0.56412 -0.26458,0.66025 0.22011,0.22011 0.10417,0.36777 1.85357,-2.36083 l 1.4843,-2.3151 5.89293,0.008 5.89292,0.008 -0.83727,0.71985 c -0.4605,0.39592 -1.19258,1.0175 -1.62686,1.38131 -0.43428,0.3638 -1.61817,1.37583 -2.63087,2.24895 -1.01271,0.87313 -2.21538,1.88385 -2.67262,2.24606 -0.45724,0.3622 -0.83134,0.80869 -0.83134,0.99219 0,0.18349 -0.10469,0.33363 -0.23264,0.33363 -0.12795,0 -1.01275,0.7649 -1.96621,1.69977 -1.36215,1.3356 -1.85728,1.66742 -2.31102,1.54876 -0.50055,-0.13089 -0.55235,-0.0719 -0.38892,0.44302 0.16714,0.52661 0.11801,0.57408 -0.4329,0.41828 -0.47699,-0.1349 -0.52918,-0.11197 -0.22456,0.0986 0.30671,0.21205 0.33033,0.38129 0.10394,0.74493 -0.3836,0.61618 -1.16227,0.76717 -1.16227,0.22537 0,-0.22895 -0.17859,-0.41627 -0.39688,-0.41627 -0.44486,0 -0.54106,0.6734 -0.13229,0.92604 0.39897,0.24658 0.31867,0.85683 -0.19109,1.45218 -0.54071,0.63151 -1.01695,0.68401 -1.2275,0.13532 z m 19.14568,-7.80521 v -1.05833 h -1.05834 -1.05833 v -1.08167 -1.08167 l 2.47609,0.10712 c 2.29041,0.0991 2.46666,0.0711 2.35039,-0.37353 -0.0943,-0.3604 -0.38277,-0.48067 -1.15317,-0.48067 -0.91959,0 -1.02748,-0.0695 -1.02748,-0.66146 0,-0.55856 -0.12347,-0.66145 -0.79375,-0.66145 -0.75003,0 -0.79375,-0.0585 -0.79375,-1.06136 v -1.06136 l 8.92969,0.0223 c 8.47641,0.0211 8.87597,0.0439 7.87135,0.44745 -0.58208,0.23385 -1.11786,0.5068 -1.19062,0.60655 -0.0728,0.0998 -0.40018,0.26499 -0.72761,0.36717 -0.32742,0.10218 -0.59531,0.29682 -0.59531,0.43253 0,0.13572 -0.15521,0.24676 -0.34492,0.24676 -0.44239,0 -3.08881,1.28734 -3.67307,1.78675 -0.24536,0.20973 -0.86911,0.39332 -1.38611,0.40797 -0.517,0.0147 -0.80656,0.10912 -0.64347,0.20992 0.18541,0.11458 0.0108,0.35705 -0.46597,0.64703 -0.41937,0.25507 -1.06016,0.66058 -1.42396,0.90112 -0.46766,0.30922 -1.10719,0.41482 -2.18281,0.36044 -0.9829,-0.0497 -1.52135,0.0268 -1.52135,0.21622 0,0.19747 0.38852,0.23487 1.19062,0.11458 1.38356,-0.20747 1.50452,-0.0575 0.41001,0.50855 -0.93712,0.4846 -1.90732,0.52031 -2.34147,0.0862 -0.24694,-0.24695 -0.3175,-0.15875 -0.3175,0.39687 0,0.39291 -0.11906,0.71438 -0.26458,0.71438 -0.14552,0 -0.26458,-0.47625 -0.26458,-1.05834 z"
         id="path370" /><path
         style="fill:#a1b8c9"
         d="m 152.28981,179.98282 c 0.0641,-2.64032 0.0108,-2.99054 -0.743,-4.88405 -1.08904,-2.73559 -2.82238,-5.87062 -5.41409,-9.79229 -4.45155,-6.73588 -6.03585,-11.12747 -6.03585,-16.731 0,-10.26998 5.66747,-17.90823 13.79309,-18.58945 3.89988,-0.32695 7.44743,1.039 10.42927,4.01567 3.26389,3.25825 5.00179,7.53771 5.32264,13.10664 0.33996,5.90069 -1.24602,10.80258 -5.64989,17.4625 -3.044,4.6034 -4.81418,7.77834 -5.90071,10.58333 -0.80442,2.07669 -0.86695,2.45669 -0.8163,4.96094 l 0.0549,2.71198 h -2.00189 -2.00189 v -2.84633 c 0,-2.45653 -0.10684,-3.16043 -0.78009,-5.13986 -0.42905,-1.26143 -1.17233,-3.04644 -1.65174,-3.96669 -1.18217,-2.26919 -1.19395,-2.33937 -0.21423,-1.27629 l 0.85343,0.92604 -0.65895,-0.92604 c -0.36242,-0.50932 -0.72436,-0.86651 -0.80432,-0.79375 -0.21253,0.19341 -2.95057,-3.56666 -4.93222,-6.77328 -3.09175,-5.00293 -4.11854,-8.25591 -4.08389,-12.93818 0.0118,-1.60073 0.17271,-3.80338 0.35749,-4.89479 0.9421,-5.56461 4.26573,-10.30941 8.81083,-12.57829 1.05218,-0.52525 1.56076,-0.87805 1.13017,-0.78402 -3.19636,0.69805 -6.79373,3.93063 -8.70687,7.82392 -1.63235,3.32188 -2.09941,5.56823 -2.08677,10.03631 0.009,3.08393 0.10677,3.89697 0.71768,5.95167 0.99713,3.35367 2.39281,6.1903 4.9728,10.10685 3.19012,4.84279 4.61854,7.46519 5.72427,10.50907 0.90115,2.48071 0.96302,2.84141 0.87759,5.11626 -0.0534,1.42345 -0.20456,2.4474 -0.36118,2.4474 -0.17023,0 -0.24388,-1.0462 -0.20023,-2.84427 z m 4.54012,-8.8444 c 1.25742,-2.33886 1.26537,-2.6122 0.068,-2.33585 -0.14552,0.0336 -1.36591,0.0523 -2.71198,0.0416 -1.34606,-0.0107 -2.44739,0.0413 -2.44739,0.11565 0,0.0743 0.68461,1.385 1.52135,2.91258 1.75521,3.20435 1.41516,3.27426 3.57004,-0.73394 z m -2.78732,0.43801 c -0.39411,-0.80358 -0.71657,-1.57749 -0.71657,-1.71979 0,-0.14229 0.76017,-0.25872 1.68926,-0.25872 h 1.68927 l -0.91321,1.71979 c -0.50227,0.94589 -0.93998,1.71979 -0.97269,1.71979 -0.0327,0 -0.38194,-0.65748 -0.77606,-1.46107 z m 2.32614,-6.50812 c 0.14552,-0.0879 0.56224,-0.232 0.92604,-0.32033 0.3638,-0.0883 0.98888,-0.4668 1.38906,-0.84104 0.40018,-0.37424 0.7276,-0.59763 0.7276,-0.49643 0,0.1012 0.23894,-0.0322 0.53098,-0.29652 0.29203,-0.26428 0.50039,-0.66969 0.46302,-0.9009 -0.0432,-0.26714 0.0958,-0.39319 0.38125,-0.34581 0.51364,0.0853 1.12344,-0.86113 0.84507,-1.31154 -0.11609,-0.18783 -0.0669,-0.22673 0.13164,-0.10405 0.40824,0.25231 1.08763,-0.30946 1.08763,-0.89933 0,-0.25067 0.25031,-0.68229 0.55625,-0.95916 0.74741,-0.6764 1.36046,-1.90582 1.13347,-2.2731 -0.10572,-0.17106 -0.0658,-0.22468 0.0938,-0.12604 0.15275,0.0944 0.34838,-0.0124 0.43472,-0.23744 0.0863,-0.22501 0.0475,-0.34144 -0.0863,-0.25875 -0.1338,0.0827 -0.32943,0.011 -0.43473,-0.15943 -0.11695,-0.18924 -0.077,-0.23903 0.10274,-0.12796 0.86725,0.53599 2.05802,-4.85148 1.80576,-8.16985 -0.28115,-3.69831 -1.92394,-8.05983 -3.29756,-8.75487 -0.31327,-0.15851 -0.49091,-0.36687 -0.39476,-0.46302 0.0961,-0.0961 0.0439,-0.17482 -0.11603,-0.17482 -0.15997,0 -0.36698,-0.23985 -0.46002,-0.53301 -0.093,-0.29315 -0.26718,-0.47243 -0.38698,-0.39839 -0.1198,0.074 -0.28608,-0.0433 -0.36952,-0.26075 -0.0834,-0.21744 -0.34107,-0.39535 -0.57251,-0.39535 -0.23143,0 -0.35229,-0.11084 -0.26857,-0.2463 0.0837,-0.13547 0.0312,-0.32109 -0.11668,-0.41249 -0.14789,-0.0914 -0.2689,0.0194 -0.2689,0.2463 0,0.22687 -0.12608,0.41249 -0.28019,0.41249 -0.15411,0 -0.2117,-0.11084 -0.12798,-0.2463 0.0837,-0.13547 0.0293,-0.32229 -0.12099,-0.41516 -0.15027,-0.0929 -0.21698,-0.25985 -0.14825,-0.37106 0.0687,-0.11121 -0.0285,-0.2022 -0.21617,-0.2022 -0.18762,0 -0.34114,0.15351 -0.34114,0.34114 0,0.18762 0.0794,0.29208 0.17639,0.23212 0.097,-0.06 0.17639,0.0683 0.17639,0.28504 0,0.27118 -0.0853,0.3088 -0.2734,0.12066 -0.15037,-0.15038 -0.51748,-0.27523 -0.8158,-0.27746 -0.44241,-0.003 -0.46972,-0.05 -0.14816,-0.2533 0.29693,-0.18773 0.23161,-0.22737 -0.26458,-0.16061 -1.77468,0.23879 -2.90778,0.50453 -2.90778,0.68195 0,0.108 -0.54483,0.25777 -1.21074,0.33283 -0.84239,0.095 -1.4461,0.36196 -1.98437,0.87766 -0.4255,0.40765 -0.77546,0.62962 -0.77769,0.49325 -0.002,-0.13636 -0.11117,-0.0787 -0.24209,0.12815 -0.13092,0.20685 -0.66452,0.38544 -1.18579,0.39688 -0.71801,0.0157 -0.94795,0.13303 -0.94854,0.48381 -4.3e-4,0.25466 -0.22574,0.68798 -0.50069,0.96293 -0.87097,0.87096 -1.19034,3.66112 -0.84781,7.40689 0.3255,3.55968 0.70142,5.42685 1.25652,6.24113 0.19568,0.28704 0.35578,0.85259 0.35578,1.25677 0,0.57093 0.12437,0.73488 0.55748,0.73488 0.42913,0 0.51239,0.1066 0.36166,0.46302 -0.10769,0.25466 -0.3224,0.9988 -0.47713,1.65365 -0.15473,0.65484 -0.35593,1.25015 -0.44711,1.32291 -0.0912,0.0728 -0.25269,0.36679 -0.35891,0.6534 -0.10622,0.2866 -0.10685,0.43483 -0.001,0.32939 0.10544,-0.10544 0.64087,0.25477 1.18985,0.80047 0.99339,0.98747 0.99569,0.99479 0.48434,1.5391 -0.4722,0.50263 -0.47997,0.58843 -0.0959,1.05967 0.33274,0.4083 0.38972,0.42237 0.27971,0.0691 -0.076,-0.24402 0.0368,-0.58892 0.25074,-0.76644 0.31511,-0.26152 0.51294,-0.20623 1.0426,0.29136 0.85857,0.80658 0.89405,1.68475 0.0584,1.44527 -0.43383,-0.12433 -0.37031,-0.0276 0.23417,0.35666 0.45621,0.28999 1.11105,0.56725 1.4552,0.61614 0.99774,0.14172 2.71852,0.0983 3.00699,-0.0758 z m 1.71979,15.02641 c 0,-2.4731 0.0851,-2.96957 0.82196,-4.79452 1.11241,-2.75505 2.75644,-5.7014 5.44422,-9.75683 4.74724,-7.16283 6.39058,-12.04916 6.09499,-18.12287 -0.21955,-4.51094 -1.27111,-8.34079 -2.9811,-10.85726 -0.34398,-0.50621 -0.55276,-1.03795 -0.46395,-1.18165 0.0888,-0.1437 0.0365,-0.18402 -0.11627,-0.0896 -0.27102,0.1675 -0.72993,-0.53509 -0.63322,-0.96946 0.0267,-0.11995 -0.0675,-0.14638 -0.2093,-0.0587 -0.14183,0.0876 -0.39905,-0.11186 -0.5716,-0.44336 -0.31649,-0.608 -1.40936,-1.77402 -1.43287,-1.52876 -0.007,0.0728 -0.35536,-0.13727 -0.7742,-0.46673 -0.41884,-0.32946 -0.69042,-0.67013 -0.6035,-0.75704 0.0869,-0.0869 0.43252,0.12908 0.768,0.47999 0.34888,0.36494 0.82156,0.59315 1.10432,0.53318 0.30897,-0.0655 0.42714,0.004 0.31511,0.18516 -0.10176,0.16466 0.006,0.29002 0.24887,0.29002 0.23545,0 0.35452,0.11907 0.26458,0.26459 -0.0899,0.14552 0.0632,0.26458 0.34025,0.26458 0.67212,0 1.55446,0.94639 1.06499,1.1423 -0.20244,0.081 -0.12542,0.14754 0.18496,0.15973 0.77944,0.0306 1.90584,1.19126 2.12797,2.19267 0.16832,0.75885 0.22002,0.80283 0.40172,0.34176 0.18316,-0.46475 0.21081,-0.4429 0.22714,0.17954 0.0102,0.38978 0.17193,0.86603 0.35935,1.05833 0.48065,0.49317 1.24674,2.61416 1.24674,3.45171 0,0.38673 0.12944,0.78314 0.28764,0.88091 0.1582,0.0978 0.2236,0.42261 0.14535,0.72186 -0.0783,0.29925 0.0304,1.36516 0.24153,2.36869 0.4481,2.13016 0.5399,10.12897 0.11923,10.38896 -0.14552,0.0899 -0.26458,0.56641 -0.26458,1.05882 0,0.49242 -0.22659,1.28906 -0.50353,1.77033 -0.27694,0.48126 -0.58375,1.2606 -0.68181,1.73188 -0.20608,0.99043 -0.62565,1.35599 -0.95341,0.83068 -0.1378,-0.22085 -0.16655,0.0149 -0.0729,0.59777 0.122,0.7596 0.0368,1.08019 -0.40438,1.52136 -0.30742,0.30742 -0.55895,0.65863 -0.55895,0.78046 0,0.12183 -0.47625,0.88659 -1.05833,1.69946 -0.58209,0.81287 -1.05834,1.60616 -1.05834,1.76286 0,0.15671 -0.11906,0.28492 -0.26458,0.28492 -0.14552,0 -0.26458,0.17859 -0.26458,0.39688 0,0.21828 -0.11906,0.39687 -0.26459,0.39687 -0.14552,0 -0.26458,0.20124 -0.26458,0.44719 0,0.57609 -1.60856,3.78614 -1.89724,3.78614 -0.12069,0 -0.21943,0.21577 -0.21943,0.47947 0,0.26371 -0.23812,0.97234 -0.52916,1.57472 -0.29104,0.60239 -0.52917,1.26506 -0.52917,1.4726 0,0.20754 -0.17753,0.80223 -0.39451,1.32154 -0.25419,0.60837 -0.29971,1.00279 -0.12798,1.10893 0.1466,0.0906 0.19018,0.28827 0.0969,0.43927 -0.1094,0.17702 -0.25048,0.14703 -0.39714,-0.0844 -0.15415,-0.24328 -0.22876,-0.0818 -0.23151,0.50091 -0.002,0.47295 -0.104,0.8599 -0.22617,0.8599 -0.20179,0 -0.83622,1.1369 -0.83622,1.49852 0,0.0829 0.24493,0.0866 0.54428,0.008 0.34595,-0.0905 0.50705,-0.0294 0.44212,0.16758 -0.0577,0.1749 -0.75582,0.34447 -1.60261,0.38926 l -1.50045,0.0793 z M 133.8099,164.93843 c -0.95744,-0.74931 -1.09314,-1.16134 -0.38249,-1.16134 0.34027,0 0.56653,-0.34485 0.8007,-1.22039 0.17952,-0.67121 0.54385,-1.713 0.80963,-2.3151 0.26578,-0.6021 0.56609,-1.33285 0.66736,-1.62389 0.36588,-1.05152 1.86554,-3.30729 2.19872,-3.30729 0.18753,0 0.34097,-0.13891 0.34097,-0.30868 0,-0.16977 0.0787,-0.23001 0.17482,-0.13386 0.0961,0.0961 0.30451,-0.083 0.46302,-0.39803 0.44849,-0.89145 0.94966,-0.90809 0.94966,-0.0315 0,0.57821 -0.13064,0.76933 -0.54731,0.80072 -0.74333,0.056 -2.05277,1.59592 -2.25675,2.65399 -0.0915,0.47455 -0.27191,0.92806 -0.40093,1.0078 -0.12903,0.0797 -0.23533,0.34632 -0.23622,0.59239 -9e-4,0.24608 -0.16004,0.75094 -0.35365,1.12192 -0.33274,0.6376 -0.55273,1.56438 -0.87616,3.69111 -0.19874,1.30686 -0.38059,1.39193 -1.35137,0.63218 z m -1.65053,-5.03552 c -0.31928,-0.0874 -0.98645,-0.94847 -1.51996,-1.96175 -0.0427,-0.0811 0.64054,-0.49062 1.51826,-0.91014 1.43384,-0.68531 1.62383,-0.87181 1.87137,-1.83699 0.53151,-2.07245 0.6909,-2.39983 1.32623,-2.72398 0.35231,-0.17976 1.05728,-0.32676 1.5666,-0.32668 0.97828,1.6e-4 1.94961,0.46622 1.42497,0.68373 -0.16215,0.0672 -0.82074,0.45576 -1.46353,0.8634 -1.08659,0.6891 -1.23082,0.92134 -2.05251,3.30515 -0.97607,2.83169 -1.37225,3.26284 -2.67143,2.90726 z m -7.73906,-3.08169 c -0.40018,-0.41267 -0.7276,-0.92142 -0.7276,-1.13055 0,-0.20914 -0.22899,-0.38025 -0.50887,-0.38025 -0.6159,0 -2.13697,-1.22903 -2.13697,-1.72668 0,-0.25442 0.2466,-0.31707 0.8599,-0.21847 1.1829,0.19017 4.21256,-0.94833 4.56066,-1.71383 0.3733,-0.82092 0.54737,-0.71297 0.62134,0.38534 0.078,1.15761 -0.54095,1.95072 -1.52225,1.95072 -0.45723,0 -0.78328,0.20083 -0.96652,0.59532 -0.23293,0.50145 -0.13952,0.76798 0.59248,1.69056 0.73957,0.93212 0.80097,1.11036 0.41222,1.1967 -0.25444,0.0565 -0.7791,-0.23092 -1.18439,-0.64886 z m -2.6785,-18.32573 c -0.46065,-0.8242 -0.69494,-1.64148 -0.69494,-2.42421 v -1.18082 l 0.77,0.61884 c 0.4235,0.34035 1.01322,0.803 1.31049,1.0281 0.51553,0.39037 0.52188,0.46368 0.13752,1.5875 -0.22164,0.64802 -0.49863,1.27627 -0.61555,1.3961 -0.11692,0.11983 -0.5253,-0.34165 -0.90752,-1.02551 z m 15.11659,-1.95342 c -1.51501,-0.54687 -1.71295,-0.7148 -1.08095,-0.91705 0.26563,-0.085 0.82574,-0.69818 1.24468,-1.3626 0.92156,-1.46154 2.52139,-3.02364 3.09988,-3.02679 0.23211,-10e-4 0.6047,0.20607 0.82799,0.46073 1.14497,1.30585 1.70428,3.68211 0.86666,3.68211 -0.21828,0 -0.39687,-0.15199 -0.39687,-0.33777 0,-0.18578 -0.24951,-0.51254 -0.55446,-0.72613 -0.40586,-0.28428 -0.50927,-0.55422 -0.38584,-1.00719 0.16482,-0.60489 0.15964,-0.60393 -0.22991,0.0426 -0.38628,0.64112 -0.39883,0.64363 -0.40792,0.0818 -0.005,-0.31883 0.10969,-0.65328 0.25521,-0.74322 0.34976,-0.21616 0.33925,-0.66145 -0.0156,-0.66145 -0.15411,0 -0.21031,0.11308 -0.12488,0.2513 0.0854,0.13822 -0.0862,0.38054 -0.38126,0.53848 -0.63744,0.34114 -0.69843,0.94543 -0.12767,1.26484 0.32759,0.18333 0.3539,0.37355 0.1323,0.95642 -0.3901,1.02604 -0.34955,1.22229 0.25254,1.22229 0.72959,0 0.67018,0.38844 -0.0661,0.43247 -0.32742,0.0196 -0.83343,0.0955 -1.12448,0.16873 -0.29104,0.0732 -1.09351,-0.0706 -1.78326,-0.31955 z m -17.89064,-14.37071 -0.0623,-4.96094 h 3.05506 c 1.68029,0 3.05506,0.0607 3.05506,0.135 0,0.0743 -0.41672,0.72788 -0.92604,1.4525 -0.50932,0.72462 -0.92604,1.43777 -0.92604,1.58479 0,0.14701 -0.11034,0.26729 -0.24521,0.26729 -0.13486,0 -0.41061,0.32742 -0.61278,0.72761 -0.61284,1.21308 -1.08159,1.97152 -2.08939,3.38059 -0.52965,0.74055 -1.01321,1.57767 -1.07457,1.86027 -0.0614,0.2826 -0.13959,-1.7186 -0.17383,-4.44711 z m 14.77911,-2.3886 c 0,-0.25062 0.12007,-0.45567 0.26683,-0.45567 0.15816,0 0.13224,-0.2155 -0.0636,-0.52917 -0.23527,-0.37673 -0.61701,-0.52917 -1.32516,-0.52917 -0.8183,0 -0.99468,-0.0938 -0.99468,-0.52916 0,-0.45132 0.17638,-0.52917 1.19892,-0.52917 0.91086,0 1.23337,0.11125 1.34224,0.46302 0.0788,0.25466 0.26446,0.68705 0.41255,0.96085 0.20959,0.38753 0.14668,0.62041 -0.2839,1.05099 -0.48567,0.48568 -0.55315,0.49757 -0.55315,0.0975 z"
         id="path369" /><path
         style="fill:#98a6af"
         d="m 152.32748,180.11657 c 0.12843,-2.66713 0.11413,-2.75136 -0.89329,-5.26238 -1.08617,-2.70729 -3.21204,-6.63694 -4.77586,-8.82814 -3.3278,-4.66287 -5.46567,-9.26242 -6.30967,-13.57506 -0.41499,-2.12044 -0.18543,-7.79014 0.40357,-9.96765 2.18503,-8.07801 8.26011,-13.07786 15.18488,-12.49731 3.40588,0.28554 6.65542,1.95386 9.0986,4.67127 1.53724,1.70979 3.52391,5.70048 4.02683,8.08885 0.97211,4.61656 0.76255,9.03426 -0.62265,13.1258 -1.00992,2.98305 -2.21449,5.30704 -4.71452,9.09576 -2.79327,4.23313 -4.57785,7.45965 -5.6341,10.18646 -0.80442,2.07669 -0.86695,2.45669 -0.8163,4.96094 l 0.0549,2.71198 h -2.00832 -2.00832 l 0.0284,-2.97657 c 0.0229,-2.39458 -0.0712,-3.20935 -0.48101,-4.16718 -0.2802,-0.65485 -0.5928,-1.52907 -0.69466,-1.94272 -0.10186,-0.41365 -0.47782,-1.35866 -0.83547,-2.10004 -0.74062,-1.53523 -0.73483,-1.51349 -0.40352,-1.51349 0.13571,0 0.32887,0.25873 0.42924,0.57497 0.10037,0.31623 0.42594,0.82225 0.72349,1.12448 0.56809,0.57703 0.53832,0.51563 -1.10598,-2.28105 -0.23085,-0.39264 -0.66215,-0.82435 -0.95846,-0.95935 -0.64076,-0.29195 -4.6044,-5.95312 -6.16816,-8.80983 -2.02979,-3.70806 -2.72722,-6.56361 -2.71566,-11.11912 0.01,-3.96289 0.56517,-6.61971 2.00975,-9.61865 1.92201,-3.99009 4.71142,-6.58634 8.59126,-7.99634 1.62174,-0.58937 1.65404,-0.61655 0.53527,-0.45041 -4.74423,0.70449 -9.50837,5.80655 -11.1518,11.94277 -0.8223,3.0703 -0.82607,8.68827 -0.008,11.5577 1.04412,3.66121 2.37901,6.45669 4.94891,10.36383 3.35973,5.10795 4.76039,7.67452 5.9105,10.83037 0.89323,2.451 0.95788,2.82606 0.87799,5.09323 -0.0528,1.49742 -0.19538,2.4474 -0.36741,2.4474 -0.18872,0 -0.23826,-0.89136 -0.15066,-2.71052 z m 4.39952,-8.71671 c 1.34217,-2.52486 1.40569,-3.0779 0.31373,-2.73132 -0.57601,0.18282 -3.06369,0.19574 -4.57459,0.0238 -0.5457,-0.0621 -0.99218,-0.0676 -0.99218,-0.0122 0,0.0554 0.36365,0.71752 0.80813,1.47135 0.44447,0.75382 1.16854,2.08457 1.60905,2.9572 0.95556,1.89297 0.90503,1.92342 2.83586,-1.70882 z m -2.60767,0.12706 c -0.36355,-0.68531 -0.661,-1.36992 -0.661,-1.52136 0,-0.15411 0.6552,-0.29017 1.48809,-0.30902 1.33037,-0.0301 1.47441,0.0187 1.35898,0.46005 -0.071,0.27154 -0.25303,0.41712 -0.40449,0.32352 -0.16141,-0.0998 -0.19602,-0.0418 -0.0836,0.14009 0.1444,0.23366 -0.73987,2.15272 -0.99194,2.15272 -0.0248,0 -0.34247,-0.5607 -0.70603,-1.246 z m 4.34082,-7.34777 c 4.53342,-3.00911 8.10356,-9.78916 8.08333,-15.35102 -0.0199,-5.4672 -2.11557,-10.34302 -5.49673,-12.78868 -1.56599,-1.13272 -2.62147,-1.58683 -4.49186,-1.93259 -1.67737,-0.31008 -4.39085,-0.0803 -4.12533,0.34931 0.10756,0.17404 -0.0354,0.20857 -0.3933,0.095 -0.33362,-0.10588 -0.5623,-0.0636 -0.5623,0.10395 0,0.35727 0.97184,0.37182 1.19062,0.0178 0.0899,-0.14552 0.36485,-0.25518 0.61093,-0.2437 0.36618,0.0171 0.37535,0.0489 0.0505,0.17522 -0.50544,0.19654 -1.04968,0.92676 -0.88697,1.19004 0.0685,0.11075 0.008,0.20136 -0.13411,0.20136 -0.14221,0 -0.47666,0.0708 -0.74322,0.15725 -0.40308,0.13078 -0.41786,0.10919 -0.0878,-0.12824 0.30516,-0.21952 0.3146,-0.28643 0.0408,-0.28955 -0.19582,-0.002 -0.70175,0.24213 -1.1243,0.54301 -0.49181,0.3502 -0.96341,0.48511 -1.31057,0.37493 -0.61966,-0.19667 -1.94527,0.5446 -1.69578,0.94828 0.0882,0.14273 0.0116,0.22679 -0.17019,0.18681 -0.42745,-0.094 -2.12312,2.44022 -1.88441,2.8163 0.0998,0.1573 0.19972,0.61657 0.22194,1.0206 0.032,0.58236 -0.0323,0.67425 -0.31046,0.44339 -0.27377,-0.2272 -0.47055,-0.0566 -0.89544,0.77622 -0.6043,1.18452 -0.69605,2.02197 -0.25162,2.29664 0.20093,0.12418 0.23152,-0.0125 0.0974,-0.43507 -0.18084,-0.56978 -0.16308,-0.58364 0.23624,-0.18432 0.24415,0.24415 0.43569,0.87116 0.44078,1.44287 0.0195,2.19564 0.72206,6.88631 1.1738,7.83735 0.38566,0.81194 0.41964,1.13258 0.17655,1.6661 -0.35858,0.78701 -0.41063,1.4829 -0.0708,0.94694 0.33529,-0.52883 1.08475,0.33341 1.1258,1.29522 0.0182,0.42617 0.0628,0.89391 0.0992,1.03943 0.0364,0.14552 0.081,0.34257 0.0992,0.43789 0.0182,0.0953 0.2712,-0.0422 0.56224,-0.3056 0.51473,-0.46582 0.52917,-0.46213 0.52917,0.13539 0,0.33785 -0.0786,0.53565 -0.17471,0.43956 -0.0961,-0.0961 -0.33419,0.053 -0.52911,0.33128 -0.36407,0.51978 -0.2301,1.34273 0.21857,1.34273 0.13854,0 0.18446,0.10911 0.10204,0.24247 -0.17762,0.2874 2.23664,2.38813 3.55821,3.09611 1.47295,0.78907 1.88612,0.87886 3.61004,0.78454 1.35152,-0.0739 1.87625,-0.25527 3.11157,-1.07522 z m -0.37161,16.01455 c 0,-2.44772 0.31889,-3.9812 0.82791,-3.9812 0.1176,0 0.14596,-0.17681 0.063,-0.39292 -0.19863,-0.51762 1.37652,-3.86875 1.77593,-3.77827 0.17032,0.0386 0.36978,-0.0953 0.44322,-0.29741 0.0822,-0.22629 0.0179,-0.29608 -0.16737,-0.18158 -0.21654,0.13384 -0.21208,-0.0228 0.0159,-0.55848 0.42469,-0.99786 0.85057,-1.46376 0.50768,-0.55539 -0.17222,0.45623 -0.17829,0.77561 -0.0166,0.87551 0.39656,0.24509 0.29893,0.91979 -0.13309,0.91979 -0.21316,0 -0.52467,0.25618 -0.69224,0.56929 -0.25951,0.4849 -0.24128,0.54496 0.12298,0.40518 0.33283,-0.12772 0.42085,-0.005 0.39697,0.55519 -0.0189,0.44362 -0.0769,0.5427 -0.15126,0.25852 -0.10236,-0.39116 -0.21764,-0.34542 -0.76306,0.30278 -0.76352,0.90739 -0.79977,1.22964 -0.17947,1.59522 0.31614,0.18632 0.36942,0.33738 0.16795,0.47617 -0.32978,0.2272 -0.67751,1.18671 -0.79281,2.18765 -0.0419,0.36381 -0.14572,1.24492 -0.23069,1.95804 -0.13638,1.14457 -0.10691,1.25709 0.25131,0.95979 0.56303,-0.46727 0.49274,-4.3e-4 -0.10843,0.72019 -0.27315,0.32743 -0.68591,0.59532 -0.91724,0.59532 -0.35625,0 -0.42061,-0.40294 -0.42061,-2.63339 z m 3.97812,-10.64948 c -0.005,-0.10229 0.12785,-0.48716 0.29557,-0.85526 0.28406,-0.62343 0.33072,-0.63788 0.6811,-0.21089 0.3447,0.42006 0.36459,0.40507 0.23791,-0.17931 -0.14494,-0.66858 0.98442,-2.93417 1.46264,-2.93417 0.14028,0 0.1701,-0.13746 0.0663,-0.30547 -0.11697,-0.18925 -0.0726,-0.23364 0.11667,-0.11667 0.18486,0.11425 0.30547,0.0123 0.30547,-0.25825 0,-0.24587 0.41672,-1.02708 0.92604,-1.73602 0.50932,-0.70894 0.92604,-1.39172 0.92604,-1.51727 0,-0.12556 0.22022,-0.51224 0.48937,-0.85929 0.26916,-0.34704 0.49756,-0.80959 0.50755,-1.02787 0.01,-0.21828 0.44463,-1.49931 0.96584,-2.84674 0.52121,-1.34742 0.94766,-2.63437 0.94766,-2.85988 0,-0.22551 0.11906,-0.33644 0.26458,-0.2465 0.32622,0.20162 0.35328,1.45521 0.0314,1.45521 -0.27104,0 -0.86517,2.17609 -0.73524,2.69292 0.0484,0.19238 0.038,0.26049 -0.023,0.15135 -0.061,-0.10914 -0.21277,-0.19844 -0.33718,-0.19844 -0.30748,0 -0.19222,1.40028 0.13801,1.6766 0.15047,0.1259 0.008,0.16507 -0.33109,0.0908 -0.32763,-0.0718 -0.54663,-0.0512 -0.48667,0.0458 0.17877,0.28926 -0.58768,1.89094 -0.90487,1.89094 -0.16114,0 -0.21939,0.11906 -0.12945,0.26458 0.0899,0.14552 0.0412,0.26458 -0.10838,0.26458 -0.14954,0 -0.20284,0.17995 -0.11844,0.39988 0.1098,0.28613 0.0322,0.35334 -0.27289,0.23627 -0.23449,-0.09 -0.42634,-0.0318 -0.42634,0.1293 0,0.16109 0.11907,0.29289 0.26459,0.29289 0.14552,0 0.26458,0.13364 0.26458,0.29698 0,0.19345 -0.15562,0.17039 -0.44641,-0.0661 -0.39225,-0.31907 -0.42472,-0.30528 -0.26762,0.11364 0.10742,0.28641 0.0744,0.41222 -0.0828,0.31511 -0.14385,-0.0889 -0.26155,0.003 -0.26155,0.20322 0,0.20067 -0.39121,0.83278 -0.86935,1.40468 -1.18229,1.41412 -1.85207,2.50762 -1.65603,2.70367 0.2624,0.2624 1.4973,-1.22696 1.41232,-1.70333 -0.0427,-0.23914 0.0713,-0.48684 0.25316,-0.55044 0.55212,-0.19306 0.3743,0.86126 -0.26458,1.56877 -0.32742,0.3626 -0.84786,0.98207 -1.15654,1.37662 -0.50512,0.64565 -0.57976,0.66957 -0.74673,0.23927 -0.16662,-0.42939 -0.22304,-0.41071 -0.55388,0.18337 -0.20261,0.36381 -0.37259,0.57777 -0.37775,0.47547 z m -27.70741,-14.04509 c 0.10794,-2.54352 0.38353,-2.88009 2.48304,-3.03246 l 1.53479,-0.11138 -0.79375,0.68094 c -0.43656,0.37452 -1.03861,0.7489 -1.33789,0.83195 -0.36864,0.1023 -0.77465,0.72189 -1.25888,1.9211 l -0.71474,1.7701 z"
         id="path368" /><path
         style="fill:#1aa1e0"
         d="m 157.03021,180.71042 c 0,-1.16417 -0.11337,-2.11667 -0.25193,-2.11667 -0.27683,0 0.12342,-1.44368 1.01133,-3.64781 0.30993,-0.76937 0.56351,-1.48741 0.56351,-1.59564 0,-0.10823 -0.35877,-0.3322 -0.79727,-0.49772 l -0.79727,-0.30093 -0.91861,1.89657 c -0.50523,1.04312 -0.85281,1.62868 -0.7724,1.30126 0.0827,-0.33686 0.0236,-0.59531 -0.1362,-0.59531 -0.15533,0 -0.29254,0.20836 -0.30493,0.46302 -0.0124,0.25466 -0.45918,-0.42995 -0.9929,-1.52135 -1.81087,-3.70308 -3.207,-5.81143 -3.85935,-5.82812 -0.15654,-0.004 -0.56041,-0.39096 -0.8975,-0.8599 -6.47263,-9.00428 -7.76206,-12.12588 -7.74526,-18.75063 0.0101,-3.99232 0.56293,-6.61169 2.05075,-9.7171 0.96025,-2.00425 1.54837,-2.83155 3.06731,-4.31476 2.16213,-2.11127 5.2333,-3.76522 7.60572,-4.09599 1.41207,-0.19688 1.42775,-0.20803 0.52916,-0.37608 l -0.92604,-0.17318 0.90437,-0.0348 c 3.14714,-0.12121 7.26329,1.49183 9.64397,3.77928 3.65748,3.51426 5.48757,8.37806 5.53365,14.70672 0.0242,3.31863 -0.23645,4.78412 -1.45858,8.20209 -1.10561,3.09207 -1.70754,4.22517 -4.4273,8.33423 -2.79261,4.21913 -4.52695,7.33641 -5.6366,10.1312 -0.74855,1.88533 -0.80522,2.25514 -0.74844,4.88405 0.0338,1.56435 -0.006,2.84427 -0.0889,2.84427 -0.0827,0 -0.15031,-0.9525 -0.15031,-2.11667 z m -0.46303,-8.85009 c 0.83675,-1.51594 1.52136,-2.85775 1.52136,-2.9818 0,-0.12405 -1.48828,-0.22555 -3.30729,-0.22555 -1.81901,0 -3.30729,0.0415 -3.30729,0.0923 0,0.25025 3.26342,5.87912 3.40639,5.87548 0.091,-0.002 0.85009,-1.24452 1.68683,-2.76046 z m 0.65805,-6.90178 c 3.70257,-1.54703 7.82783,-7.15543 8.93991,-12.15404 0.66271,-2.97876 0.44207,-7.7922 -0.47021,-10.258 -1.7516,-4.73439 -4.79363,-7.7056 -8.70641,-8.50373 -0.9206,-0.18779 -1.49619,-0.41108 -1.27909,-0.49622 0.21711,-0.0851 -0.20058,-0.16236 -0.92818,-0.17162 -0.81491,-0.0104 -1.18767,0.0689 -0.9707,0.20645 0.2376,0.15062 -0.0103,0.28124 -0.76182,0.40142 -3.20397,0.51233 -6.41011,3.18501 -8.12793,6.77553 -1.33388,2.78802 -1.6726,4.42924 -1.67219,8.10237 5.1e-4,4.47181 1.1427,7.79405 3.95833,11.51342 3.21325,4.2446 6.84934,5.90849 10.01829,4.58442 z m -7.53765,6.00064 c -0.76422,-1.40354 -2.48166,-4.21877 -3.81653,-6.25606 -2.11818,-3.23278 -3.93266,-6.56987 -3.91708,-7.20409 0.003,-0.11233 0.51165,0.80779 1.13086,2.04471 0.61921,1.23693 2.03266,3.62059 3.141,5.29702 2.13554,3.23016 5.1285,8.40845 4.95478,8.57253 -0.0569,0.0538 -0.7288,-1.05057 -1.49303,-2.45411 z"
         id="path367" /><path
         style="fill:#0d61ae"
         d="m 157.03021,180.71042 c 0,-1.16417 -0.11337,-2.11667 -0.25193,-2.11667 -0.27683,0 0.12342,-1.44368 1.01133,-3.64781 0.30993,-0.76937 0.56351,-1.48741 0.56351,-1.59564 0,-0.10823 -0.35877,-0.3322 -0.79727,-0.49772 l -0.79727,-0.30093 -0.91861,1.89657 c -0.50523,1.04312 -0.85281,1.62868 -0.7724,1.30126 0.0827,-0.33686 0.0236,-0.59531 -0.1362,-0.59531 -0.15533,0 -0.29254,0.20836 -0.30493,0.46302 -0.0124,0.25466 -0.45918,-0.42995 -0.9929,-1.52135 -1.21164,-2.47772 -2.33436,-4.39854 -3.16157,-5.40905 -0.94742,-1.15734 -1.38655,-2.49355 -0.75749,-2.30492 0.83575,0.2506 1.2297,0.25411 1.07859,0.01 -0.0912,-0.1476 -0.22703,-0.20718 -0.30181,-0.1324 -0.0748,0.0748 -0.76366,-0.32775 -1.53085,-0.8945 -0.76718,-0.56676 -1.47428,-0.95107 -1.57132,-0.85403 -0.097,0.097 -0.0883,-0.0581 0.0194,-0.34466 0.1694,-0.45081 0.13908,-0.47501 -0.22478,-0.17941 -0.35825,0.29105 -0.50355,0.22518 -0.98037,-0.44445 -0.3439,-0.48297 -0.4559,-0.85034 -0.2904,-0.95262 0.14815,-0.0916 0.27359,-0.0106 0.27874,0.17986 0.0108,0.40029 0.76091,-0.82891 0.775,-1.27005 0.005,-0.16141 -0.46296,-0.83008 -1.04027,-1.48594 -0.57731,-0.65585 -0.97491,-1.2672 -0.88357,-1.35854 0.0914,-0.0914 -0.0116,-0.37518 -0.22887,-0.63073 -0.58181,-0.68447 -1.41146,-2.84515 -1.93917,-5.05026 -0.94527,-3.94987 -0.14309,-10.81187 1.69714,-14.51775 0.30362,-0.61143 0.55204,-1.30307 0.55204,-1.53697 0,-0.2339 0.10971,-0.35746 0.24381,-0.27458 0.1341,0.0829 0.43176,-0.22604 0.66146,-0.68649 0.49499,-0.99224 0.4988,-1.02047 0.13744,-1.02047 -0.15411,0 -0.21432,0.10659 -0.13381,0.23686 0.0805,0.13027 -0.0255,0.3028 -0.23549,0.3834 -0.76972,0.29537 -0.0831,-0.60581 1.37822,-1.80883 1.87334,-1.54223 4.80378,-2.95392 6.67962,-3.21779 1.41302,-0.19876 1.42836,-0.20972 0.52916,-0.37788 l -0.92604,-0.17318 0.90437,-0.0348 c 3.14714,-0.12121 7.26329,1.49183 9.64397,3.77928 3.65748,3.51426 5.48757,8.37806 5.53365,14.70672 0.0242,3.31863 -0.23645,4.78412 -1.45858,8.20209 -1.10561,3.09207 -1.70754,4.22517 -4.4273,8.33423 -2.79261,4.21913 -4.52695,7.33641 -5.6366,10.1312 -0.74855,1.88533 -0.80522,2.25514 -0.74844,4.88405 0.0338,1.56435 -0.006,2.84427 -0.0889,2.84427 -0.0827,0 -0.15031,-0.9525 -0.15031,-2.11667 z m -0.46303,-8.85009 c 0.83675,-1.51594 1.52136,-2.85775 1.52136,-2.9818 0,-0.12405 -1.48828,-0.22555 -3.30729,-0.22555 -1.81901,0 -3.30729,0.0415 -3.30729,0.0923 0,0.25025 3.26342,5.87912 3.40639,5.87548 0.091,-0.002 0.85009,-1.24452 1.68683,-2.76046 z m 0.65805,-6.90178 c 3.70257,-1.54703 7.82783,-7.15543 8.93991,-12.15404 0.66271,-2.97876 0.44207,-7.7922 -0.47021,-10.258 -1.7516,-4.73439 -4.79363,-7.7056 -8.70641,-8.50373 -0.9206,-0.18779 -1.49619,-0.41108 -1.27909,-0.49622 0.21711,-0.0851 -0.20058,-0.16236 -0.92818,-0.17162 -0.81491,-0.0104 -1.18767,0.0689 -0.9707,0.20645 0.2376,0.15062 -0.0103,0.28124 -0.76182,0.40142 -3.20397,0.51233 -6.41011,3.18501 -8.12793,6.77553 -1.33388,2.78802 -1.6726,4.42924 -1.67219,8.10237 5.1e-4,4.47181 1.1427,7.79405 3.95833,11.51342 3.21325,4.2446 6.84934,5.90849 10.01829,4.58442 z m 9.1982,-5.56641 c 0.50904,-1.10203 0.92552,-2.06631 0.92552,-2.14283 0,-0.0765 0.17519,-0.51431 0.3893,-0.97286 0.69927,-1.49759 1.46289,-5.43819 1.45817,-7.52471 -0.007,-2.91521 -0.73375,-7.0563 -1.49524,-8.51538 -0.19193,-0.36775 -0.3497,-0.75381 -0.3506,-0.8579 -0.004,-0.41495 -1.59185,-2.66657 -1.62943,-2.30995 -0.10818,1.02692 -0.0686,1.20416 0.35164,1.57316 0.24857,0.21828 0.5151,0.82711 0.59229,1.35296 0.0772,0.52584 0.28078,1.29975 0.45241,1.71979 0.43349,1.06087 0.49359,1.78951 0.52127,6.31996 0.0207,3.38773 -0.0606,4.23989 -0.55514,5.82083 -0.31866,1.01865 -0.63988,2.29791 -0.71384,2.8428 -0.0814,0.59968 -0.24411,0.92294 -0.41227,0.81901 -0.15482,-0.0957 -0.20007,-0.0459 -0.10221,0.11244 0.0966,0.15627 -0.004,0.46382 -0.22371,0.68344 -0.36879,0.3688 -0.60341,3.08294 -0.26649,3.08294 0.073,0 0.54929,-0.90167 1.05833,-2.0037 z m -16.73585,11.56705 c -0.76422,-1.40354 -2.48166,-4.21877 -3.81653,-6.25606 -2.11818,-3.23278 -3.93266,-6.56987 -3.91708,-7.20409 0.003,-0.11233 0.51165,0.80779 1.13086,2.04471 0.61921,1.23693 2.03266,3.62059 3.141,5.29702 2.13554,3.23016 5.1285,8.40845 4.95478,8.57253 -0.0569,0.0538 -0.7288,-1.05057 -1.49303,-2.45411 z"
         id="path366" /><path
         style="fill:#182742"
         d="m 157.0609,180.77657 c -0.0169,-1.20055 -0.14406,-2.18282 -0.28262,-2.18282 -0.14344,0 -0.0993,-0.48424 0.10249,-1.12448 1.25274,-3.97456 2.94512,-7.23361 6.90407,-13.29531 2.0879,-3.19686 3.30957,-5.45513 4.00771,-7.40833 0.81299,-2.27447 1.40849,-4.95057 1.40849,-6.32952 0,-0.79445 0.11065,-1.51284 0.24588,-1.59643 0.1461,-0.0903 0.19278,0.46712 0.11502,1.37345 -0.40819,4.75778 -2.01564,8.79362 -5.78478,14.5239 -2.99129,4.5477 -4.87035,7.99063 -5.90201,10.81402 -0.68256,1.868 -0.75849,2.36625 -0.64627,4.24121 0.0699,1.16849 0.0676,2.35912 -0.005,2.64583 -0.0727,0.28671 -0.14603,-0.46098 -0.16291,-1.66152 z m -2.00588,-5.02709 c 0.0919,-0.3447 0.0399,-0.59531 -0.12365,-0.59531 -0.15533,0 -0.29254,0.20836 -0.30493,0.46302 -0.0124,0.25466 -0.45886,-0.43338 -0.99218,-1.52899 -0.98467,-2.02279 -1.7285,-3.33191 -2.86601,-5.04404 -0.5406,-0.81368 -1.01462,-2.09207 -0.77573,-2.09207 0.0416,0 0.7678,0.23812 1.61373,0.52916 1.70378,0.58619 3.23191,0.67031 4.63195,0.25497 0.50836,-0.15081 1.60035,-0.43591 2.42664,-0.63356 1.37243,-0.32828 1.48902,-0.32173 1.34827,0.0758 -0.27414,0.77417 -0.39954,0.89445 -0.59791,0.57348 -0.13926,-0.22533 -0.24197,-0.19179 -0.36077,0.11779 -0.0971,0.25295 -0.0574,0.36562 0.0955,0.27115 0.45857,-0.28341 0.28644,0.12094 -0.71014,1.66823 -0.53443,0.82975 -1.55035,2.63974 -2.2576,4.02218 -0.70725,1.38245 -1.21447,2.24565 -1.12714,1.91823 z m 1.51216,-3.88915 c 0.83675,-1.51594 1.52136,-2.862 1.52136,-2.99125 0,-0.12925 -1.48828,-0.235 -3.30729,-0.235 -1.81901,0 -3.30729,0.0458 -3.30729,0.10178 0,0.25665 3.26,5.88866 3.40639,5.88493 0.091,-0.002 0.85009,-1.24452 1.68683,-2.76046 z m -3.34884,-6.16179 c -1.15821,-0.11906 -3.39723,-1.44536 -4.6747,-2.76911 -2.32758,-2.41189 -4.54963,-6.2797 -5.44112,-9.47109 -0.63423,-2.27046 -0.63556,-7.59012 -0.003,-10.05417 1.12693,-4.38641 3.82009,-8.02636 7.14505,-9.65693 3.45961,-1.69662 5.83148,-1.69598 9.54487,0.003 2.22128,1.01604 5.53081,4.53352 5.78187,6.14517 0.04,0.25657 0.14875,0.58813 0.24173,0.7368 0.093,0.14867 0.41696,1.26636 0.71995,2.48375 0.82227,3.30379 0.77129,7.66797 -0.12588,10.77624 -1.41411,4.89921 -4.85463,9.69643 -8.12188,11.32457 -1.35702,0.67623 -2.30361,0.76631 -5.06738,0.48221 z m 4.60562,-0.99987 c 3.43425,-1.73609 7.09973,-6.85465 8.32601,-11.62665 0.45508,-1.7709 0.54075,-6.23522 0.15836,-8.25157 -0.88705,-4.6774 -4.0891,-8.98011 -7.69063,-10.33418 -0.65484,-0.2462 -1.26259,-0.55182 -1.35056,-0.67914 -0.27593,-0.39937 -2.36238,-0.74395 -3.37164,-0.55683 -1.54643,0.28671 -4.8094,2.22477 -6.42193,3.81434 -1.68927,1.66522 -3.43247,4.96359 -3.92701,7.43045 -0.43399,2.16476 -0.37372,6.94803 0.11127,8.83095 1.03326,4.01159 4.18887,8.67056 7.29104,10.76458 2.50335,1.6898 4.40289,1.8578 6.87509,0.60805 z M 169.15654,146.05 c -0.32689,-4.6476 -2.14319,-8.81206 -5.15835,-11.82723 -0.93065,-0.93064 -2.25408,-1.9468 -2.94097,-2.25813 -2.07479,-0.94038 -3.85486,-1.46113 -4.59915,-1.34547 -0.38744,0.0602 -0.78142,-0.0151 -0.87551,-0.16735 -0.0941,-0.15225 -0.61054,-0.29303 -1.14766,-0.31285 -0.72726,-0.0268 -0.80897,-0.0674 -0.32004,-0.15872 1.15104,-0.21509 4.58028,0.48239 6.24488,1.27016 2.35561,1.11478 4.15658,2.67129 5.61661,4.8542 2.34979,3.51324 3.66702,7.77185 3.44449,11.13602 -0.0672,1.01581 -0.12855,0.73942 -0.2643,-1.19063 z"
         id="path365" /></g></g></svg>
