<?xml version="1.0" encoding="UTF-8" standalone="no"?>
<!-- Created with Inkscape (http://www.inkscape.org/) -->

<svg
   width="53.730328mm"
   height="65.623795mm"
   viewBox="0 0 53.730328 65.623795"
   version="1.1"
   id="svg1"
   inkscape:export-filename="the-shuriken.svg"
   inkscape:export-xdpi="96"
   inkscape:export-ydpi="96"
   xml:space="preserve"
   xmlns:inkscape="http://www.inkscape.org/namespaces/inkscape"
   xmlns:sodipodi="http://sodipodi.sourceforge.net/DTD/sodipodi-0.dtd"
   xmlns="http://www.w3.org/2000/svg"
   xmlns:svg="http://www.w3.org/2000/svg"><sodipodi:namedview
     id="namedview1"
     pagecolor="#ffffff"
     bordercolor="#000000"
     borderopacity="0.25"
     inkscape:showpageshadow="2"
     inkscape:pageopacity="0.0"
     inkscape:pagecheckerboard="0"
     inkscape:deskcolor="#d1d1d1"
     inkscape:document-units="mm"><inkscape:page
       x="0"
       y="0"
       width="53.730328"
       height="65.623795"
       id="page2"
       margin="0"
       bleed="0" /></sodipodi:namedview><defs
     id="defs1" /><g
     inkscape:label="Calque 1"
     inkscape:groupmode="layer"
     id="layer1"
     transform="translate(-81.379822,-112.75941)"><g
       id="g165"
       transform="translate(39.727859,16.987085)"><path
         style="fill:#d0e4f0"
         d="M 41.671875,128.5875 V 95.779167 H 68.527082 95.38229 V 128.5875 161.39584 H 68.527082 41.671875 Z"
         id="path173" /><path
         style="fill:#b5cfe1"
         d="m 51.774769,161.25891 c 0.04758,-0.0476 0.919288,-0.37931 1.937123,-0.73717 2.124218,-0.74685 5.170516,-1.92 6.38851,-2.46026 0.458555,-0.2034 0.964571,-0.36981 1.124479,-0.36981 0.159909,0 0.290743,-0.0972 0.290743,-0.21597 0,-0.11879 0.773907,-0.61691 1.719792,-1.10695 0.945885,-0.49003 1.719792,-0.96424 1.719792,-1.05379 0,-0.0896 0.405027,-0.30928 0.900061,-0.48829 0.495033,-0.179 1.045414,-0.5006 1.223067,-0.71466 0.280947,-0.33852 0.199307,-0.33752 -0.62698,0.008 -1.033035,0.43163 -1.59783,0.51141 -1.405256,0.19849 0.06717,-0.10914 -0.312759,-0.22706 -0.844281,-0.26204 -1.435932,-0.0945 -3.479945,-0.61657 -3.479945,-0.88883 0,-0.131 -0.157494,-0.23819 -0.349987,-0.23819 -1.367981,0 -5.748199,-3.04135 -5.337435,-3.70598 0.08932,-0.14452 0.0065,-0.27114 -0.183942,-0.28137 -0.190489,-0.0102 -0.108219,-0.12092 0.182823,-0.24598 0.504919,-0.21698 0.501888,-0.22825 -0.06615,-0.24599 -0.349105,-0.0109 -0.595312,-0.18555 -0.595312,-0.42227 0,-0.35782 0.09274,-0.35571 0.816564,0.0186 2.396069,1.23906 8.830431,1.56186 13.415536,0.67304 2.803059,-0.54337 4.839917,-1.1899 10.241857,-3.25091 1.891771,-0.72176 4.332552,-1.59703 5.423958,-1.94502 3.555649,-1.13373 6.356329,-2.38989 7.288326,-3.26897 l 0.913605,-0.86174 -0.149221,-2.69055 c -0.08207,-1.47981 -0.396636,-3.7858 -0.699032,-5.12443 -0.516222,-2.28518 -0.524569,-2.51955 -0.136629,-3.83645 0.22725,-0.77143 0.422786,-1.13471 0.434525,-0.80728 0.01908,0.53223 0.550509,0.90195 0.550509,0.38299 0,-0.19382 2.246731,-1.11498 2.711979,-1.11191 0.109141,7.2e-4 0.198438,7.91897 0.198438,17.5961 v 17.5948 H 89.146565 82.91084 l 0.547184,-0.76845 c 0.30095,-0.42265 0.547183,-0.8989 0.547183,-1.05834 0,-0.15943 0.148828,-0.29063 0.330729,-0.29155 0.319467,-0.002 1.369784,-1.56101 1.179541,-1.75125 -0.05156,-0.0516 -0.799422,0.79373 -1.661907,1.87843 l -1.568155,1.97219 -6.320235,0.009 -6.320235,0.009 1.028568,-0.7906 c 1.398826,-1.07518 1.415746,-1.08798 2.616307,-1.97955 1.932955,-1.43546 3.727938,-3.05069 3.3902,-3.05069 -0.136372,0 -0.488111,0.22375 -0.781642,0.49721 -0.293531,0.27347 -1.060122,0.82705 -1.703536,1.23018 -0.643414,0.40313 -1.229374,0.80965 -1.302135,0.90338 -0.311553,0.40133 -3.86606,2.74394 -4.167187,2.74639 -0.181901,0.001 -0.330729,0.10639 -0.330729,0.23312 0,0.12673 -3.758971,0.21461 -8.353268,0.19528 -4.594297,-0.0193 -8.314336,-0.0741 -8.266754,-0.12165 z m 7.75648,-12.72866 c -0.291041,-0.0573 -1.18401,-0.23442 -1.984375,-0.39357 -1.673271,-0.33272 -3.858151,-1.4249 -4.109386,-2.05421 -0.09427,-0.23614 -0.23541,-1.32492 -0.313639,-2.41952 -0.116791,-1.63418 -0.06522,-2.0541 0.288313,-2.3475 0.2368,-0.19653 0.43121,-0.49157 0.432021,-0.65566 0.004,-0.81273 0.617855,-2.34731 1.135916,-2.83976 0.32032,-0.30449 2.130213,-1.32183 4.021984,-2.26075 1.891771,-0.93892 4.034895,-2.12123 4.7625,-2.62734 0.727604,-0.50611 2.394479,-1.50526 3.704166,-2.22032 2.507116,-1.36884 4.758949,-2.87698 6.924607,-4.63766 1.046339,-0.85068 1.394365,-1.3506 1.773733,-2.54787 0.259586,-0.81924 0.605357,-1.62291 0.76838,-1.78593 0.363425,-0.36343 2.430199,-0.39082 3.084074,-0.0409 0.262606,0.14054 1.45605,0.33714 2.652098,0.43689 2.310739,0.19271 2.405687,0.25847 2.480459,1.71801 0.0553,1.07939 0.518314,1.25288 0.930332,0.3486 0.211963,-0.46521 0.452373,-0.64205 0.72869,-0.53602 0.2268,0.087 0.973245,0.15824 1.658765,0.15824 h 1.246401 l 0.31946,1.19442 c 0.175702,0.65694 0.319459,1.9086 0.319459,2.78148 0,0.87288 0.240903,2.44875 0.53534,3.50193 0.294437,1.05318 0.590903,2.56972 0.658812,3.37009 0.06791,0.80036 0.192008,2.11005 0.275776,2.91042 0.142144,1.35812 0.09905,1.50955 -0.645836,2.26972 -0.781751,0.79778 -3.892017,2.12397 -8.364717,3.56663 -1.018646,0.32856 -2.864115,1.00621 -4.101042,1.5059 -3.789301,1.53077 -8.209396,2.89562 -10.828394,3.34362 -2.240388,0.38324 -6.981079,0.53137 -8.353897,0.26104 z m -5.251682,-3.20785 c -0.01013,-2.30776 0.16319,-2.48446 2.014739,-2.05405 1.801193,0.4187 1.784233,0.21071 -0.05298,-0.6498 -0.737154,-0.34526 -1.34028,-0.73447 -1.34028,-0.86491 0,-0.13043 0.443039,-0.98614 0.98453,-1.90158 0.794969,-1.34396 1.342605,-1.89535 2.844271,-2.86378 1.022857,-0.65964 2.137829,-1.34104 2.477714,-1.51421 0.339885,-0.17317 0.562954,-0.36988 0.495709,-0.43712 -0.142114,-0.14212 -5.389308,2.36457 -6.071813,2.90062 -0.526786,0.41374 -1.259577,2.03101 -1.259577,2.77987 0,0.2779 -0.178594,0.65349 -0.396875,0.83465 -0.591698,0.49106 -0.487375,4.23333 0.118012,4.23333 0.103723,0 0.187673,-0.20836 0.186555,-0.46302 z m -8.83738,-3.96538 c -0.851599,-0.0596 -1.387494,-0.21979 -1.385011,-0.41407 0.0063,-0.49644 0.441686,-1.06116 0.696593,-0.90362 0.479246,0.29619 1.943337,-0.61152 3.778162,-2.3424 l 1.899722,-1.7921 -2.883436,-1.37224 c -1.594549,-0.75885 -3.079274,-1.65184 -3.321556,-1.99774 -0.565181,-0.80691 -0.576664,-2.25007 -0.0196,-2.46383 0.680043,-0.26096 0.846382,-0.19948 1.68903,0.62423 l 0.802872,0.78483 v -0.96769 c 0,-0.91609 0.0216,-0.9403 0.404982,-0.4541 0.399577,0.50673 0.404079,0.50652 0.337333,-0.0156 -0.03721,-0.29104 0.0257,-0.67799 0.139799,-0.8599 0.393452,-0.62726 0.705386,-0.32787 0.705386,0.67704 0,1.64608 1.273748,2.75698 2.865034,2.49875 1.279216,-0.20758 1.911461,-0.85419 2.082564,-2.12986 0.181157,-1.35063 -0.453176,-2.47706 -1.740658,-3.09102 -0.901523,-0.4299 -0.923139,-0.47044 -0.439479,-0.8241 0.279773,-0.20457 0.664516,-0.37195 0.854984,-0.37195 0.190468,0 0.346305,-0.11906 0.346305,-0.26459 0,-0.14552 0.172459,-0.26458 0.383243,-0.26458 0.210784,0 0.70442,-0.29765 1.096969,-0.66146 0.635354,-0.58882 0.941905,-0.66146 2.791756,-0.66146 1.301323,0 2.078032,0.10596 2.078032,0.28349 0,0.43668 0.759377,1.09499 1.123214,0.97371 0.205135,-0.0684 0.05809,-0.35537 -0.399238,-0.77921 -0.398187,-0.36903 -0.723976,-0.78221 -0.723976,-0.91819 0,-0.13598 -0.424492,-0.40074 -0.943314,-0.58835 -0.518823,-0.18761 -1.007811,-0.50918 -1.086641,-0.71461 -0.217275,-0.56621 -2.259108,-0.45726 -5.617956,0.29977 -1.307382,0.29466 -0.840493,-0.2581 0.705335,-0.83507 0.693595,-0.25888 1.960883,-1.11461 2.835672,-1.91477 2.136807,-1.95452 3.811877,-2.9776 6.488154,-3.96273 5.136538,-1.89076 9.251023,-2.42906 18.520832,-2.4231 5.88191,0.004 8.015521,0.27536 5.55104,0.70656 l -1.185415,0.20741 1.190625,0.1626 c 1.174328,0.16037 1.168861,0.16314 -0.399376,0.20234 -1.260473,0.0315 -1.656493,0.14621 -1.910832,0.55347 -0.24486,0.39208 -0.526202,0.48331 -1.188124,0.38525 -1.669867,-0.24738 -11.672113,1.52882 -14.228751,2.52674 -1.919727,0.74932 -4.278338,1.9139 -4.715252,2.32818 -0.192296,0.18233 -0.451682,0.33151 -0.576414,0.33151 -0.124732,0 -0.38994,0.16316 -0.589351,0.36257 -0.199411,0.19941 -0.759344,0.56775 -1.244296,0.81853 l -0.88173,0.45596 0.849107,0.70282 c 2.162304,1.7898 4.762932,4.79673 4.770548,5.51586 0.0056,0.52782 0.397142,0.99349 0.843986,1.00376 0.09701,0.002 0.275607,0.11243 0.396875,0.2449 0.130746,0.14283 0.06758,0.15209 -0.155206,0.0228 -0.28012,-0.16263 -0.332562,-0.10572 -0.206148,0.22371 0.123651,0.32223 -0.132754,0.63584 -0.947224,1.15855 -0.614223,0.3942 -1.206066,0.69116 -1.315207,0.65991 -0.109141,-0.0312 -0.198437,0.0585 -0.198437,0.19946 0,0.14096 -0.156247,0.19633 -0.347215,0.12305 -0.190968,-0.0733 -0.494606,0.14216 -0.67475,0.47876 -0.377737,0.70581 -1.72912,1.38828 -2.187729,1.10485 -0.174529,-0.10787 -0.241657,-0.0794 -0.152569,0.0648 0.142742,0.23096 -3.170486,1.94103 -3.760713,1.94103 -0.132693,0 -0.280948,0.0942 -0.329455,0.20939 -0.04851,0.11517 -0.520034,0.53485 -1.047839,0.93262 -0.672029,0.50647 -1.05789,1.07413 -1.287448,1.89403 -0.656234,2.34384 -2.075199,2.74927 -8.137803,2.32514 z m 1.5875,-24.07575 c -0.618463,-0.0557 -1.124479,-0.20141 -1.124479,-0.3238 0,-0.12239 -0.444388,-0.20484 -0.98753,-0.18323 -0.771089,0.0307 -1.008574,-0.0688 -1.083548,-0.45391 -0.08355,-0.42916 0.04472,-0.4798 0.987529,-0.38989 0.98128,0.0936 1.083549,0.0465 1.083549,-0.49897 0,-0.5263 -0.133551,-0.6023 -1.058333,-0.6023 h -1.058333 l -0.03069,-1.12448 c -0.01688,-0.61846 -0.08593,-0.91201 -0.153451,-0.65233 -0.141689,0.54496 -1.306396,1.77681 -1.679967,1.77681 -0.155677,0 -0.252557,-3.65377 -0.252557,-9.525 v -9.525003 l 9.458854,0.0058 9.458854,0.0058 -1.274393,1.164222 c -0.700916,0.640322 -1.534354,1.339058 -1.852083,1.552746 -0.31773,0.213688 -0.501022,0.468286 -0.407315,0.565773 0.09371,0.09749 0.460093,-0.09786 0.814193,-0.434099 0.354099,-0.336241 1.21533,-1.118889 1.913845,-1.739217 l 1.270029,-1.127869 9.150457,0.06954 9.150458,0.06954 -3.297179,1.647278 c -1.813449,0.906003 -3.128827,1.650144 -2.923064,1.653646 0.534843,0.0091 2.40401,-0.848412 2.40401,-1.102884 0,-0.117516 0.131806,-0.213665 0.292902,-0.213665 0.434503,0 3.793853,-1.631454 3.896334,-1.892237 0.04851,-0.123437 3.590616,-0.22443 7.871353,-0.22443 h 7.78316 v 7.923549 7.92355 l -3.704595,0.0801 c -3.689252,0.0798 -3.704593,0.0776 -3.704166,-0.51522 3.62e-4,-0.50405 -0.141536,-0.59532 -0.925614,-0.59532 -0.509323,0 -0.926041,-0.0938 -0.926041,-0.20845 0,-0.58363 -12.422416,-1.21324 -15.593703,-0.79034 -1.405649,0.18744 -1.423773,0.18161 -0.79375,-0.25533 0.354609,-0.24593 0.875555,-0.65968 1.157656,-0.91943 0.282101,-0.25975 0.69882,-0.46849 0.926041,-0.46386 0.350566,0.007 0.343011,0.0616 -0.04989,0.35989 -0.254661,0.19332 -0.463017,0.39789 -0.463013,0.45461 4e-6,0.0567 1.994301,0.10312 4.43177,0.10312 2.43747,0 5.011627,0.089 5.72035,0.19774 1.015888,0.15589 1.230392,0.12789 1.013601,-0.13229 -0.216526,-0.25987 0.142321,-0.31153 1.687976,-0.24298 1.803599,0.08 1.962962,0.0449 1.962962,-0.43216 0,-0.29565 0.226478,-0.57844 0.52598,-0.65676 0.28929,-0.0756 0.643531,-0.44673 0.787202,-0.82461 0.143671,-0.37788 0.38323,-0.68706 0.532352,-0.68706 0.149123,0 0.271132,-0.28601 0.271132,-0.63558 0,-0.97447 -1.139644,-1.21651 -5.727906,-1.21651 -4.072349,0 -7.843719,0.45627 -10.014802,1.2116 -0.582083,0.20251 -1.271933,0.36994 -1.532999,0.37205 -0.261066,0.002 -1.523016,1.07542 -2.804332,2.3851 -1.281316,1.30969 -2.45842,2.38125 -2.615786,2.38125 -0.157366,0 -0.337718,-0.26789 -0.400782,-0.59531 -0.09831,-0.51042 -0.119801,-0.49155 -0.150694,0.13229 -0.02854,0.57629 -0.164845,0.72761 -0.655439,0.72761 -0.340675,0 -1.164765,0.16413 -1.831312,0.36473 -0.866747,0.26085 -1.293175,0.28346 -1.497259,0.0794 -0.204084,-0.20408 -0.285355,-0.17438 -0.285355,0.10428 0,0.24499 -0.445954,0.49311 -1.201268,0.66835 -0.973212,0.22579 -1.175709,0.2121 -1.066637,-0.0721 0.217857,-0.56773 -0.237235,-0.4029 -0.857631,0.31062 -0.316322,0.3638 -0.742689,0.66145 -0.947483,0.66145 -0.204794,0 -1.009253,0.2965 -1.787687,0.65888 -1.664337,0.77479 -2.313776,0.87152 -1.814808,0.2703 0.265053,-0.31937 0.244241,-0.42542 -0.11018,-0.56142 -0.298885,-0.1147 -0.768126,0.18045 -1.485007,0.93405 -0.576426,0.60595 -1.048048,1.22099 -1.048048,1.36677 0,0.14577 -0.148828,0.23735 -0.330729,0.20352 -0.181901,-0.0338 -0.727665,0.0321 -1.212809,0.14659 -0.765727,0.18065 -0.861038,0.29194 -0.722563,0.84367 0.08773,0.34956 0.127482,0.61476 0.08833,0.58934 -0.03915,-0.0254 -0.577202,-0.0918 -1.195666,-0.14751 z"
         id="path172" /><path
         style="fill:#a2b9ca"
         d="m 77.571088,155.4124 c 0.06228,-0.16219 0.398039,-0.42466 0.746139,-0.58326 0.3481,-0.15861 0.844816,-0.62122 1.103812,-1.02803 0.258997,-0.40681 0.592716,-0.82712 0.741598,-0.93404 0.17893,-0.12848 0.170674,-0.19575 -0.02435,-0.19843 -0.162276,-0.002 -0.597774,0.23407 -0.967774,0.52511 -0.369999,0.29104 -0.869333,0.52917 -1.109629,0.52917 -0.240297,0 -0.371713,0.10548 -0.292035,0.2344 0.08206,0.13278 -2.033268,0.24193 -4.879176,0.25177 -2.763225,0.01 -5.024046,-0.0471 -5.024046,-0.12585 0,-0.0788 0.267891,-0.36669 0.595313,-0.63984 0.593509,-0.49512 0.5896,-0.49665 -1.29052,-0.50543 -1.259156,-0.006 -1.985189,-0.12852 -2.184821,-0.36906 -0.164443,-0.19814 -0.863631,-0.42842 -1.553751,-0.51172 -1.412465,-0.1705 -3.547645,-0.99367 -3.0407,-1.17227 0.52932,-0.18648 0.38162,-0.60158 -0.214052,-0.60158 -0.29963,0 -0.471197,0.11906 -0.38126,0.26458 0.258687,0.41856 -0.29643,0.30754 -0.661459,-0.13229 -0.181157,-0.21828 -0.523157,-0.40992 -0.760001,-0.42587 -1.207113,-0.0813 2.345243,-0.5089 5.119785,-0.61633 4.712862,-0.18248 9.095448,-1.26528 15.087091,-3.72755 1.164166,-0.47841 3.24776,-1.24548 4.630208,-1.7046 4.91861,-1.63348 7.430782,-2.71048 8.354549,-3.58171 l 0.91177,-0.85991 -0.119708,-3.00868 c -0.06584,-1.65478 -0.145299,-3.06822 -0.176578,-3.14098 -0.03128,-0.0728 -0.07207,-0.45971 -0.09065,-0.85989 -0.02933,-0.63176 0.06574,-0.72761 0.721691,-0.72761 0.41551,0 0.934066,-0.17859 1.152347,-0.39687 0.218281,-0.21828 0.626496,-0.39688 0.907143,-0.39688 0.495246,0 0.510268,0.30378 0.510268,10.31875 0,8.72606 -0.05785,10.31875 -0.374826,10.31875 -0.206155,0 -0.414514,0.0893 -0.463021,0.19844 -0.04851,0.10914 -0.504913,0.39077 -1.014236,0.62584 -2.493904,1.15102 -3.056906,1.44451 -3.22721,1.68233 -0.107903,0.15068 -0.459076,-3e-4 -0.84586,-0.36366 -0.576781,-0.54186 -0.61245,-0.67023 -0.278917,-1.00376 0.397151,-0.39715 0.796909,-1.60746 0.596972,-1.8074 -0.06292,-0.0629 -0.40464,0.35615 -0.759379,0.93125 -0.35474,0.57511 -0.721687,1.04885 -0.815438,1.05276 -0.370647,0.0155 -1.813918,1.56682 -1.813918,1.94974 0,0.50952 -0.436331,0.80289 -0.658791,0.44294 -0.0914,-0.14789 -0.0401,-0.26889 0.114009,-0.26889 0.154109,0 0.280199,-0.11907 0.280199,-0.26459 0,-0.14552 -0.47625,-0.26458 -1.058334,-0.26458 -0.582083,0 -1.058333,0.11906 -1.058333,0.26458 0,0.15434 -0.881944,0.26459 -2.116667,0.26459 -1.164166,0 -2.116666,0.10707 -2.116666,0.23794 0,0.13086 -0.520654,0.27969 -1.157008,0.33073 -0.773778,0.062 -1.119504,-0.005 -1.043778,-0.20211 z m -19.343742,-7.11416 c -2.137039,-0.44322 -4.520101,-1.53514 -4.777372,-2.189 -0.09871,-0.25086 -0.246597,-1.32061 -0.328647,-2.37722 -0.116865,-1.50493 -0.06157,-2.02078 0.255248,-2.38125 0.222437,-0.25308 0.593068,-1.11499 0.823624,-1.91535 0.483453,-1.67829 0.850275,-1.96078 5.463342,-4.20738 1.527969,-0.74413 3.373437,-1.77197 4.101042,-2.28409 0.727604,-0.51211 2.394479,-1.50684 3.704166,-2.2105 2.425335,-1.30306 4.600992,-2.76255 6.945888,-4.65949 1.048257,-0.848 1.397881,-1.3455 1.759228,-2.50328 0.248034,-0.79472 0.57832,-1.59839 0.73397,-1.78594 0.322798,-0.38894 2.753399,-0.46948 2.982481,-0.0988 0.08232,0.13319 1.071612,0.32122 2.198427,0.41784 2.946685,0.25266 2.974797,0.26644 2.974797,1.45886 0,1.22106 0.423608,1.58915 0.955275,0.83009 0.321875,-0.45954 0.655823,-0.54589 2.069237,-0.53504 l 1.685419,0.0129 0.171732,0.96938 c 0.09445,0.53316 0.272876,1.98141 0.396496,3.21833 0.12362,1.23693 0.414778,2.90381 0.647018,3.70417 0.23224,0.80037 0.484996,2.22912 0.561681,3.175 0.07668,0.94589 0.20596,2.16136 0.287279,2.70106 0.197022,1.3076 -0.487886,2.43848 -1.868346,3.08492 -0.588133,0.2754 -2.498083,1.00822 -4.244332,1.62848 -1.74625,0.62027 -4.850602,1.75938 -6.89856,2.53137 -8.04051,3.0309 -10.16129,3.54619 -15.194148,3.69176 -2.448964,0.0708 -4.148148,-0.0162 -5.404945,-0.27685 z m -3.905335,-2.84355 c -0.100741,-2.40239 0.09741,-2.62217 1.971285,-2.18658 0.834989,0.1941 1.518162,0.30612 1.518162,0.24894 0,-0.0572 -0.625078,-0.41795 -1.389063,-0.80171 -0.763984,-0.38376 -1.431231,-0.73551 -1.482771,-0.78168 -0.05154,-0.0462 0.347941,-0.89504 0.887735,-1.8864 1.043221,-1.91592 1.306994,-2.14107 5.188316,-4.42856 1.252996,-0.73846 2.741277,-1.74854 3.307291,-2.24463 0.845614,-0.74114 0.887583,-0.81759 0.235367,-0.42877 -0.436563,0.26026 -1.091407,0.73408 -1.455209,1.05293 -0.363802,0.31886 -1.888996,1.1399 -3.38932,1.82454 -3.937884,1.79698 -4.731829,2.35238 -5.061919,3.54101 -0.152382,0.54873 -0.277723,1.19146 -0.278535,1.4283 -8.11e-4,0.23685 -0.180069,0.57885 -0.39835,0.76001 -0.459926,0.3817 -0.545963,2.74842 -0.138841,3.81923 0.31836,0.83735 0.518913,0.87176 0.485852,0.0834 z m 28.474766,-15.51546 c 0.141977,-0.22973 -1.026757,-1.39564 -2.628028,-2.6217 l -0.79375,-0.60775 0.858922,0.41598 c 0.472407,0.2288 1.450922,0.76505 2.174477,1.19167 1.192,0.70283 1.896005,0.70365 1.462181,0.002 -0.266081,-0.43053 -1.986368,-1.21662 -3.70183,-1.69156 -0.873125,-0.24173 -2.031945,-0.63118 -2.575156,-0.86544 -0.869726,-0.37506 -0.967392,-0.50824 -0.817946,-1.11538 0.285095,-1.15823 1.395565,-2.4063 2.167734,-2.43634 0.603916,-0.0235 0.57345,-0.0572 -0.229841,-0.2544 -0.781219,-0.19176 -0.999263,-0.14056 -1.394245,0.32738 -0.257512,0.30508 -0.599831,1.07743 -0.760709,1.71634 -0.184036,0.73087 -0.570828,1.37991 -1.043047,1.75022 l -0.750542,0.58858 0.77554,0.0278 c 0.426547,0.0153 0.71263,-0.074 0.63574,-0.19844 -0.07689,-0.12441 -0.08232,-0.2262 -0.01207,-0.2262 0.391117,0 4.699819,2.78447 5.335635,3.44812 0.790513,0.82512 1.056827,0.93794 1.296934,0.54944 z m -38.479069,10.68681 c 0,-0.23489 0.242975,-0.39728 0.595313,-0.39786 0.327422,-5.4e-4 0.977799,-0.2342 1.445284,-0.51924 0.917645,-0.55952 4.04482,-3.58486 4.04482,-3.9131 0,-0.19963 -0.284145,-0.34236 -2.778125,-1.39547 -2.428601,-1.02549 -3.035593,-1.42702 -3.43744,-2.27385 -0.636541,-1.34141 -0.49173,-1.81744 0.309218,-1.0165 0.232938,0.23294 0.619434,0.33807 0.907143,0.24676 0.275708,-0.0875 0.501287,-0.0459 0.501287,0.0925 0,0.13835 0.20836,0.32358 0.463021,0.41162 0.254661,0.088 0.820208,0.39596 1.256771,0.68427 0.436562,0.28831 1.150937,0.72273 1.5875,0.96538 1.345552,0.74787 2.778125,1.98076 2.778125,2.39089 0,0.21464 0.119062,0.31667 0.264583,0.22674 0.145521,-0.0899 0.264583,0.008 0.264583,0.21756 0,0.2326 -0.478786,0.50163 -1.228841,0.6905 -0.883671,0.22251 -1.718727,0.75157 -2.972889,1.88349 -0.959227,0.86574 -1.89453,1.57407 -2.078451,1.57407 -0.183921,0 -0.334402,0.11906 -0.334402,0.26459 0,0.14552 -0.357187,0.26458 -0.79375,0.26458 -0.529166,0 -0.79375,-0.13229 -0.79375,-0.39688 z m -2.626851,-40.07605 -0.0389,-4.770823 h 3.194266 c 3.575588,0 3.534206,-0.04047 1.862887,1.821791 -0.442148,0.492662 -0.803906,1.003703 -0.803906,1.135646 0,0.131944 -0.121245,0.3837 -0.269434,0.55946 -0.643063,0.762706 -1.838012,2.728886 -1.842418,3.031536 -0.0026,0.18191 -0.123877,0.33073 -0.269398,0.33073 -0.145521,0 -0.267895,0.14883 -0.271944,0.33073 -0.004,0.1819 -0.348213,0.78096 -0.76481,1.33124 l -0.75745,1.00051 z m 9.760667,0.32446 -0.871763,-0.77892 0.837724,-0.0238 c 0.608325,-0.0173 0.837723,0.0945 0.837723,0.40828 0,0.35626 0.05804,0.37057 0.330729,0.0815 0.264583,-0.28046 0.264583,-0.37483 0,-0.47184 -0.181901,-0.0667 -0.330729,-0.409001 -0.330729,-0.760676 0,-0.569589 -0.115565,-0.63941 -1.058333,-0.63941 -0.582084,0 -1.058334,0.119062 -1.058334,0.264583 0,0.145521 -0.47625,0.264584 -1.058333,0.264584 -0.970716,0 -1.060874,-0.06024 -1.089025,-0.727605 -0.02358,-0.558968 -0.06166,-0.605116 -0.164301,-0.199112 -0.136158,0.538578 -1.392507,1.872896 -1.392507,1.478931 0,-0.118948 0.21639,-0.500216 0.480867,-0.847262 0.264477,-0.347047 0.636109,-1.017947 0.825849,-1.49089 0.189741,-0.472943 0.509132,-0.859896 0.709758,-0.859896 0.200627,0 0.364776,-0.178594 0.364776,-0.396875 0,-0.340605 0.815384,-0.396875 5.750961,-0.396875 h 5.750962 l -0.888042,0.595313 c -0.488423,0.327422 -1.336017,1.041797 -1.883541,1.5875 -0.547525,0.545703 -1.09873,0.993455 -1.2249,0.995005 -0.126169,0.0015 -0.633074,0.418268 -1.126454,0.926041 -0.902799,0.929134 -1.351903,1.147934 -1.351903,0.658644 0,-0.14552 0.138906,-0.26459 0.30868,-0.26459 0.169775,0 0.232183,-0.0765 0.138686,-0.16999 -0.0935,-0.0935 -0.357102,-0.0147 -0.585788,0.17508 -0.302892,0.25138 -0.331345,0.39727 -0.104788,0.53729 0.171052,0.10572 0.225619,0.33037 0.12126,0.49922 -0.14261,0.23075 -0.287488,0.2259 -0.583229,-0.0195 -0.313082,-0.25983 -0.436473,-0.25701 -0.603864,0.0138 -0.157997,0.25564 -0.427439,0.14646 -1.082141,-0.43852 z"
         id="path171" /><path
         style="fill:#95a5b0"
         d="m 71.305207,152.30794 c 0,-0.28966 1.403704,-1.47729 1.75763,-1.48708 0.232979,-0.006 0.62362,-0.56388 0.62362,-0.88989 0,-0.0552 -1.46955,-0.16588 -2.447395,-0.18436 -0.904185,-0.0171 -0.94168,-0.43541 -0.07444,-0.83055 0.359239,-0.16368 0.597483,-0.38769 0.52943,-0.49781 -0.127999,-0.2071 3.456782,-1.44517 4.042929,-1.39629 0.181901,0.0152 0.330729,-0.0782 0.330729,-0.20761 0,-0.12935 0.141003,-0.23518 0.31334,-0.23518 0.172337,0 0.797415,-0.23125 1.389062,-0.51389 0.591648,-0.28265 1.611504,-0.70503 2.266348,-0.93863 1.091405,-0.38933 6.325916,-2.23095 9.306152,-3.2741 0.679998,-0.23802 1.533008,-0.691 1.895577,-1.00662 0.362569,-0.31563 0.74803,-0.49422 0.85658,-0.39688 0.108549,0.0974 0.116801,0.0364 0.01834,-0.13545 -0.09847,-0.17185 -0.05802,-0.38724 0.08987,-0.47864 0.147895,-0.0914 0.268899,-0.64717 0.268899,-1.23504 0,-0.85455 0.164761,-1.22277 0.821731,-1.83647 0.846808,-0.79104 1.294936,-0.96512 1.294936,-0.50303 0,0.14552 0.181111,0.26458 0.402468,0.26458 0.349072,0 0.392951,0.69329 0.330729,5.22552 l -0.07174,5.22552 -1.906845,0.66146 c -1.048765,0.3638 -1.991343,0.75076 -2.094618,0.8599 -0.103275,0.10914 -0.426445,0.19844 -0.718155,0.19844 -0.29171,0 -0.74452,0.19379 -1.006245,0.43065 -0.261725,0.23685 -0.865002,0.47596 -1.340616,0.53133 -1.14807,0.13368 -1.893599,0.37672 -2.08966,0.68124 -0.314275,0.48813 -2.271462,0.56072 -2.917507,0.10822 -0.765369,-0.53609 -1.287812,-0.54893 -1.287812,-0.0317 0,0.21828 -0.228203,0.39687 -0.507118,0.39687 -0.278915,0 -0.557209,0.14883 -0.618431,0.33073 -0.08823,0.26214 -0.197206,0.25985 -0.525486,-0.011 -0.30963,-0.25551 -0.44045,-0.26294 -0.518282,-0.0294 -0.06507,0.1952 -1.239675,0.4058 -3.132182,0.56158 -1.760917,0.14496 -3.110421,0.37872 -3.22486,0.55861 -0.146106,0.22968 -0.197831,0.22418 -0.200839,-0.0214 -0.0052,-0.4219 -1.120368,-0.43149 -1.538635,-0.0132 -0.174625,0.17462 -0.3175,0.22844 -0.3175,0.1196 z m -12.992765,-3.99257 c -2.076031,-0.43457 -4.335646,-1.52044 -4.741342,-2.27849 -0.159834,-0.29866 -0.360072,-1.37158 -0.444972,-2.38427 -0.121654,-1.45108 -0.0673,-1.93882 0.256494,-2.30162 0.225972,-0.2532 0.552818,-0.99323 0.726324,-1.64452 0.443233,-1.66376 1.539955,-2.57396 4.908322,-4.07353 1.592377,-0.70891 3.133356,-1.49466 3.424398,-1.74611 0.782185,-0.67576 3.235152,-2.20182 4.894791,-3.04517 2.080963,-1.05745 4.34137,-2.54654 6.530497,-4.3021 1.682685,-1.34943 1.950653,-1.69057 2.340113,-2.97914 0.241903,-0.80037 0.562211,-1.60404 0.711796,-1.78594 0.316516,-0.3849 2.628666,-0.44805 2.998532,-0.0819 0.138244,0.13686 1.203854,0.33121 2.36802,0.43189 1.164167,0.10069 2.265495,0.30095 2.447396,0.44503 0.181901,0.14408 0.330729,0.72363 0.330729,1.2879 0,1.13272 0.454625,1.36514 0.990823,0.50655 0.269197,-0.43105 0.613042,-0.51717 2.021735,-0.50636 l 1.697373,0.013 0.172726,0.96938 c 0.095,0.53316 0.276119,2.04094 0.40249,3.35063 0.12637,1.30968 0.41588,3.02541 0.643354,3.81272 0.227474,0.78731 0.470026,2.2756 0.539005,3.30729 0.06898,1.0317 0.201267,2.24559 0.293975,2.69754 0.137724,0.67139 0.02426,0.98606 -0.620228,1.7201 -0.633236,0.72121 -1.486126,1.15167 -4.324916,2.18281 -1.944871,0.70644 -5.143472,1.87724 -7.108003,2.60179 -6.372288,2.35018 -8.563622,3.07829 -10.583333,3.51648 -2.750391,0.59673 -8.6505,0.75188 -10.876099,0.28601 z m -3.960317,-2.5961 c -0.09421,-0.7255 0.03915,-2.20057 0.22543,-2.49344 0.150253,-0.23622 0.561218,-0.2261 1.715741,0.0423 0.834989,0.1941 1.518162,0.30612 1.518162,0.24894 0,-0.0572 -0.625078,-0.41795 -1.389063,-0.80171 -0.763984,-0.38376 -1.428054,-0.73234 -1.47571,-0.77461 -0.04766,-0.0423 0.309532,-0.82167 0.79375,-1.73199 0.967567,-1.81899 2.390129,-3.03227 5.656801,-4.82458 1.010999,-0.5547 2.31443,-1.43377 2.896513,-1.9535 0.869006,-0.77591 0.916338,-0.86138 0.264584,-0.47779 -0.436563,0.25694 -1.046777,0.69632 -1.356033,0.97641 -0.309255,0.28008 -1.934299,1.14059 -3.611208,1.91225 -1.676909,0.77165 -3.414,1.66296 -3.8602,1.98068 -0.765405,0.54502 -1.353909,1.85012 -1.357542,3.01057 -8.11e-4,0.25923 -0.180069,0.53986 -0.39835,0.62362 -0.634445,0.24346 -0.466861,4.5936 0.176963,4.5936 0.13371,0 0.223782,-0.14883 0.200162,-0.33073 z m 28.421911,-15.66631 c 0.09416,-0.24537 -0.402954,-0.88594 -1.360755,-1.75342 l -1.509116,-1.3668 1.322917,0.73429 c 0.727604,0.40385 1.584598,0.89391 1.904432,1.08902 0.595682,0.36338 1.06295,0.0871 0.739065,-0.43691 -0.269294,-0.43573 -2.01396,-1.23841 -3.709793,-1.70679 -0.868746,-0.23994 -2.02802,-0.62705 -2.576165,-0.86024 -1.139151,-0.48461 -1.139047,-0.83697 7.47e-4,-2.52242 0.520817,-0.77015 0.855354,-0.999 1.494885,-1.02262 0.766071,-0.0283 0.749614,-0.0456 -0.234421,-0.24646 -1.267985,-0.25884 -1.809734,0.2094 -2.262602,1.95558 -0.171554,0.66149 -0.605299,1.36902 -1.088887,1.7762 l -0.803754,0.67676 1.205038,0.0624 c 1.482097,0.0767 3.179478,0.99248 5.016397,2.70643 1.513988,1.41264 1.646134,1.47757 1.862012,0.915 z"
         id="path170" /><path
         style="fill:#aca952"
         d="m 60.192708,148.52443 c -3.646384,-0.54765 -6.056841,-1.43228 -6.583346,-2.41606 -0.138791,-0.25933 -0.338892,-1.34982 -0.44467,-2.4233 -0.156634,-1.58958 -0.118525,-2.00575 0.205351,-2.24258 0.218722,-0.15993 0.596653,-0.97524 0.839846,-1.81179 0.519944,-1.78855 1.145431,-2.28986 5.053133,-4.04995 1.35958,-0.61237 3.226279,-1.64843 4.14822,-2.30234 0.921941,-0.65391 2.390632,-1.55055 3.263757,-1.99253 4.131122,-2.09118 9.377401,-6.03573 9.39518,-7.064 0.005,-0.29105 0.238839,-1.03519 0.51957,-1.65365 0.470956,-1.03754 0.588132,-1.12417 1.515543,-1.1205 0.552818,0.002 1.481373,0.17556 2.063457,0.38527 0.582083,0.2097 1.616129,0.3865 2.29788,0.39289 0.68175,0.006 1.544953,0.12773 1.918229,0.26965 0.573361,0.21799 0.678682,0.42328 0.678682,1.32291 0,1.16495 0.557699,1.47116 1.039565,0.57079 0.21883,-0.40889 0.546734,-0.48662 1.901378,-0.45074 l 1.636944,0.0434 0.345213,1.31063 c 0.189867,0.72085 0.350468,2.03317 0.35689,2.91626 0.0064,0.88309 0.181118,2.19278 0.388212,2.91042 0.350086,1.21313 0.841146,4.23098 0.911921,5.60427 0.01687,0.32742 0.05534,1.01569 0.08549,1.52949 0.08263,1.40842 -0.956605,2.23269 -4.416652,3.50308 -1.600729,0.58773 -3.505729,1.25118 -4.233333,1.47433 -0.727604,0.22316 -2.275416,0.78065 -3.439583,1.23888 -3.868549,1.5227 -7.908079,2.916 -9.575207,3.30263 -2.800305,0.64944 -7.946309,1.04175 -9.871667,0.75258 z m -5.840583,-2.80516 c -0.09421,-0.7255 0.03915,-2.20057 0.22543,-2.49344 0.150248,-0.23621 0.561498,-0.22603 1.716751,0.0425 1.759883,0.4091 1.78335,0.23012 0.08128,-0.61994 -0.66548,-0.33235 -1.209964,-0.71839 -1.209964,-0.85785 0,-0.13946 0.356387,-0.95957 0.791972,-1.82245 0.630025,-1.24808 1.104719,-1.77405 2.321384,-2.57215 2.344443,-1.53789 2.505177,-1.63201 3.567372,-2.08902 0.545704,-0.23479 0.992188,-0.52029 0.992188,-0.63444 0,-0.39919 0.864598,-0.53493 1.290306,-0.20258 0.38423,0.29996 0.390242,0.28532 0.05705,-0.13894 -0.391087,-0.49799 -0.372803,-0.52926 0.844395,-1.44382 0.897313,-0.67422 1.298207,-0.58367 4.928164,1.11316 3.038094,1.42016 3.645651,1.52021 2.992211,0.49274 -0.308922,-0.48575 -5.259115,-2.7967 -5.990693,-2.7967 -0.562837,0 -3.742201,1.89829 -4.121436,2.46076 -0.07276,0.10792 -1.084792,0.63393 -2.248958,1.16891 -5.441342,2.50051 -5.820433,2.78952 -6.120524,4.66619 -0.08851,0.5535 -0.36955,1.19517 -0.624535,1.42593 -0.462735,0.41877 -0.488168,1.29583 -0.109381,3.77196 0.119947,0.78409 0.716528,1.29576 0.616982,0.52916 z m 19.466624,-11.04635 c -0.208315,-0.33706 0.03214,-0.3368 0.662795,7.1e-4 0.790564,0.4231 0.934393,-0.20943 0.224821,-0.98871 -0.560456,-0.61551 -0.569884,-0.66304 -0.09387,-0.47319 1.193894,0.47615 2.508684,0.76049 2.687892,0.58128 0.344033,-0.34403 -0.535571,-0.87685 -2.687892,-1.62817 -1.164167,-0.40639 -2.728026,-1.08077 -3.475244,-1.49863 l -1.358577,-0.75974 -1.10633,0.6284 c -1.137147,0.64592 -1.028873,0.955 0.339395,0.96886 0.857947,0.009 2.600086,0.87329 3.692756,1.83267 0.532303,0.46737 0.956904,0.92951 0.943558,1.02699 -0.0444,0.32435 0.03665,0.57411 0.186307,0.57411 0.08135,0 0.07432,-0.11906 -0.01561,-0.26458 z m 5.159375,-1.98438 c 0,-0.47673 0.308385,-0.51182 0.736423,-0.0838 0.1722,0.1722 0.379186,0.24699 0.459968,0.16621 0.08078,-0.0808 -0.38411,-0.39647 -1.033095,-0.70153 -0.648986,-0.30506 -1.255904,-0.67751 -1.348708,-0.82767 -0.220056,-0.35606 -0.228255,-0.35753 1.346284,0.24093 0.996228,0.37865 1.429269,0.43591 1.647351,0.21783 0.203496,-0.2035 0.211212,-0.39784 0.02472,-0.62255 -0.188064,-0.22661 -0.17361,-0.38698 0.04718,-0.52343 0.21521,-0.13301 0.248979,-0.0845 0.104259,0.14962 -0.135535,0.2193 -0.110293,0.28222 0.06881,0.17152 0.155576,-0.0961 0.343166,-0.0252 0.416867,0.15756 0.08349,0.20709 0.141875,0.21992 0.15489,0.034 0.03704,-0.52908 -0.731935,-0.99105 -1.117306,-0.67122 -0.418947,0.3477 -4.453557,-0.87939 -6.254108,-1.90212 l -1.166839,-0.66278 -1.010058,0.5766 c -0.555532,0.31714 -1.010975,0.65052 -1.012096,0.74087 -0.0011,0.0903 0.709633,0.24478 1.579452,0.34319 1.44525,0.16351 1.758655,0.32532 3.638021,1.8783 2.089084,1.72627 2.717989,2.03133 2.717989,1.31841 z m 3.878904,-2.66104 c 0.09041,-0.2356 0.329501,-0.34632 0.558287,-0.25852 0.331125,0.12706 0.342468,0.084 0.06575,-0.24938 -0.183922,-0.22161 -0.468653,-0.40352 -0.632736,-0.40425 -0.164083,-7.2e-4 -0.65552,-0.30314 -1.092082,-0.67203 l -0.79375,-0.67073 1.380266,0.67204 c 1.672005,0.81408 1.763065,0.82081 1.578935,0.1167 -0.118489,-0.4531 -0.04833,-0.53 0.381138,-0.41769 0.430637,0.11261 0.469602,0.0693 0.21426,-0.23841 -0.171656,-0.20684 -0.521389,-0.37606 -0.777185,-0.37606 -0.427712,0 -4.733908,-1.27972 -6.399234,-1.90173 -0.637525,-0.23812 -0.683723,-0.33852 -0.444867,-0.96676 0.146595,-0.38557 0.570165,-1.09912 0.941268,-1.58566 0.598875,-0.78516 0.77531,-0.86575 1.569346,-0.71679 1.245428,0.23365 1.121381,-0.0393 -0.176727,-0.38881 -1.61775,-0.43562 -2.026863,-0.18414 -2.567964,1.5785 -0.399052,1.29992 -0.690779,1.71404 -1.856651,2.63561 -0.760766,0.60135 -1.38321,1.15431 -1.38321,1.22881 0,0.19926 1.001499,-0.37091 1.191504,-0.67834 0.08945,-0.14474 0.668087,-0.26317 1.285852,-0.26317 1.295184,0 2.997061,0.95911 4.985788,2.80978 1.339453,1.24647 1.724364,1.39225 1.97201,0.74689 z"
         id="path169" /><path
         style="fill:#986b0f"
         d="m 57.149999,147.94805 c -3.334415,-1.00282 -3.689073,-1.39709 -4.001712,-4.44862 -0.145196,-1.41719 -0.102184,-1.82006 0.219418,-2.05523 0.220008,-0.16087 0.596703,-0.96908 0.837099,-1.79601 0.522259,-1.79651 0.898753,-2.10403 4.827777,-3.94335 1.548173,-0.72476 3.543872,-1.83471 4.434889,-2.46655 0.891016,-0.63185 2.334404,-1.51043 3.207529,-1.95241 4.131122,-2.09118 9.377401,-6.03573 9.39518,-7.064 0.005,-0.29105 0.238839,-1.03519 0.51957,-1.65365 0.470956,-1.03754 0.588132,-1.12417 1.515543,-1.1205 0.552818,0.002 1.481373,0.17556 2.063457,0.38527 0.582083,0.2097 1.616129,0.3865 2.29788,0.39289 0.68175,0.006 1.544953,0.12773 1.918229,0.26965 0.573361,0.21799 0.678682,0.42328 0.678682,1.32291 0,1.16495 0.557699,1.47116 1.039565,0.57079 0.21883,-0.40889 0.546734,-0.48662 1.901378,-0.45074 l 1.636944,0.0434 0.345213,1.31063 c 0.189867,0.72085 0.350468,2.03317 0.35689,2.91626 0.0064,0.88309 0.180251,2.19278 0.386287,2.91042 0.453913,1.58101 0.710895,3.14157 0.866967,5.2648 0.19023,2.58791 0.162603,2.79855 -0.452996,3.45383 -0.573079,0.61001 -4.356096,2.21065 -7.715614,3.26456 -0.919559,0.28848 -3.576925,1.25342 -5.905259,2.14431 -6.858348,2.62422 -8.432848,2.97037 -14.022916,3.08292 -4.019081,0.0809 -5.010306,0.0214 -6.35,-0.38154 z m 3.307292,-0.31055 c -0.192009,-0.35877 -0.195007,-0.52916 -0.0093,-0.52916 0.150641,0 0.25499,-0.0893 0.231888,-0.19844 -0.0231,-0.10914 0.04785,-0.43656 0.157674,-0.72761 0.109823,-0.29104 0.246947,-0.68554 0.304719,-0.87666 0.05777,-0.19113 0.239905,-0.26415 0.40474,-0.16228 0.571026,0.35292 6.855467,0.13849 9.119597,-0.31116 3.007802,-0.59735 2.670525,-0.75787 -0.448247,-0.21334 -1.790833,0.31267 -3.187176,0.38618 -4.998562,0.26315 -2.365108,-0.16064 -5.422057,-0.72628 -5.761918,-1.06614 -0.216946,-0.21694 1.354183,-0.0215 1.738989,0.21628 0.196562,0.12148 0.318762,0.0389 0.318762,-0.21548 0,-0.22687 0.102584,-0.41249 0.227965,-0.41249 0.12538,0 0.929052,-0.6504 1.785937,-1.44533 1.536169,-1.4251 1.582042,-1.44591 3.277765,-1.48747 l 1.719791,-0.0422 -1.455208,-0.20573 c -0.800364,-0.11316 -2.050521,-0.27448 -2.778125,-0.35849 -3.004213,-0.34688 -7.011458,-1.34355 -7.011458,-1.74386 0,-0.19563 2.796418,-1.92984 4.437332,-2.75184 0.542644,-0.27183 1.070367,-0.62705 1.172717,-0.78938 0.420049,-0.66622 6.373276,1.39842 8.325289,2.88729 0.807193,0.61568 0.962379,0.644 2.002642,0.36547 0.620204,-0.16605 1.425301,-0.45418 1.789103,-0.64027 0.363802,-0.1861 0.984817,-0.48987 1.380032,-0.67505 0.395216,-0.18518 0.648224,-0.45052 0.56224,-0.58965 -0.08961,-0.14498 -0.253421,-0.0997 -0.383794,0.10602 -0.125102,0.19744 -0.229282,0.2551 -0.23151,0.12815 -0.0022,-0.12696 -0.156861,-0.10402 -0.343627,0.051 -0.453459,0.37634 -2.538321,0.4452 -3.364591,0.11114 -0.363802,-0.14709 -0.882955,-0.51335 -1.153674,-0.81391 -0.561315,-0.6232 -3.998207,-2.341 -5.074094,-2.53609 -0.888899,-0.16119 -1.184354,-0.41775 -0.481081,-0.41775 0.558025,0 3.654011,1.14813 4.158237,1.54205 0.16591,0.12962 0.877509,0.45111 1.581333,0.71442 1.085957,0.40628 1.314596,0.42226 1.510336,0.10554 0.168501,-0.27264 0.30951,-0.29436 0.523268,-0.0806 0.213757,0.21376 0.181076,0.40414 -0.121274,0.70649 -0.657023,0.65703 -0.495939,0.79434 0.765108,0.6522 1.59166,-0.1794 3.467746,-1.20376 6.612146,-3.61029 2.859614,-2.18857 3.63197,-2.88986 4.291899,-3.89704 0.563397,-0.85986 0.210897,-1.21081 -1.281407,-1.2758 -1.013391,-0.0441 -4.648862,-1.02079 -6.618242,-1.77798 -0.636943,-0.24489 -0.683505,-0.34689 -0.444867,-0.97456 0.146595,-0.38557 0.570165,-1.09912 0.941268,-1.58566 0.60682,-0.79558 0.771432,-0.86839 1.635492,-0.72334 0.687547,0.11542 0.840668,0.0872 0.538452,-0.0991 -0.232269,-0.14321 -0.906786,-0.33786 -1.498927,-0.43255 -0.996207,-0.1593 -1.106243,-0.11487 -1.473238,0.59482 -0.218141,0.42184 -0.478097,1.20129 -0.577681,1.73212 -0.133838,0.71342 -0.444375,1.14761 -1.190664,1.66479 -0.555282,0.38481 -1.228152,0.94598 -1.495268,1.24703 -0.477243,0.53789 -0.475598,0.5421 0.09491,0.24287 0.319317,-0.16748 0.653766,-0.42293 0.743219,-0.56766 0.08945,-0.14474 0.668087,-0.26317 1.285852,-0.26317 1.295184,0 2.997061,0.95911 4.985788,2.80978 1.364101,1.2694 1.651065,1.37325 2.012095,0.72812 0.171901,-0.30717 0.296142,-0.34182 0.4328,-0.1207 0.239731,0.38789 -0.310074,1.08072 -0.857624,1.08072 -0.225384,0 -0.634185,-0.20307 -0.908445,-0.45127 -0.394487,-0.35701 -0.599433,-0.38834 -0.981079,-0.15 -0.382472,0.23886 -0.969508,0.14464 -2.833348,-0.45474 -1.293008,-0.41581 -2.876001,-1.05426 -3.517762,-1.41879 l -1.166839,-0.66278 -1.010058,0.5766 c -0.555532,0.31714 -1.010975,0.65052 -1.012096,0.74087 -0.0011,0.0903 0.713809,0.24525 1.588733,0.34424 1.46078,0.16526 1.75781,0.3194 3.634921,1.88625 2.063172,1.72217 2.711808,2.03536 2.711808,1.30941 0,-0.50416 0.426255,-0.51752 0.617424,-0.0193 0.194212,0.50611 -0.490831,1.04021 -1.122361,0.87506 -0.344529,-0.0901 -0.549656,0.0274 -0.638097,0.36565 -0.146902,0.56175 -1.211092,0.6843 -1.699663,0.19573 -0.227206,-0.22721 -0.267177,-0.16687 -0.160273,0.24193 0.09937,0.37998 -0.03075,0.6373 -0.430399,0.85119 -0.492428,0.26354 -0.765464,0.17388 -1.945454,-0.63881 -0.754949,-0.51995 -1.508074,-0.94536 -1.673611,-0.94536 -0.165537,0 -1.209806,-0.43161 -2.320599,-0.95912 -1.110792,-0.52751 -2.293128,-0.95911 -2.627413,-0.95911 -0.613361,0 -4.139137,2.06475 -4.139137,2.42395 0,0.10653 -0.625078,0.47227 -1.389062,0.81276 -5.941839,2.64809 -6.680481,3.18343 -6.98042,5.05915 -0.08851,0.5535 -0.370546,1.19607 -0.626749,1.42793 -0.386183,0.34949 -0.442645,0.72476 -0.330249,2.19498 0.07457,0.97538 0.242978,1.98138 0.374249,2.23557 0.468318,0.90683 4.038986,2.21803 6.249561,2.29493 0.524398,0.0182 0.567045,-0.0492 0.32142,-0.50813 z m 14.290792,-13.88712 c -0.75584,-0.80455 -0.665599,-0.81664 0.944435,-0.1265 0.871422,0.37354 1.340647,0.454 1.53195,0.26269 0.436931,-0.43693 -0.274154,-0.90565 -2.611969,-1.72173 -1.164167,-0.40639 -2.728026,-1.08077 -3.475244,-1.49863 l -1.358577,-0.75974 -1.119476,0.63587 c -1.209762,0.68716 -1.17246,0.73387 0.85984,1.07671 0.592429,0.0999 1.658088,0.6764 2.645833,1.43124 2.142119,1.63701 2.651605,1.91406 2.960057,1.60965 0.153398,-0.15138 0.0098,-0.498 -0.376849,-0.90956 z"
         id="path168" /><path
         style="fill:#55592c"
         d="m 57.149999,147.94805 c -3.334415,-1.00282 -3.689073,-1.39709 -4.001712,-4.44862 -0.145196,-1.41719 -0.102184,-1.82006 0.219418,-2.05523 0.220008,-0.16087 0.596703,-0.96908 0.837099,-1.79601 0.522259,-1.79651 0.898753,-2.10403 4.827777,-3.94335 1.548173,-0.72476 3.543872,-1.83471 4.434889,-2.46655 0.891016,-0.63185 2.334404,-1.51043 3.207529,-1.95241 4.131122,-2.09118 9.377401,-6.03573 9.39518,-7.064 0.005,-0.29105 0.238839,-1.03519 0.51957,-1.65365 0.470956,-1.03754 0.588132,-1.12417 1.515543,-1.1205 0.552818,0.002 1.481373,0.17556 2.063457,0.38527 0.582083,0.2097 1.616129,0.3865 2.29788,0.39289 0.68175,0.006 1.544953,0.12773 1.918229,0.26965 0.573361,0.21799 0.678682,0.42328 0.678682,1.32291 0,1.16495 0.557699,1.47116 1.039565,0.57079 0.21883,-0.40889 0.546734,-0.48662 1.901378,-0.45074 l 1.636944,0.0434 0.345213,1.31063 c 0.189867,0.72085 0.350468,2.03317 0.35689,2.91626 0.0064,0.88309 0.180251,2.19278 0.386287,2.91042 0.453913,1.58101 0.710895,3.14157 0.866967,5.2648 0.19023,2.58791 0.162603,2.79855 -0.452996,3.45383 -0.573079,0.61001 -4.356096,2.21065 -7.715614,3.26456 -0.919559,0.28848 -3.576925,1.25342 -5.905259,2.14431 -6.858348,2.62422 -8.432848,2.97037 -14.022916,3.08292 -4.019081,0.0809 -5.010306,0.0214 -6.35,-0.38154 z m 10.752543,-0.18872 c 3.007742,-0.55386 8.505097,-2.36029 12.795373,-4.20457 0.436563,-0.18767 1.508125,-0.54483 2.38125,-0.79369 3.286989,-0.93689 6.994143,-2.56723 7.673597,-3.37471 0.684294,-0.81324 0.855847,-1.65124 0.396195,-1.93532 -0.145521,-0.0899 -0.264584,-0.0404 -0.264584,0.11007 0,0.29578 -1.607704,1.07805 -3.307291,1.60924 -0.582084,0.18193 -1.653646,0.59696 -2.38125,0.92228 -4.050905,1.81126 -11.067902,3.84829 -15.587737,4.52512 -2.699588,0.40426 -4.388682,0.38977 -6.949664,-0.0596 -0.952858,-0.16719 -1.382112,-0.86673 -0.749194,-1.22093 0.228297,-0.12776 1.036801,-0.81638 1.796674,-1.53025 1.345207,-1.26378 1.426875,-1.29901 3.10138,-1.33785 l 1.719791,-0.0399 -1.455208,-0.20573 c -0.800364,-0.11316 -2.050521,-0.27448 -2.778125,-0.35849 -3.004213,-0.34688 -7.011458,-1.34355 -7.011458,-1.74386 0,-0.19563 2.796418,-1.92984 4.437332,-2.75184 0.542644,-0.27183 1.070367,-0.62705 1.172717,-0.78938 0.420049,-0.66622 6.373276,1.39842 8.325289,2.88729 0.807193,0.61568 0.962379,0.644 2.002642,0.36547 0.620204,-0.16605 1.425301,-0.45418 1.789103,-0.64027 0.363802,-0.1861 0.984817,-0.48987 1.380032,-0.67505 0.395216,-0.18518 0.648224,-0.45052 0.56224,-0.58965 -0.08961,-0.14498 -0.253421,-0.0997 -0.383794,0.10602 -0.125102,0.19744 -0.229282,0.2551 -0.23151,0.12815 -0.0022,-0.12696 -0.156861,-0.10402 -0.343627,0.051 -0.453459,0.37634 -2.538321,0.4452 -3.364591,0.11114 -0.363802,-0.14709 -0.882955,-0.51335 -1.153674,-0.81391 -0.561315,-0.6232 -3.998207,-2.341 -5.074094,-2.53609 -0.888899,-0.16119 -1.184354,-0.41775 -0.481081,-0.41775 0.558025,0 3.654011,1.14813 4.158237,1.54205 0.16591,0.12962 0.877509,0.45111 1.581333,0.71442 1.085957,0.40628 1.314596,0.42226 1.510336,0.10554 0.168501,-0.27264 0.30951,-0.29436 0.523268,-0.0806 0.213757,0.21376 0.181076,0.40414 -0.121274,0.70649 -0.657023,0.65703 -0.495939,0.79434 0.765108,0.6522 1.59166,-0.1794 3.467746,-1.20376 6.612146,-3.61029 2.859614,-2.18857 3.63197,-2.88986 4.291899,-3.89704 0.563397,-0.85986 0.210897,-1.21081 -1.281407,-1.2758 -1.013391,-0.0441 -4.648862,-1.02079 -6.618242,-1.77798 -0.636943,-0.24489 -0.683505,-0.34689 -0.444867,-0.97456 0.146595,-0.38557 0.570165,-1.09912 0.941268,-1.58566 0.60682,-0.79558 0.771432,-0.86839 1.635492,-0.72334 0.687547,0.11542 0.840668,0.0872 0.538452,-0.0991 -0.232269,-0.14321 -0.906786,-0.33786 -1.498927,-0.43255 -0.996207,-0.1593 -1.106243,-0.11487 -1.473238,0.59482 -0.218141,0.42184 -0.478097,1.20129 -0.577681,1.73212 -0.133838,0.71342 -0.444375,1.14761 -1.190664,1.66479 -0.555282,0.38481 -1.228152,0.94598 -1.495268,1.24703 -0.477243,0.53789 -0.475598,0.5421 0.09491,0.24287 0.319317,-0.16748 0.653766,-0.42293 0.743219,-0.56766 0.08945,-0.14474 0.668087,-0.26317 1.285852,-0.26317 1.295184,0 2.997061,0.95911 4.985788,2.80978 1.364101,1.2694 1.651065,1.37325 2.012095,0.72812 0.171901,-0.30717 0.296142,-0.34182 0.4328,-0.1207 0.239731,0.38789 -0.310074,1.08072 -0.857624,1.08072 -0.225384,0 -0.634185,-0.20307 -0.908445,-0.45127 -0.394487,-0.35701 -0.599433,-0.38834 -0.981079,-0.15 -0.382472,0.23886 -0.969508,0.14464 -2.833348,-0.45474 -1.293008,-0.41581 -2.876001,-1.05426 -3.517762,-1.41879 l -1.166839,-0.66278 -1.010058,0.5766 c -0.555532,0.31714 -1.010975,0.65052 -1.012096,0.74087 -0.0011,0.0903 0.713809,0.24525 1.588733,0.34424 1.46078,0.16526 1.75781,0.3194 3.634921,1.88625 2.063172,1.72217 2.711808,2.03536 2.711808,1.30941 0,-0.50416 0.426255,-0.51752 0.617424,-0.0193 0.194212,0.50611 -0.490831,1.04021 -1.122361,0.87506 -0.344529,-0.0901 -0.549656,0.0274 -0.638097,0.36565 -0.146902,0.56175 -1.211092,0.6843 -1.699663,0.19573 -0.227206,-0.22721 -0.267177,-0.16687 -0.160273,0.24193 0.09937,0.37998 -0.03075,0.6373 -0.430399,0.85119 -0.492428,0.26354 -0.765464,0.17388 -1.945454,-0.63881 -0.754949,-0.51995 -1.508074,-0.94536 -1.673611,-0.94536 -0.165537,0 -1.209806,-0.43161 -2.320599,-0.95912 -1.110792,-0.52751 -2.293128,-0.95911 -2.627413,-0.95911 -0.613361,0 -4.139137,2.06475 -4.139137,2.42395 0,0.10653 -0.625078,0.47227 -1.389062,0.81276 -5.941839,2.64809 -6.680481,3.18343 -6.98042,5.05915 -0.08851,0.5535 -0.370546,1.19607 -0.626749,1.42793 -0.386183,0.34949 -0.442645,0.72476 -0.330249,2.19498 0.07457,0.97538 0.242978,1.98138 0.374249,2.23557 0.308881,0.5981 2.113509,1.51694 3.792856,1.93115 1.920926,0.4738 7.595984,0.4613 10.223376,-0.0225 z m 6.845541,-14.00895 c -0.75584,-0.80455 -0.665599,-0.81664 0.944435,-0.1265 0.871422,0.37354 1.340647,0.454 1.53195,0.26269 0.436931,-0.43693 -0.274154,-0.90565 -2.611969,-1.72173 -1.164167,-0.40639 -2.728026,-1.08077 -3.475244,-1.49863 l -1.358577,-0.75974 -1.119476,0.63587 c -1.209762,0.68716 -1.17246,0.73387 0.85984,1.07671 0.592429,0.0999 1.658088,0.6764 2.645833,1.43124 2.142119,1.63701 2.651605,1.91406 2.960057,1.60965 0.153398,-0.15138 0.0098,-0.498 -0.376849,-0.90956 z"
         id="path167" /><path
         style="fill:#1a231c"
         d="m 79.771874,141.54359 c 0,-0.1502 0.178593,-0.70052 0.396875,-1.22294 0.218281,-0.52242 0.392203,-1.14367 0.386494,-1.38056 -0.0057,-0.23689 -0.84286,-1.07624 -1.860334,-1.86521 -1.296054,-1.00499 -1.748457,-1.4983 -1.510973,-1.6476 0.186439,-0.11721 0.577104,-0.1485 0.868146,-0.0695 0.3345,0.0908 0.411383,0.0609 0.208992,-0.0813 -0.235369,-0.1653 -0.182808,-0.31065 0.198437,-0.54874 0.285237,-0.17813 0.519227,-0.23357 0.519979,-0.1232 7.51e-4,0.11037 0.659601,0.6174 1.46411,1.12672 1.076402,0.68146 1.43095,1.05233 1.342367,1.40419 -0.09359,0.37174 -0.04247,0.41348 0.229722,0.18758 0.192555,-0.15981 0.422526,-0.57913 0.511047,-0.93182 0.08852,-0.3527 0.308563,-0.60546 0.48898,-0.56168 0.180418,0.0438 0.239687,0.03 0.131709,-0.0307 -0.265598,-0.14919 0.216102,-1.03236 1.284077,-2.3543 0.951228,-1.17742 2.392835,-2.11739 4.402351,-2.87046 1.26555,-0.47426 1.536017,-0.77147 0.926041,-1.0176 -0.264583,-0.10676 -0.264583,-0.13763 0,-0.15434 0.20234,-0.0128 0.34689,-0.45741 0.372359,-1.14537 0.03395,-0.91694 0.07585,-0.80707 0.227038,0.59531 0.101975,0.94589 0.376076,2.55323 0.609115,3.57188 0.233039,1.01865 0.491178,2.93126 0.573643,4.25026 0.139361,2.22903 0.10746,2.44719 -0.452307,3.09313 -0.588098,0.67863 -2.004926,1.39629 -2.257659,1.14356 -0.06975,-0.0697 0.171841,-0.20178 0.536869,-0.2934 0.365027,-0.0916 0.98085,-0.49762 1.368494,-0.90223 0.678346,-0.70804 0.697933,-0.81155 0.521665,-2.75672 -0.100729,-1.11158 -0.228056,-2.02106 -0.282948,-2.02106 -0.05489,0 -0.743076,0.36304 -1.529295,0.80676 -1.359334,0.76716 -2.78122,2.12386 -4.021812,3.83744 -0.310488,0.42887 -0.633946,0.71427 -0.718793,0.63423 -0.228503,-0.21556 1.446653,-2.47417 2.632557,-3.54948 0.567607,-0.51467 1.592678,-1.20353 2.277937,-1.53079 1.175398,-0.56135 1.24631,-0.65494 1.25272,-1.65337 0.01096,-1.70806 -0.19533,-1.80777 -1.98134,-0.95766 -1.815692,0.86424 -5.412097,4.50152 -5.412097,5.47361 0,0.48398 -1.319542,2.86261 -1.788024,3.22312 -0.514978,0.39629 -0.954312,0.43634 -0.725517,0.0661 0.08994,-0.14552 0.03743,-0.26458 -0.116677,-0.26458 -0.154109,0 -0.280198,0.17859 -0.280198,0.39687 0,0.21828 -0.178594,0.39688 -0.396875,0.39688 -0.218282,0 -0.396875,-0.12289 -0.396875,-0.27308 z m -15.08125,-1.75413 c -2.617323,-0.25562 -7.14375,-1.32099 -7.14375,-1.68139 0,-0.27067 1.356459,-1.1421 1.777784,-1.1421 0.186386,0 0.338883,-0.095 0.338883,-0.21117 0,-0.11615 0.252493,-0.34631 0.561096,-0.51147 0.312186,-0.16708 0.488919,-0.1835 0.398395,-0.037 -0.08949,0.14479 0.02299,0.33451 0.249955,0.4216 0.310915,0.11931 0.373544,0.0351 0.254018,-0.34147 -0.123467,-0.38901 0.09963,-0.64418 1.00628,-1.15091 l 1.164919,-0.65109 1.952981,0.49466 c 2.082504,0.52747 5.27076,1.97028 6.25246,2.82949 0.327422,0.28657 0.595312,0.75997 0.595312,1.05201 0,0.42365 -0.270047,0.58889 -1.335939,0.81749 -1.251294,0.26835 -3.956967,0.31798 -6.072394,0.11138 z M 85.480578,127.6186 c -0.106715,-0.2781 -0.533002,-0.37145 -1.539087,-0.33704 -1.43493,0.0491 -4.235991,-0.83954 -3.696795,-1.17278 0.256533,-0.15854 1.198601,-2.58743 1.244965,-3.20982 0.01084,-0.14552 -0.103337,-0.36361 -0.253727,-0.48464 -0.150389,-0.12103 0.55143,-0.15329 1.559599,-0.0717 1.986447,0.16077 2.257694,0.36028 2.263956,1.6652 0.0039,0.81386 0.53851,1.5211 0.725582,0.95988 0.311061,-0.93318 0.733999,-1.10378 2.292721,-0.92482 l 1.559043,0.179 0.331272,1.12448 c 0.1822,0.61846 0.224771,1.12447 0.0946,1.12447 -0.130169,0 -0.23667,-0.23109 -0.23667,-0.51355 0,-0.73779 -0.389302,-0.87329 -0.89706,-0.31222 -0.269502,0.2978 -0.367813,0.66917 -0.254981,0.96321 0.125583,0.32726 0.08674,0.41865 -0.122882,0.2891 -0.199901,-0.12354 -0.252007,-0.0474 -0.149803,0.21895 0.176907,0.46101 -0.08231,0.57929 -1.666395,0.76038 -0.811205,0.0927 -1.146158,0.0238 -1.254341,-0.2581 z"
         id="path166" /></g></g></svg>
