<?xml version="1.0" encoding="UTF-8" standalone="no"?>
<!-- Created with Inkscape (http://www.inkscape.org/) -->

<svg
   width="53.724644mm"
   height="65.616852mm"
   viewBox="0 0 53.724644 65.616852"
   version="1.1"
   id="svg1"
   inkscape:export-filename="the-panther.svg"
   inkscape:export-xdpi="96"
   inkscape:export-ydpi="96"
   xml:space="preserve"
   xmlns:inkscape="http://www.inkscape.org/namespaces/inkscape"
   xmlns:sodipodi="http://sodipodi.sourceforge.net/DTD/sodipodi-0.dtd"
   xmlns="http://www.w3.org/2000/svg"
   xmlns:svg="http://www.w3.org/2000/svg"><sodipodi:namedview
     id="namedview1"
     pagecolor="#ffffff"
     bordercolor="#000000"
     borderopacity="0.25"
     inkscape:showpageshadow="2"
     inkscape:pageopacity="0.0"
     inkscape:pagecheckerboard="0"
     inkscape:deskcolor="#d1d1d1"
     inkscape:document-units="mm"><inkscape:page
       x="-4.4822158e-22"
       y="0"
       width="53.724644"
       height="65.616852"
       id="page2"
       margin="0"
       bleed="0" /></sodipodi:namedview><defs
     id="defs1" /><g
     inkscape:label="Calque 1"
     inkscape:groupmode="layer"
     id="layer1"
     transform="translate(-111.92266,-128.17657)"><g
       id="g372"
       transform="translate(-13.607934,26.576568)"><path
         style="fill:#d5e8f4"
         d="M 125.54479,134.40833 V 101.6 H 152.4 179.25521 v 32.80833 32.80834 H 152.4 125.54479 Z"
         id="path379" /><path
         style="fill:#c5dae9"
         d="m 135.46667,167.0247 c 0.6868,-0.16948 4.91385,-1.81931 6.61458,-2.58169 0.7276,-0.32617 1.59081,-0.67698 1.91823,-0.7796 0.32742,-0.10261 0.59531,-0.29761 0.59531,-0.43332 0,-0.13572 0.1675,-0.24676 0.37221,-0.24676 0.61981,0 3.86112,-1.54548 3.86112,-1.84101 0,-0.15161 0.21474,-0.27565 0.47719,-0.27565 0.60026,0 5.56709,-2.92228 6.24455,-3.67403 0.44499,-0.4938 0.45274,-0.55931 0.0661,-0.55931 -0.24084,0 -0.43789,-0.18341 -0.43789,-0.40759 0,-0.22417 -0.23812,-0.75995 -0.52916,-1.19062 -0.29104,-0.43067 -0.76729,-1.1354 -1.05834,-1.56607 -0.29104,-0.43067 -0.52916,-0.9694 -0.52916,-1.19718 0,-0.22777 -0.30085,-0.52852 -0.66856,-0.66832 -0.91944,-0.34957 -1.2515,-1.2994 -0.6912,-1.97712 0.40386,-0.48849 0.40315,-0.501 -0.0103,-0.18181 -0.6442,0.49735 -2.17914,-0.30103 -1.98753,-1.03378 0.0733,-0.28022 0.0253,-0.44276 -0.10667,-0.36122 -0.13195,0.0815 -0.23991,-0.0332 -0.23991,-0.2549 0,-0.57462 -0.89526,-1.00821 -1.28238,-0.62109 -0.23044,0.23044 -0.30512,0.13566 -0.30512,-0.38721 0,-0.38078 -0.13957,-0.73885 -0.31016,-0.79571 -0.17485,-0.0583 -0.36272,-0.83002 -0.43064,-1.76897 -0.0771,-1.06537 -0.20219,-1.53663 -0.34724,-1.30773 -0.15804,0.2494 -0.228,0.13733 -0.23082,-0.36974 -0.005,-0.96975 -0.93112,-1.02204 -1.17104,-0.0662 -0.0913,0.36381 -0.28281,0.66146 -0.42556,0.66146 -0.14274,0 -0.25954,0.1786 -0.25954,0.39688 0,0.21828 -0.11906,0.39687 -0.26458,0.39687 -0.14552,0 -0.26459,0.17456 -0.26459,0.3879 0,1.20119 -1.25028,2.69725 -2.06046,2.46551 -0.40069,-0.11461 -1.30289,1.03545 -2.04819,2.61088 -0.36814,0.77818 -0.81469,1.42081 -0.99233,1.42806 -0.65954,0.0269 -3.50819,0.0357 -3.79073,0.0117 -0.16102,-0.0137 -0.28008,-0.37035 -0.26458,-0.79261 0.0155,-0.42226 0.11747,-0.71289 0.22661,-0.64584 0.10914,0.067 0.19844,-0.0491 0.19844,-0.2582 0,-0.45189 -0.69233,-1.08743 -0.85695,-0.78666 -0.0631,0.11522 -0.0851,0.0782 -0.049,-0.0823 0.0949,-0.42177 -6.35216,-6.77782 -6.62391,-6.53036 -0.12535,0.11414 -0.1506,0.0722 -0.0561,-0.0932 0.0945,-0.16541 -0.005,-0.44788 -0.22217,-0.62771 -0.21668,-0.17983 -0.39558,-0.75887 -0.39757,-1.28675 -0.005,-1.32302 -0.25893,-2.15042 -0.66002,-2.15042 -0.44873,0 -0.70957,1.12237 -0.54172,2.33095 0.10907,0.78531 0.0901,0.84692 -0.0969,0.31489 -0.12788,-0.36381 -0.24437,-9.2042 -0.25887,-19.64532 L 125.54479,101.6 H 152.4 179.25521 v 32.80833 32.80834 h -7.25727 -7.25726 l -0.15889,-2.4474 c -0.65115,-10.03012 -0.49138,-11.42521 1.38405,-12.08514 1.17444,-0.41327 3.18896,-1.87918 4.7916,-3.4867 5.07903,-5.09451 7.47434,-14.25581 5.69996,-21.80056 -0.83705,-3.55914 -1.61637,-5.29015 -3.57356,-7.9375 -3.50258,-4.73767 -9.07852,-6.86414 -14.57873,-5.55982 -1.85701,0.44037 -4.7665,1.91904 -5.95543,3.0267 -0.42223,0.39337 -0.62172,0.43813 -0.88181,0.19783 -0.26132,-0.24143 -0.2908,-0.23083 -0.13244,0.0476 0.13766,0.24209 -0.019,0.21224 -0.48348,-0.0921 -0.37794,-0.24764 -1.05607,-1.06366 -1.50694,-1.81338 -0.67365,-1.12014 -0.78972,-1.22164 -0.65114,-0.56939 0.0928,0.43657 0.45857,1.41146 0.81291,2.16643 0.35434,0.75497 0.64426,1.48919 0.64426,1.6316 0,0.1424 0.14883,0.31897 0.33073,0.39237 0.20114,0.0812 0.15296,0.14164 -0.12298,0.15434 -0.24954,0.0115 -0.59479,0.28878 -0.76722,0.6162 -0.17242,0.32742 -0.4445,0.68279 -0.60462,0.7897 -0.38648,0.25806 -1.67876,0.25682 -1.79042,-0.002 -0.0485,-0.11231 -0.67959,-0.38489 -1.40239,-0.60572 -1.15631,-0.35326 -1.33568,-0.50651 -1.49296,-1.27551 -0.25282,-1.23619 -0.52006,-1.41024 -2.38333,-1.55228 -1.37939,-0.10516 -1.70989,-0.0472 -2.0012,0.35124 -0.54455,0.74472 -0.4088,1.48919 0.44903,2.46244 0.43424,0.49266 0.78953,0.93636 0.78953,0.98601 0,0.25429 -2.13704,1.07745 -2.26398,0.87206 -0.30598,-0.49509 -0.70361,-0.21664 -0.58401,0.40899 l 0.12411,0.64926 -0.73703,-0.58312 c -0.40537,-0.32072 -0.71523,-0.76171 -0.68858,-0.97999 0.027,-0.22147 -0.19523,-0.4317 -0.5029,-0.47567 -0.47765,-0.0683 -0.53927,0.0378 -0.46101,0.79375 0.0731,0.70597 0.043,0.77152 -0.15767,0.34337 -0.13639,-0.29104 -0.25636,-0.39007 -0.26659,-0.22007 -0.0411,0.68401 0.33614,1.14612 0.93576,1.14612 0.58325,0 0.63315,0.10409 0.63315,1.32067 0,1.03413 0.11481,1.39238 0.52917,1.65115 0.59085,0.36899 0.72023,1.26151 0.18286,1.26151 -0.19047,0 -0.57742,0.18042 -0.8599,0.40093 -0.48785,0.38084 -0.47712,0.39266 0.21401,0.2359 0.48905,-0.11092 0.72761,-0.0583 0.72761,0.16063 0,0.24939 0.0975,0.24472 0.41641,-0.0199 0.54785,-0.45468 3.0746,-0.38666 5.0962,0.13719 0.86638,0.2245 1.82593,0.40819 2.13235,0.40819 0.45299,0 0.55636,0.16072 0.55307,0.85989 -0.005,1.13591 -0.34576,1.62998 -1.00438,1.45774 -0.37632,-0.0984 -0.57298,0.0118 -0.66772,0.37406 -0.0969,0.37071 -0.0481,0.44202 0.17561,0.2564 0.22953,-0.19045 0.30992,0.0736 0.30992,1.0179 0,0.70128 0.0893,1.21988 0.19843,1.15245 0.10914,-0.0674 0.19844,-0.58479 0.19844,-1.14969 0,-0.56491 0.09,-1.08274 0.20005,-1.15075 0.11003,-0.068 0.23839,0.96677 0.28524,2.29949 0.0469,1.33272 0.31516,3.41491 0.59624,4.62709 0.28108,1.21219 0.44335,2.31351 0.36061,2.4474 -0.0828,0.13389 -0.0266,0.24343 0.12471,0.24343 0.15133,0 0.35253,0.32742 0.44711,0.72761 0.46712,1.97652 2.18738,4.97145 4.0219,7.00205 0.79806,0.88335 0.86319,1.05876 0.54421,1.46554 -0.32508,0.41456 -0.31656,0.42626 0.0828,0.11378 0.38572,-0.30179 0.63773,-0.19147 1.88703,0.8261 0.79302,0.64593 1.99829,1.38691 2.67838,1.64664 1.79059,0.68384 2.07029,1.38176 2.11591,5.27987 0.0205,1.74847 -0.10076,3.71482 -0.26938,4.36966 -0.16863,0.65485 -0.32695,2.01915 -0.35183,3.03178 -0.0249,1.01264 -0.085,1.8809 -0.13353,1.92946 -0.0486,0.0486 -1.08537,0.0535 -2.30399,0.0109 l -2.21568,-0.0774 1.05834,-0.69778 c 0.58208,-0.38378 1.53458,-1.12704 2.11666,-1.6517 1.25094,-1.12754 0.54,-0.82986 -1.8298,0.76616 -0.86087,0.57978 -1.81337,1.20122 -2.11667,1.38098 -0.40988,0.24293 -2.75884,0.31995 -9.1504,0.30003 -4.72943,-0.0147 -8.36083,-0.0856 -8.06979,-0.15737 z m 23.53655,-2.25543 c 0.67278,-10.38922 0.50474,-11.65655 -1.66958,-12.59192 -6.07415,-2.61302 -10.61324,-10.79161 -10.61977,-19.1348 -0.005,-6.34497 1.75703,-11.2078 5.32836,-14.70549 1.96533,-1.92479 3.03435,-2.59498 5.41282,-3.3934 8.68162,-2.91433 16.99847,3.40542 18.6518,14.17301 0.40132,2.61362 0.14787,7.24506 -0.54296,9.92187 -0.73367,2.84283 -2.88677,7.09719 -4.51819,8.92761 -1.52146,1.70704 -3.40447,3.15466 -5.281,4.05993 -1.97606,0.95328 -2.22274,1.60262 -2.33862,6.15613 -0.0643,2.52426 5.8e-4,3.89508 0.19332,4.08781 0.16631,0.16631 0.28997,1.28294 0.28997,2.61831 v 2.32834 h -2.53231 -2.53232 z m -5.32243,-16.13958 c -2.57241,-2.66534 -4.90338,-6.78501 -5.40411,-9.55101 -0.13572,-0.74968 -0.33505,-1.72024 -0.44297,-2.15681 -0.10792,-0.43656 -0.17371,-2.46062 -0.1462,-4.49791 0.045,-3.33331 0.13038,-3.94942 0.85281,-6.15377 1.19973,-3.66069 2.0651,-5.21593 4.0112,-7.20891 1.68531,-1.72592 2.81777,-2.49392 5.14015,-3.48591 0.58208,-0.24863 0.87974,-0.45754 0.66145,-0.46425 -0.62494,-0.0192 -2.94349,1.14011 -4.46217,2.23117 -2.6147,1.87847 -5.00466,5.55601 -6.01844,9.26083 -0.57186,2.08988 -0.79764,8.3573 -0.37958,10.53681 0.98221,5.12062 3.09235,9.17566 6.25434,12.01892 0.84962,0.76399 1.59879,1.38907 1.66482,1.38907 0.066,0 -0.71306,-0.86321 -1.7313,-1.91823 z m 7.84733,-14.61823 c 0,-0.37455 0.15289,-0.66146 0.35249,-0.66146 0.40516,0 1.06594,-1.89007 0.73623,-2.10586 -0.12025,-0.0787 -0.30074,-0.58958 -0.40108,-1.13529 -0.10035,-0.5457 -0.29611,-0.99218 -0.43504,-0.99218 -0.13893,0 -0.2526,-0.47625 -0.2526,-1.05834 0,-0.67451 -0.12085,-1.05833 -0.33323,-1.05833 -0.18327,0 -0.48194,-0.23813 -0.6637,-0.52917 -0.18175,-0.29104 -0.50805,-0.52916 -0.7251,-0.52916 -0.21705,0 -0.39463,-0.11907 -0.39463,-0.26459 0,-0.39839 -0.7028,-0.31774 -1.15283,0.13229 -0.21828,0.21829 -0.52444,0.39688 -0.68036,0.39688 -0.16722,0 -0.28348,0.59678 -0.28348,1.45521 0,1.1364 0.0896,1.45521 0.40907,1.45521 0.31491,0 0.39547,0.26256 0.35002,1.1407 -0.0337,0.65103 0.15982,1.67276 0.45083,2.38016 0.42398,1.03067 0.68816,1.30298 1.56821,1.61654 1.43772,0.51224 1.4552,0.50933 1.4552,-0.24261 z"
         id="path378" /><path
         style="fill:#b6d0e0"
         d="m 154.45587,166.54525 c 0.52732,-0.35833 1.04987,-0.6515 1.16122,-0.6515 0.11136,0 0.71299,-0.50104 1.33696,-1.11342 l 1.13449,-1.11342 v 1.74587 1.74587 l -2.29572,0.019 -2.29572,0.0191 z m 4.54125,-1.64369 c 0.45846,-6.90487 0.46183,-9.91963 0.0124,-11.09641 -0.3919,-1.02618 -0.62941,-1.24302 -2.08365,-1.90241 -2.97811,-1.35034 -6.32388,-5.00179 -8.1077,-8.84845 -1.49095,-3.21511 -1.96915,-5.69679 -1.97193,-10.23346 -0.003,-4.76049 0.53,-7.28998 2.19843,-10.43521 4.74193,-8.93919 15.41485,-10.81967 22.0791,-3.89016 2.08476,2.16774 3.39219,4.47515 4.28416,7.56089 2.0658,7.14654 0.4769,15.73493 -3.95441,21.37445 -1.32492,1.68616 -4.51546,4.19644 -5.99421,4.71616 -1.56839,0.55123 -1.90513,1.55396 -2.02679,6.03525 -0.0688,2.53229 -0.006,3.89446 0.18687,4.08781 0.16631,0.16631 0.28997,1.28294 0.28997,2.61831 v 2.32834 h -2.53298 -2.53298 z m -2.72391,-14.0347 c -5.7328,-4.14089 -9.11023,-11.53534 -8.63579,-18.90698 0.26537,-4.12316 1.48138,-8.27559 3.15706,-10.78071 1.2888,-1.92676 3.49864,-3.84617 5.80316,-5.04049 1.1838,-0.6135 1.80006,-1.03155 1.36946,-0.92899 -1.76622,0.42069 -3.78314,1.67182 -5.57124,3.45593 -2.93623,2.92968 -4.51739,6.46665 -5.15486,11.53113 -0.77957,6.19341 1.35791,13.44557 5.23457,17.7601 0.94444,1.05113 3.90284,3.3974 4.25302,3.37303 0.0931,-0.006 -0.11179,-0.21484 -0.45538,-0.46302 z m 10.54658,-7.07443 c 0,0.11313 0.17859,0.0575 0.39688,-0.12368 0.21828,-0.18116 0.40172,-0.2255 0.40766,-0.0985 0.0192,0.41174 1.55479,-2.92936 1.56592,-3.40719 0.006,-0.25466 0.12427,-0.46302 0.26296,-0.46302 0.38183,0 0.98446,-1.5307 1.30207,-3.30729 0.35506,-1.98608 0.70847,-5.16249 0.63291,-5.68854 -0.0314,-0.21829 -0.17641,-1.10589 -0.32236,-1.97245 -0.20141,-1.19593 -0.1871,-1.63044 0.0594,-1.80327 0.19733,-0.13835 0.0839,-0.15968 -0.28912,-0.0543 -0.4783,0.13506 -0.6453,0.0532 -0.75617,-0.37078 -0.0783,-0.29927 -0.36756,-0.61563 -0.64289,-0.70301 -0.27533,-0.0874 -0.50439,-0.35922 -0.50902,-0.60408 -0.0121,-0.64051 -0.6354,-1.37123 -1.16964,-1.37123 -0.25205,0 -0.761,-0.23813 -1.131,-0.52917 -0.37,-0.29104 -0.9444,-0.52916 -1.27645,-0.52916 -0.33205,0 -0.65267,-0.14683 -0.71249,-0.32629 -0.0856,-0.25691 -0.39757,-0.25226 -1.46715,0.0219 -0.74712,0.19148 -1.48068,0.27257 -1.63015,0.18019 -0.43515,-0.26893 -2.1297,0.66262 -2.1297,1.17077 0,0.39316 -0.16915,0.4314 -1.20957,0.27351 -1.46313,-0.22205 -1.90951,0.0812 -2.92489,1.98725 -0.58166,1.09186 -0.70021,1.64567 -0.67877,3.17087 0.0145,1.02856 0.14879,1.8889 0.30294,1.94028 0.15232,0.0508 0.27695,0.55865 0.27695,1.1286 0,0.70785 0.11646,1.03629 0.36743,1.03629 0.21148,0 0.44228,0.39896 0.54377,0.93995 0.097,0.51697 0.34383,1.00422 0.54854,1.08277 0.20471,0.0786 0.44429,0.36996 0.5324,0.64756 0.0881,0.27759 0.31663,0.50472 0.50783,0.50472 0.19121,0 0.66511,0.41622 1.05313,0.92493 0.52401,0.68701 0.97447,0.96795 1.75119,1.09215 0.78599,0.12569 1.04571,0.29025 1.04571,0.66257 0,0.35198 -0.19144,0.49535 -0.66145,0.49535 -0.55609,0 -0.66146,0.12435 -0.66146,0.7806 0,0.43279 -0.18429,0.88374 -0.4136,1.01206 -0.35103,0.19645 -0.3578,0.27776 -0.0448,0.53755 0.28718,0.23834 0.49341,0.19002 0.93169,-0.21831 0.30959,-0.28842 0.73355,-0.5244 0.94214,-0.5244 0.20859,0 0.45396,-0.29766 0.54527,-0.66146 0.24456,-0.9744 0.6851,-0.80427 0.6851,0.26458 0,0.50933 0.1318,0.92605 0.29289,0.92605 0.1649,0 0.2188,0.19309 0.12333,0.44186 -0.0933,0.24317 -0.0168,0.54062 0.17013,0.66146 0.27038,0.17479 0.26027,0.27065 -0.0495,0.46979 -0.21407,0.13761 -0.29689,0.34252 -0.18405,0.45536 0.11284,0.11284 0.31279,0.031 0.44434,-0.18184 0.19048,-0.30821 0.30606,-0.32012 0.5677,-0.0585 0.18068,0.18068 0.60236,0.32851 0.93706,0.32851 0.33469,0 0.60854,0.13752 0.60854,0.30559 0,0.1733 0.22908,0.0983 0.52916,-0.1733 0.29105,-0.26338 0.52917,-0.38632 0.52917,-0.27319 z m -2.23688,20.84455 c -0.61285,-10.10032 -0.49736,-11.10357 1.36746,-11.87858 4.63855,-1.92775 8.89595,-7.68681 10.36457,-14.02034 1.4232,-6.13763 0.73926,-12.38793 -1.86172,-17.01354 -2.34352,-4.16772 -5.63508,-6.84739 -9.6049,-7.81937 -1.99385,-0.48817 -5.09408,-0.56931 -6.3629,-0.16652 -2.80283,0.88976 -3.2911,1.0138 -3.16078,0.80294 0.08,-0.12953 -0.0599,-0.15667 -0.311,-0.0603 -0.35596,0.13659 -0.41728,0.0729 -0.27832,-0.28926 0.098,-0.25545 0.17822,-0.51424 0.17822,-0.5751 0,-0.0609 0.15784,-0.11065 0.35076,-0.11065 0.19291,0 0.63038,-0.29766 0.97216,-0.66146 l 0.62141,-0.66146 H 156.018 c -0.80347,0 -0.83988,-0.0459 -0.83988,-1.05833 v -1.05833 h -1.05833 c -0.76435,0 -1.05833,-0.11025 -1.05833,-0.39688 0,-0.21828 -0.11906,-0.39687 -0.26459,-0.39687 -0.14552,0 -0.26458,0.17859 -0.26458,0.39687 0,0.21828 0.11906,0.39688 0.26458,0.39688 0.14553,0 0.26459,0.17859 0.26459,0.39687 0,0.28663 -0.29398,0.39688 -1.05834,0.39688 -0.8669,0 -1.05833,-0.0918 -1.05833,-0.50753 0,-0.27914 -0.0664,-0.68067 -0.14764,-0.89229 -0.11139,-0.29026 0.0135,-0.35395 0.50846,-0.25933 0.527,0.10074 0.73924,-0.0353 1.0785,-0.69138 0.4568,-0.88334 1.58158,-1.34899 2.07255,-0.85802 0.48124,0.48123 1.06097,0.33481 1.97824,-0.49965 0.87515,-0.79614 1.09826,-1.31889 0.56291,-1.31889 -0.62362,0 0.30258,-0.71167 1.32479,-1.01793 0.56876,-0.1704 1.10221,-0.48733 1.18547,-0.70428 0.0832,-0.21695 0.44573,-0.39445 0.80551,-0.39445 0.35978,0 0.72885,-0.12087 0.82015,-0.2686 0.23947,-0.38748 1.93704,-1.05432 2.68397,-1.05432 0.3506,0 0.70598,-0.1786 0.78974,-0.39688 0.13025,-0.33941 1.20168,-0.39687 7.40003,-0.39687 h 7.24774 v 4.63021 c 0,3.93935 -0.0592,4.63021 -0.39688,4.63021 -0.21828,0 -0.39687,-0.1786 -0.39687,-0.39688 0,-0.28663 -0.29398,-0.39687 -1.05834,-0.39687 h -1.05833 v 1.05833 1.05833 h -1.05833 -1.05834 v 1.07395 c 0,0.64859 0.1048,1.00918 0.26459,0.91043 0.14552,-0.0899 0.26458,-0.0304 0.26458,0.13229 0,0.1627 0.13746,0.21086 0.30546,0.10703 0.17499,-0.10815 0.23416,-0.0734 0.13854,0.0813 -0.0918,0.14856 0.056,0.47189 0.32855,0.71851 0.38599,0.34932 0.52617,0.37175 0.63433,0.10151 0.0764,-0.1908 0.14824,-0.0195 0.15973,0.3807 0.0148,0.51661 -0.10954,0.72761 -0.4289,0.72761 -0.37042,0 -0.38793,0.0584 -0.0992,0.33072 0.28046,0.26459 0.37483,0.26459 0.47184,0 0.15722,-0.42877 0.60459,-0.42877 0.61222,0 0.003,0.18191 0.23871,0.62839 0.52328,0.99219 0.28457,0.3638 0.52005,0.86982 0.52329,1.12448 0.003,0.25466 0.12494,0.46302 0.27046,0.46302 0.14552,0 0.26459,0.29766 0.26459,0.66146 0,0.41157 0.14993,0.66146 0.39687,0.66146 0.34806,0 0.39688,1.82268 0.39688,14.81667 0,12.99398 -0.0488,14.81666 -0.39688,14.81666 -0.26206,0 -0.39687,0.26214 -0.39687,0.7717 0,0.42444 -0.14433,0.81982 -0.32074,0.87862 -0.20572,0.0686 -0.29343,0.55085 -0.2446,1.34496 0.0604,0.9827 -0.01,1.23806 -0.34072,1.23806 -0.30995,0 -0.41686,0.27143 -0.41686,1.05833 0,0.58208 0.11906,1.05833 0.26458,1.05833 0.14552,0 0.26459,0.47625 0.26459,1.05834 0,0.76435 0.11024,1.05833 0.39687,1.05833 0.28663,0 0.39688,-0.29398 0.39688,-1.05833 0,-0.76435 0.11024,-1.05834 0.39687,-1.05834 0.33955,0 0.39688,0.76436 0.39688,5.29167 v 5.29167 h -7.25789 -7.25788 z m 3.29521,-54.17344 c 0,-0.3197 -0.41157,-0.39687 -2.11666,-0.39687 -1.7051,0 -2.11667,0.0772 -2.11667,0.39687 0,0.31971 0.41157,0.39688 2.11667,0.39688 1.70509,0 2.11666,-0.0772 2.11666,-0.39688 z m -11.30064,51.90172 c -0.0239,-0.89699 -0.0509,-1.96372 -0.0599,-2.37052 -0.009,-0.41518 -0.30124,-1.02436 -0.66562,-1.38874 l -0.64911,-0.64912 0.65211,-0.70364 c 0.6043,-0.65205 0.6228,-0.74839 0.25224,-1.31392 -0.21993,-0.33566 -0.39987,-0.79307 -0.39987,-1.01647 0,-0.2234 -0.11906,-0.40618 -0.26458,-0.40618 -0.14552,0 -0.26459,-0.22539 -0.26459,-0.50086 0,-0.27548 -0.17859,-0.56939 -0.39687,-0.65316 -0.21828,-0.0838 -0.39688,-0.40118 -0.39688,-0.70538 0,-0.30419 -0.10658,-0.48721 -0.23685,-0.4067 -0.13028,0.0805 -0.30751,-0.0377 -0.39385,-0.26271 -0.0899,-0.23426 -0.0452,-0.34001 0.10457,-0.24745 0.14385,0.0889 0.26155,0.0356 0.26155,-0.11855 0,-0.1541 -0.23072,-0.28019 -0.51272,-0.28019 -0.33478,0 -0.5,-0.16898 -0.47605,-0.48688 0.0319,-0.42418 0.17653,-0.38012 1.12281,0.3422 0.59738,0.45599 1.69222,1.0898 2.43299,1.40847 1.74827,0.75208 1.93089,1.29568 1.93089,5.74767 0,3.18454 -0.29994,5.22016 -0.75079,5.09543 -0.0964,-0.0267 -0.41617,0.0856 -0.71063,0.24955 -0.51011,0.28395 -0.53743,0.22103 -0.57881,-1.33285 z m -21.31378,-12.62304 0.14356,-1.07028 -4.11375,-4.08852 -4.11375,-4.08852 0.35953,-1.52193 c 0.19775,-0.83706 0.56248,-2.4493 0.81052,-3.58275 0.36621,-1.67345 0.62987,-2.24879 1.40267,-3.06082 0.52343,-0.55001 1.17135,-1.08175 1.43983,-1.18167 0.26847,-0.0999 0.5499,-0.41784 0.62539,-0.70651 0.0755,-0.28867 0.24762,-0.45664 0.38252,-0.37327 0.13489,0.0834 0.17287,0.37969 0.0844,0.65848 -0.22464,0.70777 0.42164,0.65449 1.07239,-0.0884 l 0.52146,-0.59531 0.0849,0.59531 c 0.0467,0.32742 0.1818,0.59531 0.30023,0.59531 0.11842,0 0.28087,0.25067 0.36099,0.55704 0.21304,0.81468 0.67724,0.51853 1.50819,-0.9622 1.16,-2.06706 2.0633,-2.959 3.17707,-3.1371 0.81244,-0.12991 6.49125,0.66885 6.73808,0.94776 0.0394,0.0445 0.0127,0.46791 -0.0593,0.94086 -0.10257,0.67349 -0.25868,0.85989 -0.72013,0.85989 -0.37775,0 -0.83968,0.35207 -1.28724,0.98111 -0.61176,0.8598 -0.6547,1.0479 -0.34728,1.52135 0.19293,0.29714 0.51669,0.80814 0.71945,1.13556 0.20277,0.32743 0.46412,0.59532 0.58078,0.59532 0.61376,0 0.89217,0.66541 0.63246,1.51162 -0.14679,0.47829 -0.36598,0.86963 -0.48708,0.86963 -0.12111,0 -0.2202,0.29927 -0.2202,0.66504 0,0.36578 -0.13765,0.93133 -0.30589,1.25678 -0.82622,1.59825 -0.82746,1.60316 -0.36012,1.42383 0.24459,-0.0939 0.63015,-0.17065 0.8568,-0.17065 0.3387,0 0.38434,-0.23429 0.25628,-1.31555 -0.16179,-1.3661 0.22656,-2.16297 0.42511,-0.87229 0.0629,0.40872 0.0997,0.24664 0.0833,-0.3666 -0.0385,-1.43755 0.25125,-1.22253 0.61062,0.45317 0.38041,1.77379 0.36168,2.10127 -0.12019,2.10127 -0.32548,0 -1.17385,0.42355 -1.94662,0.97186 -0.0571,0.0405 0.049,0.25788 0.23586,0.48301 0.27986,0.3372 0.27484,0.38612 -0.0284,0.27764 -0.38924,-0.13922 -2.08795,1.24658 -2.08795,1.70334 0,0.14757 0.29766,0.26831 0.66146,0.26831 0.36381,0 0.65767,0.0893 0.65305,0.19844 -0.0152,0.35864 -0.70509,1.12448 -1.01294,1.12448 -0.16586,0 -0.30157,0.17859 -0.30157,0.39687 0,0.21829 0.12609,0.39688 0.2802,0.39688 0.15411,0 0.20662,0.11906 0.11668,0.26458 -0.0899,0.14552 -0.53032,0.26459 -0.97863,0.26459 -0.8548,0 -1.51195,0.5944 -1.5265,1.38076 -0.006,0.30856 -0.14578,0.402 -0.43582,0.2907 -0.33604,-0.12895 -0.3903,-0.0471 -0.25382,0.38291 0.0955,0.30081 0.0497,0.6235 -0.10176,0.7171 -0.15144,0.0936 -0.27534,0.0441 -0.27534,-0.11003 0,-0.1541 -0.13295,-0.28019 -0.29545,-0.28019 -0.28559,0 -0.23649,0.42245 0.16144,1.38906 0.17221,0.4183 -0.0141,0.46302 -1.92918,0.46302 h -2.11979 z m 2.98272,-10.63753 c 9e-4,-0.32742 0.17243,-0.92274 0.38119,-1.32292 0.33592,-0.64396 0.33244,-0.7276 -0.0303,-0.7276 -0.30006,0 -0.36734,-0.16944 -0.25112,-0.63249 0.19182,-0.76427 -0.72554,-1.48418 -1.89124,-1.48418 -0.41257,0 -0.87712,-0.12698 -1.03231,-0.28218 -0.19985,-0.19984 -0.54338,-0.12293 -1.1774,0.2636 -0.78326,0.47751 -0.82076,0.54589 -0.29991,0.54676 0.51798,8.6e-4 0.59532,0.13847 0.59532,1.05932 0,0.99954 0.0441,1.05833 0.79375,1.05833 0.74965,0 0.79375,0.0588 0.79375,1.05834 V 139.7 h 1.05833 c 0.92066,0 1.05854,-0.0774 1.05996,-0.59531 z m 4.41885,0.0691 c 0.0757,-0.28941 0.24313,-0.46097 0.3721,-0.38126 0.12898,0.0797 0.2345,0.0286 0.2345,-0.11363 0,-0.14221 0.0798,-0.46642 0.17726,-0.72048 0.13412,-0.34951 0.0858,-0.40809 -0.19844,-0.24074 -0.24916,0.14669 -0.22669,0.0499 0.0667,-0.28732 0.24332,-0.27968 0.51085,-0.80616 0.59452,-1.16996 0.1374,-0.59749 -0.006,-0.73713 -1.4825,-1.44378 -0.97177,-0.46509 -1.67258,-0.66844 -1.72823,-0.50148 -0.0515,0.15447 -0.38712,0.22474 -0.74585,0.15617 -0.36069,-0.069 -0.65222,3.9e-4 -0.65222,0.15513 0,0.42671 0.46917,0.62332 0.59397,0.2489 0.0788,-0.23647 0.24517,-0.19485 0.58686,0.14684 0.39277,0.39278 0.42441,0.59193 0.17946,1.12954 -0.16356,0.35898 -0.50677,0.73199 -0.76269,0.8289 -0.25592,0.0969 -0.62597,0.33502 -0.82232,0.52912 -0.419,0.4142 -0.0565,1.007 0.77777,1.27178 0.27791,0.0882 0.50528,0.33094 0.50528,0.53941 0,0.26728 0.31938,0.37905 1.0831,0.37905 0.85855,0 1.11163,-0.10909 1.22071,-0.52619 z m -8.86456,-11.18454 c -0.73476,-0.88974 -0.76802,-3.55458 -0.052,-4.16427 0.0855,-0.0728 0.48029,-0.80536 0.87742,-1.62799 0.39712,-0.82263 0.90337,-1.56528 1.12501,-1.65033 0.36046,-0.13832 0.36035,-0.0782 -0.001,0.56966 -1.20925,2.16794 -2.02179,4.40316 -1.86316,5.12541 0.0916,0.41704 0.27615,0.75825 0.4101,0.75825 0.31185,0 0.31934,0.98027 0.009,1.1721 -0.12903,0.0797 -0.35642,-0.003 -0.50531,-0.18283 z m 5.767,-7.47156 c -0.13832,-0.3638 -0.36477,-0.66146 -0.50322,-0.66146 -0.33258,0 -0.49819,-0.82212 -0.2665,-1.32292 0.10099,-0.21828 0.31994,-0.73968 0.48657,-1.15867 0.41283,-1.03805 0.64789,-0.70149 0.32551,0.46606 -0.22174,0.80309 -0.17647,1.05441 0.30232,1.67846 0.30972,0.40367 0.67177,0.80993 0.80457,0.9028 0.1328,0.0929 0.15965,0.30123 0.0597,0.46302 -0.31597,0.51124 -0.94789,0.31924 -1.20891,-0.36729 z M 125.54479,111.125 V 101.6 l 9.45886,0.009 9.45885,0.009 -0.66146,0.54718 c -4.72029,3.90474 -5.65034,4.73614 -9.65991,8.63527 -2.23719,2.17556 -6.47967,7.09536 -6.47967,7.51415 0,0.12052 -0.17859,0.21913 -0.39688,0.21913 -0.21828,0 -0.39687,0.18233 -0.39687,0.40518 0,0.22285 -0.17859,0.47371 -0.39688,0.55748 -0.21828,0.0838 -0.39687,0.37768 -0.39687,0.65315 0,0.27547 -0.11906,0.50086 -0.26458,0.50086 -0.17149,0 -0.26459,-3.35139 -0.26459,-9.525 z m 23.01875,9.12812 c 0.3638,-0.20796 0.55758,-0.38234 0.43063,-0.3875 -0.12696,-0.005 -0.0982,-0.16915 0.0639,-0.36444 0.16207,-0.19529 0.21485,-0.43491 0.11728,-0.53248 -0.0976,-0.0976 -0.22435,-0.68193 -0.28174,-1.29857 -0.0574,-0.61665 -0.26487,-1.21118 -0.46108,-1.32119 -0.19621,-0.11 -0.43505,-0.55649 -0.53074,-0.99218 -0.0957,-0.4357 -0.34414,-0.79218 -0.55209,-0.79218 -0.31186,0 -0.3202,-0.0927 -0.0476,-0.52916 0.53322,-0.85382 0.82794,-0.62921 1.47548,1.12447 1.40837,3.8142 1.39528,3.72294 0.66725,4.65319 -0.36024,0.46031 -0.85472,0.8327 -1.09883,0.82754 -0.31958,-0.007 -0.25865,-0.11524 0.21761,-0.3875 z m -12.63385,-1.89502 c -0.1819,-0.0734 -0.33073,-0.54025 -0.33073,-1.03744 0,-0.82805 -0.0667,-0.90399 -0.79375,-0.90399 -0.73563,0 -0.7959,-0.0727 -0.82304,-0.99219 -0.0161,-0.54571 -0.005,-1.27793 0.0241,-1.62717 l 0.0534,-0.63499 -0.61945,0.64554 c -0.3407,0.35505 -0.78812,0.6408 -0.99427,0.63499 -0.43477,-0.0123 -0.73783,-0.67202 -0.30868,-0.67202 0.15764,0 0.28663,-0.18233 0.28663,-0.40518 0,-0.22285 0.19048,-0.47827 0.42329,-0.56761 0.54524,-0.20923 1.56969,-1.23367 1.77892,-1.77891 0.0893,-0.23282 0.31909,-0.4233 0.51056,-0.4233 0.19148,0 0.55863,-0.35633 0.81589,-0.79184 0.25726,-0.43552 0.7172,-0.92535 1.02209,-1.08852 0.30488,-0.16317 0.93163,-0.67004 1.39276,-1.12638 0.46113,-0.45635 1.65125,-1.54409 2.6447,-2.41722 0.99345,-0.87312 2.27984,-2.03398 2.85865,-2.57968 l 1.05236,-0.99219 9.16237,0.006 9.16237,0.006 -5.29167,2.7225 c -6.70416,3.44921 -10.91627,5.90974 -12.05414,7.04152 -0.22687,0.22565 -1.09007,0.87654 -1.91823,1.44643 -0.82817,0.56989 -1.50576,1.13544 -1.50576,1.25677 0,0.12134 -0.17859,0.22061 -0.39687,0.22061 -0.21828,0 -0.63934,0.24247 -0.93569,0.53882 -0.29635,0.29635 -0.66321,0.46193 -0.81525,0.36797 -0.32781,-0.2026 -1.82093,1.15549 -1.82093,1.65625 0,0.22061 -0.33794,0.34738 -0.92605,0.34738 -0.64676,0 -0.92604,-0.1197 -0.92604,-0.39688 0,-0.21828 -0.11906,-0.39687 -0.26458,-0.39687 -0.14552,0 -0.26458,0.17859 -0.26458,0.39687 0,0.21828 0.11906,0.39688 0.26458,0.39688 0.14552,0 0.26458,0.29765 0.26458,0.66145 0,0.66224 -0.10972,0.73556 -0.7276,0.48623 z"
         id="path377" /><path
         style="fill:#a2b8c9"
         d="m 159.00396,164.90156 c 0.0883,-1.2733 0.22252,-4.03733 0.29826,-6.14227 0.18331,-5.09492 -0.0478,-5.76382 -2.37568,-6.87479 -2.92598,-1.39645 -6.06031,-4.70942 -7.9034,-8.3539 -2.51935,-4.98166 -2.99925,-12.70225 -1.142,-18.37237 1.1197,-3.41841 3.78084,-6.99461 6.50624,-8.7435 7.52743,-4.83033 16.86902,-1.19528 20.46211,7.96232 2.84976,7.26313 1.42807,16.91443 -3.39596,23.05375 -1.32346,1.68431 -4.51504,4.19631 -5.99019,4.7147 -1.64262,0.57725 -1.92541,1.39472 -2.04112,5.9004 -0.0682,2.65327 -0.006,4.02142 0.19316,4.22011 0.17106,0.17105 0.29399,1.2676 0.29399,2.62232 v 2.32834 h -2.53298 -2.53298 z m -2.8858,-14.1699 c -5.71091,-4.25239 -8.9552,-11.43463 -8.47942,-18.77178 0.51995,-8.01823 3.75469,-13.41377 9.73137,-16.23191 0.92463,-0.43598 1.12159,-0.59805 0.59699,-0.49123 -1.68616,0.34336 -3.76135,1.62282 -5.60963,3.45861 -3.45867,3.4353 -5.25524,8.3042 -5.21216,14.12548 0.0554,7.48588 2.86533,13.70002 7.85631,17.37417 0.8567,0.63067 1.63383,1.14005 1.72697,1.13197 0.0931,-0.008 -0.18156,-0.27598 -0.61043,-0.59531 z m 6.31396,-1.30822 c 0.10676,-0.22879 0.19796,-0.24064 0.29586,-0.0385 0.0792,0.16356 0.45788,0.22946 0.8599,0.14964 l 0.71837,-0.14264 -0.66146,-0.19588 c -0.5506,-0.16305 -0.49674,-0.19025 0.32138,-0.16233 0.54056,0.0185 1.06642,-0.05 1.16858,-0.1522 0.10215,-0.10215 0.0468,-0.18574 -0.12295,-0.18574 -0.16977,0 -0.30868,-0.12609 -0.30868,-0.28019 0,-0.15411 0.10947,-0.21255 0.24326,-0.12986 0.13379,0.0827 0.41727,-0.0237 0.62996,-0.23637 0.21269,-0.21269 0.4667,-0.30671 0.56448,-0.20894 0.0978,0.0978 0.0917,-0.0465 -0.0135,-0.32058 -0.14422,-0.37584 -0.10408,-0.4445 0.16327,-0.27927 0.26353,0.16287 0.30825,0.0985 0.17426,-0.25063 -0.13888,-0.36192 -0.0799,-0.43122 0.25704,-0.30193 0.38343,0.14713 0.39194,0.11058 0.0691,-0.29671 -0.33349,-0.42077 -0.29341,-0.4181 0.4256,0.0283 0.43656,0.27104 0.65893,0.34849 0.49416,0.1721 -0.33994,-0.3639 0.25899,-1.86466 0.74415,-1.86466 0.15043,0 0.19851,-0.19543 0.10685,-0.4343 -0.14032,-0.36567 -0.10203,-0.38066 0.24234,-0.0949 0.34233,0.28411 0.38309,0.27196 0.25012,-0.0746 -0.15138,-0.39448 0.7119,-1.12416 0.99503,-0.84104 0.0683,0.0683 0.2634,-0.18164 0.43367,-0.55533 0.24557,-0.53898 0.24078,-0.6381 -0.0232,-0.4795 -0.24104,0.14484 -0.23531,0.0798 0.0208,-0.23613 0.19443,-0.23984 0.26533,-0.57875 0.15756,-0.75313 -0.11698,-0.18928 -0.084,-0.24788 0.0818,-0.1454 0.15275,0.0944 0.3489,-0.0138 0.43588,-0.24047 0.0931,-0.24271 0.29487,-0.33216 0.49075,-0.21759 0.18293,0.107 0.10578,-0.0641 -0.17143,-0.3801 -0.44564,-0.50807 -0.4533,-0.57465 -0.0662,-0.57465 0.24084,0 0.43862,-0.14883 0.43951,-0.33073 9e-4,-0.1819 0.16329,-0.64053 0.36087,-1.01917 0.19758,-0.37865 0.32846,-1.07975 0.29083,-1.55801 -0.0458,-0.58248 0.008,-0.74827 0.16425,-0.50218 0.16224,0.25619 0.23388,0.11185 0.23671,-0.4769 0.002,-0.46435 0.12311,-0.91787 0.26863,-1.0078 0.29588,-0.18286 0.31395,-2.4826 0.0353,-4.49792 -0.12854,-0.92981 -0.2922,-1.29882 -0.55077,-1.24184 -0.29867,0.0658 -0.30557,0.006 -0.0367,-0.31803 0.20905,-0.2519 0.25477,-0.62337 0.12394,-1.00712 -0.11401,-0.3344 -0.219,-0.66754 -0.23331,-0.7403 -0.10305,-0.52409 -0.50826,-1.51341 -0.73663,-1.79846 -0.22534,-0.28128 -0.3143,-0.28128 -0.49273,0 -0.1532,0.2415 -0.21894,0.24985 -0.22179,0.0281 -0.002,-0.17332 0.11695,-0.3899 0.26484,-0.48131 0.1479,-0.0914 0.19255,-0.28973 0.0992,-0.44073 -0.1129,-0.18268 -0.23483,-0.16914 -0.36437,0.0405 -0.14025,0.22694 -0.23965,0.19784 -0.3555,-0.10404 -0.0884,-0.23048 -0.0384,-0.41906 0.11109,-0.41906 0.14954,0 0.19711,-0.12101 0.1057,-0.2689 -0.0914,-0.14789 -0.29725,-0.18789 -0.45745,-0.0889 -0.18742,0.11584 -0.23103,0.0231 -0.12231,-0.26027 0.10602,-0.27627 0.0363,-0.44027 -0.18722,-0.44027 -0.1959,0 -0.5044,-0.1786 -0.68556,-0.39688 -0.39044,-0.47045 0.0172,-0.53839 0.47625,-0.0794 0.17463,0.17462 0.3175,0.25491 0.3175,0.17841 0,-0.0765 -0.27869,-0.40091 -0.61931,-0.7209 l -0.61931,-0.58181 0.05,0.8407 c 0.0426,0.71674 0.003,0.77623 -0.26976,0.4034 -0.42154,-0.57649 -0.76172,-0.56025 -0.53864,0.0257 0.1456,0.38245 0.116,0.40237 -0.17013,0.11448 -0.28565,-0.28741 -0.26468,-0.40892 0.11955,-0.69278 0.39686,-0.29319 0.41049,-0.39026 0.0919,-0.65469 -0.28629,-0.2376 -0.39841,-0.23746 -0.47776,6.1e-4 -0.0712,0.21362 -0.23911,0.17564 -0.536,-0.12125 -0.23777,-0.23777 -0.55304,-0.43231 -0.7006,-0.43231 -0.14756,0 -0.22182,-0.24131 -0.16502,-0.53623 0.0575,-0.29864 -0.01,-0.46639 -0.1518,-0.3786 -0.14029,0.0867 -0.19309,0.25793 -0.11734,0.3805 0.16911,0.27363 -1.26051,0.47806 -3.64219,0.52083 -1.77622,0.0319 -3.43831,0.66164 -4.74193,1.79664 -0.29118,0.25352 -0.82769,0.35559 -1.52135,0.28944 -0.95446,-0.091 -1.07155,-0.0395 -1.07155,0.47181 0,0.3157 -0.16736,0.63822 -0.37192,0.71672 -0.20456,0.0785 -0.45705,0.53026 -0.56108,1.00392 -0.10403,0.47366 -0.41554,1.04725 -0.69223,1.27465 -0.34756,0.28563 -0.51907,0.80196 -0.5548,1.67022 -0.0284,0.69122 -0.14489,1.25677 -0.25876,1.25677 -0.11387,0 -0.20704,0.17859 -0.20704,0.39687 0,0.21828 0.11906,0.39688 0.26458,0.39688 0.47964,0 0.28706,1.05684 -0.19843,1.08902 -0.44098,0.0292 -0.44098,0.0365 0,0.15169 0.3646,0.0953 0.46302,0.40772 0.46302,1.46991 0,0.82754 0.26,1.9988 0.6727,3.03038 0.36998,0.92482 0.59624,1.80519 0.5028,1.95639 -0.0935,0.15119 -0.20884,0.92014 -0.25643,1.70876 -0.0753,1.24711 -0.005,1.49775 0.53702,1.92435 0.4245,0.33392 0.65057,0.82082 0.70821,1.5253 0.0653,0.79871 0.20559,1.05216 0.61468,1.11081 0.34463,0.0494 0.6995,0.48575 1.01456,1.2475 0.37764,0.91306 0.71776,1.27441 1.54168,1.63792 0.92793,0.4094 1.04384,0.55708 0.94827,1.20821 -0.0748,0.5096 -0.0234,0.65638 0.16403,0.4689 0.40381,-0.40381 0.87262,-0.33109 0.87262,0.13537 0,0.26037 -0.14883,0.35115 -0.41086,0.2506 -0.22597,-0.0867 -0.31545,-0.0621 -0.19883,0.0548 0.18002,0.18035 1.77126,0.75834 2.32948,0.84613 0.097,0.0153 0.24584,-0.12108 0.33073,-0.30298 z m -5.67698,-8.25226 c -0.13976,-0.13975 -0.2541,-0.40888 -0.2541,-0.59806 0,-0.18917 -0.2756,-0.34395 -0.61245,-0.34395 -0.68812,0 -1.60668,-1.54178 -1.33711,-2.24429 0.19853,-0.51734 0.62664,-0.52054 0.62664,-0.005 0,0.21828 0.1168,0.39687 0.25955,0.39687 0.14275,0 0.33425,0.29766 0.42555,0.66146 0.10119,0.40315 0.3545,0.66146 0.64867,0.66146 0.26546,0 0.55824,0.23812 0.65061,0.52917 0.13044,0.41099 0.40032,0.52916 1.20845,0.52916 0.57228,0 1.04051,0.10708 1.04051,0.23794 0,0.33157 -2.34524,0.48599 -2.65632,0.17491 z m 7.81415,23.4658 c -0.31733,-4.81137 -0.28219,-10.21116 0.0705,-10.83163 0.18102,-0.31846 1.09787,-0.95748 2.03746,-1.42004 3.31996,-1.63441 6.41128,-5.0882 8.15872,-9.11536 1.14321,-2.63465 1.38141,-3.412 1.89332,-6.17887 0.94964,-5.13265 -0.007,-11.56622 -2.32576,-15.64733 -0.76992,-1.35487 -2.78589,-3.7937 -3.91378,-4.73473 -0.93383,-0.77911 -0.96155,-1.0861 -0.0981,-1.0861 0.47836,0 0.66145,0.14215 0.66145,0.51355 0,0.28245 0.13746,0.5985 0.30547,0.70234 0.18925,0.11696 0.23364,0.0726 0.11667,-0.11668 -0.10383,-0.16801 -0.0627,-0.30546 0.0914,-0.30546 0.1541,0 0.28019,0.10615 0.28019,0.2359 0,0.12974 0.26789,0.30461 0.59532,0.3886 0.32742,0.084 0.91753,0.45409 1.31137,0.82244 0.39383,0.36835 0.84031,0.66972 0.99218,0.66972 0.15188,0 0.27613,0.16402 0.27613,0.36448 0,0.20046 0.18299,0.51635 0.40665,0.70196 0.22365,0.18562 0.37248,0.58715 0.33073,0.8923 -0.0454,0.33206 0.0569,0.52825 0.25481,0.48866 0.1819,-0.0364 0.33073,0.11245 0.33073,0.33073 0,0.21828 0.092,0.39687 0.20442,0.39687 0.40792,0 1.80912,3.1437 2.00479,4.49792 0.0736,0.50932 0.25629,1.46182 0.40598,2.11667 0.1497,0.65484 0.27737,3.95882 0.2837,7.34218 0.01,5.29679 -0.0436,6.15157 -0.38535,6.15157 -0.2932,0 -0.39687,0.30694 -0.39687,1.17501 0,0.64625 -0.12892,1.25468 -0.28648,1.35206 -0.15757,0.0974 -0.51052,0.69972 -0.78435,1.33853 -0.27383,0.63882 -0.62116,1.16148 -0.77185,1.16148 -0.1507,0 -0.27399,0.29766 -0.27399,0.66146 0,0.3638 -0.0893,0.66282 -0.19844,0.66449 -0.10914,0.002 -0.42273,0.4713 -0.69686,1.04361 -0.27414,0.57232 -0.66109,1.103 -0.8599,1.17929 -0.19881,0.0763 -0.36147,0.38057 -0.36147,0.67618 0,0.29561 -0.10288,0.53747 -0.22863,0.53747 -0.12575,0 -0.43971,0.56555 -0.69767,1.25677 -0.25797,0.69122 -0.61137,1.43537 -0.78534,1.65365 -0.17397,0.21828 -0.50458,0.81359 -0.73469,1.32291 -0.23011,0.50933 -0.74493,1.64042 -1.14404,2.51355 -0.3991,0.87312 -0.72688,1.91492 -0.7284,2.3151 -0.003,0.73636 -0.55068,1.00896 -0.79766,0.39687 -0.0734,-0.1819 -0.14286,0.26497 -0.15434,0.99304 -0.0169,1.06896 -0.19914,1.57447 -0.94693,2.62626 -1.01165,1.4229 -1.31402,2.62251 -0.37751,1.49772 0.40133,-0.48202 0.60548,-0.5631 0.8364,-0.33218 0.23092,0.23091 0.16646,0.43499 -0.26408,0.8361 -0.42624,0.3971 -0.93396,0.53063 -2.01768,0.53063 h -1.44811 z m -6.58473,-3.13049 c -0.0883,-0.23019 -0.16075,-0.9148 -0.16093,-1.52136 -2.3e-4,-0.7868 -0.185,-1.31758 -0.6448,-1.85221 -0.59573,-0.6927 -0.66494,-1.49959 -0.12862,-1.49959 0.27253,0 0.0439,-0.68169 -0.52751,-1.57299 -0.22813,-0.35583 -0.37965,-0.85433 -0.33671,-1.10779 0.0434,-0.2563 -0.17201,-0.59467 -0.48542,-0.7624 -0.34937,-0.18697 -0.50428,-0.45585 -0.40767,-0.70761 0.11081,-0.28878 0.0364,-0.3602 -0.25781,-0.24732 -0.27088,0.10395 -0.34824,0.0529 -0.22418,-0.1478 0.13094,-0.21187 0.0356,-0.24746 -0.30892,-0.11527 -0.2741,0.10518 -0.41373,0.1066 -0.31028,0.003 0.10344,-0.10345 0.048,-0.35685 -0.12318,-0.56312 -0.1712,-0.20628 0.12787,-0.11595 0.66459,0.20072 0.53673,0.31668 1.04004,0.67962 1.11848,0.80653 0.0784,0.12692 0.59484,0.35253 1.14755,0.50136 0.85157,0.22931 1.05175,0.42688 1.31174,1.29466 0.35853,1.19665 0.41812,7.70954 0.0705,7.70954 -0.12995,0 -0.30854,-0.18833 -0.39687,-0.41851 z m -22.65018,-11.83622 c 0,-1.12093 -0.0747,-1.21643 -4.00096,-5.1187 l -4.00096,-3.97647 0.44026,-2.22349 c 0.54686,-2.76194 1.20005,-5.10141 1.37538,-4.92608 0.0728,0.0728 -0.17688,1.59726 -0.5549,3.38764 l -0.6873,3.25523 2.98663,3.03595 c 1.64265,1.66978 3.44539,3.49434 4.00609,4.05459 0.90467,0.90394 1.00805,1.13828 0.91814,2.08109 -0.089,0.93301 -0.0261,1.08134 0.51626,1.21746 0.33967,0.0853 1.02566,0.0888 1.52441,0.008 0.49876,-0.0809 0.97557,-0.0359 1.05959,0.10001 0.0891,0.14424 -0.62495,0.24716 -1.71495,0.24716 h -1.86769 z m 7.31921,-9.5563 c -0.0802,-0.20888 -0.0578,-0.41724 0.0497,-0.46302 0.43072,-0.18345 1.36234,-2.40387 1.36234,-3.24697 0,-0.81099 -0.1407,-0.97898 -1.44511,-1.72529 -1.35922,-0.77767 -1.50928,-0.80759 -2.52452,-0.50342 -0.74729,0.2239 -1.03532,0.43827 -0.93613,0.69675 0.0788,0.20534 0.14327,0.42314 0.14327,0.48399 0,0.0609 0.17859,0.11066 0.39687,0.11066 0.21828,0 0.39688,-0.14288 0.39688,-0.3175 0,-0.2308 0.0794,-0.23807 0.29086,-0.0266 0.36756,0.36756 0.0571,1.40247 -0.42069,1.40247 -0.19731,0 -0.6953,-0.27997 -1.10665,-0.62215 -1.08285,-0.90078 -1.65211,-1.1546 -3.0645,-1.36638 -1.10907,-0.1663 -1.36579,-0.10665 -2.16515,0.50306 -1.29246,0.9858 -1.84967,0.92956 -1.63084,-0.1646 0.0942,-0.47098 0.3877,-1.27465 0.65223,-1.78594 0.26454,-0.51129 0.56181,-1.25704 0.6606,-1.65722 0.23684,-0.95933 0.67222,-0.92626 0.8707,0.0661 0.1209,0.60452 0.30312,0.79375 0.76436,0.79375 0.46812,0 0.81644,-0.37698 1.53422,-1.6605 0.51073,-0.91327 1.14605,-1.85069 1.41183,-2.08315 0.57228,-0.50055 2.46761,-0.90001 2.46761,-0.52008 0,0.142 -0.26789,0.30977 -0.59531,0.37283 -0.35434,0.0683 -0.17947,0.12925 0.43198,0.1507 0.70046,0.0246 1.19582,0.22543 1.55698,0.63134 0.35929,0.40381 0.56787,0.48892 0.64839,0.26459 0.0653,-0.18191 0.24244,-0.33073 0.39365,-0.33073 0.17143,0 0.15622,0.14304 -0.0404,0.37996 -0.2444,0.29449 -0.24229,0.51646 0.009,0.98676 l 0.32475,0.60679 0.26321,-0.58988 c 0.14477,-0.32444 0.36408,-0.58988 0.48736,-0.58988 0.41791,0 0.22692,1.10365 -0.30886,1.78477 -0.50597,0.64324 -0.51046,0.71248 -0.0885,1.36465 0.92517,1.43001 1.29238,1.86128 1.59167,1.86935 0.47954,0.0129 0.57719,0.6037 0.22003,1.33123 -0.1786,0.3638 -0.5352,1.3163 -0.79245,2.11666 -0.25726,0.80037 -0.58562,1.60404 -0.7297,1.78594 -0.35145,0.44368 -0.90054,0.41875 -1.08005,-0.049 z M 125.55745,106.38314 125.53059,101.6 h 3.20745 3.20745 l -0.96792,1.25677 c -0.53236,0.69122 -1.03391,1.46513 -1.11455,1.71979 -0.0806,0.25466 -0.25179,0.46302 -0.38034,0.46302 -0.12855,0 -0.23372,0.13759 -0.23372,0.30576 0,0.16816 -0.28053,0.67418 -0.62339,1.12448 -0.34286,0.45029 -0.70807,1.08661 -0.81158,1.41403 -0.1035,0.32742 -0.29923,0.59532 -0.43494,0.59532 -0.13572,0 -0.25007,0.14882 -0.25412,0.33072 -0.004,0.18191 -0.35234,0.78651 -0.77399,1.34356 l -0.76664,1.01283 z m 11.36443,0.67309 c 0,-0.20053 0.26789,-0.56298 0.59531,-0.80543 l 0.59531,-0.44082 -0.66366,0.13296 c -0.36501,0.0731 -0.84126,0.0207 -1.05833,-0.11657 -0.28162,-0.17804 -0.0536,-0.25068 0.79595,-0.25357 1.16605,-0.004 1.19062,-0.0218 1.19062,-0.86395 0,-0.82249 -0.0489,-0.86343 -1.12448,-0.94125 -0.61846,-0.0448 -1.12447,-0.19358 -1.12447,-0.33073 0,-0.13715 -0.47625,-0.24937 -1.05834,-0.24937 -0.9525,0 -1.05833,0.0661 -1.05833,0.66146 0,0.592 -0.10789,0.66146 -1.02749,0.66146 -0.90491,0 -1.0437,-0.0848 -1.16337,-0.71084 -0.16872,-0.88256 0.0172,-1.40583 0.49937,-1.40583 0.20272,0 0.36857,-0.1786 0.36857,-0.39688 0,-0.34088 0.81189,-0.39563 5.75469,-0.38807 l 5.75469,0.009 -0.66146,0.52027 c -0.3638,0.28615 -0.80526,0.63938 -0.98102,0.78495 -0.17576,0.14557 -0.39481,0.26468 -0.48679,0.26468 -0.092,0 -0.48394,0.29527 -0.87106,0.65616 -2.1076,1.96482 -2.78669,2.51884 -3.08749,2.51884 -0.18302,0 -0.39503,0.23812 -0.47114,0.52917 -0.156,0.59655 -0.71708,0.72531 -0.71708,0.16456 z"
         id="path376" /><path
         style="fill:#9caab2"
         d="m 158.9986,165.03385 c 0.0861,-1.20054 0.22294,-4.01935 0.30403,-6.26402 0.18803,-5.20515 -0.002,-5.75246 -2.39907,-6.89631 -0.89501,-0.42714 -2.43049,-1.51262 -3.41219,-2.41217 -2.96335,-2.71537 -4.73055,-5.69396 -5.9005,-9.94522 -0.62932,-2.28674 -0.71536,-3.08039 -0.72591,-6.6953 -0.0102,-3.49912 0.0767,-4.41171 0.59191,-6.21771 1.0759,-3.77119 2.6991,-6.52477 5.18624,-8.79788 5.17217,-4.72707 12.88432,-4.64914 17.97834,0.18166 5.33397,5.05836 7.08875,13.73408 4.49879,22.24227 -0.81114,2.66463 -1.33306,3.75758 -2.94338,6.16362 -1.39676,2.08696 -4.33629,4.65851 -6.32872,5.53647 -2.09841,0.92466 -2.30602,1.44813 -2.42592,6.11664 -0.0682,2.65327 -0.006,4.02142 0.19316,4.22011 0.17106,0.17105 0.29399,1.2676 0.29399,2.62232 v 2.32834 h -2.53368 -2.53369 z m -2.22929,-13.9045 c -2.9213,-1.99473 -5.34323,-4.78052 -6.85921,-7.88972 -3.10248,-6.36299 -3.09358,-13.90667 0.024,-20.37745 1.50937,-3.1328 3.98301,-5.50605 7.43599,-7.13421 0.97557,-0.46 1.14731,-0.60579 0.58614,-0.49754 -2.89438,0.5583 -6.68303,3.86356 -8.54422,7.45407 -1.97626,3.81249 -2.74673,8.34613 -2.17268,12.78466 0.6481,5.01109 2.34997,9.17272 4.9812,12.1806 1.24053,1.41812 4.4174,3.96633 4.91526,3.94261 0.1602,-0.008 -0.005,-0.21599 -0.3665,-0.46302 z m 6.38574,-1.4944 c 1.89459,-0.49348 3.47713,-1.41524 3.2858,-1.91383 -0.0871,-0.22706 -0.03,-0.30514 0.14437,-0.19736 0.16092,0.0994 0.94954,-0.53377 1.78295,-1.43161 1.653,-1.78079 3.71928,-5.58141 4.42427,-8.13779 0.64716,-2.34666 0.77758,-6.70877 0.27188,-9.09297 -0.71193,-3.35645 -3.28169,-8.00573 -3.92733,-7.10542 -0.18924,0.26388 -0.21638,0.24215 -0.11104,-0.0889 0.1549,-0.48688 -0.67928,-1.3974 -0.99291,-1.08377 -0.10946,0.10945 -0.15933,0.0621 -0.11082,-0.10526 0.0485,-0.16735 -0.0309,-0.32463 -0.17639,-0.34952 -0.14552,-0.0249 -0.36043,-0.21653 -0.47758,-0.42587 -0.13099,-0.23406 -0.47018,-0.33398 -0.88092,-0.2595 -0.51546,0.0935 -0.60461,0.0448 -0.39059,-0.21304 0.21571,-0.2599 0.002,-0.34841 -0.96232,-0.39832 -0.6818,-0.0353 -1.39136,-0.19008 -1.5768,-0.34398 -0.18543,-0.1539 -0.69543,-0.22723 -1.13332,-0.16296 -0.4379,0.0643 -0.79618,0.0138 -0.79618,-0.11221 0,-0.12599 -0.26057,0.0137 -0.57905,0.31041 -0.31848,0.29671 -0.73894,0.53947 -0.93435,0.53947 -0.19541,0 -0.41843,0.16455 -0.49561,0.36567 -0.0772,0.20112 -0.60922,0.44065 -1.18232,0.53229 -0.5731,0.0917 -1.042,0.30809 -1.042,0.481 0,0.24104 -0.0741,0.24031 -0.3175,-0.003 -0.4698,-0.4698 -0.65308,-0.38892 -0.62955,0.27781 0.0191,0.54144 -0.0903,0.59103 -1.20879,0.54798 -1.04534,-0.0402 -1.32312,0.0618 -1.85208,0.68019 -1.17576,1.3746 -2.26657,3.54735 -2.11979,4.22234 0.0428,0.19671 -0.0492,0.27888 -0.20459,0.18283 -0.15526,-0.096 -0.30088,-0.0186 -0.32362,0.17188 -0.12862,1.07772 -0.0814,1.80156 0.11741,1.80156 0.52096,0 1.51143,-1.55813 1.51143,-2.37766 0,-0.87767 0.48904,-0.60114 0.57855,0.32714 0.11423,1.1848 -0.50795,2.71706 -1.26859,3.12415 -0.34808,0.18628 -0.63288,0.55671 -0.63288,0.82316 0,0.53428 -0.5243,0.68432 -0.53721,0.15373 -0.004,-0.1819 -0.14014,-0.10318 -0.3016,0.17493 -0.21854,0.37646 -0.21093,0.63796 0.0298,1.02338 0.2319,0.37134 0.24237,0.59867 0.037,0.80403 -0.15746,0.15746 -0.2863,0.6931 -0.2863,1.19029 0,0.75857 0.081,0.88279 0.50383,0.77222 0.42182,-0.1103 0.53198,0.0559 0.67675,1.02131 0.0951,0.63419 0.28509,1.2224 0.4222,1.30714 0.13712,0.0847 0.2493,0.33953 0.2493,0.56619 0,0.28567 -0.167,0.36845 -0.54427,0.26979 -0.34815,-0.091 -0.50459,-0.0307 -0.43413,0.16758 0.0606,0.17045 0.41765,0.28844 0.79348,0.2622 0.46909,-0.0327 0.64137,0.0616 0.54949,0.30106 -0.0796,0.20753 0.19446,0.49409 0.67684,0.70761 0.81159,0.35924 1.04286,0.84869 0.54609,1.1557 -0.14552,0.0899 -0.26458,0.0176 -0.26458,-0.16077 0,-0.17836 -0.0709,-0.25336 -0.15764,-0.16666 -0.0867,0.0867 -0.56666,-0.0721 -1.06659,-0.3529 -0.797,-0.44765 -0.92826,-0.46023 -1.06568,-0.10212 -0.0862,0.22462 -0.0825,0.48264 0.008,0.57338 0.0907,0.0907 0.16498,0.0261 0.16498,-0.1437 0,-0.16978 0.11039,-0.30868 0.24532,-0.30868 0.13492,0 0.19962,0.36101 0.14378,0.80226 -0.0583,0.46036 0.005,0.7364 0.14853,0.64771 0.13753,-0.085 0.17915,0.0302 0.0925,0.25608 -0.0867,0.22584 -0.0258,0.41061 0.13532,0.41061 0.16109,0 0.29289,-0.1389 0.29289,-0.30868 0,-0.16977 0.0765,-0.23218 0.17,-0.13868 0.0935,0.0935 0.004,0.37432 -0.19844,0.62405 -0.20264,0.24973 -0.23314,0.37301 -0.0678,0.27395 0.26685,-0.15986 0.6299,0.46571 0.73655,1.26915 0.0717,0.53986 0.4458,0.89877 0.79659,0.76416 0.1989,-0.0763 0.4394,-0.013 0.53444,0.14082 0.10516,0.17015 0.0121,0.21791 -0.23782,0.12202 -0.22584,-0.0867 -0.41062,-0.0421 -0.41062,0.0989 0,0.48711 1.63797,2.31365 2.07511,2.314 0.24114,1.9e-4 0.43843,0.17878 0.43843,0.39687 0,0.21809 0.14883,0.39653 0.33073,0.39653 0.1819,0 0.30097,0.071 0.26459,0.15777 -0.11118,0.26517 0.64084,1.03594 0.87159,0.89333 0.11898,-0.0735 0.29612,-0.005 0.39366,0.15325 0.0975,0.15781 0.35007,0.22065 0.56119,0.13963 0.21112,-0.081 0.32208,-0.0473 0.24659,0.0748 -0.0755,0.12216 0.3648,0.37337 0.97844,0.55826 0.61364,0.18489 1.23478,0.37184 1.3803,0.41544 0.51286,0.15368 0.82897,0.11739 2.28838,-0.26274 z m 1.46433,15.00203 c -0.0654,-1.41883 -0.20085,-3.11108 -0.30103,-3.76055 -0.19693,-1.27685 0.02,-3.01331 0.35095,-2.80879 0.23636,0.14608 0.91148,-0.58184 1.17392,-1.26573 0.15573,-0.40583 0.084,-0.3938 -0.52951,0.0888 -0.60586,0.47657 -0.74188,0.50061 -0.93005,0.16437 -0.30922,-0.55253 0.042,-2.47681 0.48296,-2.64602 0.22309,-0.0856 0.36725,0.037 0.36972,0.3144 0.003,0.37902 0.0445,0.39075 0.24713,0.0705 0.33913,-0.53609 0.0681,-0.8594 -0.55471,-0.66173 -0.47381,0.15039 -0.49064,0.11343 -0.17704,-0.38872 0.19059,-0.3052 0.38662,-0.43466 0.4356,-0.28771 0.049,0.14696 0.20524,0.2672 0.34722,0.2672 0.14198,0 0.19177,-0.10741 0.11063,-0.23868 -0.19764,-0.3198 1.66705,-1.40276 2.02956,-1.17871 0.1574,0.0973 0.20951,0.0538 0.11632,-0.0969 -0.0929,-0.15024 0.2757,-0.57268 0.81902,-0.93874 1.29121,-0.86995 2.92001,-2.47006 3.97592,-3.90588 1.02196,-1.38964 1.57217,-1.56793 1.50796,-0.48863 -0.025,0.42102 -0.13895,0.85404 -0.25313,0.96227 -0.11418,0.10823 -0.13438,-0.10088 -0.0449,-0.46468 0.0895,-0.36381 0.0941,-0.51189 0.0103,-0.32908 -0.0838,0.1828 -0.25998,0.26592 -0.3914,0.18469 -0.13143,-0.0812 -0.16012,0.0578 -0.0638,0.30887 0.14009,0.36507 0.0748,0.41804 -0.3257,0.26434 -0.27549,-0.10571 -0.41941,-0.11073 -0.31982,-0.0111 0.26178,0.26178 -0.28411,1.16982 -0.70328,1.16982 -0.19534,0 -0.51857,0.20836 -0.71829,0.46302 -0.33019,0.42102 -0.32055,0.4296 0.10629,0.0946 0.25818,-0.20264 0.52695,-0.3109 0.59728,-0.24057 0.1383,0.1383 -1.00227,1.52453 -2.58805,3.14548 -0.5457,0.55781 -0.99219,1.07958 -0.99219,1.1595 0,0.0799 -0.35719,0.51906 -0.79375,0.97588 -0.43656,0.45682 -0.79375,0.94191 -0.79375,1.07797 0,0.43839 0.65319,0.0551 0.92264,-0.54143 0.14364,-0.31801 0.41154,-0.57819 0.59531,-0.57819 0.18377,0 0.33413,-0.11907 0.33413,-0.26459 0,-0.14552 0.16862,-0.26458 0.3747,-0.26458 0.20609,0 0.53281,-0.35719 0.72605,-0.79375 0.19324,-0.43656 0.49714,-0.79375 0.67533,-0.79375 0.46156,0 0.11011,0.79533 -0.7015,1.5875 -0.71172,0.69466 -1.48256,2.49346 -1.92751,4.49792 -0.14536,0.65484 -0.41905,1.36922 -0.60821,1.5875 -0.18915,0.21828 -0.42492,0.99218 -0.52393,1.71979 -0.099,0.7276 -0.31607,1.72084 -0.48236,2.20719 -0.2584,0.75578 -0.23566,0.93304 0.15651,1.2198 0.25236,0.18453 0.45488,0.44145 0.45004,0.57093 -0.0184,0.49251 -1.02484,1.42604 -1.53739,1.42604 -0.49265,0 -0.54481,-0.20567 -0.65422,-2.57969 z M 130.492,143.44493 c -1.5568,-1.56916 -2.82872,-3.02393 -2.82649,-3.23283 0.003,-0.31826 0.0444,-0.3155 0.25304,0.0171 0.13695,0.21828 1.47006,1.61186 2.96248,3.09684 1.49242,1.48498 2.65229,2.76115 2.5775,2.83595 -0.0748,0.0748 -1.40973,-1.14788 -2.96653,-2.71703 z m 44.33365,2.10766 c 0.0807,-0.30851 0.0388,-0.56092 -0.0931,-0.56092 -0.1319,0 -0.23981,0.17859 -0.23981,0.39687 0,0.21828 -0.11907,0.39688 -0.26459,0.39688 -0.38562,0 -0.34858,-0.13432 0.57203,-2.07388 0.46013,-0.96942 0.86462,-1.88164 0.89886,-2.02717 0.0342,-0.14552 0.31804,-1.21708 0.63066,-2.38125 0.95805,-3.56767 1.02062,-8.64004 0.15503,-12.5677 -0.12112,-0.54957 -0.0951,-0.53332 0.15377,0.0961 0.16475,0.41665 0.37443,0.63768 0.46595,0.49117 0.17791,-0.28477 0.41179,2.79008 0.40312,5.29973 -0.003,0.83674 0.0915,1.52135 0.20975,1.52135 0.36704,0 0.23608,1.07505 -0.18187,1.49301 -0.21829,0.21828 -0.38501,0.77532 -0.37051,1.23787 0.0252,0.80451 0.0356,0.8123 0.23821,0.17954 0.17431,-0.54428 0.21651,-0.44456 0.23821,0.56291 0.0171,0.7954 -0.1135,1.34047 -0.37287,1.55572 -0.21958,0.18224 -0.47292,0.79213 -0.56298,1.35531 -0.1054,0.65914 -0.30464,1.02397 -0.55919,1.02397 -0.29602,0 -0.32313,0.0872 -0.10781,0.3466 0.20758,0.25012 0.20279,0.63676 -0.0172,1.38906 -0.38385,1.31257 -0.43985,1.37878 -0.76341,0.90251 -0.21278,-0.31319 -0.24685,-0.28586 -0.17446,0.13996 0.056,0.32952 0.26103,0.49983 0.54339,0.45142 0.67934,-0.11648 0.54643,0.35282 -0.2472,0.87283 -0.6853,0.44902 -0.69741,0.44679 -0.55393,-0.10187 z"
         id="path375" /><path
         style="fill:#b0c21e"
         d="m 159.14687,164.84473 c 0,-2.13471 0.0553,-2.40152 0.55263,-2.6677 0.53066,-0.284 0.54844,-0.45519 0.44744,-4.30879 -0.12815,-4.88918 -0.27096,-5.25773 -2.47152,-6.37782 -6.36965,-3.2422 -10.56369,-11.40344 -10.03668,-19.53054 0.49744,-7.67116 3.48936,-12.91954 8.92143,-15.64986 1.58355,-0.79594 3.01768,-1.31301 4.04191,-1.45729 1.10206,-0.15524 1.30433,-0.23229 0.66146,-0.25197 -1.22569,-0.0375 -3.93279,0.61359 -5.38066,1.29417 -2.4327,1.14351 -4.98303,3.78743 -6.66621,6.91085 -0.49813,0.92437 -0.9084,1.57828 -0.9117,1.45313 -0.0133,-0.50406 1.67939,-3.34064 2.87424,-4.81658 4.47624,-5.52925 12.09989,-6.69805 17.76032,-2.72289 7.39819,5.19554 9.55647,17.44556 4.75106,26.96607 -1.89497,3.75433 -5.18817,7.10487 -8.2902,8.43456 -1.71425,0.73481 -2.02018,1.71726 -2.02018,6.48738 0,2.25825 0.10798,3.88223 0.26458,3.97901 0.14552,0.0899 0.26458,1.18837 0.26458,2.44096 0,1.25259 -0.0786,2.19884 -0.17466,2.10278 -0.0961,-0.0961 -0.14799,-0.99715 -0.11539,-2.00241 0.0326,-1.00526 -0.0376,-1.88531 -0.15606,-1.95567 -0.11844,-0.0704 -0.98925,-0.0523 -1.93514,0.0401 l -1.71979,0.16801 -0.0469,1.32292 c -0.0258,0.7276 -0.0555,1.5908 -0.0661,1.91822 -0.0106,0.32743 -0.13831,0.59532 -0.28383,0.59532 -0.15672,0 -0.26459,-0.96704 -0.26459,-2.37194 z m 5.6054,-15.58111 c 2.72002,-1.32063 5.86018,-5.18873 7.35138,-9.05553 1.15064,-2.98372 1.39465,-4.29046 1.37943,-7.38726 -0.0366,-7.4399 -3.57083,-13.05705 -9.24648,-14.69577 -1.05695,-0.30517 -1.84078,-0.63581 -1.74184,-0.73475 0.36411,-0.36411 -1.94106,-0.16686 -2.43742,0.20857 -0.28247,0.21365 -0.70595,0.39224 -0.94106,0.39687 -0.91602,0.018 -4.13231,1.8978 -5.31142,3.10427 -3.32722,3.40443 -4.91567,8.80451 -4.21073,14.31483 0.34202,2.67352 0.72619,3.84372 2.27291,6.92342 1.87722,3.73777 4.96194,6.73054 7.67671,7.44785 1.30817,0.34566 3.97051,0.0786 5.20852,-0.5225 z m -5.85514,4.00476 c -0.22597,-0.51821 -0.84346,-0.98632 -2.08614,-1.58148 -3.11771,-1.49317 -5.67876,-4.22248 -7.64797,-8.15044 -0.8,-1.59575 -1.78513,-4.59108 -1.57807,-4.79815 0.0611,-0.0611 0.32022,0.63632 0.57584,1.54979 1.42228,5.0824 5.23866,9.74287 9.46002,11.55236 0.71663,0.30718 1.26976,0.76413 1.47787,1.22088 0.18292,0.40148 0.28463,0.77792 0.22601,0.83654 -0.0586,0.0586 -0.25103,-0.22465 -0.42756,-0.6295 z"
         id="path374" /><path
         style="fill:#768a12"
         d="m 159.14687,164.84473 c 0,-2.08186 0.0632,-2.40576 0.51656,-2.6484 0.47364,-0.25348 0.5231,-0.62591 0.59531,-4.48247 0.0471,-2.51412 -0.0191,-4.1453 -0.16464,-4.05508 -0.13387,0.083 -0.16737,-0.0472 -0.0744,-0.28933 0.0929,-0.24216 0.0578,-0.44028 -0.078,-0.44028 -0.13583,0 -0.36505,-0.22063 -0.50936,-0.49028 -0.22792,-0.42588 -0.17702,-0.47396 0.38757,-0.36603 0.37633,0.0719 0.64995,-1.2e-4 0.64995,-0.17118 0,-0.16249 0.30468,-0.29543 0.67707,-0.29543 0.37239,0 0.61268,-0.10419 0.53398,-0.23154 -0.0787,-0.12734 0.32416,-0.30625 0.89524,-0.39757 1.82177,-0.29131 1.35422,-0.5609 -1.00756,-0.58095 -3.04049,-0.0258 -4.23354,-0.57192 -6.7174,-3.07481 -2.2426,-2.25978 -4.0222,-5.28418 -5.10727,-8.67971 -0.92281,-2.88779 -1.05388,-7.46431 -0.3031,-10.58334 1.29523,-5.38092 4.60695,-9.37394 9.02511,-10.8818 0.73836,-0.252 1.13647,-0.46652 0.88469,-0.47673 -0.71483,-0.029 -3.94873,1.37266 -4.64092,2.01146 -0.4221,0.38953 -0.85203,0.53693 -1.33394,0.45732 -0.51756,-0.0855 -0.60653,-0.0487 -0.32686,0.13535 0.21133,0.13905 0.49762,0.18275 0.63619,0.0971 0.14331,-0.0886 0.1644,-0.0141 0.0489,0.1728 -0.11167,0.18068 -0.43453,0.26797 -0.71746,0.19398 -0.444,-0.1161 -0.46708,-0.0763 -0.16858,0.29107 0.2978,0.36647 0.27961,0.40076 -0.13091,0.2468 -0.31299,-0.11738 -0.41496,-0.0788 -0.29684,0.11234 0.16808,0.27194 -0.3021,0.74799 -0.74775,0.75708 -0.35275,0.007 -0.21088,-0.59911 0.26458,-1.13074 2.51158,-2.80836 5.21564,-4.43894 8.40052,-5.06563 1.33087,-0.26188 1.59148,-0.37033 0.92604,-0.38539 -1.23777,-0.028 -3.94561,0.62702 -5.38066,1.30158 -2.4327,1.14351 -4.98303,3.78743 -6.66621,6.91085 -0.49813,0.92437 -0.9084,1.57828 -0.9117,1.45313 -0.0133,-0.50406 1.67939,-3.34064 2.87424,-4.81658 4.47624,-5.52925 12.09989,-6.69805 17.76032,-2.72289 7.39819,5.19554 9.55647,17.44556 4.75106,26.96607 -1.89497,3.75433 -5.18817,7.10487 -8.2902,8.43456 -1.71425,0.73481 -2.02018,1.71726 -2.02018,6.48738 0,2.25825 0.10798,3.88223 0.26458,3.97901 0.14552,0.0899 0.26458,1.18837 0.26458,2.44096 0,1.25259 -0.0786,2.19884 -0.17466,2.10278 -0.0961,-0.0961 -0.14799,-0.99715 -0.11539,-2.00241 0.0326,-1.00526 -0.0376,-1.88531 -0.15606,-1.95567 -0.11844,-0.0704 -0.98925,-0.0523 -1.93514,0.0401 l -1.71979,0.16801 -0.0469,1.32292 c -0.0258,0.7276 -0.0555,1.5908 -0.0661,1.91822 -0.0106,0.32743 -0.13831,0.59532 -0.28383,0.59532 -0.15672,0 -0.26459,-0.96704 -0.26459,-2.37194 z m 5.6054,-15.58111 c 2.72002,-1.32063 5.86018,-5.18873 7.35138,-9.05553 1.15064,-2.98372 1.39465,-4.29046 1.37943,-7.38726 -0.0366,-7.4399 -3.57083,-13.05705 -9.24648,-14.69577 -1.05695,-0.30517 -1.84078,-0.63581 -1.74184,-0.73475 0.0989,-0.0989 -0.36115,-0.17989 -1.02243,-0.17989 -0.74596,0 -1.32735,0.15064 -1.53171,0.39687 -0.18115,0.21828 -0.53692,0.39688 -0.79059,0.39688 -0.92638,0 -4.13678,1.85942 -5.34517,3.09585 -3.32722,3.40443 -4.91567,8.80451 -4.21073,14.31483 0.34202,2.67352 0.72619,3.84372 2.27291,6.92342 1.87722,3.73777 4.96194,6.73054 7.67671,7.44785 1.30817,0.34566 3.97051,0.0786 5.20852,-0.5225 z m 8.33395,-5.22095 c 0.60888,-1.15154 1.43498,-3.16527 1.83577,-4.47496 0.66516,-2.17361 0.73013,-2.76193 0.74502,-6.74688 0.0142,-3.79612 -0.0632,-4.64316 -0.59307,-6.49318 -1.49201,-5.20906 -4.92515,-9.25723 -9.0479,-10.66878 -2.47819,-0.84849 -2.9076,-0.90294 -2.9313,-0.37172 -0.0124,0.27695 -0.0754,0.33302 -0.15434,0.13733 -0.0734,-0.1819 -0.32035,-0.33073 -0.54877,-0.33073 -0.31993,0 -0.28239,0.11527 0.16342,0.50193 0.3183,0.27606 0.54488,0.65705 0.50351,0.84664 -0.0526,0.24098 0.30552,0.35857 1.18999,0.39075 0.69587,0.0253 1.46977,0.22528 1.71979,0.44437 0.25002,0.21908 0.81176,0.57904 1.24833,0.79991 0.74263,0.37573 4.10104,3.43469 4.10104,3.73539 0,0.0753 0.35718,0.74268 0.79375,1.48309 0.88163,1.49525 0.94556,1.69563 0.46302,1.4512 -0.1819,-0.0921 -0.1203,0.005 0.13689,0.21536 0.29989,0.24555 0.40239,0.55285 0.28576,0.85677 -0.13479,0.35127 -0.091,0.41773 0.16938,0.25683 0.26348,-0.16285 0.31393,-0.0744 0.20193,0.35383 -0.0948,0.36234 -0.0476,0.50803 0.1292,0.39879 0.18424,-0.11387 0.21707,0.0726 0.097,0.55097 -0.11261,0.44867 -0.083,0.66222 0.078,0.5627 0.1607,-0.0993 0.20677,0.21967 0.12098,0.83773 -0.11008,0.79316 -0.0753,0.91662 0.16937,0.60124 0.24762,-0.31918 0.27557,-0.24947 0.14281,0.35604 -0.0943,0.43026 -0.0329,0.91214 0.14329,1.12448 0.22239,0.26796 0.22557,0.37156 0.0114,0.37156 -0.16334,0 -0.28861,0.26789 -0.27838,0.59532 0.0177,0.56803 0.029,0.57106 0.24598,0.0661 0.18327,-0.42647 0.231,-0.33964 0.24599,0.44741 0.0102,0.53711 -0.11187,1.0572 -0.27134,1.15576 -0.18399,0.11371 -0.22645,0.60252 -0.11619,1.33775 0.0956,0.63721 0.0807,1.30775 -0.0331,1.49007 -0.11375,0.18233 -0.22127,0.7296 -0.23894,1.21615 -0.0177,0.48654 -0.1402,0.96279 -0.2723,1.05833 -0.13209,0.0955 -0.24017,0.37072 -0.24017,0.61152 0,0.76147 -2.36555,5.76998 -2.72759,5.77504 -0.19049,0.003 -0.28047,0.11143 -0.19996,0.24171 0.0805,0.13027 -0.0391,0.30802 -0.26574,0.395 -0.22667,0.087 -0.34042,0.27416 -0.25279,0.41595 0.0876,0.14179 -0.0715,0.40197 -0.35371,0.57819 -0.2947,0.18404 -0.44883,0.4877 -0.36218,0.71352 0.0954,0.24873 0.0409,0.32516 -0.14854,0.20808 -0.466,-0.28801 -1.43892,1.78142 -1.03298,2.19719 0.49595,0.50796 3.7718,-3.12958 5.12763,-5.69379 z m -14.18909,9.22571 c -0.22597,-0.51821 -0.84346,-0.98632 -2.08614,-1.58148 -3.11771,-1.49317 -5.67876,-4.22248 -7.64797,-8.15044 -0.8,-1.59575 -1.78513,-4.59108 -1.57807,-4.79815 0.0611,-0.0611 0.32022,0.63632 0.57584,1.54979 1.42228,5.0824 5.23866,9.74287 9.46002,11.55236 0.71663,0.30718 1.26976,0.76413 1.47787,1.22088 0.18292,0.40148 0.28463,0.77792 0.22601,0.83654 -0.0586,0.0586 -0.25103,-0.22465 -0.42756,-0.6295 z m -2.71126,-2.72132 c -1.16233,-0.7699 -2.26162,-1.80684 -2.13222,-2.0113 0.0364,-0.0575 -0.0232,-0.11297 -0.1323,-0.1233 -0.23603,-0.0224 -0.68399,-0.76234 -0.76348,-1.26119 -0.031,-0.19466 -0.26311,-0.58235 -0.51576,-0.86152 -0.25264,-0.27917 -0.38144,-0.58549 -0.28621,-0.68072 0.23151,-0.23151 1.22871,0.68794 1.15808,1.06779 -0.0306,0.16457 0.10203,0.26651 0.29475,0.22652 0.19272,-0.04 0.27447,0.0502 0.18167,0.20031 -0.0928,0.15015 0.0174,0.34443 0.24491,0.43173 0.22751,0.0873 0.41635,0.29482 0.41966,0.46116 0.003,0.16633 0.39025,0.49258 0.85989,0.725 0.58749,0.29075 0.84416,0.59842 0.82271,0.9862 -0.0172,0.30998 0.0597,0.50741 0.17087,0.43873 0.11114,-0.0687 0.47192,0.0936 0.80174,0.36071 1.03437,0.83758 0.12851,0.86971 -1.12431,0.0399 z"
         id="path373" /><path
         style="fill:#333c1a"
         d="m 159.14687,164.89513 c 0,-2.47347 0.12148,-2.88911 0.70326,-2.40627 0.27535,0.22852 0.35688,0.18344 0.36312,-0.20073 0.007,-0.4439 0.0346,-0.45002 0.26293,-0.0589 0.16153,0.27668 0.60109,0.43656 1.20022,0.43656 0.51993,0 1.01677,0.0714 1.10409,0.15875 0.0873,0.0873 -0.50136,0.15875 -1.30816,0.15875 -0.8532,0 -1.58211,0.13881 -1.74225,0.33177 -0.15144,0.18247 -0.25532,1.08683 -0.23084,2.00968 0.0245,0.92285 -0.0448,1.73308 -0.15393,1.80051 -0.10914,0.0674 -0.19844,-0.93614 -0.19844,-2.23016 z m 4.53756,0.28663 c -0.0218,-1.19196 -0.1587,-2.24078 -0.30422,-2.33072 -0.16196,-0.10009 -0.24405,-1.77389 -0.21164,-4.31509 l 0.0529,-4.15157 0.1978,4.10104 c 0.10879,2.25557 0.27322,4.82703 0.3654,5.71435 0.0922,0.88731 0.11625,1.95888 0.0535,2.38125 -0.0628,0.42236 -0.13195,-0.2073 -0.15376,-1.39926 z m -0.16022,-11.45884 c 0.0946,-0.36381 0.18589,-0.86982 0.20295,-1.12448 0.0171,-0.25466 0.19685,-0.46302 0.39952,-0.46302 0.76422,0 3.67006,-1.60779 4.9605,-2.74462 1.56209,-1.37615 3.82361,-4.5414 4.76395,-6.66767 0.80832,-1.82776 1.65356,-4.85744 1.96908,-7.05794 l 0.23711,-1.65373 -0.11122,1.71979 c -0.19285,2.98209 -1.35713,6.5521 -3.07936,9.44217 -1.72181,2.88937 -5.03656,5.9285 -7.58119,6.95081 -0.51962,0.20876 -1.08734,0.73697 -1.40302,1.30539 -0.38037,0.68488 -0.48165,0.76779 -0.35832,0.2933 z m -7.02317,-2.11458 c -1.65535,-0.90038 -3.53126,-2.49407 -4.83684,-4.10915 -1.32777,-1.64253 -3.64372,-5.94046 -3.61118,-6.70161 0.0102,-0.23987 0.18311,0.0118 0.38414,0.55928 1.64722,4.48612 4.77412,8.25455 8.46192,10.19804 0.58144,0.30642 0.93811,0.55713 0.79259,0.55713 -0.14552,0 -0.68131,-0.22666 -1.19063,-0.50369 z m 3.96875,-1.24649 c -2.70611,-0.46521 -5.02593,-1.99951 -7.03882,-4.65538 -1.57773,-2.0817 -3.40348,-5.8947 -3.94916,-8.24762 -0.54143,-2.3346 -0.55096,-6.59813 -0.0204,-9.11105 1.93056,-9.1431 9.97286,-13.84684 17.29132,-10.11324 1.71188,0.87333 4.05319,3.43001 5.14436,5.61756 1.51443,3.03611 1.90353,4.85376 1.91991,8.96871 0.0121,3.03693 -0.079,3.86907 -0.60801,5.55625 -1.54238,4.91897 -5.00255,9.7327 -8.03762,11.18182 -1.39363,0.66539 -3.45446,1.01735 -4.70162,0.80295 z m 4.52948,-1.15033 c 0.63749,-0.32377 1.94819,-1.39011 2.91269,-2.36964 4.12172,-4.18597 6.35117,-10.81945 5.53214,-16.46024 -0.60373,-4.15798 -1.74809,-6.6936 -4.169,-9.23752 -1.36593,-1.43533 -4.19726,-3.13995 -5.21537,-3.13995 -0.24539,0 -0.38095,-0.10553 -0.30124,-0.23451 0.20054,-0.32448 -0.78227,-0.55134 -2.40716,-0.55563 -1.52667,-0.004 -2.27496,0.19743 -2.05503,0.55328 0.0805,0.13027 -0.036,0.23686 -0.25887,0.23686 -1.0367,0 -3.5752,1.54147 -5.21278,3.1654 -2.80785,2.78445 -4.08672,5.95225 -4.38329,10.85751 -0.4536,7.50259 4.24014,15.8643 9.9701,17.7613 1.1739,0.38865 4.32791,0.063 5.58781,-0.57686 z M 175.983,131.59894 c -0.45806,-5.95922 -2.34891,-10.34353 -5.835,-13.52962 -2.27308,-2.07747 -4.60884,-3.03625 -8.49214,-3.48587 -1.80889,-0.20943 -1.81875,-0.21463 -0.47149,-0.24868 4.36308,-0.11025 8.95642,2.42957 11.75789,6.50138 1.08634,1.57894 2.15236,4.18395 2.70318,6.60575 0.43306,1.90402 0.88737,6.43727 0.64513,6.43727 -0.0728,0 -0.21117,-1.02611 -0.30757,-2.28023 z"
         id="path372" /></g></g></svg>
