<?xml version="1.0" encoding="UTF-8" standalone="no"?>
<!-- Created with Inkscape (http://www.inkscape.org/) -->

<svg
   width="53.738674mm"
   height="65.770416mm"
   viewBox="0 0 53.738674 65.770416"
   version="1.1"
   id="svg1"
   inkscape:export-filename="the-outback.svg"
   inkscape:export-xdpi="96"
   inkscape:export-ydpi="96"
   xml:space="preserve"
   xmlns:inkscape="http://www.inkscape.org/namespaces/inkscape"
   xmlns:sodipodi="http://sodipodi.sourceforge.net/DTD/sodipodi-0.dtd"
   xmlns="http://www.w3.org/2000/svg"
   xmlns:svg="http://www.w3.org/2000/svg"><sodipodi:namedview
     id="namedview1"
     pagecolor="#ffffff"
     bordercolor="#000000"
     borderopacity="0.25"
     inkscape:showpageshadow="2"
     inkscape:pageopacity="0.0"
     inkscape:pagecheckerboard="0"
     inkscape:deskcolor="#d1d1d1"
     inkscape:document-units="mm"><inkscape:page
       x="0"
       y="0"
       width="53.738674"
       height="65.770416"
       id="page2"
       margin="0"
       bleed="0" /></sodipodi:namedview><defs
     id="defs1" /><g
     inkscape:label="Calque 1"
     inkscape:groupmode="layer"
     id="layer1"
     transform="translate(-127.70441,-116.66382)"><g
       id="g379"
       transform="translate(7.2149447,-5.0230627)"><path
         style="fill:#d3e7f5"
         d="m 120.51771,154.51668 v -32.80834 h 26.85521 26.8552 v 32.80834 32.80833 h -26.8552 -26.85521 z"
         id="path386" /><path
         style="fill:#c5dae9"
         d="m 130.59392,187.21683 c 0.0606,-0.0595 1.65806,-0.72606 3.54983,-1.48125 5.17307,-2.06509 5.42396,-2.177 5.42396,-2.41945 0,-0.12345 0.14883,-0.22373 0.33073,-0.22286 0.65038,0.003 3.09991,-1.19856 3.10433,-1.52295 0.002,-0.1819 -0.16557,-0.33072 -0.37346,-0.33072 -0.20788,0 -0.56104,-0.18307 -0.78479,-0.40682 -0.36604,-0.36604 -0.51276,-0.35278 -1.46357,0.13229 -0.58121,0.29651 -1.26047,0.53911 -1.50947,0.53911 -0.249,0 -0.67047,0.19705 -0.93659,0.43788 -0.26611,0.24084 -0.48385,0.30628 -0.48385,0.14544 0,-0.16084 0.20256,-0.4058 0.45013,-0.54435 0.33308,-0.1864 0.43284,-0.54482 0.38365,-1.37842 -0.0366,-0.61959 0.0541,-1.20102 0.20139,-1.29207 0.40628,-0.25109 0.0395,-1.27125 -0.50865,-1.41459 -0.35926,-0.0939 -0.47153,-0.35421 -0.43856,-1.01664 0.044,-0.88392 0.0552,-0.89135 1.54603,-1.02422 1.06314,-0.0948 1.68627,-0.30725 2.13372,-0.72761 0.66815,-0.6277 1.38384,-0.76994 1.65625,-0.32917 0.0899,0.14552 0.5494,0.26458 1.02103,0.26458 0.47163,0 0.97447,0.11696 1.11742,0.25991 0.38988,0.38988 2.75372,1.04741 3.17891,0.88425 0.20415,-0.0783 0.37118,-0.0617 0.37118,0.0371 0,0.30518 -0.65835,0.85681 -1.24467,1.04291 -0.30719,0.0975 -0.62532,0.35133 -0.70696,0.56407 -0.0816,0.21274 -0.39029,0.3868 -0.6859,0.3868 -0.43415,0 -0.53747,0.17179 -0.53747,0.89365 0,1.60137 0.47631,1.62763 2.91695,0.16076 1.21217,-0.72854 2.26345,-1.38411 2.33617,-1.45683 0.0727,-0.0727 -0.0972,-0.3193 -0.37764,-0.54795 -0.43292,-0.35301 -0.44057,-0.394 -0.0507,-0.27164 0.39675,0.12451 0.41507,0.0735 0.1348,-0.37528 -0.1784,-0.28566 -0.56474,-0.51937 -0.85853,-0.51937 -0.76112,0 -1.33048,-0.96789 -0.88507,-1.50458 0.27681,-0.33354 0.25342,-0.46511 -0.13294,-0.74761 -0.3024,-0.22113 -0.36777,-0.40532 -0.18413,-0.51882 0.39813,-0.24606 0.0393,-0.73587 -0.41212,-0.56263 -0.21756,0.0835 -0.37011,-0.0246 -0.37011,-0.26216 0,-0.2223 -0.11907,-0.3306 -0.26459,-0.24066 -0.23241,0.14364 -0.36669,-0.39803 -0.33915,-1.36814 0.005,-0.1704 -0.13963,-0.25285 -0.32105,-0.18323 -0.18141,0.0696 -0.401,-0.0589 -0.48798,-0.28551 -0.087,-0.22665 -0.33627,-0.41208 -0.554,-0.41208 -0.44535,0 -1.04489,-0.94506 -0.82511,-1.30066 0.0786,-0.12727 -0.0411,-0.30204 -0.26609,-0.38838 -0.26439,-0.10145 -0.34298,-0.05 -0.22219,0.14545 0.11886,0.19231 0.0691,0.22963 -0.13658,0.1025 -0.17793,-0.10997 -0.26476,-0.35301 -0.19297,-0.5401 0.083,-0.21623 -0.0313,-0.29785 -0.31364,-0.22402 -0.53011,0.13863 -1.44729,-1.24987 -1.21885,-1.8452 0.0832,-0.21669 0.024,-0.47258 -0.13143,-0.56865 -0.15544,-0.0961 -0.29099,-0.5546 -0.30122,-1.01895 -0.0152,-0.68933 -0.0566,-0.74716 -0.22543,-0.31512 l -0.20684,0.52917 -0.14834,-0.52917 c -0.0816,-0.29104 -0.22366,-0.97565 -0.31572,-1.52135 -0.21539,-1.27674 -0.50061,-1.25661 -0.93716,0.0661 -0.1921,0.58209 -0.43638,1.05834 -0.54283,1.05834 -0.10645,0 -0.27155,0.31079 -0.36689,0.69065 -0.0953,0.37986 -0.41851,1.24307 -0.71815,1.91823 -1.50262,3.38577 -1.8976,4.3315 -2.36358,5.65935 -0.1915,0.5457 -0.44333,0.99219 -0.55961,0.99219 -0.11629,0 -0.21144,0.29765 -0.21144,0.66145 0,0.36381 -0.11679,0.66146 -0.25954,0.66146 -0.14275,0 -0.33302,0.29277 -0.42283,0.65061 -0.0898,0.35783 -0.33021,0.78913 -0.53421,0.95844 -0.204,0.1693 -0.37092,0.51864 -0.37092,0.77629 0,0.47709 -0.61294,0.88227 -0.90017,0.59504 -0.26662,-0.26661 -0.17526,-2.93858 0.10642,-3.11267 0.14552,-0.0899 0.26459,-0.4142 0.26459,-0.72059 0,-0.30638 0.40407,-1.40836 0.89794,-2.44883 0.49387,-1.04047 1.28075,-2.81129 1.74862,-3.93516 0.46786,-1.12386 0.98768,-2.18775 1.15514,-2.3642 0.16747,-0.17644 0.44156,-0.79705 0.6091,-1.37914 0.57587,-2.00079 1.27833,-3.70462 1.64611,-3.99272 0.29871,-0.234 0.17365,-0.43382 -0.66146,-1.05683 -0.56641,-0.42255 -1.08936,-0.83983 -1.16212,-0.9273 -0.18573,-0.22327 -1.91602,-0.45922 -2.3151,-0.3157 -0.1819,0.0654 -0.33256,0.37691 -0.33478,0.69221 -0.003,0.4566 -0.0542,0.49406 -0.2502,0.18405 -0.47009,-0.74332 -0.67179,0.0526 -0.67179,2.65074 0,3.5029 -0.0607,3.56197 -3.64784,3.55116 -2.11787,-0.006 -3.04924,-0.13512 -4.30728,-0.59532 -0.88281,-0.32294 -1.80555,-0.58716 -2.05052,-0.58716 -0.24497,0 -0.44541,-0.11906 -0.44541,-0.26459 0,-0.14552 -0.17195,-0.26458 -0.38212,-0.26458 -0.21016,0 -0.71565,-0.28689 -1.12329,-0.63753 l -0.74118,-0.63753 0.72642,-0.33098 c 0.39954,-0.18204 0.72642,-0.54458 0.72642,-0.80565 0,-0.26107 0.29766,-0.77233 0.66146,-1.13613 0.3638,-0.3638 0.66146,-0.94785 0.66146,-1.29788 0,-0.36584 0.2745,-0.84256 0.64562,-1.12126 0.35508,-0.26666 0.57833,-0.59371 0.49609,-0.72677 -0.0833,-0.13472 -0.23344,-0.10614 -0.33889,0.0645 -0.10415,0.16853 -1.1013,0.37139 -2.21589,0.45081 l -2.02651,0.14439 v -17.0916 -17.09159 l 26.85521,0.003 26.8552,0.003 v 32.80549 32.80548 h -7.2505 -7.2505 l -0.109,-2.57969 c -0.0773,-1.82928 -2.4e-4,-2.84906 0.26489,-3.50572 0.20565,-0.50933 0.58701,-1.53085 0.84747,-2.27006 0.43412,-1.23208 4.33817,-8.27104 4.75757,-8.57786 0.468,-0.34238 2.55751,-3.72103 3.57473,-5.78017 3.71261,-7.51544 3.9492,-15.25398 0.66994,-21.91327 -2.63523,-5.35143 -6.75659,-8.43911 -11.9784,-8.9741 -1.90181,-0.19485 -4.86132,0.2195 -6.08405,0.8518 -0.42747,0.22105 -1.009,0.44655 -1.29227,0.50111 -0.28327,0.0545 -1.01577,0.4909 -1.62777,0.96967 -0.612,0.47877 -1.27009,0.9906 -1.46242,1.13741 -2.30042,1.75593 -4.63213,5.69932 -5.63348,9.52734 -0.81701,3.12331 -0.88431,9.32141 -0.13073,12.03854 0.26234,0.94589 0.50046,1.89839 0.52916,2.11667 0.0863,0.65596 2.49193,5.52037 3.33882,6.75129 0.49021,0.71249 0.72988,1.32982 0.63268,1.62962 -0.11288,0.34819 -0.0872,0.3861 0.0923,0.13611 0.19254,-0.26819 0.34768,-0.19554 0.68641,0.32142 0.24071,0.36737 0.43765,0.74424 0.43765,0.83749 0,0.0933 0.31613,0.54393 0.70252,1.0015 0.38638,0.45757 0.95249,1.36772 1.25803,2.02257 0.56253,1.20566 1.72078,3.19703 2.00058,3.43958 0.0839,0.0728 0.59374,1.26339 1.13289,2.64584 0.78349,2.00892 0.95954,2.77912 0.87692,3.83645 -0.0568,0.72761 -0.11388,1.88847 -0.12673,2.57969 l -0.0234,1.25677 h -2.44457 -2.44458 l 1.71697,-1.15618 c 1.59245,-1.07233 2.94855,-2.2834 2.55683,-2.2834 -0.35953,0 -4.1915,2.71812 -4.32596,3.06852 -0.11819,0.30801 -1.62884,0.37106 -8.88943,0.37106 -4.81087,0 -8.69743,-0.0487 -8.6368,-0.10818 z m 4.74045,-40.71679 c 0,-0.34934 1.03625,-0.79683 2.56459,-1.10748 0.58925,-0.11977 0.80055,-0.28703 0.69852,-0.55292 -0.19498,-0.50809 0.59331,-1.67554 1.31049,-1.94085 0.44943,-0.16625 0.2451,-0.25343 -0.94146,-0.40168 -1.5551,-0.19429 -1.93309,-0.51223 -0.97174,-0.81735 0.29905,-0.0949 0.4978,-0.31036 0.44166,-0.47878 -0.0561,-0.16841 0.10036,-0.4262 0.34776,-0.57286 1.84458,-1.09344 2.33199,-1.26996 3.39563,-1.22973 l 1.15909,0.0438 -0.62883,-0.52377 -0.62883,-0.52377 0.841,-0.009 c 0.78567,-0.008 1.67254,-0.56744 1.67254,-1.05463 0,-0.11785 -0.55096,-0.35301 -1.22437,-0.52257 -1.13557,-0.28594 -1.18834,-0.33558 -0.7276,-0.68446 0.38762,-0.2935 0.40956,-0.37929 0.0999,-0.39045 -0.27514,-0.01 -0.20438,-0.16233 0.23068,-0.4969 0.55381,-0.42588 0.57464,-0.50291 0.17726,-0.65539 -1.29482,-0.49688 -5.5211,0.66537 -5.79283,1.59305 -0.0778,0.26551 -0.34257,1.19713 -0.58845,2.07025 -0.24588,0.87313 -0.6075,1.81907 -0.80361,2.10209 -0.22826,0.32941 -0.29989,0.86899 -0.19907,1.49948 0.10976,0.68644 0.028,1.16973 -0.26971,1.59481 -0.23495,0.33545 -0.42719,0.82154 -0.42719,1.0802 0,0.25866 -0.11906,0.4703 -0.26458,0.4703 -0.29433,0 -0.35152,0.7885 -0.10399,1.43357 0.19351,0.50427 0.63315,0.5562 0.63315,0.0748 z m -1.905,-0.50295 c 0.61163,-0.61162 0.33501,-0.97372 -0.80698,-1.05635 l -1.12447,-0.0814 0.75018,-0.50825 c 0.57526,-0.38973 0.79791,-0.43103 0.95485,-0.1771 0.13364,0.21625 0.26122,0.0483 0.36768,-0.48394 0.14012,-0.70062 0.27852,-0.81509 0.98543,-0.81509 0.54044,0 0.78455,-0.11339 0.71198,-0.33073 -0.0775,-0.23217 -0.85286,-0.33428 -2.60174,-0.34265 -1.37021,-0.007 -2.75919,-0.10389 -3.08661,-0.21627 -0.58246,-0.19993 -0.59532,-0.16168 -0.59532,1.77158 v 1.97592 l 0.99219,0.26352 c 1.40582,0.37338 3.0798,0.37373 3.45281,7.1e-4 z m -0.56715,-5.95165 c 0.6431,-0.42138 0.70393,-0.42138 1.01204,0 0.53652,0.73373 0.93661,0.54279 0.7559,-0.36075 -0.13507,-0.67538 -0.0684,-0.8335 0.40349,-0.9569 0.91993,-0.24057 0.69982,-0.8549 -0.25252,-0.70481 -0.72991,0.11504 -0.79916,0.0701 -0.64416,-0.41829 0.1318,-0.41526 0.0788,-0.51076 -0.22005,-0.3961 -0.21654,0.0831 -0.45441,0.30925 -0.52859,0.50255 -0.0742,0.19331 -0.50765,0.43335 -0.96327,0.53342 -0.73525,0.16149 -0.77813,0.21872 -0.38126,0.50892 0.36108,0.26402 0.38977,0.43418 0.14907,0.88394 -0.53057,0.99139 -0.37019,1.08915 0.66935,0.40802 z m 8.24594,-6.8671 c 0.19241,-0.0903 0.70778,0.10046 1.14528,0.42392 0.94542,0.69897 1.13042,0.60592 0.75557,-0.38003 -0.30939,-0.81374 -0.0485,-1.32525 0.81592,-1.59959 0.88799,-0.28184 0.57205,-0.7253 -0.38836,-0.54512 -0.75128,0.14094 -0.91593,0.0824 -1.03356,-0.36743 -0.13849,-0.52956 -0.71864,-0.76319 -0.71864,-0.2894 0,0.43329 -0.8499,1.1123 -1.21626,0.97172 -0.49074,-0.18832 -0.78678,0.37787 -0.34148,0.65308 0.30023,0.18555 0.28341,0.35708 -0.0984,1.00343 -0.61733,1.04505 -0.58,1.24626 0.13478,0.7265 0.32742,-0.23809 0.75273,-0.50677 0.94514,-0.59708 z m 21.35104,-1.39292 c -0.13624,-0.62028 -0.0675,-0.80317 0.35195,-0.93629 0.2867,-0.091 0.68085,-0.35921 0.87589,-0.59604 0.31916,-0.38754 0.25794,-0.41505 -0.61213,-0.2751 -0.80538,0.12954 -0.98895,0.0706 -1.09971,-0.35291 -0.17322,-0.66237 -0.63071,-0.65112 -0.84395,0.0208 -0.12712,0.4005 -0.40487,0.53131 -1.14231,0.53797 l -0.97436,0.009 0.62647,0.52185 c 0.51948,0.43274 0.56953,0.59048 0.29303,0.92364 -0.46297,0.55784 -0.12212,0.79713 0.64051,0.44965 0.48984,-0.22319 0.74878,-0.20458 1.12559,0.0809 0.74498,0.5644 0.94497,0.46342 0.75902,-0.38324 z m -8.58588,52.82761 c 0.0553,-2.48939 -0.01,-2.89656 -0.79023,-4.96093 -0.99415,-2.62885 -3.57568,-7.28587 -6.01333,-10.84792 -2.20093,-3.21614 -3.06815,-4.92873 -4.26437,-8.4213 -0.88927,-2.59639 -0.97521,-3.11289 -1.0685,-6.42139 -0.19428,-6.89056 1.46095,-11.74815 5.30987,-15.58278 4.19926,-4.18368 10.38779,-5.1737 15.5397,-2.48599 5.51622,2.87776 8.72978,9.17678 8.73088,17.11376 7.6e-4,5.44022 -1.59833,10.0427 -5.46452,15.7279 -2.6657,3.91989 -5.24744,8.56462 -6.15551,11.07421 -0.70473,1.94762 -0.81502,2.60857 -0.81502,4.88442 v 2.632 h -1.98438 c -1.40075,0 -1.99008,-0.0973 -2.0038,-0.33073 -0.0107,-0.1819 -0.0564,-1.1404 -0.10153,-2.13 -0.11984,-2.62618 -0.40821,-2.50773 -0.40821,0.16768 0,1.46509 -0.10314,2.29305 -0.28565,2.29305 -0.18983,0 -0.26545,-0.90978 -0.2254,-2.71198 z m 3.22562,-6.61458 c 0.23723,-0.47294 0.92315,-1.73212 1.52426,-2.79816 0.86401,-1.5323 0.98154,-1.87865 0.56111,-1.65365 -0.73979,0.39593 -5.13807,0.36982 -5.54077,-0.0329 -0.17462,-0.17462 -0.3175,-0.25172 -0.3175,-0.17133 0,0.32382 2.95848,5.51592 3.143,5.51592 0.10921,0 0.39267,-0.38696 0.6299,-0.8599 z m -1.60436,-1.90613 c -0.42989,-0.79371 -0.71665,-1.50809 -0.63723,-1.5875 0.21914,-0.21915 3.23119,-0.17268 3.23119,0.0498 0,0.33917 -1.44748,2.97947 -1.63377,2.98013 -0.0982,3.5e-4 -0.5303,-0.64877 -0.96019,-1.44248 z m -6.94708,-6.42825 c -0.3236,-0.5457 -1.05329,-1.72346 -1.62153,-2.61724 -2.35137,-3.69845 -4.05761,-9.27119 -3.74739,-12.23925 0.13876,-1.32761 0.0912,-1.69126 -0.25558,-1.9533 -0.36977,-0.27942 -0.39382,-0.63673 -0.18195,-2.70323 0.59912,-5.84364 3.26895,-10.49429 7.64945,-13.32477 1.815,-1.17277 1.94892,-1.41232 0.32698,-0.58487 -2.64501,1.34939 -5.07938,4.03879 -6.723,7.42735 -1.19547,2.46462 -1.56746,4.33984 -1.70579,8.59896 -0.10998,3.38581 -0.0508,4.27965 0.40284,6.08542 0.77272,3.07589 2.44259,6.72002 4.44354,9.69706 1.75013,2.60388 2.52355,3.4876 1.41243,1.61387 z m -21.1138,1.02986 c -0.47992,-0.49095 -1.10671,-0.82623 -1.6428,-0.87876 -0.47675,-0.0467 -0.91024,-0.21747 -0.96331,-0.37944 -0.10798,-0.32957 1.80318,-0.72804 2.02924,-0.42309 0.0787,0.10623 0.59107,0.48973 1.1385,0.85223 0.96359,0.63808 1.19603,1.29604 0.53555,1.51594 -0.17666,0.0588 -0.67039,-0.25027 -1.09718,-0.68688 z"
         id="path385" /><path
         style="fill:#b8d2e5"
         d="m 149.88999,186.36426 c 0.79842,-0.52841 1.83863,-1.32568 2.31157,-1.77169 l 0.8599,-0.81095 v 1.7717 1.77169 h -2.31158 -2.31157 z m 3.98656,-1.75123 c 0.0555,-2.37104 -0.0258,-2.96144 -0.64715,-4.69635 -0.88766,-2.47868 -3.62548,-7.42931 -6.21864,-11.24479 -3.58013,-5.26768 -5.06634,-9.31851 -5.26315,-14.34528 -0.21043,-5.37497 0.59635,-9.02836 2.81268,-12.7368 1.83359,-3.06801 4.71382,-5.49724 7.79027,-6.57044 2.06625,-0.7208 6.68519,-0.64906 8.67192,0.13467 6.73167,2.65556 10.66014,9.97369 10.22674,19.05084 -0.22894,4.79497 -2.15925,9.99432 -5.36481,14.45032 -2.15559,2.99644 -5.18176,8.37485 -6.16292,10.95335 -0.74765,1.96483 -0.8392,2.50603 -0.8392,4.96094 v 2.75552 h -1.98438 -1.98437 l -0.0314,-2.05052 c -0.0172,-1.12779 -0.009,-2.2113 0.0177,-2.4078 0.027,-0.1965 -0.078,-0.27877 -0.23324,-0.18282 -0.16391,0.1013 -0.28228,1.11097 -0.28228,2.4078 0,1.42235 -0.10373,2.23334 -0.28565,2.23334 -0.19004,0 -0.26441,-0.90779 -0.22217,-2.71198 z m 3.51989,-7.14402 c 0.41972,-0.76383 1.12038,-2.02665 1.55702,-2.80625 0.70523,-1.25912 0.73276,-1.38473 0.24647,-1.12448 -0.69143,0.37005 -4.67982,0.38424 -5.36212,0.0191 -0.63908,-0.34202 -0.64404,-0.14396 -0.0226,0.90412 0.26901,0.45374 0.92968,1.62865 1.46815,2.61092 0.53848,0.98226 1.06251,1.78581 1.16453,1.78567 0.10202,-1.5e-4 0.52889,-0.62523 0.9486,-1.38907 z m -1.77073,-1.25449 c -0.40867,-0.72904 -0.67227,-1.44002 -0.58578,-1.57996 0.15354,-0.24843 2.45814,-0.32659 2.8482,-0.0966 0.19865,0.11713 -0.52096,1.68012 -1.16794,2.53675 -0.31929,0.42276 -0.41942,0.34407 -1.09448,-0.86019 z m -5.08554,-3.19199 c -0.23002,-0.4448 -1.2642,-2.20097 -2.29819,-3.9026 -2.27094,-3.73727 -2.89745,-4.96441 -3.7711,-7.38637 -0.94693,-2.6251 -0.82559,-2.95818 0.21197,-0.5819 0.89901,2.05897 3.204,5.62251 4.20331,6.49839 0.30915,0.27097 0.0746,-0.13148 -0.52131,-0.89434 -3.093,-3.95972 -5.09298,-8.9566 -5.09298,-12.72465 0,-0.5704 -0.15254,-1.16369 -0.33898,-1.31842 -0.53511,-0.4441 -0.11471,-4.29415 0.75354,-6.90107 1.53151,-4.59832 5.01804,-8.54056 8.97815,-10.15165 0.58209,-0.23681 0.86597,-0.43669 0.63086,-0.44419 -0.23511,-0.008 -1.30428,0.42501 -2.37594,0.96114 -4.00354,2.00289 -7.30527,6.59977 -8.30513,11.56294 -0.56997,2.82924 -0.57359,7.96252 -0.007,10.3416 0.89453,3.75809 2.9237,8.00379 5.44092,11.38423 0.54181,0.7276 1.36707,2.00752 1.83392,2.84427 0.88094,1.57894 1.3928,2.13308 0.65826,0.71262 z m 10.37574,-9.08021 c -0.13857,-0.36112 0.80799,-0.95898 1.51831,-0.95898 0.465,0 1.03226,-0.7042 1.13974,-1.41486 0.0474,-0.31323 0.20175,-0.6092 0.34306,-0.6577 0.14132,-0.0485 0.25694,-0.3164 0.25694,-0.59532 0,-0.27891 0.17859,-0.50712 0.39687,-0.50712 0.21828,0 0.39688,-0.23252 0.39688,-0.51671 0,-0.2842 0.10743,-0.79021 0.23874,-1.12448 0.55565,-1.4145 1.08417,-4.52821 1.08417,-6.38729 0,-2.19083 -0.43314,-4.67152 -0.81567,-4.67152 -0.13346,0 -0.24266,-0.17938 -0.24266,-0.39862 0,-0.21924 -0.31806,-0.66573 -0.70681,-0.99219 -0.38874,-0.32646 -0.89573,-0.77215 -1.12664,-0.99044 -0.23091,-0.21828 -0.91787,-0.62015 -1.52657,-0.89305 -0.6087,-0.27289 -1.17243,-0.66739 -1.25274,-0.87666 -0.0803,-0.20927 -0.26345,-0.30791 -0.40699,-0.2192 -0.14354,0.0887 -0.51671,0.0244 -0.82926,-0.14283 -0.43696,-0.23385 -0.61533,-0.22802 -0.77186,0.0252 -0.13641,0.22072 -0.60542,0.2841 -1.42156,0.19211 -0.66989,-0.0755 -1.21799,-0.0303 -1.21799,0.10047 0,0.13077 -0.32742,0.3824 -0.7276,0.55918 -2.43899,1.07744 -4.00356,4.38687 -4.22642,8.93991 -0.12857,2.62646 -0.0959,2.87074 0.55663,4.15839 0.38128,0.7524 0.69699,1.63986 0.70159,1.97212 0.0119,0.86 1.10112,1.98663 2.50063,2.58653 0.66036,0.28307 1.16966,0.65 1.13177,0.81542 -0.0379,0.16542 0.85229,0.59973 1.97816,0.96515 1.22252,0.39678 1.9787,0.77499 1.87735,0.93897 -0.0933,0.15103 -0.0563,0.20452 0.0822,0.11887 0.13857,-0.0856 0.42486,-0.0463 0.63619,0.0874 0.52336,0.33109 0.59651,0.31206 0.43349,-0.11276 z m -1.28786,20.803 c -0.0814,-2.49141 -0.0477,-2.67052 0.98615,-5.2343 1.04066,-2.58074 3.62287,-7.22513 5.65863,-10.17768 2.12623,-3.08376 2.62521,-3.97133 3.68356,-6.55232 1.99,-4.85293 2.52748,-8.94704 1.79872,-13.70125 -0.51516,-3.36076 -0.97464,-4.73256 -2.5087,-7.48987 -2.55208,-4.58709 -6.18331,-7.14202 -11.27801,-7.93519 -0.97683,-0.15208 -1.94472,-0.41649 -2.15087,-0.58758 -0.29718,-0.24664 -0.37482,-0.22216 -0.37482,0.11819 0,0.27906 -0.22663,0.42927 -0.64763,0.42927 -0.63872,0 -5.18083,1.52796 -5.43779,1.82926 -0.0728,0.0853 -0.70058,0.61182 -1.39516,1.17001 l -1.26286,1.0149 -1.44912,-0.4558 c -0.79701,-0.25069 -1.44911,-0.60894 -1.44911,-0.79611 0,-0.18716 0.35719,-0.69749 0.79375,-1.13405 0.43656,-0.43656 0.79375,-1.04806 0.79375,-1.35889 0,-0.31082 0.11906,-0.49154 0.26458,-0.40161 0.14552,0.0899 0.26459,0.39462 0.26459,0.67708 0,0.33716 0.18175,0.51355 0.52916,0.51355 0.29105,0 0.52917,-0.11907 0.52917,-0.26459 0,-0.14552 0.11906,-0.26458 0.26458,-0.26458 0.14552,0 0.26459,0.16586 0.26459,0.36857 0,0.20271 0.18833,0.44084 0.41851,0.52916 0.74232,0.28486 0.9809,0.17479 0.60607,-0.27959 -0.32927,-0.39915 -0.30762,-0.41062 0.23219,-0.12298 0.32742,0.17446 0.59531,0.20686 0.59531,0.072 0,-0.13487 -0.29766,-0.31992 -0.66146,-0.41123 -0.86412,-0.21688 -0.83252,-0.45356 0.13397,-1.00352 0.43564,-0.24789 0.79207,-0.57531 0.79207,-0.7276 0,-0.23139 -2.31953,-0.3837 -5.62239,-0.3692 -0.25466,0.001 -0.46302,-0.0967 -0.46302,-0.21741 0,-0.1207 0.23812,-0.21945 0.52916,-0.21945 0.61133,0 0.72209,-0.73633 0.14413,-0.95811 -0.54626,-0.20962 0.23816,-1.01364 1.50559,-1.5432 0.53184,-0.22222 1.06284,-0.55525 1.17999,-0.74007 0.19699,-0.31077 2.5172,-1.52748 3.58644,-1.88071 0.25466,-0.0841 0.46302,-0.27577 0.46302,-0.42586 0,-0.15008 0.23813,-0.27288 0.52917,-0.27288 0.29104,0 0.52916,-0.11609 0.52916,-0.25797 0,-0.14189 0.53578,-0.50205 1.19063,-0.80037 0.65484,-0.29831 1.19062,-0.65848 1.19062,-0.80036 0,-0.14188 0.35719,-0.25797 0.79375,-0.25797 0.43657,0 0.79375,-0.10289 0.79375,-0.22864 0,-0.2001 2.20273,-1.194 2.69875,-1.21771 0.10187,-0.005 0.33404,-0.15769 0.51594,-0.33959 0.24872,-0.24872 2.15459,-0.33073 7.68615,-0.33073 h 7.35541 v 5.29167 5.29167 h -1.82429 -1.82429 l -0.0964,1.01117 c -0.0671,0.70415 0.0449,1.16006 0.36908,1.5015 0.53205,0.56041 0.62034,1.62496 0.14782,1.78246 -0.24721,0.0824 -0.24721,0.14947 0,0.30225 0.17473,0.10799 0.3177,0.0703 0.3177,-0.0839 0,-0.64359 0.70848,-0.20866 1.15979,0.71199 0.2675,0.5457 0.59224,1.19893 0.72162,1.45162 0.12939,0.25268 0.23525,0.7587 0.23525,1.12448 0,0.41476 0.14936,0.66504 0.39688,0.66504 0.34977,0 0.39687,2.76343 0.39687,23.28334 v 23.28333 h -7.25788 -7.25789 z m 3.11199,-52.8301 c -0.1475,-0.7862 -0.0903,-0.93003 0.43357,-1.09071 0.33191,-0.10181 0.75794,-0.30884 0.94672,-0.46009 0.45089,-0.36122 -0.0543,-0.70879 -1.03846,-0.71452 -0.92733,-0.005 -1.47836,-0.64792 -1.02458,-1.19468 0.18116,-0.21828 0.22384,-0.39688 0.0949,-0.39688 -0.12899,0 -0.52886,0.47625 -0.88861,1.05834 -0.55789,0.90269 -0.78787,1.05833 -1.56379,1.05833 h -0.9097 l 0.62141,0.66146 c 0.34177,0.3638 0.49547,0.66146 0.34156,0.66146 -0.15392,0 -0.34212,0.23812 -0.41823,0.52916 -0.1132,0.43291 -0.008,0.52917 0.57769,0.52917 0.39383,0 0.85979,-0.14372 1.03545,-0.31939 0.24946,-0.24946 0.41828,-0.2205 0.77107,0.13229 0.77303,0.77303 1.2144,0.5768 1.02104,-0.45394 z m -11.53067,51.99852 c 0,-0.16109 0.10774,-0.29289 0.23941,-0.29289 0.13167,0 0.1814,-0.50602 0.11051,-1.12448 -0.19966,-1.74179 -0.26257,-1.8513 -0.87516,-1.52346 -0.68231,0.36517 -0.68001,0.14902 0.006,-0.53672 0.29635,-0.29634 0.66541,-0.46057 0.82014,-0.36494 0.18431,0.11391 0.17777,-0.0196 -0.019,-0.38723 -0.16515,-0.3086 -0.42218,-0.56109 -0.57117,-0.56109 -0.14899,0 -0.1848,-0.1393 -0.0796,-0.30955 0.12184,-0.19715 0.0555,-0.25744 -0.18283,-0.16604 -0.25167,0.0965 -0.38642,-0.0588 -0.41168,-0.47451 -0.033,-0.54247 0.01,-0.57068 0.34963,-0.23083 0.21295,0.21295 0.46202,0.38718 0.55349,0.38718 0.0915,0 0.0234,-0.14288 -0.15119,-0.3175 -0.4154,-0.4154 -0.40388,-0.74083 0.0262,-0.74083 0.18905,0 0.50041,0.44648 0.69191,0.99218 0.1915,0.54571 0.49635,1.34938 0.67743,1.78594 0.18108,0.43656 0.46559,1.12799 0.63224,1.53652 0.36884,0.90416 0.14848,1.93991 -0.44948,2.11263 -0.24234,0.07 -0.64897,0.21305 -0.90364,0.31789 -0.27692,0.114 -0.46302,0.0729 -0.46302,-0.10227 z m -14.14718,-16.69706 c -0.11374,-0.50932 -0.30649,-0.98987 -0.42833,-1.06789 -0.12185,-0.078 0.14781,-0.97098 0.59923,-1.98437 0.45142,-1.0134 0.98592,-2.25925 1.18777,-2.76858 0.20186,-0.50932 0.54248,-1.26311 0.75693,-1.67508 0.21445,-0.41198 0.38992,-0.88171 0.38992,-1.04386 0,-0.40652 -1.34797,-1.77897 -1.74725,-1.77897 -0.17893,0 -0.36538,-0.12017 -0.41434,-0.26705 -0.049,-0.14687 -0.69981,-0.30984 -1.44633,-0.36215 -0.74653,-0.0523 -1.52007,-0.19312 -1.71897,-0.31291 -0.30547,-0.18397 -0.30564,-0.14874 -0.001,0.22673 0.30826,0.38008 0.29867,0.46827 -0.0661,0.60826 -0.3504,0.13446 -0.42668,0.60581 -0.42668,2.63652 0,2.80871 -0.31483,3.76985 -1.30213,3.97517 -0.37523,0.078 -0.91717,0.19005 -1.20431,0.24891 -1.02792,0.21073 -4.13423,-0.41516 -6.52389,-1.3145 -2.61319,-0.98346 -3.06904,-1.35232 -2.46077,-1.99118 1.29308,-1.35811 4.61194,-7.48404 4.61194,-8.5127 0,-0.27024 0.10462,-0.49135 0.23248,-0.49135 0.22858,0 0.3403,-0.24852 1.1977,-2.66409 l 0.42908,-1.20887 1.38548,0.19737 c 2.28608,0.32567 3.10526,0.28324 3.10526,-0.16087 0,-0.21828 0.11906,-0.39688 0.26458,-0.39688 0.14552,0 0.26621,0.20836 0.2682,0.46303 0.002,0.25466 0.0754,0.73091 0.16315,1.05833 0.11728,0.43765 0.0463,0.59531 -0.2682,0.59531 -0.23948,0 -0.42773,0.21501 -0.42773,0.48852 0,0.44526 -0.43982,1.5696 -1.07535,2.74904 -0.39817,0.73892 -0.29141,0.99577 0.41389,0.99577 0.46009,0 0.66146,-0.1447 0.66146,-0.47531 0,-0.38196 0.3647,-0.53785 1.85699,-0.79375 1.02135,-0.17514 2.16633,-0.31844 2.5444,-0.31844 0.5573,0 0.6612,-0.10022 0.54893,-0.52953 -0.0762,-0.29124 -0.0305,-0.46281 0.10144,-0.38126 0.13195,0.0815 0.2399,-0.0871 0.2399,-0.37487 0,-0.28773 0.0629,-0.68696 0.1397,-0.88719 0.20396,-0.5315 -3.02813,-1.19713 -3.34977,-0.68987 -0.15643,0.24671 -0.2226,0.17197 -0.22546,-0.25466 -0.003,-0.38125 0.21539,-0.69204 0.59126,-0.84312 0.32743,-0.13161 0.44649,-0.24683 0.26459,-0.25606 -0.59832,-0.0303 -0.34579,-0.41012 0.52916,-0.79581 0.47295,-0.20848 1.01723,-0.5352 1.20953,-0.72605 0.19229,-0.19085 0.63878,-0.3589 0.99218,-0.37345 0.35341,-0.0146 0.91045,-0.0353 1.23788,-0.0462 0.32742,-0.0109 0.87569,0.0726 1.21837,0.18539 0.53665,0.17669 0.59869,0.32068 0.44733,1.03839 -0.72932,3.4584 -0.90154,7.98968 -0.38831,10.21691 0.25482,1.10579 0.0407,2.11307 -0.56439,2.65489 -0.0812,0.0728 -0.30766,0.54902 -0.50313,1.05834 -0.42818,1.1157 -0.98128,2.47065 -1.48872,3.647 -0.20614,0.47788 -0.3748,1.04342 -0.3748,1.25677 0,0.54337 -0.46813,0.48547 -0.60736,-0.0751 -0.0632,-0.25466 -0.0776,-0.15126 -0.032,0.22979 0.0457,0.38104 -0.0114,1.03588 -0.12672,1.4552 l -0.20974,0.76241 z m 4.62218,-22.89476 c 0,-0.22285 0.1786,-0.47372 0.39688,-0.55748 0.21828,-0.0838 0.39687,-0.32518 0.39687,-0.53648 0,-0.2113 -0.11906,-0.31059 -0.26458,-0.22066 -0.14552,0.0899 -0.26458,0.0374 -0.26458,-0.11667 0,-0.15411 -0.18642,-0.2802 -0.41427,-0.2802 -0.22785,0 -0.65226,-0.12737 -0.94313,-0.28304 -0.39684,-0.21238 -0.4574,-0.36912 -0.24262,-0.62792 0.15743,-0.18969 0.21499,-0.53053 0.12793,-0.75741 -0.24426,-0.63654 1.25772,-1.30624 2.43447,-1.08548 0.62946,0.11808 1.01439,0.0698 1.14644,-0.14387 0.15218,-0.24624 0.23069,-0.23852 0.33484,0.0329 0.17694,0.46109 -2.02352,4.51342 -2.30974,4.25357 -0.12003,-0.10897 -0.14347,0.0102 -0.0521,0.26489 0.0914,0.25466 0.0508,0.46302 -0.0901,0.46302 -0.14095,0 -0.25628,-0.18233 -0.25628,-0.40517 z M 120.51771,131.2401 v -9.51824 l 9.45885,0.002 9.45886,0.002 -0.68668,0.58676 c -0.37768,0.32272 -1.32909,1.12255 -2.11425,1.77739 -0.78516,0.65485 -2.01362,1.75618 -2.72991,2.4474 -0.71629,0.69122 -1.38231,1.25677 -1.48004,1.25677 -0.20681,0 -1.58808,1.50951 -1.58808,1.73552 0,0.28649 1.45294,-0.88374 3.30729,-2.66377 1.01864,-0.97782 2.65575,-2.42421 3.63802,-3.2142 0.98227,-0.78999 1.78594,-1.55033 1.78594,-1.68965 0,-0.15673 3.55596,-0.25009 9.32656,-0.24486 l 9.32656,0.008 -3.43958,1.73621 c -3.69931,1.86732 -9.75448,5.28649 -11.21772,6.33431 -0.69593,0.49835 -0.98123,0.57548 -1.26317,0.34149 -0.2003,-0.16624 -0.39108,-0.25552 -0.42394,-0.1984 -0.0329,0.0571 -0.19098,0.34197 -0.35136,0.63302 -0.16038,0.29104 -0.5771,0.56901 -0.92604,0.61771 -0.86061,0.12012 -1.26069,0.53221 -0.7957,0.81959 0.28262,0.17467 0.23799,0.26446 -0.20065,0.40368 -0.31027,0.0985 -0.56413,0.28703 -0.56413,0.41901 0,0.33177 -1.47872,1.06788 -1.70023,0.84637 -0.0989,-0.0989 -0.10086,0.0259 -0.004,0.27742 0.0965,0.25148 0.4687,0.53084 0.8271,0.62079 0.43828,0.11 0.56424,0.25096 0.3847,0.4305 -0.17953,0.17954 -0.40865,0.12524 -0.69972,-0.16583 -0.61258,-0.61258 -1.04836,-0.54016 -1.7742,0.29482 -0.34787,0.40018 -0.78218,0.7597 -0.96512,0.79894 -0.18295,0.0392 -0.77884,0.52656 -1.32421,1.08295 -0.54538,0.55638 -1.33584,1.09801 -1.75658,1.20361 -0.59207,0.1486 -0.6784,0.246 -0.38191,0.43091 0.24384,0.15207 -0.002,0.17896 -0.67526,0.074 -0.58208,-0.0907 -1.15355,-0.32546 -1.26992,-0.52167 -0.1321,-0.22273 -0.7036,-0.35674 -1.52135,-0.35674 -1.26306,0 -1.30977,-0.0268 -1.30977,-0.75275 0,-0.414 -0.23532,-0.9657 -0.52293,-1.22598 -0.56668,-0.51284 -0.45575,-1.05927 0.16656,-0.82047 0.22326,0.0857 0.31321,0.033 0.21501,-0.12589 -0.18566,-0.30041 0.45965,-1.42866 1.25532,-2.19475 0.27969,-0.26929 0.45816,-0.53998 0.39661,-0.60154 -0.17482,-0.17481 -0.98141,0.19501 -0.98141,0.44998 0,0.19029 -1.45037,1.86475 -3.17857,3.66969 -0.22025,0.23003 -0.69258,0.83334 -1.04963,1.3407 -0.35704,0.50736 -0.79775,1.07563 -0.97934,1.26282 -0.18159,0.1872 -0.5386,0.69321 -0.79336,1.12448 -0.25475,0.43127 -0.55658,0.78412 -0.67073,0.78412 -0.11414,0 -0.20753,-4.28321 -0.20753,-9.51824 z m 13.51114,3.95268 c 0.35647,-0.19077 0.67494,-0.18656 1.04946,0.0139 0.4889,0.26165 0.52231,0.22648 0.36819,-0.38756 -0.1291,-0.51439 -0.0681,-0.67533 0.25607,-0.67533 0.23405,0 0.42555,-0.11906 0.42555,-0.26458 0,-0.14552 -0.2282,-0.26459 -0.50711,-0.26459 -0.27892,0 -0.55721,-0.14882 -0.61844,-0.33073 -0.087,-0.25837 -0.20681,-0.25189 -0.54784,0.0296 -0.24009,0.19818 -0.6194,0.29015 -0.8429,0.20439 -0.3324,-0.12756 -0.3554,-0.0607 -0.12635,0.36727 0.19742,0.36889 0.19648,0.67929 -0.003,1.05238 -0.3188,0.59568 -0.19635,0.65287 0.54656,0.25527 z"
         id="path384" /><path
         style="fill:#b1c8d9"
         d="m 153.87655,184.61303 c 0.0555,-2.37104 -0.0258,-2.96144 -0.64715,-4.69635 -0.88766,-2.47868 -3.62548,-7.42931 -6.21864,-11.24479 -3.58013,-5.26768 -5.06634,-9.31851 -5.26315,-14.34528 -0.21043,-5.37497 0.59635,-9.02836 2.81268,-12.7368 1.83359,-3.06801 4.71382,-5.49724 7.79027,-6.57044 2.06625,-0.7208 6.68519,-0.64906 8.67192,0.13467 6.73167,2.65556 10.66014,9.97369 10.22674,19.05084 -0.22894,4.79497 -2.15925,9.99432 -5.36481,14.45032 -2.15559,2.99644 -5.18176,8.37485 -6.16292,10.95335 -0.74765,1.96483 -0.8392,2.50603 -0.8392,4.96094 v 2.75552 h -1.98438 -1.98437 l -0.0314,-2.05052 c -0.0172,-1.12779 -0.009,-2.2113 0.0177,-2.4078 0.027,-0.1965 -0.078,-0.27877 -0.23324,-0.18282 -0.16391,0.1013 -0.28228,1.11097 -0.28228,2.4078 0,1.42235 -0.10373,2.23334 -0.28565,2.23334 -0.19004,0 -0.26441,-0.90779 -0.22217,-2.71198 z m 3.51989,-7.14402 c 0.41972,-0.76383 1.12038,-2.02665 1.55702,-2.80625 0.70523,-1.25912 0.73276,-1.38473 0.24647,-1.12448 -0.69143,0.37005 -4.67982,0.38424 -5.36212,0.0191 -0.63908,-0.34202 -0.64404,-0.14396 -0.0226,0.90412 0.26901,0.45374 0.92968,1.62865 1.46815,2.61092 0.53848,0.98226 1.06251,1.78581 1.16453,1.78567 0.10202,-1.5e-4 0.52889,-0.62523 0.9486,-1.38907 z m -1.77499,-1.26577 c -0.40632,-0.72283 -0.67689,-1.41436 -0.60126,-1.53673 0.10603,-0.17156 2.55859,-0.23009 3.02735,-0.0722 0.0938,0.0316 -1.21968,2.39433 -1.51979,2.73375 -0.0921,0.10421 -0.49997,-0.40194 -0.9063,-1.12478 z m -5.08128,-3.18071 c -0.23002,-0.4448 -1.2642,-2.20097 -2.29819,-3.9026 -2.27094,-3.73727 -2.89745,-4.96441 -3.7711,-7.38637 -0.94693,-2.6251 -0.82559,-2.95818 0.21197,-0.5819 0.89901,2.05897 3.204,5.62251 4.20331,6.49839 0.30915,0.27097 0.0746,-0.13148 -0.52131,-0.89434 -3.093,-3.95972 -5.09298,-8.9566 -5.09298,-12.72465 0,-0.5704 -0.15254,-1.16369 -0.33898,-1.31842 -0.53511,-0.4441 -0.11471,-4.29415 0.75354,-6.90107 1.53151,-4.59832 5.01804,-8.54056 8.97815,-10.15165 0.58209,-0.23681 0.86597,-0.43669 0.63086,-0.44419 -0.23511,-0.008 -1.30428,0.42501 -2.37594,0.96114 -4.00354,2.00289 -7.30527,6.59977 -8.30513,11.56294 -0.56997,2.82924 -0.57359,7.96252 -0.007,10.3416 0.89453,3.75809 2.9237,8.00379 5.44092,11.38423 0.54181,0.7276 1.36707,2.00752 1.83392,2.84427 0.88094,1.57894 1.3928,2.13308 0.65826,0.71262 z m 8.94348,-6.33502 c 0.37,-0.29104 0.74428,-0.52917 0.83173,-0.52917 0.4812,0 3.85858,-3.41465 3.85858,-3.90116 0,-0.28716 0.29388,-0.42708 0.8032,-0.3824 0.078,0.007 0.16725,-0.21719 0.19843,-0.49783 0.0312,-0.28065 0.0822,-0.73487 0.1134,-1.00938 0.0359,-0.3164 0.19711,-0.44522 0.44027,-0.35191 0.25024,0.096 0.31566,0.0373 0.18819,-0.16897 -0.25525,-0.413 0.57867,-4.07147 0.98554,-4.32365 0.21754,-0.13483 0.31367,-1.32461 0.31367,-3.88216 0,-2.10247 -0.10179,-3.62494 -0.23679,-3.54165 -0.13024,0.0803 -0.17652,-0.16926 -0.10284,-0.55469 0.0737,-0.38543 0.0148,-0.70078 -0.13091,-0.70078 -0.44847,0 -0.9674,-0.8873 -0.97625,-1.66926 -0.006,-0.49872 -0.11024,-0.68028 -0.31796,-0.55191 -0.21002,0.1298 -0.25353,0.0453 -0.13532,-0.26271 0.10384,-0.2706 0.0682,-0.38847 -0.0883,-0.29177 -0.14439,0.0892 -0.20394,0.48237 -0.13233,0.87364 0.0981,0.53598 0.0242,0.46674 -0.29952,-0.2808 -0.41118,-0.94941 -0.88707,-1.32237 -0.88707,-0.69521 0,0.19847 -0.1387,0.18187 -0.41815,-0.05 -0.24668,-0.20473 -0.3695,-0.6015 -0.29952,-0.9676 0.0652,-0.34131 0.0597,-0.56163 -0.0123,-0.4896 -0.072,0.072 -0.56232,-0.0516 -1.08954,-0.27462 -1.34003,-0.56696 -4.5983,-0.54917 -6.25256,0.0341 -0.72633,0.25611 -1.58411,0.45087 -1.90617,0.4328 -0.39756,-0.0223 -0.54044,0.0847 -0.44504,0.33335 0.083,0.21624 -0.2912,0.71313 -0.91378,1.21345 -0.57987,0.46599 -1.12931,1.14609 -1.22098,1.51132 -0.0917,0.36523 -0.38909,1.15694 -0.66094,1.75934 -0.70123,1.55391 -1.09177,3.90323 -1.11594,6.71313 -0.0172,2.00342 0.52139,5.13176 0.94603,5.49465 0.17029,0.14552 0.65144,0.947 1.06923,1.78106 0.41779,0.83406 0.97938,1.58622 1.24799,1.67147 0.47765,0.1516 0.59928,0.42481 0.50361,1.13116 -0.0756,0.55791 0.54591,1.13036 1.05257,0.96956 0.54002,-0.1714 1.40048,0.57416 1.14316,0.99051 -0.60237,0.97466 2.79093,1.37678 3.94664,0.4677 z m 0.1444,18.05781 c -0.0813,-2.48676 -0.0459,-2.67566 0.98102,-5.244 1.31853,-3.29756 3.82301,-7.59407 7.77775,-13.34298 0.73985,-1.07549 2.3644,-5.07094 2.97283,-7.31142 0.75986,-2.79812 0.82177,-8.22809 0.13076,-11.46978 -1.07066,-5.02276 -3.77187,-9.16316 -7.58667,-11.62878 -0.85828,-0.55473 -1.47601,-1.10226 -1.37275,-1.21673 0.10327,-0.11447 0.0361,-0.12073 -0.14924,-0.0139 -0.18535,0.10681 -0.84019,0.0102 -1.45521,-0.2148 -0.61501,-0.22495 -1.87914,-0.53966 -2.80916,-0.69936 -0.93002,-0.15969 -1.86126,-0.46067 -2.06942,-0.66882 -0.32823,-0.32824 -0.24427,-0.37497 0.63262,-0.3521 0.87418,0.0228 0.92152,0.0528 0.34963,0.22179 -0.55571,0.16418 -0.46457,0.21284 0.57005,0.30436 0.67734,0.0599 1.17367,0.0153 1.10296,-0.0991 -0.14353,-0.23222 2.22283,-0.0854 2.46091,0.15269 0.0831,0.0831 0.33531,0.0805 0.56041,-0.006 0.2251,-0.0864 0.54088,0.0128 0.70174,0.22031 0.51624,0.66608 1.74719,1.34875 1.75173,0.97149 0.003,-0.25213 0.0621,-0.24514 0.235,0.0278 0.12702,0.20054 0.35267,0.2894 0.50143,0.19746 0.6918,-0.42756 6.07677,3.33376 5.93323,4.14426 -0.068,0.38426 0.35523,0.83651 0.79167,0.84585 0.40583,0.009 1.79503,2.57849 1.79503,3.32053 0,0.521 0.13333,0.78456 0.39688,0.78456 0.3464,0 0.39687,1.39734 0.39687,10.98851 0,9.52349 -0.0529,11.00882 -0.39687,11.14081 -0.21828,0.0838 -0.39688,0.41737 -0.39688,0.74135 0,0.32398 -0.35388,0.93632 -0.7864,1.36076 -0.43252,0.42443 -0.78971,0.92052 -0.79375,1.10243 -0.004,0.1819 -0.12641,0.33072 -0.27193,0.33072 -0.14552,0 -0.26458,0.29478 -0.26458,0.65507 0,0.78941 -0.78715,2.14788 -1.55703,2.68712 -0.3078,0.21559 -0.55964,0.61486 -0.55964,0.88725 0,0.2724 -0.15684,0.6526 -0.34854,0.8449 -0.40533,0.40658 -1.03579,2.0962 -0.8511,2.28089 0.0691,0.0691 -0.10894,0.45514 -0.39568,0.85784 -0.28674,0.40269 -0.52135,0.85498 -0.52135,1.00509 0,0.1501 -0.52772,1.02469 -1.17272,1.94353 -0.645,0.91883 -1.55285,2.38498 -2.01744,3.25811 -0.83499,1.56921 -0.83672,1.58011 -0.15019,0.94606 0.38198,-0.35278 0.69452,-0.73645 0.69452,-0.85259 0,-0.28656 2.70621,-3.66535 2.93572,-3.66535 0.10047,0 0.2512,0.1786 0.33496,0.39688 0.10431,0.27181 -0.0156,0.39687 -0.38056,0.39687 -0.46265,0 -0.51062,0.11847 -0.36415,0.89923 0.11945,0.63675 0.0591,0.96498 -0.20667,1.12448 -0.20645,0.12389 -0.53306,0.82056 -0.7258,1.54817 -0.21064,0.79518 -0.65766,1.61317 -1.12059,2.05052 -0.71389,0.67445 -0.93193,0.7276 -2.98463,0.7276 h -2.21447 z m -7.44512,-1.54978 c 0.0771,-0.20097 0.25869,-0.29219 0.40348,-0.2027 0.15355,0.0949 0.14239,-0.0631 -0.0268,-0.37923 -0.15952,-0.29806 -0.2107,-0.74868 -0.11373,-1.00138 0.11031,-0.28747 0.0728,-0.39548 -0.10017,-0.28857 -0.16481,0.10186 -0.27647,-0.10343 -0.27647,-0.50833 0,-0.37356 -0.25657,-1.02623 -0.57016,-1.45038 -0.31359,-0.42416 -0.44335,-0.77119 -0.28835,-0.77119 0.19689,0 0.19906,-0.15463 0.007,-0.51311 -0.15754,-0.29436 -0.17354,-0.57557 -0.0375,-0.65963 0.1304,-0.0806 0.31304,0.18008 0.40589,0.57926 0.0928,0.39917 0.38816,1.20202 0.65625,1.78411 1.17992,2.56191 1.24527,3.39865 0.28505,3.64976 -0.33357,0.0872 -0.44114,0.0128 -0.34469,-0.23861 z M 127.9271,163.31626 c -0.50874,-0.0614 -1.04452,-0.20453 -1.19062,-0.31814 -0.14611,-0.11362 -0.95026,-0.41784 -1.787,-0.67606 -0.83675,-0.25822 -1.52136,-0.56397 -1.52136,-0.67945 0,-0.11548 -0.26789,-0.24801 -0.59531,-0.29451 -0.71584,-0.10167 -0.75152,-0.45498 -0.13154,-1.30259 0.25508,-0.34872 0.63824,-0.87217 0.85148,-1.16321 0.51035,-0.69655 0.53158,0.001 0.0277,0.91111 -0.32547,0.58767 -0.29926,0.69279 0.28789,1.15465 0.35528,0.27946 0.7288,0.42527 0.83005,0.32402 0.10125,-0.10124 -0.005,-0.32318 -0.2355,-0.49318 -0.45094,-0.33219 -0.5768,-1.23514 -0.17217,-1.23514 0.13489,0 0.30997,0.24745 0.38906,0.5499 0.1366,0.52236 0.25789,0.54041 2.42262,0.36038 1.89339,-0.15747 2.34478,-0.28404 2.66877,-0.74834 0.59688,-0.85536 1.86591,-1.95109 2.76741,-2.38948 l 0.8114,-0.39457 0.18319,0.98033 c 0.28146,1.5062 0.24547,3.66378 -0.0727,4.36221 -0.49449,1.08529 -2.34339,1.43682 -5.53334,1.05207 z m 12.31967,-4.98718 c -0.10986,-0.4377 -0.3043,-0.63477 -0.53788,-0.54513 -0.52028,0.19965 -1.26149,-0.9828 -0.86475,-1.37953 0.22392,-0.22393 0.19936,-0.30024 -0.0966,-0.30024 -0.21828,0 -0.52571,0.12884 -0.68318,0.2863 -0.20536,0.20536 -0.42608,0.19902 -0.78065,-0.0224 -0.39205,-0.24484 -0.47458,-0.55717 -0.39884,-1.5094 0.0645,-0.81099 -0.0213,-1.2747 -0.26446,-1.42874 -0.26365,-0.16705 -0.20068,-0.22915 0.23536,-0.23212 0.86055,-0.006 0.73447,-0.53001 -0.13229,-0.54999 -0.65928,-0.0152 -0.67579,-0.0377 -0.1758,-0.23996 0.69132,-0.27962 3.38323,0.31752 3.93964,0.87392 0.26358,0.26359 0.40979,0.93706 0.42194,1.9436 0.0102,0.84714 0.11232,1.77838 0.22687,2.06942 0.20746,0.5271 -0.15583,1.71979 -0.52384,1.71979 -0.10638,0 -0.27085,-0.30848 -0.36548,-0.68551 z m -11.2624,-0.87873 c 0,-0.13273 -0.47625,-0.32179 -1.05833,-0.42013 -0.78118,-0.13198 -1.05833,-0.3048 -1.05833,-0.65994 0,-0.33901 -0.14555,-0.44308 -0.49268,-0.35231 -0.71369,0.18664 -0.8629,-0.49799 -0.34789,-1.59624 0.41627,-0.88767 0.52137,-0.94669 1.70046,-0.95477 0.69123,-0.005 1.25677,0.11045 1.25677,0.25597 0,0.14552 0.47625,0.26458 1.05834,0.26458 0.99953,0 1.05833,0.0441 1.05833,0.79375 0,0.43656 -0.11906,0.79375 -0.26458,0.79375 -0.14552,0 -0.26459,0.15486 -0.26459,0.34413 0,0.70312 -0.67664,1.76848 -1.12447,1.77047 -0.25467,0.001 -0.46303,-0.10653 -0.46303,-0.23926 z m 1.97237,-6.65727 c -0.0601,-0.0972 -0.4987,-0.2611 -0.97467,-0.36413 l -0.8654,-0.18733 0.92604,-0.44167 c 0.50932,-0.24292 0.98584,-0.52026 1.05894,-0.61631 0.0731,-0.0961 0.57911,-0.25835 1.12448,-0.36067 0.76518,-0.14355 0.99158,-0.10076 0.99158,0.18739 0,0.20537 -0.10751,0.48651 -0.2389,0.62476 -0.1314,0.13824 -0.28184,0.48947 -0.33433,0.78052 -0.0679,0.37661 -0.3092,0.53278 -0.83694,0.5417 -0.40784,0.007 -0.7907,-0.067 -0.8508,-0.16426 z m 9.14013,-0.95888 c 0,-0.12285 -0.53578,-0.51605 -1.19062,-0.87377 -1.19212,-0.65123 -1.50992,-1.05834 -0.82615,-1.05834 0.53549,0 1.05986,-0.69984 0.69386,-0.92604 -0.5405,-0.33404 0.28751,-0.92622 1.28916,-0.92199 1.51181,0.006 1.60117,0.15784 1.24585,2.11155 -0.22698,1.24807 -0.43574,1.74244 -0.76234,1.80534 -0.24736,0.0476 -0.44976,-0.0139 -0.44976,-0.13675 z m 2.51355,-6.69461 c 0.0899,-0.14552 -0.009,-0.26458 -0.22067,-0.26458 -0.2113,0 -0.45645,-0.18833 -0.54478,-0.41851 -0.22387,-0.58341 -0.20076,-1.43991 0.0378,-1.40224 0.56524,0.0892 0.82725,-0.0731 0.69099,-0.42821 -0.10781,-0.28096 0.0298,-0.40278 0.47133,-0.41712 0.34299,-0.0111 0.84032,-0.0614 1.10517,-0.1116 0.44909,-0.0852 0.45296,-0.0526 0.0574,0.48327 -0.23329,0.31604 -0.66392,1.08063 -0.95696,1.6991 -0.29303,0.61846 -0.59377,1.12448 -0.66831,1.12448 -0.0745,0 -0.0619,-0.11906 0.028,-0.26459 z m 3.45513,-5.58142 c 0.0817,-0.13222 -0.17357,-0.36288 -0.56731,-0.51258 l -0.7159,-0.27219 0.56768,-0.60427 c 0.31223,-0.33234 0.56769,-0.75082 0.56769,-0.92993 0,-0.35479 1.91561,-0.13445 2.0632,0.23732 0.0434,0.10921 0.34102,0.13858 0.66146,0.0653 0.43465,-0.0994 0.28024,0.13776 -0.608,0.93396 -1.09132,0.97826 -2.32291,1.65538 -1.96882,1.08243 z m -23.09235,-1.78473 -0.27196,-0.96822 -0.0334,0.85989 c -0.0319,0.82126 -0.081,0.8599 -1.09177,0.8599 h -1.05833 v -1.05833 c 0,-0.58209 0.11906,-1.05834 0.26458,-1.05834 0.14552,0 0.26837,-0.50601 0.273,-1.12448 0.005,-0.61846 0.18322,-1.35559 0.39687,-1.63807 0.37963,-0.50191 0.38846,-0.50041 0.38846,0.0661 0,0.31886 0.13181,0.57974 0.2929,0.57974 0.16109,0 0.22011,-0.18966 0.13116,-0.42146 -0.45031,-1.17349 -0.49952,-1.78079 -0.13293,-1.64048 0.26235,0.10042 0.38737,-0.0991 0.42878,-0.6841 0.0321,-0.45421 0.28745,-1.01333 0.56735,-1.24249 0.27991,-0.22915 0.82233,-1.00306 1.20538,-1.71979 0.38306,-0.71673 0.90166,-1.61157 1.15244,-1.98854 0.25078,-0.37697 0.78488,-1.18064 1.18689,-1.78594 l 0.73092,-1.10054 h 5.81752 c 3.19963,0 5.81751,0.0548 5.81751,0.12177 0,0.067 -0.98227,0.91165 -2.18281,1.87708 -3.58041,2.87919 -11.04636,9.88672 -11.04636,10.36808 0,0.39197 -0.91946,1.12682 -1.40989,1.12682 -0.29001,0 -0.44219,0.21791 -0.44219,0.63315 0,1.06483 -0.67963,1.02214 -0.98409,-0.0618 z m -2.44708,-8.97187 -0.008,-5.09323 h 3.20543 3.20543 l -0.46232,0.72761 c -0.25428,0.40018 -0.74422,1.10661 -1.08876,1.56984 -0.34455,0.46324 -0.62645,0.90375 -0.62645,0.97893 0,0.0752 -0.35719,0.66593 -0.79375,1.31279 -0.43656,0.64687 -0.79375,1.29776 -0.79375,1.44643 0,0.14867 -0.0893,0.30999 -0.19844,0.3585 -0.25972,0.11543 -1.65364,2.26113 -1.65364,2.54549 0,0.12083 -0.17481,0.45081 -0.38846,0.73328 -0.34598,0.45742 -0.38938,-0.0434 -0.39688,-4.57964 z m 21.13424,2.63946 c -0.87883,-0.40103 -2.09265,-1.63372 -2.09265,-2.12517 0,-0.44032 -0.26008,-0.53769 -1.85643,-0.69499 -1.88894,-0.18613 -2.90607,-0.0472 -2.90607,0.39697 0,0.13571 -0.12462,0.24675 -0.27694,0.24675 -0.15231,0 -0.063,-0.28539 0.19844,-0.63419 0.26145,-0.34881 0.5545,-0.5862 0.65121,-0.52752 0.0967,0.0587 0.22618,-0.0429 0.2877,-0.2257 0.0876,-0.26038 0.20716,-0.25372 0.55177,0.0307 0.37285,0.30778 0.44052,0.30778 0.44395,0 0.002,-0.21872 0.0814,-0.25791 0.19844,-0.0985 0.11133,0.15153 1.58625,0.26458 3.45204,0.26458 h 3.25765 l -0.94255,-0.86346 c -0.5184,-0.4749 -0.94255,-0.98091 -0.94255,-1.12448 0,-0.25185 -1.41126,-0.37457 -3.03017,-0.26349 -0.69831,0.0479 -0.74274,0.007 -0.41864,-0.38329 0.19942,-0.24028 0.6105,-0.56677 0.91351,-0.72552 0.54521,-0.28564 0.5457,-0.28274 0.0469,0.27903 -0.79422,0.8945 -0.0989,0.66252 1.10631,-0.3691 l 1.0944,-0.93677 8.22241,0.0368 8.22242,0.0368 -1.66242,0.80626 c -0.91433,0.44345 -1.70211,0.90797 -1.75062,1.03227 -0.0485,0.1243 -0.22887,0.226 -0.40081,0.226 -0.45229,0 -3.71126,1.61395 -3.92495,1.94377 -0.0994,0.15333 -0.63513,0.26911 -1.19063,0.2573 -0.69899,-0.0149 -0.84982,0.0372 -0.48982,0.16901 0.43664,0.1599 0.297,0.30259 -0.86954,0.88851 -0.76435,0.38391 -1.92452,1.06597 -2.57817,1.51568 -1.21937,0.83895 -2.5691,1.18176 -3.31419,0.84175 z"
         id="path383" /><path
         style="fill:#a5b8c9"
         d="m 153.8759,184.48074 c 0.0501,-2.63105 -0.008,-3.00219 -0.77546,-4.95089 -1.06113,-2.69441 -3.55013,-7.13739 -6.08003,-10.85312 -3.53977,-5.19898 -5.07059,-9.34359 -5.27449,-14.28037 -0.16751,-4.0559 0.26656,-7.04946 1.43553,-9.90005 1.53449,-3.74193 3.31649,-6.01159 6.27578,-7.99316 2.24812,-1.50536 3.98077,-1.9662 7.30839,-1.94386 3.24922,0.0218 4.75535,0.49592 7.38161,2.3236 2.05058,1.42705 3.33799,2.969 4.75843,5.69927 1.76418,3.39097 2.22348,5.51844 2.23382,10.34702 0.008,3.68805 -0.0611,4.32942 -0.68539,6.3689 -1.03195,3.37131 -2.25291,5.85091 -4.55055,9.24151 -2.69578,3.97812 -5.15094,8.38082 -6.21429,11.14373 -0.77587,2.01592 -0.85045,2.46452 -0.81964,4.92971 l 0.0339,2.71198 h -1.99498 -1.99498 v -2.39686 c 0,-1.53054 -0.0956,-2.33776 -0.26458,-2.23335 -0.14552,0.0899 -0.26459,1.16853 -0.26459,2.39687 0,1.4011 -0.10483,2.23334 -0.28132,2.23334 -0.18462,0 -0.2627,-0.97767 -0.22715,-2.84427 z m 3.52054,-7.01173 c 0.41972,-0.76383 1.11334,-2.01435 1.54139,-2.77892 l 0.77827,-1.39013 -0.69871,0.26565 c -0.9154,0.34803 -4.52461,0.34229 -5.17958,-0.008 -0.28147,-0.15064 -0.51177,-0.19823 -0.51177,-0.10575 0,0.3178 2.94028,5.40673 3.12375,5.40646 0.10095,-1.5e-4 0.52694,-0.62523 0.94665,-1.38907 z m -1.76345,-1.38879 -0.7137,-1.45521 h 1.45233 c 0.85681,0 1.45234,0.1163 1.45234,0.28362 0,0.24914 -1.29006,2.6268 -1.42524,2.6268 -0.0286,0 -0.37319,-0.65485 -0.76573,-1.45521 z m -4.36432,-1.78594 c -1.62223,-3.01427 -3.41034,-6.06061 -4.53865,-7.73232 -0.85839,-1.2718 -2.28113,-4.57924 -2.06345,-4.79692 0.24401,-0.24401 1.02849,1.46556 0.82419,1.79612 -0.10638,0.17213 -0.0658,0.22463 0.0963,0.12447 0.15645,-0.0967 0.58201,0.34162 0.96318,0.99203 0.94927,1.61981 3.18268,4.00443 4.63321,4.94688 0.66909,0.43473 0.85935,0.52 0.42279,0.18948 -2.71894,-2.05849 -5.90958,-6.3785 -6.93613,-9.39126 -0.3477,-1.02044 -0.46229,-1.15688 -0.61754,-0.73524 -0.12873,0.34964 -0.1832,0.17414 -0.16778,-0.54063 0.0309,-1.43241 -0.58796,-5.7041 -0.91388,-6.30806 -0.14461,-0.26797 -0.23508,-1.28001 -0.20105,-2.24896 0.22232,-6.3301 4.45519,-12.71699 9.89471,-14.92995 0.58209,-0.23681 0.85924,-0.43669 0.61589,-0.44419 -0.24334,-0.008 -1.41345,0.48422 -2.60025,1.09272 -7.22879,3.70635 -10.5359,14.22198 -7.49975,23.84694 0.86172,2.73175 2.27785,5.53911 4.16253,8.25191 0.8088,1.16417 2.19859,3.39659 3.08843,4.96094 1.82337,3.20547 2.41789,3.86306 0.83724,0.92604 z m 7.21674,-4.54405 c 0.29105,-0.0595 0.6255,-0.11813 0.74322,-0.13025 0.11773,-0.0121 0.12797,-0.16135 0.0228,-0.3316 -0.12437,-0.20122 -0.0527,-0.25634 0.20487,-0.15752 0.22754,0.0873 0.39618,0.005 0.39618,-0.19439 0,-0.19524 -0.18283,-0.28881 -0.41892,-0.2144 -0.36558,0.11521 -0.36839,0.0957 -0.0221,-0.15346 0.21828,-0.15702 0.59134,-0.28732 0.82903,-0.28955 0.23769,-0.002 0.49444,-0.24217 0.57055,-0.53322 0.0843,-0.32242 0.36089,-0.52916 0.70793,-0.52916 0.31325,0 0.49918,0.11386 0.41317,0.25303 -0.086,0.13916 -0.33116,0.18595 -0.54478,0.10398 -0.21362,-0.082 -0.3884,-0.0278 -0.3884,0.12044 0,0.29485 0.66376,0.26989 0.97014,-0.0365 0.3435,-0.3435 0.3113,-0.93762 -0.0434,-0.80149 -0.18921,0.0726 -0.40999,0.0252 -0.49063,-0.10523 -0.0807,-0.13048 0.25081,-0.22405 0.73657,-0.20793 0.66883,0.0222 0.84756,-0.0636 0.73636,-0.35337 -0.0871,-0.22686 -0.033,-0.31232 0.13272,-0.20989 0.15376,0.095 0.44189,-0.0343 0.64028,-0.28733 0.32147,-0.41006 0.31332,-0.42308 -0.0749,-0.11971 -0.37971,0.2967 -0.43066,0.25711 -0.39687,-0.30848 0.0213,-0.35688 0.0886,-0.59909 0.14958,-0.53825 0.0609,0.0608 0.3493,-0.098 0.64079,-0.35299 0.29148,-0.25497 0.45521,-0.33461 0.36384,-0.17696 -0.0914,0.15765 0.002,0.28663 0.20746,0.28663 0.20548,0 0.30906,-0.10443 0.23017,-0.23208 -0.0789,-0.12764 0.003,-0.40833 0.18163,-0.62375 0.17879,-0.21542 0.24761,-0.46914 0.15294,-0.56381 -0.0947,-0.0947 0.15625,-0.402 0.55761,-0.68297 0.40135,-0.28096 0.52138,-0.44249 0.26671,-0.35895 -0.50719,0.16639 -0.54062,0.0388 -0.19843,-0.75754 0.21159,-0.4924 0.22868,-0.49474 0.24598,-0.0337 0.0155,0.4132 0.0855,0.43994 0.42145,0.16109 0.22386,-0.18579 0.33626,-0.54413 0.25298,-0.80651 -0.0915,-0.28822 0.0247,-0.56987 0.29822,-0.72294 0.2867,-0.16044 0.3967,-0.44724 0.30542,-0.7963 -0.089,-0.34031 0.004,-0.60195 0.24813,-0.6955 0.29594,-0.11356 0.35329,-0.42277 0.23625,-1.27386 -0.0967,-0.70319 -0.0721,-0.9301 0.0656,-0.60617 0.18165,0.42712 0.25044,0.33452 0.39306,-0.52917 0.44349,-2.68566 -0.14219,-8.82674 -0.86479,-9.06763 -0.13733,-0.0458 -0.18156,-0.2608 -0.0983,-0.47783 0.084,-0.21903 -0.0992,-0.62803 -0.41174,-0.91925 -0.60546,-0.56407 -0.75572,-0.91888 -0.25919,-0.612 0.16719,0.10332 0.0331,-0.29411 -0.29799,-0.88318 -0.57688,-1.02643 -1.62422,-1.80035 -1.96934,-1.45523 -0.3688,0.3688 -1.09824,0.2139 -1.09824,-0.23321 0,-0.3498 0.0849,-0.39567 0.34017,-0.1838 0.24901,0.20666 0.34127,0.185 0.34423,-0.0808 0.003,-0.28522 0.0591,-0.27797 0.26054,0.0337 0.22798,0.35278 0.25738,0.35278 0.26458,0 0.007,-0.35278 0.0366,-0.35278 0.26458,0 0.14107,0.21828 0.25831,0.26263 0.26053,0.0985 0.007,-0.48262 -0.71011,-0.97053 -0.92199,-0.62771 -0.27167,0.43959 -0.92506,-0.20424 -0.75804,-0.74694 0.10946,-0.35568 0.075,-0.34745 -0.17355,0.0415 -0.29571,0.46264 -0.34159,0.4565 -0.98869,-0.13229 -0.37322,-0.33959 -0.59283,-0.46862 -0.48801,-0.28672 0.12777,0.22176 3.8e-4,0.33073 -0.38661,0.33073 -0.48712,0 -0.52496,-0.0629 -0.2425,-0.40326 0.18408,-0.2218 0.25819,-0.47977 0.16469,-0.57327 -0.0935,-0.0935 -0.16999,-0.0311 -0.16999,0.13869 0,0.19156 -0.47359,0.30868 -1.24824,0.30868 -0.68653,0 -2.47247,0.26605 -3.96875,0.59124 -2.20034,0.47819 -2.72051,0.68055 -2.72051,1.05833 0,0.2569 -0.0954,0.46709 -0.21209,0.46709 -0.37757,0 -2.69833,2.40456 -2.69833,2.79576 0,0.20858 -0.11906,0.37924 -0.26458,0.37924 -0.14552,0 -0.26459,0.18021 -0.26459,0.40047 0,0.22026 -0.10507,0.60721 -0.2335,0.8599 -1.15339,2.26931 -1.354,3.37388 -1.354,7.45524 0,4.24796 0.23165,5.35352 1.7604,8.40168 0.40439,0.80632 0.32879,1.8459 -0.11433,1.57204 -0.11537,-0.0713 -0.20976,0.091 -0.20976,0.36067 0,0.26968 0.0834,0.43879 0.18529,0.37581 0.10191,-0.063 0.25389,0.035 0.33774,0.21786 0.0838,0.18281 0.0892,0.0745 0.0118,-0.24067 -0.24754,-1.00884 0.41302,-0.96676 1.32641,0.0845 0.48633,0.55974 0.77771,1.05709 0.64751,1.10521 -0.1302,0.0481 0.32787,0.48273 1.01794,0.96579 0.69008,0.48306 1.22492,1.00923 1.18854,1.16927 -0.0364,0.16004 0.23151,0.29098 0.59531,0.29098 0.3638,0 0.66146,0.11907 0.66146,0.26459 0,0.14552 0.30468,0.26458 0.67707,0.26458 0.38401,0 0.60629,0.11452 0.51355,0.26458 -0.0899,0.14553 -0.008,0.27646 0.18282,0.29096 0.19049,0.0145 0.0487,0.13004 -0.31511,0.25674 -0.5171,0.18008 -0.43049,0.20275 0.39687,0.10388 0.58209,-0.0696 1.29646,-0.17517 1.5875,-0.23469 z m 1.19063,14.82921 c 0,-2.46224 0.086,-2.96053 0.83328,-4.82864 0.73283,-1.83198 4.29355,-8.4763 4.73201,-8.82995 0.4739,-0.38224 3.29129,-4.81716 3.98918,-6.27946 2.67901,-5.61336 3.42369,-10.52857 2.45887,-16.22965 -0.86054,-5.08491 -3.34779,-9.43869 -6.98626,-12.22902 -0.55841,-0.42825 -0.76203,-0.71134 -0.51291,-0.71311 0.22722,-0.002 0.64394,0.21144 0.92604,0.47345 0.56241,0.52235 1.44695,0.95823 1.78962,0.88189 0.12011,-0.0268 0.14208,0.22223 0.0488,0.55331 -0.12737,0.45215 -0.10342,0.50581 0.0962,0.2156 0.22843,-0.33208 0.34236,-0.31703 0.81108,0.10716 0.29993,0.27143 0.54532,0.71318 0.54532,0.98166 0,0.26849 0.12609,0.48816 0.2802,0.48816 0.15411,0 0.1912,-0.14882 0.0824,-0.33073 -0.10877,-0.1819 0.12535,-0.0331 0.52027,0.33073 0.39492,0.36381 0.91116,1.05681 1.1472,1.54002 0.32355,0.66236 0.48993,0.79257 0.67613,0.52916 0.16461,-0.23286 0.19219,-0.0993 0.0827,0.40039 -0.10323,0.47109 -0.0658,0.68889 0.10075,0.58597 0.32423,-0.20039 1.22684,1.5125 1.61906,3.07252 0.15875,0.63139 0.40811,1.62424 0.55416,2.20632 0.51756,2.0629 0.73094,4.54917 0.74436,8.67341 0.0113,3.47612 -0.0529,4.201 -0.38329,4.32778 -0.26546,0.10187 -0.39688,0.51964 -0.39688,1.2617 0,0.61017 -0.1059,1.22251 -0.23533,1.36076 -0.12943,0.13824 -0.5039,0.99915 -0.83216,1.91312 -0.32826,0.91398 -0.69861,1.72468 -0.82301,1.80155 -0.12439,0.0769 -0.22616,0.36497 -0.22616,0.64019 0,0.27522 -0.15814,0.59562 -0.35142,0.71199 -0.19329,0.11637 -0.58024,0.62494 -0.8599,1.13015 -0.27966,0.50521 -0.76623,1.20744 -1.08125,1.5605 -0.31503,0.35306 -0.7796,1.10056 -1.03238,1.66112 -0.25277,0.56055 -0.56057,1.01919 -0.68399,1.01919 -0.12342,0 -0.2244,0.21698 -0.2244,0.48218 0,0.53012 -1.55715,3.56601 -1.9014,3.70705 -0.1184,0.0485 -0.21948,0.34617 -0.22464,0.66146 -0.005,0.3153 -0.17953,0.87092 -0.3875,1.23473 -0.50756,0.88787 -0.49015,1.32291 0.0529,1.32291 0.37041,0 0.38792,0.0584 0.0992,0.33073 -0.28046,0.26458 -0.37483,0.26458 -0.47184,0 -0.0667,-0.1819 -0.30562,-0.33073 -0.53093,-0.33073 -0.32522,0 -0.3804,0.21818 -0.26772,1.05834 0.0858,0.64003 0.0345,1.05833 -0.12985,1.05833 -0.17215,0 -0.16172,0.13264 0.0284,0.36177 0.22837,0.27517 0.20446,0.44127 -0.0999,0.69385 -0.22008,0.18265 -0.40014,0.4961 -0.40014,0.69657 0,0.20046 -0.0893,0.36523 -0.19844,0.36615 -0.26668,0.002 -1.17677,1.62173 -1.00684,1.79166 0.0738,0.0738 0.32161,-0.0214 0.55071,-0.21155 0.3471,-0.28807 0.48995,-0.2723 0.85684,0.0946 0.41066,0.41067 0.31186,0.44029 -1.46849,0.44029 h -1.90878 z M 129.5402,160.69522 c 0.23214,-0.2695 0.49764,-0.70271 0.58999,-0.96269 0.0924,-0.25998 0.52642,-0.6767 0.96458,-0.92604 0.43817,-0.24935 0.79743,-0.53959 0.79835,-0.645 9.2e-4,-0.1054 0.35886,-0.37635 0.79542,-0.6021 l 0.79375,-0.41047 v 1.32121 1.32121 l -1.37107,-0.0576 c -1.26425,-0.0532 -1.38361,-0.006 -1.5322,0.60381 -0.10758,0.44165 -0.3771,0.6924 -0.81102,0.75458 -0.60997,0.0874 -0.62396,0.063 -0.2278,-0.39687 z m -8.99503,-34.02594 -0.0557,-4.96094 h 2.92452 c 2.04885,0 2.92452,0.0923 2.92452,0.30814 0,0.16947 -0.77391,1.45956 -1.71979,2.86686 -0.94589,1.40731 -1.71979,2.62945 -1.71979,2.71587 0,0.0864 -0.45811,0.85016 -1.01803,1.69719 -0.55991,0.84704 -1.07699,1.71866 -1.14906,1.93694 -0.0721,0.21829 -0.15609,-1.83554 -0.1867,-4.56406 z m 14.26004,-1.98772 c 0,-0.11098 0.29765,-0.42532 0.66146,-0.69852 0.72835,-0.54697 0.88907,-1.02252 0.26458,-0.78288 -0.43251,0.16597 -0.47279,0.009 -0.23011,-0.8965 0.145,-0.54107 0.31856,-0.59532 1.90462,-0.59532 h 1.74508 l -0.91604,0.783 c -0.50383,0.43065 -1.00535,0.78784 -1.11449,0.79375 -0.10914,0.006 -0.42803,0.21911 -0.70864,0.47377 -1.24105,1.12629 -1.60646,1.33617 -1.60646,0.9227 z"
         id="path382" /><path
         style="fill:#9ca4ac"
         d="m 153.8806,184.48074 c 0.0572,-2.64627 0.003,-2.99092 -0.77419,-4.95089 -1.06611,-2.68771 -3.56199,-7.14557 -6.03786,-10.78414 -2.74917,-4.04021 -4.38095,-7.76725 -5.11576,-11.68451 -0.42842,-2.28391 -0.21451,-7.85641 0.38694,-10.07994 2.06021,-7.61654 7.61189,-12.55762 14.12312,-12.56978 8.02186,-0.015 14.10814,6.96793 14.76139,16.93604 0.38703,5.90574 -1.24729,11.19993 -5.28948,17.13467 -2.71749,3.98982 -5.19746,8.42245 -6.24936,11.16991 -0.78576,2.05235 -0.85757,2.48604 -0.82147,4.96093 l 0.0396,2.71198 h -1.97157 -1.97157 l -0.0958,-2.84427 c -0.0767,-2.27806 -0.22026,-3.12239 -0.72091,-4.24138 -0.84139,-1.88056 -0.96686,-1.59631 -0.21919,0.49656 0.50326,1.40876 0.58986,2.10676 0.51383,4.1417 -0.0519,1.38939 -0.20549,2.44739 -0.35527,2.44739 -0.16283,0 -0.24031,-1.08884 -0.20239,-2.84427 z m 4.57172,-8.88403 c 0.95374,-1.75735 1.16056,-2.3143 0.79375,-2.13753 -0.64204,0.30941 -5.10977,0.31093 -5.74955,0.002 -0.4232,-0.20437 -0.40226,-0.0947 0.15172,0.79411 0.35349,0.56718 1.10996,1.9027 1.68106,2.96783 1.20587,2.24903 0.94644,2.38413 3.12302,-1.62636 z m -2.77759,0.49274 -0.69403,-1.33621 1.42163,-0.0742 c 0.78189,-0.0408 1.42163,0.0236 1.42163,0.14306 0,0.11949 -0.32743,0.19948 -0.72761,0.17775 -0.73936,-0.0401 -1.38906,0.29471 -1.38906,0.71588 0,0.1277 0.12609,0.23219 0.2802,0.23219 0.15411,0 0.20661,-0.11906 0.11667,-0.26458 -0.0899,-0.14553 -0.0247,-0.26459 0.14499,-0.26459 0.16968,0 0.23997,0.1786 0.15621,0.39688 -0.0838,0.21828 -0.0331,0.39687 0.11251,0.39687 0.14564,0 0.36042,-0.25848 0.47729,-0.5744 0.11687,-0.31592 0.27277,-0.46475 0.34645,-0.33073 0.0737,0.13402 -0.11508,0.66546 -0.41945,1.18098 l -0.55341,0.93731 z m -3.47087,-0.19572 c -0.36152,-0.62503 -1.04712,-1.8508 -1.52355,-2.72393 -1.43579,-2.63129 -3.76296,-6.48733 -4.00574,-6.63738 -0.12523,-0.0774 -0.2277,-0.35724 -0.2277,-0.62188 0,-0.26463 -0.17859,-0.62937 -0.39687,-0.81053 -0.47968,-0.3981 -0.5301,-1.14943 -0.0662,-0.98576 0.1819,0.0642 0.31441,0.31094 0.29446,0.54837 -0.02,0.23758 0.0876,0.35511 0.23932,0.26137 0.17169,-0.10611 0.19489,-0.0397 0.0615,0.17602 -0.14164,0.22918 -0.11072,0.28248 0.0914,0.15756 0.168,-0.10383 0.30546,-0.083 0.30546,0.0463 0,0.12931 0.67207,0.97777 1.49349,1.88547 1.72131,1.90211 5.07756,4.27752 5.96904,4.22462 0.59503,-0.0353 0.59429,-0.0385 -0.0367,-0.15707 -0.8478,-0.15935 -4.16483,-2.42455 -5.19796,-3.54968 -1.42255,-1.54924 -2.7101,-3.51644 -3.80118,-5.80769 -1.2401,-2.60419 -1.7402,-4.40277 -2.00251,-7.20203 -0.10477,-1.1181 -0.29557,-2.03292 -0.42399,-2.03292 -0.35526,0 -0.27021,-2.82618 0.1438,-4.77921 1.17038,-5.52092 4.94323,-10.3535 9.54457,-12.22546 0.58209,-0.23681 0.85924,-0.43669 0.61589,-0.44419 -0.24334,-0.008 -1.40828,0.48157 -2.58876,1.08683 -4.32797,2.21904 -7.2333,6.58637 -8.25202,12.40456 -0.91855,5.2461 -0.24041,9.96901 2.15537,15.01107 0.92125,1.93882 1.69411,3.19813 4.30533,7.01518 0.37744,0.55174 1.36833,2.24892 2.20197,3.77152 0.83364,1.5226 1.57041,2.71367 1.63726,2.64682 0.0668,-0.0669 -0.17424,-0.63294 -0.53576,-1.25798 z m 12.37959,-6.15653 c 0.81283,-1.06568 0.81534,-1.3299 0.0127,-1.3299 -0.34991,0 -0.5685,0.10953 -0.48577,0.2434 0.0827,0.13387 -0.0439,0.16884 -0.28137,0.0777 -0.23749,-0.0911 -0.49574,-0.0623 -0.57388,0.0642 -0.0781,0.12643 0.16292,0.19639 0.53567,0.15547 0.50067,-0.0549 0.63927,0.0259 0.53047,0.30938 -0.081,0.21108 -0.14726,0.51586 -0.14726,0.67729 0,0.16143 -0.15308,0.0842 -0.34018,-0.17171 -0.3183,-0.4353 -0.34342,-0.43005 -0.39058,0.0817 -0.10704,1.16175 -0.15874,1.3407 -0.38729,1.3407 -0.12985,0 -0.16252,0.11906 -0.0726,0.26458 0.0899,0.14552 0.0304,0.26459 -0.13229,0.26459 -0.1627,0 -0.23057,0.10557 -0.15082,0.2346 0.0797,0.12903 -0.0323,0.38174 -0.24897,0.56156 -0.21668,0.17983 -0.39365,0.52074 -0.39328,0.75759 3.7e-4,0.23684 0.42277,-0.26938 0.93866,-1.12493 0.51589,-0.85555 1.22996,-1.93835 1.58682,-2.40622 z m -4.2947,-0.81035 c 1.0769,-0.64069 1.71357,-1.18274 1.63638,-1.39318 -0.0695,-0.18946 -0.0231,-0.28069 0.10299,-0.20273 0.35793,0.22121 2.73177,-2.45061 2.51391,-2.82947 -0.10358,-0.18012 -0.0903,-0.23863 0.0295,-0.13001 0.36624,0.33199 2.05463,-2.62874 2.97937,-5.22457 0.87359,-2.45224 1.10917,-7.47719 0.48998,-10.45105 -0.49005,-2.35363 -2.30185,-6.09917 -3.39542,-7.01935 -0.42719,-0.35946 -0.69199,-0.65356 -0.58844,-0.65356 0.10355,0 -0.11446,-0.23813 -0.48446,-0.52917 -0.37,-0.29104 -0.75988,-0.52917 -0.86641,-0.52917 -0.10652,0 -0.36446,-0.20836 -0.5732,-0.46302 -0.20873,-0.25466 -0.30357,-0.31329 -0.21075,-0.13028 0.13321,0.26263 0.0276,0.26841 -0.50125,0.0275 -0.36851,-0.16791 -0.60719,-0.40694 -0.5304,-0.53118 0.14115,-0.22839 -0.41909,-0.34433 -1.29606,-0.26821 -0.26311,0.0228 -0.40491,-0.0774 -0.31511,-0.22266 0.0898,-0.14531 -0.0889,-0.26419 -0.39712,-0.26419 -0.32447,0 -0.48802,0.11711 -0.38848,0.27817 0.0945,0.15299 -0.27015,0.0935 -0.81045,-0.1323 -1.22681,-0.51259 -1.47048,-0.51518 -1.278,-0.0136 0.11082,0.28879 -0.0313,0.39688 -0.52186,0.39688 -0.74316,0 -1.16493,-0.4067 -0.64088,-0.61797 0.2379,-0.0959 0.24281,-0.13994 0.0173,-0.15489 -0.48949,-0.0325 -0.72078,0.54144 -0.31842,0.79011 0.26034,0.1609 0.0679,0.3389 -0.69371,0.64161 -2.17459,0.86433 -2.27708,0.92654 -2.07647,1.26049 0.13327,0.22185 0.0516,0.21089 -0.24966,-0.0335 -0.38331,-0.31092 -0.44766,-0.30548 -0.44766,0.0378 0,0.22053 -0.1786,0.4695 -0.39688,0.55326 -0.55951,0.2147 -1.19062,-0.0786 -1.19062,-0.55326 0,-0.31906 -0.0779,-0.33635 -0.38115,-0.0846 -0.20963,0.17398 -0.31544,0.48756 -0.23513,0.69685 0.0964,0.2512 0.0179,0.33138 -0.23085,0.23591 -0.44961,-0.17253 -1.32408,0.71314 -1.21443,1.22999 0.0424,0.20011 -0.0805,0.33113 -0.27321,0.29114 -0.19272,-0.04 -0.27142,0.0551 -0.17489,0.21129 0.12249,0.19819 0.29169,0.18757 0.56005,-0.0352 0.70561,-0.5856 1.01776,0.15499 0.33387,0.79213 -0.45357,0.42256 -0.65323,0.47896 -0.81176,0.22929 -0.25026,-0.39414 -0.28314,-0.14638 -0.0583,0.43948 0.088,0.22935 0.285,0.33975 0.43775,0.24535 0.16219,-0.10024 0.1992,-0.0446 0.089,0.13381 -0.10384,0.168 -0.41989,0.30546 -0.70234,0.30546 -0.34834,0 -0.51355,0.18213 -0.51355,0.56615 0,0.31137 -0.20836,0.72431 -0.46302,0.91762 -0.44098,0.33475 -0.44098,0.35189 0,0.3599 0.25466,0.005 0.46302,0.0582 0.46302,0.11907 0,0.34393 -0.35516,0.94768 -0.55748,0.94768 -0.24796,0 -1.29461,0.96258 -1.29461,1.19062 0,0.0728 0.14883,0.10253 0.33073,0.0661 0.24076,-0.0481 0.3351,0.49169 0.3468,1.98437 0.009,1.12779 -0.0805,2.05052 -0.19844,2.05052 -0.19608,0 -0.33848,-1.25004 -0.2338,-2.05248 0.0239,-0.18298 -0.0643,-0.52514 -0.19594,-0.76035 -0.15217,-0.27193 -0.22883,0.71639 -0.21048,2.71394 0.0217,2.36014 0.11111,3.12515 0.35957,3.07546 0.41253,-0.0825 0.44034,0.38238 0.031,0.51882 -0.1789,0.0596 -0.22676,0.32968 -0.11875,0.67 0.11273,0.35517 0.32547,0.51465 0.56428,0.42301 0.21083,-0.0809 0.38333,-0.0153 0.38333,0.1458 0,0.16109 -0.11907,0.29289 -0.26459,0.29289 -0.14552,0 -0.26458,0.30468 -0.26458,0.67707 0,0.38401 0.11452,0.6063 0.26458,0.51355 0.14552,-0.0899 0.27451,-0.0672 0.28664,0.0505 0.0121,0.11773 0.0516,0.48021 0.0878,0.80551 0.0362,0.3253 0.26436,0.81092 0.50711,1.07916 0.24276,0.26825 0.44138,0.65591 0.44138,0.86147 0,0.46554 1.83195,3.15646 2.14889,3.15646 0.1278,0 0.23236,0.18154 0.23236,0.40342 0,0.22188 0.29766,0.51659 0.66146,0.65491 0.3638,0.13832 0.66146,0.32099 0.66146,0.40594 0,0.085 -0.14883,0.0715 -0.33073,-0.0299 -0.1819,-0.10138 -0.0693,0.0902 0.25015,0.42563 0.51426,0.53998 0.63566,0.56692 1.05834,0.23485 0.43228,-0.33962 0.44432,-0.33277 0.12726,0.0723 -0.30831,0.39393 -0.21341,0.53389 0.79375,1.17063 1.46849,0.92839 2.35611,1.14741 4.33923,1.07072 1.33757,-0.0517 1.90406,-0.23844 3.37054,-1.11089 z m -0.61271,15.79181 c 0,-2.43456 0.35711,-4.40942 0.75338,-4.16622 0.095,0.0583 0.18947,-0.20975 0.21001,-0.59563 0.0205,-0.38587 0.2305,-1.14808 0.46658,-1.6938 0.38181,-0.8826 0.4854,-0.95712 0.93772,-0.67464 0.27968,0.17465 0.44844,0.41473 0.37504,0.5335 -0.0734,0.11877 -0.2443,0.14744 -0.37976,0.0637 -0.2444,-0.15105 -0.3527,0.21783 -0.26155,0.89082 0.0261,0.1927 -0.10451,0.53348 -0.29026,0.75728 -0.18574,0.22381 -0.34182,0.84006 -0.34683,1.36944 -0.006,0.62528 -0.125,0.93933 -0.33985,0.89636 -0.45788,-0.0916 -0.41388,0.34208 0.0854,0.84132 0.36858,0.36857 0.37225,0.50399 0.0322,1.18574 -0.48458,0.97135 -0.30276,2.30377 0.25158,1.84371 0.20421,-0.16949 0.43455,-0.24491 0.51185,-0.1676 0.23046,0.23045 -1.10421,1.52235 -1.57274,1.52235 -0.37124,0 -0.43268,-0.37012 -0.43268,-2.60635 z m 5.19599,-13.13636 c 0.0838,-0.21828 0.25862,-0.39687 0.38857,-0.39687 0.12995,0 0.23627,-0.1307 0.23627,-0.29044 0,-0.15975 0.62508,-1.20187 1.38907,-2.31582 1.99649,-2.91107 3.37343,-5.42331 3.37343,-6.15488 0,-0.45726 0.65383,-0.0979 0.75304,0.41388 0.0622,0.32094 -0.0137,0.40735 -0.2368,0.26948 -0.24125,-0.1491 -0.29182,-0.0117 -0.19058,0.51789 0.0932,0.48755 0.0509,0.63395 -0.13069,0.45236 -0.31851,-0.31851 -1.33195,1.47455 -1.07156,1.89588 0.10089,0.16324 0.029,0.18249 -0.18582,0.0497 -0.25445,-0.15725 -0.30415,-0.096 -0.18148,0.2237 0.0929,0.24216 0.0494,0.44028 -0.0966,0.44028 -0.16465,0 -0.14787,0.22625 0.0442,0.59531 0.17035,0.32743 0.21989,0.51169 0.1101,0.40948 -0.1098,-0.10221 -0.37365,-0.0118 -0.58634,0.20087 -0.21269,0.21269 -0.4876,0.32435 -0.61091,0.24814 -0.12331,-0.0762 -0.30088,0.10302 -0.39459,0.39828 -0.0954,0.30047 -0.2983,0.4578 -0.46089,0.35732 -0.18562,-0.11472 -0.23047,-0.0231 -0.12423,0.25374 0.0985,0.25658 -7.8e-4,0.52676 -0.24333,0.6625 -0.22527,0.12607 -0.39662,0.30952 -0.38076,0.40766 0.0422,0.26134 -1.10355,1.75837 -1.34579,1.75837 -0.11358,0 -0.13799,-0.1786 -0.0542,-0.39688 z m 5.83125,-9.59114 c -0.0641,-0.10914 0.10555,-0.97235 0.37693,-1.91823 0.27138,-0.94589 0.63493,-2.25557 0.80789,-2.91042 0.20769,-0.78633 0.35302,-1.02036 0.428,-0.6892 0.0927,0.40954 0.16168,0.43378 0.37628,0.13229 0.2025,-0.2845 0.22669,-0.25801 0.10549,0.11553 -0.0865,0.26656 -0.16562,0.68328 -0.17584,0.92604 -0.015,0.35625 -0.0655,0.33932 -0.26178,-0.0878 -0.1782,-0.38777 -0.22626,-0.1639 -0.17984,0.83784 0.0468,1.00896 -0.0167,1.30048 -0.24219,1.11299 -0.21934,-0.18235 -0.36385,0.0665 -0.51224,0.88195 -0.11369,0.62478 -0.17934,1.28479 -0.14589,1.4667 0.0655,0.35616 -0.38477,0.45943 -0.57681,0.13229 z"
         id="path381" /><path
         style="fill:#c44442"
         d="m 154.17559,184.79597 c -0.0465,-2.2165 -0.19113,-3.03466 -0.86545,-4.8948 -0.96433,-2.66013 -2.96764,-6.31325 -5.94032,-10.83241 -1.19654,-1.81901 -2.53188,-4.02167 -2.96743,-4.89479 -0.84867,-1.70126 -2.05152,-5.12032 -1.86648,-5.30536 0.0617,-0.0617 0.32534,0.57099 0.58586,1.40597 0.71486,2.29115 2.33071,5.50362 3.95762,7.86814 2.44579,3.55466 5.44635,8.96339 6.40905,11.55282 0.85412,2.29734 0.90764,2.62756 0.82804,5.10893 l -0.0851,2.65283 z m 4.17753,0.56028 c 0,-1.08282 -0.0893,-2.00881 -0.19843,-2.05777 -0.10914,-0.049 -0.79375,-0.0152 -1.52136,0.0751 -0.7276,0.0903 -1.02526,0.18465 -0.66146,0.20974 0.36381,0.0251 0.84006,0.17319 1.05834,0.3291 0.31122,0.2223 0.25411,0.25076 -0.26459,0.13185 -0.3638,-0.0834 -0.92935,-0.15325 -1.25677,-0.15524 -0.41772,-0.003 -0.59531,-0.16147 -0.59531,-0.53278 0,-0.47489 0.17639,-0.52916 1.71979,-0.52916 1.29751,0 1.71979,-0.0909 1.71979,-0.37033 0,-1.44863 4.05347,-9.64598 6.24828,-12.6359 l 0.90803,-1.23699 -0.44704,-0.93746 -0.44705,-0.93746 -1.61967,1.51063 c -2.29396,2.13952 -4.1914,3.03799 -6.45965,3.05876 -2.50458,0.0229 -4.3195,-0.89587 -6.93605,-3.51139 -3.42997,-3.42861 -5.47763,-7.68125 -6.06404,-12.59395 -0.17336,-1.45239 -0.42941,-2.71138 -0.569,-2.79775 -0.41879,-0.25915 0.0446,-4.17208 0.74908,-6.32525 1.67954,-5.13333 5.41842,-9.2133 9.6939,-10.57824 1.45032,-0.46301 1.05123,-0.59289 -0.5475,-0.17818 -4.08746,1.06027 -7.90523,5.03352 -9.70905,10.10444 -0.3605,1.01343 -0.65845,1.60448 -0.66211,1.31344 -0.0112,-0.89195 1.70151,-4.50268 2.99698,-6.31813 4.47189,-6.26679 12.56309,-7.75295 18.63464,-3.42272 6.32409,4.51034 8.82856,14.519 5.86184,23.42576 -0.99945,3.00056 -1.92137,4.79643 -4.24997,8.27877 -2.70555,4.04607 -5.10922,8.31764 -6.08586,10.81516 -0.77705,1.98714 -0.8353,2.3569 -0.78617,4.99043 0.0348,1.8659 -0.0437,2.84427 -0.22826,2.84427 -0.17351,0 -0.28133,-0.75454 -0.28133,-1.96876 z m 1.52231,-15.96111 c 2.75874,-1.52378 6.14406,-5.76376 7.54873,-9.4545 2.27278,-5.97171 1.26892,-13.4135 -2.43861,-18.07774 -2.41261,-3.03517 -6.50241,-4.67922 -10.05301,-4.0412 -6.67143,1.19883 -10.977,7.92323 -10.5202,16.43039 0.23051,4.29284 1.49926,7.59566 4.35795,11.34462 1.64139,2.15256 4.38234,4.20439 6.08274,4.55346 1.55662,0.31954 3.64543,0.006 5.0224,-0.75503 z m -4.06067,11.35545 c 0.0901,-0.14576 -0.23672,-0.95856 -0.72622,-1.80623 -0.4895,-0.84767 -1.45926,-2.61279 -2.15502,-3.92247 -0.69576,-1.30969 -1.3829,-2.53008 -1.52698,-2.71198 -0.14408,-0.1819 -0.1654,-0.33073 -0.0474,-0.33073 0.11802,0 -0.046,-0.24276 -0.36448,-0.53948 -0.69408,-0.64663 -0.7997,-1.31737 -0.11604,-0.73692 0.25467,0.21621 1.03758,0.72121 1.7398,1.12222 1.21179,0.69199 1.42054,0.72446 4.10104,0.63798 2.64618,-0.0854 2.9073,-0.14421 4.14099,-0.93306 0.7242,-0.46307 1.36223,-0.79644 1.41784,-0.74083 0.0556,0.0556 -0.55539,1.3284 -1.3578,2.82841 -0.8024,1.50002 -1.99015,3.73933 -2.63944,4.97626 -0.99611,1.89763 -1.29376,2.26246 -1.90531,2.3354 -0.43495,0.0519 -0.65929,-0.0195 -0.561,-0.17857 z m 2.27378,-4.31224 c 1.51368,-2.78235 1.93157,-3.81522 1.29568,-3.2024 -0.42527,0.40984 -5.06657,0.45524 -5.81099,0.0568 -0.28148,-0.15064 -0.51177,-0.20103 -0.51177,-0.11196 0,0.30945 3.22227,5.94207 3.39654,5.93725 0.0964,-0.003 0.83018,-1.20854 1.63054,-2.67973 z"
         id="path380" /><path
         style="fill:#342d2f"
         d="m 154.17559,184.79597 c -0.0465,-2.2165 -0.19113,-3.03466 -0.86545,-4.8948 -0.96433,-2.66013 -2.96764,-6.31325 -5.94032,-10.83241 -1.19654,-1.81901 -2.53188,-4.02167 -2.96743,-4.89479 -0.84867,-1.70126 -2.05152,-5.12032 -1.86648,-5.30536 0.0617,-0.0617 0.32534,0.57099 0.58586,1.40597 0.71486,2.29115 2.33071,5.50362 3.95762,7.86814 2.44579,3.55466 5.44635,8.96339 6.40905,11.55282 0.85412,2.29734 0.90764,2.62756 0.82804,5.10893 l -0.0851,2.65283 z m 4.17753,0.56028 c 0,-1.08282 -0.0893,-2.00881 -0.19843,-2.05777 -0.10914,-0.049 -0.79375,-0.0152 -1.52136,0.0751 -0.7276,0.0903 -1.02526,0.18465 -0.66146,0.20974 0.36381,0.0251 0.84006,0.17319 1.05834,0.3291 0.31122,0.2223 0.25411,0.25076 -0.26459,0.13185 -0.3638,-0.0834 -0.92935,-0.15325 -1.25677,-0.15524 -0.41772,-0.003 -0.59531,-0.16147 -0.59531,-0.53278 0,-0.47489 0.17639,-0.52916 1.71979,-0.52916 1.29751,0 1.71979,-0.0909 1.71979,-0.37033 0,-1.44863 4.05347,-9.64598 6.24828,-12.6359 l 0.90803,-1.23699 -0.44704,-0.93746 -0.44705,-0.93746 -1.61967,1.51063 c -2.29396,2.13952 -4.1914,3.03799 -6.45965,3.05876 -2.50458,0.0229 -4.3195,-0.89587 -6.93605,-3.51139 -3.42997,-3.42861 -5.47763,-7.68125 -6.06404,-12.59395 -0.17336,-1.45239 -0.43832,-2.71688 -0.5888,-2.80999 -0.1869,-0.11564 -0.19018,-0.74438 -0.0103,-1.98437 0.24491,-1.68865 0.26704,-1.73216 0.31779,-0.62447 0.0495,1.08073 0.10045,0.97084 0.55201,-1.19063 0.7302,-3.49523 2.47773,-6.81579 4.66262,-8.85965 1.94892,-1.82312 3.12349,-2.48762 5.45254,-3.08472 3.10064,-0.79491 6.1301,-0.17586 9.19388,1.87871 0.65485,0.43914 1.28877,0.76725 1.40873,0.72914 0.11996,-0.0381 0.15041,0.0402 0.0677,0.17412 -0.0827,0.13388 0.0275,0.31168 0.24491,0.39512 0.21745,0.0834 0.39536,0.33405 0.39536,0.5569 0,0.22284 0.11334,0.40517 0.25187,0.40517 0.8672,0 3.08818,4.8582 3.5324,7.72681 0.15107,0.97553 0.34367,1.73093 0.42801,1.67868 0.28368,-0.17576 -0.20353,7.82231 -0.49812,8.17727 -0.21072,0.2539 -0.20953,0.52677 0.004,0.9962 0.23341,0.51226 0.19907,0.8618 -0.16533,1.68326 -0.25295,0.57021 -0.43523,1.14489 -0.40508,1.27708 0.0302,0.13219 -0.0522,0.31078 -0.18298,0.39687 -0.25613,0.1686 -0.67607,1.61175 -0.469,1.61175 0.17543,0 1.10193,-2.11141 2.0898,-4.7625 0.81643,-2.19097 0.83802,-2.36151 0.8373,-6.61458 -8.5e-4,-5.05902 -0.30026,-6.51941 -2.05835,-10.03959 -2.64571,-5.29748 -7.98427,-8.5645 -13.28674,-8.13104 l -1.5875,0.12977 1.4383,-0.2854 c 2.89649,-0.57474 7.29582,0.83027 10.08239,3.22001 4.23327,3.63042 6.64548,10.99039 5.8223,17.7646 -0.54589,4.49232 -2.04577,8.17441 -5.33117,13.08762 -2.70555,4.04607 -5.10922,8.31764 -6.08586,10.81516 -0.77705,1.98714 -0.8353,2.3569 -0.78617,4.99043 0.0348,1.8659 -0.0437,2.84427 -0.22826,2.84427 -0.17351,0 -0.28133,-0.75454 -0.28133,-1.96876 z m 1.52231,-15.96111 c 2.75874,-1.52378 6.14406,-5.76376 7.54873,-9.4545 2.27278,-5.97171 1.26892,-13.4135 -2.43861,-18.07774 -2.41261,-3.03517 -6.50241,-4.67922 -10.05301,-4.0412 -6.67143,1.19883 -10.977,7.92323 -10.5202,16.43039 0.23051,4.29284 1.49926,7.59566 4.35795,11.34462 1.64139,2.15256 4.38234,4.20439 6.08274,4.55346 1.55662,0.31954 3.64543,0.006 5.0224,-0.75503 z m -4.06067,11.35545 c 0.0901,-0.14576 -0.23672,-0.95856 -0.72622,-1.80623 -0.4895,-0.84767 -1.45926,-2.61279 -2.15502,-3.92247 -0.69576,-1.30969 -1.3829,-2.53008 -1.52698,-2.71198 -0.14408,-0.1819 -0.1654,-0.33073 -0.0474,-0.33073 0.11802,0 -0.046,-0.24276 -0.36448,-0.53948 -0.69408,-0.64663 -0.7997,-1.31737 -0.11604,-0.73692 0.25467,0.21621 1.03758,0.72121 1.7398,1.12222 1.21179,0.69199 1.42054,0.72446 4.10104,0.63798 2.64618,-0.0854 2.9073,-0.14421 4.14099,-0.93306 0.7242,-0.46307 1.36223,-0.79644 1.41784,-0.74083 0.0556,0.0556 -0.55539,1.3284 -1.3578,2.82841 -0.8024,1.50002 -1.99015,3.73933 -2.63944,4.97626 -0.99611,1.89763 -1.29376,2.26246 -1.90531,2.3354 -0.43495,0.0519 -0.65929,-0.0195 -0.561,-0.17857 z m 2.27378,-4.31224 c 1.51368,-2.78235 1.93157,-3.81522 1.29568,-3.2024 -0.42527,0.40984 -5.06657,0.45524 -5.81099,0.0568 -0.28148,-0.15064 -0.51177,-0.20103 -0.51177,-0.11196 0,0.30945 3.22227,5.94207 3.39654,5.93725 0.0964,-0.003 0.83018,-1.20854 1.63054,-2.67973 z m -15.60161,-29.72688 c -0.004,-0.89929 1.71152,-4.51066 3.0013,-6.31813 0.6747,-0.94551 1.74321,-2.14232 2.37446,-2.65959 1.42963,-1.17147 4.515,-2.79913 5.28414,-2.7876 0.31685,0.005 -0.0569,0.22725 -0.83051,0.49444 -4.09835,1.41548 -7.42942,5.05919 -9.21533,10.08025 -0.33644,0.94589 -0.61276,1.48167 -0.61406,1.19063 z"
         id="path379" /></g></g></svg>
