<?xml version="1.0" encoding="UTF-8" standalone="no"?>
<!-- Created with Inkscape (http://www.inkscape.org/) -->

<svg
   width="53.842964mm"
   height="65.76989mm"
   viewBox="0 0 53.842964 65.76989"
   version="1.1"
   id="svg1"
   inkscape:export-filename="the-hammer.svg"
   inkscape:export-xdpi="96"
   inkscape:export-ydpi="96"
   xml:space="preserve"
   xmlns:inkscape="http://www.inkscape.org/namespaces/inkscape"
   xmlns:sodipodi="http://sodipodi.sourceforge.net/DTD/sodipodi-0.dtd"
   xmlns="http://www.w3.org/2000/svg"
   xmlns:svg="http://www.w3.org/2000/svg"><sodipodi:namedview
     id="namedview1"
     pagecolor="#ffffff"
     bordercolor="#000000"
     borderopacity="0.25"
     inkscape:showpageshadow="2"
     inkscape:pageopacity="0.0"
     inkscape:pagecheckerboard="0"
     inkscape:deskcolor="#d1d1d1"
     inkscape:document-units="mm"><inkscape:page
       x="0"
       y="0"
       width="53.842964"
       height="65.76989"
       id="page2"
       margin="0"
       bleed="0" /></sodipodi:namedview><defs
     id="defs1" /><g
     inkscape:label="Calque 1"
     inkscape:groupmode="layer"
     id="layer1"
     transform="translate(-135.60226,-117.8288)"><g
       id="g358"
       transform="translate(16.804428,0.63929889)"><path
         style="fill:#d8eaf7"
         d="m 118.93021,150.01875 v -32.80833 h 26.8552 26.85521 v 32.80833 32.80834 h -26.85521 -26.8552 z"
         id="path365" /><path
         style="fill:#c5d9e8"
         d="m 130.30729,182.14036 c 0.94588,-0.35743 1.95792,-0.75994 2.24896,-0.89447 0.29104,-0.13453 1.60073,-0.67889 2.91041,-1.20968 1.30969,-0.53079 2.44079,-1.05644 2.51355,-1.16811 0.0728,-0.11166 0.41041,-0.28987 0.75033,-0.39602 2.18324,-0.68176 9.26365,-4.62483 10.5795,-5.89171 0.28948,-0.2787 0.28666,-0.33662 -0.0164,-0.33662 -0.55733,0 -1.61206,-1.59 -1.61206,-2.43018 0,-0.77332 -0.28501,-0.98838 -0.54877,-0.41409 -0.0835,0.1819 -0.0854,0.0628 -0.004,-0.26458 0.0812,-0.32742 0.0293,-0.59531 -0.11533,-0.59531 -0.14466,0 -0.31746,0.20836 -0.38401,0.46302 -0.0665,0.25466 -0.13482,0.0448 -0.1517,-0.46643 -0.0229,-0.69309 -0.18208,-0.99586 -0.626,-1.19062 -0.36176,-0.15872 -0.62742,-0.53904 -0.67716,-0.96942 -0.14926,-1.2915 -0.66539,-1.36144 -1.55029,-0.21009 -1.50137,1.95346 -3.94328,3.56867 -5.65077,3.73774 -0.99572,0.0986 -1.0036,0.0789 -0.65224,-1.62879 0.1048,-0.50932 0.22341,-1.28323 0.26359,-1.71979 0.0402,-0.43656 0.15598,-0.99595 0.25734,-1.24308 0.20237,-0.49342 -0.39683,-1.25975 -1.38865,-1.77598 -0.80976,-0.42147 -1.00179,-0.25031 -1.53533,1.36853 -0.25123,0.76227 -0.70681,1.63355 -1.01241,1.93618 -0.30561,0.30263 -1.09858,1.13607 -1.76218,1.85209 -3.10588,3.35122 -4.99116,4.26931 -8.21243,3.99925 -1.59544,-0.13376 -1.93584,-0.27202 -3.38725,-1.37583 l -1.61357,-1.22713 3.2e-4,-2.82535 3.2e-4,-2.82534 0.62578,0.7276 c 0.71291,0.82892 1.5607,0.99825 1.32469,0.26458 -0.0896,-0.27866 -0.06,-0.35001 0.0744,-0.1792 0.13844,0.17589 1.43075,0.2765 3.39839,0.26458 1.74625,-0.0106 3.67284,0.0702 4.28131,0.17943 1.03653,0.18613 1.14363,0.14624 1.69813,-0.63248 0.55423,-0.77835 0.56278,-0.85238 0.13463,-1.16545 -0.25818,-0.18879 -0.34496,-0.40367 -0.19937,-0.49365 0.1418,-0.0876 0.31845,-0.01 0.39256,0.17304 0.10191,0.25136 0.20246,0.23564 0.41254,-0.0645 0.40085,-0.57268 -0.59428,-0.64306 -3.37802,-0.23889 -2.72906,0.39622 -2.89324,0.3948 -6.18605,-0.0538 l -2.57968,-0.35146 v -3.48227 -3.48227 l 0.79942,-0.33114 c 1.23868,-0.51308 1.29173,-0.8903 0.0987,-0.70197 -0.72085,0.1138 -0.87145,0.0907 -0.50127,-0.0771 0.45493,-0.20611 0.46421,-0.24236 0.0662,-0.25834 -0.53386,-0.0214 -0.62077,-0.44002 -0.13229,-0.63712 0.26458,-0.10676 0.26458,-0.13763 0,-0.15434 -0.24601,-0.0155 -0.33073,-0.87605 -0.33073,-3.35903 v -3.33813 l 0.7276,0.18198 c 0.40018,0.10009 1.00757,0.21289 1.34976,0.25067 0.34218,0.0378 1.03208,0.39579 1.53311,0.79557 0.63987,0.51057 1.25057,0.74001 2.05223,0.77104 0.99325,0.0384 2.39626,-0.41457 2.80396,-0.90536 0.0728,-0.0876 0.41038,-0.30578 0.75027,-0.48487 0.33988,-0.1791 0.55243,-0.39117 0.47233,-0.47128 -0.0801,-0.0801 -0.0121,-0.39522 0.15118,-0.70026 0.29163,-0.54493 0.30009,-0.54548 0.48374,-0.0314 0.10573,0.29598 0.059,0.61643 -0.10769,0.73776 -0.47179,0.34347 1.46771,-0.0968 2.48351,-0.56372 1.06577,-0.48993 3.4277,-2.77641 3.87562,-3.75182 0.86287,-1.879 1.15146,-2.63112 1.15146,-3.00093 0,-0.22408 0.11906,-0.48101 0.26458,-0.57094 0.14552,-0.0899 0.26459,-0.34686 0.26459,-0.57094 0,-0.22408 0.159,-0.7826 0.35334,-1.24116 0.38717,-0.91356 0.77209,-1.98532 1.43974,-4.00874 0.24008,-0.7276 0.5897,-1.48025 0.77692,-1.67254 0.18723,-0.1923 0.34041,-0.50684 0.34041,-0.69899 0,-0.19215 0.54322,-0.95355 1.20715,-1.692 0.84818,-0.94338 1.47762,-1.39339 2.11667,-1.51327 0.50023,-0.0939 0.90952,-0.28829 0.90952,-0.43209 0,-0.15971 0.92674,-0.22548 2.38138,-0.16899 1.77808,0.069 2.38135,0.009 2.38125,-0.23826 -7e-5,-0.1819 -0.16267,-0.33073 -0.36133,-0.33073 -0.19865,0 -0.64514,-0.21409 -0.99219,-0.47575 -0.60466,-0.4559 -2.54241,-1.02278 -3.93828,-1.15212 -1.00741,-0.0934 -3.42357,0.57452 -4.34596,1.20131 -0.45234,0.30737 -1.25346,0.96929 -1.78028,1.47093 -0.87191,0.83025 -1.08098,0.90554 -2.33022,0.83924 -1.07895,-0.0573 -1.56299,0.0578 -2.2639,0.53804 -0.49034,0.33598 -0.95783,0.79176 -1.03888,1.01284 -0.081,0.22108 -0.21673,0.5508 -0.30152,0.7327 -0.0848,0.1819 -0.0204,0.33073 0.14317,0.33073 0.45883,0 1.86342,1.11777 1.86342,1.48291 0,0.17879 0.13417,0.36979 0.29814,0.42445 0.51813,0.17271 0.60809,2.70737 0.13009,3.66553 -0.23552,0.47212 -0.42823,1.01871 -0.42823,1.21463 0,0.53392 -0.44859,0.43172 -1.25906,-0.28684 -1.89182,-1.67732 -2.33737,-1.97443 -3.60227,-2.40218 -2.89213,-0.97803 -7.41102,-0.71348 -9.05412,0.53005 -0.27738,0.20994 -0.59364,0.38549 -0.70278,0.39011 -0.10914,0.005 -0.19843,-4.27783 -0.19843,-9.51658 v -9.525 h 26.8552 26.85521 v 32.80833 32.80834 h -7.40833 -7.40833 v -2.481 c 0,-2.95003 0.87952,-6.16987 2.65503,-9.71975 1.11791,-2.2351 3.20349,-5.56403 3.95955,-6.32009 0.45946,-0.45946 2.91041,-4.09388 2.91041,-4.31574 0,-0.0789 0.39651,-1.01543 0.88112,-2.08108 1.51175,-3.32427 2.48204,-8.29108 2.20093,-11.26626 -0.21407,-2.26565 -1.28284,-6.25945 -2.1978,-8.21279 -2.05162,-4.37999 -4.79402,-7.03311 -8.82175,-8.53458 -3.16015,-1.17805 -8.68668,-0.71115 -11.21852,0.94778 -0.3655,0.23948 -0.8185,0.3465 -1.00682,0.23785 -0.1883,-0.10863 -0.2617,-0.10768 -0.1631,0.002 0.20235,0.22534 -1.61223,1.90587 -1.94729,1.80343 -0.11899,-0.0364 -0.18658,0.0255 -0.1502,0.13752 0.0364,0.11202 -0.26128,0.55728 -0.66146,0.98948 -0.40018,0.43221 -0.7276,0.88336 -0.7276,1.00258 0,0.11922 -0.0893,0.16269 -0.19844,0.0966 -0.10914,-0.0661 -0.37313,0.0686 -0.58665,0.29933 -0.34595,0.37382 -0.33317,0.39835 0.11746,0.22543 0.46766,-0.17946 0.47421,-0.15839 0.0871,0.28036 -0.23021,0.26093 -0.73928,1.12925 -1.13125,1.92962 -1.05639,2.15702 -1.12227,2.25534 -1.45825,2.17626 -0.16988,-0.04 -0.23226,0.0513 -0.13863,0.20275 0.0936,0.1515 0.2639,0.21757 0.37837,0.14682 0.11447,-0.0707 0.003,0.49286 -0.24725,1.25246 -1.66587,5.05235 -1.25719,10.82173 1.1751,16.58892 0.82962,1.96711 3.45344,6.22261 4.23829,6.87398 0.2223,0.18449 0.32756,0.4594 0.23391,0.61092 -0.0989,0.15998 -0.0422,0.19633 0.13521,0.0867 0.181,-0.11187 0.30546,-0.0207 0.30546,0.2237 0,0.22687 0.11906,0.41249 0.26459,0.41249 0.14552,0 0.26458,0.15096 0.26458,0.33546 0,0.1845 0.27783,0.75004 0.61741,1.25677 1.36928,2.04328 2.57312,4.63319 3.40906,7.33419 0.77321,2.49834 0.87,3.13145 0.78922,5.16264 l -0.0921,2.31511 h -2.37743 c -1.52523,0 -2.31852,-0.0953 -2.21311,-0.26587 0.0904,-0.14623 0.84634,-0.72902 1.67992,-1.2951 0.83359,-0.56607 1.68941,-1.23983 1.90182,-1.49724 0.36139,-0.43792 0.34369,-0.44545 -0.27524,-0.11709 -0.64814,0.34385 -2.11974,1.32556 -2.38125,1.58854 -0.0728,0.0732 -0.61494,0.46012 -1.20484,0.8599 l -1.07256,0.72686 -8.58474,-0.0184 -8.58473,-0.0184 z m 21.98426,-1.89296 c 0.045,-2.23294 -0.0587,-2.93533 -0.77138,-5.22552 -1.06732,-3.42987 -3.46567,-7.92243 -5.98172,-11.20487 -4.52102,-5.89812 -6.59524,-13.5059 -5.3266,-19.53679 1.48578,-7.06316 5.03224,-11.81168 10.33606,-13.83945 2.10579,-0.80509 6.16522,-0.88123 8.33438,-0.15633 4.66833,1.56008 8.00889,5.31696 9.89938,11.13309 1.10048,3.38565 1.37607,5.97557 0.96228,9.04329 -0.68907,5.10863 -2.36922,9.07596 -5.76034,13.60187 -2.63761,3.52025 -4.78272,7.55239 -5.85633,11.00811 -0.68954,2.2195 -0.83249,3.11548 -0.83249,5.21796 v 2.53833 h -2.10637 -2.10636 l -0.0882,-2.31511 -0.0882,-2.3151 -0.0544,2.3151 c -0.0332,1.41046 -0.16329,2.31511 -0.33305,2.31511 -0.17964,0 -0.26018,-0.91661 -0.22668,-2.57969 z m -9.76535,-23.37818 c -1.04695,-2.46056 -1.49078,-5.0012 -1.49715,-8.57026 -0.003,-1.89177 0.0829,-3.97536 0.19183,-4.63021 0.13686,-0.82309 0.1173,-1.05647 -0.0634,-0.75605 -0.14373,0.23901 -0.37168,1.70535 -0.50655,3.25853 -0.33019,3.80262 0.36048,8.27394 1.70748,11.0541 0.65357,1.34895 0.7795,1.08163 0.16776,-0.35611 z m 25.90885,-3.44967 c 0.57798,-2.20147 0.97002,-6.94764 0.59312,-7.18057 -0.14365,-0.0888 -0.24245,0.53279 -0.23568,1.48272 0.0144,2.02065 -0.25324,4.09389 -0.77477,6.00122 -0.43015,1.57316 -0.49325,2.02935 -0.24657,1.78267 0.0867,-0.0867 0.38544,-1.02541 0.6639,-2.08604 z m -23.56414,-17.70581 c 1.21457,-1.53743 2.69843,-2.8645 4.19113,-3.74829 0.67171,-0.3977 1.1178,-0.72512 0.99132,-0.7276 -0.54816,-0.0108 -3.36122,1.94164 -4.36217,3.02754 -1.26125,1.36829 -2.70994,3.55778 -3.31981,5.0174 -0.69495,1.66325 -0.46993,1.45895 0.58826,-0.5341 0.54822,-1.03254 1.40829,-2.39827 1.91127,-3.03495 z m -25.08081,5.74643 c -0.63814,-0.20935 -0.85989,-0.43856 -0.85989,-0.88884 0,-0.55064 0.12074,-0.60674 1.30569,-0.60674 0.71813,0 1.61436,-0.11736 1.99161,-0.26079 0.49369,-0.1877 0.99562,-0.15409 1.79095,0.11993 0.69099,0.23806 1.2155,0.28903 1.39986,0.13602 0.16216,-0.13458 0.6439,-0.27558 1.07055,-0.31335 1.08071,-0.0957 5.67111,0.3504 5.66775,0.55075 -0.004,0.26132 -3.07523,1.61952 -3.66169,1.61952 -0.2921,0 -0.69088,-0.15979 -0.88618,-0.35509 -1.19147,-1.19147 -3.57566,-1.33831 -4.97438,-0.30637 -0.95209,0.70244 -1.46502,0.75743 -2.84427,0.30496 z"
         id="path364" /><path
         style="fill:#b8d2e4"
         d="m 147.91437,182.13206 c 0.4298,-0.34389 0.87536,-0.62585 0.99012,-0.62658 0.11476,-7.2e-4 0.7043,-0.47756 1.31007,-1.05964 0.60578,-0.58209 1.19649,-1.05834 1.31269,-1.05834 0.11621,0 0.21129,0.77863 0.21129,1.73028 v 1.73028 l -2.30282,-0.0454 -2.30281,-0.0454 z m 4.37835,-1.88466 c 0.0585,-2.24535 -0.0381,-2.9226 -0.74572,-5.22552 -1.02625,-3.33994 -3.41699,-7.84411 -5.77496,-10.88008 -3.02642,-3.89663 -4.68874,-7.64239 -5.53267,-12.46696 -0.69205,-3.95631 -0.45222,-6.55278 1.00074,-10.83448 1.28749,-3.7941 3.91021,-7.38453 6.66197,-9.12006 4.0016,-2.5238 9.92896,-2.54589 13.9776,-0.0521 1.5986,0.98468 4.00788,3.59567 5.05375,5.47687 2.32235,4.17717 3.36636,9.68325 2.66157,14.03705 -0.19525,1.20617 -0.55634,2.89636 -0.80241,3.75598 -0.746,2.60602 -2.91753,6.71509 -4.8155,9.11212 -2.32085,2.93108 -4.84168,7.63989 -5.86797,10.96113 -0.67447,2.18271 -0.81433,3.08017 -0.81433,5.22552 v 2.59021 h -2.10637 -2.10636 l -0.0882,-2.31511 -0.0882,-2.3151 -0.0544,2.3151 c -0.034,1.44751 -0.16148,2.31511 -0.34011,2.31511 -0.18961,0 -0.26308,-0.86764 -0.21845,-2.57969 z m -7.1816,-18.31015 c -1.34586,-1.97168 -2.67951,-5.02803 -3.4689,-7.94975 -0.50635,-1.87407 -0.60572,-2.88846 -0.59614,-6.08541 0.01,-3.30769 0.10141,-4.12866 0.66388,-5.95647 1.62028,-5.26537 5.56674,-9.70877 9.764,-10.9935 0.50953,-0.15596 0.54444,-0.20769 0.15202,-0.22521 -0.28018,-0.0125 -1.3808,0.40781 -2.44582,0.93405 -4.52951,2.23807 -7.72111,7.53116 -8.56007,14.1964 -0.34985,2.77952 -0.0823,5.71596 0.80058,8.78554 0.58169,2.02249 2.61926,6.2784 3.70807,7.74512 1.2334,1.66151 1.22181,1.365 -0.0176,-0.45077 z m 15.69597,-2.80457 c 0.26606,-0.15794 0.49542,-0.64511 0.52917,-1.12395 0.0586,-0.83177 0.45644,-1.22341 0.45644,-0.44935 0,0.21828 0.12609,0.39687 0.2802,0.39687 0.15411,0 0.20662,-0.11906 0.11668,-0.26458 -0.0899,-0.14552 -0.008,-0.27398 0.18282,-0.28547 0.26637,-0.0161 0.26997,-0.0517 0.0156,-0.15434 -0.41258,-0.16648 -0.43675,-1.5801 -0.0313,-1.83068 0.16468,-0.10178 0.40872,0.0103 0.54231,0.24897 0.3801,0.67919 0.82538,0.52267 0.63792,-0.22424 -0.0909,-0.36205 -0.0545,-0.86806 0.0808,-1.12448 0.13529,-0.25642 0.4509,-1.66541 0.70135,-3.1311 0.49163,-2.87714 0.4338,-6.60981 -0.12065,-7.78616 -0.87548,-1.85749 -2.38753,-3.76776 -2.84375,-3.59269 -0.19583,0.0752 -0.77032,-0.2271 -1.27664,-0.67166 -0.86698,-0.76121 -1.05958,-0.81148 -3.30712,-0.8631 -1.31259,-0.0301 -2.38653,0.0457 -2.38653,0.16857 0,0.12286 -0.44543,0.40949 -0.98984,0.63696 -1.57578,0.65841 -3.0311,2.45769 -3.38871,4.18963 -0.12018,0.58208 -0.26639,1.29646 -0.3249,1.5875 -0.28877,1.43637 -0.35217,6.21771 -0.0825,6.21771 0.1584,0 0.288,0.46167 0.288,1.02593 0,0.58917 0.16896,1.16617 0.39687,1.35532 0.21828,0.18115 0.39688,0.67198 0.39688,1.09073 0,0.48944 0.1373,0.76135 0.38446,0.76135 0.21145,0 0.58122,0.41465 0.82171,0.92145 0.44921,0.94663 1.06922,1.32336 4.09061,2.48557 0.80317,0.30895 1.77841,0.56173 2.16719,0.56173 0.38878,0 0.77401,0.10861 0.85605,0.24136 0.15934,0.25782 1.03637,0.0696 1.80686,-0.38785 z m 7.6535,-5.6257 c 0.42614,-1.5699 0.55229,-2.81656 0.55375,-5.4726 0.001,-1.89177 -0.10536,-3.76321 -0.23644,-4.15876 -0.16238,-0.49002 -0.24717,0.69026 -0.26609,3.70417 -0.0276,4.39343 -0.26235,5.83744 -1.53649,9.45042 -0.10264,0.29104 0.0654,0.0748 0.3734,-0.48052 0.308,-0.55534 0.80834,-1.92455 1.11187,-3.04271 z m -10.47408,26.87271 c -0.1609,-2.25626 -0.11212,-2.6437 0.62467,-4.96094 1.28512,-4.04176 3.45343,-8.00629 6.58421,-12.03854 3.74368,-4.82163 6.07769,-13.28875 5.08136,-18.4338 -0.50355,-2.60033 -1.87849,-6.53923 -2.89346,-8.28912 -1.17582,-2.0272 -3.93876,-4.90701 -5.45709,-5.68792 -0.64708,-0.3328 -1.11424,-0.70585 -1.03814,-0.82899 0.0761,-0.12315 -0.0325,-0.15833 -0.24135,-0.0782 -0.20885,0.0801 -0.78059,-0.0216 -1.27052,-0.2261 -2.26277,-0.94448 -6.56309,-1.0562 -8.43285,-0.21908 -0.64117,0.28706 -1.25962,0.46391 -1.37435,0.39301 -0.11472,-0.0709 -0.61196,0.17875 -1.10497,0.55479 -0.7462,0.56915 -0.92238,0.61593 -1.05158,0.27923 -0.0854,-0.22245 -0.27495,-0.40446 -0.4213,-0.40446 -0.32201,0 -1.11323,1.4595 -0.90442,1.66832 0.0813,0.0813 -0.13176,0.0861 -0.47357,0.0106 -0.43861,-0.0969 -0.51764,-0.0635 -0.26857,0.1134 0.28528,0.20266 0.26939,0.28276 -0.0829,0.41796 -0.2397,0.092 -0.39461,0.25738 -0.34422,0.36754 0.0504,0.11017 -0.31526,0.61703 -0.81255,1.12635 -0.49728,0.50933 -0.80908,0.75698 -0.69289,0.55035 0.15871,-0.28224 0.0964,-0.3316 -0.25066,-0.19844 -0.25405,0.0975 -0.54147,0.17908 -0.63871,0.18131 -0.0972,0.002 0.002,0.13036 0.22008,0.28473 0.30025,0.21234 0.31595,0.31348 0.0645,0.41542 -0.1828,0.0741 -0.27592,0.2261 -0.20691,0.33775 0.069,0.11166 -0.0559,0.42891 -0.27753,0.70501 -0.39156,0.48775 -0.3961,0.48697 -0.16008,-0.0272 0.1336,-0.29104 0.21946,-0.79888 0.1908,-1.12853 -0.061,-0.7019 0.48135,-1.24322 1.03338,-1.03139 0.29684,0.11391 0.40485,-0.12525 0.46639,-1.03273 0.044,-0.64954 0.19914,-1.14941 0.34466,-1.11083 0.14552,0.0386 0.23804,0.30827 0.2056,0.59931 -0.0352,0.31542 0.15163,0.13383 0.46243,-0.44954 0.28677,-0.53829 0.6705,-1.07407 0.85273,-1.19062 0.18223,-0.11656 0.33133,-0.38538 0.33133,-0.59738 0,-0.26012 0.32756,-0.40393 1.00735,-0.44225 0.84397,-0.0476 0.95672,0.004 0.6952,0.31931 -0.17167,0.20686 -0.20826,0.37429 -0.0813,0.37206 0.39006,-0.007 0.75646,-0.3712 0.83096,-0.82634 0.16901,-1.03236 -4.52043,-0.64915 -5.00284,0.40883 -0.1389,0.30462 -0.5571,0.69739 -0.92932,0.87283 -0.59505,0.28045 -0.69303,0.25685 -0.81131,-0.19546 -0.20176,-0.77154 -0.66872,-0.30692 -0.50318,0.50066 0.0788,0.3843 0.0785,0.54991 -6.1e-4,0.36801 -0.0791,-0.1819 -0.37204,-0.33073 -0.65096,-0.33073 -0.27891,0 -0.50712,-0.0976 -0.50712,-0.21696 0,-0.40585 1.89539,-2.43334 2.13586,-2.28472 0.13163,0.0813 0.17868,-0.0101 0.10455,-0.20331 -0.13717,-0.35747 1.06846,-0.79496 3.0919,-1.12195 1.33394,-0.21557 3.13436,0.10235 3.13436,0.55346 0,0.24718 0.33779,0.36306 1.05833,0.36306 0.58209,0 1.05834,-0.11078 1.05834,-0.24618 0,-0.1354 0.26789,-0.29778 0.59531,-0.36084 0.4305,-0.0829 0.35725,-0.12464 -0.26459,-0.1507 -0.47294,-0.0198 -0.85989,-0.14538 -0.85989,-0.27903 0,-0.13365 -0.44649,-0.51923 -0.99219,-0.85683 l -0.99219,-0.61383 0.79375,-0.1702 c 0.57316,-0.1229 0.33419,-0.1789 -0.85989,-0.2015 -1.27961,-0.0242 -1.65365,-0.12107 -1.65365,-0.42818 0,-0.30187 -0.33253,-0.39784 -1.38906,-0.40093 -0.99442,-0.003 -1.27631,-0.0769 -0.99219,-0.26053 0.21828,-0.14106 0.73888,-0.2583 1.15688,-0.26053 0.64538,-0.003 0.71033,-0.0639 0.43062,-0.40093 -0.27233,-0.32814 -0.24358,-0.4023 0.16604,-0.4282 0.27248,-0.0172 0.59357,-0.0143 0.71352,0.007 0.11996,0.0208 0.14218,-0.085 0.0494,-0.23512 -0.26281,-0.42524 0.55275,-0.6091 1.18971,-0.2682 0.6626,0.35461 1.09911,0.10239 0.51952,-0.30018 -0.29452,-0.20457 -0.30875,-0.30299 -0.0585,-0.40454 0.1819,-0.0738 0.33073,-0.30287 0.33073,-0.50902 0,-0.25317 0.30563,-0.37483 0.94166,-0.37483 0.51791,0 0.87539,-0.10721 0.79441,-0.23825 -0.081,-0.13103 0.44777,-0.45221 1.17501,-0.71372 0.72724,-0.26151 1.32225,-0.63055 1.32225,-0.82009 0,-0.20651 0.31809,-0.3446 0.79375,-0.3446 0.43656,0 0.79375,-0.10834 0.79375,-0.24075 0,-0.13241 0.77391,-0.5183 1.71979,-0.85753 0.94589,-0.33923 1.7198,-0.70715 1.7198,-0.81759 0,-0.11044 3.33374,-0.2008 7.40833,-0.2008 h 7.40833 v 5.55625 c 0,4.7625 -0.0567,5.55625 -0.39687,5.55625 -0.21829,0 -0.39688,-0.11906 -0.39688,-0.26458 0,-0.14553 -0.64234,-0.26459 -1.42742,-0.26459 h -1.42741 l -0.10203,1.06987 c -0.0747,0.78358 0.024,1.18395 0.36908,1.49621 0.53509,0.48425 0.6314,1.56973 0.15342,1.72906 -0.24721,0.0824 -0.24721,0.14946 0,0.30224 0.17473,0.108 0.31769,0.0703 0.31769,-0.0839 0,-0.64359 0.70849,-0.20865 1.1598,0.71199 0.2675,0.54571 0.59223,1.19893 0.72162,1.45162 0.12939,0.25269 0.23525,0.6269 0.23525,0.83159 0,0.20469 0.17859,0.44069 0.39688,0.52445 0.34864,0.13379 0.39687,2.99903 0.39687,23.57623 v 23.42393 h -7.23979 -7.23979 z m -7.87231,-1.26557 c 0.47573,-0.39633 0.52304,-0.52037 0.19844,-0.52037 -0.32083,0 -0.42618,-0.26163 -0.42618,-1.05833 0,-0.58208 -0.11907,-1.05833 -0.26459,-1.05833 -0.14552,0 -0.26458,-0.3525 -0.26458,-0.78332 0,-0.43083 -0.16434,-0.93683 -0.36519,-1.12446 -0.25682,-0.2399 -0.29577,-0.52371 -0.13126,-0.95639 0.2315,-0.60892 0.99347,-1.52296 1.11248,-1.33452 0.23837,0.37743 1.76522,5.52328 1.76522,5.9492 0,0.3493 -0.32194,0.68625 -0.93502,0.97861 -1.22369,0.58353 -1.46208,0.55169 -0.68932,-0.0921 z m -29.52454,-7.87666 -1.64785,-1.24266 0.003,-2.64584 c 0.003,-2.52956 0.023,-2.62258 0.45722,-2.11666 0.42489,0.495 0.78201,0.52916 5.53122,0.52916 h 5.077 l 0.67769,-1.04515 c 0.97816,-1.50855 0.90621,-1.99756 -0.29389,-1.99756 -0.53436,0 -1.97702,0.18841 -3.20592,0.41868 -2.03829,0.38195 -2.43478,0.3819 -4.51853,-5.3e-4 -1.2563,-0.23058 -2.61161,-0.41898 -3.01179,-0.41868 l -0.7276,5.3e-4 v -3.28722 -3.28723 l 1.22942,-0.61538 c 0.67618,-0.33845 1.22134,-0.73444 1.21146,-0.87996 -0.01,-0.14552 -0.56855,-0.436 -1.24151,-0.64552 l -1.22355,-0.38093 0.0782,-1.33886 0.0782,-1.33886 1.05833,-0.0736 c 0.58208,-0.0405 0.92398,0.019 0.75978,0.13229 -0.16421,0.11326 -0.34505,0.70254 -0.40188,1.30952 l -0.10332,1.10361 1.19563,0.18923 c 2.35768,0.37313 6.18051,0.34858 6.73998,-0.0433 0.28958,-0.20283 0.8334,-0.36879 1.20847,-0.36879 0.37508,0 0.79508,-0.0973 0.93332,-0.21629 0.13824,-0.11896 0.9062,-0.3726 1.70656,-0.56363 2.26789,-0.54132 2.38125,-0.64319 2.38125,-2.1398 0,-0.99127 -0.0974,-1.31361 -0.39687,-1.31361 -0.29535,0 -0.39688,0.31183 -0.39688,1.21893 0,0.97043 -0.0803,1.18813 -0.3937,1.06786 -0.21963,-0.0843 -0.36586,-0.0171 -0.33073,0.15196 0.0346,0.16668 -0.53234,0.44624 -1.25994,0.62125 -0.72761,0.17501 -1.53128,0.40428 -1.78594,0.50949 -0.40165,0.16594 -0.46302,0.0297 -0.46302,-1.02764 v -1.21893 h -1.40229 c -0.77126,0 -1.5154,-0.10562 -1.65365,-0.23472 -0.31758,-0.29655 -3.29406,-0.54005 -3.29406,-0.26947 0,0.11044 0.20836,0.2541 0.46302,0.31924 0.25466,0.0651 -0.17369,0.0559 -0.9519,-0.0205 -0.77821,-0.0764 -1.49259,-0.031 -1.5875,0.101 -0.0949,0.13197 -0.64883,0.17352 -1.23091,0.0923 l -1.05834,-0.14764 1.19063,-0.28865 1.19062,-0.28865 -1.12447,-0.0283 -1.12448,-0.0283 v -1.05834 c 0,-0.58208 0.12587,-1.05833 0.27971,-1.05833 0.7915,0 2.82873,0.65982 3.29216,1.06627 1.05566,0.92585 3.88009,0.96896 4.77616,0.0729 0.22003,-0.22003 1.05932,-0.57221 1.86509,-0.78263 2.14986,-0.5614 4.87206,-2.28612 5.80695,-3.67915 0.42953,-0.64002 0.95956,-1.16811 1.17784,-1.17354 0.33,-0.008 0.33512,-0.049 0.0304,-0.24196 -0.2928,-0.18544 -0.2529,-0.29288 0.19844,-0.53443 0.34226,-0.18317 0.56491,-0.55936 0.56491,-0.95448 0,-0.35868 0.11906,-0.65215 0.26459,-0.65215 0.14552,0 0.26458,0.22539 0.26458,0.50086 0,0.65178 0.60239,0.87102 1.22639,0.44635 0.27137,-0.18468 0.77364,-0.4059 1.11616,-0.49161 0.70024,-0.17522 0.70225,-0.26676 -0.0656,2.98399 -0.22344,0.94588 -0.41422,2.67229 -0.42396,3.83645 -0.0165,1.97873 -0.39501,3.175 -1.00445,3.175 -0.10288,0 -0.15654,0.0915 -0.11924,0.20343 0.0373,0.11188 0.1889,1.05724 0.3369,2.10079 0.148,1.04355 0.32585,1.95412 0.39521,2.02349 0.0694,0.0694 0.12612,-0.66061 0.12612,-1.62216 0,-0.96155 0.11029,-1.81644 0.24508,-1.89974 0.1348,-0.0833 0.38691,0.53474 0.56025,1.37344 0.65969,3.19197 2.61369,7.71678 4.1795,9.67835 0.9016,1.12947 0.87877,1.3285 -0.31046,2.70615 -2.34017,2.71096 -4.60193,4.35396 -5.99367,4.35396 -0.58507,0 -0.58562,-0.0399 -0.033,-2.38125 0.6475,-2.74326 0.22195,-3.84196 -1.60276,-4.13807 -0.89558,-0.14533 -0.90745,-0.13411 -1.27127,1.20194 -0.20199,0.74175 -0.44896,1.34863 -0.54884,1.34863 -0.0999,0 -0.5,0.48114 -0.88915,1.0692 -0.90799,1.37206 -3.3147,3.72163 -4.86186,4.74642 -1.13673,0.75295 -1.35219,0.79815 -3.74054,0.78486 l -2.53432,-0.0141 z m 16.07268,-17.05152 c 0.40519,-2.7261 0.22681,-3.84738 -0.26307,-1.65365 -0.20621,0.92342 -0.62257,1.87944 -0.99531,2.28538 l -0.6408,0.69788 0.60906,0.4266 c 0.33499,0.23463 0.6893,0.4266 0.78737,0.4266 0.0981,0 0.3243,-0.98226 0.50275,-2.18281 z m -5.21672,1.36475 c 0.91451,-0.41668 1.7241,-2.62251 0.88573,-2.4133 -1.38581,0.34584 -4.10083,1.49436 -3.98305,1.68494 0.16659,0.26954 1.66005,0.96279 2.14498,0.99567 0.17505,0.0119 0.60361,-0.10842 0.95234,-0.26731 z m 5.20522,-5.2639 c 0.53895,-0.28844 0.92407,-1.92229 0.82396,-3.49561 -0.13669,-2.14819 -0.83117,-3.28835 -1.22586,-2.01251 -0.2019,0.65266 -1.64379,2.03652 -2.14048,2.05433 -0.16493,0.006 -0.37336,0.21911 -0.46319,0.47377 -0.0898,0.25467 -0.22738,0.5959 -0.30567,0.7583 -0.13377,0.27746 1.3584,0.69505 2.65623,0.74336 0.52731,0.0196 0.61473,0.72064 0.11245,0.90164 -0.26164,0.0943 -0.34599,0.83785 -0.0951,0.83785 0.0823,0 0.36926,-0.11751 0.63762,-0.26113 z m -17.71371,-23.94825 -0.0176,-9.12812 h 9.46147 9.46147 l -0.65876,0.59538 c -0.36231,0.32745 -1.55172,1.35565 -2.64313,2.28487 -3.22999,2.75002 -4.28489,3.77182 -4.08493,3.95676 0.10375,0.0959 0.24178,0.0256 0.30675,-0.15628 0.065,-0.1819 0.21159,-0.33073 0.32583,-0.33073 0.11425,0 0.73615,-0.50602 1.38201,-1.12448 0.64586,-0.61846 1.88019,-1.71979 2.74296,-2.4474 0.86277,-0.7276 1.90698,-1.65033 2.32047,-2.05052 l 0.75178,-0.7276 9.17392,0.007 9.17392,0.007 -3.96875,2.00904 c -2.18281,1.10497 -5.18287,2.70919 -6.66679,3.56493 -1.48392,0.85574 -2.82337,1.55589 -2.97656,1.55589 -0.15319,0 -0.27852,0.10289 -0.27852,0.22864 0,0.12575 -0.56555,0.44 -1.25678,0.69834 -1.69031,0.63174 -4.03489,2.03435 -4.03489,2.41382 0,0.48276 -0.81596,0.72294 -2.19802,0.64697 -2.34573,-0.12893 -4.38383,1.98339 -3.12667,3.24055 0.52733,0.52733 0.52725,0.52821 -0.0921,1.01536 -0.34091,0.26816 -0.82057,0.48757 -1.0659,0.48757 -0.24533,0 -0.50618,0.22989 -0.57965,0.51086 -0.19225,0.73517 -0.51001,0.78502 -2.93457,0.46041 l -2.17396,-0.29107 v -1.00156 c 0,-0.71388 -0.114,-1.00156 -0.39688,-1.00156 -0.21828,0 -0.39687,-0.16894 -0.39687,-0.37543 0,-0.47215 0.85831,-2.0019 1.12448,-2.00414 0.10914,-9.2e-4 0.19843,-0.18027 0.19843,-0.39855 0,-0.21828 -0.0635,-0.39688 -0.14121,-0.39688 -0.22148,0 -1.57594,1.44288 -2.40172,2.55852 -0.41254,0.55735 -1.08071,1.32163 -1.48482,1.69842 -0.40411,0.37678 -0.73475,0.76774 -0.73475,0.86881 0,0.26988 -1.56438,1.75342 -1.84896,1.75342 -0.14287,0 -0.25046,-3.76637 -0.26078,-9.12813 z"
         id="path363" /><path
         style="fill:#b1c8d7"
         d="m 152.29272,180.2474 c 0.0585,-2.24535 -0.0381,-2.9226 -0.74572,-5.22552 -1.02625,-3.33994 -3.41699,-7.84411 -5.77496,-10.88008 -3.02642,-3.89663 -4.68874,-7.64239 -5.53267,-12.46696 -0.69205,-3.95631 -0.45222,-6.55278 1.00074,-10.83448 1.28749,-3.7941 3.91021,-7.38453 6.66197,-9.12006 3.95664,-2.49544 9.96214,-2.52801 13.94037,-0.0756 1.63287,1.0066 4.03627,3.60327 5.09098,5.50037 2.97571,5.35236 3.62944,11.60886 1.85916,17.79303 -0.746,2.60602 -2.91753,6.71509 -4.8155,9.11212 -2.32085,2.93108 -4.84168,7.63989 -5.86797,10.96113 -0.67447,2.18271 -0.81433,3.08017 -0.81433,5.22552 v 2.59021 h -2.10637 -2.10636 l -0.0882,-2.31511 -0.0882,-2.3151 -0.0544,2.3151 c -0.034,1.44751 -0.16148,2.31511 -0.34011,2.31511 -0.18961,0 -0.26308,-0.86764 -0.21845,-2.57969 z m 4.74972,-16.58786 c -0.27137,-0.32698 -0.17543,-0.53407 0.55761,-1.20365 0.97046,-0.88645 1.72382,-0.94496 1.60193,-0.12442 -0.0632,0.4253 -0.0292,0.44796 0.18742,0.12491 0.16283,-0.24287 0.17011,-0.48916 0.0189,-0.64034 -0.15119,-0.15119 0.0566,-0.53454 0.54018,-0.99671 0.43223,-0.41305 0.78587,-0.87607 0.78587,-1.02891 0,-0.15284 0.10836,-0.21093 0.2408,-0.12908 0.38949,0.24072 2.69627,-2.3019 2.56744,-2.82993 -0.0622,-0.25486 -0.0176,-0.40438 0.0991,-0.33225 0.1167,0.0721 0.28283,-0.053 0.36917,-0.27796 0.0899,-0.23426 0.0452,-0.34001 -0.10457,-0.24745 -0.14385,0.0889 -0.26155,-0.0367 -0.26155,-0.27915 0,-0.28967 0.14077,-0.38677 0.41062,-0.28323 0.22583,0.0867 0.34458,0.0507 0.26387,-0.0799 -0.17428,-0.28199 0.54266,-3.37483 0.94989,-4.09775 0.15639,-0.27763 0.27121,-1.37896 0.25515,-2.44739 -0.0161,-1.06844 0.0605,-1.94315 0.17011,-1.9438 0.10962,-6.6e-4 0.22075,-0.41925 0.24694,-0.93022 0.0265,-0.51662 -0.0616,-0.86151 -0.19843,-0.77694 -0.13534,0.0836 -0.24607,0.026 -0.24607,-0.12813 0,-0.1541 0.0893,-0.28028 0.19844,-0.28038 0.10914,-10e-5 0.21674,-0.31601 0.23912,-0.70202 0.0307,-0.52957 -0.0233,-0.6107 -0.21984,-0.33054 -0.18497,0.26361 -0.21287,0.15385 -0.0962,-0.37849 0.11575,-0.52824 0.0746,-0.69434 -0.13924,-0.56217 -0.21313,0.13172 -0.24754,4.1e-4 -0.11553,-0.44086 0.18413,-0.6155 0.17925,-0.61754 -0.23689,-0.0993 -0.26726,0.33286 -0.37228,0.37621 -0.28309,0.11684 0.078,-0.22678 -0.0978,-0.68863 -0.39074,-1.02634 -0.29289,-0.3377 -0.46928,-0.71634 -0.39198,-0.84141 0.0773,-0.12507 -0.0605,-0.15026 -0.30618,-0.056 -0.31063,0.1192 -0.40906,0.0585 -0.32311,-0.1994 0.068,-0.20395 -0.11245,-0.49081 -0.40095,-0.63747 -0.93113,-0.47333 -1.16328,-1.12303 -0.57065,-1.59705 0.50712,-0.40563 0.50476,-0.40958 -0.0762,-0.12783 -0.51659,0.25053 -0.63524,0.20678 -0.85748,-0.31613 -0.22676,-0.53355 -0.25454,-0.54294 -0.22987,-0.0777 0.0481,0.90681 -0.01,0.93235 -0.89278,0.39398 -0.47294,-0.28836 -1.07366,-0.52473 -1.33494,-0.52528 -0.26128,-5.4e-4 -0.7727,-0.29864 -1.13651,-0.66245 -0.65554,-0.65554 -1.06741,-0.87858 -0.78822,-0.42685 0.23623,0.38223 -0.44527,0.77673 -1.57302,0.91059 -1.99784,0.23713 -3.37349,0.80282 -3.81181,1.56747 -0.22961,0.40055 -0.63662,0.79895 -0.90445,0.88532 -0.26784,0.0864 -0.75523,0.73604 -1.08309,1.44369 -0.32786,0.70766 -0.71214,1.44036 -0.85396,1.62822 -0.52617,0.69702 -1.19532,5.08801 -1.0806,7.09101 0.14201,2.47947 0.72437,5.30682 1.19136,5.78401 0.19518,0.19944 0.42344,0.70546 0.50725,1.12448 0.0838,0.41902 0.25655,0.76186 0.38388,0.76186 0.12733,0 0.23151,0.17859 0.23151,0.39687 0,0.21828 0.11906,0.39688 0.26458,0.39688 0.14552,0 0.26459,0.17859 0.26459,0.39687 0,0.21828 0.11906,0.39688 0.26458,0.39688 0.14552,0 0.26458,0.24107 0.26458,0.53571 0,0.34 0.26386,0.63604 0.72222,0.8103 0.39722,0.15103 0.823,0.41597 0.94619,0.58877 0.15491,0.21732 0.18799,0.19182 0.10728,-0.0827 -0.17826,-0.60633 0.29811,-1.32292 0.87945,-1.32292 0.28593,0 0.51986,0.12429 0.51986,0.27619 0,0.1519 -0.19601,0.24119 -0.43557,0.19843 -0.23956,-0.0428 -0.49178,0.0836 -0.56047,0.28075 -0.094,0.26991 0.03,0.30774 0.50172,0.15309 0.34464,-0.11298 0.83244,-0.1926 1.08401,-0.17693 0.25157,0.0157 0.43016,-0.0979 0.39688,-0.2523 -0.0333,-0.15443 0.0884,-0.33539 0.27038,-0.40212 0.19692,-0.0722 0.27416,0.0266 0.19077,0.24389 -0.0818,0.21323 0.11078,0.47594 0.46284,0.63131 0.33164,0.14636 0.4514,0.23276 0.26613,0.19202 -0.25235,-0.0555 -0.26894,0.0528 -0.0661,0.43173 0.34596,0.64644 0.34945,1.78363 0.006,1.99582 -0.14552,0.0899 -0.26458,0.28258 -0.26458,0.4281 0,0.14552 0.1199,0.19048 0.26645,0.0999 0.14655,-0.0906 0.33985,0.0266 0.42956,0.26038 0.0897,0.23378 0.2249,0.36327 0.30042,0.28775 0.0755,-0.0755 -0.0102,-0.31503 -0.19045,-0.53223 z m -11.93132,-1.72229 c -1.34586,-1.97168 -2.67951,-5.02803 -3.4689,-7.94975 -0.50635,-1.87407 -0.60572,-2.88846 -0.59614,-6.08541 0.01,-3.30769 0.10141,-4.12866 0.66388,-5.95647 1.62028,-5.26537 5.56674,-9.70877 9.764,-10.9935 0.50953,-0.15596 0.54444,-0.20769 0.15202,-0.22521 -0.28018,-0.0125 -1.3808,0.40781 -2.44582,0.93405 -4.52951,2.23807 -7.72111,7.53116 -8.56007,14.1964 -0.34985,2.77952 -0.0823,5.71596 0.80058,8.78554 0.58169,2.02249 2.61926,6.2784 3.70807,7.74512 1.2334,1.66151 1.22181,1.365 -0.0176,-0.45077 z m 23.34947,-8.43027 c 0.42614,-1.5699 0.55229,-2.81656 0.55375,-5.4726 0.001,-1.89177 -0.10536,-3.76422 -0.23644,-4.16099 -0.16235,-0.49145 -0.24661,0.68927 -0.26434,3.70417 -0.0259,4.4008 -0.25652,5.81817 -1.53824,9.45265 -0.10264,0.29104 0.0654,0.0748 0.3734,-0.48052 0.308,-0.55534 0.80834,-1.92455 1.11187,-3.04271 z m -10.46584,26.87271 c -0.15653,-2.22869 -0.10437,-2.66019 0.5837,-4.82864 1.28883,-4.06176 3.53302,-8.15305 6.82115,-12.43542 3.80747,-4.95874 5.92971,-13.38839 4.73523,-18.80864 -0.65468,-2.97081 -1.67298,-5.80628 -2.74722,-7.6497 -1.1839,-2.0316 -3.94649,-4.90876 -5.46141,-5.68792 -0.64708,-0.3328 -1.10203,-0.72561 -1.011,-0.87291 0.0915,-0.14799 0.035,-0.18713 -0.12624,-0.0875 -0.16046,0.0992 -0.9784,-0.061 -1.81765,-0.35599 -0.83924,-0.29497 -1.96947,-0.53631 -2.51163,-0.53631 -0.54216,0 -1.05717,-0.11557 -1.14447,-0.25683 -0.29763,-0.48157 1.15405,-0.58777 3.55307,-0.25993 2.31959,0.31699 2.39539,0.34913 2.39931,1.01736 0.003,0.5168 0.0644,0.59467 0.24442,0.31016 0.18708,-0.29565 0.32355,-0.31082 0.6156,-0.0684 0.20638,0.17128 0.45839,0.22827 0.56002,0.12664 0.18515,-0.18514 2.53447,0.92086 2.83882,1.33645 0.089,0.12157 0.26763,0.23752 0.39688,0.25766 0.12925,0.0202 0.41359,0.18456 0.63187,0.36537 0.21829,0.1808 0.81186,0.60421 1.31907,0.9409 0.5072,0.33669 1.05361,0.87578 1.21424,1.19797 0.16063,0.32219 0.37072,0.50713 0.46687,0.41098 0.0962,-0.0961 0.17482,0.0236 0.17482,0.26615 0,0.24254 0.1233,0.44098 0.27399,0.44098 0.15069,0 0.49803,0.52266 0.77185,1.16147 0.27383,0.63882 0.62679,1.24115 0.78435,1.33853 0.15757,0.0974 0.28648,0.58675 0.28648,1.08749 0,0.63288 0.12099,0.91042 0.39688,0.91042 0.34608,0 0.39687,1.33762 0.39687,10.45104 0,9.11343 -0.0508,10.45105 -0.39687,10.45105 -0.23886,0 -0.39688,0.24466 -0.39688,0.61447 0,0.70758 -1.50594,3.61886 -1.87195,3.61886 -0.1346,0 -0.24472,0.19519 -0.24472,0.43376 0,0.23857 -0.3499,1.00243 -0.77757,1.69748 -0.42767,0.69504 -0.86371,1.72024 -0.96898,2.27822 -0.10527,0.55797 -0.24118,0.86673 -0.30202,0.68613 -0.0881,-0.26143 -0.17733,-0.26143 -0.4379,0 -0.43349,0.43494 -0.98521,2.04675 -0.80203,2.34314 0.0796,0.1288 0.0409,0.23419 -0.0861,0.23419 -0.12695,0 -0.39432,0.41672 -0.59417,0.92604 -0.19984,0.50932 -0.46019,0.92604 -0.57855,0.92604 -0.11836,0 -0.2152,0.23813 -0.2152,0.52917 0,0.29104 -0.11906,0.52916 -0.26458,0.52916 -0.14552,0 -0.26458,0.21184 -0.26458,0.47076 0,0.25892 -0.23813,0.64239 -0.52917,0.85216 -0.29104,0.20977 -0.52917,0.65651 -0.52917,0.99276 0,0.33624 -0.1731,0.67778 -0.38468,0.75896 -0.32923,0.12634 -1.4674,1.75507 -1.4674,2.09986 0,0.38341 0.48566,-0.0199 1.05597,-0.87682 0.36251,-0.54471 0.72543,-1.04992 0.8065,-1.12268 0.0811,-0.0728 0.43763,-0.54901 0.79234,-1.05833 0.89542,-1.28569 1.39614,-1.85208 1.63733,-1.85208 0.3441,0 0.23043,0.54231 -0.20493,0.97767 -0.23647,0.23646 -0.36611,0.70551 -0.30559,1.10558 0.0578,0.38218 0.054,0.53946 -0.008,0.3495 -0.18936,-0.57619 -0.71884,-0.18921 -0.77704,0.56792 -0.03,0.39067 -0.29973,1.05458 -0.59935,1.47535 -0.3071,0.43129 -0.54476,1.18007 -0.54476,1.71638 v 0.95135 h -2.60678 -2.60678 z m -36.57081,-8.60009 c -2.59714,-1.74999 -2.49373,-1.56499 -2.49373,-4.46144 0,-2.29547 0.0431,-2.5389 0.36775,-2.07543 0.34693,0.4953 0.66479,0.5235 5.61108,0.49775 l 5.24333,-0.0273 0.58773,-0.90191 c 0.32325,-0.49604 0.626,-1.14003 0.67277,-1.43107 0.0722,-0.44938 -0.0837,-0.54139 -1.03433,-0.61027 -0.61565,-0.0446 -2.17515,0.10109 -3.46556,0.32377 -1.55451,0.26827 -2.62042,0.32625 -3.15885,0.17183 -0.44696,-0.12819 -1.71519,-0.31765 -2.81829,-0.42101 l -2.00563,-0.18795 7.6e-4,-3.21006 7.7e-4,-3.21006 1.256,-0.66146 c 0.69081,-0.3638 1.25601,-0.78 1.25601,-0.92488 0,-0.14489 -0.47625,-0.4192 -1.05834,-0.60958 -0.58208,-0.19039 -1.17739,-0.47372 -1.32291,-0.62963 -0.27401,-0.29357 -0.16471,-0.27995 2.64583,0.32979 0.72761,0.15785 2.40845,0.27817 3.7352,0.26738 2.00392,-0.0163 2.89972,-0.17734 5.29167,-0.95127 3.52232,-1.13967 5.65519,-2.16257 6.33472,-3.03806 0.43725,-0.56333 0.50646,-1.04649 0.46657,-3.25691 -0.0292,-1.61839 -0.17098,-2.74505 -0.37662,-2.99283 -0.27205,-0.3278 -0.21096,-0.50756 0.34888,-1.02668 0.6924,-0.64203 2.62234,-1.77339 2.7712,-1.62453 0.0452,0.0452 -0.15606,1.01393 -0.4473,2.15267 -0.32483,1.27005 -0.52953,2.93598 -0.52953,4.30946 0,1.96025 -0.0494,2.19802 -0.39687,1.90966 -0.32937,-0.27336 -0.39688,-0.24287 -0.39688,0.17927 0,0.27975 -0.13321,0.64185 -0.29602,0.80466 -0.2183,0.2183 -0.18368,0.90946 0.13186,2.63261 0.26277,1.43491 0.4403,3.94467 0.46006,6.50377 0.0177,2.29195 0.12042,4.16719 0.22827,4.16719 0.10785,0 0.28282,-0.74414 0.38883,-1.65365 0.24755,-2.12394 0.24775,-2.21906 0.0112,-5.35781 -0.28808,-3.82238 -0.29053,-4.35036 -0.0203,-4.37019 0.13336,-0.01 0.45336,0.7909 0.7111,1.77932 0.89959,3.44978 2.63265,7.24413 4.07185,8.91484 0.70216,0.8151 0.62319,1.14954 -0.46287,1.96032 -0.25549,0.19073 -0.64751,0.70064 -0.87116,1.13313 -0.22365,0.43249 -0.51926,0.71673 -0.65692,0.63165 -0.13986,-0.0864 -0.17741,0.0352 -0.0851,0.27578 0.12172,0.31721 0.0339,0.40784 -0.33376,0.34448 -0.27442,-0.0473 -0.47615,0.0419 -0.4483,0.19822 0.062,0.3479 -2.41088,1.86418 -3.45334,2.11748 -0.67741,0.16459 -0.73874,0.12678 -0.5842,-0.36016 0.1678,-0.52868 0.23486,-0.8358 0.57574,-2.63685 0.0907,-0.4792 0.32542,-0.8599 0.53019,-0.8599 0.20208,0 0.36743,-0.19317 0.36743,-0.42927 0,-0.35157 -0.0718,-0.36965 -0.39688,-0.0999 -0.33798,0.2805 -0.39687,0.20998 -0.39687,-0.47519 0,-0.6281 -0.19546,-0.92537 -0.89113,-1.35532 -1.49198,-0.92209 -1.92066,-0.76086 -2.40478,0.90447 -0.23267,0.80036 -0.53878,1.4552 -0.68024,1.4552 -0.14145,0 -0.25719,0.13231 -0.25719,0.29401 0,0.74435 -3.38064,4.24958 -5.39309,5.59184 -0.98616,0.65775 -1.31447,0.72647 -3.47045,0.72647 -2.15866,0 -2.48203,-0.0679 -3.45939,-0.72647 z m 4.32471,-12.64557 c 0.53934,-0.22535 1.25277,-0.34143 1.5854,-0.25794 0.55098,0.13829 0.57501,0.10413 0.27015,-0.38402 -0.20742,-0.33214 -0.61808,-0.53582 -1.08034,-0.53582 -0.50198,0 -0.68319,-0.10117 -0.55441,-0.30954 0.12916,-0.20899 0.0463,-0.2539 -0.25509,-0.13825 -0.37161,0.1426 -0.40093,0.0863 -0.17498,-0.33585 0.18081,-0.33785 0.18286,-0.5619 0.006,-0.67112 -0.14591,-0.0902 -0.26529,0.0217 -0.26529,0.24852 0,0.22687 -0.12609,0.41249 -0.2802,0.41249 -0.15411,0 -0.20662,0.11907 -0.11668,0.26459 0.0976,0.15793 -0.22588,0.26458 -0.80255,0.26458 -1.0399,0 -2.80265,1.04363 -1.81282,1.07327 0.38945,0.0117 1.48201,0.34827 2.42543,0.74725 0.0411,0.0174 0.51592,-0.15281 1.05526,-0.37816 z m 9.69897,-0.84705 c 0.23409,-0.43149 0.4082,-0.56609 0.42783,-0.33073 0.0714,0.85626 0.77307,-2.6355 0.94373,-4.69635 0.13009,-1.57092 0.0957,-2.18281 -0.12286,-2.18281 -0.16699,0 -0.30361,0.23327 -0.30361,0.51838 0,0.815 -1.33312,2.81324 -2.22909,3.34126 -0.44749,0.26371 -1.03033,0.68066 -1.2952,0.92656 -0.26487,0.2459 -1.00635,0.59401 -1.64772,0.77358 l -1.16615,0.3265 0.63113,0.49644 c 0.67603,0.53177 3.06119,0.71243 3.06119,0.23186 0,-0.56842 0.49179,-0.22332 0.75411,0.52917 0.34071,0.97736 0.44822,0.98487 0.94664,0.0661 z m -3.37109,-3.19446 c 0.54906,-0.63705 1.01863,-1.84492 0.80159,-2.06196 -0.19065,-0.19066 -4.47642,1.35409 -4.49012,1.6184 -0.0234,0.45103 2.00615,1.45665 2.58075,1.27874 0.29104,-0.0901 0.78954,-0.46595 1.10778,-0.83518 z m -7.85466,-5.49745 c -0.3638,-0.0439 -1.73302,-0.16377 -3.04271,-0.26638 -1.68271,-0.13185 -2.18721,-0.2443 -1.71979,-0.38334 0.63116,-0.18775 0.63419,-0.19797 0.0661,-0.22314 -0.45838,-0.0203 -0.59531,-0.18503 -0.59531,-0.71614 0,-0.55525 0.0903,-0.65152 0.46302,-0.49364 0.25466,0.10788 0.97017,0.28051 1.59003,0.38363 1.32329,0.22014 1.65251,0.46395 1.11428,0.8252 -0.34049,0.22852 -0.33953,0.25475 0.008,0.20947 0.73401,-0.0957 3.175,0.36014 3.175,0.59294 0,0.12678 -0.0893,0.21266 -0.19844,0.19086 -0.10914,-0.0218 -0.4961,-0.0756 -0.8599,-0.11946 z m 2.97432,-0.90906 c 0.32081,-0.5193 0.62163,-0.6496 2.05277,-0.88912 1.0557,-0.1767 2.0716,-0.63213 3.30883,-1.48337 0.63367,-0.43597 1.33904,-0.79268 1.56748,-0.79268 0.22845,0 0.41535,-0.15547 0.41535,-0.34548 0,-0.19001 0.28176,-0.72737 0.62614,-1.19415 0.5241,-0.71037 0.6771,-0.78726 0.93889,-0.47183 0.21345,0.25719 0.22467,0.43129 0.0353,0.54831 -0.15259,0.0943 -0.27743,0.0226 -0.27743,-0.15931 0,-0.18192 -0.16845,-0.1004 -0.37432,0.18115 -0.27827,0.38055 -0.29524,0.56327 -0.0661,0.71203 0.21605,0.14029 0.22331,0.25943 0.0243,0.39855 -0.15613,0.10914 -0.36597,0.42039 -0.46631,0.69167 -0.1314,0.35528 -0.36651,0.45805 -0.84059,0.36742 -0.66928,-0.12794 -0.93133,0.1919 -0.32744,0.39964 0.1819,0.0626 -0.60839,0.5552 -1.75621,1.09472 -1.14782,0.53952 -2.24914,0.9187 -2.4474,0.84262 -0.19825,-0.0761 -0.36045,-0.008 -0.36045,0.15103 0,0.17955 -0.29732,0.22989 -0.7835,0.13266 -0.43092,-0.0862 -0.85466,-0.0415 -0.94165,0.0992 -0.087,0.14075 -0.27121,0.25591 -0.40938,0.25591 -0.13816,0 -0.10137,-0.24254 0.0818,-0.53899 z m -5.82109,-17.1845 c -0.18052,-0.28907 -0.32823,-0.76532 -0.32823,-1.05833 0,-0.29718 -0.17549,-0.53276 -0.39687,-0.53276 -0.28523,0 -0.39688,-0.29153 -0.39688,-1.03629 0,-0.56995 0.11026,-1.07597 0.24502,-1.12447 0.13476,-0.0485 0.31407,-0.44539 0.39846,-0.88195 0.0844,-0.43656 0.0752,-0.62059 -0.0205,-0.40894 -0.22267,0.49258 -1.15213,1.49599 -1.15213,1.24379 0,-0.41658 1.41235,-2.96452 1.75334,-3.1631 0.19983,-0.11637 0.36332,-0.43466 0.36332,-0.7073 0,-0.27265 0.29766,-0.84947 0.66146,-1.28182 0.3638,-0.43236 0.66146,-0.90578 0.66146,-1.05205 0,-0.26756 1.39209,-2.429 2.34305,-3.63795 l 0.51123,-0.64992 5.78276,0.008 5.78275,0.008 -0.82619,0.71985 c -0.45441,0.39592 -1.33848,1.13657 -1.9646,1.64589 -0.62612,0.50932 -1.40394,1.16417 -1.72848,1.45521 -0.32454,0.29104 -1.45808,1.30307 -2.51897,2.24896 -1.06088,0.94588 -2.73082,2.51446 -3.71097,3.48572 -1.40684,1.39409 -1.90368,1.73413 -2.35958,1.61491 -0.49424,-0.12925 -0.55151,-0.0692 -0.39725,0.41688 0.21093,0.66459 0.003,0.7287 -0.55467,0.17103 -0.21828,-0.21828 -0.86462,-0.39688 -1.43631,-0.39688 -0.93234,0 -1.03944,0.0682 -1.03944,0.66146 0,0.3638 0.11907,0.66146 0.26459,0.66146 0.14552,0 0.26458,0.29063 0.26458,0.64584 0,0.35522 0.11906,0.71943 0.26458,0.80937 0.3101,0.19165 0.35531,0.66146 0.0636,0.66146 -0.11052,0 -0.34864,-0.23651 -0.52917,-0.52558 z m 20.59245,-0.87455 c -0.0102,-0.26075 0.2197,-0.72986 0.51095,-1.04248 0.39046,-0.41912 0.44494,-0.6207 0.2074,-0.7675 -0.47922,-0.29618 1.01464,-0.79395 1.79496,-0.5981 0.3537,0.0888 0.6431,0.28047 0.6431,0.42599 0,0.1501 -0.2862,0.19275 -0.66146,0.0986 -0.38144,-0.0957 -0.66146,-0.0519 -0.66146,0.1036 0,0.1483 0.14883,0.27927 0.33073,0.29105 0.1819,0.0118 -0.14084,0.24098 -0.71719,0.50934 -0.57636,0.26836 -1.13353,0.70521 -1.23817,0.97077 -0.18005,0.45692 -0.19126,0.45739 -0.20886,0.009 z m -23.03734,-8.38946 v -5.02708 h 3.19061 c 2.48207,0 3.14649,0.0734 2.99194,0.33073 -0.10928,0.1819 -0.59255,0.89505 -1.07395,1.58478 -0.4814,0.68974 -0.87527,1.36584 -0.87527,1.50246 0,0.13662 -0.15616,0.40573 -0.34702,0.59803 -0.47478,0.47835 -2.73063,4.12053 -3.20725,5.17827 -0.21311,0.47294 -0.45309,0.8599 -0.53327,0.8599 -0.0802,0 -0.14579,-2.26219 -0.14579,-5.02709 z m 25.4,-0.65527 c 0,-0.32935 -0.20677,-0.37625 -1.05834,-0.24008 -1.00916,0.16137 -1.05833,0.13693 -1.05833,-0.52604 0,-0.63476 -0.0921,-0.69527 -1.05833,-0.69527 -0.76436,0 -1.05834,-0.11025 -1.05834,-0.39688 0,-0.26458 -0.26458,-0.39687 -0.79375,-0.39687 -1.01388,0 -1.01459,-0.42812 -0.002,-1.0045 0.43564,-0.24789 0.79283,-0.6038 0.79375,-0.7909 0.001,-0.2705 1.64112,-0.33236 8.00532,-0.30201 7.63281,0.0364 7.96074,0.0583 7.0776,0.47199 -0.50932,0.2386 -0.98557,0.49357 -1.05833,0.5666 -0.22876,0.22959 -1.17376,0.79139 -1.5875,0.94375 -0.43351,0.15965 -3.40562,1.64326 -4.31231,2.15261 -0.33241,0.18675 -1.01638,0.25598 -1.65888,0.16791 -0.61969,-0.0849 -1.33966,-0.018 -1.66208,0.15458 -0.46809,0.25051 -0.56881,0.23194 -0.56881,-0.10489 z"
         id="path362" /><path
         style="fill:#a3b8c8"
         d="m 152.2938,180.11511 c 0.0508,-2.33421 -0.0445,-3.04368 -0.68421,-5.09323 -0.99618,-3.19169 -3.38276,-7.63981 -5.97747,-11.14084 -3.14138,-4.23865 -4.55868,-7.47553 -5.42257,-12.38422 -0.64176,-3.64653 -0.43769,-6.04138 0.85869,-10.07703 2.3565,-7.33584 7.31012,-11.5183 13.71301,-11.5782 3.77986,-0.0354 6.7894,1.16969 9.37263,3.75292 1.97051,1.97051 3.47109,4.50428 4.55603,7.69299 0.80944,2.37899 0.8561,2.726 0.87161,6.48229 0.0188,4.54296 -0.35144,6.45856 -1.97598,10.22477 -1.04002,2.4111 -1.85318,3.72205 -4.12172,6.64488 -1.87537,2.41628 -4.18277,6.79062 -5.31034,10.06727 -0.84393,2.45244 -0.92438,2.94181 -0.88912,5.4084 l 0.0388,2.71198 h -2.12054 -2.12054 l -0.0882,-2.31511 -0.0882,-2.3151 -0.0544,2.3151 c -0.0335,1.42328 -0.16267,2.31511 -0.33546,2.31511 -0.1839,0 -0.26064,-0.93743 -0.22202,-2.71198 z m 5.21082,-15.51231 c 0.055,-0.16492 0.19386,-0.2418 0.30865,-0.17086 0.43569,0.26928 1.55985,-1.10875 1.48212,-1.81683 -0.0613,-0.55808 -0.006,-0.63646 0.28156,-0.39797 0.19682,0.16335 0.2926,0.40256 0.21285,0.53159 -0.0797,0.12903 -0.0109,0.23461 0.15304,0.23461 0.17326,0 0.23067,-0.21222 0.13714,-0.5069 -0.0885,-0.2788 -0.037,-0.58348 0.11446,-0.67708 0.15144,-0.0936 0.27535,-0.0256 0.27535,0.15104 0,0.19899 0.20195,0.13844 0.53079,-0.15916 0.29193,-0.26419 0.48315,-0.52799 0.42493,-0.58621 -0.16792,-0.16792 1.15069,-1.39626 1.5037,-1.40074 0.2293,-0.003 0.22241,-0.0651 -0.0246,-0.2218 -0.27417,-0.17391 -0.26085,-0.28613 0.0661,-0.55751 0.22517,-0.18687 0.41361,-0.23589 0.41877,-0.10894 0.0205,0.50564 0.76625,-1.13302 0.775,-1.70301 0.005,-0.33601 0.12707,-0.53818 0.27093,-0.44927 0.14998,0.0927 0.19434,-0.0135 0.10398,-0.24897 -0.0867,-0.22584 -0.0197,-0.41062 0.14882,-0.41062 0.41084,0 1.14664,-1.80706 0.98597,-2.42145 -0.0703,-0.26893 -0.0332,-0.48897 0.0825,-0.48897 0.1157,0 0.30227,-0.44648 0.41459,-0.99218 0.11233,-0.54571 0.2471,-1.17079 0.2995,-1.38907 0.206,-0.85809 0.0699,-4.8046 -0.2115,-6.13469 -0.42977,-2.03116 -1.55862,-4.74299 -1.88928,-4.53863 -0.16219,0.10024 -0.19941,0.0448 -0.0894,-0.13325 0.19896,-0.32192 -0.44956,-1.46241 -0.69309,-1.21887 -0.0781,0.0781 -0.2149,-0.0479 -0.30397,-0.28001 -0.11145,-0.29043 -0.0598,-0.35936 0.16575,-0.22105 0.18024,0.11054 -0.14855,-0.2788 -0.73063,-0.8652 -0.58209,-0.5864 -1.14763,-1.02082 -1.25677,-0.96537 -0.10914,0.0554 -0.19844,-0.0721 -0.19844,-0.28338 0,-0.2113 -0.19544,-0.45918 -0.4343,-0.55084 -0.36313,-0.13935 -0.3795,-0.10063 -0.0999,0.23628 0.20864,0.25139 0.22859,0.40293 0.053,0.40293 -0.15475,0 -0.35852,-0.12484 -0.45282,-0.27743 -0.10075,-0.16302 -0.29815,-0.18281 -0.47864,-0.048 -0.16895,0.1262 -0.65303,0.25123 -1.07575,0.27786 l -0.76859,0.0484 0.61063,-0.52959 c 0.44491,-0.38587 0.50073,-0.52959 0.20567,-0.52959 -0.22273,0 -0.55786,0.18423 -0.74474,0.40939 -0.2529,0.30473 -0.3899,0.32829 -0.53584,0.0922 -0.15226,-0.24637 -0.51219,-0.24504 -1.61085,0.006 -0.77813,0.17775 -1.80174,0.38744 -2.27468,0.46597 -0.47295,0.0785 -0.8599,0.28442 -0.8599,0.45755 0,0.17313 -0.42449,0.46827 -0.94331,0.65588 -0.51883,0.18761 -1.00781,0.50919 -1.08664,0.71461 -0.0788,0.20543 -0.29007,0.37351 -0.46943,0.37351 -0.17935,0 -0.46324,0.30099 -0.63086,0.66888 -0.16762,0.36789 -0.48439,0.73781 -0.70393,0.82206 -0.21954,0.0842 -0.39916,0.32276 -0.39916,0.53004 0,0.20728 -0.18214,0.44677 -0.40476,0.53219 -0.24717,0.0949 -0.34599,0.34049 -0.25382,0.63089 0.083,0.26156 0.0303,0.55015 -0.11722,0.6413 -0.14748,0.0911 -0.40277,0.66672 -0.56731,1.27904 -0.16454,0.61232 -0.37613,1.17284 -0.47021,1.2456 -0.56777,0.4391 -0.7097,1.95199 -0.49644,5.29166 0.17952,2.81131 0.3895,4.04946 0.98612,5.81476 0.41691,1.23359 0.88529,2.28531 1.04083,2.33715 0.15555,0.0519 0.28281,0.36356 0.28281,0.69268 0,0.32912 0.25031,0.82493 0.55625,1.1018 0.30594,0.27687 0.72407,0.82791 0.92916,1.22453 0.34108,0.65957 0.33313,0.70888 -0.0932,0.57766 -0.27486,-0.0846 -0.22182,0.004 0.12926,0.2149 0.54522,0.32816 0.5598,0.39397 0.17305,0.78072 -0.32645,0.32645 -0.34723,0.46879 -0.0915,0.62684 0.2012,0.12434 0.26413,0.0965 0.16059,-0.071 -0.0936,-0.15152 0.009,-0.42447 0.22867,-0.60656 0.32552,-0.27016 0.50756,-0.23916 0.98927,0.16846 0.3247,0.27474 0.67281,0.61456 0.7736,0.75515 0.21437,0.29904 0.7428,-0.96252 0.7428,-1.77336 0,-0.84043 0.76769,-1.52497 1.71022,-1.52497 1.2433,0 1.83519,0.55567 1.83519,1.72288 0,1.70432 -1.97034,2.65806 -3.01142,1.45769 -0.44911,-0.51783 -0.45751,-0.51619 -0.76065,0.14914 -0.16859,0.37002 -0.19479,0.6037 -0.0582,0.51929 0.13657,-0.0844 0.3231,-0.0325 0.4145,0.11544 0.0914,0.14789 0.44408,0.2689 0.78372,0.2689 0.33965,0 0.67943,0.16129 0.75508,0.35843 0.16808,0.43801 2.61592,0.15 2.77474,-0.32647 z m -11.92898,-1.968 c -1.04745,-1.37328 -2.99107,-5.41685 -3.58418,-7.45667 -2.34879,-8.07786 -0.74712,-15.85748 4.30942,-20.93174 1.69076,-1.69668 3.0196,-2.51072 5.43766,-3.33109 1.27672,-0.43315 1.33118,-0.47804 0.44404,-0.36597 -0.55614,0.0703 -1.89364,0.56377 -2.97223,1.09671 -6.06886,2.99868 -9.8791,11.89637 -8.49088,19.82792 0.50582,2.88995 1.22984,5.14734 2.45172,7.64411 0.90123,1.84154 2.59337,4.39443 2.91278,4.39443 0.0886,0 -0.14013,-0.39496 -0.50833,-0.8777 z m 22.05482,-6.65829 c 1.62458,-4.06648 1.99671,-9.47461 0.90152,-13.10151 -0.52902,-1.7519 -1.99977,-5.35686 -2.13169,-5.22495 -0.0518,0.0518 0.2563,0.95521 0.68459,2.00764 2.25973,5.55282 2.04796,11.39765 -0.66781,18.43085 -0.14447,0.37415 -0.12026,0.45166 0.0826,0.26459 0.15784,-0.14552 0.66667,-1.215 1.13075,-2.37662 z m -9.59409,24.41559 c -0.0922,-2.14558 -0.008,-2.7809 0.66274,-4.97335 1.18038,-3.86072 3.20841,-7.62459 6.29352,-11.68026 1.6926,-2.22509 1.99863,-2.74921 3.27414,-5.60732 1.82714,-4.09418 2.68509,-9.86635 2.00344,-13.47893 -0.35948,-1.90517 -1.87629,-6.57229 -2.31391,-7.11973 -0.15215,-0.19033 -0.47684,-0.74011 -0.72154,-1.22175 -0.2447,-0.48164 -0.86469,-1.34035 -1.37776,-1.90826 -0.83033,-0.91907 -0.98989,-1.58166 -0.3809,-1.58166 0.11693,0 0.67545,0.37576 1.24116,0.83504 0.56571,0.45927 0.81403,0.75829 0.55181,0.66448 -0.72751,-0.26024 -0.26871,0.29552 0.62583,0.75811 0.55695,0.28801 0.77697,0.59635 0.77697,1.08885 0,0.61064 0.0493,0.64667 0.44276,0.32393 0.39548,-0.32435 0.42576,-0.29718 0.28354,0.25443 -0.11725,0.45476 0.0397,0.8257 0.59537,1.40717 0.45965,0.48097 0.82622,1.22208 0.93782,1.89599 0.10077,0.6085 0.314,1.3445 0.47384,1.63554 0.15985,0.29104 0.30901,0.82682 0.33148,1.19062 0.12106,1.96033 0.48291,3.96875 0.71504,3.96875 0.38297,0 0.078,8.28314 -0.30969,8.41238 -0.16317,0.0544 -0.29516,0.67337 -0.29516,1.38413 0,0.78101 -0.19767,1.62925 -0.50353,2.16077 -0.27694,0.48126 -0.58582,1.27001 -0.6864,1.75279 -0.10059,0.48277 -0.35025,0.942 -0.55481,1.02049 -0.20456,0.0785 -0.37419,0.33835 -0.37695,0.57744 -0.003,0.23909 -0.38972,1.02093 -0.8599,1.73741 -1.68921,2.57412 -2.07038,3.20225 -2.21993,3.65824 -0.0835,0.25466 -0.25704,0.46302 -0.38559,0.46302 -0.12855,0 -0.23372,0.17859 -0.23372,0.39688 0,0.21828 -0.11906,0.39687 -0.26459,0.39687 -0.14552,0 -0.26458,0.21703 -0.26458,0.48228 0,0.57815 -1.53005,3.81133 -1.91882,4.0547 -0.15055,0.0942 -0.20941,0.41729 -0.13081,0.71788 0.0786,0.30058 -0.008,0.67188 -0.19274,0.82509 -0.18462,0.15322 -0.60221,1.0208 -0.92799,1.92796 -0.32577,0.90716 -0.69821,1.76249 -0.82764,1.90074 -0.12943,0.13824 -0.23533,0.64426 -0.23533,1.12448 0,0.48021 -0.1,0.87312 -0.22212,0.87312 -0.20179,0 -0.83622,1.1369 -0.83622,1.49852 0,0.0829 0.24493,0.0866 0.54428,0.008 0.34595,-0.0905 0.50705,-0.0294 0.44212,0.16758 -0.0573,0.17389 -0.74893,0.34438 -1.57582,0.38846 l -1.47366,0.0786 z m -36.21246,-8.47081 c -0.51852,-0.33197 -1.38663,-0.97221 -1.92913,-1.42276 l -0.98636,-0.81919 0.077,-2.29336 0.077,-2.29335 0.71347,0.66275 c 0.39241,0.36451 0.77771,0.55881 0.85622,0.43178 0.2395,-0.38753 3.2994,-0.5581 6.30637,-0.35154 2.64433,0.18165 2.8875,0.1575 3.38514,-0.3361 l 0.53616,-0.53181 0.48116,0.63337 c 0.26551,0.3495 0.61465,0.55086 0.77902,0.44928 0.19058,-0.11779 0.2411,-0.0362 0.14029,0.22653 -0.10212,0.26612 -0.008,0.41061 0.26761,0.41061 0.5837,0 0.53877,0.19711 -0.29587,1.29795 -0.87236,1.15058 -1.38505,1.65542 -3.23944,3.18983 l -1.42666,1.18048 -2.39965,0.0846 c -2.12993,0.075 -2.50562,0.0167 -3.34241,-0.51902 z m 15.95973,-3.70914 c -0.0346,-0.45879 0.01,-0.50391 0.19726,-0.20061 0.34685,0.56122 0.71002,0.0731 0.88663,-1.19174 0.71863,-5.14655 0.96699,-6.04989 1.89772,-6.9024 0.9275,-0.84956 1.1615,-0.81493 1.53322,0.22693 0.0919,0.25756 0.64616,1.17376 1.2317,2.036 1.07763,1.58689 1.28049,2.12592 0.80004,2.12592 -0.14553,0 -0.97402,0.70944 -1.84111,1.57653 -1.45678,1.45678 -2.78033,2.34146 -4.12186,2.75511 -0.42474,0.13097 -0.54847,0.0407 -0.5836,-0.42574 z m 0.18199,-4.03819 c -0.0265,-0.29104 -0.0365,-0.64823 -0.0223,-0.79375 0.0142,-0.14552 -0.52281,-0.28985 -1.19338,-0.32073 -0.67057,-0.0309 -1.27514,-0.11207 -1.34348,-0.18042 -0.0683,-0.0684 0.0718,-1.11464 0.31138,-2.3251 0.99537,-5.02846 1.21612,-6.54808 1.29684,-8.92719 0.0836,-2.46357 0.59339,-1.87327 1.21317,1.40466 0.48773,2.57963 0.55038,3.59701 0.41659,6.76583 -0.0866,2.0513 -0.26396,3.99429 -0.3941,4.31776 -0.22205,0.5519 -0.23959,0.55553 -0.28474,0.0589 z m -13.74376,-0.96517 c -3.53471,-0.77799 -3.45447,-0.74364 -1.45521,-0.6231 l 1.85209,0.11167 -1.31414,-0.35984 c -0.72278,-0.19792 -1.35076,-0.46971 -1.39552,-0.60399 -0.0448,-0.13428 -0.42156,-0.19422 -0.83734,-0.1332 -0.41578,0.061 -0.83662,-0.0196 -0.9352,-0.17906 -0.0986,-0.15951 -0.41034,-0.29002 -0.69279,-0.29002 -0.43024,0 -0.51355,-0.18814 -0.51355,-1.15976 0,-0.86893 0.11611,-1.19876 0.46302,-1.31524 0.44966,-0.15098 0.74952,-0.32574 2.22252,-1.29531 0.7765,-0.51111 1.54779,-0.60965 1.54779,-0.19775 0,0.1459 -0.47526,0.69465 -1.05614,1.21944 -0.58088,0.52479 -0.99057,1.06026 -0.91043,1.18993 0.22541,0.36473 0.64365,0.27844 0.64365,-0.13279 0,-0.20271 0.1786,-0.4371 0.39688,-0.52086 0.21828,-0.0838 0.39687,-0.037 0.39687,0.10398 0,0.14095 -0.11906,0.25628 -0.26458,0.25628 -0.6262,0 -0.18966,0.71454 0.6141,1.00518 1.2748,0.46097 1.40532,0.39768 0.70882,-0.34372 -0.68766,-0.73198 -0.4329,-0.8822 0.44879,-0.26464 0.53579,0.37528 1.40329,0.30229 1.40329,-0.11807 0,-0.25104 1.35037,-0.86865 1.52262,-0.69641 0.0722,0.0722 -0.24584,0.44869 -0.70682,0.83658 -1.02015,0.8584 -0.90146,1.06062 0.37523,0.63928 0.64525,-0.21295 0.91512,-0.43938 0.81978,-0.68783 -0.0782,-0.2037 -0.0264,-0.37037 0.11495,-0.37037 0.14138,0 0.46339,0.47625 0.71557,1.05833 0.46688,1.07769 0.70317,1.26616 0.99513,0.79375 0.27754,-0.44907 0.66146,-0.29257 0.66146,0.26963 0,0.43844 -0.1192,0.50429 -0.6649,0.36733 -0.36569,-0.0918 -0.81217,-0.0479 -0.99219,0.0976 -0.18001,0.14548 -0.9283,0.34523 -1.66286,0.44389 -1.94399,0.26111 -2.24902,0.59919 -0.46187,0.51191 1.30685,-0.0638 1.37681,-0.0463 0.47452,0.11884 -0.58208,0.10654 -1.17739,0.25636 -1.32291,0.33293 -0.14552,0.0766 -0.6813,0.0475 -1.19063,-0.0646 z m 7.67292,-1.92422 c 0,-0.20672 -0.3411,-0.45077 -0.758,-0.54234 -0.41689,-0.0916 -0.99748,-0.3896 -1.29018,-0.66229 -0.41068,-0.38261 -0.60763,-0.42491 -0.86258,-0.18527 -0.25519,0.23986 -0.30524,0.22757 -0.2199,-0.054 0.13532,-0.44649 -1.4682,-2.14902 -2.02404,-2.14902 -0.22085,0 -0.40155,-0.1228 -0.40155,-0.27289 0,-0.40302 0.8764,-0.66978 0.99837,-0.30388 0.0572,0.1717 0.33929,0.31219 0.62679,0.31219 0.28751,0 0.45746,0.10562 0.37768,0.23471 -0.0798,0.12909 0.002,0.2203 0.18282,0.20268 0.48158,-0.047 3.10601,1.17584 3.10601,1.44727 0,0.1276 0.35718,0.232 0.79375,0.232 0.74965,0 0.79375,0.0588 0.79375,1.05834 0,0.9525 -0.0662,1.05833 -0.66146,1.05833 -0.39513,0 -0.66146,-0.15133 -0.66146,-0.37585 z m 8.09429,-2.54198 c -0.12199,-0.34869 -0.68596,-5.11965 -0.68596,-5.80299 0,-0.15126 0.092,-0.27501 0.20442,-0.27501 0.30213,0 0.91361,2.86057 0.69334,3.24354 -0.10387,0.18058 -0.0879,0.23657 0.0354,0.12442 0.12335,-0.11214 0.43991,0.36411 0.70346,1.05834 0.42945,1.13121 0.36856,1.53205 -0.21139,1.39178 -0.0965,-0.0234 -0.27167,0.11321 -0.38926,0.30347 -0.17122,0.27704 -0.24091,0.26837 -0.35004,-0.0435 z m -20.64636,-2.34854 c -0.0985,-0.15943 -0.0514,-0.28988 0.10475,-0.28988 0.63179,0 2.13935,-1.20225 2.03576,-1.62348 -0.0949,-0.38577 0.18499,-0.41818 2.57286,-0.298 1.50905,0.076 3.11269,0.0143 3.67151,-0.14113 0.57973,-0.16126 0.99219,-0.17486 0.99219,-0.0327 0,0.13379 -0.11906,0.24326 -0.26458,0.24326 -0.67898,0 -0.14972,0.8429 0.85989,1.36949 1.32386,0.6905 0.79695,0.99021 -0.79589,0.45271 -0.54452,-0.18374 -1.30566,-0.30399 -1.69141,-0.2672 -0.38575,0.0368 -0.77083,-0.0455 -0.85572,-0.18287 -0.16973,-0.27464 -2.59655,-0.0871 -2.80854,0.21705 -0.12365,0.1774 -0.80227,0.3457 -2.81302,0.69763 -0.47195,0.0826 -0.90576,0.0202 -1.0078,-0.14485 z m 13.67384,-1.40407 c -0.16785,-0.20224 -0.23243,-0.81057 -0.15073,-1.41971 0.13419,-1.00046 0.2239,-1.09458 1.46255,-1.53451 1.53545,-0.54534 1.85621,-0.40848 1.05113,0.44848 -0.31587,0.33623 -0.5743,0.74573 -0.5743,0.91 0,0.16427 -0.21754,0.45425 -0.48341,0.64441 -0.26588,0.19015 -0.60224,0.56161 -0.74748,0.82547 -0.21621,0.39279 -0.3173,0.4156 -0.55776,0.12586 z m -13.96225,-28.58529 c 0.0773,-0.25466 0.21275,-0.64161 0.30108,-0.8599 0.0883,-0.21828 0.0288,-0.39687 -0.13229,-0.39687 -0.20115,0 -0.29289,-1.2464 -0.29289,-3.97922 v -3.97921 l 3.04666,0.039 3.04665,0.039 -0.58074,0.96366 c -0.31941,0.53001 -0.9165,1.39752 -1.32686,1.92778 -0.41037,0.53026 -0.74613,1.03506 -0.74613,1.12177 0,0.0867 -0.53578,0.99353 -1.19063,2.01516 -0.65484,1.02162 -1.19062,1.97534 -1.19062,2.11937 0,0.14403 -0.10087,0.26188 -0.22415,0.26188 -0.12328,0 -0.36509,0.26789 -0.53735,0.59531 -0.17226,0.32742 -0.24999,0.38695 -0.17273,0.13229 z m 13.16575,-5.61193 c 0.0478,-0.52258 0.24773,-0.8308 0.60077,-0.92604 0.29104,-0.0785 0.76167,-0.28007 1.04584,-0.44788 0.4385,-0.25897 0.46362,-0.36904 0.16604,-0.72761 -0.19285,-0.23236 -0.72413,-0.42248 -1.18063,-0.42248 -0.5424,0 -0.94408,-0.18266 -1.15922,-0.52716 -0.3212,-0.51433 -0.26484,-0.52603 2.31478,-0.48038 1.4542,0.0257 2.77614,0.12845 2.93764,0.22826 0.16971,0.10489 -0.16119,0.39136 -0.7841,0.67882 -0.59276,0.27353 -1.08081,0.62242 -1.08457,0.7753 -0.004,0.15289 -0.5484,0.6203 -1.21033,1.0387 -0.66192,0.4184 -1.31922,0.94816 -1.46066,1.17724 -0.19689,0.31889 -0.24038,0.23292 -0.18556,-0.36677 z"
         id="path361" /><path
         style="fill:#9ba7b1"
         d="m 152.32805,180.37969 c 0.11268,-2.20484 0.0404,-2.72599 -0.72921,-5.25852 -1.06422,-3.50198 -3.21615,-7.55711 -5.98741,-11.28281 -3.13881,-4.21982 -4.61574,-7.62745 -5.41632,-12.49669 -0.50891,-3.09531 -0.33807,-5.72008 0.58049,-8.91813 1.02024,-3.5521 2.5519,-6.38556 4.54539,-8.40868 2.98063,-3.02493 5.58958,-4.15498 9.59255,-4.15498 6.52148,0 11.32527,4.02058 13.81177,11.55991 0.83423,2.52949 0.87208,2.82037 0.8607,6.61459 -0.013,4.35168 -0.26734,5.67967 -1.8294,9.5535 -0.89413,2.21742 -2.32424,4.54516 -4.58106,7.45646 -1.78029,2.29656 -4.17063,6.96573 -5.14436,10.04871 -0.70328,2.2267 -0.80571,2.91894 -0.75788,5.12202 l 0.0553,2.54736 -2.13744,0.0388 -2.13743,0.0388 0.0534,-2.11777 c 0.0293,-1.16477 -0.0284,-2.19958 -0.12844,-2.29957 -0.1,-0.1 -0.1818,0.85007 -0.1818,2.11125 0,1.51893 -0.10025,2.29306 -0.29695,2.29306 -0.20715,0 -0.25912,-0.74007 -0.17187,-2.4474 z m 1.94211,-9.8779 c -0.12495,-0.49785 -0.0846,-0.62985 0.14857,-0.48576 0.22101,0.13659 0.26712,0.0597 0.1489,-0.24842 -0.10479,-0.27308 0.0318,-0.64931 0.35191,-0.96944 0.28774,-0.28774 0.52317,-0.43274 0.52317,-0.32223 0,0.11052 0.26789,0.36777 0.59531,0.57168 0.54953,0.34222 0.56667,0.33608 0.22288,-0.0799 -0.30574,-0.3699 -0.31063,-0.50782 -0.0273,-0.77012 0.22812,-0.21121 0.28762,-0.21681 0.17551,-0.0165 -0.30706,0.54863 0.56107,0.59877 1.04816,0.0605 0.56993,-0.62976 0.20293,-1.46383 -0.59594,-1.35441 -1.52441,0.20881 -4.09654,0.22693 -4.21842,0.0297 -0.078,-0.12621 -0.33378,-0.22947 -0.56839,-0.22947 -0.23462,0 -0.64431,-0.19704 -0.91043,-0.43788 -0.26612,-0.24083 -0.48007,-0.33013 -0.47544,-0.19844 0.0137,0.38898 0.6915,1.17113 0.86477,0.99787 0.0877,-0.0877 0.23543,0.14354 0.32836,0.5138 0.0929,0.37027 0.41657,0.89033 0.7192,1.1557 0.5338,0.46808 0.54476,0.46755 0.36702,-0.0179 -0.15494,-0.42323 -0.12149,-0.44922 0.21681,-0.16846 0.22001,0.18259 0.33998,0.42913 0.26659,0.54787 -0.12312,0.19922 0.68113,2.08418 0.89554,2.0989 0.0521,0.004 0.0176,-0.30112 -0.0768,-0.67712 z m 2.18341,-5.41378 c 1.16135,-0.26784 3.85,-2.08364 4.11753,-2.7808 0.0807,-0.21021 0.30453,-0.38221 0.49747,-0.38221 0.92784,0 3.83193,-5.01806 4.74678,-8.20208 1.2048,-4.19318 1.18257,-7.38635 -0.0769,-11.04706 -0.53019,-1.54102 -2.02087,-4.30942 -2.82591,-5.2481 -1.31156,-1.5293 -4.83479,-3.64856 -5.04036,-3.03183 -0.13505,0.40515 -0.5774,0.33845 -0.5774,-0.0871 0,-0.6121 -2.73976,-0.27948 -3.94028,0.47838 -0.80287,0.50683 -1.23904,0.60866 -2.10791,0.49212 -1.03941,-0.13942 -1.55226,0.22351 -0.76483,0.54125 0.19757,0.0797 0.14431,0.14186 -0.13229,0.15434 -0.25467,0.0115 -0.46302,0.19529 -0.46302,0.40845 0,0.45638 -0.95432,1.03087 -1.32839,0.79968 -0.14251,-0.0881 -0.25911,-0.0409 -0.25911,0.10487 0,0.14575 -0.23765,0.21924 -0.5281,0.1633 -0.68926,-0.13274 -1.25229,0.7952 -0.62789,1.03481 0.33989,0.13043 0.35882,0.2378 0.0975,0.5527 -0.1784,0.21496 -0.43077,0.32507 -0.56083,0.24468 -0.13006,-0.0804 -0.30907,0.043 -0.3978,0.27425 -0.11358,0.296 -0.25657,0.34135 -0.4832,0.15327 -0.22661,-0.18808 -0.32188,-0.15793 -0.32188,0.10185 0,0.20295 0.18852,0.33323 0.41893,0.28953 0.2304,-0.0437 0.59361,0.10868 0.80713,0.33863 0.34333,0.36976 0.33792,0.3988 -0.0468,0.25117 -0.56071,-0.21517 -1.05866,0.38509 -0.85018,1.02485 0.13582,0.41679 0.1134,0.4328 -0.13957,0.0997 -0.25604,-0.33716 -0.29502,-0.31726 -0.25907,0.13229 0.088,1.10057 -0.0721,1.29992 -0.42506,0.52917 -0.1999,-0.43656 -0.36882,-0.62453 -0.37539,-0.41771 -0.007,0.20682 -0.20942,0.59426 -0.45079,0.86097 -0.36019,0.39801 -0.3839,0.60553 -0.13229,1.15776 0.34186,0.7503 0.41621,2.25865 0.10813,2.19343 -0.10914,-0.0231 -0.4068,0.0492 -0.66146,0.1606 -0.3714,0.16252 -0.46302,0.53654 -0.46302,1.89029 0,1.43029 0.4179,3.90837 0.73079,4.33345 0.0505,0.0685 0.20791,-0.0505 0.34991,-0.26458 0.17754,-0.26764 0.21439,0.0175 0.11798,0.91295 -0.10558,0.98057 -0.0335,1.4201 0.29196,1.7797 0.23769,0.26264 0.53395,0.41463 0.65836,0.33774 0.1244,-0.0769 0.15394,0.0485 0.0656,0.2786 -0.14242,0.37112 -0.20235,0.3652 -0.53044,-0.0524 -0.32594,-0.41486 -0.33334,-0.38534 -0.0623,0.24851 0.16916,0.39562 0.39652,0.66433 0.50524,0.59714 0.18846,-0.11648 0.64962,1.12219 0.56528,1.5183 -0.0221,0.1039 0.15761,0.113 0.3994,0.0202 0.33007,-0.12666 0.39798,-0.0601 0.27247,0.26694 -0.10329,0.26915 0.10561,0.76701 0.54659,1.3027 0.47351,0.5752 0.53659,0.73347 0.18739,0.47019 -0.48802,-0.36795 -0.49992,-0.36313 -0.16326,0.0661 0.19972,0.25466 0.55691,0.46484 0.79375,0.46707 0.37468,0.004 0.37907,0.0374 0.0337,0.26053 -0.35704,0.23073 -0.19195,0.37844 0.33073,0.29592 0.10914,-0.0172 0.16867,0.11749 0.13229,0.29939 -0.0364,0.1819 0.11245,0.29104 0.33073,0.24254 0.21828,-0.0485 0.30969,-0.001 0.20313,0.10554 -0.43321,0.43321 3.28897,3.09013 3.96543,2.83055 0.26376,-0.10122 0.34998,-0.0526 0.23544,0.13271 -0.16359,0.2647 0.29864,0.39354 1.946,0.54246 0.21828,0.0197 0.91129,-0.0828 1.54003,-0.22777 z m -2.69498,-1.59471 c -1.33124,-1.04715 -0.65073,-3.1558 1.01846,-3.1558 1.77679,0 2.51959,2.08582 1.15423,3.24115 -0.71882,0.60824 -1.321,0.58458 -2.17269,-0.0854 z m -7.95036,-0.57611 c -4.22868,-6.08017 -5.80193,-13.48718 -4.26712,-20.08991 1.37078,-5.89709 5.52128,-10.6329 10.4897,-11.96899 0.89261,-0.24003 1.17254,-0.3904 0.74705,-0.40129 -0.37426,-0.01 -1.26723,0.17988 -1.98438,0.42102 -6.9284,2.32969 -11.58902,11.90838 -10.06162,20.67908 0.74606,4.28406 2.28346,7.98392 4.6655,11.22784 1.64997,2.24697 1.94845,2.34305 0.41087,0.13225 z m 22.04651,-7.4967 c 1.96762,-5.42801 1.70597,-11.17313 -0.74764,-16.41636 -0.43377,-0.92696 -0.86149,-1.68538 -0.95048,-1.68538 -0.089,0 -0.0844,0.12532 0.0103,0.2785 0.54896,0.88823 1.98728,5.81062 2.24247,7.67445 0.49643,3.62572 -0.26594,8.75879 -1.82401,12.28106 -0.69814,1.57826 -0.70762,1.82358 -0.0309,0.80037 0.28872,-0.43656 0.87384,-1.75625 1.30027,-2.93264 z m -9.8305,25.09149 c -0.10044,-2.25377 0.40023,-5.09323 0.89806,-5.09323 0.11438,0 0.14673,-0.15958 0.0719,-0.35462 -0.1647,-0.42921 0.89124,-3.34954 1.21114,-3.34954 0.44822,0 1.1101,-0.86275 0.80604,-1.05067 -0.19549,-0.12082 -0.0548,-0.60849 0.42778,-1.48291 0.39548,-0.71658 0.78584,-1.36241 0.86746,-1.43517 0.0816,-0.0728 0.32199,-0.46874 0.53416,-0.87995 0.21216,-0.41122 0.75988,-1.18048 1.21716,-1.70947 0.82834,-0.95824 0.83259,-0.95962 1.14742,-0.37135 0.41136,0.76863 0.15666,1.19672 -0.50222,0.8441 -0.33562,-0.17962 -0.55162,-0.17772 -0.66507,0.006 -0.0924,0.14952 -0.052,0.23914 0.0898,0.19915 0.54041,-0.1524 0.31208,0.3953 -0.59732,1.43276 -0.51923,0.59235 -0.94406,0.97396 -0.94406,0.84802 0,-0.12593 -0.23812,0.21531 -0.52916,0.75834 -0.63408,1.18304 -0.64616,1.28209 -0.13229,1.0849 1.02042,-0.39157 -0.12384,1.31995 -1.32292,1.97875 -0.29104,0.1599 -0.40394,0.29435 -0.25087,0.29878 0.32363,0.009 0.4375,1.86013 0.11444,1.86013 -0.11899,0 -0.2764,-0.14883 -0.3498,-0.33073 -0.0962,-0.23847 -0.13928,-0.24283 -0.15434,-0.0156 -0.0115,0.17332 0.081,0.37807 0.20545,0.455 0.12509,0.0773 0.12583,0.76487 0.002,1.53697 -0.12358,0.7684 -0.29315,2.16585 -0.37683,3.10545 -0.0837,0.9396 -0.206,1.79548 -0.27181,1.90196 -0.0658,0.10649 0.0905,0.3112 0.34727,0.45491 0.43324,0.24246 0.42078,0.31041 -0.17285,0.94231 -0.35187,0.37455 -0.84839,0.681 -1.10338,0.681 -0.39857,0 -0.47808,-0.32478 -0.56678,-2.31511 z m -35.65741,-8.66154 c 0.23988,-0.28903 0.17908,-0.33013 -0.31265,-0.21133 -0.50076,0.12097 -0.55101,0.084 -0.2797,-0.20603 0.1819,-0.19442 0.33073,-0.44874 0.33073,-0.56516 0,-0.34182 -0.73724,-0.24243 -0.88311,0.11906 -0.10263,0.25436 -0.13827,0.25075 -0.15434,-0.0156 -0.0116,-0.1924 -0.15666,-0.26243 -0.32635,-0.15756 -0.19005,0.11746 -0.23361,0.0725 -0.11529,-0.11891 0.11279,-0.18251 -0.0307,-0.3894 -0.35264,-0.5085 -0.53474,-0.19782 -0.53514,-0.20559 -0.0268,-0.52306 0.41686,-0.26033 0.49017,-0.25489 0.38148,0.0283 -0.074,0.19284 0.0477,0.50189 0.2705,0.68677 0.3627,0.30102 0.36585,0.20593 0.0301,-0.90969 -0.41242,-1.37036 -0.67565,-1.795 -0.67565,-1.08996 0,0.25113 -0.11938,0.38281 -0.2653,0.29263 -0.17558,-0.10852 -0.16934,-0.34327 0.0185,-0.69416 0.21636,-0.40428 0.36751,-0.46068 0.63644,-0.23748 0.26077,0.21642 0.38119,0.20721 0.46205,-0.0354 0.15257,-0.45772 8.67335,-0.39236 8.67335,0.0665 0,0.0866 -0.23812,0.37293 -0.52916,0.63632 -0.29105,0.26338 -0.52917,0.74351 -0.52917,1.06694 0,0.32343 -0.17859,0.73627 -0.39688,0.91743 -0.53081,0.44054 -0.50609,0.89227 0.0374,0.68371 0.36451,-0.13988 0.38013,-0.10139 0.0972,0.23954 -0.25664,0.30922 -0.42348,0.33452 -0.69889,0.10595 -0.24285,-0.20155 -0.36177,-0.20795 -0.36177,-0.0195 0,0.2808 -0.89778,0.44213 -3.78839,0.68076 -1.275,0.10526 -1.48828,0.0655 -1.24165,-0.23172 z m 42.857,-7.42208 c -0.27622,-0.33283 -0.19662,-0.57094 0.46683,-1.39652 0.43991,-0.54741 1.32041,-2.08802 1.95667,-3.42358 0.68343,-1.43458 1.31924,-2.43352 1.55371,-2.44107 0.28809,-0.009 0.30895,-0.0687 0.0761,-0.21664 -0.17987,-0.11431 -0.25382,-0.4599 -0.16835,-0.78672 0.0838,-0.32058 0.27634,-0.50629 0.4278,-0.41268 0.16192,0.10007 0.19596,0.0417 0.0826,-0.14172 -0.29327,-0.47452 0.1026,-1.88651 0.52891,-1.88651 0.20672,0 0.37585,-0.11906 0.37585,-0.26458 0,-0.14552 -0.10773,-0.26459 -0.2394,-0.26459 -0.22566,0 -0.12854,-1.79022 0.14313,-2.63842 0.10837,-0.33836 0.15576,-0.33927 0.36112,-0.007 0.14718,0.23814 0.12865,0.44907 -0.0491,0.55893 -0.33622,0.20779 -0.0543,2.08647 0.31311,2.08647 0.13216,0 0.079,0.32743 -0.11825,0.72761 -0.96231,1.95287 -1.30772,2.89763 -1.26749,3.46685 0.0296,0.41879 -0.12609,0.66707 -0.47559,0.75847 -0.28578,0.0747 -0.5196,0.31516 -0.5196,0.53429 0,0.32414 0.074,0.33701 0.39688,0.069 0.32504,-0.26976 0.39687,-0.25168 0.39687,0.0999 0,0.42104 -0.2663,0.53416 -1.05833,0.44959 -0.33142,-0.0354 -0.3361,-0.001 -0.0283,0.20606 0.30399,0.20494 0.24649,0.46681 -0.32837,1.49534 -0.38329,0.68578 -0.64542,1.33017 -0.58251,1.43197 0.0629,0.10179 -0.2358,0.47435 -0.66382,0.82789 -0.42802,0.35355 -0.77821,0.78593 -0.77821,0.96084 0,0.5218 -0.44547,0.63661 -0.80221,0.20677 z m -27.73305,-5.19644 c -0.0219,-0.24426 -0.23842,-0.6428 -0.48126,-0.88564 -0.3969,-0.3969 -0.41012,-0.71294 -0.13079,-3.12775 0.17091,-1.47743 0.31368,-3.16249 0.31727,-3.74457 0.009,-1.41153 0.33707,-0.80369 0.88575,1.63973 0.47968,2.13614 0.56458,4.72669 0.16304,4.97485 -0.14552,0.0899 -0.28247,-0.0519 -0.30432,-0.31511 -0.0219,-0.26325 -0.12304,0.0572 -0.22485,0.71199 -0.10181,0.65484 -0.20299,0.99077 -0.22484,0.7465 z"
         id="path360" /><path
         style="fill:#95683e"
         d="m 152.58766,180.41223 c -0.10297,-4.73666 -2.59583,-10.80961 -6.66031,-16.22542 -2.37157,-3.16005 -4.1232,-6.54746 -5.06884,-9.80243 -0.52547,-1.80872 -0.61522,-2.71332 -0.6169,-6.21771 -0.002,-3.94991 0.0307,-4.19855 0.8833,-6.74688 1.96772,-5.881 5.40175,-9.66772 9.96862,-10.99242 4.73922,-1.37469 9.36141,-0.24039 12.90584,3.16712 3.79212,3.64565 5.97155,9.59852 5.66217,15.46561 -0.28117,5.33225 -2.22764,10.30332 -5.96975,15.24615 -2.41837,3.19434 -4.75788,7.59753 -5.76374,10.84792 -0.58708,1.89714 -0.68822,2.68294 -0.64651,5.02313 0.0561,3.14956 -0.16486,3.54048 -0.30029,0.5312 -0.0836,-1.85676 -0.12679,-1.98126 -0.6816,-1.96356 -2.2763,0.0726 -2.7248,0.13842 -2.57674,0.37798 0.0899,0.14552 0.0428,0.26458 -0.10468,0.26458 -0.14752,0 -0.3397,-0.44648 -0.42707,-0.99218 -0.22202,-1.38677 -1.72488,-6.23208 -1.88372,-6.07324 -0.0719,0.0719 0.23831,1.31855 0.68934,2.77035 0.72848,2.34481 0.81037,2.93154 0.73317,5.25329 l -0.0869,2.61366 z m 1.3209,-5.32421 c -0.28543,-0.47294 -0.66693,-1.51473 -0.84778,-2.3151 -0.45375,-2.00807 -1.46141,-4.29613 -2.83796,-6.44408 -0.63935,-0.99762 -1.1025,-1.87381 -1.02922,-1.94709 0.0733,-0.0733 0.49726,0.126 0.94221,0.44282 0.44494,0.31683 0.80898,0.51791 0.80898,0.44685 0,-0.0711 -0.76067,-0.68773 -1.69037,-1.37036 -3.81861,-2.80382 -6.66711,-8.5914 -7.17618,-14.58054 -0.21959,-2.58355 0.47883,-6.23375 1.71422,-8.95906 0.46175,-1.01864 0.80141,-1.85732 0.75479,-1.86372 -0.0466,-0.006 0.1444,-0.36359 0.42448,-0.79375 0.33163,-0.50935 0.36985,-0.66804 0.10958,-0.45504 -0.64542,0.52822 -2.28311,4.26389 -2.86195,6.52827 -0.93404,3.6539 -0.58313,8.12476 0.93992,11.97543 0.97327,2.46066 2.62922,5.26083 3.9615,6.69877 1.68159,1.81495 4.02026,5.63219 4.49746,7.34086 0.44905,1.60791 1.62022,4.90908 2.01958,5.69262 0.1298,0.25466 0.36059,0.46302 0.51286,0.46302 0.15227,0 0.0433,-0.38695 -0.24212,-0.8599 z m 3.22064,-2.9353 c 0.52764,-1.57803 0.95934,-2.97112 0.95934,-3.09574 0,-0.12462 -0.40177,0.18711 -0.89282,0.69273 -0.78957,0.81299 -0.87935,1.04861 -0.77629,2.0374 0.0641,0.61496 -0.0635,1.70104 -0.28354,2.41353 -0.7569,2.45078 0.0351,0.81799 0.99331,-2.04792 z m -1.69254,1.08322 c 0.13596,-0.32742 0.37398,-1.25109 0.52895,-2.05259 0.18413,-0.95233 0.53623,-1.73161 1.01615,-2.24896 0.40392,-0.43542 1.13741,-1.38027 1.62999,-2.09966 l 0.89559,-1.30798 -0.90784,0.54683 c -1.05031,0.63266 -3.98416,0.94967 -5.76206,0.6226 -0.63252,-0.11636 -1.51142,-0.47873 -1.95309,-0.80527 l -0.80304,-0.59372 0.49789,0.85477 c 0.27383,0.47012 1.04791,1.4865 1.72016,2.25863 1.03971,1.19419 1.27219,1.67422 1.55644,3.21383 0.18378,0.99548 0.38492,1.89926 0.44698,2.0084 0.23262,0.40914 0.89554,0.17711 1.13388,-0.39688 z m -5.02931,-3.14823 c -0.46017,-0.92423 -2.06877,-3.52982 -3.57467,-5.7902 -3.86914,-5.80766 -5.13388,-8.94048 -5.63172,-13.95 -0.82205,-8.272 2.5591,-15.51729 8.67488,-18.58893 0.64901,-0.32596 2.19682,-0.80724 3.43958,-1.0695 2.43159,-0.51315 1.66367,-0.70101 -0.93298,-0.22824 -4.41971,0.80468 -8.25189,4.2911 -10.35717,9.42269 -1.24305,3.02989 -1.74135,5.82298 -1.59578,8.9446 0.25531,5.4749 1.98147,10.02411 5.67877,14.96605 1.15017,1.53737 2.71911,4.01757 3.48652,5.51156 0.76741,1.49399 1.45243,2.65921 1.52226,2.58937 0.0698,-0.0698 -0.24952,-0.88316 -0.70969,-1.8074 z m 6.63119,-5.08056 c 1.26993,-0.45423 3.64158,-2.24186 4.9572,-3.73647 0.59584,-0.67692 1.61997,-2.26974 2.27582,-3.5396 2.33837,-4.5275 3.07139,-9.23203 2.06102,-13.22752 -1.20814,-4.77753 -3.57779,-8.20055 -6.81477,-9.84411 -3.96161,-2.0115 -9.21646,-1.07646 -12.14067,2.16029 -3.83051,4.23993 -5.22685,10.28193 -3.73518,16.16228 0.9003,3.54908 2.82968,7.20684 4.76685,9.03708 1.30823,1.23602 3.94251,3.02027 4.65265,3.15134 1.29252,0.23856 3.05603,0.16615 3.97708,-0.16329 z m -3.29673,-1.64584 c -0.51105,-0.51105 -0.53938,-1.69529 -0.0563,-2.35588 0.41937,-0.57351 1.79141,-0.65937 2.40461,-0.15046 0.56523,0.4691 0.5219,1.94596 -0.0729,2.48423 -0.61116,0.5531 -1.73348,0.564 -2.27537,0.0221 z m 12.79026,-4.57234 c 2.02375,-4.02755 2.80391,-7.57027 2.60756,-11.84093 -0.22647,-4.92574 -2.18111,-9.74406 -5.13383,-12.65525 -0.74734,-0.73681 -1.75937,-1.5567 -2.24896,-1.82196 l -0.89018,-0.4823 0.66146,0.56867 c 1.89233,1.62687 2.41786,2.11572 2.27446,2.11572 -0.0868,0 0.0682,0.226 0.34443,0.50222 0.56801,0.56801 1.89562,2.75585 1.98073,3.26415 0.0308,0.18407 0.20826,0.61178 0.39431,0.95046 0.4665,0.84921 1.03312,2.95379 1.4726,5.46963 0.76362,4.37138 -0.16555,9.89603 -2.43629,14.48565 -1.12098,2.26573 -1.18502,2.4796 -0.52662,1.75875 0.41225,-0.45135 1.0874,-1.49302 1.50033,-2.31481 z m 1.27301,-11.81124 c -0.0881,-1.70692 -0.32755,-3.16452 -0.67394,-4.10273 -0.68607,-1.85824 -0.69322,-1.69436 -0.0525,1.20403 0.28789,1.30232 0.53982,3.32035 0.55985,4.48451 0.02,1.16417 0.0965,1.8793 0.16984,1.58919 0.0734,-0.29012 0.0719,-1.71887 -0.003,-3.175 z"
         id="path359" /><path
         style="fill:#41312d"
         d="m 157.0609,180.75486 -0.0307,-2.20453 -1.84623,0.0879 -1.84622,0.0879 -0.15512,-0.79375 c -0.76646,-3.92192 -3.49031,-9.80236 -6.37293,-13.75834 -1.92006,-2.635 -4.14529,-7.00796 -4.58875,-9.01769 -0.1579,-0.71558 -0.40803,-1.84426 -0.55585,-2.50817 -0.14782,-0.66391 -0.27937,-2.86657 -0.29232,-4.89479 -0.0297,-4.64381 0.54472,-7.03224 2.42638,-10.08961 2.54687,-4.13822 5.35284,-6.14233 9.74735,-6.96188 2.12592,-0.39647 2.3516,-0.48119 1.33699,-0.5019 -6.91251,-0.14111 -12.63926,5.62962 -14.25858,14.36806 -0.45863,2.47495 -0.196,7.10139 0.54974,9.68411 0.90591,3.13745 2.63449,6.52718 4.78977,9.39271 3.55705,4.72921 6.90312,12.17586 6.79518,15.1226 -0.0349,0.95177 -0.0488,0.93215 -0.217,-0.30594 -0.54838,-4.03609 -3.49254,-10.3258 -6.89294,-14.72561 -6.15021,-7.95782 -7.25493,-17.67571 -2.95795,-26.02022 1.12843,-2.19135 4.3255,-5.52791 6.13893,-6.40679 7.822,-3.7909 16.19116,0.11198 19.41463,9.05383 1.53363,4.25425 1.82467,7.32449 1.09003,11.49895 -0.78675,4.47059 -2.36148,7.98949 -5.35203,11.95968 -2.69606,3.57923 -4.88099,7.64605 -5.99666,11.16163 -0.7648,2.40997 -0.8578,3.00906 -0.75169,4.84206 0.0666,1.15049 0.0616,2.32639 -0.0111,2.6131 -0.0727,0.28671 -0.14603,-0.47075 -0.16291,-1.68323 z m -2.0078,-5.17249 c 0.28705,-0.20105 0.64096,-0.34988 0.78648,-0.33073 0.2817,0.0371 1.80322,-4.10163 2.07849,-5.65372 0.0903,-0.50932 0.0962,-0.77721 0.013,-0.59531 -0.0832,0.1819 -0.28075,0.33073 -0.43907,0.33073 -0.15832,0 -0.53305,0.20836 -0.83274,0.46302 -0.35996,0.30587 -0.2987,0.14873 0.18049,-0.46302 1.27594,-1.62891 2.86154,-3.96875 2.68943,-3.96875 -0.0916,0 -0.46929,0.23812 -0.83929,0.52916 -0.37862,0.29783 -1.03306,0.51575 -1.49694,0.49848 -0.45332,-0.0169 -0.61585,-0.0851 -0.36119,-0.15169 1.01167,-0.26438 0.36057,-0.48159 -1.58779,-0.52971 -1.78261,-0.044 -2.94727,-0.17574 -3.17471,-0.35907 -0.0364,-0.0293 -0.18955,-0.0682 -0.34038,-0.0864 -0.15083,-0.0182 -0.35919,-0.16591 -0.46302,-0.32826 -0.10384,-0.16235 -0.69481,-0.55173 -1.31327,-0.86527 -0.61846,-0.31355 -1.12448,-0.68673 -1.12448,-0.8293 0,-0.14256 -0.13594,-0.2592 -0.30208,-0.2592 -0.48463,0 -1.85326,-1.57546 -1.6518,-1.90143 0.10722,-0.17347 0.0649,-0.22368 -0.10167,-0.12072 -0.63692,0.39364 -2.35839,-2.91713 -3.50565,-6.74212 -0.71352,-2.37888 -0.82432,-3.15575 -0.83058,-5.82316 -0.0119,-5.08148 1.31073,-8.79215 4.25625,-11.94092 2.27578,-2.43282 4.52703,-3.49909 6.73013,-3.18764 l 1.35853,0.19205 -1.34606,0.17575 c -3.09323,0.40386 -6.39927,2.76964 -8.10555,5.80027 -1.01424,1.80147 -1.96743,4.67006 -2.31609,6.97018 -0.60729,4.0063 0.87234,9.50649 3.66281,13.61563 1.74346,2.56737 4.8169,4.90065 6.99,5.30662 4.13049,0.77166 8.95621,-3.12356 11.52635,-9.30382 2.90916,-6.99549 1.71418,-14.92755 -2.92223,-19.39712 -1.96426,-1.89359 -4.17718,-2.96913 -6.27194,-3.04836 -0.7641,-0.0289 -0.82176,-0.0631 -0.29125,-0.17268 l 0.66146,-0.13665 -0.66146,-0.21941 c -0.43595,-0.1446 -0.16533,-0.17316 0.79375,-0.0838 2.73924,0.25534 5.51276,2.05848 7.57317,4.92352 1.11196,1.5462 1.35082,2.039 2.27448,4.69258 0.94726,2.72137 1.28578,7.03982 0.74608,9.51776 -0.49898,2.29098 -1.57314,5.26189 -2.42457,6.70593 -0.42298,0.71737 -0.68927,1.43339 -0.59177,1.59116 0.10574,0.17108 0.054,0.21066 -0.12818,0.0981 -0.181,-0.11187 -0.30546,-0.0207 -0.30546,0.2237 0,0.22687 -0.10537,0.41249 -0.23416,0.41249 -0.12878,0 -0.42163,0.28614 -0.65078,0.63586 l -0.41662,0.63585 0.77988,-0.38906 c 0.42893,-0.21398 0.89675,-0.58941 1.03961,-0.83429 0.14285,-0.24488 0.26335,-0.30556 0.26777,-0.13486 0.004,0.17071 -0.36126,0.67969 -0.81264,1.13107 -0.68741,0.68741 -0.76607,0.88648 -0.48438,1.2259 0.18497,0.22287 0.22686,0.3796 0.0931,0.34829 -0.38291,-0.0896 -1.17946,0.32569 -1.04424,0.54448 0.0671,0.10855 -0.17032,0.59357 -0.52759,1.07781 -0.68228,0.92478 -0.68426,1.35865 -0.004,0.79376 0.22019,-0.18275 0.3351,-0.43784 0.25536,-0.56687 -0.0798,-0.12903 -0.0318,-0.2346 0.10652,-0.2346 0.13833,0 0.32744,-0.30253 0.42025,-0.67228 0.0928,-0.36976 0.27514,-0.60652 0.40519,-0.52614 0.36294,0.22431 3.04224,-3.74526 4.11552,-6.09741 1.5447,-3.3853 2.01727,-5.3974 2.17299,-9.25209 0.11878,-2.94019 0.0568,-3.78227 -0.41866,-5.68855 -0.84202,-3.37589 -2.6255,-6.77234 -4.6071,-8.77375 -1.50361,-1.51863 -4.49602,-3.40293 -4.84689,-3.05206 -0.0773,0.0773 0.52055,0.46392 1.3285,0.85922 0.80796,0.3953 1.41445,0.807 1.34776,0.91491 -0.0667,0.1079 0.17267,0.3301 0.53191,0.49378 0.35924,0.16368 0.65316,0.47875 0.65316,0.70015 0,0.2214 0.12162,0.40255 0.27026,0.40255 0.14864,0 0.40417,0.29392 0.56785,0.65316 0.16368,0.35924 0.41765,0.57897 0.56438,0.48829 0.14999,-0.0927 0.1854,-0.0332 0.0809,0.1359 -0.23108,0.3739 0.99551,2.23335 1.29448,1.96239 0.11958,-0.10837 0.13392,-0.0517 0.0319,0.12593 -0.10203,0.17762 -0.002,0.67773 0.22217,1.11134 0.22423,0.43361 0.40423,0.94312 0.40001,1.13225 -0.004,0.18912 -0.43782,-0.46261 -0.96356,-1.44831 -1.24398,-2.33232 -3.55317,-4.4758 -6.16625,-5.72379 -1.83204,-0.87496 -2.18036,-0.95039 -4.37189,-0.94684 -2.52641,0.004 -4.26316,0.44333 -5.95312,1.50557 -0.50933,0.32014 -1.04511,0.59315 -1.19063,0.60668 -0.14552,0.0135 -0.23187,0.17687 -0.19188,0.36298 0.04,0.1861 -0.0425,0.26718 -0.18325,0.18018 -0.4773,-0.29499 -2.69012,2.3574 -3.7413,4.48448 -1.44023,2.91432 -2.10236,5.70588 -2.09668,8.83972 0.006,3.17531 0.49886,5.54035 1.73301,8.31181 0.52977,1.18968 1.11232,2.56216 1.29455,3.04996 0.18222,0.4878 0.47768,0.97736 0.65655,1.08792 0.17888,0.11055 0.33212,0.30675 0.34054,0.436 0.008,0.12925 0.50719,0.66799 1.1084,1.1972 1.44263,1.26985 4.33489,5.92056 4.8075,7.73039 0.38807,1.4861 1.53297,4.66265 1.98482,5.50693 0.30983,0.57894 0.73252,0.61399 1.43876,0.11931 z m -2.49008,-5.9183 c -0.49639,-0.41259 -0.95686,-1.10447 -3.03755,-4.56407 l -0.55695,-0.92604 0.7897,0.50553 c 1.99997,1.28028 2.60593,1.74343 2.28102,1.74343 -0.19322,0 -0.69711,-0.24623 -1.11975,-0.54718 -0.42265,-0.30095 -0.76845,-0.49151 -0.76845,-0.42347 0,0.18464 1.82519,2.87483 2.36389,3.48419 0.98807,1.11768 1.01543,1.53164 0.0481,0.72761 z m 1.35833,-6.05606 c -0.1819,-0.0768 -0.33073,-0.24619 -0.33073,-0.37647 0,-0.13027 0.2826,-0.1081 0.62799,0.0493 0.92529,0.42159 1.75326,-0.0981 1.75326,-1.10053 0,-0.43144 -0.12133,-0.78444 -0.26962,-0.78444 -0.1522,0 -0.20048,0.2755 -0.11086,0.63259 0.18401,0.73315 -0.19248,1.06064 -0.9448,0.82186 -0.69232,-0.21973 -0.69064,-1.19657 0.002,-1.37779 0.71553,-0.18712 0.67165,-0.60138 -0.0661,-0.62443 -0.56384,-0.0176 -0.56734,-0.0296 -0.0661,-0.22687 1.31772,-0.51864 2.42506,1.02066 1.68608,2.3438 -0.37239,0.66676 -1.48332,0.97987 -2.28139,0.64301 z"
         id="path358" /></g></g></svg>
