<?xml version="1.0" encoding="UTF-8" standalone="no"?>
<!-- Created with Inkscape (http://www.inkscape.org/) -->

<svg
   width="53.785194mm"
   height="65.653946mm"
   viewBox="0 0 53.785194 65.653946"
   version="1.1"
   id="svg1"
   inkscape:export-filename="tactical-grip.svg"
   inkscape:export-xdpi="96"
   inkscape:export-ydpi="96"
   xml:space="preserve"
   xmlns:inkscape="http://www.inkscape.org/namespaces/inkscape"
   xmlns:sodipodi="http://sodipodi.sourceforge.net/DTD/sodipodi-0.dtd"
   xmlns="http://www.w3.org/2000/svg"
   xmlns:svg="http://www.w3.org/2000/svg"><sodipodi:namedview
     id="namedview1"
     pagecolor="#ffffff"
     bordercolor="#000000"
     borderopacity="0.25"
     inkscape:showpageshadow="2"
     inkscape:pageopacity="0.0"
     inkscape:pagecheckerboard="0"
     inkscape:deskcolor="#d1d1d1"
     inkscape:document-units="mm"><inkscape:page
       x="0"
       y="0"
       width="53.785194"
       height="65.653946"
       id="page2"
       margin="0"
       bleed="0" /></sodipodi:namedview><defs
     id="defs1" /><g
     inkscape:label="Calque 1"
     inkscape:groupmode="layer"
     id="layer1"
     transform="translate(-108.15702,-105.78288)"><g
       id="g423"
       transform="translate(-9.9547971,8.9501845)"><path
         style="fill:#d0e2ee"
         d="M 118.13646,129.64584 V 96.837502 h 26.85521 26.8552 v 32.808338 32.80833 h -26.8552 -26.85521 z"
         id="path430" /><path
         style="fill:#b8d2e5"
         d="m 125.96081,161.46198 c -1.27814,-2.66567 -1.87121,-8.01118 -1.14212,-10.29422 0.22505,-0.70472 0.49563,-1.69411 0.60129,-2.19866 0.10565,-0.50454 0.28213,-1.09985 0.39217,-1.32291 0.58769,-1.1913 1.14134,-2.95161 1.17968,-3.75078 0.005,-0.0936 -0.94433,-0.67073 -2.1085,-1.28247 -1.16416,-0.61173 -2.68248,-1.5174 -3.37405,-2.01259 -0.69156,-0.49519 -1.32463,-0.90035 -1.40683,-0.90035 -0.30039,0 -1.96599,-1.93668 -1.96599,-2.28597 0,-0.20962 0.2825,-0.35986 0.67664,-0.35986 1.11877,0 4.46453,0.58735 4.73409,0.83107 0.13824,0.125 0.51817,0.22726 0.84428,0.22726 0.32611,0 0.66651,0.11907 0.75645,0.26459 0.19559,0.31647 0.92604,0.35558 0.92604,0.0496 0,-0.25548 -2.4784,-1.3725 -3.04523,-1.3725 -0.2169,0 -0.39435,-0.11367 -0.39435,-0.25259 0,-0.30952 -1.50443,-0.62243 -3.83646,-0.79795 -0.72726,-0.0547 -0.69401,-0.0873 0.39687,-0.38861 0.65485,-0.18088 1.17458,-0.43708 1.15496,-0.56934 -0.0196,-0.13226 -0.12019,-0.51858 -0.22348,-0.85849 -0.16834,-0.55397 -0.13324,-0.58882 0.33862,-0.33629 0.39882,0.21344 0.60198,0.19069 0.83813,-0.0939 0.17144,-0.20657 0.49191,-0.30643 0.71216,-0.22192 0.28376,0.10889 0.37642,0.008 0.31799,-0.34645 -0.0454,-0.27507 0.0109,-0.64895 0.12499,-0.83085 0.28904,-0.46082 0.96997,-0.41439 0.96997,0.0661 0,0.21828 0.11906,0.39688 0.26458,0.39688 0.14552,0 0.26458,0.46922 0.26458,1.04271 0,0.5735 0.11906,1.11631 0.26459,1.20624 0.14552,0.0899 0.26458,0.51369 0.26458,0.94166 0,0.42798 0.0555,0.77814 0.12331,0.77814 0.47592,0 1.99336,-0.96252 1.99336,-1.2644 0,-0.20496 0.22711,-0.43204 0.5047,-0.50463 0.27759,-0.0726 0.56146,-0.34901 0.63083,-0.61427 0.0694,-0.26526 0.40779,-0.52214 0.75206,-0.57085 0.40019,-0.0566 0.65489,-0.29141 0.70619,-0.65099 0.0441,-0.30934 0.37782,-0.842 0.74154,-1.1837 0.56348,-0.52936 0.70154,-0.56358 0.93334,-0.23131 0.20367,0.29192 0.23215,0.20704 0.11332,-0.33767 -0.0964,-0.44196 -0.0468,-0.7276 0.12651,-0.7276 0.15688,0 0.20379,-0.13177 0.10426,-0.29283 -0.1298,-0.21002 -0.23626,-0.20339 -0.37644,0.0234 -0.12947,0.20949 -0.38768,0.005 -0.76484,-0.60503 -0.62113,-1.00501 -0.46639,-2.07721 0.34472,-2.38846 0.22942,-0.088 0.41714,-0.34241 0.41714,-0.56526 0,-0.22284 0.12421,-0.40517 0.27602,-0.40517 0.15181,0 0.95548,-0.688 1.78594,-1.52888 0.83045,-0.84088 1.83734,-1.67177 2.23752,-1.84641 0.40018,-0.17465 0.7276,-0.43915 0.7276,-0.58779 0,-0.14864 0.22539,-0.27026 0.50086,-0.27026 0.27547,0 0.56939,-0.17859 0.65316,-0.39687 0.0838,-0.21828 0.32188,-0.39688 0.52916,-0.39688 0.20728,0 0.44541,-0.17859 0.52917,-0.39687 0.0838,-0.21828 0.39416,-0.39688 0.68976,-0.39688 0.29561,0 0.53748,-0.11906 0.53748,-0.26458 0,-0.14552 0.19898,-0.26458 0.44218,-0.26458 0.24321,0 0.63016,-0.15711 0.8599,-0.34914 0.71694,-0.59924 4.88492,-1.72293 6.80824,-1.83551 0.60438,-0.0354 1.04913,-0.14504 0.98834,-0.2437 -0.18746,-0.30429 1.02417,-0.56819 2.34456,-0.51066 1.18499,0.0516 1.25677,0.0162 1.25677,-0.61979 0,-0.61057 0.10037,-0.67454 1.05834,-0.67454 0.58208,0 1.05833,-0.11906 1.05833,-0.26458 0,-0.14552 -0.45244,-0.26458 -1.00542,-0.26458 -0.55297,0 -1.14366,-0.13825 -1.31263,-0.30723 -0.16897,-0.16897 -0.99646,-0.32804 -1.83886,-0.3535 -3.733,-0.1128 -3.9234,-0.13433 -3.516,-0.39761 0.21828,-0.14106 0.93265,-0.26012 1.5875,-0.26458 0.78514,-0.005 1.0661,-0.087 0.82499,-0.23967 -0.28727,-0.18195 -0.2164,-0.32935 0.33073,-0.68784 0.383,-0.25095 0.69636,-0.68446 0.69636,-0.96335 0,-0.47814 -0.16239,-0.49802 -2.84427,-0.34818 -1.56435,0.0874 -3.41568,0.26976 -4.11407,0.40523 -1.88789,0.36621 -2.16989,0.34091 -1.67842,-0.15057 0.21828,-0.21828 0.47342,-0.39687 0.56697,-0.39687 0.40042,0 0.92328,-0.76422 0.64186,-0.93815 -0.35015,-0.21641 -4.47832,0.39571 -4.47832,0.66403 0,0.23115 -1.83756,0.80329 -2.57996,0.80329 -0.2938,0 -0.73598,0.30798 -0.98263,0.68441 -0.24664,0.37643 -0.51459,0.61827 -0.59543,0.53742 -0.0808,-0.0808 0.0563,-0.45726 0.30478,-0.83649 0.43512,-0.66407 0.43156,-0.69479 -0.0965,-0.83286 -0.30152,-0.0789 -0.54823,-0.24854 -0.54823,-0.37709 0,-0.12855 -0.13295,-0.23373 -0.29544,-0.23373 -0.16981,0 -0.2337,0.23612 -0.15024,0.55525 0.13042,0.49874 0.0595,0.53957 -0.69675,0.40124 -0.46307,-0.0847 -1.02054,-0.0387 -1.23882,0.10217 -0.33374,0.21541 -0.31807,0.2568 0.0985,0.26021 0.40864,0.003 0.43815,0.0731 0.16846,0.39801 -0.17982,0.21668 -0.44165,0.32308 -0.58182,0.23644 -0.14018,-0.0866 -0.46468,0.0635 -0.72111,0.33365 -0.48526,0.5112 -3.02666,2.7184 -4.1225,3.58039 -0.34712,0.27305 -0.70845,0.74008 -0.80296,1.03785 -0.10105,0.31839 -0.32251,0.48357 -0.53764,0.40102 -0.20119,-0.0772 -0.71364,0.15231 -1.13877,0.51003 -0.989,0.83219 -1.09345,0.8185 -1.09345,-0.14334 0,-0.57248 0.12908,-0.79894 0.46302,-0.81235 0.96093,-0.0386 -0.56998,-0.47296 -1.73392,-0.49197 -0.826,-0.0135 -1.38899,-0.21837 -2.05052,-0.7462 l -0.9119,-0.72761 v -9.59114 l -1e-5,-9.591148 h 18.96269 18.9627 l -4.06741,2.049299 c -2.33308,1.175489 -3.8669,2.087909 -3.59718,2.139859 0.25863,0.0498 0.66974,-0.0785 0.91357,-0.28515 0.24384,-0.20664 0.86006,-0.57756 1.36938,-0.824257 0.50932,-0.246701 1.10463,-0.560341 1.32291,-0.696977 0.21829,-0.136636 1.26008,-0.628924 2.31511,-1.093973 1.05502,-0.465049 1.91823,-0.945277 1.91823,-1.067173 0,-0.121895 3.51234,-0.221628 7.80521,-0.221628 h 7.8052 v 5.556248 5.55625 h -0.77813 c -0.42798,0 -0.85172,-0.11906 -0.94166,-0.26458 -0.0899,-0.14552 -0.30532,-0.25519 -0.47863,-0.2437 -0.22721,0.0151 -0.22286,0.0581 0.0156,0.15434 0.49315,0.19899 0.39943,0.59052 -0.13229,0.55271 -0.87485,-0.0622 -4.72528,1.50703 -6.26548,2.55349 -0.42646,0.28974 -0.68732,0.38433 -0.5797,0.21019 0.12769,-0.20661 0.006,-0.31661 -0.3491,-0.31661 -0.57671,0 -0.78704,0.78785 -0.21405,0.80179 0.1819,0.004 0.11986,0.13081 -0.13786,0.28085 -0.25772,0.15004 -0.40694,0.37254 -0.33159,0.49446 0.0754,0.12192 -0.28347,0.59085 -0.79739,1.04207 -0.85831,0.75361 -1.23949,0.93643 -1.77587,0.85174 -0.10914,-0.0172 -0.19844,0.0948 -0.19844,0.24887 0,0.15411 -0.12933,0.20026 -0.28741,0.10256 -0.1878,-0.11606 -0.25658,0.0849 -0.19844,0.5797 0.0802,0.68298 0.005,0.76547 -0.77092,0.84024 -0.86098,0.083 -0.98892,0.33616 -0.93013,1.84036 0.007,0.18467 -0.12286,0.31939 -0.28905,0.29938 -0.87008,-0.10478 -2.11766,0.0577 -1.83284,0.23866 0.17678,0.11233 0.74232,0.19027 1.25677,0.17321 0.51444,-0.0171 0.93535,0.0223 0.93535,0.0876 0,0.33059 -1.73244,1.57129 -2.033,1.45595 -0.20206,-0.0775 -0.34825,0.0514 -0.34825,0.30716 0,0.24244 0.0992,0.37948 0.22049,0.30453 0.12127,-0.0749 0.22049,0.0319 0.22049,0.23733 0,0.20548 -0.11946,0.29978 -0.26545,0.20955 -0.15239,-0.0942 -0.20056,0.005 -0.11308,0.233 0.0882,0.22987 -0.24052,0.88873 -0.78071,1.56476 -0.5132,0.64223 -1.41641,1.82254 -2.00714,2.6229 -0.59073,0.80037 -1.14949,1.51474 -1.24169,1.5875 -0.0922,0.0728 -1.08521,1.32292 -2.2067,2.77813 -4.71633,6.11977 -5.79841,7.46192 -6.8261,8.46666 -0.66501,0.65017 -1.12933,0.93447 -1.20392,0.73715 -0.0949,-0.2509 -0.2331,-0.25145 -0.63172,-0.002 -0.61308,0.38287 -0.6821,0.8431 -0.0925,0.61686 0.22979,-0.0882 -0.18397,0.51484 -0.91945,1.34003 -1.34998,1.51464 -2.27621,3.66796 -1.94689,4.52616 0.10337,0.26938 0.0512,0.3442 -0.15232,0.21843 -0.17025,-0.10522 -0.30954,-0.0652 -0.30954,0.0889 0,0.15411 0.1096,0.2802 0.24356,0.2802 0.13395,0 0.31898,0.34342 0.41117,0.76315 0.23147,1.05388 1.99963,3.70895 3.08074,4.62606 3.11639,2.64364 9.02126,3.24791 14.33261,1.46672 3.11977,-1.04624 4.30288,-2.47366 5.4886,-6.62204 1.04428,-3.65351 3.1266,-8.37912 7.85611,-17.82868 2.25784,-4.51115 4.15034,-8.25169 4.20556,-8.31233 0.0552,-0.0606 0.10039,9.43341 0.10039,21.09788 v 21.20812 l -12.89843,-0.0137 -12.89844,-0.0137 0.76861,-0.579 c 2.15395,-1.62259 2.56411,-2.45743 0.52508,-1.06875 -2.58375,1.75966 -1.95868,1.66521 -11.01158,1.66388 l -8.27378,-0.001 3.07644,-1.23039 3.07644,-1.23039 -0.2632,-0.81128 c -0.84487,-2.60415 -0.84807,-5.309 -0.0148,-12.49345 0.11052,-0.95294 0.0513,-1.12301 -0.44626,-1.28093 -0.31554,-0.10014 -0.63515,-0.12065 -0.71023,-0.0456 -0.0751,0.0751 -0.6912,-0.0318 -1.36913,-0.23756 -2.31115,-0.70142 -2.1585,-1.03456 -2.1597,4.71342 -0.001,5.30297 -0.4078,8.9656 -1.26282,11.37296 -0.57667,1.62365 -1.32685,1.72323 -2.02427,0.2687 z m 9.63815,-16.32971 c 0,-0.21372 -0.15202,-0.33024 -0.33782,-0.25894 -0.1858,0.0713 -0.74471,-0.17057 -1.24203,-0.53747 -0.49731,-0.36691 -0.92672,-0.66711 -0.95424,-0.66711 -0.0275,0 -0.11234,0.23829 -0.1885,0.52953 -0.0762,0.29125 -0.0419,0.46987 0.076,0.39695 0.11799,-0.0729 0.73197,0.0971 1.36439,0.37782 0.63242,0.28072 1.17962,0.51882 1.216,0.5291 0.0364,0.0103 0.0661,-0.15617 0.0661,-0.36988 z m -2.67653,-2.88089 c -0.0169,-0.60289 -0.0839,-0.89441 -0.14886,-0.64781 -0.0687,0.26046 -0.27756,0.3872 -0.49848,0.30242 -0.40556,-0.15563 -0.47303,0.19945 -0.21832,1.14914 0.26979,1.00597 0.89995,0.42088 0.86566,-0.80375 z m 0.57797,-2.4183 c 0.3248,-0.67903 0.34722,-0.96027 0.10313,-1.29408 -0.41513,-0.56772 -0.6504,-0.53855 -0.6504,0.0806 0,0.27892 -0.12187,0.54774 -0.27083,0.59739 -0.14895,0.0497 -0.34506,0.54777 -0.4358,1.10694 -0.15423,0.9504 -0.13227,0.9958 0.33697,0.69669 0.27607,-0.17599 0.68869,-0.71039 0.91693,-1.18756 z m 3.4987,-2.36798 c 0.65001,-0.14254 0.69198,-0.20869 0.34963,-0.55104 -0.43552,-0.43552 -2.27894,-0.53621 -2.27894,-0.12447 0,0.14552 0.32742,0.2682 0.72761,0.27263 0.66143,0.007 0.68162,0.0347 0.22193,0.30159 -0.37213,0.21604 -0.63319,0.21391 -0.98859,-0.008 -0.77186,-0.48204 -1.15356,-0.35936 -0.64171,0.20624 0.35703,0.39451 0.61711,0.45843 1.16549,0.28645 0.38824,-0.12175 1.0383,-0.29427 1.44458,-0.38336 z m 17.24293,-15.7405 c 0.0844,-0.13658 -0.0574,-0.37108 -0.31511,-0.52112 -0.43708,-0.25446 -0.43389,-0.27334 0.0473,-0.28085 0.30891,-0.005 0.41508,-0.10034 0.26458,-0.23804 -0.30259,-0.27689 -2.23573,-0.0682 -2.23573,0.24137 0,0.11993 0.32743,0.26766 0.72761,0.32828 0.40018,0.0606 0.0132,0.14215 -0.8599,0.18117 -1.32429,0.0592 -1.45589,0.10444 -0.79375,0.27293 1.1572,0.29445 2.98721,0.30386 3.16495,0.0163 z m 9.80052,-11.92394 c 0.1999,-0.32345 -0.65847,-0.3413 -1.15926,-0.0241 -0.56819,0.35988 -0.10383,0.8762 0.49824,0.55398 0.27411,-0.14669 0.57156,-0.38514 0.66102,-0.52988 z m -28.97276,0.001 c 0,-0.14553 0.17246,-0.26459 0.38325,-0.26459 0.46508,0 1.87964,-1.26488 1.66009,-1.48444 -0.086,-0.0859 -0.42472,0.0938 -0.75282,0.3995 -0.3281,0.30568 -0.70166,0.55578 -0.83014,0.55578 -0.25906,0 -0.98954,0.66965 -0.98954,0.90714 0,0.0832 0.11906,0.15119 0.26458,0.15119 0.14552,0 0.26458,-0.11906 0.26458,-0.26458 z m 6.20526,-4.27581 c 0.37065,-0.16888 0.67391,-0.407 0.67391,-0.52916 0,-0.12217 0.14883,-0.22226 0.33073,-0.22244 0.4429,-4.3e-4 1.91487,-1.28185 1.70898,-1.48775 -0.0893,-0.0893 -0.35103,0.0262 -0.58153,0.25668 -0.23051,0.2305 -0.77196,0.62754 -1.20323,0.88229 -0.43126,0.25476 -0.78412,0.55659 -0.78412,0.67073 0,0.11415 -0.23812,0.20754 -0.52916,0.20754 -0.29105,0 -0.52917,0.11906 -0.52917,0.26458 0,0.33638 0.0914,0.33213 0.91359,-0.0425 z m 4.29878,-2.66951 c 0.11637,-0.1819 0.65807,-0.53716 1.20377,-0.78947 0.54571,-0.2523 0.99219,-0.56892 0.99219,-0.70359 0,-0.29225 -2.00612,0.63713 -2.25921,1.04663 -0.0969,0.15679 -0.43189,0.38825 -0.74442,0.51435 l -0.56824,0.22927 0.58216,0.0168 c 0.32019,0.009 0.67738,-0.13206 0.79375,-0.31396 z m -0.44987,50.29078 c -4.83066,-0.7556 -8.70062,-5.39762 -7.67506,-9.20627 0.25524,-0.94787 0.87427,-1.75378 3.14899,-4.0996 2.39398,-2.46881 6.95771,-8.02598 11.5884,-14.111 0.61007,-0.80166 1.39973,-1.82628 1.75481,-2.27693 3.09997,-3.93436 4.08539,-5.206 6.27331,-8.09541 1.37739,-1.81902 2.74246,-3.52186 3.03351,-3.7841 1.10066,-0.99175 5.17936,-2.61343 7.45688,-2.96485 l 1.10688,-0.17079 0.0229,5.03133 0.0229,5.03134 -4.70756,9.47489 c -2.58915,5.21118 -4.93145,10.01067 -5.20509,10.66551 -0.27365,0.65484 -0.75546,1.78594 -1.0707,2.51354 -0.31524,0.72761 -0.96342,2.57307 -1.44041,4.10104 -1.10309,3.53358 -1.38695,4.19263 -2.24508,5.21246 -1.78431,2.12053 -7.50836,3.39151 -12.06459,2.67884 z m -3.11176,-11.93484 c 1.34767,-0.79897 3.55093,-1.85313 4.89614,-2.34258 1.34521,-0.48946 2.44654,-0.95563 2.4474,-1.03594 0.002,-0.17997 -3.08287,0.12722 -3.90105,0.38847 -0.32742,0.10455 -0.59531,0.12179 -0.59531,0.0383 0,-0.0835 1.33945,-2.00404 2.97656,-4.26793 1.63711,-2.26389 3.57187,-4.97564 4.29948,-6.02611 0.7276,-1.05047 1.7196,-2.44191 2.20444,-3.09208 0.95999,-1.28736 5.62179,-7.78847 7.32056,-10.20887 0.58208,-0.82936 1.41552,-1.93559 1.85208,-2.4583 0.43656,-0.52271 0.56678,-0.77179 0.28937,-0.55351 -0.27741,0.21828 -1.58008,1.82562 -2.89482,3.57187 -8.47877,11.26154 -18.35737,23.56819 -20.53424,25.58134 -1.55824,1.44104 -2.65718,3.02361 -2.65718,3.82654 0,0.10363 0.41541,-0.2969 0.92314,-0.89007 0.50772,-0.59316 2.02577,-1.73218 3.37343,-2.53114 z m 14.77665,-7.14352 c 0.23105,-0.17727 0.36996,-0.47114 0.30868,-0.65304 -0.0613,-0.1819 0.008,-0.33073 0.15316,-0.33073 0.14552,0 0.39428,-0.32742 0.5528,-0.7276 l 0.28822,-0.72761 -0.13751,0.79375 c -0.11326,0.65377 -0.0869,0.71034 0.14943,0.32076 0.15782,-0.26014 0.23919,-0.61627 0.18081,-0.79139 -0.0584,-0.17512 0.0534,-0.47788 0.24829,-0.67282 0.19494,-0.19493 0.28677,-0.46388 0.20409,-0.59767 -0.0827,-0.13379 -0.0342,-0.24325 0.10781,-0.24325 0.14198,0 0.30353,0.13613 0.35899,0.30252 0.0745,0.22351 0.25873,0.21802 0.70535,-0.021 0.57796,-0.30931 0.58321,-0.33967 0.11965,-0.69099 -0.26668,-0.2021 -0.60584,-0.37124 -0.75369,-0.37587 -0.29803,-0.009 -1.98014,2.4424 -1.98014,2.88612 0,0.15425 -0.11906,0.28047 -0.26458,0.28047 -0.14552,0 -0.26459,0.13945 -0.26459,0.30989 0,0.17044 -0.19704,0.52763 -0.43788,0.79375 -0.49147,0.54307 -0.18391,0.63959 0.46111,0.14471 z m 6.98823,-9.71502 c -0.0899,-0.14552 -0.0502,-0.26458 0.0884,-0.26458 0.13854,0 0.32148,-0.18135 0.40654,-0.403 0.12477,-0.32516 0.057,-0.35072 -0.35118,-0.13229 -0.62621,0.33514 -0.80519,0.34046 -0.80519,0.0239 0,-0.13572 0.23205,-0.3204 0.51567,-0.41042 0.312,-0.099 0.45757,-0.31507 0.36857,-0.547 -0.0809,-0.21083 -0.0153,-0.38333 0.14579,-0.38333 0.16109,0 0.29289,-0.11906 0.29289,-0.26458 0,-0.44331 -0.53472,-0.29486 -0.7148,0.19844 -0.093,0.25466 -0.38842,0.74893 -0.65658,1.09837 -0.47904,0.62425 -0.4771,0.64113 0.11118,0.96624 0.77403,0.42777 0.7923,0.43138 0.59874,0.1182 z m 3.85988,-6.60534 c 0.25043,-0.62341 -0.34745,-1.08384 -0.73923,-0.56928 -0.17913,0.23526 -0.32948,0.58179 -0.33411,0.77007 -0.0112,0.45694 0.87579,0.291 1.07334,-0.20079 z m 3.15158,-5.68948 c 0,0.45578 0.0427,0.44539 0.4275,-0.10402 0.63913,-0.9125 0.0386,-1.39629 -0.67272,-0.54195 -0.29201,0.35071 -0.5311,0.75673 -0.53131,0.90225 -2.2e-4,0.14552 0.17442,0.0335 0.38807,-0.24901 0.38008,-0.50251 0.38846,-0.50267 0.38846,-0.007 z m -48.02187,15.7344 c -0.72761,-0.0998 -1.14433,-0.20198 -0.92604,-0.22707 0.3513,-0.0404 0.35155,-0.0743 0.002,-0.29513 -0.29889,-0.18896 -0.32035,-0.32383 -0.0884,-0.55573 0.2319,-0.23191 0.44598,-0.20833 0.88213,0.0972 0.53471,0.37453 0.54104,0.41238 0.0884,0.5291 -0.26811,0.0691 -0.0708,0.13769 0.43857,0.15235 0.50933,0.0147 0.78789,-0.0613 0.61904,-0.1687 -0.21439,-0.13641 -0.11398,-0.41974 0.33288,-0.93924 l 0.63987,-0.7439 0.23024,0.61256 c 0.16391,0.4361 0.12518,0.67351 -0.13444,0.82415 -0.20057,0.11637 -0.36467,0.38426 -0.36467,0.59531 0,0.21105 -0.0893,0.36502 -0.19844,0.34216 -0.10914,-0.0229 -0.79375,-0.12322 -1.52135,-0.22302 z m 3.54428,0.0226 c 0.20311,-0.1286 0.29847,-0.41837 0.21191,-0.64393 -0.10859,-0.28298 -0.0385,-0.3645 0.22603,-0.26298 0.21087,0.0809 0.3834,0.0153 0.3834,-0.14576 0,-0.16109 0.18233,-0.29289 0.40518,-0.29289 0.22285,0 0.47371,-0.1786 0.55748,-0.39688 0.0838,-0.21828 0.25861,-0.39687 0.38857,-0.39687 0.12995,0 0.23627,0.17859 0.23627,0.39687 0,0.21828 -0.17859,0.39688 -0.39687,0.39688 -0.21828,0 -0.39688,0.11906 -0.39688,0.26458 0,0.14552 -0.17859,0.26458 -0.39687,0.26458 -0.21828,0 -0.39688,0.16586 -0.39688,0.36857 0,0.20271 -0.18833,0.44084 -0.41851,0.52917 -0.60925,0.23379 -0.83008,0.1892 -0.40283,-0.0813 z m -1.29532,-2.87862 c 0,-0.28535 0.18872,-0.67544 0.41937,-0.86687 0.36829,-0.30565 0.40858,-0.25568 0.33073,0.41022 -0.10084,0.86254 -0.7501,1.2578 -0.7501,0.45665 z m 3.76855,-0.14128 c 0.055,-0.4103 0.22045,-0.8265 0.36779,-0.92489 0.14733,-0.0984 0.34994,-0.40077 0.45023,-0.67194 0.12138,-0.32819 0.35496,-0.4479 0.69858,-0.35804 0.6037,0.15787 1.29608,-0.47444 0.74516,-0.68051 -0.2101,-0.0786 -0.0869,-0.229 0.31969,-0.39042 0.39684,-0.15755 0.6983,-0.16492 0.75356,-0.0184 0.10312,0.27333 -1.13067,1.51727 -1.94419,1.96019 -0.29104,0.15846 -0.51324,0.39743 -0.49376,0.53106 0.0195,0.13362 -0.19688,0.48056 -0.48078,0.77097 -0.51446,0.52626 -0.51585,0.52553 -0.41628,-0.21798 z"
         id="path429" /><path
         style="fill:#b2c8d6"
         d="m 126.11054,161.52967 c -0.18386,-0.50847 -0.24892,-1.06265 -0.14456,-1.2315 0.1079,-0.1746 0.0749,-0.23606 -0.0764,-0.1425 -0.29309,0.18113 -0.67588,-0.95602 -1.14304,-3.39561 -0.39373,-2.05617 -0.0238,-4.83843 1.05854,-7.96227 0.43895,-1.26682 0.79809,-2.51246 0.79809,-2.76808 0,-0.25563 0.10019,-0.50446 0.22264,-0.55297 0.12245,-0.0485 0.29627,-0.46616 0.38626,-0.92812 0.15944,-0.8184 0.12,-0.86034 -1.53951,-1.63691 -3.06377,-1.43371 -7.53606,-4.70116 -7.53606,-5.50583 0,-0.28242 0.97361,-0.26829 3.175,0.0461 1.27016,0.1814 4.54204,1.20005 4.7625,1.48274 0.0728,0.0933 0.54901,0.25738 1.05833,0.36461 0.50933,0.10724 1.13513,0.37944 1.39069,0.60489 0.25555,0.22544 0.54976,0.32478 0.65379,0.22075 0.10404,-0.10404 0.014,-0.28959 -0.20006,-0.41233 -1.63911,-0.93989 -2.37358,-1.48985 -2.37358,-1.77731 0,-0.19067 -0.1727,-0.26912 -0.40025,-0.1818 -0.22013,0.0845 -0.5809,0.004 -0.80171,-0.1796 -0.34395,-0.28545 -0.21079,-0.44209 0.92941,-1.09328 0.73198,-0.41806 1.33088,-0.93629 1.33088,-1.15162 0,-0.21534 0.23812,-0.39153 0.52917,-0.39153 0.29398,0 0.52916,-0.17639 0.52916,-0.39687 0,-0.21828 0.15948,-0.39688 0.35441,-0.39688 0.19492,0 0.49002,-0.29765 0.65578,-0.66146 0.16576,-0.3638 0.5156,-0.66145 0.77742,-0.66145 0.26182,0 0.68558,-0.24473 0.94168,-0.54384 0.3089,-0.36076 0.64042,-0.48836 0.98485,-0.37904 0.76136,0.24165 0.66926,-0.54257 -0.18234,-1.55247 l -0.70153,-0.83195 0.70153,-0.24951 c 0.38585,-0.13723 0.70522,-0.43489 0.70972,-0.66146 0.008,-0.40688 2.06213,-2.13173 2.53859,-2.13173 0.13532,0 0.43757,-0.20836 0.67166,-0.46303 0.23409,-0.25466 0.70703,-0.68506 1.05099,-0.95646 0.41585,-0.32812 0.51457,-0.53495 0.29464,-0.61736 -0.6988,-0.26183 -0.28403,-0.60899 0.7276,-0.60899 0.58209,0 1.05834,-0.11746 1.05834,-0.26103 0,-0.3293 1.82737,-1.10839 2.14267,-0.91352 0.12891,0.0797 0.44369,0.023 0.6995,-0.126 0.38539,-0.22443 0.31504,-0.27224 -0.41039,-0.2789 -0.51465,-0.005 -0.80811,-0.1171 -0.71199,-0.27263 0.0899,-0.14552 0.69227,-0.26458 1.33853,-0.26458 0.64625,0 1.17501,-0.11907 1.17501,-0.26459 0,-0.14552 0.47625,-0.26458 1.05833,-0.26458 0.88195,0 1.05834,-0.0882 1.05834,-0.52917 0,-0.4271 0.17638,-0.52916 0.91454,-0.52916 0.69943,0 1.18174,-0.24762 2.05052,-1.05273 1.00189,-0.92847 1.14596,-0.99093 1.22052,-0.52917 0.0672,0.41631 0.29306,0.52356 1.10244,0.52356 0.55983,0 1.06306,-0.13553 1.11827,-0.30118 0.12679,-0.38036 3.64787,-0.0481 3.64787,0.34418 0,0.15913 -0.5359,0.21516 -1.33777,0.13989 -0.73577,-0.0691 -1.56921,-0.0651 -1.85208,0.009 -0.90369,0.23632 -0.55205,0.60091 0.61016,0.63263 0.61847,0.0169 0.88636,0.0865 0.59532,0.15471 -0.29105,0.0682 -1.04937,0.29593 -1.68518,0.50604 -2.60468,0.86076 -2.85264,1.42336 -0.62993,1.42928 1.72982,0.005 2.27553,0.24023 2.03118,0.877 -0.20078,0.52321 -0.53772,0.57315 -0.74992,0.11114 -0.0835,-0.1819 -0.0854,-0.0628 -0.004,0.26458 0.0874,0.35243 0.0261,0.59531 -0.15035,0.59531 -0.16392,0 -0.22897,0.11175 -0.14456,0.24832 0.0844,0.13658 -0.0115,0.34494 -0.21312,0.46303 -0.20163,0.11808 -0.56631,0.60538 -0.8104,1.08288 -0.24409,0.4775 -0.796,1.20476 -1.22647,1.61614 -0.43047,0.41138 -0.78267,0.87526 -0.78267,1.03084 0,0.15559 -0.27587,0.49989 -0.61305,0.76511 -0.33717,0.26522 -0.64051,0.60129 -0.67407,0.74681 -0.0733,0.31765 -0.73384,1.23826 -1.58162,2.20423 -0.34087,0.3884 -1.24727,1.53962 -2.01421,2.55827 -1.60117,2.12667 -3.80951,4.63021 -4.08425,4.63021 -0.1028,0 -0.33751,-0.41647 -0.52157,-0.92549 -0.51166,-1.41498 -1.78586,-2.24951 -3.43464,-2.24951 -0.75025,0 -1.36409,0.11906 -1.36409,0.26458 0,0.14552 -0.14883,0.27042 -0.33073,0.27756 -0.1819,0.007 -0.77424,0.45363 -1.3163,0.99219 -1.81234,1.80062 -2.18967,5.01318 -0.83755,7.13077 0.47199,0.7392 0.23729,0.76372 -1.72683,0.18044 -0.76837,-0.22818 -1.45593,-0.35598 -1.52792,-0.28399 -0.072,0.072 -0.11944,2.01486 -0.10545,4.31748 0.0296,4.87559 -0.23596,7.73671 -1.03354,11.13395 -0.51077,2.17562 -0.63877,2.44535 -1.16036,2.44535 -0.42966,0 -0.67557,-0.24696 -0.92057,-0.9245 z m 8.74668,0.1969 c -1.62899,-4.28242 -1.83959,-7.60605 -0.90114,-14.22136 l 0.18767,-1.32292 1.10577,-0.0804 c 1.08475,-0.0789 1.11607,-0.0572 1.64726,1.14366 0.29781,0.67326 0.51459,1.30477 0.48172,1.40336 -0.058,0.17408 0.26128,0.55128 2.01194,2.37673 2.1498,2.24165 6.21492,3.28398 10.72616,2.75028 3.23205,-0.38236 4.95302,-0.89854 6.33604,-1.9004 1.57614,-1.14175 2.28375,-2.3824 3.3258,-5.83116 0.5066,-1.67661 1.57979,-4.55869 2.38488,-6.40461 1.54389,-3.53988 9.34522,-19.25429 9.55869,-19.25429 0.0687,0 0.12486,4.70297 0.12486,10.45104 0,9.11343 -0.0508,10.45104 -0.39687,10.45104 -0.23774,0 -0.39688,0.24401 -0.39688,0.60854 0,0.3347 -0.14882,0.7663 -0.33072,0.95912 -0.26459,0.28046 -0.26459,0.37483 0,0.47184 0.5221,0.19144 0.39097,0.68703 -0.4154,1.56989 -0.72644,0.79535 -0.74613,0.89597 -0.74613,3.8134 0,2.06722 -0.0968,3.02878 -0.3122,3.10057 -0.37783,0.12595 -0.4227,2.17664 -0.0476,2.17664 0.14552,0 0.26458,0.47625 0.26458,1.05834 0,0.88194 -0.0882,1.05833 -0.52916,1.05833 -0.44761,0 -0.52917,0.17639 -0.52917,1.1445 0,1.57355 -0.77478,2.29508 -2.46445,2.29508 h -1.23972 v 1.45521 1.45521 h -1.17859 c -0.91001,0 -1.33208,-0.15348 -1.85209,-0.67348 -0.37041,-0.37042 -0.67348,-0.78849 -0.67348,-0.92904 0,-0.14055 0.47625,-0.95325 1.05833,-1.80601 0.58208,-0.85275 1.05833,-1.6474 1.05833,-1.76589 0,-0.11849 0.24708,-0.47844 0.54907,-0.79989 0.33919,-0.36104 0.44414,-0.64929 0.27458,-0.75409 -0.15096,-0.0933 -0.60174,0.34062 -1.00171,0.96428 -0.39998,0.62365 -0.91049,1.3263 -1.13448,1.56143 -0.22399,0.23514 -0.58584,0.70016 -0.80412,1.03338 -0.21828,0.33321 -0.87313,1.17943 -1.45521,1.88047 l -1.05833,1.27463 -6.00053,-0.0485 c -3.30029,-0.0267 -5.94241,-0.14254 -5.87137,-0.25748 0.071,-0.11495 0.28485,-0.209 0.47514,-0.209 0.39728,0 3.59155,-2.89353 3.59155,-3.25341 0,-0.13114 -0.39602,-0.005 -0.88005,0.2808 -0.76166,0.44939 -0.9469,0.47035 -1.37707,0.1558 -0.42564,-0.31123 -0.52915,-0.30605 -0.7206,0.0361 -0.33452,0.59776 -0.69532,0.48335 -0.88724,-0.28133 -0.26533,-1.05714 -0.70305,-0.35201 -0.78443,1.26367 -0.0388,0.77085 -0.0802,1.49502 -0.0918,1.60929 -0.0312,0.30526 -0.80472,-0.19343 -2.00564,-1.29311 -0.58208,-0.53302 -1.43291,-1.2557 -1.89073,-1.60596 -0.61209,-0.46828 -0.79859,-0.79163 -0.70465,-1.22172 0.10049,-0.46007 0.0695,-0.50182 -0.1454,-0.19567 -0.15024,0.21407 -0.31566,0.33313 -0.36762,0.26459 -0.052,-0.0685 -0.32088,-0.48182 -0.59762,-0.91838 l -0.50316,-0.79375 -0.33568,2.4814 c -0.18463,1.36478 -0.48701,2.82329 -0.67198,3.24115 -0.31759,0.71749 -0.42656,0.75974 -1.95939,0.75974 -1.52718,0 -1.63947,-0.043 -1.89988,-0.7276 z m 25.13319,0.26762 c 0.13282,-0.6897 1.00855,-0.76662 1.00855,-0.0886 0,0.37865 -0.16992,0.54857 -0.54857,0.54857 -0.37864,0 -0.52113,-0.14248 -0.45998,-0.45998 z m -14.42684,-8.80195 c -4.0723,-0.50388 -7.56269,-3.54541 -8.24551,-7.18515 -0.35884,-1.91279 0.23065,-3.02092 3.27983,-6.16541 2.40411,-2.47926 7.15972,-8.26664 11.61054,-14.12953 0.62224,-0.81965 1.28983,-1.68012 1.48354,-1.91215 0.60327,-0.72264 3.07589,-3.92559 5.90404,-7.64791 3.72965,-4.90884 3.96287,-5.11698 7.08013,-6.31898 3.86013,-1.48844 6.15818,-1.65347 4.85323,-0.34852 -0.24694,0.24694 -0.24694,0.38805 0,0.635 0.21924,0.21923 0.3175,1.56863 0.3175,4.36012 v 4.04262 l -4.70229,9.46436 c -2.58627,5.20539 -4.9262,10.00014 -5.19984,10.65498 -0.27365,0.65484 -0.75546,1.78594 -1.0707,2.51354 -0.31524,0.72761 -0.96342,2.57307 -1.44041,4.10104 -1.10309,3.53358 -1.38695,4.19263 -2.24508,5.21246 -1.73757,2.06498 -6.99418,3.29652 -11.62498,2.72353 z m -3.55137,-11.97579 c 1.34767,-0.79691 3.52186,-1.84068 4.83155,-2.31949 1.30969,-0.47881 2.47474,-0.95063 2.589,-1.04849 0.26653,-0.22827 -2.5837,-0.0247 -3.71348,0.26528 -0.47294,0.12138 -0.85989,0.17095 -0.85989,0.11017 0,-0.0608 1.22039,-1.7889 2.71197,-3.84026 3.94212,-5.42154 5.9657,-8.22024 6.48653,-8.97116 2.08383,-3.00438 9.23587,-12.96921 9.68349,-13.49186 l 0.56488,-0.65956 -0.57272,0.48168 c -0.31499,0.26493 -1.62067,1.87142 -2.9015,3.56999 -8.78363,11.64829 -18.27192,23.47184 -20.45922,25.49463 -1.55824,1.44104 -2.65718,3.02361 -2.65718,3.82654 0,0.10363 0.41541,-0.2969 0.92314,-0.89007 0.50772,-0.59316 2.02577,-1.73049 3.37343,-2.5274 z m 13.4926,-2.44249 c 0.33416,-0.45483 0.22819,-0.63458 -0.63823,-1.08262 -0.78809,-0.40754 -0.86208,-0.40553 -1.18215,0.0322 -0.39068,0.53429 -0.20882,1.0189 0.30795,0.8206 0.19151,-0.0735 0.41428,0.0386 0.49504,0.249 0.15932,0.41519 0.70585,0.40489 1.01739,-0.0192 z m 1.51952,-2.54759 c 0.003,-0.0915 -0.35141,-0.31433 -0.7881,-0.49522 -0.63296,-0.26218 -0.87443,-0.26212 -1.19063,3e-4 -0.48362,0.40137 -0.51496,0.79355 -0.0634,0.79355 0.18328,0 0.49473,0.25861 0.69213,0.57469 l 0.3589,0.57469 0.49261,-0.64083 c 0.27094,-0.35246 0.49526,-0.71569 0.49849,-0.80718 z m 1.10153,-1.77893 c 0.1397,-0.37763 0.12476,-0.53614 -0.0409,-0.43378 -0.14356,0.0887 -0.26102,0.0352 -0.26102,-0.11888 0,-0.1541 0.14969,-0.28019 0.33265,-0.28019 0.41485,0 1.84833,-2.32773 1.64053,-2.66395 -0.0838,-0.13556 0.0333,-0.24647 0.26016,-0.24647 0.64636,0 0.48343,-0.50819 -0.27351,-0.85307 -0.60853,-0.27727 -0.74206,-0.23929 -1.18249,0.3364 -0.67417,0.8812 -2.6894,4.25639 -2.58278,4.32573 0.40178,0.2613 1.45612,0.63889 1.64788,0.59014 0.13162,-0.0335 0.33838,-0.32862 0.45945,-0.65593 z m 3.13769,-5.46306 c 0,-0.21828 0.11906,-0.39688 0.26458,-0.39688 0.14553,0 0.26459,-0.11382 0.26459,-0.25294 0,-0.13911 0.36475,-0.87155 0.81055,-1.62764 0.63245,-1.07264 0.73419,-1.42313 0.46302,-1.59509 -0.58002,-0.36782 -1.28025,-0.25542 -1.46101,0.23453 -0.094,0.25466 -0.23905,0.52255 -0.32243,0.59531 -0.27114,0.23662 -0.81305,1.30814 -0.81305,1.60764 0,0.16055 -0.26789,0.5229 -0.59531,0.80522 l -0.59531,0.5133 0.63751,-0.074 c 0.35351,-0.041 0.66558,-0.2692 0.70054,-0.51218 0.0347,-0.24098 0.19591,-0.6577 0.35831,-0.92604 0.2451,-0.40496 0.26598,-0.35298 0.12287,0.30587 -0.0948,0.43656 -0.27402,0.92377 -0.39821,1.08268 -0.1242,0.15891 -0.14747,0.36727 -0.0517,0.46302 0.30237,0.30237 0.61506,0.18911 0.61506,-0.22278 z m 3.175,-5.48559 c 0,-0.1238 0.23401,-0.47626 0.52002,-0.78325 0.28601,-0.307 0.45757,-0.65921 0.38126,-0.78269 -0.0763,-0.12348 -0.0127,-0.22451 0.14144,-0.22451 0.47332,0 0.31063,-0.64746 -0.2508,-0.99808 -0.47286,-0.2953 -0.58863,-0.23709 -1.05734,0.53167 -0.28949,0.4748 -0.5268,1.01211 -0.52734,1.19401 -5.4e-4,0.1819 -0.12807,0.33073 -0.2834,0.33073 -0.1661,0 -0.21345,0.24518 -0.11496,0.59531 0.11666,0.41474 0.092,0.48643 -0.0814,0.23634 -0.18483,-0.26663 -0.2982,-0.27912 -0.4407,-0.0486 -0.21432,0.34678 -0.21406,0.34714 0.52259,0.75413 0.41949,0.23177 0.59771,0.20196 0.85989,-0.14384 0.1819,-0.23991 0.33073,-0.53748 0.33073,-0.66127 z m 2.11667,-3.47785 c 0,-0.20046 0.18687,-0.51957 0.41527,-0.70912 0.22971,-0.19065 0.35595,-0.57149 0.28251,-0.85232 -0.073,-0.27922 -0.0671,-0.44203 0.0131,-0.36181 0.0802,0.0802 0.33331,-0.0416 0.56242,-0.27069 0.37901,-0.37901 0.37129,-0.44964 -0.0856,-0.78375 -0.44851,-0.32796 -0.56607,-0.28916 -1.1,0.363 -0.62962,0.76906 -0.76994,1.28863 -0.38775,1.43577 0.126,0.0485 0.13437,0.32632 0.0186,0.61736 -0.19182,0.48222 -0.21215,0.47132 -0.22909,-0.12285 -0.0175,-0.61433 -0.0447,-0.62594 -0.46958,-0.20102 -0.42493,0.42492 -0.4211,0.47358 0.0661,0.84203 0.653,0.49379 0.91401,0.50618 0.91401,0.0434 z m 2.36089,-4.13344 c 0.0907,-0.0728 0.38304,-0.47469 0.64969,-0.89318 0.39765,-0.62409 0.42034,-0.80174 0.12618,-0.98813 -0.51028,-0.32334 -0.76603,-0.28795 -0.68937,0.0954 0.0364,0.18191 -0.0806,0.30167 -0.25993,0.26614 -0.17934,-0.0355 -0.39845,0.22375 -0.4869,0.57617 -0.0885,0.35242 -0.3551,0.71531 -0.59255,0.80643 -0.36787,0.14117 -0.37515,0.20063 -0.0493,0.40205 0.24443,0.15107 0.45516,0.12205 0.58385,-0.0804 0.13235,-0.20819 0.20992,-0.13538 0.22631,0.21241 0.0182,0.38525 0.066,0.42123 0.17601,0.13229 0.0831,-0.21828 0.22527,-0.45641 0.31596,-0.52917 z m 2.12632,-3.61314 c 0.5116,-0.86711 0.5289,-1.00914 0.16702,-1.37102 -0.36188,-0.36188 -0.45496,-0.2892 -0.89854,0.70156 -0.27216,0.60789 -0.57369,1.02641 -0.67006,0.93004 -0.0964,-0.0964 -0.17522,-0.0462 -0.17522,0.11142 0,0.25859 0.37827,0.5192 0.83377,0.57442 0.0948,0.0115 0.42913,-0.4144 0.74303,-0.94642 z m -36.23721,32.27163 c -0.90831,-0.34522 -1.5875,-1.24804 -1.5875,-2.11019 0,-2.4991 1.30674,-4.36232 3.325,-4.74095 1.02813,-0.19288 2.10495,0.46216 2.35721,1.4339 0.10884,0.41927 0.29217,0.56894 0.56749,0.4633 0.22369,-0.0858 -0.19482,0.51883 -0.93002,1.34371 -0.7352,0.82488 -1.49794,1.98561 -1.69497,2.57941 -0.36294,1.09382 -1.01001,1.42123 -2.03721,1.03082 z m 9.90763,-24.71279 c -0.28201,-0.45629 0.17481,-0.70303 1.66789,-0.90088 1.21013,-0.16035 1.38906,-0.12525 1.38906,0.27248 0,0.3799 -0.17766,0.43271 -1.05833,0.31459 -0.79986,-0.10728 -1.05833,-0.0512 -1.05833,0.22975 0,0.43804 -0.68374,0.49917 -0.94029,0.0841 z m -23.92213,-8.77434 c 0.0136,-0.96125 0.63958,-1.57441 1.4904,-1.45986 l 0.75014,0.101 -0.7276,0.30908 c -0.52001,0.22089 -0.72761,0.49966 -0.72761,0.97708 0,0.4174 -0.14889,0.66801 -0.39687,0.66801 -0.23768,0 -0.3935,-0.2388 -0.38846,-0.59531 z m -1.33133,-2.4663 c 0,-0.51972 0.17859,-1.12353 0.39687,-1.34181 0.21828,-0.21829 0.38306,-0.59673 0.36618,-0.841 -0.0273,-0.39549 -0.0439,-0.39342 -0.15169,0.0189 -0.0666,0.25466 -0.28094,0.46302 -0.47642,0.46302 -0.19549,0 -0.40858,0.14883 -0.47355,0.33073 -0.0687,0.19237 -0.21628,0.23256 -0.35278,0.0961 -0.13649,-0.13649 -0.0963,-0.28408 0.0961,-0.35278 0.1819,-0.065 0.33073,-0.27405 0.33073,-0.46464 0,-0.19058 0.16737,-0.41074 0.37193,-0.48924 0.20456,-0.0785 0.45214,-0.50795 0.55019,-0.95435 0.098,-0.44639 0.34513,-0.81162 0.54907,-0.81162 0.20395,0 0.44353,-0.28973 0.53241,-0.64385 0.0889,-0.35411 0.2995,-0.61175 0.46806,-0.57253 0.16856,0.0392 0.21717,0.0214 0.10803,-0.0397 -0.36123,-0.20202 -0.20641,-0.89987 0.38732,-1.74583 0.32216,-0.45903 0.67935,-0.87428 0.79375,-0.92279 0.11439,-0.0485 0.20799,-0.21838 0.20799,-0.377509 0,-0.159125 0.43651,-0.923109 0.97002,-1.697744 l 0.97002,-1.408425 5.843,0.01242 5.843,0.01242 -0.91642,0.71518 c -0.50404,0.393349 -1.3816,1.161664 -1.95014,1.707367 -0.56853,0.545704 -1.13249,0.992181 -1.25323,0.992181 -0.12075,0 -0.31475,0.15083 -0.43112,0.33518 -0.11637,0.18435 -0.6283,0.67673 -1.13763,1.0942 -0.50932,0.41746 -1.74234,1.51679 -2.74005,2.44295 -0.9977,0.92616 -1.92043,1.68393 -2.05052,1.68393 -0.13008,0 -0.23651,0.12975 -0.23651,0.28834 0,0.35862 -1.36502,1.82832 -1.6981,1.82832 -0.13453,0 -0.45484,0.19026 -0.71179,0.4228 -0.54752,0.4955 -1.02969,0.29021 -1.02969,-0.43841 0,-0.43227 -0.18846,-0.51355 -1.19063,-0.51355 h -1.19062 v 1.05833 c 0,0.76435 -0.11025,1.05833 -0.39688,1.05833 -0.27869,0 -0.39687,-0.28138 -0.39687,-0.94494 z m -1.31451,-6.66183 -0.008,-5.093228 h 3.20543 3.20543 l -0.46232,0.727604 c -0.25427,0.400182 -0.74422,1.106613 -1.08876,1.569846 -0.34455,0.463234 -0.62645,0.917658 -0.62645,1.009838 0,0.0922 -0.28383,0.54661 -0.63075,1.00984 -0.34691,0.46324 -0.71212,1.11014 -0.81158,1.43756 -0.0994,0.32742 -0.27742,0.59531 -0.39548,0.59531 -0.11806,0 -0.36261,0.35719 -0.54344,0.79375 -0.18083,0.43656 -0.42049,0.79375 -0.53258,0.79375 -0.11209,0 -0.27107,0.26789 -0.35329,0.59531 -0.0822,0.32743 -0.32946,0.83344 -0.54943,1.12448 -0.36144,0.47821 -0.40076,0.0387 -0.40837,-4.56406 z m 20.62909,3.91822 c 0,-0.13693 0.11386,-0.31934 0.25303,-0.40535 0.13916,-0.086 0.19576,-0.3056 0.12578,-0.48798 -0.0738,-0.1924 0.0976,-0.34855 0.40843,-0.37196 0.68001,-0.0512 0.68239,0.30921 0.007,0.98509 -0.58294,0.58294 -0.79375,0.65736 -0.79375,0.2802 z m 1.49182,-1.73541 c -0.0838,-0.21828 -0.33463,-0.39687 -0.55748,-0.39687 -0.22284,0 -0.40517,-0.13421 -0.40517,-0.29825 0,-0.1996 0.45055,-0.25495 1.36225,-0.16735 1.55017,0.14895 2.41069,-0.003 2.17531,-0.38367 -0.0884,-0.14296 0.0383,-0.21872 0.28153,-0.16835 0.58817,0.12181 0.56518,0.59572 -0.0348,0.71778 -0.26234,0.0534 -0.79303,0.32126 -1.1793,0.59532 -0.84686,0.60083 -1.4367,0.63725 -1.64233,0.10139 z m 3.6747,-1.70823 c -0.086,-0.13917 -0.32243,-0.18931 -0.52537,-0.11144 -0.37961,0.14567 -1.99532,-1.20842 -1.99532,-1.67223 0,-0.14279 -0.301,-0.39676 -0.66888,-0.56438 -0.36789,-0.16762 -0.73781,-0.484387 -0.82206,-0.703928 -0.10025,-0.261243 -0.50907,-0.399164 -1.1832,-0.399164 -1.2311,0 -1.32282,-0.38717 -0.23795,-1.004493 0.43564,-0.247893 0.79283,-0.605789 0.79375,-0.795323 0.001,-0.27664 1.60636,-0.335027 8.13761,-0.296028 5.34666,0.03193 7.90917,0.132618 7.47448,0.293706 -1.25067,0.463475 -2.91042,1.367054 -2.91042,1.584454 0,0.119726 -0.20835,0.218418 -0.46302,0.219314 -0.25466,8.97e-4 -0.8202,0.195732 -1.25677,0.432966 -0.43656,0.237235 -1.15093,0.614126 -1.5875,0.837536 -0.43656,0.22342 -0.87502,0.52864 -0.97436,0.67829 -0.0993,0.14964 -0.60361,0.27208 -1.12062,0.27208 -0.51845,0 -0.79744,0.0881 -0.6221,0.19647 0.20985,0.1297 0.0736,0.28935 -0.40074,0.4697 -0.39525,0.15028 -0.71863,0.39524 -0.71863,0.54436 0,0.34232 -0.70989,0.35631 -0.9189,0.0181 z"
         id="path428" /><path
         style="fill:#a6b8c8"
         d="m 136.16526,161.88614 c -0.28644,-0.45866 -0.3998,-0.49687 -0.58876,-0.19844 -0.19002,0.3001 -0.23478,0.28668 -0.23807,-0.0714 -0.002,-0.24253 -0.099,-0.48066 -0.21513,-0.52916 -0.4415,-0.18448 -1.46035,-3.60321 -1.58349,-5.31341 -0.144,-1.99981 0.39696,-8.28132 0.77473,-8.99614 0.15597,-0.29512 0.55507,-0.46302 1.10056,-0.46302 h 0.85585 l 0.61758,2.84427 c 0.70912,3.26585 1.33474,5.35781 1.6023,5.35781 0.10181,0 0.39086,0.43143 0.64231,0.95873 0.45998,0.9646 0.4288,2.49175 -0.0831,4.06835 -0.11811,0.36381 -0.36668,1.16748 -0.55237,1.78594 -0.30277,1.00843 -0.42225,1.12448 -1.15766,1.12448 -0.55221,0 -0.93592,-0.18553 -1.17479,-0.56803 z m -0.86158,-2.67312 c -0.0169,-0.61846 -0.0854,-0.91466 -0.15231,-0.65821 -0.0669,0.25644 -0.23168,0.39824 -0.36619,0.31511 -0.28248,-0.17459 -0.30143,0.0378 -0.0778,0.87227 0.26552,0.99078 0.62898,0.66824 0.59629,-0.52917 z m -1.25523,-4.29948 c -0.23619,-1.00621 -0.24973,-1.01761 -0.275,-0.23151 -0.0146,0.45476 0.0614,1.22866 0.16895,1.7198 0.17348,0.79232 0.20447,0.81841 0.27499,0.23151 0.0437,-0.36381 -0.0323,-1.13771 -0.16894,-1.7198 z m 16.70436,4.77052 c -0.26328,-0.29938 -0.17238,-0.49652 0.48333,-1.04826 0.87162,-0.73343 0.58255,-0.86354 -0.68822,-0.3098 -0.53006,0.23098 -1.00668,0.26737 -1.43469,0.10956 -0.35252,-0.12998 -0.799,-0.17567 -0.99219,-0.10153 -0.19319,0.0741 -0.35125,-0.0385 -0.35125,-0.25024 0,-0.21176 -0.43777,-0.56793 -0.97283,-0.79149 -1.18704,-0.49598 -1.46745,-0.20981 -1.23392,1.25927 0.10384,0.65326 0.0558,0.99218 -0.14068,0.99218 -0.16412,0 -0.2984,-0.103 -0.2984,-0.2289 0,-0.4683 -1.13279,-1.66623 -1.30782,-1.38303 -0.10022,0.16216 -0.45463,-0.18539 -0.82315,-0.80719 -0.35594,-0.60057 -0.97458,-1.42904 -1.37476,-1.84104 -0.40018,-0.41199 -0.7276,-0.87216 -0.7276,-1.02259 0,-0.15042 -0.14883,-0.27532 -0.33073,-0.27755 -0.25959,-0.003 -0.26086,-0.0484 -0.006,-0.21041 0.24017,-0.15257 0.19471,-0.30016 -0.17437,-0.56618 -0.28503,-0.20544 -0.43308,-0.53219 -0.34506,-0.76157 0.10574,-0.27555 0.0329,-0.3552 -0.23195,-0.25357 -0.25433,0.0976 -0.38611,-0.0222 -0.38611,-0.35094 0,-0.27451 0.0728,-0.49911 0.16176,-0.49911 0.34921,0 1.30536,1.2429 1.11633,1.45111 -0.11047,0.12168 -0.06,0.14048 0.11225,0.0418 0.17222,-0.0987 1.15534,0.10418 2.18472,0.45082 4.2275,1.42359 11.53563,0.4492 14.17092,-1.8894 1.09785,-0.97425 1.73906,-2.22665 2.51513,-4.91245 1.24469,-4.30763 1.99633,-6.01194 7.76797,-17.61368 l 4.26898,-8.58118 0.0704,7.78743 c 0.0607,6.70899 0.0149,7.82811 -0.33072,8.08119 -0.22065,0.16156 -0.40118,0.5595 -0.40118,0.88431 0,0.3248 -0.23812,0.89328 -0.52916,1.26328 -0.29104,0.37 -0.52917,0.80877 -0.52917,0.97505 0,0.16627 -0.20627,0.5967 -0.45838,0.9565 -0.25211,0.35981 -0.48973,1.13044 -0.52805,1.71252 -0.041,0.62283 -0.25426,1.19443 -0.51823,1.38906 -0.24671,0.1819 -0.36773,0.33073 -0.26893,0.33073 0.0988,0 -0.1761,0.65753 -0.61089,1.46117 -0.43478,0.80365 -0.79052,1.5903 -0.79052,1.74812 0,0.42718 -1.62623,3.77514 -1.93009,3.97353 -0.14435,0.0942 -0.19696,0.42183 -0.1169,0.72797 0.0801,0.30613 0.0387,0.49057 -0.0919,0.40985 -0.1306,-0.0807 -0.44692,0.30607 -0.70292,0.85953 -0.25601,0.55346 -0.58453,1.10465 -0.73005,1.22487 -0.17141,0.14161 -0.14812,0.26584 0.0661,0.35278 0.1819,0.0738 0.33073,0.26179 0.33073,0.41774 0,0.15595 -0.23812,0.068 -0.52917,-0.19535 -0.37044,-0.33524 -0.52916,-0.37462 -0.52916,-0.13126 0,0.19119 -0.62508,0.92577 -1.38906,1.6324 -1.96358,1.81615 -2.28073,2.07074 -2.57969,2.07074 -0.14552,0 -0.26459,0.1732 -0.26459,0.38488 0,0.23778 -0.37922,0.45066 -0.99218,0.55697 -0.54571,0.0946 -1.44178,0.26667 -1.99128,0.38228 -0.54949,0.11562 -1.20434,0.16974 -1.45521,0.12027 -0.25086,-0.0495 -0.95361,-0.14411 -1.56166,-0.2103 -0.86935,-0.0946 -1.07527,-0.0415 -0.96388,0.24882 0.18133,0.47252 -0.214,0.46028 -0.6361,-0.0197 z m -6.96485,-6.85066 c -2.54053,-0.68519 -5.10169,-3.05922 -6.05811,-5.61549 -1.03511,-2.76658 -0.67361,-3.74231 2.63835,-7.12103 2.17227,-2.21607 6.22587,-7.05229 8.98909,-10.72462 0.3638,-0.4835 0.91303,-1.18528 1.22051,-1.55952 1.19435,-1.45369 6.67568,-8.51482 9.0518,-11.66065 3.22394,-4.26829 3.87196,-4.94019 5.4704,-5.67196 1.69473,-0.77585 4.48132,-1.66433 5.75469,-1.83484 1.034,-0.13845 1.30959,0.20439 0.67468,0.8393 -0.24694,0.24694 -0.24694,0.38805 0,0.635 0.21945,0.21944 0.3175,1.57552 0.3175,4.39111 v 4.07361 l -3.98036,7.84587 c -5.64709,11.13122 -7.98305,16.50357 -9.24619,21.2648 -0.9885,3.72605 -4.51632,5.50656 -10.85053,5.47632 -1.52797,-0.007 -3.31979,-0.15935 -3.98183,-0.3379 z m 9.53808,-2.96224 c 0,-0.53931 -0.94672,-2.49824 -1.20736,-2.49824 -0.0532,0 0.14028,0.55296 0.42997,1.2288 0.43497,1.01472 0.45228,1.16701 0.0994,0.87412 -0.37042,-0.30742 -0.41541,-0.28607 -0.33769,0.16027 0.0556,0.31944 -0.0434,0.48733 -0.26073,0.44223 -0.19271,-0.04 -0.27141,0.0551 -0.17488,0.21129 0.12275,0.19861 0.28968,0.18924 0.55523,-0.0311 0.20884,-0.17332 0.44796,-0.24689 0.53138,-0.16347 0.0834,0.0834 -0.0981,0.30761 -0.40327,0.49822 -0.30522,0.19061 -0.55494,0.43973 -0.55494,0.5536 0,0.11387 0.29766,0.012 0.66146,-0.22637 0.392,-0.25684 0.66146,-0.6843 0.66146,-1.0493 z m -2.46003,0.23873 c 0.32048,-0.34117 0.70743,-0.6203 0.8599,-0.6203 0.15247,0 0.26782,-0.26789 0.25633,-0.59532 -0.0115,-0.32742 -0.0809,-0.44669 -0.15419,-0.26503 -0.0746,0.18489 -0.38571,0.27291 -0.70672,0.19996 -0.31538,-0.0717 -1.20552,0.0821 -1.9781,0.34178 l -1.40469,0.47209 0.56414,0.71719 c 0.45395,0.57711 0.70248,0.68328 1.2724,0.54357 0.38954,-0.0955 0.97046,-0.45277 1.29093,-0.79394 z m -9.27992,-8.59869 c 1.29098,-0.80142 3.53787,-1.91129 4.99308,-2.46637 2.92752,-1.11669 3.69755,-1.58266 2.24895,-1.36091 -0.50932,0.078 -1.61876,0.21587 -2.46541,0.30646 l -1.53938,0.1647 0.95661,-1.27806 c 0.95928,-1.28164 6.1566,-8.45728 7.14923,-9.87054 0.29104,-0.41438 1.07408,-1.50808 1.7401,-2.43046 0.66601,-0.92238 2.96818,-4.14916 5.11593,-7.17061 2.16855,-3.05072 4.21844,-5.66378 4.60989,-5.87638 0.3877,-0.21056 0.57214,-0.38761 0.40986,-0.39343 -0.62516,-0.0224 -1.74463,1.18689 -4.70348,5.08107 -6.42875,8.46096 -7.11656,9.34425 -13.55635,17.40921 -2.50319,3.1349 -5.33176,6.41597 -6.28572,7.29124 -1.54227,1.41508 -2.54377,2.92738 -2.54377,3.84117 0,0.17202 0.34272,-0.16034 0.7616,-0.73859 0.45981,-0.63475 1.69174,-1.62878 3.10886,-2.5085 z m 14.1212,-3.17789 c 0,-0.11397 -0.37832,-0.40286 -0.84072,-0.64197 -0.79079,-0.40893 -0.86149,-0.40633 -1.19062,0.0438 -0.49208,0.67295 -0.45666,0.75841 0.50999,1.23049 0.78616,0.38393 0.88825,0.38371 1.19062,-0.003 0.1819,-0.23238 0.33073,-0.51576 0.33073,-0.62973 z m 1.24893,-2.16255 c -0.16236,-0.4871 -1.49226,-0.78652 -1.91928,-0.43212 -0.48992,0.40659 -0.50432,1.05095 -0.0235,1.05095 0.20046,0 0.52284,0.19081 0.7164,0.42404 0.31845,0.38371 0.39785,0.36732 0.83484,-0.17235 0.26561,-0.32801 0.4418,-0.71975 0.39154,-0.87052 z m 1.19691,-1.69628 c 0.17481,-0.40018 0.77994,-1.49406 1.34475,-2.43084 0.97391,-1.61533 1.00186,-1.72155 0.54151,-2.05816 -0.26697,-0.19522 -0.66099,-0.32113 -0.87558,-0.2798 -0.33304,0.0641 -3.19194,4.26774 -3.19194,4.69329 0,0.18506 1.07355,0.72684 1.52703,0.77063 0.18502,0.0179 0.47943,-0.29494 0.65423,-0.69512 z m 4.13819,-7.11517 c 0.88157,-1.57627 1.05331,-2.07109 0.77913,-2.24491 -0.77416,-0.49078 -1.28885,-0.20412 -2.07911,1.158 -0.44324,0.76398 -1.00723,1.67603 -1.25331,2.02677 -0.44258,0.63082 -0.43976,0.63624 0.2614,0.50221 0.38985,-0.0745 0.7006,-0.0638 0.69055,0.0238 -0.12923,1.12643 0.44605,0.59984 1.60134,-1.46582 z m 3.47014,-6.102 c 0,-0.11849 -0.23202,-0.36033 -0.51559,-0.53743 -0.44741,-0.27941 -0.58737,-0.22119 -1.05834,0.44022 -0.2985,0.41922 -0.54274,0.83795 -0.54274,0.93052 0,0.0926 -0.26789,0.53774 -0.59531,0.98926 -0.44199,0.60952 -0.50633,0.8522 -0.24982,0.9423 0.19002,0.0667 0.48296,0.26851 0.65098,0.44838 0.23689,0.25359 0.53068,-0.0463 1.30816,-1.33539 0.55146,-0.91434 1.00266,-1.75938 1.00266,-1.87786 z m 1.54144,-2.38732 c 0.82226,-1.40627 0.84947,-1.52731 0.41488,-1.84509 -0.53521,-0.39136 -0.81108,-0.16204 -1.99308,1.65679 l -0.69821,1.07439 0.56592,0.28218 c 0.31126,0.1552 0.62545,0.29446 0.69821,0.30946 0.0728,0.015 0.52829,-0.64998 1.01228,-1.47773 z m 1.6132,-2.98249 c 0.0907,-0.0728 0.38304,-0.47469 0.64969,-0.89318 0.39765,-0.62409 0.42034,-0.80174 0.12618,-0.98813 -0.5753,-0.36454 -0.68798,-0.29656 -1.52499,0.92 l -0.7949,1.15535 0.58375,0.26469 c 0.40844,0.1852 0.61553,0.17593 0.68957,-0.0309 0.0582,-0.16256 0.18001,-0.3551 0.2707,-0.42786 z m 2.27712,-3.75355 c 0.36334,-0.67028 0.29484,-1.53811 -0.1214,-1.53811 -0.10411,0 -0.51072,0.49096 -0.9036,1.09102 -0.67163,1.02584 -0.6864,1.11144 -0.24711,1.43266 0.5063,0.37021 0.55957,0.32894 1.27211,-0.98557 z m -40.32358,32.66103 c -1.09756,-0.32308 -1.53302,-0.34928 -1.90844,-0.11482 -0.37668,0.23524 -0.45796,0.22962 -0.36028,-0.0249 0.0694,-0.18079 -0.11453,-0.44694 -0.40868,-0.59144 -2.90545,-1.42738 -5.6756,-2.85909 -5.9195,-3.05941 -0.1649,-0.13542 -0.59748,-0.49061 -0.96128,-0.78929 l -0.66146,-0.54306 0.66146,0.16361 c 0.46252,0.1144 0.55179,0.0877 0.29683,-0.0887 -0.20054,-0.13879 -0.28281,-0.38471 -0.18282,-0.5465 0.1153,-0.18656 -0.0659,-0.29417 -0.49527,-0.29417 -0.37239,0 -0.67707,-0.13428 -0.67707,-0.2984 0,-0.19995 0.34917,-0.24256 1.05833,-0.12916 0.92876,0.14851 1.4397,-0.10881 0.8599,-0.43307 -0.10915,-0.061 -0.0199,-0.0528 0.19843,0.0183 0.21828,0.0711 0.78493,0.18379 1.25923,0.25046 0.47429,0.0667 0.9278,0.22711 1.0078,0.35655 0.08,0.12945 0.32355,0.23535 0.54123,0.23535 0.21768,0 0.89526,0.22457 1.50574,0.49904 0.61048,0.27447 1.64574,0.74051 2.30059,1.03565 1.62919,0.73428 2.55684,1.6121 2.7688,2.62008 0.098,0.4661 0.41673,1.15071 0.70828,1.52135 0.62073,0.78913 0.44601,0.81247 -1.59182,0.21261 z m 3.79184,-0.70094 c -0.42502,-0.29769 -0.50744,-0.60262 -0.42911,-1.5875 0.0533,-0.67047 0.21654,-1.21904 0.36269,-1.21904 0.15045,0 0.22195,0.45912 0.1648,1.05834 -0.0633,0.66376 0.009,1.05833 0.19485,1.05833 0.19828,0 0.23967,-0.37065 0.12555,-1.12448 -0.0936,-0.61846 -0.12305,-1.61707 -0.0654,-2.21913 0.1011,-1.05574 0.14391,-1.10101 1.20436,-1.27353 1.03049,-0.16764 1.06728,-0.20275 0.58594,-0.55899 -0.40994,-0.3034 -0.42982,-0.38012 -0.0985,-0.38012 0.22827,0 0.56326,0.17859 0.74442,0.39687 0.18116,0.21829 0.48066,0.39688 0.66555,0.39688 0.37512,0 0.65737,0.57644 0.65737,1.34254 0,0.49049 -0.70742,1.48772 -1.65365,2.33111 -0.25466,0.22699 -0.46302,0.66739 -0.46302,0.97867 0,0.4645 -0.13044,0.54861 -0.7276,0.46915 -0.40018,-0.0532 -0.57878,-0.0268 -0.39688,0.0587 0.1819,0.0856 0.33073,0.26469 0.33073,0.39809 0,0.35782 -0.60135,0.29482 -1.20206,-0.12593 z m 2.11827,-2.82244 c -0.0845,-0.13678 0.0844,-0.24868 0.37548,-0.24868 0.29104,0 0.60275,-0.11906 0.69269,-0.26458 0.0899,-0.14552 -0.0221,-0.26459 -0.24897,-0.26459 -0.48522,0 -0.54928,-0.81571 -0.0994,-1.26559 0.1722,-0.1722 0.21543,-0.40437 0.0961,-0.51593 -0.11936,-0.11157 -0.27018,-0.054 -0.33514,0.12788 -0.065,0.1819 -0.45836,0.33073 -0.8742,0.33073 -0.76283,0 -1.39856,0.5459 -0.84905,0.72907 0.37043,0.12348 0.97266,1.88777 0.72792,2.13251 -0.0992,0.0992 -0.34915,-0.0506 -0.55553,-0.33288 -0.36085,-0.49349 -0.37524,-0.48789 -0.37524,0.14593 0,0.36252 0.13998,0.7991 0.31106,0.97018 0.23837,0.23837 0.42523,0.12334 0.79954,-0.49215 0.26865,-0.44178 0.4193,-0.91513 0.33477,-1.0519 z m -6.78336,-1.38182 -1.23695,-0.59914 0.50346,-0.65521 c 0.2769,-0.36037 0.50611,-0.74834 0.50934,-0.86215 0.003,-0.11382 0.20269,-0.6496 0.44322,-1.19063 l 0.43734,-0.98369 0.19282,0.79375 c 0.179,0.73688 0.19506,0.71319 0.22412,-0.33073 0.0172,-0.61846 0.15036,-1.12448 0.29589,-1.12448 0.14552,0 0.27295,-0.32742 0.28318,-0.7276 0.0102,-0.40018 0.11332,-0.96573 0.22909,-1.25677 0.15956,-0.4011 0.23557,-0.22501 0.31404,0.7276 0.057,0.69123 0.0199,1.25677 -0.0823,1.25677 -0.10223,0 -0.18753,1.04919 -0.18957,2.33153 -0.004,2.25137 -0.16005,3.22737 -0.51659,3.2223 -0.0936,-0.001 -0.72675,-0.27203 -1.40707,-0.60155 z m 10.22503,-1.5371 c -0.0966,-0.30447 -0.69997,-1.08538 -1.34075,-1.73535 -0.64077,-0.64998 -1.16504,-1.29384 -1.16504,-1.43081 0,-0.13696 -0.11907,-0.24902 -0.26459,-0.24902 -0.14552,0 -0.26458,-0.11495 -0.26458,-0.25546 0,-0.34568 -1.50083,-1.8612 -1.84317,-1.8612 -0.15042,0 -0.2735,-0.23813 -0.2735,-0.52917 0,-0.2988 0.17639,-0.52917 0.40518,-0.52917 0.22285,0 0.47827,-0.19048 0.56761,-0.42329 0.20482,-0.53374 1.35239,-1.69337 1.67576,-1.69337 0.13379,0 0.37069,-0.23813 0.52645,-0.52917 0.15576,-0.29104 0.45761,-0.52917 0.67077,-0.52917 0.21316,0 0.38757,-0.0999 0.38757,-0.22201 0,-0.12211 0.47488,-0.44954 1.05529,-0.72761 0.58042,-0.27807 1.05667,-0.65441 1.05834,-0.83632 0.002,-0.20895 0.39271,-0.33072 1.06137,-0.33072 0.58208,0 1.05833,-0.11907 1.05833,-0.26459 0,-0.15434 0.88194,-0.26458 2.11667,-0.26458 2.00441,0 2.11666,0.0309 2.11666,0.58208 0,0.45273 0.0706,0.51153 0.3175,0.26459 0.57779,-0.57779 0.68212,-0.33033 0.25657,0.60854 -0.54212,1.19606 -0.83058,1.17415 -0.87092,-0.0661 -0.026,-0.80032 -0.079,-0.6852 -0.27408,0.59531 -0.133,0.87313 -0.19956,1.90864 -0.1479,2.30114 0.0557,0.42344 -0.0125,0.64786 -0.16776,0.5519 -0.15272,-0.0944 -0.19288,0.0175 -0.0964,0.26883 0.10615,0.27663 -0.0669,0.61315 -0.48421,0.94138 -0.35718,0.28095 -0.65338,0.61276 -0.65822,0.73733 -0.0103,0.26401 -0.93722,1.41713 -1.13919,1.41713 -0.0754,0 -0.32422,-0.1871 -0.5529,-0.41577 -0.22867,-0.22868 -0.41577,-0.29412 -0.41577,-0.14544 0,0.14868 0.20061,0.3826 0.44581,0.51982 0.40774,0.22818 0.41047,0.30274 0.032,0.87305 -0.22761,0.34295 -0.87471,1.09519 -1.438,1.67163 -0.56329,0.57645 -0.84557,0.94944 -0.62729,0.82888 0.21828,-0.12056 0.0164,0.15194 -0.44867,0.60556 -1.00181,0.97719 -1.05146,0.98772 -1.27887,0.2712 z m -22.0562,-36.68653 -0.0534,-4.828648 h 3.06435 c 3.52277,0 3.4024,-0.242389 1.34818,2.714711 -0.63077,0.908007 -1.40225,2.156927 -1.7144,2.775397 -0.31215,0.61846 -0.68419,1.12448 -0.82675,1.12448 -0.14257,0 -0.25921,0.13758 -0.25921,0.30575 0,0.16817 -0.27913,0.67418 -0.6203,1.12448 -0.34116,0.4503 -0.67985,0.99732 -0.75265,1.2156 -0.0728,0.21828 -0.15641,-1.77602 -0.18579,-4.43177 z m 13.13612,-1.25922 c 0.0849,-0.443987 0.44519,-0.809969 1.08778,-1.104867 1.25231,-0.574708 1.22078,-0.536788 0.8339,-1.002959 -0.21257,-0.256127 -0.78626,-0.403269 -1.57229,-0.403269 -1.14294,0 -1.8726,-0.329905 -1.8726,-0.846667 0,-0.116416 0.71437,-0.211666 1.5875,-0.211666 0.99739,0 1.5875,0.110393 1.5875,0.29698 0,0.20263 0.12857,0.190272 0.40471,-0.0389 0.30945,-0.256827 0.55854,-0.265787 1.05833,-0.03807 0.3997,0.182116 0.65362,0.197228 0.65362,0.0389 0,-0.142402 0.32742,-0.25463 0.72761,-0.249396 l 0.7276,0.0095 -0.79375,0.650629 c -0.43656,0.357846 -0.94258,0.65122 -1.12448,0.651943 -0.1819,7.23e-4 -0.33073,0.16717 -0.33073,0.369882 0,0.349929 -0.71028,0.818124 -1.11496,0.734944 -0.1039,-0.02136 -0.12093,0.138335 -0.0378,0.354871 0.10417,0.271467 -0.0213,0.393695 -0.40416,0.393695 -0.30538,0 -0.70394,0.23813 -0.8857,0.52917 -0.45177,0.72339 -0.68481,0.66437 -0.53205,-0.13474 z"
         id="path427" /><path
         style="fill:#9da9b1"
         d="m 152.81101,157.97059 c -0.31559,-0.19966 -0.26917,-0.33423 0.26458,-0.76693 0.35603,-0.28862 0.56091,-0.61152 0.45528,-0.71754 -0.10562,-0.10603 -0.34533,-0.0656 -0.53268,0.0899 -0.62751,0.52079 -2.84886,0.95516 -3.18183,0.62219 -0.16517,-0.16518 -0.56566,-0.30032 -0.88996,-0.30032 -0.3243,0 -0.76824,-0.17859 -0.98652,-0.39687 -0.21828,-0.21829 -0.63648,-0.39688 -0.92932,-0.39688 -0.29285,0 -0.61345,-0.13106 -0.71245,-0.29124 -0.10335,-0.16722 -0.50982,-0.22527 -0.95452,-0.13633 -0.64672,0.12934 -0.93611,-0.008 -1.75385,-0.83009 -0.53863,-0.54175 -1.07747,-0.9537 -1.19743,-0.91545 -0.11995,0.0383 -0.14269,-0.0525 -0.0505,-0.20158 0.0922,-0.14913 0.0415,-0.27114 -0.11262,-0.27114 -0.15411,0 -0.2802,-0.1023 -0.2802,-0.22733 0,-0.33873 2.63564,0.58418 2.9469,1.03191 0.20364,0.29291 0.30076,0.30625 0.40258,0.0553 0.0912,-0.22477 0.79415,-0.33073 2.19416,-0.33073 3.23417,0 6.49,-0.67148 8.37961,-1.72821 2.01323,-1.12586 2.95428,-2.52935 3.80858,-5.68012 0.33538,-1.23693 0.73385,-2.4094 0.88549,-2.60549 0.15165,-0.1961 0.30644,-0.55785 0.34399,-0.8039 0.0605,-0.39637 0.71271,-1.97259 1.81893,-4.39582 0.1993,-0.43656 0.6109,-1.43593 0.91468,-2.22082 0.30377,-0.78488 0.8743,-1.97551 1.26785,-2.64583 0.39354,-0.67032 0.72172,-1.2783 0.72928,-1.35106 0.008,-0.0728 0.71099,-1.50151 1.56315,-3.175 0.85217,-1.67349 1.84262,-3.63802 2.201,-4.36562 0.35838,-0.72761 0.89919,-1.67184 1.20181,-2.0983 0.34776,-0.49007 0.40938,-0.7019 0.16746,-0.57569 -0.29739,0.15515 -0.29312,0.12154 0.0192,-0.15066 0.22106,-0.1927 0.53319,-0.64801 0.69362,-1.01181 0.22703,-0.51483 0.30169,0.46762 0.33681,4.43177 0.0393,4.43222 -0.008,5.09323 -0.36289,5.09323 -0.22441,0 -0.40802,0.20365 -0.40802,0.45256 0,0.24891 -0.3767,1.23117 -0.83711,2.18281 -0.46042,0.95164 -0.93667,1.937 -1.05834,2.18969 -0.12167,0.25268 -0.22121,0.69917 -0.22121,0.99218 0,0.29302 -0.16051,0.53276 -0.35669,0.53276 -0.19618,0 -0.57145,0.47625 -0.83394,1.05833 -0.26248,0.58209 -0.57822,1.05834 -0.70164,1.05834 -0.12342,0 -0.2244,0.47625 -0.2244,1.05833 0,0.72765 -0.11503,1.05833 -0.36815,1.05833 -0.20248,0 -0.5587,0.47625 -0.7916,1.05834 -0.23291,0.58208 -0.54349,1.05833 -0.69019,1.05833 -0.1467,0 -0.26673,0.47625 -0.26673,1.05833 0,0.76435 -0.11024,1.05834 -0.39687,1.05834 -0.22049,0 -0.39688,0.23518 -0.39688,0.52916 0,0.29398 0.17639,0.52917 0.39688,0.52917 0.22049,0 0.39687,0.23518 0.39687,0.52917 0,0.29104 -0.16913,0.52916 -0.37585,0.52916 -0.21402,0 -0.44644,0.37025 -0.53979,0.8599 -0.23143,1.21395 -1.2752,3.36442 -1.63536,3.36932 -0.16613,0.002 -0.37633,0.3001 -0.46713,0.66187 -0.22561,0.89891 -2.63559,3.19351 -4.10892,3.9122 -0.66403,0.32391 -1.26712,0.66741 -1.34022,0.76333 -0.0731,0.0959 -0.58042,0.25835 -1.1274,0.36097 -0.54698,0.10261 -1.05975,0.29213 -1.13949,0.42116 -0.18537,0.29994 -0.66945,0.2934 -1.15795,-0.0157 z m -8.64413,-5.02791 c -2.51171,-0.59962 -5.16964,-2.82945 -6.25521,-5.2477 -0.66262,-1.47608 -0.71885,-3.55454 -0.12702,-4.69455 0.22468,-0.43279 1.30783,-1.64922 2.40699,-2.70318 2.4379,-2.33764 11.40182,-13.46865 19.31547,-23.9851 3.25937,-4.33138 3.97377,-5.08489 5.4606,-5.75959 2.30129,-1.04429 4.76338,-1.80881 5.82517,-1.80881 0.98646,0 1.05013,0.042 0.79267,0.52307 -0.20319,0.37967 -0.19035,0.66653 0.0468,1.04631 0.17972,0.28777 0.22567,0.61793 0.10212,0.73369 -0.12355,0.11576 -0.2778,0.0617 -0.34276,-0.12026 -0.20546,-0.57529 -0.57619,-0.36298 -1.26133,0.72235 -0.79662,1.26193 -0.79441,1.24018 -0.1602,1.5796 0.43109,0.23071 0.60298,0.10684 1.1803,-0.85059 l 0.67573,-1.12063 0.0103,3.65852 0.0103,3.65851 -4.30799,8.51232 c -2.3694,4.68178 -4.56599,9.10763 -4.88131,9.83524 -0.31532,0.7276 -0.94782,2.15635 -1.40556,3.175 -0.96314,2.14337 -1.93448,4.88455 -2.52446,7.12413 -0.84201,3.19633 -2.68298,4.79848 -6.42516,5.59168 -1.83765,0.3895 -6.72158,0.46754 -8.13551,0.12999 z m 7.16221,-1.45831 c 0.589,-0.17702 1.04257,-0.45586 1.00794,-0.61963 -0.0346,-0.16378 0.10506,-0.2333 0.31044,-0.15449 0.71612,0.27481 0.94393,-0.76493 0.42269,-1.92916 -0.52553,-1.1738 -0.93682,-1.56834 -1.19666,-1.1479 -0.0914,0.14789 -0.0528,0.2689 0.0857,0.2689 0.13854,0 0.31976,0.17685 0.4027,0.393 0.12226,0.31861 0.0609,0.33685 -0.32417,0.0964 -0.37399,-0.23356 -0.83602,-0.1531 -2.17302,0.3784 -0.93392,0.37127 -2.26359,0.75814 -2.95481,0.85971 -0.69123,0.10158 -1.25677,0.26315 -1.25677,0.35906 0,0.18214 1.36441,0.92131 2.21026,1.19741 0.3134,0.10229 0.43256,0.311 0.33006,0.5781 -0.13696,0.35693 0.002,0.39055 0.95216,0.23005 0.61191,-0.10338 1.59448,-0.3328 2.18348,-0.50982 z m 0.30327,-4.7846 c -0.83927,-0.83927 -2.83292,-1.48692 -4.87663,-1.58419 l -2.02865,-0.0966 2.02127,0.2358 c 1.86267,0.2173 4.26753,1.06179 4.6123,1.61966 0.0795,0.12862 0.26508,0.23386 0.41241,0.23386 0.14732,0 0.084,-0.18386 -0.1407,-0.40857 z m -11.19162,-0.3066 c 0.46572,-0.24783 1.62067,-0.60353 2.56655,-0.79045 l 1.71979,-0.33986 -1.53175,0.13252 c -1.2953,0.11207 -3.8922,1.0096 -3.8922,1.34522 0,0.19245 0.28878,0.10426 1.13761,-0.34743 z m 1.50212,-5.05074 c 1.48263,-0.88792 3.76132,-1.99559 5.06375,-2.46148 1.30242,-0.46589 2.4307,-0.94844 2.50727,-1.07234 0.17207,-0.27842 -1.17626,-0.26624 -2.93471,0.0265 -0.72761,0.12113 -1.3675,0.17859 -1.42199,0.12769 -0.0545,-0.0509 0.18364,-0.44185 0.52917,-0.86878 0.34553,-0.42693 1.28308,-1.7013 2.08344,-2.83194 0.80037,-1.13063 1.8133,-2.54253 2.25097,-3.13754 0.43767,-0.59501 2.04501,-2.84276 3.57188,-4.995 1.52686,-2.15224 3.84767,-5.3931 5.15736,-7.20192 1.30969,-1.80881 2.8575,-3.96043 3.43958,-4.78138 0.58209,-0.82095 1.44943,-1.83657 1.92744,-2.25694 0.478,-0.42037 0.75503,-0.76431 0.61561,-0.76431 -0.58491,0 -2.00208,1.55491 -4.76461,5.2277 -8.0408,10.69023 -17.65452,22.67158 -19.47673,24.27334 -1.82833,1.60716 -2.38569,2.36144 -2.63935,3.57188 l -0.19406,0.92604 0.79464,-1.08356 c 0.53,-0.7227 1.69238,-1.6212 3.49034,-2.69797 z m 11.83491,-1.11028 c 0.0757,-0.28941 0.24313,-0.46098 0.3721,-0.38126 0.12898,0.0797 0.2345,0.0159 0.2345,-0.14182 0,-0.43924 -1.35213,-0.87943 -1.6835,-0.54807 -0.18949,0.1895 -0.13367,0.27442 0.18042,0.27442 0.35304,0 0.41768,0.14804 0.28882,0.66146 -0.10812,0.43077 -0.0551,0.66146 0.15202,0.66146 0.17492,0 0.37996,-0.23679 0.45564,-0.52619 z m 1.81043,-1.3675 c 0.13394,-0.42201 0.0179,-0.6963 -0.44519,-1.05245 -0.81898,-0.62983 -1.20388,-0.61547 -1.56451,0.0584 -0.33668,0.62908 -0.37428,0.56643 0.67358,1.12246 1.04063,0.5522 1.12261,0.54432 1.33612,-0.12839 z m 1.36785,-2.68044 c -0.20343,-0.53013 -1.47523,-0.81396 -1.93553,-0.43195 -0.5573,0.46252 -0.4515,0.85761 0.35652,1.33135 0.67585,0.39626 0.76237,0.39315 1.22691,-0.0441 0.27488,-0.25874 0.43332,-0.64362 0.3521,-0.85529 z m 2.00454,-3.03476 c 1.67957,-2.84431 1.6942,-2.9015 0.84145,-3.29004 -0.65661,-0.29917 -0.76996,-0.2648 -1.29393,0.39231 -0.64508,0.80902 -2.16715,3.28392 -2.39473,3.89387 -0.13961,0.37417 0.605,0.94228 1.34212,1.02401 0.16115,0.0179 0.83844,-0.8912 1.50509,-2.02015 z m 2.46672,-4.23122 c 0.19492,-0.25466 0.72494,-1.16365 1.17782,-2.01997 0.65486,-1.23824 0.75076,-1.60299 0.46851,-1.78188 -0.79306,-0.50266 -1.26795,-0.17751 -2.46132,1.68518 -1.05617,1.64855 -1.16188,1.93114 -0.75188,2.01006 0.26238,0.0505 0.59017,0.19933 0.72841,0.33073 0.34639,0.32923 0.43256,0.30619 0.83846,-0.22412 z m 4.23494,-7.31412 c 0.1077,-0.33933 -0.006,-0.64162 -0.33139,-0.87992 -0.43569,-0.31924 -0.55391,-0.29095 -0.98027,0.23451 -1.04058,1.28248 -1.88003,2.95996 -1.53825,3.07389 0.18304,0.061 0.47263,0.26061 0.64352,0.44355 0.24434,0.26157 0.49567,0.0455 1.17652,-1.01125 0.47619,-0.73913 0.93963,-1.57648 1.02987,-1.86078 z m 1.68335,-2.7087 c 0.75542,-1.33852 0.79968,-1.53122 0.43541,-1.8955 -0.51376,-0.51376 -0.8627,-0.24635 -1.94007,1.48677 -0.78925,1.26964 -0.79081,1.27983 -0.23853,1.55589 0.30576,0.15283 0.63385,0.29249 0.7291,0.31036 0.0952,0.0179 0.55159,-0.63801 1.01409,-1.45752 z m 2.3574,-4.00556 c 0.37377,-0.71002 0.18914,-1.11901 -0.50516,-1.11901 -0.31308,0 -0.66681,0.34911 -0.9426,0.93031 -0.2428,0.51167 -0.56213,1.00488 -0.70962,1.09604 -0.14815,0.0916 0.008,0.31328 0.34797,0.49547 0.53711,0.28745 0.67237,0.25716 1.05463,-0.23615 0.24118,-0.31123 0.58083,-0.83623 0.75478,-1.16666 z m -39.04599,29.73588 c -0.93121,-0.32725 -1.40972,-0.69239 -0.90737,-0.69239 0.17837,0 0.25071,-0.11907 0.16078,-0.26459 -0.0899,-0.14552 -0.39462,-0.26458 -0.67708,-0.26458 -0.33716,0 -0.51355,-0.18175 -0.51355,-0.52917 0,-0.42519 0.17639,-0.52916 0.89774,-0.52916 0.95587,0 1.52691,0.69968 0.89716,1.09927 -0.24984,0.15853 -0.21721,0.21661 0.12333,0.21959 0.25466,0.002 0.46302,0.17272 0.46302,0.37888 0,0.20615 0.14883,0.42798 0.33073,0.49294 0.1819,0.065 0.2712,0.17811 0.19844,0.25142 -0.0728,0.0733 -0.5107,3.2e-4 -0.9732,-0.16221 z m -3.0617,-3.91761 c -1.08485,-0.52824 -1.24335,-0.74831 -0.52916,-0.73473 0.44719,0.008 1.83553,0.98275 1.62498,1.14031 -0.057,0.0427 -0.55011,-0.13986 -1.09582,-0.40558 z"
         id="path426" /><path
         style="fill:#975fe2"
         d="m 144.06563,152.81788 c -2.096,-0.59883 -2.65203,-0.91858 -4.06239,-2.33613 -1.71218,-1.7209 -2.5522,-3.44331 -2.5522,-5.23315 0,-1.80906 0.67445,-3.01868 2.63289,-4.72208 1.37581,-1.19664 6.10342,-6.71992 7.42128,-8.6703 0.21828,-0.32304 2.73665,-3.54899 5.59637,-7.16876 2.85972,-3.61977 6.28414,-8.03567 7.60983,-9.8131 1.32569,-1.77743 2.79591,-3.46829 3.26717,-3.75745 1.44915,-0.88921 4.83682,-2.08972 6.42293,-2.27614 1.47715,-0.17361 1.5009,-0.166 1.20547,0.38601 -0.22887,0.42765 -0.22276,0.68899 0.0254,1.08635 0.17972,0.28777 0.22567,0.61793 0.10212,0.73369 -0.12355,0.11576 -0.2778,0.0617 -0.34276,-0.12026 -0.20758,-0.58121 -0.57841,-0.35946 -1.2937,0.77363 -0.65689,1.04059 -0.67011,1.12413 -0.22892,1.44674 0.58934,0.43093 0.7991,0.29765 1.43938,-0.91459 l 0.515,-0.97505 0.0117,3.54726 0.0117,3.54727 -4.46457,8.88815 c -2.45551,4.88849 -4.84978,9.78113 -5.32058,10.87253 -0.47081,1.09141 -1.01633,2.34157 -1.21228,2.77813 -0.64353,1.43377 -1.87761,5.00614 -2.21449,6.4104 -0.74117,3.08957 -2.60952,4.66723 -6.50415,5.4922 -2.24579,0.47571 -6.44149,0.48853 -8.06517,0.0247 z m 7.04511,-1.07456 c 0.72618,-0.21565 1.59873,-0.68843 1.93899,-1.05063 0.61452,-0.65413 0.61558,-0.66661 0.15822,-1.8642 -0.25324,-0.66311 -0.85035,-1.61907 -1.3269,-2.12436 -0.47655,-0.50529 -0.76309,-0.91871 -0.63677,-0.91871 0.61538,0 0.12045,-0.86639 -0.68787,-1.20413 -1.21,-0.50557 -1.55163,-0.48359 -1.40159,0.0902 0.11364,0.43454 -0.0744,0.46532 -2.28424,0.37377 -2.64848,-0.10973 -5.758,0.40921 -6.88779,1.14947 -1.89788,1.24355 0.63498,4.89486 3.95054,5.69501 1.45585,0.35134 5.79973,0.26275 7.17741,-0.14638 z m -11.88226,-8.37474 c 1.46905,-1.39953 4.60443,-3.18077 7.61527,-4.32632 1.45521,-0.55367 2.75894,-1.10843 2.89719,-1.2328 0.31441,-0.28285 -1.39179,-0.26901 -3.16177,0.0257 -0.72761,0.12113 -1.3675,0.17859 -1.42199,0.12769 -0.0545,-0.0509 0.18364,-0.44185 0.52917,-0.86878 0.34553,-0.42693 1.28308,-1.70087 2.08344,-2.83098 0.80037,-1.13011 2.05052,-2.86616 2.77813,-3.85789 0.7276,-0.99173 2.33494,-3.23916 3.57187,-4.9943 1.23693,-1.75514 3.32052,-4.67184 4.63021,-6.48157 1.30969,-1.80972 2.8575,-3.96209 3.43958,-4.78304 0.58209,-0.82095 1.44943,-1.83657 1.92744,-2.25694 0.478,-0.42037 0.75503,-0.76431 0.61561,-0.76431 -0.57227,0 -1.98657,1.53025 -4.71008,5.09622 -10.27034,13.44724 -16.36992,21.05307 -19.14734,23.87566 -2.67345,2.71691 -3.17711,3.51651 -3.13572,4.97816 l 0.0239,0.84267 0.23222,-0.7979 c 0.12772,-0.43884 0.68253,-1.2269 1.23291,-1.75123 z m 14.86518,-1.96391 c 0.30541,-0.51764 0.5553,-1.08431 0.5553,-1.25927 0,-0.17496 0.24566,-0.47152 0.5459,-0.65903 0.73176,-0.45699 0.5658,-1.30103 -0.3649,-1.8558 -0.7098,-0.4231 -0.76327,-0.41944 -1.13032,0.0775 -0.2119,0.28686 -0.32387,0.6816 -0.24881,0.87719 0.0949,0.24726 -0.0129,0.30822 -0.35368,0.20006 -0.55336,-0.17563 -0.85192,0.13121 -1.35065,1.38809 -0.31661,0.7979 -0.29447,0.92439 0.26636,1.52136 0.84308,0.89742 1.42829,0.81584 2.0808,-0.29007 z m 2.81126,-4.63716 c 0.21035,-0.66274 0.0111,-0.94115 -0.82356,-1.15063 -0.70692,-0.17743 -1.43279,0.19875 -1.43193,0.74208 6.1e-4,0.38691 1.35877,1.16992 1.77539,1.02356 0.17637,-0.062 0.39241,-0.33871 0.4801,-0.61501 z m 1.54555,-2.6899 c 0.36638,-0.61847 0.98368,-1.71184 1.37176,-2.42973 0.67075,-1.24078 0.68207,-1.32245 0.22914,-1.65364 -0.26206,-0.19162 -0.62787,-0.3484 -0.81291,-0.3484 -0.466,0 -3.57247,4.6822 -3.21995,4.85323 0.0471,0.0229 0.32378,0.18338 0.61482,0.35673 0.86198,0.51339 1.11658,0.40436 1.81714,-0.77819 z m 3.54613,-6.00524 c 1.17961,-1.80188 1.4977,-2.68888 1.06313,-2.96459 -0.77793,-0.49357 -1.25963,-0.1602 -2.44741,1.69378 -1.05617,1.64855 -1.16188,1.93114 -0.75188,2.01006 0.26238,0.0505 0.59017,0.19933 0.72841,0.33073 0.40432,0.38429 0.50659,0.30656 1.40775,-1.06998 z m 3.3781,-5.85731 c 0.48606,-1.07787 0.48567,-1.10297 -0.0224,-1.4752 -0.46319,-0.33936 -0.56723,-0.31663 -1.0017,0.21884 -1.04058,1.28248 -1.88003,2.95996 -1.53825,3.07389 0.18304,0.061 0.47377,0.26184 0.64606,0.44627 0.2493,0.26688 0.42641,0.18196 0.86754,-0.41597 0.30486,-0.41321 0.77681,-1.24474 1.04876,-1.84783 z m 1.9709,-3.31965 c 0.75542,-1.33852 0.79968,-1.53122 0.43541,-1.8955 -0.51376,-0.51376 -0.8627,-0.24635 -1.94007,1.48677 -0.78925,1.26964 -0.79081,1.27983 -0.23853,1.55589 0.30576,0.15283 0.63385,0.29249 0.7291,0.31036 0.0952,0.0179 0.55159,-0.63801 1.01409,-1.45752 z m 2.3574,-4.00556 c 0.37377,-0.71002 0.18914,-1.11901 -0.50516,-1.11901 -0.31308,0 -0.66681,0.34911 -0.9426,0.93031 -0.2428,0.51167 -0.56213,1.00488 -0.70962,1.09604 -0.14815,0.0916 0.008,0.31328 0.34797,0.49547 0.53711,0.28745 0.67237,0.25716 1.05463,-0.23615 0.24118,-0.31123 0.58083,-0.83623 0.75478,-1.16666 z"
         id="path425" /><path
         style="fill:#744ab1"
         d="m 144.06563,152.81788 c -2.096,-0.59883 -2.65203,-0.91858 -4.06239,-2.33613 -1.71218,-1.7209 -2.5522,-3.44331 -2.5522,-5.23315 0,-1.80906 0.67445,-3.01868 2.63289,-4.72208 1.37581,-1.19664 6.10342,-6.71992 7.42128,-8.6703 0.21828,-0.32304 2.73665,-3.54899 5.59637,-7.16876 2.85972,-3.61977 6.28414,-8.03567 7.60983,-9.8131 1.32569,-1.77743 2.79591,-3.46829 3.26717,-3.75745 2.20438,-1.35263 8.33191,-3.07277 7.78319,-2.18493 -0.092,0.14891 -0.67608,0.33752 -1.29788,0.41913 -1.58688,0.20828 -2.07226,0.33645 -3.26169,0.86134 -0.57413,0.25335 -1.2759,0.50566 -1.55949,0.56068 -1.54734,0.30017 -2.4467,1.25298 -7.68646,8.14327 -6.93388,9.11805 -14.7748,18.8425 -17.07803,21.18048 -2.67611,2.71648 -3.18014,3.51589 -3.13873,4.97816 l 0.0239,0.84267 0.23222,-0.7979 c 0.50902,-1.74897 4.27291,-4.3352 8.84818,-6.07972 1.45521,-0.55486 2.78875,-1.11929 2.96342,-1.25428 0.43904,-0.33932 3.12191,0.24526 3.56261,0.77627 0.30408,0.3664 0.27746,0.3978 -0.2069,0.24407 -0.62479,-0.1983 -0.90096,0.0683 -1.41638,1.36723 -0.31661,0.7979 -0.29447,0.92439 0.26636,1.52136 0.33642,0.3581 0.81728,0.6511 1.06858,0.6511 0.43243,0 1.56752,-1.56403 1.56752,-2.15986 0,-0.15264 0.29765,-0.51166 0.66146,-0.79783 0.3638,-0.28617 0.66145,-0.69201 0.66145,-0.90186 0,-0.46218 -1.51375,-1.42818 -2.24895,-1.43518 -0.43796,-0.004 -0.46076,-0.0489 -0.1323,-0.25954 0.5045,-0.3235 1.28981,-0.0926 2.04948,0.60273 0.32685,0.29915 0.63078,0.49382 0.67539,0.43261 0.0446,-0.0612 0.29896,-0.45855 0.56521,-0.88299 0.46959,-0.7486 0.46942,-0.78244 -0.006,-1.12989 -0.84727,-0.61954 -2.44632,-0.9067 -4.1519,-0.74559 -4.26707,0.40306 -4.07765,0.39496 -3.27373,0.13998 0.41441,-0.13145 1.96222,-0.31986 3.43958,-0.4187 2.1831,-0.14605 2.87952,-0.0988 3.71892,0.2521 0.56805,0.23749 1.06255,0.40047 1.0989,0.36218 0.32035,-0.33748 2.76308,-4.48831 2.76308,-4.69519 0,-0.14807 0.12609,-0.26922 0.2802,-0.26922 0.63659,0 -0.11641,-0.53629 -1.15127,-0.81994 -1.03143,-0.28271 -1.07019,-0.32483 -0.52707,-0.57274 0.44254,-0.202 0.7483,-0.16139 1.24746,0.16567 0.36368,0.23829 0.71993,0.43326 0.79168,0.43326 0.0717,0 0.45717,-0.56555 0.8565,-1.25677 0.39933,-0.69123 0.79372,-1.31631 0.87643,-1.38907 0.0827,-0.0728 0.28903,-0.44828 0.45848,-0.83449 0.25638,-0.58432 0.23326,-0.76905 -0.13768,-1.10036 -0.24517,-0.21898 -0.74343,-0.44759 -1.10723,-0.50801 -0.55152,-0.0916 -0.58618,-0.14365 -0.20855,-0.31314 0.27002,-0.12119 0.79484,-0.0327 1.29972,0.21918 0.46575,0.23235 0.87238,0.39217 0.90363,0.35516 0.0312,-0.037 0.32399,-0.60308 0.65053,-1.25792 0.85245,-1.7095 1.05464,-1.92036 1.49278,-1.55674 0.29491,0.24476 0.29156,0.16276 -0.0177,-0.43341 -0.47782,-0.921 -0.86804,-1.17095 -1.87141,-1.19871 -0.74541,-0.0206 -0.75885,-0.0388 -0.22072,-0.29912 0.43512,-0.21046 0.78536,-0.17076 1.45521,0.16494 0.71117,0.3564 0.92317,0.37514 1.09363,0.0966 0.1163,-0.19 0.49535,-0.82172 0.84233,-1.4038 l 0.63087,-1.05833 0.26538,0.66146 c 0.14596,0.3638 0.27293,0.52717 0.28215,0.36304 0.0315,-0.5606 -0.7565,-2.15066 -1.13847,-2.29723 -0.20967,-0.0805 -0.66059,-0.0787 -1.00205,0.004 -0.48467,0.11725 -0.55403,0.0784 -0.31625,-0.17715 0.34739,-0.37336 1.94438,-0.13043 1.94438,0.29578 0,0.46483 0.87349,0.1093 0.9458,-0.38496 0.0384,-0.26225 0.25798,-0.76408 0.48802,-1.11517 0.23004,-0.35109 0.41826,-0.79249 0.41826,-0.98089 0,-0.43009 -0.99312,-1.07053 -1.33368,-0.86005 -0.1396,0.0863 -0.25382,0.0308 -0.25382,-0.12333 0,-0.40642 0.71578,-0.34348 1.43219,0.12593 0.59996,0.3931 0.64168,0.36978 1.30164,-0.72761 l 0.68182,-1.13372 -0.002,3.43958 -0.002,3.43958 -4.45028,8.86355 c -2.44765,4.87494 -4.83548,9.75651 -5.30628,10.84791 -0.47081,1.09141 -1.01633,2.34157 -1.21228,2.77813 -0.64353,1.43377 -1.87761,5.00614 -2.21449,6.4104 -0.74117,3.08957 -2.60952,4.66723 -6.50415,5.4922 -2.24579,0.47571 -6.44149,0.48853 -8.06517,0.0247 z m 7.04511,-1.07456 c 0.72618,-0.21565 1.59873,-0.68843 1.93899,-1.05063 0.61452,-0.65413 0.61558,-0.66661 0.15822,-1.8642 -0.25324,-0.66311 -0.85035,-1.61907 -1.3269,-2.12436 -0.47655,-0.50529 -0.76309,-0.91871 -0.63677,-0.91871 0.61538,0 0.12045,-0.86639 -0.68787,-1.20413 -1.21,-0.50557 -1.55163,-0.48359 -1.40159,0.0902 0.11364,0.43454 -0.0744,0.46532 -2.28424,0.37377 -2.64848,-0.10973 -5.758,0.40921 -6.88779,1.14947 -1.89788,1.24355 0.63498,4.89486 3.95054,5.69501 1.45585,0.35134 5.79973,0.26275 7.17741,-0.14638 z m 14.13463,-23.65934 C 164.94122,127.48779 164.58847,127 164.46147,127 c -0.27827,0 -0.62163,0.81241 -0.42603,1.00801 0.0762,0.0762 0.13852,0.003 0.13852,-0.16186 0,-0.54847 0.66287,-0.0562 1.02452,0.76079 0.19591,0.44259 0.41103,0.74987 0.47805,0.68286 0.067,-0.067 -0.12701,-0.60964 -0.43116,-1.20582 z m 0.51609,-1.24068 c 0,-0.0862 -0.23813,-0.45943 -0.52917,-0.82943 -0.29104,-0.37 -0.52917,-0.85908 -0.52917,-1.08684 0,-0.28393 -0.0856,-0.3285 -0.27232,-0.14178 -0.25695,0.25695 -0.0796,0.79596 0.62006,1.88402 0.21681,0.33718 0.7106,0.45811 0.7106,0.17403 z m 1.85208,-2.35684 c 0.19886,-0.23961 0.22044,-0.39687 0.0545,-0.39687 -0.15122,0 -0.39006,-0.32743 -0.53076,-0.72761 -0.22575,-0.64205 -0.27954,-0.67002 -0.45748,-0.23788 -0.11222,0.27254 -0.0838,0.56589 0.064,0.66146 0.14612,0.0944 0.23353,0.38009 0.19426,0.63475 -0.0876,0.56784 0.2331,0.59924 0.67552,0.0661 z m 1.68369,-2.83654 c -0.0974,-0.15755 0.0489,-0.45168 0.32512,-0.65363 0.30992,-0.22661 0.39856,-0.43915 0.23154,-0.55517 -0.14884,-0.1034 -0.41862,-0.48565 -0.59952,-0.84945 l -0.32891,-0.66146 0.13297,0.68833 c 0.15984,0.82739 -0.0755,1.13479 -0.56065,0.73219 -0.2702,-0.22425 -0.35507,-0.19983 -0.35507,0.10219 0,0.21828 0.17859,0.54509 0.39687,0.72625 0.21828,0.18116 0.39688,0.50042 0.39688,0.70947 0,0.20905 0.121,0.30531 0.2689,0.2139 0.14789,-0.0914 0.18923,-0.29508 0.0919,-0.45262 z m 1.38428,-2.36371 c 0.10424,-0.16866 0.0737,-0.23435 -0.0681,-0.14669 -0.32104,0.19842 -1.23764,-1.30502 -1.01513,-1.66506 0.0897,-0.14522 -0.0867,-0.26404 -0.39203,-0.26404 -0.42282,0 -0.48589,0.0789 -0.2645,0.33073 0.15988,0.1819 0.52001,0.71768 0.80029,1.19062 0.56034,0.94555 0.66105,1.00498 0.9395,0.55444 z m -25.277,18.4538 c 0.37537,-0.39488 3.49626,-0.98534 3.14054,-0.59418 -0.0829,0.0912 -0.66212,0.23005 -1.2871,0.30858 -0.62497,0.0785 -1.39056,0.27263 -1.7013,0.43134 -0.51816,0.26465 -0.53077,0.25258 -0.15214,-0.14574 z m 25.96004,-26.93858 c -0.17796,-0.17796 -0.76732,-0.30179 -1.30968,-0.27518 l -0.98612,0.0484 0.86209,-0.26213 c 0.88541,-0.26921 1.91603,0.0305 1.91603,0.55721 0,0.33508 -0.092,0.32206 -0.48232,-0.0683 z"
         id="path424" /><path
         style="fill:#343338"
         d="m 144.40467,152.9372 c -2.5756,-0.6121 -5.22224,-2.68549 -6.28394,-4.92285 -0.52865,-1.11404 -0.87495,-3.11723 -0.43107,-2.49351 0.23632,0.33205 0.28311,0.3052 0.2865,-0.16441 0.0116,-1.60203 4.36538,-4.597 9.38895,-6.45862 2.88693,-1.06983 3.11588,-1.11407 4.15473,-0.80282 0.81318,0.24363 1.002,0.39108 0.72521,0.56628 -0.20582,0.13028 -0.27886,0.2387 -0.16231,0.24093 0.11654,0.002 -0.0895,0.39925 -0.45794,0.88226 -0.42162,0.55277 -0.57698,0.97107 -0.41926,1.12879 0.13783,0.13783 0.27993,0.6356 0.31578,1.10617 0.0653,0.8566 0.30672,1.08835 0.6147,0.59003 0.0903,-0.14606 0.44586,-0.19484 0.79022,-0.10841 0.49813,0.12502 0.71003,0.004 1.03673,-0.59435 0.22584,-0.41331 0.64734,-1.02782 0.93666,-1.36557 0.51511,-0.60135 0.53936,-0.6041 1.16848,-0.1323 0.84567,0.63421 2.00264,2.48143 2.4026,3.83601 l 0.32,1.08378 0.62256,-1.68982 c 1.36477,-3.70442 3.65111,-8.6118 7.87467,-16.90216 2.43454,-4.77872 4.46429,-8.65071 4.51057,-8.60444 0.0463,0.0463 -1.99478,4.23336 -4.53567,9.30462 -5.23072,10.43978 -7.24783,14.98439 -8.2614,18.61319 -0.81664,2.92379 -1.87601,4.67594 -3.33467,5.51544 -2.20868,1.27116 -8.47421,2.03432 -11.2621,1.37176 z m 7.63749,-1.43672 c 1.30474,-0.61914 1.72875,-1.46606 1.27835,-2.55342 -0.18993,-0.45852 -0.62815,-1.25044 -0.97383,-1.75983 -0.45065,-0.66406 -0.55102,-1.01954 -0.35468,-1.25612 0.29563,-0.3562 -0.15128,-0.87819 -1.22825,-1.43461 -0.80368,-0.41522 -2.29295,-0.39274 -2.12993,0.0322 0.0948,0.24694 -0.41758,0.33562 -2.02221,0.35002 -2.65172,0.0238 -5.39241,0.52749 -6.48467,1.19173 -2.48032,1.50837 0.8886,5.59905 4.97285,6.03823 2.1587,0.23213 5.85372,-0.0916 6.94237,-0.60815 z m -14.31849,-7.91101 c -0.0225,-0.59203 0.90267,-1.79517 2.34532,-3.04996 1.49854,-1.30339 4.96492,-5.38883 8.71907,-10.27622 0.87564,-1.13996 3.28278,-4.21579 5.34919,-6.83516 2.06641,-2.61938 4.93131,-6.33472 6.36644,-8.25631 1.86341,-2.49505 2.93115,-3.67892 3.73511,-4.14132 1.27087,-0.73096 4.76143,-2.02488 5.44103,-2.01694 0.24599,0.003 -0.55146,0.3574 -1.77211,0.78784 -4.15741,1.46604 -4.19382,1.4946 -7.52282,5.9008 -8.65859,11.46035 -16.67513,21.47577 -19.63186,24.52697 -1.33965,1.38245 -2.56748,2.75167 -2.72852,3.04271 -0.16104,0.29104 -0.29642,0.43396 -0.30085,0.31759 z"
         id="path423" /></g></g></svg>
