<?xml version="1.0" encoding="UTF-8" standalone="no"?>
<!-- Created with Inkscape (http://www.inkscape.org/) -->

<svg
   width="53.710415mm"
   height="65.616737mm"
   viewBox="0 0 53.710415 65.616737"
   version="1.1"
   id="svg1"
   inkscape:export-filename="natural-energy.svg"
   inkscape:export-xdpi="96"
   inkscape:export-ydpi="96"
   xml:space="preserve"
   xmlns:inkscape="http://www.inkscape.org/namespaces/inkscape"
   xmlns:sodipodi="http://sodipodi.sourceforge.net/DTD/sodipodi-0.dtd"
   xmlns="http://www.w3.org/2000/svg"
   xmlns:svg="http://www.w3.org/2000/svg"><sodipodi:namedview
     id="namedview1"
     pagecolor="#ffffff"
     bordercolor="#000000"
     borderopacity="0.25"
     inkscape:showpageshadow="2"
     inkscape:pageopacity="0.0"
     inkscape:pagecheckerboard="0"
     inkscape:deskcolor="#d1d1d1"
     inkscape:document-units="mm"><inkscape:page
       x="0"
       y="0"
       width="53.710415"
       height="65.616737"
       id="page2"
       margin="0"
       bleed="0" /></sodipodi:namedview><defs
     id="defs1" /><g
     inkscape:label="Calque 1"
     inkscape:groupmode="layer"
     id="layer1"
     transform="translate(-72.501971,-99.962772)"><g
       id="g72"
       transform="translate(33.152214,9.7721402)"><path
         style="fill:#d3e6f4"
         d="M 39.349758,122.99902 V 90.190689 h 26.855208 26.855207 v 32.808331 32.80834 H 66.204966 39.349758 Z"
         id="path79" /><path
         style="fill:#c5dbea"
         d="m 49.403924,155.61742 c 2.680003,-1.00051 6.539581,-2.55184 6.746875,-2.71186 0.145521,-0.11233 0.711068,-0.34805 1.256771,-0.52382 0.545703,-0.17577 0.992188,-0.42942 0.992188,-0.56365 0,-0.13424 0.181981,-0.24407 0.404402,-0.24407 0.653837,0 4.134652,-1.74087 7.745864,-3.87397 1.847509,-1.0913 3.596763,-2.12461 3.88723,-2.29625 0.658132,-0.38889 2.528214,-1.77842 2.996506,-2.22649 0.192295,-0.184 0.519717,-0.33454 0.727604,-0.33454 0.207887,0 0.377976,-0.17859 0.377976,-0.39687 0,-0.2247 -0.237118,-0.39688 -0.54656,-0.39688 -0.71962,0 -1.511915,-0.43911 -2.271907,-1.25915 l -0.617434,-0.66623 -1.189664,0.45434 c -0.665541,0.25417 -1.569737,0.89561 -2.052362,1.45595 -0.791726,0.91921 -2.385572,1.82507 -1.938549,1.10177 0.09957,-0.16111 0.0996,-0.4247 6e-5,-0.58576 -0.128796,-0.20839 -0.239203,-0.19862 -0.382908,0.0339 -0.287351,0.46494 -0.783914,0.0742 -1.21413,-0.95549 -0.601725,-1.44013 -0.482292,-1.94061 0.56781,-2.37937 0.515728,-0.21548 1.040765,-0.32808 1.166748,-0.25022 0.386298,0.23874 1.109315,-0.17129 0.965033,-0.54728 -0.07477,-0.19484 -0.0037,-0.436 0.157966,-0.5359 0.177973,-0.11 0.219439,-0.0612 0.105121,0.12381 -0.103832,0.16801 -0.05567,0.30547 0.107027,0.30547 0.162697,0 0.222228,0.11906 0.132291,0.26458 -0.367386,0.59444 0.134253,0.21123 0.624207,-0.47685 l 0.527949,-0.74144 -0.730418,0.0506 c -0.40173,0.0278 -0.751511,-0.085 -0.777292,-0.25075 -0.350479,-2.25302 -0.419145,-3.61112 -0.183356,-3.62647 0.15088,-0.01 -0.320387,-0.17742 -1.047261,-0.37243 -0.726873,-0.19502 -1.411482,-0.29902 -1.521354,-0.23111 -0.109871,0.0679 -0.199766,-0.0562 -0.199766,-0.27588 0,-0.21964 -0.168264,-0.49456 -0.37392,-0.61093 -0.205656,-0.11637 -0.429006,-0.50924 -0.496333,-0.87304 -0.06733,-0.36381 -0.0919,-0.15201 -0.0546,0.47064 0.05313,0.88686 -0.04157,1.19065 -0.437119,1.40234 -0.277714,0.14863 -0.435043,0.38332 -0.349619,0.52154 0.133252,0.21561 -0.874957,0.39424 -1.552342,0.27505 -0.121672,-0.0214 -0.290503,0.226 -0.37518,0.54981 -0.147195,0.56287 -0.163809,0.56611 -0.378157,0.0737 -0.157895,-0.36269 -0.177643,-0.28026 -0.06677,0.27875 0.08658,0.43656 0.326538,0.88897 0.533233,1.00534 0.206695,0.11637 0.375809,0.44379 0.375809,0.7276 0,0.28381 0.111039,0.51602 0.246753,0.51602 0.135715,0 0.325065,0.24674 0.420778,0.5483 0.111702,0.35194 0.318146,0.493 0.576455,0.39388 0.285077,-0.1094 0.356146,-0.0338 0.243712,0.25919 -0.0873,0.22749 -0.04925,0.34596 0.08455,0.26326 0.468925,-0.28981 0.62113,0.47075 0.16147,0.80686 -0.259109,0.18947 -0.378755,0.47673 -0.271108,0.6509 0.250717,0.40567 -0.345737,0.77261 -1.264173,0.77773 -0.400182,0.002 -0.727604,0.12311 -0.727604,0.26863 0,0.30386 -1.83703,0.35393 -2.278303,0.0621 -0.161661,-0.10691 -0.353497,-0.82939 -0.426304,-1.60552 -0.153926,-1.64089 -0.7254,-2.35954 -2.127823,-2.67584 -0.713582,-0.16094 -1.110767,-0.10312 -1.629573,0.23721 -0.377306,0.24751 -0.628923,0.50711 -0.559148,0.57688 0.06977,0.0698 -0.515413,0.13596 -1.300416,0.14708 -0.980574,0.0139 -1.390422,-0.0758 -1.309518,-0.28666 0.06477,-0.16878 -0.0723,-0.54159 -0.304589,-0.82846 -0.414631,-0.51204 -0.420024,-0.51068 -0.295096,0.0741 0.07346,0.34389 0.0193,0.52895 -0.128144,0.43783 -0.14047,-0.0868 -0.179437,-0.5037 -0.0866,-0.92641 0.09541,-0.43441 0.05769,-0.76856 -0.08676,-0.76856 -0.14056,0 -0.340365,-0.56555 -0.44401,-1.25677 -0.238753,-1.59227 -0.595084,-2.26641 -1.096296,-2.07407 -0.233178,0.0895 -0.320756,0.0372 -0.217529,-0.12981 0.09504,-0.15378 0.318126,-0.22382 0.495751,-0.15566 0.440033,0.16885 0.944079,-0.70118 0.776803,-1.34084 -0.07482,-0.28612 0.02204,-0.68679 0.215235,-0.89039 0.193201,-0.20359 0.351274,-0.54876 0.351274,-0.76704 0,-0.21828 0.144316,-0.36862 0.320703,-0.33407 0.176387,0.0345 0.63785,-0.23112 1.025474,-0.59036 0.387624,-0.35924 0.811804,-0.58701 0.942623,-0.50616 0.130819,0.0808 0.205137,-0.004 0.165151,-0.18768 -0.03999,-0.18407 0.149759,-0.38296 0.421654,-0.44198 0.33213,-0.0721 0.430183,-0.003 0.2988,0.20913 -0.135363,0.21902 -0.0025,0.20736 0.431686,-0.0379 0.772485,-0.43633 2.777595,-0.5524 2.361921,-0.13672 -0.153709,0.15371 -0.279471,0.39747 -0.279471,0.5417 0,0.14423 0.168036,0.0324 0.373413,-0.24843 0.459285,-0.62811 0.288307,-0.95906 -0.464829,-0.89972 -1.188237,0.0936 -1.496084,-0.0181 -1.496084,-0.54283 0,-0.51657 -0.176389,-0.52917 -7.408333,-0.52917 h -7.408333 v -17.4625 -17.462501 h 18.933323 c 12.55484,0 18.878233,0.08914 18.769801,0.264583 -0.08994,0.145521 -0.03743,0.264584 0.116677,0.264584 0.154109,0 0.280198,-0.119063 0.280198,-0.264584 0,-0.170409 2.778125,-0.264583 7.805208,-0.264583 h 7.805208 v 32.808331 32.80834 h -6.24998 -6.24998 l 0.432885,-0.59531 c 0.238087,-0.32743 0.504153,-0.74592 0.591259,-0.92999 0.08711,-0.18407 0.502141,-0.70267 0.922303,-1.15246 0.420161,-0.44978 0.760143,-0.95402 0.755515,-1.12054 -0.0047,-0.16823 -0.151622,-0.11715 -0.330729,0.11497 -0.177273,0.22974 -0.852377,1.03553 -1.500231,1.79064 -0.647855,0.75511 -1.251557,1.49208 -1.341561,1.63771 -0.103799,0.16795 -2.471581,0.2388 -6.474714,0.19373 l -6.311071,-0.071 3.683882,-2.71893 c 4.601131,-3.39592 6.417062,-4.87295 6.442323,-5.24001 0.01082,-0.15731 0.317339,-0.44532 0.681141,-0.64002 0.734974,-0.39335 0.871519,-0.79375 0.270683,-0.79375 -0.214927,0 -0.584434,0.29556 -0.821127,0.6568 -0.236693,0.36124 -0.83475,0.90673 -1.329016,1.2122 -0.494265,0.30547 -0.898665,0.72429 -0.898665,0.9307 0,0.20641 -0.166002,0.3753 -0.368894,0.3753 -0.202891,0 -0.751264,0.35719 -1.218606,0.79375 -0.467341,0.43656 -0.948834,0.79375 -1.069984,0.79375 -0.12115,0 -0.614575,0.36096 -1.096498,0.80213 -0.481924,0.44117 -1.352476,1.12339 -1.934559,1.51604 -0.582084,0.39265 -1.581471,1.10325 -2.22086,1.57912 l -1.162527,0.86521 -8.627056,-0.0209 c -4.744881,-0.0115 -8.448463,-0.0876 -8.230182,-0.16905 z m 31.661389,-19.02619 c 0.198645,-0.41795 0.298333,-0.52179 0.221526,-0.23075 -0.09443,0.35781 0.207254,0.16503 0.931609,-0.59531 0.589191,-0.61846 1.186018,-1.12448 1.326282,-1.12448 0.140265,0 0.255027,-0.1099 0.255027,-0.24423 0,-0.13433 0.366346,-0.61058 0.814102,-1.05833 0.447757,-0.44776 0.924007,-0.81411 1.058334,-0.81411 0.134326,0 0.24423,-0.17318 0.24423,-0.38484 0,-0.21167 0.303068,-0.68792 0.673485,-1.05834 0.370417,-0.37041 0.846667,-0.67348 1.058333,-0.67348 0.270839,0 0.384849,-0.30515 0.384849,-1.03003 0,-0.64286 0.140393,-1.0839 0.373503,-1.17335 0.205427,-0.0788 0.527001,-0.56782 0.71461,-1.08664 0.187609,-0.51883 0.495782,-0.94332 0.68483,-0.94332 0.189048,0 0.343723,-0.23812 0.343723,-0.52916 0,-0.50105 -0.176388,-0.52917 -3.31928,-0.52917 h -3.319281 l 0.180902,0.96429 c 0.129554,0.69058 0.09541,0.91145 -0.120303,0.77813 -0.173241,-0.10706 -0.301204,-0.0203 -0.301204,0.20429 0,0.21474 0.137322,0.43622 0.305161,0.49216 0.209261,0.0698 0.160792,0.32206 -0.154233,0.80285 -0.304697,0.46502 -0.394384,0.90595 -0.266337,1.30939 0.215398,0.67866 0.204137,0.77013 -0.08303,0.67441 -0.109141,-0.0364 -0.160168,-0.18521 -0.113393,-0.33073 0.167519,-0.52117 -0.379333,0.25968 -0.682605,0.97469 -0.222679,0.525 -0.223567,0.73598 -0.0034,0.80936 0.172054,0.0574 0.208184,0.24424 0.08557,0.44263 -0.172484,0.27908 -0.254789,0.27616 -0.439668,-0.0156 -0.158741,-0.25052 -0.23963,-0.11917 -0.267746,0.43478 -0.02216,0.43656 -0.05501,1.0914 -0.073,1.4552 -0.01799,0.36381 -0.178761,0.89959 -0.35727,1.19063 -0.308424,0.50286 -0.32144,0.49628 -0.261785,-0.13229 0.05321,-0.56068 -0.03801,-0.65126 -0.598683,-0.59451 -0.437008,0.0442 -0.544983,-0.009 -0.318205,-0.15565 0.418768,-0.27156 -0.0011,-0.67715 -0.938565,-0.90665 -0.49281,-0.12064 -0.595313,-0.0361 -0.595313,0.49095 0,0.35018 0.142875,0.63669 0.3175,0.63669 0.246945,0 0.246945,0.0706 0,0.3175 -0.383941,0.38394 -0.423381,0.8375 -0.05292,0.60854 0.397816,-0.24586 0.318367,0.20235 -0.155891,0.87944 -0.23126,0.33017 -0.354059,0.77339 -0.272887,0.98492 0.08117,0.21153 0.05617,0.3846 -0.05557,0.3846 -0.111733,0 -0.157123,0.39426 -0.100868,0.87613 l 0.102283,0.87612 1.207196,-1.10839 c 0.663958,-0.60962 1.369725,-1.45036 1.568371,-1.86832 z"
         id="path78" /><path
         style="fill:#b6d1e4"
         d="m 68.246176,155.1459 c 0.535383,-0.3638 1.088881,-0.66146 1.229995,-0.66146 0.141115,0 0.29626,-0.10284 0.344767,-0.22853 0.139401,-0.36122 5.044051,-4.03193 5.190978,-3.885 0.0726,0.0726 -0.02087,0.31619 -0.207713,0.54132 -0.287004,0.34582 -0.270604,0.38281 0.105702,0.2384 0.244976,-0.094 0.4267,-0.36462 0.40383,-0.60137 -0.07486,-0.77492 0.01466,-1.0919 0.308352,-1.0919 0.158948,0 0.591723,-0.23813 0.961723,-0.52917 0.369999,-0.29104 0.954326,-0.52917 1.298503,-0.52917 0.449388,0 0.625777,-0.14915 0.625777,-0.52916 0,-0.35853 0.176389,-0.52917 0.546996,-0.52917 0.413507,0 0.508754,-0.12049 0.390291,-0.49373 -0.130665,-0.4117 -0.0457,-0.47252 0.511337,-0.36603 0.367424,0.0702 0.668043,0.29241 0.668043,0.49373 0,0.20132 0.238125,0.36603 0.529166,0.36603 0.388056,0 0.529167,0.17639 0.529167,0.66146 0,0.59531 0.105833,0.66146 1.058333,0.66146 0.582084,0 1.058334,0.12609 1.058334,0.2802 0,0.1541 0.119062,0.20661 0.264583,0.11667 0.373757,-0.23099 0.330051,0.49016 -0.05292,0.87313 -0.174625,0.17462 -0.591343,0.3175 -0.926041,0.3175 -0.606371,0 -0.76711,0.49541 -0.622379,1.91823 0.05388,0.52966 -0.403928,0.62982 -0.604684,0.13229 -0.0734,-0.1819 -0.142852,0.0562 -0.154341,0.52917 -0.0201,0.82749 -0.199875,0.97411 -1.079221,0.88021 -0.349468,-0.0373 -0.350023,-0.011 -0.0046,0.22071 0.329909,0.22129 0.269496,0.3912 -0.380231,1.06937 l -0.772458,0.80627 h -6.097334 -6.097334 z m 12.798039,0.33073 c 0.102357,-0.1819 0.410446,-0.56886 0.684641,-0.8599 0.515845,-0.54753 1.586349,-2.08221 2.8166,-4.03787 0.390087,-0.6201 0.852072,-1.07265 1.026634,-1.00566 0.177065,0.0679 0.25953,-0.029 0.186526,-0.21922 -0.07197,-0.18755 0.0472,-0.48878 0.26482,-0.66939 0.217623,-0.18061 0.650381,-0.85453 0.961685,-1.4976 0.311304,-0.64307 0.674449,-1.16922 0.806988,-1.16922 0.132539,0 0.240981,-0.17031 0.240981,-0.37847 0,-0.20816 0.252464,-0.41652 0.56103,-0.46302 0.39661,-0.0598 0.72616,-0.49156 1.124479,-1.47336 0.538856,-1.32819 0.606756,-1.38882 1.555637,-1.38906 0.981205,-2.5e-4 0.992187,0.0115 0.992187,1.05808 0,0.76435 0.110243,1.05833 0.396875,1.05833 0.340472,0 0.396875,0.80845 0.396875,5.68855 v 5.68854 h -6.101031 c -4.803692,0 -6.061458,-0.0703 -5.914927,-0.33073 z M 66.601841,142.74154 c 0,-0.2416 -0.297657,-0.5749 -0.661459,-0.74066 -0.363802,-0.16576 -0.661458,-0.51065 -0.661458,-0.76644 0,-0.25578 -0.07227,-0.65339 -0.160599,-0.88357 -0.09969,-0.25979 -0.01899,-0.41851 0.212783,-0.41851 0.567015,0 2.78331,-1.4823 3.099413,-2.07294 0.237749,-0.44424 0.204865,-0.50162 -0.223302,-0.38965 -0.842469,0.22031 -1.41197,-0.96801 -1.249548,-2.60732 0.120518,-1.21638 0.278771,-1.51927 1.279908,-2.44975 0.945972,-0.8792 1.331183,-1.06326 2.240466,-1.07053 0.603944,-0.005 1.043402,-0.0981 0.976573,-0.20721 -0.199397,-0.32564 -1.630101,-0.22546 -2.606524,0.18252 -0.501462,0.20952 -1.122716,0.71554 -1.380564,1.12448 -0.389458,0.61766 -0.621805,0.72893 -1.372637,0.65734 -1.180294,-0.11255 -2.606705,-1.21214 -2.745001,-2.11606 -0.0664,-0.434 -0.123697,-0.23946 -0.147992,0.50248 -0.02913,0.88967 -0.201998,1.36317 -0.652008,1.78593 -0.761955,0.71582 -2.204742,0.78387 -2.38025,0.11227 -0.06655,-0.25466 -0.134812,-0.0343 -0.151693,0.48968 -0.0451,1.4 0.463859,2.61631 1.59334,3.80776 l 1.001353,1.0563 -0.685604,0.35922 c -0.377082,0.19758 -1.116622,0.35916 -1.643421,0.35907 -1.228701,-2.1e-4 -1.820184,0.3243 -1.952383,1.07114 -0.0633,0.35764 -0.193439,0.0154 -0.325474,-0.85594 -0.156915,-1.03554 -0.425703,-1.65753 -0.937429,-2.16926 -1.082989,-1.08299 -1.866754,-1.17289 -3.234938,-0.37108 -1.713808,1.00435 -2.447446,0.9185 -3.101175,-0.36291 -0.324545,-0.63616 -0.534544,-1.56552 -0.534544,-2.36564 0,-0.72481 -0.105872,-1.38327 -0.235272,-1.46325 -0.470856,-0.291 -0.593289,-1.52543 -0.195137,-1.96745 0.213972,-0.23755 0.428114,-0.83742 0.47587,-1.33304 0.07554,-0.78397 0.222905,-0.94802 1.133415,-1.26175 0.575621,-0.19835 1.289996,-0.58163 1.5875,-0.85175 0.841924,-0.76442 1.59394,-1.07286 2.217932,-0.90968 0.782697,0.20468 0.717263,0.52828 -0.203057,1.0042 -0.42625,0.22042 -0.850992,0.64019 -0.943871,0.93283 -0.09288,0.29264 -0.376218,0.53207 -0.62964,0.53207 -0.253422,0 -0.691883,0.18516 -0.974357,0.41147 -0.496126,0.39748 -0.493938,0.40198 0.06433,0.13229 0.317856,-0.15355 0.809985,-0.27918 1.093621,-0.27918 0.28548,0 0.574828,-0.22609 0.648145,-0.50646 0.07284,-0.27855 0.592746,-0.79889 1.155338,-1.15631 0.562592,-0.35741 1.249707,-0.90341 1.526923,-1.21332 0.645331,-0.72146 1.580547,-0.71657 2.606008,0.0136 0.738848,0.52611 0.76584,0.59461 0.305427,0.77515 -0.486961,0.19096 -0.486098,0.19984 0.02412,0.24799 0.291041,0.0275 0.649347,0.0372 0.796235,0.0216 0.406397,-0.0431 1.654995,1.11434 2.132348,1.97667 l 0.424624,0.76709 -0.165211,-0.79375 c -0.09087,-0.43657 -0.476976,-1.07193 -0.858023,-1.41191 -0.80419,-0.71754 -0.986348,-2.4174 -0.380413,-3.54993 1.024878,-1.91556 5.56366,-2.93628 8.089112,-1.81915 0.694998,0.30743 1.38815,0.48201 1.540339,0.38795 0.152189,-0.0941 0.199802,-0.0466 0.105807,0.10551 -0.09399,0.15208 0.13526,0.47712 0.509456,0.7223 0.374195,0.24519 0.844763,0.82376 1.045705,1.28572 0.285355,0.65602 0.367617,0.71855 0.375706,0.28562 0.022,-1.17764 2.116211,-2.28898 4.67322,-2.47994 1.20341,-0.0899 1.848873,-0.0451 1.785524,0.12383 -0.134508,0.3587 1.458101,1.23745 1.843265,1.01705 0.169018,-0.0967 0.218578,-0.078 0.110133,0.0417 -0.108444,0.11965 0.129681,0.64475 0.529167,1.1669 1.019082,1.33198 0.995937,3.26048 -0.06538,5.44727 -0.487096,1.00364 -0.781847,2.04834 -0.801421,2.84052 -0.01703,0.68917 -0.112025,1.33409 -0.211101,1.43316 -0.09908,0.0991 -0.180139,0.0493 -0.180139,-0.11052 0,-0.36965 -1.407953,-1.38084 -2.111228,-1.51628 -0.487507,-0.0939 -0.534605,0.0342 -0.534605,1.45374 0,0.85618 -0.130983,1.63765 -0.291073,1.73659 -0.190508,0.11774 -0.229769,0.67055 -0.113637,1.60004 0.148911,1.19184 0.08153,1.59079 -0.419106,2.48156 -0.328098,0.58377 -0.700707,1.0614 -0.828019,1.0614 -0.127313,0 -0.165164,0.1073 -0.08411,0.23844 0.08345,0.13503 -0.599037,0.20511 -1.5736,0.1616 -1.721957,-0.0769 -2.340608,-0.33368 -3.529116,-1.46491 -0.572636,-0.54503 -0.706461,-0.56568 -1.719791,-0.26536 -0.702486,0.2082 -1.504436,0.75867 -2.223315,1.52614 -0.742132,0.79229 -1.124479,1.05111 -1.124479,0.76119 z m 5.676664,-19.21505 c -0.903762,-0.90376 -3.778959,-1.85038 -5.620217,-1.85038 -0.624724,0 -1.579944,-0.22656 -2.122712,-0.50346 -0.760666,-0.38806 -1.440472,-0.48733 -2.966022,-0.4331 -1.208117,0.0429 -2.185327,-0.0549 -2.508338,-0.25103 -0.291042,-0.17675 -1.407995,-0.40732 -2.482118,-0.51238 -1.843258,-0.18027 -2.94184,-0.55726 -2.94184,-1.00951 0,-0.11052 0.26789,-0.20172 0.595312,-0.20268 0.694758,-0.002 2.137964,-0.88096 1.876264,-1.14266 -0.09819,-0.0982 -0.0098,-0.1907 0.196306,-0.2056 0.206154,-0.0149 -0.03128,-0.12284 -0.527641,-0.23987 -0.496357,-0.11704 -1.831495,-0.15156 -2.966975,-0.0767 -1.671474,0.11017 -2.145487,0.0551 -2.489869,-0.28929 -0.332442,-0.33244 -0.345623,-0.42536 -0.06034,-0.42536 0.200761,0 0.715281,-0.46889 1.143378,-1.04199 0.860571,-1.15204 1.267635,-1.33034 3.049365,-1.33565 1.847808,-0.005 1.75771,-0.29891 -0.291273,-0.94855 -2.277259,-0.72201 -3.267535,-1.33061 -3.057153,-1.87886 0.08796,-0.22922 -0.145832,-0.76032 -0.541897,-1.23101 l -0.696602,-0.82787 0.796791,-0.32512 c 0.438235,-0.17882 1.454394,-0.35944 2.258131,-0.40138 0.864662,-0.0451 1.409238,-0.18493 1.333735,-0.3424 -0.07018,-0.14637 0.05982,-0.035 0.28889,0.24746 0.478006,0.58944 0.514033,0.39305 0.167022,-0.91046 -0.135588,-0.50933 -0.316496,-1.39535 -0.402019,-1.96895 -0.192016,-1.28784 -0.354542,-1.4682 -0.78837,-0.87491 -0.186046,0.25443 -0.472958,0.46261 -0.637584,0.46261 -0.164625,0 -0.44803,0.23812 -0.629789,0.52916 -0.181758,0.29104 -0.551101,0.52917 -0.820762,0.52917 -0.26966,0 -0.550409,0.22989 -0.623886,0.51086 -0.07348,0.28098 -0.308001,0.57779 -0.521166,0.65959 -0.213165,0.0818 -0.313468,0.26863 -0.222896,0.41518 0.0971,0.15712 -0.173834,0.26645 -0.660304,0.26645 -0.517295,0 -0.759888,-0.10532 -0.650452,-0.28239 0.0961,-0.1555 -0.07522,-0.3477 -0.38126,-0.42773 -0.444297,-0.11619 -0.555787,-0.35146 -0.555787,-1.17282 0,-1.02233 -0.0053,-1.02747 -1.058334,-1.02747 -0.582083,0 -1.058333,-0.11907 -1.058333,-0.26459 0,-0.14552 -0.178594,-0.26458 -0.396875,-0.26458 -0.218281,0 -0.396875,-0.0709 -0.396875,-0.15761 0,-0.30943 0.911703,-1.69447 1.115379,-1.69447 0.114146,0 0.207538,-0.23813 0.207538,-0.52917 0,-0.72533 -0.367549,-0.66407 -0.79375,0.13229 -0.194701,0.3638 -0.482711,0.66569 -0.640022,0.67087 -0.281274,0.009 -3.096157,3.39392 -3.279157,3.94292 -0.05152,0.15455 -0.26234,0.281 -0.468495,0.281 -0.206154,0 -0.374826,0.17246 -0.374826,0.38325 0,0.21078 -0.297656,0.70442 -0.661459,1.09696 l -0.661458,0.71373 v -9.563635 -9.563636 l 9.458854,0.0083 9.458854,0.0083 -1.026748,0.85155 c -4.018404,3.33273 -8.630543,7.562851 -8.630543,7.915686 0,0.427091 0.451226,0.191229 1.239666,-0.64799 1.028724,-1.094978 3.795027,-3.650964 5.798674,-5.357813 0.854125,-0.727604 1.891259,-1.650338 2.304743,-2.050521 l 0.751788,-0.727604 9.173918,0.01251 9.173918,0.01251 -4.233333,2.133484 c -2.328334,1.173416 -5.646567,2.983488 -7.373851,4.022381 -1.727285,1.038894 -3.363575,2.018531 -3.636199,2.176971 -0.272625,0.15844 -0.714235,0.485862 -0.981357,0.727604 -0.267122,0.241742 -0.62513,0.439531 -0.795572,0.439531 -0.170443,0 -0.309896,0.09339 -0.309896,0.207538 0,0.114144 -0.373634,0.428244 -0.830298,0.698004 -0.456663,0.26976 -1.02221,0.65584 -1.25677,0.85795 -0.234561,0.20211 -0.902723,0.77948 -1.484807,1.28304 -0.673109,0.58231 -1.226869,0.86214 -1.521354,0.76877 -0.284249,-0.0901 -0.463021,-0.009 -0.463021,0.20911 0,0.45616 1.009313,1.32878 1.316983,1.13863 0.128674,-0.0795 0.320107,-0.005 0.425407,0.16519 0.127636,0.20652 0.07601,0.23843 -0.15489,0.0957 -0.239399,-0.14796 -0.282792,-0.11123 -0.14053,0.11896 0.300202,0.48574 2.27008,1.32368 3.127633,1.33044 0.40598,0.003 1.218725,0.25098 1.8061,0.55064 0.897152,0.45769 1.138784,0.48943 1.510814,0.19843 0.388993,-0.30426 0.402234,-0.29434 0.108866,0.0815 -0.270529,0.34661 -0.265904,0.48442 0.02434,0.72531 0.197085,0.16356 0.433876,0.22185 0.526202,0.12952 0.326714,-0.32671 0.462604,0.62062 0.191361,1.33405 -0.201988,0.53127 -0.185724,0.89433 0.06117,1.36555 0.296667,0.56621 0.335627,0.38713 0.330488,-1.51903 -0.0058,-2.16713 0.24843,-2.86019 1.049357,-2.86019 0.19576,0 0.416316,-0.14883 0.490124,-0.33073 0.207304,-0.5109 0.694743,0.31865 0.699599,1.19062 0.0022,0.40018 0.111967,0.72761 0.243864,0.72761 0.131898,0 0.177134,0.23968 0.100526,0.53263 -0.185416,0.70903 1.377262,3.96528 1.902945,3.96528 0.221402,0 0.418977,0.20836 0.439054,0.46302 0.02008,0.25467 0.168906,-0.90619 0.330729,-2.57968 0.195875,-2.02563 0.205783,-3.11739 0.02964,-3.26611 -0.155292,-0.13112 -0.08131,-0.16494 0.179092,-0.0819 0.244022,0.0778 0.590791,-0.0357 0.770598,-0.25239 0.551275,-0.66425 1.41915,-0.34608 1.521117,0.55766 0.04926,0.43656 0.22785,0.9613 0.396875,1.1661 0.192945,0.23377 0.283598,1.21845 0.243583,2.64583 -0.03574,1.27482 0.0715,2.60752 0.244133,3.03391 0.287562,0.71028 0.331027,0.72875 0.659046,0.28016 0.193149,-0.26415 0.35118,-0.36226 0.35118,-0.21803 0,0.14423 -0.129194,0.39143 -0.287099,0.54934 -0.206409,0.20641 -0.166316,0.52066 0.142653,1.11814 0.315395,0.60991 0.394783,1.26925 0.298338,2.4778 -0.116351,1.458 -0.05313,1.75994 0.551575,2.6343 0.375644,0.54315 0.805702,0.91171 0.955683,0.81901 0.160816,-0.0994 0.192302,-0.0385 0.07674,0.14852 -0.107772,0.17438 -0.06912,0.46988 0.0859,0.65666 0.21126,0.25455 0.08712,0.48358 -0.495675,0.91445 -0.994489,0.73526 -1.05192,0.72893 -2.001451,-0.2206 z M 60.841924,100.3802 c -0.286128,-0.33112 -0.227261,-0.37506 0.396875,-0.29622 0.403058,0.0509 0.584005,0.0397 0.402104,-0.025 -0.474036,-0.168468 -0.407693,-0.520344 0.132292,-0.701655 0.45001,-0.151101 1.386319,-0.697255 1.653646,-0.964582 0.357117,-0.357117 1.373952,-0.79375 1.848493,-0.79375 0.34619,0 0.532757,-0.175265 0.532757,-0.500484 0,-0.517068 1.10928,-0.985697 1.606223,-0.67857 0.142434,0.08803 0.241921,0.06191 0.221083,-0.05805 -0.09509,-0.5474 0.05966,-0.651396 0.47119,-0.316646 0.390075,0.317298 0.424924,0.305761 0.276139,-0.09142 -0.210721,-0.562519 0.311894,-0.93825 0.617423,-0.443893 0.174383,0.282158 0.394749,0.194935 1.019344,-0.403465 0.438276,-0.419895 0.748965,-0.840948 0.690421,-0.935675 -0.05854,-0.09473 0.481471,-0.400373 1.200033,-0.679216 0.718562,-0.278842 1.306477,-0.65937 1.306477,-0.845616 0,-0.186246 0.290629,-0.338629 0.645843,-0.338629 0.355214,0 0.722421,-0.123906 0.816017,-0.275346 0.09359,-0.15144 0.378301,-0.209288 0.632681,-0.128552 0.272106,0.08636 0.65546,-0.06642 0.93121,-0.371115 0.257786,-0.284851 0.812179,-0.59335 1.231983,-0.685555 0.419804,-0.0922 0.831204,-0.277547 0.914221,-0.411872 0.08631,-0.139647 3.25992,-0.244227 7.411368,-0.244227 h 7.260426 v 4.894792 4.894792 h -2.513542 c -2.05787,0 -2.513541,0.07195 -2.513541,0.396874 0,0.28663 -0.293982,0.39687 -1.058333,0.39687 -0.764352,0 -1.058334,-0.11024 -1.058334,-0.39687 0,-0.33073 -0.529166,-0.396874 -3.175,-0.396874 -2.645833,0 -3.175,0.06615 -3.175,0.396874 0,0.3197 -0.411574,0.39687 -2.116666,0.39687 -1.705093,0 -2.116667,-0.0772 -2.116667,-0.39687 0,-0.31971 -0.411574,-0.396874 -2.116666,-0.396874 -1.705093,0 -2.116667,0.07717 -2.116667,0.396874 0,0.3197 -0.411574,0.39687 -2.116667,0.39687 -1.656639,0 -2.116666,-0.082 -2.116666,-0.37743 0,-0.28989 -0.512425,-0.397286 -2.209204,-0.46302 -1.834253,-0.07106 -2.204725,-0.01823 -2.182812,0.31129 0.03546,0.53321 -1.200159,0.63565 -1.632484,0.13534 z"
         id="path77" /><path
         style="fill:#a2be42"
         d="m 66.602461,142.48727 c -3.41e-4,-0.26828 -0.225972,-0.54672 -0.501401,-0.61874 -0.522226,-0.13657 -1.032239,-1.73385 -0.59966,-1.87804 0.129184,-0.0431 0.780251,-0.42416 1.446816,-0.84688 1.093799,-0.69367 2.268568,-2.24075 1.94625,-2.56307 -0.0702,-0.0702 -0.206068,0.11945 -0.301922,0.42146 -0.214541,0.67596 -0.457037,0.69136 -1.023869,0.065 -0.290417,-0.32091 -0.450047,-1.00249 -0.473549,-2.02193 -0.03443,-1.49364 -0.0021,-1.56882 1.124693,-2.61599 0.972662,-0.90392 1.341731,-1.07957 2.283783,-1.08693 0.618,-0.005 1.124015,-0.0981 1.124479,-0.20721 4.63e-4,-0.10914 -0.505173,-0.19799 -1.123636,-0.19745 -1.238194,0.001 -2.640998,0.71232 -3.101277,1.57236 -0.396821,0.74146 -1.422793,0.69457 -2.828603,-0.12929 -0.828247,-0.48539 -1.147724,-0.84264 -1.147724,-1.28344 0,-1.0036 -0.556397,-2.36134 -1.292772,-3.15467 -0.550158,-0.59271 -0.686199,-0.99413 -0.665178,-1.96278 0.02262,-1.04256 0.162797,-1.34265 0.974684,-2.08669 1.245106,-1.14106 3.48695,-1.7981 5.5094,-1.61471 2.482081,0.22506 4.913836,1.82014 5.334155,3.49886 0.103826,0.41467 0.139134,0.37563 0.163185,-0.18042 0.05165,-1.19414 2.522662,-2.59771 4.573329,-2.59771 2.391149,0 5.246946,2.57745 5.246946,4.73555 0,0.32984 -0.377305,1.45311 -0.838457,2.49615 -0.461151,1.04303 -0.892566,2.52094 -0.9587,3.28423 l -0.120243,1.38779 -0.90259,-0.79248 c -0.496424,-0.43587 -1.078722,-0.79249 -1.293996,-0.79249 -0.215273,0 -1.060042,-0.54461 -1.877264,-1.21024 -1.636527,-1.33297 -2.41561,-1.70911 -3.484828,-1.68247 -0.585835,0.0146 -0.514907,0.0788 0.404564,0.36614 1.550849,0.48468 3.438625,1.63448 3.940093,2.39981 0.317883,0.48515 0.378848,0.98404 0.249075,2.03822 -0.150898,1.22579 -0.245129,2.3163 -0.374011,4.32832 -0.01942,0.30317 -0.426183,1.0034 -0.903918,1.55606 -0.792047,0.91626 -0.9815,1.00256 -2.149372,0.97912 -1.309464,-0.0263 -1.95697,-0.32399 -3.18995,-1.46668 -0.560161,-0.51914 -0.842149,-0.60601 -1.413126,-0.43532 -1.230725,0.3679 -2.23415,1.00522 -3.007783,1.91036 -0.586617,0.68633 -0.747135,0.76924 -0.747623,0.38618 z m -8.431255,-2.49726 c -0.05638,-1.35878 -0.711079,-2.62851 -1.589549,-3.08279 -1.104762,-0.57129 -1.623863,-0.52374 -3.062931,0.28057 -1.027692,0.57439 -1.352711,0.64526 -1.872682,0.40834 -0.879647,-0.40079 -1.461324,-1.66759 -1.408383,-3.06724 0.02469,-0.6528 -0.10694,-1.36986 -0.292515,-1.59347 -0.193598,-0.23327 -0.273367,-0.7177 -0.187152,-1.13658 0.08264,-0.40151 0.24705,-1.20558 0.365352,-1.78681 0.180061,-0.88467 0.390421,-1.14323 1.291537,-1.5875 0.592043,-0.29189 1.441954,-0.79861 1.88869,-1.12603 0.813748,-0.59641 2.450351,-0.82184 2.450351,-0.33752 0,0.14178 -0.348749,0.43813 -0.774999,0.65856 -0.42625,0.22042 -0.850992,0.64019 -0.943871,0.93283 -0.09288,0.29264 -0.376218,0.53207 -0.62964,0.53207 -0.253422,0 -0.691883,0.18516 -0.974357,0.41147 -0.496126,0.39748 -0.493938,0.40198 0.06433,0.13229 0.317856,-0.15355 0.823871,-0.27918 1.12448,-0.27918 0.301639,0 0.54656,-0.17231 0.54656,-0.38452 0,-0.21149 0.304011,-0.59844 0.675579,-0.8599 0.371569,-0.26145 1.156225,-0.86189 1.743682,-1.33431 0.831051,-0.66831 1.224283,-0.8219 1.771817,-0.69207 1.000416,0.23723 1.743567,0.91859 1.30528,1.19675 -0.23956,0.15204 -0.183998,0.2241 0.192184,0.24927 0.291041,0.0195 0.665997,0.0188 0.833235,-0.001 0.415023,-0.0503 2.036877,1.70013 2.249245,2.42751 0.588188,2.01458 -0.0603,3.47963 -1.669221,3.77108 -0.804928,0.14581 -0.989181,0.0932 -1.093787,-0.31257 -0.06919,-0.26836 -0.139608,-0.0592 -0.156489,0.46477 -0.02957,0.918 0.410259,2.61057 0.749373,2.88376 0.09032,0.0728 0.428006,0.47577 0.750411,0.89557 0.746727,0.97233 0.771967,1.59598 0.05702,1.40901 -0.291041,-0.0761 -0.529166,-0.0166 -0.529166,0.13228 0,0.15091 -0.313867,0.21066 -0.709415,0.13505 -0.937433,-0.17921 -1.882335,0.27479 -2.019027,0.97007 -0.07019,0.35701 -0.122934,0.24522 -0.145943,-0.30933 z m 14.1783,-16.5277 c -1.070513,-0.89113 -3.809743,-1.76712 -5.563744,-1.77924 -0.553687,-0.004 -1.553325,-0.25598 -2.221418,-0.56033 -0.908318,-0.41379 -1.716496,-0.54821 -3.204037,-0.53292 -1.129307,0.0116 -2.146214,-0.10975 -2.35223,-0.28073 -0.199599,-0.16565 -1.281328,-0.35735 -2.403842,-0.426 -1.899993,-0.11619 -2.702394,-0.36921 -2.702394,-0.85214 0,-0.10951 0.344028,-0.26792 0.764506,-0.35202 0.420479,-0.0841 1.105088,-0.44621 1.521354,-0.8047 l 0.756848,-0.65179 -0.763042,-0.192 c -0.419674,-0.10559 -1.878189,-0.11874 -3.241146,-0.0292 -2.901954,0.19062 -3.016657,0.0581 -1.464229,-1.69123 0.998746,-1.12544 1.045131,-1.14485 3.108854,-1.30049 l 2.09498,-0.15799 -1.961545,-0.60973 c -2.088781,-0.64927 -3.462413,-1.48019 -3.462413,-2.09443 0,-0.20629 -0.306063,-0.73881 -0.680139,-1.18337 l -0.680139,-0.8083 0.878576,-0.37191 c 0.536668,-0.22717 1.522328,-0.33933 2.532778,-0.28822 1.775508,0.0898 1.785692,0.0799 1.411223,-1.37154 -0.131405,-0.50932 -0.317875,-1.38929 -0.41438,-1.95549 l -0.175463,-1.02945 1.053978,0.83476 c 1.203032,0.95282 2.65714,1.61982 3.539547,1.6236 0.689675,0.003 2.952722,1.04538 3.859074,1.7776 0.525943,0.4249 0.571284,0.59269 0.330971,1.22476 -0.216077,0.56832 -0.186525,0.89169 0.131907,1.44342 l 0.410368,0.71101 -0.144644,-0.70201 c -0.07955,-0.38611 -0.06814,-1.43395 0.02536,-2.32853 0.150998,-1.44467 0.254907,-1.67042 0.929413,-2.01922 0.850002,-0.43955 0.851914,-0.43732 1.149918,1.34217 0.228074,1.3619 1.564037,4.06522 2.39327,4.84278 l 0.646298,0.60602 0.0019,-1.0029 c 0.007,-3.73995 0.614728,-5.6331 1.808259,-5.6331 0.585196,0 1.07207,1.84224 1.328573,5.02708 0.135996,1.68858 0.360867,2.59289 0.902458,3.62923 0.798682,1.52828 0.86207,2.05734 0.422342,3.52502 -0.285878,0.95417 -0.249539,1.06842 0.828817,2.60572 l 1.127803,1.6078 -0.630379,0.52502 c -0.346709,0.28876 -0.689911,0.52272 -0.762671,0.5199 -0.07276,-0.003 -0.581936,-0.37942 -1.131501,-0.8369 z"
         id="path76" /><path
         style="fill:#689134"
         d="m 73.348715,141.79391 c -0.688874,-0.28844 -1.719791,-1.2728 -1.719791,-1.64211 0,-0.18457 -0.382697,-0.23779 -1.058334,-0.14717 -0.630945,0.0846 -1.058333,0.0339 -1.058333,-0.12576 0,-0.14724 -0.208359,-0.19514 -0.463021,-0.10644 -0.254661,0.0887 -0.134985,-0.0875 0.265946,-0.39163 0.400932,-0.30409 0.659973,-0.66453 0.575646,-0.80098 -0.08433,-0.13644 -0.05517,-0.23102 0.06478,-0.21019 0.497576,0.0864 0.901916,-0.0391 0.776972,-0.2413 -0.0736,-0.11909 0.276559,-0.36492 0.778135,-0.54629 0.501575,-0.18137 0.911955,-0.44112 0.911955,-0.57723 0,-0.34055 -0.162183,-0.314 -1.125961,0.18439 -0.577433,0.29861 -0.865909,0.33942 -0.934951,0.1323 -0.109131,-0.3274 -0.875717,-0.42339 -0.8075,-0.10112 0.07105,0.33567 -0.349475,1.12448 -0.599479,1.12448 -0.129952,0 -0.236276,-0.24515 -0.236276,-0.54478 0,-0.34442 0.112345,-0.47535 0.305464,-0.356 0.168005,0.10383 0.234844,0.0745 0.148531,-0.0651 -0.08631,-0.13966 -0.05791,-0.693 0.06313,-1.22964 0.121033,-0.53665 0.122885,-0.91566 0.0041,-0.84226 -0.118769,0.0734 -0.295862,0.49733 -0.39354,0.94205 -0.203507,0.92656 -0.749679,1.24477 -1.321693,0.77004 -0.267163,-0.22172 -0.393506,-0.82928 -0.393506,-1.8923 0,-1.50247 0.04543,-1.60773 1.124479,-2.60589 1.57774,-1.45944 2.263262,-1.54894 4.067039,-0.53095 2.008672,1.13363 2.109514,0.82861 0.124679,-0.37712 -2.007204,-1.21931 -3.068958,-1.12244 -4.61972,0.4215 -0.562823,0.56035 -1.266738,1.01881 -1.564254,1.01881 -0.859555,0 -2.808142,-1.26132 -2.768179,-1.79185 0.07557,-1.00326 -0.675453,-2.96095 -1.290512,-3.36395 -0.519796,-0.34058 -0.629782,-0.63639 -0.629782,-1.69378 0,-1.58281 0.574756,-2.38427 2.309208,-3.22003 1.7899,-0.86249 4.739507,-0.87188 6.473588,-0.0206 1.652488,0.8112 2.569512,1.69813 2.76467,2.67391 0.210057,1.05029 0.580024,1.03312 0.530088,-0.0246 -0.03525,-0.74669 0.114012,-0.9138 1.548488,-1.73364 1.38622,-0.79227 1.759826,-0.89159 2.946646,-0.78337 1.576145,0.14373 3.168654,1.04542 4.173822,2.36326 1.123435,1.4729 1.131951,2.24581 0.05407,4.90809 -0.578246,1.42823 -0.956834,2.80795 -0.956834,3.48707 v 1.12375 l -0.702898,-0.70289 c -0.386594,-0.3866 -1.011672,-0.77513 -1.389062,-0.86341 -0.377391,-0.0883 -1.043353,-0.49075 -1.479915,-0.89438 -2.200655,-2.03465 -4.346479,-2.68661 -5.571826,-1.69288 -0.494495,0.40103 -0.488997,0.40975 0.147868,0.23466 0.363802,-0.10001 0.928985,-0.181 1.255962,-0.17996 0.829649,0.003 3.970261,1.55791 4.267326,2.11326 0.456162,0.85277 0.531312,2.25991 0.175801,3.29179 -0.194609,0.56486 -0.290986,1.49559 -0.21417,2.0683 0.279328,2.08254 -1.021077,3.7099 -2.940913,3.68033 -0.598839,-0.009 -1.326923,-0.11647 -1.617965,-0.23834 z M 51.58117,137.63596 c -0.620037,-0.24459 -1.118912,-1.63318 -1.118912,-3.11442 0,-0.80759 -0.116794,-1.46835 -0.259543,-1.46835 -0.480487,0 -0.583825,-1.25324 -0.169415,-2.05462 0.224319,-0.43379 0.342199,-0.85436 0.261956,-0.9346 -0.341664,-0.34167 0.249206,-1.21302 1.035696,-1.52734 0.468104,-0.18708 1.344537,-0.68729 1.94763,-1.11157 1.100584,-0.77429 1.939409,-0.87552 2.144737,-0.25885 0.06057,0.1819 -0.07565,0.33073 -0.302705,0.33073 -0.227053,0 -0.607856,0.29766 -0.846228,0.66146 -0.238373,0.3638 -0.585115,0.66146 -0.770538,0.66146 -0.185424,0 -0.618215,0.24484 -0.961758,0.5441 -0.587596,0.51185 -0.590365,0.52754 -0.04671,0.26459 0.317856,-0.15374 0.815848,-0.27953 1.10665,-0.27953 0.290802,0 0.597582,-0.21693 0.681732,-0.48206 0.08415,-0.26514 0.627796,-0.74891 1.208099,-1.07506 0.580304,-0.32615 1.178509,-0.8236 1.329346,-1.10544 0.366324,-0.68448 1.847847,-0.68009 2.673714,0.008 l 0.624624,0.52036 -0.595312,0.009 c -1.065926,0.0158 -0.623883,0.404 0.530537,0.46596 0.903166,0.0485 1.291505,0.24202 1.983004,0.9883 0.472943,0.51042 0.873348,1.19767 0.889789,1.52722 0.01644,0.32956 0.05878,0.98155 0.09409,1.44886 0.07499,0.99253 -0.653774,1.82331 -1.777632,2.02648 -0.666944,0.12056 -0.727604,0.0624 -0.727604,-0.69762 0,-0.6233 -0.07529,-0.75385 -0.303289,-0.52585 -0.350023,0.35002 -0.419819,2.56168 -0.108703,3.44449 0.167386,0.47497 0.128411,0.56749 -0.187934,0.44609 -0.491813,-0.18872 -1.097607,-2.24764 -0.925784,-3.14647 0.06949,-0.36354 0.02449,-0.59802 -0.100011,-0.52107 -0.124499,0.0769 -0.226362,0.0161 -0.226362,-0.13526 0,-0.15134 -0.297656,-0.34986 -0.661458,-0.44117 -0.366659,-0.092 -0.663264,-0.3596 -0.66551,-0.60036 -0.0022,-0.23888 -0.128934,-0.61293 -0.281567,-0.83121 -0.199729,-0.28563 -0.232559,0.0759 -0.117124,1.2898 0.124828,1.3127 0.07039,1.78612 -0.245498,2.13518 -0.365988,0.40441 -0.359465,0.4987 0.06635,0.95916 0.509693,0.55115 0.642104,1.70528 0.194461,1.69497 -0.150718,-0.003 -0.712371,-0.10816 -1.248117,-0.23264 -0.81242,-0.18876 -1.119803,-0.12591 -1.852084,0.37872 -0.986483,0.67982 -1.773573,0.9357 -2.272628,0.73883 z m 20.645024,-14.33988 c -1.203185,-1.03924 -2.999102,-1.61267 -5.102934,-1.62935 -1.291791,-0.0102 -2.503101,-0.53794 -2.510454,-1.09367 -0.0034,-0.25572 -0.401904,-0.33898 -1.455208,-0.30403 -0.797802,0.0265 -1.235601,-0.0133 -0.972886,-0.0884 0.262714,-0.0751 0.429258,-0.27533 0.370097,-0.44501 -0.116687,-0.33467 -0.80215,-0.35893 -1.64151,-0.0581 l -0.529167,0.18966 0.529167,-0.44509 c 0.512322,-0.43092 0.499688,-0.44131 -0.396875,-0.3265 -0.509323,0.0652 -1.164167,0.21856 -1.455208,0.34074 -0.475883,0.19978 -0.491674,0.17608 -0.156825,-0.23537 0.34255,-0.42091 0.300209,-0.44488 -0.529166,-0.29951 -0.49583,0.0869 -1.240885,0.32686 -1.655679,0.53324 -0.642649,0.31975 -0.708543,0.32026 -0.445614,0.003 0.252664,-0.30444 0.149641,-0.39135 -0.568747,-0.47979 -0.685392,-0.0844 -0.587914,-0.12134 0.445614,-0.16895 0.970198,-0.0447 1.181829,-0.1177 0.79375,-0.27382 -0.291041,-0.11709 -0.6171,-0.16206 -0.724573,-0.1 -0.107474,0.0621 -0.128034,-0.0626 -0.04569,-0.27723 0.08235,-0.21459 0.319106,-0.45516 0.526136,-0.5346 0.579331,-0.22231 0.445886,-0.69022 -0.196846,-0.69022 -1.051623,0 -0.20679,-0.38317 1.184811,-0.53736 l 1.372828,-0.15212 -1.142865,-0.33187 c -1.896083,-0.55059 -4.440432,-0.63417 -5.328326,-0.17502 -1.129724,0.5842 -1.371336,0.47329 -0.275684,-0.12655 0.509323,-0.27884 1.186906,-0.51198 1.505739,-0.51808 0.318834,-0.006 0.664489,-0.14828 0.768123,-0.31597 0.137151,-0.22191 -0.128594,-0.25689 -0.976572,-0.12853 -0.813904,0.1232 -1.045392,0.0967 -0.768123,-0.088 0.574353,-0.38247 1.727487,-0.33155 2.818935,0.12449 1.121412,0.46855 1.782517,0.51387 1.529728,0.10485 -0.09927,-0.16062 0.161598,-0.0774 0.579698,0.18501 l 0.76018,0.47704 -0.597732,-0.66766 c -0.328753,-0.36722 -0.523871,-0.74153 -0.433595,-0.8318 0.09028,-0.0903 0.461395,0.18913 0.824708,0.6209 0.363314,0.43178 0.915619,0.91875 1.227345,1.08216 l 0.566774,0.29712 -0.529167,-0.63381 c -0.291041,-0.3486 -0.629231,-0.70702 -0.751532,-0.79651 -0.122301,-0.0895 -0.36295,-0.44468 -0.534776,-0.78933 -0.242444,-0.48629 -0.725943,-0.7247 -2.158884,-1.06454 -1.627445,-0.38597 -1.724938,-0.44142 -0.82189,-0.46745 0.879264,-0.0253 0.977868,-0.0858 0.695208,-0.4264 -0.232213,-0.2798 -0.924715,-0.41163 -2.347501,-0.4469 -1.968403,-0.0488 -1.979013,-0.0526 -0.430624,-0.15323 l 1.5875,-0.1032 -1.455209,-0.78744 c -0.800364,-0.43309 -1.235788,-0.72082 -0.967607,-0.63939 1.753837,0.5325 1.84025,0.52383 1.487333,-0.14911 -0.186213,-0.35507 0.154359,-0.11035 0.778604,0.55948 0.61028,0.65484 0.980346,0.92273 0.822368,0.59531 -0.157978,-0.32742 -0.220767,-0.59531 -0.139532,-0.59531 0.08123,0 -0.04866,-0.29968 -0.288657,-0.66596 -0.346021,-0.5281 -0.35796,-0.63589 -0.05767,-0.52065 0.208277,0.0799 0.560486,0.64749 0.782687,1.26127 0.274889,0.75932 0.797639,1.41517 1.635708,2.05219 0.677438,0.51492 1.512631,1.317 1.855983,1.78238 0.343353,0.46539 0.721143,0.75847 0.839534,0.65128 0.11839,-0.10719 0.119531,-0.0297 0.0025,0.17208 -0.297822,0.51378 1.243878,1.80588 2.585895,2.16725 0.585854,0.15775 1.409816,0.63145 1.831027,1.05266 0.421211,0.42121 1.243281,0.8944 1.826823,1.05153 0.583542,0.15713 1.261898,0.36214 1.507458,0.45557 0.24556,0.0934 0.02589,-0.20041 -0.488157,-0.65298 -0.514045,-0.45258 -1.27877,-0.86304 -1.699387,-0.91214 -0.420617,-0.0491 -0.813943,-0.23905 -0.874057,-0.4221 -0.08355,-0.25443 0.05544,-0.2702 0.590028,-0.067 0.461835,0.17559 0.643964,0.17631 0.536301,0.002 -0.08966,-0.14508 -0.03694,-0.26378 0.117171,-0.26378 0.154109,0 0.250433,-0.14883 0.214052,-0.33073 -0.03638,-0.1819 0.09153,-0.29801 0.28425,-0.25803 0.192718,0.04 0.271415,-0.0551 0.174882,-0.21128 -0.122487,-0.19819 -0.291687,-0.18757 -0.560046,0.0352 -0.266662,0.22131 -0.469033,0.23463 -0.6602,0.0435 -0.191166,-0.19116 -0.09302,-0.40359 0.32019,-0.69302 0.546419,-0.38272 0.626312,-0.37978 0.962934,0.0355 0.333161,0.41103 0.341796,0.40398 0.09346,-0.0763 -0.150492,-0.29104 -0.752373,-1.00222 -1.337513,-1.5804 -1.137708,-1.12417 -1.506473,-1.97033 -0.409608,-0.93988 l 0.654283,0.61467 -0.241631,-0.84252 c -0.132897,-0.46339 -0.486856,-1.2393 -0.786575,-1.72426 -0.62289,-1.00785 -0.722954,-1.60604 -0.139654,-0.83485 0.382822,0.50613 0.388461,0.50582 0.388461,-0.0213 0,-0.29419 -0.292479,-1.12062 -0.649953,-1.8365 -0.489942,-0.98117 -0.526998,-1.15338 -0.150522,-0.6995 l 0.499431,0.60211 0.110879,-0.73441 c 0.07787,-0.51574 0.128219,-0.3799 0.169118,0.45623 0.04739,0.96884 0.104961,1.09205 0.309071,0.66145 0.190627,-0.40215 0.220831,-0.28438 0.125841,0.49068 -0.06874,0.56092 -0.05313,1.37914 0.03469,1.81826 l 0.159684,0.79842 0.347961,-0.62764 c 0.322568,-0.58183 0.348646,-0.52325 0.357338,0.8026 0.0073,1.1163 0.15752,1.62446 0.684299,2.31511 0.895884,1.17456 1.147712,1.11569 1.02496,-0.23961 -0.09238,-1.01998 -0.07008,-0.98924 0.239964,0.33073 0.187996,0.80036 0.559674,1.78746 0.825951,2.19355 0.481197,0.73386 1.404964,1.39679 1.631167,1.17059 0.06507,-0.0651 -0.361844,-1.08055 -0.948702,-2.25662 -1.155764,-2.31617 -1.37264,-3.02948 -0.537847,-1.76898 0.634895,0.95866 0.649448,0.80515 0.118074,-1.24549 -0.226101,-0.87256 -0.358975,-1.78271 -0.295275,-2.02257 0.07543,-0.28405 0.138663,-0.20548 0.181339,0.22535 0.05536,0.55887 0.09575,0.51784 0.260445,-0.26458 0.154822,-0.73553 0.202922,-0.5178 0.233805,1.05833 0.02722,1.38904 0.115828,1.86531 0.295362,1.5875 0.227982,-0.35278 0.260045,-0.35278 0.288568,0 0.01765,0.21828 0.008,0.74842 -0.02151,1.17809 -0.04376,0.63772 0.01358,0.72546 0.312142,0.47768 0.289107,-0.23994 0.365743,-0.1998 0.365743,0.19154 0,0.2723 -0.09355,0.43727 -0.207887,0.36661 -0.114337,-0.0707 -0.207887,-0.002 -0.207887,0.15171 0,0.43019 0.29999,0.33729 1.017503,-0.31511 0.603154,-0.54841 0.636878,-0.55363 0.428091,-0.0662 -0.322541,0.75308 -0.391375,3.07649 -0.08554,2.88747 0.488622,-0.30198 1.003624,0.44157 0.847279,1.22329 -0.120178,0.60089 0.07128,1.07129 0.926905,2.27741 0.836919,1.17974 1.01151,1.60066 0.779766,1.87989 -0.70499,0.84946 -1.118093,0.81913 -2.258395,-0.16579 z"
         id="path75" /><path
         style="fill:#983e4a"
         d="m 73.644864,141.77533 c -0.742051,-0.22218 -2.01594,-1.22453 -2.01594,-1.58624 0,-0.0991 0.386953,-0.29654 0.859896,-0.43875 0.472942,-0.14221 0.83013,-0.39756 0.79375,-0.56744 -0.08493,-0.3966 0.386554,-0.40598 0.518443,-0.0103 0.05474,0.16421 0.233633,-0.13841 0.397549,-0.6725 0.276934,-0.90233 0.262087,-0.95966 -0.209764,-0.8099 -0.841762,0.26717 -0.570009,-0.3302 0.285959,-0.62859 0.436562,-0.15219 0.79375,-0.33715 0.79375,-0.41102 0,-0.0739 -0.477907,0.0343 -1.062016,0.24038 -1.39403,0.49184 -1.362387,0.48927 -1.585271,0.12864 -0.143982,-0.23297 -0.399323,-0.20539 -1.006754,0.10872 -1.020402,0.52767 -1.166156,0.32601 -1.308253,-1.81009 -0.05867,-0.88196 -0.117093,-1.7524 -0.129828,-1.9343 -0.02799,-0.39982 -0.993295,-0.44893 -0.993295,-0.0505 0,0.15411 0.139296,0.19411 0.309547,0.0889 0.208135,-0.12864 0.254196,-0.0471 0.140595,0.24897 -0.09292,0.24215 -0.05363,0.44027 0.08733,0.44027 0.140954,0 0.247911,0.26789 0.237683,0.59532 -0.01761,0.56359 -0.02964,0.56712 -0.225854,0.0661 -0.167119,-0.42668 -0.293051,-0.23453 -0.650253,0.99219 -0.46293,1.58981 -0.978231,1.94198 -1.477237,1.00958 -0.431742,-0.80672 -0.338555,-3.08993 0.145884,-3.57437 1.12099,-1.12099 2.302484,-1.81305 3.05858,-1.79155 1.173481,0.0334 2.792501,1.17642 2.762979,1.95071 -0.04928,1.29241 1.677126,0.73661 1.882008,-0.60591 0.0666,-0.43637 -3.77e-4,-0.47047 -0.450688,-0.22947 -0.290898,0.15569 -0.528906,0.44473 -0.528906,0.64232 0,0.1976 -0.195434,0.43426 -0.434299,0.52592 -0.343233,0.13171 -0.371454,0.0909 -0.134587,-0.19448 0.164842,-0.19862 0.22137,-0.43947 0.125618,-0.53522 -0.09575,-0.0958 -0.03519,-0.17409 0.134587,-0.17409 0.573786,0 0.313501,-0.47059 -0.352777,-0.63782 -0.363802,-0.0913 -0.661459,-0.28984 -0.661459,-0.44117 0,-0.15134 -0.110835,-0.20666 -0.246301,-0.12294 -0.135465,0.0837 -0.332455,0.0128 -0.437755,-0.15755 -0.112136,-0.18144 -0.07732,-0.23925 0.08403,-0.13952 0.151517,0.0936 0.411374,0.007 0.577461,-0.19361 0.249691,-0.30085 0.495389,-0.30675 1.419042,-0.034 0.614386,0.1814 1.119937,0.49528 1.123447,0.6975 0.0035,0.20401 0.238766,0.34646 0.528441,0.32002 0.287132,-0.0262 0.909338,0.24774 1.38268,0.60878 0.677881,0.51704 0.860622,0.8502 0.860622,1.569 0,0.50192 -0.126089,0.91258 -0.280198,0.91258 -0.154109,0 -0.195244,-0.13746 -0.09141,-0.30547 0.116967,-0.18925 0.07258,-0.23364 -0.116676,-0.11667 -0.446224,0.27578 -0.373065,0.68672 0.122255,0.68672 0.336314,0 0.387081,0.15549 0.23756,0.7276 -0.104587,0.40019 -0.219062,1.32292 -0.254387,2.05053 -0.09407,1.93753 -0.07737,1.88744 -0.967468,2.90121 -0.868274,0.98891 -1.634089,1.14487 -3.248317,0.66155 z m -22.634236,-4.92136 c -0.407617,-0.5182 -0.54837,-1.08035 -0.54837,-2.19009 0,-0.92602 -0.157144,-1.7173 -0.413823,-2.08376 -0.414934,-0.5924 -0.308082,-1.6436 0.167069,-1.6436 0.317177,0 0.311189,0.17898 -0.02714,0.81115 -0.188801,0.35278 -0.188801,0.51177 0,0.51177 0.150641,0 0.273893,0.19681 0.273893,0.43736 0,0.34443 0.119326,0.30227 0.561598,-0.19844 0.528264,-0.59806 0.551353,-0.60232 0.38899,-0.0718 -0.114392,0.37377 -0.04221,0.61402 0.214021,0.71235 0.504447,0.19357 0.334168,-0.81698 -0.233275,-1.38443 -0.359834,-0.35983 -0.402168,-0.35277 -0.402168,0.067 0,0.25806 -0.09365,0.41131 -0.208106,0.34057 -0.114458,-0.0707 -0.236086,-0.83711 -0.270284,-1.70305 -0.05685,-1.43955 -0.01068,-1.58797 0.538836,-1.73233 0.341468,-0.0897 0.644515,-0.0303 0.701749,0.13756 0.05541,0.16251 0.515606,-0.16795 1.022669,-0.73435 0.507063,-0.5664 0.772313,-0.81873 0.589444,-0.56074 -0.283468,0.39992 -0.268458,0.44451 0.10181,0.30242 0.238865,-0.0917 0.434299,-0.34525 0.434299,-0.56353 0,-0.24998 0.151983,-0.33855 0.410617,-0.2393 0.235459,0.0904 0.341662,0.046 0.248968,-0.10399 -0.198985,-0.32196 0.139795,-0.33367 0.632145,-0.0218 0.28604,0.18116 0.239308,0.27172 -0.214566,0.41577 -0.31914,0.10129 -0.71117,0.4715 -0.871179,0.82268 -0.160008,0.35118 -0.443767,0.63851 -0.630575,0.63851 -0.186809,0 -0.673713,0.29344 -1.08201,0.65209 l -0.742358,0.65209 1.31279,-0.48942 c 0.722035,-0.26918 1.366428,-0.65192 1.431986,-0.85053 0.142435,-0.43152 0.887167,-1.01667 1.11484,-0.87596 0.154956,0.0958 0.789979,-0.46176 1.508628,-1.32453 0.478924,-0.57497 1.735097,-0.50978 2.304672,0.11959 0.285506,0.31548 0.352134,0.52917 0.164995,0.52917 -0.172642,0 -0.382165,-0.17791 -0.465606,-0.39536 -0.08344,-0.21744 -0.260241,-0.32828 -0.392887,-0.2463 -0.132647,0.082 -0.182398,0.24416 -0.11056,0.36039 0.07184,0.11624 -0.07505,0.19871 -0.326414,0.18327 -0.251365,-0.0154 -0.846446,0.14912 -1.322402,0.36569 -0.774348,0.35235 -0.851043,0.48416 -0.729125,1.25315 0.08552,0.53939 0.03037,0.83495 -0.148091,0.79375 -0.156387,-0.0361 -0.483124,0.22695 -0.726083,0.58455 -0.242959,0.35759 -0.292915,0.55893 -0.111014,0.4474 0.241086,-0.14781 0.330729,0.0576 0.330729,0.75778 0,0.93804 -0.471402,1.71651 -1.039435,1.71651 -0.155915,0 -0.283482,0.11906 -0.283482,0.26458 0,0.14552 -0.119062,0.26459 -0.264583,0.26459 -0.145521,0 -0.264583,-0.22698 -0.264583,-0.5044 0,-0.68531 -0.934362,-0.44019 -0.987025,0.25893 -0.02135,0.28345 -0.224725,0.70126 -0.45194,0.92848 -0.447264,0.44726 -0.554893,0.75875 -0.182687,0.52872 0.126738,-0.0783 0.502143,0.0932 0.834234,0.38126 0.332091,0.28802 0.793944,0.5255 1.026339,0.52773 0.346913,0.003 0.356471,0.0459 0.0534,0.23778 -0.295665,0.18722 -0.269336,0.2552 0.132292,0.34159 0.416671,0.0896 0.3449,0.20578 -0.424617,0.68726 -1.222667,0.76501 -1.959362,0.73255 -2.62663,-0.11574 z M 80.5029,134.08686 c -0.285303,-0.28731 -0.821084,-0.593 -1.190625,-0.67931 -0.369541,-0.0863 -1.029081,-0.48069 -1.465643,-0.87641 -1.845224,-1.67259 -2.668892,-2.12378 -3.877009,-2.12378 -0.649674,0 -1.406851,0.16498 -1.682615,0.36662 -0.358476,0.26213 -0.661861,0.29351 -1.064385,0.11011 -0.902888,-0.41139 -2.600848,0.18828 -3.530197,1.24675 -0.4625,0.52676 -1.058659,0.92235 -1.389986,0.92235 -0.890825,0 -2.848254,-1.24935 -2.807389,-1.79185 0.07557,-1.00326 -0.675453,-2.96095 -1.290512,-3.36395 -0.519796,-0.34058 -0.629782,-0.63639 -0.629782,-1.69378 0,-1.58281 0.574756,-2.38427 2.309208,-3.22003 1.7899,-0.86249 4.739507,-0.87188 6.473588,-0.0206 1.652488,0.8112 2.569512,1.69813 2.76467,2.67391 0.210057,1.05029 0.580024,1.03312 0.530088,-0.0246 -0.03525,-0.74669 0.114012,-0.9138 1.548488,-1.73364 1.38622,-0.79227 1.759826,-0.89159 2.946646,-0.78337 1.576145,0.14373 3.168654,1.04542 4.173822,2.36326 1.123435,1.4729 1.131951,2.24581 0.05407,4.90809 -0.526259,1.29983 -0.956834,2.79324 -0.956834,3.3187 0,1.07753 -0.170221,1.15218 -0.915607,0.40155 z m -8.212518,-10.7437 c -0.582083,-0.50769 -1.638108,-1.21874 -2.346722,-1.58012 -1.075273,-0.54837 -1.512928,-0.62924 -2.645834,-0.48886 -0.979005,0.12131 -1.2468,0.0913 -0.960569,-0.10776 0.218281,-0.15178 0.694531,-0.28661 1.058334,-0.29963 0.582582,-0.0209 0.540931,-0.077 -0.349284,-0.47057 -0.555907,-0.24579 -0.931239,-0.5264 -0.834071,-0.62356 0.09717,-0.0972 -1.114872,-0.803 -2.693425,-1.56852 -2.739452,-1.32849 -2.970149,-1.39255 -5.068171,-1.40733 -2.061436,-0.0145 -2.095973,-0.29495 -0.05088,-0.41314 0.904032,-0.0522 0.891455,-0.0651 -0.529167,-0.53938 -0.800365,-0.26722 -2.169583,-0.51101 -3.042708,-0.54176 l -1.5875,-0.0559 1.190625,-0.17336 c 1.129403,-0.16444 1.152578,-0.18443 0.450699,-0.38891 -0.406959,-0.11855 -0.67979,-0.27569 -0.60629,-0.34919 0.0735,-0.0735 0.585061,0.0438 1.136801,0.26075 0.551741,0.21691 1.477757,0.48061 2.057814,0.58599 1.027199,0.18662 1.042693,0.1784 0.595312,-0.31595 -0.862723,-0.9533 -0.461603,-0.97232 0.532851,-0.0253 1.08365,1.03199 3.853868,2.43873 4.696354,2.38484 0.291042,-0.0186 0.377057,0.0337 0.191146,0.11618 -0.387293,0.17189 2.838309,1.83815 4.042187,2.08808 l 0.79375,0.16479 -0.79375,-0.69707 c -0.436562,-0.3834 -1.031875,-0.80047 -1.322916,-0.92685 -0.447077,-0.19412 -0.457955,-0.23236 -0.07012,-0.24653 0.252475,-0.009 1.03955,0.34041 1.749054,0.77698 0.709505,0.43656 1.362122,0.79375 1.45026,0.79375 0.443179,0 -1.087644,-1.97638 -1.954853,-2.52383 -1.122791,-0.70878 -1.757425,-1.44022 -0.809395,-0.93284 0.907139,0.48548 0.648014,-0.052 -0.629529,-1.30583 -0.654843,-0.64268 -1.187004,-1.29255 -1.182579,-1.44415 0.0044,-0.15161 0.129404,-0.0673 0.27773,0.18738 0.148327,0.25466 0.37452,0.46302 0.502652,0.46302 0.286697,0 -0.03684,-1.18367 -0.644983,-2.35969 -0.248454,-0.48045 -0.322839,-0.79389 -0.165298,-0.69653 0.338054,0.20893 0.372675,-0.36487 0.07397,-1.22604 -0.116854,-0.33689 -0.132528,-1.02925 -0.03483,-1.53858 0.175938,-0.91721 0.178003,-0.91468 0.216514,0.26459 0.02138,0.65484 0.126355,1.05316 0.233268,0.88516 0.106912,-0.16801 0.194724,0.30824 0.195138,1.05833 4.13e-4,0.75009 0.106099,1.60192 0.234857,1.89296 0.222754,0.50352 0.244505,0.4971 0.448635,-0.13229 0.173868,-0.53608 0.206571,-0.44978 0.172537,0.45534 -0.03351,0.8912 0.166539,1.43903 0.990329,2.71198 0.996772,1.54025 1.617012,2.08851 1.280791,1.13216 -0.08953,-0.25466 0.152331,-0.0113 0.537471,0.54092 0.385139,0.55216 0.700252,1.1188 0.700252,1.25918 0,0.29298 1.421942,1.83792 1.6916,1.83792 0.250812,0 -0.357058,-1.08529 -0.88302,-1.57654 -0.240154,-0.22431 -0.282205,-0.30396 -0.09345,-0.177 0.533202,0.35863 0.419167,-0.2308 -0.331092,-1.71136 -0.921545,-1.81859 -1.241576,-2.69116 -0.912409,-2.48773 0.145081,0.0897 0.263783,0.35444 0.263783,0.58839 0,0.23394 0.07098,0.35437 0.157741,0.26761 0.08676,-0.0867 -0.03714,-1.01457 -0.275333,-2.06182 -0.238191,-1.04724 -0.368705,-1.96844 -0.290033,-2.04712 0.07867,-0.0787 0.158715,0.0852 0.177872,0.36408 0.01916,0.27891 0.122545,0.0904 0.229753,-0.41892 0.154822,-0.73553 0.202922,-0.5178 0.233805,1.05833 0.02722,1.38904 0.115828,1.86531 0.295362,1.5875 0.187651,-0.29037 0.262969,-0.0774 0.280661,0.79375 0.0133,0.65484 0.173157,1.60314 0.355241,2.10733 l 0.331061,0.9167 0.296505,-0.85056 c 0.421439,-1.20894 0.583953,-1.05386 0.254751,0.2431 -0.231429,0.91175 -0.197817,1.24179 0.202089,1.98437 0.263827,0.4899 0.58,0.89073 0.702606,0.89073 0.122605,0 0.22676,0.20836 0.231454,0.46302 0.0047,0.25466 0.476853,1.11059 1.049242,1.90207 0.809973,1.12 0.974222,1.51916 0.74083,1.80038 -0.700295,0.84381 -1.119321,0.82144 -2.195482,-0.11717 z"
         id="path74" /><path
         style="fill:#517027"
         d="m 73.644864,141.77533 c -0.742051,-0.22218 -2.01594,-1.22453 -2.01594,-1.58624 0,-0.0991 0.386953,-0.29654 0.859896,-0.43875 0.472942,-0.14221 0.83013,-0.39756 0.79375,-0.56744 -0.08493,-0.3966 0.386554,-0.40598 0.518443,-0.0103 0.05474,0.16421 0.233633,-0.13841 0.397549,-0.6725 0.276934,-0.90233 0.262087,-0.95966 -0.209764,-0.8099 -0.841762,0.26717 -0.570009,-0.3302 0.285959,-0.62859 0.436562,-0.15219 0.79375,-0.33715 0.79375,-0.41102 0,-0.0739 -0.477907,0.0343 -1.062016,0.24038 -1.39403,0.49184 -1.362387,0.48927 -1.585271,0.12864 -0.143982,-0.23297 -0.399323,-0.20539 -1.006754,0.10872 -1.020402,0.52767 -1.166156,0.32601 -1.308253,-1.81009 -0.05867,-0.88196 -0.117093,-1.7524 -0.129828,-1.9343 -0.02799,-0.39982 -0.993295,-0.44893 -0.993295,-0.0505 0,0.15411 0.139296,0.19411 0.309547,0.0889 0.208135,-0.12864 0.254196,-0.0471 0.140595,0.24897 -0.09292,0.24215 -0.05363,0.44027 0.08733,0.44027 0.140954,0 0.247911,0.26789 0.237683,0.59532 -0.01761,0.56359 -0.02964,0.56712 -0.225854,0.0661 -0.167119,-0.42668 -0.293051,-0.23453 -0.650253,0.99219 -0.46293,1.58981 -0.978231,1.94198 -1.477237,1.00958 -0.431742,-0.80672 -0.338555,-3.08993 0.145884,-3.57437 1.12099,-1.12099 2.302484,-1.81305 3.05858,-1.79155 1.173481,0.0334 2.792501,1.17642 2.762979,1.95071 -0.04928,1.29241 1.677126,0.73661 1.882008,-0.60591 0.0666,-0.43637 -3.77e-4,-0.47047 -0.450688,-0.22947 -0.290898,0.15569 -0.528906,0.44473 -0.528906,0.64232 0,0.1976 -0.195434,0.43426 -0.434299,0.52592 -0.343233,0.13171 -0.371454,0.0909 -0.134587,-0.19448 0.164842,-0.19862 0.22137,-0.43947 0.125618,-0.53522 -0.09575,-0.0958 -0.03519,-0.17409 0.134587,-0.17409 0.573786,0 0.313501,-0.47059 -0.352777,-0.63782 -0.363802,-0.0913 -0.661459,-0.28984 -0.661459,-0.44117 0,-0.15134 -0.110835,-0.20666 -0.246301,-0.12294 -0.135465,0.0837 -0.332455,0.0128 -0.437755,-0.15755 -0.112136,-0.18144 -0.07732,-0.23925 0.08403,-0.13952 0.151517,0.0936 0.411374,0.007 0.577461,-0.19361 0.249691,-0.30085 0.495389,-0.30675 1.419042,-0.034 0.614386,0.1814 1.119937,0.49528 1.123447,0.6975 0.0035,0.20401 0.238766,0.34646 0.528441,0.32002 0.287132,-0.0262 0.909338,0.24774 1.38268,0.60878 0.677881,0.51704 0.860622,0.8502 0.860622,1.569 0,0.50192 -0.126089,0.91258 -0.280198,0.91258 -0.154109,0 -0.195244,-0.13746 -0.09141,-0.30547 0.116967,-0.18925 0.07258,-0.23364 -0.116676,-0.11667 -0.446224,0.27578 -0.373065,0.68672 0.122255,0.68672 0.336314,0 0.387081,0.15549 0.23756,0.7276 -0.104587,0.40019 -0.219062,1.32292 -0.254387,2.05053 -0.09407,1.93753 -0.07737,1.88744 -0.967468,2.90121 -0.868274,0.98891 -1.634089,1.14487 -3.248317,0.66155 z m -22.634236,-4.92136 c -0.407617,-0.5182 -0.54837,-1.08035 -0.54837,-2.19009 0,-0.92602 -0.157144,-1.7173 -0.413823,-2.08376 -0.414934,-0.5924 -0.308082,-1.6436 0.167069,-1.6436 0.317177,0 0.311189,0.17898 -0.02714,0.81115 -0.188801,0.35278 -0.188801,0.51177 0,0.51177 0.150641,0 0.273893,0.19681 0.273893,0.43736 0,0.34443 0.119326,0.30227 0.561598,-0.19844 0.528264,-0.59806 0.551353,-0.60232 0.38899,-0.0718 -0.114392,0.37377 -0.04221,0.61402 0.214021,0.71235 0.504447,0.19357 0.334168,-0.81698 -0.233275,-1.38443 -0.359834,-0.35983 -0.402168,-0.35277 -0.402168,0.067 0,0.25806 -0.09365,0.41131 -0.208106,0.34057 -0.114458,-0.0707 -0.236086,-0.83711 -0.270284,-1.70305 -0.05685,-1.43955 -0.01068,-1.58797 0.538836,-1.73233 0.341468,-0.0897 0.644515,-0.0303 0.701749,0.13756 0.05541,0.16251 0.515606,-0.16795 1.022669,-0.73435 0.507063,-0.5664 0.772313,-0.81873 0.589444,-0.56074 -0.283468,0.39992 -0.268458,0.44451 0.10181,0.30242 0.238865,-0.0917 0.434299,-0.34525 0.434299,-0.56353 0,-0.24998 0.151983,-0.33855 0.410617,-0.2393 0.235459,0.0904 0.341662,0.046 0.248968,-0.10399 -0.198985,-0.32196 0.139795,-0.33367 0.632145,-0.0218 0.28604,0.18116 0.239308,0.27172 -0.214566,0.41577 -0.31914,0.10129 -0.71117,0.4715 -0.871179,0.82268 -0.160008,0.35118 -0.443767,0.63851 -0.630575,0.63851 -0.186809,0 -0.673713,0.29344 -1.08201,0.65209 l -0.742358,0.65209 1.31279,-0.48942 c 0.722035,-0.26918 1.366428,-0.65192 1.431986,-0.85053 0.142435,-0.43152 0.887167,-1.01667 1.11484,-0.87596 0.154956,0.0958 0.789979,-0.46176 1.508628,-1.32453 0.478924,-0.57497 1.735097,-0.50978 2.304672,0.11959 0.285506,0.31548 0.352134,0.52917 0.164995,0.52917 -0.172642,0 -0.382165,-0.17791 -0.465606,-0.39536 -0.08344,-0.21744 -0.260241,-0.32828 -0.392887,-0.2463 -0.132647,0.082 -0.182398,0.24416 -0.11056,0.36039 0.07184,0.11624 -0.07505,0.19871 -0.326414,0.18327 -0.251365,-0.0154 -0.846446,0.14912 -1.322402,0.36569 -0.774348,0.35235 -0.851043,0.48416 -0.729125,1.25315 0.08552,0.53939 0.03037,0.83495 -0.148091,0.79375 -0.156387,-0.0361 -0.483124,0.22695 -0.726083,0.58455 -0.242959,0.35759 -0.292915,0.55893 -0.111014,0.4474 0.241086,-0.14781 0.330729,0.0576 0.330729,0.75778 0,0.93804 -0.471402,1.71651 -1.039435,1.71651 -0.155915,0 -0.283482,0.11906 -0.283482,0.26458 0,0.14552 -0.119062,0.26459 -0.264583,0.26459 -0.145521,0 -0.264583,-0.22698 -0.264583,-0.5044 0,-0.68531 -0.934362,-0.44019 -0.987025,0.25893 -0.02135,0.28345 -0.224725,0.70126 -0.45194,0.92848 -0.447264,0.44726 -0.554893,0.75875 -0.182687,0.52872 0.126738,-0.0783 0.502143,0.0932 0.834234,0.38126 0.332091,0.28802 0.793944,0.5255 1.026339,0.52773 0.346913,0.003 0.356471,0.0459 0.0534,0.23778 -0.295665,0.18722 -0.269336,0.2552 0.132292,0.34159 0.416671,0.0896 0.3449,0.20578 -0.424617,0.68726 -1.222667,0.76501 -1.959362,0.73255 -2.62663,-0.11574 z m 29.759992,-2.72745 c -0.255924,-0.28279 -0.839924,-0.59618 -1.297778,-0.69641 -0.457853,-0.10023 -1.462513,-0.7576 -2.232577,-1.46082 -0.770064,-0.70322 -1.797066,-1.38818 -2.282226,-1.52214 -0.935974,-0.25844 -2.198482,-0.13001 -2.713747,0.27605 -0.17087,0.13465 -0.732502,0.16569 -1.248071,0.069 -1.168913,-0.21929 -3.240873,0.70432 -3.664175,1.63337 -0.169415,0.37182 -0.511313,0.626 -0.838821,0.6236 -0.463443,-0.003 -0.488665,-0.0496 -0.155968,-0.28598 0.305603,-0.2171 0.229542,-0.24543 -0.330729,-0.1232 -0.833493,0.18183 -0.908723,-0.11459 -0.449109,-1.76958 0.270544,-0.97418 0.299092,-0.99219 1.573002,-0.99219 4.186016,0 6.97911,-1.68603 6.528179,-3.94068 -0.178527,-0.89264 0.142387,-1.24694 2.037025,-2.24893 1.378534,-0.72905 2.260226,-0.66171 1.120995,0.0856 -0.489566,0.32115 -0.602304,0.52938 -0.397492,0.73419 0.204813,0.20482 0.200693,0.44512 -0.01452,0.84725 -0.165233,0.30875 -0.206029,0.53436 -0.09066,0.50137 0.115373,-0.033 0.477659,0.0885 0.805081,0.27011 0.327422,0.18156 0.595312,0.2622 0.595312,0.1792 0,-0.083 0.238125,-0.0235 0.529167,0.13229 0.346498,0.18544 0.529167,0.55399 0.529167,1.06764 0,0.43144 0.119062,0.78444 0.264583,0.78444 0.145521,0 0.266406,-0.14883 0.268635,-0.33073 0.0027,-0.22116 0.09037,-0.19924 0.264583,0.0661 0.231584,0.35277 0.291714,0.35277 0.541169,0 0.210897,-0.29825 0.238548,-0.18319 0.111269,0.46302 -0.124743,0.63333 -0.07408,0.85989 0.192265,0.85989 0.271838,0 0.36351,-0.47629 0.369195,-1.91823 0.0042,-1.05502 -0.105213,-1.99444 -0.243049,-2.0876 -0.137837,-0.0932 -0.264749,-0.44048 -0.282027,-0.77183 -0.01728,-0.33136 -0.196816,-0.65754 -0.398973,-0.72485 -0.252393,-0.084 -0.300318,-0.008 -0.152957,0.24267 0.136348,0.23194 0.02918,0.20617 -0.293901,-0.0707 -0.279675,-0.23964 -0.746626,-0.49372 -1.037667,-0.56462 -0.356436,-0.0868 -0.257909,-0.13894 0.301839,-0.15961 1.228931,-0.0454 3.246112,1.44657 4.039043,2.98739 l 0.643761,1.25095 -0.547285,1.5035 c -0.301007,0.82693 -0.687261,1.47079 -0.858343,1.43081 -0.171081,-0.04 -0.237137,0.0469 -0.14679,0.19308 0.09035,0.14619 -0.01423,0.79156 -0.232403,1.43416 -0.218169,0.6426 -0.340441,1.47844 -0.271718,1.85743 0.149551,0.82472 0.07648,0.84868 -0.533283,0.1749 z"
         id="path73" /><path
         style="fill:#581c32"
         d="m 80.77062,134.12652 c -0.255924,-0.28279 -0.839924,-0.59618 -1.297778,-0.69641 -0.457853,-0.10023 -1.462513,-0.7576 -2.232577,-1.46082 -0.770064,-0.70322 -1.797066,-1.38818 -2.282226,-1.52214 -0.935974,-0.25844 -2.198482,-0.13001 -2.713747,0.27605 -0.17087,0.13465 -0.724226,0.16724 -1.229681,0.0724 -1.212684,-0.2275 -3.233991,0.6454 -3.660104,1.58062 -0.188967,0.41474 -0.52258,0.67538 -0.861282,0.6729 -0.463443,-0.003 -0.488665,-0.0496 -0.155968,-0.28598 0.305603,-0.2171 0.229542,-0.24543 -0.330729,-0.1232 -0.833493,0.18183 -0.908723,-0.11459 -0.449109,-1.76958 0.270544,-0.97418 0.299092,-0.99219 1.573002,-0.99219 4.186016,0 6.97911,-1.68603 6.528179,-3.94068 -0.181045,-0.90523 0.150536,-1.25566 2.123523,-2.24423 1.347923,-0.67539 2.276196,-0.5802 1.000406,0.10258 -0.483587,0.25881 -0.57783,0.43338 -0.369485,0.68442 0.197106,0.2375 0.192798,0.49935 -0.01459,0.88686 -0.161851,0.30242 -0.199879,0.52286 -0.08451,0.48987 0.115373,-0.033 0.477659,0.0885 0.805081,0.27011 0.327422,0.18156 0.595312,0.2622 0.595312,0.1792 0,-0.083 0.238125,-0.0235 0.529167,0.13229 0.346498,0.18544 0.529167,0.55399 0.529167,1.06764 0,0.43144 0.119062,0.78444 0.264583,0.78444 0.145521,0 0.266406,-0.14883 0.268635,-0.33073 0.0027,-0.22116 0.09037,-0.19924 0.264583,0.0661 0.231584,0.35277 0.291714,0.35277 0.541169,0 0.210897,-0.29825 0.238548,-0.18319 0.111269,0.46302 -0.124743,0.63333 -0.07408,0.85989 0.192265,0.85989 0.271838,0 0.36351,-0.47629 0.369195,-1.91823 0.0042,-1.05502 -0.105213,-1.99444 -0.243049,-2.0876 -0.137837,-0.0932 -0.264749,-0.44048 -0.282027,-0.77183 -0.01728,-0.33136 -0.196816,-0.65754 -0.398973,-0.72485 -0.252393,-0.084 -0.300318,-0.008 -0.152957,0.24267 0.136348,0.23194 0.02918,0.20617 -0.293901,-0.0707 -0.279675,-0.23964 -0.746626,-0.49372 -1.037667,-0.56462 -0.356436,-0.0868 -0.257909,-0.13894 0.301839,-0.15961 1.228931,-0.0454 3.246112,1.44657 4.039043,2.98739 l 0.643761,1.25095 -0.547285,1.5035 c -0.301007,0.82693 -0.687261,1.47079 -0.858343,1.43081 -0.171081,-0.04 -0.237137,0.0469 -0.14679,0.19308 0.09035,0.14619 -0.01423,0.79156 -0.232403,1.43416 -0.218169,0.6426 -0.340441,1.47844 -0.271718,1.85743 0.149551,0.82472 0.07648,0.84868 -0.533283,0.1749 z"
         id="path72" /></g></g></svg>
