<?xml version="1.0" encoding="UTF-8" standalone="no"?>
<!-- Created with Inkscape (http://www.inkscape.org/) -->

<svg
   width="53.710724mm"
   height="65.616737mm"
   viewBox="0 0 53.710724 65.616737"
   version="1.1"
   id="svg1"
   inkscape:export-filename="the-ballistic.svg"
   inkscape:export-xdpi="96"
   inkscape:export-ydpi="96"
   xml:space="preserve"
   xmlns:inkscape="http://www.inkscape.org/namespaces/inkscape"
   xmlns:sodipodi="http://sodipodi.sourceforge.net/DTD/sodipodi-0.dtd"
   xmlns="http://www.w3.org/2000/svg"
   xmlns:svg="http://www.w3.org/2000/svg"><sodipodi:namedview
     id="namedview1"
     pagecolor="#ffffff"
     bordercolor="#000000"
     borderopacity="0.25"
     inkscape:showpageshadow="2"
     inkscape:pageopacity="0.0"
     inkscape:pagecheckerboard="0"
     inkscape:deskcolor="#d1d1d1"
     inkscape:document-units="mm"><inkscape:page
       x="0"
       y="0"
       width="53.710724"
       height="65.616737"
       id="page2"
       margin="0"
       bleed="0" /></sodipodi:namedview><defs
     id="defs1" /><g
     inkscape:label="Calque 1"
     inkscape:groupmode="layer"
     id="layer1"
     transform="translate(-84.132735,-110.3926)"><g
       id="g217"
       transform="translate(-6.4867359,-0.20324196)"><path
         style="fill:#d2e6f3"
         d="M 90.619789,143.40417 V 110.59583 H 117.475 144.3302 v 32.80834 32.80833 H 117.475 90.619789 Z"
         id="path223" /><path
         style="fill:#c5dbeb"
         d="m 102.92291,175.18119 c 2.55448,-0.97409 4.16541,-1.66222 7.30167,-3.11901 l 1.48084,-0.68785 0.17206,-4.9231 c 0.23877,-6.83162 0.21774,-8.85941 -0.11149,-10.74994 l -0.28504,-1.63684 -0.90363,0.0717 c -0.497,0.0394 -0.98244,-0.0558 -1.07876,-0.21165 -0.11167,-0.18069 -0.0481,-0.20483 0.17555,-0.0666 0.19287,0.1192 0.12197,-0.0968 -0.15756,-0.47997 -0.49323,-0.67615 -1.12708,-1.02198 -0.74754,-0.40786 0.11969,0.19365 0.0723,0.23345 -0.12952,0.10873 -0.24076,-0.14879 -0.2442,-0.28602 -0.0141,-0.56325 0.23213,-0.27971 0.1923,-0.72227 -0.16818,-1.86831 -0.38213,-1.2149 -0.51456,-1.40573 -0.69327,-0.99898 -0.15424,0.35105 -0.18145,0.24325 -0.0902,-0.35721 0.0719,-0.473 -0.007,-1.18738 -0.17591,-1.5875 -0.16867,-0.40012 -0.32393,-0.96561 -0.34503,-1.25665 -0.0211,-0.29105 -0.0605,-0.82683 -0.0877,-1.19063 -0.0352,-0.47223 -0.11338,-0.56038 -0.27328,-0.30813 -0.12318,0.19433 -0.32971,0.35013 -0.45896,0.34622 -0.26718,-0.008 -0.26525,0.33247 0.007,1.28483 0.14526,0.50766 0.12372,0.56918 -0.0926,0.26458 -0.24491,-0.34478 -0.31427,-0.34658 -0.52835,-0.0137 -0.16304,0.25347 -0.19602,0.007 -0.0975,-0.7276 l 0.14898,-1.11073 H 98.194931 90.619469 V 127.79382 110.5959 h 18.933321 c 12.55484,0 18.87824,0.0891 18.7698,0.26459 -0.0899,0.14552 -0.0374,0.26458 0.11668,0.26458 0.15411,0 0.2802,-0.11906 0.2802,-0.26458 0,-0.17041 2.77812,-0.26459 7.80521,-0.26459 h 7.8052 v 32.80834 32.80833 h -6.24998 -6.24998 l 0.43289,-0.59531 c 0.23809,-0.32742 0.51223,-0.77391 0.60922,-0.99219 0.097,-0.21828 0.37427,-0.57547 0.61619,-0.79375 0.4488,-0.40495 1.05208,-1.40248 1.05208,-1.73963 0,-0.1028 -0.73559,0.77947 -1.63465,1.96061 l -1.63465,2.14752 -15.49712,-0.005 -15.49712,-0.005 z m 24.88829,-13.8136 c 0.12617,-0.20414 0.24988,-0.1841 0.40844,0.0661 0.18523,0.29233 0.22821,0.28501 0.23151,-0.0394 0.002,-0.21909 0.43712,-0.75488 0.96641,-1.19062 1.20775,-0.99428 2.73648,-2.58065 2.73952,-2.84279 0.001,-0.10914 0.1295,-0.19844 0.28498,-0.19844 0.23972,0 2.62773,-2.29584 2.62773,-2.52631 0,-0.19798 1.65527,-1.70702 1.87243,-1.70702 0.13433,0 0.24423,-0.17318 0.24423,-0.38485 0,-0.21167 0.30307,-0.68792 0.67349,-1.05833 0.37042,-0.37042 0.84667,-0.67349 1.05833,-0.67349 0.28158,0 0.38705,-0.33723 0.39303,-1.25677 0.008,-1.16868 0.0882,-1.31704 1.15037,-2.11667 0.62821,-0.47294 1.27937,-0.85989 1.44703,-0.85989 0.17925,0 0.30484,-0.436 0.30484,-1.05834 0,-0.76435 -0.11025,-1.05833 -0.39688,-1.05833 -0.21828,0 -0.39687,0.11906 -0.39687,0.26458 0,0.16902 -2.28571,0.26459 -6.32795,0.26459 h -6.32795 l -0.26575,-0.72761 c -0.22116,-0.60554 -0.27591,-0.63883 -0.32637,-0.19843 -0.0333,0.29104 -0.13389,-0.007 -0.22343,-0.66146 -0.0922,-0.67399 -0.18989,0.72554 -0.22524,3.22528 -0.0344,2.42875 0.0419,4.48039 0.16942,4.55921 0.12753,0.0788 0.21701,-0.49809 0.19884,-1.28202 -0.0182,-0.78394 0.0563,-1.37004 0.16541,-1.30245 0.30592,0.18943 0.23478,2.68379 -0.0821,2.87965 -0.18813,0.11627 -0.21981,1.08036 -0.0962,2.9262 0.17734,2.64744 -0.0808,5.11167 -0.6971,6.65507 -0.24517,0.61394 0.0911,0.85057 0.42984,0.30248 z"
         id="path222" /><path
         style="fill:#b6d2e4"
         d="m 111.79051,175.74948 c 0.003,-0.39633 0.0415,-0.40586 0.26421,-0.0661 0.18234,0.27817 0.2072,0.12164 0.0831,-0.52329 -0.0974,-0.5061 -0.42463,-1.12722 -0.72723,-1.38026 -0.44983,-0.37617 -0.47203,-0.4617 -0.12169,-0.46889 0.38053,-0.008 0.45023,-0.88035 0.6227,-7.79536 0.2498,-10.01518 0.093,-11.52803 -1.19522,-11.52803 -0.50655,0 -0.90301,-0.20359 -1.15928,-0.59531 -0.50388,-0.77021 -2.14808,-6.05371 -2.37879,-7.64404 -0.17744,-1.22316 -0.18206,-1.2278 -1.19942,-1.20543 -2.07757,0.0457 -3.73198,-1.8064 -3.70474,-4.14743 0.0281,-2.41312 1.87645,-4.0733 4.6175,-4.14738 0.72761,-0.0197 1.76584,-0.21996 2.30718,-0.4451 1.30318,-0.542 2.97534,-0.095 3.88568,1.0388 0.75638,0.94202 1.04204,2.9963 0.54849,3.94429 -0.18151,0.34864 0.41976,-0.10251 1.33617,-1.00255 1.60414,-1.5755 1.65688,-1.66911 1.4162,-2.51354 -0.21314,-0.7478 -0.38513,-0.89004 -1.16662,-0.96486 -1.21295,-0.11614 -1.48146,-0.37905 -1.68461,-1.64948 -0.0937,-0.58618 -0.26999,-1.00426 -0.39168,-0.92905 -0.12168,0.0752 -0.1677,-0.14336 -0.10225,-0.4857 0.0654,-0.34235 -0.0113,-0.70296 -0.17052,-0.80136 -0.40934,-0.25299 -0.35899,-0.95528 0.10528,-1.46829 0.35227,-0.38925 0.33657,-0.49869 -0.14579,-1.01644 -0.49838,-0.53495 -0.49439,-1.28545 0.005,-0.97669 0.11968,0.074 0.26658,-0.28501 0.32643,-0.79773 0.079,-0.67695 0.0168,-0.89688 -0.22741,-0.80318 -0.18493,0.071 -0.41798,-0.003 -0.51788,-0.16488 -0.11,-0.17798 -0.0612,-0.21944 0.12381,-0.10512 0.18825,0.11634 0.30391,0.005 0.30142,-0.28985 -0.006,-0.72271 -0.4181,-1.23747 -0.801,-1.00082 -0.22481,0.13894 -0.26926,0.10063 -0.13511,-0.11643 0.10996,-0.17793 0.34406,-0.2682 0.52022,-0.2006 0.17616,0.0676 0.6106,-0.11228 0.96542,-0.39973 l 0.64514,-0.52263 -0.79375,0.1719 c -0.52216,0.11309 -0.70322,0.0828 -0.52916,-0.0886 0.41312,-0.40682 1.86405,-0.49191 1.78593,-0.10473 -0.0364,0.18031 0.0468,0.32783 0.18481,0.32783 0.3674,0 1.61942,-1.21643 1.43837,-1.39748 -0.0848,-0.0848 0.11672,-0.0833 0.44781,0.003 l 0.60197,0.15741 -0.64195,0.23872 c -0.59002,0.2194 -0.60336,0.26041 -0.1649,0.5071 0.29542,0.16622 0.74872,0.17959 1.19062,0.0351 0.61703,-0.20169 1.51437,-0.21829 2.76411,-0.0511 0.1819,0.0243 0.62838,-0.0129 0.99218,-0.0827 0.36381,-0.0698 0.51263,-0.076 0.33073,-0.0138 -0.54833,0.18754 -0.37197,0.60219 0.26459,0.62208 0.56803,0.0177 0.57106,0.029 0.0661,0.24599 -0.44143,0.18969 -0.45377,0.23047 -0.0744,0.24598 0.27703,0.0113 0.39926,0.16313 0.31279,0.38846 -0.0781,0.20342 0.13404,0.63512 0.47133,0.95934 0.33729,0.32421 0.49114,0.63504 0.34189,0.69073 -0.14952,0.0558 -0.22467,0.5908 -0.16738,1.19155 0.10956,1.14884 -0.21941,2.55945 -1.01384,4.34736 -0.44267,0.99625 -0.4458,1.0993 -0.0421,1.38162 0.38325,0.26799 0.37196,0.28721 -0.0929,0.15808 -0.58155,-0.16155 -0.69319,-0.27067 2.27539,2.22404 2.90373,2.4402 3.35439,3.86484 3.74173,11.82846 0.37431,7.69544 0.34015,9.72845 -0.1996,11.88066 -0.2387,0.95177 -0.34697,1.8713 -0.24061,2.0434 0.12146,0.19653 0.0798,0.24269 -0.11207,0.12412 -0.19204,-0.11868 -0.30547,0.008 -0.30547,0.34081 0,0.3875 0.14225,0.50219 0.53017,0.42749 0.29158,-0.0562 0.63156,-0.16477 0.7555,-0.24137 0.32528,-0.20104 2.18233,1.45982 3.07902,2.75374 0.70452,1.01663 0.7953,1.06856 1.11166,0.63592 0.4091,-0.55947 0.43843,-0.38693 0.09,0.52948 -0.1629,0.42848 -0.1629,0.7259 0,0.82658 0.13996,0.0865 0.25448,0.4977 0.25448,0.91377 0,0.41608 0.0723,0.94483 0.1606,1.17501 0.17541,0.45713 0.89773,0.58098 0.89773,0.15393 0,-0.14552 -0.17859,-0.26458 -0.39687,-0.26458 -0.21829,0 -0.39688,-0.17859 -0.39688,-0.39687 0,-0.28664 0.29398,-0.39688 1.05833,-0.39688 0.76436,0 1.05834,0.11024 1.05834,0.39688 0,0.21828 0.13364,0.39687 0.29698,0.39687 0.20518,0 0.19517,0.12267 -0.0324,0.39688 -0.18116,0.21828 -0.61618,0.39687 -0.96673,0.39687 -0.5621,0 -0.63009,0.10775 -0.57589,0.9126 0.0378,0.56074 -0.11206,1.10434 -0.38858,1.4099 -0.24753,0.27351 -0.45005,0.58572 -0.45005,0.6938 0,0.10807 -0.17594,0.37244 -0.39098,0.58748 -0.21504,0.21504 -0.57558,0.65302 -0.80121,0.97329 -0.35182,0.4994 -0.4493,0.5258 -0.68468,0.18543 -0.21339,-0.30857 -0.2372,-0.26442 -0.10701,0.19844 0.16474,0.58566 0.12886,0.59531 -2.21322,0.59531 -2.25849,0 -2.38656,-0.0306 -2.49534,-0.59531 l -0.11466,-0.59531 -0.036,0.59531 -0.036,0.59531 H 118.93 c -6.62872,0 -7.14345,-0.0334 -7.13969,-0.46302 z m 20.63344,-0.0661 c 0.15577,-0.29104 0.39158,-0.52916 0.52404,-0.52916 0.13246,0 0.39616,-0.29066 0.58601,-0.64592 0.46752,-0.87488 2.2399,-3.48103 3.24943,-4.77804 1.1054,-1.42018 2.51969,-3.78888 2.51969,-4.22007 0,-0.19165 0.29766,-0.40535 0.66146,-0.4749 0.44355,-0.0848 0.66146,-0.008 0.66146,0.23374 0,0.1981 0.17859,0.36019 0.39687,0.36019 0.21828,0 0.39688,-0.10449 0.39688,-0.23219 0,-0.1277 -0.1786,-0.3804 -0.39688,-0.56156 -0.21828,-0.18116 -0.39687,-0.55293 -0.39687,-0.82615 0,-0.27322 0.17859,-0.49677 0.39687,-0.49677 0.21828,0 0.39688,-0.17859 0.39688,-0.39687 0,-0.28664 0.29398,-0.39688 1.05833,-0.39688 h 1.05833 v 1.05833 c 0,0.76436 0.11025,1.05834 0.39688,1.05834 0.34047,0 0.39687,0.80845 0.39687,5.68854 v 5.68854 h -6.09472 c -6.01274,0 -6.09092,-0.007 -5.81153,-0.52917 z M 90.619789,120.00089 v -9.40506 l 9.458851,0.004 9.45886,0.004 -0.92604,0.79108 c -0.50933,0.4351 -1.57085,1.35593 -2.35894,2.04629 -0.78809,0.69037 -1.74087,1.49334 -2.11729,1.78438 -0.92655,0.71639 -4.409742,4.01923 -5.421139,5.14044 -0.450043,0.49891 -1.413573,1.52464 -2.141177,2.2794 -1.758756,1.82439 -2.978993,3.26789 -3.512944,4.15568 -0.240684,0.40018 -0.59053,0.72761 -0.777435,0.72761 -0.186906,0 -0.343571,0.20836 -0.348144,0.46302 -0.0046,0.25466 -0.302229,0.67694 -0.661458,0.93839 l -0.653144,0.47537 z m 9.525001,7.92515 c -0.181159,-0.21828 -0.493393,-0.39687 -0.693856,-0.39687 -0.564414,0 -0.494589,-2.05246 0.0736,-2.16342 0.407714,-0.0796 0.407714,-0.11071 0,-0.44867 -0.376917,-0.31243 -0.438077,-0.30319 -0.438077,0.0662 0,0.32401 -0.25801,0.42927 -1.052234,0.42927 -0.848651,0 -1.141915,-0.13687 -1.515755,-0.70742 -0.339642,-0.51836 -0.376628,-0.73639 -0.138391,-0.8158 0.178821,-0.0596 0.32513,-0.29094 0.32513,-0.51406 0,-0.26627 0.170321,-0.36115 0.495625,-0.27608 0.374545,0.0979 0.465397,0.014 0.371892,-0.34355 -0.07999,-0.30587 0.121869,-0.63408 0.570965,-0.92834 0.382084,-0.25035 0.638054,-0.51183 0.568821,-0.58106 -0.06923,-0.0692 0.224707,-0.42087 0.653201,-0.78143 0.428493,-0.36055 0.779079,-0.82356 0.779079,-1.02891 0,-0.20534 0.10376,-0.37335 0.23057,-0.37335 0.12681,0 0.81703,-0.56555 1.53381,-1.25677 0.71679,-0.69123 1.87908,-1.73302 2.58288,-2.31511 2.3914,-1.97782 3.45615,-2.9046 4.48126,-3.90057 l 1.02332,-0.99422 9.16314,0.0128 9.16314,0.0128 -3.96875,1.99108 c -3.63678,1.82454 -6.64814,3.47668 -8.33437,4.57254 -0.3638,0.23643 -0.98888,0.5971 -1.38906,0.8015 -0.40019,0.2044 -0.72761,0.47058 -0.72761,0.59151 0,0.12093 -0.12727,0.21988 -0.28282,0.21988 -0.33693,0 -4.83762,3.15344 -4.96475,3.47859 -0.0485,0.12407 -0.25095,0.22557 -0.44987,0.22557 -0.19892,0 -0.45689,0.15134 -0.57327,0.3363 -0.11637,0.18497 -0.539,0.48007 -0.93918,0.65579 -0.40019,0.17572 -0.72761,0.4411 -0.72761,0.58974 0,0.14864 -0.24366,0.27026 -0.54147,0.27026 -0.32462,0 -0.72198,0.31721 -0.99219,0.79207 -0.24789,0.43565 -0.59954,0.79283 -0.78144,0.79375 -0.1819,9.2e-4 -0.33073,0.12074 -0.33073,0.26626 0,0.14552 -0.24927,0.26458 -0.55394,0.26458 -0.33142,0 -0.60952,0.21257 -0.69232,0.52917 -0.0761,0.29104 -0.30308,0.52917 -0.50439,0.52917 -0.20131,0 -0.36602,0.17859 -0.36602,0.39687 0,0.21828 -0.16401,0.39688 -0.36448,0.39688 -0.20046,0 -0.51269,-0.1786 -0.69385,-0.39688 z m 12.25083,-7.12782 c -0.25556,-0.29099 -0.11585,-0.49385 0.72193,-1.04827 0.57134,-0.3781 1.16042,-0.68745 1.30907,-0.68745 0.14864,0 0.27025,-0.10518 0.27025,-0.23372 0,-0.25433 0.87757,-0.58683 1.71979,-0.65162 0.33118,-0.0255 0.5608,-0.26344 0.61372,-0.63601 0.0807,-0.56822 0.42649,-0.72387 1.42661,-0.64216 0.29836,0.0244 0.40152,-0.0967 0.30242,-0.35496 -0.18338,-0.47788 0.20483,-0.5134 0.66916,-0.0612 0.27377,0.26661 0.3225,0.22936 0.25135,-0.19216 -0.0538,-0.31852 0.0669,-0.53544 0.30862,-0.55501 0.93313,-0.0755 1.05833,-0.13073 1.05833,-0.46667 0,-0.33502 2.55807,-1.76272 3.15835,-1.76272 0.15468,0 0.28123,-0.17859 0.28123,-0.39688 0,-0.2203 0.23511,-0.39687 0.52847,-0.39687 0.29065,0 1.28444,-0.35719 2.20843,-0.79375 0.92399,-0.43656 1.8768,-0.79375 2.11737,-0.79375 0.24057,0 0.4374,-0.11906 0.4374,-0.26458 0,-0.16998 2.60174,-0.26459 7.27604,-0.26459 h 7.27604 v 4.89479 4.8948 h -15.19149 c -11.90563,0 -15.22036,0.0715 -15.32494,0.33073 -0.0797,0.19757 -0.14187,0.14431 -0.15434,-0.1323 -0.0235,-0.52003 -0.42394,-0.61655 -0.70063,-0.16885 -0.1,0.16179 -0.0177,0.39809 0.18282,0.52511 0.30128,0.19083 0.29568,0.22991 -0.0323,0.22494 -0.21828,-0.003 -0.53947,-0.16838 -0.71375,-0.36683 z"
         id="path221" /><path
         style="fill:#9cb6d4"
         d="m 112.25642,175.4849 c -0.2188,-0.51241 -0.31468,-3.7013 -0.32418,-10.78177 -0.007,-5.5298 -0.10982,-10.203 -0.22755,-10.3849 -0.11772,-0.1819 -0.48192,-0.33073 -0.80932,-0.33073 -0.3274,0 -0.80453,-0.15301 -1.06028,-0.34002 -0.52885,-0.38671 -1.49002,-3.14281 -2.34968,-6.73758 l -0.58527,-2.4474 h -0.87727 c -1.15445,0 -2.16232,-0.54672 -2.92982,-1.58927 -0.54085,-0.73469 -0.61033,-1.08208 -0.52356,-2.6177 0.0738,-1.30656 0.23726,-1.9146 0.62361,-2.32006 0.87714,-0.92053 2.18301,-1.43846 3.51129,-1.39264 0.68639,0.0237 1.71457,-0.16028 2.29018,-0.40975 1.37451,-0.5957 2.97618,-0.35861 3.76662,0.55757 0.31782,0.36838 0.70739,1.27376 0.8657,2.01196 0.25522,1.19005 0.22414,1.46511 -0.27418,2.42656 -0.30911,0.59641 -0.51549,1.02484 -0.45863,0.95208 0.0569,-0.0728 0.92149,-0.99495 1.92138,-2.04931 l 1.81798,-1.91702 -0.3227,-1.07708 c -0.29475,-0.9838 -0.38478,-1.06344 -1.03958,-0.91963 -1.02607,0.22537 -1.50384,-0.2935 -1.87481,-2.03609 -0.1776,-0.83427 -0.43389,-1.58543 -0.56953,-1.66926 -0.38762,-0.23957 -0.28932,-0.95838 0.20589,-1.50557 0.35799,-0.39558 0.3809,-0.54426 0.10969,-0.71188 -0.18854,-0.11652 -0.32209,-0.25808 -0.29678,-0.31457 0.2922,-0.65202 0.42106,-2.53064 0.19807,-2.88769 -0.45896,-0.73492 -0.0241,-1.81723 0.79732,-1.98459 0.39796,-0.0811 1.11767,-0.25254 1.59936,-0.38102 0.69568,-0.18556 0.81851,-0.16458 0.59727,0.10199 -0.22451,0.27052 -0.0358,0.27397 0.97304,0.0178 1.71327,-0.43502 4.12411,0.19073 4.935,1.28091 0.83063,1.11672 0.77612,5.05432 -0.0959,6.92488 -0.69137,1.48311 -0.83809,1.98422 -0.5811,1.98469 0.0963,1.8e-4 0.52097,0.29784 0.94378,0.66146 0.42282,0.36363 0.85036,0.66114 0.9501,0.66114 0.34742,0 2.55089,2.25462 2.97368,3.04271 1.01984,1.90102 1.32462,3.64318 1.41172,8.06979 0.0472,2.40109 0.19773,5.36313 0.33441,6.58231 0.2773,2.47352 0.0875,4.43597 -0.73018,7.55049 -0.30241,1.15184 -0.49064,2.15344 -0.4183,2.22579 0.0724,0.0723 0.4353,-0.007 0.80656,-0.17603 0.97641,-0.44488 1.03085,-0.42402 2.29911,0.88084 1.66371,1.71172 2.62949,3.64183 2.78372,5.56327 l 0.12816,1.59662 -1.47002,0.74376 c -1.67909,0.84954 -2.21943,0.78378 -3.20742,-0.39038 -0.66192,-0.78665 -0.67593,-0.78999 -1.32622,-0.31659 -0.6007,0.4373 -0.65795,0.65484 -0.66555,2.52898 l -0.008,2.05052 h -6.75342 -6.75342 z M 90.619789,115.55062 v -4.95479 h 3.141036 3.141036 l -1.884265,2.91378 c -1.036346,1.60258 -2.449812,3.83223 -3.141036,4.95479 l -1.256771,2.04101 z m 8.315617,3.60422 c 0.230133,-0.59175 0.220883,-0.4965 0.182382,-1.87828 l -0.03133,-1.12448 h -1.04076 c -0.937305,0 -1.049081,-0.072 -1.124479,-0.72393 -0.06527,-0.56436 -0.2244,-0.72474 -0.721971,-0.7276 -0.351038,-0.002 -0.688409,-0.15258 -0.749713,-0.33458 -0.07418,-0.22024 0.04319,-0.27157 0.350926,-0.15348 0.325201,0.12479 0.40287,0.0811 0.261783,-0.14715 -0.307669,-0.49782 0.07541,-1.68877 0.491804,-1.52898 0.233819,0.0897 0.315624,-0.0173 0.238549,-0.31201 -0.07327,-0.28018 0.184978,-0.67204 0.687966,-1.04391 0.782046,-0.5782 0.96225,-0.5933 6.249277,-0.52384 l 5.44401,0.0715 -2.33172,1.84951 c -2.37784,1.88609 -2.94502,2.35672 -4.38945,3.64225 -0.60857,0.54162 -0.87371,0.64374 -1.03043,0.39688 -0.14473,-0.22797 -0.2123,-0.162 -0.21508,0.21001 -0.004,0.55617 -0.46125,1.1774 -0.86633,1.1774 -0.125,0 -0.14547,-0.13238 -0.0455,-0.29417 0.19946,-0.32272 -0.394769,-0.80799 -0.733249,-0.5988 -0.304856,0.18841 -0.260053,1.15755 0.05351,1.15755 0.473899,0 0.278749,0.65761 -0.302944,1.02089 -0.512854,0.32028 -0.549199,0.30729 -0.377272,-0.1348 z"
         id="path220" /><path
         style="fill:#67cedd"
         d="m 112.41008,175.74948 c -0.12471,-0.25466 -0.23162,-4.51115 -0.23757,-9.45885 -0.006,-4.94771 -0.1071,-9.78073 -0.22479,-10.74005 -0.19689,-1.60491 -0.26034,-1.73534 -0.79455,-1.63322 -1.09926,0.21014 -1.72247,-0.68725 -2.68923,-3.87233 -0.50356,-1.65903 -0.98743,-3.62785 -1.07526,-4.37516 l -0.15969,-1.35874 -0.90221,0.10532 c -1.22957,0.14355 -2.32123,-0.36015 -3.15789,-1.45708 -0.62932,-0.82507 -0.69012,-1.09837 -0.59983,-2.69629 0.14447,-2.55677 1.13032,-3.4735 3.73539,-3.4735 0.78758,0 1.78233,-0.17479 2.21056,-0.38842 0.71572,-0.35705 1.09744,-0.40647 3.00686,-0.38933 0.73455,0.007 1.94473,1.21303 1.74331,1.73792 -0.0694,0.18071 -0.0308,0.36602 0.0857,0.4118 0.11649,0.0458 0.28558,0.55949 0.37577,1.14158 0.12357,0.79753 0.0993,0.92793 -0.0984,0.52916 -0.21857,-0.44077 -0.2377,-0.40328 -0.11448,0.22444 0.31131,1.58601 -2.12009,3.5707 -3.93752,3.21409 -0.45786,-0.0898 -0.71323,-0.0668 -0.56748,0.0512 0.49984,0.40456 0.98802,1.61927 0.78366,1.94993 -0.12456,0.20154 -0.0964,0.26395 0.0721,0.15979 0.35653,-0.22034 1.2086,1.06785 0.96598,1.46041 -0.10721,0.17347 -0.066,0.22494 0.0987,0.12317 0.15557,-0.0961 0.34316,-0.0252 0.41686,0.15756 0.0737,0.18281 0.14407,-0.14387 0.15637,-0.72595 0.0493,-2.33307 1.01039,-4.03359 4.01161,-7.09801 1.11944,-1.14302 1.22779,-1.3575 1.0315,-2.0419 -0.33609,-1.17189 -0.4885,-1.31114 -1.43504,-1.31114 -1.09883,0 -1.35545,-0.32447 -1.56942,-1.98437 -0.10198,-0.79121 -0.35546,-1.46007 -0.63066,-1.66416 -0.41909,-0.3108 -0.42441,-0.40521 -0.0595,-1.05833 0.29143,-0.52169 0.38914,-1.42175 0.35854,-3.303 -0.0372,-2.29003 0.0152,-2.61653 0.4581,-2.85358 0.34439,-0.18431 0.50016,-0.18026 0.50016,0.013 0,0.17007 0.30763,0.12161 0.78061,-0.12298 0.91542,-0.47339 1.16722,-0.50807 0.93262,-0.12848 -0.172,0.27831 0.70766,0.14061 1.89758,-0.29704 0.31246,-0.11492 0.62897,-0.14809 0.70336,-0.0737 0.0744,0.0744 0.29499,0.16673 0.49023,0.20521 1.97708,0.3896 2.41284,0.56177 2.85974,1.1299 0.2811,0.35737 0.59394,1.2022 0.69519,1.87739 0.21125,1.40872 -0.25347,4.89672 -0.67096,5.03588 -0.15402,0.0513 -0.28004,0.30171 -0.28004,0.55637 0,0.25466 -0.0828,0.54584 -0.18405,0.64707 -0.24958,0.24958 -0.34084,0.9624 -0.12327,0.9628 0.0963,1.8e-4 0.52097,0.29784 0.94378,0.66146 0.42282,0.36363 0.85036,0.66114 0.9501,0.66114 0.34742,0 2.55089,2.25462 2.97368,3.04271 0.97444,1.81639 1.32575,3.66292 1.35912,7.14375 0.0181,1.89177 -0.0598,3.79677 -0.17311,4.23333 -0.13047,0.50255 -0.11713,0.66033 0.0364,0.43006 0.30097,-0.45145 0.70152,3.09606 0.44193,3.91397 -0.10256,0.32314 -0.0581,0.55076 0.10761,0.55076 0.15533,0 0.28241,0.23813 0.28241,0.52917 0,0.29104 -0.10444,0.52916 -0.23208,0.52916 -0.12765,0 -0.17169,0.53579 -0.0979,1.19063 0.0763,0.67706 0.0247,1.19062 -0.11966,1.19062 -0.13962,0 -0.24717,0.20836 -0.23899,0.46303 0.0252,0.78681 -0.72794,3.77031 -0.95183,3.77031 -0.1164,0 -0.21164,0.18661 -0.21164,0.4147 0,0.30697 0.15466,0.36798 0.59531,0.23485 0.32742,-0.0989 0.70842,-0.28554 0.84667,-0.41471 0.42269,-0.39492 0.82632,-0.26778 1.65058,0.51993 1.30315,1.24536 2.26753,2.65404 2.10568,3.07581 -0.0859,0.22399 -0.0186,0.36901 0.15486,0.33343 0.44329,-0.0909 1.03498,1.85678 0.9431,3.10443 -0.072,0.97828 -0.18727,1.12525 -1.40141,1.78736 -0.7276,0.39678 -1.49018,0.7242 -1.69461,0.7276 -0.20444,0.003 -0.8167,-0.46161 -1.3606,-1.03336 l -0.98889,-1.03955 -0.55764,0.59358 c -0.39884,0.42454 -0.55764,0.93719 -0.55764,1.80022 0,0.66366 -0.0744,1.57872 -0.16536,2.03347 l -0.16536,0.82682 h -6.55321 c -5.97837,0 -6.57309,-0.0406 -6.77994,-0.46302 z"
         id="path219" /><path
         style="fill:#b9f908"
         d="m 112.41008,175.74948 c -0.12471,-0.25466 -0.23162,-4.51115 -0.23757,-9.45885 -0.006,-4.94771 -0.1071,-9.78073 -0.22479,-10.74005 -0.19689,-1.60491 -0.26034,-1.73534 -0.79455,-1.63322 -1.09926,0.21014 -1.72247,-0.68725 -2.68923,-3.87233 -0.50356,-1.65903 -0.98743,-3.62785 -1.07526,-4.37516 l -0.15969,-1.35874 -0.90221,0.10532 c -1.22957,0.14355 -2.32123,-0.36015 -3.15789,-1.45708 -0.62932,-0.82507 -0.69012,-1.09837 -0.59983,-2.69629 0.14465,-2.56002 1.12974,-3.4735 3.7458,-3.4735 0.7933,0 1.78339,-0.17786 2.20021,-0.39524 0.86258,-0.44987 2.14125,-0.5133 3.08837,-0.15321 1.74735,0.66434 2.42353,4.2297 1.1004,5.80216 -0.77965,0.92655 -2.1573,1.4582 -3.1397,1.21163 -0.37846,-0.095 -0.6881,-0.1148 -0.6881,-0.044 0,0.71969 1.99857,4.16204 2.41641,4.16204 0.12618,0 0.23009,-0.44649 0.2309,-0.99219 0.003,-2.22029 1.0022,-3.9804 3.99072,-7.03186 1.11944,-1.14302 1.22779,-1.3575 1.0315,-2.0419 -0.33609,-1.17189 -0.4885,-1.31114 -1.43504,-1.31114 -1.09883,0 -1.35545,-0.32447 -1.56942,-1.98437 -0.10198,-0.79121 -0.35546,-1.46007 -0.63066,-1.66416 -0.41909,-0.3108 -0.42441,-0.40521 -0.0595,-1.05833 0.29143,-0.52169 0.38914,-1.42175 0.35854,-3.303 -0.0372,-2.29003 0.0152,-2.61653 0.4581,-2.85358 0.34439,-0.18431 0.50016,-0.18026 0.50016,0.013 0,0.17007 0.30763,0.12161 0.78061,-0.12298 0.93622,-0.48414 1.16717,-0.50799 0.91139,-0.0941 -0.13055,0.21123 -0.0441,0.25307 0.2721,0.13172 2.11866,-0.81301 4.6837,-0.10772 5.65544,1.55504 0.53304,0.91209 0.5962,1.30525 0.49208,3.06311 -0.0736,1.24313 -0.33292,2.49929 -0.67596,3.27478 -0.30607,0.69194 -0.5565,1.45809 -0.5565,1.70257 0,0.24448 0.7766,1.01472 1.72578,1.71166 2.00924,1.47529 2.88657,2.53928 3.56411,4.32241 0.58381,1.53646 1.07079,5.73364 1.00567,8.6677 -0.0258,1.16417 0.0486,3.66448 0.16545,5.55625 0.19995,3.2375 0.1711,3.60078 -0.49105,6.18306 -0.38692,1.50892 -0.6548,2.79217 -0.59529,2.85168 0.0595,0.0595 0.43809,-0.0172 0.84129,-0.17053 0.99291,-0.3775 1.51117,-0.16537 2.63497,1.07855 1.23719,1.36942 2.26884,3.64781 2.45103,5.41309 l 0.1446,1.40107 -1.39715,0.708 c -1.60929,0.81548 -2.20817,0.69398 -3.20146,-0.64951 l -0.59692,-0.80738 -0.61197,0.57492 c -0.47125,0.44271 -0.61198,0.86092 -0.61198,1.81864 0,0.68405 -0.0744,1.6158 -0.16536,2.07055 l -0.16536,0.82682 h -6.55321 c -5.97837,0 -6.57309,-0.0406 -6.77994,-0.46302 z"
         id="path218" /><path
         style="fill:#4b0e88"
         d="m 112.41008,175.74948 c -0.12471,-0.25466 -0.23162,-4.51115 -0.23757,-9.45885 -0.006,-4.94771 -0.1071,-9.78073 -0.22479,-10.74005 -0.19689,-1.60491 -0.26034,-1.73534 -0.79455,-1.63322 -1.09597,0.20951 -1.72279,-0.68829 -2.67822,-3.83606 -0.49751,-1.63909 -0.9831,-3.57229 -1.07911,-4.29599 -0.15588,-1.17507 -0.10727,-1.37187 0.45439,-1.83968 0.86299,-0.71881 0.99438,-0.68131 1.45225,0.41452 0.51205,1.22553 1.69255,3.01277 1.98997,3.01277 0.12618,0 0.23009,-0.44649 0.2309,-0.99219 0.003,-2.22029 1.0022,-3.9804 3.99072,-7.03186 1.11944,-1.14302 1.22779,-1.3575 1.0315,-2.0419 -0.33609,-1.17189 -0.4885,-1.31114 -1.43504,-1.31114 -1.09883,0 -1.35545,-0.32447 -1.56942,-1.98437 -0.10198,-0.79121 -0.35546,-1.46007 -0.63066,-1.66416 -0.41909,-0.3108 -0.42441,-0.40521 -0.0595,-1.05833 0.29143,-0.52169 0.38914,-1.42175 0.35854,-3.303 -0.0372,-2.29003 0.0152,-2.61653 0.4581,-2.85358 0.34439,-0.18431 0.50016,-0.18026 0.50016,0.013 0,0.17007 0.30763,0.12161 0.78061,-0.12298 0.93622,-0.48414 1.16717,-0.50799 0.91139,-0.0941 -0.13055,0.21123 -0.0441,0.25307 0.2721,0.13172 2.11866,-0.81301 4.6837,-0.10772 5.65544,1.55504 0.53304,0.91209 0.5962,1.30525 0.49208,3.06311 -0.0736,1.24313 -0.33292,2.49929 -0.67596,3.27478 -0.30607,0.69194 -0.5565,1.45809 -0.5565,1.70257 0,0.24448 0.7766,1.01472 1.72578,1.71166 2.00924,1.47529 2.88657,2.53928 3.56411,4.32241 0.58381,1.53646 1.07079,5.73364 1.00567,8.6677 -0.0258,1.16417 0.0485,3.66448 0.16508,5.55625 0.20529,3.32993 0.18582,3.54243 -0.61075,6.66526 -0.91023,3.56839 -1.00501,4.87129 -0.45111,6.20087 0.20443,0.49071 0.45202,1.43073 0.5502,2.08893 0.15095,1.01198 0.0936,1.2736 -0.37169,1.69465 -0.40918,0.3703 -0.55021,0.81803 -0.55021,1.74677 0,0.68686 -0.0744,1.62091 -0.16536,2.07566 -0.16085,0.80426 -0.20458,0.82682 -1.60246,0.82682 h -1.43709 l 0.45931,-0.77756 c 0.43825,-0.74189 0.43665,-0.82785 -0.035,-1.87376 -0.27188,-0.60291 -0.5016,-1.47339 -0.51051,-1.93442 -0.0133,-0.6887 -0.12358,-0.8395 -0.61821,-0.8454 -0.37728,-0.005 -0.78392,-0.30082 -1.08928,-0.79375 -0.84162,-1.35861 -1.73475,-2.02387 -2.46952,-1.83946 -0.97657,0.24511 -2.32147,1.58354 -2.32147,2.31031 0,0.67453 1.39289,3.15539 2.67355,4.76185 l 0.79097,0.99219 h -3.55603 c -3.12394,0 -3.58359,-0.0563 -3.78278,-0.46302 z"
         id="path217" /></g></g></svg>
